<svg width="168" height="189" viewBox="0 0 168 189" fill="none" xmlns="http://www.w3.org/2000/svg">
<path d="M51.0071 0L109.499 0.107975C109.924 27.8696 110.365 59.4041 109.476 87.0144C124.101 88.2241 151.875 87.1462 167.766 87.3222C167.849 94.7155 168.39 108.648 167.474 115.487C165.553 116.702 162.714 116.447 160.357 116.149L160.322 123.875C157.333 124.263 156.424 124.491 153.382 123.791C153.252 127.531 153.859 127.972 152.059 130.562C149.363 130.978 148.502 130.977 145.769 130.863L146.13 138.082C143.532 138.356 141.474 138.684 138.852 138.363C138.992 141.184 139.372 142.627 137.946 145.018C133.289 145.345 135.102 143.933 131.943 146.344C131.733 147.967 131.524 151.664 130.692 152.688L124.515 153.059C124.168 156.817 124.793 157.361 122.744 159.592C120.281 159.803 119.222 159.825 116.757 159.658C116.861 163.283 117.459 164.03 116 166.837C113.574 167.74 112.282 167.481 109.71 167.364C109.685 171.337 110.368 171.759 108.461 174.397C105.731 174.724 105.013 174.633 102.267 174.309C102.266 177.673 102.87 179.032 101.268 181.426C98.7921 182.113 97.8318 181.954 95.301 181.81C95.3683 184.005 95.2243 185.761 95.0752 187.933L94.1429 188.571C89.5313 188.968 77.7354 189.44 73.5651 188.201C73.347 186.24 73.1562 184.275 72.9917 182.308C70.5887 181.692 69.2858 181.763 66.8624 181.738L65.6507 180.473C65.5664 178.53 65.2971 176.271 65.1156 174.305C63.1992 174.376 61.8784 174.267 59.962 174.124C58.0575 171.843 58.7034 170.964 58.5994 167.36C55.9536 167.486 54.6175 167.748 52.0995 166.874C50.5265 164.022 51.1289 163.488 51.186 159.739L43.7735 159.725L43.1165 154.199C41.1302 152.311 39.9091 152.775 36.6404 152.371L36.7342 145.455L31.3726 145.329C29.0268 143.523 29.6812 143.764 28.7345 140.328L28.3672 138.815C25.954 138.304 24.4807 138.366 22.0632 138.352L22.2294 130.874C19.9969 130.984 18.7195 130.937 16.4879 130.774C14.4649 128.459 15.0853 127.92 14.7555 124.153C12.6704 124.585 9.80044 124.206 7.59857 124.048L7.55769 116.481C4.83944 116.39 2.71849 116.818 0.813158 115.498C-0.382362 108.742 0.0470983 94.4664 0.209853 87.1878C17.178 87.3553 34.1471 87.4301 51.117 87.4148L51.0071 0Z" fill="#4F5660"/>
<path d="M51.0071 0L109.499 0.107975C109.924 27.8696 110.365 59.4041 109.476 87.0144C124.101 88.2241 151.875 87.1462 167.766 87.3222C167.849 94.7155 168.39 108.648 167.474 115.487C165.553 116.702 162.714 116.447 160.357 116.149L160.322 123.875C157.333 124.263 156.424 124.491 153.382 123.791C153.252 127.531 153.859 127.972 152.059 130.562C149.363 130.978 148.502 130.977 145.769 130.863L139.483 130.864L138.951 130.776C135.285 130.985 134.308 130.411 131.793 132.212C131.594 133.964 131.407 135.143 131.036 136.867C127.237 139.576 125.273 136.233 123.867 140.563C123.318 142.255 124.412 143.084 123.105 144.986C120.723 145.287 119.458 145.374 117.058 145.366L116.524 145.025C113.395 145.107 111.933 144.627 109.543 146.052C109.77 149.937 110.213 148.76 108.458 151.95C106.68 152.202 104.898 152.421 103.113 152.608C100.835 156.686 103.86 156.888 101.412 159.596C99.3281 159.702 97.2071 159.834 95.1254 159.909L88.4781 159.879C87.8611 154.731 88.1517 144.901 88.1432 139.19L88.0528 100.386C87.9139 73.3933 86.2506 42.8195 87.4973 15.9742C89.6992 14.4508 92.5043 14.654 95.3205 14.484C91.6794 14.1975 85.3619 14.3973 81.5222 14.3973L72.7948 14.3616L73.2635 8.45937L73.4109 7.63221L65.9652 7.60414C62.7638 7.61434 61.5716 7.07198 59.1874 8.5384C58.4128 10.9739 58.5517 12.1428 58.5969 14.6319L58.7222 22.0354L58.6608 94.2182C51.3283 94.1986 12.102 93.3196 8.10727 95.5885C7.56362 98.2952 7.49975 98.9362 7.58411 101.695L7.55769 116.481C4.83944 116.39 2.71849 116.818 0.813158 115.498C-0.382362 108.742 0.0470983 94.4664 0.209853 87.1878C17.178 87.3553 34.1471 87.4301 51.117 87.4148L51.0071 0Z" fill="#000006"/>
<path d="M88.4781 159.879C87.8611 154.731 88.1517 144.901 88.1432 139.19L88.0528 100.386C87.9139 73.3933 86.2506 42.8195 87.4973 15.9742C89.6992 14.4508 92.5043 14.654 95.3205 14.484C95.5131 38.7866 95.4194 63.0909 95.0377 87.3918L95.2532 94.3865L102.287 94.1289L109.985 94.4196C106.039 94.7792 104.681 94.151 102.395 96.2975C102.327 97.9169 102.23 99.5594 102.242 101.178L108.661 101.876C109.032 110.288 110.175 130.219 109.49 138.216C109.726 141.863 110.284 141.949 108.909 144.843C104.831 144.814 105.389 144.199 102.506 146.127C102.414 148.045 102.3 149.718 102.097 151.627C99.6578 153.163 98.6523 153.096 95.8634 153.339C95.0061 155.85 95.1365 157.311 95.1254 159.909L88.4781 159.879Z" fill="#424753"/>
<path d="M102.242 101.178L108.661 101.876C109.032 110.288 110.175 130.219 109.49 138.216C109.203 139.394 108.938 141.917 108.759 143.227C106.71 145.011 107.047 144.481 103.924 144.617C99.7695 141.211 104.352 106.31 102.274 101.802L102.242 101.178Z" fill="#474E5A"/>
<path d="M102.287 94.1289L109.985 94.4196C106.039 94.7792 104.681 94.151 102.395 96.2975C102.327 97.9169 102.23 99.5594 102.242 101.178L102.274 101.802C99.7568 102.113 98.7921 102.367 96.3371 101.62C94.713 99.0728 95.2941 97.8438 95.2532 94.3865L102.287 94.1289Z" fill="#333944"/>
<path d="M153.249 101.901L160.305 101.492L160.357 116.149L160.322 123.875C157.333 124.263 156.424 124.491 153.382 123.791C153.252 127.531 153.859 127.972 152.059 130.562C149.363 130.978 148.502 130.977 145.769 130.863L139.483 130.864L138.951 130.776C135.285 130.985 134.308 130.411 131.793 132.212C131.594 133.964 131.407 135.143 131.036 136.867C127.237 139.576 125.273 136.233 123.867 140.563C123.318 142.255 124.412 143.084 123.105 144.986C120.723 145.287 119.458 145.374 117.058 145.366L116.524 145.025C113.395 145.107 111.933 144.627 109.543 146.052C109.77 149.937 110.213 148.76 108.458 151.95C106.68 152.202 104.898 152.421 103.113 152.608C100.835 156.686 103.86 156.888 101.412 159.596C99.3281 159.702 97.2071 159.834 95.1254 159.909C95.1365 157.311 95.0061 155.85 95.8634 153.339C98.6523 153.096 99.6578 153.163 102.097 151.627C102.3 149.718 102.414 148.045 102.506 146.127C105.389 144.199 104.831 144.814 108.909 144.843C110.284 141.949 109.726 141.863 109.49 138.216C110.175 130.219 109.032 110.288 108.661 101.876L112.515 101.915C120.889 101.679 129.267 101.624 137.644 101.75L138.551 102.124L138.762 108.799L146.115 108.932C148.488 108.948 149.721 108.863 152.078 108.569C153.773 106.405 153.179 105.205 153.249 101.901Z" fill="#333944"/>
<path d="M112.515 101.915C120.889 101.679 129.267 101.624 137.644 101.75L138.551 102.124L138.762 108.799C138.672 112.179 139.31 114.003 137.491 115.987C134.156 116.05 133.142 115.439 131.052 117.18L130.983 122.428C128.017 125.078 126.822 121.555 124.364 124.826C124.353 128.184 125 128.974 123.215 130.948C118.685 131.152 118.835 130.352 116.461 132.813C116.041 134.883 115.977 135.305 116.105 137.409C114.259 138.714 111.916 138.284 109.49 138.216C110.175 130.219 109.032 110.288 108.661 101.876L112.515 101.915Z" fill="#424753"/>
<path d="M153.249 101.901L160.305 101.492L160.357 116.149L160.322 123.875C157.333 124.263 156.424 124.491 153.382 123.791C153.252 127.531 153.859 127.972 152.059 130.562C149.363 130.978 148.502 130.977 145.769 130.863L139.483 130.864L138.951 130.776C138.598 128.886 138.539 125.282 138.442 123.235L138.561 118.734C140.204 116.077 140.937 116.685 144.95 115.576C146.818 113.272 146.136 112.57 146.115 108.932C148.488 108.948 149.721 108.863 152.078 108.569C153.773 106.405 153.179 105.205 153.249 101.901Z" fill="#1C212B"/>
<path d="M145.769 130.863C145.59 128.141 145.133 126.273 146.51 124.022C149.512 122.768 149.679 123.36 153.382 123.791C153.252 127.531 153.859 127.972 152.059 130.562C149.363 130.978 148.502 130.977 145.769 130.863Z" fill="#000006"/>
<path d="M160.322 123.875L155.358 123.328C153.097 121.609 153.859 122.457 152.631 119.473L153.634 117.301C156.814 115.512 156.226 116.089 160.357 116.149L160.322 123.875Z" fill="#000006"/>
<path d="M116.524 145.025L116.855 139.283C119.434 136.454 120.431 140.061 123.983 137.449C124.104 135.507 124.247 133.568 124.409 131.628C127.653 129.315 127.533 132.557 131.492 129.315C132.008 127.349 132.062 126.98 131.981 124.934L131.958 124.458C134.066 122.917 135.753 123.246 138.442 123.235C138.539 125.282 138.598 128.886 138.951 130.776C135.285 130.985 134.308 130.411 131.793 132.212C131.594 133.964 131.407 135.143 131.036 136.867C127.237 139.576 125.273 136.233 123.867 140.563C123.318 142.255 124.412 143.084 123.105 144.986C120.723 145.287 119.458 145.374 117.058 145.366L116.524 145.025Z" fill="#262933"/>
<path d="M73.4109 7.63221L102.409 7.62793L102.303 87.6146L102.287 94.1289L95.2532 94.3865L95.0377 87.3918C95.4194 63.0909 95.5131 38.7866 95.3205 14.484C91.6794 14.1975 85.3619 14.3973 81.5222 14.3973L72.7948 14.3616L73.2635 8.45937L73.4109 7.63221Z" fill="#7F8B97"/>
<path d="M95.0377 87.3918L102.303 87.6146L102.287 94.1289L95.2532 94.3865L95.0377 87.3918Z" fill="#4F5660"/>
<path d="M73.2635 8.45937C77.0069 8.53333 78.3694 7.92785 81.1004 9.6119C81.627 11.7388 81.6023 12.1989 81.5222 14.3973L72.7948 14.3616L73.2635 8.45937Z" fill="#8B9098"/>
<path d="M109.985 94.4196C122.117 94.049 134.074 94.3168 146.205 94.5089C150.731 94.3091 156.262 93.306 159.647 95.8206C160.579 98.1261 160.407 98.9796 160.305 101.492L153.249 101.901C153.179 105.205 153.773 106.405 152.078 108.569C149.721 108.863 148.488 108.948 146.115 108.932L138.762 108.799L138.551 102.124L137.644 101.75C129.267 101.624 120.889 101.679 112.515 101.915L108.661 101.876L102.242 101.178C102.23 99.5594 102.327 97.9169 102.395 96.2975C104.681 94.151 106.039 94.7792 109.985 94.4196Z" fill="#8B9098"/>
<path d="M138.551 102.124C142.229 102.092 149.89 102.221 153.249 101.901C153.179 105.205 153.773 106.405 152.078 108.569C149.721 108.863 148.488 108.948 146.115 108.932L138.762 108.799L138.551 102.124Z" fill="#333944"/>
<path d="M109.985 94.4196C122.117 94.049 134.074 94.3168 146.205 94.5089L146.413 95.2849C139.134 95.1463 115.211 93.787 110.378 96.4869C109.206 98.772 109.414 97.728 109.959 100.652C110.885 101.166 111.506 101.585 112.515 101.915L108.661 101.876L102.242 101.178C102.23 99.5594 102.327 97.9169 102.395 96.2975C104.681 94.151 106.039 94.7792 109.985 94.4196Z" fill="#5B626F"/>
<path d="M146.205 94.5089C150.731 94.3091 156.262 93.306 159.647 95.8206C160.579 98.1261 160.407 98.9796 160.305 101.492L153.249 101.901C149.89 102.221 142.229 102.092 138.551 102.124L137.644 101.75C142.455 100.891 148.018 102.507 152.142 100.365C153.641 98.1091 153.325 99.1802 153.103 96.1963C150.753 94.8702 149.425 95.335 146.413 95.2849L146.205 94.5089Z" fill="#474E5A"/>
<path d="M22.0975 122.696C26.0351 123.762 27.0832 123.352 29.1879 126.109C29.1964 129.27 28.8292 128.015 30.9467 130.849C32.921 131.149 32.8247 131.153 34.7684 130.698L36.5834 131.424L36.8348 131.006C40.2688 130.993 41.109 130.366 43.4225 132.065C44.4689 135.553 44.1093 136.858 46.5686 138.346L51.0438 138.399L51.7571 138.393L58.4734 137.722C58.5416 139.954 58.7172 142.845 58.6192 145.02C61.2837 145.084 63.61 144.804 65.7565 146.191C65.5034 149.99 65.1336 148.596 66.8643 151.641C68.8599 152.38 69.966 152.156 72.1056 152.05L73.4093 153.276C73.3224 155.704 73.2321 156.643 73.6505 159.074C77.3112 161.147 77.8437 158.257 80.349 161.031C80.6276 163.38 80.6242 163.91 80.343 166.26C82.6932 167.719 82.6616 167.263 85.6517 167.315L87.3406 166.393C87.9891 164.11 87.8424 161.756 88.4781 159.879L95.1254 159.909C97.2071 159.834 99.3281 159.702 101.412 159.596C103.86 156.888 100.835 156.686 103.113 152.608C104.898 152.421 106.68 152.202 108.458 151.95C110.213 148.76 109.77 149.937 109.543 146.052C111.933 144.627 113.395 145.107 116.524 145.025L117.058 145.366C119.458 145.374 120.723 145.287 123.105 144.986C124.412 143.084 123.318 142.255 123.867 140.563C125.273 136.233 127.237 139.576 131.036 136.867C131.407 135.143 131.594 133.964 131.793 132.212C134.308 130.411 135.285 130.985 138.951 130.776L139.483 130.864L145.769 130.863L146.13 138.082C143.532 138.356 141.474 138.684 138.852 138.363C138.992 141.184 139.372 142.627 137.946 145.018C133.289 145.345 135.102 143.933 131.943 146.344C131.733 147.967 131.524 151.664 130.692 152.688L124.515 153.059C124.168 156.817 124.793 157.361 122.744 159.592C120.281 159.803 119.222 159.825 116.757 159.658C116.861 163.283 117.459 164.03 116 166.837C113.574 167.74 112.282 167.481 109.71 167.364C109.685 171.337 110.368 171.759 108.461 174.397C105.731 174.724 105.013 174.633 102.267 174.309C102.266 177.673 102.87 179.032 101.268 181.426C98.7921 182.113 97.8318 181.954 95.301 181.81C95.3683 184.005 95.2243 185.761 95.0752 187.933L94.1429 188.571C89.5313 188.968 77.7354 189.44 73.5651 188.201C73.347 186.24 73.1562 184.275 72.9917 182.308C70.5887 181.692 69.2858 181.763 66.8624 181.738L65.6507 180.473C65.5664 178.53 65.2971 176.271 65.1156 174.305C63.1992 174.376 61.8784 174.267 59.962 174.124C58.0575 171.843 58.7034 170.964 58.5994 167.36C55.9536 167.486 54.6175 167.748 52.0995 166.874C50.5265 164.022 51.1289 163.488 51.186 159.739L43.7735 159.725L43.1165 154.199C41.1302 152.311 39.9091 152.775 36.6404 152.371L36.7342 145.455L31.3726 145.329C29.0268 143.523 29.6812 143.764 28.7345 140.328L28.3672 138.815C25.954 138.304 24.4807 138.366 22.0632 138.352L22.2294 130.874C19.9969 130.984 18.7195 130.937 16.4879 130.774C14.4649 128.459 15.0853 127.92 14.7555 124.153L22.0975 122.696Z" fill="#151720"/>
<path d="M58.1836 145.215L58.6192 145.02C61.2837 145.084 63.61 144.804 65.7565 146.191C65.5034 149.99 65.1336 148.596 66.8643 151.641C68.8599 152.38 69.966 152.156 72.1056 152.05L73.4093 153.276C73.3224 155.704 73.2321 156.643 73.6505 159.074C77.3112 161.147 77.8437 158.257 80.349 161.031C80.6276 163.38 80.6242 163.91 80.343 166.26C82.6932 167.719 82.6616 167.263 85.6517 167.315L87.3406 166.393C87.9891 164.11 87.8424 161.756 88.4781 159.879L95.1254 159.909C94.6823 172.925 87.6736 161.598 88.3101 174.284L80.1673 174.341C77.726 174.445 76.9063 174.369 74.4829 174.019C72.7232 171.815 73.2686 170.677 73.0811 167.344C73.1885 164.901 73.5489 162.698 72.6065 160.512C69.8806 160.702 69.5679 160.578 67.1368 159.31C65.1386 156.572 65.6481 157.662 65.8671 153.774C63.2409 152.148 63.073 152.709 59.4779 152.658C59.3314 152.218 58.4145 146.394 58.1836 145.215Z" fill="#333944"/>
<path d="M73.0811 167.344C75.6008 167.321 77.8453 166.92 79.697 168.37C80.5516 170.796 80.3403 171.845 80.1673 174.341C77.726 174.445 76.9063 174.369 74.4829 174.019C72.7232 171.815 73.2686 170.677 73.0811 167.344Z" fill="#262933"/>
<path d="M36.8348 131.006C40.2688 130.993 41.109 130.366 43.4225 132.065C44.4689 135.553 44.1093 136.858 46.5686 138.346L51.0438 138.399L51.7571 138.393L58.4734 137.722C58.5416 139.954 58.7172 142.845 58.6192 145.02L58.1836 145.215C58.4145 146.394 59.3314 152.218 59.4779 152.658L58.6897 152.813L53.7926 152.577C47.9471 148.964 55.7065 145.805 44.0427 145.264L43.874 140.83C42.3495 138.467 41.1123 138.749 37.8308 137.663C36.0149 135.376 36.6363 134.926 36.5834 131.424L36.8348 131.006Z" fill="#262933"/>
<path d="M58.4734 137.722C58.5416 139.954 58.7172 142.845 58.6192 145.02L58.1836 145.215C55.8428 145.253 54.6798 145.175 52.3544 144.893C50.5462 142.48 51.1623 142.059 51.0438 138.399L51.7571 138.393L58.4734 137.722Z" fill="#333944"/>
<path d="M65.6507 180.473C66.5131 174.973 65.4531 174.292 71.6045 174.31L72.9696 175.112L73.6274 180.891C76.3891 182.775 90.034 181.113 95.301 181.81C95.3683 184.005 95.2243 185.761 95.0752 187.933L94.1429 188.571C89.5313 188.968 77.7354 189.44 73.5651 188.201C73.347 186.24 73.1562 184.275 72.9917 182.308C70.5887 181.692 69.2858 181.763 66.8624 181.738L65.6507 180.473Z" fill="#000006"/>
<path d="M95.1254 159.909C97.2071 159.834 99.3281 159.702 101.412 159.596C103.86 156.888 100.835 156.686 103.113 152.608C104.898 152.421 106.68 152.202 108.458 151.95C110.213 148.76 109.77 149.937 109.543 146.052C111.933 144.627 113.395 145.107 116.524 145.025L117.058 145.366C116.651 149.039 117.241 149.432 115.23 151.72C111.254 151.796 112.596 151.266 109.777 153.328C109.091 155.393 109.277 155.909 109.463 158.139L108.278 159.677C106.079 159.784 105.207 159.822 103.067 160.273C101.802 162.019 102.2 163.514 102.325 165.766L101.361 166.799C99.2924 166.805 97.8736 166.848 95.8166 167.058C93.3923 171.322 96.4778 171.334 93.751 173.987L88.3101 174.284C87.6736 161.598 94.6823 172.925 95.1254 159.909Z" fill="#262933"/>
<path d="M130.692 152.688C127.286 152.327 126.35 152.871 124.352 150.905C124.226 148.06 123.777 147.904 125.014 145.595C128.878 145.791 129.609 146.122 131.594 143.074C131.528 141.02 131.259 139.919 132.198 138.187C134.789 137.255 136.205 137.797 138.852 138.363C138.992 141.184 139.372 142.627 137.946 145.018C133.289 145.345 135.102 143.933 131.943 146.344C131.733 147.967 131.524 151.664 130.692 152.688Z" fill="#000006"/>
<path d="M59.4779 152.658C63.073 152.709 63.2409 152.148 65.8671 153.774C65.6481 157.662 65.1386 156.572 67.1368 159.31C69.5679 160.578 69.8806 160.702 72.6065 160.512C73.5489 162.698 73.1885 164.901 73.0811 167.344L66.4076 167.38L66.0778 162.449C64.4332 160.014 63.1006 160.189 59.8387 158.959C58.1412 156.602 58.7247 156.206 58.6897 152.813L59.4779 152.658Z" fill="#1C212B"/>
<path d="M51.186 159.739C55.1424 159.615 55.3768 158.956 58.1973 160.692C58.9472 163.335 58.7204 164.649 58.5994 167.36C55.9536 167.486 54.6175 167.748 52.0995 166.874C50.5265 164.022 51.1289 163.488 51.186 159.739Z" fill="#000006"/>
<path d="M109.71 167.364C109.288 164.684 108.837 163.323 109.603 160.716C112.408 159.061 112.972 159.667 116.757 159.658C116.861 163.283 117.459 164.03 116 166.837C113.574 167.74 112.282 167.481 109.71 167.364Z" fill="#000006"/>
<path d="M95.301 181.81C95.0931 179.12 94.7641 177.753 95.6819 175.206C98.2706 173.784 98.9864 174.302 102.267 174.309C102.266 177.673 102.87 179.032 101.268 181.426C98.7921 182.113 97.8318 181.954 95.301 181.81Z" fill="#000006"/>
<path d="M22.0975 122.696L22.2294 130.874C19.9969 130.984 18.7195 130.937 16.4879 130.774C14.4649 128.459 15.0853 127.92 14.7555 124.153L22.0975 122.696Z" fill="#000006"/>
<path d="M102.267 174.309C102.222 172.007 102.317 170.948 102.616 168.662C105.073 166.744 105.823 167.432 109.71 167.364C109.685 171.337 110.368 171.759 108.461 174.397C105.731 174.724 105.013 174.633 102.267 174.309Z" fill="#000006"/>
<path d="M116.757 159.658C116.594 157.055 116.356 156.104 117.225 153.611C120.083 152.041 120.622 152.747 124.515 153.059C124.168 156.817 124.793 157.361 122.744 159.592C120.281 159.803 119.222 159.825 116.757 159.658Z" fill="#000006"/>
<path d="M28.7345 140.328C30.3544 138.547 30.5741 138.274 32.8782 137.636C35.7192 138.479 34.6745 137.84 36.7452 140.613L36.7342 145.455L31.3726 145.329C29.0268 143.523 29.6812 143.764 28.7345 140.328Z" fill="#000006"/>
<path d="M58.5994 167.36C62.0982 167.457 63.2017 166.826 65.3925 168.666L66.1491 173.383L65.1156 174.305C63.1992 174.376 61.8784 174.267 59.962 174.124C58.0575 171.843 58.7034 170.964 58.5994 167.36Z" fill="#000006"/>
<path d="M22.2294 130.874C26.0452 130.951 25.9149 130.376 28.7448 132.109L29.5364 133.894C27.7206 138.264 26.6493 137.895 22.0632 138.352L22.2294 130.874Z" fill="#000006"/>
<path d="M43.7735 159.725C44.4296 155.286 43.6628 155.519 46.2634 152.878L48.4406 152.349C51.8721 154.691 51.336 155.82 51.186 159.739L43.7735 159.725Z" fill="#000006"/>
<path d="M36.7342 145.455L43.4795 145.472C43.8451 148.888 44.4006 148.864 43.0398 151.435C40.4093 152.311 39.3289 152.263 36.6404 152.371L36.7342 145.455Z" fill="#000006"/>
<path d="M139.483 130.864L145.769 130.863L146.13 138.082C143.45 137.927 142.222 137.961 139.627 137.033C138.348 134.388 138.946 134.361 139.483 130.864Z" fill="#000006"/>
<path d="M7.58411 101.695L15.0887 101.97C16.8773 102.079 21.7139 102.28 23.2596 102.643C24.5745 101.537 26.4874 101.505 27.8389 102.566C29.5712 102.459 32.1975 102.439 33.733 101.852L44.2081 101.721L59.178 101.592C58.9965 109.369 57.9008 131.131 58.4734 137.722L51.7571 138.393L51.0438 138.399L46.5686 138.346C44.1093 136.858 44.4689 135.553 43.4225 132.065C41.109 130.366 40.2688 130.993 36.8348 131.006L36.5834 131.424L34.7684 130.698C32.8247 131.153 32.921 131.149 30.9467 130.849C28.8292 128.015 29.1964 129.27 29.1879 126.109C27.0832 123.352 26.0351 123.762 22.0975 122.696L14.7555 124.153C12.6704 124.585 9.80044 124.206 7.59857 124.048L7.55769 116.481L7.58411 101.695Z" fill="#424753"/>
<path d="M7.58411 101.695L15.0887 101.97C16.8773 102.079 21.7139 102.28 23.2596 102.643C24.5745 101.537 26.4874 101.505 27.8389 102.566C28.7319 103.267 29.244 104.346 29.2219 105.479C29.1997 106.613 28.6458 107.671 27.7256 108.337C29.7144 110.698 29.1997 113.288 29.0745 116.431C31.0181 130.871 36.966 117.861 36.8348 131.006L36.5834 131.424L34.7684 130.698C32.8247 131.153 32.921 131.149 30.9467 130.849C28.8292 128.015 29.1964 129.27 29.1879 126.109C27.0832 123.352 26.0351 123.762 22.0975 122.696L14.7555 124.153C12.6704 124.585 9.80044 124.206 7.59857 124.048L7.55769 116.481L7.58411 101.695Z" fill="#1C212B"/>
<path d="M23.2596 102.643C24.5745 101.537 26.4874 101.505 27.8389 102.566C28.7319 103.267 29.244 104.346 29.2219 105.479C29.1997 106.613 28.6458 107.671 27.7256 108.337C29.7144 110.698 29.1997 113.288 29.0745 116.431C26.1347 116.432 24.606 116.838 22.3956 115.383C22.8098 112.767 23.0807 112.346 21.9474 110.12C18.844 107.847 20.0771 108.443 15.8616 108.384C14.6269 106.232 14.9941 104.511 15.0887 101.97C16.8773 102.079 21.7139 102.28 23.2596 102.643Z" fill="#424753"/>
<path d="M23.2596 102.643C24.5745 101.537 26.4874 101.505 27.8389 102.566C28.7319 103.267 29.244 104.346 29.2219 105.479C29.1997 106.613 28.6458 107.671 27.7256 108.337C26.1466 109.48 23.944 109.171 22.7408 107.638C21.5385 106.105 21.7676 103.898 23.2596 102.643Z" fill="#333944"/>
<path d="M7.55769 116.481C11.7893 116.449 11.3462 115.85 14.6157 117.663C15.9058 120.523 15.8206 121.548 12.805 123.49L7.59857 124.048L7.55769 116.481Z" fill="#000006"/>
<path d="M33.733 101.852L44.2081 101.721C44.2268 106.557 43.085 128.211 45.6771 130.953C47.2058 131.146 47.3583 130.992 48.8078 130.577C52.6986 133.789 50.6757 134.41 51.7571 138.393L51.0438 138.399L46.5686 138.346C44.1093 136.858 44.4689 135.553 43.4225 132.065C41.109 130.366 40.2688 130.993 36.8348 131.006C36.966 117.861 31.0181 130.871 29.0745 116.431C29.1997 113.288 29.7144 110.698 27.7256 108.337C28.6458 107.671 29.1997 106.613 29.2219 105.479C29.244 104.346 28.7319 103.267 27.8389 102.566C29.5712 102.459 32.1975 102.439 33.733 101.852Z" fill="#333944"/>
<path d="M58.7222 22.0354C61.6773 22.1612 63.1455 21.6578 65.0287 23.2109C67.107 36.0993 64.3861 64.5275 65.332 78.889C65.6353 83.4957 64.9835 89.7065 66.0052 94.2376L58.6608 94.2182L58.7222 22.0354Z" fill="#262933"/>
<path d="M33.733 101.852C28.5717 100.98 17.754 102.716 15.0545 99.9113C14.8423 96.9121 14.5313 97.9748 15.9433 95.6931C22.508 94.8812 62.514 93.913 66.1798 96.7039C65.8057 99.539 66.1483 98.4559 64.1441 101.055C61.8996 101.725 61.5273 101.705 59.178 101.592L44.2081 101.721L33.733 101.852Z" fill="#8B9098"/>
<path d="M58.5969 14.6319C61.3969 14.6328 63.5682 14.1465 65.678 15.3757C66.4364 21.9649 67.2535 89.7414 66.0052 94.2376C64.9835 89.7065 65.6353 83.4957 65.332 78.889C64.3861 64.5275 67.107 36.0993 65.0287 23.2109C63.1455 21.6578 61.6773 22.1612 58.7222 22.0354L58.5969 14.6319Z" fill="#333944"/>
<path d="M65.9652 7.60414L73.4109 7.63221L73.2635 8.45937L72.7948 14.3616C70.1925 14.4228 69.5032 14.3887 66.9511 13.8999C65.384 11.6132 65.9575 10.8456 65.9652 7.60414Z" fill="#5B626F"/>
</svg>
