<svg width="168" height="226" viewBox="0 0 168 226" fill="none" xmlns="http://www.w3.org/2000/svg">
<path d="M49.4992 0L69.6124 0.0368164C70.0666 4.84658 69.2769 6.19336 72.0376 8.99742L79.2407 9.82916L78.9779 59.1007C84.7632 58.9221 93.1432 57.7148 97.5557 60.2009C99.5959 63.9968 98.8639 64.2147 98.842 69.1074C105.373 68.8516 122.539 67.597 127.957 70.1407C128.159 71.3711 128.444 72.7731 128.527 73.9977L129.778 78.5886L148.131 79.0068L149.901 89.1298C151.781 87.7934 154.319 87.8671 156.119 89.3083C158.013 93.1573 158.093 94.3992 158.736 98.4832C162.488 98.1998 164.624 97.3692 167.514 98.8749C167.971 108.705 168.45 158.346 167.21 166.59C163.511 167.37 161.872 167.426 158.21 167.569L157.746 167.963L157.75 186.802L157.675 225.95L39.8282 226L39.9723 186.989L39.8109 177.314L30.2461 176.536C29.664 174.275 29.7331 169.767 29.6778 167.256C26.6924 167.246 25.0221 167.088 22.0585 166.702C19.329 163.239 20.333 162.228 20.2984 156.684L20.2996 147.416C17.0721 147.364 15.0238 147.273 11.8263 146.868C9.41024 143.837 10.232 142.781 10.111 138.132L9.87476 128.304C6.62997 128.269 5.71586 128.426 2.69123 127.429C-1.55294 121.709 0.471109 105.3 0.556407 97.0097L0.642878 88.5319C9.69488 88.0676 22.8216 85.2555 29.4634 90.0422C30.9538 92.9523 30.6426 95.277 30.6818 98.5868C34.2401 98.4612 36.2607 98.6882 39.4709 97.1353C41.2403 76.4528 40.0369 32.2836 40.0323 9.87529L47.0971 9.08148C49.8981 6.06775 49.0405 5.14731 49.4992 0Z" fill="#515866"/>
<path d="M128.25 186.553C128.318 182.958 128.517 180.941 128.971 177.443C131.217 175.858 133.013 176.505 136.308 176.548C139.944 174.295 137.668 173.619 139.308 167.426C142.134 166.557 143.976 166.632 146.895 166.506C149.854 163.083 148.762 164.058 148.76 158.228C152.786 155.925 152.515 156.684 157.759 156.587C157.806 158.853 157.825 165.627 158.21 167.569L157.746 167.963L157.75 186.802L157.675 225.95L39.8282 226L39.9723 186.989L39.8109 177.314L49.2295 177.399L49.3932 176.624C56.0937 177.065 62.8069 177.264 69.5224 177.224L69.5282 196.608C81.9241 195.357 99.3308 198.183 108.952 194.315L109.475 192.372L108.281 190.385L109.057 189.158C115.943 186.005 120.714 186.639 128.25 186.553Z" fill="#252A34"/>
<path d="M148.35 186.902L157.75 186.802L157.675 225.95L39.8282 226L39.9723 186.989L49.1765 186.962C49.105 195.01 48.6797 206.744 49.3206 214.473C49.8819 215.003 50.4433 215.534 51.0058 216.064C78.6609 216.611 121.667 216.126 147.843 215.899C148.758 210.992 148.365 192.868 148.35 186.902Z" fill="#5C606A"/>
<path d="M49.3206 214.473C50.1009 207.162 49.354 191.666 50.4848 187.476C53.1821 186.22 53.6201 186.521 56.7116 187.065C61.7811 191.551 59.9943 199.531 59.7661 206.178C85.9066 206.487 112.049 206.542 138.191 206.344C137.986 200.484 137.165 192.783 139.118 187.47C141.738 186.025 140.672 186.373 144.395 187.274C149.801 192.064 146.623 207.855 147.843 215.899C121.667 216.126 78.6609 216.611 51.0058 216.064C50.4433 215.534 49.8819 215.003 49.3206 214.473Z" fill="#030513"/>
<path d="M69.5282 196.608C81.9241 195.357 99.3308 198.183 108.952 194.315L109.475 192.372L108.281 190.385L109.057 189.158C115.943 186.005 120.714 186.639 128.25 186.553C128.173 190.318 128.608 193.382 126.502 196.298C119.542 197.232 75.8933 197.872 69.5282 196.608Z" fill="#363D46"/>
<path d="M148.35 186.902C148.017 181 146.624 172.221 149.787 167.695C152.922 166.33 154.499 167.089 157.746 167.963L157.75 186.802L148.35 186.902Z" fill="#010107"/>
<path d="M39.8109 177.314L49.2295 177.399C49.2399 180.186 49.3909 184.303 49.1765 186.962L39.9723 186.989L39.8109 177.314Z" fill="#030513"/>
<path d="M0.642878 88.5319C9.69488 88.0676 22.8216 85.2555 29.4634 90.0422C30.9538 92.9523 30.6426 95.277 30.6818 98.5868C29.476 101.56 29.2674 102.064 29.0495 105.251C32.8695 109.483 37.9378 107.636 38.7897 108.7C41.306 111.846 39.8928 133.321 39.7833 136.942C36.6884 136.984 33.469 137.176 30.4397 136.668L27.4911 137.828L20.2212 138.391L20.2996 147.416C17.0721 147.364 15.0238 147.273 11.8263 146.868C9.41024 143.837 10.232 142.781 10.111 138.132L9.87476 128.304C6.62997 128.269 5.71586 128.426 2.69123 127.429C-1.55294 121.709 0.471109 105.3 0.556407 97.0097L0.642878 88.5319Z" fill="#545C69"/>
<path d="M10.1387 117.707C14.2319 119.106 17.6956 117.877 20.0287 120.497C20.0794 124.671 19.3313 125.262 21.5802 127.907C24.9852 129.114 25.5547 128.974 29.1614 128.459C30.9365 130.692 30.4513 133.595 30.4397 136.668L27.4911 137.828L20.2212 138.391L20.2996 147.416C17.0721 147.364 15.0238 147.273 11.8263 146.868C9.41024 143.837 10.232 142.781 10.111 138.132L9.87476 128.304L10.1387 117.707Z" fill="#171B26"/>
<path d="M10.111 138.132L20.2212 138.391L20.2996 147.416C17.0721 147.364 15.0238 147.273 11.8263 146.868C9.41024 143.837 10.232 142.781 10.111 138.132Z" fill="#5C606A"/>
<path d="M11.9945 129.017C13.2555 127.811 15.0687 127.375 16.7401 127.878C18.4115 128.381 19.6829 129.744 20.069 131.444C20.454 133.146 19.8938 134.923 18.6028 136.097C16.6409 137.879 13.6094 137.755 11.802 135.817C9.99345 133.88 10.0787 130.849 11.9945 129.017Z" fill="#030513"/>
<path d="M0.556407 97.0097C4.59425 97.7977 5.85533 98.1457 10.1076 97.8081L10.1387 117.707L9.87476 128.304C6.62997 128.269 5.71586 128.426 2.69123 127.429C-1.55294 121.709 0.471109 105.3 0.556407 97.0097Z" fill="#010107"/>
<path d="M0.642878 88.5319C7.24082 88.8695 12.7484 89.0768 19.3982 88.9742L19.9342 98.2044L10.1076 97.8081C5.85533 98.1457 4.59425 97.7977 0.556407 97.0097L0.642878 88.5319Z" fill="#030513"/>
<path d="M19.3982 88.9742C25.5385 89.048 24.9276 88.0769 29.0968 91.0826L30.0927 93.9408C27.0992 99.3853 25.897 98.4556 19.9342 98.2044L19.3982 88.9742Z" fill="#010107"/>
<path d="M40.0323 9.87529C44.4401 10.3626 45.9778 9.75665 48.9598 12.1748C49.3932 15.586 49.4324 16.9167 49.2964 20.3555C48.9033 55.9212 48.4112 101.398 49.3345 136.77L39.7833 136.942C39.8928 133.321 41.306 111.846 38.7897 108.7C37.9378 107.636 32.8695 109.483 29.0495 105.251C29.2674 102.064 29.476 101.56 30.6818 98.5868C34.2401 98.4612 36.2607 98.6882 39.4709 97.1353C41.2403 76.4528 40.0369 32.2836 40.0323 9.87529Z" fill="#030513"/>
<path d="M69.9696 39.25C70.1852 29.1685 67.76 20.9486 70.7201 12.3221C73.7839 9.54343 74.1908 10.3741 79.2407 9.82916L78.9779 59.1007C84.7632 58.9221 93.1432 57.7148 97.5557 60.2009C99.5959 63.9968 98.8639 64.2147 98.842 69.1074L89.1942 69.1626C83.825 69.1799 83.7649 68.3503 79.7939 70.7351C78.2332 74.1808 78.8442 79.7614 78.9952 83.7255C78.7647 88.7231 79.7537 96.8345 74.5424 98.3253L72.3638 96.7539C68.1957 87.5284 70.0573 52.2265 69.9696 39.25Z" fill="#030513"/>
<path d="M49.4992 0L69.6124 0.0368164C70.0666 4.84658 69.2769 6.19336 72.0376 8.99742L79.2407 9.82916C74.1908 10.3741 73.7839 9.54343 70.7201 12.3221C67.76 20.9486 70.1852 29.1685 69.9696 39.25L68.726 39.1751L67.4084 39.3214L50.1217 39.4147L50.0848 20.4279L49.2964 20.3555C49.4324 16.9167 49.3932 15.586 48.9598 12.1748C45.9778 9.75665 44.4401 10.3626 40.0323 9.87529L47.0971 9.08148C49.8981 6.06775 49.0405 5.14731 49.4992 0Z" fill="#515866"/>
<path d="M50.0848 20.4279C56.2286 19.3911 62.4496 19.5962 68.6844 19.5928L68.726 39.1751L67.4084 39.3214L50.1217 39.4147L50.0848 20.4279Z" fill="#788491"/>
<path d="M49.4992 0L69.6124 0.0368164L68.8677 6.0067C64.7849 11.5077 58.2896 12.4063 52.6518 8.86028C49.52 6.89145 49.9545 3.32824 49.4992 0Z" fill="#030513"/>
<path d="M158.736 98.4832C162.488 98.1998 164.624 97.3692 167.514 98.8749C167.971 108.705 168.45 158.346 167.21 166.59C163.511 167.37 161.872 167.426 158.21 167.569C157.825 165.627 157.806 158.853 157.759 156.587C157.96 139.919 157.871 123.249 157.492 106.583L157.885 98.9624L158.736 98.4832Z" fill="#030513"/>
<path d="M27.4911 137.828L30.4397 136.668C30.6634 141.99 29.7469 143.687 32.4465 147.028C35.2072 147.348 37.146 147.519 39.9239 147.572L39.962 157.961L39.8766 167.096C39.6726 171.315 40.3528 172.653 38.2019 175.58C35.3985 176.011 33.0724 176.294 30.2461 176.536C29.664 174.275 29.7331 169.767 29.6778 167.256C26.6924 167.246 25.0221 167.088 22.0585 166.702C19.329 163.239 20.333 162.228 20.2984 156.684L20.2996 147.416L20.2212 138.391L27.4911 137.828Z" fill="#252A34"/>
<path d="M27.4911 137.828C31.4171 141.534 31.3192 151.675 27.7516 156.235C24.9668 156.76 24.0366 156.871 21.2044 156.87L20.2984 156.684L20.2996 147.416L20.2212 138.391L27.4911 137.828Z" fill="#030513"/>
<path d="M30.2461 176.536C31.748 169.681 29.3043 166.043 31.2904 159.798C34.5767 156.963 34.3646 157.928 39.962 157.961L39.8766 167.096C39.6726 171.315 40.3528 172.653 38.2019 175.58C35.3985 176.011 33.0724 176.294 30.2461 176.536Z" fill="#010107"/>
<path d="M20.2984 156.684L21.2044 156.87C25.5927 157.75 26.9471 157.197 29.521 159.955L29.6778 167.256C26.6924 167.246 25.0221 167.088 22.0585 166.702C19.329 163.239 20.333 162.228 20.2984 156.684Z" fill="#5C606A"/>
<path d="M98.842 69.1074C105.373 68.8516 122.539 67.597 127.957 70.1407C128.159 71.3711 128.444 72.7731 128.527 73.9977C125.509 85.5043 108.134 71.2374 108.947 84.1034C108.647 90.4719 109.734 93.595 104.34 97.2078L101.852 96.1883C98.7914 93.1008 99.2121 88.7012 98.9435 84.1587L98.7706 78.3893L98.842 69.1074Z" fill="#030513"/>
<path d="M129.778 78.5886L148.131 79.0068L145.622 89.1101C143.688 87.6908 141.021 87.8315 139.247 89.4455C137.473 91.0606 137.083 93.701 138.317 95.7586C138.419 100.387 138.515 103.582 138.028 108.18C134.423 108.36 132.79 108.855 129.902 106.825C127.698 102.762 128.882 93.9246 128.648 87.9639C128.605 84.3546 128.308 81.9445 129.778 78.5886Z" fill="#030513"/>
<path d="M39.7833 136.942L49.3345 136.77L49.5339 146.816C45.6148 147.441 44.0136 147.753 39.9239 147.572C37.146 147.519 35.2072 147.348 32.4465 147.028C29.7469 143.687 30.6634 141.99 30.4397 136.668C33.469 137.176 36.6884 136.984 39.7833 136.942Z" fill="#363D46"/>
<path d="M39.7833 136.942L49.3345 136.77L49.5339 146.816C46.4932 146.567 44.2039 146.31 41.1943 145.81C38.852 142.66 39.7268 141.663 39.7833 136.942Z" fill="#2C313E"/>
<path d="M68.726 39.1751L69.9696 39.25C70.0573 52.2265 68.1957 87.5284 72.3638 96.7539L74.5424 98.3253C79.7537 96.8345 78.7647 88.7231 78.9952 83.7255L79.3445 91.2311C79.575 96.7862 80.6746 103.019 76.8662 107.153C74.0686 108.202 73.7078 108.312 70.8514 107.494C67.3358 98.9037 68.945 61.5799 68.9254 49.7404L68.726 39.1751Z" fill="#171B26"/>
<path d="M108.947 84.1034C109.265 91.3474 111.282 103.981 104.4 108.372L102.192 107.667C96.8895 100.574 98.547 93.1377 98.9435 84.1587C99.2121 88.7012 98.7914 93.1008 101.852 96.1883L104.34 97.2078C109.734 93.595 108.647 90.4719 108.947 84.1034Z" fill="#171B26"/>
<path d="M128.648 87.9639C128.882 93.9246 127.698 102.762 129.902 106.825C132.79 108.855 134.423 108.36 138.028 108.18C138.139 111.909 138.778 114.994 136.665 117.791C123.403 121.474 127.635 96.2552 127.75 87.9962L128.648 87.9639Z" fill="#252A34"/>
<path d="M39.8766 167.096C44.6326 167.199 45.9859 166.337 49.0071 168.817C49.3529 171.908 49.4612 173.519 49.3932 176.624L49.2295 177.399L39.8109 177.314L30.2461 176.536C33.0724 176.294 35.3985 176.011 38.2019 175.58C40.3528 172.653 39.6726 171.315 39.8766 167.096Z" fill="#171B26"/>
<path d="M89.1942 69.1626L98.842 69.1074L98.7706 78.3893C95.5581 78.7729 94.4561 78.7303 91.2193 78.5022C88.4921 75.1106 89.4097 74.5346 89.1942 69.1626Z" fill="#788491"/>
<path d="M67.4084 39.3214L68.726 39.1751L68.9254 49.7404C65.5608 49.8038 64.7238 49.9166 61.554 48.8671C59.0942 45.6887 59.5553 47.1645 59.6567 43.3547C62.913 39.4585 61.6889 40.6139 67.4084 39.3214Z" fill="#363D46"/>
<path d="M149.901 89.1298C151.781 87.7934 154.319 87.8671 156.119 89.3083C157.849 90.6954 158.5 93.0317 157.735 95.1135C156.969 97.194 154.959 98.5523 152.741 98.4889C150.525 98.4244 148.596 96.9521 147.952 94.8301C147.309 92.7092 148.093 90.4143 149.901 89.1298Z" fill="#010107"/>
<path d="M117.774 79.6566C122.187 79.6002 123.755 78.8133 127.022 80.8201C127.714 83.9364 127.75 84.7959 127.75 87.9962C122.338 88.5135 122.185 89.5065 118.78 87.0699C118.216 84.2071 117.987 82.5667 117.774 79.6566Z" fill="#8693A2"/>
<path d="M138.317 95.7586C137.083 93.701 137.473 91.0606 139.247 89.4455C141.021 87.8315 143.688 87.6908 145.622 89.1101C147.267 90.3186 148.021 92.3981 147.531 94.3796C147.041 96.3599 145.405 97.8495 143.386 98.1513C141.367 98.4532 139.366 97.5085 138.317 95.7586Z" fill="#788491"/>
<path d="M157.492 106.583C152.35 107.067 151.51 107.515 148.482 103.722L149.129 101.074C152.853 98.2689 152.326 99.1606 157.885 98.9624L157.492 106.583Z" fill="#788491"/>
</svg>
