<svg width="168" height="158" viewBox="0 0 168 158" fill="none" xmlns="http://www.w3.org/2000/svg">
<path d="M14.3826 42.0577C-25.2875 26.6609 34.6597 -21.5431 44.6672 11.1136C49.6685 16.0433 50.7153 15.3836 55.6194 21.6305C59.9608 22.3352 61.1204 21.7431 63.8501 24.3311L63.8406 28.4767C70.7373 35.362 70.8477 29.5486 75.3708 42.143C78.8553 42.246 92.0625 42.4154 94.7104 43.0266C98.4038 43.2007 99.2477 43.3026 102.806 42.3941C105.118 38.6264 104.272 37.7498 104.295 32.5773C104.588 29.2312 105.361 27.9318 106.668 24.8913C110.34 21.9858 108.577 22.7758 113.867 22.4027C118.172 23.0625 121.325 24.1901 124.094 20.3134C123.828 17.4541 123.262 15.6016 124.78 13.3038C129.01 11.3222 140.718 12.1299 146.61 11.8919C153.204 11.2084 156.261 10.0015 161.583 14.3662C168.636 20.1511 170.294 26.116 164.448 33.7262C162.017 36.891 157.627 37.2311 154.564 40.1271L152.795 42.3135C141.198 49.8349 148.78 53.5233 135.616 53.56C135.006 57.3799 135.009 60.4748 132.489 63.2074C124.509 70.1436 122.715 76.2057 124.803 86.5638L124.245 90.4548C132.56 94.3303 131.766 94.3836 134.05 103.717C134.359 106.704 134.727 109.79 134.939 112.775C140.796 111.735 148.069 111.64 153.487 114.331C154.322 116.088 154.495 115.608 154.311 117.078C158.926 126.172 168.392 128.655 163.53 144.294C162.006 149.068 158.575 153.001 154.048 155.167C141.777 161.021 120.953 158.061 114.749 143.863C114.806 141.568 114.351 137.826 114.141 135.416C99.4007 131.647 110.246 127.824 97.8662 122.683L95.6574 122.451C95.363 121.712 95.0604 120.976 94.7471 120.245C92.1408 114.24 92.904 114.788 87.7792 112.711L73.4445 113.429C73.2973 119.148 74.2706 119.725 71.4459 123.457C69.5992 123.863 67.0855 124.497 65.2709 124.785L63.1962 133.94C55.2978 141.804 54.289 147.02 47.2059 154.645C42.8538 157.001 33.3127 156.162 28.1037 156.375C-18.9474 158.292 2.08457 119.806 26.194 104.512C28.7695 103.355 31.1407 103.598 34.0093 103.549C37.7633 103.545 38.6951 103.618 42.2627 102.541C44.2435 99.1653 43.3949 97.5319 43.2311 93.025C45.2677 83.6761 49.4313 81.9954 46.952 71.5615C43.3879 69.2079 44.3729 69.6343 42.5416 64.9806C30.9877 61.6155 34.96 55.1555 25.489 51.608C23.8429 50.6391 19.892 44.5498 18.4903 42.5658L14.3826 42.0577Z" fill="#8A212E"/>
<path d="M63.1962 133.94C55.2978 141.804 54.289 147.02 47.2059 154.645C42.8538 157.001 33.3127 156.162 28.1037 156.375C-18.9474 158.292 2.08457 119.806 26.194 104.512L23.221 113.714C23.1166 118.827 23.9545 119.248 21.5274 122.792C10.1017 126.703 12.9371 133.082 13.5601 143.886C22.16 143.747 32.7893 144.936 40.9488 143.035C44.2197 142.274 44.158 137.958 44.7206 134.963C44.7408 137.595 44.8915 141.439 44.6601 143.958C46.8961 143.703 49.1369 143.321 51.3634 142.976C54.5014 139.547 53.6184 139.496 54.4943 134.059L63.1962 133.94Z" fill="#231215"/>
<path d="M44.7206 134.963C44.7408 137.595 44.8915 141.439 44.6601 143.958C43.5231 147.477 43.3546 149.161 42.8988 152.727C39.8403 154.746 19.8718 153.93 15.0378 153.677C12.9857 150.611 13.6788 148.152 13.5601 143.886C22.16 143.747 32.7893 144.936 40.9488 143.035C44.2197 142.274 44.158 137.958 44.7206 134.963Z" fill="#470E1A"/>
<path d="M154.311 117.078C158.926 126.172 168.392 128.655 163.53 144.294C162.006 149.068 158.575 153.001 154.048 155.167C141.777 161.021 120.953 158.061 114.749 143.863C114.806 141.568 114.351 137.826 114.141 135.416L114.995 133.554C120.367 133.972 120.5 133.067 123.772 135.944C123.955 137.993 123.832 141.819 125.124 142.486C130.502 145.26 148.929 143.785 155.094 143.586C155.114 136.909 154.958 130 154.887 123.303L154.311 117.078Z" fill="#470E1A"/>
<path d="M154.311 117.078C158.926 126.172 168.392 128.655 163.53 144.294C162.006 149.068 158.575 153.001 154.048 155.167C141.777 161.021 120.953 158.061 114.749 143.863C119.029 144.326 120.69 143.716 123.412 146.117C124.19 151.476 123.231 149.834 126.483 153.093C133.776 154.104 146.887 154.56 154.153 153.271C155.344 149.231 155.165 147.671 155.094 143.586C155.114 136.909 154.958 130 154.887 123.303L154.311 117.078Z" fill="#231215"/>
<path d="M14.3826 42.0577C-25.2875 26.6609 34.6597 -21.5431 44.6672 11.1136L43.4412 12.233L13.3407 12.3751L13.6397 32.2634L14.3826 42.0577Z" fill="#231215"/>
<path d="M146.61 11.8919C153.204 11.2084 156.261 10.0015 161.583 14.3662C168.636 20.1511 170.294 26.116 164.448 33.7262C162.017 36.891 157.627 37.2311 154.564 40.1271L154.985 32.9836C154.97 28.3594 155.701 23.6311 155.481 19.0472C155.154 12.1856 151.686 12.7411 146.61 11.8919Z" fill="#280915"/>
<path d="M65.7432 42.6689L75.3708 42.143C78.8553 42.246 92.0625 42.4154 94.7104 43.0266C94.5228 50.5065 93.2601 52.8694 85.1504 53.8822C78.37 54.7302 73.9798 51.6802 73.5953 45.3149C70.8276 42.7423 70.0574 43.3713 65.7432 42.6689Z" fill="#330C18"/>
<path d="M65.0632 113.636L73.4445 113.429C73.2973 119.148 74.2706 119.725 71.4459 123.457C69.5992 123.863 67.0855 124.497 65.2709 124.785L63.1962 133.94L54.4943 134.059C54.7411 130.949 54.3246 126.597 54.1335 123.39L61.6153 123.226C64.9194 120.433 64.0959 119.104 65.0632 113.636Z" fill="#470E1A"/>
<path d="M65.0632 113.636L73.4445 113.429C73.2973 119.148 74.2706 119.725 71.4459 123.457C69.5992 123.863 67.0855 124.497 65.2709 124.785C65.5106 121.757 65.1771 116.817 65.0632 113.636Z" fill="#470E1A"/>
<path d="M73.4445 113.429L74.1269 106.591C78.4292 100.165 86.069 101.55 92.0483 104.25C94.7222 107.729 93.8391 107.326 93.8641 112.707C91.0999 111.943 90.6917 112.184 87.7792 112.711L73.4445 113.429Z" fill="#470E1A"/>
<path d="M43.6868 62.8177C47.3304 62.7242 49.3933 62.2586 52.4185 64.1715L52.3817 64.7389C51.704 76.8168 59.6025 71.8764 65.2032 77.6543L64.1706 81.9479C59.5325 83.2568 58.1925 83.2153 53.4404 83.361L53.0974 75.8041C50.6953 72.2791 51.4703 73.3263 46.952 71.5615C43.3879 69.2079 44.3729 69.6343 42.5416 64.9806L43.6868 62.8177Z" fill="#470E1A"/>
<path d="M46.952 71.5615C51.4703 73.3263 50.6953 72.2791 53.0974 75.8041L53.4404 83.361C53.1828 88.6378 54.0207 89.0275 51.4453 92.6981C47.8978 93.2927 46.8391 93.2264 43.2311 93.025C45.2677 83.6761 49.4313 81.9954 46.952 71.5615Z" fill="#231215"/>
<path d="M124.768 64.8005C126.365 64.2403 130.615 63.5616 132.489 63.2074C124.509 70.1436 122.715 76.2057 124.803 86.5638C121.757 80.8227 120.563 82.2488 114.592 82.5165L114.639 73.7289C117.453 73.3511 119.724 72.8785 122.485 72.2946C125.182 69.0729 124.371 69.722 124.768 64.8005Z" fill="#210B16"/>
<path d="M145.09 42.6997L152.795 42.3135C141.198 49.8349 148.78 53.5233 135.616 53.56L133.566 52.4229C134.96 51.1366 135.193 46.6914 135.589 44.307C139.252 42.1454 140.235 42.8703 145.09 42.6997Z" fill="#470E1A"/>
<path d="M25.489 51.608L33.5905 52.642C39.2909 52.9097 40.1382 51.8863 43.2667 54.9162C43.4661 57.6357 43.6453 60.0816 43.6868 62.8177L42.5416 64.9806C30.9877 61.6155 34.96 55.1555 25.489 51.608Z" fill="#470E1A"/>
<path d="M97.8662 122.683L104.38 123.375C107.813 123.558 110.125 123.572 113.507 124.461C115.532 127.327 115.04 129.913 114.995 133.554L114.141 135.416C99.4007 131.647 110.246 127.824 97.8662 122.683Z" fill="#470E1A"/>
<path d="M134.939 112.775C140.796 111.735 148.069 111.64 153.487 114.331C154.322 116.088 154.495 115.608 154.311 117.078L154.887 123.303C135.929 123.847 153.987 115.659 134.939 112.775Z" fill="#330C18"/>
<path d="M133.566 52.4229L135.616 53.56C135.006 57.3799 135.009 60.4748 132.489 63.2074C130.615 63.5616 126.365 64.2403 124.768 64.8005L123.958 63.7416C124.329 60.8977 124.61 57.9413 124.924 55.0809C128.135 52.1079 128.21 53.0069 133.566 52.4229Z" fill="#470E1A"/>
<path d="M63.8406 28.4767C70.7373 35.362 70.8477 29.5486 75.3708 42.143L65.7432 42.6689L63.9321 41.5152L63.189 32.9504L63.8406 28.4767Z" fill="#280915"/>
<path d="M87.7792 112.711C90.6917 112.184 91.0999 111.943 93.8641 112.707C103.811 114.566 104.24 112.82 104.38 123.375L97.8662 122.683L95.6574 122.451C95.363 121.712 95.0604 120.976 94.7471 120.245C92.1408 114.24 92.904 114.788 87.7792 112.711Z" fill="#470E1A"/>
<path d="M18.4903 42.5658L22.9895 42.4331C27.6384 42.9531 30.0999 42.3408 32.9816 44.9679C33.2913 47.7348 33.5276 49.8609 33.5905 52.642L25.489 51.608C23.8429 50.6391 19.892 44.5498 18.4903 42.5658Z" fill="#470E1A"/>
<path d="M55.6194 21.6305C59.9608 22.3352 61.1204 21.7431 63.8501 24.3311L63.8406 28.4767L63.189 32.9504C59.5941 33.038 58.6861 33.0309 55.1754 32.3084C52.511 28.5892 53.4131 28.3002 53.2636 22.8161L55.6194 21.6305Z" fill="#330C18"/>
<path d="M123.958 63.7416L124.768 64.8005C124.371 69.722 125.182 69.0729 122.485 72.2946C119.724 72.8785 117.453 73.3511 114.639 73.7289C111.88 73.9125 107.07 73.4897 104.153 73.3239L111.425 72.4616C114.649 69.7054 113.966 69.2814 115.504 64.5826C118.496 62.3783 119.306 63.3377 123.958 63.7416Z" fill="#470E1A"/>
<path d="M114.592 82.5165C120.563 82.2488 121.757 80.8227 124.803 86.5638L124.245 90.4548L123.46 92.5524C121.374 93.2525 119.057 93.179 116.834 93.2572C113.846 90.0248 114.652 88.5928 113.988 83.2308L114.592 82.5165Z" fill="#470E1A"/>
<path d="M104.153 73.3239C107.07 73.4897 111.88 73.9125 114.639 73.7289L114.592 82.5165L113.988 83.2308C110.348 83.5115 109.381 83.6525 105.824 82.9465C103.367 79.5969 104.23 78.2288 104.153 73.3239Z" fill="#470E1A"/>
<path d="M124.245 90.4548C132.56 94.3303 131.766 94.3836 134.05 103.717C131.521 103.493 128.995 103.232 126.473 102.933C123.38 99.7125 124.181 98.0258 123.46 92.5524L124.245 90.4548Z" fill="#231215"/>
<path d="M54.1335 123.39C54.3246 126.597 54.7411 130.949 54.4943 134.059C53.6184 139.496 54.5014 139.547 51.3634 142.976C49.1369 143.321 46.8961 143.703 44.6601 143.958C44.8915 141.439 44.7408 137.595 44.7206 134.963C52.4386 130.293 51.996 139.095 54.1335 123.39Z" fill="#470E1A"/>
<path d="M154.985 32.9836L154.564 40.1271L152.795 42.3135L145.09 42.6997C145.02 39.4934 145.171 38.1407 145.626 34.9592C149.018 32.1923 149.508 33.1411 154.985 32.9836Z" fill="#470E1A"/>
<path d="M44.6672 11.1136C49.6685 16.0433 50.7153 15.3836 55.6194 21.6305L53.2636 22.8161C49.5049 22.8315 48.7322 22.8517 45.136 21.8342C42.7695 17.8698 43.5718 17.518 43.4412 12.233L44.6672 11.1136Z" fill="#280915"/>
<path d="M104.295 32.5773C104.588 29.2312 105.361 27.9318 106.668 24.8913C110.34 21.9858 108.577 22.7758 113.867 22.4027C113.898 27.8418 114.783 27.9946 112.293 31.8382C108.892 32.7064 107.83 32.6211 104.295 32.5773Z" fill="#330C18"/>
<path d="M13.6397 32.2634C18.8654 32.8864 19.4635 32.049 22.649 34.9414C22.8436 37.5911 23.0097 39.7764 22.9895 42.4331L18.4903 42.5658L14.3826 42.0577L13.6397 32.2634Z" fill="#470E1A"/>
<path d="M26.194 104.512C28.7695 103.355 31.1407 103.598 34.0093 103.549C32.3204 107.724 33.4622 111.572 30.4084 113.541L23.221 113.714L26.194 104.512Z" fill="#470E1A"/>
</svg>
