<svg width="168" height="179" viewBox="0 0 168 179" fill="none" xmlns="http://www.w3.org/2000/svg">
<path d="M10.2837 5.22321C10.4986 2.74991 10.0933 1.96136 11.4872 0.496821C20.679 -0.507016 145.153 0.24217 146.479 0.724405C147.112 2.49404 146.97 3.51815 146.915 5.35852L152.048 5.38069C152.202 7.07343 152.343 8.76742 152.472 10.4626C154.67 10.6189 155.978 10.2541 157.169 11.507L157.255 11.9862C157.808 14.5868 157.323 14.4238 158.999 15.6817L161.559 15.9677C163.481 18.6329 161.228 19.0358 163.402 20.7088C165.851 20.9647 166.521 20.544 167.724 22.0055C168.172 32.2056 168.117 171.728 167.239 172.965L163.506 173.235C161.498 176.102 164.065 176.452 161.707 178.488C139.129 179.559 108.65 178.618 85.3782 178.618L44.4538 178.624C37.7672 178.624 28.5324 178.9 22.0115 178.451C19.9545 175.69 22.4659 175.198 20.2124 173.235C18.2783 173.223 17.1607 173.623 16.0493 172.59C15.8958 170.228 16.295 168.987 14.9687 167.67L11.5241 167.591C10.2101 165.925 10.56 161.3 10.5969 158.951L10.5846 157.918C8.81009 157.91 7.49608 158.115 6.01015 157.239C6.39699 152.243 3.91016 152.384 0.545343 150.88C-0.394105 148.351 0.14015 142.522 0.256813 139.562C-0.17914 134.08 0.158509 124.267 0.152369 118.315L0.127784 35.3457C0.121644 28.4443 -0.173065 17.9126 0.440953 11.3047C1.84705 10.3033 3.65844 10.6256 5.50663 10.6693L5.56196 5.40034C6.78386 5.13708 8.95742 5.22137 10.2837 5.22321Z" fill="#373F4B"/>
<path d="M74.8171 26.1722C81.252 26.1094 87.9939 26.3118 94.3306 26.1814C94.5762 28.7322 94.2262 29.8868 95.6016 31.6066C97.1182 31.7997 98.0331 31.892 99.5558 31.9018C99.5251 38.0503 99.1198 52.6047 99.7339 57.9689L105.211 58.0058C111.492 58.0107 118.32 58.1405 124.559 58.0169C128.654 58.1326 132.406 58.239 136.514 58.1043L136.458 68.4231L136.507 94.5924L136.532 99.908C136.618 102.303 136.225 102.84 137.422 104.528C138.976 104.829 140.21 105.019 141.782 105.205C140.093 105.294 138.35 105.412 136.667 105.457C136.501 107.485 136.747 108.655 135.74 110.144C129.139 110.971 112.8 110.37 105.143 110.392L105.137 142.197C103.565 141.812 101.349 141.803 99.6909 141.724C85.6974 141.864 71.6978 141.914 57.7043 141.873L57.7841 136.469V131.157L57.8701 115.407L57.9745 112.513L57.8516 105.27C57.8578 103.567 57.7658 102.477 57.6061 100.802C55.9851 99.2714 30.5094 99.9696 26.3034 99.9954L21.1088 99.8151L21.029 95.5427C21.1457 86.1809 21.1518 76.8173 21.0413 67.455L21.0842 58.1559C23.6263 58.2088 26.5306 58.076 29.1034 58.0188C36.8032 58.0397 44.9144 58.1861 52.5773 58.0489C54.4194 58.095 55.7334 58.2845 57.4158 57.4756C58.2692 54.7754 57.9009 35.4995 57.8886 31.5856C60.2955 31.6514 61.0017 31.9399 62.5859 30.6642C62.5122 28.873 62.3647 28.472 63.0954 26.9096C64.9989 25.8019 72.0233 26.1857 74.8171 26.1722Z" fill="#545B69"/>
<path d="M74.8171 26.1722C81.252 26.1094 87.9939 26.3118 94.3306 26.1814C94.0113 28.8878 94.2446 34.2016 93.5078 35.7006C92.1631 36.2185 91.9174 36.0309 90.4438 35.66L89.8421 36.5648C91.4938 36.8521 92.2305 36.9542 93.7901 37.5139C95.362 41.4764 95.0428 42.3049 93.6489 46.3049C92.1814 47.623 91.4631 47.3444 89.3877 47.1968C87.6193 47.0694 86.8762 47.0116 85.1631 46.5798C83.7939 44.6736 84.2545 44.7025 84.2054 41.8737C84.7396 35.1919 79.0415 35.1581 74.1662 37.6129C73.1469 38.1296 73.4294 40.5857 73.3987 41.7544C73.3004 44.1139 73.675 44.4048 72.4961 46.1203C70.8137 46.586 69.6531 46.8098 67.9523 47.1119C66.0795 47.2324 65.3181 47.465 63.6848 46.5577C61.941 43.6514 62.4016 42.0189 62.8192 38.8561C63.3718 34.6457 65.926 38.3074 68.2593 36.018L68.2532 32.552C69.776 30.2411 71.225 32.8841 73.3924 30.7977C73.2267 29.1235 73.0793 28.7427 73.5767 27.1871L74.8661 26.5425L74.8171 26.1722Z" fill="#030612"/>
<path d="M74.8171 26.1722C81.252 26.1094 87.9939 26.3118 94.3306 26.1814C94.0113 28.8878 94.2446 34.2016 93.5078 35.7006C92.1631 36.2185 91.9174 36.0309 90.4438 35.66L89.8421 36.5648C89.5289 35.644 89.3202 32.2186 88.258 32.2106C85.1817 32.186 83.6774 30.1789 83.3029 27.2719C81.5775 26.1851 77.1625 26.5388 74.8661 26.5425L74.8171 26.1722Z" fill="#4C545F"/>
<path d="M84.2054 41.8737C86.6123 42.0773 87.4965 41.7089 89.0561 43.0252C89.2649 44.6127 89.357 45.5963 89.3877 47.1968C87.6193 47.0694 86.8762 47.0116 85.1631 46.5798C83.7939 44.6736 84.2545 44.7025 84.2054 41.8737Z" fill="#5F6A7A"/>
<path d="M67.9523 47.1119C68.0505 45.6701 68.2102 44.4276 68.3944 43.0012C70.04 41.5871 70.8382 41.9838 73.3987 41.7544C73.3004 44.1139 73.675 44.4048 72.4961 46.1203C70.8137 46.586 69.6531 46.8098 67.9523 47.1119Z" fill="#5F6A7A"/>
<path d="M100.366 105.16L136.667 105.457C136.501 107.485 136.747 108.655 135.74 110.144C129.139 110.971 112.8 110.37 105.143 110.392L105.137 142.197C103.565 141.812 101.349 141.803 99.6909 141.724L99.8383 136.458C100.624 133.909 100.336 109.591 100.366 105.16Z" fill="#02020A"/>
<path d="M89.5228 120.852C89.3385 122.114 89.1851 123.416 89.0193 124.683C87.5272 126.174 87.6377 125.74 85.108 126.103C83.7571 127.421 84.1624 128.114 83.9721 130.482C82.4554 131.987 74.8292 131.762 73.3556 130.39L73.2391 126.964C71.1391 125.244 70.5374 127.199 68.4804 125.686C68.1734 123.984 68.1918 123.1 68.1979 121.399C66.9576 120.383 65.9321 120.786 63.9489 120.799C62.7515 119.515 63.163 119.419 63.2305 117.197C65.2015 114.742 69.9662 115.288 72.5083 116.388C74.1968 121.228 78.8388 122.16 83.3273 120.49C84.9606 113.937 88.8473 115.364 94.7603 115.504C94.5331 118.318 94.9691 118.753 93.5262 120.624C91.8745 120.842 91.1867 120.911 89.5228 120.852Z" fill="#0A0E1B"/>
<path d="M136.532 99.908C136.618 102.303 136.225 102.84 137.422 104.528C138.976 104.829 140.21 105.019 141.782 105.205C140.093 105.294 138.35 105.412 136.667 105.457L100.366 105.16C100.336 109.591 100.624 133.909 99.8383 136.458L99.6234 131.154C99.8199 124.402 99.6541 116.663 99.6603 109.834L99.8077 105.237C99.8199 103.49 99.9549 102.578 100.225 100.847C102.086 99.0985 126.923 99.9634 131.245 100.005L136.532 99.908Z" fill="#222733"/>
<path d="M94.8279 136.402L99.8383 136.458L99.6909 141.724C85.6974 141.864 71.6978 141.914 57.7043 141.873L57.7841 136.469L62.8867 136.407L94.8279 136.402Z" fill="#222733"/>
<path d="M29.1034 58.0188C36.8032 58.0397 44.9144 58.1861 52.5773 58.0489C52.4545 60.3174 52.8229 61.2498 51.6379 62.7636C45.1293 64.1525 33.8743 62.2161 27.0034 63.2747C26.7824 63.613 26.5614 63.9513 26.3465 64.2896C26.1991 66.4308 26.5675 67.2415 25.3579 68.444C22.5273 68.439 22.7974 68.9047 21.0413 67.455L21.0842 58.1559C23.6263 58.2088 26.5306 58.076 29.1034 58.0188Z" fill="#8E9DA9"/>
<path d="M124.559 58.0169C128.654 58.1326 132.406 58.239 136.514 58.1043L136.458 68.4231C134.518 68.4379 133.032 68.7989 131.601 67.9286C131.663 57.8238 113.691 65.5143 105.807 62.707C104.855 61.2412 105.217 60.04 105.211 58.0058C111.492 58.0107 118.32 58.1405 124.559 58.0169Z" fill="#828F9B"/>
<path d="M94.7359 110.148L99.6603 109.834C99.6541 116.663 99.8199 124.402 99.6234 131.154L99.8383 136.458L94.8279 136.402L94.6683 135.759C94.0482 130.852 94.2754 126.54 93.6306 121.66L91.9174 121.515C90.3885 122.552 90.8736 122.194 90.2289 124.468L89.5228 120.852C91.1867 120.911 91.8745 120.842 93.5262 120.624C94.9691 118.753 94.5331 118.318 94.7603 115.504C94.9077 114.321 94.7666 111.466 94.7359 110.148Z" fill="#5F6A7A"/>
<path d="M94.6683 135.759C94.6867 134.476 94.7972 133.466 94.9323 132.188C96.3998 130.901 97.2656 131.298 99.6234 131.154L99.8383 136.458L94.8279 136.402L94.6683 135.759Z" fill="#828F9B"/>
<path d="M57.9745 112.513C59.528 114.866 59.5648 114.783 62.7516 115.722C62.5367 120.77 62.7639 126.105 62.899 131.18L57.7841 131.157L57.8701 115.407L57.9745 112.513Z" fill="#6A7582"/>
<path d="M57.8516 105.27C60.9831 105.385 60.7252 104.853 62.5734 106.518C63.5743 108.872 62.9481 113.011 62.7516 115.722C59.5648 114.783 59.528 114.866 57.9745 112.513L57.8516 105.27Z" fill="#778492"/>
<path d="M57.7841 131.157L62.899 131.18L62.8867 136.407L57.7841 136.469V131.157Z" fill="#8E9DA9"/>
<path d="M131.245 100.005C131.215 98.0554 131.251 97.5479 131.632 95.6374C133.431 94.2399 133.732 94.7074 136.507 94.5924L136.532 99.908L131.245 100.005Z" fill="#778492"/>
<path d="M21.029 95.5427C22.4228 94.4558 22.6377 94.414 24.4 94.2418C26.8683 95.8466 26.4385 97.2354 26.3034 99.9954L21.1088 99.8151L21.029 95.5427Z" fill="#828F9B"/>
<path d="M94.7359 110.148C94.6622 108.329 94.6437 107.893 95.0183 106.121C96.7621 104.985 97.4621 105.342 99.8077 105.237L99.6603 109.834L94.7359 110.148Z" fill="#6A7582"/>
<path d="M69.5979 83.5046C68.8611 83.6123 69.2418 83.6067 68.3822 83.0759C68.4129 80.6924 68.0198 80.4538 69.1803 78.7352C75.9345 79.1805 71.8267 72.3296 78.8757 72.7201C80.2695 72.797 83.1062 73.7006 84.2667 74.5119C84.1501 77.7516 83.6957 78.1071 86.8334 78.9197C89.0131 79.242 88.4482 78.8201 89.4859 80.2169C89.4613 82.3169 89.6456 81.4945 88.1535 83.5569C86.6737 84.1474 85.8325 84.0034 84.2606 83.9678L84.3037 84.4956C87.4782 84.5632 87.0605 84.0514 89.1175 85.6833L89.529 87.0519C87.9448 90.0099 87.386 89.6187 84.1869 89.535C84.3097 91.2942 84.3651 91.675 83.9475 93.3763C80.6011 96.2673 77.8503 95.726 74.1785 94.1482C72.8277 92.3349 73.2881 92.3866 73.2881 89.6021C70.3163 89.6334 69.3277 90.0917 67.9462 87.2358C68.2409 85.262 68.333 85.0473 69.5979 83.5046Z" fill="#222733"/>
<path d="M73.5706 89.5486L84.1869 89.535C84.3097 91.2942 84.3651 91.675 83.9475 93.3763C80.6011 96.2673 77.8503 95.726 74.1785 94.1482C72.8277 92.3349 73.2881 92.3866 73.2881 89.6021L73.5706 89.5486Z" fill="#828F9B"/>
<path d="M69.5979 83.5046C72.1092 84.0121 71.925 83.5557 73.3189 85.1482C73.3925 86.5789 73.4417 88.1339 73.5706 89.5486L73.2881 89.6021C70.3163 89.6334 69.3277 90.0917 67.9462 87.2358C68.2409 85.262 68.333 85.0473 69.5979 83.5046Z" fill="#6A7582"/>
<path d="M86.8334 78.9197C89.0131 79.242 88.4482 78.8201 89.4859 80.2169C89.4613 82.3169 89.6456 81.4945 88.1535 83.5569C86.6737 84.1474 85.8325 84.0034 84.2606 83.9678C84.101 81.631 83.6404 81.096 84.672 79.4001L86.8334 78.9197Z" fill="#141922"/>
<path d="M84.3037 84.4956C87.4782 84.5632 87.0605 84.0514 89.1175 85.6833L89.529 87.0519C87.9448 90.0099 87.386 89.6187 84.1869 89.535L84.3037 84.4956Z" fill="#778492"/>
<path d="M125.965 89.014C118.689 89.2718 123.048 90.5253 119.806 93.9059C118.167 94.4478 117.97 94.6274 116.386 94.203C114.747 91.6091 115.121 88.0459 115.594 85.1482C117.025 83.3724 117.307 84.6955 119.468 84.1105C122.612 83.2592 119.339 77.5561 121.016 74.3717C122.649 73.2522 124.565 73.0123 126.087 74.3465C125.547 81.3297 128.691 77.2239 131.97 81.6397L131.227 82.8711C129.532 84.1443 127.991 84.1142 125.903 84.3251L125.965 89.014Z" fill="#0A0E1B"/>
<path d="M31.4244 83.9555C27.9675 84.054 27.4394 84.6752 25.4622 81.7904L25.7447 80.6826C27.1324 79.2076 28.8394 78.9874 30.8043 78.4978C32.1612 76.7078 31.6086 76.8862 31.6761 74.0777C33.3155 73.0726 34.4023 73.3445 36.2935 73.4933L36.926 73.5419C36.8891 76.3966 36.5453 81.2632 37.497 83.7544C39.1671 84.1745 40.5978 84.0226 41.2487 85.2263C42.4092 87.3847 42.1021 91.1595 42.0285 93.5319C40.9416 94.8599 38.547 94.6803 37.0242 94.0874C36.1401 90.7991 37.6566 90.6607 35.8146 88.971C33.7269 88.9827 33.1068 89.4059 31.9586 88.2846L32.1121 86.4472L31.3752 84.5946L31.4244 83.9555Z" fill="#0A0E1B"/>
<path d="M31.4244 83.9555C27.9675 84.054 27.4394 84.6752 25.4622 81.7904L25.7447 80.6826C27.1324 79.2076 28.8394 78.9874 30.8043 78.4978C32.1612 76.7078 31.6086 76.8862 31.6761 74.0777C33.3155 73.0726 34.4023 73.3445 36.2935 73.4933C36.4532 76.8259 37.1962 80.7717 35.3357 83.2918C33.684 83.8761 33.1866 83.8614 31.4244 83.9555Z" fill="#02020A"/>
<path d="M115.164 68.3124C117.117 68.2398 118.259 68.0479 120.113 68.6962C121.212 70.5784 120.795 70.9056 120.764 73.4564C118.953 73.5991 118.044 73.7671 116.251 73.2787C114.962 71.3743 115.361 70.9665 115.164 68.3124Z" fill="#030612"/>
<path d="M36.926 73.5419C37.0119 71.0016 36.576 70.3004 37.8961 68.6328C39.5539 68.4133 40.4443 68.3388 42.1205 68.3339C42.0407 70.7475 42.4214 71.4334 41.2609 73.2092C39.4618 73.6693 38.7557 73.5893 36.926 73.5419Z" fill="#0A0E1B"/>
<path d="M32.1121 86.4472C31.6761 87.937 31.6884 88.02 30.6261 89.0983C28.1578 89.7208 29.1402 89.81 26.9052 88.872C25.7017 86.9609 25.843 87.7998 26.2789 85.7442C28.4157 84.1535 28.1823 84.6703 31.3752 84.5946L32.1121 86.4472Z" fill="#6A7582"/>
<path d="M36.1523 95.1035C38.0496 95.0162 39.069 94.9793 41.0093 95.1589C42.4092 96.7058 42.0285 97.0484 42.3233 99.4793C40.4812 99.558 39.4312 99.5771 37.5585 99.443C36.0295 97.9323 36.4839 97.7896 36.1523 95.1035Z" fill="#828F9B"/>
<path d="M114.925 95.0266C116.73 94.9798 117.798 94.9829 119.628 95.1343C121.059 96.7261 120.635 96.8307 120.93 99.4233L116.711 99.4214C114.906 97.9385 115.44 97.9809 114.925 95.0266Z" fill="#828F9B"/>
<path d="M125.903 84.3251C128.992 84.6444 128.802 84.1394 130.84 85.81L131.159 87.2364C129.33 89.2933 128.857 88.9771 125.965 89.014L125.903 84.3251Z" fill="#6A7582"/>
<path d="M152.048 5.38069C152.202 7.07343 152.343 8.76742 152.472 10.4626C154.67 10.6189 155.978 10.2541 157.169 11.507L157.255 11.9862C157.808 14.5868 157.323 14.4238 158.999 15.6817L161.559 15.9677C163.481 18.6329 161.228 19.0358 163.402 20.7088C165.851 20.9647 166.521 20.544 167.724 22.0055C168.172 32.2056 168.117 171.728 167.239 172.965L163.506 173.235C161.498 176.102 164.065 176.452 161.707 178.488C139.129 179.559 108.65 178.618 85.3782 178.618L44.4538 178.624C37.7672 178.624 28.5324 178.9 22.0115 178.451C19.9545 175.69 22.4659 175.198 20.2124 173.235C18.2783 173.223 17.1607 173.623 16.0493 172.59C15.8958 170.228 16.295 168.987 14.9687 167.67L11.5241 167.591C10.2101 165.925 10.56 161.3 10.5969 158.951L10.5846 157.918C11.5363 148.854 7.28725 156.326 5.88729 147.28L5.34697 146.232C8.85915 146.706 12.3529 147.34 15.8712 147.016L19.8747 146.767C21.3913 145.356 21.0352 144.793 21.4711 142.344C21.5509 144.654 21.1887 145.153 22.2878 146.891C28.3666 147.726 51.0054 147.174 57.8763 147.166L57.7043 141.873C71.6978 141.914 85.6974 141.864 99.6909 141.724C101.349 141.803 103.565 141.812 105.137 142.197C103.332 142.322 102.522 142.294 100.784 142.889C100.029 144.661 100.268 144.139 100.581 146.334C104.591 147.775 130.705 147.085 136.317 146.848C136.348 144.645 136.299 143.96 136.986 141.783L140.781 141.81L141.493 141.581L146.946 141.751L146.897 16.2089C148.444 15.7703 149.66 15.9203 151.459 15.2979C152.423 13.3043 152.03 13.396 151.753 10.8212C151.704 9.15121 151.925 7.07774 152.048 5.38069Z" fill="#5E616B"/>
<path d="M152.048 5.38069C152.202 7.07343 152.343 8.76742 152.472 10.4626C151.723 49.9659 152.853 89.7515 152.374 129.291C152.312 134.396 152.14 140.231 152.441 145.252L151.293 146.814C149.801 146.959 149.064 147.051 147.609 147.412C146.577 148.77 146.805 150.37 146.768 152.178C146.841 153.901 146.786 155.837 147.345 157.426L147.019 157.653L61.1551 157.474C45.2828 157.384 29.1586 157.126 13.2863 157.694C12.3345 157.728 11.5547 158.111 11.0021 158.914L10.5969 158.951L10.5846 157.918C11.5363 148.854 7.28725 156.326 5.88729 147.28L5.34697 146.232C8.85915 146.706 12.3529 147.34 15.8712 147.016L19.8747 146.767C21.3913 145.356 21.0352 144.793 21.4711 142.344C21.5509 144.654 21.1887 145.153 22.2878 146.891C28.3666 147.726 51.0054 147.174 57.8763 147.166L57.7043 141.873C71.6978 141.914 85.6974 141.864 99.6909 141.724C101.349 141.803 103.565 141.812 105.137 142.197C103.332 142.322 102.522 142.294 100.784 142.889C100.029 144.661 100.268 144.139 100.581 146.334C104.591 147.775 130.705 147.085 136.317 146.848C136.348 144.645 136.299 143.96 136.986 141.783L140.781 141.81L141.493 141.581L146.946 141.751L146.897 16.2089C148.444 15.7703 149.66 15.9203 151.459 15.2979C152.423 13.3043 152.03 13.396 151.753 10.8212C151.704 9.15121 151.925 7.07774 152.048 5.38069Z" fill="#272C37"/>
<path d="M5.88729 147.28C8.41704 147.353 8.66893 146.903 10.247 148.259L11.2355 151.632C12.224 152.161 136.133 152.648 146.768 152.178C146.841 153.901 146.786 155.837 147.345 157.426L147.019 157.653L61.1551 157.474C45.2828 157.384 29.1586 157.126 13.2863 157.694C12.3345 157.728 11.5547 158.111 11.0021 158.914L10.5969 158.951L10.5846 157.918C11.5363 148.854 7.28725 156.326 5.88729 147.28Z" fill="#0A0E1B"/>
<path d="M57.7043 141.873C71.6978 141.914 85.6974 141.864 99.6909 141.724C99.6111 144.315 100.01 145.097 98.8436 147.026C89.8789 147.926 67.7435 147.306 57.8763 147.166L57.7043 141.873Z" fill="#0A0E1B"/>
<path d="M146.946 141.751C146.915 143.891 147.155 145.325 145.89 146.959L144.907 147.326C140.474 144.89 143.065 145.9 141.328 142.714L140.781 141.81L141.493 141.581L146.946 141.751Z" fill="#2F3644"/>
<path d="M136.986 141.783L140.781 141.81L141.328 142.714C141.236 145.471 141.714 145.347 140.228 146.836C138.902 146.866 137.65 146.904 136.317 146.848C136.348 144.645 136.299 143.96 136.986 141.783Z" fill="#141922"/>
<path d="M152.472 10.4626C154.67 10.6189 155.978 10.2541 157.169 11.507L157.255 11.9862C158.145 40.3348 157.341 73.2559 157.347 101.903L157.353 133.605C157.36 138.343 157.63 147.047 157.022 151.471C154.351 153.42 153.571 151.369 152.104 153.354C151.932 155.845 152.355 155.64 150.986 157.145C149.457 157.39 148.892 157.463 147.345 157.426C146.786 155.837 146.841 153.901 146.768 152.178C146.805 150.37 146.577 148.77 147.609 147.412C149.064 147.051 149.801 146.959 151.293 146.814L152.441 145.252C152.14 140.231 152.312 134.396 152.374 129.291C152.853 89.7515 151.723 49.9659 152.472 10.4626Z" fill="#02020A"/>
<path d="M146.768 152.178C146.805 150.37 146.577 148.77 147.609 147.412C149.064 147.051 149.801 146.959 151.293 146.814L152.441 145.252C152.282 148.272 152.724 149.357 151.232 151.575C149.384 152.257 148.677 152.176 146.768 152.178Z" fill="#0A0E1B"/>
<path d="M11.0021 158.914C11.5547 158.111 12.3345 157.728 13.2863 157.694C29.1586 157.126 45.2828 157.384 61.1551 157.474L147.019 157.653C146.94 160.01 147.308 160.818 146.184 162.559C137.435 163.247 122.686 162.806 113.568 162.798L54.0756 162.768C49.2679 162.769 12.9977 163.204 11.217 162.057C11.0574 160.788 10.9775 160.187 11.0021 158.914Z" fill="#02020A"/>
<path d="M10.2837 5.22321C10.4986 2.74991 10.0933 1.96136 11.4872 0.496821C20.679 -0.507016 145.153 0.24217 146.479 0.724405C147.112 2.49404 146.97 3.51815 146.915 5.35852L152.048 5.38069C151.925 7.07774 151.704 9.15121 151.753 10.8212C152.03 13.396 152.423 13.3043 151.459 15.2979C149.66 15.9203 148.444 15.7703 146.897 16.2089C144.975 16.621 144.005 16.3897 142.101 16.1356C142.015 17.7017 142.138 19.0525 141.309 20.3091L140.738 21.1898C139.657 20.5532 138.294 20.6443 137.312 21.4187L136.446 16.0015C139.049 15.8939 141.014 16.394 141.825 13.7115C140.99 11.0611 139.842 10.3869 136.888 10.4398C101.508 11.0746 66.0181 10.8685 30.6261 10.6403C26.2543 10.612 20.5071 9.96131 16.3624 11.2013C15.5028 12.8904 15.6809 12.1363 16.0739 14.393C17.8361 16.2838 17.8606 15.7069 21.25 15.9948C21.2377 17.5104 21.1579 19.7118 21.2316 21.1683L16.1353 21.0914L16.1107 20.4026C15.8958 18.7363 15.6993 16.8854 14.2563 15.8127L14.5204 16.3638C13.9187 15.9369 13.0836 15.7426 12.3959 15.4763C10.0258 18.7744 10.6337 32.9973 10.6153 37.3786L5.54964 37.5465C5.47596 28.5876 5.46365 19.6282 5.50663 10.6693L5.56196 5.40034C6.78386 5.13708 8.95742 5.22137 10.2837 5.22321Z" fill="#6A7582"/>
<path d="M10.2837 5.22321C10.4986 2.74991 10.0933 1.96136 11.4872 0.496821C20.679 -0.507016 145.153 0.24217 146.479 0.724405C147.112 2.49404 146.97 3.51815 146.915 5.35852C136.145 5.27302 125.381 5.27241 114.618 5.35729C120.07 6.94547 128.783 4.14002 132.185 7.9204L132.13 9.40895C130.656 10.3156 118.222 10.1108 115.539 10.1348C115.588 8.37251 115.741 7.84414 115.035 6.29348C110.565 5.61442 96.5779 5.94531 91.0456 5.94162L41.8811 5.92871C37.3373 6.03266 33.5181 6.14033 28.9867 5.82417L29.2446 5.329C23.0553 5.39482 16.4239 5.58858 10.2837 5.22321Z" fill="#02020A"/>
<path d="M29.2446 5.329L85.8386 5.23307C94.3182 5.2386 106.457 4.8972 114.618 5.35729C120.07 6.94547 128.783 4.14002 132.185 7.9204L132.13 9.40895C130.656 10.3156 118.222 10.1108 115.539 10.1348C115.588 8.37251 115.741 7.84414 115.035 6.29348C110.565 5.61442 96.5779 5.94531 91.0456 5.94162L41.8811 5.92871C37.3373 6.03266 33.5181 6.14033 28.9867 5.82417L29.2446 5.329Z" fill="#778492"/>
<path d="M41.8811 5.92871L91.0456 5.94162C96.5779 5.94531 110.565 5.61442 115.035 6.29348C115.741 7.84414 115.588 8.37251 115.539 10.1348C90.9412 10.3623 66.3374 10.4122 41.7399 10.2842L41.8811 5.92871Z" fill="#8E9DA9"/>
<path d="M28.9867 5.82417C33.5181 6.14033 37.3373 6.03266 41.8811 5.92871L41.7399 10.2842C37.9452 10.184 29.7604 10.9202 26.7578 9.28899C26.1315 7.66514 26.2789 8.26672 26.8438 6.26151L28.9867 5.82417Z" fill="#828F9B"/>
<path d="M146.903 10.9141L151.753 10.8212C152.03 13.396 152.423 13.3043 151.459 15.2979C149.66 15.9203 148.444 15.7703 146.897 16.2089C144.975 16.621 144.005 16.3897 142.101 16.1356C142.82 15.9345 144.913 15.6682 145.755 15.5372C147.32 14.0702 146.786 13.8247 146.903 10.9141Z" fill="#444853"/>
<path d="M146.915 5.35852L152.048 5.38069C151.925 7.07774 151.704 9.15121 151.753 10.8212L146.903 10.9141L146.915 5.35852Z" fill="#02020A"/>
<path d="M5.56196 5.40034C8.68117 5.79524 8.46006 5.2681 10.4188 7.03466L10.9162 8.57058C9.34431 11.3084 8.4662 10.8477 5.50663 10.6693L5.56196 5.40034Z" fill="#02020A"/>
<path d="M16.1107 20.4026L16.3318 17.4114C17.787 15.8718 18.6343 16.2882 21.25 15.9948C21.2377 17.5104 21.1579 19.7118 21.2316 21.1683L16.1353 21.0914L16.1107 20.4026Z" fill="#828F9B"/>
<path d="M136.446 16.0015C138.699 16.2383 139.706 15.9302 141.192 17.1752C141.26 18.1999 141.37 19.2911 141.309 20.3091L140.738 21.1898C139.657 20.5532 138.294 20.6443 137.312 21.4187L136.446 16.0015Z" fill="#828F9B"/>
<path d="M0.256813 139.562C-0.17914 134.08 0.158509 124.267 0.152369 118.315L0.127784 35.3457C0.121644 28.4443 -0.173065 17.9126 0.440953 11.3047C1.84705 10.3033 3.65844 10.6256 5.50663 10.6693C5.46365 19.6282 5.47596 28.5876 5.54964 37.5465L10.6153 37.3786L10.6398 56.9731C8.92671 57.1195 7.21367 57.1994 5.54354 57.5986L5.56196 136.865L5.66014 142.136C5.58645 143.452 5.54959 144.948 5.34697 146.232L5.88729 147.28C7.28725 156.326 11.5363 148.854 10.5846 157.918C8.81009 157.91 7.49608 158.115 6.01015 157.239C6.39699 152.243 3.91016 152.384 0.545343 150.88C-0.394105 148.351 0.14015 142.522 0.256813 139.562Z" fill="#02020A"/>
<path d="M5.54964 37.5465L10.6153 37.3786L10.6398 56.9731C8.92671 57.1195 7.21367 57.1994 5.54354 57.5986L5.54964 37.5465Z" fill="#8E9DA9"/>
<path d="M0.256813 139.562C0.999775 143.092 1.10417 149.865 2.86026 151.753L3.99617 151.736L5.18125 150.47C4.99705 149.338 4.80669 148.207 4.59792 147.079L5.34697 146.232L5.88729 147.28C7.28725 156.326 11.5363 148.854 10.5846 157.918C8.81009 157.91 7.49608 158.115 6.01015 157.239C6.39699 152.243 3.91016 152.384 0.545343 150.88C-0.394105 148.351 0.14015 142.522 0.256813 139.562Z" fill="#030612"/>
<path d="M21.1088 99.8151L26.3034 99.9954C30.5094 99.9696 55.9851 99.2714 57.6061 100.802C57.7658 102.477 57.8578 103.567 57.8516 105.27L57.9745 112.513L57.8701 115.407L57.2684 114.226C55.8193 114.291 54.708 114.445 53.308 114.072C53.2527 113.548 53.0808 111.795 52.8475 111.651C46.3941 107.707 29.3674 112.402 21.7965 109.997C20.7036 108.651 20.9799 107.567 20.7957 105.54C19.1563 105.634 17.437 105.429 15.7914 105.293C17.2221 105.106 18.6527 104.946 20.0834 104.812C21.4404 103.164 20.9983 102.387 21.1088 99.8151Z" fill="#222733"/>
<path d="M20.7957 105.54C32.5235 104.981 45.5591 105.24 57.3912 105.334C57.3912 107.426 57.5078 112.366 57.2684 114.226C55.8193 114.291 54.708 114.445 53.308 114.072C53.2527 113.548 53.0808 111.795 52.8475 111.651C46.3941 107.707 29.3674 112.402 21.7965 109.997C20.7036 108.651 20.9799 107.567 20.7957 105.54Z" fill="#030612"/>
<path d="M5.54354 57.5986C7.21367 57.1994 8.92671 57.1195 10.6398 56.9731L10.5908 136.755L5.56196 136.865L5.54354 57.5986Z" fill="#828F9B"/>
<path d="M52.7185 52.6809C53.1053 44.7068 51.8589 28.3114 52.7615 21.7976C54.3272 20.6676 55.7701 21.0232 57.7903 21.1333L57.8886 31.5856C57.9009 35.4995 58.2692 54.7754 57.4158 57.4756C55.7334 58.2845 54.4194 58.095 52.5773 58.0489C44.9144 58.1861 36.8032 58.0397 29.1034 58.0188C26.5491 57.7543 23.8596 58.2697 21.5939 57.0665C21.0536 55.5633 21.2992 55.1647 21.6676 53.5242C24.4123 51.6703 47.659 52.6188 52.7185 52.6809Z" fill="#030612"/>
<path d="M99.7339 57.9689C100.385 51.3954 99.2427 23.6546 101.177 20.8608C104.609 20.5938 105.518 23.4368 105.414 26.4895C105.131 35.2251 105.107 43.9232 105.119 52.6625C111.603 52.5659 130.945 51.5448 135.697 53.793L136.643 55.1149C135.513 59.1099 128.157 57.5279 124.559 58.0169C118.32 58.1405 111.492 58.0107 105.211 58.0058L99.7339 57.9689Z" fill="#030612"/>
<path d="M57.7903 21.1333L99.5926 21.1579L99.5558 31.9018C98.0331 31.892 97.1182 31.7997 95.6016 31.6066C94.2262 29.8868 94.5762 28.7322 94.3306 26.1814C87.9939 26.3118 81.252 26.1094 74.8171 26.1722C72.0233 26.1857 64.9989 25.8019 63.0954 26.9096C62.3647 28.472 62.5122 28.873 62.5859 30.6642C61.0017 31.9399 60.2955 31.6514 57.8886 31.5856L57.7903 21.1333Z" fill="#8E9DA9"/>
<path d="M15.7914 105.293L15.7239 75.3675C15.7116 71.0218 15.3862 62.595 16.0862 58.6418C17.523 57.7056 19.2606 58.0631 21.0842 58.1559L21.0413 67.455C21.1518 76.8173 21.1457 86.1809 21.029 95.5427L21.1088 99.8151C20.9983 102.387 21.4404 103.164 20.0834 104.812C18.6527 104.946 17.2221 105.106 15.7914 105.293Z" fill="#030612"/>
<path d="M136.514 58.1043C138.828 57.8533 139.461 57.3994 141.358 58.2427C142.592 62.1055 141.757 98.85 141.782 105.205C140.21 105.019 138.976 104.829 137.422 104.528C136.225 102.84 136.618 102.303 136.532 99.908L136.507 94.5924L136.458 68.4231L136.514 58.1043Z" fill="#030612"/>
<path d="M57.7903 21.1333C57.7411 19.3027 57.4219 17.3985 58.3491 15.9622C62.3648 15.4652 70.4698 15.9443 74.9337 15.9868C82.1361 16.0551 92.0526 15.1768 98.9357 15.9524C100.729 17.3567 100.102 19.0487 99.5926 21.1579L57.7903 21.1333Z" fill="#0A0E1B"/>
<path d="M53.308 114.072C54.708 114.445 55.8193 114.291 57.2684 114.226L57.8701 115.407L57.7841 131.157V136.469L57.7043 141.873C55.7518 141.916 54.9965 142.065 53.1545 141.361C52.4913 138.702 52.3685 116.568 53.308 114.072Z" fill="#02020A"/>
<path d="M137.312 21.4187C138.294 20.6443 139.657 20.5532 140.738 21.1898C141.892 21.8695 142.47 23.2234 142.163 24.528C141.849 25.8332 140.732 26.7842 139.393 26.8734C138.061 26.9626 136.821 26.1691 136.342 24.9167C135.863 23.6644 136.256 22.246 137.312 21.4187Z" fill="#222733"/>
<path d="M16.1353 21.0914L21.2316 21.1683C21.4219 23.8188 21.5509 24.4523 19.8685 26.3739C17.7993 26.7915 18.6467 26.9238 16.7064 25.7711C15.5766 23.6484 15.9818 23.8655 16.1353 21.0914Z" fill="#222733"/>
<path d="M136.986 141.783C136.348 140.051 136.317 139.831 136.514 137.997C137.993 136.316 137.244 136.771 139.301 136.173C141.389 136.974 140.744 136.401 141.782 138.268L141.493 141.581L140.781 141.81L136.986 141.783Z" fill="#828F9B"/>
<path d="M10.5908 136.755C10.5539 139.336 11.0206 140.023 9.70043 141.707C8.0917 141.982 7.28728 142.091 5.66014 142.136L5.56196 136.865L10.5908 136.755Z" fill="#5F6A7A"/>
<path d="M15.8712 147.016C15.8835 145.227 15.8896 144.776 16.3256 143.049C18.2291 141.871 18.8247 142.325 21.4711 142.344C21.0352 144.793 21.3913 145.356 19.8747 146.767L15.8712 147.016Z" fill="#141922"/>
<path d="M16.6634 136.764C17.5291 136.096 18.6958 135.96 19.6905 136.41C20.6853 136.859 21.3545 137.821 21.4282 138.914C21.5018 140.006 20.9738 141.05 20.0466 141.631C18.7081 142.471 16.9458 142.11 16.0432 140.811C15.1406 139.511 15.4108 137.73 16.6634 136.764Z" fill="#778492"/>
</svg>
