<svg width="152" height="158" viewBox="0 0 152 158" fill="none" xmlns="http://www.w3.org/2000/svg">
<path d="M41.215 12.8184C41.1938 12.2028 41.1717 11.5821 41.2003 10.9664C41.2575 9.73443 41.1077 8.41119 42.1614 7.59473C45.3557 5.1205 52.6655 6.62048 56.5794 6.93304C68.0295 7.62682 80.2341 7.32448 91.6981 6.80963L95.3519 7.14776L95.8464 7.02652C100.044 6.62705 106.416 5.71125 110.364 7.23974C111.223 9.38607 109.99 11.7194 111.935 12.901C114.167 12.8243 116.991 12.2481 118.858 13.4472C118.966 15.1627 119.015 16.8811 119.006 18.6002C121.104 20.1162 122.918 18.5052 124.804 20.3514C125.013 22.1231 124.847 23.6392 126.388 24.8529C127.736 25.9155 130.092 26.0842 131.259 27.0767C132.956 28.519 133.542 32.6363 135.047 34.4117C136.187 35.7569 138.845 33.8756 139.203 36.7325C139.497 39.0812 138.302 41.6313 139.788 43.5732C142.031 43.5469 143.697 42.9736 145.363 44.5518C145.423 47.5679 144.363 54.1084 145.651 56.5527C147.541 56.6549 149.198 56.3467 150.678 57.5853C151.67 70.5428 151.824 85.4276 150.532 98.3464C148.805 99.2863 147.259 99.2337 145.357 99.2491C145.282 101.952 146.014 109.686 144.62 111.455C142.911 111.446 141.295 111.463 139.601 111.744C139.003 114.876 140.173 120.115 138.45 122.471L135.389 122.726C134.306 124.725 131.398 131.892 129.485 132.338C127.545 132.79 126.155 131.873 124.473 133.181L124.253 137.493C122.449 138.733 119.509 137.637 118.996 139.838C118.764 140.835 118.907 142.201 118.921 143.229L118.024 144.247C115.998 144.231 113.972 144.242 111.945 144.278C109.667 146.936 113.004 149.961 107.95 150.418C104.25 150.753 99.7369 149.153 96.2431 150.317C95.2409 152.48 96.4147 154.749 94.6433 156.262C83.0347 157.101 68.8162 157.833 57.3186 156.169C54.9804 153.486 58.4063 150.163 53.1038 149.837C49.42 149.611 45.5639 151.071 41.9747 149.964C40.6239 147.677 42.1649 145.358 40.3277 143.643C37.8662 143.854 33.7663 144.667 31.734 143.216C31.7165 141.705 31.6692 140.286 31.3698 138.798C29.8668 138.317 28.5649 138.298 27.008 138.328L26.0335 137.337L26.1404 133.994C24.4806 132.308 22.7509 133.598 21.4697 132.645C19.6872 131.32 20.9466 128.994 20.0695 127.508C19.3817 126.344 17.4261 126.815 17.2941 125.975C17.115 124.835 16.8847 123.894 16.4513 122.826C15.2165 122.033 13.9913 121.243 12.7064 120.531C11.8943 117.929 12.6821 114.254 12.9328 111.541L12.9307 110.784L12.6775 98.3486L6.47306 98.5385C8.21143 88.1487 7.14313 67.7005 6.75985 56.6666C6.12653 53.5628 5.09255 48.1638 6.69454 45.366C8.07381 43.8806 9.88998 43.8383 11.785 43.5892C13.282 41.9483 11.7441 38.4758 12.4398 36.0359C13.4561 35.4261 14.1746 35.2223 15.3513 35.0602C17.3125 34.7907 19.8341 25.7504 21.9568 24.7755C22.9237 24.3308 25.1712 24.6864 26.4946 24.2205L26.0783 20.0914C27.3827 18.7243 28.8482 19.0536 30.6824 18.9251C32.3773 17.3725 31.6893 15.7046 32.1607 13.5027C34.4952 12.1729 38.5407 12.7739 41.215 12.8184Z" fill="#51370D"/>
<path d="M95.8464 7.02652C100.044 6.62705 106.416 5.71125 110.364 7.23974C111.223 9.38607 109.99 11.7194 111.935 12.901C114.167 12.8243 116.991 12.2481 118.858 13.4472C118.966 15.1627 119.015 16.8811 119.006 18.6002C121.104 20.1162 122.918 18.5052 124.804 20.3514C125.013 22.1231 124.847 23.6392 126.388 24.8529C127.736 25.9155 130.092 26.0842 131.259 27.0767C132.956 28.519 133.542 32.6363 135.047 34.4117C136.187 35.7569 138.845 33.8756 139.203 36.7325C139.497 39.0812 138.302 41.6313 139.788 43.5732C142.031 43.5469 143.697 42.9736 145.363 44.5518C145.423 47.5679 144.363 54.1084 145.651 56.5527C147.541 56.6549 149.198 56.3467 150.678 57.5853C151.67 70.5428 151.824 85.4276 150.532 98.3464C148.805 99.2863 147.259 99.2337 145.357 99.2491C145.282 101.952 146.014 109.686 144.62 111.455C142.911 111.446 141.295 111.463 139.601 111.744C139.003 114.876 140.173 120.115 138.45 122.471L135.389 122.726C134.306 124.725 131.398 131.892 129.485 132.338C127.545 132.79 126.155 131.873 124.473 133.181L124.253 137.493C122.449 138.733 119.509 137.637 118.996 139.838C118.764 140.835 118.907 142.201 118.921 143.229L118.024 144.247C115.998 144.231 113.972 144.242 111.945 144.278C109.667 146.936 113.004 149.961 107.95 150.418C104.25 150.753 99.7369 149.153 96.2431 150.317C95.2409 152.48 96.4147 154.749 94.6433 156.262C83.0347 157.101 68.8162 157.833 57.3186 156.169C54.9804 153.486 58.4063 150.163 53.1038 149.837C49.42 149.611 45.5639 151.071 41.9747 149.964C40.6239 147.677 42.1649 145.358 40.3277 143.643C37.8662 143.854 33.7663 144.667 31.734 143.216C31.7165 141.705 31.6692 140.286 31.3698 138.798C29.8668 138.317 28.5649 138.298 27.008 138.328L26.0335 137.337L26.1404 133.994C24.4806 132.308 22.7509 133.598 21.4697 132.645C19.6872 131.32 20.9466 128.994 20.0695 127.508C19.3817 126.344 17.4261 126.815 17.2941 125.975C17.115 124.835 16.8847 123.894 16.4513 122.826C15.2165 122.033 13.9913 121.243 12.7064 120.531C11.8943 117.929 12.6821 114.254 12.9328 111.541L12.9307 110.784C15.2407 110.753 17.685 110.555 19.9798 110.745L25.5142 110.547L25.6013 111.185L24.4857 117.002C26.752 117.168 28.3611 116.759 29.9443 118.458L29.9751 120.042C33.7998 124.344 35.164 120.531 35.9401 128.101C38.6146 127.9 41.2939 127.659 43.9758 127.605L44.7377 127.513C44.8926 127.563 45.0467 127.615 45.2016 127.662C48.5741 128.693 53.114 126.959 55.9066 128.921C56.6473 130.47 56.6232 131.625 56.575 133.3C69.4816 133.364 82.519 133.818 95.4111 133.294L95.6185 132.846C98.8618 133.975 102.754 133.578 106.129 133.253L106.635 133.254L111.293 132.401C111.27 130.777 111.438 129.148 111.557 127.528L108.035 127.301C106.484 125.637 106.687 124.175 106.399 121.953C109.523 121.286 112.579 121.974 115.739 121.37C117.5 119.862 117.296 119.068 117.677 116.836L121.194 116.17L121.757 115.757L121.641 111.477L126.828 111.343L126.599 105.684L126.907 98.1916C127.934 85.5576 127.443 71.1117 126.53 58.4514C125.254 57.074 123.544 57.2968 121.717 57.0726C121.712 52.8018 121.639 48.5625 121.394 44.2976L121.774 43.3161L122.582 43.4914L122.162 34.7827L115.944 34.3781L115.934 31.9148C117.741 32.3895 121.801 30.4308 123.845 29.9656C123.772 28.6584 123.543 27.4907 123.238 26.2192C121.894 25.4714 120.554 24.8091 119.142 24.2L118.77 20.4193C117.21 18.5454 113.149 20.1907 110.815 18.7177L110.585 13.8956C107.56 10.6415 101.153 14.436 97.2635 12.6081C95.6623 10.6224 95.964 9.52922 95.8464 7.02652Z" fill="#020101"/>
<path d="M123.845 29.9656L127.986 30.5652C128.173 32.5487 127.863 33.7333 129.365 35.1069C129.987 35.2106 131.996 35.3625 132.317 35.8015C134.024 38.1311 132.362 41.2743 133.863 43.8741C135.604 43.8646 137.224 43.7177 138.84 44.4604C139.028 47.7563 138.211 53.4146 139.512 56.335C141.005 56.5899 142.487 56.7615 143.995 56.8981C146.71 62.6842 143.91 83.2126 144.667 91.2516C144.619 93.7346 144.97 95.4625 143.609 97.5759C142.244 97.8096 140.515 97.7388 139.71 98.9657C137.185 102.814 140.699 107.157 137.645 110.899C136.077 111.26 134.599 111.436 132.993 111.523L127.737 111.329L126.828 111.343L126.599 105.684L126.907 98.1916C127.934 85.5576 127.443 71.1117 126.53 58.4514C125.254 57.074 123.544 57.2968 121.717 57.0726C121.712 52.8018 121.639 48.5625 121.394 44.2976L121.774 43.3161L122.582 43.4914L122.162 34.7827L115.944 34.3781L115.934 31.9148C117.741 32.3895 121.801 30.4308 123.845 29.9656Z" fill="#604614"/>
<path d="M121.774 43.3161L122.582 43.4914L126.758 44.072C127.221 47.5321 126.45 53.3072 127.747 56.2977C128.97 56.484 130.188 56.7001 131.401 56.9477C133.638 65.1094 131.921 88.3298 132.059 98.1317L126.907 98.1916C127.934 85.5576 127.443 71.1117 126.53 58.4514C125.254 57.074 123.544 57.2968 121.717 57.0726C121.712 52.8018 121.639 48.5625 121.394 44.2976L121.774 43.3161Z" fill="#3A2407"/>
<path d="M121.774 43.3161L122.582 43.4914L126.758 44.072C126.438 47.8498 127.327 52.4717 125.816 55.9092C124.579 56.9053 123.238 56.9046 121.717 57.0726C121.712 52.8018 121.639 48.5625 121.394 44.2976L121.774 43.3161Z" fill="#311B14"/>
<path d="M126.907 98.1916L132.059 98.1317C132.251 101.744 132.951 105.984 131.55 109.391C130.252 110.747 129.497 110.844 127.737 111.329L126.828 111.343L126.599 105.684L126.907 98.1916Z" fill="#6C561B"/>
<path d="M123.845 29.9656L127.986 30.5652L127.19 34.4468C125.427 35.3385 124.11 34.9375 122.162 34.7827L115.944 34.3781L115.934 31.9148C117.741 32.3895 121.801 30.4308 123.845 29.9656Z" fill="#644D19"/>
<path d="M24.4857 117.002C26.752 117.168 28.3611 116.759 29.9443 118.458L29.9751 120.042C33.7998 124.344 35.164 120.531 35.9401 128.101C38.6146 127.9 41.2939 127.659 43.9758 127.605L44.7377 127.513C44.8926 127.563 45.0467 127.615 45.2016 127.662C48.5741 128.693 53.114 126.959 55.9066 128.921C56.6473 130.47 56.6232 131.625 56.575 133.3C69.4816 133.364 82.519 133.818 95.4111 133.294L95.6185 132.846C98.8618 133.975 102.754 133.578 106.129 133.253L106.635 133.254L109.481 134.083C109.608 136.448 110.05 138.897 108.633 140.947C104.354 143.419 99.1401 139.324 95.658 143.367C95.6141 145.064 95.4549 146.595 95.1539 148.265C91.9472 150.763 63.1251 149.333 57.5063 149.16C56.282 147.843 56.629 146.742 56.591 145.003C54.3419 141.105 46.6625 144.864 42.7793 143.189C41.0299 141.341 41.3513 140.202 41.1527 137.713C38.8249 137.781 36.5327 137.853 34.2085 137.662C32.3999 136.349 32.5588 135.722 32.1481 133.617L30.1869 133.081C28.4842 131.398 28.6355 129.965 28.2372 127.642C26.5425 127.553 25.9499 127.611 24.546 126.71L24.2428 123.206C24.6671 120.994 23.5535 119.235 24.4857 117.002Z" fill="#604614"/>
<path d="M56.575 133.3C69.4816 133.364 82.519 133.818 95.4111 133.294C95.5418 135.071 95.8157 136.568 94.9282 138.195C94.1057 138.302 93.2759 138.402 92.4483 138.45C87.5826 138.73 58.7386 139.452 56.8153 137.784L56.575 133.3Z" fill="#7A6936"/>
<path d="M43.9758 127.605L44.7377 127.513C44.8926 127.563 45.0467 127.615 45.2016 127.662C48.5741 128.693 53.114 126.959 55.9066 128.921C56.6473 130.47 56.6232 131.625 56.575 133.3C52.9599 133.024 48.8276 134.201 45.4251 132.823C43.7815 131.079 44.1234 129.95 43.9758 127.605Z" fill="#7A6936"/>
<path d="M24.4857 117.002C26.752 117.168 28.3611 116.759 29.9443 118.458L29.9751 120.042C29.3175 122.563 28.7592 125.089 28.2372 127.642C26.5425 127.553 25.9499 127.611 24.546 126.71L24.2428 123.206C24.6671 120.994 23.5535 119.235 24.4857 117.002Z" fill="#51370D"/>
<path d="M32.1481 133.617C34.5688 133.35 37.9765 132.5 40.0662 133.94C40.6138 135.212 40.9408 136.344 41.1527 137.713C38.8249 137.781 36.5327 137.853 34.2085 137.662C32.3999 136.349 32.5588 135.722 32.1481 133.617Z" fill="#3A2407"/>
<path d="M121.757 115.757C123.32 116.745 124.845 116.674 126.625 116.717C124.548 117.102 123.707 116.897 122.368 118.593L122.359 122.823L122.103 126.544L121.421 126.777L117.591 127.103L111.557 127.528L108.035 127.301C106.484 125.637 106.687 124.175 106.399 121.953C109.523 121.286 112.579 121.974 115.739 121.37C117.5 119.862 117.296 119.068 117.677 116.836L121.194 116.17L121.757 115.757Z" fill="#644D19"/>
<path d="M106.399 121.953C109.554 122.199 113.953 121.469 116.69 123.046C117.42 124.411 117.481 125.591 117.591 127.103L111.557 127.528L108.035 127.301C106.484 125.637 106.687 124.175 106.399 121.953Z" fill="#7A6936"/>
<path d="M121.194 116.17C121.489 118.654 121.777 119.539 120.75 121.871L119.511 122.26C117.567 120.516 117.914 119.362 117.677 116.836L121.194 116.17Z" fill="#7A6936"/>
<path d="M127.737 111.329L132.993 111.523C133.108 114.249 133.878 118.521 132.311 120.846C130.517 121.948 129.547 121.81 127.471 121.895C125.718 122.078 124.027 122.208 122.359 122.823L122.368 118.593C123.707 116.897 124.548 117.102 126.625 116.717C124.845 116.674 123.32 116.745 121.757 115.757L121.641 111.477L126.828 111.343L127.737 111.329Z" fill="#51370D"/>
<path d="M126.828 111.343L126.625 116.717C124.845 116.674 123.32 116.745 121.757 115.757L121.641 111.477L126.828 111.343Z" fill="#736641"/>
<path d="M117.591 127.103L121.421 126.777L122.103 126.544L122.395 127.551C122.338 129.761 122.677 130.798 121.23 132.525L118.16 133.365C115.444 133.449 112.034 133.167 109.481 134.083L106.635 133.254L111.293 132.401C111.27 130.777 111.438 129.148 111.557 127.528L117.591 127.103Z" fill="#51370D"/>
<path d="M117.591 127.103L121.421 126.777C114.062 129.406 119.85 133.117 111.293 132.401C111.27 130.777 111.438 129.148 111.557 127.528L117.591 127.103Z" fill="#604614"/>
<path d="M109.481 134.083C112.034 133.167 115.444 133.449 118.16 133.365C117.85 135.347 118.043 136.263 116.519 137.627L115.907 137.583C113.881 137.454 112.85 137.593 111.073 138.67C109.939 140.738 109.671 142.959 107.133 143.58C103.893 144.372 99.0335 143.546 95.658 143.367C99.1401 139.324 104.354 143.419 108.633 140.947C110.05 138.897 109.608 136.448 109.481 134.083Z" fill="#3A2407"/>
<path d="M25.5142 110.547L25.6013 111.185L24.4857 117.002C23.5535 119.235 24.6671 120.994 24.2428 123.206C23.4896 123.065 22.6584 122.951 21.9411 122.681C17.8511 121.145 21.0355 115.319 19.377 112.279C17.111 110.981 15.5093 111.43 12.9328 111.541L12.9307 110.784C15.2407 110.753 17.685 110.555 19.9798 110.745L25.5142 110.547Z" fill="#604614"/>
<path d="M122.359 122.823C124.027 122.208 125.718 122.078 127.471 121.895C127.34 124.167 127.758 125.563 126.081 127.175L122.395 127.551L122.103 126.544L122.359 122.823Z" fill="#51370D"/>
<path d="M91.6981 6.80963L95.3519 7.14776L95.8464 7.02652C95.964 9.52922 95.6623 10.6224 97.2635 12.6081C101.153 14.436 107.56 10.6415 110.585 13.8956L110.815 18.7177C113.149 20.1907 117.21 18.5454 118.77 20.4193L119.142 24.2C120.554 24.8091 121.894 25.4714 123.238 26.2192C123.543 27.4907 123.772 28.6584 123.845 29.9656C121.801 30.4308 117.741 32.3895 115.934 31.9148C115.873 31.8293 115.821 31.7366 115.752 31.6592C114.139 29.8597 110.363 30.5455 108.083 30.4842C106.358 29.1667 107.253 27.0774 106.396 25.0187C103.924 23.9159 99.7544 24.6864 97.051 24.8397C95.1043 23.8093 95.9845 21.8236 94.9662 19.8679C83.2225 17.6814 68.7862 19.2801 56.7203 19.3787L56.5268 18.9011L56.4303 12.7819L56.5794 6.93304C68.0295 7.62682 80.2341 7.32448 91.6981 6.80963Z" fill="#6C561B"/>
<path d="M91.6981 6.80963L95.3519 7.14776C95.3607 9.24954 95.6098 10.5692 94.6032 12.438C82.1297 13.7985 68.9988 12.6074 56.4303 12.7819L56.5794 6.93304C68.0295 7.62682 80.2341 7.32448 91.6981 6.80963Z" fill="#736641"/>
<path d="M12.7239 56.5745C15.0862 56.6052 17.6234 56.4613 19.9559 56.7856C19.8761 70.5099 19.8863 84.235 19.9865 97.9594L24.4446 98.3318L25.0747 98.1763C25.1006 102.142 24.7286 106.682 25.5142 110.547L19.9798 110.745C17.685 110.555 15.2407 110.753 12.9307 110.784L12.6775 98.3486L6.47306 98.5385C8.21143 88.1487 7.14313 67.7005 6.75985 56.6666L12.7239 56.5745Z" fill="#644D19"/>
<path d="M6.75985 56.6666L12.7239 56.5745C12.7357 70.4902 12.9471 84.4366 12.6775 98.3486L6.47306 98.5385C8.21143 88.1487 7.14313 67.7005 6.75985 56.6666Z" fill="#736641"/>
<path d="M19.9865 97.9594L24.4446 98.3318L25.0747 98.1763C25.1006 102.142 24.7286 106.682 25.5142 110.547L19.9798 110.745L19.8942 104.265L19.9865 97.9594Z" fill="#736641"/>
<path d="M19.9865 97.9594L24.4446 98.3318C24.3107 99.9326 24.6362 102.131 23.2488 103.14C22.3466 103.797 20.9672 104.009 19.8942 104.265L19.9865 97.9594Z" fill="#7A6936"/>
<path d="M6.75985 56.6666C6.12653 53.5628 5.09255 48.1638 6.69454 45.366C8.07381 43.8806 9.88998 43.8383 11.785 43.5892C13.282 41.9483 11.7441 38.4758 12.4398 36.0359C13.4561 35.4261 14.1746 35.2223 15.3513 35.0602C17.3125 34.7907 19.8341 25.7504 21.9568 24.7755C22.9237 24.3308 25.1712 24.6864 26.4946 24.2205L26.0783 20.0914C27.3827 18.7243 28.8482 19.0536 30.6824 18.9251C32.3773 17.3725 31.6893 15.7046 32.1607 13.5027C34.4952 12.1729 38.5407 12.7739 41.215 12.8184L41.2684 18.8907L41.4786 19.3757C41.2579 21.6082 41.6413 23.0257 39.8724 24.4929L35.9745 25.2348L35.512 25.3896L31.9685 24.2592L31.4238 24.3928C31.933 26.9203 31.402 29.1301 30.8986 31.6197L28.2568 30.9435C28.2768 32.3413 28.5071 34.0655 28.1548 35.407C27.2141 35.9606 26.3227 36.1615 26.0229 37.2569C25.6765 38.5232 26.0434 39.6821 26.3531 40.9156L25.0419 44.2216L19.9596 44.0734L19.9559 56.7856C17.6234 56.4613 15.0862 56.6052 12.7239 56.5745L6.75985 56.6666Z" fill="#020101"/>
<path d="M12.7239 56.5745C12.7612 53.0531 11.5604 48.3384 13.083 45.1382C15.0605 43.3147 16.5482 43.6141 19.1803 43.349L19.9596 44.0734L19.9559 56.7856C17.6234 56.4613 15.0862 56.6052 12.7239 56.5745Z" fill="#736641"/>
<path d="M27.5993 32.2062L28.2568 30.9435C28.2768 32.3413 28.5071 34.0655 28.1548 35.407C27.2141 35.9606 26.3227 36.1615 26.0229 37.2569C25.6765 38.5232 26.0434 39.6821 26.3531 40.9156L25.0419 44.2216L19.9596 44.0734L19.1803 43.349C18.5712 35.5641 21.8004 37.0071 22.4985 30.6609C24.1647 31.11 26.0517 31.4459 27.5993 32.2062Z" fill="#7A6936"/>
<path d="M22.4985 30.6609C24.1647 31.11 26.0517 31.4459 27.5993 32.2062C27.5555 32.2967 27.5153 32.3888 27.4678 32.4779C26.6331 34.0385 26.0105 34.9528 24.3413 35.4896C22.7902 33.9844 22.8959 32.7524 22.4985 30.6609Z" fill="#7A745E"/>
<path d="M41.2684 18.8907L41.4786 19.3757C41.2579 21.6082 41.6413 23.0257 39.8724 24.4929L35.9745 25.2348L35.512 25.3896L31.9685 24.2592C32.1306 22.8577 32.4243 21.5265 32.759 20.1579C35.1684 18.4826 38.3691 18.9616 41.2684 18.8907Z" fill="#736641"/>
<path d="M22.4985 30.6609L25.2984 30.3644C27.0339 28.9527 26.8138 27.75 27.1921 25.5912C28.6445 24.2417 29.5073 24.4892 31.4238 24.3928C31.933 26.9203 31.402 29.1301 30.8986 31.6197L28.2568 30.9435L27.5993 32.2062C26.0517 31.4459 24.1647 31.11 22.4985 30.6609Z" fill="#736641"/>
<path d="M56.7203 19.3787C68.7862 19.2801 83.2225 17.6814 94.9662 19.8679C95.9845 21.8236 95.1043 23.8093 97.051 24.8397C99.7544 24.6864 103.924 23.9159 106.396 25.0187C107.253 27.0774 106.358 29.1667 108.083 30.4842C110.363 30.5455 114.139 29.8597 115.752 31.6592C115.821 31.7366 115.873 31.8293 115.934 31.9148L115.944 34.3781L122.162 34.7827L122.582 43.4914L121.774 43.3161L121.394 44.2976C114.155 43.4242 115.289 37.3913 111.73 36.0819C110.456 35.6131 107.67 36.6975 106.727 35.2077C106.014 34.0823 107.15 31.8688 105.652 31.1553C102.456 29.6349 98.5996 32.5663 95.4615 29.9679L95.2 26.1747C92.1393 23.6487 62.3669 25.145 56.6064 25.1005L56.7203 19.3787Z" fill="#281503"/>
<path d="M115.944 34.3781L122.162 34.7827L122.582 43.4914L121.774 43.3161L121.679 41.2991C119.062 38.8957 119.307 36.2264 115.944 34.3781Z" fill="#51370D"/>
<path d="M19.9596 44.0734L25.0419 44.2216L26.0972 44.1318L30.8231 44.692C30.8164 48.209 31.5569 54.1354 28.7087 56.7286C27.9385 57.4297 26.9326 57.6758 25.9401 57.8774C23.5717 65.2424 24.5949 89.5362 25.0747 98.1763L24.4446 98.3318L19.9865 97.9594C19.8863 84.235 19.8761 70.5099 19.9559 56.7856L19.9596 44.0734Z" fill="#281503"/>
<path d="M19.9596 44.0734L25.0419 44.2216C24.8727 47.7818 25.6117 52.3877 24.1805 55.6222C22.8617 56.806 21.6226 56.7337 19.9559 56.7856L19.9596 44.0734Z" fill="#6C561B"/>
<path d="M41.215 12.8184C41.1938 12.2028 41.1717 11.5821 41.2003 10.9664C41.2575 9.73443 41.1077 8.41119 42.1614 7.59473C45.3557 5.1205 52.6655 6.62048 56.5794 6.93304L56.4303 12.7819L56.5268 18.9011L56.7203 19.3787L56.6064 25.1005C52.7217 24.8982 48.7801 24.9588 44.8882 24.8967L41.3806 25.2596C39.6199 25.3831 37.7449 25.2516 35.9745 25.2348L39.8724 24.4929C41.6413 23.0257 41.2579 21.6082 41.4786 19.3757L41.2684 18.8907L41.215 12.8184Z" fill="#6C561B"/>
<path d="M41.215 12.8184C41.1938 12.2028 41.1717 11.5821 41.2003 10.9664C41.2575 9.73443 41.1077 8.41119 42.1614 7.59473C45.3557 5.1205 52.6655 6.62048 56.5794 6.93304L56.4303 12.7819L51.3514 12.8287L41.215 12.8184Z" fill="#020101"/>
<path d="M41.215 12.8184L51.3514 12.8287C50.9379 13.4728 50.5354 13.9307 50.469 14.7099C48.2659 17.6325 46.9247 18.5585 43.3038 19.3297L41.4786 19.3757L41.2684 18.8907L41.215 12.8184Z" fill="#7A745E"/>
<path d="M51.3514 12.8287L56.4303 12.7819L56.5268 18.9011C52.3266 19.8526 47.6034 19.3954 43.3038 19.3297C46.9247 18.5585 48.2659 17.6325 50.469 14.7099C50.5354 13.9307 50.9379 13.4728 51.3514 12.8287Z" fill="#7A6936"/>
<path d="M31.9685 24.2592L35.512 25.3896L35.9745 25.2348C37.7449 25.2516 39.6199 25.3831 41.3806 25.2596L44.8882 24.8967L45.0533 30.2986L41.2243 30.8215L40.7832 31.0662C40.3782 32.3894 40.3084 33.6346 39.0355 34.389C37.8366 35.0996 36.1843 35.3808 34.8352 35.7225L30.9285 36.658L28.1548 35.407C28.5071 34.0655 28.2768 32.3413 28.2568 30.9435L30.8986 31.6197C31.402 29.1301 31.933 26.9203 31.4238 24.3928L31.9685 24.2592Z" fill="#6C561B"/>
<path d="M31.9685 24.2592L35.512 25.3896C35.4553 27.7083 35.8013 28.9009 34.3397 30.7529L30.8986 31.6197C31.402 29.1301 31.933 26.9203 31.4238 24.3928L31.9685 24.2592Z" fill="#7A6936"/>
<path d="M41.3806 25.2596L44.8882 24.8967L45.0533 30.2986L41.2243 30.8215L41.3806 25.2596Z" fill="#51370D"/>
<path d="M34.8352 35.7225L35.8169 31.9163C37.5517 30.75 38.7222 31.0618 40.7832 31.0662C40.3782 32.3894 40.3084 33.6346 39.0355 34.389C37.8366 35.0996 36.1843 35.3808 34.8352 35.7225Z" fill="#3A2407"/>
<path d="M26.3531 40.9156C26.0434 39.6821 25.6765 38.5232 26.0229 37.2569C26.3227 36.1615 27.2141 35.9606 28.1548 35.407L30.9285 36.658L34.8352 35.7225C35.4183 37.8068 35.309 38.8416 37.3127 39.972C37.6672 40.1721 38.0585 40.2941 38.4413 40.4249L36.1597 40.9419C35.6378 42.022 35.0765 44.0011 33.9643 44.4108C32.9363 44.7898 31.8995 44.7226 30.8231 44.692L26.0972 44.1318L25.0419 44.2216L26.3531 40.9156Z" fill="#311B14"/>
<path d="M26.3531 40.9156C26.0434 39.6821 25.6765 38.5232 26.0229 37.2569C26.3227 36.1615 27.2141 35.9606 28.1548 35.407L30.9285 36.658L31.0227 39.8034C29.4193 40.4738 28.0841 40.7739 26.3531 40.9156Z" fill="#644D19"/>
<path d="M26.3531 40.9156C28.0841 40.7739 29.4193 40.4738 31.0227 39.8034C30.912 40.8295 31.0014 42.5989 30.2107 43.2372C29.1936 44.0588 27.3561 44.0245 26.0972 44.1318L25.0419 44.2216L26.3531 40.9156Z" fill="#604614"/>
<path d="M44.8882 24.8967C48.7801 24.9588 52.7217 24.8982 56.6064 25.1005C56.6524 27.4644 57.0147 28.5197 55.6327 30.4893C52.4946 31.9462 48.6728 30.964 45.3053 31.1407L45.0533 30.2986L44.8882 24.8967Z" fill="#281503"/>
<path d="M29.7721 111.265C30.8508 114.384 30.5432 115.418 33.7231 116.898C34.1475 117.095 34.5864 117.267 35.0229 117.435C35.5905 118.825 35.7682 120.089 35.9449 121.565C36.1921 123.848 36.3227 125.826 35.9401 128.101C35.164 120.531 33.7998 124.344 29.9751 120.042L29.9443 118.458C28.3611 116.759 26.752 117.168 24.4857 117.002L25.6013 111.185L29.7721 111.265Z" fill="#736641"/>
<path d="M121.641 111.477C121.79 107.106 121.688 102.96 123.546 98.9072L124.686 98.6005C126.414 100.918 126.281 102.894 126.599 105.684L126.828 111.343L121.641 111.477Z" fill="#3A2407"/>
<path d="M25.0747 98.1763C27.0155 98.2902 27.5564 98.1054 29.0038 99.5178C30.3416 103.343 29.3564 107.326 29.7721 111.265L25.6013 111.185L25.5142 110.547C24.7286 106.682 25.1006 102.142 25.0747 98.1763Z" fill="#3A2407"/>
<path d="M95.6185 132.846C95.647 131.261 95.7558 130.021 96.3285 128.535L98.078 128.094C100.46 128.073 102.806 127.992 105.157 128.432C106.578 130.056 106.15 131.141 106.129 133.253C102.754 133.578 98.8618 133.975 95.6185 132.846Z" fill="#7A6936"/>
<path d="M35.9449 121.565C38.5722 121.69 42.4248 121.333 44.4244 123.226C45.027 124.756 44.8977 125.932 44.7377 127.513L43.9758 127.605C41.2939 127.659 38.6146 127.9 35.9401 128.101C36.3227 125.826 36.1921 123.848 35.9449 121.565Z" fill="#7A6936"/>
<path d="M45.0533 30.2986L45.3053 31.1407L44.6764 34.5358C42.8297 35.7072 41.8957 34.7622 40.007 36.2805C39.7245 38.1457 39.9548 39.1805 38.4413 40.4249C38.0585 40.2941 37.6672 40.1721 37.3127 39.972C35.309 38.8416 35.4183 37.8068 34.8352 35.7225C36.1843 35.3808 37.8366 35.0996 39.0355 34.389C40.3084 33.6346 40.3782 32.3894 40.7832 31.0662L41.2243 30.8215L45.0533 30.2986Z" fill="#281503"/>
<path d="M98.078 128.094C100.337 127.891 102.58 127.697 104.817 127.316C106.447 125.587 106.169 124.276 106.399 121.953C106.687 124.175 106.484 125.637 108.035 127.301L111.557 127.528C111.438 129.148 111.27 130.777 111.293 132.401L106.635 133.254L106.129 133.253C106.15 131.141 106.578 130.056 105.157 128.432C102.806 127.992 100.46 128.073 98.078 128.094Z" fill="#6C561B"/>
<path d="M72.6606 44.1523C72.5445 41.605 72.0047 38.3648 73.2954 36.0936C75.6117 34.9704 77.4978 35.3844 80.0172 35.502C82.316 35.8212 83.2444 35.6334 84.9303 37.2927C85.7316 39.7625 85.1823 42.458 84.885 44.9848C84.934 48.4668 84.5358 52.639 85.3014 56.0129L90.1948 55.6448C92.6499 55.8252 93.9048 55.6106 95.9078 57.1011C96.173 59.7922 95.0904 61.2549 96.0225 63.9526C98.1985 65.4694 101.439 63.9899 102.071 67.7991C102.462 70.1616 100.909 72.8972 99.9334 74.9545C98.6368 76.1565 96.9728 76.1623 95.2883 76.3858C97.1204 76.3106 99.0167 76.3362 100.83 76.085C103.022 75.9287 104.074 75.4562 105.893 76.7649C106.17 78.5541 106.31 80.2827 106.383 82.0887C107.223 87.2832 106.885 92.8466 106.892 98.1076C108.656 97.9009 109.337 97.603 110.909 98.5472C112.852 104.024 111.76 110.807 111.458 116.561C107.666 116.672 98.4798 117.859 95.3738 115.939L95.1912 112.227C93.9348 110.812 92.7463 110.45 90.9895 109.971L90.3416 109.798C88.9932 106.808 89.9318 101.56 90.0721 98.2756C88.8595 98.2573 87.7616 98.0623 86.5746 97.8228C85.2218 95.821 85.5943 93.2066 85.5088 90.8069C81.069 90.7587 70.5919 89.5544 67.2887 92.2536C67.4129 93.9267 67.4064 95.3405 67.1441 97.0027C65.4962 98.4684 64.6963 98.2676 62.5444 98.4677C62.8227 95.5428 62.716 93.333 61.9461 90.4936C61.8994 93.0883 62.2427 95.2128 60.8592 97.4716C59.5801 97.8666 58.4355 98.1675 57.0994 98.2836L56.7437 98.0667L51.5537 98.2507L51.1461 97.3729C49.301 98.2507 47.6282 98.5961 45.6311 98.935C45.3418 93.8193 44.6983 88.4101 45.5179 83.3411L45.6691 81.6323C45.5902 79.9197 45.5887 78.4672 45.9927 76.7766C47.8269 75.5511 49.1848 75.8783 51.3616 75.8637C51.3346 73.1295 50.6173 68.6886 52.1885 66.4057C53.6509 66.1282 54.5801 65.7718 55.7926 64.9042C57.2704 62.0671 56.7203 60.1391 56.827 57.0668C58.6846 55.6836 59.5297 55.9362 61.8015 55.8822L66.8505 55.8983L67.5408 55.7763L67.6722 43.7346L71.001 44.34L71.9645 43.9624L72.6606 44.1523Z" fill="#6C561B"/>
<path d="M72.7125 55.8625L73.2633 56.0093C75.5642 55.9216 77.806 55.5484 79.7053 57.0894C80.8119 60.6678 77.6943 62.4811 80.6753 65.9332L83.9537 66.1661C85.099 68.016 86.0099 70.0082 85.4847 72.2356C85.1699 73.572 84.6089 74.5776 83.5914 75.4949C82.2772 75.6336 80.9697 75.7943 79.6461 75.7987C77.4225 75.9944 75.2399 76.0031 73.009 75.9732C71.226 75.9104 69.8388 75.9082 68.2559 74.9545C66.6116 72.684 67.5466 68.7302 67.7913 66.0624L68.6934 65.4739C69.7921 63.0961 68.589 61.1819 68.9097 58.6843C69.1288 56.9768 69.3903 56.9667 70.7095 55.9713L72.7125 55.8625Z" fill="#281503"/>
<path d="M73.009 75.9732C72.8724 73.5129 72.1588 69.2888 73.798 67.2856C74.2852 66.6905 74.8652 66.2077 75.4744 65.7454C76.8645 65.7367 77.0142 65.725 78.0924 66.7598C79.5789 68.1875 79.7279 69.5014 79.7381 71.4746C79.7389 72.9162 79.7082 74.3586 79.6461 75.7987C77.4225 75.9944 75.2399 76.0031 73.009 75.9732Z" fill="#51370D"/>
<path d="M72.7125 55.8625L73.2633 56.0093C73.2194 56.1568 73.172 56.3036 73.1318 56.4526C72.2808 59.622 73.516 62.5344 72.0368 65.4359C70.5686 65.9419 69.3392 66.0522 67.7913 66.0624L68.6934 65.4739C69.7921 63.0961 68.589 61.1819 68.9097 58.6843C69.1288 56.9768 69.3903 56.9667 70.7095 55.9713L72.7125 55.8625Z" fill="#6C561B"/>
<path d="M61.9461 90.4936C61.8197 88.3166 61.4282 86.0468 62.353 84.0159C70.9243 82.3932 81.427 83.5967 90.2364 83.5405L90.0721 98.2756C88.8595 98.2573 87.7616 98.0623 86.5746 97.8228C85.2218 95.821 85.5943 93.2066 85.5088 90.8069C81.069 90.7587 70.5919 89.5544 67.2887 92.2536C67.4129 93.9267 67.4064 95.3405 67.1441 97.0027C65.4962 98.4684 64.6963 98.2676 62.5444 98.4677C62.8227 95.5428 62.716 93.333 61.9461 90.4936Z" fill="#311B14"/>
<path d="M51.3616 75.8637C53.1834 76.2018 54.9658 76.5677 56.7561 77.0497C57.4742 81.1152 58.3266 94.5358 56.7437 98.0667L51.5537 98.2507L51.1461 97.3729C49.301 98.2507 47.6282 98.5961 45.6311 98.935C45.3418 93.8193 44.6983 88.4101 45.5179 83.3411L45.6691 81.6323C45.5902 79.9197 45.5887 78.4672 45.9927 76.7766C47.8269 75.5511 49.1848 75.8783 51.3616 75.8637Z" fill="#78672F"/>
<path d="M45.6311 98.935C45.3418 93.8193 44.6983 88.4101 45.5179 83.3411C45.6954 85.8124 45.3345 88.2494 47.0402 90.1051L50.8452 90.5236C50.935 92.794 50.9314 95.1134 51.1461 97.3729C49.301 98.2507 47.6282 98.5961 45.6311 98.935Z" fill="#3A2407"/>
<path d="M45.6691 81.6323C48.1848 82.1084 49.279 81.8835 50.9314 83.9093C50.9876 86.1235 50.9387 88.3115 50.8452 90.5236L47.0402 90.1051C45.3345 88.2494 45.6954 85.8124 45.5179 83.3411L45.6691 81.6323Z" fill="#311B14"/>
<path d="M106.892 98.1076C108.656 97.9009 109.337 97.603 110.909 98.5472C112.852 104.024 111.76 110.807 111.458 116.561C107.666 116.672 98.4798 117.859 95.3738 115.939L95.1912 112.227C93.9348 110.812 92.7463 110.45 90.9895 109.971L90.3416 109.798C88.9932 106.808 89.9318 101.56 90.0721 98.2756C92.4819 98.2164 93.449 97.7527 95.3132 99.3666C96.6193 102.928 95.3556 107.079 95.4206 110.807L106.206 110.68L106.394 98.4494L106.892 98.1076Z" fill="#281503"/>
<path d="M90.1948 55.6448C92.6499 55.8252 93.9048 55.6106 95.9078 57.1011C96.173 59.7922 95.0904 61.2549 96.0225 63.9526C98.1985 65.4694 101.439 63.9899 102.071 67.7991C102.462 70.1616 100.909 72.8972 99.9334 74.9545C98.6368 76.1565 96.9728 76.1623 95.2883 76.3858C95.265 73.6735 95.8121 69.6007 94.0327 67.4084C92.834 67.1586 91.8464 66.846 90.7514 66.2947C89.4862 63.2698 89.9581 61.2447 89.9501 58.0913C88.4351 56.4365 87.4526 56.5022 85.3014 56.0129L90.1948 55.6448Z" fill="#281503"/>
<path d="M106.383 82.0887C107.223 87.2832 106.885 92.8466 106.892 98.1076L106.394 98.4494L102.475 98.0791C99.1036 94.9133 101.009 86.8005 100.613 82.2187L106.383 82.0887Z" fill="#281503"/>
<path d="M67.5408 55.7763L70.7095 55.9713C69.3903 56.9667 69.1288 56.9768 68.9097 58.6843C68.589 61.1819 69.7921 63.0961 68.6934 65.4739L67.7913 66.0624L62.5356 66.348L61.7408 66.1552L61.8015 55.8822L66.8505 55.8983L67.5408 55.7763Z" fill="#7A6936"/>
<path d="M51.3616 75.8637C51.3346 73.1295 50.6173 68.6886 52.1885 66.4057C53.6509 66.1282 54.5801 65.7718 55.7926 64.9042C57.2704 62.0671 56.7203 60.1391 56.827 57.0668C58.6846 55.6836 59.5297 55.9362 61.8015 55.8822L61.7408 66.1552C60.2821 66.3144 58.7167 66.3684 57.2864 66.6715L56.5998 66.6905L54.3923 66.3085C53.122 67.2214 52.5333 67.5515 52.2272 69.2107C51.8583 71.2058 52.1593 73.6955 52.2331 75.7381L51.3616 75.8637Z" fill="#311B14"/>
<path d="M72.6606 44.1523C72.5445 41.605 72.0047 38.3648 73.2954 36.0936C75.6117 34.9704 77.4978 35.3844 80.0172 35.502L79.6585 42.255L78.9258 43.8499C76.8133 44.5824 74.8455 44.3283 72.6606 44.1523Z" fill="#7A6936"/>
<path d="M67.6722 43.7346L71.001 44.34C72.4875 45.4953 72.535 45.8137 72.7432 47.6788C73.0412 50.3437 72.8009 53.1809 72.7125 55.8625L70.7095 55.9713L67.5408 55.7763L67.6722 43.7346Z" fill="#7A6936"/>
<path d="M57.2864 66.6715C58.7167 66.3684 60.2821 66.3144 61.7408 66.1552L62.5356 66.348C62.6495 69.0194 63.1419 72.1093 61.6028 74.4338L60.1163 75.4722C58.8226 74.9333 58.0892 74.7295 57.5589 73.2784C56.927 71.5506 57.2908 68.5491 57.2864 66.6715Z" fill="#7A6936"/>
<path d="M80.0172 35.502C82.316 35.8212 83.2444 35.6334 84.9303 37.2927C85.7316 39.7625 85.1823 42.458 84.885 44.9848C83.3781 44.7511 81.9368 44.4459 80.4649 44.0457L79.6585 42.255L80.0172 35.502Z" fill="#281503"/>
<path d="M52.2331 75.7381C52.1593 73.6955 51.8583 71.2058 52.2272 69.2107C52.5333 67.5515 53.122 67.2214 54.3923 66.3085L56.5998 66.6905C56.7795 69.199 57.5633 72.9192 56.1674 75.1064C54.7539 75.7921 53.7875 75.8411 52.2331 75.7381Z" fill="#281503"/>
<path d="M100.83 76.085C103.022 75.9287 104.074 75.4562 105.893 76.7649C106.17 78.5541 106.31 80.2827 106.383 82.0887L100.613 82.2187C100.201 80.271 100.644 78.0567 100.83 76.085Z" fill="#736641"/>
<path d="M61.9461 90.4936C62.716 93.333 62.8227 95.5428 62.5444 98.4677C61.9848 102.204 62.8417 107.508 61.4012 110.86C60.6335 111.105 57.7021 111.576 57.4566 112.058C57.0417 112.87 56.8 113.447 56.7298 114.378L56.2273 112.161C53.5391 110.531 49.5566 112.311 46.4003 110.983L45.5989 110.389L45.6311 98.935C47.6282 98.5961 49.301 98.2507 51.1461 97.3729L51.5537 98.2507L56.7437 98.0667L57.0994 98.2836C58.4355 98.1675 59.5801 97.8666 60.8592 97.4716C62.2427 95.2128 61.8994 93.0883 61.9461 90.4936Z" fill="#281503"/>
<path d="M51.1461 97.3729L51.5537 98.2507C51.5209 102.469 51.412 106.705 51.5019 110.922L46.4003 110.983L45.5989 110.389L45.6311 98.935C47.6282 98.5961 49.301 98.2507 51.1461 97.3729Z" fill="#7A6936"/>
<path d="M56.7437 98.0667L57.0994 98.2836L56.9986 98.8788C56.4552 102.259 57.7101 106.911 56.1433 109.859C54.4917 110.994 53.4771 110.817 51.5019 110.922C51.412 106.705 51.5209 102.469 51.5537 98.2507L56.7437 98.0667Z" fill="#644D19"/>
<path d="M40.7737 116.91C40.5773 112.088 39.7515 106.105 40.6436 101.36C40.9618 99.6675 41.1843 99.1563 42.557 98.1806L44.474 98.5209C45.9481 102.08 44.4477 106.252 45.4806 110.001C45.5164 110.132 45.5595 110.26 45.5989 110.389L46.4003 110.983C49.5566 112.311 53.5391 110.531 56.2273 112.161L56.7298 114.378C56.6378 115.139 56.2857 115.766 55.9548 116.445C51.1096 117.533 45.726 117.024 40.7737 116.91Z" fill="#311B14"/>
<path d="M61.8015 55.8822C61.6809 52.5966 61.0243 48.58 62.7584 45.6588L64.1368 44.5641C65.6481 45.2141 66.1324 45.5858 66.7402 47.1924C67.5861 49.4279 66.9454 53.5161 66.8505 55.8983L61.8015 55.8822Z" fill="#281503"/>
<path d="M85.3014 56.0129C85.8609 51.3369 85.2831 48.0856 87.5081 43.6506L89.1648 43.8982C90.5695 47.8432 90.3402 51.537 90.1948 55.6448L85.3014 56.0129Z" fill="#311B14"/>
<path d="M67.6722 43.7346C67.7993 41.1822 67.5736 38.1252 69.3764 36.1323L70.6862 36.0395C72.4729 38.1581 72.0163 41.3399 71.9645 43.9624L71.001 44.34L67.6722 43.7346Z" fill="#281503"/>
<path d="M12.9328 111.541C11.6412 111.616 10.2463 111.76 8.95922 111.637C3.98662 111.16 7.88127 102.745 5.43522 99.3915C3.73812 99.306 2.28091 99.409 0.887466 98.3077C-0.176827 92.4961 -0.460176 62.6703 1.0294 57.5656C1.36359 56.4197 1.63729 56.4781 2.64067 55.9509C3.16843 56.0889 3.64309 56.1985 4.09313 56.5249C5.2618 57.3728 6.18482 58.9487 6.4643 60.3552C8.05446 68.3556 5.13989 87.7952 6.47306 98.5385L12.6775 98.3486L12.9307 110.784L12.9328 111.541Z" fill="#020101"/>
<path d="M91.6981 6.80963C82.8083 6.28674 67.8965 7.7378 60.323 6.50653C59.0323 6.29621 57.9826 5.67544 57.0921 4.72241C56.2711 3.84387 56.4004 3.19759 56.2894 2.0452C56.6064 1.56466 57.4837 1.1462 57.9767 0.819762C62.9249 0.280807 92.7449 -0.841635 95.5871 1.07538C95.994 3.14429 95.9816 4.93058 95.8464 7.02652L95.3519 7.14776L91.6981 6.80963Z" fill="#020101"/>
</svg>
