<svg width="208" height="218" viewBox="0 0 208 218" fill="none" xmlns="http://www.w3.org/2000/svg">
<path d="M0.557323 201.925L0.476986 83.5157C0.46749 63.1245 -0.782356 41.7978 0.802761 21.495C1.51351 12.3839 3.25276 16.5918 7.74368 12.7702C7.75829 12.0151 7.76777 11.2563 7.81744 10.5027C7.95988 8.31835 7.99789 8.22413 9.59616 6.78619C11.3683 6.60873 12.9315 6.61311 14.3055 5.33145C14.4545 4.48139 14.5889 3.62335 14.8796 2.80835C15.2931 1.65157 15.4392 1.47627 16.6167 1.00012C21.2859 -0.886951 157.484 0.457529 174.028 0.555387C178.147 0.580217 182.252 0.00985701 186.362 0.146421C188.257 0.209957 189.815 0.57875 191.557 1.30612C193.155 3.15448 193.073 4.20023 193.449 6.57513C195.129 6.54154 196.354 6.62044 197.921 7.2536C199.185 9.2378 200.562 10.7524 202.205 12.4219C203.404 13.64 206.222 15.9806 206.916 17.4207C208.717 21.1532 207.502 183.453 207.387 201.678L207.159 201.229C202.906 205.269 199.577 210.246 195.109 214.298C193.592 215.673 192.654 216.612 190.594 216.848C182.941 217.73 174.711 217.192 166.987 217.184L124.838 217.193L58.3513 217.321C44.4928 217.346 30.527 217.72 16.6897 216.997C15.1587 215.819 14.1097 214.173 12.9724 212.631C12.4881 211.685 9.72616 211.089 8.59539 210.576C7.00516 205.463 4.8649 204.545 0.557323 201.925Z" fill="#020101"/>
<path d="M8.57568 183.169C10.1951 182.802 12.9578 182.761 13.5969 181.05C14.8672 177.652 13.9264 161.714 13.9147 157.128C13.865 137.866 12.0615 30.1643 14.8738 22.6386C15.7584 20.2739 19.8826 22.0602 21.0258 20.0607C21.9673 18.4146 21.9352 16.9321 23.3246 15.3539C25.5364 14.1789 28.3071 14.1066 30.7724 13.981C57.772 12.611 85.0134 13.7772 112.041 13.6706C127.669 13.6085 143.267 13.4428 158.897 13.6268C165.203 13.7006 171.878 13.3712 178.142 13.9949C185.722 14.75 185.945 20.2542 192.555 21.1802L193.129 115.208C193.255 137.531 194.217 160.273 192.28 182.517L186.47 185.101C186.001 186.601 185.488 187.997 184.806 189.413C181.811 190.24 116.778 190.708 111.914 190.184C111.204 188.829 111.334 188.019 111.55 186.533L110.988 186.204L110.547 185.218C107.443 185.419 104.407 185.541 101.295 185.427L99.9661 186.194L100.586 188.773L99.8178 189.655C90.9689 190.505 81.7533 189.981 72.8423 189.978L22.8556 189.764C21.8731 188.42 20.876 187.014 19.7029 185.829C16.6079 182.701 12.6349 183.174 8.57568 183.169Z" fill="#32343B"/>
<path d="M70.8715 33.0752L70.7525 36.5097C66.3061 39.8691 64.6326 35.2726 57.8648 43.0422C56.8882 44.1632 55.5572 45.4156 55.249 46.9054C54.8355 48.9042 55.1189 51.2872 55.6799 53.2254L56.474 54.0207L57.8706 54.0886L59.2191 53.3904C59.4871 55.0365 59.8911 56.7592 59.959 58.4235L60.3739 58.2892L65.0205 58.4564L64.9628 59.1801L66.3273 62.966L65.6676 63.5736C66.6779 65.2014 67.2352 66.8665 69.2857 67.3382C71.1936 67.7764 73.8584 67.3813 75.8336 67.2718L77.3208 68.3986C77.4472 69.7314 77.5341 71.0006 77.4786 72.3393C77.1988 76.6027 77.2909 80.7069 77.5589 84.9674C77.8299 86.3243 78.0001 87.8316 78.4348 89.1381L78.4063 89.734L77.5144 92.5997L79.0725 93.6162C77.0812 95.2725 77.3245 95.9196 76.9249 98.4055C77.7847 109.705 76.838 121.129 77.3449 132.46L77.0484 135.818C77.2244 137.592 76.9541 138.766 78.3135 140.01C87.8242 140.571 97.4058 139.695 106.882 140.332L111.124 140.128L124.861 140.088C124.86 145.603 124.957 151.187 124.494 156.683C124.172 160.502 122.429 164.327 122.882 168.016C124.98 168.13 126.167 167.738 127.64 169.305L128.338 173.081L115.272 173.003C115.387 176.864 116.26 182.426 114.404 185.887C113.435 186.199 112.575 186.465 111.55 186.533L110.988 186.204L110.547 185.218C107.443 185.419 104.407 185.541 101.295 185.427L99.9661 186.194C98.9646 186.127 98.4226 185.903 97.5424 185.472C96.3532 181.595 96.8879 177.053 96.9741 173.032C93.1479 173.011 87.3932 173.656 83.8899 172.252C83.2865 170.994 82.5714 169.2 81.3566 168.435C78.8351 166.845 74.5677 167.926 71.7992 168.38C70.808 171.091 69.7079 173.642 67.4595 175.556C63.5208 178.912 60.6201 178.91 55.7355 178.572C55.8377 170.702 56.5536 162.287 55.5295 154.483C54.9626 150.166 53.4615 152.527 50.9714 150.609C49.9786 141.287 50.0385 45.2981 51.4973 42.7472L54.2928 42.3404C55.7084 40.9681 55.4104 40.1678 55.482 38.2705C56.9123 36.5623 57.9473 37.4504 59.8473 36.8303C61.3652 36.3345 61.7275 34.8374 62.4331 33.5009C64.7743 32.1945 68.2696 32.8962 70.8715 33.0752Z" fill="#020101"/>
<path d="M62.5164 132.91L62.9116 131.617L70.4515 131.588L71.4764 131.232C73.4333 131.629 75.4041 131.991 77.3449 132.46L77.0484 135.818C77.2244 137.592 76.9541 138.766 78.3135 140.01C87.8242 140.571 97.4058 139.695 106.882 140.332L111.124 140.128L124.861 140.088C124.86 145.603 124.957 151.187 124.494 156.683C124.172 160.502 122.429 164.327 122.882 168.016C111.302 168.914 98.4029 169.01 86.86 167.978L84.6044 167.807C84.2567 167.119 83.8958 166.428 83.3728 165.854C81.4641 163.757 80.3457 164.176 77.64 164.052L77.0827 160.266C75.4209 158.82 73.9351 159.13 71.7729 158.978C71.5012 157.668 71.0476 157.045 70.1871 156.034C67.946 156.271 66.1469 156.15 63.9372 155.718L63.5238 155.625L63.3674 152.444C63.3959 148.175 63.3506 143.953 63.076 139.691L63.1665 139.091L64.1505 135.791C63.8503 134.431 63.4974 133.888 62.5164 132.91Z" fill="#2B2B2B"/>
<path d="M62.5164 132.91L62.9116 131.617L70.4515 131.588L71.4764 131.232C73.4333 131.629 75.4041 131.991 77.3449 132.46L77.0484 135.818C77.2244 137.592 76.9541 138.766 78.3135 140.01C87.8242 140.571 97.4058 139.695 106.882 140.332C103.55 141.048 100.489 141.074 97.1129 140.998L96.4146 145.188C93.6483 145.238 91.9075 144.882 89.5452 146.482C87.7154 149.988 88.7958 155.722 88.8725 159.689C86.711 159.542 85.5635 159.701 83.7475 158.47L83.1303 155.172C81.3026 154.587 79.5816 155.031 77.7511 155.366L76.9987 155.736L71.3193 155.345L70.1871 156.034C67.946 156.271 66.1469 156.15 63.9372 155.718L63.5238 155.625L63.3674 152.444C63.3959 148.175 63.3506 143.953 63.076 139.691L63.1665 139.091L64.1505 135.791C63.8503 134.431 63.4974 133.888 62.5164 132.91Z" fill="#3D3635"/>
<path d="M77.2113 144.742C77.1448 143.74 77.3793 142.766 77.5568 141.784C81.6649 139.013 92.1421 140.722 97.1129 140.998L96.4146 145.188C93.6483 145.238 91.9075 144.882 89.5452 146.482C87.7154 149.988 88.7958 155.722 88.8725 159.689C86.711 159.542 85.5635 159.701 83.7475 158.47L83.1303 155.172C81.3026 154.587 79.5816 155.031 77.7511 155.366C76.6671 152.281 77.2003 148.011 77.2113 144.742Z" fill="#55575F"/>
<path d="M77.2113 144.742L78.1718 145.217C80.4363 145.291 81.9184 144.925 83.7219 146.355L84.2895 149.253L83.1303 155.172C81.3026 154.587 79.5816 155.031 77.7511 155.366C76.6671 152.281 77.2003 148.011 77.2113 144.742Z" fill="#45464F"/>
<path d="M78.1718 145.217C80.4363 145.291 81.9184 144.925 83.7219 146.355L84.2895 149.253C82.7234 149.638 81.3618 149.675 79.754 149.616C78.3274 148.052 78.4246 147.253 78.1718 145.217Z" fill="#3D3635"/>
<path d="M63.1665 139.091C66.3141 139.308 68.6808 139.012 70.9899 141.333C72.2631 144.429 70.9533 150.893 71.5041 154.732L71.3193 155.345L70.1871 156.034C67.946 156.271 66.1469 156.15 63.9372 155.718L63.5238 155.625L63.3674 152.444C63.3959 148.175 63.3506 143.953 63.076 139.691L63.1665 139.091Z" fill="#2B2B2B"/>
<path d="M63.3674 152.444C65.4223 152.44 69.1483 152.032 70.656 153.555C71.0213 153.924 71.2404 154.285 71.5041 154.732L71.3193 155.345L70.1871 156.034C67.946 156.271 66.1469 156.15 63.9372 155.718L63.5238 155.625L63.3674 152.444Z" fill="#202230"/>
<path d="M62.5164 132.91L62.9116 131.617L70.4515 131.588L71.0198 135.859L64.1505 135.791C63.8503 134.431 63.4974 133.888 62.5164 132.91Z" fill="#0E0E10"/>
<path d="M71.4764 131.232C73.4333 131.629 75.4041 131.991 77.3449 132.46L77.0484 135.818L71.0198 135.859L70.4515 131.588L71.4764 131.232Z" fill="#141419"/>
<path d="M106.882 140.332L111.124 140.128L110.858 145.284L110.862 159.806C103.545 159.709 96.1867 159.446 88.8725 159.689C88.7958 155.722 87.7154 149.988 89.5452 146.482C91.9075 144.882 93.6483 145.238 96.4146 145.188L97.1129 140.998C100.489 141.074 103.55 141.048 106.882 140.332Z" fill="#3D3635"/>
<path d="M106.882 140.332L111.124 140.128L110.858 145.284L96.4146 145.188L97.1129 140.998C100.489 141.074 103.55 141.048 106.882 140.332Z" fill="#423D3F"/>
<path d="M77.7511 155.366C79.5816 155.031 81.3026 154.587 83.1303 155.172L83.7475 158.47C85.5635 159.701 86.711 159.542 88.8725 159.689L85.6803 160.114C84.4626 160.248 83.1427 160.5 81.9286 160.336L81.0367 161.465L78.9965 161.323L80.4976 160.894L78.8658 161.519C81.4538 162.223 84.8914 162.708 86.7439 164.756C86.8571 165.848 86.9813 166.88 86.86 167.978L84.6044 167.807C84.2567 167.119 83.8958 166.428 83.3728 165.854C81.4641 163.757 80.3457 164.176 77.64 164.052L77.0827 160.266C75.4209 158.82 73.9351 159.13 71.7729 158.978C71.5012 157.668 71.0476 157.045 70.1871 156.034L71.3193 155.345L76.9987 155.736L77.7511 155.366Z" fill="#242328"/>
<path d="M77.7511 155.366C79.5816 155.031 81.3026 154.587 83.1303 155.172L83.7475 158.47C85.5635 159.701 86.711 159.542 88.8725 159.689L85.6803 160.114C83.3399 159.843 80.9856 159.843 78.6364 159.54C77.0316 158.228 77.2295 157.707 76.9987 155.736L77.7511 155.366Z" fill="#423D3F"/>
<path d="M119.508 145.181C120.664 146.123 120.669 146.554 121.108 147.94C120.119 150.09 119.474 150.373 117.533 151.582C117.457 151.534 117.379 151.491 117.305 151.44C115.624 150.288 115.238 149.671 114.855 147.765C116.314 145.94 117.322 145.891 119.508 145.181Z" fill="#242328"/>
<path d="M57.8706 54.0886L59.2191 53.3904C59.4871 55.0365 59.8911 56.7592 59.959 58.4235L60.3739 58.2892L65.0205 58.4564L64.9628 59.1801L66.3273 62.966L65.6676 63.5736C66.6779 65.2014 67.2352 66.8665 69.2857 67.3382C71.1936 67.7764 73.8584 67.3813 75.8336 67.2718L77.3208 68.3986C77.4472 69.7314 77.5341 71.0006 77.4786 72.3393C77.1988 76.6027 77.2909 80.7069 77.5589 84.9674C77.8299 86.3243 78.0001 87.8316 78.4348 89.1381L78.4063 89.734L77.5144 92.5997L79.0725 93.6162C77.0812 95.2725 77.3245 95.9196 76.9249 98.4055C77.7847 109.705 76.838 121.129 77.3449 132.46C75.4041 131.991 73.4333 131.629 71.4764 131.232L70.4515 131.588L62.9116 131.617L63.4317 127.789L62.6771 127.461C60.8795 127.011 58.9926 126.901 57.1519 126.707L55.0788 123.262C56.0554 109.791 53.2037 94.8373 55.7961 81.633C56.802 81.2298 57.6968 80.967 58.7655 80.7793L59.1059 80.7223C58.5536 78.3416 57.485 77.796 55.7172 76.1638C54.4601 71.777 54.5887 61.0629 56.6135 57.1113C57.1117 56.1393 57.4718 55.1052 57.8706 54.0886Z" fill="#242328"/>
<path d="M63.8378 81.0509C66.1556 81.0553 69.2236 80.7317 71.3244 81.7432C71.5684 82.7349 71.5509 83.9597 72.4734 84.4745C73.7781 85.2026 76.0776 84.9616 77.5589 84.9674C77.8299 86.3243 78.0001 87.8316 78.4348 89.1381L78.4063 89.734L77.5144 92.5997L79.0725 93.6162C77.0812 95.2725 77.3245 95.9196 76.9249 98.4055C77.7847 109.705 76.838 121.129 77.3449 132.46C75.4041 131.991 73.4333 131.629 71.4764 131.232L70.4515 131.588L62.9116 131.617L63.4317 127.789L62.6771 127.461L62.6384 123.997C63.5259 114.126 62.5705 104.067 63.4273 94.1158C63.3462 90.4052 62.9664 89.9707 60.7772 86.9232L61.3981 86.1826L63.7034 86.1045L63.252 85.7693L63.3609 81.1546L63.8378 81.0509Z" fill="#3D3635"/>
<path d="M63.4273 94.1158C65.8181 94.0486 68.7984 93.6067 70.8839 94.9322C73.2689 106.07 70.7627 119.27 71.5187 130.727L71.4764 131.232L70.4515 131.588L62.9116 131.617L63.4317 127.789L62.6771 127.461L62.6384 123.997C63.5259 114.126 62.5705 104.067 63.4273 94.1158Z" fill="#2B2B2B"/>
<path d="M63.4317 127.789C65.6984 127.758 68.8503 127.289 70.6487 128.849L71.5187 130.727L71.4764 131.232L70.4515 131.588L62.9116 131.617L63.4317 127.789Z" fill="#242328"/>
<path d="M63.8378 81.0509C66.1556 81.0553 69.2236 80.7317 71.3244 81.7432C71.5684 82.7349 71.5509 83.9597 72.4734 84.4745C73.7781 85.2026 76.0776 84.9616 77.5589 84.9674C77.8299 86.3243 78.0001 87.8316 78.4348 89.1381L78.4063 89.734L77.5144 92.5997L77.0995 90.8835C75.3698 89.3557 74.0498 89.7399 71.7861 89.6566L71.5122 89.2338L65.4989 89.0541C64.2645 88.4166 64.1739 87.3584 63.7034 86.1045L63.252 85.7693L63.3609 81.1546L63.8378 81.0509Z" fill="#211D21"/>
<path d="M65.4989 89.0541L65.0658 86.1388C66.309 84.7403 66.6976 84.6622 68.5165 84.1277C70.3237 84.6761 70.7232 84.7893 71.9811 86.171L71.5122 89.2338L65.4989 89.0541Z" fill="#0E0E10"/>
<path d="M71.7861 89.6566C74.0498 89.7399 75.3698 89.3557 77.0995 90.8835L77.5144 92.5997L79.0725 93.6162C77.0812 95.2725 77.3245 95.9196 76.9249 98.4055C76.6744 97.2757 76.3274 96.1877 75.9768 95.0857L72.0761 93.6586C71.1732 92.1184 71.5501 91.3319 71.7861 89.6566Z" fill="#423D3F"/>
<path d="M63.8378 81.0509C62.6516 77.0241 62.5317 68.0773 63.878 64.0979L65.6676 63.5736C66.6779 65.2014 67.2352 66.8665 69.2857 67.3382C71.1936 67.7764 73.8584 67.3813 75.8336 67.2718L77.3208 68.3986C77.4472 69.7314 77.5341 71.0006 77.4786 72.3393C77.1988 76.6027 77.2909 80.7069 77.5589 84.9674C76.0776 84.9616 73.7781 85.2026 72.4734 84.4745C71.5509 83.9597 71.5684 82.7349 71.3244 81.7432C69.2236 80.7317 66.1556 81.0553 63.8378 81.0509Z" fill="#2B2B2B"/>
<path d="M75.8336 67.2718L77.3208 68.3986C77.4472 69.7314 77.5341 71.0006 77.4786 72.3393C77.1988 76.6027 77.2909 80.7069 77.5589 84.9674C76.0776 84.9616 73.7781 85.2026 72.4734 84.4745C71.5509 83.9597 71.5684 82.7349 71.3244 81.7432C71.7145 78.0822 69.9533 71.7872 71.9877 68.7097C72.648 67.7107 74.686 67.5631 75.8336 67.2718Z" fill="#3D3635"/>
<path d="M60.3739 58.2892L65.0205 58.4564L64.9628 59.1801C65.0153 60.3106 64.9116 61.0117 64.58 62.094C62.9445 63.2537 62.9503 63.4181 60.9912 63.1325C59.5025 61.3572 59.8838 60.6816 59.959 58.4235L60.3739 58.2892Z" fill="#0E0E10"/>
<path d="M55.0788 123.262C57.7589 123.195 60.0694 123.162 62.6384 123.997L62.6771 127.461C60.8795 127.011 58.9926 126.901 57.1519 126.707L55.0788 123.262Z" fill="#211D21"/>
<path d="M63.252 85.7693L61.211 85.0953C60.3038 83.4354 60.0525 82.9993 60.0693 81.1313L61.1095 80.512L63.3609 81.1546L63.252 85.7693Z" fill="#0E0E10"/>
<path d="M57.1519 126.707C58.9926 126.901 60.8795 127.011 62.6771 127.461L63.4317 127.789L62.9116 131.617L62.5164 132.91C63.4974 133.888 63.8503 134.431 64.1505 135.791L63.1665 139.091L63.076 139.691C63.3506 143.953 63.3959 148.175 63.3674 152.444L63.5238 155.625L60.8027 155.384C59.5127 153.718 57.9831 152.008 56.9794 150.156C54.1971 145.023 54.4411 134.403 55.9203 128.952L57.1519 126.707Z" fill="#211D21"/>
<path d="M57.1519 126.707C58.9926 126.901 60.8795 127.011 62.6771 127.461L63.4317 127.789L62.9116 131.617L62.5164 132.91C63.4974 133.888 63.8503 134.431 64.1505 135.791L63.1665 139.091L63.076 139.691C60.9131 139.522 59.5902 138.756 58.127 137.185C55.8743 134.767 55.8772 132.093 55.9203 128.952L57.1519 126.707Z" fill="#242328"/>
<path d="M57.1519 126.707C58.9926 126.901 60.8795 127.011 62.6771 127.461L63.4317 127.789L62.9116 131.617L62.5164 132.91L61.2133 132.609C60.5887 131.469 59.8466 130.459 59.0723 129.416L55.9203 128.952L57.1519 126.707Z" fill="#141419"/>
<path d="M63.5238 155.625L63.9372 155.718C66.1469 156.15 67.946 156.271 70.1871 156.034C71.0476 157.045 71.5012 157.668 71.7729 158.978C73.9351 159.13 75.4209 158.82 77.0827 160.266L77.64 164.052C74.892 163.801 73.968 163.442 71.8328 161.841C70.033 160.493 68.1169 159.812 65.9482 160.07C64.7436 161.639 65.1052 162.221 65.3251 164.108C63.0022 164.316 62.2199 164.037 60.539 165.732C60.0314 168.456 60.5376 171.165 60.0226 173.837C59.3214 171.046 59.1738 166.469 59.8283 163.66C60.3652 161.359 61.0708 159.436 63.2126 158.207C63.3229 158.143 63.4361 158.086 63.5479 158.025L63.5238 155.625Z" fill="#0E0E10"/>
<path d="M63.9372 155.718C66.1469 156.15 67.946 156.271 70.1871 156.034C71.0476 157.045 71.5012 157.668 71.7729 158.978C69.1476 159.314 66.6618 159.915 64.4112 158.382L63.9372 155.718Z" fill="#191C28"/>
<path d="M101.268 177.152C104.305 176.945 106.926 176.313 109.727 177.614C110.526 179.091 110.667 180.435 110.878 182.068L110.547 185.218C107.443 185.419 104.407 185.541 101.295 185.427C101.378 182.679 101.282 179.903 101.268 177.152Z" fill="#2B2B2B"/>
<path d="M60.0226 173.837C60.5376 171.165 60.0314 168.456 60.539 165.732C62.2199 164.037 63.0022 164.316 65.3251 164.108C66.4244 167.312 66.9489 169.893 65.5091 173C63.9423 174.274 61.916 173.923 60.0226 173.837Z" fill="#242328"/>
<path d="M101.268 177.152C101.445 175.399 101.194 174.31 102.706 173.148C103.492 172.544 105.21 171.887 106.167 172.057C108.006 172.384 109.415 173.119 110.437 174.773C111.482 176.466 110.966 180.093 110.878 182.068C110.667 180.435 110.526 179.091 109.727 177.614C106.926 176.313 104.305 176.945 101.268 177.152Z" fill="#0E0E10"/>
<path d="M124.833 72.1209L128.989 72.1385L135.004 72.1588L134.946 131.371C134.931 140.527 135.652 150.198 134.894 159.288L137.223 160.133C136.617 161.614 136.552 162.699 134.949 163.317C132.468 164.274 130.741 163.067 128.565 164.985L128.343 168.007C128.35 169.673 128.475 171.424 128.338 173.081L127.64 169.305C126.167 167.738 124.98 168.13 122.882 168.016C122.429 164.327 124.172 160.502 124.494 156.683C124.957 151.187 124.86 145.603 124.861 140.088L111.124 140.128L106.882 140.332C97.4058 139.695 87.8242 140.571 78.3135 140.01C76.9541 138.766 77.2244 137.592 77.0484 135.818L77.3449 132.46C76.838 121.129 77.7847 109.705 76.9249 98.4055C77.3245 95.9196 77.0812 95.2725 79.0725 93.6162L77.5144 92.5997L78.4063 89.734L78.4348 89.1381C78.0001 87.8316 77.8299 86.3243 77.5589 84.9674C77.2909 80.7069 77.1988 76.6027 77.4786 72.3393L88.749 72.3232L110.736 72.2735C115.39 72.2465 120.201 72.4736 124.833 72.1209Z" fill="#141419"/>
<path d="M79.0725 93.6162C85.3027 94.042 91.5197 94.0085 97.7601 93.9946L111.001 93.9997L110.719 99.1577C110.564 111.32 110.632 123.484 110.922 135.643C105.369 135.688 99.4694 135.326 93.9653 135.942L88.9849 135.947L77.0484 135.818L77.3449 132.46C76.838 121.129 77.7847 109.705 76.9249 98.4055C77.3245 95.9196 77.0812 95.2725 79.0725 93.6162Z" fill="#473A35"/>
<path d="M79.0725 93.6162C85.3027 94.042 91.5197 94.0085 97.7601 93.9946L97.378 97.4693C95.2151 99.1884 91.7622 98.6845 88.9667 98.9562L88.9849 135.947L77.0484 135.818L77.3449 132.46C76.838 121.129 77.7847 109.705 76.9249 98.4055C77.3245 95.9196 77.0812 95.2725 79.0725 93.6162Z" fill="#55575F"/>
<path d="M79.4699 99.0606C80.4633 98.1404 81.9994 98.1463 82.9863 99.0738C83.9724 100.002 84.0718 101.535 83.2135 102.582C82.6036 103.326 81.6292 103.669 80.6876 103.469C79.746 103.27 78.9936 102.562 78.7379 101.635C78.4815 100.707 78.7642 99.7142 79.4699 99.0606Z" fill="#423D3F"/>
<path d="M97.7601 93.9946L111.001 93.9997L110.719 99.1577C103.879 99.233 95.6001 100.215 88.9667 98.9562C91.7622 98.6845 95.2151 99.1884 97.378 97.4693L97.7601 93.9946Z" fill="#423D3F"/>
<path d="M111.001 93.9997C115.557 93.8602 120.12 93.663 124.678 93.6119C124.683 107.898 124.871 122.21 124.55 136.492C114.685 136.473 103.68 137.331 93.9653 135.942C99.4694 135.326 105.369 135.688 110.922 135.643C110.632 123.484 110.564 111.32 110.719 99.1577L111.001 93.9997Z" fill="#2B2B2B"/>
<path d="M114.481 99.4601L118.638 99.2994C120.431 100.247 120.438 101.063 121.144 102.889L116.941 103.181C115.074 102.055 115.123 101.453 114.481 99.4601Z" fill="#141419"/>
<path d="M116.285 127.53C116.884 126.936 117.764 126.725 118.567 126.983C119.37 127.241 119.961 127.926 120.101 128.757C120.24 129.589 119.903 130.429 119.229 130.935C118.28 131.645 116.944 131.502 116.169 130.605C115.394 129.708 115.445 128.365 116.285 127.53Z" fill="#211D21"/>
<path d="M88.749 72.3232L110.736 72.2735C110.85 77.8267 110.904 83.3521 110.726 88.9052C103.439 88.9403 96.1348 89.0834 88.8483 88.9665L78.4348 89.1381C78.0001 87.8316 77.8299 86.3243 77.5589 84.9674C77.2909 80.7069 77.1988 76.6027 77.4786 72.3393L88.749 72.3232Z" fill="#473A35"/>
<path d="M77.4786 72.3393L88.749 72.3232C88.8184 77.8683 88.9528 83.4222 88.8483 88.9665L78.4348 89.1381C78.0001 87.8316 77.8299 86.3243 77.5589 84.9674C77.2909 80.7069 77.1988 76.6027 77.4786 72.3393Z" fill="#55575F"/>
<path d="M79.9995 80.799C80.9637 79.9526 82.4261 80.019 83.31 80.9494C84.1938 81.8806 84.185 83.3433 83.2887 84.2627C82.6773 84.89 81.7716 85.1332 80.9279 84.8959C80.0849 84.6578 79.4385 83.9779 79.2449 83.1235C79.0513 82.2691 79.3406 81.3774 79.9995 80.799Z" fill="#2B2B2B"/>
<path d="M128.989 72.1385L135.004 72.1588L134.946 131.371C134.931 140.527 135.652 150.198 134.894 159.288C133.023 159.279 131.396 159.119 129.565 158.712C127.776 149.927 129.012 138.831 129.015 129.723L128.989 72.1385Z" fill="#3D3635"/>
<path d="M110.736 72.2735C115.39 72.2465 120.201 72.4736 124.833 72.1209L124.741 89.807C109.474 89.7289 93.5993 88.7839 78.4063 89.734L78.4348 89.1381L88.8483 88.9665C96.1348 89.0834 103.439 88.9403 110.726 88.9052C110.904 83.3521 110.85 77.8267 110.736 72.2735Z" fill="#2B2B2B"/>
<path d="M70.8715 33.0752C70.5559 31.4751 70.5648 29.81 70.4924 28.1837C76.0155 28.2531 81.7132 28.6095 87.2165 28.2108L125.3 28.435C130.014 28.1743 137.701 26.7348 141.4 29.859L141.593 32.8357L141.67 37.2956L147.864 37.3365L148.093 41.4626L151.571 41.697L151.896 42.2425C152.232 44.0858 152.117 45.2396 153.512 46.5731L154.564 46.8492C155.878 47.9512 155.98 48.117 156.142 49.8865C156.269 51.2741 155.97 52.6857 155.73 54.0492L152.95 54.3647L152.673 54.6231C150.685 54.3602 149.027 54.0162 147.163 54.9912C146.013 56.3108 145.921 57.3792 145.788 59.0553L146.216 62.8017L135.328 62.8871L135.093 63.3676L134.706 66.4604C133.801 67.1425 133.269 67.401 132.164 67.6537L134.536 68.3877C135.1 69.7438 135.123 70.7048 135.004 72.1588L128.989 72.1385L124.833 72.1209C120.201 72.4736 115.39 72.2465 110.736 72.2735L88.749 72.3232L77.4786 72.3393C77.5341 71.0006 77.4472 69.7314 77.3208 68.3986L75.8336 67.2718C73.8584 67.3813 71.1936 67.7764 69.2857 67.3382C67.2352 66.8665 66.6779 65.2014 65.6676 63.5736L66.3273 62.966L64.9628 59.1801L65.0205 58.4564L60.3739 58.2892L59.959 58.4235C59.8911 56.7592 59.4871 55.0365 59.2191 53.3904L57.8706 54.0886L56.474 54.0207L55.6799 53.2254C55.1189 51.2872 54.8355 48.9042 55.249 46.9054C55.5572 45.4156 56.8882 44.1632 57.8648 43.0422C64.6326 35.2726 66.3061 39.8691 70.7525 36.5097L70.8715 33.0752Z" fill="#473A35"/>
<path d="M125.3 28.435C130.014 28.1743 137.701 26.7348 141.4 29.859L141.593 32.8357L141.67 37.2956L141.494 37.8659C136.774 36.6449 133.875 38.6451 130.488 34.1845C128.143 33.2687 125.507 33.3104 123.018 33.1782C123.069 36.271 123.666 40.4752 122.513 43.3584L121.712 43.4826L121.005 42.715L119.947 46.5564C119.687 44.5992 119.774 43.3182 118.562 41.732L116.139 41.697L116.018 41.1508C116.048 40.0254 116.06 38.9 116.054 37.7746C116.029 36.0811 116.126 34.297 114.895 33.1022C108.434 32.0623 99.5614 31.8936 93.1457 33.1672C91.8747 32.602 90.1829 33.0372 88.8345 33.2001L87.8118 33.0934L87.516 32.4267L87.2165 28.2108L125.3 28.435Z" fill="#2B2B2B"/>
<path d="M125.3 28.435C130.014 28.1743 137.701 26.7348 141.4 29.859L141.593 32.8357C136.751 33.0942 131.405 33.8982 126.71 32.5224C125.191 31.1414 125.449 30.4046 125.3 28.435Z" fill="#020101"/>
<path d="M116.018 41.1508C116.546 38.6583 117.613 37.0385 119.069 34.9828L120.565 34.1904C121.472 34.5124 121.971 34.4789 122.4 35.4012C123.175 37.0721 122.672 39.9019 121.942 41.5246C121.713 42.0314 121.429 42.363 121.005 42.715L119.947 46.5564C119.687 44.5992 119.774 43.3182 118.562 41.732L116.139 41.697L116.018 41.1508Z" fill="#242328"/>
<path d="M70.7561 62.8141L78.0703 62.9492C78.0841 64.9378 77.6875 66.1128 79.0257 67.6391L81.7533 67.8852C98.2042 67.8969 115.853 69.1603 132.164 67.6537L134.536 68.3877C135.1 69.7438 135.123 70.7048 135.004 72.1588L128.989 72.1385L124.833 72.1209C120.201 72.4736 115.39 72.2465 110.736 72.2735L88.749 72.3232L77.4786 72.3393C77.5341 71.0006 77.4472 69.7314 77.3208 68.3986L75.8336 67.2718C73.8584 67.3813 71.1936 67.7764 69.2857 67.3382C67.2352 66.8665 66.6779 65.2014 65.6676 63.5736L66.3273 62.966L70.7561 62.8141Z" fill="#0E0E10"/>
<path d="M93.1457 33.1672C99.5614 31.8936 108.434 32.0623 114.895 33.1022C116.126 34.297 116.029 36.0811 116.054 37.7746C116.06 38.9 116.048 40.0254 116.018 41.1508L116.139 41.697C109.325 44.5787 96.1421 39.88 91.039 43.5176L89.8754 43.3446C88.3275 40.7878 88.8724 36.2213 88.8345 33.2001C90.1829 33.0372 91.8747 32.602 93.1457 33.1672Z" fill="#655B55"/>
<path d="M88.8345 33.2001C90.1829 33.0372 91.8747 32.602 93.1457 33.1672C93.8068 35.4267 95.0917 39.3126 97.1384 40.6031C101.583 43.4037 110.894 41.5597 116.139 41.697C109.325 44.5787 96.1421 39.88 91.039 43.5176L89.8754 43.3446C88.3275 40.7878 88.8724 36.2213 88.8345 33.2001Z" fill="#242328"/>
<path d="M130.049 62.9922L135.093 63.3676L134.706 66.4604C133.801 67.1425 133.269 67.401 132.164 67.6537C115.853 69.1603 98.2042 67.8969 81.7533 67.8852L81.6766 67.0454C81.4312 65.5592 81.4122 64.6471 81.9447 63.2274C91.7834 61.3732 118.315 62.9104 130.049 62.9922Z" fill="#655B55"/>
<path d="M130.049 62.9922L135.093 63.3676L134.706 66.4604C133.801 67.1425 133.269 67.401 132.164 67.6537C115.853 69.1603 98.2042 67.8969 81.7533 67.8852L81.6766 67.0454C81.8103 67.0512 81.9439 67.0586 82.0776 67.063C87.9762 67.2572 127.688 68.3154 130.031 66.1019L130.049 62.9922Z" fill="#45464F"/>
<path d="M70.8715 33.0752C70.5559 31.4751 70.5648 29.81 70.4924 28.1837C76.0155 28.2531 81.7132 28.6095 87.2165 28.2108L87.516 32.4267L87.8118 33.0934C85.6277 33.4871 83.4575 33.8077 81.2522 34.0618L81.2011 34.3956C81.0521 35.3253 80.868 36.0818 80.4991 36.9472C77.5568 37.7344 74.0761 36.4411 71.5268 37.8878L71.228 40.6118C68.3419 41.9197 65.8379 40.2211 63.0271 41.4407L62.0416 44.7642C60.6691 46.127 60.2345 47.2261 59.7012 49.0146C59.6428 50.2984 59.8122 52.2585 59.2191 53.3904L57.8706 54.0886L56.474 54.0207L55.6799 53.2254C55.1189 51.2872 54.8355 48.9042 55.249 46.9054C55.5572 45.4156 56.8882 44.1632 57.8648 43.0422C64.6326 35.2726 66.3061 39.8691 70.7525 36.5097L70.8715 33.0752Z" fill="#2B2B2B"/>
<path d="M70.4924 28.1837C76.0155 28.2531 81.7132 28.6095 87.2165 28.2108L87.516 32.4267C84.028 33.2943 75.3369 34.3832 72.1944 32.5334C70.7897 31.7067 70.8153 29.6706 70.4924 28.1837Z" fill="#020101"/>
<path d="M62.0416 44.7642C60.6691 46.127 60.2345 47.2261 59.7012 49.0146L55.9006 48.7779L56.4689 45.9268C58.2987 44.4458 59.7275 44.8292 62.0416 44.7642Z" fill="#2B2B2B"/>
<path d="M55.9006 48.7779L59.7012 49.0146C59.6428 50.2984 59.8122 52.2585 59.2191 53.3904L57.8706 54.0886L56.474 54.0207C56.0971 52.3424 56.062 50.4956 55.9006 48.7779Z" fill="#423D3F"/>
<path d="M116.139 41.697L118.562 41.732C119.774 43.3182 119.687 44.5992 119.947 46.5564L117.153 46.4965C109.19 45.4091 100.064 46.3686 92.004 46.5548L91.039 43.5176C96.1421 39.88 109.325 44.5787 116.139 41.697Z" fill="#141419"/>
<path d="M92.004 46.5548C100.064 46.3686 109.19 45.4091 117.153 46.4965C117.031 47.2377 116.935 48.0141 116.616 48.6998C116.398 49.1694 116.312 49.5207 115.8 49.7098C111.031 51.4771 98.3686 51.7926 93.7732 49.7039C92.5964 49.1686 92.4269 47.7284 92.004 46.5548Z" fill="#2B2B2B"/>
<path d="M135.328 62.8871C135.151 61.2264 134.887 60.8269 135.815 59.3839C138.601 58.0489 142.758 58.8581 145.788 59.0553L146.216 62.8017L135.328 62.8871Z" fill="#625F5A"/>
<path d="M70.7561 62.8141L71.1557 60.1543C72.5735 59.1955 74.4486 58.3674 76.2047 58.7515C76.9227 58.9085 77.6152 59.2006 78.2858 59.4927L79.0418 60.8058L78.0703 62.9492L70.7561 62.8141Z" fill="#655B55"/>
<path d="M141.67 37.2956L147.864 37.3365L148.093 41.4626C145.977 40.8996 144.133 41.2859 142.051 40.2321L141.494 37.8659L141.67 37.2956Z" fill="#2B2B2B"/>
<path d="M60.3739 58.2892C60.417 56.2538 60.1993 55.6894 61.6238 54.1214C63.4434 53.6686 63.466 53.7446 65.1337 54.6297C65.6757 56.3152 65.4814 56.7161 65.0205 58.4564L60.3739 58.2892Z" fill="#625F5A"/>
<path d="M154.564 46.8492C155.878 47.9512 155.98 48.117 156.142 49.8865C156.269 51.2741 155.97 52.6857 155.73 54.0492L152.95 54.3647C152.917 53.4262 152.899 52.4878 152.898 51.5486C152.915 49.2716 152.898 48.4624 154.564 46.8492Z" fill="#655B55"/>
<path d="M155.73 54.0492L156.258 54.4588C156.771 77.8771 158.222 102.205 156.417 125.526L156.069 125.793C154.564 126.972 153.791 127.729 153.559 129.654C152.468 129.905 150.968 129.934 150.376 130.912C148.476 134.053 144.049 146.061 145.157 149.418C145.26 149.73 145.387 149.898 145.561 150.192C147.538 150.643 150.172 150.789 151.466 152.332C150.61 154.092 149.777 154.355 148.132 155.314C147.859 156.773 147.945 157.792 146.773 158.799C143.606 159.177 140.331 159.411 137.223 160.133L134.894 159.288C135.652 150.198 134.931 140.527 134.946 131.371L135.004 72.1588C135.123 70.7048 135.1 69.7438 134.536 68.3877L132.164 67.6537C133.269 67.401 133.801 67.1425 134.706 66.4604L135.093 63.3676L135.328 62.8871L146.216 62.8017L145.788 59.0553C145.921 57.3792 146.013 56.3108 147.163 54.9912C149.027 54.0162 150.685 54.3602 152.673 54.6231L152.95 54.3647L155.73 54.0492Z" fill="#242328"/>
<path d="M135.328 62.8871L146.216 62.8017C146.154 64.0841 145.982 65.0612 145.501 66.2538C142.056 67.9626 140.255 68.0978 136.593 66.8687C135.13 65.4402 135.392 64.8479 135.328 62.8871Z" fill="#020101"/>
<path d="M145.788 59.0553C145.921 57.3792 146.013 56.3108 147.163 54.9912C149.027 54.0162 150.685 54.3602 152.673 54.6231L152.545 59.2824L145.788 59.0553Z" fill="#655B55"/>
<path d="M152.545 59.2824C152.336 61.1914 152.533 61.4528 151.081 62.6563L146.216 62.8017L145.788 59.0553L152.545 59.2824Z" fill="#020101"/>
<path d="M137.362 112.196C138.345 111.364 139.804 111.432 140.705 112.351C141.606 113.271 141.644 114.731 140.792 115.697C140.183 116.386 139.24 116.678 138.347 116.452C137.454 116.226 136.763 115.521 136.556 114.625C136.349 113.728 136.66 112.79 137.362 112.196Z" fill="#3D3635"/>
<path d="M137.556 77.2389C138.593 76.4969 140.035 76.7262 140.789 77.7544C141.544 78.7819 141.331 80.225 140.313 80.9925C139.642 81.4972 138.753 81.6023 137.983 81.2679C137.214 80.9341 136.684 80.2118 136.595 79.3778C136.507 78.5438 136.874 77.7267 137.556 77.2389Z" fill="#423D3F"/>
<path d="M153.559 129.654C153.893 132.26 153.682 133.286 155.526 135.23C159.333 136.872 164.42 135.269 168.599 135.652C168.491 137.532 168.543 139.458 167.763 141.198C167.672 142.733 167.54 143.694 168.403 145.013L172.231 145.362C174.276 145.316 175.201 145.028 176.944 146.161C178.351 150.167 178.017 158.343 176.143 162.165C175.214 164.059 173.458 165.801 171.396 166.387C169.171 167.019 166.793 166.347 164.903 165.107C163.778 164.368 162.263 163.022 161.982 161.669C161.475 159.223 162.463 157.46 161.119 155.21C159.588 154.734 158.747 154.44 157.206 154.984C155.286 162.047 156.851 170.896 156.804 178.229C152.555 178.436 148.248 178.751 144.834 175.672C143.68 174.632 143.235 173.32 142.699 171.92C142.422 171.199 142.082 169.897 141.663 169.29C140.31 167.325 130.774 167.99 128.343 168.007L128.565 164.985C130.741 163.067 132.468 164.274 134.949 163.317C136.552 162.699 136.617 161.614 137.223 160.133C140.331 159.411 143.606 159.177 146.773 158.799C147.945 157.792 147.859 156.773 148.132 155.314C149.777 154.355 150.61 154.092 151.466 152.332C150.172 150.789 147.538 150.643 145.561 150.192C145.387 149.898 145.26 149.73 145.157 149.418C144.049 146.061 148.476 134.053 150.376 130.912C150.968 129.934 152.468 129.905 153.559 129.654Z" fill="#020101"/>
<path d="M161.31 140.867L167.763 141.198C167.672 142.733 167.54 143.694 168.403 145.013L172.231 145.362C172.236 149.907 171.966 154.674 172.445 159.186L168.271 159.368C168.588 157.688 168.788 155.775 168.791 154.069C168.795 151.88 168.694 150.45 167.13 148.928L162.436 149.129L161.401 149.401L161.053 145.797L161.31 140.867Z" fill="#423D3F"/>
<path d="M161.31 140.867L167.763 141.198C167.672 142.733 167.54 143.694 168.403 145.013C165.984 145.105 164.313 144.607 162.57 146.363L162.436 149.129L161.401 149.401L161.053 145.797L161.31 140.867Z" fill="#3D3635"/>
<path d="M162.436 149.129L167.13 148.928C168.694 150.45 168.795 151.88 168.791 154.069C168.788 155.775 168.588 157.688 168.271 159.368L172.445 159.186C172.405 160.237 172.098 161.167 171.8 162.165C169.85 162.811 168.938 163.43 166.938 162.838C165.33 160.838 165.845 156.493 165.485 153.888C164.435 152.98 163.51 152.679 162.203 152.303L161.7 152.164L160.594 149.746L161.401 149.401L162.436 149.129Z" fill="#272121"/>
<path d="M167.13 148.928C168.694 150.45 168.795 151.88 168.791 154.069C168.788 155.775 168.588 157.688 168.271 159.368L167.02 159.317C165.565 156.529 166.524 151.907 167.13 148.928Z" fill="#3D3635"/>
<path d="M146.834 164.292C149.263 164.527 149.956 164.25 151.691 166.054C152.311 168.568 152.222 171.178 152.244 173.751C150.477 173.834 148.814 174.132 147.279 173.1C145.721 170.848 146.613 166.916 146.834 164.292Z" fill="#242328"/>
<path d="M157.362 140.143C157.905 138.408 157.849 137.637 159.472 136.678C161.063 138.017 160.94 138.889 161.31 140.867L161.053 145.797C159.537 145.701 157.401 145.755 156.049 145.037C154.796 144.371 154.658 144.217 154.224 142.892C155.121 141.297 155.815 141.025 157.362 140.143Z" fill="#2B2B2B"/>
<path d="M149.447 140.719C152.084 140.616 154.73 140.345 157.362 140.143C155.815 141.025 155.121 141.297 154.224 142.892C154.658 144.217 154.796 144.371 156.049 145.037C157.401 145.755 159.537 145.701 161.053 145.797L161.401 149.401L160.594 149.746L158.587 149.522C157.69 148.713 157.661 147.747 157.355 146.594C155.748 145.17 153.775 145.444 151.767 145.481C149.985 143.941 150.026 142.96 149.447 140.719Z" fill="#2B2B2B"/>
<path d="M146.773 158.799C147.945 157.792 147.859 156.773 148.132 155.314C148.488 156.142 148.89 157.608 149.625 158.062C151.439 159.183 152.276 160.452 152.682 162.548C153.33 165.893 152.506 170.337 152.244 173.751C152.222 171.178 152.311 168.568 151.691 166.054C149.956 164.25 149.263 164.527 146.834 164.292C147.537 163.663 147.977 162.876 148.472 162.084C148.143 160.358 147.965 160.102 146.773 158.799Z" fill="#141419"/>
<path d="M149.525 149.719L149.447 140.719C150.026 142.96 149.985 143.941 151.767 145.481C153.775 145.444 155.748 145.17 157.355 146.594C157.661 147.747 157.69 148.713 158.587 149.522L149.525 149.719Z" fill="#211D21"/>
<path d="M151.571 41.697C151.613 40.419 151.734 39.5565 152.345 38.4173C152.623 37.898 154.704 37.5095 155.361 37.3233C156.2 39.6953 156.065 40.427 158.465 41.5583C159.168 41.8898 159.903 42.168 160.626 42.4528C162.835 48.2375 161.355 115.445 161.36 126.097C166.014 126.197 167.383 126.242 170.736 129.721C171.696 130.717 172.364 131.667 172.944 132.931C172.775 133.487 172.705 134.332 172.185 134.61C170.967 135.26 170.169 135.305 168.812 135.2L168.599 135.652C164.42 135.269 159.333 136.872 155.526 135.23C153.682 133.286 153.893 132.26 153.559 129.654C153.791 127.729 154.564 126.972 156.069 125.793L156.417 125.526C158.222 102.205 156.771 77.8771 156.258 54.4588L155.73 54.0492C155.97 52.6857 156.269 51.2741 156.142 49.8865C155.98 48.117 155.878 47.9512 154.564 46.8492L153.512 46.5731C152.117 45.2396 152.232 44.0858 151.896 42.2425L151.571 41.697Z" fill="#020101"/>
<path d="M153.559 129.654C158.357 130.134 163.887 129.317 168.452 130.695L168.812 135.2L168.599 135.652C164.42 135.269 159.333 136.872 155.526 135.23C153.682 133.286 153.893 132.26 153.559 129.654Z" fill="#423D3F"/>
<path d="M153.559 129.654C158.357 130.134 163.887 129.317 168.452 130.695C164.892 130.542 161.729 130.185 158.49 131.972L158.024 132.965C161.363 135.859 164.895 134.613 168.812 135.2L168.599 135.652C164.42 135.269 159.333 136.872 155.526 135.23C153.682 133.286 153.893 132.26 153.559 129.654Z" fill="#2B2B2B"/>
<path d="M151.896 42.2425C153.077 42.3623 154.841 42.198 155.568 43.1656C157.487 45.7209 157.096 50.4013 156.525 53.4393C156.461 53.776 156.35 54.1338 156.258 54.4588L155.73 54.0492C155.97 52.6857 156.269 51.2741 156.142 49.8865C155.98 48.117 155.878 47.9512 154.564 46.8492L153.512 46.5731C152.117 45.2396 152.232 44.0858 151.896 42.2425Z" fill="#2B2B2B"/>
<path d="M87.2165 28.2108C87.3589 26.2653 87.1208 25.1881 88.4035 23.6764C94.8448 23.3207 120.885 22.1932 125.513 23.9298C126.02 25.6694 125.751 26.7356 125.3 28.435L87.2165 28.2108Z" fill="#020101"/>
<path d="M141.593 32.8357L152.504 32.8444L152.688 36.1804C153.675 37.0027 154.084 37.1852 155.361 37.3233C154.704 37.5095 152.623 37.898 152.345 38.4173C151.734 39.5565 151.613 40.419 151.571 41.697L148.093 41.4626L147.864 37.3365L141.67 37.2956L141.593 32.8357Z" fill="#020101"/>
<path d="M152.504 32.8444L152.688 36.1804C153.675 37.0027 154.084 37.1852 155.361 37.3233C154.704 37.5095 152.623 37.898 152.345 38.4173C151.734 39.5565 151.613 40.419 151.571 41.697L148.093 41.4626L147.864 37.3365L150.382 37.1093C152.144 35.8584 151.999 34.8987 152.504 32.8444Z" fill="#211D21"/>
<path d="M200.41 14.566C201.652 22.237 200.803 30.9815 200.778 38.8204L200.685 86.8012L200.726 155.82C200.744 166.367 202.043 178.976 200.278 189.251C198.826 190.301 197.75 190.187 196.045 190.153C191.594 194.934 189.67 197.178 182.792 197.42C167.906 197.943 152.935 197.299 138.037 197.369L19.3559 197.44C14.9067 194.194 14.3953 190.232 8.57421 190.167L7.54133 189.178L7.48655 183.441L8.57568 183.169C12.6349 183.174 16.6079 182.701 19.7029 185.829C20.876 187.014 21.8731 188.42 22.8556 189.764L72.8423 189.978C81.7533 189.981 90.9689 190.505 99.8178 189.655L100.586 188.773L99.9661 186.194L101.295 185.427C104.407 185.541 107.443 185.419 110.547 185.218L110.988 186.204L111.55 186.533C111.334 188.019 111.204 188.829 111.914 190.184C116.778 190.708 181.811 190.24 184.806 189.413C185.488 187.997 186.001 186.601 186.47 185.101L192.28 182.517C194.217 160.273 193.255 137.531 193.129 115.208L192.555 21.1802C194.721 21.105 196.857 21.0897 199.023 21.1722C200.487 19.3151 200.227 16.8978 200.41 14.566Z" fill="#211D21"/>
<path d="M100.889 190.462C101.076 189.184 101.382 188.082 101.84 186.875C104.328 185.305 108.15 186.04 110.988 186.204C110.958 187.58 110.751 188.555 110.22 189.825C107.793 191.421 103.697 190.622 100.889 190.462Z" fill="#020101"/>
<path d="M7.48655 183.441L7.48361 75.8512C7.47703 55.4944 7.08405 34.9849 8.06361 14.6485C9.29518 13.5078 12.6604 14.1417 14.5304 13.8846C15.8876 11.6237 14.3018 9.31668 15.6904 6.93155C29.1428 5.00212 52.6712 6.62483 67.2126 6.59707L193.449 6.57513C193.344 9.21878 192.842 11.5316 194.08 13.9138C196.105 14.9005 198.222 14.6456 200.41 14.566C200.227 16.8978 200.487 19.3151 199.023 21.1722C196.857 21.0897 194.721 21.105 192.555 21.1802C185.945 20.2542 185.722 14.75 178.142 13.9949C171.878 13.3712 165.203 13.7006 158.897 13.6268C143.267 13.4428 127.669 13.6085 112.041 13.6706C85.0134 13.7772 57.772 12.611 30.7724 13.981C28.3071 14.1066 25.5364 14.1789 23.3246 15.3539C21.9352 16.9321 21.9673 18.4146 21.0258 20.0607C19.8826 22.0602 15.7584 20.2739 14.8738 22.6386C12.0615 30.1643 13.865 137.866 13.9147 157.128C13.9264 161.714 14.8672 177.652 13.5969 181.05C12.9578 182.761 10.1951 182.802 8.57568 183.169L7.48655 183.441Z" fill="#42484E"/>
</svg>
