<svg width="168" height="175" viewBox="0 0 168 175" fill="none" xmlns="http://www.w3.org/2000/svg">
<path d="M60.2261 0.218989C66.1983 0.463454 83.7219 -1.24861 87.2424 2.14797C87.7296 4.56354 87.5095 5.02892 86.7944 7.41776L86.8809 8.73206L86.928 13.6434L87.3759 13.6402C90.362 14.3461 90.8177 14.4373 93.9296 14.2911L93.961 20.5678L100.208 20.8445L99.9175 24.6168L101.096 27.1385L100.853 27.6219C102.684 27.6998 105.442 27.9293 107.171 27.6322C110.683 27.4388 110.785 26.8917 113.52 28.2689C114.408 30.4541 114.18 31.575 114.031 33.8758L113.151 34.1989C113.284 36.355 113.496 38.7211 113.481 40.8647L114.023 41.1689C115.838 41.1272 119.099 41.1477 120.797 40.9874C124.325 40.7641 124.183 40.2091 126.761 41.6956C127.712 44.0129 127.539 45.1488 127.555 47.6296C130.871 47.6657 131.287 47.1202 133.629 48.6506C134.25 50.9161 134.069 52.1494 133.943 54.4431C136.364 54.2482 138.525 53.7907 140.544 55.1357C141 59.2703 139.64 57.839 141.723 60.5076C144.065 61.5429 144.402 61.5578 146.964 61.5641C148.001 63.8445 147.585 65.4276 147.334 67.9485L147.2 74.0986L147.428 75.0616C147.113 77.9527 147.593 78.7372 145.88 80.2598L141.872 80.5569C144.049 80.9303 145.023 81.0317 147.074 81.9561C147.954 83.9629 147.664 85.3346 147.546 87.5356C147.514 89.5086 147.373 92.274 147.585 94.1668C148.426 90.2428 147.703 90.6059 150.202 88.3837L151.985 88.1865C154.421 90.2412 154.021 90.2585 154.367 94.1881L154.382 100.885C154.406 104.336 154.964 104.814 153.479 107.392C151.263 108.071 150.21 107.968 147.954 107.957C148.135 110.482 148.402 112.308 147.978 114.825C145.613 115.036 143.428 115.35 141.086 114.931C140.968 118.343 141.471 118.321 139.931 120.898C136.254 120.972 136.615 120.222 134.666 122.12C134.627 124.471 134.705 125.464 134.061 127.771C130.824 129.628 130.839 126.755 127.35 129.216C127.02 131.282 127.067 131.566 127.272 133.671C124.891 135.316 124.042 134.854 120.671 134.749C120.687 137.563 121.15 138.59 119.932 140.787C116.2 140.754 117.355 140.272 114.408 142.18C113.323 144.201 113.591 144.658 113.921 147.077C111.555 148.606 110.471 148.129 107.233 147.941C107.288 151.429 107.878 151.994 106.353 154.533C104.098 155.153 103.1 155.025 100.821 154.948C100.743 158.055 101.253 158.755 99.721 160.966C97.4893 161.35 96.7114 161.435 94.4561 161.414L94.0632 161.564C94.1968 164.027 94.5583 165.733 93.4738 167.897C84.8063 167.146 88.924 171.593 86.8495 174.495C82.001 175.322 66.1196 174.892 60.4303 174.859C60.5404 154.805 60.4461 134.749 60.1396 114.696C40.1721 114.493 20.1967 114.412 0.221331 114.453C0.0170197 96.5525 -0.0458377 78.6499 0.0327437 60.7482C20.1653 60.6475 40.2978 60.6853 60.4303 60.8613C60.1632 40.6265 60.5876 20.6527 60.2261 0.218989Z" fill="#474E5A"/>
<path d="M66.9682 13.8713C66.8974 11.642 66.9603 10.6704 67.2275 8.45453C69.3727 6.74248 70.3865 7.32573 73.6869 7.23297C73.7576 10.2538 73.2626 10.9935 74.7399 13.1607C77.1838 13.7125 77.9538 13.7282 80.4684 13.7597L80.5313 14.1425C82.0872 13.8666 85.2228 13.7573 86.928 13.6434L87.3759 13.6402C90.362 14.3461 90.8177 14.4373 93.9296 14.2911L93.961 20.5678L100.208 20.8445L99.9175 24.6168L101.096 27.1385L100.853 27.6219C102.684 27.6998 105.442 27.9293 107.171 27.6322C110.683 27.4388 110.785 26.8917 113.52 28.2689C114.408 30.4541 114.18 31.575 114.031 33.8758L113.151 34.1989C113.284 36.355 113.496 38.7211 113.481 40.8647L114.023 41.1689C115.838 41.1272 119.099 41.1477 120.797 40.9874C124.325 40.7641 124.183 40.2091 126.761 41.6956C127.712 44.0129 127.539 45.1488 127.555 47.6296C130.871 47.6657 131.287 47.1202 133.629 48.6506C134.25 50.9161 134.069 52.1494 133.943 54.4431C136.364 54.2482 138.525 53.7907 140.544 55.1357C141 59.2703 139.64 57.839 141.723 60.5076C144.065 61.5429 144.402 61.5578 146.964 61.5641C148.001 63.8445 147.585 65.4276 147.334 67.9485L147.2 74.0986L147.428 75.0616C147.113 77.9527 147.593 78.7372 145.88 80.2598L141.872 80.5569C144.049 80.9303 145.023 81.0317 147.074 81.9561C147.954 83.9629 147.664 85.3346 147.546 87.5356C135.326 87.4295 61.5539 85.4493 54.7016 89.0369C53.2872 91.4973 52.2184 93.0671 49.1773 93.3367C37.9716 94.3303 26.2866 92.7613 15.0259 92.5153C14.9788 90.3418 15.018 89.4826 14.0122 87.5536L6.73555 87.2998C6.5941 82.0237 6.60199 76.7445 6.76701 71.4692L7.01843 68.7408C9.91808 66.7434 28.8955 67.6663 34.1369 67.7174C44.3524 66.8802 56.2732 67.0948 66.6381 67.035C66.6538 49.2897 67.0546 31.7778 66.9682 13.8713Z" fill="#424753"/>
<path d="M6.76701 71.4692C6.91632 75.1731 6.4291 79.5445 10.3896 81.185C13.7765 79.2969 13.2893 77.7978 13.5407 74.0522C13.6036 76.8985 13.4936 83.2169 14.2401 85.6545L14.688 83.0896C18.8056 80.7668 91.0534 81.3053 101.269 80.8407C112.074 80.3486 129.181 82.0921 141.094 80.373L141.872 80.5569C144.049 80.9303 145.023 81.0317 147.074 81.9561C147.954 83.9629 147.664 85.3346 147.546 87.5356C135.326 87.4295 61.5539 85.4493 54.7016 89.0369C53.2872 91.4973 52.2184 93.0671 49.1773 93.3367C37.9716 94.3303 26.2866 92.7613 15.0259 92.5153C14.9788 90.3418 15.018 89.4826 14.0122 87.5536L6.73555 87.2998C6.5941 82.0237 6.60199 76.7445 6.76701 71.4692Z" fill="#4F5660"/>
<path d="M86.928 13.6434L87.3759 13.6402C90.362 14.3461 90.8177 14.4373 93.9296 14.2911L93.961 20.5678L100.208 20.8445L99.9175 24.6168L101.096 27.1385L100.853 27.6219L100.845 34.0834L100.342 34.015C100.287 36.2412 100.326 36.8283 99.6191 38.924C95.9887 41.7742 85.5923 40.4851 80.1309 40.4827C80.0837 35.1988 79.8637 25.5813 81.0346 20.7164L81.0425 20.1693C80.7046 18.8346 80.6178 15.6572 80.5313 14.1425C82.0872 13.8666 85.2228 13.7573 86.928 13.6434Z" fill="#333944"/>
<path d="M86.928 13.6434L87.3759 13.6402C90.362 14.3461 90.8177 14.4373 93.9296 14.2911L93.961 20.5678L93.6623 27.1291L87.0301 27.214L86.5585 22.1117C84.759 20.314 84.225 20.8909 81.0346 20.7164L81.0425 20.1693C80.7046 18.8346 80.6178 15.6572 80.5313 14.1425C82.0872 13.8666 85.2228 13.7573 86.928 13.6434Z" fill="#424753"/>
<path d="M86.928 13.6434C86.9438 16.8521 87.533 17.6499 85.9456 19.8006C83.7689 20.2628 83.2742 20.255 81.0425 20.1693C80.7046 18.8346 80.6178 15.6572 80.5313 14.1425C82.0872 13.8666 85.2228 13.7573 86.928 13.6434Z" fill="#8B9098"/>
<path d="M87.0301 27.214C87.2737 25.0138 87.4621 23.7042 87.9572 21.5489C90.1731 20.1504 90.9907 20.6291 93.961 20.5678L93.6623 27.1291L87.0301 27.214Z" fill="#8B9098"/>
<path d="M93.961 20.5678L100.208 20.8445L99.9175 24.6168L101.096 27.1385L100.853 27.6219L100.845 34.0834L100.342 34.015C98.3932 34.0598 97.3087 33.97 95.3677 33.783C93.6468 31.8398 94.1733 30.8054 93.969 27.6619L93.6623 27.1291L93.961 20.5678Z" fill="#8B9098"/>
<path d="M93.961 20.5678L100.208 20.8445L99.9175 24.6168L101.096 27.1385L100.853 27.6219C97.6072 26.8728 97.1987 26.8782 93.969 27.6619L93.6623 27.1291L93.961 20.5678Z" fill="#333944"/>
<path d="M6.76701 71.4692L7.01843 68.7408C9.91808 66.7434 28.8955 67.6663 34.1369 67.7174C44.6982 68.2134 56.4074 67.9344 67.0866 67.8856L66.9294 74.2826L13.5407 74.0522C13.2893 77.7978 13.7765 79.2969 10.3896 81.185C6.4291 79.5445 6.91632 75.1731 6.76701 71.4692Z" fill="#7F8B97"/>
<path d="M66.9682 13.8713C70.3786 13.8068 70.961 13.2517 73.5542 14.6698C74.6622 30.2464 74.0571 50.3225 73.8685 66.0932C72.1397 67.6245 71.4404 67.3352 68.6586 67.1851C67.9828 67.1442 67.306 67.094 66.6381 67.035C66.6538 49.2897 67.0546 31.7778 66.9682 13.8713Z" fill="#1C212B"/>
<path d="M107.406 47.4165L113.096 47.4299C113.441 50.7526 114.031 50.9947 112.734 53.4535C111.045 54.3174 106.51 55.2567 104.868 54.7136C99.0845 52.8019 84.2719 55.6694 80.2092 52.4812C79.7063 49.7433 79.5177 50.8493 81.0186 48.3457C83.3368 46.7311 102.888 47.4189 107.406 47.4165Z" fill="#333944"/>
<path d="M107.171 27.6322C110.683 27.4388 110.785 26.8917 113.52 28.2689C114.408 30.4541 114.18 31.575 114.031 33.8758L113.151 34.1989C113.284 36.355 113.496 38.7211 113.481 40.8647C111.681 40.9488 108.908 40.9725 107.234 41.3081C105.678 41.5188 102.613 41.3019 100.924 41.2366L100.845 34.0834L100.853 27.6219C102.684 27.6998 105.442 27.9293 107.171 27.6322Z" fill="#474E5A"/>
<path d="M107.171 27.6322C110.683 27.4388 110.785 26.8917 113.52 28.2689C114.408 30.4541 114.18 31.575 114.031 33.8758L113.151 34.1989C111.202 34.2162 110.306 34.1338 108.373 33.8626C106.794 31.8605 107.304 30.6679 107.171 27.6322Z" fill="#000006"/>
<path d="M100.845 34.0834C104.688 34.2123 104.468 33.5969 107.085 35.4984L107.682 37.1507C105.78 41.0637 105.207 40.7296 100.924 41.2366L100.845 34.0834Z" fill="#8B9098"/>
<path d="M133.943 54.4431C136.364 54.2482 138.525 53.7907 140.544 55.1357C141 59.2703 139.64 57.839 141.723 60.5076C144.065 61.5429 144.402 61.5578 146.964 61.5641C148.001 63.8445 147.585 65.4276 147.334 67.9485C145.196 67.9454 144.238 67.969 142.147 67.5563C139.507 65.1706 142.831 66.7349 140.717 62.1003C138.58 60.5163 138.085 60.4636 135.539 60.5454L134.886 60.5729C133.519 58.3593 133.998 57.3838 133.943 54.4431Z" fill="#000006"/>
<path d="M114.023 41.1689C115.838 41.1272 119.099 41.1477 120.797 40.9874L120.734 47.6019L120.711 51.783C119.328 54.2064 120.137 53.4825 117.756 54.6427L115.571 53.7363C113.693 50.8869 114.283 51.1297 114.086 47.2128L114.023 41.1689Z" fill="#8B9098"/>
<path d="M114.023 41.1689C115.838 41.1272 119.099 41.1477 120.797 40.9874L120.734 47.6019L114.086 47.2128L114.023 41.1689Z" fill="#424753"/>
<path d="M120.797 40.9874C124.325 40.7641 124.183 40.2091 126.761 41.6956C127.712 44.0129 127.539 45.1488 127.555 47.6296L120.734 47.6019L120.797 40.9874Z" fill="#000006"/>
<path d="M127.578 60.8401C130.973 60.9156 131.303 60.3598 133.653 61.9673C134.085 64.4623 134.077 65.2271 133.983 67.7669C131.665 67.8777 130.8 68.0019 128.513 67.3896C127.052 65.2114 127.594 63.9026 127.578 60.8401Z" fill="#8B9098"/>
<path d="M127.555 47.6296C130.871 47.6657 131.287 47.1202 133.629 48.6506C134.25 50.9161 134.069 52.1494 133.943 54.4431C131.656 54.4903 130.769 54.5642 128.498 54.0297C126.958 51.8672 127.539 50.7927 127.555 47.6296Z" fill="#000006"/>
<path d="M107.234 41.3081C108.908 40.9725 111.681 40.9488 113.481 40.8647L114.023 41.1689L114.086 47.2128L113.096 47.4299L107.406 47.4165L107.234 41.3081Z" fill="#8B9098"/>
<path d="M133.983 67.7669C137.472 67.7347 137.935 67.1633 140.505 68.6883C141.102 70.9372 141.023 71.8569 140.992 74.1396C138.509 74.164 137.629 74.1545 135.161 73.7757C133.535 71.4851 134.085 71.1257 133.983 67.7669Z" fill="#7F8B97"/>
<path d="M67.0866 67.8856C70.9136 68.0444 70.7247 67.4187 73.2472 69.3595L73.8837 71.3262C71.817 75.0144 70.9292 74.4776 66.9294 74.2826L67.0866 67.8856Z" fill="#5B626F"/>
<path d="M121.119 54.2269C124.592 54.4101 125.056 53.8284 127.264 55.6018C127.413 57.4239 127.539 59.0015 127.578 60.8401C124.246 60.8566 124.042 61.3927 121.622 59.9063C120.985 57.6196 121.095 56.5372 121.119 54.2269Z" fill="#8B9098"/>
<path d="M147.2 74.0986L147.428 75.0616C147.113 77.9527 147.593 78.7372 145.88 80.2598L141.872 80.5569L141.094 80.373L140.992 74.1396L147.2 74.0986Z" fill="#8B9098"/>
<path d="M60.2261 0.218989C66.1983 0.463454 83.7219 -1.24861 87.2424 2.14797C87.7296 4.56354 87.5095 5.02892 86.7944 7.41776L86.8809 8.73206L86.928 13.6434C85.2228 13.7573 82.0872 13.8666 80.5313 14.1425L80.4684 13.7597C77.9538 13.7282 77.1838 13.7125 74.7399 13.1607C73.2626 10.9935 73.7576 10.2538 73.6869 7.23297C70.3865 7.32573 69.3727 6.74248 67.2275 8.45453C66.9603 10.6704 66.8974 11.642 66.9682 13.8713C67.0546 31.7778 66.6538 49.2897 66.6381 67.035C56.2732 67.0948 44.3524 66.8802 34.1369 67.7174C28.8955 67.6663 9.91808 66.7434 7.01843 68.7408L6.76701 71.4692C6.60199 76.7445 6.5941 82.0237 6.73555 87.2998L6.60213 101.061C6.55498 103.467 6.14645 105.782 7.47447 107.587C13.1009 108.405 23.2614 107.926 29.3279 107.888C41.9009 107.791 54.4739 107.806 67.0469 107.934C67.2355 127.352 67.4635 148.443 66.9998 167.828C71.4004 167.892 83.1246 168.616 86.5665 166.974C87.5331 165.073 87.4152 164.727 87.4623 162.519C89.4976 160.882 90.6449 161.2 93.5996 161.512L94.0632 161.564C94.1968 164.027 94.5583 165.733 93.4738 167.897C84.8063 167.146 88.924 171.593 86.8495 174.495C82.001 175.322 66.1196 174.892 60.4303 174.859C60.5404 154.805 60.4461 134.749 60.1396 114.696C40.1721 114.493 20.1967 114.412 0.221331 114.453C0.0170197 96.5525 -0.0458377 78.6499 0.0327437 60.7482C20.1653 60.6475 40.2978 60.6853 60.4303 60.8613C60.1632 40.6265 60.5876 20.6527 60.2261 0.218989Z" fill="#000006"/>
<path d="M80.5711 7.30697L86.7944 7.41776L86.8809 8.73206L86.928 13.6434C85.2228 13.7573 82.0872 13.8666 80.5313 14.1425L80.4684 13.7597C77.9538 13.7282 77.1838 13.7125 74.7399 13.1607C73.2626 10.9935 73.7576 10.2538 73.6869 7.23297L80.5711 7.30697Z" fill="#5B626F"/>
<path d="M80.5711 7.30697L86.7944 7.41776L86.8809 8.73206L86.928 13.6434C85.2228 13.7573 82.0872 13.8666 80.5313 14.1425L80.4684 13.7597C80.767 11.6931 80.6183 9.41519 80.5711 7.30697Z" fill="#474E5A"/>
<path d="M147.585 94.1668C148.426 90.2428 147.703 90.6059 150.202 88.3837L151.985 88.1865C154.421 90.2412 154.021 90.2585 154.367 94.1881L154.382 100.885C154.406 104.336 154.964 104.814 153.479 107.392C151.263 108.071 150.21 107.968 147.954 107.957C148.135 110.482 148.402 112.308 147.978 114.825C145.613 115.036 143.428 115.35 141.086 114.931C140.968 118.343 141.471 118.321 139.931 120.898C136.254 120.972 136.615 120.222 134.666 122.12C134.627 124.471 134.705 125.464 134.061 127.771C130.824 129.628 130.839 126.755 127.35 129.216C127.02 131.282 127.067 131.566 127.272 133.671C124.891 135.316 124.042 134.854 120.671 134.749C120.687 137.563 121.15 138.59 119.932 140.787C116.2 140.754 117.355 140.272 114.408 142.18C113.323 144.201 113.591 144.658 113.921 147.077C111.555 148.606 110.471 148.129 107.233 147.941C107.288 151.429 107.878 151.994 106.353 154.533C104.098 155.153 103.1 155.025 100.821 154.948C100.743 158.055 101.253 158.755 99.721 160.966C97.4893 161.35 96.7114 161.435 94.4561 161.414L94.0632 161.564L93.5996 161.512C90.6449 161.2 89.4976 160.882 87.4623 162.519C87.4152 164.727 87.5331 165.073 86.5665 166.974C83.1246 168.616 71.4004 167.892 66.9998 167.828C67.4635 148.443 67.2355 127.352 67.0469 107.934C54.4739 107.806 41.9009 107.791 29.3279 107.888C23.2614 107.926 13.1009 108.405 7.47447 107.587C6.14645 105.782 6.55498 103.467 6.60213 101.061L73.5299 100.874C73.7107 115.427 74.2608 133.809 73.3414 148.085L74.19 148.33C74.19 151.868 73.5771 152.041 75.298 154.303C78.3784 155.8 83.7612 154.727 87.4939 154.655L87.3838 150.528C90.4878 144.733 93.7253 152.469 93.9296 141.55C95.1398 141.377 98.3616 141.355 99.7525 141.305C102.11 138.429 99.4854 138.311 101.387 134.904C103.202 134.731 104.703 134.669 106.534 134.626C107.807 132.91 107.32 132.034 107.304 129.465C109.945 126.476 111.163 130.008 114.298 127.202L114.369 122.805C116.679 119.975 117.284 123.051 120.679 120.632C120.749 118.711 120.844 117.247 121.08 115.339C123.437 113.327 122.596 113.898 126.344 113.91C127.885 111.825 127.405 110.967 127.562 107.957C130.046 107.936 132.081 108.254 133.99 106.872C133.928 105.473 133.92 104.309 133.935 102.909C135.892 100.4 135.869 101.274 140.183 100.685C141.833 97.5744 141.55 98.9414 141.377 95.5181C142.689 94.2934 145.628 94.3492 147.585 94.1668Z" fill="#1C212B"/>
<path d="M120.671 134.749C120.6 132.167 120.286 130.453 121.527 128.237C123.539 128.642 123.83 128.614 125.865 128.283C129.362 125.52 125.464 125.568 127.979 121.31C130.046 121.078 131.413 121.071 133.495 121.083C135.515 118.414 133.77 119.164 134.556 115.044C137.566 113.876 137.44 114.41 141.086 114.931C140.968 118.343 141.471 118.321 139.931 120.898C136.254 120.972 136.615 120.222 134.666 122.12C134.627 124.471 134.705 125.464 134.061 127.771C130.824 129.628 130.839 126.755 127.35 129.216C127.02 131.282 127.067 131.566 127.272 133.671C124.891 135.316 124.042 134.854 120.671 134.749Z" fill="#000006"/>
<path d="M107.233 147.941C107.068 145.647 106.621 143.592 107.627 141.638C109.812 141.607 110.181 141.521 112.263 140.871C114.283 138.927 114.354 139.4 114.409 136.115L114.416 135.268C116.9 134.194 118.038 134.489 120.671 134.749C120.687 137.563 121.15 138.59 119.932 140.787C116.2 140.754 117.355 140.272 114.408 142.18C113.323 144.201 113.591 144.658 113.921 147.077C111.555 148.606 110.471 148.129 107.233 147.941Z" fill="#000006"/>
<path d="M73.3414 148.085L74.19 148.33C74.19 151.868 73.5771 152.041 75.298 154.303C78.3784 155.8 83.7612 154.727 87.4939 154.655C87.6667 156.897 88.0445 158.172 86.8187 159.974C74.4578 166.843 72.9956 157.986 73.3414 148.085Z" fill="#262933"/>
<path d="M147.954 107.957C147.53 105.596 146.972 104.099 147.844 101.917C150.508 100.358 150.822 100.91 154.382 100.885C154.406 104.336 154.964 104.814 153.479 107.392C151.263 108.071 150.21 107.968 147.954 107.957Z" fill="#000006"/>
<path d="M100.821 154.948C100.75 152.453 100.562 151.307 101.285 148.883C103.572 147.428 104.137 147.947 107.233 147.941C107.288 151.429 107.878 151.994 106.353 154.533C104.098 155.153 103.1 155.025 100.821 154.948Z" fill="#000006"/>
<path d="M140.851 107.79C144.049 107.932 145.134 107.384 147.185 109.075C147.499 110.984 147.758 112.901 147.978 114.825C144.67 114.483 143.263 114.953 141.15 113.106C140.922 111.047 140.835 109.861 140.851 107.79Z" fill="#000006"/>
<path d="M94.4561 161.414C94.0868 159.176 93.7963 158.231 94.3935 156.012C97.0182 154.386 97.2064 154.96 100.821 154.948C100.743 158.055 101.253 158.755 99.721 160.966C97.4893 161.35 96.7114 161.435 94.4561 161.414Z" fill="#000006"/>
<path d="M6.73555 87.2998L14.0122 87.5536C13.6507 91.3189 13.0619 91.0476 14.6413 93.7367C20.6214 96.7466 75.9819 92.4924 80.3903 94.9803C81.3018 98.0295 81.4354 97.0626 80.7832 99.6307C77.3728 101.912 76.3277 100.605 74.5518 102.811C74.591 112.346 75.2587 140.155 74.19 148.33L73.3414 148.085C74.2608 133.809 73.7107 115.427 73.5299 100.874L6.60213 101.061L6.73555 87.2998Z" fill="#333944"/>
<path d="M113.834 120.647C113.96 118.895 114.093 117.496 114.353 115.759C116.608 112.944 115.971 116.368 119.633 114.312C121.496 111.055 121.04 112.343 121.103 108.581C122.776 107.309 124.875 107.715 127.138 107.777L127.562 107.957C127.405 110.967 127.885 111.825 126.344 113.91C122.596 113.898 123.437 113.327 121.08 115.339C120.844 117.247 120.749 118.711 120.679 120.632C117.284 123.051 116.679 119.975 114.369 122.805L114.298 127.202C111.163 130.008 109.945 126.476 107.304 129.465C107.32 132.034 107.807 132.91 106.534 134.626C104.703 134.669 103.202 134.731 101.387 134.904C99.4854 138.311 102.11 138.429 99.7525 141.305C98.3616 141.355 95.1398 141.377 93.9296 141.55C90.2442 141.747 84.3423 142.412 81.3012 140.826C79.6903 138.544 80.0282 139.643 80.2325 136.578C83.3758 131.895 94.2672 136.646 100.562 133.995C101.599 131.663 101.449 132.682 101.104 130.127C94.5422 124.344 81.9928 131.674 78.7945 125.135C79.1874 123.173 79.3367 122.922 80.4133 121.222C85.2932 121.324 110.895 122.183 113.834 120.647Z" fill="#333944"/>
<path d="M80.4133 121.222C80.6647 119.267 80.8856 117.309 81.0742 115.346C84.1939 114.411 107.54 114.613 112.153 114.784C113.788 116.931 113.41 117.68 113.834 120.647C110.895 122.183 85.2932 121.324 80.4133 121.222Z" fill="#4F5660"/>
<path d="M127.138 107.777C128.615 103.009 125.857 101.703 132.23 101.005C134.532 98.6842 134.603 97.0139 136.072 94.026C138.689 93.0081 144.489 93.8988 147.585 94.1668C145.628 94.3492 142.689 94.2934 141.377 95.5181C141.55 98.9414 141.833 97.5744 140.183 100.685C135.869 101.274 135.892 100.4 133.935 102.909C133.92 104.309 133.928 105.473 133.99 106.872C132.081 108.254 130.046 107.936 127.562 107.957L127.138 107.777Z" fill="#333944"/>
<path d="M154.367 94.1881C157.211 94.0198 159.074 94.3908 161.187 93.0301C161.965 88.8302 160.653 83.9016 161.824 81.339C164.464 80.4987 163.333 80.6025 166.311 81.2864C168.503 83.5117 167.945 84.4007 167.914 88.0803L167.765 100.953C163.545 100.936 158.539 101.035 154.382 100.885L154.367 94.1881Z" fill="#000006"/>
<path d="M147.993 74.0617L153.887 74.4201L154.319 74.7172L154.516 80.5514L154.366 81.0293C154.421 84.1508 154.971 84.8527 153.533 87.1425C151.27 87.7855 149.848 87.6142 147.546 87.5356C147.664 85.3346 147.954 83.9629 147.074 81.9561C145.023 81.0317 144.049 80.9303 141.872 80.5569L145.88 80.2598C147.593 78.7372 147.113 77.9527 147.428 75.0616L147.2 74.0986L147.993 74.0617Z" fill="#7F8B97"/>
<path d="M147.993 74.0617L153.887 74.4201L154.319 74.7172L154.516 80.5514L154.366 81.0293L149.511 80.5498C147.468 78.5603 148.041 78.488 147.428 75.0616L147.2 74.0986L147.993 74.0617Z" fill="#424753"/>
<path d="M93.9296 14.2911C97.23 13.9185 97.4341 13.3555 99.9958 14.566C101.127 16.8189 100.593 18.2937 100.208 20.8445L93.961 20.5678L93.9296 14.2911Z" fill="#000006"/>
<path d="M154.319 74.7172C157.792 74.1379 157.117 73.7488 160.056 74.8964C161.675 77.5227 161.439 76.3789 161.156 79.204C158.909 81.7886 158.028 81.3044 154.516 80.5514L154.319 74.7172Z" fill="#000006"/>
<path d="M86.8809 8.73206C88.5153 6.92805 87.8559 7.49012 90.9127 7.10888C93.5688 8.35793 92.6887 7.58362 94.2682 10.0071C93.9538 12.4525 94.4017 11.5698 92.5001 13.2873C90.3548 13.6772 89.5762 13.6473 87.3759 13.6402L86.928 13.6434L86.8809 8.73206Z" fill="#000006"/>
<path d="M99.9175 24.6168C101.293 21.0497 100.374 21.893 103.344 20.3279C106.204 20.7901 105.175 20.2565 107.21 22.3568C107.776 24.7936 107.862 23.7639 106.652 26.269C104.837 27.5904 103.422 27.2312 101.096 27.1385L99.9175 24.6168Z" fill="#000006"/>
<path d="M114.031 33.8758C117.685 34.1447 118.369 33.5244 120.506 35.4809C120.64 37.1411 120.766 38.802 120.868 40.4646C117.567 40.4276 116.97 40.9685 114.597 39.4702C114 37.1977 114.054 36.1594 114.031 33.8758Z" fill="#000006"/>
<path d="M147.993 74.0617C148.064 69.9906 147.396 70.5033 149.518 67.9942C152.158 67.209 151.074 67.1044 153.581 68.4438C154.814 71.4089 154.374 70.8498 153.887 74.4201L147.993 74.0617Z" fill="#000006"/>
</svg>
