<svg width="142" height="118" viewBox="0 0 142 118" fill="none" xmlns="http://www.w3.org/2000/svg">
<path d="M18.0223 23.4854C20.5729 23.561 21.3841 23.1712 23.3435 24.3497C23.8866 26.3532 23.7147 27.1446 23.5154 29.1832C35.3472 29.2994 47.1791 29.2863 59.0041 29.1447L59.3135 34.7551C62.4141 35.114 62.3385 34.6045 64.3254 36.3097C65.6591 39.3054 64.6828 43.3228 64.8135 46.9146C70.3685 46.8836 82.5648 46.5082 87.5767 47.1978C88.6423 48.8253 88.436 50.4713 88.4841 52.4906C89.866 52.5394 92.6022 52.5477 93.8603 52.7072L93.9428 64.3874L88.2573 64.6872C88.3467 67.7475 87.8585 67.6891 89.3297 69.8288C91.9697 71.2685 96.5966 70.2227 99.986 70.3375L100.206 75.9363C103.32 75.9858 103.754 75.4729 105.94 76.9216L106.476 79.2833L106.194 82.05L111.715 82.0102L111.673 87.8592C117.558 87.7801 135.963 87.2583 141.188 88.1287C141.188 91.1491 141.394 97.1295 140.72 99.8296L138.754 99.503C136.004 99.976 136.76 99.4425 135.461 101.208L135.337 104.936C133.316 105.835 131.797 105.712 129.617 105.758L129.438 111.598L125.41 111.385L123.863 111.755C123.567 114.276 123.89 115.141 122.543 116.951C111.66 117.972 94.0185 117.054 82.4823 117.236C82.3723 115.036 82.5235 114.08 81.3823 112.193C79.0104 110.723 74.0397 111.452 70.7466 111.451C68.7528 111.57 67.6735 111.73 65.6866 111.235C64.3735 109.352 64.7654 108.907 64.5935 106.321L64.1535 105.822C60.2622 104.981 57.9866 106.382 54.4322 105.159C52.6654 103.129 53.2291 103.162 53.0023 99.846C48.7535 99.9643 45.7078 100.059 41.4385 99.7072L41.3904 93.8258L35.5466 93.6388L35.1685 89.4908C33.5047 87.7733 32.611 88.2449 29.6685 87.9273L29.751 82.0514C27.0697 82.0906 26.0453 82.4151 24.086 81.0978C24.0722 79.7612 24.031 78.7278 23.9279 77.3939C20.2085 73.6529 17.1285 77.3086 13.141 75.8462C11.5185 73.4769 12.041 73.8007 11.9653 70.4351C9.60034 70.4152 8.91976 70.3582 6.59601 69.9663C5.76413 66.7719 5.90849 51.1932 6.14912 47.4914C7.72349 46.5275 9.68286 46.8472 11.6422 46.8967C12.4054 44.6607 12.426 31.7601 11.491 29.1605L11.9448 29.0285C13.6017 29.0319 16.5167 29.1261 18.0567 28.9253L18.0223 23.4854Z" fill="#6A953F"/>
<path d="M58.7773 78.91L59.2036 78.7202L59.3617 81.883C60.6954 81.8527 63.5348 81.698 64.731 81.7832L70.506 82.0817L71.063 81.9393L76.1367 82.0823C76.4942 84.3224 76.6385 85.2465 76.6042 87.5931C78.7285 87.7547 81.5748 87.8867 83.6236 88.1707L88.1336 87.6632C90.1754 87.3414 92.6642 87.5601 94.7679 87.6461C97.4561 89.3574 102.076 88.502 104.695 86.6573C105.754 84.2873 105.555 85.3352 105.17 82.4997L103.912 82.2893L106.476 79.2833L106.194 82.05L111.715 82.0102L111.673 87.8592C117.558 87.7801 135.963 87.2583 141.188 88.1287C141.188 91.1491 141.394 97.1295 140.72 99.8296L138.754 99.503C136.004 99.976 136.76 99.4425 135.461 101.208L135.337 104.936C133.316 105.835 131.797 105.712 129.617 105.758L129.438 111.598L125.41 111.385L123.863 111.755C123.567 114.276 123.89 115.141 122.543 116.951C111.66 117.972 94.0185 117.054 82.4823 117.236C82.3723 115.036 82.5235 114.08 81.3823 112.193C79.0104 110.723 74.0397 111.452 70.7466 111.451C68.7528 111.57 67.6735 111.73 65.6866 111.235C64.3735 109.352 64.7654 108.907 64.5935 106.321L64.1535 105.822C60.2622 104.981 57.9866 106.382 54.4322 105.159C52.6654 103.129 53.2291 103.162 53.0023 99.846L58.8598 99.4528L58.901 93.9227L59.1967 93.8602L58.7567 88.2305C58.6192 85.4184 58.7567 81.7874 58.7773 78.91Z" fill="#557C37"/>
<path d="M58.7773 78.91L59.2036 78.7202L59.3617 81.883C60.6954 81.8527 63.5348 81.698 64.731 81.7832L70.506 82.0817L71.063 81.9393L76.1367 82.0823C76.4942 84.3224 76.6385 85.2465 76.6042 87.5931C78.7285 87.7547 81.5748 87.8867 83.6236 88.1707L82.668 93.766C81.4305 95.5303 81.7673 94.7128 81.6229 97.1123C83.5204 99.3661 83.8642 99.1681 87.1367 99.6473L88.6011 99.8763C88.4705 102.76 88.9311 103.089 87.5423 105.108C85.4523 105.764 84.091 105.504 81.9185 105.361L77.0373 105.441L76.776 110.708C75.1467 110.888 72.2522 111.116 70.7466 111.451C68.7528 111.57 67.6735 111.73 65.6866 111.235C64.3735 109.352 64.7654 108.907 64.5935 106.321L64.1535 105.822C60.2622 104.981 57.9866 106.382 54.4322 105.159C52.6654 103.129 53.2291 103.162 53.0023 99.846L58.8598 99.4528L58.901 93.9227L59.1967 93.8602L58.7567 88.2305C58.6192 85.4184 58.7567 81.7874 58.7773 78.91Z" fill="#385F2A"/>
<path d="M58.7773 78.91L59.2036 78.7202L59.3617 81.883C60.6954 81.8527 63.5348 81.698 64.731 81.7832L70.506 82.0817L71.063 81.9393L76.1367 82.0823C76.4942 84.3224 76.6385 85.2465 76.6042 87.5931C76.5629 90.6768 77.1129 91.418 75.6211 93.4291C73.7992 93.6684 72.8435 93.7543 71.0148 93.7495C71.1591 91.9563 70.9667 89.8593 70.8635 88.038L64.841 88.3501L58.7567 88.2305C58.6192 85.4184 58.7567 81.7874 58.7773 78.91Z" fill="#557C37"/>
<path d="M59.3617 81.883C60.6954 81.8527 63.5348 81.698 64.731 81.7832L64.8685 87.4869C62.751 87.8293 62.2011 88.0177 60.1661 87.4099C58.8461 85.1073 59.3273 84.9556 59.3617 81.883Z" fill="#385F2A"/>
<path d="M71.063 81.9393L76.1367 82.0823C76.4942 84.3224 76.6385 85.2465 76.6042 87.5931C74.7204 87.712 74.0053 87.6496 72.1285 87.4344C70.6435 85.5931 71.1455 84.7879 71.063 81.9393Z" fill="#2B5121"/>
<path d="M64.731 81.7832L70.506 82.0817C70.3754 84.8202 70.8222 85.2959 69.4129 87.1998C67.6254 87.4205 66.6629 87.4993 64.8685 87.4869L64.731 81.7832Z" fill="#648D3F"/>
<path d="M76.6042 87.5931C78.7285 87.7547 81.5748 87.8867 83.6236 88.1707L82.668 93.766C81.4305 95.5303 81.7673 94.7128 81.6229 97.1123C83.5204 99.3661 83.8642 99.1681 87.1367 99.6473C85.5555 99.7676 82.9016 99.7197 81.231 99.7376C78.9003 97.4611 75.4423 100.098 71.9154 98.9283C70.4991 96.8904 71.0079 96.7513 71.0148 93.7495C72.8435 93.7543 73.7992 93.6684 75.6211 93.4291C77.1129 91.418 76.5629 90.6768 76.6042 87.5931Z" fill="#2B5121"/>
<path d="M70.7879 105.545L77.0373 105.441L76.776 110.708C75.1467 110.888 72.2522 111.116 70.7466 111.451C68.7528 111.57 67.6735 111.73 65.6866 111.235C64.3735 109.352 64.7654 108.907 64.5935 106.321C66.106 105.828 69.0898 105.689 70.7879 105.545Z" fill="#14191C"/>
<path d="M58.8598 99.4528C61.5205 99.4947 62.2973 99.0437 64.2085 100.33C64.8066 102.468 64.4629 103.629 64.1535 105.822C60.2622 104.981 57.9866 106.382 54.4322 105.159C52.6654 103.129 53.2291 103.162 53.0023 99.846L58.8598 99.4528Z" fill="#141C1B"/>
<path d="M81.231 99.7376C82.9016 99.7197 85.5555 99.7676 87.1367 99.6473L88.6011 99.8763C88.4705 102.76 88.9311 103.089 87.5423 105.108C85.4523 105.764 84.091 105.504 81.9185 105.361C80.4885 105.1 79.1273 104.803 77.711 104.493C76.4048 102.479 76.8654 102.659 77.0373 99.7609L81.231 99.7376Z" fill="#7BA44B"/>
<path d="M70.7879 105.545C70.6848 103.534 70.5473 102.684 71.1592 100.706C73.5448 99.2115 73.7236 99.7479 77.0373 99.7609C76.8654 102.659 76.4048 102.479 77.711 104.493C79.1273 104.803 80.4885 105.1 81.9185 105.361L77.0373 105.441L70.7879 105.545Z" fill="#648D3F"/>
<path d="M58.7567 88.2305L64.841 88.3501L64.9372 93.4696L59.1967 93.8602L58.7567 88.2305Z" fill="#648D3F"/>
<path d="M64.841 88.3501L70.8635 88.038C70.4442 90.837 70.8772 91.5116 69.1722 93.0545L64.9372 93.4696L64.841 88.3501Z" fill="#203F1D"/>
<path d="M100.35 99.1885L105.273 99.1988L105.52 99.7605C105.844 102.337 105.988 102.969 105.514 105.561L111.646 105.429L119.14 105.484L123.499 105.448L123.492 110.932L125.41 111.385L123.863 111.755C123.567 114.276 123.89 115.141 122.543 116.951C111.66 117.972 94.0185 117.054 82.4823 117.236C82.3723 115.036 82.5235 114.08 81.3823 112.193C79.0104 110.723 74.0397 111.452 70.7466 111.451C72.2522 111.116 75.1467 110.888 76.776 110.708L77.0373 105.441L81.9185 105.361C84.091 105.504 85.4523 105.764 87.5423 105.108C88.9311 103.089 88.4705 102.76 88.6011 99.8763C92.513 99.5559 96.4316 99.3274 100.35 99.1885Z" fill="#385F2A"/>
<path d="M101.389 111.719C108.222 111.578 117.228 111.143 123.863 111.755C123.567 114.276 123.89 115.141 122.543 116.951C111.66 117.972 94.0185 117.054 82.4823 117.236L82.9498 112.831C88.436 112.187 97.5248 114.926 101.389 111.719Z" fill="#14191C"/>
<path d="M111.646 105.429L119.14 105.484L123.499 105.448L123.492 110.932L119.064 111.003C117.304 110.803 113.743 110.879 111.825 110.866C111.77 109.52 111.612 108.469 111.419 107.134C109.336 105.585 108.552 106.133 105.383 106.051L105.514 105.561L111.646 105.429Z" fill="#648D3F"/>
<path d="M119.14 105.484L123.499 105.448L123.492 110.932L119.064 111.003C118.789 108.82 118.954 107.628 119.14 105.484Z" fill="#7BA44B"/>
<path d="M105.383 106.051C108.552 106.133 109.336 105.585 111.419 107.134C111.612 108.469 111.77 109.52 111.825 110.866C107.755 111.08 101.842 111.969 99.0991 108.326L99.8966 106.83C101.402 105.813 103.444 106.071 105.383 106.051Z" fill="#84AD4F"/>
<path d="M82.9498 112.831C83.0941 111.898 82.9773 112.349 83.8641 111.486C88.876 110.82 96.3629 111.119 101.389 111.719C97.5248 114.926 88.436 112.187 82.9498 112.831Z" fill="#141C1B"/>
<path d="M105.514 105.561C102.035 105.52 101.533 105.765 99.986 102.772L100.522 101.19C102.702 99.4137 102.207 99.9503 105.52 99.7605C105.844 102.337 105.988 102.969 105.514 105.561Z" fill="#203F1D"/>
<path d="M77.0373 105.441L81.9185 105.361C82.0492 107.875 82.5647 108.718 81.4097 110.475C79.5604 110.693 78.6392 110.745 76.776 110.708L77.0373 105.441Z" fill="#2B5121"/>
<path d="M141.188 88.1287C141.188 91.1491 141.394 97.1295 140.72 99.8296L138.754 99.503C136.004 99.976 136.76 99.4425 135.461 101.208L135.337 104.936C133.316 105.835 131.797 105.712 129.617 105.758L129.438 111.598L125.41 111.385L123.492 110.932L123.499 105.448L128.937 105.433L128.62 101.153C127.06 99.5134 126.737 100.008 123.925 99.7561L124.172 93.8293C120.872 93.9002 114.259 94.4612 111.804 92.7135C111.653 90.8289 111.467 90.3139 112.148 88.6211C120.769 87.4598 131.769 88.7888 141.188 88.1287Z" fill="#243D23"/>
<path d="M124.172 93.8293C127.204 93.6815 131.865 93.0553 134.389 94.3658C135.564 96.3047 135.186 95.8681 134.959 98.5475C133.845 99.6139 133.928 99.5871 132.415 99.8133L134.389 100.395C135.303 102.181 135.207 102.972 135.337 104.936C133.316 105.835 131.797 105.712 129.617 105.758L129.438 111.598L125.41 111.385L123.492 110.932L123.499 105.448L128.937 105.433L128.62 101.153C127.06 99.5134 126.737 100.008 123.925 99.7561L124.172 93.8293Z" fill="#7BA44B"/>
<path d="M123.499 105.448L128.937 105.433L129.438 111.598L125.41 111.385L123.492 110.932L123.499 105.448Z" fill="#14191C"/>
<path d="M129.617 105.758C129.466 102.642 128.93 102.344 130.257 100.098L132.415 99.8133L134.389 100.395C135.303 102.181 135.207 102.972 135.337 104.936C133.316 105.835 131.797 105.712 129.617 105.758Z" fill="#14191C"/>
<path d="M138.754 99.503L136.362 98.6253L135.681 96.4417C136.314 94.3439 135.818 95.0542 137.523 93.7402L139.146 94.0545C140.968 96.5049 140.411 96.3024 140.72 99.8296L138.754 99.503Z" fill="#182D19"/>
<path d="M82.668 93.766L87.9341 93.8178C91.3854 93.736 96.6586 93.0663 99.3467 94.5102C100.543 96.1472 100.33 97.1292 100.35 99.1885C96.4316 99.3274 92.513 99.5559 88.6011 99.8763L87.1367 99.6473C83.8642 99.1681 83.5204 99.3661 81.6229 97.1123C81.7673 94.7128 81.4305 95.5303 82.668 93.766Z" fill="#203F1D"/>
<path d="M112.244 99.8887C115.716 99.1406 120.288 99.5842 123.925 99.7561C126.737 100.008 127.06 99.5134 128.62 101.153L128.937 105.433L123.499 105.448L119.14 105.484L111.646 105.429L111.722 99.7849L112.244 99.8887Z" fill="#84AD4F"/>
<path d="M112.244 99.8887C115.606 100.251 115.97 99.768 118.384 101.474C118.94 103.206 119.222 103.707 119.14 105.484L111.646 105.429L111.722 99.7849L112.244 99.8887Z" fill="#7BA44B"/>
<path d="M105.273 99.1988C107.631 99.1321 109.632 98.8244 111.722 99.7849L111.646 105.429L105.514 105.561C105.988 102.969 105.844 102.337 105.52 99.7605L105.273 99.1988Z" fill="#466E2F"/>
<path d="M106.194 82.05L111.715 82.0102L111.673 87.8592C109.652 88.0057 109.137 88.0332 107.143 87.7094C105.603 85.5539 106.167 85.307 106.194 82.05Z" fill="#203F1D"/>
<path d="M83.6236 88.1707L88.1336 87.6632L87.9341 93.8178L82.668 93.766L83.6236 88.1707Z" fill="#385F2A"/>
<path d="M18.0223 23.4854C20.5729 23.561 21.3841 23.1712 23.3435 24.3497C23.8866 26.3532 23.7147 27.1446 23.5154 29.1832L23.5635 29.5895L23.8591 35.1924L23.6804 40.8957L24.1891 46.2194L24.4779 46.8754L29.366 46.9538C29.6548 49.8037 29.2079 50.5689 30.8304 52.3187L34.9554 52.745L35.2923 53.0723L35.4228 58.1609C35.4641 59.723 35.4435 62.8727 35.7666 64.265L35.3129 67.6615C35.361 72.1121 35.5123 76.7834 35.1548 81.2044L35.0516 81.8671L29.751 82.0514C27.0697 82.0906 26.0453 82.4151 24.086 81.0978C24.0722 79.7612 24.031 78.7278 23.9279 77.3939C20.2085 73.6529 17.1285 77.3086 13.141 75.8462C11.5185 73.4769 12.041 73.8007 11.9653 70.4351C9.60034 70.4152 8.91976 70.3582 6.59601 69.9663C5.76413 66.7719 5.90849 51.1932 6.14912 47.4914C7.72349 46.5275 9.68286 46.8472 11.6422 46.8967C12.4054 44.6607 12.426 31.7601 11.491 29.1605L11.9448 29.0285C13.6017 29.0319 16.5167 29.1261 18.0567 28.9253L18.0223 23.4854Z" fill="#466E2F"/>
<path d="M23.584 64.8268C26.4715 64.7587 27.4822 64.2107 29.524 65.5639L29.8815 67.6788C31.1465 68.0136 33.8829 67.7386 35.3129 67.6615C35.361 72.1121 35.5123 76.7834 35.1548 81.2044L35.0516 81.8671L29.751 82.0514C27.0697 82.0906 26.0453 82.4151 24.086 81.0978C24.0722 79.7612 24.031 78.7278 23.9279 77.3939C20.2085 73.6529 17.1285 77.3086 13.141 75.8462C11.5185 73.4769 12.041 73.8007 11.9653 70.4351C14.021 70.5328 15.1003 70.6806 17.1353 70.1512C18.5653 68.0054 18.0565 67.685 18.084 64.6191L23.584 64.8268Z" fill="#141C1B"/>
<path d="M35.3129 67.6615C35.361 72.1121 35.5123 76.7834 35.1548 81.2044L35.0516 81.8671L29.751 82.0514L29.7579 70.4827L29.8815 67.6788C31.1465 68.0136 33.8829 67.7386 35.3129 67.6615Z" fill="#648D3F"/>
<path d="M23.584 64.8268C26.4715 64.7587 27.4822 64.2107 29.524 65.5639L29.8815 67.6788L29.7579 70.4827C27.936 70.3988 26.5335 70.2944 24.7185 70.0648C23.2472 68.0915 23.7284 67.775 23.584 64.8268Z" fill="#486E37"/>
<path d="M12.6323 46.8392L17.4379 47.1767C17.3966 52.5678 17.2453 59.305 18.084 64.6191C18.0565 67.685 18.5653 68.0054 17.1353 70.1512C15.1003 70.6806 14.021 70.5328 11.9653 70.4351C9.60034 70.4152 8.91976 70.3582 6.59601 69.9663C5.76413 66.7719 5.90849 51.1932 6.14912 47.4914C7.72349 46.5275 9.68286 46.8472 11.6422 46.8967L12.0891 47.1596L12.6323 46.8392Z" fill="#141C1B"/>
<path d="M12.6323 46.8392L17.4379 47.1767C17.3966 52.5678 17.2453 59.305 18.084 64.6191C18.0565 67.685 18.5653 68.0054 17.1353 70.1512C15.1003 70.6806 14.021 70.5328 11.9653 70.4351L12.0891 47.1596L12.6323 46.8392Z" fill="#557C37"/>
<path d="M18.0223 23.4854C20.5729 23.561 21.3841 23.1712 23.3435 24.3497C23.8866 26.3532 23.7147 27.1446 23.5154 29.1832L23.5635 29.5895L23.8591 35.1924L17.8915 34.8239L18.0978 37.5336L17.6372 37.2929C17.6234 40.1476 17.7335 44.4526 17.4379 47.1767L12.6323 46.8392L12.0891 47.1596L11.6422 46.8967C12.4054 44.6607 12.426 31.7601 11.491 29.1605L11.9448 29.0285C13.6017 29.0319 16.5167 29.1261 18.0567 28.9253L18.0223 23.4854Z" fill="#203F1D"/>
<path d="M12.6323 46.8392C12.8454 43.1573 12.0617 39.4356 13.3335 35.8995C15.0867 34.8049 14.2548 35.0099 16.7092 35.5351L17.6372 37.2929C17.6234 40.1476 17.7335 44.4526 17.4379 47.1767L12.6323 46.8392Z" fill="#14191C"/>
<path d="M17.8915 34.8239C18.0359 33.2837 18.2217 32.0016 18.4692 30.476C20.4698 29.1002 20.6347 29.5902 23.5635 29.5895L23.8591 35.1924L17.8915 34.8239Z" fill="#648D3F"/>
<path d="M18.0223 23.4854C20.5729 23.561 21.3841 23.1712 23.3435 24.3497C23.8866 26.3532 23.7147 27.1446 23.5154 29.1832C22.106 28.9473 19.5692 28.9638 18.0567 28.9253L18.0223 23.4854Z" fill="#182D19"/>
<path d="M24.4779 46.8754L29.366 46.9538C29.6548 49.8037 29.2079 50.5689 30.8304 52.3187L34.9554 52.745L35.2923 53.0723L35.4228 58.1609C35.4641 59.723 35.4435 62.8727 35.7666 64.265L35.3129 67.6615C33.8829 67.7386 31.1465 68.0136 29.8815 67.6788L29.524 65.5639C27.4822 64.2107 26.4715 64.7587 23.584 64.8268C23.5634 64.0643 23.5498 63.3019 23.5429 62.5387C23.5292 55.8089 26.1416 60.7085 29.8403 56.9764C30.0053 54.7666 29.9573 55.4651 28.6029 53.177L23.7079 52.673L23.8522 47.3623L24.4779 46.8754Z" fill="#6A953F"/>
<path d="M24.4779 46.8754L29.366 46.9538C29.0979 49.8112 29.5654 50.624 27.936 52.3134L23.7079 52.673L23.8522 47.3623L24.4779 46.8754Z" fill="#648D3F"/>
<path d="M17.8915 34.8239L23.8591 35.1924L23.6804 40.8957L24.1891 46.2194L24.4779 46.8754L23.8522 47.3623C21.0472 47.0274 19.6929 47.377 18.2079 44.844C18.3385 42.1928 18.2353 40.1848 18.0978 37.5336L17.8915 34.8239Z" fill="#486E37"/>
<path d="M35.4228 58.1609L40.9435 58.4575L41.4385 58.7469L47.2135 58.4699C50.1697 58.6865 50.8985 58.243 52.961 59.7081C53.3185 61.6883 53.4216 62.677 53.5041 64.6874L53.2291 65.1612L53.0503 70.1728L58.791 70.4766L58.4678 75.8726L58.7773 78.91C58.7567 81.7874 58.6192 85.4184 58.7567 88.2305L59.1967 93.8602L58.901 93.9227L58.8598 99.4528L53.0023 99.846C48.7535 99.9643 45.7078 100.059 41.4385 99.7072L41.3904 93.8258L35.5466 93.6388L35.1685 89.4908C33.5047 87.7733 32.611 88.2449 29.6685 87.9273L29.751 82.0514L35.0516 81.8671L35.1548 81.2044C35.5123 76.7834 35.361 72.1121 35.3129 67.6615L35.7666 64.265C35.4435 62.8727 35.4641 59.723 35.4228 58.1609Z" fill="#466E2F"/>
<path d="M35.4228 58.1609L40.9435 58.4575L41.4385 58.7469L47.2135 58.4699C50.1697 58.6865 50.8985 58.243 52.961 59.7081C53.3185 61.6883 53.4216 62.677 53.5041 64.6874L53.2291 65.1612C51.6478 64.7493 48.7398 64.9109 47.0004 64.9253L42.7516 64.587C40.0429 67.6322 42.0504 75.1706 41.1498 80.7439C38.9154 81.1516 37.396 81.6011 35.1548 81.2044C35.5123 76.7834 35.361 72.1121 35.3129 67.6615L35.7666 64.265C35.4435 62.8727 35.4641 59.723 35.4228 58.1609Z" fill="#466E2F"/>
<path d="M35.4228 58.1609L40.9435 58.4575C40.7441 61.3659 41.2598 62.3862 39.5891 63.9112L35.7666 64.265C35.4435 62.8727 35.4641 59.723 35.4228 58.1609Z" fill="#557C37"/>
<path d="M41.4385 58.7469L47.2135 58.4699C47.076 61.2146 47.5573 62.263 46.0654 63.9296C44.9723 64.0534 43.7416 64.2204 42.6553 64.2961C40.7303 62.6693 41.356 61.0908 41.4385 58.7469Z" fill="#203F1D"/>
<path d="M53.8548 88.1777L58.7567 88.2305L59.1967 93.8602L58.901 93.9227L58.8598 99.4528L53.0023 99.846C48.7535 99.9643 45.7078 100.059 41.4385 99.7072L41.3904 93.8258L46.5947 93.7352L48.1348 94.1003L53.2291 93.4815L53.8548 88.1777Z" fill="#557C37"/>
<path d="M48.1348 94.1003L53.2291 93.4815L53.2153 97.9829L52.7548 99.0623C48.8498 99.6062 44.6491 99.1984 41.4385 99.7072L41.3904 93.8258L46.5947 93.7352L48.1348 94.1003Z" fill="#141C1B"/>
<path d="M53.8548 88.1777L58.7567 88.2305L59.1967 93.8602L58.901 93.9227C55.7248 93.9392 55.8416 93.3894 54.0197 95.023L53.2153 97.9829L53.2291 93.4815L53.8548 88.1777Z" fill="#466E2F"/>
<path d="M42.7516 64.587L47.0004 64.9253L47.0073 70.394C47.076 73.4516 47.6604 79.3151 46.306 81.6424C44.106 82.548 44.6285 82.2516 42.0092 81.8796L41.1498 80.7439C42.0504 75.1706 40.0429 67.6322 42.7516 64.587Z" fill="#648D3F"/>
<path d="M58.4678 75.8726L58.7773 78.91C58.7567 81.7874 58.6192 85.4184 58.7567 88.2305L53.8548 88.1777L53.3599 87.7514C53.188 84.1803 53.2842 79.5915 53.2705 75.9427L58.4678 75.8726Z" fill="#7BA44B"/>
<path d="M47.0004 64.9253C48.7398 64.9109 51.6478 64.7493 53.2291 65.1612L53.0503 70.1728L58.791 70.4766L58.4678 75.8726L53.2705 75.9427L52.6516 70.3891L47.0073 70.394L47.0004 64.9253Z" fill="#203F1D"/>
<path d="M35.5466 93.6388L35.9454 89.4953C37.6779 87.5894 38.4066 88.1236 41.7135 87.6904L41.3904 93.8258L35.5466 93.6388Z" fill="#14191C"/>
<path d="M35.0516 81.8671C35.4229 84.9275 35.9316 84.8807 34.7216 87.1132C32.6523 87.8077 31.7791 87.7966 29.6685 87.9273L29.751 82.0514L35.0516 81.8671Z" fill="#14191C"/>
<path d="M53.3599 87.7514L53.8548 88.1777L53.2291 93.4815L48.1348 94.1003C48.1623 92.0507 48.1897 91.1047 48.5128 89.0386C50.3278 87.6641 50.8092 88.0306 53.3599 87.7514Z" fill="#557C37"/>
<path d="M41.7135 87.6904C43.7416 87.7516 44.1747 87.6739 45.6804 88.9734C46.6841 90.9653 46.5947 91.4793 46.5947 93.7352L41.3904 93.8258L41.7135 87.6904Z" fill="#557C37"/>
<path d="M59.3135 34.7551C62.4141 35.114 62.3385 34.6045 64.3254 36.3097C65.6591 39.3054 64.6828 43.3228 64.8135 46.9146C70.3685 46.8836 82.5648 46.5082 87.5767 47.1978C88.6423 48.8253 88.436 50.4713 88.4841 52.4906C82.6679 52.5642 58.736 53.2479 54.1916 52.2674C53.2085 50.7796 53.4697 49.8906 53.3391 47.92C55.5391 45.845 55.6354 48.0328 58.7635 46.5415C59.6916 44.2382 59.3341 37.6037 59.3135 34.7551Z" fill="#203F1D"/>
<path d="M23.5154 29.1832C35.3472 29.2994 47.1791 29.2863 59.0041 29.1447C58.7704 31.1936 58.8942 33.8403 57.7392 35.0353C49.7779 35.6761 37.891 35.2643 29.5585 35.1825L23.8591 35.1924L23.5635 29.5895L23.5154 29.1832Z" fill="#243D23"/>
<path d="M53.5041 64.6874C56.0616 64.719 62.2422 65.098 64.2566 64.2083C65.7622 61.0497 63.5485 60.8544 65.5491 58.6686C68.5878 58.4094 74.2666 57.7342 76.7485 59.3301C77.7729 61.2367 77.6903 60.468 77.5047 62.4495C75.7447 64.4489 71.1247 64.922 70.9941 65.1379C67.8591 70.4877 73.2079 70.7717 63.6035 70.2478L58.791 70.4766L53.0503 70.1728L53.2291 65.1612L53.5041 64.6874Z" fill="#466E2F"/>
<path d="M82.2417 76.1867C82.3448 72.8878 81.6642 67.7524 83.1835 65.1885C85.1017 63.9268 85.4867 64.4624 88.2573 64.6872C88.3467 67.7475 87.8585 67.6891 89.3297 69.8288C91.9697 71.2685 96.5966 70.2227 99.986 70.3375L100.206 75.9363C95.9023 75.9054 86.0504 75.6077 82.2417 76.1867Z" fill="#203F1D"/>
<path d="M76.5148 81.8792C81.781 82.0181 90.7942 80.8568 94.1767 82.9896C95.0292 84.5056 94.7954 85.8584 94.7679 87.6461C92.6642 87.5601 90.1754 87.3414 88.1336 87.6632L83.6236 88.1707C81.5748 87.8867 78.7285 87.7547 76.6042 87.5931C76.6385 85.2465 76.4942 84.3224 76.1367 82.0823L76.5148 81.8792Z" fill="#466E2F"/>
<path d="M23.8591 35.1924L29.5585 35.1825L29.9642 40.9149L29.7167 41.6403C29.8473 44.4882 29.3798 44.3967 30.8716 46.1961C32.6798 46.3755 33.6079 46.4326 35.4229 46.3652C35.3473 47.8097 35.2235 51.5363 34.9554 52.745L30.8304 52.3187C29.2079 50.5689 29.6548 49.8037 29.366 46.9538L24.4779 46.8754L24.1891 46.2194L23.6804 40.8957L23.8591 35.1924Z" fill="#2B5121"/>
<path d="M23.8591 35.1924L29.5585 35.1825L29.9642 40.9149L29.7167 41.6403L29.1667 41.3997C27.2142 40.5712 25.8116 40.8208 23.6804 40.8957L23.8591 35.1924Z" fill="#466E2F"/>
<path d="M23.6804 40.8957C25.8116 40.8208 27.2142 40.5712 29.1667 41.3997C29.0085 44.1753 29.5036 44.4958 27.9361 46.0573L24.1891 46.2194L23.6804 40.8957Z" fill="#203F1D"/>
<path d="M58.791 70.4766L63.6035 70.2478C63.4866 72.9726 62.9642 73.6152 64.2498 75.4915C65.6523 75.6723 66.6561 75.7989 68.0723 75.8442L68.3886 76.307L70.4304 76.6466C71.606 78.3194 71.2142 79.801 71.063 81.9393L70.506 82.0817L64.731 81.7832C63.5348 81.698 60.6954 81.8527 59.3617 81.883L59.2036 78.7202L58.7773 78.91L58.4678 75.8726L58.791 70.4766Z" fill="#2B5121"/>
<path d="M58.791 70.4766L63.6035 70.2478C63.4866 72.9726 62.9642 73.6152 64.2498 75.4915C65.6523 75.6723 66.6561 75.7989 68.0723 75.8442L68.3886 76.307C65.6317 76.2705 61.4517 75.7755 59.5267 77.4614L59.2036 78.7202L58.7773 78.91L58.4678 75.8726L58.791 70.4766Z" fill="#557C37"/>
<path d="M29.9642 40.9149C34.7148 40.8242 43.9136 39.4364 46.8423 42.2106C47.1379 44.109 47.0967 44.6755 46.966 46.6007C42.8754 45.9503 39.5204 46.2105 35.4229 46.3652C33.6079 46.4326 32.6798 46.3755 30.8716 46.1961C29.3798 44.3967 29.8473 44.4882 29.7167 41.6403L29.9642 40.9149Z" fill="#466E2F"/>
<path d="M35.4229 46.3652C39.5204 46.2105 42.8754 45.9503 46.966 46.6007C43.4942 46.9713 42.7105 46.2143 41.0673 49.9821C39.8436 52.7846 41.2048 56.3386 43.6042 58.1551L47.2135 58.4699L41.4385 58.7469L40.9435 58.4575L35.4228 58.1609L35.2923 53.0723L34.9554 52.745C35.2235 51.5363 35.3473 47.8097 35.4229 46.3652Z" fill="#557C37"/>
<path d="M35.2923 53.0723C38.276 53.0338 38.5647 52.5252 40.6204 53.8913C41.0329 55.8447 40.9985 56.4505 40.9435 58.4575L35.4228 58.1609L35.2923 53.0723Z" fill="#2B5121"/>
<path d="M93.9428 64.3874C87.0197 64.2726 86.2429 59.6993 89.151 53.9499C89.7354 52.7818 92.5197 52.8564 93.8603 52.7072L93.9428 64.3874Z" fill="#203F1D"/>
<path d="M100.206 75.9363C103.32 75.9858 103.754 75.4729 105.94 76.9216L106.476 79.2833L103.912 82.2893C97.841 81.2105 101.519 80.9466 99.381 77.0805C95.5035 76.1062 87.8036 76.8701 82.8329 76.2623L82.2417 76.1867C86.0504 75.6077 95.9023 75.9054 100.206 75.9363Z" fill="#466E2F"/>
<path d="M68.0723 75.8442C70.6092 75.7569 73.8403 75.291 75.841 76.5857C76.9478 78.3128 76.611 79.7539 76.5148 81.8792L76.1367 82.0823L71.063 81.9393C71.2142 79.801 71.606 78.3194 70.4304 76.6466L68.3886 76.307L68.0723 75.8442Z" fill="#466E2F"/>
<path d="M6.29344 0C9.13969 0.1492 10.0816 -0.343788 11.8347 1.20184C11.9791 2.5632 12.1509 3.93693 12.2266 5.30241L12.4673 5.62832L17.7129 5.79746C18.1941 12.0852 17.7816 17.4844 18.0223 23.4854L18.0567 28.9253C16.5167 29.1261 13.6017 29.0319 11.9448 29.0285L11.491 29.1605L6.32096 29.435L5.88095 24.8544C4.26533 23.0001 3.84598 23.5412 0.662853 23.1177C-0.0108966 19.2756 -0.684657 9.64777 1.42597 6.33375C1.92097 5.55956 4.69849 5.54926 5.75037 5.43993L6.29344 0Z" fill="#466E2F"/>
<path d="M12.4673 5.62832L17.7129 5.79746C18.1941 12.0852 17.7816 17.4844 18.0223 23.4854L18.0567 28.9253C16.5167 29.1261 13.6017 29.0319 11.9448 29.0285L11.491 29.1605L6.32096 29.435L5.88095 24.8544C4.26533 23.0001 3.84598 23.5412 0.662853 23.1177C2.61535 22.921 4.42349 22.6282 6.36224 22.8751C8.40412 23.1171 9.22906 23.3075 11.2916 22.8379C12.5841 20.9286 12.0616 19.8602 11.9997 17.1209C12.0272 12.9894 12.0548 9.76534 12.4673 5.62832Z" fill="#243D23"/>
<path d="M17.7129 5.79746C18.1941 12.0852 17.7816 17.4844 18.0223 23.4854L18.0567 28.9253C16.5167 29.1261 13.6017 29.0319 11.9448 29.0285L12.378 24.8578C12.543 24.3462 12.9417 24.0595 13.3679 23.5975C15.1554 23.6704 15.3273 23.7096 17.0323 23.2462C17.7541 20.531 17.266 10.8124 17.6441 6.54613L17.7129 5.79746Z" fill="#648D3F"/>
<path d="M6.32096 29.435C6.52034 26.2811 6.12169 24.8627 9.00231 23.2793C10.8173 23.6073 10.8792 23.7054 12.378 24.8578L11.9448 29.0285L11.491 29.1605L6.32096 29.435Z" fill="#14191C"/>
<path d="M0.662853 23.1177C-0.0108966 19.2756 -0.684657 9.64777 1.42597 6.33375C1.92097 5.55956 4.69849 5.54926 5.75037 5.43993C5.79162 8.59513 5.70222 14.0866 6.15597 17.0191L6.36224 22.8751C4.42349 22.6282 2.61535 22.921 0.662853 23.1177Z" fill="#182D19"/>
<path d="M0.662853 23.1177L1.23344 18.6575C2.84906 16.8334 2.99347 17.3897 6.15597 17.0191L6.36224 22.8751C4.42349 22.6282 2.61535 22.921 0.662853 23.1177Z" fill="#141C1B"/>
<path d="M12.2266 5.30241L12.4673 5.62832C12.0548 9.76534 12.0272 12.9894 11.9997 17.1209C8.82346 17.1587 9.1467 17.6611 7.01545 16.1326C5.61983 13.3975 6.34169 9.08107 6.57544 5.86743C8.39732 5.74298 10.3978 5.4908 12.2266 5.30241Z" fill="#648D3F"/>
<path d="M6.29344 0C9.13969 0.1492 10.0816 -0.343788 11.8347 1.20184C11.9791 2.5632 12.1509 3.93693 12.2266 5.30241C10.3978 5.4908 8.39732 5.74298 6.57544 5.86743C6.72669 3.92852 6.46531 1.94922 6.29344 0Z" fill="#243D23"/>
<path d="M99.986 70.3375C99.9791 68.959 99.5872 66.383 100.625 65.5202C103.863 62.8126 108.593 63.0085 111.522 65.9286C111.756 67.7011 111.832 68.478 111.783 70.2623L115.702 69.8607L117.421 70.89C118.48 75.608 119.078 76.8979 117.002 81.127C114.85 82.5111 114.747 82.0198 111.715 82.0102L106.194 82.05L106.476 79.2833L105.94 76.9216C103.754 75.4729 103.32 75.9858 100.206 75.9363L99.986 70.3375Z" fill="#648D3F"/>
<path d="M99.986 70.3375C99.9791 68.959 99.5872 66.383 100.625 65.5202C103.863 62.8126 108.593 63.0085 111.522 65.9286C111.756 67.7011 111.832 68.478 111.783 70.2623C108.367 70.494 103.513 70.341 99.986 70.3375Z" fill="#243D23"/>
<path d="M111.783 70.2623L115.702 69.8607L117.421 70.89C118.48 75.608 119.078 76.8979 117.002 81.127C114.85 82.5111 114.747 82.0198 111.715 82.0102L111.797 77.6861L111.783 70.2623Z" fill="#243D23"/>
<path d="M111.783 70.2623L115.702 69.8607C113.468 73.931 115.187 77.5555 113.344 80.7361C112.017 79.8072 112.375 79.7062 111.797 77.6861L111.783 70.2623Z" fill="#203F1D"/>
</svg>
