<svg width="159" height="90" viewBox="0 0 159 90" fill="none" xmlns="http://www.w3.org/2000/svg">
<path d="M82.1605 18.2541C82.2636 15.0323 81.7618 15.1808 83.2949 12.8665C85.158 11.9692 84.3193 12.0393 86.4437 12.7166C88.4306 14.8947 87.7362 14.7229 88.1487 18.237C91.3043 18.2768 91.6549 17.733 93.7105 19.2648C93.9787 21.1666 94.0543 21.9972 94.0268 23.9155L99.6643 23.7924L100.063 19.7984C101.692 17.8877 101.741 18.4907 105.089 18.1771L105.446 17.8079C107.447 18.0609 108.842 18.2899 110.891 18.1813L111.51 20.7967L111.84 23.8694L111.826 29.7638L116.219 29.6346C117.086 30.4858 117.12 30.3338 117.581 31.3864L117.704 36.0233C120.035 36.2413 120.97 36.1182 123.225 35.8879L123.424 36.4201L123.631 41.8401C123.603 47.4698 123.424 53.8743 123.61 59.438L122.895 59.4862L117.587 59.4449C117.601 60.7678 117.711 63.9746 117.505 65.1255L117.993 65.1839L123.706 64.8904L124.098 65.0788L129.137 65.1427C129.027 68.2271 129.55 68.8528 128.024 70.868C126.264 71.1581 125.274 71.2613 123.486 71.3328C123.417 72.9609 123.397 75.443 123.184 76.9817C120.344 76.902 115.463 76.4674 112.995 77.4176C112.163 78.6539 112.28 78.9138 112.369 80.3796C109.303 84.4871 99.0868 82.9573 93.9787 82.8425C93.9993 85.4497 94.2743 86.7602 92.9474 88.6564C86.6224 89.2587 46.4174 89.5282 41.873 88.5017C40.6974 86.8103 41.0137 85.0358 41.0343 82.8741L41.0549 77.7188L39.8999 76.8889L39.1093 76.552C40.1818 74.7864 40.2093 73.2146 40.4911 71.1519L35.6786 71.1121L35.5136 70.7779L35.4999 66.953C36.9574 65.0038 36.6136 65.5731 39.4736 64.823L40.3605 64.9096C41.4537 62.9776 41.1031 59.8348 41.1374 57.3369L40.9862 53.7094L47.3524 52.4497C46.4311 51.1702 46.5824 49.408 47.7168 48.312C48.8511 47.216 50.618 47.1171 51.8624 48.0803L52.9968 41.653L58.5931 41.7349L58.868 47.7524L64.4299 47.6967C64.4024 43.5514 64.4368 40.1081 64.6705 35.9498L70.1912 36.0632C71.0231 31.8457 69.6205 28.9663 70.8649 25.6681C72.9962 23.8302 73.3193 24.3761 76.7018 24.0186C76.5368 21.9051 76.4474 21.3206 76.8599 19.2559C78.723 17.8732 79.438 18.3366 82.1605 18.2541Z" fill="#385F2A"/>
<path d="M82.1605 18.2541C82.2636 15.0323 81.7618 15.1808 83.2949 12.8665C85.158 11.9692 84.3193 12.0393 86.4437 12.7166C88.4306 14.8947 87.7362 14.7229 88.1487 18.237C91.3043 18.2768 91.6549 17.733 93.7105 19.2648C93.9787 21.1666 94.0543 21.9972 94.0268 23.9155L99.6643 23.7924L100.063 19.7984C101.692 17.8877 101.741 18.4907 105.089 18.1771L105.446 17.8079C107.447 18.0609 108.842 18.2899 110.891 18.1813L111.51 20.7967L111.84 23.8694L111.826 29.7638L116.219 29.6346C117.086 30.4858 117.12 30.3338 117.581 31.3864L117.704 36.0233C120.035 36.2413 120.97 36.1182 123.225 35.8879L123.424 36.4201L123.631 41.8401C123.603 47.4698 123.424 53.8743 123.61 59.438L122.895 59.4862L117.587 59.4449L111.84 59.3528L111.799 53.754L111.235 53.9204L111.125 59.4477L105.316 59.4071L100.159 59.3184L99.5612 59.5185L93.9718 59.4711L94.1575 53.2707C90.8987 53.5141 84.7662 53.8365 81.7549 52.7901C79.3624 52.3555 78.2212 51.6907 76.0899 53.3731L76.1724 52.7413C73.9587 51.4095 73.1612 50.3513 72.6937 47.8534L70.8512 46.371C70.6724 44.2362 70.638 41.5754 70.5555 39.3903L70.6312 36.2138L70.1912 36.0632C71.0231 31.8457 69.6205 28.9663 70.8649 25.6681C72.9962 23.8302 73.3193 24.3761 76.7018 24.0186C76.5368 21.9051 76.4474 21.3206 76.8599 19.2559C78.723 17.8732 79.438 18.3366 82.1605 18.2541Z" fill="#486E37"/>
<path d="M82.1605 18.2541C82.2636 15.0323 81.7618 15.1808 83.2949 12.8665C85.158 11.9692 84.3193 12.0393 86.4437 12.7166C88.4306 14.8947 87.7362 14.7229 88.1487 18.237C91.3043 18.2768 91.6549 17.733 93.7105 19.2648C93.9787 21.1666 94.0543 21.9972 94.0268 23.9155L93.9787 24.3555L93.91 30.0615L93.9856 41.9411L88.3549 41.8242L87.8393 41.7074L82.3324 41.6833L82.3393 47.2463L82.2225 47.927C82.0575 49.5359 81.8649 51.1805 81.7549 52.7901C79.3624 52.3555 78.2212 51.6907 76.0899 53.3731L76.1724 52.7413C73.9587 51.4095 73.1612 50.3513 72.6937 47.8534L70.8512 46.371C70.6724 44.2362 70.638 41.5754 70.5555 39.3903L70.6312 36.2138L70.1912 36.0632C71.0231 31.8457 69.6205 28.9663 70.8649 25.6681C72.9962 23.8302 73.3193 24.3761 76.7018 24.0186C76.5368 21.9051 76.4474 21.3206 76.8599 19.2559C78.723 17.8732 79.438 18.3366 82.1605 18.2541Z" fill="#6A953F"/>
<path d="M76.7018 24.0186C76.5368 21.9051 76.4474 21.3206 76.8599 19.2559C78.723 17.8732 79.438 18.3366 82.1605 18.2541L82.0231 23.765L81.9062 24.3054C82.133 26.9002 82.5868 27.277 81.5899 29.3789C79.5687 30.2136 78.5856 30.1476 76.4543 30.2363C76.3581 33.0821 76.8462 33.8439 75.3749 35.747C73.5393 36.0434 72.4944 36.1429 70.6312 36.2138L70.1912 36.0632C71.0231 31.8457 69.6205 28.9663 70.8649 25.6681C72.9962 23.8302 73.3193 24.3761 76.7018 24.0186Z" fill="#243D23"/>
<path d="M76.8256 24.3423L81.9062 24.3054C82.133 26.9002 82.5868 27.277 81.5899 29.3789C79.5687 30.2136 78.5856 30.1476 76.4543 30.2363C76.5025 28.4067 76.7019 26.2001 76.8256 24.3423Z" fill="#7BA44B"/>
<path d="M82.3324 41.6833L82.3393 47.2463L82.2225 47.927C82.0575 49.5359 81.8649 51.1805 81.7549 52.7901C79.3624 52.3555 78.2212 51.6907 76.0899 53.3731L76.1724 52.7413C73.9587 51.4095 73.1612 50.3513 72.6937 47.8534C74.2131 47.6066 74.165 47.5734 75.5262 46.8047C76.1037 44.8026 76.1656 43.7348 76.3581 41.712L82.3324 41.6833Z" fill="#466E2F"/>
<path d="M72.6937 47.8534C74.2131 47.6066 74.165 47.5734 75.5262 46.8047C76.1037 44.8026 76.1656 43.7348 76.3581 41.712C76.6193 44.8569 77.0112 49.7394 76.1724 52.7413C73.9587 51.4095 73.1612 50.3513 72.6937 47.8534Z" fill="#648D3F"/>
<path d="M88.1487 18.237C91.3043 18.2768 91.6549 17.733 93.7105 19.2648C93.9787 21.1666 94.0543 21.9972 94.0268 23.9155L93.9787 24.3555L89.4206 24.0812C87.8943 22.5692 88.3137 21.9339 88.0112 19.3267L87.9149 18.4274L88.1487 18.237Z" fill="#203F1D"/>
<path d="M82.1605 18.2541C82.2636 15.0323 81.7618 15.1808 83.2949 12.8665C85.158 11.9692 84.3193 12.0393 86.4437 12.7166C88.4306 14.8947 87.7362 14.7229 88.1487 18.237L87.9149 18.4274L82.1605 18.2541Z" fill="#243D23"/>
<path d="M82.3324 41.6833C82.3668 37.9801 81.7892 38.5396 83.6386 36.039L85.3918 35.4429C88.6712 37.3536 88.0868 38.0736 87.8393 41.7074L82.3324 41.6833Z" fill="#466E2F"/>
<path d="M82.1605 18.2541L87.9149 18.4274L88.0112 19.3267C87.5437 22.4001 88.1006 22.3167 86.2374 23.7337L82.0231 23.765L82.1605 18.2541Z" fill="#84AD4F"/>
<path d="M123.225 35.8879L123.424 36.4201L123.631 41.8401C123.603 47.4698 123.424 53.8743 123.61 59.438L122.895 59.4862L117.587 59.4449L111.84 59.3528L111.799 53.754L111.235 53.9204L111.201 53.4286C111.723 50.9961 111.833 49.6395 110.712 47.6704L111.049 47.3946C114.061 43.7052 110.795 42.9379 117.361 42.0248L117.801 41.7986C117.443 40.6807 117.216 37.5159 117.086 36.1944L117.704 36.0233C120.035 36.2413 120.97 36.1182 123.225 35.8879Z" fill="#182D19"/>
<path d="M111.049 47.3946C114.061 43.7052 110.795 42.9379 117.361 42.0248C117.347 45.2508 118.055 50.257 116.728 52.6057C115.243 53.7862 113.765 53.6213 111.799 53.754L111.235 53.9204L111.201 53.4286C111.723 50.9961 111.833 49.6395 110.712 47.6704L111.049 47.3946Z" fill="#385F2A"/>
<path d="M123.225 35.8879L123.424 36.4201L123.631 41.8401C123.603 47.4698 123.424 53.8743 123.61 59.438L122.895 59.4862C122.771 53.325 124.002 48.5449 122.4 42.9269C120.674 41.3125 120.867 41.8371 117.801 41.7986C117.443 40.6807 117.216 37.5159 117.086 36.1944L117.704 36.0233C120.035 36.2413 120.97 36.1182 123.225 35.8879Z" fill="#486E37"/>
<path d="M105.089 18.1771L105.446 17.8079C107.447 18.0609 108.842 18.2899 110.891 18.1813L111.51 20.7967L111.84 23.8694L111.826 29.7638C108.595 29.8752 108.017 29.3331 105.859 30.9186C105.542 32.6506 105.412 33.6613 105.302 35.418C103.803 35.4606 102.689 35.4166 101.191 35.3348C99.7262 33.5623 100.256 32.7386 100.228 29.9196L93.91 30.0615L93.9787 24.3555L94.0268 23.9155L99.6643 23.7924L100.063 19.7984C101.692 17.8877 101.741 18.4907 105.089 18.1771Z" fill="#7BA44B"/>
<path d="M93.9787 24.3555C96.5568 24.3919 97.8699 23.9675 99.7949 25.1487C100.256 27.1742 100.235 27.8308 100.228 29.9196L93.91 30.0615L93.9787 24.3555Z" fill="#243D23"/>
<path d="M105.089 18.1771C105.405 20.2075 105.907 21.5951 104.972 23.3222C102.572 24.4588 102.682 24.0152 99.6643 23.7924L100.063 19.7984C101.692 17.8877 101.741 18.4907 105.089 18.1771Z" fill="#203F1D"/>
<path d="M111.826 29.7638L116.219 29.6346C117.086 30.4858 117.12 30.3338 117.581 31.3864L117.704 36.0233L117.086 36.1944L111.324 35.9653C110.204 35.3754 106.766 35.4613 105.302 35.418C105.412 33.6613 105.542 32.6506 105.859 30.9186C108.017 29.3331 108.595 29.8752 111.826 29.7638Z" fill="#466E2F"/>
<path d="M82.3324 41.6833L87.8393 41.7074L88.3549 41.8242L93.9856 41.9411C93.9031 43.4544 94.1644 45.4186 93.0644 46.4279C90.9125 48.4115 84.9725 48.1394 82.2225 47.927L82.3393 47.2463L82.3324 41.6833Z" fill="#648D3F"/>
<path d="M82.3324 41.6833L87.8393 41.7074L88.3549 41.8242C88.3343 44.8048 88.7949 44.7558 87.4406 46.9285C85.3712 47.559 84.443 47.3879 82.3393 47.2463L82.3324 41.6833Z" fill="#7BA44B"/>
<path d="M100.152 53.3261C103.569 53.3447 107.866 53.2423 111.201 53.4286L111.235 53.9204L111.125 59.4477L105.316 59.4071L100.159 59.3184L100.152 53.3261Z" fill="#7BA44B"/>
<path d="M110.712 47.6704C111.833 49.6395 111.723 50.9961 111.201 53.4286C107.866 53.2423 103.569 53.3447 100.152 53.3261C99.8018 51.3817 99.3412 50.2603 100.269 48.5895C102.277 47.1601 107.88 47.6882 110.712 47.6704Z" fill="#203F1D"/>
<path d="M111.324 35.9653L117.086 36.1944C117.216 37.5159 117.443 40.6807 117.801 41.7986L117.361 42.0248C110.795 42.9379 114.061 43.7052 111.049 47.3946L111.324 35.9653Z" fill="#385F2A"/>
<path d="M94.1575 53.2707C96.8593 53.3724 97.5812 52.9033 99.3275 54.3218C99.5956 56.4738 99.6025 57.4001 99.5612 59.5185L93.9718 59.4711L94.1575 53.2707Z" fill="#203F1D"/>
<path d="M99.6849 36.2967C101.252 36.2561 102.82 36.2341 104.387 36.23C106.106 37.9791 105.597 38.162 105.955 41.2017L101.768 41.0312C99.7467 39.3955 100.331 39.5165 99.6849 36.2967Z" fill="#385F2A"/>
<path d="M52.7494 76.6469C57.7475 76.6352 65.7568 76.4 70.4868 76.8923L70.4594 77.3289L70.8237 82.5207L71.6143 82.7455L93.9787 82.8425C93.9993 85.4497 94.2743 86.7602 92.9474 88.6564C86.6224 89.2587 46.4174 89.5282 41.873 88.5017C40.6974 86.8103 41.0137 85.0358 41.0343 82.8741L41.0549 77.7188C44.6712 76.8992 49.0231 76.7555 52.7494 76.6469Z" fill="#14191C"/>
<path d="M52.7494 76.6469C57.7475 76.6352 65.7568 76.4 70.4868 76.8923L70.4594 77.3289L70.8237 82.5207L71.6143 82.7455C64.2993 83.431 48.7412 82.9146 41.0343 82.8741L41.0549 77.7188C44.6712 76.8992 49.0231 76.7555 52.7494 76.6469Z" fill="#466E2F"/>
<path d="M58.3524 77.3403L70.4594 77.3289L70.8237 82.5207C66.9737 82.2752 62.9518 82.2515 59.0812 82.1704L58.3524 77.3403Z" fill="#648D3F"/>
<path d="M59.0812 82.1704C55.2381 82.2625 49.4149 83.1359 47.2974 79.3379C49.3187 76.3456 55.0799 77.2104 58.3524 77.3403L59.0812 82.1704Z" fill="#557C37"/>
<path d="M111.235 53.9204L111.799 53.754L111.84 59.3528L117.587 59.4449C117.601 60.7678 117.711 63.9746 117.505 65.1255L117.993 65.1839L123.706 64.8904L124.098 65.0788L129.137 65.1427C129.027 68.2271 129.55 68.8528 128.024 70.868C126.264 71.1581 125.274 71.2613 123.486 71.3328C123.417 72.9609 123.397 75.443 123.184 76.9817C120.344 76.902 115.463 76.4674 112.995 77.4176C112.163 78.6539 112.28 78.9138 112.369 80.3796C109.303 84.4871 99.0868 82.9573 93.9787 82.8425C93.8893 80.0957 93.8206 79.4582 94.5012 76.7485L99.1074 76.8977L100.042 71.1174C100.008 69.1469 100.042 67.9347 100.221 65.9731C102.036 64.4956 101.899 64.9734 104.772 64.9047L105.316 59.4071L111.125 59.4477L111.235 53.9204Z" fill="#141C1B"/>
<path d="M111.235 53.9204L111.799 53.754L111.84 59.3528L117.587 59.4449C117.601 60.7678 117.711 63.9746 117.505 65.1255L117.993 65.1839C117.842 68.0352 118.296 68.2221 116.893 70.2002C114.968 70.6045 113.373 70.8218 111.441 71.0748C109.344 71.2529 107.598 71.6956 105.893 70.6595L105.597 65.3138L104.772 64.9047L105.316 59.4071L111.125 59.4477L111.235 53.9204Z" fill="#648D3F"/>
<path d="M117.505 65.1255L117.993 65.1839C117.842 68.0352 118.296 68.2221 116.893 70.2002C114.968 70.6045 113.373 70.8218 111.441 71.0748C109.344 71.2529 107.598 71.6956 105.893 70.6595C111.118 70.6863 109.702 70.2746 112.39 66.1424C114.356 65.3214 115.415 65.3366 117.505 65.1255Z" fill="#557C37"/>
<path d="M105.316 59.4071L111.125 59.4477C111.001 62.7122 111.592 63.0918 109.874 64.9091L105.597 65.3138L104.772 64.9047L105.316 59.4071Z" fill="#648D3F"/>
<path d="M111.84 59.3528L117.587 59.4449C117.601 60.7678 117.711 63.9746 117.505 65.1255C115.463 65.0657 114.604 64.9994 112.596 64.6185C111.29 62.7477 111.792 62.0638 111.84 59.3528Z" fill="#84AD4F"/>
<path d="M100.042 71.1174C100.008 69.1469 100.042 67.9347 100.221 65.9731C102.036 64.4956 101.899 64.9734 104.772 64.9047L105.597 65.3138L105.893 70.6595C107.598 71.6956 109.344 71.2529 111.441 71.0748C111.317 74.4321 111.874 74.3168 110.162 76.4771C107.371 77.802 102.387 77.093 99.1074 76.8977L100.042 71.1174Z" fill="#466E2F"/>
<path d="M123.706 64.8904L124.098 65.0788L129.137 65.1427C129.027 68.2271 129.55 68.8528 128.024 70.868C126.264 71.1581 125.274 71.2613 123.486 71.3328C123.417 72.9609 123.397 75.443 123.184 76.9817C123.074 74.9734 123.225 73.5925 122.152 71.9376C119.76 70.4779 114.769 71.1353 111.441 71.0748C113.373 70.8218 114.968 70.6045 116.893 70.2002C118.296 68.2221 117.842 68.0352 117.993 65.1839L123.706 64.8904Z" fill="#486E37"/>
<path d="M124.098 65.0788L129.137 65.1427C129.027 68.2271 129.55 68.8528 128.024 70.868C126.264 71.1581 125.274 71.2613 123.486 71.3328C123.376 68.7695 123.163 67.4749 124.098 65.0788Z" fill="#14191C"/>
<path d="M100.159 59.3184L105.316 59.4071L104.772 64.9047C101.899 64.9734 102.036 64.4956 100.221 65.9731C100.042 67.9347 100.008 69.1469 100.042 71.1174L99.1074 76.8977L94.5012 76.7485C93.8206 79.4582 93.8893 80.0957 93.9787 82.8425L71.6143 82.7455L70.8237 82.5207L70.4594 77.3289L70.4868 76.8923L70.6312 71.057L76.1381 71.1766L82.5249 71.1512C85.6256 71.1993 86.5193 71.6834 88.1968 69.2797L87.7293 65.1007L93.91 65.1413L94.0543 62.8407L93.9718 59.4711L99.5612 59.5185L100.159 59.3184Z" fill="#466E2F"/>
<path d="M100.159 59.3184L105.316 59.4071L104.772 64.9047C101.899 64.9734 102.036 64.4956 100.221 65.9731C100.042 67.9347 100.008 69.1469 100.042 71.1174C97.3955 71.1429 96.2955 70.7091 94.2812 71.9068C93.8137 73.9186 93.9168 74.5299 94.0681 76.6063C90.995 77.0759 86.1962 78.0199 83.5768 76.4949C81.8718 74.3449 82.4493 74.6069 82.5249 71.1512C85.6256 71.1993 86.5193 71.6834 88.1968 69.2797L87.7293 65.1007L93.91 65.1413L94.0543 62.8407L93.9718 59.4711L99.5612 59.5185L100.159 59.3184Z" fill="#6A953F"/>
<path d="M87.7293 65.1007L93.91 65.1413C93.8618 68.9379 94.453 68.1148 92.3905 70.5247L90.1905 71.0954C88.8774 70.2524 88.6849 70.4465 88.1968 69.2797L87.7293 65.1007Z" fill="#466E2F"/>
<path d="M99.5612 59.5185L100.159 59.3184C99.9874 62.9322 100.551 62.2412 98.6674 64.7576C96.5636 65.6954 97.4643 65.6631 95.2781 64.858C94.7624 64.1148 94.3706 63.6816 94.0543 62.8407L93.9718 59.4711L99.5612 59.5185Z" fill="#7BA44B"/>
<path d="M70.6312 71.057L76.1381 71.1766C76.145 74.3036 76.6537 74.6249 75.2649 76.8972C73.1956 77.4122 72.5631 77.1914 70.4868 76.8923L70.6312 71.057Z" fill="#84AD4F"/>
<path d="M52.9968 41.653L58.5931 41.7349L58.868 47.7524L64.4299 47.6967L64.5536 53.8226C62.6424 54.046 61.5149 54.1485 59.6243 54.6978C58.9093 56.414 59.0743 57.4859 59.0949 59.3416L58.0499 59.5877C55.6162 59.6386 55.2518 59.2261 53.5674 60.496C53.3474 62.2685 53.2581 63.2194 53.2718 65.0036L52.6393 65.1913C50.7418 65.564 49.7312 65.9662 47.9231 65.3281C46.5618 63.5494 46.9399 61.8855 47.0155 59.5327L47.1737 54.1636L46.4587 54.1918L40.9862 53.7094L47.3524 52.4497C46.4311 51.1702 46.5824 49.408 47.7168 48.312C48.8511 47.216 50.618 47.1171 51.8624 48.0803L52.9968 41.653Z" fill="#557C37"/>
<path d="M47.0155 59.5327L52.8249 59.6469L52.6393 65.1913C50.7418 65.564 49.7312 65.9662 47.9231 65.3281C46.5618 63.5494 46.9399 61.8855 47.0155 59.5327Z" fill="#648D3F"/>
<path d="M47.3524 52.4497C46.4311 51.1702 46.5824 49.408 47.7168 48.312C48.8511 47.216 50.618 47.1171 51.8624 48.0803C52.8524 48.8408 53.2993 50.1065 53.0174 51.3187C52.7356 52.5302 51.7661 53.4645 50.5492 53.7079C49.3255 53.9513 48.0742 53.4597 47.3524 52.4497Z" fill="#203F1D"/>
<path d="M58.868 47.7524L64.4299 47.6967L64.5536 53.8226C62.8074 53.5895 61.3911 53.3629 59.6724 53.0067C58.3042 51.0493 58.813 50.5817 58.868 47.7524Z" fill="#182D19"/>
<path d="M47.1737 54.1636C49.8068 54.1829 50.8175 53.7015 52.5912 55.012C52.9556 56.997 52.9143 57.6206 52.8249 59.6469L47.0155 59.5327L47.1737 54.1636Z" fill="#7BA44B"/>
<path d="M52.9968 41.653L58.5931 41.7349C58.4281 43.6119 58.16 45.9501 58.0775 47.7914L53.5056 47.8553L52.9968 41.653Z" fill="#182D19"/>
<path d="M53.5056 47.8553L58.0775 47.7914C58.2356 51.2126 58.9024 52.3617 55.8156 54.1699L54.3787 53.5656C52.9693 51.199 53.4781 51.0682 53.5056 47.8553Z" fill="#648D3F"/>
<path d="M64.6705 35.9498L70.1912 36.0632L70.6312 36.2138L70.5555 39.3903C70.638 41.5754 70.6724 44.2362 70.8512 46.371L72.6937 47.8534C73.1612 50.3513 73.9587 51.4095 76.1724 52.7413L76.0899 53.3731C73.3262 53.7162 72.57 53.3139 70.7825 54.8919C70.6312 56.4492 70.5006 57.7865 70.4525 59.35L63.7699 59.429L59.0949 59.3416C59.0743 57.4859 58.9093 56.414 59.6243 54.6978C61.5149 54.1485 62.6424 54.046 64.5536 53.8226L64.4299 47.6967C64.4024 43.5514 64.4368 40.1081 64.6705 35.9498Z" fill="#648D3F"/>
<path d="M64.6705 35.9498L70.1912 36.0632L70.6312 36.2138L70.5555 39.3903C70.638 41.5754 70.6724 44.2362 70.8512 46.371C69.5587 48.5657 68.0667 48.3931 66.1761 47.4917C64.5949 44.5414 65.083 45.2462 65.1724 41.5285L64.6705 35.9498Z" fill="#203F1D"/>
<path d="M64.6705 35.9498L70.1912 36.0632L70.6312 36.2138L70.5555 39.3903C68.2387 40.8816 67.7986 40.9496 65.1724 41.5285L64.6705 35.9498Z" fill="#243D23"/>
<path d="M52.66 71.0074C58.5312 71.1367 65.0625 70.8631 70.6312 71.057L70.4868 76.8923C65.7568 76.4 57.7475 76.6352 52.7494 76.6469L52.66 71.0074Z" fill="#203F1D"/>
<path d="M45.7368 70.4718L46.9537 69.2803C49.2499 70.9455 49.8343 70.9056 52.66 71.0074L52.7494 76.6469C49.0231 76.7555 44.6712 76.8992 41.0549 77.7188L39.8999 76.8889L39.1093 76.552C40.1818 74.7864 40.2093 73.2146 40.4911 71.1519L41.0274 70.5048C42.3749 70.5041 44.458 70.5722 45.7368 70.4718Z" fill="#385F2A"/>
<path d="M82.0849 65.0283L87.7293 65.1007L88.1968 69.2797C86.5193 71.6834 85.6256 71.1993 82.5249 71.1512L76.1381 71.1766L76.2137 65.5474L76.5024 65.2951L82.0849 65.0283Z" fill="#84AD4F"/>
<path d="M81.7137 59.6403C85.7631 59.4973 89.9293 59.2696 93.9718 59.4711L94.0543 62.8407L93.91 65.1413L87.7293 65.1007L82.0849 65.0283L81.7137 59.6403Z" fill="#182D19"/>
<path d="M41.1374 57.3369C41.4331 60.2851 41.6599 62.4097 41.598 65.3676C44.0799 65.7409 45.1043 65.3758 46.2593 66.918L45.7368 70.4718C44.458 70.5722 42.3749 70.5041 41.0274 70.5048L40.4911 71.1519L35.6786 71.1121L35.5136 70.7779L35.4999 66.953C36.9574 65.0038 36.6136 65.5731 39.4736 64.823L40.3605 64.9096C41.4537 62.9776 41.1031 59.8348 41.1374 57.3369Z" fill="#486E37"/>
<path d="M35.5136 70.7779L35.4999 66.953C36.9574 65.0038 36.6136 65.5731 39.4736 64.823C41.2199 66.9709 41.0549 67.1544 41.0274 70.5048L40.4911 71.1519L35.6786 71.1121L35.5136 70.7779Z" fill="#182D19"/>
<path d="M40.9862 53.7094L46.4587 54.1918C46.4862 57.6028 47.1531 61.9569 45.6199 64.5655C44.0524 65.3534 43.3992 65.2555 41.598 65.3676C41.6599 62.4097 41.4331 60.2851 41.1374 57.3369L40.9862 53.7094Z" fill="#203F1D"/>
<path d="M58.0499 59.5877L59.0949 59.3416L63.7699 59.429C65.7774 61.8836 64.8011 62.1058 65.3236 65.721C62.6218 65.69 61.1162 66.1623 59.1843 64.8746C58.7031 63.1907 58.5243 62.0921 58.2562 60.3594L58.0499 59.5877Z" fill="#466E2F"/>
<path d="M70.4525 59.35C70.5625 62.4364 71.0987 62.9502 69.7924 65.217C67.8399 65.7636 67.3655 65.734 65.3236 65.721C64.8011 62.1058 65.7774 61.8836 63.7699 59.429L70.4525 59.35Z" fill="#557C37"/>
<path d="M70.6312 71.057C70.5212 68.9723 70.3562 68.0736 71.1331 66.0762C73.4225 64.8613 73.1887 65.3095 76.2137 65.5474L76.1381 71.1766L70.6312 71.057Z" fill="#182D19"/>
<path d="M76.5024 65.2951C76.2411 63.242 76.0762 62.5953 76.475 60.5794C78.3931 59.3211 79.1081 59.7318 81.7137 59.6403L82.0849 65.0283L76.5024 65.2951Z" fill="#203F1D"/>
<path d="M140.708 6.45812C140.846 2.60368 141.409 -0.272373 147.136 0.0205255C152.017 0.270108 152.279 2.42835 152.416 6.59494V23.667C152.402 27.5358 152.272 32.1693 152.396 35.9749C152.533 39.5749 153.269 44.2764 151.674 47.1195C149.982 48.2443 148.958 48.0161 146.896 48.0051C146.868 49.6249 146.896 52.14 146.758 53.6581L141.237 53.3962L140.598 52.8736L137.243 53.236C136.294 51.1623 135.531 49.6263 134.658 47.4846L135.249 41.7545L129.632 41.4939L129.069 41.6307L123.631 41.8401L123.424 36.4201L123.225 35.8879C120.97 36.1182 120.035 36.2413 117.704 36.0233L117.581 31.3864C117.12 30.3338 117.086 30.4858 116.219 29.6346L111.826 29.7638L111.84 23.8694L111.51 20.7967L110.891 18.1813C108.842 18.2899 107.447 18.0609 105.446 17.8079L105.439 12.4529L111.029 11.9861L112.5 12.2907L117.539 12.0933L123.266 12.4337C123.466 14.0783 123.679 17.0795 124.311 18.4725C125.466 17.5903 127.068 17.589 128.216 18.4684C128.814 17.1063 128.993 14.5885 129.186 13.0202L131.131 12.2611L134.706 12.1387C134.844 10.3318 134.981 9.32799 135.339 7.55066C137.154 6.16729 138.034 6.59907 140.708 6.45812Z" fill="#557C37"/>
<path d="M111.029 11.9861L112.5 12.2907L117.539 12.0933L123.266 12.4337C123.466 14.0783 123.679 17.0795 124.311 18.4725C125.466 17.5903 127.068 17.589 128.216 18.4684C128.814 17.1063 128.993 14.5885 129.186 13.0202L131.131 12.2611L135.242 12.9957C137.821 12.9049 138.46 12.4463 140.419 13.5718C141.024 15.6235 140.846 16.5187 140.729 18.6267C140.234 29.3478 135.215 19.5116 134.844 29.979L135.215 30.2726L135.456 36.1938L135.215 36.5623L135.249 41.7545L129.632 41.4939L129.069 41.6307L123.631 41.8401L123.424 36.4201L123.225 35.8879C120.97 36.1182 120.035 36.2413 117.704 36.0233L117.581 31.3864C117.12 30.3338 117.086 30.4858 116.219 29.6346L111.826 29.7638L111.84 23.8694L111.51 20.7967L110.891 18.1813C108.842 18.2899 107.447 18.0609 105.446 17.8079L105.439 12.4529L111.029 11.9861Z" fill="#648D3F"/>
<path d="M123.225 35.8879C123.17 33.7454 122.84 32.3415 124.071 30.6982C126.566 29.2172 131.564 29.8868 134.844 29.979L135.215 30.2726L135.456 36.1938L135.215 36.5623L135.249 41.7545L129.632 41.4939L129.069 41.6307L123.631 41.8401L123.424 36.4201L123.225 35.8879Z" fill="#385F2A"/>
<path d="M129.632 41.4939C129.564 39.4753 129.399 38.4916 130.224 36.5953C132.369 35.6493 132.568 36.1326 135.215 36.5623L135.249 41.7545L129.632 41.4939Z" fill="#7BA44B"/>
<path d="M123.424 36.4201C126.656 36.1973 126.779 35.6025 128.739 37.1145C128.945 38.8272 129.048 39.907 129.069 41.6307L123.631 41.8401L123.424 36.4201Z" fill="#203F1D"/>
<path d="M111.029 11.9861L112.5 12.2907C115.669 12.862 115.442 12.284 117.127 14.2436C117.546 16.5366 117.697 15.6139 116.522 17.702C114.776 18.3895 113.098 18.8158 111.393 17.4854L110.891 18.1813C108.842 18.2899 107.447 18.0609 105.446 17.8079L105.439 12.4529L111.029 11.9861Z" fill="#7BA44B"/>
<path d="M105.439 12.4529C108.224 12.6523 109.221 12.218 111.049 13.7059C111.18 14.9263 111.352 16.2739 111.393 17.4854L110.891 18.1813C108.842 18.2899 107.447 18.0609 105.446 17.8079L105.439 12.4529Z" fill="#203F1D"/>
<path d="M111.84 23.8694L117.505 23.8987C117.567 25.8988 117.78 29.5225 117.581 31.3864C117.12 30.3338 117.086 30.4858 116.219 29.6346L111.826 29.7638L111.84 23.8694Z" fill="#466E2F"/>
<path d="M128.216 18.4684C129.316 19.3044 129.756 20.7478 129.316 22.0548C128.876 23.3619 127.652 24.2434 126.271 24.2447C124.896 24.2461 123.665 23.3681 123.225 22.0617C122.778 20.7554 123.218 19.3113 124.311 18.4725C125.466 17.5903 127.068 17.589 128.216 18.4684Z" fill="#203F1D"/>
<path d="M129.186 13.0202L131.131 12.2611L135.242 12.9957C135.304 16.298 135.689 16.7819 132.829 18.5751L130.973 18.0683C129.055 15.8874 129.626 16.3672 129.186 13.0202Z" fill="#243D23"/>
<path d="M117.67 18.4749C117.691 16.996 117.78 15.4978 117.862 14.0189C119.622 12.2718 120.145 12.7843 123.266 12.4337C123.046 14.0247 122.861 15.6195 122.696 17.2174C120.97 18.7005 120.365 18.2611 117.67 18.4749Z" fill="#243D23"/>
<path d="M146.944 25.652C149.377 25.1707 150.312 25.1115 152.416 23.667C152.402 27.5358 152.272 32.1693 152.396 35.9749C152.533 39.5749 153.269 44.2764 151.674 47.1195C149.982 48.2443 148.958 48.0161 146.896 48.0051C146.868 49.6249 146.896 52.14 146.758 53.6581L141.237 53.3962L140.598 52.8736L137.243 53.236C136.294 51.1623 135.531 49.6263 134.658 47.4846L135.249 41.7545L135.215 36.5623L135.456 36.1938L140.729 36.0643C140.797 34.551 140.928 33.0549 141.052 31.545C142.64 30.042 143.891 30.4099 146.517 30.1177C146.758 28.9392 146.847 26.9219 146.944 25.652Z" fill="#6A953F"/>
<path d="M146.944 25.652C149.377 25.1707 150.312 25.1115 152.416 23.667C152.402 27.5358 152.272 32.1693 152.396 35.9749L146.497 35.9997C146.146 38.5478 146.517 39.478 144.984 40.849L140.79 41.0367L140.729 36.0643C140.797 34.551 140.928 33.0549 141.052 31.545C142.64 30.042 143.891 30.4099 146.517 30.1177C146.758 28.9392 146.847 26.9219 146.944 25.652Z" fill="#84AD4F"/>
<path d="M146.497 35.9997L152.396 35.9749C152.533 39.5749 153.269 44.2764 151.674 47.1195C149.982 48.2443 148.958 48.0161 146.896 48.0051C146.889 43.8419 146.944 40.1553 146.497 35.9997Z" fill="#141C1B"/>
<path d="M140.749 47.7764L146.428 47.8424L146.758 53.6581L141.237 53.3962L140.598 52.8736C140.323 50.9567 140.55 49.6823 140.749 47.7764Z" fill="#141C1B"/>
<path d="M135.456 36.1938L140.729 36.0643L140.79 41.0367C138.817 42.0626 137.491 41.8061 135.249 41.7545L135.215 36.5623L135.456 36.1938Z" fill="#203F1D"/>
<path d="M140.749 47.7764C140.062 44.8811 139.883 45.935 141.107 43.6847C143.396 42.5715 142.372 42.7015 144.943 43.268C146.6 44.8343 146.119 45.0633 146.428 47.8424L140.749 47.7764Z" fill="#7BA44B"/>
<path d="M152.416 6.59494V23.667C150.312 25.1115 149.377 25.1707 146.944 25.652C146.944 22.7732 147.363 14.2085 146.071 12.3054C144.641 12.1465 143.204 12.0077 141.774 11.888C140.921 10.2757 141.148 9.91679 141.451 8.00195C143.025 6.35731 148.023 6.82211 151.048 6.66053L152.416 6.59494Z" fill="#84AD4F"/>
<path d="M140.729 18.6267L141.265 18.676C141.334 21.9474 140.797 22.3695 142.337 24.6584C143.836 25.0372 144.682 25.2263 146.222 25.4333L146.517 30.1177C143.891 30.4099 142.64 30.042 141.052 31.545C140.928 33.0549 140.797 34.551 140.729 36.0643L135.456 36.1938L135.215 30.2726L134.844 29.979C135.215 19.5116 140.234 29.3478 140.729 18.6267Z" fill="#466E2F"/>
<path d="M135.215 30.2726C138.501 29.9308 143.286 29.5099 146.517 30.1177C143.891 30.4099 142.64 30.042 141.052 31.545C140.928 33.0549 140.797 34.551 140.729 36.0643L135.456 36.1938L135.215 30.2726Z" fill="#466E2F"/>
<path d="M140.708 6.45812C140.846 2.60368 141.409 -0.272373 147.136 0.0205255C152.017 0.270108 152.279 2.42835 152.416 6.59494L151.048 6.66053C148.14 6.39926 143.733 6.48974 140.708 6.45812Z" fill="#243D23"/>
<path d="M141.265 18.676C143.96 18.249 143.589 17.8856 145.713 18.8743C146.6 20.9061 146.304 23.198 146.222 25.4333C144.682 25.2263 143.836 25.0372 142.337 24.6584C140.797 22.3695 141.334 21.9474 141.265 18.676Z" fill="#385F2A"/>
<path d="M140.708 6.45812C140.626 9.18909 141.1 10.1321 139.691 11.9411C137.614 12.2113 136.803 12.2212 134.706 12.1387C134.844 10.3318 134.981 9.32799 135.339 7.55066C137.154 6.16729 138.034 6.59907 140.708 6.45812Z" fill="#203F1D"/>
<path d="M6.01307 71.0802C6.0337 69.9018 5.7793 67.155 6.67993 66.5052C10.4199 63.8025 14.6687 63.786 17.6043 67.2939L17.6937 71.2088C23.0699 70.984 30.3849 71.6051 35.5136 70.7779L35.6786 71.1121L40.4911 71.1519C40.2093 73.2146 40.1818 74.7864 39.1093 76.552L39.8999 76.8889L41.0549 77.7188L41.0343 82.8741C32.8599 82.9119 14.1117 83.4624 6.78987 82.5886C5.62799 80.4207 6.07489 80.0123 6.12301 77.1968C3.00176 77.1906 3.20803 77.6608 0.904908 76.2575C-0.270717 73.8236 -0.215696 74.8474 0.581804 72.4341C2.8643 70.6052 2.4587 71.1827 6.01307 71.0802Z" fill="#14191C"/>
<path d="M6.01307 71.0802C6.0337 69.9018 5.7793 67.155 6.67993 66.5052C10.4199 63.8025 14.6687 63.786 17.6043 67.2939L17.6937 71.2088L17.3224 76.8819L11.1899 76.7787L6.13677 76.833L6.12301 77.1968C3.00176 77.1906 3.20803 77.6608 0.904908 76.2575C-0.270717 73.8236 -0.215696 74.8474 0.581804 72.4341C2.8643 70.6052 2.4587 71.1827 6.01307 71.0802Z" fill="#243D23"/>
<path d="M6.12301 77.1968C3.00176 77.1906 3.20803 77.6608 0.904908 76.2575C-0.270717 73.8236 -0.215696 74.8474 0.581804 72.4341C2.8643 70.6052 2.4587 71.1827 6.01307 71.0802L11.2999 71.319L11.1899 76.7787L6.13677 76.833L6.12301 77.1968Z" fill="#182D19"/>
<path d="M6.01307 71.0802L11.2999 71.319L11.1899 76.7787L6.13677 76.833L6.01307 71.0802Z" fill="#648D3F"/>
<path d="M17.6937 71.2088L17.3224 76.8819L11.1899 76.7787L11.2999 71.319L17.6937 71.2088Z" fill="#648D3F"/>
<path d="M35.5136 70.7779L35.6786 71.1121L40.4911 71.1519C40.2093 73.2146 40.1818 74.7864 39.1093 76.552L39.8999 76.8889C36.0705 77.4837 21.2137 77.0929 17.3224 76.8819L17.6937 71.2088C23.0699 70.984 30.3849 71.6051 35.5136 70.7779Z" fill="#243D23"/>
<path d="M35.6786 71.1121L40.4911 71.1519C40.2093 73.2146 40.1818 74.7864 39.1093 76.552C38.1949 76.5307 37.1292 76.4026 36.2011 76.3207C34.9086 74.4073 35.4655 73.9104 35.6786 71.1121Z" fill="#466E2F"/>
<path d="M129.632 41.4939L135.249 41.7545L134.658 47.4846C135.531 49.6263 136.294 51.1623 137.243 53.236L140.598 52.8736L141.237 53.3962C140.921 55.155 140.639 56.9194 140.385 58.6878C138.536 59.9907 137.704 59.6202 135.146 59.8099C135.126 61.13 135.153 63.9346 134.94 65.1123L129.137 65.1427L124.098 65.0788L123.706 64.8904L123.61 59.438C123.424 53.8743 123.603 47.4698 123.631 41.8401L129.069 41.6307L129.632 41.4939Z" fill="#557C37"/>
<path d="M129.632 41.4939L135.249 41.7545L134.658 47.4846C131.248 47.7252 131.31 47.1355 129.344 48.9926C128.147 51.9807 129.234 55.567 128.89 59.3499L123.61 59.438C123.424 53.8743 123.603 47.4698 123.631 41.8401L129.069 41.6307L129.632 41.4939Z" fill="#84AD4F"/>
<path d="M140.598 52.8736L141.237 53.3962C140.921 55.155 140.639 56.9194 140.385 58.6878C138.536 59.9907 137.704 59.6202 135.146 59.8099C134.514 57.246 134.383 55.7556 135.428 53.6255L137.243 53.236L140.598 52.8736Z" fill="#14191C"/>
<path d="M128.89 59.3499L129.076 59.8534L129.137 65.1427L124.098 65.0788L123.706 64.8904L123.61 59.438L128.89 59.3499Z" fill="#557C37"/>
<path d="M129.076 59.8534C131.86 59.6052 132.286 59.0648 134.28 60.2941C134.72 62.2475 134.816 63.1109 134.94 65.1123L129.137 65.1427L129.076 59.8534Z" fill="#14191C"/>
<path d="M152.416 6.59494C154.437 6.553 156.706 6.18119 158.198 7.28609C158.638 12.8044 158.769 30.0868 158.143 35.4449C156.349 36.4426 154.534 36.0808 152.396 35.9749C152.272 32.1693 152.402 27.5358 152.416 23.667V6.59494Z" fill="#14191C"/>
<path d="M122.895 59.4862L123.61 59.438L123.706 64.8904L117.993 65.1839L117.505 65.1255C117.711 63.9746 117.601 60.7678 117.587 59.4449L122.895 59.4862Z" fill="#648D3F"/>
<path d="M111.029 11.9861C111.366 8.50979 110.781 8.90334 112.713 6.72929C115.174 6.00048 114.143 5.91041 116.584 7.19202C117.801 9.01335 117.567 9.88216 117.539 12.0933L112.5 12.2907L111.029 11.9861Z" fill="#243D23"/>
</svg>
