<svg width="78" height="171" viewBox="0 0 78 171" fill="none" xmlns="http://www.w3.org/2000/svg">
<path d="M30.3112 0.18771L36.0381 0C36.2443 3.16482 35.715 3.27552 37.3719 5.27218C40.5069 6.55378 43.6281 5.13537 47.8974 5.82568L47.8699 10.97L47.9731 11.7283C50.8468 11.7325 51.0119 11.2704 53.0812 12.5685C53.6587 14.6752 53.5281 15.6873 53.5006 17.838L54.4081 17.8393C57.6049 17.9328 57.3025 17.3904 59.1106 19.1086C60.245 22.0919 59.2894 26.0604 59.4475 29.5883C62.1631 29.5903 63.0637 29.1077 64.9887 30.4092C65.3531 32.3701 65.305 32.7545 65.0987 34.747C67.0993 34.9347 67.9794 34.9464 69.925 35.5817C73.6375 40.2007 69.7875 44.6444 71.5612 52.169L72.7575 52.8181L76.0369 53.111C77.8175 55.5112 77.7006 91.7385 76.4012 93.4828C74.5656 93.6396 73.4312 93.6891 71.6162 94.1519C69.4025 100.441 73.9537 106.943 70.0969 111.253C68.2269 111.821 67.6631 111.741 65.6762 111.768C65.6693 115.137 65.8343 120.054 65.2293 123.239C62.2937 123.242 62.0668 122.784 59.8668 124.064C60.0525 128.033 59.3237 130.068 54.4906 129.905C53.7481 132.005 53.6999 133.01 53.4593 135.165L48.4268 134.946C47.8012 138.644 48.3512 138.927 46.0893 140.825C43.1743 141.77 39.5512 140.919 36.1412 141.001L36.1275 134.923L36.0381 128.641L36.0725 122.983C34.835 123.049 31.1637 123.174 30.1394 123.37L30.1256 127.651L29.7543 128.396C28.4687 128.167 25.8562 128.27 24.44 128.276L23.0512 129.061L18.6237 129.331C17.7781 128.166 17.6337 124.716 17.455 123.087C16.1625 123.99 14.4094 123.831 13.2956 122.71C12.1887 121.589 12.0443 119.832 12.9656 118.548C11.3706 117.87 8.7031 117.598 6.90941 117.325C7.06548 111.259 5.77572 106.412 7.65465 100.863C9.50747 99.1614 9.52122 99.7066 12.6837 99.5031L12.9037 94.0164C14.8012 93.7984 16.5612 93.4952 18.4381 93.1776L18.1974 88.2822L18.4174 82.0172L12.7525 81.7387L8.76496 81.9127L8.19432 82.22L7.15619 81.5889C6.86882 76.0437 5.92077 70.7007 7.71034 65.5213C9.47309 64.1249 9.67932 64.6055 12.3606 64.6516L12.7387 64.8249C15.4131 64.7472 18.3075 64.609 20.9612 64.6241L24.3093 64.5787L24.4744 58.762L24.5018 53.0546L18.4793 52.9645L18.2318 47.1932C16.3068 47.167 15.7087 47.2681 13.9212 46.6514C11.5356 43.512 12.7318 34.0938 12.7868 29.4143C14.3199 29.2672 16.5199 29.2672 18.1149 29.2149C18.1424 27.2341 18.2318 26.5018 18.5962 24.5533C20.5556 23.1638 21.58 23.6671 24.4056 23.6396L24.4331 11.3474L24.4125 6.03468L28.9774 5.55272C30.5724 3.6475 30.0775 3.21433 30.3112 0.18771Z" fill="#84AD4F"/>
<path d="M30.3112 0.18771L36.0381 0C36.2443 3.16482 35.715 3.27552 37.3719 5.27218C40.5069 6.55378 43.6281 5.13537 47.8974 5.82568L47.8699 10.97L47.9731 11.7283C50.8468 11.7325 51.0119 11.2704 53.0812 12.5685C53.6587 14.6752 53.5281 15.6873 53.5006 17.838L54.4081 17.8393C57.6049 17.9328 57.3025 17.3904 59.1106 19.1086C60.245 22.0919 59.2894 26.0604 59.4475 29.5883C62.1631 29.5903 63.0637 29.1077 64.9887 30.4092C65.3531 32.3701 65.305 32.7545 65.0987 34.747C67.0993 34.9347 67.9794 34.9464 69.925 35.5817C73.6375 40.2007 69.7875 44.6444 71.5612 52.169C69.54 52.376 66.8588 52.4337 64.7756 52.5403L64.5418 52.9342L60.1693 52.9226L59.4818 52.9748L53.5281 52.9528C53.4938 55.1612 53.0881 57.1778 53.9956 58.8919C55.7831 59.0026 57.9969 58.9531 59.5438 59.6957L59.6056 65.0992L59.5162 70.4291C56.7869 70.7901 48.9906 70.8829 47.8494 71.1283L47.3543 70.513C44.3912 70.3129 44.0199 69.7725 41.9368 71.0369C41.7581 72.1329 41.6344 72.4223 41.7169 73.5417C41.7375 76.6377 42.2875 79.4072 40.8506 81.7181C38.9806 82.2908 38.6507 82.2846 36.6913 82.2475L36.1619 81.8742L30.5243 81.859L30.1187 82.0619C30.3937 84.2744 30.5587 85.8153 30.6206 88.0615C30.5862 89.5556 30.435 92.4522 30.5038 93.8349L24.5087 93.8287C21.8893 93.883 21.4837 93.8356 18.9469 93.1679L18.4381 93.1776L18.1974 88.2822L18.4174 82.0172L12.7525 81.7387L8.76496 81.9127L8.19432 82.22L7.15619 81.5889C6.86882 76.0437 5.92077 70.7007 7.71034 65.5213C9.47309 64.1249 9.67932 64.6055 12.3606 64.6516L12.7387 64.8249C15.4131 64.7472 18.3075 64.609 20.9612 64.6241L24.3093 64.5787L24.4744 58.762L24.5018 53.0546L18.4793 52.9645L18.2318 47.1932C16.3068 47.167 15.7087 47.2681 13.9212 46.6514C11.5356 43.512 12.7318 34.0938 12.7868 29.4143C14.3199 29.2672 16.5199 29.2672 18.1149 29.2149C18.1424 27.2341 18.2318 26.5018 18.5962 24.5533C20.5556 23.1638 21.58 23.6671 24.4056 23.6396L24.4331 11.3474L24.4125 6.03468L28.9774 5.55272C30.5724 3.6475 30.0775 3.21433 30.3112 0.18771Z" fill="#486E37"/>
<path d="M30.3112 0.18771L36.0381 0C36.2443 3.16482 35.715 3.27552 37.3719 5.27218C40.5069 6.55378 43.6281 5.13537 47.8974 5.82568L47.8699 10.97L47.9731 11.7283C44.8037 11.8631 44.3294 11.3467 42.1775 12.8965C41.8475 14.9351 41.82 15.8186 41.82 17.8888L41.8543 23.0462C39.5099 23.4381 38.5749 23.6368 36.1206 23.5137L30.0843 23.2607L29.6168 23.5L24.4056 23.6396L24.4331 11.3474L24.4125 6.03468L28.9774 5.55272C30.5724 3.6475 30.0775 3.21433 30.3112 0.18771Z" fill="#557C37"/>
<path d="M47.8699 10.97L47.9731 11.7283C44.8037 11.8631 44.3294 11.3467 42.1775 12.8965C41.8475 14.9351 41.82 15.8186 41.82 17.8888L41.8543 23.0462C39.5099 23.4381 38.5749 23.6368 36.1206 23.5137L35.9625 17.9633C35.9213 15.9385 36.0794 13.3842 36.155 11.314C40.06 11.4233 43.9718 11.3076 47.8699 10.97Z" fill="#385F2A"/>
<path d="M35.9625 17.9633L41.82 17.8888L41.8543 23.0462C39.5099 23.4381 38.5749 23.6368 36.1206 23.5137L35.9625 17.9633Z" fill="#2B5121"/>
<path d="M24.4331 11.3474L30.1943 11.2788C30.4006 15.2591 30.6893 19.3045 30.0843 23.2607L29.6168 23.5L24.4056 23.6396L24.4331 11.3474Z" fill="#182D19"/>
<path d="M36.2031 7.36924L36.2787 7.09697C37.7843 5.79062 45.1268 5.94531 47.8974 5.82568L47.8699 10.97C43.9718 11.3076 40.06 11.4233 36.155 11.314L36.2031 7.36924Z" fill="#243D23"/>
<path d="M36.0381 0C36.2443 3.16482 35.715 3.27552 37.3719 5.27218C40.5069 6.55378 43.6281 5.13537 47.8974 5.82568C45.1268 5.94531 37.7843 5.79062 36.2787 7.09697L36.2031 7.36924C36.0243 9.45185 36.1275 9.69936 34.8694 11.2367C32.58 11.8576 33.4668 11.9463 31.4868 11.0683C30.2493 9.02831 30.3937 9.90287 30.7512 7.7797C32.5731 5.89029 32.3187 6.46372 35.5706 6.07388L36.0381 0Z" fill="#648D3F"/>
<path d="M30.3112 0.18771L36.0381 0L35.5706 6.07388L31.9131 5.55064C30.2562 4.10127 30.6619 2.94825 30.3112 0.18771Z" fill="#243D23"/>
<path d="M24.4125 6.03468C26.9493 6.27533 28.1181 5.91573 29.7612 7.30734L30.1943 11.2788L24.4331 11.3474L24.4125 6.03468Z" fill="#243D23"/>
<path d="M59.4475 29.5883C62.1631 29.5903 63.0637 29.1077 64.9887 30.4092C65.3531 32.3701 65.305 32.7545 65.0987 34.747C67.0993 34.9347 67.9794 34.9464 69.925 35.5817C73.6375 40.2007 69.7875 44.6444 71.5612 52.169C69.54 52.376 66.8588 52.4337 64.7756 52.5403L64.5418 52.9342L60.1693 52.9226L59.4818 52.9748L53.5281 52.9528C53.315 50.6028 53.5074 49.0881 53.7274 46.7538C53.8581 43.402 53.6794 41.0595 53.425 37.7015L53.6312 30.9847L54.1537 29.9183L59.4475 29.5883Z" fill="#84AD4F"/>
<path d="M65.0987 34.747C67.0993 34.9347 67.9794 34.9464 69.925 35.5817C73.6375 40.2007 69.7875 44.6444 71.5612 52.169C69.54 52.376 66.8588 52.4337 64.7756 52.5403C65.0438 50.8654 65.0369 48.0863 65.085 46.3083L65.0919 40.8285L64.9406 35.1727L65.0987 34.747Z" fill="#141C1B"/>
<path d="M53.7274 46.7538C56.7662 46.8886 57.1787 46.3971 59.2481 47.8815C59.5781 50.0562 59.5781 50.7705 59.4818 52.9748L53.5281 52.9528C53.315 50.6028 53.5074 49.0881 53.7274 46.7538Z" fill="#182D19"/>
<path d="M59.4475 29.5883C62.1631 29.5903 63.0637 29.1077 64.9887 30.4092C65.3531 32.3701 65.305 32.7545 65.0987 34.747L64.9406 35.1727L59.5781 35.4057L59.4475 29.5883Z" fill="#182D19"/>
<path d="M59.5781 35.4057L64.9406 35.1727L65.0919 40.8285L59.4062 41.2206L59.5781 35.4057Z" fill="#557C37"/>
<path d="M59.4062 41.2206L65.0919 40.8285L65.085 46.3083L60.9737 45.9653L59.7637 45.8354C58.6706 44.0409 59.1449 43.6786 59.4062 41.2206Z" fill="#7BA44B"/>
<path d="M60.9737 45.9653L65.085 46.3083C65.0369 48.0863 65.0438 50.8654 64.7756 52.5403L64.5418 52.9342L60.1693 52.9226C60.1143 50.0403 59.9287 48.6599 60.9737 45.9653Z" fill="#7BA44B"/>
<path d="M47.9731 11.7283C50.8468 11.7325 51.0119 11.2704 53.0812 12.5685C53.6587 14.6752 53.5281 15.6873 53.5006 17.838L54.4081 17.8393C57.6049 17.9328 57.3025 17.3904 59.1106 19.1086C60.245 22.0919 59.2894 26.0604 59.4475 29.5883L54.1537 29.9183L53.6312 30.9847L53.425 37.7015C53.3081 41.2541 53.5556 43.9521 51.83 47.0613L50.8125 47.7516C48.86 46.9231 48.6675 46.6364 47.8356 44.3846L47.9388 43.1979L47.7394 35.8314C47.8425 33.5494 48.1037 32.1681 47.2169 30.0669C44.955 28.9737 45.1681 29.3931 42.2943 29.7046L41.9919 25.3758L42.3081 23.4485L41.8543 23.0462L41.82 17.8888C41.82 15.8186 41.8475 14.9351 42.1775 12.8965C44.3294 11.3467 44.8037 11.8631 47.9731 11.7283Z" fill="#2B5121"/>
<path d="M47.9388 43.1979C48.5231 38.9942 47.4094 31.4375 50.6132 29.2524C52.2632 29.6636 52.4349 29.7657 53.6312 30.9847L53.425 37.7015C53.3081 41.2541 53.5556 43.9521 51.83 47.0613L50.8125 47.7516C48.86 46.9231 48.6675 46.6364 47.8356 44.3846L47.9388 43.1979Z" fill="#203F1D"/>
<path d="M47.9731 11.7283L47.7806 15.7975L47.8837 23.5064L42.3081 23.4485L41.8543 23.0462L41.82 17.8888C41.82 15.8186 41.8475 14.9351 42.1775 12.8965C44.3294 11.3467 44.8037 11.8631 47.9731 11.7283Z" fill="#84AD4F"/>
<path d="M47.9731 11.7283C50.8468 11.7325 51.0119 11.2704 53.0812 12.5685C53.6587 14.6752 53.5281 15.6873 53.5006 17.838L53.4044 22.9673C50.8606 23.1426 50.5581 22.7163 48.915 24.1581C48.6881 25.8062 48.4681 27.4556 48.2619 29.1064C48.0281 27.437 47.9731 25.2342 47.8837 23.5064L47.7806 15.7975L47.9731 11.7283Z" fill="#648D3F"/>
<path d="M47.9731 11.7283C50.8468 11.7325 51.0119 11.2704 53.0812 12.5685C53.6587 14.6752 53.5281 15.6873 53.5006 17.838C50.2143 18.1742 49.4512 18.7849 47.7806 15.7975L47.9731 11.7283Z" fill="#182D19"/>
<path d="M54.4081 17.8393C57.6049 17.9328 57.3025 17.3904 59.1106 19.1086C60.245 22.0919 59.2894 26.0604 59.4475 29.5883L54.1537 29.9183C53.8374 26.6332 54.2499 21.2854 54.4081 17.8393Z" fill="#182D19"/>
<path d="M48.2619 29.1064C48.4681 27.4556 48.6881 25.8062 48.915 24.1581C50.5581 22.7163 50.8606 23.1426 53.4044 22.9673C53.3494 25.6398 53.7824 26.687 52.5174 28.6513C50.6474 29.1457 50.2006 29.1257 48.2619 29.1064Z" fill="#7BA44B"/>
<path d="M53.425 37.7015C53.6794 41.0595 53.8581 43.402 53.7274 46.7538C53.5074 49.0881 53.315 50.6028 53.5281 52.9528C53.4938 55.1612 53.0881 57.1778 53.9956 58.8919C55.7831 59.0026 57.9969 58.9531 59.5438 59.6957L59.6056 65.0992L59.5162 70.4291C56.7869 70.7901 48.9906 70.8829 47.8494 71.1283L47.3543 70.513C47.6706 67.2856 48.5162 62.9432 47.155 60.1786C44.9206 58.2032 45.6218 58.7773 42.4524 58.142L41.8749 57.1794C42.0743 54.9194 41.71 54.4251 43.0093 52.9936C44.9412 53.2714 45.2712 53.4742 46.9006 52.6072C48.86 49.9677 48.1725 47.7358 47.8356 44.3846C48.6675 46.6364 48.86 46.9231 50.8125 47.7516L51.83 47.0613C53.5556 43.9521 53.3081 41.2541 53.425 37.7015Z" fill="#2B5121"/>
<path d="M53.9956 58.8919C55.7831 59.0026 57.9969 58.9531 59.5438 59.6957L59.6056 65.0992L59.5162 70.4291C55.4256 69.7264 52.5725 71.0371 49.3963 69.7562C47.6569 67.5484 48.2275 67.6846 48.1381 64.2434C50.0425 64.1237 51.3556 64.013 53.2669 63.7194C54.6831 61.8259 54.1606 61.9007 53.9956 58.8919Z" fill="#182D19"/>
<path d="M53.9956 58.8919C55.7831 59.0026 57.9969 58.9531 59.5438 59.6957L59.6056 65.0992C58.485 64.8352 50.0975 64.4166 48.1381 64.2434C50.0425 64.1237 51.3556 64.013 53.2669 63.7194C54.6831 61.8259 54.1606 61.9007 53.9956 58.8919Z" fill="#203F1D"/>
<path d="M8.76496 81.9127L8.19432 82.22L7.15619 81.5889C6.86882 76.0437 5.92077 70.7007 7.71034 65.5213C9.47309 64.1249 9.67932 64.6055 12.3606 64.6516L12.7387 64.8249C15.4131 64.7472 18.3075 64.609 20.9612 64.6241C23.6425 65.5344 23.5806 65.0452 25.0243 66.969C23.4087 69.0378 20.4318 68.6377 18.0737 69.7474L18.3693 75.5634L18.4174 82.0172L12.7525 81.7387L8.76496 81.9127Z" fill="#7BA44B"/>
<path d="M8.76496 81.9127L8.19432 82.22L7.15619 81.5889C6.86882 76.0437 5.92077 70.7007 7.71034 65.5213C9.47309 64.1249 9.67932 64.6055 12.3606 64.6516L12.7387 64.8249L12.7525 81.7387L8.76496 81.9127Z" fill="#182D19"/>
<path d="M29.6168 23.5L30.0843 23.2607L36.1206 23.5137C36.1343 27.4809 36.0381 32.2382 36.2168 36.14L30.7168 35.4834C28.1249 35.2049 27.3 35.5625 25.4987 34.1619L25.0381 30.1322C24.0137 32.0003 24.3849 32.4155 24.4399 34.7422L18.2043 34.4645L18.2112 30.9242C16.7743 29.248 15.6124 29.7072 12.7868 29.4143C14.3199 29.2672 16.5199 29.2672 18.1149 29.2149C18.1424 27.2341 18.2318 26.5018 18.5962 24.5533C20.5556 23.1638 21.58 23.6671 24.4056 23.6396L29.6168 23.5Z" fill="#2B5121"/>
<path d="M24.4056 23.6396L24.4193 29.2658C26.2 29.3401 28.4275 29.3621 30.1531 29.5773L25.0381 30.1322C24.0137 32.0003 24.3849 32.4155 24.4399 34.7422L18.2043 34.4645L18.2112 30.9242C16.7743 29.248 15.6124 29.7072 12.7868 29.4143C14.3199 29.2672 16.5199 29.2672 18.1149 29.2149C18.1424 27.2341 18.2318 26.5018 18.5962 24.5533C20.5556 23.1638 21.58 23.6671 24.4056 23.6396Z" fill="#557C37"/>
<path d="M24.4056 23.6396L24.4193 29.2658L18.1149 29.2149C18.1424 27.2341 18.2318 26.5018 18.5962 24.5533C20.5556 23.1638 21.58 23.6671 24.4056 23.6396Z" fill="#182D19"/>
<path d="M24.4056 23.6396L29.6168 23.5C30.0431 26.0419 30.1462 26.9831 30.1531 29.5773C28.4275 29.3621 26.2 29.3401 24.4193 29.2658L24.4056 23.6396Z" fill="#B6C8D4"/>
<path d="M18.3693 75.5634L21.0368 75.9121C25.4231 77.6482 23.78 78.113 24.5156 82.1964L30.1187 82.0619C30.3937 84.2744 30.5587 85.8153 30.6206 88.0615C30.5862 89.5556 30.435 92.4522 30.5038 93.8349L24.5087 93.8287C21.8893 93.883 21.4837 93.8356 18.9469 93.1679L18.4381 93.1776L18.1974 88.2822L18.4174 82.0172L18.3693 75.5634Z" fill="#648D3F"/>
<path d="M18.3693 75.5634L21.0368 75.9121C25.4231 77.6482 23.78 78.113 24.5156 82.1964C22.0406 82.1242 20.8993 81.6312 19.1531 82.7828C18.8643 84.8558 18.9125 85.6183 19.0362 87.7167L18.9469 93.1679L18.4381 93.1776L18.1974 88.2822L18.4174 82.0172L18.3693 75.5634Z" fill="#557C37"/>
<path d="M19.0362 87.7167C22.02 88.0234 22.1575 87.5561 24.1581 89.1278C24.385 90.9176 24.4812 92.0252 24.5087 93.8287C21.8893 93.883 21.4837 93.8356 18.9469 93.1679L19.0362 87.7167Z" fill="#182D19"/>
<path d="M12.7868 29.4143C15.6124 29.7072 16.7743 29.248 18.2112 30.9242L18.2043 34.4645L24.4399 34.7422L24.4881 41.211L23.9724 46.9809C21.1537 46.9376 20.8237 46.4151 19.0499 47.8596C18.8231 49.5572 18.6306 51.2587 18.4793 52.9645L18.2318 47.1932C16.3068 47.167 15.7087 47.2681 13.9212 46.6514C11.5356 43.512 12.7318 34.0938 12.7868 29.4143Z" fill="#243D23"/>
<path d="M18.2043 34.4645L24.4399 34.7422L24.4881 41.211L23.9724 46.9809C21.1537 46.9376 20.8237 46.4151 19.0499 47.8596C18.8231 49.5572 18.6306 51.2587 18.4793 52.9645L18.2318 47.1932C18.4656 44.3955 18.2318 37.5536 18.2043 34.4645Z" fill="#648D3F"/>
<path d="M24.4399 34.7422C24.3849 32.4155 24.0137 32.0003 25.0381 30.1322L25.4987 34.1619C27.3 35.5625 28.1249 35.2049 30.7168 35.4834C30.7168 37.7572 30.3043 38.6085 31.4043 40.1823C32.8481 40.3522 35.2474 40.4161 36.2649 41.2535L35.8387 47.0056L30.5656 46.8097L29.9537 46.7114C27.8431 46.7808 26.3993 46.7382 24.3162 47.2477L23.9724 46.9809L24.4881 41.211L24.4399 34.7422Z" fill="#385F2A"/>
<path d="M24.4881 41.211C27.0318 41.356 28.0493 40.938 29.6856 42.2911C29.8162 43.8353 29.94 45.1541 29.9537 46.7114C27.8431 46.7808 26.3993 46.7382 24.3162 47.2477L23.9724 46.9809L24.4881 41.211Z" fill="#557C37"/>
<path d="M30.5656 46.8097C30.5106 45.1142 30.5655 44.0472 30.6962 42.3551C32.5662 40.8377 33.3637 41.3477 36.2649 41.2535L35.8387 47.0056L30.5656 46.8097Z" fill="#2B5121"/>
<path d="M24.3093 64.5787L30.325 64.7544C30.2425 66.5043 30.0774 68.58 30.1118 70.301C30.2287 73.2856 30.7099 73.3571 29.4449 75.5656C27.3962 76.2944 26.5506 76.0386 24.3987 75.8193L21.0368 75.9121L18.3693 75.5634L18.0737 69.7474C20.4318 68.6377 23.4087 69.0378 25.0243 66.969C23.5806 65.0452 23.6425 65.5344 20.9612 64.6241L24.3093 64.5787Z" fill="#648D3F"/>
<path d="M30.1118 70.301C30.2287 73.2856 30.7099 73.3571 29.4449 75.5656C27.3962 76.2944 26.5506 76.0386 24.3987 75.8193C24.2681 73.9663 24.1581 72.1111 24.0687 70.2554L30.1118 70.301Z" fill="#2B5121"/>
<path d="M18.0737 69.7474C20.1087 70.0004 22.0131 70.3124 24.0687 70.2554C24.1581 72.1111 24.2681 73.9663 24.3987 75.8193L21.0368 75.9121L18.3693 75.5634L18.0737 69.7474Z" fill="#466E2F"/>
<path d="M24.5018 53.0546C27.7262 52.9446 27.5543 52.4475 29.9124 53.8515C31.4731 56.5687 30.5518 61.307 30.325 64.7544L24.3093 64.5787L24.4744 58.762L24.5018 53.0546Z" fill="#243D23"/>
<path d="M41.8543 23.0462L42.3081 23.4485L41.9919 25.3758C40.3006 28.9641 42.6175 32.8454 40.7269 35.9394C38.6437 36.7796 38.5956 36.4185 36.2168 36.14C36.0381 32.2382 36.1343 27.4809 36.1206 23.5137C38.5749 23.6368 39.5099 23.4381 41.8543 23.0462Z" fill="#466E2F"/>
<path d="M42.2943 29.7046C45.1681 29.3931 44.955 28.9737 47.2169 30.0669C48.1037 32.1681 47.8425 33.5494 47.7394 35.8314C45.67 36.048 45.0787 36.1815 43.0712 35.7235C41.6618 33.4608 42.2187 32.8935 42.2943 29.7046Z" fill="#385F2A"/>
<path d="M30.5243 81.859C30.4006 78.1029 29.7749 78.4291 31.6449 76.1994C33.9137 75.4575 32.9443 75.4211 35.2818 76.4545C36.9799 78.896 36.4575 78.2432 36.1619 81.8742L30.5243 81.859Z" fill="#2B5121"/>
<path d="M30.5656 46.8097L35.8387 47.0056L36.1137 47.355L36.1619 52.4071L30.4418 52.3205L29.9537 46.7114L30.5656 46.8097Z" fill="#466E2F"/>
<path d="M18.4793 52.9645C18.6306 51.2587 18.8231 49.5572 19.0499 47.8596C20.8237 46.4151 21.1537 46.9376 23.9724 46.9809L24.3162 47.2477L24.5156 52.3945L18.4793 52.9645Z" fill="#182D19"/>
<path d="M24.3162 47.2477C26.3993 46.7382 27.8431 46.7808 29.9537 46.7114L30.4418 52.3205C28.6268 52.2724 26.365 52.365 24.5156 52.3945L24.3162 47.2477Z" fill="#648D3F"/>
<path d="M36.1137 47.355C39.2693 46.9438 38.5406 46.5883 41.1118 47.7901C42.1843 49.7387 42.0468 48.8483 41.5106 51.1495C39.6131 52.9977 38.9325 52.6058 36.1619 52.4071L36.1137 47.355Z" fill="#2B5121"/>
<path d="M18.4381 93.1776L18.9469 93.1679C21.4837 93.8356 21.8893 93.883 24.5087 93.8287L30.5038 93.8349C30.655 95.758 30.765 98.4745 31.15 100.301L30.3524 101.173L29.8025 105.891C31.7069 105.882 34.3125 105.939 36.1481 105.803L36.1343 117.289L36.0725 122.983C34.835 123.049 31.1637 123.174 30.1394 123.37L30.1256 127.651L29.7543 128.396C28.4687 128.167 25.8562 128.27 24.44 128.276L23.0512 129.061L18.6237 129.331C17.7781 128.166 17.6337 124.716 17.455 123.087C16.1625 123.99 14.4094 123.831 13.2956 122.71C12.1887 121.589 12.0443 119.832 12.9656 118.548C11.3706 117.87 8.7031 117.598 6.90941 117.325C7.06548 111.259 5.77572 106.412 7.65465 100.863C9.50747 99.1614 9.52122 99.7066 12.6837 99.5031L12.9037 94.0164C14.8012 93.7984 16.5612 93.4952 18.4381 93.1776Z" fill="#466E2F"/>
<path d="M29.8025 105.891C31.7069 105.882 34.3125 105.939 36.1481 105.803L36.1343 117.289L36.0725 122.983C34.835 123.049 31.1637 123.174 30.1394 123.37L30.1256 127.651L29.7543 128.396C28.4687 128.167 25.8562 128.27 24.44 128.276L24.4331 123.982L23.0168 122.407L23.8419 121.999C24.5225 119.138 24.4056 113.983 23.5737 111.126C23.7731 110.962 23.9587 110.774 24.1169 110.566C26.4062 110.796 26.97 110.809 29.2456 110.528C30.545 108.928 30.0087 108.525 29.8025 105.891Z" fill="#486E37"/>
<path d="M24.4331 123.982C26.0418 124.111 28.4687 123.625 30.1394 123.37L30.1256 127.651L29.7543 128.396C28.4687 128.167 25.8562 128.27 24.44 128.276L24.4331 123.982Z" fill="#557C37"/>
<path d="M6.90941 117.325C7.06548 111.259 5.77572 106.412 7.65465 100.863C9.50747 99.1614 9.52122 99.7066 12.6837 99.5031C12.7662 104.484 14.1068 113.566 11.3156 116.804C9.54185 117.176 8.71685 117.235 6.90941 117.325Z" fill="#182D19"/>
<path d="M18.4381 93.1776L18.9469 93.1679C21.4837 93.8356 21.8893 93.883 24.5087 93.8287L30.5038 93.8349C30.655 95.758 30.765 98.4745 31.15 100.301L30.3524 101.173L29.2387 100.013L25.4919 99.9975C23.7869 98.5742 24.66 97.9059 24.1375 94.662C21.8412 94.0941 21.5525 94.0618 19.2768 94.6772L19.2287 95.9038C17.3793 93.9456 15.7981 94.3375 12.9037 94.0164C14.8012 93.7984 16.5612 93.4952 18.4381 93.1776Z" fill="#385F2A"/>
<path d="M23.5737 111.126C22.2193 112.214 20.2531 112.061 19.0843 110.775C17.9225 109.49 17.9568 107.518 19.1668 106.276C20.3837 105.034 22.3499 104.952 23.6631 106.089C24.9762 107.226 25.1756 109.188 24.1169 110.566C23.9587 110.774 23.7731 110.962 23.5737 111.126Z" fill="#385F2A"/>
<path d="M12.9656 118.548C13.7149 117.496 15.0144 116.99 16.2794 117.259C17.5375 117.528 18.5206 118.52 18.7819 119.786C19.0362 121.051 18.5137 122.348 17.455 123.087C16.1625 123.99 14.4094 123.831 13.2956 122.71C12.1887 121.589 12.0443 119.832 12.9656 118.548Z" fill="#203F1D"/>
<path d="M23.0168 122.407L24.4331 123.982L24.44 128.276L23.0512 129.061L18.6237 129.331L18.995 124.47C20.3631 122.688 20.5212 123.101 23.0168 122.407Z" fill="#182D19"/>
<path d="M12.9037 94.0164C15.7981 94.3375 17.3793 93.9456 19.2287 95.9038C18.7612 98.5673 18.6169 98.901 16.3825 100.09L14.6569 99.4538C12.6769 97.0584 13.2681 97.5999 12.9037 94.0164Z" fill="#243D23"/>
<path d="M64.7756 52.5403C66.8588 52.4337 69.54 52.376 71.5612 52.169L72.7575 52.8181L76.0369 53.111C77.8175 55.5112 77.7006 91.7385 76.4012 93.4828C74.5656 93.6396 73.4312 93.6891 71.6162 94.1519C69.4025 100.441 73.9537 106.943 70.0969 111.253C68.2269 111.821 67.6631 111.741 65.6762 111.768C65.6693 115.137 65.8343 120.054 65.2293 123.239C64.9131 120.566 65.0644 114.318 65.0231 111.284L64.7962 105.326C64.8237 100.926 64.15 92.7325 66.2331 89.1723C66.9825 87.8907 69.0312 87.8763 70.7087 87.5421L66.6043 87.3524C64.8718 85.7215 65.3875 84.6682 65.1331 81.656C65.6694 78.7524 65.745 71.6211 65.6419 68.7072C65.69 65.1058 65.4563 62.8616 65.0506 59.2623L60.2106 59.1681L60.2313 59.8653L59.5438 59.6957C57.9969 58.9531 55.7831 59.0026 53.9956 58.8919C53.0881 57.1778 53.4938 55.1612 53.5281 52.9528L59.4818 52.9748L60.1693 52.9226L64.5418 52.9342L64.7756 52.5403Z" fill="#141C1B"/>
<path d="M64.7756 52.5403C66.8588 52.4337 69.54 52.376 71.5612 52.169L72.7575 52.8181L71.19 53.1472L71.1075 58.42C71.2175 68.0767 71.2519 77.7342 71.2037 87.3909L70.7087 87.5421L66.6043 87.3524C64.8718 85.7215 65.3875 84.6682 65.1331 81.656C65.6694 78.7524 65.745 71.6211 65.6419 68.7072C65.69 65.1058 65.4563 62.8616 65.0506 59.2623L60.2106 59.1681L60.2313 59.8653L59.5438 59.6957C57.9969 58.9531 55.7831 59.0026 53.9956 58.8919C53.0881 57.1778 53.4938 55.1612 53.5281 52.9528L59.4818 52.9748L60.1693 52.9226L64.5418 52.9342L64.7756 52.5403Z" fill="#648D3F"/>
<path d="M53.5281 52.9528L59.4818 52.9748C59.5368 54.8271 59.3994 57.0468 60.1212 58.6729L60.2106 59.1681L60.2313 59.8653L59.5438 59.6957C57.9969 58.9531 55.7831 59.0026 53.9956 58.8919C53.0881 57.1778 53.4938 55.1612 53.5281 52.9528Z" fill="#486E37"/>
<path d="M60.1693 52.9226L64.5418 52.9342C65.0162 54.8312 65.5868 56.0416 64.8443 57.7653C63.27 58.9177 62.115 58.6757 60.1212 58.6729C59.3994 57.0468 59.5368 54.8271 59.4818 52.9748L60.1693 52.9226Z" fill="#203F1D"/>
<path d="M71.1075 58.42C68.0206 58.4826 68.3987 58.9354 66.1093 57.5321C65.2362 55.2969 65.2156 56.2155 66.1368 54.1019C68.3918 52.6443 68.0481 53.1217 71.19 53.1472L71.1075 58.42Z" fill="#84AD4F"/>
<path d="M71.2037 87.3909C71.3481 89.6474 71.7262 91.2891 70.6744 93.2094C67.6906 93.2851 68.4675 92.8471 66.3225 94.4326C65.0919 97.649 65.4562 108.036 65.6762 111.768C65.6693 115.137 65.8343 120.054 65.2293 123.239C64.9131 120.566 65.0644 114.318 65.0231 111.284L64.7962 105.326C64.8237 100.926 64.15 92.7325 66.2331 89.1723C66.9825 87.8907 69.0312 87.8763 70.7087 87.5421L71.2037 87.3909Z" fill="#466E2F"/>
<path d="M60.2106 59.1681L65.0506 59.2623C65.4563 62.8616 65.69 65.1058 65.6419 68.7072C65.745 71.6211 65.6694 78.7524 65.1331 81.656C62.1013 81.898 61.84 81.4283 59.7362 82.9609C59.3581 85.2752 59.4062 85.9414 59.5231 88.2206L58.925 88.1952C56.2575 88.068 55.9756 87.5798 54.1194 88.8442L53.7206 89.9526L53.4524 88.803C51.6512 87.7318 50.6956 88.0969 48.3444 88.0426L48.31 87.6321C48.0212 86.455 47.9387 83.3727 47.8699 82.0203L42.3081 81.9054C42.4318 78.1782 42.4181 77.1768 41.7169 73.5417C41.6344 72.4223 41.7581 72.1329 41.9368 71.0369C44.0199 69.7725 44.3912 70.3129 47.3543 70.513L47.8494 71.1283C48.9906 70.8829 56.7869 70.7901 59.5162 70.4291L59.6056 65.0992L59.5438 59.6957L60.2313 59.8653L60.2106 59.1681Z" fill="#84AD4F"/>
<path d="M65.6419 68.7072C65.745 71.6211 65.6694 78.7524 65.1331 81.656C62.1013 81.898 61.84 81.4283 59.7362 82.9609C59.3581 85.2752 59.4062 85.9414 59.5231 88.2206L58.925 88.1952C56.2575 88.068 55.9756 87.5798 54.1194 88.8442L53.7206 89.9526L53.4524 88.803C51.6512 87.7318 50.6956 88.0969 48.3444 88.0426L48.31 87.6321C50.2968 87.7304 51.2456 88.0122 52.8269 86.8812C54.2156 84.0498 53.4044 79.2418 53.2669 75.7009C57.3369 75.5743 60.8225 75.3144 64.8581 76.0481C64.8237 72.7313 64.81 71.883 65.6419 68.7072Z" fill="#7BA44B"/>
<path d="M65.6419 68.7072C65.745 71.6211 65.6694 78.7524 65.1331 81.656C62.1013 81.898 61.84 81.4283 59.7362 82.9609C59.3581 85.2752 59.4062 85.9414 59.5231 88.2206L58.925 88.1952C59.035 85.7661 59.3925 83.5019 58.1481 81.6633L54.7794 81.0707C55.9412 81.9982 57.6256 81.8538 58.6156 80.7427C59.6056 79.6316 59.5506 77.9409 58.4919 76.8937C61.235 76.913 62.2044 76.6359 64.8581 76.0481C64.8237 72.7313 64.81 71.883 65.6419 68.7072Z" fill="#6A953F"/>
<path d="M54.7794 81.0707C53.9681 80.425 53.5762 79.3834 53.7687 78.3644C53.9612 77.3454 54.6968 76.5155 55.6868 76.2075C56.6768 75.8988 57.7562 76.1629 58.4919 76.8937C59.5506 77.9409 59.6056 79.6316 58.6156 80.7427C57.6256 81.8538 55.9412 81.9982 54.7794 81.0707Z" fill="#557C37"/>
<path d="M47.3543 70.513L47.8494 71.1283L47.8699 82.0203L42.3081 81.9054C42.4318 78.1782 42.4181 77.1768 41.7169 73.5417C41.6344 72.4223 41.7581 72.1329 41.9368 71.0369C44.0199 69.7725 44.3912 70.3129 47.3543 70.513Z" fill="#2B5121"/>
<path d="M60.2106 59.1681L65.0506 59.2623C64.7481 62.9579 65.9513 66.9814 62.6375 69.6099L61.4206 69.108C59.7294 66.6527 60.19 62.96 60.2313 59.8653L60.2106 59.1681Z" fill="#7BA44B"/>
<path d="M41.7169 73.5417C42.4181 77.1768 42.4318 78.1782 42.3081 81.9054C42.1706 87.3481 42.4456 94.3612 42.1431 99.4168C41.93 101.472 41.9918 102.504 40.9468 104.299C38.7606 105.541 39.4824 105.584 37.6468 105.085C35.8249 102.911 36.3887 103.178 36.1343 99.7778C33.8656 99.6444 33.3087 99.8132 31.15 100.301C30.765 98.4745 30.655 95.758 30.5038 93.8349C30.435 92.4522 30.5862 89.5556 30.6206 88.0615C30.5587 85.8153 30.3937 84.2744 30.1187 82.0619L30.5243 81.859L36.1619 81.8742L36.6913 82.2475C38.6507 82.2846 38.9806 82.2908 40.8506 81.7181C42.2875 79.4072 41.7375 76.6377 41.7169 73.5417Z" fill="#385F2A"/>
<path d="M30.6206 88.0615C33.6662 88.1158 33.8449 87.6019 35.8387 89.0905C36.0999 90.8754 36.2237 92.1811 36.3337 93.9825L36.1343 99.7778C33.8656 99.6444 33.3087 99.8132 31.15 100.301C30.765 98.4745 30.655 95.758 30.5038 93.8349C30.435 92.4522 30.5862 89.5556 30.6206 88.0615Z" fill="#557C37"/>
<path d="M30.5243 81.859L36.1619 81.8742L36.6913 82.2475C36.3957 85.7774 36.8356 91.7073 36.3337 93.9825C36.2237 92.1811 36.0999 90.8754 35.8387 89.0905C33.8449 87.6019 33.6662 88.1158 30.6206 88.0615C30.5587 85.8153 30.3937 84.2744 30.1187 82.0619L30.5243 81.859Z" fill="#466E2F"/>
<path d="M42.3081 81.9054L47.8699 82.0203C47.9387 83.3727 48.0212 86.455 48.31 87.6321L48.3444 88.0426C50.6956 88.0969 51.6512 87.7318 53.4524 88.803L53.7206 89.9526L53.7137 99.4538C50.613 99.8058 49.7881 99.3225 47.9799 101.047C47.9043 102.385 47.808 103.791 47.7943 105.126L43.5799 105.629C42.0949 104.538 42.2943 101.214 42.1431 99.4168C42.4456 94.3612 42.1706 87.3481 42.3081 81.9054Z" fill="#203F1D"/>
<path d="M48.3444 88.0426C50.6956 88.0969 51.6512 87.7318 53.4524 88.803L53.7206 89.9526L53.7137 99.4538C50.4893 99.2654 50.1938 99.8209 48.2757 98.1172C46.8113 95.1531 47.7944 91.4116 48.3444 88.0426Z" fill="#182D19"/>
<path d="M31.15 100.301C33.3087 99.8132 33.8656 99.6444 36.1343 99.7778C36.3887 103.178 35.8249 102.911 37.6468 105.085C39.4824 105.584 38.7606 105.541 40.9468 104.299C41.9918 102.504 41.93 101.472 42.1431 99.4168C42.2943 101.214 42.0949 104.538 43.5799 105.629C42.0399 107.194 42.3012 107.946 42.315 110.655C42.3218 110.949 42.3218 111.243 42.3287 111.537C42.2393 115.712 42.205 119.889 42.2393 124.065C40.1218 128.854 42.5831 128.844 36.0381 128.641L36.0725 122.983L36.1343 117.289L36.1481 105.803C34.3125 105.939 31.7069 105.882 29.8025 105.891L30.3524 101.173L31.15 100.301Z" fill="#2B5121"/>
<path d="M36.1481 105.803C39.5306 105.946 39.3312 105.376 41.4006 107.149C42.59 110.444 41.1737 113.563 41.5243 117.418C39.6612 117.261 37.9906 117.286 36.1343 117.289L36.1481 105.803Z" fill="#243D23"/>
<path d="M36.1343 117.289C37.9906 117.286 39.6612 117.261 41.5243 117.418C41.5037 120.38 41.9919 120.531 40.6238 122.621C38.8775 122.855 37.8325 122.957 36.0725 122.983L36.1343 117.289Z" fill="#203F1D"/>
<path d="M36.0381 128.641C42.5831 128.844 40.1218 128.854 42.2393 124.065C42.4112 125.976 42.5487 126.788 42.26 128.746L47.7806 128.794C47.8287 130.622 47.8218 132.955 47.9937 134.728L48.4268 134.946C47.8012 138.644 48.3512 138.927 46.0893 140.825C43.1743 141.77 39.5512 140.919 36.1412 141.001L36.1275 134.923L36.0381 128.641Z" fill="#14191C"/>
<path d="M36.0381 128.641C42.5831 128.844 40.1218 128.854 42.2393 124.065C42.4112 125.976 42.5487 126.788 42.26 128.746C41.8269 131.323 41.6756 132.36 41.6619 134.978L36.1275 134.923L36.0381 128.641Z" fill="#648D3F"/>
<path d="M42.26 128.746L47.7806 128.794C47.8287 130.622 47.8218 132.955 47.9937 134.728C46.1856 134.892 43.5387 134.91 41.6619 134.978C41.6756 132.36 41.8269 131.323 42.26 128.746Z" fill="#466E2F"/>
<path d="M65.0231 111.284C65.0644 114.318 64.9131 120.566 65.2293 123.239C62.2937 123.242 62.0668 122.784 59.8668 124.064C60.0525 128.033 59.3237 130.068 54.4906 129.905C53.7481 132.005 53.6999 133.01 53.4593 135.165L48.4268 134.946L47.9937 134.728C47.8218 132.955 47.8287 130.622 47.7806 128.794L53.2943 128.694C53.4043 126.907 53.5487 125.547 53.8031 123.774C55.5425 122.413 56.8556 122.977 59.585 123.033L59.5231 111.997C61.4963 111.636 63.0019 111.28 65.0231 111.284Z" fill="#141C1B"/>
<path d="M47.7806 128.794L53.2943 128.694C53.1568 131.145 52.9574 132.748 53.4593 135.165L48.4268 134.946L47.9937 134.728C47.8218 132.955 47.8287 130.622 47.7806 128.794Z" fill="#14191C"/>
<path d="M59.5231 88.2206C59.4062 85.9414 59.3581 85.2752 59.7362 82.9609C61.84 81.4283 62.1013 81.898 65.1331 81.656C65.3875 84.6682 64.8718 85.7215 66.6043 87.3524L70.7087 87.5421C69.0312 87.8763 66.9825 87.8907 66.2331 89.1723C64.15 92.7325 64.8237 100.926 64.7962 105.326C63.5381 105.432 60.6781 105.585 59.5712 105.793L59.4406 105.331L59.5231 88.2206Z" fill="#557C37"/>
<path d="M53.8169 110.789C55.7694 111.939 57.3231 113.546 59.5231 111.997L59.585 123.033C56.8556 122.977 55.5425 122.413 53.8031 123.774C53.5487 125.547 53.4043 126.907 53.2943 128.694L47.7806 128.794C47.6431 122.615 46.0413 118.094 52.8269 116.461C54.2844 114.28 53.7687 113.907 53.8169 110.789Z" fill="#557C37"/>
<path d="M59.5712 105.793C60.6781 105.585 63.5381 105.432 64.7962 105.326L65.0231 111.284C63.0019 111.28 61.4963 111.636 59.5231 111.997C57.3231 113.546 55.7694 111.939 53.8169 110.789C53.7412 108.888 53.8237 108.189 54.0918 106.3C55.9481 104.887 56.6631 105.38 59.4406 105.331L59.5712 105.793Z" fill="#648D3F"/>
<path d="M59.5712 105.793C60.6781 105.585 63.5381 105.432 64.7962 105.326L65.0231 111.284C63.0019 111.28 61.4963 111.636 59.5231 111.997L59.5712 105.793Z" fill="#486E37"/>
<path d="M47.7943 105.126C48.0349 108.318 48.6056 108.733 47.3131 111.084C45.2781 111.781 44.4531 111.614 42.3287 111.537C42.3218 111.243 42.3218 110.949 42.315 110.655C42.3012 107.946 42.0399 107.194 43.5799 105.629L47.7943 105.126Z" fill="#385F2A"/>
<path d="M30.1394 123.37C31.1637 123.174 34.835 123.049 36.0725 122.983L36.0381 128.641L36.1275 134.923L36.1412 141.001L36.093 146.793C34.058 146.965 31.6449 146.809 30.1874 147.807C30.2355 150.787 30.8887 155.618 29.2731 157.718C27.465 158.672 26.4474 158.549 24.4124 158.644L24.2749 158.311L18.3349 158.321L12.6768 158.281C13.2543 155.786 13.1512 155.222 12.9037 152.782C12.7662 150.976 12.8418 148.628 12.8418 146.772C14.8974 146.675 16.1899 146.851 17.8262 145.674C19.0981 143.756 18.5343 138.567 18.7956 135.32C20.4868 134.948 22.8312 135.111 24.6256 135.143C24.5774 132.481 25.0381 130.718 23.0512 129.061L24.44 128.276C25.8562 128.27 28.4687 128.167 29.7543 128.396L30.1256 127.651L30.1394 123.37Z" fill="#203F1D"/>
<path d="M30.1394 123.37C31.1637 123.174 34.835 123.049 36.0725 122.983L36.0381 128.641L36.1275 134.923L36.1412 141.001L36.093 146.793C34.058 146.965 31.6449 146.809 30.1874 147.807L29.9399 147.297C28.3037 146.208 26.7774 146.69 24.4331 146.75L24.4881 141.76C24.5087 140.025 24.4606 138.532 24.3781 136.8C22.4943 135.159 21.8275 135.633 18.7956 135.32C20.4868 134.948 22.8312 135.111 24.6256 135.143C24.5774 132.481 25.0381 130.718 23.0512 129.061L24.44 128.276C25.8562 128.27 28.4687 128.167 29.7543 128.396L30.1256 127.651L30.1394 123.37Z" fill="#486E37"/>
<path d="M30.1394 123.37C31.1637 123.174 34.835 123.049 36.0725 122.983L36.0381 128.641L36.1275 134.923C34.1062 134.995 33.3638 135.086 31.3631 134.556C29.9469 132.56 30.2906 130.424 30.1256 127.651L30.1394 123.37Z" fill="#203F1D"/>
<path d="M24.4881 141.76C26.4131 141.575 28.2487 141.434 30.1531 141.078L36.1412 141.001L36.093 146.793C34.058 146.965 31.6449 146.809 30.1874 147.807L29.9399 147.297C28.3037 146.208 26.7774 146.69 24.4331 146.75L24.4881 141.76Z" fill="#486E37"/>
<path d="M30.1531 141.078L36.1412 141.001L36.093 146.793C34.4843 146.631 32.8824 146.431 31.2874 146.194C29.7887 144.305 30.2837 144.03 30.1531 141.078Z" fill="#14191C"/>
<path d="M24.44 128.276C25.8562 128.27 28.4687 128.167 29.7543 128.396C29.7818 131.61 30.3456 132.444 28.9087 134.725C27.0112 135.167 26.5781 135.177 24.6256 135.143C24.5774 132.481 25.0381 130.718 23.0512 129.061L24.44 128.276Z" fill="#648D3F"/>
<path d="M24.4331 146.75C26.7774 146.69 28.3037 146.208 29.9399 147.297L30.1874 147.807C30.2355 150.787 30.8887 155.618 29.2731 157.718C27.465 158.672 26.4474 158.549 24.4124 158.644L24.2749 158.311L24.3918 153.162L24.4331 146.75Z" fill="#141C1B"/>
<path d="M18.7956 135.32C21.8275 135.633 22.4943 135.159 24.3781 136.8C24.4606 138.532 24.5087 140.025 24.4881 141.76L24.4331 146.75C22.3224 146.805 21.36 147.064 19.655 145.879C18.555 143.689 19.05 138.618 18.7956 135.32Z" fill="#243D23"/>
<path d="M18.7956 135.32C19.05 138.618 18.555 143.689 19.655 145.879C21.36 147.064 22.3224 146.805 24.4331 146.75L24.3918 153.162C22.7075 153.199 21.7381 153.085 20.0537 152.903C18.4656 150.693 18.9194 150.209 18.5962 147.086L12.8418 146.772C14.8974 146.675 16.1899 146.851 17.8262 145.674C19.0981 143.756 18.5343 138.567 18.7956 135.32Z" fill="#557C37"/>
<path d="M18.5962 147.086C18.9194 150.209 18.4656 150.693 20.0537 152.903C21.7381 153.085 22.7075 153.199 24.3918 153.162L24.2749 158.311L18.3349 158.321C18.2387 154.199 18.1287 151.23 18.5962 147.086Z" fill="#466E2F"/>
<path d="M12.6768 158.281L18.3349 158.321C18.3624 160.004 18.335 162.595 18.4587 164.198L18.7887 164.426C18.5069 167.658 19.0431 167.58 17.3106 169.625C14.6156 170.881 10.3187 169.972 7.03729 170.049C7.49035 168.007 7.35077 166.509 7.30127 164.436C7.1624 162.847 7.1954 160.028 7.16515 158.34L12.6768 158.281Z" fill="#557C37"/>
<path d="M18.4587 164.198L18.7887 164.426C18.5069 167.658 19.0431 167.58 17.3106 169.625C14.6156 170.881 10.3187 169.972 7.03729 170.049C7.49035 168.007 7.35077 166.509 7.30127 164.436C10.7656 164.367 15.0625 164.39 18.4587 164.198Z" fill="#14191C"/>
<path d="M12.3606 64.6516C12.4774 62.5669 12.2918 60.9872 13.5568 59.4437C16.025 57.9702 21.1537 58.6692 24.4744 58.762L24.3093 64.5787L20.9612 64.6241C18.3075 64.609 15.4131 64.7472 12.7387 64.8249L12.3606 64.6516Z" fill="#203F1D"/>
<path d="M7.03729 170.049C6.82142 168.314 6.56978 166.583 6.28309 164.858C3.39284 164.221 1.40181 163.937 0 161.191C1.69262 157.532 3.19963 158.351 6.78701 158.341L7.16515 158.34C7.1954 160.028 7.1624 162.847 7.30127 164.436C7.35077 166.509 7.49035 168.007 7.03729 170.049Z" fill="#182D19"/>
<path d="M24.2749 158.311L24.4124 158.644C24.3987 161.77 24.9487 162.124 23.4362 164.156C21.5937 164.381 20.645 164.453 18.7887 164.426L18.4587 164.198C18.335 162.595 18.3624 160.004 18.3349 158.321L24.2749 158.311Z" fill="#141C1B"/>
<path d="M6.78701 158.341C6.67219 156.212 6.64197 155.734 7.07509 153.656C9.28747 152.279 9.83746 152.789 12.9037 152.782C13.1512 155.222 13.2543 155.786 12.6768 158.281L7.16515 158.34L6.78701 158.341Z" fill="#243D23"/>
<path d="M8.76496 81.9127L12.7525 81.7387L18.4174 82.0172L18.1974 88.2822L14.2924 88.0457C10.8206 84.9029 15.64 83.1771 8.76496 81.9127Z" fill="#243D23"/>
</svg>
