<svg width="148" height="101" viewBox="0 0 148 101" fill="none" xmlns="http://www.w3.org/2000/svg">
<path d="M99.5332 1.31807C102.565 -0.68822 108.244 -0.345823 111.226 1.94855C111.654 3.8187 111.618 4.29107 111.543 6.2176L117.247 6.36473L117.509 12.1457L122.448 12.3485L123.009 11.6342C123.108 9.94414 123.23 9.00495 123.536 7.33832C125.566 5.82363 126.159 6.35854 129.259 6.28772C129.15 4.22643 128.896 3.28654 129.872 1.48377C132.398 -0.332068 137.425 0.420123 140.799 0.568635C140.926 2.30403 141.139 4.32337 141.08 6.03813C142.875 6.21208 145.185 6.09041 146.349 7.03648C146.672 11.4939 146.985 25.1639 146.223 29.36C143.942 29.9121 143.33 29.9713 141.013 30.0875L140.985 35.4456C142.354 35.5405 144.814 35.3521 145.609 36.4226C148.138 39.8246 147.904 44.9875 144.681 47.6243L140.986 47.8759C141.023 49.5364 141.152 51.8342 140.958 53.4266C137.617 53.7181 136.833 53.1391 135.105 54.999L134.738 59.2247C131.109 59.1278 127.294 59.2337 123.65 59.2756L123.403 59.6524C121.72 59.1388 119.385 59.3127 117.561 59.3279L117.193 59.1608L105.197 59.2921L99.9395 59.3388L100.068 64.8819L99.8955 65.3777C98.0503 64.7609 95.7829 64.9816 93.7795 65.0174C88.5208 63.9922 81.7792 65.6197 76.3005 64.787L75.7739 64.7726C73.0314 64.545 71.5485 64.7479 68.8288 65.027C67.3658 65.0105 67.1781 64.906 65.7653 64.4529L64.987 62.8144L64.3339 64.9961C62.3071 65.016 61.6066 65.0352 59.63 64.6337C58.2887 62.833 58.6503 62.0334 58.4173 59.486C58.7321 57.1868 58.6689 55.318 58.651 53.0085L58.5486 47.6229L58.0825 47.4916L58.3025 41.9533L58.6304 41.4652C58.6758 38.1649 57.8157 33.6614 59.0601 30.9249C61.3061 29.1861 61.0909 29.7671 64.6034 29.7671C64.6756 26.8092 64.5855 25.4011 64.2493 22.4563L64.6625 19.2777C66.3462 17.5313 66.4376 18.1206 69.6971 18.0133L70.3199 17.9418L70.3633 12.1044L76.6071 10.8641C75.9045 9.82245 75.8921 8.46178 76.5748 7.40638C77.2568 6.35099 78.5032 5.80506 79.7414 6.0182C80.9796 6.23065 81.9717 7.1623 82.2625 8.38478C83.2669 12.6689 83.7063 11.9896 88.2032 12.264L88.2053 18.0209L93.6482 18.0614C93.9005 14.5515 92.8899 10.3725 94.1583 7.58446C96.3418 5.82363 96.1431 6.38468 99.5394 6.2121L99.5332 1.31807Z" fill="#648D3F"/>
<path d="M76.6071 10.8641C75.9045 9.82245 75.8921 8.46178 76.5748 7.40638C77.2568 6.35099 78.5032 5.80506 79.7414 6.0182C80.9796 6.23065 81.9717 7.1623 82.2625 8.38478C83.2669 12.6689 83.7063 11.9896 88.2032 12.264L88.2053 18.0209L93.6482 18.0614L93.6998 22.5842L93.6015 23.5723L93.7678 29.1917C95.719 29.4055 97.5174 29.6173 99.4857 29.7018L99.9299 29.8538L100.001 35.7826L99.5366 41.7176C96.755 42.1163 96.0276 41.7045 94.3597 43.3601L93.6709 46.0265L93.6881 47.0179L93.6606 47.548L93.7094 53.2644L99.8172 53.1165L99.9395 59.3388L100.068 64.8819L99.8955 65.3777C98.0503 64.7609 95.7829 64.9816 93.7795 65.0174C88.5208 63.9922 81.7792 65.6197 76.3005 64.787L75.7739 64.7726C73.0314 64.545 71.5485 64.7479 68.8288 65.027C67.3658 65.0105 67.1781 64.906 65.7653 64.4529L64.987 62.8144L64.3339 64.9961C62.3071 65.016 61.6066 65.0352 59.63 64.6337C58.2887 62.833 58.6503 62.0334 58.4173 59.486C58.7321 57.1868 58.6689 55.318 58.651 53.0085L58.5486 47.6229L58.0825 47.4916L58.3025 41.9533L58.6304 41.4652C58.6758 38.1649 57.8157 33.6614 59.0601 30.9249C61.3061 29.1861 61.0909 29.7671 64.6034 29.7671C64.6756 26.8092 64.5855 25.4011 64.2493 22.4563L64.6625 19.2777C66.3462 17.5313 66.4376 18.1206 69.6971 18.0133L70.3199 17.9418L70.3633 12.1044L76.6071 10.8641Z" fill="#6A953F"/>
<path d="M58.6304 41.4652C58.6758 38.1649 57.8157 33.6614 59.0601 30.9249C61.3061 29.1861 61.0909 29.7671 64.6034 29.7671L64.7828 30.2456C67.8889 30.3219 68.364 29.7671 70.2265 31.3477C70.3255 32.672 70.4554 34.0423 70.4547 35.3638L70.432 49.3294L70.3186 53.3729L75.8543 52.5692L76.4641 52.6159L76.8519 53.0147C76.7316 55.6508 76.6704 56.5488 77.0691 59.1945L76.4999 60.0333L76.3005 64.787L75.7739 64.7726C73.0314 64.545 71.5485 64.7479 68.8288 65.027C67.3658 65.0105 67.1781 64.906 65.7653 64.4529L64.987 62.8144L64.3339 64.9961C62.3071 65.016 61.6066 65.0352 59.63 64.6337C58.2887 62.833 58.6503 62.0334 58.4173 59.486C58.7321 57.1868 58.6689 55.318 58.651 53.0085L58.5486 47.6229L58.0825 47.4916L58.3025 41.9533L58.6304 41.4652Z" fill="#7BA44B"/>
<path d="M75.8543 52.5692L76.4641 52.6159L76.8519 53.0147C76.7316 55.6508 76.6704 56.5488 77.0691 59.1945L76.4999 60.0333L76.3005 64.787L75.7739 64.7726C73.0314 64.545 71.5485 64.7479 68.8288 65.027C67.3658 65.0105 67.1781 64.906 65.7653 64.4529L64.987 62.8144L64.6501 53.4201C65.8278 53.2248 68.9773 53.3537 70.3186 53.3729L75.8543 52.5692Z" fill="#466E2F"/>
<path d="M74.6615 59.6558L76.4999 60.0333L76.3005 64.787L75.7739 64.7726C73.0314 64.545 71.5485 64.7479 68.8288 65.027C68.6012 64.006 67.4813 62.7064 66.8247 61.0096L67.4407 59.9658C69.935 59.7417 72.1645 59.7039 74.6615 59.6558Z" fill="#2B5121"/>
<path d="M64.6501 53.4201C74.6546 55.0565 64.9574 59.4873 74.6615 59.6558C72.1645 59.7039 69.935 59.7417 67.4407 59.9658L66.8247 61.0096C67.4813 62.7064 68.6012 64.006 68.8288 65.027C67.3658 65.0105 67.1781 64.906 65.7653 64.4529L64.987 62.8144L64.6501 53.4201Z" fill="#385F2A"/>
<path d="M58.6304 41.4652C58.6758 38.1649 57.8157 33.6614 59.0601 30.9249C61.3061 29.1861 61.0909 29.7671 64.6034 29.7671L64.7828 30.2456C64.7313 35.4655 66.0946 44.161 63.3391 47.1973C61.3818 47.7308 60.5492 47.6483 58.5486 47.6229L58.0825 47.4916L58.3025 41.9533L58.6304 41.4652Z" fill="#203F1D"/>
<path d="M76.6071 10.8641C75.9045 9.82245 75.8921 8.46178 76.5748 7.40638C77.2568 6.35099 78.5032 5.80506 79.7414 6.0182C80.9796 6.23065 81.9717 7.1623 82.2625 8.38478C83.2669 12.6689 83.7063 11.9896 88.2032 12.264L88.2053 18.0209L93.6482 18.0614L93.6998 22.5842L93.6015 23.5723L88.1564 23.5186C86.3297 23.3261 83.9462 23.5131 82.0679 23.5894C78.5933 23.7813 78.75 23.1824 76.7405 25.0546C74.9282 29.6729 78.9618 32.2025 74.5962 35.1954L70.4547 35.3638C70.4554 34.0423 70.3255 32.672 70.2265 31.3477C68.364 29.7671 67.8889 30.3219 64.7828 30.2456L64.6034 29.7671C64.6756 26.8092 64.5855 25.4011 64.2493 22.4563L64.6625 19.2777C66.3462 17.5313 66.4376 18.1206 69.6971 18.0133L70.3199 17.9418L70.3633 12.1044L76.6071 10.8641Z" fill="#6A953F"/>
<path d="M81.9937 18.4792C81.8589 16.0404 82.0143 14.9204 82.2921 12.5167L88.2032 12.264L88.2053 18.0209L93.6482 18.0614L93.6998 22.5842L93.6015 23.5723L88.1564 23.5186C86.3297 23.3261 83.9462 23.5131 82.0679 23.5894L81.9937 18.4792Z" fill="#466E2F"/>
<path d="M88.2032 12.264L88.2053 18.0209C86.4515 18.0614 85.3899 17.9945 83.6416 17.8294C82.1786 16.0679 82.5636 15.1761 82.2921 12.5167L88.2032 12.264Z" fill="#203F1D"/>
<path d="M88.2053 18.0209L93.6482 18.0614L93.6998 22.5842L93.6015 23.5723L88.1564 23.5186L88.2053 18.0209Z" fill="#203F1D"/>
<path d="M76.6071 10.8641C75.9045 9.82245 75.8921 8.46178 76.5748 7.40638C77.2568 6.35099 78.5032 5.80506 79.7414 6.0182C80.9796 6.23065 81.9717 7.1623 82.2625 8.38478C83.2669 12.6689 83.7063 11.9896 88.2032 12.264L82.2921 12.5167C82.0143 14.9204 81.8589 16.0404 81.9937 18.4792L77.8522 17.8209C76.3569 16.2058 76.8024 16.4643 76.6848 13.8867C74.7935 12.0296 73.1194 12.2956 70.3633 12.1044L76.6071 10.8641Z" fill="#7BA44B"/>
<path d="M76.6071 10.8641C75.9045 9.82245 75.8921 8.46178 76.5748 7.40638C77.2568 6.35099 78.5032 5.80506 79.7414 6.0182C80.9796 6.23065 81.9717 7.1623 82.2625 8.38478C82.6131 9.86096 81.859 11.3764 80.4695 11.9856C79.0801 12.5941 77.4541 12.1223 76.6071 10.8641Z" fill="#243D23"/>
<path d="M70.3199 17.9418C70.3667 21.4126 70.9861 26.3129 69.499 28.9868C67.8972 30.1398 66.6411 29.8344 64.6034 29.7671C64.6756 26.8092 64.5855 25.4011 64.2493 22.4563L64.6625 19.2777C66.3462 17.5313 66.4376 18.1206 69.6971 18.0133L70.3199 17.9418Z" fill="#203F1D"/>
<path d="M64.2493 22.4563L64.6625 19.2777C66.3462 17.5313 66.4376 18.1206 69.6971 18.0133C69.4358 20.6006 69.8731 20.9991 68.3234 22.4725C67.0138 22.4917 65.5349 22.5512 64.2493 22.4563Z" fill="#243D23"/>
<path d="M70.3633 12.1044C73.1194 12.2956 74.7935 12.0296 76.6848 13.8867C75.8887 16.608 76.3892 16.5516 74.5151 17.9061L70.3199 17.9418L70.3633 12.1044Z" fill="#243D23"/>
<path d="M82.5141 53.0206C82.4901 50.9476 82.4179 50.2951 82.9974 48.3198C84.963 47.1062 85.5535 47.536 88.1722 47.516L93.6606 47.548L93.7094 53.2644L99.8172 53.1165L99.9395 59.3388L100.068 64.8819L99.8955 65.3777C98.0503 64.7609 95.7829 64.9816 93.7795 65.0174C88.5208 63.9922 81.7792 65.6197 76.3005 64.787L76.4999 60.0333L77.0691 59.1945C76.6704 56.5488 76.7316 55.6508 76.8519 53.0147L82.5141 53.0206Z" fill="#557C37"/>
<path d="M82.5141 53.0206C82.4901 50.9476 82.4179 50.2951 82.9974 48.3198C84.963 47.1062 85.5535 47.536 88.1722 47.516L93.6606 47.548L93.7094 53.2644L99.8172 53.1165C99.3785 56.7331 99.978 56.5333 97.9678 58.8566C95.4378 59.978 91.2179 59.4052 88.3049 59.245C88.2472 56.9321 88.5449 54.9334 87.1479 53.5335L82.5141 53.0206Z" fill="#466E2F"/>
<path d="M88.1722 47.516L93.6606 47.548L93.7094 53.2644C92.0209 53.2169 90.8604 53.1053 89.1836 52.8935C87.7467 51.1808 88.243 50.2497 88.1722 47.516Z" fill="#2B5121"/>
<path d="M82.5141 53.0206L87.1479 53.5335C88.5449 54.9334 88.2472 56.9321 88.3049 59.245L86.9953 59.2212L77.0691 59.1945C76.6704 56.5488 76.7316 55.6508 76.8519 53.0147L82.5141 53.0206Z" fill="#385F2A"/>
<path d="M87.1479 53.5335C88.5449 54.9334 88.2472 56.9321 88.3049 59.245L86.9953 59.2212C83.4725 58.8039 83.2944 59.0458 81.4299 56.7604L81.6891 55.2794C84.0706 53.346 83.6231 53.9247 87.1479 53.5335Z" fill="#2B5121"/>
<path d="M82.0679 23.5894C83.9462 23.5131 86.3297 23.3261 88.1564 23.5186L93.6015 23.5723L93.7678 29.1917L93.4921 29.8019L87.7591 30.167C87.6291 27.9744 87.6133 26.5973 87.0303 24.437C85.6388 23.5425 85.4463 23.9653 83.4196 24.3242C79.6816 27.7077 83.7832 30.1897 82.1655 34.6712C78.4812 38.0292 76.3149 32.4153 76.2145 39.5714C76.1533 43.9113 76.3253 48.2891 76.4641 52.6159L75.8543 52.5692L70.3186 53.3729L70.432 49.3294L70.4547 35.3638L74.5962 35.1954C78.9618 32.2025 74.9282 29.6729 76.7405 25.0546C78.75 23.1824 78.5933 23.7813 82.0679 23.5894Z" fill="#557C37"/>
<path d="M70.432 49.3294C71.2673 45.8951 70.9126 37.8999 72.1872 36.1315L73.6344 35.8159C76.6504 38.7442 75.7443 47.9639 75.8543 52.5692L70.3186 53.3729L70.432 49.3294Z" fill="#466E2F"/>
<path d="M88.1564 23.5186L93.6015 23.5723L93.7678 29.1917L93.4921 29.8019L87.7591 30.167C88.2087 28.026 88.1365 25.7167 88.1564 23.5186Z" fill="#385F2A"/>
<path d="M93.7678 29.1917C95.719 29.4055 97.5174 29.6173 99.4857 29.7018L99.9299 29.8538L100.001 35.7826L99.5366 41.7176C96.755 42.1163 96.0276 41.7045 94.3597 43.3601L93.6709 46.0265C93.818 40.5308 93.6503 35.2955 93.4921 29.8019L93.7678 29.1917Z" fill="#466E2F"/>
<path d="M99.5332 1.31807C102.565 -0.68822 108.244 -0.345823 111.226 1.94855C111.654 3.8187 111.618 4.29107 111.543 6.2176L117.247 6.36473L117.509 12.1457L122.448 12.3485L123.217 12.528L123.282 17.9879L123.304 23.9785C120.095 24.1862 119.764 23.6788 117.573 25.2842C117.291 26.8821 117.09 28.0255 116.968 29.6412C117.023 31.5905 116.993 34.1076 117.367 35.9716L111.615 35.9282L110.985 36.0149L106.014 35.7804L106.06 41.263L99.5366 41.7176L100.001 35.7826L99.9299 29.8538L99.4857 29.7018C97.5174 29.6173 95.719 29.4055 93.7678 29.1917L93.6015 23.5723L93.6998 22.5842L93.6482 18.0614C93.9005 14.5515 92.8899 10.3725 94.1583 7.58446C96.3418 5.82363 96.1431 6.38468 99.5394 6.2121L99.5332 1.31807Z" fill="#6A953F"/>
<path d="M99.5332 1.31807C102.565 -0.68822 108.244 -0.345823 111.226 1.94855C111.654 3.8187 111.618 4.29107 111.543 6.2176L117.247 6.36473L117.509 12.1457L122.448 12.3485L123.217 12.528L123.282 17.9879L117.837 17.961L111.438 18.1027C109.816 18.2464 109.025 17.8387 107.44 17.3292C104.518 16.6911 103.759 17.1642 100.967 18.2044L100.157 18.2491L99.7855 17.4873L98.5906 17.8799L93.6482 18.0614C93.9005 14.5515 92.8899 10.3725 94.1583 7.58446C96.3418 5.82363 96.1431 6.38468 99.5394 6.2121L99.5332 1.31807Z" fill="#7BA44B"/>
<path d="M111.543 6.2176L117.247 6.36473L117.509 12.1457L122.448 12.3485L123.217 12.528L123.282 17.9879L117.837 17.961L111.438 18.1027C109.816 18.2464 109.025 17.8387 107.44 17.3292C106.438 15.2789 106.375 14.7031 105.978 12.5153L106.159 6.2551L110.953 6.38368L111.543 6.2176Z" fill="#557C37"/>
<path d="M111.543 6.2176L111.377 12.232L111.438 18.1027C109.816 18.2464 109.025 17.8387 107.44 17.3292C106.438 15.2789 106.375 14.7031 105.978 12.5153L106.159 6.2551L110.953 6.38368L111.543 6.2176Z" fill="#7BA44B"/>
<path d="M106.159 6.2551L110.953 6.38368C110.802 9.40067 111.3 10.1566 109.786 12.1292C108.181 12.4083 107.596 12.5318 105.978 12.5153L106.159 6.2551Z" fill="#84AD4F"/>
<path d="M117.509 12.1457L122.448 12.3485L123.217 12.528L123.282 17.9879L117.837 17.961L117.509 12.1457Z" fill="#385F2A"/>
<path d="M111.543 6.2176L117.247 6.36473C116.97 9.27309 117.417 10.2807 115.785 12.0856L111.377 12.232L111.543 6.2176Z" fill="#203F1D"/>
<path d="M99.5332 1.31807C102.565 -0.68822 108.244 -0.345823 111.226 1.94855C111.654 3.8187 111.618 4.29107 111.543 6.2176L110.953 6.38368L106.159 6.2551L101.132 6.18046C99.3874 4.46844 99.91 4.36944 99.5332 1.31807Z" fill="#243D23"/>
<path d="M93.6482 18.0614C93.9005 14.5515 92.8899 10.3725 94.1583 7.58446C96.3418 5.82363 96.1431 6.38468 99.5394 6.2121C99.6012 9.68357 99.5483 14.1039 99.7855 17.4873L98.5906 17.8799L93.6482 18.0614Z" fill="#203F1D"/>
<path d="M98.5906 17.8799L99.7855 17.4873L100.157 18.2491L100.967 18.2044C103.464 18.5063 103.893 18.1027 105.367 19.6125L105.743 23.6904C105.581 25.7717 105.549 27.0134 104.937 29.0547C103.304 30.0909 101.918 29.8503 99.9299 29.8538L99.4857 29.7018C97.5174 29.6173 95.719 29.4055 93.7678 29.1917L93.6015 23.5723L93.6998 22.5842L93.6482 18.0614L98.5906 17.8799Z" fill="#6A953F"/>
<path d="M100.967 18.2044C103.464 18.5063 103.893 18.1027 105.367 19.6125L105.743 23.6904C105.581 25.7717 105.549 27.0134 104.937 29.0547C103.304 30.0909 101.918 29.8503 99.9299 29.8538L99.4857 29.7018C99.9835 26.2682 100.023 21.7907 100.157 18.2491L100.967 18.2044Z" fill="#466E2F"/>
<path d="M93.6482 18.0614L98.5906 17.8799C99.5401 20.2107 99.6033 20.5022 99.2163 22.9836L98.0014 24.2975C95.3614 24.193 96.1308 24.224 93.6998 22.5842L93.6482 18.0614Z" fill="#84AD4F"/>
<path d="M105.743 23.6904C107.659 28.0069 104.137 32.9353 108.854 35.2427C111.505 33.354 110.107 31.8043 111.283 29.5312L116.968 29.6412C117.023 31.5905 116.993 34.1076 117.367 35.9716L111.615 35.9282L110.985 36.0149L106.014 35.7804L106.06 41.263L99.5366 41.7176L100.001 35.7826L99.9299 29.8538C101.918 29.8503 103.304 30.0909 104.937 29.0547C105.549 27.0134 105.581 25.7717 105.743 23.6904Z" fill="#557C37"/>
<path d="M100.001 35.7826L106.014 35.7804L106.06 41.263L99.5366 41.7176L100.001 35.7826Z" fill="#466E2F"/>
<path d="M111.283 29.5312L116.968 29.6412C117.023 31.5905 116.993 34.1076 117.367 35.9716L111.615 35.9282C111.725 33.5087 111.53 31.926 111.283 29.5312Z" fill="#385F2A"/>
<path d="M111.615 35.9282C111.71 39.1948 111.13 39.15 112.872 40.895C118.723 42.4777 123.149 41.181 129.551 41.4065L134.647 41.4561L134.429 42.926C135.05 45.9114 134.511 46.8142 137.819 47.3704L140.085 47.5271C140.431 49.5616 140.732 51.3701 140.958 53.4266C137.617 53.7181 136.833 53.1391 135.105 54.999L134.738 59.2247C131.109 59.1278 127.294 59.2337 123.65 59.2756L123.403 59.6524C121.72 59.1388 119.385 59.3127 117.561 59.3279L117.193 59.1608L105.197 59.2921L99.9395 59.3388L99.8172 53.1165L93.7094 53.2644L93.6606 47.548L93.6881 47.0179L93.6709 46.0265L94.3597 43.3601C96.0276 41.7045 96.755 42.1163 99.5366 41.7176L106.06 41.263L106.014 35.7804L110.985 36.0149L111.615 35.9282Z" fill="#6A953F"/>
<path d="M111.615 35.9282C111.71 39.1948 111.13 39.15 112.872 40.895C118.723 42.4777 123.149 41.181 129.551 41.4065L134.647 41.4561L134.429 42.926C135.05 45.9114 134.511 46.8142 137.819 47.3704L134.959 47.9534C131.966 46.7681 99.923 47.5872 93.6606 47.548L93.6881 47.0179L93.6709 46.0265L94.3597 43.3601C96.0276 41.7045 96.755 42.1163 99.5366 41.7176L106.06 41.263L106.014 35.7804L110.985 36.0149L111.615 35.9282Z" fill="#466E2F"/>
<path d="M106.06 41.263C105.917 44.5337 106.476 44.5616 104.776 46.5582C101.959 47.9423 97.0156 47.2187 93.6881 47.0179L93.6709 46.0265L94.3597 43.3601C96.0276 41.7045 96.755 42.1163 99.5366 41.7176L106.06 41.263Z" fill="#385F2A"/>
<path d="M106.014 35.7804L110.985 36.0149C110.935 38.8861 111.484 39.5336 109.92 41.1363L106.06 41.263L106.014 35.7804Z" fill="#2B5121"/>
<path d="M137.819 47.3704L140.085 47.5271C140.431 49.5616 140.732 51.3701 140.958 53.4266C137.617 53.7181 136.833 53.1391 135.105 54.999L134.738 59.2247C131.109 59.1278 127.294 59.2337 123.65 59.2756L123.403 59.6524C121.72 59.1388 119.385 59.3127 117.561 59.3279L117.193 59.1608C116.517 48.6955 124.316 54.0736 130.808 53.2581C134.392 52.8078 134.142 52.2804 134.727 49.2669L134.959 47.9534L137.819 47.3704Z" fill="#466E2F"/>
<path d="M123.65 59.2756C123.338 56.084 122.844 56.4365 124.253 54.2748C127.493 52.593 132.117 52.0072 134.409 55.4388L134.738 59.2247C131.109 59.1278 127.294 59.2337 123.65 59.2756Z" fill="#14191C"/>
<path d="M137.819 47.3704L140.085 47.5271C140.431 49.5616 140.732 51.3701 140.958 53.4266C137.847 53.166 137.291 53.6349 135.142 52.0632L134.727 49.2669L134.959 47.9534L137.819 47.3704Z" fill="#14191C"/>
<path d="M123.009 11.6342C123.108 9.94414 123.23 9.00495 123.536 7.33832C125.566 5.82363 126.159 6.35854 129.259 6.28772L129.441 11.898C131.962 12.197 132.859 12.2527 135.409 12.1269C136.069 15.8768 135.736 25.9977 134.956 29.7682L134.893 35.4846L134.751 35.8593C134.846 37.7748 135.067 39.6038 134.647 41.4561L129.551 41.4065C123.149 41.181 118.723 42.4777 112.872 40.895C111.13 39.15 111.71 39.1948 111.615 35.9282L117.367 35.9716C116.993 34.1076 117.023 31.5905 116.968 29.6412C117.09 28.0255 117.291 26.8821 117.573 25.2842C119.764 23.6788 120.095 24.1862 123.304 23.9785L123.282 17.9879L123.217 12.528L122.448 12.3485L123.009 11.6342Z" fill="#6A953F"/>
<path d="M123.009 11.6342C123.108 9.94414 123.23 9.00495 123.536 7.33832C125.566 5.82363 126.159 6.35854 129.259 6.28772L129.441 11.898C131.962 12.197 132.859 12.2527 135.409 12.1269C135.317 14.3106 135.515 16.3733 134.025 17.9374C132.585 18.3871 130.508 18.2682 129.332 17.23L128.997 17.8776L123.282 17.9879L123.217 12.528L122.448 12.3485L123.009 11.6342Z" fill="#466E2F"/>
<path d="M123.217 12.528C126.439 12.5177 127.113 11.9216 129.122 13.4934C129.244 14.8313 129.358 15.8872 129.332 17.23L128.997 17.8776L123.282 17.9879L123.217 12.528Z" fill="#7BA44B"/>
<path d="M123.009 11.6342C123.108 9.94414 123.23 9.00495 123.536 7.33832C125.566 5.82363 126.159 6.35854 129.259 6.28772L129.441 11.898L123.009 11.6342Z" fill="#203F1D"/>
<path d="M123.304 23.9785C123.163 26.68 123.616 27.4603 122.186 29.2239C119.469 30.0256 119.748 29.5395 117.936 31.3629L117.367 35.9716C116.993 34.1076 117.023 31.5905 116.968 29.6412C117.09 28.0255 117.291 26.8821 117.573 25.2842C119.764 23.6788 120.095 24.1862 123.304 23.9785Z" fill="#466E2F"/>
<path d="M123.282 17.9879L128.997 17.8776C128.976 20.7784 129.444 21.236 128.154 23.3632C126.106 23.9071 125.434 23.9091 123.304 23.9785L123.282 17.9879Z" fill="#557C37"/>
<path d="M129.551 41.4065C129.433 39.3934 129.309 38.6166 129.839 36.631C131.683 35.4456 132.238 35.8696 134.751 35.8593C134.846 37.7748 135.067 39.6038 134.647 41.4561L129.551 41.4065Z" fill="#84AD4F"/>
<path d="M129.259 6.28772C129.15 4.22643 128.896 3.28654 129.872 1.48377C132.398 -0.332068 137.425 0.420123 140.799 0.568635L140.333 6.33086C140.168 14.1697 140.179 22.0112 140.367 29.8494L134.956 29.7682C135.736 25.9977 136.069 15.8768 135.409 12.1269C132.859 12.2527 131.962 12.197 129.441 11.898L129.259 6.28772Z" fill="#7BA44B"/>
<path d="M129.259 6.28772C129.15 4.22643 128.896 3.28654 129.872 1.48377C132.398 -0.332068 137.425 0.420123 140.799 0.568635L140.333 6.33086L129.259 6.28772Z" fill="#243D23"/>
<path d="M141.08 6.03813C142.875 6.21208 145.185 6.09041 146.349 7.03648C146.672 11.4939 146.985 25.1639 146.223 29.36C143.942 29.9121 143.33 29.9713 141.013 30.0875C140.877 21.8815 140.743 14.2524 141.08 6.03813Z" fill="#182D19"/>
<path d="M140.985 35.4456C142.354 35.5405 144.814 35.3521 145.609 36.4226C148.138 39.8246 147.904 44.9875 144.681 47.6243L140.986 47.8759C140.721 43.7987 140.899 39.5441 140.985 35.4456Z" fill="#243D23"/>
<path d="M134.956 29.7682L140.367 29.8494C140.334 32.964 140.844 33.4381 139.424 35.6678C137.345 36.048 136.976 35.9281 134.893 35.4846L134.956 29.7682Z" fill="#203F1D"/>
<path d="M134.429 42.926C136.338 42.2034 136.887 41.879 138.893 42.0653C140.848 43.8839 140.457 44.7838 140.085 47.5271L137.819 47.3704C134.511 46.8142 135.05 45.9114 134.429 42.926Z" fill="#84AD4F"/>
<path d="M64.987 62.8144L65.7653 64.4529C67.1781 64.906 67.3658 65.0105 68.8288 65.027C71.5485 64.7479 73.0314 64.545 75.7739 64.7726L76.3005 64.787C81.7792 65.6197 88.5208 63.9922 93.7795 65.0174C95.7829 64.9816 98.0503 64.7609 99.8955 65.3777C99.8893 67.0629 99.8123 69.0671 100.015 70.7131L100.481 70.874C99.8666 73.3705 99.7786 73.9893 99.6707 76.558L99.8577 76.9258L99.9244 82.0007L99.9924 82.5906L99.5848 88.6494C96.2139 88.5751 84.6928 87.7219 83.0456 90.3091C79.6858 95.5868 82.3938 93.0511 76.3947 94.8938C76.4923 97.0383 76.5858 97.71 76.0448 99.8311C72.1789 100.519 63.02 100.216 59.0415 99.7417C58.3588 98.6774 58.5836 95.8598 58.585 94.4249C55.3579 94.4737 50.8767 95.2478 48.1219 94.0123C46.366 92.0019 46.9443 92.1202 46.8446 88.747L47.1148 88.2905L46.8239 82.9344L46.3166 82.6119L46.5593 81.9505C46.9628 79.4011 46.9862 79.0869 46.5091 76.5649L53.2094 76.5009L53.1668 71.0837L53.604 70.9365C52.5549 68.9392 52.5508 67.7532 53.5656 65.98C56.0935 64.8874 61.2491 65.4464 64.3242 65.4753L64.3339 64.9961L64.987 62.8144Z" fill="#557C37"/>
<path d="M53.2094 76.5009C58.31 76.9396 59.52 76.9394 64.7546 76.3667L64.7952 82.7307L70.5001 82.7204C70.454 93.5357 76.097 83.2615 76.1458 94.5869L76.3947 94.8938C76.4923 97.0383 76.5858 97.71 76.0448 99.8311C72.1789 100.519 63.02 100.216 59.0415 99.7417C58.3588 98.6774 58.5836 95.8598 58.585 94.4249C55.3579 94.4737 50.8767 95.2478 48.1219 94.0123C46.366 92.0019 46.9443 92.1202 46.8446 88.747L47.1148 88.2905L46.8239 82.9344L46.3166 82.6119L46.5593 81.9505C46.9628 79.4011 46.9862 79.0869 46.5091 76.5649L53.2094 76.5009Z" fill="#648D3F"/>
<path d="M53.2094 76.5009C58.31 76.9396 59.52 76.9394 64.7546 76.3667L64.7952 82.7307C61.4443 82.6592 49.93 82.3672 46.8239 82.9344L46.3166 82.6119L46.5593 81.9505C46.9628 79.4011 46.9862 79.0869 46.5091 76.5649L53.2094 76.5009Z" fill="#466E2F"/>
<path d="M58.585 94.4249C64.0238 94.3815 70.8431 94.1524 76.1458 94.5869L76.3947 94.8938C76.4923 97.0383 76.5858 97.71 76.0448 99.8311C72.1789 100.519 63.02 100.216 59.0415 99.7417C58.3588 98.6774 58.5836 95.8598 58.585 94.4249Z" fill="#14191C"/>
<path d="M47.1148 88.2905C50.3646 88.23 55.7862 87.5184 58.0302 89.1321C59.0662 90.9259 58.7197 92.3017 58.585 94.4249C55.3579 94.4737 50.8767 95.2478 48.1219 94.0123C46.366 92.0019 46.9443 92.1202 46.8446 88.747L47.1148 88.2905Z" fill="#14191C"/>
<path d="M64.987 62.8144L65.7653 64.4529C67.1781 64.906 67.3658 65.0105 68.8288 65.027C71.5485 64.7479 73.0314 64.545 75.7739 64.7726L76.3005 64.787C81.7792 65.6197 88.5208 63.9922 93.7795 65.0174L93.7472 70.4498L93.6846 70.9139C92.0023 70.9441 89.7239 70.8273 88.2176 71.3883L87.9467 75.3431C85.4972 77.4457 74.7075 76.2665 70.5571 76.5498C68.9367 75.8828 66.3799 75.948 64.7546 76.3667C59.52 76.9394 58.31 76.9396 53.2094 76.5009L53.1668 71.0837L53.604 70.9365C52.5549 68.9392 52.5508 67.7532 53.5656 65.98C56.0935 64.8874 61.2491 65.4464 64.3242 65.4753L64.3339 64.9961L64.987 62.8144Z" fill="#648D3F"/>
<path d="M70.5571 76.5498C70.4505 75.4579 70.1495 72.464 71.1752 71.9332C75.2521 69.8231 83.368 70.8627 87.9007 70.9397L88.2176 71.3883L87.9467 75.3431C85.4972 77.4457 74.7075 76.2665 70.5571 76.5498Z" fill="#385F2A"/>
<path d="M53.604 70.9365C52.5549 68.9392 52.5508 67.7532 53.5656 65.98C56.0935 64.8874 61.2491 65.4464 64.3242 65.4753C64.811 68.0811 64.7938 68.444 64.4934 71.0244C60.8709 70.8669 57.2313 70.9207 53.604 70.9365Z" fill="#2B5121"/>
<path d="M64.987 62.8144L65.7653 64.4529C67.1781 64.906 67.3658 65.0105 68.8288 65.027C71.5485 64.7479 73.0314 64.545 75.7739 64.7726C67.2853 66.5417 72.0751 66.9308 69.2818 70.7592C67.1863 71.094 66.6123 71.1303 64.4934 71.0244C64.7938 68.444 64.811 68.0811 64.3242 65.4753L64.3339 64.9961L64.987 62.8144Z" fill="#466E2F"/>
<path d="M88.1275 70.2598L83.5756 70.389C81.6437 69.2594 82.1999 69.918 81.3811 67.9668L82.1965 66.5772C84.9348 65.0295 84.8475 65.5582 88.4273 65.5424L88.1275 70.2598Z" fill="#6A953F"/>
<path d="M88.4273 65.5424L93.7795 65.0174L93.7472 70.4498L93.6846 70.9139C92.0023 70.9441 89.7239 70.8273 88.2176 71.3883L87.9007 70.9397L88.1275 70.2598L88.4273 65.5424Z" fill="#84AD4F"/>
<path d="M87.3191 82.6071C90.8281 82.5638 95.9767 81.8632 98.5597 83.4185C99.7147 85.0425 99.5146 86.5881 99.5848 88.6494C96.2139 88.5751 84.6928 87.7219 83.0456 90.3091C79.6858 95.5868 82.3938 93.0511 76.3947 94.8938L76.1458 94.5869C76.097 83.2615 70.454 93.5357 70.5001 82.7204C76.106 82.6035 81.7125 82.5659 87.3191 82.6071Z" fill="#14191C"/>
<path d="M64.7546 76.3667C66.3799 75.948 68.9367 75.8828 70.5571 76.5498C75.9615 77.9427 84.4405 75.226 87.4834 78.7697C87.4408 79.8925 87.4346 81.5407 87.3191 82.6071C81.7125 82.5659 76.106 82.6035 70.5001 82.7204L64.7952 82.7307L64.7546 76.3667Z" fill="#7BA44B"/>
<path d="M93.7795 65.0174C95.7829 64.9816 98.0503 64.7609 99.8955 65.3777C99.8893 67.0629 99.8123 69.0671 100.015 70.7131C97.2129 70.9895 96.5102 71.1497 93.7472 70.4498L93.7795 65.0174Z" fill="#203F1D"/>
<path d="M93.7472 70.4498C96.5102 71.1497 97.2129 70.9895 100.015 70.7131L100.481 70.874C99.8666 73.3705 99.7786 73.9893 99.6707 76.558L94.0249 76.6239C94.0909 74.5991 93.8805 72.916 93.6846 70.9139L93.7472 70.4498Z" fill="#648D3F"/>
<path d="M88.2176 71.3883C89.7239 70.8273 92.0023 70.9441 93.6846 70.9139C93.8805 72.916 94.0909 74.5991 94.0249 76.6239C91.6716 76.67 89.4929 77.0847 87.9467 75.3431L88.2176 71.3883Z" fill="#7BA44B"/>
<path d="M29.4832 65.0776C32.537 65.2915 33.2665 64.7882 35.1578 66.3881C35.3186 68.2136 35.3723 69.3364 35.3276 71.1673L41.0806 71.0422L46.8515 71.0773L53.1668 71.0837L53.2094 76.5009L46.5091 76.5649C46.9862 79.0869 46.9628 79.4011 46.5593 81.9505L46.3166 82.6119L46.8239 82.9344L47.1148 88.2905L46.8446 88.747C42.1022 88.6632 32.7282 87.3414 29.7197 90.2408L29.136 94.3648C23.4558 94.3875 5.43854 94.8076 0.788973 94.0114C-0.196902 92.4114 0.0340943 90.344 0.00315678 88.3604C0.00934428 86.5239 0.0835798 85.4623 0.30633 83.6389C2.07802 82.1215 2.87829 82.5498 5.62829 82.3037C5.58635 80.791 5.80426 78.5035 5.90326 76.9325C12.5466 75.8537 17.5 78.2719 22.4768 75.9005C23.7006 75.3181 23.6717 72.6786 23.9007 71.0264C25.5844 70.9955 26.7469 70.8703 28.4196 70.664C29.974 68.6247 29.4268 68.2411 29.4832 65.0776Z" fill="#385F2A"/>
<path d="M5.62829 82.3037C5.58635 80.791 5.80426 78.5035 5.90326 76.9325C11.3098 77.541 17.4924 77.4008 22.9959 77.4125L22.7669 82.7528L22.7003 88.3756C25.4565 88.3247 26.8205 87.7678 28.6478 89.1141C28.8665 90.8591 29.0294 92.6101 29.136 94.3648C23.4558 94.3875 5.43854 94.8076 0.788973 94.0114C-0.196902 92.4114 0.0340943 90.344 0.00315678 88.3604C0.00934428 86.5239 0.0835798 85.4623 0.30633 83.6389C2.07802 82.1215 2.87829 82.5498 5.62829 82.3037Z" fill="#203F1D"/>
<path d="M5.65439 88.3015L16.6881 88.3166L22.7003 88.3756C25.4565 88.3247 26.8205 87.7678 28.6478 89.1141C28.8665 90.8591 29.0294 92.6101 29.136 94.3648C23.4558 94.3875 5.43854 94.8076 0.788973 94.0114C-0.196902 92.4114 0.0340943 90.344 0.00315678 88.3604L5.65439 88.3015Z" fill="#14191C"/>
<path d="M5.62829 82.3037C5.58635 80.791 5.80426 78.5035 5.90326 76.9325C6.16864 80.3923 5.57118 80.2934 7.46868 82.2908C10.0166 83.285 13.7263 82.5761 16.6702 82.6524L16.6881 88.3166L5.65439 88.3015L0.00315678 88.3604C0.00934428 86.5239 0.0835798 85.4623 0.30633 83.6389C2.07802 82.1215 2.87829 82.5498 5.62829 82.3037Z" fill="#648D3F"/>
<path d="M0.00315678 88.3604C0.00934428 86.5239 0.0835798 85.4623 0.30633 83.6389C2.07802 82.1215 2.87829 82.5498 5.62829 82.3037L5.65439 88.3015L0.00315678 88.3604Z" fill="#243D23"/>
<path d="M16.6702 82.6524L22.7669 82.7528L22.7003 88.3756L16.6881 88.3166L16.6702 82.6524Z" fill="#486E37"/>
<path d="M23.5527 77.1572C23.6084 79.8882 23.1134 80.7105 24.5318 82.4562C26.5248 82.6549 27.2818 82.69 29.2769 82.547L29.6413 82.712L34.528 82.5215L46.3166 82.6119L46.8239 82.9344L47.1148 88.2905L46.8446 88.747C42.1022 88.6632 32.7282 87.3414 29.7197 90.2408L29.136 94.3648C29.0294 92.6101 28.8665 90.8591 28.6478 89.1141C26.8205 87.7678 25.4565 88.3247 22.7003 88.3756L22.7669 82.7528L22.9959 77.4125L23.5527 77.1572Z" fill="#14191C"/>
<path d="M23.5527 77.1572C23.6084 79.8882 23.1134 80.7105 24.5318 82.4562C26.5248 82.6549 27.2818 82.69 29.2769 82.547L29.6413 82.712C29.3676 85.8555 28.8479 85.5832 30.348 87.4541C35.5538 89.1675 40.9252 87.6806 47.1148 88.2905L46.8446 88.747C42.1022 88.6632 32.7282 87.3414 29.7197 90.2408L29.136 94.3648C29.0294 92.6101 28.8665 90.8591 28.6478 89.1141C26.8205 87.7678 25.4565 88.3247 22.7003 88.3756L22.7669 82.7528L22.9959 77.4125L23.5527 77.1572Z" fill="#2B5121"/>
<path d="M29.4832 65.0776C32.537 65.2915 33.2665 64.7882 35.1578 66.3881C35.3186 68.2136 35.3723 69.3364 35.3276 71.1673C35.461 77.8242 30.557 78.1694 25.5802 75.9266C23.8477 75.1456 24.0897 72.7061 23.9007 71.0264C25.5844 70.9955 26.7469 70.8703 28.4196 70.664C29.974 68.6247 29.4268 68.2411 29.4832 65.0776Z" fill="#243D23"/>
<path d="M46.8515 71.0773L53.1668 71.0837L53.2094 76.5009L46.5091 76.5649L41.8526 76.5408C40.501 74.7938 40.9121 73.2658 41.0806 71.0422L46.8515 71.0773Z" fill="#2B5121"/>
<path d="M23.5527 77.1572L29.1133 77.1157C29.8021 79.2877 30.8678 80.6459 29.2769 82.547C27.2818 82.69 26.5248 82.6549 24.5318 82.4562C23.1134 80.7105 23.6084 79.8882 23.5527 77.1572Z" fill="#557C37"/>
<path d="M41.8526 76.5408L46.5091 76.5649C46.9862 79.0869 46.9628 79.4011 46.5593 81.9505C43.3693 82.0365 42.5621 82.14 40.4818 79.8876C40.7361 77.5671 40.3951 78.455 41.8526 76.5408Z" fill="#486E37"/>
<path d="M29.1133 77.1157C31.4865 77.102 33.0685 76.7993 34.9151 78.1607C35.406 79.7049 35.263 80.9917 34.528 82.5215L29.6413 82.712L29.2769 82.547C30.8678 80.6459 29.8021 79.2877 29.1133 77.1157Z" fill="#486E37"/>
<path d="M47.2948 40.4634C46.3152 39.1914 46.4719 37.3818 47.6551 36.2975C48.8383 35.2132 50.6547 35.2139 51.8358 36.3002C53.0176 37.3865 53.1716 39.1962 52.1912 40.4661L58.6304 41.4652L58.3025 41.9533L58.0825 47.4916L58.5486 47.6229L58.651 53.0085C58.6689 55.318 58.7321 57.1868 58.4173 59.486C58.6503 62.0334 58.2887 62.833 59.63 64.6337C61.6066 65.0352 62.3071 65.016 64.3339 64.9961L64.3242 65.4753C61.2491 65.4464 56.0935 64.8874 53.5656 65.98C52.5508 67.7532 52.5549 68.9392 53.604 70.9365L53.1668 71.0837L46.8515 71.0773L41.0806 71.0422L35.3276 71.1673C35.3723 69.3364 35.3186 68.2136 35.1578 66.3881C33.2665 64.7882 32.537 65.2915 29.4832 65.0776C31.2493 64.7242 33.4458 64.8599 35.2849 64.8833C35.2897 60.8659 34.9983 51.61 35.8281 48.2279C37.9923 46.6411 36.9686 46.967 39.6863 47.0288C41.3301 45.5554 40.9637 44.5536 41.3941 41.8728L47.2948 40.4634Z" fill="#466E2F"/>
<path d="M41.3941 41.8728C43.1328 42.0165 45.1513 42.2645 46.8638 42.1359L47.0006 47.3339L46.9429 54.0141L46.8515 71.0773L41.0806 71.0422L35.3276 71.1673C35.3723 69.3364 35.3186 68.2136 35.1578 66.3881C33.2665 64.7882 32.537 65.2915 29.4832 65.0776C31.2493 64.7242 33.4458 64.8599 35.2849 64.8833C35.2897 60.8659 34.9983 51.61 35.8281 48.2279C37.9923 46.6411 36.9686 46.967 39.6863 47.0288C41.3301 45.5554 40.9637 44.5536 41.3941 41.8728Z" fill="#6A953F"/>
<path d="M41.3941 41.8728C43.1328 42.0165 45.1513 42.2645 46.8638 42.1359L47.0006 47.3339L41.6107 47.6006C41.1122 53.2571 42.7003 61.492 39.9606 64.5846C37.9834 65.1312 37.3495 65.0132 35.2849 64.8833C35.2897 60.8659 34.9983 51.61 35.8281 48.2279C37.9923 46.6411 36.9686 46.967 39.6863 47.0288C41.3301 45.5554 40.9637 44.5536 41.3941 41.8728Z" fill="#203F1D"/>
<path d="M41.3941 41.8728C43.1328 42.0165 45.1513 42.2645 46.8638 42.1359L47.0006 47.3339L41.6107 47.6006C41.8087 45.582 41.5735 43.8839 41.3941 41.8728Z" fill="#203F1D"/>
<path d="M47.0006 47.3339C49.347 47.4927 50.1301 47.5422 52.5583 47.2314C52.5102 50.6115 53.1207 51.3836 51.4467 53.493C49.7609 53.7735 48.6479 53.9068 46.9429 54.0141L47.0006 47.3339Z" fill="#7BA44B"/>
<path d="M58.0872 53.0647L58.651 53.0085C58.6689 55.318 58.7321 57.1868 58.4173 59.486L55.1124 59.6852C53.0548 58.6841 53.7354 59.3146 52.59 57.245C53.1977 53.3672 54.8539 53.7632 58.0872 53.0647Z" fill="#648D3F"/>
<path d="M47.2948 40.4634C46.3152 39.1914 46.4719 37.3818 47.6551 36.2975C48.8383 35.2132 50.6547 35.2139 51.8358 36.3002C53.0176 37.3865 53.1716 39.1962 52.1912 40.4661C51.6055 41.2252 50.7007 41.6693 49.7423 41.6686C48.7833 41.6679 47.8792 41.2224 47.2948 40.4634Z" fill="#182D19"/>
<path d="M53.0713 47.5887L58.0825 47.4916L58.5486 47.6229L58.651 53.0085L58.0872 53.0647L54.3644 52.8395C52.7234 51.2231 53.2452 50.4984 53.0713 47.5887Z" fill="#385F2A"/>
<path d="M46.8638 42.1359C49.5361 42.0603 50.1597 41.5739 52.0874 42.8087C52.4986 44.6816 52.5233 45.3084 52.5583 47.2314C50.1301 47.5422 49.347 47.4927 47.0006 47.3339L46.8638 42.1359Z" fill="#648D3F"/>
<path d="M53.0713 47.5887C53.0053 45.7502 53.074 44.8904 53.283 43.0594C55.01 41.6733 55.6893 42.1039 58.3025 41.9533L58.0825 47.4916L53.0713 47.5887Z" fill="#182D19"/>
<path d="M105.197 59.2921L117.193 59.1608L117.561 59.3279C119.385 59.3127 121.72 59.1388 123.403 59.6524L123.234 64.9113L129.236 65.2675C129.171 67.9187 129.611 68.6613 128.315 70.5596C126.141 70.9969 125.543 70.9866 123.316 70.9254L117.268 70.9426C117.218 72.6917 117.226 74.9401 117.026 76.6308L117.15 77.0185C117.19 80.0671 117.703 80.006 116.234 81.9792C111.001 83.8631 105.89 82.5459 99.9924 82.5906L99.9244 82.0007L99.8577 76.9258L99.6707 76.558C99.7786 73.9893 99.8666 73.3705 100.481 70.874L100.015 70.7131C99.8123 69.0671 99.8893 67.0629 99.8955 65.3777L100.068 64.8819L99.9395 59.3388L105.197 59.2921Z" fill="#141C1B"/>
<path d="M105.197 59.2921L117.193 59.1608L117.561 59.3279C119.385 59.3127 121.72 59.1388 123.403 59.6524L123.234 64.9113L129.236 65.2675C129.171 67.9187 129.611 68.6613 128.315 70.5596C126.141 70.9969 125.543 70.9866 123.316 70.9254L123.325 65.5962C121.523 65.5439 119.24 65.3218 117.403 65.1905C115.487 64.5827 108.219 64.7037 105.795 64.6762C105.818 62.6424 105.531 61.2661 105.197 59.2921Z" fill="#466E2F"/>
<path d="M117.561 59.3279C119.385 59.3127 121.72 59.1388 123.403 59.6524L123.234 64.9113C121.05 64.989 119.748 65.2089 117.746 64.2449C116.786 62.0702 117.219 62.0664 117.561 59.3279Z" fill="#203F1D"/>
<path d="M123.325 65.5962L129.236 65.2675C129.171 67.9187 129.611 68.6613 128.315 70.5596C126.141 70.9969 125.543 70.9866 123.316 70.9254L123.325 65.5962Z" fill="#141C1B"/>
<path d="M99.9395 59.3388L105.197 59.2921C105.531 61.2661 105.818 62.6424 105.795 64.6762C108.219 64.7037 115.487 64.5827 117.403 65.1905C117.289 67.9895 117.772 68.3341 116.282 70.1471C114.001 70.5941 112.43 70.4579 110.146 70.3754C107.897 70.4352 103.035 70.4338 101.027 70.8223L100.481 70.874L100.015 70.7131C99.8123 69.0671 99.8893 67.0629 99.8955 65.3777L100.068 64.8819L99.9395 59.3388Z" fill="#84AD4F"/>
<path d="M99.8955 65.3777C103.724 65.2415 107.129 64.4894 110.115 66.1966C110.744 67.9533 110.486 68.4557 110.146 70.3754C107.897 70.4352 103.035 70.4338 101.027 70.8223L100.481 70.874L100.015 70.7131C99.8123 69.0671 99.8893 67.0629 99.8955 65.3777Z" fill="#7BA44B"/>
<path d="M99.9395 59.3388L105.197 59.2921C105.531 61.2661 105.818 62.6424 105.795 64.6762L100.068 64.8819L99.9395 59.3388Z" fill="#385F2A"/>
<path d="M117.403 65.1905C119.24 65.3218 121.523 65.5439 123.325 65.5962L123.316 70.9254L117.268 70.9426C117.218 72.6917 117.226 74.9401 117.026 76.6308L109.964 76.5503L105.503 76.4973C105.385 75.1662 105.855 72.5617 106.058 71.1344L101.027 70.8223C103.035 70.4338 107.897 70.4352 110.146 70.3754C112.43 70.4579 114.001 70.5941 116.282 70.1471C117.772 68.3341 117.289 67.9895 117.403 65.1905Z" fill="#466E2F"/>
<path d="M117.403 65.1905C119.24 65.3218 121.523 65.5439 123.325 65.5962L123.316 70.9254L117.268 70.9426L110.103 70.9707L106.058 71.1344L101.027 70.8223C103.035 70.4338 107.897 70.4352 110.146 70.3754C112.43 70.4579 114.001 70.5941 116.282 70.1471C117.772 68.3341 117.289 67.9895 117.403 65.1905Z" fill="#648D3F"/>
<path d="M106.058 71.1344L110.103 70.9707L109.964 76.5503L105.503 76.4973C105.385 75.1662 105.855 72.5617 106.058 71.1344Z" fill="#486E37"/>
<path d="M101.027 70.8223L106.058 71.1344C105.855 72.5617 105.385 75.1662 105.503 76.4973L104.909 76.5056C103.499 76.5475 101.104 76.5009 99.8577 76.9258L99.6707 76.558C99.7786 73.9893 99.8666 73.3705 100.481 70.874L101.027 70.8223Z" fill="#385F2A"/>
<path d="M99.8577 76.9258C101.104 76.5009 103.499 76.5475 104.909 76.5056C105.367 78.4562 105.294 78.7184 104.762 80.6615C102.648 82.2373 102.937 81.7628 99.9244 82.0007L99.8577 76.9258Z" fill="#14191C"/>
<path d="M117.268 70.9426L123.316 70.9254C123.214 74.0565 123.752 74.5322 122.186 76.5303L117.15 77.0185L117.026 76.6308C117.226 74.9401 117.218 72.6917 117.268 70.9426Z" fill="#14191C"/>
</svg>
