<svg width="111" height="168" viewBox="0 0 111 168" fill="none" xmlns="http://www.w3.org/2000/svg">
<path d="M55.4448 56.7453C58.4003 56.4189 60.4218 55.7956 62.8095 57.3308C63.3968 62.4321 61.8062 61.0125 64.4529 64.169C67.0015 65.411 67.7912 65.1391 70.6533 64.7803C72.4954 67.2283 71.8481 67.4835 71.8084 71.1458C74.332 72.8087 76.1529 72.5673 79.1315 72.621L79.371 79.9688C90.3433 81.873 83.5769 81.1201 89.8745 88.5363C91.7147 89.1106 92.2446 89.2725 93.9379 90.1724C94.2957 92.1302 94.6194 94.1778 95.1465 96.0885C98.2639 96.353 99.9062 96.1088 102.104 98.2128C103.425 103.137 103.083 129.655 101.939 135.352C100.073 135.463 96.9683 135.555 95.2335 135.842C94.4197 149.853 88.1128 137.757 86.9726 151.555L79.1972 151.712C78.7228 155.43 79.2314 156.549 77.1424 159.055C75.0524 159.287 73.4082 159.435 71.3071 159.499C71.3497 163.513 71.9637 163.374 70.1965 166.334C64.6739 169.173 47.5899 167.628 40.5331 167.148C39.1413 164.771 39.6536 162.533 39.6194 159.388C36.9478 159.361 35.5024 159.583 33.1267 158.362C33.136 152.424 30.8739 151.259 25.4169 151.379C23.2854 148.901 23.8948 148.66 23.3917 144.804C17.9532 143.666 16.5512 144.36 16.0324 138.681C13.2212 134.954 13.9638 136.924 8.7352 134.594C7.84096 130.423 7.45719 103.321 7.84189 98.3654C11.5798 95.0545 11.4965 98.0658 15.6542 95.4762C16.2359 92.7619 16.3109 91.6641 18.0586 89.4048C20.6424 89.0617 21.0197 89.02 23.2539 87.7011C25.2283 84.3052 24.7401 85.5991 24.4737 81.367C26.695 79.8087 28.5307 80.2517 31.3466 80.3572L32.1288 80.6763L39.6453 80.5467L39.5602 73.3756L39.1533 72.4665L39.6749 66.9527C44.233 61.4176 46.9795 66.2951 53.6452 64.0201C56.0375 61.2853 55.2524 61.3149 55.4448 56.7453Z" fill="#522A17"/>
<path d="M23.3917 144.804C17.9532 143.666 16.5512 144.36 16.0324 138.681C13.2212 134.954 13.9638 136.924 8.7352 134.594C7.84096 130.423 7.45719 103.321 7.84189 98.3654C11.5798 95.0545 11.4965 98.0658 15.6542 95.4762C16.2359 92.7619 16.3109 91.6641 18.0586 89.4048C20.6424 89.0617 21.0197 89.02 23.2539 87.7011C25.2283 84.3052 24.7401 85.5991 24.4737 81.367C26.695 79.8087 28.5307 80.2517 31.3466 80.3572C31.1515 84.7408 31.9477 85.3928 29.6062 87.7345L24.3719 88.405C23.9438 92.3984 24.5782 93.7413 22.2478 95.9895L16.0649 96.8995C15.2095 103.819 15.1752 127.63 15.9641 134.501C18.1576 136.416 20.5074 136.027 23.8069 136.166L23.9595 143.574L23.3917 144.804Z" fill="#30180F"/>
<path d="M55.4448 56.7453C58.4003 56.4189 60.4218 55.7956 62.8095 57.3308C63.3968 62.4321 61.8062 61.0125 64.4529 64.169C67.0015 65.411 67.7912 65.1391 70.6533 64.7803C72.4954 67.2283 71.8481 67.4835 71.8084 71.1458L71.359 72.0882C62.3547 72.7486 48.4943 72.4055 39.1533 72.4665L39.6749 66.9527C44.233 61.4176 46.9795 66.2951 53.6452 64.0201C56.0375 61.2853 55.2524 61.3149 55.4448 56.7453Z" fill="#30180F"/>
<path d="M95.1465 96.0885C98.2639 96.353 99.9062 96.1088 102.104 98.2128C103.425 103.137 103.083 129.655 101.939 135.352C100.073 135.463 96.9683 135.555 95.2335 135.842L95.0051 135.343C95.3916 122.654 95.1678 109.802 95.0716 97.0983L95.1465 96.0885Z" fill="#30180F"/>
<path d="M87.7059 95.7204L94.2523 96.9245C94.2421 106.066 95.4545 126.4 93.4117 134.067C91.3051 135.232 92.3075 135.112 89.7608 134.39C85.985 129.23 87.582 103.723 87.7059 95.7204Z" fill="#613214"/>
<path d="M40.461 159.25C48.7339 160.156 62.6912 159.74 71.3071 159.499C71.3497 163.513 71.9637 163.374 70.1965 166.334C64.6739 169.173 47.5899 167.628 40.5331 167.148C39.1413 164.771 39.6536 162.533 39.6194 159.388L40.461 159.25Z" fill="#231215"/>
<path d="M40.461 159.25C40.3907 156.003 39.883 153.969 42.4168 151.999C48.2308 151.472 64.9088 151.083 70.438 152.267L71.5911 154.293L71.3071 159.499C62.6912 159.74 48.7339 160.156 40.461 159.25Z" fill="#613214"/>
<path d="M39.5602 73.3756C47.2625 73.2591 63.8805 71.662 69.7324 74.8776C71.3868 77.4995 71.0557 76.2602 70.6812 79.7116C64.2874 81.7185 47.0453 80.5412 39.6453 80.5467L39.5602 73.3756Z" fill="#764425"/>
<path d="M16.4663 104.943L24.0077 103.978L24.0345 104.755C23.9337 112.771 24.347 126.686 23.0283 134.14L21.2343 135.065C18.0522 134.649 17.0914 133.844 16.7039 130.358C15.8199 122.395 16.3183 112.937 16.4663 104.943Z" fill="#613214"/>
<path d="M16.0649 96.8995L22.2478 95.9895C24.5782 93.7413 23.9438 92.3984 24.3719 88.405C24.7289 92.1431 24.2094 93.6237 26.2161 96.1781C28.0138 96.4861 29.8208 96.8144 31.6287 97.0521C31.4511 101.363 32.1558 101.008 29.9429 103.814C27.9047 104.183 26.0912 104.504 24.0345 104.755L24.0077 103.978L16.4663 104.943L16.4774 97.7151L16.0649 96.8995Z" fill="#613214"/>
<path d="M16.4774 97.7151C20.3133 97.2204 20.3161 96.6082 23.3446 97.9603C24.3517 100.601 24.1677 101.065 24.0077 103.978L16.4663 104.943L16.4774 97.7151Z" fill="#764425"/>
<path d="M23.9595 143.574L31.4742 143.481C31.711 146.034 32.029 148.799 32.1243 151.333C36.3421 151.777 37.0182 151.093 39.5455 153.405C39.5955 155.375 39.6878 157.428 39.6194 159.388C36.9478 159.361 35.5024 159.583 33.1267 158.362C33.136 152.424 30.8739 151.259 25.4169 151.379C23.2854 148.901 23.8948 148.66 23.3917 144.804L23.9595 143.574Z" fill="#30180F"/>
<path d="M79.371 79.9688C90.3433 81.873 83.5769 81.1201 89.8745 88.5363C91.7147 89.1106 92.2446 89.2725 93.9379 90.1724C94.2957 92.1302 94.6194 94.1778 95.1465 96.0885L95.0716 97.0983L94.2523 96.9245L87.7059 95.7204C87.7059 93.5424 87.448 91.0361 87.2852 88.8341L79.4941 88.5335C79.544 86.2196 79.2343 82.8533 79.09 80.4617L79.371 79.9688Z" fill="#30180F"/>
<path d="M71.359 72.0882L71.8084 71.1458C74.332 72.8087 76.1529 72.5673 79.1315 72.621L79.371 79.9688L79.09 80.4617L77.3348 81.0397C75.9144 80.028 74.0085 80.0307 72.5908 81.0461C72.3254 78.0118 71.8316 75.0939 71.359 72.0882Z" fill="#30180F"/>
<path d="M95.0051 135.343L95.2335 135.842C94.4197 149.853 88.1128 137.757 86.9726 151.555C86.6859 148.901 86.9652 146.533 87.1529 143.879C87.8418 141.493 87.1695 140.217 88.4633 136.823C91.06 135.694 92.2483 135.685 95.0051 135.343Z" fill="#30180F"/>
<path d="M23.8069 136.166C28.0664 136.175 28.5658 135.472 31.5889 137.414C32.1872 140.004 32.1788 140.448 31.9883 143.111L31.4742 143.481L23.9595 143.574L23.8069 136.166Z" fill="#764425"/>
<path d="M32.1288 80.6763L39.6453 80.5467C39.9459 85.5047 40.6479 86.6126 36.086 88.8572L33.6881 87.8815C31.4548 84.6816 32.164 85.2791 32.1288 80.6763Z" fill="#764425"/>
<path d="M78.8737 149.622C77.7778 151.148 75.8145 151.777 74.0344 151.176C72.2542 150.575 71.0742 148.891 71.125 147.014C71.1759 145.127 72.4466 143.509 74.2573 143C76.067 142.501 77.9933 143.241 79.004 144.822C79.9464 146.302 79.8946 148.198 78.8737 149.622Z" fill="#764425"/>
<path d="M31.4742 143.481L31.9883 143.111C36.5909 143.518 36.3856 142.769 39.4336 145.211L40.1429 147.144C37.9466 151.749 37.0579 151.056 32.1243 151.333C32.029 148.799 31.711 146.034 31.4742 143.481Z" fill="#764425"/>
<path d="M71.5911 154.293L71.8815 152.693C73.6589 151.278 76.6939 151.703 79.1972 151.712C78.7228 155.43 79.2314 156.549 77.1424 159.055C75.0524 159.287 73.4082 159.435 71.3071 159.499L71.5911 154.293Z" fill="#30180F"/>
<path d="M79.004 144.822C81.819 144.683 84.4914 144.739 87.1529 143.879C86.9652 146.533 86.6859 148.901 86.9726 151.555L79.1972 151.712L78.8737 149.622C79.8946 148.198 79.9464 146.302 79.004 144.822Z" fill="#30180F"/>
<path d="M79.4941 88.5335L87.2852 88.8341C86.8478 93.0153 87.4988 92.637 85.3191 95.6196C82.1953 96.9116 83.3855 96.943 80.749 95.8942C78.6776 92.5093 79.3508 93.1512 79.4941 88.5335Z" fill="#613214"/>
<path d="M72.5908 81.0461C74.0085 80.0307 75.9144 80.028 77.3348 81.0397C78.7793 82.07 79.3933 83.914 78.8542 85.6046C78.3151 87.2943 76.7457 88.4419 74.972 88.4447C73.1983 88.4466 71.6263 87.3026 71.0825 85.6139C70.5388 83.9252 71.1482 82.0792 72.5908 81.0461Z" fill="#764425"/>
<path d="M24.3719 88.405C27.9452 88.7934 28.7684 88.2764 31.244 90.225C31.538 92.8238 31.6213 94.4358 31.6287 97.0521C29.8208 96.8144 28.0138 96.4861 26.2161 96.1781C24.2094 93.6237 24.7289 92.1431 24.3719 88.405Z" fill="#764425"/>
<path d="M47.9682 104.454C47.5742 99.8581 46.8668 100.427 48.9512 97.3602C54.3758 94.6892 57.8344 94.1908 63.0306 98.0122C64.145 100.552 63.8121 101.764 63.6105 104.528C58.9534 104.817 52.7482 104.534 47.9682 104.454Z" fill="#30180F"/>
<path d="M63.4968 120.269C68.2621 120.309 67.9013 119.529 70.99 121.899C72.6416 124.957 71.7548 131.699 71.5588 135.5C67.4575 135.713 67.3484 136.388 64.3901 134.64C62.3011 131.116 63.6383 124.809 63.4968 120.269Z" fill="#30180F"/>
<path d="M49.1158 135.842C53.3262 135.556 62.387 134.326 63.6576 138.802C61.0285 143.777 53.8238 146.542 48.8449 143.167C47.1517 139.652 47.6556 140.642 48.2262 136.268L49.1158 135.842Z" fill="#30180F"/>
<path d="M48.2262 136.268C43.1761 135.62 43.0679 136.453 39.9182 133.632L39.3651 131.153C41.2535 128.222 40.2335 129.22 43.4452 127.472C46.5977 127.472 45.5767 127.019 47.7194 128.767C47.8738 131.107 47.7481 134.252 49.1158 135.842L48.2262 136.268Z" fill="#30180F"/>
<path d="M63.4968 120.269C58.9655 120.517 58.4725 120.715 55.6455 118.225C54.7319 115.023 54.607 116.286 55.972 113.465C59.105 111.459 59.0144 112.161 63.4255 112.214L63.4968 120.269Z" fill="#30180F"/>
<path d="M39.4826 112.302C39.4928 109.453 39.3476 108.456 40.2585 105.699C43.3287 103.886 43.865 104.521 47.9682 104.454C48.1429 107.207 48.3233 108.277 47.6186 110.986C44.8221 112.942 43.6006 112.23 39.4826 112.302Z" fill="#30180F"/>
<path d="M63.6105 104.528C68.4488 104.608 67.8727 103.83 71.0298 106.28C71.9666 108.894 71.9666 107.752 70.806 110.597C68.0761 112.624 67.3215 112.23 63.4255 112.214L63.6105 104.528Z" fill="#30180F"/>
<path d="M80.3236 136.804C81.9271 135.26 84.4767 135.297 86.034 136.887C87.5913 138.478 87.5746 141.03 85.996 142.603C84.399 144.184 81.8143 144.175 80.2386 142.566C78.6637 140.956 78.7016 138.367 80.3236 136.804Z" fill="#764425"/>
<path d="M0 1.70797C2.91391 -0.902822 100.339 -0.0732144 110.883 1.24559C110.899 5.32315 111.419 22.6766 110.129 25.1542L110.018 25.2485C106.061 25.9255 106.342 25.2254 104.069 27.642C101.266 36.1245 106.494 41.5847 95.1391 41.7003L95.0226 48.9111C93.518 62.8492 88.7527 53.6981 87.3351 62.4747C87.2102 63.2562 87.0919 64.0386 86.98 64.8219C83.0359 64.8839 82.0012 64.1653 79.471 66.2054C79.2195 68.6248 79.1297 70.1896 79.1315 72.621C76.1529 72.5673 74.332 72.8087 71.8084 71.1458C71.8481 67.4835 72.4954 67.2283 70.6533 64.7803C67.7912 65.1391 67.0015 65.411 64.4529 64.169C61.8062 61.0125 63.3968 62.4321 62.8095 57.3308C60.4218 55.7956 58.4003 56.4189 55.4448 56.7453C55.2524 61.3149 56.0375 61.2853 53.6452 64.0201C46.9795 66.2951 44.233 61.4176 39.6749 66.9527L39.1533 72.4665L39.5602 73.3756L39.6453 80.5467L32.1288 80.6763L31.3466 80.3572C31.194 75.3002 30.8546 70.0768 31.5528 65.0836C27.8834 64.7877 26.1605 65.3759 24.0335 63.3043C23.548 60.786 23.4537 60.035 22.3338 57.7451C20.6748 57.2291 19.0223 56.6964 17.3744 56.147C15.2224 53.3494 15.6728 46.0174 15.0606 41.6253L14.9635 40.9604C3.26256 41.6476 10.3971 34.643 6.61484 27.7382C5.55507 25.8016 2.89918 25.9995 0.641846 25.6398C0.552145 17.6595 0.338461 9.68091 0 1.70797Z" fill="#30180F"/>
<path d="M0 1.70797L23.8569 1.8495C23.7349 6.70855 22.8101 12.9233 25.0378 16.7133C27.2138 18.0737 28.5511 17.8434 31.1348 17.9035L31.3531 24.3265C35.9944 28.0942 36.1748 23.8298 39.3596 27.4736C39.5307 29.4546 39.6601 31.1017 39.6953 33.0892C43.0632 33.1419 43.1789 32.5898 45.6137 34.3211C45.8431 36.6267 46.1131 38.6687 46.4636 40.9585C47.4947 44.4442 47.503 45.3959 47.6908 48.9666L55.7592 49.3329L55.4448 56.7453C55.2524 61.3149 56.0375 61.2853 53.6452 64.0201C46.9795 66.2951 44.233 61.4176 39.6749 66.9527L39.1533 72.4665L39.5602 73.3756L39.6453 80.5467L32.1288 80.6763L31.3466 80.3572C31.194 75.3002 30.8546 70.0768 31.5528 65.0836C27.8834 64.7877 26.1605 65.3759 24.0335 63.3043C23.548 60.786 23.4537 60.035 22.3338 57.7451C20.6748 57.2291 19.0223 56.6964 17.3744 56.147C15.2224 53.3494 15.6728 46.0174 15.0606 41.6253L14.9635 40.9604C3.26256 41.6476 10.3971 34.643 6.61484 27.7382C5.55507 25.8016 2.89918 25.9995 0.641846 25.6398C0.552145 17.6595 0.338461 9.68091 0 1.70797Z" fill="#522A17"/>
<path d="M31.5528 65.0836C34.8819 70.9572 29.2612 72.0624 39.1533 72.4665L39.5602 73.3756L39.6453 80.5467L32.1288 80.6763L31.3466 80.3572C31.194 75.3002 30.8546 70.0768 31.5528 65.0836Z" fill="#30180F"/>
<path d="M0.641846 25.6398C3.35601 25.2014 4.70433 24.7601 7.3103 25.8024C8.86667 30.9408 6.2828 28.5381 9.4649 32.9042C15.1189 35.4096 16.4968 31.0046 15.6321 40.3629L14.9635 40.9604C3.26256 41.6476 10.3971 34.643 6.61484 27.7382C5.55507 25.8016 2.89918 25.9995 0.641846 25.6398Z" fill="#30180F"/>
<path d="M14.9635 40.9604L15.6321 40.3629C17.2551 46.5435 15.4332 49.7453 23.1485 50.9014C24.5421 53.7998 24.0742 59.8334 24.0335 63.3043C23.548 60.786 23.4537 60.035 22.3338 57.7451C20.6748 57.2291 19.0223 56.6964 17.3744 56.147C15.2224 53.3494 15.6728 46.0174 15.0606 41.6253L14.9635 40.9604Z" fill="#30180F"/>
<path d="M47.6908 48.9666L55.7592 49.3329L55.4448 56.7453C52.6631 56.8878 51.683 57.0293 48.9318 56.3088C47.0074 53.2791 47.6843 53.2005 47.6908 48.9666Z" fill="#30180F"/>
<path d="M39.6953 33.0892C43.0632 33.1419 43.1789 32.5898 45.6137 34.3211C45.8431 36.6267 46.1131 38.6687 46.4636 40.9585C44.5189 40.8762 42.9514 40.6765 41.0186 40.4342C38.9333 37.6828 39.6842 37.3887 39.6953 33.0892Z" fill="#231215"/>
<path d="M86.7406 1.89934C94.7277 1.82165 102.937 1.85505 110.883 1.24559C110.899 5.32315 111.419 22.6766 110.129 25.1542L110.018 25.2485C106.061 25.9255 106.342 25.2254 104.069 27.642C101.266 36.1245 106.494 41.5847 95.1391 41.7003L95.0226 48.9111C93.518 62.8492 88.7527 53.6981 87.3351 62.4747C87.2102 63.2562 87.0919 64.0386 86.98 64.8219C83.0359 64.8839 82.0012 64.1653 79.471 66.2054C79.2195 68.6248 79.1297 70.1896 79.1315 72.621C76.1529 72.5673 74.332 72.8087 71.8084 71.1458C71.8481 67.4835 72.4954 67.2283 70.6533 64.7803C67.7912 65.1391 67.0015 65.411 64.4529 64.169C61.8062 61.0125 63.3968 62.4321 62.8095 57.3308C60.4218 55.7956 58.4003 56.4189 55.4448 56.7453L55.7592 49.3329C58.4882 49.4513 60.065 49.7019 62.6673 48.7123C64.2689 45.9609 63.6586 44.508 63.6493 40.903C63.6891 39.255 64.1302 38.0731 64.5824 36.4981C67.5037 33.9973 66.873 34.7104 71.0502 33.9159C70.4593 19.1501 78.1523 32.8691 78.6628 18.5287L79.0308 18.1033C82.0122 18.0367 83.5751 18.3197 86.0239 16.6836C88.0861 13.0491 86.9792 6.59654 86.7406 1.89934Z" fill="#522A17"/>
<path d="M95.1391 41.7003C94.9606 38.7464 94.5935 37.0465 95.6912 34.3034C98.6292 34.174 99.0564 34.1786 101.526 32.6231C103.657 29.2705 103.051 30.3341 103.185 26.016C106.006 24.4549 106.244 25.0728 110.018 25.2485C106.061 25.9255 106.342 25.2254 104.069 27.642C101.266 36.1245 106.494 41.5847 95.1391 41.7003Z" fill="#30180F"/>
<path d="M95.0226 48.9111C93.518 62.8492 88.7527 53.6981 87.3351 62.4747C87.2102 63.2562 87.0919 64.0386 86.98 64.8219C86.6813 60.9182 86.4576 54.216 88.2387 50.8061C90.8724 48.4635 90.6679 49.2034 95.0226 48.9111Z" fill="#30180F"/>
<path d="M63.6493 40.903C63.6891 39.255 64.1302 38.0731 64.5824 36.4981C67.5037 33.9973 66.873 34.7104 71.0502 33.9159C70.757 37.6134 71.3793 38.2183 69.3116 40.5091C67.2161 40.7413 65.7541 40.9289 63.6493 40.903Z" fill="#231215"/>
<path d="M31.3531 24.3265C31.7655 21.539 31.7461 20.6133 33.0926 18.0755C38.6985 17.282 73.3112 17.5336 78.6628 18.5287C78.1523 32.8691 70.4593 19.1501 71.0502 33.9159C66.873 34.7104 67.5037 33.9973 64.5824 36.4981C64.1302 38.0731 63.6891 39.255 63.6493 40.903C63.6586 44.508 64.2689 45.9609 62.6673 48.7123C60.065 49.7019 58.4882 49.4513 55.7592 49.3329L47.6908 48.9666C47.503 45.3959 47.4947 44.4442 46.4636 40.9585C46.1131 38.6687 45.8431 36.6267 45.6137 34.3211C43.1789 32.5898 43.0632 33.1419 39.6953 33.0892C39.6601 31.1017 39.5307 29.4546 39.3596 27.4736C36.1748 23.8298 35.9944 28.0942 31.3531 24.3265Z" fill="#15191A"/>
<path d="M0 1.70797C2.91391 -0.902822 100.339 -0.0732144 110.883 1.24559C102.937 1.85505 94.7277 1.82165 86.7406 1.89934C86.9792 6.59654 88.0861 13.0491 86.0239 16.6836C83.5751 18.3197 82.0122 18.0367 79.0308 18.1033C78.8708 13.5753 79.8214 6.63451 80.3189 1.94933C64.0016 1.609 47.6796 1.60629 31.3632 1.94293C31.4556 7.26439 31.3799 12.5876 31.1348 17.9035C28.5511 17.8434 27.2138 18.0737 25.0378 16.7133C22.8101 12.9233 23.7349 6.70855 23.8569 1.8495L0 1.70797Z" fill="#231215"/>
</svg>
