<svg width="120" height="168" viewBox="0 0 120 168" fill="none" xmlns="http://www.w3.org/2000/svg">
<path d="M41.1815 74.5909C50.3782 74.5309 71.2328 73.9276 79.4318 74.9139C80.948 76.7402 80.6505 78.571 80.5345 81.29L81.2 81.4338C83.8709 82.1554 84.8321 82.5075 87.6437 82.4647L87.7815 83.4029L88.4607 89.1475C92.4917 89.2048 97.7377 88.8007 101.083 90.7399C103.409 93.6326 102.693 93.5289 103.069 97.9249L103.442 98.2434C106.171 98.2816 108.958 97.8921 110.913 99.4773C111.407 108.148 111.59 126.478 110.759 135.105C108.276 136.588 107.392 136.024 104.1 135.997C103.029 143.012 104.141 143.167 97.1471 145.624L96.7345 146.179C96.1996 149.646 96.7519 150.237 94.6286 152.23L91.599 152.421L88.4488 151.893L81.4766 152.276L80.655 152.521L80.5364 159.801L80.5081 163.286L80.3319 166.289C76.0973 168.964 54.7863 167.736 49.0501 167.608C41.9583 165.943 43.1513 166.626 41.7949 159.665C41.3732 157.981 41.0619 154.523 40.8355 152.658L39.48 152.248L33.9737 152.039L32.473 152.858C30.8555 152.467 29.3777 152.185 27.7419 151.875C23.6497 145.906 22.2594 147.335 17.8093 143.021L17.8112 138.317C16.075 135.705 15.5209 136.734 11.3392 135.414C9.28806 131.665 9.80654 104.993 10.5185 99.7858C12.5067 97.8922 14.6929 98.1088 17.5811 97.864C17.802 95.6137 18.0138 94.1986 18.4748 91.9847C21.792 89.3004 26.4675 82.726 30.474 83.554C27.8833 84.0026 28.7916 83.5212 26.8016 85.1801L26.6282 87.1656C28.4977 88.809 29.5082 88.2039 32.6383 88.2202C31.4078 82.9762 31.6031 80.6112 31.7446 75.3389L33.1896 74.9103L41.1815 74.5909Z" fill="#6C5326"/>
<path d="M88.4607 89.1475C92.4917 89.2048 97.7377 88.8007 101.083 90.7399C103.409 93.6326 102.693 93.5289 103.069 97.9249L103.442 98.2434C106.171 98.2816 108.958 97.8921 110.913 99.4773C111.407 108.148 111.59 126.478 110.759 135.105C108.276 136.588 107.392 136.024 104.1 135.997L103.828 135.032L102.907 136.024C102.282 135.997 99.2256 135.833 98.9527 135.687C92.1932 132.184 98.604 110.936 95.0823 105.413C92.7701 105.821 91.9577 105.931 89.6153 105.909C88.111 103.67 88.6906 101.599 88.6806 98.4309L88.5427 90.0984L88.4607 89.1475Z" fill="#725B25"/>
<path d="M103.442 98.2434C106.171 98.2816 108.958 97.8921 110.913 99.4773C111.407 108.148 111.59 126.478 110.759 135.105C108.276 136.588 107.392 136.024 104.1 135.997L103.828 135.032C103.869 123.015 104.154 110.184 103.442 98.2434Z" fill="#30180F"/>
<path d="M88.4607 89.1475C92.4917 89.2048 97.7377 88.8007 101.083 90.7399C103.409 93.6326 102.693 93.5289 103.069 97.9249L96.0563 98.0414L88.6806 98.4309L88.5427 90.0984L88.4607 89.1475Z" fill="#30180F"/>
<path d="M88.5427 90.0984C92.1411 90.1776 92.8815 89.5952 95.5305 91.315C96.206 93.9639 96.0864 95.3725 96.0563 98.0414L88.6806 98.4309L88.5427 90.0984Z" fill="#7E682E"/>
<path d="M47.7611 151.939C55.847 153.295 75.1571 151.02 80.655 152.521L80.5364 159.801L80.5081 163.286L80.3319 166.289C76.0973 168.964 54.7863 167.736 49.0501 167.608C41.9583 165.943 43.1513 166.626 41.7949 159.665C41.3732 157.981 41.0619 154.523 40.8355 152.658L47.7611 151.939Z" fill="#725B25"/>
<path d="M41.7949 159.665C53.9282 159.783 68.6157 160.274 80.5364 159.801L80.5081 163.286L80.3319 166.289C76.0973 168.964 54.7863 167.736 49.0501 167.608C41.9583 165.943 43.1513 166.626 41.7949 159.665Z" fill="#30180F"/>
<path d="M48.3572 137.553C51.3814 136.87 52.8301 136.743 55.8799 136.506C57.4883 133.822 57.0319 116.972 56.0479 113.562C53.7996 113.244 52.6311 113.219 50.3573 113.223C48.9752 111.088 49.5038 110.887 49.7192 107.941C50.8493 106.103 52.2906 105.882 54.3892 105.104C56.5408 102.401 56.6759 101.396 57.5531 98.1815C59.5869 96.5955 58.6503 97.0131 61.6134 97.0295C69.5605 103.702 61.9566 125.951 65.576 136.069C70.8923 138.462 69.105 135.005 72.1383 137.998L72.4852 140.255L72.1703 143.021C68.6659 145.151 54.2834 145.105 50.0022 143.549C49.0081 143.185 48.5845 138.781 48.3572 137.553Z" fill="#30180F"/>
<path d="M32.473 152.858C30.8555 152.467 29.3777 152.185 27.7419 151.875C23.6497 145.906 22.2594 147.335 17.8093 143.021L17.8112 138.317C16.075 135.705 15.5209 136.734 11.3392 135.414C9.28806 131.665 9.80654 104.993 10.5185 99.7858C12.5067 97.8922 14.6929 98.1088 17.5811 97.864L17.6779 136.233L25.9281 137.926C24.7633 139.491 24.8336 141.656 26.0988 143.14C27.364 144.632 29.4909 145.051 31.2325 144.168C33.6497 146.871 32.9587 146.852 33.5931 151.093L33.9737 152.039L32.473 152.858Z" fill="#30180F"/>
<path d="M26.0093 97.2506L26.8217 97.8421C22.9842 103.098 28.745 135.141 23.4825 136.024C21.6551 136.333 19.5401 136.206 17.6779 136.233L17.5811 97.864C20.2694 97.8394 23.3037 97.489 26.0093 97.2506Z" fill="#7E682E"/>
<path d="M41.1815 74.5909C50.3782 74.5309 71.2328 73.9276 79.4318 74.9139C80.948 76.7402 80.6505 78.571 80.5345 81.29L80.3465 82.1672L41.2043 82.1281L41.1815 74.5909Z" fill="#7E682E"/>
<path d="M103.828 135.032L104.1 135.997C103.029 143.012 104.141 143.167 97.1471 145.624L96.7345 146.179C96.1996 149.646 96.7519 150.237 94.6286 152.23L91.599 152.421L88.4488 151.893L81.4766 152.276C80.3465 149.773 80.2461 149.446 80.2442 146.707C84.5665 141.647 88.0526 147.735 89.0011 137.926C91.41 136.288 92.6049 136.843 95.9769 136.752L102.907 136.024L103.828 135.032Z" fill="#7E682E"/>
<path d="M103.828 135.032L104.1 135.997C103.029 143.012 104.141 143.167 97.1471 145.624L96.7345 146.179L95.9915 144.414L95.9769 136.752L102.907 136.024L103.828 135.032Z" fill="#30180F"/>
<path d="M95.9915 144.414L96.7345 146.179C96.1996 149.646 96.7519 150.237 94.6286 152.23L91.599 152.421L88.4488 151.893C88.3511 149.255 88.1813 148.126 89.0284 145.542C91.7249 143.904 92.4469 144.468 95.9915 144.414Z" fill="#30180F"/>
<path d="M40.9888 149.609C42.966 141.62 47.5667 150.474 48.3572 137.553C48.5845 138.781 49.0081 143.185 50.0022 143.549C54.2834 145.105 68.6659 145.151 72.1703 143.021L72.4852 140.255C79.0147 159.674 55.7101 147.917 47.7611 151.939L40.8355 152.658L39.48 152.248L40.9888 149.609Z" fill="#694920"/>
<path d="M17.5811 97.864C17.802 95.6137 18.0138 94.1986 18.4748 91.9847C21.792 89.3004 26.4675 82.726 30.474 83.554C27.8833 84.0026 28.7916 83.5212 26.8016 85.1801L26.6282 87.1656C28.4977 88.809 29.5082 88.2039 32.6383 88.2202L33.4671 88.343L33.6278 89.4541L32.6711 89.9164C28.7076 90.193 28.2402 89.5341 25.7729 91.607C25.6496 94.0457 25.5793 94.8593 26.0093 97.2506C23.3037 97.489 20.2694 97.8394 17.5811 97.864Z" fill="#30180F"/>
<path d="M33.1896 74.9103L41.1815 74.5909L41.2043 82.1281C37.7173 82.2855 36.3872 81.7031 34.0851 83.514C33.8468 85.1118 33.5621 86.7351 33.4671 88.343L32.6383 88.2202C31.4078 82.9762 31.6031 80.6112 31.7446 75.3389L33.1896 74.9103Z" fill="#231215"/>
<path d="M26.0093 97.2506C25.5793 94.8593 25.6496 94.0457 25.7729 91.607C28.2402 89.5341 28.7076 90.193 32.6711 89.9164C33.8596 92.2732 34.0313 92.6034 34.1518 95.2259C31.982 98.5728 30.5534 98.0213 26.8217 97.8421L26.0093 97.2506Z" fill="#7E682E"/>
<path d="M33.4671 88.343C33.5621 86.7351 33.8468 85.1118 34.0851 83.514C36.3872 81.7031 37.7173 82.2855 41.2043 82.1281C41.3312 86.1719 42.0012 86.3293 40.2184 89.2239C37.49 89.8472 36.3398 89.6543 33.6278 89.4541L33.4671 88.343Z" fill="#7E682E"/>
<path d="M80.5345 81.29L81.2 81.4338C83.8709 82.1554 84.8321 82.5075 87.6437 82.4647L87.7815 83.4029C87.881 87.6369 88.0307 88.0337 84.8403 90.3786L82.5327 89.8618C79.7687 86.7225 80.6295 87.2876 80.3465 82.1672L80.5345 81.29Z" fill="#7E682E"/>
<path d="M25.9281 137.926C26.9632 136.533 28.7505 135.915 30.4274 136.379C32.1052 136.834 33.3275 138.271 33.5055 139.991C33.6835 141.72 32.7807 143.376 31.2325 144.168C29.4909 145.051 27.364 144.632 26.0988 143.14C24.8336 141.656 24.7633 139.491 25.9281 137.926Z" fill="#7E682E"/>
<path d="M33.5931 151.093C33.7017 148.672 33.7036 148.317 34.3845 146.015C36.7807 144.295 35.7474 144.532 38.4073 144.577C40.8957 146.579 40.1563 145.915 40.9888 149.609L39.48 152.248L33.9737 152.039L33.5931 151.093Z" fill="#7E682E"/>
<path d="M9.91974 33.6084C8.81978 30.0268 7.07716 28.5772 8.05024 24.2795C8.34143 22.9946 7.75541 22.6069 7.07809 21.4649L5.4076 21.0682C4.69102 21.9454 4.67644 22.091 4.42997 23.1647L4.21909 24.122C1.26699 21.4768 0.4482 9.10137 0 4.8264C1.95894 3.15845 0.670925 2.73533 2.56414 0L3.11456 2.16662C8.32591 3.26403 28.0011 2.61068 34.7606 2.55153C35.186 6.84652 34.6483 16.3301 36.002 18.9025C38.6273 19.3666 37.542 19.5367 40.0879 18.0198C41.9765 12.7521 36.8847 6.73459 40.6027 2.83361C49.5904 2.34951 112.196 1.82353 118.156 3.47692C120.33 6.70999 120.823 17.1709 118.316 20.2975L112.961 20.6378C110.731 23.4386 111.583 31.8048 111.699 35.8996C110.048 37.7486 108.364 39.5139 107.504 41.8962C103.422 49.7582 95.3534 70.3077 88.8121 76.1833L87.6437 82.4647C84.8321 82.5075 83.8709 82.1554 81.2 81.4338L80.5345 81.29C80.6505 78.571 80.948 76.7402 79.4318 74.9139C71.2328 73.9276 50.3782 74.5309 41.1815 74.5909L33.1896 74.9103L31.7446 75.3389C24.2275 71.0248 27.9363 65.4732 25.4579 61.7169C17.9116 50.2805 13.6377 49.1804 10.8663 35.3709L9.91974 33.6084Z" fill="#470E1A"/>
<path d="M44.2394 20.1336C55.8388 20.2911 67.4409 20.3357 79.0411 20.2674C79.0813 30.4116 74.9772 25.8372 72.6358 35.8722C72.6048 40.1044 73.3852 46.9956 71.4756 50.1486C68.9671 51.8011 67.3295 51.4279 64.2679 51.3733C62.622 55.005 64.2268 57.1288 60.3007 57.9441C57.6809 55.6174 57.5166 52.5072 56.8329 49.0112C56.9406 41.9781 54.5928 44.8244 50.0104 41.6305C48.6457 40.6796 48.4832 36.5174 48.2075 34.6684C47.8086 27.7072 47.0902 30.4835 42.3408 24.9255C42.6356 21.4941 42.1153 22.7543 44.2394 20.1336Z" fill="#231215"/>
<path d="M41.1924 4.90475C54.1491 4.58627 67.1095 4.54073 80.0681 4.76912C80.2771 9.36258 80.1493 14.2345 80.1109 18.8534L79.0411 20.2674C67.4409 20.3357 55.8388 20.2911 44.2394 20.1336L41.1577 20.0591C41.3211 15.3309 41.1924 9.70386 41.1924 4.90475Z" fill="#330C18"/>
<path d="M9.91974 33.6084C8.81978 30.0268 7.07716 28.5772 8.05024 24.2795C8.34143 22.9946 7.75541 22.6069 7.07809 21.4649L5.4076 21.0682C4.69102 21.9454 4.67644 22.091 4.42997 23.1647L4.21909 24.122C1.26699 21.4768 0.4482 9.10137 0 4.8264C1.95894 3.15845 0.670925 2.73533 2.56414 0L3.11456 2.16662C8.32591 3.26403 28.0011 2.61068 34.7606 2.55153C35.186 6.84652 34.6483 16.3301 36.002 18.9025C38.6273 19.3666 37.542 19.5367 40.0879 18.0198C41.9765 12.7521 36.8847 6.73459 40.6027 2.83361C49.5904 2.34951 112.196 1.82353 118.156 3.47692C110.556 5.08754 96.8952 4.72541 88.656 4.78092C88.6231 9.21877 89.3899 16.048 87.3524 19.3029C84.9362 20.8171 83.6153 20.5041 80.7308 20.464L80.1109 18.8534C80.1493 14.2345 80.2771 9.36258 80.0681 4.76912C67.1095 4.54073 54.1491 4.58627 41.1924 4.90475C41.1924 9.70386 41.3211 15.3309 41.1577 20.0591C37.1038 20.3958 37.4325 21.0191 34.5105 19.3138C32.4484 15.8687 33.0901 9.15326 32.986 4.73269L2.56869 4.07936C2.49476 5.78917 2.07484 13.4983 2.44819 14.6658C4.43725 20.8844 10.2356 19.3348 10.1461 27.0903C10.1114 29.2642 10.0366 31.4372 9.91974 33.6084Z" fill="#280915"/>
<path d="M56.8329 49.0112C57.5166 52.5072 57.6809 55.6174 60.3007 57.9441C64.2268 57.1288 62.622 55.005 64.2679 51.3733C64.4961 53.3106 65.0794 57.1962 64.9269 58.9724C67.6919 59.0816 71.8991 58.4583 73.5057 60.9552C72.7298 66.4814 72.5007 68.2413 72.895 73.7483C64.0953 73.7401 55.3121 73.8302 46.5151 73.8984C42.9596 73.9257 39.9984 72.4334 40.2211 68.5642C46.4941 63.7515 60.674 69.1849 63.9128 63.8471C62.5335 55.7703 56.4476 64.5104 56.8329 49.0112Z" fill="#330C18"/>
<path d="M64.9269 58.9724C67.6919 59.0816 71.8991 58.4583 73.5057 60.9552C72.7535 63.2674 72.654 63.6041 71.0246 65.3967C67.8023 66.6579 69.0831 66.6826 66.1821 65.5542C64.3445 62.6533 64.9525 62.9571 64.9269 58.9724Z" fill="#231215"/>
<path d="M10.8663 35.3709C14.0977 35.5593 15.0891 35.0379 17.2516 36.7322L17.1694 37.6403C16.9312 40.5112 16.7084 41.5368 18.3926 43.9791C22.6692 44.95 23.2453 43.4841 25.5191 45.5424C26.0869 49.7273 25.793 56.1889 27.4625 58.6867C34.9925 60.6186 33.2453 68.2067 33.1896 74.9103L31.7446 75.3389C24.2275 71.0248 27.9363 65.4732 25.4579 61.7169C17.9116 50.2805 13.6377 49.1804 10.8663 35.3709Z" fill="#231215"/>
<path d="M103.641 43.1838L107.504 41.8962C103.422 49.7582 95.3534 70.3077 88.8121 76.1833L88.4424 74.8248C88.4004 69.8327 88.2461 65.2602 88.8961 60.2864L90.4086 59.1526C92.6195 59.28 93.9897 59.6521 95.6948 58.4555L95.8993 56.3017C97.9888 49.5653 100.781 52.862 103.641 43.1838Z" fill="#231215"/>
<path d="M41.1577 20.0591L44.2394 20.1336C42.1153 22.7543 42.6356 21.4941 42.3408 24.9255C47.0902 30.4835 47.8086 27.7072 48.2075 34.6684C44.4795 34.8122 44.1938 35.4983 41.7875 33.6457C40.0586 30.3289 40.9395 24.0583 41.1577 20.0591Z" fill="#280915"/>
<path d="M79.0411 20.2674L80.1109 18.8534L80.7308 20.464C80.6066 24.4433 81.1863 31.5582 79.1671 34.3709C76.676 35.8732 75.5331 35.7002 72.6358 35.8722C74.9772 25.8372 79.0813 30.4116 79.0411 20.2674Z" fill="#330C18"/>
<path d="M88.4424 74.8248L88.8121 76.1833L87.6437 82.4647C84.8321 82.5075 83.8709 82.1554 81.2 81.4338L81.7303 75.5591C83.8572 73.853 84.9746 74.6109 88.4424 74.8248Z" fill="#30180F"/>
<path d="M95.8993 56.3017C96.405 51.8001 95.5488 48.6672 97.1663 44.6088C99.8619 42.5441 99.5151 43.2101 103.641 43.1838C100.781 52.862 97.9888 49.5653 95.8993 56.3017Z" fill="#280915"/>
<path d="M111.699 35.8996C110.048 37.7486 108.364 39.5139 107.504 41.8962L103.641 43.1838C103.738 40.3684 103.584 39.0836 104.716 36.4729C107.762 34.8686 107.63 35.5092 111.699 35.8996Z" fill="#231215"/>
<path d="M33.9737 152.039L39.48 152.248L40.8355 152.658C41.0619 154.523 41.3732 157.981 41.7949 159.665C43.1513 166.626 41.9583 165.943 49.0501 167.608C40.8008 167.772 43.2125 167.354 37.2645 161.421C34.1865 158.345 33.27 157.198 32.473 152.858L33.9737 152.039Z" fill="#30180F"/>
<path d="M88.4488 151.893L91.599 152.421C83.839 156.116 91.7213 161.029 80.5081 163.286L80.5364 159.801L80.655 152.521L81.4766 152.276L88.4488 151.893Z" fill="#30180F"/>
</svg>
