<svg width="125" height="168" viewBox="0 0 125 168" fill="none" xmlns="http://www.w3.org/2000/svg">
<path d="M1.38492 1.89351L0.818329 0.756008C4.34022 -0.325946 30.019 0.183832 35.6656 0.18968C35.5318 4.961 34.8904 11.0346 36.663 15.2961L38.0902 16.5545C41.8595 13.2102 40.6497 5.11696 40.5167 0.18968C48.847 0.394375 79.9095 -1.08916 84.9857 2.35652C86.5148 7.65322 83.3577 12.1439 85.5145 16.6423C88.0187 17.9757 87.0348 17.9191 89.4293 17.4084C90.0299 13.0757 89.9756 4.17049 91.4018 1.19073C95.7358 -0.702207 117.236 0.236488 123.53 0.207246C124.388 0.940245 124.522 0.744288 124.608 1.45974C124.826 5.95814 125.565 12.4684 124.177 16.534C120.221 19.3422 118.057 15.8936 116.913 22.2557C116.081 26.8818 118.057 30.2885 115.736 34.7479C113.462 34.8463 111.189 34.9721 108.918 35.1242C106.117 39.5056 109.905 40.1529 106.605 43.1034C102.977 43.1843 101.882 42.4804 99.9087 44.4825C98.7095 50.3933 100.827 55.6111 99.2712 59.8873C96.6148 60.6427 96.2228 60.5404 93.4121 60.4487C89.212 64.3681 93.6527 71.8863 90.6809 76.3993C88.5057 76.6293 87.2638 76.8379 85.1313 77.3282C83.3829 80.3644 84.0068 80.7923 83.9767 84.8277L83.3694 84.934L50.0948 84.8804L42.1361 84.9467L42.2292 76.984L42.1671 76.1429L41.7742 76.1107C38.9334 76.4879 37.5421 76.9178 34.9099 75.638C32.2767 70.3501 36.599 63.9149 32.2922 60.4429C29.7047 60.2733 28.5831 60.3678 26.208 59.3112C24.4247 55.0857 26.8056 50.5249 25.7588 44.4962C23.2925 41.9473 22.493 44.159 17.574 42.5497C17.3237 40.3819 17.0588 38.216 16.7794 36.0521L14.3596 34.2411C12.1175 34.1231 11.6159 34.2469 9.69289 33.2186C8.38115 29.5116 9.06516 22.3269 9.2204 18.116C7.16645 18.2164 5.2037 18.2223 3.14878 18.233C-1.39863 14.7678 -0.103394 6.7779 1.38492 1.89351Z" fill="#1A401C"/>
<path d="M91.8548 1.98428C101.362 2.0798 115.425 2.337 124.608 1.45974C124.826 5.95814 125.565 12.4684 124.177 16.534C120.221 19.3422 118.057 15.8936 116.913 22.2557C116.081 26.8818 118.057 30.2885 115.736 34.7479C113.462 34.8463 111.189 34.9721 108.918 35.1242C106.117 39.5056 109.905 40.1529 106.605 43.1034C102.977 43.1843 101.882 42.4804 99.9087 44.4825C98.7095 50.3933 100.827 55.6111 99.2712 59.8873C96.6148 60.6427 96.2228 60.5404 93.4121 60.4487C89.212 64.3681 93.6527 71.8863 90.6809 76.3993C88.5057 76.6293 87.2638 76.8379 85.1313 77.3282C83.3829 80.3644 84.0068 80.7923 83.9767 84.8277L83.3694 84.934L50.0948 84.8804L42.1361 84.9467L42.2292 76.984L42.1671 76.1429L41.7742 76.1107C41.3686 65.0718 49.0216 68.6025 57.155 68.1726C60.0074 68.0215 63.6109 68.424 66.5448 68.5459L66.7747 61.7637L67.3394 60.9498C67.2773 58.5188 67.417 56.7458 67.6149 54.3216C70.771 50.4928 70.7002 54.2232 74.585 51.4569C78.5949 42.2535 68.591 34.0286 82.6271 34.938C84.0174 35.0277 83.2568 19.3842 84.9207 19.3413C94.0854 19.1103 92.109 9.28893 91.8548 1.98428Z" fill="#1A401C"/>
<path d="M42.2292 76.984C50.608 76.9509 75.4077 76.3876 82.4418 77.3809C83.7215 80.1062 83.4431 81.9679 83.3694 84.934L50.0948 84.8804L42.1361 84.9467L42.2292 76.984Z" fill="#4D5C63"/>
<path d="M66.5448 68.5459L75.5891 68.9142C79.9541 69.1618 80.7701 68.424 83.5013 70.6854C83.4101 73.8289 83.9097 72.706 81.6336 74.8747C72.237 77.8253 52.9918 75.8349 42.1671 76.1429L41.7742 76.1107C41.3686 65.0718 49.0216 68.6025 57.155 68.1726C60.0074 68.0215 63.6109 68.424 66.5448 68.5459Z" fill="#15191A"/>
<path d="M67.3394 60.9498C71.1475 60.3582 71.7257 59.6036 74.7848 60.9829C75.9181 63.9743 75.6716 65.7756 75.5891 68.9142L66.5448 68.5459L66.7747 61.7637L67.3394 60.9498Z" fill="#04170D"/>
<path d="M1.38492 1.89351L0.818329 0.756008C4.34022 -0.325946 30.019 0.183832 35.6656 0.18968C35.5318 4.961 34.8904 11.0346 36.663 15.2961L38.0902 16.5545C41.8595 13.2102 40.6497 5.11696 40.5167 0.18968C48.847 0.394375 79.9095 -1.08916 84.9857 2.35652C86.5148 7.65322 83.3577 12.1439 85.5145 16.6423C88.0187 17.9757 87.0348 17.9191 89.4293 17.4084C90.0299 13.0757 89.9756 4.17049 91.4018 1.19073C95.7358 -0.702207 117.236 0.236488 123.53 0.207246C124.388 0.940245 124.522 0.744288 124.608 1.45974C115.425 2.337 101.362 2.0798 91.8548 1.98428C92.109 9.28893 94.0854 19.1103 84.9207 19.3413C83.2568 19.3842 84.0174 35.0277 82.6271 34.938C68.591 34.0286 78.5949 42.2535 74.585 51.4569C70.7002 54.2232 70.771 50.4928 67.6149 54.3216C67.417 56.7458 67.2773 58.5188 67.3394 60.9498L66.7747 61.7637L66.4633 60.8201C64.4016 60.7353 62.3719 60.5365 60.317 60.3562C58.0855 57.9144 58.7452 56.7067 58.4328 52.6869C58.2979 49.6535 58.5997 47.2596 56.7931 45.007L52.8627 44.6132C49.9637 41.8323 50.8748 41.7075 50.4139 36.5034C48.6598 34.2138 47.3218 35.3065 43.0238 34.6602C40.8437 30.231 43.2382 25.2706 41.8246 20.9993C40.3654 16.5886 38.1795 19.1464 34.7275 17.2768C33.1295 13.4422 33.6806 6.47674 33.7378 2.06509L1.38492 1.89351Z" fill="#15191A"/>
<path d="M58.4328 52.6869C62.3331 52.0036 62.9249 51.1878 65.9549 52.645C67.0939 55.4201 66.6476 57.7731 66.4633 60.8201C64.4016 60.7353 62.3719 60.5365 60.317 60.3562C58.0855 57.9144 58.7452 56.7067 58.4328 52.6869Z" fill="#04170D"/>
<path d="M41.7101 1.98618C55.8054 1.76492 69.9037 1.80878 83.9971 2.11874C83.4304 6.98656 83.3548 13.2004 83.1539 18.1901L42.04 18.4601L41.7101 1.98618Z" fill="#11291D"/>
<path d="M42.1361 84.9467L50.0948 84.8804L83.3694 84.934L83.9767 84.8277C88.2272 85.1319 89.3566 84.3698 91.6094 86.8232L92.5272 92.4249L94.0146 92.7573C98.1293 93.655 97.6568 92.8587 99.7311 95.5597L100.068 101.814C102.545 101.82 105.927 101.719 108.313 101.932L108.405 143.115C104.73 143.427 103.341 142.881 100.907 144.87C100.632 147.306 100.392 149.422 99.9562 151.849C99.7612 155.913 100.452 156.907 98.3001 159.529C96.1394 159.695 94.2464 159.812 92.0799 159.851L83.9127 160.222C83.8496 162.541 83.8681 165.748 83.6663 167.971L42.1739 168C41.5267 164.842 42.4407 163.341 40.5381 159.832L33.7611 159.763L27.3577 159.442C25.1863 156.956 25.9344 155.406 25.8179 151.312C25.4512 149.149 25.2416 147.092 25.0039 144.908C22.2737 142.647 21.7566 143.359 17.4557 143.037L17.311 102.21C19.399 101.897 23.1401 101.706 25.3678 101.529C25.4454 100.489 25.5346 99.4508 25.6355 98.4137C26.0712 94.2935 25.492 95.2682 27.9486 93.2525C32.234 93.2028 31.125 93.8402 33.3953 91.6481C33.5273 89.955 33.8349 88.0981 34.0793 86.3972C37.0385 84.2411 37.6789 85.0101 42.1361 84.9467Z" fill="#363C43"/>
<path d="M108.313 101.932L108.405 143.115L101.552 142.062C99.9223 139.499 100.038 109.213 100.358 104.024C102.397 102.297 105.253 102.413 108.313 101.932Z" fill="#434B4E"/>
<path d="M42.1739 168L42.9287 160.914C45.4862 159.647 80.2763 159.52 82.6688 160.962L83.6663 167.971L42.1739 168Z" fill="#434B4E"/>
<path d="M17.4557 143.037L17.311 102.21C21.0144 102.567 22.8142 102.059 25.2717 104.078C25.4308 105.857 25.6249 107.679 25.6744 109.461C25.6336 114.901 26.3157 139.431 23.6612 142.092L17.4557 143.037Z" fill="#4D5C63"/>
<path d="M33.3953 91.6481C37.3907 93.2223 38.1698 93.3197 42.463 93.73C42.2777 97.7859 42.9297 97.978 40.9359 100.734C34.9419 101.085 32.43 102.27 32.8453 108.989C30.8127 110.249 28.2319 109.66 25.6744 109.461C25.6249 107.679 25.4308 105.857 25.2717 104.078C22.8142 102.059 21.0144 102.567 17.311 102.21C19.399 101.897 23.1401 101.706 25.3678 101.529C25.4454 100.489 25.5346 99.4508 25.6355 98.4137C26.0712 94.2935 25.492 95.2682 27.9486 93.2525C32.234 93.2028 31.125 93.8402 33.3953 91.6481Z" fill="#3E4449"/>
<path d="M25.3678 101.529C25.4454 100.489 25.5346 99.4508 25.6355 98.4137C26.0712 94.2935 25.492 95.2682 27.9486 93.2525C32.2961 94.2116 31.4957 93.3499 33.9396 96.2586C34.1036 99.2305 34.3326 98.0735 32.0138 100.929C29.1643 101.88 28.3521 101.674 25.3678 101.529Z" fill="#4D5156"/>
<path d="M25.8179 151.312C26.0411 148.164 25.9101 144.986 27.7846 142.501L30.2489 142.013C33.2314 145.25 33.8077 149.782 34.4316 150.757C35.0166 151.683 39.1594 150.425 42.0128 154.159C41.7179 156.966 41.8003 157.385 40.5381 159.832L33.7611 159.763L27.3577 159.442C25.1863 156.956 25.9344 155.406 25.8179 151.312Z" fill="#4D5156"/>
<path d="M25.8179 151.312C29.6212 151.498 30.5419 150.884 33.2013 152.833C33.7087 155.718 33.7592 156.82 33.7611 159.763L27.3577 159.442C25.1863 156.956 25.9344 155.406 25.8179 151.312Z" fill="#15191A"/>
<path d="M83.9127 160.222C83.7031 157.2 83.2326 154.958 84.7325 152.287C87.3492 152.307 88.0225 152.17 90.5839 151.595C93.5082 148.856 91.9791 149.509 92.8901 144.177C95.4088 142.959 95.5019 143.476 98.5814 143.846C100.072 146.312 99.3256 147.862 99.084 151.283L99.9562 151.849C99.7612 155.913 100.452 156.907 98.3001 159.529C96.1394 159.695 94.2464 159.812 92.0799 159.851L83.9127 160.222Z" fill="#4D5C63"/>
<path d="M99.084 151.283L99.9562 151.849C99.7612 155.913 100.452 156.907 98.3001 159.529C96.1394 159.695 94.2464 159.812 92.0799 159.851C92.0179 157.21 92.0907 155.786 92.3594 153.164C95.11 150.932 94.9295 151.615 99.084 151.283Z" fill="#15191A"/>
<path d="M42.1361 84.9467L50.0948 84.8804C50.0657 89.1663 50.8204 90.0797 48.7791 92.9103L42.463 93.73C38.1698 93.3197 37.3907 93.2223 33.3953 91.6481C33.5273 89.955 33.8349 88.0981 34.0793 86.3972C37.0385 84.2411 37.6789 85.0101 42.1361 84.9467Z" fill="#4D5156"/>
<path d="M83.9767 84.8277C88.2272 85.1319 89.3566 84.3698 91.6094 86.8232L92.5272 92.4249C89.5797 93.1092 87.2822 94.0332 84.5394 93.0575C82.7319 89.8828 83.3927 89.14 83.3694 84.934L83.9767 84.8277Z" fill="#4D5156"/>
<path d="M94.0146 92.7573C98.1293 93.655 97.6568 92.8587 99.7311 95.5597L100.068 101.814C98.2341 101.95 96.251 101.962 94.4008 102.011C91.2116 99.7714 92.1323 100.994 90.8051 97.4672C92.0693 93.8071 91.1758 94.9933 94.0146 92.7573Z" fill="#4D5156"/>
<path d="M75.3234 110.185C80.0347 110.16 79.9377 109.355 82.8843 111.692C85.4583 117.749 85.008 120.035 82.8988 126.284C78.7851 128.534 78.9199 125.176 75.2709 128.26C74.7587 130.765 74.7752 131.135 75.1041 133.68C72.3292 135.424 73.3858 134.888 69.3808 134.908L59.9532 134.781C58.3892 132.607 58.7016 131.574 58.7744 128.783L59.8416 126.927C62.0857 126.886 64.3288 126.777 66.5671 126.602C69.9852 122.186 63.6972 117.207 74.3551 117.17C75.6329 114.729 75.3408 112.967 75.3234 110.185Z" fill="#141A1F"/>
<path d="M53.2004 134.06C55.7598 134.508 56.0091 134.45 58.0398 135.951C58.5171 138.241 58.7257 139.625 58.9382 141.965C64.0687 145.347 80.2539 139.655 84.553 146.429C83.9669 149.061 83.8806 149.412 82.303 151.576L50.249 151.371C50.0743 145.181 48.4977 138.193 53.2004 134.06Z" fill="#141A1F"/>
<path d="M58.8287 110.239C58.8432 108.28 58.3115 104.349 59.8319 103.067C64.1328 99.4381 71.2203 99.5434 75.0342 103.99C75.2738 106.378 75.3738 107.788 75.3234 110.185L58.8287 110.239Z" fill="#141A1F"/>
<path d="M50.052 118.386C50.0064 115.532 49.8589 114.213 50.7127 111.41C53.4565 109.618 55.0458 110.272 58.8287 110.239C58.9373 113.176 59.2031 114.568 58.1979 117.354C55.1117 119.085 54.1279 118.415 50.052 118.386Z" fill="#141A1F"/>
<path d="M90.8449 104.972C92.4244 104.973 94.2552 105.242 95.8454 105.42C98.3573 107.779 97.6277 107.15 98.5368 110.976L93.2287 110.315C90.8071 108.412 91.4891 108.625 90.8449 104.972Z" fill="#3E4449"/>
</svg>
