<svg width="168" height="174" viewBox="0 0 168 174" fill="none" xmlns="http://www.w3.org/2000/svg">
<path d="M80.9824 6.815C80.9824 3.5931 80.4725 2.82361 81.814 0.34143C88.9376 -0.326278 100.211 0.170808 107.649 0.287442C107.68 20.0862 107.413 40.501 107.806 60.2238C127.709 60.1995 148.091 60.5354 167.917 60.3232C168.026 78.0868 168.026 95.8511 167.924 113.615C147.809 113.945 127.686 113.958 107.57 113.657L107.711 173.806C102.4 173.861 85.7838 174.375 81.4531 173.463C80.8255 171.337 81.2649 167.917 79.8919 167.443C74.6905 165.645 74.055 169.465 73.6078 161.254L73.3254 160.781C71.8034 160.696 70.2657 160.496 68.7516 160.322C67.0256 158.292 67.614 157.606 67.5277 154.353L67.1981 154.227C65.4565 154.185 63.7776 154.066 62.0438 153.949C60.2629 152.062 60.8042 151.398 60.5689 148.236L60.2864 147.62C58.4663 147.157 55.5871 147.217 53.6257 147.169L53.1785 142.309C51.4604 140.615 50.2758 141.154 47.2318 140.987L47.5378 133.828L40.2258 133.932L39.8885 129.002C38.1547 127.231 37.684 127.739 34.6635 127.408C33.2749 125.379 33.7535 123.229 33.8868 120.629C31.5803 120.747 30.278 120.972 28.0891 120.116C27.8695 113.576 26.5829 113.864 21.3814 113.676C19.9065 111.63 20.3771 109.767 20.5262 107.121C18.1726 107.29 16.7212 107.619 14.5481 106.726C13.1516 104.105 13.6851 103.648 13.7244 100.264C13.7165 98.6237 13.6145 96.947 13.5439 95.3047C11.6375 93.3157 10.5391 93.8464 7.14996 93.4566C7.73836 93.3791 8.33461 93.2985 8.92301 93.2132C16.4153 92.104 9.62906 88.284 20.5576 87.4174L20.3536 86.893L20.5576 80.5361L20.589 74.115C22.0169 73.6179 25.359 73.6359 27.0143 73.5749C27.0143 71.4943 27.234 69.2993 27.3909 67.2148L26.9594 67.0465L26.9673 66.587C27.7361 64.2074 26.8731 63.9874 28.4108 61.1068L30.8821 60.4117L28.4108 60.1534C26.7554 58.5698 27.2183 59.3839 26.8966 56.9041C28.8815 53.1225 30.4114 53.9655 34.185 54.0532L39.8336 54.1596L40.3122 53.2963C40.8222 51.0951 40.2573 50.6857 41.2929 47.5812L43.4111 46.8321C41.3792 46.5025 40.8692 45.4873 40.1082 43.8834L40.8849 42.029C44.18 39.9476 43.1915 40.5566 47.6633 40.7405L54.018 40.6654L54.4181 40.1667L60.4433 40.1753C60.2158 38.3366 60.4983 37.3049 60.7807 35.4583L61.3691 33.5719C61.4789 30.5621 60.9846 29.8967 62.4988 27.7675L67.1981 27.1014L67.9905 23.694L67.7865 20.4619C67.5512 18.069 67.2296 16.7469 68.1318 14.4667C73.043 13.8483 74.7767 13.132 74.7689 7.89916V7.49133C76.9421 6.28586 78.5347 6.63888 80.9824 6.815Z" fill="#000006"/>
<path d="M26.8575 80.367C52.9511 80.6629 79.0447 80.7732 105.138 80.6965C112.144 80.6308 149.613 78.9846 154.297 80.3161C155.882 84.3106 153.866 83.6586 156.204 86.666L160.103 87.0331L160.958 86.6989L161.154 100.356C161.193 102.526 161.593 105.476 160.448 107.065C143.761 107.933 119.072 107.021 101.286 107.243C100.258 125.387 101.043 148.693 100.965 167.342C97.9284 167.294 83.2811 167.474 81.3747 166.262C80.9981 164.352 80.6686 162.829 80.1429 160.953C77.8286 159.491 76.1419 160.321 73.6078 161.254L73.3254 160.781C71.8034 160.696 70.2657 160.496 68.7516 160.322C67.0256 158.292 67.614 157.606 67.5277 154.353L67.1981 154.227C65.4565 154.185 63.7776 154.066 62.0438 153.949C60.2629 152.062 60.8042 151.398 60.5689 148.236L60.2864 147.62C58.4663 147.157 55.5871 147.217 53.6257 147.169L53.1785 142.309C51.4604 140.615 50.2758 141.154 47.2318 140.987L47.5378 133.828L40.2258 133.932L39.8885 129.002C38.1547 127.231 37.684 127.739 34.6635 127.408C33.2749 125.379 33.7535 123.229 33.8868 120.629C31.5803 120.747 30.278 120.972 28.0891 120.116C27.8695 113.576 26.5829 113.864 21.3814 113.676C19.9065 111.63 20.3771 109.767 20.5262 107.121C18.1726 107.29 16.7212 107.619 14.5481 106.726C13.1516 104.105 13.6851 103.648 13.7244 100.264C13.7165 98.6237 13.6145 96.947 13.5439 95.3047C11.6375 93.3157 10.5391 93.8464 7.14996 93.4566C7.73836 93.3791 8.33461 93.2985 8.92301 93.2132C16.4153 92.104 9.62906 88.284 20.5576 87.4174L20.3536 86.893L20.5576 80.5361L26.8575 80.367Z" fill="#424753"/>
<path d="M7.14996 93.4566C7.73836 93.3791 8.33461 93.2985 8.92301 93.2132C16.4153 92.104 9.62906 88.284 20.5576 87.4174C20.6596 90.6088 20.1889 90.5797 21.6324 92.9922C25.8768 93.8102 25.053 92.3777 27.0222 94.7425C27.0928 97.8869 26.4887 98.6384 28.2304 100.329C31.8706 100.33 32.3099 99.6638 34.4595 101.485C34.8283 103.588 34.7342 103.831 34.4204 105.982C36.8367 107.528 36.8995 106.991 40.2808 107.005C41.8185 117.881 44.0309 110.983 47.3495 116.007L47.3965 120.565C51.1387 120.597 51.3898 119.931 53.6336 121.816C54.5358 125.172 54.0808 126.061 56.3873 127.524L60.6473 127.566C60.6708 129.423 60.6316 131.992 60.7728 133.778C63.9188 133.773 65.0093 133.216 67.261 134.7C67.8337 136.973 67.6689 138.054 67.5198 140.333C70.8541 140.812 71.8269 140.298 73.6 142.327L74.0942 147.148L80.9982 147.161L80.9275 153.877C83.0536 154.061 84.8894 154.283 87.0312 154.175L94.3509 153.204C94.2254 135.622 94.2175 118.04 94.3274 100.459C112.223 99.2356 142.309 100.387 161.154 100.356C161.193 102.526 161.593 105.476 160.448 107.065C143.761 107.933 119.072 107.021 101.286 107.243C100.258 125.387 101.043 148.693 100.965 167.342C97.9284 167.294 83.2811 167.474 81.3747 166.262C80.9981 164.352 80.6686 162.829 80.1429 160.953C77.8286 159.491 76.1419 160.321 73.6078 161.254L73.3254 160.781C71.8034 160.696 70.2657 160.496 68.7516 160.322C67.0256 158.292 67.614 157.606 67.5277 154.353L67.1981 154.227C65.4565 154.185 63.7776 154.066 62.0438 153.949C60.2629 152.062 60.8042 151.398 60.5689 148.236L60.2864 147.62C58.4663 147.157 55.5871 147.217 53.6257 147.169L53.1785 142.309C51.4604 140.615 50.2758 141.154 47.2318 140.987L47.5378 133.828L40.2258 133.932L39.8885 129.002C38.1547 127.231 37.684 127.739 34.6635 127.408C33.2749 125.379 33.7535 123.229 33.8868 120.629C31.5803 120.747 30.278 120.972 28.0891 120.116C27.8695 113.576 26.5829 113.864 21.3814 113.676C19.9065 111.63 20.3771 109.767 20.5262 107.121C18.1726 107.29 16.7212 107.619 14.5481 106.726C13.1516 104.105 13.6851 103.648 13.7244 100.264C13.7165 98.6237 13.6145 96.947 13.5439 95.3047C11.6375 93.3157 10.5391 93.8464 7.14996 93.4566Z" fill="#1C212B"/>
<path d="M20.5262 107.121C22.9661 107.036 24.9821 106.627 26.8885 107.935C26.6688 109.783 26.7003 110.541 27.2573 112.316C29.6031 114.595 30.215 114.233 33.3139 114.656C34.2318 117.017 34.0202 118.16 33.8868 120.629C31.5803 120.747 30.278 120.972 28.0891 120.116C27.8695 113.576 26.5829 113.864 21.3814 113.676C19.9065 111.63 20.3771 109.767 20.5262 107.121Z" fill="#000006"/>
<path d="M40.2808 107.005C41.8185 117.881 44.0309 110.983 47.3495 116.007L47.3965 120.565C43.6229 120.482 43.6932 121.08 41.065 119.283C39.088 115.688 39.9748 111.236 40.2808 107.005Z" fill="#262933"/>
<path d="M87.0312 154.175L94.3509 153.204C94.3039 157.403 94.9554 156.91 92.9078 159.801C89.8245 161.093 91.0799 161.072 88.1692 160.07C86.4511 157.917 86.7801 157.669 87.0312 154.175Z" fill="#333944"/>
<path d="M13.7244 100.264C17.1763 100.343 17.8905 99.7609 20.2205 101.411C20.8325 103.713 20.6596 104.803 20.5262 107.121C18.1726 107.29 16.7212 107.619 14.5481 106.726C13.1516 104.105 13.6851 103.648 13.7244 100.264Z" fill="#000006"/>
<path d="M60.5689 148.236C62.3576 147.009 62.624 146.954 64.7893 146.694C68.4687 148.713 67.6845 150.282 67.1981 154.227C65.4565 154.185 63.7776 154.066 62.0438 153.949C60.2629 152.062 60.8042 151.398 60.5689 148.236Z" fill="#000006"/>
<path d="M47.5378 133.828C51.3898 133.889 51.0835 133.305 53.8999 135.089L54.5903 137.012C52.4642 141.079 51.7664 140.644 47.2318 140.987L47.5378 133.828Z" fill="#000006"/>
<path d="M67.5277 154.353C70.909 153.989 71.0581 153.445 73.7491 154.633C74.5023 156.709 74.3139 158.726 73.3254 160.781C71.8034 160.696 70.2657 160.496 68.7516 160.322C67.0256 158.292 67.614 157.606 67.5277 154.353Z" fill="#000006"/>
<path d="M53.6257 147.169C54.1828 143.117 53.4845 143.544 55.8381 141.032L58.2546 140.29C60.6082 141.54 59.8942 140.776 61.0004 143.139C60.7886 144.566 60.5924 146.238 60.2864 147.62C58.4663 147.157 55.5871 147.217 53.6257 147.169Z" fill="#000006"/>
<path d="M40.2258 133.932C40.6887 130.02 40.084 128.079 44.4774 126.746C48.2746 128.566 47.5927 129.826 47.5378 133.828L40.2258 133.932Z" fill="#000006"/>
<path d="M33.8868 120.629C37.6683 120.791 37.4246 120.199 40.0685 122.053L40.8609 123.973C39.2997 127.607 38.3979 127.222 34.6635 127.408C33.2749 125.379 33.7535 123.229 33.8868 120.629Z" fill="#000006"/>
<path d="M160.103 87.0331L160.958 86.6989L161.154 100.356C142.309 100.387 112.223 99.2356 94.3274 100.459C90.6871 100.407 90.5145 100.972 87.8314 99.3375C87.0939 96.5281 87.1017 97.7116 87.9098 94.8302C95.0961 91.4604 144.42 95.9872 153.709 93.0862C155.435 87.5864 154.886 88.1885 160.103 87.0331Z" fill="#333944"/>
<path d="M60.6473 127.566C60.8199 125.054 60.8986 123.903 61.5027 121.378C64.4918 119.745 85.839 119.776 88.4358 121.942C88.1612 125.387 88.6555 124.288 86.9845 126.832C80.567 131.107 65.5274 126.125 61.5184 128.367L60.7728 133.778C60.6316 131.992 60.6708 129.423 60.6473 127.566Z" fill="#333944"/>
<path d="M67.5198 140.333C70.1245 140.235 71.8821 140.507 73.7649 138.869C74.0709 137.113 73.9846 136.921 73.7022 135.132C76.3618 132.386 83.8933 133.384 87.6512 133.535C87.6042 136.944 87.6905 144.071 87.259 147.173L80.9982 147.161L74.0942 147.148L73.6 142.327C71.8269 140.298 70.8541 140.812 67.5198 140.333Z" fill="#333944"/>
<path d="M74.0942 147.148C74.5022 143.037 73.8036 143.624 76.118 141.031L78.2127 140.444C81.6333 142.519 81.1158 143.363 80.9982 147.161L74.0942 147.148Z" fill="#474E5A"/>
<path d="M80.9982 147.161L87.259 147.173C87.1178 150.292 87.6351 150.852 86.0268 153.015C84.3244 153.314 82.6299 153.602 80.9275 153.877L80.9982 147.161Z" fill="#4F5660"/>
<path d="M57.2342 100.578C65.2129 100.595 79.1698 99.3295 86.3561 100.646L87.1642 101.949C87.2034 104.693 87.6977 104.813 86.2384 106.568C82.606 107.65 76.1493 107.114 72.1404 106.987C66.7349 107.03 41.7475 108.848 41.5435 102.751C43.6618 100.704 51.7503 101.494 56.5046 100.704L57.2342 100.578Z" fill="#474E5A"/>
<path d="M61.3691 33.5719L67.4174 33.6741L67.2606 37.7477L68.202 40.1132C75.0039 42.86 81.9784 37.3179 86.8582 41.6122C87.6506 43.5692 87.376 44.6737 87.2269 46.7606C87.1014 49.1786 86.9288 51.0158 87.2348 53.4424C87.3682 58.0991 87.4701 62.229 87.3132 66.9053C88.4979 66.9343 93.3385 66.9742 94.1936 67.2051C96.3432 67.2482 98.6969 67.3985 100.792 67.0728L101.168 67.3319C100.729 70.8622 100.172 70.5538 101.655 73.0125C105.012 74.3769 108.103 73.4157 111.822 73.6849C118.279 73.5996 150.876 72.5014 154.438 74.6039L154.501 75.1174C154.728 77.0775 154.838 77.6388 155.466 79.49C157.341 80.8967 158.612 80.5671 161.028 80.5006L160.958 86.6989L160.103 87.0331L156.204 86.666C153.866 83.6586 155.882 84.3106 154.297 80.3161C149.613 78.9846 112.144 80.6308 105.138 80.6965C79.0447 80.7732 52.9511 80.6629 26.8575 80.367L20.5576 80.5361L20.589 74.115C22.0169 73.6179 25.359 73.6359 27.0143 73.5749C27.0143 71.4943 27.234 69.2993 27.3909 67.2148L26.9594 67.0465L26.9673 66.587C27.7361 64.2074 26.8731 63.9874 28.4108 61.1068L30.8821 60.4117L28.4108 60.1534C26.7554 58.5698 27.2183 59.3839 26.8966 56.9041C28.8815 53.1225 30.4114 53.9655 34.185 54.0532L39.8336 54.1596L40.3122 53.2963C40.8222 51.0951 40.2573 50.6857 41.2929 47.5812L43.4111 46.8321C41.3792 46.5025 40.8692 45.4873 40.1082 43.8834L40.8849 42.029C44.18 39.9476 43.1915 40.5566 47.6633 40.7405L54.018 40.6654L54.4181 40.1667L60.4433 40.1753C60.2158 38.3366 60.4983 37.3049 60.7807 35.4583L61.3691 33.5719Z" fill="#474E5A"/>
<path d="M61.3691 33.5719L67.4174 33.6741L67.2606 37.7477L68.202 40.1132C75.0039 42.86 81.9784 37.3179 86.8582 41.6122C87.6506 43.5692 87.376 44.6737 87.2269 46.7606C78.4245 46.8663 69.5518 47.0353 60.7572 47.033L54.0729 46.9179L54.018 40.6654L54.4181 40.1667L60.4433 40.1753C60.2158 38.3366 60.4983 37.3049 60.7807 35.4583L61.3691 33.5719Z" fill="#474E5A"/>
<path d="M60.4433 40.1753C60.6159 42.5151 60.8043 44.6768 60.7572 47.033L54.0729 46.9179L54.018 40.6654L54.4181 40.1667L60.4433 40.1753Z" fill="#8B9098"/>
<path d="M61.3691 33.5719L67.4174 33.6741L67.2606 37.7477L66.9231 39.1214C64.9382 40.9641 65.8797 40.6236 63.4477 40.5829C60.639 38.5273 61.4397 39.553 60.7807 35.4583L61.3691 33.5719Z" fill="#8B9098"/>
<path d="M87.2269 46.7606C87.1014 49.1786 86.9288 51.0158 87.2348 53.4424C76.7926 53.0525 64.4521 52.8248 54.0649 53.4511L54.0729 46.9179L60.7572 47.033C69.5518 47.0353 78.4245 46.8663 87.2269 46.7606Z" fill="#424753"/>
<path d="M47.6633 40.7405L54.018 40.6654L54.0729 46.9179L54.0649 53.4511L47.0271 53.571L46.5879 53.7071C44.6657 53.7948 41.9042 53.6947 40.3116 54.5479L39.8336 54.1596L40.3122 53.2963C40.8222 51.0951 40.2573 50.6857 41.2929 47.5812L43.4111 46.8321C41.3792 46.5025 40.8692 45.4873 40.1082 43.8834L40.8849 42.029C44.18 39.9476 43.1915 40.5566 47.6633 40.7405Z" fill="#424753"/>
<path d="M47.0271 53.571C47.1448 51.5874 47.3021 50.0695 47.5688 48.1008C49.8597 46.3396 50.4876 46.9719 54.0729 46.9179L54.0649 53.4511L47.0271 53.571Z" fill="#8B9098"/>
<path d="M43.4111 46.8321C41.3792 46.5025 40.8692 45.4873 40.1082 43.8834L40.8849 42.029C44.18 39.9476 43.1915 40.5566 47.6633 40.7405C47.3573 43.8662 47.8437 44.7906 46.0706 46.7068L43.4111 46.8321Z" fill="#000006"/>
<path d="M30.8821 60.4117L28.4108 60.1534C26.7554 58.5698 27.2183 59.3839 26.8966 56.9041C28.8815 53.1225 30.4114 53.9655 34.185 54.0532L39.8336 54.1596L40.3116 54.5479C40.3743 57.6085 40.9324 57.8403 39.3163 59.7659C35.731 60.89 35.4328 60.2809 33.9344 62.7467L33.9893 67.2187L27.3909 67.2148L26.9594 67.0465L26.9673 66.587C27.7361 64.2074 26.8731 63.9874 28.4108 61.1068L30.8821 60.4117Z" fill="#424753"/>
<path d="M30.8821 60.4117L28.4108 60.1534C26.7554 58.5698 27.2183 59.3839 26.8966 56.9041C28.8815 53.1225 30.4114 53.9655 34.185 54.0532C34.0281 57.5553 34.6326 58.0281 32.8203 60.1526L30.8821 60.4117Z" fill="#000006"/>
<path d="M46.5879 53.7071C47.2704 56.0704 47.8744 57.1848 47.1056 59.4799C45.5365 60.4952 44.2342 60.2268 42.3121 60.1837C39.8565 61.9723 39.7859 63.5011 39.8958 66.5696C37.8481 67.7077 36.3742 67.3533 33.9893 67.2187L33.9344 62.7467C35.4328 60.2809 35.731 60.89 39.3163 59.7659C40.9324 57.8403 40.3743 57.6085 40.3116 54.5479C41.9042 53.6947 44.6657 53.7948 46.5879 53.7071Z" fill="#8B9098"/>
<path d="M100.792 67.0728L101.168 67.3319C100.729 70.8622 100.172 70.5538 101.655 73.0125C105.012 74.3769 108.103 73.4157 111.822 73.6849C106.307 74.2548 100.462 75.607 95.582 73.4489C93.6834 70.8884 94.3034 71.0376 94.1936 67.2051C96.3432 67.2482 98.6969 67.3985 100.792 67.0728Z" fill="#5B626F"/>
<path d="M27.3909 67.2148L33.9893 67.2187C33.9108 70.2238 34.373 70.9453 32.9922 73.2592C30.6072 73.9833 29.4699 73.7385 27.0143 73.5749C27.0143 71.4943 27.234 69.2993 27.3909 67.2148Z" fill="#8B9098"/>
<path d="M27.0143 73.5749L26.8575 80.367L20.5576 80.5361L20.589 74.115C22.0169 73.6179 25.359 73.6359 27.0143 73.5749Z" fill="#8B9098"/>
<path d="M67.7865 20.4619C67.5512 18.069 67.2296 16.7469 68.1318 14.4667C73.043 13.8483 74.7767 13.132 74.7689 7.89916V7.49133C76.9421 6.28586 78.5347 6.63888 80.9824 6.815C85.3994 6.93947 89.7295 7.09045 94.1465 6.99808L101.262 6.90492C100.791 10.4039 101.341 10.7937 99.3871 12.9863C97.9985 13.3213 95.08 13.7018 94.9859 14.5855C94.0131 23.1984 93.6208 59.2961 94.7349 65.9591C97.3552 66.7842 98.1555 66.8411 100.792 67.0728C98.6969 67.3985 96.3432 67.2482 94.1936 67.2051C93.3385 66.9742 88.4979 66.9343 87.3132 66.9053C87.4701 62.229 87.3682 58.0991 87.2348 53.4424C86.9288 51.0158 87.1014 49.1786 87.2269 46.7606C87.376 44.6737 87.6506 43.5692 86.8582 41.6122C81.9784 37.3179 75.0039 42.86 68.202 40.1132L67.2606 37.7477L67.4174 33.6741L61.3691 33.5719C61.4789 30.5621 60.9846 29.8967 62.4988 27.7675L67.1981 27.1014L67.9905 23.694L67.7865 20.4619Z" fill="#333944"/>
<path d="M67.7865 20.4619C67.5512 18.069 67.2296 16.7469 68.1318 14.4667C73.043 13.8483 74.7767 13.132 74.7689 7.89916V7.49133C76.9421 6.28586 78.5347 6.63888 80.9824 6.815L80.9114 13.4466L81.0526 13.9272L80.8957 20.1949L80.7387 26.7217L74.0702 26.8039L73.8113 33.4066L67.4174 33.6741L61.3691 33.5719C61.4789 30.5621 60.9846 29.8967 62.4988 27.7675L67.1981 27.1014L67.9905 23.694L67.7865 20.4619Z" fill="#424753"/>
<path d="M67.7865 20.4619C67.5512 18.069 67.2296 16.7469 68.1318 14.4667C73.043 13.8483 74.7767 13.132 74.7689 7.89916V7.49133C76.9421 6.28586 78.5347 6.63888 80.9824 6.815L80.9114 13.4466C77.585 13.4928 76.7693 12.8838 74.6746 14.6114C73.6468 18.2544 74.2118 18.8336 71.7797 20.335L67.7865 20.4619Z" fill="#000006"/>
<path d="M74.0702 26.8039C74.0466 24.418 74.0628 23.6226 74.4864 21.2821C76.9891 19.6915 77.4202 20.2513 80.8957 20.1949L80.7387 26.7217L74.0702 26.8039Z" fill="#8B9098"/>
<path d="M74.0702 26.8039L73.8113 33.4066L67.4174 33.6741C67.4802 31.1872 67.4882 30.3766 68.0374 27.8842C70.2184 26.4079 71.0419 26.8978 74.0702 26.8039Z" fill="#8B9098"/>
<path d="M80.9824 6.815C85.3994 6.93947 89.7295 7.09045 94.1465 6.99808C94.2955 17.4278 91.1343 10.5808 87.7765 15.8426L87.5726 20.0758L80.8957 20.1949L81.0526 13.9272L80.9114 13.4466L80.9824 6.815Z" fill="#474E5A"/>
<path d="M81.0526 13.9272C84.1828 13.7213 84.709 13.106 86.7959 14.5893C87.2431 16.7224 87.4 17.9021 87.5726 20.0758L80.8957 20.1949L81.0526 13.9272Z" fill="#8B9098"/>
<path d="M80.7387 26.7217C84.2613 26.3976 87.4628 25.82 88.5847 29.9663C84.7954 34.8916 79.4757 33.6774 73.8113 33.4066L74.0702 26.8039L80.7387 26.7217Z" fill="#474E5A"/>
<path d="M101.168 67.3319L140.865 67.3329C145.321 67.3196 157.395 67.448 161.177 66.7396L161.028 80.5006C158.612 80.5671 157.341 80.8967 155.466 79.49C154.838 77.6388 154.728 77.0775 154.501 75.1174L154.438 74.6039C150.876 72.5014 118.279 73.5996 111.822 73.6849C108.103 73.4157 105.012 74.3769 101.655 73.0125C100.172 70.5538 100.729 70.8622 101.168 67.3319Z" fill="#7F8B97"/>
<path d="M101.262 6.90492C102.094 24.8923 100.486 47.8676 100.91 66.4726C109.124 66.5016 155.905 65.3517 161.177 66.7396C157.395 67.448 145.321 67.3196 140.865 67.3329L101.168 67.3319L100.792 67.0728C98.1555 66.8411 97.3552 66.7842 94.7349 65.9591C93.6208 59.2961 94.0131 23.1984 94.9859 14.5855C95.08 13.7018 97.9985 13.3213 99.3871 12.9863C101.341 10.7937 100.791 10.4039 101.262 6.90492Z" fill="#1C212B"/>
<path d="M13.6768 73.6349C13.6375 71.2076 13.4257 70.1774 14.4692 67.9723C17.0032 66.6471 17.5681 67.181 20.8553 67.2725L20.3924 73.6937L20.589 74.115L20.5576 80.5361L20.3536 86.893L20.5576 87.4174C9.62906 88.284 16.4153 92.104 8.92301 93.2132C8.33461 93.2985 7.73836 93.3791 7.14996 93.4566L7.14949 80.6024C7.05535 78.0114 7.03966 77.314 7.44762 74.7355C9.88752 73.0933 10.1621 73.6717 13.6768 73.6349Z" fill="#424753"/>
<path d="M7.14949 80.6024L13.4575 80.6283C13.4732 82.6173 13.4183 85.0251 13.5752 86.9696L20.3536 86.893L20.5576 87.4174C9.62906 88.284 16.4153 92.104 8.92301 93.2132C8.33461 93.2985 7.73836 93.3791 7.14996 93.4566L7.14949 80.6024Z" fill="#333944"/>
<path d="M7.14949 80.6024C7.05535 78.0114 7.03966 77.314 7.44762 74.7355C9.88752 73.0933 10.1621 73.6717 13.6768 73.6349C13.6532 75.6122 13.7086 78.7637 13.4575 80.6283L7.14949 80.6024Z" fill="#000006"/>
<path d="M13.6768 73.6349C13.6375 71.2076 13.4257 70.1774 14.4692 67.9723C17.0032 66.6471 17.5681 67.181 20.8553 67.2725L20.3924 73.6937L13.6768 73.6349Z" fill="#000006"/>
<path d="M13.5752 86.9696L14.3837 81.7494C16.4705 80.0406 17.2861 80.623 20.5576 80.5361L20.3536 86.893L13.5752 86.9696Z" fill="#7F8B97"/>
<path d="M0.426329 100.261C0.606772 93.4009 -1.04855 87.4439 1.16384 81.6545C3.5959 79.8635 3.38373 80.485 7.14949 80.6024L7.14996 93.4566C10.5391 93.8464 11.6375 93.3157 13.5439 95.3047C13.6145 96.947 13.7165 98.6237 13.7244 100.264C9.54279 100.416 4.66281 100.276 0.426329 100.261Z" fill="#000006"/>
<path d="M54.3865 33.7987C54.2531 29.6515 53.6333 30.1987 55.5397 27.2383L57.4305 26.4382C60.145 27.5412 59.2663 26.7881 60.7805 29.239L60.702 33.5153L54.3865 33.7987Z" fill="#000006"/>
<path d="M26.9594 67.0465L27.3909 67.2148C27.234 69.2993 27.0143 71.4943 27.0143 73.5749C25.359 73.6359 22.0169 73.6179 20.589 74.115L20.3924 73.6937L20.8553 67.2725C22.5969 67.3508 25.155 67.1373 26.9594 67.0465Z" fill="#474E5A"/>
<path d="M60.702 33.5153L61.3691 33.5719L60.7807 35.4583C60.4983 37.3049 60.2158 38.3366 60.4433 40.1753L54.4181 40.1667L54.3865 33.7987L60.702 33.5153Z" fill="#424753"/>
<path d="M33.5489 46.836C36.9224 46.9973 37.5578 46.4478 39.8173 48.1119C40.0683 49.9906 40.2181 51.4035 40.3122 53.2963C36.8054 53.3847 36.5771 53.9734 34.1058 52.4109C33.4861 50.0978 33.5567 49.1929 33.5489 46.836Z" fill="#000006"/>
<path d="M67.1981 27.1014C64.8288 26.9488 63.7774 27.0779 61.7063 25.8935C60.3333 23.4395 60.4588 24.4478 60.9139 22.047C62.985 20.0932 61.9574 20.5895 64.8209 20.209C67.4727 21.4826 66.5862 20.6435 67.9905 23.694L67.1981 27.1014Z" fill="#000006"/>
<path d="M48.0784 34.2849C49.5455 33.0059 51.7657 33.1374 53.068 34.5808C54.3704 36.0235 54.2684 38.2418 52.8406 39.5593C51.8992 40.4281 50.5654 40.724 49.3415 40.3342C48.1176 39.9444 47.1998 38.9283 46.9409 37.6759C46.682 36.4234 47.1134 35.128 48.0784 34.2849Z" fill="#000006"/>
<path d="M20.5184 60.6682C23.4918 60.5798 24.6687 59.9818 26.6771 61.4095C26.8811 63.3563 26.9751 64.6316 26.9673 66.587C23.8762 66.5557 23.1623 67.0745 20.9107 65.6029C20.542 63.487 20.4635 62.8115 20.5184 60.6682Z" fill="#000006"/>
</svg>
