<svg width="168" height="173" viewBox="0 0 168 173" fill="none" xmlns="http://www.w3.org/2000/svg">
<path d="M10.3484 5.13298C10.4897 2.9096 10.1519 1.8046 11.3188 0.314793C19.1615 -0.269854 31.1313 0.133395 39.2442 0.162811L125.342 0.151169C130.734 0.14933 140.904 -0.166283 145.83 0.396914L146.702 1.17277C146.751 2.54308 146.806 3.81661 146.763 5.19427L147.586 5.33951L151.885 5.61896C152.186 7.93549 151.873 8.78554 153.206 10.249L157.155 10.8288L157.179 12.6042L157.88 15.3025C161.042 17.1288 160.312 14.6744 162.547 16.921C162.615 18.8374 162.271 19.8933 163.296 21.0565L166.963 21.5186C168.296 23.5226 168.21 151.756 167.46 166.897C164.475 168.391 164.494 166.357 162.688 168.451C162.664 170.561 163.075 171.476 161.951 172.698C157.394 173.177 151.511 172.956 146.819 172.903L53.9653 172.829C41.4674 172.835 21.6458 172.908 21.6458 172.908C21.6458 171.571 21.6458 171.571 21.1574 170.483C17.0488 166.293 15.8697 168.921 15.7038 162.412L10.8459 162.456C10.5143 160.868 10.5695 158.81 10.545 157.15C9.11399 157.074 7.81817 156.949 6.39334 156.804C4.95623 155.171 5.39226 154.701 5.15888 152.021C3.42698 151.985 1.72576 151.769 0 151.585L0.0737154 10.7221L5.50276 9.6907C4.79035 8.52325 5.00535 7.01624 6.01255 6.09085C7.01976 5.16608 8.5428 5.0809 9.64827 5.88739L10.3484 5.13298Z" fill="#848188"/>
<path d="M10.3484 5.13298C10.4897 2.9096 10.1519 1.8046 11.3188 0.314793C19.1615 -0.269854 31.1313 0.133395 39.2442 0.162811L125.342 0.151169C130.734 0.14933 140.904 -0.166283 145.83 0.396914L146.702 1.17277C146.751 2.54308 146.806 3.81661 146.763 5.19427L146.884 5.42096L147.246 10.7606C145.705 10.8967 143.359 11.1786 141.885 11.1185L141.897 15.7099C144.919 16.1205 144.925 15.6039 146.657 17.3486C147.946 20.1885 146.872 24.8883 147.179 28.6928L146.964 32.1817C146.939 34.2525 147.529 36.5813 145.539 37.6353C139.275 39.1699 136.32 37.4135 130.191 37.4919C119.382 37.6298 108.401 39.2373 97.5922 38.0398C95.8173 37.8431 94.5706 37.1347 92.8879 37.9197L92.8203 38.8438C97.0333 39.9666 102.966 37.4791 106.19 40.2644C106.743 41.3381 107.099 42.6318 108.321 42.7654C112.688 43.2416 118.056 43.0957 120.445 39.2747C120.297 41.9037 120.66 41.0844 119.388 42.9695C116.434 44.1406 107.75 42.8573 106.473 43.8464C102.604 46.8469 105.687 47.6136 97.9976 47.1741L97.1377 46.28C97.2913 44.1847 96.9658 44.9808 98.5135 43.3169C100.774 42.4712 104.673 42.0698 105.226 41.112C103.273 39.6056 95.1848 39.996 92.3535 40.1094C90.3698 41.7695 92.8694 43.3592 86.7709 43.0786C83.1597 42.9125 77.1595 43.6081 73.5545 43.1864C68.9913 42.652 63.556 45.1077 62.8375 39.8918C60.5958 39.2704 33.8557 39.8642 29.1329 39.73C22.4448 39.2116 23.5933 40.7106 17.9124 42.6863C17.2798 42.9057 12.3175 42.8052 11.2366 42.7801L11.3533 54.4694C11.3349 55.9451 11.3717 58.7433 11.2243 60.0989L11.3901 63.0852C11.2734 65.2289 10.8926 66.7586 12.0902 68.4096C15.9655 71.035 21.2349 67.9953 26.75 69.0169L26.7807 69.6364C20.0742 72.4996 18.5818 73.2755 11.3225 72.9286C11.3348 78.3584 11.4577 84.1815 11.3349 89.5757L11.2796 96.3439C11.2796 97.9544 11.0339 100.975 11.863 102.119C16.0147 103.318 19.675 100.755 21.2657 103.562C19.6627 106.005 14.1722 105.012 11.3533 104.854C11.3779 109.902 11.6051 116.906 11.255 121.791L11.0892 126.228L10.9602 133.845C14.4056 133.839 22.0211 134.022 25.0304 133.353C25.7612 132.261 25.6998 131.781 25.8349 130.492C28.1871 129.465 48.3682 129.623 51.9057 130.073C52.8085 131.217 52.7164 131.48 52.8269 133.008C45.1132 132.958 37.0248 132.729 29.3172 133.161C27.0448 133.289 26.5412 133.852 25.6138 135.895C20.0988 137.023 15.6094 134.276 11.4516 137.575L10.8743 137.373L10.4873 140.942L5.61717 140.949C5.75229 144.202 6.47084 148.342 4.54241 150.696C2.92105 151.549 1.82403 151.472 0 151.585L0.0737154 10.7221L5.50276 9.6907C4.79035 8.52325 5.00535 7.01624 6.01255 6.09085C7.01976 5.16608 8.5428 5.0809 9.64827 5.88739L10.3484 5.13298Z" fill="#19191B"/>
<path d="M10.3484 5.13298C10.4897 2.9096 10.1519 1.8046 11.3188 0.314793C19.1615 -0.269854 31.1313 0.133395 39.2442 0.162811L125.342 0.151169C130.734 0.14933 140.904 -0.166283 145.83 0.396914L146.702 1.17277C146.751 2.54308 146.806 3.81661 146.763 5.19427L146.884 5.42096L147.246 10.7606C145.705 10.8967 143.359 11.1786 141.885 11.1185L139.305 10.9726C133.323 10.2091 115.476 10.4389 108.653 10.5663C96.9044 10.7851 80.8137 10.0767 69.4888 10.9279C60.3441 10.7637 51.1993 10.7183 42.0485 10.7925L36.9633 10.8231C31.8536 10.7686 21.0507 10.4462 16.4385 11.257C12.5509 14.0135 12.8334 11.0915 10.8374 13.6912L10.6224 15.727L10.9049 22.2225C11.9429 23.8385 11.6358 27.1086 11.4085 29.0599L11.4945 31.7006L11.427 39.3409C14.2398 39.4487 17.9677 39.8875 20.455 38.8218C20.8419 38.1195 21.1735 37.5189 21.5236 36.7927C22.2605 40.4097 25.4664 39.3243 29.1329 39.73C22.4448 39.2116 23.5933 40.7106 17.9124 42.6863C17.2798 42.9057 12.3175 42.8052 11.2366 42.7801L11.3533 54.4694C11.3349 55.9451 11.3717 58.7433 11.2243 60.0989L11.3901 63.0852C11.2734 65.2289 10.8926 66.7586 12.0902 68.4096C15.9655 71.035 21.2349 67.9953 26.75 69.0169L26.7807 69.6364C20.0742 72.4996 18.5818 73.2755 11.3225 72.9286C11.3348 78.3584 11.4577 84.1815 11.3349 89.5757L11.2796 96.3439C11.2796 97.9544 11.0339 100.975 11.863 102.119C16.0147 103.318 19.675 100.755 21.2657 103.562C19.6627 106.005 14.1722 105.012 11.3533 104.854C11.3779 109.902 11.6051 116.906 11.255 121.791L11.0892 126.228L10.9602 133.845C14.4056 133.839 22.0211 134.022 25.0304 133.353C25.7612 132.261 25.6998 131.781 25.8349 130.492C28.1871 129.465 48.3682 129.623 51.9057 130.073C52.8085 131.217 52.7164 131.48 52.8269 133.008C45.1132 132.958 37.0248 132.729 29.3172 133.161C27.0448 133.289 26.5412 133.852 25.6138 135.895C20.0988 137.023 15.6094 134.276 11.4516 137.575L10.8743 137.373L10.4873 140.942L5.61717 140.949C5.75229 144.202 6.47084 148.342 4.54241 150.696C2.92105 151.549 1.82403 151.472 0 151.585L0.0737154 10.7221L5.50276 9.6907C4.79035 8.52325 5.00535 7.01624 6.01255 6.09085C7.01976 5.16608 8.5428 5.0809 9.64827 5.88739L10.3484 5.13298Z" fill="#4B5861"/>
<path d="M10.3484 5.13298C10.4897 2.9096 10.1519 1.8046 11.3188 0.314793C19.1615 -0.269854 31.1313 0.133395 39.2442 0.162811L125.342 0.151169C130.734 0.14933 140.904 -0.166283 145.83 0.396914L146.702 1.17277C146.751 2.54308 146.806 3.81661 146.763 5.19427L146.884 5.42096L52.1206 5.46509C45.4325 5.46447 14.7027 5.88493 10.3484 5.13298Z" fill="#010101"/>
<path d="M0.0737154 10.7221L5.08285 11.3054C5.95494 12.506 5.57418 130.064 5.61717 140.949C5.75229 144.202 6.47084 148.342 4.54241 150.696C2.92105 151.549 1.82403 151.472 0 151.585L0.0737154 10.7221Z" fill="#010101"/>
<path d="M10.8068 54.3217L11.3533 54.4694C11.3349 55.9451 11.3717 58.7433 11.2243 60.0989L11.3901 63.0852C11.2734 65.2289 10.8926 66.7586 12.0902 68.4096C15.9655 71.035 21.2349 67.9953 26.75 69.0169L26.7807 69.6364C20.0742 72.4996 18.5818 73.2755 11.3225 72.9286C11.3348 78.3584 11.4577 84.1815 11.3349 89.5757L11.2796 96.3439C11.2796 97.9544 11.0339 100.975 11.863 102.119C16.0147 103.318 19.675 100.755 21.2657 103.562C19.6627 106.005 14.1722 105.012 11.3533 104.854C11.3779 109.902 11.6051 116.906 11.255 121.791L11.0892 126.228L10.9602 133.845C14.4056 133.839 22.0211 134.022 25.0304 133.353C25.7612 132.261 25.6998 131.781 25.8349 130.492C28.1871 129.465 48.3682 129.623 51.9057 130.073C52.8085 131.217 52.7164 131.48 52.8269 133.008C45.1132 132.958 37.0248 132.729 29.3172 133.161C27.0448 133.289 26.5412 133.852 25.6138 135.895C20.0988 137.023 15.6094 134.276 11.4516 137.575L10.8743 137.373C10.2662 133.766 10.6593 115.547 10.6839 110.771L10.8068 54.3217Z" fill="#2C2A29"/>
<path d="M10.9049 22.2225C11.9429 23.8385 11.6358 27.1086 11.4085 29.0599L11.4945 31.7006L11.427 39.3409C14.2398 39.4487 17.9677 39.8875 20.455 38.8218C20.8419 38.1195 21.1735 37.5189 21.5236 36.7927C22.2605 40.4097 25.4664 39.3243 29.1329 39.73C22.4448 39.2116 23.5933 40.7106 17.9124 42.6863C17.2798 42.9057 12.3175 42.8052 11.2366 42.7801L11.3533 54.4694L10.8068 54.3217C10.5058 43.9555 10.8128 32.6591 10.9049 22.2225Z" fill="#1C1C1A"/>
<path d="M9.64827 5.88739C10.5879 6.57132 11.2243 7.73993 10.9541 8.86572C10.6777 9.9915 9.75035 10.8415 8.60188 11.0198C7.45342 11.1976 6.10463 10.6804 5.50276 9.6907C4.79035 8.52325 5.00535 7.01624 6.01255 6.09085C7.01976 5.16608 8.5428 5.0809 9.64827 5.88739Z" fill="#010101"/>
<path d="M11.4945 31.7006C16.4323 31.8312 36.7116 32.1995 42.6688 31.1717C43.068 31.1025 43.4365 29.3565 43.5962 28.6579C46.5809 28.3006 58.907 28.8791 61.8488 29.5477L62.297 29.9559C63.1876 30.7685 64.5202 31.9635 65.6994 31.9758C71.9576 32.0426 78.7624 32.0248 84.9714 31.9433C96.6771 31.7895 108.272 31.9047 119.953 31.6651C125.315 31.5548 128.908 29.063 134.251 29.5189C136.173 29.6838 138.273 31.3789 140.055 31.8428C141.86 32.3147 145.035 32.2031 146.964 32.1817C146.939 34.2525 147.529 36.5813 145.539 37.6353C139.275 39.1699 136.32 37.4135 130.191 37.4919C119.382 37.6298 108.401 39.2373 97.5922 38.0398C95.8173 37.8431 94.5706 37.1347 92.8879 37.9197L92.8203 38.8438C97.0333 39.9666 102.966 37.4791 106.19 40.2644C106.743 41.3381 107.099 42.6318 108.321 42.7654C112.688 43.2416 118.056 43.0957 120.445 39.2747C120.297 41.9037 120.66 41.0844 119.388 42.9695C116.434 44.1406 107.75 42.8573 106.473 43.8464C102.604 46.8469 105.687 47.6136 97.9976 47.1741L97.1377 46.28C97.2913 44.1847 96.9658 44.9808 98.5135 43.3169C100.774 42.4712 104.673 42.0698 105.226 41.112C103.273 39.6056 95.1848 39.996 92.3535 40.1094C90.3698 41.7695 92.8694 43.3592 86.7709 43.0786C83.1597 42.9125 77.1595 43.6081 73.5545 43.1864C68.9913 42.652 63.556 45.1077 62.8375 39.8918C60.5958 39.2704 33.8557 39.8642 29.1329 39.73C25.4664 39.3243 22.2605 40.4097 21.5236 36.7927C21.1735 37.5189 20.8419 38.1195 20.455 38.8218C17.9677 39.8875 14.2398 39.4487 11.427 39.3409L11.4945 31.7006Z" fill="#19191B"/>
<path d="M21.5236 36.7927C31.4298 36.7192 41.3299 36.713 51.2361 36.7749C54.2577 36.7847 62.8436 36.6291 65.4292 37.1267L66.504 39.3709C69.5501 39.8753 89.7005 40.3183 91.5183 39.1153L92.0649 37.229C96.3394 36.0389 139.735 36.9649 145.539 37.6353C139.275 39.1699 136.32 37.4135 130.191 37.4919C119.382 37.6298 108.401 39.2373 97.5922 38.0398C95.8173 37.8431 94.5706 37.1347 92.8879 37.9197L92.8203 38.8438C97.0333 39.9666 102.966 37.4791 106.19 40.2644C106.743 41.3381 107.099 42.6318 108.321 42.7654C112.688 43.2416 118.056 43.0957 120.445 39.2747C120.297 41.9037 120.66 41.0844 119.388 42.9695C116.434 44.1406 107.75 42.8573 106.473 43.8464C102.604 46.8469 105.687 47.6136 97.9976 47.1741L97.1377 46.28C97.2913 44.1847 96.9658 44.9808 98.5135 43.3169C100.774 42.4712 104.673 42.0698 105.226 41.112C103.273 39.6056 95.1848 39.996 92.3535 40.1094C90.3698 41.7695 92.8694 43.3592 86.7709 43.0786C83.1597 42.9125 77.1595 43.6081 73.5545 43.1864C68.9913 42.652 63.556 45.1077 62.8375 39.8918C60.5958 39.2704 33.8557 39.8642 29.1329 39.73C25.4664 39.3243 22.2605 40.4097 21.5236 36.7927Z" fill="#2C2A29"/>
<path d="M11.4085 29.0599C13.9143 28.9784 21.6587 29.0513 23.2309 28.0965L23.8942 26.5093C28.009 25.3909 39.6717 27.5615 42.0608 25.0501L42.3187 22.4836C44.6648 20.7744 53.5454 21.3608 55.5106 25.3296C60.6327 26.4958 67.7936 24.6224 71.5952 26.2936L72.3384 28.512C80.0214 30.6312 93.8029 26.7146 101.013 26.4155C111.085 25.9976 122.281 25.8646 132.365 26.171C136.106 26.285 136.327 27.4169 139.311 28.4881C140.564 28.9386 145.502 28.7394 147.179 28.6928L146.964 32.1817C145.035 32.2031 141.86 32.3147 140.055 31.8428C138.273 31.3789 136.173 29.6838 134.251 29.5189C128.908 29.063 125.315 31.5548 119.953 31.6651C108.272 31.9047 96.6771 31.7895 84.9714 31.9433C78.7624 32.0248 71.9576 32.0426 65.6994 31.9758C64.5202 31.9635 63.1876 30.7685 62.297 29.9559L61.8488 29.5477C58.907 28.8791 46.5809 28.3006 43.5962 28.6579C43.4365 29.3565 43.068 31.1025 42.6688 31.1717C36.7116 32.1995 16.4323 31.8312 11.4945 31.7006L11.4085 29.0599Z" fill="#070912"/>
<path d="M69.4888 10.9279C80.8137 10.0767 96.9044 10.7851 108.653 10.5663C115.476 10.4389 133.323 10.2091 139.305 10.9726C136.333 11.3869 128.742 10.5455 126.298 11.7393C125.806 11.9802 126.936 13.8634 125.223 15.507L123.159 15.3839C121.556 14.1851 122.042 14.597 121.661 12.0463C121.409 11.7981 121.163 11.5499 120.912 11.3024C107.13 10.6944 81.9253 11.8453 69.4888 10.9279Z" fill="#2A303B"/>
<path d="M36.9633 10.8231L42.0485 10.7925C42.0915 13.7984 42.4784 14.2648 39.8375 15.955L38.2776 15.5315C36.6562 13.4945 37.1537 13.8922 36.9633 10.8231Z" fill="#2A303B"/>
<path d="M10.6224 15.727L10.8374 13.6912C12.8334 11.0915 12.5509 14.0135 16.4385 11.257C15.8182 13.8242 16.2173 13.9002 14.6082 15.5168C13.0299 15.6982 12.2131 15.7583 10.6224 15.727Z" fill="#373F4B"/>
<path d="M120.445 39.2747C122.889 39.4113 135.276 39.7067 135.829 40.2221C139.79 43.9261 140.098 43.0945 146.982 43.1031C146.97 46.3958 146.718 57.5893 147.087 60.254L146.835 63L146.853 69.8509L146.878 73.4502L146.927 89.5549C145.563 89.447 141.185 89.8754 139.889 89.1682C139.52 88.9672 140.251 88.2778 138.722 87.0748L88.7608 87.0429C82.3982 87.0368 74.9485 86.897 68.4323 87.288C66.8847 87.3812 63.292 90.6457 62.0882 90.8792C57.6725 91.7359 47.8829 91.7396 43.4304 90.6819C42.4784 90.4545 42.0915 88.6724 41.7291 87.6784C38.4311 86.0225 23.9311 86.9356 19.9452 87.7176C17.3105 88.2348 15.5294 89.1081 11.9981 89.504L11.3349 89.5757C11.4577 84.1815 11.3348 78.3584 11.3225 72.9286C18.5818 73.2755 20.0742 72.4996 26.7807 69.6364L26.75 69.0169C21.2349 67.9953 15.9655 71.035 12.0902 68.4096C10.8926 66.7586 11.2734 65.2289 11.3901 63.0852L11.2243 60.0989C11.3717 58.7433 11.3349 55.9451 11.3533 54.4694L11.2366 42.7801C12.3175 42.8052 17.2798 42.9057 17.9124 42.6863C23.5933 40.7106 22.4448 39.2116 29.1329 39.73C33.8557 39.8642 60.5958 39.2704 62.8375 39.8918C63.556 45.1077 68.9913 42.652 73.5545 43.1864C77.1595 43.6081 83.1597 42.9125 86.7709 43.0786C92.8694 43.3592 90.3698 41.7695 92.3535 40.1094C95.1848 39.996 103.273 39.6056 105.226 41.112C104.673 42.0698 100.774 42.4712 98.5135 43.3169C96.9658 44.9808 97.2913 44.1847 97.1377 46.28L97.9976 47.1741C105.687 47.6136 102.604 46.8469 106.473 43.8464C107.75 42.8573 116.434 44.1406 119.388 42.9695C120.66 41.0844 120.297 41.9037 120.445 39.2747Z" fill="#19191B"/>
<path d="M120.445 39.2747C122.889 39.4113 135.276 39.7067 135.829 40.2221C139.79 43.9261 140.098 43.0945 146.982 43.1031C146.97 46.3958 146.718 57.5893 147.087 60.254L146.835 63C140.669 63.7465 122.226 62.9976 115.12 62.4454C113.468 62.3167 111.81 61.0384 110.213 60.6082C106.184 59.5247 96.6218 60.0413 92.3965 60.9023C92.2368 60.9348 91.8315 63.0252 90.855 62.9584C84.259 62.5079 65.5521 64.1883 60.2397 62.1568C54.7614 60.0664 57.261 59.8421 49.6824 59.5388C43.8296 59.3047 42.0116 62.5526 41.2624 62.6152C32.5476 63.3506 19.8654 63.1017 11.3901 63.0852L11.2243 60.0989C11.3717 58.7433 11.3349 55.9451 11.3533 54.4694L11.2366 42.7801C12.3175 42.8052 17.2798 42.9057 17.9124 42.6863C23.5933 40.7106 22.4448 39.2116 29.1329 39.73C33.8557 39.8642 60.5958 39.2704 62.8375 39.8918C63.556 45.1077 68.9913 42.652 73.5545 43.1864C77.1595 43.6081 83.1597 42.9125 86.7709 43.0786C92.8694 43.3592 90.3698 41.7695 92.3535 40.1094C95.1848 39.996 103.273 39.6056 105.226 41.112C104.673 42.0698 100.774 42.4712 98.5135 43.3169C96.9658 44.9808 97.2913 44.1847 97.1377 46.28L97.9976 47.1741C105.687 47.6136 102.604 46.8469 106.473 43.8464C107.75 42.8573 116.434 44.1406 119.388 42.9695C120.66 41.0844 120.297 41.9037 120.445 39.2747Z" fill="#19191B"/>
<path d="M11.2243 60.0989C13.638 60.0983 19.3188 60.3992 21.1797 59.4787L21.714 57.0138C24.2443 55.7018 36.0421 57.1205 39.6963 56.2349C41.9748 55.6828 41.8212 53.1916 42.3433 53.0941C45.2605 52.5487 48.5523 52.5107 51.5371 53.2909C53.748 53.87 57.3346 57.1885 58.3787 57.2204C66.2766 57.4655 79.223 58.7065 86.4699 56.6854C87.1455 56.4978 91.3279 53.5323 92.4088 53.3816C98.9925 52.4666 108.776 52.6835 115.304 52.7319L116.072 53.3344L116.41 56.1902C119.1 58.253 131.899 55.4824 135.854 56.5904C136.689 56.8245 137.064 58.9455 137.205 59.6834C139.416 60.6737 144.145 60.1688 147.087 60.254L146.835 63C140.669 63.7465 122.226 62.9976 115.12 62.4454C113.468 62.3167 111.81 61.0384 110.213 60.6082C106.184 59.5247 96.6218 60.0413 92.3965 60.9023C92.2368 60.9348 91.8315 63.0252 90.855 62.9584C84.259 62.5079 65.5521 64.1883 60.2397 62.1568C54.7614 60.0664 57.261 59.8421 49.6824 59.5388C43.8296 59.3047 42.0116 62.5526 41.2624 62.6152C32.5476 63.3506 19.8654 63.1017 11.3901 63.0852L11.2243 60.0989Z" fill="#070912"/>
<path d="M31.6326 42.9529L35.2805 43.1349C36.7607 44.3453 36.6502 45.1653 37.0064 46.9793L32.9652 46.766C31.5772 45.5526 31.8107 44.6799 31.6326 42.9529Z" fill="#2C2A29"/>
<path d="M146.878 73.4502C144.403 73.5059 139.09 73.8951 137.045 73.0408L136.364 70.7444C131.186 67.5883 125.026 74.5888 121.243 73.3233C120.936 72.6669 120.365 71.4468 119.726 71.2359C116.698 70.2383 106.547 70.5863 103.807 71.2047L102.813 73.2743C101.246 73.6996 101.111 73.8228 99.6741 73.2632L99.0233 71.5485C96.278 70.0084 60.3195 72.043 54.135 70.6188C53.6314 69.9753 53.3489 69.6168 52.9313 68.909L52.6303 68.3961C47.7109 67.7471 29.3233 69.5102 27.0571 67.3218L27.5484 66.4399C31.1904 64.8373 51.2976 65.0022 54.4113 65.9104C54.6877 66.7684 54.8658 67.2617 55.2281 68.0878C68.113 69.2957 82.5702 67.4768 95.584 67.9254C100.319 68.0884 101.025 71.793 104.004 68.1295C109.98 67.1416 122.877 67.8923 129.43 68.0137C134.699 68.1111 140.828 69.7369 146.853 69.8509L146.878 73.4502Z" fill="#2C2A29"/>
<path d="M83.7124 73.5341C87.8947 73.449 92.7035 72.6186 96.677 73.9049C98.1694 75.3978 97.9054 76.3599 98.1019 78.4184C93.8029 78.4393 88.9879 79.315 84.8854 78.0133C83.436 76.5413 83.7922 75.5522 83.7124 73.5341Z" fill="#2C2A29"/>
<path d="M31.4237 73.4949C34.4269 73.4404 37.8416 72.6394 40.7035 73.7131C42.1652 75.0527 41.9564 75.8684 42.1653 77.7713C39.1682 77.8031 35.6921 78.715 32.8485 77.5782C31.479 76.116 31.6202 75.4192 31.4237 73.4949Z" fill="#2C2A29"/>
<path d="M51.1502 84.6699L55.2712 84.7404C56.7697 86.0739 56.6899 87.1415 57.1075 89.0695C55.6213 88.9954 54.1535 88.8575 52.6734 88.6853C51.3652 87.3861 51.445 86.4361 51.1502 84.6699Z" fill="#070912"/>
<path d="M11.3349 89.5757L11.9981 89.504C15.5294 89.1081 17.3105 88.2348 19.9452 87.7176C23.9311 86.9356 38.4311 86.0225 41.7291 87.6784C42.0915 88.6724 42.4784 90.4545 43.4304 90.6819C47.8829 91.7396 57.6725 91.7359 62.0882 90.8792C63.292 90.6457 66.8847 87.3812 68.4323 87.288C74.9485 86.897 82.3982 87.0368 88.7608 87.0429L138.722 87.0748C140.251 88.2778 139.52 88.9672 139.889 89.1682C141.185 89.8754 145.563 89.447 146.927 89.5549L147.001 96.5333L147.062 102.397L146.62 104.896C146.976 110.529 146.663 116.569 147.025 121.813V125.712L146.994 133.797L146.479 136.539C144.458 137.515 144.919 136.321 142.904 136.42C141.498 135.985 136.548 136.26 134.804 136.317C134.036 135.037 133.723 134.543 132.746 133.422C129.731 132.815 110.796 132.547 107.916 133.468C107.64 134.689 107.664 135.008 106.804 135.948C105.674 136.043 104.544 136.103 103.408 136.126C90.1303 136.294 66.8356 136.144 52.9067 135.98C52.6426 135.725 52.3785 135.47 52.1144 135.215L52.8269 133.008C52.7164 131.48 52.8085 131.217 51.9057 130.073C48.3682 129.623 28.1871 129.465 25.8349 130.492C25.6998 131.781 25.7612 132.261 25.0304 133.353C22.0211 134.022 14.4056 133.839 10.9602 133.845L11.0892 126.228L11.255 121.791C11.6051 116.906 11.3779 109.902 11.3533 104.854C14.1722 105.012 19.6627 106.005 21.2657 103.562C19.675 100.755 16.0147 103.318 11.863 102.119C11.0339 100.975 11.2796 97.9544 11.2796 96.3439L11.3349 89.5757Z" fill="#19191B"/>
<path d="M11.0892 126.228C20.8603 126.342 25.8472 123.491 35.3481 123.155C39.0576 122.594 43.025 126.008 46.237 125.922C61.0749 125.524 75.9128 125.846 90.7507 125.754C95.584 125.723 102.143 125.927 106.847 125.267L107.744 123.576C110.305 122.06 129.43 123.364 133.053 124.518C138.169 126.15 141.639 125.902 147.025 125.712L146.994 133.797L146.479 136.539C144.458 137.515 144.919 136.321 142.904 136.42C141.498 135.985 136.548 136.26 134.804 136.317C134.036 135.037 133.723 134.543 132.746 133.422C129.731 132.815 110.796 132.547 107.916 133.468C107.64 134.689 107.664 135.008 106.804 135.948C105.674 136.043 104.544 136.103 103.408 136.126C90.1303 136.294 66.8356 136.144 52.9067 135.98C52.6426 135.725 52.3785 135.47 52.1144 135.215L52.8269 133.008C52.7164 131.48 52.8085 131.217 51.9057 130.073C48.3682 129.623 28.1871 129.465 25.8349 130.492C25.6998 131.781 25.7612 132.261 25.0304 133.353C22.0211 134.022 14.4056 133.839 10.9602 133.845L11.0892 126.228Z" fill="#19191B"/>
<path d="M52.8269 133.008C56.217 133.717 94.6196 133.846 99.2995 133.333C101.4 131.524 99.6373 130.365 101.173 130.158C110.311 128.949 119.874 130.098 129.123 129.756C129.749 129.733 131.555 130.187 131.917 130.742C134.472 134.67 142.726 133.799 146.994 133.797L146.479 136.539C144.458 137.515 144.919 136.321 142.904 136.42C141.498 135.985 136.548 136.26 134.804 136.317C134.036 135.037 133.723 134.543 132.746 133.422C129.731 132.815 110.796 132.547 107.916 133.468C107.64 134.689 107.664 135.008 106.804 135.948C105.674 136.043 104.544 136.103 103.408 136.126C90.1303 136.294 66.8356 136.144 52.9067 135.98C52.6426 135.725 52.3785 135.47 52.1144 135.215L52.8269 133.008Z" fill="#2C2A29"/>
<path d="M11.3349 89.5757L11.9981 89.504C15.5294 89.1081 17.3105 88.2348 19.9452 87.7176C23.9311 86.9356 38.4311 86.0225 41.7291 87.6784C42.0915 88.6724 42.4784 90.4545 43.4304 90.6819C47.8829 91.7396 57.6725 91.7359 62.0882 90.8792C63.292 90.6457 66.8847 87.3812 68.4323 87.288C74.9485 86.897 82.3982 87.0368 88.7608 87.0429L138.722 87.0748C140.251 88.2778 139.52 88.9672 139.889 89.1682C141.185 89.8754 145.563 89.447 146.927 89.5549L147.001 96.5333C144.654 96.6748 143.961 96.9053 141.946 95.8702C137.168 93.4207 123.221 94.3859 117.399 94.4582C110.907 98.7762 93.0353 97.3802 84.7688 97.3115C82.8895 94.6573 82.8649 94.3791 79.874 93.4685C75.7715 92.2177 75.3477 95.4473 71.5338 95.5773C61.8548 95.9076 52.1145 95.7151 42.4293 95.6379C41.5511 94.3632 39.8315 92.6766 38.726 91.5067C34.5375 91.5024 24.7725 91.1814 21.106 92.3684C15.6647 94.1297 18.5634 95.8818 11.2796 96.3439L11.3349 89.5757Z" fill="#070912"/>
<path d="M11.255 121.791C13.558 121.86 19.8286 122.504 21.0077 120.216C22.6107 117.098 40.5561 117.98 41.9932 118.998L42.6934 121.163C44.3639 122.003 44.2656 121.697 46.2984 121.513C47.8154 119.042 45.4325 119.86 47.7232 118.081C53.0786 117.69 55.7747 118.671 60.387 121.238C62.8866 119.235 60.3993 117.675 65.2204 117.997C65.9389 119.293 65.8714 119.721 66.0127 121.238C67.8122 122.511 88.6196 122.206 91.7456 121.356C105.822 117.523 120.948 117.458 135.307 119.032C135.737 119.08 136.505 120.748 136.793 121.079C138.949 122.719 144.464 121.983 147.025 121.813V125.712C141.639 125.902 138.169 126.15 133.053 124.518C129.43 123.364 110.305 122.06 107.744 123.576L106.847 125.267C102.143 125.927 95.584 125.723 90.7507 125.754C75.9128 125.846 61.0749 125.524 46.237 125.922C43.025 126.008 39.0576 122.594 35.3481 123.155C25.8472 123.491 20.8603 126.342 11.0892 126.228L11.255 121.791Z" fill="#070912"/>
<path d="M146.62 104.896C136.812 105.421 124.67 99.6158 113.787 102.61C113.456 102.701 113.542 104.601 112 104.852C109.095 105.326 106.012 104.228 103.273 105.421C101.517 109.618 94.3618 109.848 91.2727 108.232C89.9707 106.567 90.1856 107.315 90.2838 105.432C94.0056 102.877 100.208 107.632 102.364 102.765C104.323 101.557 106.055 102.223 108.911 102.23C109.366 101.547 109.808 100.856 110.244 100.16C116.778 99.0465 130.584 98.9301 137.297 99.8407C140.718 103.149 142.628 102.485 147.062 102.397L146.62 104.896Z" fill="#2C2A29"/>
<path d="M20.848 99.4957C23.2432 99.3841 35.6798 98.1364 37.1722 99.6844C37.7679 100.306 37.424 101.288 38.3268 101.889C40.335 103.221 65.6073 102.608 69.3598 101.893L70.3608 100.042C70.9136 99.9204 71.4724 99.815 72.0313 99.7261C76.0478 99.0869 83.8107 98.4367 87.1578 100.88C86.6849 101.168 86.1751 101.448 85.647 101.602C83.8659 102.117 81.6427 101.895 79.7696 102.205C75.9864 102.83 72.3016 103.996 68.4877 104.485C61.339 105.403 46.6055 105.6 39.3585 104.721C36.8221 104.414 37.4854 102.36 35.2376 102.125C31.0982 101.695 25.055 103.411 21.3394 101.313L20.848 99.4957Z" fill="#2C2A29"/>
<path d="M26.5965 104.87C29.4584 104.84 32.4186 104.11 35.2068 104.998C36.6071 106.266 36.386 106.925 36.5334 108.738C33.7882 108.671 31.1473 109.161 28.4266 108.574C26.7562 107.326 26.922 106.833 26.5965 104.87Z" fill="#2C2A29"/>
<path d="M127.237 111.38L130.492 111.729C131.886 112.963 131.77 113.752 132.077 115.526C130.228 115.363 128.625 115.634 127.262 114.315L127.237 111.38Z" fill="#2C2A29"/>
<path d="M146.763 5.19427L147.586 5.33951L151.885 5.61896C152.186 7.93549 151.873 8.78554 153.206 10.249L157.155 10.8288C155.251 11.0733 153.59 10.9107 152.491 12.0126C151.674 24.0028 152.086 38.6263 152.424 50.823C153.253 80.7258 151.41 111.808 152.509 141.567L152.018 141.582C144.519 141.833 148.505 144.039 145.987 146.722C139.883 147.255 126.433 146.73 119.659 146.697L68.2481 146.652L30.3182 146.678C26.9343 146.696 13.7792 146.965 11.4208 146.495C10.4198 145.004 10.5794 142.848 10.4873 140.942L10.8743 137.373L11.4516 137.575C15.6094 134.276 20.0988 137.023 25.6138 135.895C26.5412 133.852 27.0448 133.289 29.3172 133.161C37.0248 132.729 45.1132 132.958 52.8269 133.008L52.1144 135.215C52.3785 135.47 52.6426 135.725 52.9067 135.98C66.8356 136.144 90.1303 136.294 103.408 136.126C104.544 136.103 105.674 136.043 106.804 135.948C107.664 135.008 107.64 134.689 107.916 133.468C110.796 132.547 129.731 132.815 132.746 133.422C133.723 134.543 134.036 135.037 134.804 136.317C136.548 136.26 141.498 135.985 142.904 136.42C144.919 136.321 144.458 137.515 146.479 136.539L146.994 133.797L147.025 125.712V121.813C146.663 116.569 146.976 110.529 146.62 104.896L147.062 102.397L147.001 96.5333L146.927 89.5549L146.878 73.4502L146.853 69.8509L146.835 63L147.087 60.254C146.718 57.5893 146.97 46.3958 146.982 43.1031C140.098 43.0945 139.79 43.9261 135.829 40.2221C135.276 39.7067 122.889 39.4113 120.445 39.2747C118.056 43.0957 112.688 43.2416 108.321 42.7654C107.099 42.6318 106.743 41.3381 106.19 40.2644C102.966 37.4791 97.0333 39.9666 92.8203 38.8438L92.8879 37.9197C94.5706 37.1347 95.8173 37.8431 97.5922 38.0398C108.401 39.2373 119.382 37.6298 130.191 37.4919C136.32 37.4135 139.275 39.1699 145.539 37.6353C147.529 36.5813 146.939 34.2525 146.964 32.1817L147.179 28.6928C146.872 24.8883 147.946 20.1885 146.657 17.3486C144.925 15.6039 144.919 16.1205 141.897 15.7099L141.885 11.1185C143.359 11.1786 145.705 10.8967 147.246 10.7606L146.884 5.42096L146.763 5.19427Z" fill="#2A303B"/>
<path d="M52.8269 133.008L52.1144 135.215C52.3785 135.47 52.6426 135.725 52.9067 135.98C66.8356 136.144 90.1303 136.294 103.408 136.126C104.544 136.103 105.674 136.043 106.804 135.948C107.664 135.008 107.64 134.689 107.916 133.468C110.796 132.547 129.731 132.815 132.746 133.422C133.723 134.543 134.036 135.037 134.804 136.317C136.548 136.26 141.498 135.985 142.904 136.42C142.591 138.571 142.794 139.782 141.608 141.288C115.845 142.054 88.9511 141.3 63.0832 141.495C55.3203 141.553 22.4142 142.054 16.9789 140.988C14.9031 138.885 14.3135 138.025 11.4516 137.575C15.6094 134.276 20.0988 137.023 25.6138 135.895C26.5412 133.852 27.0448 133.289 29.3172 133.161C37.0248 132.729 45.1132 132.958 52.8269 133.008Z" fill="#19191B"/>
<path d="M147.246 10.7606C147.394 13.0005 147.805 13.34 146.816 14.9873C144.863 15.6149 143.899 15.599 141.897 15.7099L141.885 11.1185C143.359 11.1786 145.705 10.8967 147.246 10.7606Z" fill="#474C54"/>
<path d="M147.586 5.33951L151.885 5.61896C151.75 8.67457 152.405 9.40378 149.5 10.7177L148.364 10.1619C147.228 7.91153 147.427 8.19962 147.586 5.33951Z" fill="#010101"/>
<path d="M5.61717 140.949L10.4873 140.942C10.5794 142.848 10.4198 145.004 11.4208 146.495C13.7792 146.965 26.9343 146.696 30.3182 146.678L68.2481 146.652L119.659 146.697C126.433 146.73 139.883 147.255 145.987 146.722C148.505 144.039 144.519 141.833 152.018 141.582L152.509 141.567C152.583 144.352 152.098 148.933 153.412 150.848C155.132 151.6 155.5 151.543 157.41 151.698C155.095 151.934 154.162 151.601 152.688 152.887L152.153 156.949C149.746 157.268 148.714 156.958 147.197 158.343C147.056 159.69 146.908 161.037 146.749 162.381L15.7038 162.412L10.8459 162.456C10.5143 160.868 10.5695 158.81 10.545 157.15C9.11399 157.074 7.81817 156.949 6.39334 156.804C4.95623 155.171 5.39226 154.701 5.15888 152.021C3.42698 151.985 1.72576 151.769 0 151.585C1.82403 151.472 2.92105 151.549 4.54241 150.696C6.47084 148.342 5.75229 144.202 5.61717 140.949Z" fill="#070912"/>
<path d="M10.8459 162.456L11.7525 157.241C21.0569 156.434 36.1404 157.503 46.0957 157.308C78.8545 156.664 113.192 158.08 145.84 157.038C146.81 158.622 146.657 160.454 146.749 162.381L15.7038 162.412L10.8459 162.456Z" fill="#010101"/>
<path d="M5.15888 152.021C8.15593 152.228 8.38697 151.771 10.5918 153.205C11.1506 154.997 10.8766 155.289 10.545 157.15C9.11399 157.074 7.81817 156.949 6.39334 156.804C4.95623 155.171 5.39226 154.701 5.15888 152.021Z" fill="#010101"/>
<path d="M146.54 152.123C149.046 152.102 149.93 151.613 151.527 152.882C151.723 154.227 151.902 155.616 152.153 156.949C149.592 156.733 148.432 157.112 146.773 155.722C146.657 154.474 146.528 153.378 146.54 152.123Z" fill="#010101"/>
<path d="M157.155 10.8288L157.179 12.6042L157.41 151.698C155.5 151.543 155.132 151.6 153.412 150.848C152.098 148.933 152.583 144.352 152.509 141.567C151.41 111.808 153.253 80.7258 152.424 50.823C152.086 38.6263 151.674 24.0028 152.491 12.0126C153.59 10.9107 155.251 11.0733 157.155 10.8288Z" fill="#010101"/>
</svg>
