<svg width="168" height="178" viewBox="0 0 168 178" fill="none" xmlns="http://www.w3.org/2000/svg">
<path d="M5.80705 5.26584C11.4255 4.85459 9.68388 5.04276 11.0223 0.00788098L105.913 0.0667492C110.67 0.0636847 138.514 -0.236049 140.999 0.460192C141.798 2.07515 141.632 3.08947 141.631 4.89566C142.934 4.9643 145.393 5.01399 146.585 5.18192C146.684 6.86797 146.834 8.69132 146.821 10.3688L151.902 10.4485C153.997 10.4969 155.123 10.123 156.502 11.1882C156.407 13.0189 156.3 13.7103 157.278 15.2885C160.493 16.3304 160.421 14.6921 162.419 16.4756C162.4 17.615 162.399 18.7543 162.416 19.8943C165.078 22.2496 167.805 19.773 167.732 22.8815C167.376 37.9745 168.756 167.972 167.363 171.827C164.569 172.948 164.198 171.533 162.402 172.844C162.296 174.303 162.17 175.762 162.022 177.22C158.999 178.967 81.1911 177.141 71.5605 177.772C68.8452 177.956 24.6599 178.121 22.0156 177.545C20.5824 174.707 22.5811 174.168 20.7599 172.354L16.6315 172.25C14.9211 169.988 16.9773 168.612 14.9285 166.97C12.2884 166.786 12.7094 167.236 11.1728 165.738C11.0792 164.471 10.9647 163.315 11.0149 162.038L10.9415 157.146L10.4182 157.005L5.84318 157.031L5.61304 151.719C3.76307 151.701 2.50797 151.864 0.921746 150.868C-1.48818 146.718 1.76197 35.9783 0.292638 23.5459C0.117003 22.0609 0.404011 12.9735 0.569854 11.2237C2.3672 10.0593 3.19093 10.4705 5.64676 10.435L5.80705 5.26584Z" fill="#343C46"/>
<path d="M47.7691 120.235C50.1802 120.298 50.5217 119.877 52.1086 121.133C52.3001 122.628 52.4782 124.126 52.644 125.624L48.0867 125.704L47.6889 126.43C47.4001 128.129 47.2226 128.976 47.222 130.734L42.2142 130.705L37.3026 130.671L36.7084 130.509L36.6025 125.907L32.5953 125.795L32.8358 125.261C36.0481 125.29 39.0577 125.19 42.2583 125.072L42.388 120.282L47.7691 120.235Z" fill="#6D4C41"/>
<path d="M36.6025 125.907L42.4376 125.912L42.2142 130.705L37.3026 130.671L36.7084 130.509L36.6025 125.907Z" fill="#77584E"/>
<path d="M47.7691 120.235C47.5182 123.069 47.9851 123.329 46.4668 125.081C44.6444 125.245 44.0746 125.266 42.2583 125.072L42.388 120.282L47.7691 120.235Z" fill="#925C41"/>
<path d="M42.4376 125.912L48.0867 125.704L47.6889 126.43C47.4001 128.129 47.2226 128.976 47.222 130.734L42.2142 130.705L42.4376 125.912Z" fill="#331F1A"/>
<path d="M115.187 68.0906L120.091 68.1059L120.593 68.4792L120.721 73.0568L115.652 73.0507L115.391 72.9214L115.187 68.0906Z" fill="#8A8FA3"/>
<path d="M110.324 68.1274L115.187 68.0906L115.391 72.9214L110.293 73.2217L109.988 73.0802C110.231 72.1333 110.277 69.249 110.324 68.1274Z" fill="#636876"/>
<path d="M151.902 10.4485C153.997 10.4969 155.123 10.123 156.502 11.1882C156.407 13.0189 156.3 13.7103 157.278 15.2885C160.493 16.3304 160.421 14.6921 162.419 16.4756C162.4 17.615 162.399 18.7543 162.416 19.8943C165.078 22.2496 167.805 19.773 167.732 22.8815C167.376 37.9745 168.756 167.972 167.363 171.827C164.569 172.948 164.198 171.533 162.402 172.844C162.296 174.303 162.17 175.762 162.022 177.22C158.999 178.967 81.1911 177.141 71.5605 177.772C68.8452 177.956 24.6599 178.121 22.0156 177.545C20.5824 174.707 22.5811 174.168 20.7599 172.354L16.6315 172.25C14.9211 169.988 16.9773 168.612 14.9285 166.97C12.2884 166.786 12.7094 167.236 11.1728 165.738C11.0792 164.471 10.9647 163.315 11.0149 162.038L10.9415 157.146L10.4182 157.005L5.84318 157.031L5.61304 151.719L5.67979 146.131L5.69815 140.867L6.4564 141.196C8.33392 141.225 8.6919 141.362 10.2726 140.504C10.9201 138.697 10.9433 137.245 11.0951 135.355L11.2401 130.747L11.1936 125.727L11.2573 120.121L42.388 120.282L42.2583 125.072C39.0577 125.19 36.0481 125.29 32.8358 125.261L32.5953 125.795L36.6025 125.907L36.7084 130.509L37.3026 130.671L42.2142 130.705L47.222 130.734C47.2226 128.976 47.4001 128.129 47.6889 126.43L48.0867 125.704L52.644 125.624C52.9776 123.867 52.8 122.043 52.7291 120.239C52.5467 118.426 52.5002 117.993 52.7695 116.2C54.6341 114.73 55.2743 115.238 58.2074 115.14L63.0334 115.063C64.7757 114.987 65.8662 114.889 67.5895 114.626C68.7889 112.963 68.3331 112.16 68.3178 109.709C68.4353 108.729 68.4334 105.628 68.4591 104.498L73.5574 104.469L73.7037 99.3639L73.7165 94.3909L74.2746 93.9754L73.7611 93.7063C73.5831 91.6409 73.782 90.8595 74.1308 88.8792L78.6587 88.8835L79.3148 89.1323L84.1444 88.6236L84.5863 88.9264L89.605 88.9074L89.6454 93.9919L94.3177 93.8681L94.4457 93.4391L94.8789 88.824L98.1995 88.3049C99.6449 87.0001 99.3023 86.5202 99.7276 84.2145L100.197 83.5342C99.8622 81.5276 100.065 80.4771 100.288 78.5L104.812 78.4313C104.766 76.4835 104.772 75.9025 105.12 73.9921C106.87 72.7504 107.504 73.1617 109.988 73.0802L110.293 73.2217L115.391 72.9214L115.652 73.0507L120.721 73.0568L126.052 73.1923L126.187 77.9698L126.256 78.5109L131.188 78.7071L131.312 88.9607C132.935 88.8161 134.087 88.6635 135.69 88.373L136.365 87.2606L137.266 88.4924C139.204 88.5739 139.56 88.718 141.243 87.9188C141.923 83.7604 141.47 72.6174 141.496 67.7995L141.478 15.8731L146.557 15.7272L146.821 10.3688L151.902 10.4485Z" fill="#9E9B9E"/>
<path d="M115.391 72.9214L115.652 73.0507L120.721 73.0568L126.052 73.1923L126.187 77.9698L126.256 78.5109C123.669 78.5968 122.749 78.142 121.078 79.4934C120.898 80.8779 120.789 81.8591 120.746 83.2541C120.696 85.2564 121.162 87.8777 119.563 89.2169L120.581 89.2475L120.769 93.5684L120.725 99.3951L125.278 99.5024L125.63 100.036L126.221 99.8561C126.246 104.689 126.16 109.975 126.308 114.765L131.221 114.859L131.252 120.812L131.781 120.745C131.97 124.234 132.006 127.342 132.01 130.82C132.906 133.583 132.766 137.614 132.822 140.615C134.155 141.22 134.094 141.192 135.563 141.266C136.387 142.802 136.128 143.853 136.02 145.618L135.346 146.346C124.235 146.505 20.6969 147.418 16.5624 145.927C15.7222 141.645 16.5887 141.648 11.9133 140.813C10.7763 139.388 11.0932 137.337 11.0951 135.355L11.2401 130.747L11.1936 125.727L11.2573 120.121L42.388 120.282L42.2583 125.072C39.0577 125.19 36.0481 125.29 32.8358 125.261L32.5953 125.795L36.6025 125.907L36.7084 130.509L37.3026 130.671L42.2142 130.705L47.222 130.734C47.2226 128.976 47.4001 128.129 47.6889 126.43L48.0867 125.704L52.644 125.624C52.9776 123.867 52.8 122.043 52.7291 120.239C52.5467 118.426 52.5002 117.993 52.7695 116.2C54.6341 114.73 55.2743 115.238 58.2074 115.14L63.0334 115.063C64.7757 114.987 65.8662 114.889 67.5895 114.626C68.7889 112.963 68.3331 112.16 68.3178 109.709C68.4353 108.729 68.4334 105.628 68.4591 104.498L73.5574 104.469L73.7037 99.3639L73.7165 94.3909L74.2746 93.9754L73.7611 93.7063C73.5831 91.6409 73.782 90.8595 74.1308 88.8792L78.6587 88.8835L79.3148 89.1323L84.1444 88.6236L84.5863 88.9264L89.605 88.9074L89.6454 93.9919L94.3177 93.8681L94.4457 93.4391L94.8789 88.824L98.1995 88.3049C99.6449 87.0001 99.3023 86.5202 99.7276 84.2145L100.197 83.5342C99.8622 81.5276 100.065 80.4771 100.288 78.5L104.812 78.4313C104.766 76.4835 104.772 75.9025 105.12 73.9921C106.87 72.7504 107.504 73.1617 109.988 73.0802L110.293 73.2217L115.391 72.9214Z" fill="#131821"/>
<path d="M115.391 72.9214L115.652 73.0507L120.721 73.0568L126.052 73.1923L126.187 77.9698L126.256 78.5109C123.669 78.5968 122.749 78.142 121.078 79.4934C120.898 80.8779 120.789 81.8591 120.746 83.2541C120.696 85.2564 121.162 87.8777 119.563 89.2169L120.581 89.2475L120.769 93.5684L120.725 99.3951C120.757 104.877 121.837 115.184 119.91 119.434C118.111 120.576 118.055 120.198 115.597 120.282L115.33 120.312C113.81 120.159 111.812 120.187 110.244 120.159C100.795 120.575 109.108 116.201 99.6921 114.94L99.8867 109.787C99.9687 106.948 100.282 106.576 98.8139 104.675C96.5815 103.558 92.3363 104.209 89.6632 104.393C89.6124 102.755 89.6595 101.926 89.8309 100.295C91.556 98.9428 91.8198 99.37 94.4506 99.1892L94.3177 93.8681L94.4457 93.4391L94.8789 88.824L98.1995 88.3049C99.6449 87.0001 99.3023 86.5202 99.7276 84.2145L100.197 83.5342C99.8622 81.5276 100.065 80.4771 100.288 78.5L104.812 78.4313C104.766 76.4835 104.772 75.9025 105.12 73.9921C106.87 72.7504 107.504 73.1617 109.988 73.0802L110.293 73.2217L115.391 72.9214Z" fill="#343C46"/>
<path d="M115.391 72.9214L115.652 73.0507L120.721 73.0568L126.052 73.1923L126.187 77.9698L126.256 78.5109C123.669 78.5968 122.749 78.142 121.078 79.4934C120.898 80.8779 120.789 81.8591 120.746 83.2541C120.696 85.2564 121.162 87.8777 119.563 89.2169L120.581 89.2475L120.769 93.5684L120.725 99.3951C118.672 99.4865 118.241 99.5244 116.223 99.0905C115.019 97.3266 115.411 96.5323 115.32 94.0802C110.213 93.8871 111.289 94.2157 109.05 89.5975C107.593 88.6788 105.88 89.0901 104.044 89.2372C102.992 88.3601 101.461 88.3755 100.426 89.2733L99.7276 84.2145L100.197 83.5342C99.8622 81.5276 100.065 80.4771 100.288 78.5L104.812 78.4313C104.766 76.4835 104.772 75.9025 105.12 73.9921C106.87 72.7504 107.504 73.1617 109.988 73.0802L110.293 73.2217L115.391 72.9214Z" fill="#020205"/>
<path d="M120.721 73.0568L126.052 73.1923L126.187 77.9698L126.256 78.5109C123.669 78.5968 122.749 78.142 121.078 79.4934C120.898 80.8779 120.789 81.8591 120.746 83.2541C119.145 83.3564 116.633 83.3338 115.295 84.0012L115.227 83.5225C115.38 81.1353 115.343 80.8112 114.734 78.4957L114.469 77.8895L115.174 78.0378C115.197 76.1802 115.399 74.8648 115.652 73.0507L120.721 73.0568Z" fill="#595D6A"/>
<path d="M115.652 73.0507L120.721 73.0568C120.746 75.0358 121.056 76.6539 119.903 78.1114C118.206 78.7402 116.994 78.3345 115.174 78.0378C115.197 76.1802 115.399 74.8648 115.652 73.0507Z" fill="#191D27"/>
<path d="M115.391 72.9214L115.652 73.0507C115.399 74.8648 115.197 76.1802 115.174 78.0378L114.469 77.8895L114.734 78.4957L109.825 78.5643L104.812 78.4313C104.766 76.4835 104.772 75.9025 105.12 73.9921C106.87 72.7504 107.504 73.1617 109.988 73.0802L110.293 73.2217L115.391 72.9214Z" fill="#848287"/>
<path d="M115.391 72.9214L115.652 73.0507C115.399 74.8648 115.197 76.1802 115.174 78.0378L114.469 77.8895C112.125 77.971 110.768 78.3534 109.211 76.6043C109.295 74.8925 109.406 74.6963 110.293 73.2217L115.391 72.9214Z" fill="#8A8FA3"/>
<path d="M104.812 78.4313L109.825 78.5643L109.962 83.4943L104.543 83.4815L100.197 83.5342C99.8622 81.5276 100.065 80.4771 100.288 78.5L104.812 78.4313Z" fill="#343C46"/>
<path d="M104.812 78.4313L104.543 83.4815L100.197 83.5342C99.8622 81.5276 100.065 80.4771 100.288 78.5L104.812 78.4313Z" fill="#77584E"/>
<path d="M115.295 84.0012C116.633 83.3338 119.145 83.3564 120.746 83.2541C120.696 85.2564 121.162 87.8777 119.563 89.2169C118.347 89.1158 117.353 88.9294 116.152 88.7173C114.863 86.9026 115.318 86.7022 115.295 84.0012Z" fill="#ABAEBC"/>
<path d="M114.734 78.4957C115.343 80.8112 115.38 81.1353 115.227 83.5225L109.962 83.4943L109.825 78.5643L114.734 78.4957Z" fill="#252A33"/>
<path d="M94.8789 88.824L98.1995 88.3049C99.6449 87.0001 99.3023 86.5202 99.7276 84.2145L100.426 89.2733C101.461 88.3755 102.992 88.3601 104.044 89.2372C105.88 89.0901 107.593 88.6788 109.05 89.5975C111.289 94.2157 110.213 93.8871 115.32 94.0802C112.4 94.2401 108.077 93.8638 105.834 94.9149C104.076 97.4014 105.854 98.7025 103.227 99.343C101.124 99.8566 96.7883 99.359 94.4506 99.1892L94.3177 93.8681L94.4457 93.4391L94.8789 88.824Z" fill="#0A2927"/>
<path d="M100.426 89.2733C101.461 88.3755 102.992 88.3601 104.044 89.2372C104.945 89.9879 105.282 91.2217 104.889 92.3267C104.495 93.4324 103.456 94.1746 102.284 94.1862C101.112 94.1979 100.058 93.4765 99.6431 92.3788C99.2281 91.2817 99.5409 90.0419 100.426 89.2733Z" fill="#2C3F44"/>
<path d="M94.8789 88.824C97.7613 88.9301 97.3262 88.4557 99.0887 90.0149C99.7141 92.1153 99.7557 91.2443 98.9204 93.2846C97.3464 94.2021 96.2632 94.3977 94.4457 93.4391L94.8789 88.824Z" fill="#020205"/>
<path d="M99.8867 109.787L110.096 109.783C110.305 112.113 109.969 113.024 111.223 114.588C112.581 114.735 113.937 114.896 115.292 115.069C115.361 116.495 115.399 118.96 115.597 120.282L115.33 120.312C113.81 120.159 111.812 120.187 110.244 120.159C100.795 120.575 109.108 116.201 99.6921 114.94L99.8867 109.787Z" fill="#10111B"/>
<path d="M99.8867 109.787L110.096 109.783C109.638 112.683 110.133 112.641 108.426 114.328C105.377 115.358 103.351 114.284 99.6921 114.94L99.8867 109.787Z" fill="#020205"/>
<path d="M110.244 120.159L110.319 116.708C111.753 114.96 112.305 115.466 115.292 115.069C115.361 116.495 115.399 118.96 115.597 120.282L115.33 120.312C113.81 120.159 111.812 120.187 110.244 120.159Z" fill="#040713"/>
<path d="M84.1444 88.6236L84.5863 88.9264L89.605 88.9074L89.6454 93.9919L94.3177 93.8681L94.4506 99.1892C91.8198 99.37 91.556 98.9428 89.8309 100.295C89.6595 101.926 89.6124 102.755 89.6632 104.393C92.3363 104.209 96.5815 103.558 98.8139 104.675C100.282 106.576 99.9687 106.948 99.8867 109.787L99.6921 114.94C98.3923 114.769 96.068 114.727 94.6764 114.654C94.1862 112.585 94.0791 111.294 92.5425 109.781L88.9251 109.835L84.0362 109.86C83.9285 112.876 84.4259 112.615 82.8667 114.523C80.6483 115.726 76.1791 115.42 73.4687 115.442L73.0195 115.103C70.7913 115.14 70.6083 114.743 69.2137 115.962C68.4817 118.316 68.7437 118.969 67.0798 120.196L63.2341 120.235L63.0034 119.47L63.0334 115.063C64.7757 114.987 65.8662 114.889 67.5895 114.626C68.7889 112.963 68.3331 112.16 68.3178 109.709C68.4353 108.729 68.4334 105.628 68.4591 104.498L73.5574 104.469L73.7037 99.3639L73.7165 94.3909L74.2746 93.9754L73.7611 93.7063C73.5831 91.6409 73.782 90.8595 74.1308 88.8792L78.6587 88.8835L79.3148 89.1323L84.1444 88.6236Z" fill="#020205"/>
<path d="M84.1444 88.6236L84.5863 88.9264L89.605 88.9074L89.6454 93.9919L84.4602 94.055C84.1267 96.9699 84.6083 97.6355 82.9517 99.1616L79.0987 99.1904L73.7037 99.3639L73.7165 94.3909L74.2746 93.9754L73.7611 93.7063C73.5831 91.6409 73.782 90.8595 74.1308 88.8792L78.6587 88.8835L79.3148 89.1323L84.1444 88.6236Z" fill="#6D4C41"/>
<path d="M74.1308 88.8792L78.6587 88.8835L79.3148 89.1323L79.0627 93.9184L74.2746 93.9754L73.7611 93.7063C73.5831 91.6409 73.782 90.8595 74.1308 88.8792Z" fill="#020205"/>
<path d="M84.5863 88.9264L89.605 88.9074L89.6454 93.9919L84.4602 94.055C84.5673 92.6889 84.5337 90.7706 84.5545 89.3542L84.5863 88.9264Z" fill="#77584E"/>
<path d="M84.1444 88.6236L84.5863 88.9264L84.5545 89.3542C84.0012 91.8756 84.3292 92.8011 82.6702 93.8914L79.0627 93.9184L79.3148 89.1323L84.1444 88.6236Z" fill="#331F1A"/>
<path d="M78.9054 109.728C78.999 106.413 78.6269 105.813 81.5668 104.189L83.0459 104.785C84.4498 107.086 83.9958 106.776 84.0362 109.86C83.9285 112.876 84.4259 112.615 82.8667 114.523C80.6483 115.726 76.1791 115.42 73.4687 115.442L73.0195 115.103L73.424 114.578C73.5623 113.223 73.7489 112.09 73.9778 110.748C75.6454 109.438 76.4031 109.853 78.9054 109.728Z" fill="#09332C"/>
<path d="M78.9054 109.728C78.8711 112.263 79.2682 112.592 78.1441 114.472C76.2537 115.063 75.3805 114.806 73.424 114.578C73.5623 113.223 73.7489 112.09 73.9778 110.748C75.6454 109.438 76.4031 109.853 78.9054 109.728Z" fill="#1E573D"/>
<path d="M89.6632 104.393C92.3363 104.209 96.5815 103.558 98.8139 104.675C100.282 106.576 99.9687 106.948 99.8867 109.787L99.6921 114.94C98.3923 114.769 96.068 114.727 94.6764 114.654C94.1862 112.585 94.0791 111.294 92.5425 109.781C95.7088 109.735 99.0367 110.569 100.148 107.217C96.7565 104.141 94.1269 104.548 89.6632 104.393Z" fill="#131821"/>
<path d="M73.7037 99.3639L79.0987 99.1904C78.9831 101.899 79.4274 102.551 78.1013 104.375C76.203 104.599 75.4281 104.559 73.5574 104.469L73.7037 99.3639Z" fill="#331F1A"/>
<path d="M68.4591 104.498L73.5574 104.469C72.4203 109.399 73.323 109.569 68.3178 109.709C68.4353 108.729 68.4334 105.628 68.4591 104.498Z" fill="#201314"/>
<path d="M84.0362 109.86L88.9251 109.835L92.5425 109.781C94.0791 111.294 94.1862 112.585 94.6764 114.654C96.068 114.727 98.3923 114.769 99.6921 114.94C109.108 116.201 100.795 120.575 110.244 120.159L110.223 125.208C107.285 125.161 107.135 124.658 105.169 126.034C104.879 127.476 104.727 128.409 104.591 129.873C103.134 130.666 102.945 130.567 101.218 130.494C98.9902 128.472 101.538 125.171 97.7289 125.015C94.002 124.862 87.9962 124.517 84.8935 126.636C82.1213 132.201 79.5406 130.741 73.6321 130.599C73.588 127.879 74.0145 127.861 72.7582 125.905C70.6273 124.64 65.9292 125.379 63.138 125.55L63.2341 120.235L67.0798 120.196C68.7437 118.969 68.4817 118.316 69.2137 115.962C70.6083 114.743 70.7913 115.14 73.0195 115.103L73.4687 115.442C76.1791 115.42 80.6483 115.726 82.8667 114.523C84.4259 112.615 83.9285 112.876 84.0362 109.86Z" fill="#252A33"/>
<path d="M84.0362 109.86L88.9251 109.835C88.8859 111.193 88.9429 113.709 88.5641 114.876C87.1443 115.036 85.6309 114.994 84.6059 115.9L84.418 119.114C82.1978 122.176 77.4911 120.574 74.7006 119.606C73.1382 117.91 73.6156 118.292 73.4687 115.442C76.1791 115.42 80.6483 115.726 82.8667 114.523C84.4259 112.615 83.9285 112.876 84.0362 109.86Z" fill="#131821"/>
<path d="M89.157 115.062C91.854 115.19 96.8115 114.885 98.8365 115.972C99.8243 117.497 99.6149 118.001 99.4613 119.878C96.7283 119.999 92.6134 120.542 90.343 119.339C88.9429 117.543 89.3669 117.71 89.157 115.062Z" fill="#343C46"/>
<path d="M88.9251 109.835L92.5425 109.781C94.0791 111.294 94.1862 112.585 94.6764 114.654C92.8992 114.688 90.8381 114.609 89.157 115.062L88.5641 114.876C88.9429 113.709 88.8859 111.193 88.9251 109.835Z" fill="#191D27"/>
<path d="M120.725 99.3951L125.278 99.5024L125.63 100.036L126.221 99.8561C126.246 104.689 126.16 109.975 126.308 114.765L131.221 114.859L131.252 120.812L131.25 125.576L131.127 130.375C128.293 130.56 128.182 130.063 126.594 131.601C125.785 134.531 126.257 134.914 124.312 136.153L120.686 136.105L120.692 141.044C119.061 141.137 116.903 141.179 115.344 141.49C118.067 141.648 119.082 141.261 120.817 143.434L120.483 144.453C117.814 146.361 104.877 147.976 104.183 144.213C107.027 140.201 111.006 142.921 110.365 137.027C110.146 135.002 113.811 136.266 115.147 135.257L115.28 130.775L115.356 125.295C114.005 125.394 111.654 125.25 110.223 125.208L110.244 120.159C111.812 120.187 113.81 120.159 115.33 120.312L115.597 120.282C118.055 120.198 118.111 120.576 119.91 119.434C121.837 115.184 120.757 104.877 120.725 99.3951Z" fill="#020205"/>
<path d="M126.221 99.8561C126.246 104.689 126.16 109.975 126.308 114.765L131.221 114.859L131.252 120.812L131.25 125.576L131.127 130.375C128.293 130.56 128.182 130.063 126.594 131.601C125.785 134.531 126.257 134.914 124.312 136.153L120.686 136.105L120.585 135.408C120.88 132.198 119.99 129.588 120.984 126.77C122.768 125.078 122.589 125.596 125.597 125.284C126.09 120.646 125.667 105.282 125.63 100.036L126.221 99.8561Z" fill="#636876"/>
<path d="M126.308 114.765L131.221 114.859L131.252 120.812L131.25 125.576C128.685 125.611 128.937 125.969 126.9 124.879C125.751 122.652 126.292 117.741 126.308 114.765Z" fill="#8A8FA3"/>
<path d="M120.585 135.408C120.88 132.198 119.99 129.588 120.984 126.77C122.768 125.078 122.589 125.596 125.597 125.284L125.657 130.367C123.187 130.776 123.073 130.386 121.509 131.81C121.356 133.123 121.197 134.138 121.238 135.458L120.585 135.408Z" fill="#767F8C"/>
<path d="M121.238 135.458C121.197 134.138 121.356 133.123 121.509 131.81C123.073 130.386 123.187 130.776 125.657 130.367C125.509 133.228 126.019 133.817 124.498 135.408C123.412 135.441 122.323 135.497 121.238 135.458Z" fill="#8A8FA3"/>
<path d="M115.344 141.49C115.244 139.507 115.097 138.599 115.705 136.657C117.642 135.547 118.055 136.002 120.686 136.105L120.692 141.044C119.061 141.137 116.903 141.179 115.344 141.49Z" fill="#8A8FA3"/>
<path d="M110.244 120.159C111.812 120.187 113.81 120.159 115.33 120.312L115.356 125.295C114.005 125.394 111.654 125.25 110.223 125.208L110.244 120.159Z" fill="#131821"/>
<path d="M68.7021 135.87C70.9358 136.285 81.8771 135.407 84.1408 134.276C83.9444 134.375 84.5967 131.655 85.7937 130.442C89.7666 129.431 97.1335 130.306 98.9082 134.642C97.8073 135.996 97.6041 135.613 95.4316 135.877C93.4966 137.992 96.0729 138.551 94.4267 140.866C86.965 141.921 70.9627 141.318 63.2458 141.148C63.1362 137.089 63.1166 134.549 63.4477 130.47C66.1379 130.622 66.6691 130.176 68.4028 131.548C68.6207 133.23 68.6905 134.175 68.7021 135.87Z" fill="#10111B"/>
<path d="M11.2573 120.121L42.388 120.282L42.2583 125.072C39.0577 125.19 36.0481 125.29 32.8358 125.261C31.1768 125.396 22.6594 126.427 21.6638 126.15L21.5854 130.163L21.6503 135.328C19.8034 135.715 18.8628 136.055 17.0104 135.528C15.6475 133.379 16.0918 133.554 16.0184 130.619L11.2401 130.747L11.1936 125.727L11.2573 120.121Z" fill="#020205"/>
<path d="M16.6634 125.614C18.0611 125.725 20.3793 125.831 21.6638 126.15L21.5854 130.163L21.6503 135.328C19.8034 135.715 18.8628 136.055 17.0104 135.528C15.6475 133.379 16.0918 133.554 16.0184 130.619L16.6634 125.614Z" fill="#252A33"/>
<path d="M11.1936 125.727L16.6634 125.614L16.0184 130.619L11.2401 130.747L11.1936 125.727Z" fill="#191D27"/>
<path d="M58.2074 115.14L63.0334 115.063L63.0034 119.47L63.2341 120.235L63.138 125.55L58.2484 125.64C57.962 128.222 58.3733 128.915 56.8721 130.423C55.7498 130.49 54.5209 130.592 53.4077 130.622L48.009 130.635L47.6889 126.43L48.0867 125.704L52.644 125.624C52.9776 123.867 52.8 122.043 52.7291 120.239C52.5467 118.426 52.5002 117.993 52.7695 116.2C54.6341 114.73 55.2743 115.238 58.2074 115.14Z" fill="#020205"/>
<path d="M52.7291 120.239C52.5467 118.426 52.5002 117.993 52.7695 116.2C54.6341 114.73 55.2743 115.238 58.2074 115.14L58.0869 120.187L52.7291 120.239Z" fill="#77584E"/>
<path d="M58.2074 115.14L63.0334 115.063L63.0034 119.47C61.5304 120.55 60.014 120.239 58.0869 120.187L58.2074 115.14Z" fill="#331F1A"/>
<path d="M21.6638 126.15C22.6594 126.427 31.1768 125.396 32.8358 125.261L32.5953 125.795L36.6025 125.907L36.7084 130.509L37.3026 130.671C37.1349 132.51 37.1404 133.299 36.515 135.076C33.5568 137.104 31.178 136.221 27.229 136.23L26.9702 139.987C26.2529 135.736 26.2346 136.478 22.1913 135.928L21.6503 135.328L21.5854 130.163L21.6638 126.15Z" fill="#10111B"/>
<path d="M32.5953 125.795L36.6025 125.907L36.7084 130.509L37.3026 130.671C37.1349 132.51 37.1404 133.299 36.515 135.076C33.5568 137.104 31.178 136.221 27.229 136.23L27.1097 135.61C27.0313 133.918 27.0865 133.215 27.2841 131.529C28.7951 130.367 29.3532 130.743 31.5936 130.645L31.9045 130.478C31.9418 128.349 31.9197 127.883 32.5953 125.795Z" fill="#331F1A"/>
<path d="M32.5953 125.795L36.6025 125.907L36.7084 130.509C35.4746 130.651 33.2245 130.516 31.9045 130.478C31.9418 128.349 31.9197 127.883 32.5953 125.795Z" fill="#77584E"/>
<path d="M31.5936 130.645C31.6377 133.541 32.1205 133.482 30.7417 135.388C29.1182 135.693 28.7608 135.705 27.1097 135.61C27.0313 133.918 27.0865 133.215 27.2841 131.529C28.7951 130.367 29.3532 130.743 31.5936 130.645Z" fill="#6D4C41"/>
<path d="M21.5854 130.163C24.8099 130.627 24.3687 130.06 26.349 131.97C26.8857 133.842 26.9347 133.027 25.8833 135.087C24.2897 135.924 24.0468 135.844 22.1913 135.928L21.6503 135.328L21.5854 130.163Z" fill="#020205"/>
<path d="M42.2142 130.705L47.222 130.734C47.2777 133.681 47.774 133.778 46.4124 135.781C42.683 137.591 39.685 133.936 37.2133 137.865L37.1692 141.236C34.5714 141.239 29.4994 141.484 27.2529 140.689L26.9702 139.987L27.229 136.23C31.178 136.221 33.5568 137.104 36.515 135.076C37.1404 133.299 37.1349 132.51 37.3026 130.671L42.2142 130.705Z" fill="#020205"/>
<path d="M63.138 125.55C65.9292 125.379 70.6273 124.64 72.7582 125.905C74.0145 127.861 73.588 127.879 73.6321 130.599C73.6143 133.33 74.0867 133.524 72.7545 135.276C71.4173 135.469 70.0301 135.649 68.7021 135.87C68.6905 134.175 68.6207 133.23 68.4028 131.548C66.6691 130.176 66.1379 130.622 63.4477 130.47C61.6198 130.717 61.0537 130.83 59.2337 130.611C57.9712 128.918 58.3689 128.105 58.2484 125.64L63.138 125.55Z" fill="#191D27"/>
<path d="M120.686 136.105L124.312 136.153C126.257 134.914 125.785 134.531 126.594 131.601C128.182 130.063 128.293 130.56 131.127 130.375C131.144 132.701 131.541 133.752 130.529 135.546C127.785 135.727 128.794 135.355 126.624 136.831C125.633 138.537 125.584 138.778 125.421 140.75C123.867 141.7 122.581 141.283 120.692 141.044L120.686 136.105Z" fill="#020205"/>
<path d="M110.223 125.208C111.654 125.25 114.005 125.394 115.356 125.295L115.28 130.775C113.701 130.738 112.802 130.637 111.237 130.406C109.862 128.559 110.329 127.999 110.223 125.208Z" fill="#252A33"/>
<path d="M48.009 130.635L53.4077 130.622C53.3355 132.619 53.4892 133.591 52.1422 135.113C50.0163 135.979 50.8167 135.997 49.0095 135.371C47.5304 133.426 48.0212 133.633 48.009 130.635Z" fill="#252A33"/>
<path d="M141.478 15.8731L146.557 15.7272L146.542 130.521C146.479 133.293 146.837 139.129 145.763 141.258C144.615 142.122 143.832 141.943 142.308 141.969C141.258 143.356 141.432 144.831 141.632 146.7C141.566 147.966 141.532 150.345 141.191 151.463C141.04 153.217 140.859 154.053 141.279 155.785C138.813 157.94 107.191 157.062 101.065 157.039L36.8387 156.866C32.3952 156.848 14.5147 156.476 10.9415 157.146L10.4182 157.005L5.84318 157.031L5.61304 151.719L5.67979 146.131L5.69815 140.867L6.4564 141.196C8.33392 141.225 8.6919 141.362 10.2726 140.504C10.9201 138.697 10.9433 137.245 11.0951 135.355C11.0932 137.337 10.7763 139.388 11.9133 140.813C16.5887 141.648 15.7222 141.645 16.5624 145.927C20.6969 147.418 124.235 146.505 135.346 146.346L136.02 145.618C136.128 143.853 136.387 142.802 135.563 141.266C134.094 141.192 134.155 141.22 132.822 140.615C132.766 137.614 132.906 133.583 132.01 130.82C132.006 127.342 131.97 124.234 131.781 120.745L131.252 120.812L131.221 114.859L126.308 114.765C126.16 109.975 126.246 104.689 126.221 99.8561L125.63 100.036L125.278 99.5024L120.725 99.3951L120.769 93.5684L120.581 89.2475L119.563 89.2169C121.162 87.8777 120.696 85.2564 120.746 83.2541C120.789 81.8591 120.898 80.8779 121.078 79.4934C122.749 78.142 123.669 78.5968 126.256 78.5109L131.188 78.7071L131.312 88.9607C132.935 88.8161 134.087 88.6635 135.69 88.373L136.365 87.2606L137.266 88.4924C139.204 88.5739 139.56 88.718 141.243 87.9188C141.923 83.7604 141.47 72.6174 141.496 67.7995L141.478 15.8731Z" fill="#252A33"/>
<path d="M5.67979 146.131L10.6061 146.41C10.6557 148.585 10.3118 149.652 11.3123 151.289C22.9397 152.254 46.6131 151.533 59.5195 151.522C86.7435 151.656 113.967 151.637 141.191 151.463C141.04 153.217 140.859 154.053 141.279 155.785C138.813 157.94 107.191 157.062 101.065 157.039L36.8387 156.866C32.3952 156.848 14.5147 156.476 10.9415 157.146L10.4182 157.005L5.84318 157.031L5.61304 151.719L5.67979 146.131Z" fill="#131821"/>
<path d="M5.84318 157.031C6.28502 153.746 5.74588 153.959 7.57811 151.796L8.96181 151.451C11.1398 153.269 10.6612 154.266 10.4182 157.005L5.84318 157.031Z" fill="#020205"/>
<path d="M126.256 78.5109L131.188 78.7071L131.312 88.9607C134.167 89.0747 134.026 88.5881 135.742 90.0902C137.029 93.0511 135.975 97.0055 136.573 100.907C136.543 104.648 136.722 116.943 136.314 120.007C134.802 120.118 133.088 120.089 131.781 120.745L131.252 120.812L131.221 114.859L126.308 114.765C126.16 109.975 126.246 104.689 126.221 99.8561L125.63 100.036L125.278 99.5024L120.725 99.3951L120.769 93.5684L120.581 89.2475L119.563 89.2169C121.162 87.8777 120.696 85.2564 120.746 83.2541C120.789 81.8591 120.898 80.8779 121.078 79.4934C122.749 78.142 123.669 78.5968 126.256 78.5109Z" fill="#636876"/>
<path d="M126.221 99.8561C127.364 99.4307 129.954 99.3841 131.286 99.3026C131.27 104.402 131.347 109.787 131.221 114.859L126.308 114.765C126.16 109.975 126.246 104.689 126.221 99.8561Z" fill="#CAD4DF"/>
<path d="M120.581 89.2475C121.66 88.9815 124.707 88.8583 125.961 88.775C126.091 90.5186 126.273 92.0802 126.122 93.8264C126.042 95.6546 126.192 98.0743 125.278 99.5024L120.725 99.3951L120.769 93.5684L120.581 89.2475Z" fill="#B0BAC3"/>
<path d="M120.581 89.2475C121.66 88.9815 124.707 88.8583 125.961 88.775C125.626 91.2369 125.982 92.1974 124.506 93.5531C123.27 93.5623 122.003 93.588 120.769 93.5684L120.581 89.2475Z" fill="#CAD4DF"/>
<path d="M126.122 93.8264C128.769 93.944 129.065 93.5243 130.923 94.7991C131.285 96.7211 131.304 97.3407 131.286 99.3026C129.954 99.3841 127.364 99.4307 126.221 99.8561L125.63 100.036L125.278 99.5024C126.192 98.0743 126.042 95.6546 126.122 93.8264Z" fill="#8A8FA3"/>
<path d="M136.573 100.907C136.724 97.7342 136.318 92.0968 137.344 89.7176C138.913 88.878 138.854 89.1961 140.833 89.413C141.999 91.3547 141.628 120.605 141.448 124.927L140.761 125.117C139.746 125.038 138.611 124.885 137.589 124.769C136.074 123.104 136.547 122.814 136.314 120.007C136.722 116.943 136.543 104.648 136.573 100.907Z" fill="#040713"/>
<path d="M131.781 120.745C133.088 120.089 134.802 120.118 136.314 120.007C136.547 122.814 136.074 123.104 137.589 124.769C138.611 124.885 139.746 125.038 140.761 125.117L141.448 124.927C141.541 127.746 141.986 132.303 141.029 134.773C139.408 136.164 138.684 135.67 136.045 135.707C134.561 133.588 137.483 131.724 134.276 131.294C133.384 131.173 133.058 131.251 132.279 130.784L132.01 130.82C132.006 127.342 131.97 124.234 131.781 120.745Z" fill="#191D27"/>
<path d="M131.781 120.745C133.088 120.089 134.802 120.118 136.314 120.007C136.547 122.814 136.074 123.104 137.589 124.769C138.611 124.885 139.746 125.038 140.761 125.117C133.014 126.955 139.657 130.147 132.279 130.784L132.01 130.82C132.006 127.342 131.97 124.234 131.781 120.745Z" fill="#10111B"/>
<path d="M5.69815 140.867L6.4564 141.196C8.72129 141.768 9.53275 141.503 10.597 143.033L10.6061 146.41L5.67979 146.131L5.69815 140.867Z" fill="#191D27"/>
<path d="M146.821 10.3688L151.902 10.4485L151.859 106.187C151.851 115.955 152.565 142.063 151.559 150.752C148.971 152.743 148.529 150.307 146.555 152.381C146.529 154.453 146.927 155.641 145.852 156.92C143.961 156.968 142.883 156.641 141.605 157.588L141.28 161.291C139.575 162.495 22.974 161.983 11.0149 162.038L10.9415 157.146C14.5147 156.476 32.3952 156.848 36.8387 156.866L101.065 157.039C107.191 157.062 138.813 157.94 141.279 155.785C140.859 154.053 141.04 153.217 141.191 151.463C141.532 150.345 141.566 147.966 141.632 146.7C141.432 144.831 141.258 143.356 142.308 141.969C143.832 141.943 144.615 142.122 145.763 141.258C146.837 139.129 146.479 133.293 146.542 130.521L146.557 15.7272L146.821 10.3688Z" fill="#020205"/>
<path d="M146.542 130.521C146.897 135.085 148.271 142.835 145.378 146.396C143.801 146.716 143.247 146.709 141.632 146.7C141.432 144.831 141.258 143.356 142.308 141.969C143.832 141.943 144.615 142.122 145.763 141.258C146.837 139.129 146.479 133.293 146.542 130.521Z" fill="#191D27"/>
<path d="M141.445 10.4288C141.451 9.01551 141.539 7.85105 141.65 6.44141C143.275 5.0287 144.044 5.42094 146.585 5.18192C146.684 6.86797 146.834 8.69132 146.821 10.3688L146.557 15.7272L141.478 15.8731L141.496 67.7995C141.47 72.6174 141.923 83.7604 141.243 87.9188C139.56 88.718 139.204 88.5739 137.266 88.4924L136.365 87.2606L135.69 88.373C134.087 88.6635 132.935 88.8161 131.312 88.9607L131.188 78.7071L126.256 78.5109L126.187 77.9698L126.052 73.1923L120.721 73.0568L120.593 68.4792L120.091 68.1059L115.187 68.0906L110.324 68.1274C110.277 69.249 110.231 72.1333 109.988 73.0802C107.504 73.1617 106.87 72.7504 105.12 73.9921C104.772 75.9025 104.766 76.4835 104.812 78.4313L100.288 78.5C100.065 80.4771 99.8622 81.5276 100.197 83.5342L99.7276 84.2145C99.3023 86.5202 99.6449 87.0001 98.1995 88.3049L94.8789 88.824L94.4457 93.4391L94.3177 93.8681L89.6454 93.9919L89.605 88.9074L84.5863 88.9264L84.1444 88.6236L79.3148 89.1323L78.6587 88.8835C79.1881 87.3359 78.9549 85.2785 78.8998 83.5789L79.2866 81.926C79.0559 75.3595 79.1612 69.347 79.2971 62.8008C80.9322 62.7523 81.7883 62.6598 83.4039 62.3993C84.6731 60.5398 84.2276 60.2892 84.2656 57.5949L84.0783 52.2585C83.8133 50.5455 84.1928 48.4353 84.3996 46.6665L84.019 46.3343L83.9994 41.0469L84.0459 36.2873C83.8825 34.4492 83.6647 32.939 83.9425 31.0967L84.3244 29.8378L88.755 30.3955C91.0431 31.1457 91.4036 31.0862 93.7395 30.8454L93.9904 26.4908L94.7853 25.9785L94.2492 25.6481C93.483 23.8162 93.8649 22.9771 94.2621 21.0049L98.0471 20.8541C99.9668 19.556 98.7032 17.9165 100.134 15.3748L99.2955 15.1346C99.2423 13.7029 99.4907 11.7711 99.6302 10.3032L110.048 10.4399C114.294 10.4601 133.876 9.66088 136.354 11.4505C136.285 13.0832 136.029 14.1295 136.92 15.4343C138.745 16.0147 139.001 15.9865 140.907 15.7389C141.893 14.29 141.522 12.3196 141.445 10.4288Z" fill="#343C46"/>
<path d="M88.837 46.764L94.3839 46.7597L94.4518 47.0784L94.8141 47.2475C94.5479 49.3062 94.4285 50.0576 94.598 52.1996L94.7657 57.1775C89.6711 58.0319 90.1178 57.2088 88.3009 62.0917L87.725 62.2743C85.8475 62.8848 85.2154 63.0159 84.0379 64.6805L83.937 66.1747C88.1008 70.3467 93.379 64.6425 96.1702 62.3565C96.1831 62.3454 99.2686 61.9501 99.6291 61.9029L99.9797 62.5348C99.8132 65.1776 100.272 65.8193 98.8041 67.3864C97.4914 67.4851 96.1782 67.5611 94.863 67.6138L94.8777 68.0331C94.6433 69.4311 94.3386 70.8922 94.3135 72.3006L94.1862 72.9668C94.5161 75.8939 94.0442 76.0931 95.6421 77.9361L97.0728 78.424L98.7998 78.5385L99.4259 78.5379L99.9258 78.1126L100.288 78.5C100.065 80.4771 99.8622 81.5276 100.197 83.5342L99.7276 84.2145C99.3023 86.5202 99.6449 87.0001 98.1995 88.3049L94.8789 88.824L94.4457 93.4391L94.3177 93.8681L89.6454 93.9919L89.605 88.9074L84.5863 88.9264L84.1444 88.6236L79.3148 89.1323L78.6587 88.8835C79.1881 87.3359 78.9549 85.2785 78.8998 83.5789L79.2866 81.926C79.0559 75.3595 79.1612 69.347 79.2971 62.8008C80.9322 62.7523 81.7883 62.6598 83.4039 62.3993C84.6731 60.5398 84.2276 60.2892 84.2656 57.5949L84.0783 52.2585C83.8133 50.5455 84.1928 48.4353 84.3996 46.6665L88.837 46.764Z" fill="#0A2927"/>
<path d="M99.4259 78.5379L99.9258 78.1126L100.288 78.5C100.065 80.4771 99.8622 81.5276 100.197 83.5342L99.7276 84.2145C99.3023 86.5202 99.6449 87.0001 98.1995 88.3049L94.8789 88.824L94.4457 93.4391L94.3177 93.8681L89.6454 93.9919L89.605 88.9074L89.523 84.4603L89.214 84.1078L89.5028 83.4324L89.452 78.3161C91.6092 78.3682 95.0179 78.5557 97.0728 78.424L98.7998 78.5385L99.4259 78.5379Z" fill="#553431"/>
<path d="M97.0728 78.424L98.7998 78.5385L99.4259 78.5379C99.3714 81.2708 99.839 81.3983 98.4786 83.1309C96.0136 84.2482 92.5908 83.2976 89.5028 83.4324L89.452 78.3161C91.6092 78.3682 95.0179 78.5557 97.0728 78.424Z" fill="#020205"/>
<path d="M94.4849 88.7652L94.8789 88.824L94.4457 93.4391L94.3177 93.8681L89.6454 93.9919L89.605 88.9074L94.4849 88.7652Z" fill="#553431"/>
<path d="M89.523 84.4603C92.0914 84.0178 91.9764 83.6354 94.0877 84.4389C94.9946 85.9435 94.6678 86.9712 94.4849 88.7652L89.605 88.9074L89.523 84.4603Z" fill="#77584E"/>
<path d="M89.0083 78.4895L89.452 78.3161L89.5028 83.4324L89.214 84.1078L89.523 84.4603L89.605 88.9074L84.5863 88.9264L84.1444 88.6236L79.3148 89.1323L78.6587 88.8835C79.1881 87.3359 78.9549 85.2785 78.8998 83.5789L79.2866 81.926C80.4389 81.85 81.9236 82.23 83.09 82.4604C84.1707 81.4259 83.8709 80.3931 84.0288 78.5061L89.0083 78.4895Z" fill="#09332C"/>
<path d="M84.1444 88.6236C84.1187 86.9688 84.224 86.5993 84.5691 84.961C86.4191 83.6642 86.4852 84.117 89.214 84.1078L89.523 84.4603L89.605 88.9074L84.5863 88.9264L84.1444 88.6236Z" fill="#020205"/>
<path d="M84.0288 78.5061L89.0083 78.4895C89.0047 81.4786 89.4802 81.2849 88.0561 83.335L86.7728 83.7879C83.7815 82.317 84.2105 81.72 84.0288 78.5061Z" fill="#2B6239"/>
<path d="M88.837 46.764L94.3839 46.7597L94.4518 47.0784L94.8141 47.2475C94.5479 49.3062 94.4285 50.0576 94.598 52.1996L91.7854 52.2634L89.1748 52.2137L84.0783 52.2585C83.8133 50.5455 84.1928 48.4353 84.3996 46.6665L88.837 46.764Z" fill="#2B6239"/>
<path d="M94.4518 47.0784L94.8141 47.2475C94.5479 49.3062 94.4285 50.0576 94.598 52.1996L91.7854 52.2634L89.1748 52.2137C88.9698 50.429 88.8162 49.7414 89.2122 47.9548C90.9722 46.8412 92.1049 47.1844 94.4518 47.0784Z" fill="#124238"/>
<path d="M89.4986 73.1108L94.1862 72.9668C94.5161 75.8939 94.0442 76.0931 95.6421 77.9361L97.0728 78.424C95.0179 78.5557 91.6092 78.3682 89.452 78.3161L89.4986 73.1108Z" fill="#2B6239"/>
<path d="M89.4986 73.1108L89.755 69.7926C91.0181 67.8541 91.3773 68.7569 94.5063 67.7333L94.863 67.6138L94.8777 68.0331C94.6433 69.4311 94.3386 70.8922 94.3135 72.3006L94.1862 72.9668L89.4986 73.1108Z" fill="#174C37"/>
<path d="M91.7854 52.2634L94.598 52.1996L94.7657 57.1775L91.0272 56.9342C89.1907 55.6367 89.7237 56.3152 88.8162 54.4134C90.0566 52.5527 89.3676 53.1668 91.7854 52.2634Z" fill="#08282A"/>
<path d="M99.9797 62.5348L104.514 62.5937L110.292 62.6617L120.905 62.6561C120.784 63.7998 120.562 66.6332 120.254 67.5948L120.091 68.1059L115.187 68.0906L110.324 68.1274C110.277 69.249 110.231 72.1333 109.988 73.0802C107.504 73.1617 106.87 72.7504 105.12 73.9921C104.772 75.9025 104.766 76.4835 104.812 78.4313L100.288 78.5L99.9258 78.1126L99.4259 78.5379L98.7998 78.5385L97.0728 78.424L95.6421 77.9361C94.0442 76.0931 94.5161 75.8939 94.1862 72.9668L94.3135 72.3006C94.3386 70.8922 94.6433 69.4311 94.8777 68.0331L94.863 67.6138C96.1782 67.5611 97.4914 67.4851 98.8041 67.3864C100.272 65.8193 99.8132 65.1776 99.9797 62.5348Z" fill="#2B6239"/>
<path d="M99.9693 67.9092C103.42 68.0336 106.872 68.1059 110.324 68.1274C110.277 69.249 110.231 72.1333 109.988 73.0802C107.504 73.1617 106.87 72.7504 105.12 73.9921C104.772 75.9025 104.766 76.4835 104.812 78.4313L100.288 78.5L99.9258 78.1126L99.9693 67.9092Z" fill="#171C14"/>
<path d="M110.292 62.6617L120.905 62.6561C120.784 63.7998 120.562 66.6332 120.254 67.5948C116.923 67.6733 113.59 67.6555 110.26 67.5421L110.292 62.6617Z" fill="#020205"/>
<path d="M104.514 62.5937L110.292 62.6617L110.26 67.5421C108.309 67.6726 107.411 67.8534 105.497 67.346C104.197 65.4154 104.624 65.3167 104.514 62.5937Z" fill="#529856"/>
<path d="M94.3135 72.3006C95.9646 72.395 97.7497 72.5371 99.3904 72.5592C99.3286 74.2023 99.3769 77.1706 98.7998 78.5385L97.0728 78.424L95.6421 77.9361C94.0442 76.0931 94.5161 75.8939 94.1862 72.9668L94.3135 72.3006Z" fill="#2F7247"/>
<path d="M94.8777 68.0331C97.2546 68.1471 97.6432 67.7462 99.2258 69.0007C99.3371 70.3142 99.4271 71.2433 99.3904 72.5592C97.7497 72.5371 95.9646 72.395 94.3135 72.3006C94.3386 70.8922 94.6433 69.4311 94.8777 68.0331Z" fill="#367642"/>
<path d="M99.6302 10.3032L110.048 10.4399C109.951 17.3006 109.946 24.1624 110.034 31.0231L104.893 31.8891L104.774 31.484C103.109 31.6268 102.079 31.9106 100.634 31.1347C99.8408 29.5773 99.7631 28.4845 99.4675 26.777C97.6824 25.3723 97.6891 25.8804 94.7853 25.9785L94.2492 25.6481C93.483 23.8162 93.8649 22.9771 94.2621 21.0049L98.0471 20.8541C99.9668 19.556 98.7032 17.9165 100.134 15.3748L99.2955 15.1346C99.2423 13.7029 99.4907 11.7711 99.6302 10.3032Z" fill="#09332C"/>
<path d="M100.134 15.3748L103.383 15.5514C106.144 18.7562 104.833 26.6924 104.774 31.484C103.109 31.6268 102.079 31.9106 100.634 31.1347C99.8408 29.5773 99.7631 28.4845 99.4675 26.777C97.6824 25.3723 97.6891 25.8804 94.7853 25.9785L94.2492 25.6481C93.483 23.8162 93.8649 22.9771 94.2621 21.0049L98.0471 20.8541C99.9668 19.556 98.7032 17.9165 100.134 15.3748Z" fill="#56A155"/>
<path d="M84.3244 29.8378L88.755 30.3955C91.0431 31.1457 91.4036 31.0862 93.7395 30.8454L93.5645 31.6323C94.3043 32.195 94.7082 33.0953 94.636 34.0232C94.5644 34.9505 94.0271 35.7779 93.2101 36.2198C93.2719 38.6995 93.7792 39.6569 94.6966 41.9485L94.3839 46.7597L88.837 46.764L84.3996 46.6665L84.019 46.3343L83.9994 41.0469L84.0459 36.2873C83.8825 34.4492 83.6647 32.939 83.9425 31.0967L84.3244 29.8378Z" fill="#2F7247"/>
<path d="M84.3244 29.8378L88.755 30.3955C91.0431 31.1457 91.4036 31.0862 93.7395 30.8454L93.5645 31.6323C94.3043 32.195 94.7082 33.0953 94.636 34.0232C94.5644 34.9505 94.0271 35.7779 93.2101 36.2198C91.9972 36.875 90.4863 36.5232 89.687 35.3992L89.064 36.1843L84.0459 36.2873C83.8825 34.4492 83.6647 32.939 83.9425 31.0967L84.3244 29.8378Z" fill="#529856"/>
<path d="M93.5645 31.6323C94.3043 32.195 94.7082 33.0953 94.636 34.0232C94.5644 34.9505 94.0271 35.7779 93.2101 36.2198C91.9972 36.875 90.4863 36.5232 89.687 35.3992C88.9037 34.2978 89.0414 32.7888 90.0101 31.8474C90.9795 30.9067 92.4892 30.8153 93.5645 31.6323Z" fill="#2B6239"/>
<path d="M84.0459 36.2873L89.064 36.1843C89.2158 38.5329 89.3131 39.53 89.0237 41.8872L88.837 46.764L84.3996 46.6665L84.019 46.3343L83.9994 41.0469L84.0459 36.2873Z" fill="#2B6239"/>
<path d="M83.9994 41.0469C85.9124 41.5121 87.0146 41.8418 89.0237 41.8872L88.837 46.764L84.3996 46.6665L84.019 46.3343L83.9994 41.0469Z" fill="#1E573D"/>
<path d="M99.6291 61.9029C99.8518 59.653 99.4858 59.3987 100.796 57.9565C104.767 57.511 128.688 56.9495 130.828 58.6319C131.049 60.1653 131.148 61.0204 131.168 62.5673C129.898 62.6359 127.387 62.666 126.297 63.0607L125.739 63.0386C124.301 62.566 122.462 62.6739 120.905 62.6561L110.292 62.6617L104.514 62.5937L99.9797 62.5348L99.6291 61.9029Z" fill="#08282A"/>
<path d="M94.7853 25.9785C97.6891 25.8804 97.6824 25.3723 99.4675 26.777C99.7631 28.4845 99.8408 29.5773 100.634 31.1347C102.079 31.9106 103.109 31.6268 104.774 31.484L104.893 31.8891L104.799 36.438L104.896 41.9092L99.8769 41.9516L99.4736 41.8271L94.6966 41.9485C93.7792 39.6569 93.2719 38.6995 93.2101 36.2198C94.0271 35.7779 94.5644 34.9505 94.636 34.0232C94.7082 33.0953 94.3043 32.195 93.5645 31.6323L93.7395 30.8454L93.9904 26.4908L94.7853 25.9785Z" fill="#367642"/>
<path d="M99.4736 41.8271C99.5226 40.0467 99.604 39.2193 99.9063 37.4646C101.694 36.02 101.937 36.5158 104.799 36.438L104.896 41.9092L99.8769 41.9516L99.4736 41.8271Z" fill="#1E573D"/>
<path d="M126.297 63.0607C127.387 62.666 129.898 62.6359 131.168 62.5673C131.264 66.6546 132.418 74.9679 130.131 77.6854C128.426 78.1065 127.953 78.0476 126.187 77.9698L126.052 73.1923L120.721 73.0568L120.593 68.4792L120.091 68.1059L120.254 67.5948C120.562 66.6332 120.784 63.7998 120.905 62.6561C122.462 62.6739 124.301 62.566 125.739 63.0386L126.297 63.0607Z" fill="#040713"/>
<path d="M120.905 62.6561C122.462 62.6739 124.301 62.566 125.739 63.0386L126.297 63.0607C126.44 66.9035 125.975 69.8392 126.052 73.1923L120.721 73.0568L120.593 68.4792L120.091 68.1059L120.254 67.5948C120.562 66.6332 120.784 63.7998 120.905 62.6561Z" fill="#10111B"/>
<path d="M120.905 62.6561C122.462 62.6739 124.301 62.566 125.739 63.0386C125.658 65.8039 126.144 66.1514 124.739 67.832L120.593 68.4792L120.091 68.1059L120.254 67.5948C120.562 66.6332 120.784 63.7998 120.905 62.6561Z" fill="#77584E"/>
<path d="M99.4736 41.8271L99.8769 41.9516L104.896 41.9092C104.869 44.3314 105.291 44.6715 104.069 46.3147C99.782 48.2974 99.9895 47.4835 99.5507 52.2799L94.598 52.1996C94.4285 50.0576 94.5479 49.3062 94.8141 47.2475L94.4518 47.0784L94.3839 46.7597L94.6966 41.9485L99.4736 41.8271Z" fill="#08282A"/>
<path d="M99.4736 41.8271L99.8769 41.9516C99.5789 43.8049 99.3787 45.1637 99.2422 47.0495L94.8141 47.2475L94.4518 47.0784L94.3839 46.7597L94.6966 41.9485L99.4736 41.8271Z" fill="#174C37"/>
<path d="M94.8141 47.2475L99.2422 47.0495C99.29 48.4947 99.2931 50.9438 99.5507 52.2799L94.598 52.1996C94.4285 50.0576 94.5479 49.3062 94.8141 47.2475Z" fill="#0A2927"/>
<path d="M104.893 31.8891L110.034 31.0231C110.173 34.2597 110.858 38.8712 109.135 41.4085C107.508 42.2463 106.729 42.0238 104.896 41.9092L104.799 36.438L104.893 31.8891Z" fill="#08282A"/>
<path d="M131.909 78.3075L136.256 78.0672C136.677 81.7948 136.562 83.5734 136.365 87.2606L135.69 88.373C134.087 88.6635 132.935 88.8161 131.312 88.9607L131.188 78.7071L131.909 78.3075Z" fill="#040713"/>
<path d="M131.909 78.3075L136.256 78.0672C136.067 81.1359 136.402 81.6434 133.888 83.4741L132.812 83.1388C131.507 80.9974 131.938 81.1923 131.909 78.3075Z" fill="#020205"/>
<path d="M141.445 10.4288C141.451 9.01551 141.539 7.85105 141.65 6.44141C143.275 5.0287 144.044 5.42094 146.585 5.18192C146.351 7.6586 146.719 8.83413 145.326 10.3326C144.021 10.3903 142.754 10.4662 141.445 10.4288Z" fill="#020205"/>
<path d="M5.80705 5.26584C11.4255 4.85459 9.68388 5.04276 11.0223 0.00788098L105.913 0.0667492C110.67 0.0636847 138.514 -0.236049 140.999 0.460192C141.798 2.07515 141.632 3.08947 141.631 4.89566C142.934 4.9643 145.393 5.01399 146.585 5.18192C144.044 5.42094 143.275 5.0287 141.65 6.44141C141.539 7.85105 141.451 9.01551 141.445 10.4288C141.522 12.3196 141.893 14.29 140.907 15.7389C139.001 15.9865 138.745 16.0147 136.92 15.4343C136.029 14.1295 136.285 13.0832 136.354 11.4505C133.876 9.66088 114.294 10.4601 110.048 10.4399L99.6302 10.3032C82.9327 10.4258 66.2346 10.4601 49.5364 10.4062C40.1776 10.3823 26.1219 9.98204 17.0777 10.8658C13.9731 14.2373 18.7845 15.2118 11.1098 15.5704C11.6257 20.8235 11.4029 28.8026 11.4029 34.3382L11.3674 101.988C11.3619 106.938 11.6018 115.42 11.2573 120.121L11.1936 125.727L11.2401 130.747L11.0951 135.355C10.9433 137.245 10.9201 138.697 10.2726 140.504C8.6919 141.362 8.33392 141.225 6.4564 141.196L5.69815 140.867L5.67979 146.131L5.61304 151.719C3.76307 151.701 2.50797 151.864 0.921746 150.868C-1.48818 146.718 1.76197 35.9783 0.292638 23.5459C0.117003 22.0609 0.404011 12.9735 0.569854 11.2237C2.3672 10.0593 3.19093 10.4705 5.64676 10.435L5.80705 5.26584Z" fill="#52656C"/>
<path d="M5.61304 151.719C3.76307 151.701 2.50797 151.864 0.921746 150.868C-1.48818 146.718 1.76197 35.9783 0.292638 23.5459C0.117003 22.0609 0.404011 12.9735 0.569854 11.2237C2.3672 10.0593 3.19093 10.4705 5.64676 10.435C5.64798 52.033 6.01634 94.2248 5.53962 135.775L5.69815 140.867L5.67979 146.131L5.61304 151.719Z" fill="#020205"/>
<path d="M11.0223 0.00788098L105.913 0.0667492C110.67 0.0636847 138.514 -0.236049 140.999 0.460192C141.798 2.07515 141.632 3.08947 141.631 4.89566C137.599 5.24745 128.072 5.01887 123.692 5.03235L86.6541 5.0477C63.8356 5.03299 34.1687 5.94249 11.9353 4.96064C10.925 3.49891 11.1722 2.03899 11.0223 0.00788098Z" fill="#020205"/>
<path d="M11.1098 15.5704C11.6257 20.8235 11.4029 28.8026 11.4029 34.3382L11.3674 101.988C11.3619 106.938 11.6018 115.42 11.2573 120.121L11.1936 125.727L11.2401 130.747L11.0951 135.355C10.9433 137.245 10.9201 138.697 10.2726 140.504C8.6919 141.362 8.33392 141.225 6.4564 141.196L5.69815 140.867L5.53962 135.775C7.45875 135.765 8.39388 135.855 10.2469 135.198C11.0878 130.827 10.8209 113.139 10.8008 107.344L10.7573 49.2743C10.7193 41.3748 10.1979 22.6554 11.1098 15.5704Z" fill="#48515C"/>
<path d="M5.80705 5.26584C9.04681 5.72796 8.75801 5.16106 10.6894 7.06347L11.0492 8.63123C9.30451 11.0877 8.48445 10.647 5.64676 10.435L5.80705 5.26584Z" fill="#020205"/>
<path d="M52.0296 67.9135L57.6248 68.0557L57.7105 73.0348L57.6567 77.5279L57.9547 78.115L58.8341 78.1561C57.5753 80.0775 57.5893 81.2874 57.3176 83.5667C57.6854 86.1899 58.0869 85.9821 57.0557 87.9311C54.8661 88.9975 49.5193 88.5617 46.6394 88.5764L42.3103 88.5709L42.2455 88.8664L41.3783 88.9049L36.9673 88.9503C35.3688 88.9601 34.4814 88.8859 32.8928 88.6941C31.481 86.8965 31.9767 86.291 31.8996 83.4539L31.9504 78.1684L31.9161 73.4724C33.7495 73.4118 35.2048 73.2965 37.034 73.568L36.952 73.1359L47.3046 73.0311L47.3175 68.2788C49.209 68.4284 50.198 68.2065 52.0296 67.9135Z" fill="#448152"/>
<path d="M31.9504 78.1684C34.4099 78.1427 34.9147 77.7019 36.6393 78.8879C36.8522 80.4667 37.0768 82.0443 37.3112 83.62L41.8722 83.479C41.9462 84.6986 42.0386 87.5155 42.3103 88.5709L42.2455 88.8664L41.3783 88.9049L36.9673 88.9503C35.3688 88.9601 34.4814 88.8859 32.8928 88.6941C31.481 86.8965 31.9767 86.291 31.8996 83.4539L31.9504 78.1684Z" fill="#174C37"/>
<path d="M31.8996 83.4539C34.7042 83.4907 34.8211 83.0267 36.7298 84.3671C37.0707 86.4007 37.0517 86.9051 36.9673 88.9503C35.3688 88.9601 34.4814 88.8859 32.8928 88.6941C31.481 86.8965 31.9767 86.291 31.8996 83.4539Z" fill="#08282A"/>
<path d="M52.0296 67.9135L57.6248 68.0557L57.7105 73.0348L57.6567 77.5279C55.811 78.3884 54.9009 78.1402 52.9206 77.9306C52.8496 76.3567 52.7578 75.5176 52.4873 73.9651C50.7775 72.6223 49.9165 73.0894 47.3046 73.0311L47.3175 68.2788C49.209 68.4284 50.198 68.2065 52.0296 67.9135Z" fill="#4A8F56"/>
<path d="M31.9161 73.4724C33.7495 73.4118 35.2048 73.2965 37.034 73.568C37.2837 74.9556 37.5431 76.2053 37.6361 77.6168C37.5474 79.3892 37.5003 81.9235 37.3112 83.62C37.0768 82.0443 36.8522 80.4667 36.6393 78.8879C34.9147 77.7019 34.4099 78.1427 31.9504 78.1684L31.9161 73.4724Z" fill="#4A8F56"/>
<path d="M47.3046 73.0311C49.9165 73.0894 50.7775 72.6223 52.4873 73.9651C52.7578 75.5176 52.8496 76.3567 52.9206 77.9306C51.0578 78.2101 49.5732 78.6372 47.8327 78.0427C46.7122 76.1354 47.1834 75.6715 47.3046 73.0311Z" fill="#2F7247"/>
<path d="M57.9547 78.115L58.8341 78.1561C57.5753 80.0775 57.5893 81.2874 57.3176 83.5667C54.3704 83.4031 54.6629 83.8756 52.666 82.3624C52.3435 80.5819 52.4084 81.193 53.7027 79.1741C55.3502 78.3694 56.1659 78.3633 57.9547 78.115Z" fill="#1E573D"/>
<path d="M37.6361 77.6168C40.2535 78.0329 40.415 77.6137 42.0172 79.1275C42.0661 80.8325 42.0319 81.7807 41.8722 83.479L37.3112 83.62C37.5003 81.9235 37.5474 79.3892 37.6361 77.6168Z" fill="#66AE57"/>
<path d="M42.3103 88.5709C42.6084 85.3471 42.0588 85.5371 43.8427 83.6059L45.0795 83.2921C47.3621 84.9169 46.9277 85.9085 46.6394 88.5764L42.3103 88.5709Z" fill="#367642"/>
<path d="M21.4159 57.612L42.0643 57.5716C45.2221 57.5716 49.5872 57.0163 52.0229 58.3493C52.8858 59.9042 52.7474 60.3186 52.7511 62.1756L52.4286 62.5483L47.195 62.6678L47.3762 67.5366C48.9257 67.5274 50.9189 67.2295 52.0296 67.9135C50.198 68.2065 49.209 68.4284 47.3175 68.2788L47.3046 73.0311L36.952 73.1359L37.034 73.568C35.2048 73.2965 33.7495 73.4118 31.9161 73.4724L31.5997 73.0838L26.5075 73.1163C25.5075 73.1629 22.6282 73.3676 22.1399 72.4532C20.2275 68.8721 21.3113 61.6804 21.4159 57.612Z" fill="#092F2A"/>
<path d="M47.3762 67.5366C48.9257 67.5274 50.9189 67.2295 52.0296 67.9135C50.198 68.2065 49.209 68.4284 47.3175 68.2788L47.3046 73.0311L36.952 73.1359L37.034 73.568C35.2048 73.2965 33.7495 73.4118 31.9161 73.4724L31.5997 73.0838L26.5075 73.1163L26.5724 67.3674L27.2816 67.5237C32.7569 67.1456 41.639 67.4716 47.3762 67.5366Z" fill="#367642"/>
<path d="M36.952 73.1359C36.739 70.9632 36.4073 70.0899 37.7426 68.5037C40.6317 67.183 44.0061 67.9675 47.3175 68.2788L47.3046 73.0311L36.952 73.1359Z" fill="#2F7247"/>
<path d="M26.5724 67.3674L27.2816 67.5237C29.1561 67.8087 29.7913 67.7866 31.4534 68.7617C31.7655 70.5189 31.6811 71.3487 31.5997 73.0838L26.5075 73.1163L26.5724 67.3674Z" fill="#1E573D"/>
<path d="M26.5724 67.3674C26.5724 65.0409 26.2125 64.74 27.2327 62.8977C32.1443 62.2572 41.9052 62.6188 47.195 62.6678L47.3762 67.5366C41.639 67.4716 32.7569 67.1456 27.2816 67.5237L26.5724 67.3674Z" fill="#529856"/>
<path d="M42.4468 21.3027C47.5702 21.2304 51.9549 20.1725 56.7625 21.5436C58.3665 23.2333 57.8818 22.822 58.0924 25.6738C56.8023 25.6186 54.6727 25.819 53.319 25.903C55.8122 26.3535 56.3397 25.968 57.6579 27.5456L57.7796 30.5781C57.678 31.8628 57.5728 34.4988 57.1652 35.594L57.1218 36.2878L53.2352 36.21C52.2034 38.1338 52.5712 39.1616 52.9151 41.281L52.8001 41.6886L52.8937 46.6824L52.7413 47.0869C51.1851 46.5635 49.0891 46.7652 47.3848 46.7995C45.3934 46.9306 44.9773 46.9117 43.0147 46.5562C41.4383 44.0372 42.3623 25.3496 42.4468 21.3027Z" fill="#09332C"/>
<path d="M47.449 31.609C47.3113 29.6564 47.1118 28.5654 47.7305 26.6673C49.7445 25.4765 50.1117 25.9184 52.8368 25.93L53.319 25.903C55.8122 26.3535 56.3397 25.968 57.6579 27.5456L57.7796 30.5781C57.678 31.8628 57.5728 34.4988 57.1652 35.594L57.1218 36.2878L53.2352 36.21C51.0768 36.5562 50.2212 37.0901 48.5126 36.3166C47.9116 34.5527 47.7513 33.4122 47.449 31.609Z" fill="#56A155"/>
<path d="M53.319 25.903C55.8122 26.3535 56.3397 25.968 57.6579 27.5456L57.7796 30.5781C57.678 31.8628 57.5728 34.4988 57.1652 35.594C56.8715 31.8854 57.4406 31.9222 54.0735 30.5886C53.1599 29.1838 53.0969 27.6259 52.8368 25.93L53.319 25.903Z" fill="#529856"/>
<path d="M47.449 31.609C47.7513 33.4122 47.9116 34.5527 48.5126 36.3166C50.2212 37.0901 51.0768 36.5562 53.2352 36.21C52.2034 38.1338 52.5712 39.1616 52.9151 41.281L52.8001 41.6886L52.8937 46.6824L52.7413 47.0869C51.1851 46.5635 49.0891 46.7652 47.3848 46.7995L47.3829 41.6696L47.449 31.609Z" fill="#4A8F56"/>
<path d="M47.3829 41.6696L52.8001 41.6886L52.8937 46.6824L52.7413 47.0869C51.1851 46.5635 49.0891 46.7652 47.3848 46.7995L47.3829 41.6696Z" fill="#1E573D"/>
<path d="M79.0865 46.5237C80.289 46.4839 82.9505 46.4765 84.019 46.3343L84.3996 46.6665C84.1928 48.4353 83.8133 50.5455 84.0783 52.2585L84.2656 57.5949C84.2276 60.2892 84.6731 60.5398 83.4039 62.3993C81.7883 62.6598 80.9322 62.7523 79.2971 62.8008C79.1612 69.347 79.0559 75.3595 79.2866 81.926L78.8998 83.5789C78.9549 85.2785 79.1881 87.3359 78.6587 88.8835L74.1308 88.8792L73.8065 88.7677C73.3426 81.3677 73.6578 69.8901 73.6198 62.1738C71.8353 62.3172 70.5184 62.2271 68.7535 62.1376L68.7351 57.9988L68.7216 57.6145L70.4027 57.3344L73.5666 56.8411L73.5587 52.2775C75.9245 52.5429 76.3566 52.5925 78.7696 52.2156C78.9893 50.7802 79.0241 48.0817 79.0865 46.5237Z" fill="#1E573D"/>
<path d="M73.8554 61.3942L78.9446 61.0473C78.5431 64.6554 78.1061 80.4275 78.8998 83.5789C78.9549 85.2785 79.1881 87.3359 78.6587 88.8835L74.1308 88.8792L73.8065 88.7677C73.3426 81.3677 73.6578 69.8901 73.6198 62.1738L73.8554 61.3942Z" fill="#529856"/>
<path d="M68.7216 57.6145L70.4027 57.3344L73.6101 57.5955L73.8554 61.3942L73.6198 62.1738C71.8353 62.3172 70.5184 62.2271 68.7535 62.1376L68.7351 57.9988L68.7216 57.6145Z" fill="#174C37"/>
<path d="M73.5587 52.2775C75.9245 52.5429 76.3566 52.5925 78.7696 52.2156C78.5511 54.479 78.8711 55.3953 77.6416 56.9023C75.8737 57.0917 75.3413 57.0354 73.5666 56.8411L73.5587 52.2775Z" fill="#174C37"/>
<path d="M73.6101 57.5955C75.9931 57.6366 76.7537 57.2413 78.4997 58.3745C78.6863 59.2809 78.8968 60.1225 78.9446 61.0473L73.8554 61.3942L73.6101 57.5955Z" fill="#367642"/>
<path d="M58.5201 57.5238L62.7813 57.6739L63.146 57.8106C63.2654 59.7498 62.7691 61.5039 64.8583 62.164C66.0211 62.148 67.6348 62.0727 68.7535 62.1376C70.5184 62.2271 71.8353 62.3172 73.6198 62.1738C73.6578 69.8901 73.3426 81.3677 73.8065 88.7677C71.7032 89.0177 70.7387 88.8081 68.6947 88.5194L68.2786 83.433L68.1605 78.1285L63.6258 77.9403L63.228 77.5965C61.8003 77.792 60.2582 78.0409 58.8341 78.1561L57.9547 78.115L57.6567 77.5279L57.7105 73.0348L57.6248 68.0557L57.8219 67.6199C59.5005 67.6726 61.5261 67.8062 63.1705 67.6616L63.2262 63.3542L63.6062 62.7462C61.6106 62.6849 60.6682 62.6782 58.6609 62.2492C57.7711 60.5594 58.2686 59.7516 58.5201 57.5238Z" fill="#09332C"/>
<path d="M63.1705 67.6616L63.4502 68.0373L63.3155 72.8773L63.1742 73.3161L63.228 77.5965C61.8003 77.792 60.2582 78.0409 58.8341 78.1561L57.9547 78.115L57.6567 77.5279L57.7105 73.0348L57.6248 68.0557L57.8219 67.6199C59.5005 67.6726 61.5261 67.8062 63.1705 67.6616Z" fill="#174C37"/>
<path d="M57.7105 73.0348C59.1786 73.0808 61.8627 73.0838 63.1742 73.3161L63.228 77.5965C61.8003 77.792 60.2582 78.0409 58.8341 78.1561L57.9547 78.115L57.6567 77.5279L57.7105 73.0348Z" fill="#2F7247"/>
<path d="M58.5201 57.5238L62.7813 57.6739L63.146 57.8106C63.2654 59.7498 62.7691 61.5039 64.8583 62.164L64.9849 62.422C67.5907 62.5078 67.0626 62.0855 68.6378 63.5325C69.224 65.7113 69.2693 64.7804 68.2534 67.0708C66.5191 68.3486 65.9549 68.1826 63.4502 68.0373L63.1705 67.6616L63.2262 63.3542L63.6062 62.7462C61.6106 62.6849 60.6682 62.6782 58.6609 62.2492C57.7711 60.5594 58.2686 59.7516 58.5201 57.5238Z" fill="#2C3F44"/>
<path d="M63.3155 72.8773C65.6949 72.9429 66.0889 72.5629 67.8526 73.7108C68.336 75.4716 68.2241 76.348 68.1605 78.1285L63.6258 77.9403L63.228 77.5965L63.1742 73.3161L63.3155 72.8773Z" fill="#124238"/>
<path d="M63.228 77.5965L63.6258 77.9403L68.1605 78.1285L68.2786 83.433L68.6947 88.5194C70.7387 88.8081 71.7032 89.0177 73.8065 88.7677L74.1308 88.8792C73.782 90.8595 73.5831 91.6409 73.7611 93.7063C71.626 93.9349 67.076 94.5735 65.1508 94.3192C61.2599 94.3302 56.7246 94.0624 52.7884 93.9233C50.7408 93.8405 48.8779 93.6015 46.9349 94.1721C46.4656 94.2168 45.3677 94.1188 44.842 94.0894L42.5753 94.2794L41.3783 88.9049L42.2455 88.8664L42.3103 88.5709L46.6394 88.5764C49.5193 88.5617 54.8661 88.9975 57.0557 87.9311C58.0869 85.9821 57.6854 86.1899 57.3176 83.5667C57.5893 81.2874 57.5753 80.0775 58.8341 78.1561C60.2582 78.0409 61.8003 77.792 63.228 77.5965Z" fill="#174C37"/>
<path d="M41.3783 88.9049L42.2455 88.8664L46.6626 89.1225C49.4085 89.0789 50.3797 88.585 52.3674 89.785C52.9396 91.5256 52.8264 92.1428 52.7884 93.9233C50.7408 93.8405 48.8779 93.6015 46.9349 94.1721C46.4656 94.2168 45.3677 94.1188 44.842 94.0894L42.5753 94.2794L41.3783 88.9049Z" fill="#09332C"/>
<path d="M41.3783 88.9049L42.2455 88.8664L46.6626 89.1225C46.7997 91.5213 47.2575 92.0846 46.1902 93.8301L44.842 94.0894L42.5753 94.2794L41.3783 88.9049Z" fill="#08282A"/>
<path d="M63.6258 77.9403L68.1605 78.1285L68.2786 83.433L63.2011 83.6219C63.1931 81.3045 63.3094 80.2307 63.6258 77.9403Z" fill="#2B6239"/>
<path d="M63.2011 83.6219L68.2786 83.433L68.6947 88.5194L68.2596 88.4502C66.7235 88.3962 65.6728 88.2969 64.1484 88.0941C62.7812 86.343 63.2433 86.3688 63.2011 83.6219Z" fill="#124238"/>
<path d="M79.0737 30.3422L83.2748 30.8399L83.9425 31.0967C83.6647 32.939 83.8825 34.4492 84.0459 36.2873L83.9994 41.0469L84.019 46.3343C82.9505 46.4765 80.289 46.4839 79.0865 46.5237C79.0241 48.0817 78.9893 50.7802 78.7696 52.2156C76.3566 52.5925 75.9245 52.5429 73.5587 52.2775L68.8606 52.1598C68.5203 47.0949 68.9628 43.74 68.3698 37.9972L67.2223 36.7365L67.8281 36.7659C68.904 36.5839 71.2974 36.6108 72.4877 36.5894C74.1002 35.2502 73.6866 34.592 74.0819 31.9762C75.6987 31.1249 76.5187 31.2885 78.3448 31.2934L79.0737 30.3422Z" fill="#09332C"/>
<path d="M83.9425 31.0967C83.6647 32.939 83.8825 34.4492 84.0459 36.2873L83.9994 41.0469L84.019 46.3343C82.9505 46.4765 80.289 46.4839 79.0865 46.5237C79.0321 42.9512 78.2505 35.0474 79.6648 31.9946C80.0932 31.0703 82.0631 31.0342 83.2748 30.8399L83.9425 31.0967Z" fill="#2F7247"/>
<path d="M74.0819 31.9762C75.6987 31.1249 76.5187 31.2885 78.3448 31.2934L78.1221 32.8581C75.9416 33.8724 76.8963 33.7921 74.542 33.1283L74.0819 31.9762Z" fill="#0A2927"/>
<path d="M73.7611 93.7063L74.2746 93.9754L73.7165 94.3909L73.7037 99.3639L73.5574 104.469L68.4591 104.498L63.2604 104.387L63.4324 99.8591C59.9062 97.9628 53.3435 100.916 48.4894 98.9232C46.7961 97.0055 47.3027 97.1991 46.9349 94.1721C48.8779 93.6015 50.7408 93.8405 52.7884 93.9233C56.7246 94.0624 61.2599 94.3302 65.1508 94.3192C67.076 94.5735 71.626 93.9349 73.7611 93.7063Z" fill="#08282A"/>
<path d="M73.7037 99.3639L73.5574 104.469L68.4591 104.498L68.3392 100.38L68.5527 99.3516L73.7037 99.3639Z" fill="#6D4C41"/>
<path d="M68.5527 99.3516C68.5546 97.6852 68.6512 97.0398 68.9432 95.3948C70.798 94.0844 71.0324 94.5147 73.7165 94.3909L73.7037 99.3639L68.5527 99.3516Z" fill="#020205"/>
<path d="M63.4324 99.8591C64.9452 99.7261 67.4133 99.0255 68.3392 100.38L68.4591 104.498L63.2604 104.387L63.4324 99.8591Z" fill="#10111B"/>
<path d="M67.2223 36.7365L68.3698 37.9972C68.9628 43.74 68.5203 47.0949 68.8606 52.1598L73.5587 52.2775L73.5666 56.8411L70.4027 57.3344L68.7216 57.6145L68.7351 57.9988L68.7535 62.1376C67.6348 62.0727 66.0211 62.148 64.8583 62.164C62.7691 61.5039 63.2654 59.7498 63.146 57.8106L62.7813 57.6739C63.4086 55.8733 63.2286 54.1707 63.2066 52.2407L62.7219 52.1291C63.343 50.8145 63.2347 48.7338 63.283 47.1954L63.0719 46.8166C63.2378 45.0141 63.0768 43.6866 62.9391 41.9L63.2488 36.9381L67.2223 36.7365Z" fill="#124238"/>
<path d="M67.2223 36.7365L68.3698 37.9972L68.0809 41.6733C68.0723 43.3796 68.1286 45.4714 67.9548 47.1372L63.283 47.1954L63.0719 46.8166C63.2378 45.0141 63.0768 43.6866 62.9391 41.9L63.2488 36.9381L67.2223 36.7365Z" fill="#4A8F56"/>
<path d="M67.2223 36.7365L68.3698 37.9972L68.0809 41.6733L62.9391 41.9L63.2488 36.9381L67.2223 36.7365Z" fill="#529856"/>
<path d="M67.9548 47.1372C68.0173 49.6353 68.5007 50.1832 67.2505 51.7786L63.2066 52.2407L62.7219 52.1291C63.343 50.8145 63.2347 48.7338 63.283 47.1954L67.9548 47.1372Z" fill="#174C37"/>
<path d="M68.8606 52.1598L73.5587 52.2775L73.5666 56.8411L70.4027 57.3344L68.7216 57.6145C68.6666 55.98 68.8037 53.8354 68.8606 52.1598Z" fill="#2B6239"/>
<path d="M63.146 57.8106C64.8956 57.7751 67.0804 57.6066 68.7351 57.9988L68.7535 62.1376C67.6348 62.0727 66.0211 62.148 64.8583 62.164C62.7691 61.5039 63.2654 59.7498 63.146 57.8106Z" fill="#08282A"/>
<path d="M57.7796 30.5781L58.5703 30.8454L59.1578 31.1053L62.7054 31.4479L63.1784 31.405L63.2488 36.9381L62.9391 41.9C63.0768 43.6866 63.2378 45.0141 63.0719 46.8166L58.6462 46.9055L57.7931 47.5944C56.1579 47.375 54.8404 47.109 53.2425 46.7713L52.8937 46.6824L52.8001 41.6886L52.9151 41.281C52.5712 39.1616 52.2034 38.1338 53.2352 36.21L57.1218 36.2878L57.1652 35.594C57.5728 34.4988 57.678 31.8628 57.7796 30.5781Z" fill="#367642"/>
<path d="M57.1218 36.2878L58.5305 36.8425C58.5581 38.6107 58.1138 39.5736 57.5661 41.2406L52.9151 41.281C52.5712 39.1616 52.2034 38.1338 53.2352 36.21L57.1218 36.2878Z" fill="#2F7247"/>
<path d="M52.9151 41.281L57.5661 41.2406C57.6572 44.1843 58.2086 44.6016 56.8078 46.4329C55.4835 46.6125 54.576 46.7456 53.2425 46.7713L52.8937 46.6824L52.8001 41.6886L52.9151 41.281Z" fill="#529856"/>
<path d="M62.9391 41.9C63.0768 43.6866 63.2378 45.0141 63.0719 46.8166L58.6462 46.9055C58.342 45.198 58.3604 44.6433 58.4185 42.9027C60.0525 41.4544 60.1302 41.9509 62.9391 41.9Z" fill="#2F7247"/>
<path d="M59.1578 31.1053L62.7054 31.4479C62.7776 33.9834 63.1001 34.706 61.2568 36.2823L59.9913 35.947C58.6774 33.7749 59.1168 34.0508 59.1578 31.1053Z" fill="#4A8F56"/>
<path d="M47.4937 109.76L58.1915 109.758L58.2723 114.374L58.2074 115.14C55.2743 115.238 54.6341 114.73 52.7695 116.2C52.5002 117.993 52.5467 118.426 52.7291 120.239C52.8 122.043 52.9776 123.867 52.644 125.624C52.4782 124.126 52.3001 122.628 52.1086 121.133C50.5217 119.877 50.1802 120.298 47.7691 120.235L42.388 120.282L42.3826 115.081L46.4466 114.587C47.8021 113 47.3683 112.287 47.4937 109.76Z" fill="#331F1A"/>
<path d="M47.4937 109.76L58.1915 109.758L58.2723 114.374C55.3673 114.668 51.6067 115.46 49.0193 114.412C47.356 112.684 47.8542 112.694 47.4937 109.76Z" fill="#020205"/>
<path d="M42.3826 115.081C45.0783 115.275 45.8065 114.866 47.6602 116.213C47.9545 117.987 47.9147 118.435 47.7691 120.235L42.388 120.282L42.3826 115.081Z" fill="#020205"/>
<path d="M52.8937 46.6824L53.2425 46.7713C54.8404 47.109 56.1579 47.375 57.7931 47.5944L58.6462 46.9055L63.0719 46.8166L63.283 47.1954C63.2347 48.7338 63.343 50.8145 62.7219 52.1291L63.2066 52.2407C63.2286 54.1707 63.4086 55.8733 62.7813 57.6739L58.5201 57.5238C56.582 57.5979 55.5521 57.7261 53.6336 57.2235C52.3931 55.2898 52.8472 54.8633 52.8374 52.1378L52.7413 47.0869L52.8937 46.6824Z" fill="#08282A"/>
<path d="M58.6462 46.9055L63.0719 46.8166L63.283 47.1954C63.2347 48.7338 63.343 50.8145 62.7219 52.1291L57.8194 52.0973L57.7931 47.5944L58.6462 46.9055Z" fill="#4A8F56"/>
<path d="M52.8937 46.6824L53.2425 46.7713C54.8404 47.109 56.1579 47.375 57.7931 47.5944L57.8194 52.0973L52.8374 52.1378L52.7413 47.0869L52.8937 46.6824Z" fill="#1E573D"/>
<path d="M52.7511 62.1756C56.0949 62.7634 59.8212 63.0821 63.2262 63.3542L63.1705 67.6616C61.5261 67.8062 59.5005 67.6726 57.8219 67.6199L57.6248 68.0557L52.0296 67.9135C50.9189 67.2295 48.9257 67.5274 47.3762 67.5366L47.195 62.6678L52.4286 62.5483L52.7511 62.1756Z" fill="#08282A"/>
<path d="M47.195 62.6678L52.4286 62.5483L52.8038 64.436L52.977 66.6129C54.5387 67.8902 55.4156 67.4906 57.8219 67.6199L57.6248 68.0557L52.0296 67.9135C50.9189 67.2295 48.9257 67.5274 47.3762 67.5366L47.195 62.6678Z" fill="#2B6239"/>
<path d="M52.8038 64.436C55.4566 63.9732 55.3171 63.5375 57.2479 64.5426C57.6132 65.8762 57.7362 66.2507 57.8219 67.6199C55.4156 67.4906 54.5387 67.8902 52.977 66.6129L52.8038 64.436Z" fill="#124238"/>
<path d="M93.9378 20.8578L94.2621 21.0049C93.8649 22.9771 93.483 23.8162 94.2492 25.6481L94.7853 25.9785L93.9904 26.4908L93.7395 30.8454C91.4036 31.0862 91.0431 31.1457 88.755 30.3955L84.3244 29.8378L83.9884 26.3033L84.6334 26.5595L84.5373 25.9404C86.3359 26.0121 86.8548 26.0434 88.6124 25.6996C89.7341 24.1502 89.3805 23.6078 89.4888 21.4002L89.6332 21.0208L93.9378 20.8578Z" fill="#529856"/>
<path d="M89.2152 26.3547C91.1514 26.2653 92.0161 26.1991 93.9904 26.4908L93.7395 30.8454C91.4036 31.0862 91.0431 31.1457 88.755 30.3955L89.2152 26.3547Z" fill="#66AE57"/>
<path d="M83.9884 26.3033L84.6334 26.5595C86.241 26.5993 87.6632 26.7458 89.2152 26.3547L88.755 30.3955L84.3244 29.8378L83.9884 26.3033Z" fill="#56A155"/>
<path d="M31.5997 73.0838L31.9161 73.4724L31.9504 78.1684L31.8996 83.4539C30.082 83.5495 28.9762 83.818 27.4334 82.9158C25.8362 80.6205 26.4383 76.2145 26.5075 73.1163L31.5997 73.0838Z" fill="#08282A"/>
<path d="M63.1992 109.792L68.3178 109.709C68.3331 112.16 68.7889 112.963 67.5895 114.626C65.8662 114.889 64.7757 114.987 63.0334 115.063L58.2074 115.14L58.2723 114.374L58.1915 109.758L63.1992 109.792Z" fill="#331F1A"/>
<path d="M58.1915 109.758L63.1992 109.792L63.0334 115.063L58.2074 115.14L58.2723 114.374L58.1915 109.758Z" fill="#77584E"/>
<path d="M47.4313 52.4895C49.0855 52.3614 51.22 52.131 52.8374 52.1378C52.8472 54.8633 52.3931 55.2898 53.6336 57.2235C55.5521 57.7261 56.582 57.5979 58.5201 57.5238C58.2686 59.7516 57.7711 60.5594 58.6609 62.2492C60.6682 62.6782 61.6106 62.6849 63.6062 62.7462L63.2262 63.3542C59.8212 63.0821 56.0949 62.7634 52.7511 62.1756C52.7474 60.3186 52.8858 59.9042 52.0229 58.3493C49.5872 57.0163 45.2221 57.5716 42.0643 57.5716C45.7031 56.5591 48.4074 57.9927 52.2897 55.242L52.3956 54.278C50.2776 52.5435 50.4777 53.0289 47.4313 52.4895Z" fill="#2D323C"/>
<path d="M47.3848 46.7995C49.0891 46.7652 51.1851 46.5635 52.7413 47.0869L52.8374 52.1378C51.22 52.131 49.0855 52.3614 47.4313 52.4895L47.3848 46.7995Z" fill="#0A2927"/>
<path d="M53.319 25.903C54.6727 25.819 56.8023 25.6186 58.0924 25.6738C60.7428 26.0231 62.7843 25.637 63.4526 28.8222C62.0763 31.3179 61.3615 30.9796 58.5703 30.8454L57.7796 30.5781L57.6579 27.5456C56.3397 25.968 55.8122 26.3535 53.319 25.903Z" fill="#0A2927"/>
<path d="M99.2955 15.1346L100.134 15.3748C98.7032 17.9165 99.9668 19.556 98.0471 20.8541L94.2621 21.0049L93.9378 20.8578C94.3882 19.54 94.3068 16.9892 94.3343 15.4943C95.8905 15.5311 97.724 15.2885 99.2955 15.1346Z" fill="#2F7247"/>
<path d="M68.4591 104.498C68.4334 105.628 68.4353 108.729 68.3178 109.709L63.1992 109.792L63.2604 104.387L68.4591 104.498Z" fill="#77584E"/>
<path d="M58.1915 109.758C58.0685 107.824 57.8464 106.835 58.5232 105.013C60.3958 104.002 60.9074 104.374 63.2604 104.387L63.1992 109.792L58.1915 109.758Z" fill="#201314"/>
<path d="M63.1784 31.405C65.9255 31.3008 66.0124 30.8503 67.9995 32.0399C68.4664 33.9478 68.1586 34.8408 67.8281 36.7659L67.2223 36.7365L63.2488 36.9381L63.1784 31.405Z" fill="#0A2927"/>
<path d="M36.9673 88.9503L41.3783 88.9049L42.5753 94.2794C40.7376 94.2714 39.7976 94.2701 37.9323 93.9735C36.5315 92.125 37.0217 91.8064 36.9673 88.9503Z" fill="#0A2927"/>
<path d="M89.6332 21.0208C89.3309 19.1466 89.2428 18.774 89.542 16.9114C91.3198 15.3007 91.4054 15.7916 94.3343 15.4943C94.3068 16.9892 94.3882 19.54 93.9378 20.8578L89.6332 21.0208Z" fill="#0A2927"/>
<path d="M79.0737 30.3422C78.9801 28.5232 78.8319 27.9525 79.7064 26.3897C81.8587 25.6125 81.4903 25.9086 83.9884 26.3033L84.3244 29.8378L83.9425 31.0967L83.2748 30.8399L79.0737 30.3422Z" fill="#124238"/>
<path d="M84.5373 25.9404C84.4412 23.2885 84.2185 22.9146 85.4945 21.098C87.2374 20.6855 87.7361 20.9509 89.4888 21.4002C89.3805 23.6078 89.7341 24.1502 88.6124 25.6996C86.8548 26.0434 86.3359 26.0121 84.5373 25.9404Z" fill="#174C37"/>
</svg>
