<svg width="187" height="203" viewBox="0 0 187 203" fill="none" xmlns="http://www.w3.org/2000/svg">
<path d="M9.9837 184.843C5.63741 184.25 8.75655 182.698 6.00269 179.628C3.95007 179.238 2.80321 179.286 1.49567 177.728C-0.644607 168.145 -0.220952 15.9243 1.1012 13.0622C1.70749 11.7536 2.9566 11.7025 4.23492 11.3315C7.50012 10.3857 11.5835 3.60789 13.7457 0.769978C19.699 0.217878 26.7918 0.565489 32.9277 0.495381C47.0477 0.302584 61.1677 0.222285 75.2877 0.255879C102.213 0.246385 129.211 0.323058 156.151 0.00246071C157.955 -0.019448 161.585 0.0893491 163.024 0.969349C163.514 1.26804 163.813 3.03829 164.01 3.77953L164.719 5.46209C166.72 5.85936 167.845 5.99084 169.847 6.1588L169.262 10.2681C170.979 10.8655 171.615 11.1474 173.47 11.349C175.289 13.4778 175.194 14.3921 175.398 17.2388C178.379 17.4688 178.196 16.9971 180.256 18.5263L181.695 22.2135C183.046 22.7378 184.244 23.1571 185.625 23.604C186.918 27.0232 186.669 177.973 185.917 192.346C184.412 193.709 182.988 193.8 181.023 194.193C178.298 197.809 179.518 199.596 174.179 200.684C162.228 203.118 148.919 202.34 136.757 202.314L82.921 202.221L45.3091 202.263C40.0863 202.27 29.9182 202.584 25.119 201.895C24.0671 199.86 23.9868 196.55 23.921 196.462C22.3578 194.231 19.195 193.405 18.0335 190.669C15.9809 190.678 14.4468 190.436 12.5038 189.764C12.5111 188.419 12.3359 187.28 12.0145 185.976L9.9837 184.843Z" fill="#393C46"/>
<path d="M169.262 10.2681C170.979 10.8655 171.615 11.1474 173.47 11.349C175.289 13.4778 175.194 14.3921 175.398 17.2388C178.379 17.4688 178.196 16.9971 180.256 18.5263L181.695 22.2135C183.046 22.7378 184.244 23.1571 185.625 23.604C186.918 27.0232 186.669 177.973 185.917 192.346C184.412 193.709 182.988 193.8 181.023 194.193C178.298 197.809 179.518 199.596 174.179 200.684C162.228 203.118 148.919 202.34 136.757 202.314L82.921 202.221L45.3091 202.263C40.0863 202.27 29.9182 202.584 25.119 201.895C24.0671 199.86 23.9868 196.55 23.921 196.462C22.3578 194.231 19.195 193.405 18.0335 190.669C15.9809 190.678 14.4468 190.436 12.5038 189.764C12.5111 188.419 12.3359 187.28 12.0145 185.976L9.9837 184.843C11.189 184.702 11.715 184.135 12.5696 183.355L12.6281 181.797C11.4739 179.57 9.23144 178.111 7.28839 176.595L7.32483 166.366L7.19342 161.927C9.6551 161.958 11.0722 162.171 13.0225 160.617C12.7376 154.75 12.9568 148.777 12.9422 142.898L13.5777 142.876C13.6069 145.033 13.1759 146.773 14.5273 148.498L17.5003 148.728C17.5587 150.855 17.3177 151.896 18.5522 153.671L20.9919 154.259C21.3717 153.022 22 151.936 22.6136 150.802C24.5274 149.202 26.9818 149.62 29.3266 149.695L29.1148 148.73C33.1543 147.842 38.1635 150.934 42.2614 151.47C43.6639 151.438 44.7158 151.286 46.0234 150.762L47.6085 147.043C49.3616 145.729 50.7275 146.098 52.8824 146.075L53.2331 145.953C56.5202 146.019 59.8219 146.166 63.109 146.123C64.7525 144.648 64.9279 142.239 65.337 140.177L65.6364 140.079C71.0711 138.413 77.8353 140.934 83.0216 138.607L87.3678 139.009L84.8624 139.444C83.5476 141.508 84.015 143.374 84.0807 145.766C86.2502 145.714 90.3116 146.179 92.2109 145.552C94.6287 144.75 93.9348 141.535 95.9655 140.688C99.4571 139.224 109.245 138.981 112.701 140.48C114.125 141.284 115.469 142.01 116.682 143.119C119.852 146.024 124.527 146.566 127.595 149.848C128.866 149.743 130.92 147.419 132.279 147.464C136.881 147.618 157.969 149.009 161.403 147.662C162.038 146.332 162.031 146.241 161.709 144.798C157.801 141.099 148.335 143.821 143.148 142.556C142.966 142.511 142.783 142.462 142.6 142.414C149.562 142.292 156.523 142.281 163.477 142.38L163.368 58.0737C163.353 51.8896 162.674 21.8608 163.799 18.0808C165.69 17.1927 166.516 17.1577 168.525 16.8831L169.277 16.6166C169.445 14.7507 169.591 14.2373 168.824 12.5532L169.262 10.2681Z" fill="#141621"/>
<path d="M175.398 17.2388C178.379 17.4688 178.196 16.9971 180.256 18.5263L181.695 22.2135C183.046 22.7378 184.244 23.1571 185.625 23.604C186.918 27.0232 186.669 177.973 185.917 192.346C184.412 193.709 182.988 193.8 181.023 194.193C178.298 197.809 179.518 199.596 174.179 200.684C162.228 203.118 148.919 202.34 136.757 202.314L82.921 202.221L45.3091 202.263C40.0863 202.27 29.9182 202.584 25.119 201.895C24.0671 199.86 23.9868 196.55 23.921 196.462C22.3578 194.231 19.195 193.405 18.0335 190.669C35.7255 189.564 157.341 192.483 162.381 189.911C163.937 189.115 165.647 185.628 167.699 184.336C169.715 183.067 169.445 182.056 169.825 179.85L171.052 179.646C172.469 178.68 173.463 177.439 174.573 176.154C175.676 172.325 175.165 144.154 175.157 138.414V60.9561C175.15 47.2201 174.675 30.6769 175.398 17.2388Z" fill="#8A868A"/>
<path d="M83.0216 138.607L87.3678 139.009L84.8624 139.444C83.5476 141.508 84.015 143.374 84.0807 145.766C86.2502 145.714 90.3116 146.179 92.2109 145.552C94.6287 144.75 93.9348 141.535 95.9655 140.688C99.4571 139.224 109.245 138.981 112.701 140.48C114.125 141.284 115.469 142.01 116.682 143.119C119.852 146.024 124.527 146.566 127.595 149.848C128.866 149.743 130.92 147.419 132.279 147.464C136.881 147.618 157.969 149.009 161.403 147.662C162.038 146.332 162.031 146.241 161.709 144.798C157.801 141.099 148.335 143.821 143.148 142.556C142.966 142.511 142.783 142.462 142.6 142.414C149.562 142.292 156.523 142.281 163.477 142.38L163.397 157.569C156.961 164.414 158.342 166.547 148.203 166.883C123.827 167.691 99.1522 167.149 74.7472 167.186C58.1144 167.21 41.0141 168.118 24.4252 167.175C22.4821 167.064 20.6121 167.126 19.0051 165.877C18.2819 164.453 17.7486 162.455 16.1927 161.892C15.3746 161.597 14.447 161.657 13.5923 161.667L13.0225 160.617C12.7376 154.75 12.9568 148.777 12.9422 142.898L13.5777 142.876C13.6069 145.033 13.1759 146.773 14.5273 148.498L17.5003 148.728C17.5587 150.855 17.3177 151.896 18.5522 153.671L20.9919 154.259C21.3717 153.022 22 151.936 22.6136 150.802C24.5274 149.202 26.9818 149.62 29.3266 149.695L29.1148 148.73C33.1543 147.842 38.1635 150.934 42.2614 151.47C43.6639 151.438 44.7158 151.286 46.0234 150.762L47.6085 147.043C49.3616 145.729 50.7275 146.098 52.8824 146.075L53.2331 145.953C56.5202 146.019 59.8219 146.166 63.109 146.123C64.7525 144.648 64.9279 142.239 65.337 140.177L65.6364 140.079C71.0711 138.413 77.8353 140.934 83.0216 138.607Z" fill="#141621"/>
<path d="M83.0216 138.607L87.3678 139.009L84.8624 139.444C83.5476 141.508 84.015 143.374 84.0807 145.766C86.2502 145.714 90.3116 146.179 92.2109 145.552C94.6287 144.75 93.9348 141.535 95.9655 140.688C99.4571 139.224 109.245 138.981 112.701 140.48C114.125 141.284 115.469 142.01 116.682 143.119C119.852 146.024 124.527 146.566 127.595 149.848C128.778 152.002 128.479 152.87 128.303 155.277L127.2 156.704C125.287 156.753 124.739 157 123.219 155.721L122.365 153.065C120.794 152.334 120.641 152.321 118.939 152.657C117.332 154.579 116.579 156.192 114.118 156.824C112.744 155.895 112.723 154.631 111.722 153.504C109.004 150.443 101.232 150.616 97.5287 151.332C95.4542 151.736 94.0955 154.159 93.029 155.778C92.1379 157.127 92.1379 157.17 90.6404 157.665C86.3599 156.471 82.1232 152.313 77.9303 152.157C76.5424 153.007 76.221 154.27 75.6586 155.715C69.7637 159.843 59.464 154.46 54.2338 157.33C53.0724 157.969 52.7802 160.014 52.5026 161.185C50.9613 162.271 50.5231 162.348 48.6312 162.534C47.8715 161.265 47.5209 160.083 47.141 158.66C45.8262 157.397 44.4529 157.188 42.7436 156.826C41.6771 154.939 42.108 153.601 42.2614 151.47C43.6639 151.438 44.7158 151.286 46.0234 150.762L47.6085 147.043C49.3616 145.729 50.7275 146.098 52.8824 146.075L53.2331 145.953C56.5202 146.019 59.8219 146.166 63.109 146.123C64.7525 144.648 64.9279 142.239 65.337 140.177L65.6364 140.079C71.0711 138.413 77.8353 140.934 83.0216 138.607Z" fill="#222835"/>
<path d="M53.2331 145.953C56.5202 146.019 59.8219 146.166 63.109 146.123C63.2478 146.272 63.8559 143.441 63.9728 143.599C64.9151 144.805 64.8201 146.183 64.6959 147.613C63.8778 148.848 62.8625 149.318 61.5111 149.772C58.8887 150.65 57.048 150.116 54.674 148.89C53.0377 146.726 52.9117 148.736 52.8824 146.075L53.2331 145.953Z" fill="#373840"/>
<path d="M83.0216 138.607L87.3678 139.009L84.8624 139.444C83.5476 141.508 84.015 143.374 84.0807 145.766C82.9339 146.331 80.9195 143.352 79.7289 142.928C77.8224 142.251 77.3403 140.104 76.493 138.392C74.3746 136.653 68.3464 140.172 65.6364 140.079C71.0711 138.413 77.8353 140.934 83.0216 138.607Z" fill="#202128"/>
<path d="M102.783 142.124C102.783 140.462 102.68 139.245 103.812 137.89C106.296 136.388 109.896 140.25 112.701 140.48C112.467 142.17 112.571 140.207 111.577 141.598C109.028 143.022 105.602 142.336 102.783 142.124Z" fill="#373840"/>
<path d="M20.9919 154.259C21.3717 153.022 22 151.936 22.6136 150.802C24.5274 149.202 26.9818 149.62 29.3266 149.695C29.6407 151.806 29.9913 152.333 28.7203 154.158C26.4193 155.195 23.4463 154.527 20.9919 154.259Z" fill="#272830"/>
<path d="M140.628 149.105C143.433 149.014 146.245 148.958 149.05 148.939C152.476 148.934 155.406 148.657 157.94 151.19L157.743 152.804C154.273 154.447 149.138 155.873 145.354 154.711C142.476 153.825 141.877 151.562 140.628 149.105Z" fill="#272830"/>
<path d="M168.525 16.8831L169.277 16.6166C169.226 65.194 170.219 116.96 169.124 165.221L168.846 165.326C164.032 167.187 162.192 172.397 159.423 172.475C111.526 173.818 62.132 172.039 14.3228 172.455C12.0876 167.993 12.5185 167.143 7.71204 166.444L7.32483 166.366L7.19342 161.927C9.6551 161.958 11.0722 162.171 13.0225 160.617L13.5923 161.667C14.447 161.657 15.3746 161.597 16.1927 161.892C17.7486 162.455 18.2819 164.453 19.0051 165.877C20.6121 167.126 22.4821 167.064 24.4252 167.175C41.0141 168.118 58.1144 167.21 74.7472 167.186C99.1522 167.149 123.827 167.691 148.203 166.883C158.342 166.547 156.961 164.414 163.397 157.569L163.477 142.38L163.368 58.0737C163.353 51.8896 162.674 21.8608 163.799 18.0808C165.69 17.1927 166.516 17.1577 168.525 16.8831Z" fill="#2A5243"/>
<path d="M13.0225 160.617L13.5923 161.667C13.0445 163.686 13.154 165.15 11.3351 166.276L7.71204 166.444L7.32483 166.366L7.19342 161.927C9.6551 161.958 11.0722 162.171 13.0225 160.617Z" fill="#393C46"/>
<path d="M12.5038 189.764L13.4901 185.838C15.6668 184.633 18.0116 184.385 20.4587 184.238C42.5627 182.899 65.5067 184.118 87.6837 184.557C105.273 184.905 122.878 184.508 140.467 184.694C145.077 184.742 149.825 185.403 154.397 185.261C158.335 185.138 161.958 182.882 164.587 180.142C166.026 178.647 166.45 178.436 168.525 178.423L169.825 179.85C169.445 182.056 169.715 183.067 167.699 184.336C165.647 185.628 163.937 189.115 162.381 189.911C157.341 192.483 35.7255 189.564 18.0335 190.669C15.9809 190.678 14.4468 190.436 12.5038 189.764Z" fill="#010000"/>
<path d="M173.47 11.349C175.289 13.4778 175.194 14.3921 175.398 17.2388C174.675 30.6769 175.15 47.2201 175.157 60.9561V138.414C175.165 144.154 175.676 172.325 174.573 176.154C173.463 177.439 172.469 178.68 171.052 179.646C169.679 176.442 169.438 166.524 169.781 163.259C171.461 147.489 167.692 16.477 171.264 11.8477L173.47 11.349Z" fill="#010000"/>
<path d="M173.47 11.349C175.289 13.4778 175.194 14.3921 175.398 17.2388C174.675 30.6769 175.15 47.2201 175.157 60.9561V138.414C175.165 144.154 175.676 172.325 174.573 176.154C174.58 171.649 173.17 154.679 172.564 150.911C169.986 134.743 176.187 20.5616 171.264 11.8477L173.47 11.349Z" fill="#0A0A0D"/>
<path d="M62.4022 44.4903C73.089 44.2661 81.9496 42.8705 90.3427 50.8884C92.5633 53.0099 94.7401 55.1306 97.0411 57.1689C97.0046 62.1195 95.7993 71.9339 98.0199 76.0827C101.183 77.054 105.982 74.6673 109.408 74.0963C113.287 73.4485 117.867 73.7552 121.804 74.0561C130.781 81.4474 139.328 88.3486 140.504 100.94C140.855 104.69 140.65 108.577 140.657 112.347C124.587 112.786 115.909 111.347 103.25 100.505L97.0411 100.72C96.7927 111.657 100.635 119.027 100.094 129.885C107.333 130.061 114.514 130.307 121.738 130.944L120.467 130.991C124.054 134.196 129.963 141.642 134.748 142.178C137.341 142.468 140.044 142.071 142.6 142.414C142.783 142.462 142.966 142.511 143.148 142.556C148.335 143.821 157.801 141.099 161.709 144.798C162.031 146.241 162.038 146.332 161.403 147.662C157.969 149.009 136.881 147.618 132.279 147.464C130.92 147.419 128.866 149.743 127.595 149.848C124.527 146.566 119.852 146.024 116.682 143.119C115.469 142.01 114.125 141.284 112.701 140.48C109.245 138.981 99.4571 139.224 95.9655 140.688C93.9348 141.535 94.6287 144.75 92.2109 145.552C90.3116 146.179 86.2502 145.714 84.0807 145.766C84.015 143.374 83.5476 141.508 84.8624 139.444L87.3678 139.009L83.0216 138.607L82.6435 130.759L81.7889 129.194L80.2695 129.352C80.7954 127.889 81.577 127.22 82.7238 126.204C82.3294 116.64 79.4002 119.691 77.1577 113.314C75.8501 109.59 76.4637 104.541 76.4857 100.603L67.9391 100.424L68.5455 100.481C53.0376 115.206 51.3356 115.655 30.4515 115.327C30.1886 105.52 29.6188 95.4179 36.9892 87.714C42.1974 82.2668 49.8235 80.165 57.194 80.0678C67.0699 79.9386 63.5271 81.5438 69.8603 83.8055C70.7588 84.1254 71.1386 84.6621 71.7084 85.3792C75.6237 86.6514 79.634 86.65 83.6005 85.5903L84.3455 84.6118C82.4828 77.7368 66.9092 72.6883 65.5724 67.9706C65.1415 66.4523 65.441 64.8114 64.8858 63.1733L62.9062 62.3247C61.1823 57.3967 62.3073 49.6987 62.4022 44.4903Z" fill="#062828"/>
<path d="M82.2783 72.2888C82.3513 71.7776 82.417 71.2657 82.4755 70.753C82.8261 67.4908 82.0883 66.9197 80.2256 64.4725C79.0642 62.9433 77.6909 60.8663 77.9393 58.9625C88.2827 58.441 84.1191 64.5777 90.2769 67.2498C91.8182 65.5497 91.4749 62.6205 91.5041 60.4311C91.5479 60.564 91.5844 60.6954 91.621 60.8291C92.7824 65.4642 89.6706 74.7397 93.2353 77.6214C93.5421 77.8668 93.8635 78.0924 94.1776 78.3174C96.8219 80.1723 96.2741 83.8793 99.0425 85.7831C105.712 84.779 103.761 78.5766 114.594 80.2161L113.63 80.5374C113.506 81.7351 113.294 82.8349 113.732 83.991C115.288 84.297 115.807 84.7059 116.866 85.8495C119.802 89.0175 124.521 91.4421 125.96 95.7304L125.128 96.3825C119.408 94.8248 113.192 88.1821 107.311 89.6164C106.771 90.8849 106.705 90.8995 107.231 92.1564C108.151 94.3348 109.861 96.5885 111.49 98.2871C111.811 98.6282 111.986 98.9539 112.162 99.3884L111.672 99.1438C107.173 96.8558 105.441 91.6488 99.1667 93.6878C96.1352 94.6737 93.9366 98.2163 92.724 100.964C90.8686 105.182 89.2397 119.478 91.1097 123.636C92.1396 125.93 94.7766 127.629 93.8051 130.424C93.1476 132.31 91.0878 134.085 89.7145 135.514L87.3678 139.009L83.0216 138.607L82.6435 130.759L81.7889 129.194L80.2695 129.352C80.7954 127.889 81.577 127.22 82.7238 126.204C84.7545 122.947 81.8618 118.858 84.6595 115.417L83.6735 115.124C81.6574 111.458 83.9218 105.64 82.4462 101.436C79.5828 97.8818 75.5944 95.4032 71.1459 94.4056C64.9004 93.0502 65.1196 97.5693 60.6126 100.449L60.3642 100.607L60.7733 98.9751C58.7425 97.4298 55.0391 97.8015 52.5628 98.1163C51.9054 99.3592 51.5255 99.9873 50.2764 100.672C48.1142 100.64 47.2669 100.794 45.3896 99.6594L45.2654 97.8658C46.7702 94.922 49.8089 93.0933 52.7819 91.8606L53.359 91.6262L54.0311 89.7369C55.7184 88.8832 57.8879 89.2899 59.7579 88.8613C61.197 88.5334 61.2773 87.7972 62.0297 86.5828C62.0516 87.4182 62.2781 88.2602 62.4315 89.0804C65.441 90.6015 69.7434 89.4952 73.1912 89.8472C78.4433 90.3832 81.1022 93.3255 84.2213 97.1683C84.8641 97.3407 85.6458 97.7204 86.274 97.4853C89.0279 96.4607 93.4764 92.5157 94.5502 89.6989C97.5962 81.7037 84.5062 77.3775 82.3878 72.5729C82.344 72.4801 82.3148 72.3838 82.2783 72.2888Z" fill="#2A5243"/>
<path d="M82.7238 126.204C84.7545 122.947 81.8618 118.858 84.6595 115.417L84.7765 116.086C85.6165 120.78 89.2542 122.531 88.2389 127.65C86.3908 129.874 85.3535 129.916 82.6435 130.759L81.7889 129.194L80.2695 129.352C80.7954 127.889 81.577 127.22 82.7238 126.204Z" fill="#141621"/>
<path d="M113.732 83.991C111.336 83.9304 108.561 84.2955 106.625 82.6429L106.552 81.4751C108.466 79.9262 111.3 80.4315 113.63 80.5374C113.506 81.7351 113.294 82.8349 113.732 83.991Z" fill="#3D3D46"/>
<path d="M114.594 80.2161C119.715 80.0876 122.856 80.8843 126.64 84.4598C130.84 88.4392 134.616 96.8981 134.682 102.743C134.697 104.048 134.682 105.353 134.631 106.658C127.509 106.894 119.072 105.452 113.411 100.735C113.206 100.566 112.987 100.421 112.775 100.268C112.22 99.8689 112.447 100.128 112.162 99.3884C111.986 98.9539 111.811 98.6282 111.49 98.2871C109.861 96.5885 108.151 94.3348 107.231 92.1564C106.705 90.8995 106.771 90.8849 107.311 89.6164C113.192 88.1821 119.408 94.8248 125.128 96.3825L125.96 95.7304C124.521 91.4421 119.802 89.0175 116.866 85.8495C115.807 84.7059 115.288 84.297 113.732 83.991C113.294 82.8349 113.506 81.7351 113.63 80.5374L114.594 80.2161Z" fill="#4A9357"/>
<path d="M36.3976 110.013C36.3245 106.051 35.8497 101.373 37.2011 97.6043C39.4144 91.4216 44.0822 88.0178 49.8383 85.2806C51.7448 86.4411 53.2349 86.842 53.8923 89.114C53.9507 89.3184 53.9799 89.5295 54.0311 89.7369L53.359 91.6262L52.7819 91.8606C49.8089 93.0933 46.7702 94.922 45.2654 97.8658L45.3896 99.6594C47.2669 100.794 48.1142 100.64 50.2764 100.672C51.5255 99.9873 51.9054 99.3592 52.5628 98.1163C55.0391 97.8015 58.7425 97.4298 60.7733 98.9751L60.3642 100.607C57.7783 103.695 54.0895 107.328 50.3641 109.004L49.9697 109.175C45.9448 110.97 40.7147 110.184 36.3976 110.013Z" fill="#4A9357"/>
<path d="M68.319 50.5269C75.6164 50.1719 83.8634 48.7632 87.8298 56.3217C88.8014 58.1847 89.1008 59.1151 91.0439 60.1842C91.1973 60.2689 91.3507 60.3493 91.5041 60.4311C91.4749 62.6205 91.8182 65.5497 90.2769 67.2498C84.1191 64.5777 88.2827 58.441 77.9393 58.9625C77.6909 60.8663 79.0642 62.9433 80.2256 64.4725C82.0883 66.9197 82.8261 67.4908 82.4755 70.753C82.417 71.2657 82.3513 71.7776 82.2783 72.2888C78.2242 71.1065 75.5946 71.4365 72.3878 68.1086C67.8297 63.3822 68.1437 56.6146 68.319 50.5269Z" fill="#4A9357"/>
<path d="M49.8383 85.2806C53.8266 85.8364 58.2093 85.3712 62.0297 86.5828C61.2773 87.7972 61.197 88.5334 59.7579 88.8613C57.8879 89.2899 55.7184 88.8832 54.0311 89.7369C53.9799 89.5295 53.9507 89.3184 53.8923 89.114C53.2349 86.842 51.7448 86.4411 49.8383 85.2806Z" fill="#393C46"/>
<path d="M9.9837 184.843C5.63741 184.25 8.75655 182.698 6.00269 179.628C3.95007 179.238 2.80321 179.286 1.49567 177.728C-0.644607 168.145 -0.220952 15.9243 1.1012 13.0622C1.70749 11.7536 2.9566 11.7025 4.23492 11.3315C7.50012 10.3857 11.5835 3.60789 13.7457 0.769978C19.699 0.217878 26.7918 0.565489 32.9277 0.495381C47.0477 0.302584 61.1677 0.222285 75.2877 0.255879C102.213 0.246385 129.211 0.323058 156.151 0.00246071C157.955 -0.019448 161.585 0.0893491 163.024 0.969349C163.514 1.26804 163.813 3.03829 164.01 3.77953L164.719 5.46209C166.72 5.85936 167.845 5.99084 169.847 6.1588L169.262 10.2681L168.824 12.5532C169.591 14.2373 169.445 14.7507 169.277 16.6166L168.525 16.8831C166.289 16.5895 165.172 16.8575 162.995 17.1927C156.202 16.4113 159.452 12.8095 154.602 12.4853C148.561 12.0814 141.797 12.015 135.719 11.9076C122.6 11.6936 109.474 11.5695 96.347 11.5344L47.2815 11.4468C40.6708 11.5001 25.8714 11.5162 19.7866 12.7175C18.9977 13.7027 17.8947 16.8751 18.0189 16.7509C15.9955 18.6672 13.1686 16.6063 12.8398 20.1716C11.0356 39.9136 12.3358 60.7729 12.292 80.6105L12.1898 121.596C12.1898 125.591 11.8173 140.125 12.9422 142.898C12.9568 148.777 12.7376 154.75 13.0225 160.617C11.0722 162.171 9.6551 161.958 7.19342 161.927L7.32483 166.366L7.28839 176.595C9.23144 178.111 11.4739 179.57 12.6281 181.797L12.5696 183.355C11.715 184.135 11.189 184.702 9.9837 184.843Z" fill="#010000"/>
<path d="M164.01 3.77953L164.719 5.46209C166.72 5.85936 167.845 5.99084 169.847 6.1588L169.262 10.2681L168.824 12.5532C169.591 14.2373 169.445 14.7507 169.277 16.6166L168.525 16.8831C166.289 16.5895 165.172 16.8575 162.995 17.1927C156.202 16.4113 159.452 12.8095 154.602 12.4853C148.561 12.0814 141.797 12.015 135.719 11.9076C122.6 11.6936 109.474 11.5695 96.347 11.5344L47.2815 11.4468C40.6708 11.5001 25.8714 11.5162 19.7866 12.7175C18.9977 13.7027 17.8947 16.8751 18.0189 16.7509C15.9955 18.6672 13.1686 16.6063 12.8398 20.1716C11.0356 39.9136 12.3358 60.7729 12.292 80.6105L12.1898 121.596C12.1898 125.591 11.8173 140.125 12.9422 142.898C12.9568 148.777 12.7376 154.75 13.0225 160.617C11.0722 162.171 9.6551 161.958 7.19342 161.927L7.23718 59.543C7.23718 49.4387 6.34603 21.5285 7.60974 13.228C8.90267 12.0325 9.21673 12.3889 11.3132 12.2501C13.7164 10.2827 11.5105 10.4813 13.3001 6.76854C17.7779 5.58182 53.6512 5.72348 60.0428 5.7286L163.156 5.90026L164.01 3.77953Z" fill="#5A6069"/>
<path d="M164.01 3.77953L164.719 5.46209C166.72 5.85936 167.845 5.99084 169.847 6.1588L169.262 10.2681L168.824 12.5532C169.591 14.2373 169.445 14.7507 169.277 16.6166L168.525 16.8831C166.289 16.5895 165.172 16.8575 162.995 17.1927C163.674 14.254 163.273 9.08578 163.156 5.90026L164.01 3.77953Z" fill="#53545B"/>
<path d="M168.824 12.5532C166.896 12.2918 166.582 12.1808 164.807 11.3775C163.477 9.35017 163.631 10.2236 164.069 8.11303C166.37 5.89221 165.953 6.56777 169.847 6.1588L169.262 10.2681L168.824 12.5532Z" fill="#010000"/>
<path d="M80.2695 129.352L81.7889 129.194L82.6435 130.759L83.0216 138.607C77.8353 140.934 71.0711 138.413 65.6364 140.079L65.337 140.177C64.9279 142.239 64.7525 144.648 63.109 146.123C59.8219 146.166 56.5202 146.019 53.2331 145.953L52.8824 146.075C50.7275 146.098 49.3616 145.729 47.6085 147.043L46.0234 150.762C44.7158 151.286 43.6639 151.438 42.2614 151.47C38.1635 150.934 33.1543 147.842 29.1148 148.73L29.3266 149.695C26.9818 149.62 24.5274 149.202 22.6136 150.802C22 151.936 21.3717 153.022 20.9919 154.259L18.5522 153.671C17.3177 151.896 17.5587 150.855 17.5003 148.728L14.5273 148.498C13.1759 146.773 13.6069 145.033 13.5777 142.876C21.5398 140.327 41.8322 145.194 47.3837 141.503L47.6613 138.168C49.0638 136.101 50.6855 137.217 52.8988 136.313C53.1837 135.032 53.4394 133.743 53.6658 132.45C60.8756 127.591 73.0013 133.329 80.2695 129.352Z" fill="#10111A"/>
<path d="M53.2331 145.953C57.4187 144.932 57.3473 141.632 60.1743 138.607C61.7375 136.932 63.2259 140.278 65.337 140.177C64.9279 142.239 64.7525 144.648 63.109 146.123C59.8219 146.166 56.5202 146.019 53.2331 145.953Z" fill="#202128"/>
<path d="M17.5003 148.728C21.3718 148.79 25.2433 148.904 29.1148 148.73L29.3266 149.695C26.9818 149.62 24.5274 149.202 22.6136 150.802C22 151.936 21.3717 153.022 20.9919 154.259L18.5522 153.671C17.3177 151.896 17.5587 150.855 17.5003 148.728Z" fill="#202128"/>
</svg>
