<svg width="165" height="175" viewBox="0 0 165 175" fill="none" xmlns="http://www.w3.org/2000/svg">
<path d="M20.911 0.226638L100.171 0.229622C108.929 0.226621 129.857 -0.402864 137.59 0.435494C138.597 1.98139 138.279 2.81554 138.369 4.90274L138.764 4.90692L143.314 5.12297C143.464 6.85069 143.632 8.57664 143.824 10.3008L148.596 10.3032C150.4 10.3626 151.569 10.0907 153.05 11.2075C153.187 12.3807 153.295 13.5462 153.367 14.7254C155.345 16.0577 157.192 14.6702 158.72 16.3535L158.774 19.7465C161.934 22.7657 163.966 17.5795 164.116 25.6427C164.727 59.3324 164.038 93.1482 164.038 126.855C164.032 139.455 163.462 152.285 164.092 164.844L164.139 168.874C156.742 168.616 160.998 170.927 157.743 173.897C146.617 174.737 135.114 174.173 123.952 174.173L61.83 174.167C54.3787 174.173 27.8167 175.283 22.1758 174.065C20.5872 173.717 21.1388 170.362 20.0957 168.892C18.9507 168.886 17.8717 169.03 16.7388 169.198L15.5577 168.316C15.4858 167.008 15.3959 165.694 15.288 164.383C13.9992 163.385 13.07 163.357 11.5114 163.393L10.9719 163.409C10.1267 162.044 10.4265 160.361 10.4804 158.81L10.5103 154.287L10.2766 154.086L5.60673 153.813C5.33697 152.158 5.28302 150.395 5.13915 148.721C3.38873 148.577 1.8122 148.769 0.391486 147.701C-0.321869 139.865 0.157749 131.695 0.157749 123.809L0.163709 35.8338C0.157715 27.659 -0.321848 19.2317 0.481427 11.1055C1.7223 10.5234 2.97522 10.2047 4.29403 9.87045C5.56488 8.34976 5.22917 7.24498 5.27113 5.29821L8.95175 4.89792C10.4804 3.32262 10.0368 2.90496 10.3665 0.18165L20.911 0.226638Z" fill="#2A303B"/>
<path d="M56.3329 80.7379C57.8316 82.0828 59.2224 81.8181 61.1706 81.9015L60.9848 82.3048L61.9439 84.2179L61.5842 86.4138L62.6393 86.9533L61.5722 87.2911L61.5242 92.233C61.5242 94.2116 61.8959 95.5625 60.691 97.1726C59.636 97.3178 58.5809 97.4984 57.5138 97.5278L57.2082 100.91C56.3869 101.576 55.7575 101.983 54.7564 102.328L54.2648 103.34C52.7842 103.162 52.5803 103.134 51.4534 102.164C51.7531 100.668 53.1677 100.36 53.8631 98.6369C53.4615 97.7079 53.4855 97.5753 52.6163 97.0952L50.5781 98.0494L50.1585 97.7325L51.0637 95.293L50.5841 94.2308L51.2974 91.0268L51.843 88.1511C53.3896 87.6974 53.4676 87.7208 54.3368 86.3753C54.3248 84.635 54.3428 83.2043 54.9182 81.5384C54.9662 81.4142 55.0081 81.2918 55.0561 81.1688L56.3329 80.7379Z" fill="#2C2A29"/>
<path d="M53.8631 98.6369C54.3067 98.4532 55.7635 98.0241 56.0333 97.7319C57.8077 95.7707 58.527 89.9142 59.8458 87.3865L61.5722 87.2911L61.5242 92.233C61.5242 94.2116 61.8959 95.5625 60.691 97.1726C59.636 97.3178 58.5809 97.4984 57.5138 97.5278L57.2082 100.91C56.3869 101.576 55.7575 101.983 54.7564 102.328L54.2648 103.34C52.7842 103.162 52.5803 103.134 51.4534 102.164C51.7531 100.668 53.1677 100.36 53.8631 98.6369Z" fill="#010101"/>
<path d="M55.0561 81.1688C56.5367 82.6775 56.5069 84.3835 56.4829 86.5007C56.4409 89.6567 54.2408 92.4041 52.0528 94.4301C51.7351 94.7283 51.4054 95.0158 51.0637 95.293L50.5841 94.2308L51.2974 91.0268L51.843 88.1511C53.3896 87.6974 53.4676 87.7208 54.3368 86.3753C54.3248 84.635 54.3428 83.2043 54.9182 81.5384C54.9662 81.4142 55.0081 81.2918 55.0561 81.1688Z" fill="#1D201A"/>
<path d="M61.5842 86.4138L59.54 86.3201L58.395 84.9357C58.3111 83.5746 58.329 83.5608 59.1743 82.4884L60.9848 82.3048L61.9439 84.2179L61.5842 86.4138Z" fill="#323329"/>
<path d="M92.3484 65.9457C92.1446 68.1667 91.6411 70.5342 92.798 72.5596L92.768 75.0764L93.4394 77.4835L92.762 77.4607L89.7707 78.4359L89.7948 78.6831L88.44 79.7057C88.5839 81.2564 89.3692 81.9753 90.5381 82.9823C87.4149 82.7584 86.6116 80.7775 82.871 80.64L82.4154 80.6641C82.2416 79.4926 82.0137 78.8452 81.3543 77.8604L79.0884 77.4637L79.0644 77.2309C80.653 77.0418 81.4922 76.4561 82.7391 75.4941C81.6121 74.3497 80.5751 73.2203 79.1544 72.4413C78.2132 71.9228 77.6737 71.4409 77.0083 70.5977C79.0404 70.2281 81.0726 69.8806 83.1108 69.5554L83.0808 66.8333L85.0351 66.6892L86.6296 69.4311L87.1751 69.3207C87.3909 67.9002 87.2411 67.791 88.44 66.8795C89.3632 66.1935 91.2034 66.1353 92.3484 65.9457Z" fill="#19191B"/>
<path d="M82.7391 75.4941C84.9631 76.2887 88.2241 76.6709 89.7707 78.4359L89.7948 78.6831L88.44 79.7057C88.5839 81.2564 89.3692 81.9753 90.5381 82.9823C87.4149 82.7584 86.6116 80.7775 82.871 80.64L82.4154 80.6641C82.2416 79.4926 82.0137 78.8452 81.3543 77.8604L79.0884 77.4637L79.0644 77.2309C80.653 77.0418 81.4922 76.4561 82.7391 75.4941Z" fill="#323329"/>
<path d="M92.3484 65.9457C92.1446 68.1667 91.6411 70.5342 92.798 72.5596L92.768 75.0764L93.4394 77.4835L92.762 77.4607C92.1446 74.9882 91.8089 74.5375 89.9986 72.7804C88.2482 71.0791 88.482 69.1761 88.44 66.8795C89.3632 66.1935 91.2034 66.1353 92.3484 65.9457Z" fill="#323329"/>
<path d="M138.764 4.90692L143.314 5.12297C143.464 6.85069 143.632 8.57664 143.824 10.3008L148.596 10.3032C150.4 10.3626 151.569 10.0907 153.05 11.2075C153.187 12.3807 153.295 13.5462 153.367 14.7254C155.345 16.0577 157.192 14.6702 158.72 16.3535L158.774 19.7465C161.934 22.7657 163.966 17.5795 164.116 25.6427C164.727 59.3324 164.038 93.1482 164.038 126.855C164.032 139.455 163.462 152.285 164.092 164.844L164.139 168.874C156.742 168.616 160.998 170.927 157.743 173.897C146.617 174.737 135.114 174.173 123.952 174.173L61.83 174.167C54.3787 174.173 27.8167 175.283 22.1758 174.065C20.5872 173.717 21.1388 170.362 20.0957 168.892C18.9507 168.886 17.8717 169.03 16.7388 169.198L15.5577 168.316C15.4858 167.008 15.3959 165.694 15.288 164.383C13.9992 163.385 13.07 163.357 11.5114 163.393L10.9719 163.409C10.1267 162.044 10.4265 160.361 10.4804 158.81L10.5103 154.287L10.2766 154.086L5.60673 153.813C5.33697 152.158 5.28302 150.395 5.13915 148.721C5.24705 146.957 5.68468 145.109 5.97841 143.359C5.16315 142.019 5.34296 140.154 5.28901 138.619L10.5523 138.232C12.5005 138.27 13.4177 138.003 15.0003 139.199L15.9115 142.87C18.9628 143.776 92.3424 144.082 97.6955 143.201L102.162 143.1C110.074 143.223 126.236 144.621 133.04 142.742C133.501 141.588 133.561 140.486 133.657 139.256C134.976 138.392 136.217 138.206 137.733 137.926C138.866 136.752 138.423 133.621 138.435 131.92L138.423 128.141L138.333 122.31C138.291 119.175 138.201 116.04 138.063 112.908L137.817 112.635C139.67 108.467 138.483 25.8143 138.273 15.2643L137.805 15.2151C138.183 13.7136 138.075 11.9589 138.123 10.4094L138.303 10.0871C138.327 8.33661 138.543 6.63945 138.764 4.90692Z" fill="#848188"/>
<path d="M138.764 4.90692L143.314 5.12297C143.464 6.85069 143.632 8.57664 143.824 10.3008C142.643 56.4141 144.705 102.646 143.476 148.768L143.284 148.985C141.684 148.059 140.269 148.261 138.501 148.382L138.219 154.004C112.802 152.756 86.4077 153.808 60.8888 153.799L27.9965 153.756C23.1049 153.724 17.8777 153.187 13.022 153.55C12.1408 153.617 11.2896 153.868 10.5103 154.287L10.2766 154.086L5.60673 153.813C5.33697 152.158 5.28302 150.395 5.13915 148.721C5.24705 146.957 5.68468 145.109 5.97841 143.359C5.16315 142.019 5.34296 140.154 5.28901 138.619L10.5523 138.232C12.5005 138.27 13.4177 138.003 15.0003 139.199L15.9115 142.87C18.9628 143.776 92.3424 144.082 97.6955 143.201L102.162 143.1C110.074 143.223 126.236 144.621 133.04 142.742C133.501 141.588 133.561 140.486 133.657 139.256C134.976 138.392 136.217 138.206 137.733 137.926C138.866 136.752 138.423 133.621 138.435 131.92L138.423 128.141L138.333 122.31C138.291 119.175 138.201 116.04 138.063 112.908L137.817 112.635C139.67 108.467 138.483 25.8143 138.273 15.2643L137.805 15.2151C138.183 13.7136 138.075 11.9589 138.123 10.4094L138.303 10.0871C138.327 8.33661 138.543 6.63945 138.764 4.90692Z" fill="#222835"/>
<path d="M10.6183 148.255C38.8348 148.484 67.0573 148.552 95.2738 148.461C109.535 148.456 124.288 149.225 138.501 148.382L138.219 154.004C112.802 152.756 86.4077 153.808 60.8888 153.799L27.9965 153.756C23.1049 153.724 17.8777 153.187 13.022 153.55C12.1408 153.617 11.2896 153.868 10.5103 154.287L10.2766 154.086C10.6423 152.157 10.5943 150.213 10.6183 148.255Z" fill="#101622"/>
<path d="M138.764 4.90692L143.314 5.12297C143.464 6.85069 143.632 8.57664 143.824 10.3008C142.643 56.4141 144.705 102.646 143.476 148.768L143.284 148.985C141.684 148.059 140.269 148.261 138.501 148.382C138.633 145.782 137.793 141.306 138.98 139.071C140.197 138.948 141.396 138.797 142.595 138.57C144.513 134.61 142.541 31.0425 143.117 15.2073L138.273 15.2643L137.805 15.2151C138.183 13.7136 138.075 11.9589 138.123 10.4094L138.303 10.0871C138.327 8.33661 138.543 6.63945 138.764 4.90692Z" fill="#101622"/>
<path d="M138.303 10.0871C139.915 10.3458 141.426 10.536 143.069 10.5072C143.093 12.0669 143.182 13.65 143.117 15.2073L138.273 15.2643L137.805 15.2151C138.183 13.7136 138.075 11.9589 138.123 10.4094L138.303 10.0871Z" fill="#474C54"/>
<path d="M138.764 4.90692L143.314 5.12297C143.104 6.92631 142.835 8.69128 143.069 10.5072C141.426 10.536 139.915 10.3458 138.303 10.0871C138.327 8.33661 138.543 6.63945 138.764 4.90692Z" fill="#010101"/>
<path d="M5.97841 143.359C7.62692 142.99 8.39421 142.516 9.97079 143.361C10.3604 144.996 10.4984 146.587 10.6183 148.255C10.5943 150.213 10.6423 152.157 10.2766 154.086L5.60673 153.813C5.33697 152.158 5.28302 150.395 5.13915 148.721C5.24705 146.957 5.68468 145.109 5.97841 143.359Z" fill="#101622"/>
<path d="M5.60673 153.813C5.85251 152.312 6.0024 150.804 6.16425 149.292C7.63293 148.05 8.72996 148.339 10.6183 148.255C10.5943 150.213 10.6423 152.157 10.2766 154.086L5.60673 153.813Z" fill="#010101"/>
<path d="M143.824 10.3008L148.596 10.3032L148.512 107.313L148.524 133.445C148.536 138.131 148.985 143.337 148.194 147.942C146.677 148.715 145.143 148.68 143.476 148.768C144.705 102.646 142.643 56.4141 143.824 10.3008Z" fill="#010101"/>
<path d="M10.5103 154.287C11.2896 153.868 12.1408 153.617 13.022 153.55C17.8777 153.187 23.1049 153.724 27.9965 153.756L60.8888 153.799C86.4077 153.808 112.802 152.756 138.219 154.004L138.375 154.293C138.363 156.176 138.705 157.131 137.458 158.589C126.116 159.863 109.799 158.791 98.0134 158.783L10.4804 158.81L10.5103 154.287Z" fill="#010101"/>
<path d="M138.501 148.382C140.269 148.261 141.684 148.059 143.284 148.985C143.278 150.817 143.632 152.067 142.481 153.55C141.15 153.781 139.664 153.905 138.375 154.293L138.219 154.004L138.501 148.382Z" fill="#070912"/>
<path d="M113.815 73.9002C114.696 71.8976 114.78 71.3653 116.788 70.5395L117.214 72.2145L118.527 72.8398L118.401 74.1792C119.372 74.1048 120.283 73.8299 121.146 74.3022C122.681 75.143 123.688 75.5937 125.492 75.4341L126.859 76.9631L127.033 77.4168L128.514 77.4756C128.801 78.1484 129.083 78.7911 129.257 79.5034C130.312 83.8512 135.419 85.8106 135.665 90.6817C135.881 94.8957 135.378 99.9085 133.789 103.843C133.231 105.226 133.315 106.45 133.465 107.904L136.211 108.308C136.51 110.269 136.319 111.275 137.817 112.635L138.063 112.908C138.201 116.04 138.291 119.175 138.333 122.31L138.423 128.141L138.435 131.92C138.423 133.621 138.866 136.752 137.733 137.926C136.217 138.206 134.976 138.392 133.657 139.256C133.561 140.486 133.501 141.588 133.04 142.742C126.236 144.621 110.074 143.223 102.162 143.1L97.6955 143.201C92.3424 144.082 18.9628 143.776 15.9115 142.87L15.0003 139.199C13.4177 138.003 12.5005 138.27 10.5523 138.232L10.5463 129.154L10.6422 116.494L10.5763 113.242C10.9 113.232 11.2297 113.223 11.5534 113.193C14.8025 112.893 14.8504 110.864 16.6068 108.793C17.6798 107.531 18.8548 107.747 20.4134 107.579C20.5333 108.96 20.6652 110.297 20.5453 111.684L21.0548 112.756C22.2897 112.121 23.7943 112.141 24.8374 111.329L24.2619 108.348C25.239 109.837 26.3481 111.318 27.0434 112.962L26.2222 113.624C26.1202 113.968 26.0723 114.092 26.0244 114.49C25.8505 115.964 25.7785 116.559 26.7137 117.693L28.5421 117.564C30.5023 116.263 31.6053 115.106 32.8282 113.055C33.2299 112.384 35.0342 111.807 35.8075 111.457L36.7906 111.857L37.4201 111.823C38.613 110.021 43.3667 106.357 45.3449 105.219L46.5978 105.74L48.4081 105.185C49.589 104.277 50.5002 103.305 51.4534 102.164C52.5803 103.134 52.7842 103.162 54.2648 103.34L54.7564 102.328C55.7575 101.983 56.3869 101.576 57.2082 100.91L57.5138 97.5278C58.5809 97.4984 59.636 97.3178 60.691 97.1726C61.8959 95.5625 61.5242 94.2116 61.5242 92.233L64.4676 92.0044L67.1652 91.8328C68.9336 91.9456 70.69 92.0776 72.4704 91.9678C72.4224 87.3673 72.2006 82.6781 72.7941 78.1106L74.6824 78.4874C75.9352 77.7619 77.6737 77.6857 79.0884 77.4637L81.3543 77.8604C82.0137 78.8452 82.2416 79.4926 82.4154 80.6641L82.871 80.64C86.6116 80.7775 87.4149 82.7584 90.5381 82.9823C89.3692 81.9753 88.5839 81.2564 88.44 79.7057L89.7948 78.6831C93.2836 79.1788 92.84 82.6102 97.1081 82.435C98.2291 82.396 99.7277 82.0383 100.561 82.8106C101.574 83.7522 102.03 84.9896 102.953 85.978L103.115 83.1359C103.097 81.665 103.085 80.1935 103.085 78.7221C104.38 76.3894 106.268 77.9587 108.246 76.6787C108.39 76.5851 108.528 76.4819 108.672 76.3834C110.236 74.4961 110.962 74.5903 113.281 74.0226L113.815 73.9002Z" fill="#101622"/>
<path d="M113.815 73.9002C114.696 71.8976 114.78 71.3653 116.788 70.5395L117.214 72.2145L118.527 72.8398L118.401 74.1792C119.372 74.1048 120.283 73.8299 121.146 74.3022C122.681 75.143 123.688 75.5937 125.492 75.4341L126.859 76.9631L127.033 77.4168L128.514 77.4756C128.801 78.1484 129.083 78.7911 129.257 79.5034C130.312 83.8512 135.419 85.8106 135.665 90.6817C135.881 94.8957 135.378 99.9085 133.789 103.843C133.231 105.226 133.315 106.45 133.465 107.904L133.303 108.141L128.4 108.231C128.765 108.978 129.263 110.46 129.97 110.807C130.822 111.224 131.571 111.514 132.152 112.295L132.176 113.405L129.743 114.139L128.184 114.438C122.831 113.846 118.341 114.608 113.21 112.145L111.309 112.926L110.248 112.181C109.811 110.267 109.043 109.132 108.306 107.403C106.568 103.313 106.915 99.3312 107.263 95.0284L108.486 93.2604L109.181 93.3354C109.547 94.6827 110.003 96.0611 110.17 97.4468L110.308 91.8309C109.673 91.4547 109.103 91.1391 108.402 90.905C106.981 90.4309 107.305 89.4989 105.453 89.2294C104.961 87.4843 104.823 87.5185 103.271 86.5427L102.953 85.978L103.115 83.1359C103.097 81.665 103.085 80.1935 103.085 78.7221C104.38 76.3894 106.268 77.9587 108.246 76.6787C108.39 76.5851 108.528 76.4819 108.672 76.3834C110.236 74.4961 110.962 74.5903 113.281 74.0226L113.815 73.9002Z" fill="#19191B"/>
<path d="M113.815 73.9002C114.696 71.8976 114.78 71.3653 116.788 70.5395L117.214 72.2145L118.527 72.8398L118.401 74.1792C117.849 77.9791 115.895 77.2518 115.08 80.9695C117.622 81.9543 118.671 82.2285 119.798 84.8168L119.929 85.1313L120.187 85.918C115.17 87.1285 116.207 92.3644 110.308 91.8309C109.673 91.4547 109.103 91.1391 108.402 90.905C106.981 90.4309 107.305 89.4989 105.453 89.2294C104.961 87.4843 104.823 87.5185 103.271 86.5427L102.953 85.978L103.115 83.1359C103.097 81.665 103.085 80.1935 103.085 78.7221C104.38 76.3894 106.268 77.9587 108.246 76.6787C108.39 76.5851 108.528 76.4819 108.672 76.3834C110.236 74.4961 110.962 74.5903 113.281 74.0226L113.815 73.9002Z" fill="#407F4A"/>
<path d="M115.08 80.9695C117.622 81.9543 118.671 82.2285 119.798 84.8168L119.929 85.1313L120.187 85.918C115.17 87.1285 116.207 92.3644 110.308 91.8309C109.673 91.4547 109.103 91.1391 108.402 90.905C106.981 90.4309 107.305 89.4989 105.453 89.2294C104.961 87.4843 104.823 87.5185 103.271 86.5427C104.619 86.7143 106.142 86.9773 107.497 86.8405C109.373 86.6514 111.777 84.8901 112.838 83.3724C113.222 82.8263 113.431 82.3672 114.073 82.0917C114.732 81.8085 114.72 81.5792 115.08 80.9695Z" fill="#052123"/>
<path d="M127.033 77.4168L128.514 77.4756C128.801 78.1484 129.083 78.7911 129.257 79.5034C130.312 83.8512 135.419 85.8106 135.665 90.6817C135.881 94.8957 135.378 99.9085 133.789 103.843C133.231 105.226 133.315 106.45 133.465 107.904L133.303 108.141L128.4 108.231C126.601 108.28 124.959 108.379 123.221 107.816L122.759 106.341C124.533 107.352 127.674 107.181 129.683 106.969C130.756 106.857 131.481 106.918 132.195 106.052C130.9 105.113 129.689 104.783 128.178 104.362C128.963 104.237 129.539 104.179 130.168 103.638C130.906 103 130.834 100.644 130.9 99.6781L132.081 99.2652C130.876 98.6423 130.036 97.4553 128.831 96.7327C128.849 95.6117 128.909 94.5519 128.514 93.4873C127.693 91.2807 126.949 87.4298 125.127 85.9667C125.211 84.266 125.469 83.1792 126.29 81.6819L125.834 80.0874L127.033 77.4168Z" fill="#010101"/>
<path d="M126.29 81.6819C127.063 81.9627 128.232 82.1193 128.604 82.8748C129.017 83.7156 128.897 84.752 128.867 85.6636C130.762 90.1273 133.567 88.1426 132.902 94.6467C132.74 96.201 132.668 97.8051 132.081 99.2652C130.876 98.6423 130.036 97.4553 128.831 96.7327C128.849 95.6117 128.909 94.5519 128.514 93.4873C127.693 91.2807 126.949 87.4298 125.127 85.9667C125.211 84.266 125.469 83.1792 126.29 81.6819Z" fill="#3D3C30"/>
<path d="M120.187 85.918C121.29 86.3189 122.465 86.4366 122.939 87.6242C124.12 90.5906 124.354 97.0016 122.945 99.8977C122.549 100.707 121.926 101.198 121.194 101.679C119.804 101.816 119.456 102.017 118.239 101.268L117.897 98.6645C115.745 97.1864 112.179 98.9087 110.17 97.4468L110.308 91.8309C116.207 92.3644 115.17 87.1285 120.187 85.918Z" fill="#2A303B"/>
<path d="M129.743 114.139C125.546 108.831 121.206 114.054 116.998 110.915C117.058 106.501 112.604 108.753 110.098 106.076C110.368 104.364 110.314 104.226 111.603 103.101C115.871 102.049 117.148 104.864 120.643 105.317C121.65 105.448 121.98 105.686 122.759 106.341L123.221 107.816C124.959 108.379 126.601 108.28 128.4 108.231C128.765 108.978 129.263 110.46 129.97 110.807C130.822 111.224 131.571 111.514 132.152 112.295L132.176 113.405L129.743 114.139Z" fill="#323329"/>
<path d="M118.401 74.1792C119.372 74.1048 120.283 73.8299 121.146 74.3022C122.681 75.143 123.688 75.5937 125.492 75.4341C123.37 75.7119 122.207 75.9334 120.535 77.3904C118.934 80.3952 120.199 82.1955 119.929 85.1313L119.798 84.8168C118.671 82.2285 117.622 81.9543 115.08 80.9695C115.895 77.2518 117.849 77.9791 118.401 74.1792Z" fill="#0E2F2A"/>
<path d="M125.127 85.9667C125.037 85.9295 124.953 85.9001 124.869 85.8551C123.616 85.1631 122.945 84.1117 122.585 82.7453C122.147 81.1106 122.255 79.8689 123.059 78.4155C124.551 78.6525 124.761 79.0642 125.834 80.0874L126.29 81.6819C125.469 83.1792 125.211 84.266 125.127 85.9667Z" fill="#323329"/>
<path d="M128.831 96.7327C130.036 97.4553 130.876 98.6423 132.081 99.2652L130.9 99.6781C130.834 100.644 130.906 103 130.168 103.638C129.539 104.179 128.963 104.237 128.178 104.362C127.489 101.902 128.37 100.287 128.706 97.9582C128.724 97.8123 128.73 97.6653 128.748 97.5182L128.796 97.061L128.831 96.7327Z" fill="#1C1C1A"/>
<path d="M79.0884 77.4637L81.3543 77.8604C82.0137 78.8452 82.2416 79.4926 82.4154 80.6641L82.871 80.64C82.0078 81.6626 81.726 82.4302 81.3903 83.7186C81.702 84.6524 81.744 85.2447 82.6732 85.7872C85.131 87.2161 88.9914 86.4036 91.713 86.6826C92.3784 87.9609 92.822 89.2511 93.2836 90.6115C94.5724 91.3653 97.0063 92.2703 97.5098 93.7417C97.9054 94.8958 97.5817 96.5917 97.4618 97.7997L97.5337 103.196C95.9452 103.418 93.6372 103.245 92.75 104.761C92.5522 105.095 92.4863 105.569 92.4083 105.936L91.8449 107.715L88.3321 107.48L83.6143 107.576C81.9179 109.109 82.2955 111.056 82.0797 113.285L81.1266 112.211L80.3832 110.784L79.9156 112.229L76.8764 112.436L72.5603 112.476C70.6541 110.858 70.4862 108.473 70.0006 106.143C70.0845 103.829 69.9287 101.453 69.8867 99.1343L68.9755 97.8477C68.3101 97.5644 67.6088 97.2848 66.9853 96.9103C64.8393 95.6164 65.0012 94.286 64.4676 92.0044L67.1652 91.8328C68.9336 91.9456 70.69 92.0776 72.4704 91.9678C72.4224 87.3673 72.2006 82.6781 72.7941 78.1106L74.6824 78.4874C75.9352 77.7619 77.6737 77.6857 79.0884 77.4637Z" fill="#1E3C2E"/>
<path d="M72.7941 78.1106L74.6824 78.4874L75.078 80.4624L76.6726 81.2816C77.236 82.9625 77.254 84.1213 77.1042 85.8527L77.284 92.0704C77.374 98.38 78.3031 106.319 76.8764 112.436L72.5603 112.476C70.6541 110.858 70.4862 108.473 70.0006 106.143C70.0845 103.829 69.9287 101.453 69.8867 99.1343L68.9755 97.8477C68.3101 97.5644 67.6088 97.2848 66.9853 96.9103C64.8393 95.6164 65.0012 94.286 64.4676 92.0044L67.1652 91.8328C68.9336 91.9456 70.69 92.0776 72.4704 91.9678C72.4224 87.3673 72.2006 82.6781 72.7941 78.1106Z" fill="#1C542F"/>
<path d="M72.7941 78.1106L74.6824 78.4874L75.078 80.4624L76.6726 81.2816C77.236 82.9625 77.254 84.1213 77.1042 85.8527C76.175 88.0827 76.3608 89.5283 76.4747 91.8796C76.5406 93.2646 76.5347 95.0284 75.5996 96.0594L74.2987 95.8037C71.721 92.4779 72.9379 82.4554 72.7941 78.1106Z" fill="#326D3E"/>
<path d="M67.1652 91.8328C68.9336 91.9456 70.69 92.0776 72.4704 91.9678C72.3565 95.3512 73.0879 98.5565 73.0639 101.867C71.8889 101.255 70.8518 100.047 69.8867 99.1343L68.9755 97.8477C68.3101 97.5644 67.6088 97.2848 66.9853 96.9103C64.8393 95.6164 65.0012 94.286 64.4676 92.0044L67.1652 91.8328Z" fill="#1E3C2E"/>
<path d="M69.8867 99.1343C70.8518 100.047 71.8889 101.255 73.0639 101.867C73.0579 105.284 73.4056 109.156 72.5603 112.476C70.6541 110.858 70.4862 108.473 70.0006 106.143C70.0845 103.829 69.9287 101.453 69.8867 99.1343Z" fill="#0E2F2A"/>
<path d="M93.2836 90.6115C94.5724 91.3653 97.0063 92.2703 97.5098 93.7417C97.9054 94.8958 97.5817 96.5917 97.4618 97.7997L97.5337 103.196C95.9452 103.418 93.6372 103.245 92.75 104.761C92.5522 105.095 92.4863 105.569 92.4083 105.936L91.8449 107.715L88.3321 107.48L83.6143 107.576C81.9179 109.109 82.2955 111.056 82.0797 113.285L81.1266 112.211L80.3832 110.784C80.3892 107.726 79.61 100.968 81.5462 98.5984C82.3255 98.3704 83.3207 98.1477 84.016 97.7306C86.234 96.405 85.8323 95.2018 86.2759 92.9093C88.5898 91.8417 90.646 93.1074 93.0018 92.1646L93.2836 90.6115Z" fill="#101622"/>
<path d="M89.7288 99.5971C93.4694 100.61 92.2945 102.886 97.5337 103.196C95.9452 103.418 93.6372 103.245 92.75 104.761C92.5522 105.095 92.4863 105.569 92.4083 105.936L91.8449 107.715L88.3321 107.48L87.193 107.451L87.4448 103.839L86.8454 102.802L89.7288 99.5971Z" fill="#070912"/>
<path d="M87.4448 103.839C89.507 105.269 90.514 103.855 92.4083 105.936L91.8449 107.715L88.3321 107.48L87.193 107.451L87.4448 103.839Z" fill="#2C2A29"/>
<path d="M89.7288 99.5971C89.3631 98.7383 89.4771 98.7281 89.8188 97.8423C91.9589 96.9853 95.1599 97.6148 97.4618 97.7997L97.5337 103.196C92.2945 102.886 93.4694 100.61 89.7288 99.5971Z" fill="#2A303B"/>
<path d="M86.8454 102.802L87.4448 103.839L87.193 107.451L85.4307 106.722L84.7892 104.963C85.3827 103.452 85.3647 103.468 86.8454 102.802Z" fill="#2A303B"/>
<path d="M79.0884 77.4637L81.3543 77.8604C82.0137 78.8452 82.2416 79.4926 82.4154 80.6641L82.871 80.64C82.0078 81.6626 81.726 82.4302 81.3903 83.7186C81.702 84.6524 81.744 85.2447 82.6732 85.7872C85.131 87.2161 88.9914 86.4036 91.713 86.6826C89.0814 86.9665 84.8072 86.6208 82.5892 87.9098C81.9418 89.1826 82.0197 90.1302 82.0916 91.5333C80.3592 92.4365 79.2143 92.1526 77.284 92.0704L77.1042 85.8527C77.254 84.1213 77.236 82.9625 76.6726 81.2816L75.078 80.4624L74.6824 78.4874C75.9352 77.7619 77.6737 77.6857 79.0884 77.4637Z" fill="#09201E"/>
<path d="M79.0884 77.4637L81.3543 77.8604C82.0137 78.8452 82.2416 79.4926 82.4154 80.6641C80.4852 80.9683 78.6208 81.1994 76.6726 81.2816L75.078 80.4624L74.6824 78.4874C75.9352 77.7619 77.6737 77.6857 79.0884 77.4637Z" fill="#010101"/>
<path d="M61.5242 92.233L64.4676 92.0044C65.0012 94.286 64.8393 95.6164 66.9853 96.9103C67.6088 97.2848 68.3101 97.5644 68.9755 97.8477L69.8867 99.1343C69.9287 101.453 70.0845 103.829 70.0006 106.143C70.0186 109.142 70.1085 112.067 70.4262 115.055C69.2153 115.351 67.9745 115.595 66.8235 116.085L67.4769 117.473C70.8878 118.56 76.5947 116.79 79.0045 119.01C78.7347 120.18 78.5429 121.468 78.0873 122.577L77.386 122.937L77.2841 127.421L76.4868 128.502C73.8972 128.79 69.665 129.715 67.3031 128.413L67.369 127.307L69.1254 125.763L67.7647 124.213L67.1413 123.012C66.9674 123.013 66.7936 123.016 66.6138 123.015C62.3276 122.997 58.527 119.694 54.121 120.921L53.3537 122.01C53.9112 122.893 54.4387 123.769 54.9182 124.698C54.1629 126.501 50.9978 127.782 49.2833 128.993C48.3961 128.923 47.5929 128.948 46.8435 128.402C45.231 127.223 43.8942 128.114 42.0898 127.062C41.7301 126.117 41.3405 125.122 41.2026 124.115C40.9689 122.421 41.4725 119.693 42.6654 118.386C43.6365 117.326 45.8365 117.519 47.2093 117.399L50.0747 117.355C51.6033 116.398 51.3216 114.846 51.945 113.191L52.0528 112.909C52.3885 111.019 52.0109 109.318 51.6692 107.459L52.0349 105.159C52.7063 104.738 53.3417 104.341 53.8872 103.756C54.0191 103.618 54.1389 103.479 54.2648 103.34L54.7564 102.328C55.7575 101.983 56.3869 101.576 57.2082 100.91L57.5138 97.5278C58.5809 97.4984 59.636 97.3178 60.691 97.1726C61.8959 95.5625 61.5242 94.2116 61.5242 92.233Z" fill="#222835"/>
<path d="M61.5242 92.233L64.4676 92.0044C65.0012 94.286 64.8393 95.6164 66.9853 96.9103C67.6088 97.2848 68.3101 97.5644 68.9755 97.8477L69.8867 99.1343C69.9287 101.453 70.0845 103.829 70.0006 106.143C70.0186 109.142 70.1085 112.067 70.4262 115.055C69.2153 115.351 67.9745 115.595 66.8235 116.085L67.339 113.226C68.1363 111.737 67.2251 109.22 66.9013 107.526C61.8119 107.628 56.7526 107.682 51.6692 107.459L52.0349 105.159C52.7063 104.738 53.3417 104.341 53.8872 103.756C54.0191 103.618 54.1389 103.479 54.2648 103.34L54.7564 102.328C55.7575 101.983 56.3869 101.576 57.2082 100.91L57.5138 97.5278C58.5809 97.4984 59.636 97.3178 60.691 97.1726C61.8959 95.5625 61.5242 94.2116 61.5242 92.233Z" fill="#052123"/>
<path d="M57.5138 97.5278C58.9525 97.6941 60.2414 97.6635 61.3265 98.7239C61.3384 100.87 61.2965 100.998 62.6572 102.638C63.8562 103.161 64.6595 103.378 65.9663 103.283C66.6557 104.713 66.7575 105.976 66.9013 107.526C61.8119 107.628 56.7526 107.682 51.6692 107.459L52.0349 105.159C52.7063 104.738 53.3417 104.341 53.8872 103.756C54.0191 103.618 54.1389 103.479 54.2648 103.34L54.7564 102.328C55.7575 101.983 56.3869 101.576 57.2082 100.91L57.5138 97.5278Z" fill="#2A303B"/>
<path d="M51.6692 107.459C56.7526 107.682 61.8119 107.628 66.9013 107.526C67.2251 109.22 68.1363 111.737 67.339 113.226L66.29 113.132L52.0528 112.909C52.3885 111.019 52.0109 109.318 51.6692 107.459Z" fill="#070912"/>
<path d="M66.29 113.132L67.339 113.226L66.8235 116.085L67.4769 117.473C70.8878 118.56 76.5947 116.79 79.0045 119.01C78.7347 120.18 78.5429 121.468 78.0873 122.577L77.386 122.937C76.4748 120.466 69.6829 119.833 67.345 117.719C66.0681 116.563 66.3679 114.722 66.29 113.132Z" fill="#101622"/>
<path d="M67.7647 124.213C69.1674 123.103 71.3853 123.01 73.1118 123.227C74.6944 123.423 75.3538 124.007 76.3489 125.119C75.9293 125.951 75.9592 126.131 75.048 126.42C73.2376 126.999 70.9237 126.184 69.1254 125.763L67.7647 124.213Z" fill="#2A303B"/>
<path d="M51.4534 102.164C52.5803 103.134 52.7842 103.162 54.2648 103.34C54.1389 103.479 54.0191 103.618 53.8872 103.756C53.3417 104.341 52.7063 104.738 52.0349 105.159L51.6692 107.459C52.0109 109.318 52.3885 111.019 52.0528 112.909L51.945 113.191C51.3216 114.846 51.6033 116.398 50.0747 117.355L47.2093 117.399C45.8365 117.519 43.6365 117.326 42.6654 118.386C41.4725 119.693 40.9689 122.421 41.2026 124.115C41.3405 125.122 41.7301 126.117 42.0898 127.062C43.8942 128.114 45.231 127.223 46.8435 128.402C46.34 131.504 47.0653 135.597 46.0223 138.346C44.6075 138.757 44.0261 138.627 42.6893 138.093C41.3405 137.556 36.7607 134.695 36.2152 133.537C35.5498 132.124 36.1611 129.758 35.4118 128.05C33.6734 128.529 33.3137 128.571 31.5813 128.107L31.7012 123.152C28.7158 121.604 19.5202 122.364 16.1692 122.979C14.8144 124.412 16.0913 126.994 14.6706 127.803C13.4716 128.486 11.7033 128.236 10.5463 129.154L10.6422 116.494L10.5763 113.242C10.9 113.232 11.2297 113.223 11.5534 113.193C14.8025 112.893 14.8504 110.864 16.6068 108.793C17.6798 107.531 18.8548 107.747 20.4134 107.579C20.5333 108.96 20.6652 110.297 20.5453 111.684L21.0548 112.756C22.2897 112.121 23.7943 112.141 24.8374 111.329L24.2619 108.348C25.239 109.837 26.3481 111.318 27.0434 112.962L26.2222 113.624C26.1202 113.968 26.0723 114.092 26.0244 114.49C25.8505 115.964 25.7785 116.559 26.7137 117.693L28.5421 117.564C30.5023 116.263 31.6053 115.106 32.8282 113.055C33.2299 112.384 35.0342 111.807 35.8075 111.457L36.7906 111.857L37.4201 111.823C38.613 110.021 43.3667 106.357 45.3449 105.219L46.5978 105.74L48.4081 105.185C49.589 104.277 50.5002 103.305 51.4534 102.164Z" fill="#070912"/>
<path d="M51.4534 102.164C52.5803 103.134 52.7842 103.162 54.2648 103.34C54.1389 103.479 54.0191 103.618 53.8872 103.756C53.3417 104.341 52.7063 104.738 52.0349 105.159L51.6692 107.459C52.0109 109.318 52.3885 111.019 52.0528 112.909L51.945 113.191C51.3216 114.846 51.6033 116.398 50.0747 117.355L47.2093 117.399C45.7885 117.396 43.7323 117.615 42.4075 117.131C41.3045 116.729 41.2626 115.931 40.8729 114.938L41.0108 113.124L42.1438 112.847C43.1748 111.78 44.3318 110.728 44.9073 109.339C45.4528 108.04 46.2201 107.138 46.5978 105.74L48.4081 105.185C49.589 104.277 50.5002 103.305 51.4534 102.164Z" fill="#0C1015"/>
<path d="M49.3373 108.059C49.9487 108.036 50.1944 108.078 50.7699 108.359C51.4953 108.712 51.4713 109.312 51.6991 110.043C51.1177 111.936 50.9557 112.214 49.4631 113.51C48.2702 113.05 47.6347 112.739 46.8195 111.738C47.0653 109.973 48.1324 109.316 49.3373 108.059Z" fill="#2A303B"/>
<path d="M37.4201 111.823C38.613 110.021 43.3667 106.357 45.3449 105.219L46.5978 105.74C46.2201 107.138 45.4528 108.04 44.9073 109.339C44.3318 110.728 43.1748 111.78 42.1438 112.847L41.0108 113.124L40.8729 114.938C40.7051 116.57 39.9737 117.331 38.9007 118.463C37.6658 119.757 38.535 124.135 37.45 126.111C36.3829 125.491 36.1432 124.716 35.6996 123.598C34.5606 120.683 34.3268 115.202 35.5857 112.285L36.7906 111.857L37.4201 111.823Z" fill="#323329"/>
<path d="M20.4134 107.579C20.5333 108.96 20.6652 110.297 20.5453 111.684L21.0548 112.756C20.2515 113.85 20.2636 114.08 18.8908 114.288C18.3093 114.377 17.8238 114.34 17.2423 114.282L17.1524 116.351C14.9763 117.674 13.0161 117.009 10.6422 116.494L10.5763 113.242C10.9 113.232 11.2297 113.223 11.5534 113.193C14.8025 112.893 14.8504 110.864 16.6068 108.793C17.6798 107.531 18.8548 107.747 20.4134 107.579Z" fill="#010101"/>
<path d="M17.2423 114.282C16.9006 113.687 16.8827 113.298 16.8647 112.618C18.0816 112.238 19.2984 111.954 20.5453 111.684L21.0548 112.756C20.2515 113.85 20.2636 114.08 18.8908 114.288C18.3093 114.377 17.8238 114.34 17.2423 114.282Z" fill="#1D201A"/>
<path d="M40.3214 131.198L42.8571 130.025C42.965 131.889 43.1688 132.672 42.2276 134.344L41.2685 134.241C40.6271 133.157 40.4353 132.45 40.3214 131.198Z" fill="#1D201A"/>
<path d="M40.3214 131.198C39.5901 130.328 39.2364 129.749 38.9427 128.646L39.4942 128.4C40.5013 128.991 41.4664 129.499 42.5574 129.914L42.8571 130.025L40.3214 131.198Z" fill="#1C1C1A"/>
<path d="M89.7948 78.6831C93.2836 79.1788 92.84 82.6102 97.1081 82.435C98.2291 82.396 99.7277 82.0383 100.561 82.8106C101.574 83.7522 102.03 84.9896 102.953 85.978L103.271 86.5427C104.823 87.5185 104.961 87.4843 105.453 89.2294C107.305 89.4989 106.981 90.4309 108.402 90.905C109.103 91.1391 109.673 91.4547 110.308 91.8309L110.17 97.4468C110.003 96.0611 109.547 94.6827 109.181 93.3354L108.486 93.2604L107.263 95.0284C106.915 99.3312 106.568 103.313 108.306 107.403C109.043 109.132 109.811 110.267 110.248 112.181L111.309 112.926C112.97 114.557 112.628 116.339 112.652 118.591C112.658 119.182 112.844 119.347 113.24 119.771C113.725 120.291 114.415 120.596 115.044 120.913L115.643 121.9C118.443 123.227 117.843 125.254 119.126 125.695C121.362 126.468 121.518 125.51 123.508 127.556L123.4 128.374C122.957 128.585 122.615 128.746 122.118 128.799C113.593 129.703 113.551 123.702 108.624 119.846L108.396 119.671C107.665 117.159 106.735 113.028 104.745 111.329C103.109 110.985 101.988 111.461 100.447 112.097C98.289 112.99 96.4846 112.73 94.1947 112.554L92.6901 110.05L91.8449 107.715L92.4083 105.936C92.4863 105.569 92.5522 105.095 92.75 104.761C93.6372 103.245 95.9452 103.418 97.5337 103.196L97.4618 97.7997C97.5817 96.5917 97.9054 94.8958 97.5098 93.7417C97.0063 92.2703 94.5724 91.3653 93.2836 90.6115C92.822 89.2511 92.3784 87.9609 91.713 86.6826C88.9914 86.4036 85.131 87.2161 82.6732 85.7872C81.744 85.2447 81.702 84.6524 81.3903 83.7186C81.726 82.4302 82.0078 81.6626 82.871 80.64C86.6116 80.7775 87.4149 82.7584 90.5381 82.9823C89.3692 81.9753 88.5839 81.2564 88.44 79.7057L89.7948 78.6831Z" fill="#3D3C30"/>
<path d="M82.871 80.64C86.6116 80.7775 87.4149 82.7584 90.5381 82.9823C92.8101 89.5823 101.28 88.5063 102.203 98.8847C102.341 100.442 102.563 102.591 101.904 104.052C101.148 105.722 99.41 106.495 97.7495 107.003C96.2209 107.472 94.6863 107.85 93.1037 108.085C92.798 108.812 92.6661 109.258 92.6901 110.05L91.8449 107.715L92.4083 105.936C92.4863 105.569 92.5522 105.095 92.75 104.761C93.6372 103.245 95.9452 103.418 97.5337 103.196L97.4618 97.7997C97.5817 96.5917 97.9054 94.8958 97.5098 93.7417C97.0063 92.2703 94.5724 91.3653 93.2836 90.6115C92.822 89.2511 92.3784 87.9609 91.713 86.6826C88.9914 86.4036 85.131 87.2161 82.6732 85.7872C81.744 85.2447 81.702 84.6524 81.3903 83.7186C81.726 82.4302 82.0078 81.6626 82.871 80.64Z" fill="#19191B"/>
<path d="M102.395 88.1289L105.453 89.2294C107.305 89.4989 106.981 90.4309 108.402 90.905C109.103 91.1391 109.673 91.4547 110.308 91.8309L110.17 97.4468C110.003 96.0611 109.547 94.6827 109.181 93.3354L108.486 93.2604L107.263 95.0284L105.674 94.3683C104.625 92.9514 103.36 91.6846 102.162 90.3883L102.395 88.1289Z" fill="#1D201A"/>
<path d="M97.1081 82.435C98.2291 82.396 99.7277 82.0383 100.561 82.8106C101.574 83.7522 102.03 84.9896 102.953 85.978L103.271 86.5427C104.823 87.5185 104.961 87.4843 105.453 89.2294L102.395 88.1289L100.843 87.8312C99.1103 86.4563 97.4198 84.6878 97.1081 82.435Z" fill="#09201E"/>
<path d="M133.465 107.904L136.211 108.308C136.51 110.269 136.319 111.275 137.817 112.635L138.063 112.908C138.201 116.04 138.291 119.175 138.333 122.31L138.423 128.141L138.435 131.92C135.971 131.323 133.429 132.069 131.085 130.918C130.762 131.402 130.432 131.888 130.018 132.304C129.185 133.151 127.657 133.12 126.554 133.199C117.999 133.808 114.786 128.403 110.272 128.35C109.397 128.34 108.57 128.142 107.713 127.973C106.592 126.352 106.867 121.648 106.885 119.608L108.396 119.671L108.624 119.846C113.551 123.702 113.593 129.703 122.118 128.799C122.615 128.746 122.957 128.585 123.4 128.374L123.508 127.556C121.518 125.51 121.362 126.468 119.126 125.695C117.843 125.254 118.443 123.227 115.643 121.9L115.044 120.913C114.415 120.596 113.725 120.291 113.24 119.771C112.844 119.347 112.658 119.182 112.652 118.591C112.628 116.339 112.97 114.557 111.309 112.926L113.21 112.145C118.341 114.608 122.831 113.846 128.184 114.438L129.743 114.139L132.176 113.405L132.152 112.295C131.571 111.514 130.822 111.224 129.97 110.807C129.263 110.46 128.765 108.978 128.4 108.231L133.303 108.141L133.465 107.904Z" fill="#010101"/>
<path d="M134.293 122.503L138.333 122.31L138.423 128.141L138.435 131.92C135.971 131.323 133.429 132.069 131.085 130.918L131.643 129.745C130.546 127.495 125.918 127.026 124.563 123.912L125.055 123.11L127.213 123.166C129.479 122.652 131.967 122.656 134.293 122.503Z" fill="#1B202C"/>
<path d="M131.643 129.745C130.546 127.495 125.918 127.026 124.563 123.912L125.055 123.11L127.213 123.166C129.113 123.269 131.667 122.868 132.992 124.508C133.957 125.704 134.352 127.166 133.939 128.661C133.753 129.328 133.315 129.999 132.968 130.591L132.242 130.529L131.643 129.745Z" fill="#222835"/>
<path d="M134.293 122.503L138.333 122.31L138.423 128.141C137.134 128 136.007 127.685 134.778 127.274C133.813 125.585 134.179 124.418 134.293 122.503Z" fill="#101622"/>
<path d="M133.465 107.904L136.211 108.308C136.51 110.269 136.319 111.275 137.817 112.635L138.063 112.908C137.53 113.136 136.762 113.286 136.51 113.807C135.863 115.163 134.964 115.741 133.753 116.535L132.704 116.179C132.296 115.18 132.182 114.482 132.176 113.405L132.152 112.295C131.571 111.514 130.822 111.224 129.97 110.807C129.263 110.46 128.765 108.978 128.4 108.231L133.303 108.141L133.465 107.904Z" fill="#1C1C1A"/>
<path d="M133.465 107.904L136.211 108.308C136.073 109.783 135.827 111.186 135.515 112.635L134.544 112.627C133.381 111.858 130.798 110.6 130.456 109.328C131.247 109.382 131.991 109.515 132.77 109.656L133.303 108.141L133.465 107.904Z" fill="#19191B"/>
<path d="M111.309 112.926L113.21 112.145C118.341 114.608 122.831 113.846 128.184 114.438L128.028 114.905C124.959 114.71 119.234 113.66 116.806 115.694L116.573 117.159C116.279 118.7 116.105 120.409 115.643 121.9L115.044 120.913C114.415 120.596 113.725 120.291 113.24 119.771C112.844 119.347 112.658 119.182 112.652 118.591C112.628 116.339 112.97 114.557 111.309 112.926Z" fill="#1C1C1A"/>
<path d="M116.573 117.159L116.806 115.694C119.234 113.66 124.959 114.71 128.028 114.905L127.686 116.698C124.743 118.044 119.834 117.278 116.573 117.159Z" fill="#2A303B"/>
<path d="M99.9136 121.837L101.364 120.608C102.545 121.243 102.671 121.753 103.306 122.902L103.786 122.409L105.003 122.584C105.303 123.587 105.596 124.592 105.453 125.647C105.099 128.213 103.744 130.818 103.241 133.469C102.629 136.673 102.923 139.94 102.162 143.1L97.6955 143.201C97.6476 141.757 97.4797 140.34 97.3059 138.907C95.8612 138.716 94.4585 138.465 93.0317 138.136C91.593 135.229 93.1637 127.471 93.5414 124.188C94.7283 123.07 97.0182 123.121 98.6368 122.868L99.9136 121.837Z" fill="#070912"/>
<path d="M99.9136 121.837L101.364 120.608C102.545 121.243 102.671 121.753 103.306 122.902C103.073 124.328 103.157 126.104 101.838 126.98C101.304 127.333 100.627 127.564 100.034 127.799C99.8597 129.819 100.195 132.601 98.6668 134.03C98.3551 134.32 97.9355 134.534 97.5758 134.745C97.0483 134.458 96.4548 134.144 96.0291 133.711C95.076 132.741 94.9741 131.318 94.9441 130.043C95.6335 128.284 96.2989 127.24 97.7316 125.98C98.415 125.374 98.4689 123.801 98.6368 122.868L99.9136 121.837Z" fill="#3D3C30"/>
<path d="M97.5758 134.745C97.9355 134.534 98.3551 134.32 98.6668 134.03C100.195 132.601 99.8597 129.819 100.034 127.799C100.339 131.369 100.747 134.592 99.398 138.036L98.8165 138.427C97.6416 137.435 97.7375 136.867 97.6056 135.345C97.5876 135.145 97.5878 134.945 97.5758 134.745Z" fill="#1C1C1A"/>
<path d="M31.5813 128.107C25.8984 127.646 24.7236 129.571 20.1557 131.98C18.8429 132.672 17.9077 132.666 16.529 132.299L15.6658 130.304L13.5077 130.016C17.644 127.946 14.8625 126.604 16.511 123.69C21.1628 122.532 26.8875 123.129 31.7012 123.152L31.5813 128.107Z" fill="#222835"/>
<path d="M70.0006 106.143C70.4862 108.473 70.6541 110.858 72.5603 112.476L76.8764 112.436L79.9156 112.229L80.3832 110.784L81.1266 112.211L82.0797 113.285C82.2955 111.056 81.9179 109.109 83.6143 107.576C83.7402 110.35 82.8889 113.972 83.7042 116.512L84.9031 117.319L83.3325 118.015L80.7788 119.897C79.8017 119.711 79.6939 119.716 79.0045 119.01C76.5947 116.79 70.8878 118.56 67.4769 117.473L66.8235 116.085C67.9745 115.595 69.2153 115.351 70.4262 115.055C70.1085 112.067 70.0186 109.142 70.0006 106.143Z" fill="#070912"/>
<path d="M70.0006 106.143C70.4862 108.473 70.6541 110.858 72.5603 112.476L76.8764 112.436L79.9156 112.229L80.3832 110.784L81.1266 112.211C81.2944 113.821 81.3903 113.883 82.5293 115.048C79.0045 115.645 74.011 115.384 70.4262 115.055C70.1085 112.067 70.0186 109.142 70.0006 106.143Z" fill="#09201E"/>
<path d="M88.3321 107.48L91.8449 107.715L92.6901 110.05L94.1947 112.554C93.5892 115.457 92.5882 115.637 90.2683 117.329C89.1953 118.113 88.2062 118.066 86.9114 118.04L85.4066 117.156L84.9031 117.319L83.7042 116.512C82.8889 113.972 83.7402 110.35 83.6143 107.576L88.3321 107.48Z" fill="#010101"/>
<path d="M92.6901 110.05L94.1947 112.554C93.5892 115.457 92.5882 115.637 90.2683 117.329C89.1953 118.113 88.2062 118.066 86.9114 118.04L85.4066 117.156L85.5685 114.767C86.6416 113.152 89.3271 111.819 91.1734 111.267C91.9767 111.027 92.1506 110.657 92.6901 110.05Z" fill="#323329"/>
<path d="M85.4066 117.156L86.9114 118.04L86.7915 118.448L87.1512 122.546L86.7075 122.856L84.9691 123.272L83.6084 125.878C82.6013 126.016 81.8339 126.067 80.8328 125.88C79.8137 124.997 79.7058 124.337 79.2442 123.088L78.0873 122.577C78.5429 121.468 78.7347 120.18 79.0045 119.01C79.6939 119.716 79.8017 119.711 80.7788 119.897L83.3325 118.015L84.9031 117.319L85.4066 117.156Z" fill="#19191B"/>
<path d="M85.4066 117.156L86.9114 118.04L86.7915 118.448L87.1512 122.546L86.7075 122.856L84.9691 123.272L83.6084 125.878C82.6013 126.016 81.8339 126.067 80.8328 125.88C81.5162 124.329 82.775 123.716 83.6083 122.386C84.4655 121.031 83.6922 119.44 83.3325 118.015L84.9031 117.319L85.4066 117.156Z" fill="#323329"/>
<path d="M78.0873 122.577L79.2442 123.088C79.7058 124.337 79.8137 124.997 80.8328 125.88C81.8339 126.067 82.6013 126.016 83.6084 125.878L84.9691 123.272L86.7075 122.856C86.9653 124.741 87.349 125.644 86.4977 127.376C84.1059 128.806 81.0367 128.477 78.3871 127.864C77.9674 127.768 77.6618 127.612 77.2841 127.421L77.386 122.937L78.0873 122.577Z" fill="#070912"/>
<path d="M91.4732 118.679C93.7691 118.313 94.9441 117.795 97.0901 118.776C97.3299 119.781 97.5278 119.908 96.9703 120.773C96.3288 121.766 95.5854 122.117 94.5363 122.589L92.8459 122.375C92.4922 121.855 92.0966 121.342 91.8269 120.774L91.4732 118.679Z" fill="#1B202C"/>
<path d="M86.7915 118.448C88.3261 118.507 89.9565 118.459 91.4732 118.679L91.8269 120.774C90.586 122.047 90.0585 122.538 88.1822 122.58C87.8405 122.588 87.4928 122.562 87.1512 122.546L86.7915 118.448Z" fill="#19191B"/>
<path d="M99.9136 121.837C100.087 119.945 99.9615 119.257 101.274 117.797C102.629 117.971 102.623 118.109 103.504 119.061L103.786 122.409L103.306 122.902C102.671 121.753 102.545 121.243 101.364 120.608L99.9136 121.837Z" fill="#323329"/>
<path d="M20.911 0.226638L100.171 0.229622C108.929 0.226621 129.857 -0.402864 137.59 0.435494C138.597 1.98139 138.279 2.81554 138.369 4.90274L138.764 4.90692C138.543 6.63945 138.327 8.33661 138.303 10.0871L138.123 10.4094L133.999 10.4316L50.8839 10.3932C41.6822 10.392 24.6935 9.27458 16.1632 10.6446C14.9284 12.1923 16.0854 13.683 14.9344 15.2043C13.5736 15.2085 12.3627 15.2175 11.0319 15.5697C9.58118 20.6143 10.5164 32.4923 10.4804 38.1064C10.3845 63.1516 10.4145 88.1973 10.5763 113.242L10.6422 116.494L10.5463 129.154L10.5523 138.232L5.28901 138.619C5.34296 140.154 5.16315 142.019 5.97841 143.359C5.68468 145.109 5.24705 146.957 5.13915 148.721C3.38873 148.577 1.8122 148.769 0.391486 147.701C-0.321869 139.865 0.157749 131.695 0.157749 123.809L0.163709 35.8338C0.157715 27.659 -0.321848 19.2317 0.481427 11.1055C1.7223 10.5234 2.97522 10.2047 4.29403 9.87045C5.56488 8.34976 5.22917 7.24498 5.27113 5.29821L8.95175 4.89792C10.4804 3.32262 10.0368 2.90496 10.3665 0.18165L20.911 0.226638Z" fill="#546974"/>
<path d="M5.27113 5.29821C7.14144 5.45364 8.72991 5.24961 10.2525 6.40303C10.5762 7.8169 10.6603 8.56825 10.0308 9.8981C8.56814 10.7113 7.29729 10.5468 5.68475 10.4838C4.31798 14.2675 5.33697 125.148 5.28901 138.619C5.34296 140.154 5.16315 142.019 5.97841 143.359C5.68468 145.109 5.24705 146.957 5.13915 148.721C3.38873 148.577 1.8122 148.769 0.391486 147.701C-0.321869 139.865 0.157749 131.695 0.157749 123.809L0.163709 35.8338C0.157715 27.659 -0.321848 19.2317 0.481427 11.1055C1.7223 10.5234 2.97522 10.2047 4.29403 9.87045C5.56488 8.34976 5.22917 7.24498 5.27113 5.29821Z" fill="#010101"/>
<path d="M20.911 0.226638L100.171 0.229622C108.929 0.226621 129.857 -0.402864 137.59 0.435494C138.597 1.98139 138.279 2.81554 138.369 4.90274C121.764 5.81611 96.9343 5.11517 79.6639 5.09116C57.9515 5.06116 32.9361 5.7909 11.6133 5.04676C10.4204 3.96296 10.6183 2.18963 10.3665 0.18165L20.911 0.226638Z" fill="#010101"/>
<path d="M20.5692 24.7593L21.1447 22.9433C24.226 22.021 32.8162 21.5997 35.5977 23.211C37.4021 24.2552 40.6691 27.2594 41.85 29.0015L43.5045 29.6844L45.1291 30.9902L46.1901 26.154C47.401 26.7775 47.3771 27.4844 48.2103 28.0737C50.9199 29.9899 55.5897 25.8575 57.1782 30.2347C57.2921 30.5462 57.3041 30.638 57.358 30.9267C58.0474 30.9147 59.4801 30.7124 60.1036 30.8804C63.2388 31.723 66.6796 38.4137 70.4142 35.9142C70.5521 34.6875 70.702 33.461 70.8579 32.2361L71.0196 35.0758C71.8229 36.7717 73.2197 36.8348 73.4295 38.5601C73.3576 38.6621 73.2736 38.7599 73.2077 38.8655C70.8278 42.5058 73.1118 48.9606 71.8769 53.2851L70.8878 54.3161C71.2894 55.08 71.7031 55.8386 72.0807 56.6175L72.0687 58.9826L71.679 65.8388L71.805 67.0559L70.4862 67.8846C70.5821 67.9338 70.678 67.9812 70.7739 68.0316C71.4872 68.4061 71.9549 68.6894 72.4704 69.3135C73.2916 70.3085 74.1968 70.4057 75.4197 70.5035C75.9472 70.5443 76.4807 70.5761 77.0083 70.5977C77.6737 71.4409 78.2132 71.9228 79.1544 72.4413C80.5751 73.2203 81.6121 74.3497 82.7391 75.4941C81.4922 76.4561 80.653 77.0418 79.0644 77.2309L79.0884 77.4637C77.6737 77.6857 75.9352 77.7619 74.6824 78.4874L72.7941 78.1106C72.2006 82.6781 72.4224 87.3673 72.4704 91.9678C70.69 92.0776 68.9336 91.9456 67.1652 91.8328L64.4676 92.0044L61.5242 92.233L61.5722 87.2911L62.6393 86.9533L61.5842 86.4138L61.9439 84.2179L60.9848 82.3048L61.1706 81.9015C59.2224 81.8181 57.8316 82.0828 56.3329 80.7379C56.6446 78.005 57.3401 74.1906 55.7395 71.8495C55.0681 71.7109 54.3608 71.5909 53.7134 71.3761C51.945 70.794 51.5252 68.5772 50.7879 66.9857L48.6299 66.4215C48.4381 64.8132 47.8206 63.2008 48.8217 61.8877L50.8539 62.6319C51.0098 62.0173 50.8479 61.8847 50.6321 61.308C49.7868 61.1298 48.8997 60.8843 48.1743 60.4018C43.1209 57.0604 43.9541 53.9902 42.5993 48.9733C41.5503 45.1025 41.4723 40.5885 41.0467 36.5785C40.5791 36.129 40.1716 35.7894 39.5901 35.5037C38.4032 34.918 34.9923 29.0111 30.4124 26.5795C27.6549 25.1122 24.9573 25.4944 21.936 25.6907L20.5692 24.7593Z" fill="#3D3C30"/>
<path d="M46.1901 26.154C47.401 26.7775 47.3771 27.4844 48.2103 28.0737C50.9199 29.9899 55.5897 25.8575 57.1782 30.2347C57.2921 30.5462 57.3041 30.638 57.358 30.9267C58.0474 30.9147 59.4801 30.7124 60.1036 30.8804C63.2388 31.723 66.6796 38.4137 70.4142 35.9142C70.5521 34.6875 70.702 33.461 70.8579 32.2361L71.0196 35.0758C71.8229 36.7717 73.2197 36.8348 73.4295 38.5601C73.3576 38.6621 73.2736 38.7599 73.2077 38.8655C70.8278 42.5058 73.1118 48.9606 71.8769 53.2851L70.8878 54.3161C71.2894 55.08 71.7031 55.8386 72.0807 56.6175L72.0687 58.9826C70.0185 58.9736 68.0403 58.8109 66.0022 58.5889C64.8152 58.5415 63.8202 58.5295 62.8071 57.8459C61.6502 57.067 60.3073 56.1878 58.9465 55.8326C57.304 55.4077 55.7395 55.8758 54.3548 56.7658L53.2158 59.1524C51.3335 57.7457 51.4354 56.4357 50.4403 54.3803L47.365 53.8462C45.105 51.043 43.4325 33.7652 43.5045 29.6844L45.1291 30.9902L46.1901 26.154Z" fill="#1D201A"/>
<path d="M57.358 30.9267C58.0474 30.9147 59.4801 30.7124 60.1036 30.8804C63.2388 31.723 66.6796 38.4137 70.4142 35.9142C70.5521 34.6875 70.702 33.461 70.8579 32.2361L71.0196 35.0758C71.8229 36.7717 73.2197 36.8348 73.4295 38.5601C73.3576 38.6621 73.2736 38.7599 73.2077 38.8655C70.8278 42.5058 73.1118 48.9606 71.8769 53.2851C71.4513 52.9754 71.1876 52.4659 70.8938 52.0362C69.611 51.3941 68.3402 50.746 67.0693 50.0913C65.7085 47.8661 61.0148 43.8843 58.6229 43.1882C57.0763 40.4277 53.7373 41.7491 51.0817 40.5633L50.7101 38.3741C49.3493 37.4037 48.8817 36.3613 48.2463 34.8778C47.9106 34.0911 48.0964 34.106 48.3961 33.3541C50.5782 32.2187 53.3297 32.4641 55.7455 32.4407L60.1935 32.3453L57.358 30.9267Z" fill="#1C542F"/>
<path d="M57.358 30.9267C58.0474 30.9147 59.4801 30.7124 60.1036 30.8804C63.2388 31.723 66.6796 38.4137 70.4142 35.9142C70.5521 34.6875 70.702 33.461 70.8579 32.2361L71.0196 35.0758C71.8229 36.7717 73.2197 36.8348 73.4295 38.5601C73.3576 38.6621 73.2736 38.7599 73.2077 38.8655C70.8278 42.5058 73.1118 48.9606 71.8769 53.2851C71.4513 52.9754 71.1876 52.4659 70.8938 52.0362C70.9478 51.9468 71.0017 51.8604 71.0497 51.7686C71.781 50.3775 72.1346 49.1461 71.697 47.6596C70.2044 47.1567 69.0474 46.7979 67.9265 45.6079C67.4589 43.1984 66.7635 41.0038 65.133 39.105L63.1668 38.9754C62.7232 37.3347 62.7232 36.7364 61.3444 35.6496C59.636 35.3363 58.2512 35.7174 56.6027 36.1183L55.8295 33.2347L55.7455 32.4407L60.1935 32.3453L57.358 30.9267Z" fill="#0E2F2A"/>
<path d="M56.6027 36.1183C58.2512 35.7174 59.636 35.3363 61.3444 35.6496C62.7232 36.7364 62.7232 37.3347 63.1668 38.9754L62.975 39.5581L64.2818 40.6257C64.1679 40.7266 64.06 40.8345 63.9401 40.9282C60.3853 43.7217 56.9085 37.8052 54.109 37.6509C53.3956 37.6113 53.1259 37.4475 52.5204 37.0857L53.2938 36.3211C54.3788 36.4321 55.5237 36.2293 56.6027 36.1183Z" fill="#407F4A"/>
<path d="M53.2938 36.3211C51.7292 35.7162 50.2125 35.3345 49.2473 33.8768C50.9798 32.8818 53.8393 33.2305 55.8295 33.2347L56.6027 36.1183C55.5237 36.2293 54.3788 36.4321 53.2938 36.3211Z" fill="#4C8358"/>
<path d="M58.6229 43.1882C61.0148 43.8843 65.7085 47.8661 67.0693 50.0913C68.3402 50.746 69.611 51.3941 70.8938 52.0362C71.1876 52.4659 71.4513 52.9754 71.8769 53.2851L70.8878 54.3161C71.2894 55.08 71.7031 55.8386 72.0807 56.6175L72.0687 58.9826C70.0185 58.9736 68.0403 58.8109 66.0022 58.5889C64.8152 58.5415 63.8202 58.5295 62.8071 57.8459C61.6502 57.067 60.3073 56.1878 58.9465 55.8326C57.304 55.4077 55.7395 55.8758 54.3548 56.7658L53.9231 53.4027C51.891 51.1469 51.4774 49.3849 50.9798 46.4972C51.4534 45.0785 51.3934 45.0269 52.7062 44.3332C54.2648 44.482 55.4697 44.8583 56.9084 45.4687L58.6229 43.1882Z" fill="#2A5243"/>
<path d="M67.0693 50.0913C68.3402 50.746 69.611 51.3941 70.8938 52.0362C71.1876 52.4659 71.4513 52.9754 71.8769 53.2851L70.8878 54.3161C71.2894 55.08 71.7031 55.8386 72.0807 56.6175L72.0687 58.9826C70.0185 58.9736 68.0403 58.8109 66.0022 58.5889C66.2599 56.1302 66.3378 53.8348 66.176 51.3671L67.0693 50.0913Z" fill="#0E2F2A"/>
<path d="M58.6229 43.1882C61.0148 43.8843 65.7085 47.8661 67.0693 50.0913L66.176 51.3671C62.4054 51.1853 61.0926 49.2986 57.8855 47.5672L57.4001 47.3086L56.9084 45.4687L58.6229 43.1882Z" fill="#09201E"/>
<path d="M46.1901 26.154C47.401 26.7775 47.3771 27.4844 48.2103 28.0737C50.9199 29.9899 55.5897 25.8575 57.1782 30.2347C57.2921 30.5462 57.3041 30.638 57.358 30.9267L60.1935 32.3453L55.7455 32.4407C53.3297 32.4641 50.5782 32.2187 48.3961 33.3541C48.0964 34.106 47.9106 34.0911 48.2463 34.8778C48.8817 36.3613 49.3493 37.4037 50.7101 38.3741L51.0817 40.5633C49.4452 41.1514 47.443 41.8613 45.7645 41.2846C44.062 39.0858 44.9973 33.77 45.1291 30.9902L46.1901 26.154Z" fill="#09201E"/>
<path d="M48.6299 66.4215C48.4381 64.8132 47.8206 63.2008 48.8217 61.8877L50.8539 62.6319C53.1978 66.343 57.7597 65.2855 60.8169 67.3955C62.5853 68.6143 60.697 70.3751 62.933 71.7236C68.8497 71.6684 70.8219 71.3239 75.5517 75.5547C76.0132 75.9646 76.2829 76.372 76.6186 76.8797L79.0644 77.2309L79.0884 77.4637C77.6737 77.6857 75.9352 77.7619 74.6824 78.4874L72.7941 78.1106C72.2006 82.6781 72.4224 87.3673 72.4704 91.9678C70.69 92.0776 68.9336 91.9456 67.1652 91.8328L64.4676 92.0044L61.5242 92.233L61.5722 87.2911L62.6393 86.9533L61.5842 86.4138L61.9439 84.2179L60.9848 82.3048L61.1706 81.9015C59.2224 81.8181 57.8316 82.0828 56.3329 80.7379C56.6446 78.005 57.3401 74.1906 55.7395 71.8495C55.0681 71.7109 54.3608 71.5909 53.7134 71.3761C51.945 70.794 51.5252 68.5772 50.7879 66.9857L48.6299 66.4215Z" fill="#0B1211"/>
<path d="M62.6393 86.9533C64.4376 87.1717 65.7505 86.9196 66.9734 88.3347L67.1652 91.8328L64.4676 92.0044L61.5242 92.233L61.5722 87.2911L62.6393 86.9533Z" fill="#334F4F"/>
<path d="M61.1706 81.9015C61.5123 79.7141 61.4284 78.1886 63.023 76.5659L63.8981 76.8078C64.6894 78.9124 64.8273 81.3476 63.9221 83.4366L61.9439 84.2179L60.9848 82.3048L61.1706 81.9015Z" fill="#323329"/>
<path d="M66.7096 76.7916L68.0944 77.1378C68.8977 78.6513 68.4 79.9259 68.1842 81.5888C67.9385 81.446 67.8546 81.4178 67.6328 81.182C66.5418 80.0226 66.7876 78.2864 66.7096 76.7916Z" fill="#1C1C1A"/>
<path d="M54.3548 56.7658C55.7395 55.8758 57.304 55.4077 58.9465 55.8326C60.3073 56.1878 61.6502 57.067 62.8071 57.8459C63.8202 58.5295 64.8152 58.5415 66.0022 58.5889C68.0403 58.8109 70.0185 58.9736 72.0687 58.9826L71.679 65.8388L71.805 67.0559L70.4862 67.8846C65.6066 65.1049 60.1575 63.0951 55.3259 60.1486C54.2109 60.1216 54.061 59.8323 53.2158 59.1524L54.3548 56.7658Z" fill="#101622"/>
<path d="M55.3259 60.1486C58.7009 58.9411 66.7096 60.7997 69.8268 62.4404C71.1696 63.1467 71.2894 64.5156 71.679 65.8388L71.805 67.0559L70.4862 67.8846C65.6066 65.1049 60.1575 63.0951 55.3259 60.1486Z" fill="#19191B"/>
<path d="M79.7238 26.1852L81.5522 25.276C81.9059 23.9857 82.3255 22.7663 82.8231 21.5265C84.3817 20.8376 85.8442 20.2927 87.4868 19.8402C88.0143 18.4551 87.9305 18.0272 89.3392 17.4145C94.7703 15.0561 102 15.0927 107.755 15.6898C107.785 19.2233 107.143 33.9776 108.468 35.8224L108.792 35.9634C109.031 37.3221 109.637 38.8896 108.822 40.1192C108.738 40.244 108.6 40.3202 108.486 40.4211C109.025 41.6357 109.427 42.5839 109.511 43.9198L108.39 44.8499C108.366 46.8495 108.498 47.5426 107.323 49.2415C105.938 48.7404 105.579 49.0075 104.308 49.613C102.413 50.5186 100.525 52.2073 99.1403 53.7748L100.861 54.3263C99.7158 56.2047 99.4281 55.1737 97.8455 56.1554C97.1381 56.5983 93.2416 61.3488 92.9059 62.0906C92.4563 63.0958 92.6601 64.8157 92.3484 65.9457C91.2034 66.1353 89.3632 66.1935 88.44 66.8795C87.2411 67.791 87.3909 67.9002 87.1751 69.3207L86.6296 69.4311L85.0351 66.6892L83.0808 66.8333L83.1108 69.5554C81.0726 69.8806 79.0404 70.2281 77.0083 70.5977C76.4807 70.5761 75.9472 70.5443 75.4197 70.5035C74.1968 70.4057 73.2916 70.3085 72.4704 69.3135C71.9549 68.6894 71.4872 68.4061 70.7739 68.0316C70.678 67.9812 70.5821 67.9338 70.4862 67.8846L71.805 67.0559L71.679 65.8388L72.0687 58.9826L72.0807 56.6175C71.7031 55.8386 71.2894 55.08 70.8878 54.3161L71.8769 53.2851C73.1118 48.9606 70.8278 42.5058 73.2077 38.8655C73.2736 38.7599 73.3576 38.6621 73.4295 38.5601C73.2197 36.8348 71.8229 36.7717 71.0196 35.0758C72.3325 34.2129 73.6813 33.7118 75.144 33.1759C76.1691 32.3574 76.3789 31.702 76.7506 30.4652C76.1032 28.6102 75.5276 28.1925 74.0829 26.9485L76.6186 25.3144L79.7238 26.1852Z" fill="#09201E"/>
<path d="M76.6186 25.3144L79.7238 26.1852C80.7129 26.22 82.3554 26.0196 83.0388 26.7019C83.7222 27.3794 83.8181 28.2178 83.9799 29.1246L84.2617 29.1299L84.5556 29.6394C86.3419 31.8863 85.1429 31.5574 88.2841 32.562L89.549 31.8803L90.0285 29.5584L92.4323 29.8447L93.0198 30.9477C92.9419 33.2125 88.7577 41.5541 87.319 43.5219L87.343 45.4566C87.2111 45.543 87.0793 45.6276 86.9534 45.7153C85.7845 46.5152 85.119 47.0925 84.5076 48.3726C84.8792 49.5536 85.0711 50.1333 86.192 50.8306C86.3299 50.9164 86.4798 50.9741 86.6236 51.0461C86.0242 52.1503 85.8024 53.1248 84.5255 53.5179C83.9081 53.7075 83.2906 53.7376 82.6492 53.7892L82.6911 54.4379C80.4551 59.2856 79.0225 61.4532 79.3282 66.9347L80.0835 68.7818L83.1108 69.5554C81.0726 69.8806 79.0404 70.2281 77.0083 70.5977C76.4807 70.5761 75.9472 70.5443 75.4197 70.5035C74.1968 70.4057 73.2916 70.3085 72.4704 69.3135C71.9549 68.6894 71.4872 68.4061 70.7739 68.0316C70.678 67.9812 70.5821 67.9338 70.4862 67.8846L71.805 67.0559L71.679 65.8388L72.0687 58.9826L72.0807 56.6175C71.7031 55.8386 71.2894 55.08 70.8878 54.3161L71.8769 53.2851C73.1118 48.9606 70.8278 42.5058 73.2077 38.8655C73.2736 38.7599 73.3576 38.6621 73.4295 38.5601C73.2197 36.8348 71.8229 36.7717 71.0196 35.0758C72.3325 34.2129 73.6813 33.7118 75.144 33.1759C76.1691 32.3574 76.3789 31.702 76.7506 30.4652C76.1032 28.6102 75.5276 28.1925 74.0829 26.9485L76.6186 25.3144Z" fill="#1E3C2E"/>
<path d="M76.6186 25.3144L79.7238 26.1852C80.7129 26.22 82.3554 26.0196 83.0388 26.7019C83.7222 27.3794 83.8181 28.2178 83.9799 29.1246L81.6121 29.8567C81.4083 32.2644 81.6061 33.4634 80.1135 35.4071C79.2443 35.7504 78.363 36.0756 77.5237 36.4975C76.133 42.7129 79.3042 50.3205 76.4448 55.9616C74.8682 56.8383 73.8671 56.6331 72.0807 56.6175C71.7031 55.8386 71.2894 55.08 70.8878 54.3161L71.8769 53.2851C73.1118 48.9606 70.8278 42.5058 73.2077 38.8655C73.2736 38.7599 73.3576 38.6621 73.4295 38.5601C73.2197 36.8348 71.8229 36.7717 71.0196 35.0758C72.3325 34.2129 73.6813 33.7118 75.144 33.1759C76.1691 32.3574 76.3789 31.702 76.7506 30.4652C76.1032 28.6102 75.5276 28.1925 74.0829 26.9485L76.6186 25.3144Z" fill="#101622"/>
<path d="M90.0285 29.5584L92.4323 29.8447L93.0198 30.9477C92.9419 33.2125 88.7577 41.5541 87.319 43.5219C85.6285 42.7171 84.3816 43.106 82.6492 43.5015L82.0257 43.4337C82.4873 42.2029 82.3195 40.921 82.2715 39.6284C86.192 38.649 84.5555 36.0613 87.4568 34.4416C87.5408 34.3954 87.6246 34.3569 87.7086 34.3143L88.2841 32.562L89.549 31.8803L90.0285 29.5584Z" fill="#1B4F3A"/>
<path d="M83.9799 29.1246L84.2617 29.1299L84.5556 29.6394C86.3419 31.8863 85.1429 31.5574 88.2841 32.562L87.7086 34.3143C87.6246 34.3569 87.5408 34.3954 87.4568 34.4416C84.5555 36.0613 86.192 38.649 82.2715 39.6284L80.3893 38.7617L80.3772 37.4282C80.5091 37.25 80.647 37.0766 80.7729 36.8941C82.3195 34.6209 82.0737 32.4132 81.6121 29.8567L83.9799 29.1246Z" fill="#407F4A"/>
<path d="M82.6492 43.5015C84.3816 43.106 85.6285 42.7171 87.319 43.5219L87.343 45.4566C87.2111 45.543 87.0793 45.6276 86.9534 45.7153C85.7845 46.5152 85.119 47.0925 84.5076 48.3726C84.8792 49.5536 85.0711 50.1333 86.192 50.8306C86.3299 50.9164 86.4798 50.9741 86.6236 51.0461C86.0242 52.1503 85.8024 53.1248 84.5255 53.5179C83.9081 53.7075 83.2906 53.7376 82.6492 53.7892V43.5015Z" fill="#1A4131"/>
<path d="M71.805 67.0559C74.3168 67.2017 76.8224 67.0517 79.3282 66.9347L80.0835 68.7818L83.1108 69.5554C81.0726 69.8806 79.0404 70.2281 77.0083 70.5977C76.4807 70.5761 75.9472 70.5443 75.4197 70.5035C74.1968 70.4057 73.2916 70.3085 72.4704 69.3135C71.9549 68.6894 71.4872 68.4061 70.7739 68.0316C70.678 67.9812 70.5821 67.9338 70.4862 67.8846L71.805 67.0559Z" fill="#09201E"/>
<path d="M80.3893 38.7617L82.2715 39.6284C82.3195 40.921 82.4873 42.2029 82.0257 43.4337C81.8879 43.3479 81.7499 43.2733 81.624 43.1755C80.2873 42.1379 80.5331 40.3256 80.3893 38.7617Z" fill="#4C8358"/>
<path d="M74.5325 60.9648C75.3897 61.1352 76.187 61.4281 77.0142 61.7059C77.7875 63.3172 77.1881 64.3218 76.7805 66.0099C75.8693 65.9847 75.5516 65.6042 74.8202 65.1109C74.005 63.6106 74.2508 62.5551 74.5325 60.9648Z" fill="#2A5243"/>
<path d="M107.161 41.0464L108.486 40.4211C109.025 41.6357 109.427 42.5839 109.511 43.9198L108.39 44.8499C108.366 46.8495 108.498 47.5426 107.323 49.2415C105.938 48.7404 105.579 49.0075 104.308 49.613C102.413 50.5186 100.525 52.2073 99.1403 53.7748L100.861 54.3263C99.7158 56.2047 99.4281 55.1737 97.8455 56.1554C97.1381 56.5983 93.2416 61.3488 92.9059 62.0906C92.4563 63.0958 92.6601 64.8157 92.3484 65.9457C91.2034 66.1353 89.3632 66.1935 88.44 66.8795C87.2411 67.791 87.3909 67.9002 87.1751 69.3207L86.6296 69.4311L85.0351 66.6892L83.0808 66.8333L83.1108 69.5554L80.0835 68.7818L79.3282 66.9347C79.0225 61.4532 80.4551 59.2856 82.6911 54.4379L82.6492 53.7892C83.2906 53.7376 83.9081 53.7075 84.5255 53.5179C85.8024 53.1248 86.0242 52.1503 86.6236 51.0461C87.9485 51.1589 89.1773 51.1871 90.5021 51.0622C91.9888 49.6598 91.5872 48.4656 92.5463 46.8753C93.1757 45.8329 94.2307 45.9667 95.3397 45.7735C96.4427 46.2512 97.5578 46.8225 98.7087 47.1699C99.9316 46.6148 101.568 46.4816 102.455 45.4158L105.441 45.1188C106.879 44.0128 106.777 42.7657 107.161 41.0464Z" fill="#010101"/>
<path d="M82.6911 54.4379C84.9451 54.1481 87.6307 53.515 89.8367 54.1265L90.8857 55.2661C90.8078 55.3783 90.7299 55.4917 90.6459 55.6021C90.0345 56.4309 89.5669 56.9878 88.6738 57.4991C86.5756 58.6922 84.052 61.053 83.4585 63.4606C83.1947 64.5528 83.0748 65.7105 83.0808 66.8333L83.1108 69.5554L80.0835 68.7818L79.3282 66.9347C79.0225 61.4532 80.4551 59.2856 82.6911 54.4379Z" fill="#101622"/>
<path d="M86.6236 51.0461C87.9485 51.1589 89.1773 51.1871 90.5021 51.0622C91.9888 49.6598 91.5872 48.4656 92.5463 46.8753C93.1757 45.8329 94.2307 45.9667 95.3397 45.7735C96.4427 46.2512 97.5578 46.8225 98.7087 47.1699L98.3849 47.6812C97.186 49.6328 96.6824 51.3635 96.2628 53.6002C96.1009 53.6344 95.9332 53.6656 95.7713 53.7022C95.1839 53.833 94.6443 54.01 94.0808 54.2147L93.9489 54.4775L91.5511 54.4769L90.8857 55.2661L89.8367 54.1265C87.6307 53.515 84.9451 54.1481 82.6911 54.4379L82.6492 53.7892C83.2906 53.7376 83.9081 53.7075 84.5255 53.5179C85.8024 53.1248 86.0242 52.1503 86.6236 51.0461Z" fill="#052123"/>
<path d="M90.8857 55.2661L91.5511 54.4769L93.9489 54.4775C93.3375 55.7462 92.7261 56.9278 92.3245 58.281C92.1386 58.9015 85.9103 65.6198 85.0351 66.6892L83.0808 66.8333C83.0748 65.7105 83.1947 64.5528 83.4585 63.4606C84.052 61.053 86.5756 58.6922 88.6738 57.4991C89.5669 56.9878 90.0345 56.4309 90.6459 55.6021C90.7299 55.4917 90.8078 55.3783 90.8857 55.2661Z" fill="#2A303B"/>
<path d="M95.3697 25.2664C96.2988 25.546 97.3359 25.5628 97.8035 26.472C99.3261 29.421 96.0051 34.1264 100.189 35.7828C100.681 35.9772 101.202 36.1117 101.712 36.2527C100.171 36.3979 99.338 36.2016 98.205 37.3773C98.217 38.8811 98.5648 41.5486 97.4678 42.7081C97.0002 43.2014 96.4606 43.6184 95.9211 44.0259L95.3397 45.7735C94.2307 45.9667 93.1757 45.8329 92.5463 46.8753C91.5872 48.4656 91.9888 49.6598 90.5021 51.0622C89.1773 51.1871 87.9485 51.1589 86.6236 51.0461C86.4798 50.9741 86.3299 50.9164 86.192 50.8306C85.0711 50.1333 84.8792 49.5536 84.5076 48.3726C85.119 47.0925 85.7845 46.5152 86.9534 45.7153C87.0793 45.6276 87.2111 45.543 87.343 45.4566L87.319 43.5219C88.7577 41.5541 92.9419 33.2125 93.0198 30.9477L92.4323 29.8447C92.3903 28.8011 92.1686 27.3025 92.7201 26.3754C93.1397 25.6618 94.5604 25.4944 95.3697 25.2664Z" fill="#407F4A"/>
<path d="M92.4323 29.8447C92.3903 28.8011 92.1686 27.3025 92.7201 26.3754C93.1397 25.6618 94.5604 25.4944 95.3697 25.2664C95.3517 27.2984 95.5795 28.3737 94.5185 30.1381L93.0198 30.9477L92.4323 29.8447Z" fill="#326D3E"/>
<path d="M84.2617 29.1299L84.4655 26.9617C88.5478 23.6767 95.3577 19.1236 100.615 18.4341L101.454 18.853C102.305 24.4526 101.772 30.584 101.712 36.2527C101.202 36.1117 100.681 35.9772 100.189 35.7828C96.0051 34.1264 99.3261 29.421 97.8035 26.472C97.3359 25.5628 96.2988 25.546 95.3697 25.2664C94.5604 25.4944 93.1397 25.6618 92.7201 26.3754C92.1686 27.3025 92.3903 28.8011 92.4323 29.8447L90.0285 29.5584L89.549 31.8803L88.2841 32.562C85.1429 31.5574 86.3419 31.8863 84.5556 29.6394L84.2617 29.1299Z" fill="#498D56"/>
<path d="M84.5556 29.6394C86.3779 29.6136 88.2061 29.6106 90.0285 29.5584L89.549 31.8803L88.2841 32.562C85.1429 31.5574 86.3419 31.8863 84.5556 29.6394Z" fill="#4C8358"/>
<path d="M102.455 45.4158L103.073 42.1158C104.463 40.7247 105.243 41.0818 107.161 41.0464C106.777 42.7657 106.879 44.0128 105.441 45.1188L102.455 45.4158Z" fill="#2A303B"/>
<path d="M100.861 54.3263C106.472 52.9245 114.756 54.2237 120.649 54.3713L128.819 54.4769L129.173 54.9024L128.316 56.9944C129.023 57.4019 130.03 58.1466 130.804 58.3284L129.815 59.3937C129.845 63.1516 130.528 68.495 128.951 71.9109L126.847 73.3469C126.757 74.5903 126.709 75.7227 126.859 76.9631L125.492 75.4341C123.688 75.5937 122.681 75.143 121.146 74.3022C120.283 73.8299 119.372 74.1048 118.401 74.1792L118.527 72.8398L117.214 72.2145L116.788 70.5395C114.78 71.3653 114.696 71.8976 113.815 73.9002L113.281 74.0226C110.962 74.5903 110.236 74.4961 108.672 76.3834C108.528 76.4819 108.39 76.5851 108.246 76.6787C106.268 77.9587 104.38 76.3894 103.085 78.7221C103.085 80.1935 103.097 81.665 103.115 83.1359L102.953 85.978C102.03 84.9896 101.574 83.7522 100.561 82.8106C99.7277 82.0383 98.2291 82.396 97.1081 82.435C92.84 82.6102 93.2836 79.1788 89.7948 78.6831L89.7707 78.4359L92.762 77.4607L93.4394 77.4835L92.768 75.0764L92.798 72.5596C91.6411 70.5342 92.1446 68.1667 92.3484 65.9457C92.6601 64.8157 92.4563 63.0958 92.9059 62.0906C93.2416 61.3488 97.1381 56.5983 97.8455 56.1554C99.4281 55.1737 99.7158 56.2047 100.861 54.3263Z" fill="#323329"/>
<path d="M107.557 63.271C112.298 63.2344 117.717 62.6859 122.369 63.4979L122.201 66.6971L118.862 66.9287C118.203 68.1332 117.586 69.4251 116.788 70.5395C114.78 71.3653 114.696 71.8976 113.815 73.9002L113.281 74.0226C110.962 74.5903 110.236 74.4961 108.672 76.3834C108.528 76.4819 108.39 76.5851 108.246 76.6787C106.268 77.9587 104.38 76.3894 103.085 78.7221C103.085 80.1935 103.097 81.665 103.115 83.1359L102.953 85.978C102.03 84.9896 101.574 83.7522 100.561 82.8106C99.7277 82.0383 98.2291 82.396 97.1081 82.435C92.84 82.6102 93.2836 79.1788 89.7948 78.6831L89.7707 78.4359L92.762 77.4607L93.4394 77.4835L92.768 75.0764L92.798 72.5596C98.4329 71.0329 98.8226 66.9395 102.311 66.2212L102.239 65.6925L102.197 64.9441C102.245 64.8691 102.287 64.7881 102.347 64.7185C103.672 63.1156 105.656 63.3346 107.557 63.271Z" fill="#326D3E"/>
<path d="M92.768 75.0764C92.8399 75.0806 92.9118 75.0746 92.9837 75.0884C95.3756 75.5637 98.9425 76.4381 101.19 75.0776C102.671 74.1798 102.581 73.3301 102.935 71.723L102.923 73.9416L103.253 75.6783C104.859 76.7303 106.819 76.4218 108.672 76.3834C108.528 76.4819 108.39 76.5851 108.246 76.6787C106.268 77.9587 104.38 76.3894 103.085 78.7221C103.085 80.1935 103.097 81.665 103.115 83.1359L102.953 85.978C102.03 84.9896 101.574 83.7522 100.561 82.8106C99.7277 82.0383 98.2291 82.396 97.1081 82.435C92.84 82.6102 93.2836 79.1788 89.7948 78.6831L89.7707 78.4359L92.762 77.4607L93.4394 77.4835L92.768 75.0764Z" fill="#1B4F3A"/>
<path d="M92.762 77.4607L93.4394 77.4835C94.9141 77.4865 96.4366 77.5699 97.9053 77.427L97.1081 82.435C92.84 82.6102 93.2836 79.1788 89.7948 78.6831L89.7707 78.4359L92.762 77.4607Z" fill="#1D201A"/>
<path d="M97.9053 77.427C99.8895 78.3914 100.057 79.0702 100.975 80.9809C101.502 82.0785 102.084 82.519 103.115 83.1359L102.953 85.978C102.03 84.9896 101.574 83.7522 100.561 82.8106C99.7277 82.0383 98.2291 82.396 97.1081 82.435L97.9053 77.427Z" fill="#1A4131"/>
<path d="M102.935 71.723C106.184 71.5597 109.871 71.0274 113.048 71.8214C113.671 72.6777 113.719 72.841 113.815 73.9002L113.281 74.0226C110.962 74.5903 110.236 74.4961 108.672 76.3834C106.819 76.4218 104.859 76.7303 103.253 75.6783L102.923 73.9416L102.935 71.723Z" fill="#1F3E28"/>
<path d="M102.923 73.9416C106.214 73.9854 110.068 73.5827 113.281 74.0226C110.962 74.5903 110.236 74.4961 108.672 76.3834C106.819 76.4218 104.859 76.7303 103.253 75.6783L102.923 73.9416Z" fill="#1A4131"/>
<path d="M118.862 66.9287C115.32 66.8633 111.705 66.9467 108.192 66.445L107.838 65.2592C110.104 62.9721 118.97 63.7697 122.369 63.4979L122.201 66.6971L118.862 66.9287Z" fill="#498D56"/>
<path d="M102.197 64.9441C102.245 64.8691 102.287 64.7881 102.347 64.7185C103.672 63.1156 105.656 63.3346 107.557 63.271L107.005 65.5898C105.351 66.508 104.182 66.2506 102.311 66.2212L102.239 65.6925L102.197 64.9441Z" fill="#1A4131"/>
<path d="M120.895 60.5729C123.916 60.3496 126.835 59.9116 129.815 59.3937C129.845 63.1516 130.528 68.495 128.951 71.9109L126.847 73.3469C126.757 74.5903 126.709 75.7227 126.859 76.9631L125.492 75.4341C123.688 75.5937 122.681 75.143 121.146 74.3022C120.283 73.8299 119.372 74.1048 118.401 74.1792L118.527 72.8398L117.214 72.2145L116.788 70.5395C117.586 69.4251 118.203 68.1332 118.862 66.9287L122.201 66.6971L122.369 63.4979C117.717 62.6859 112.298 63.2344 107.557 63.271C105.656 63.3346 103.672 63.1156 102.347 64.7185C102.287 64.7881 102.245 64.8691 102.197 64.9441L102 63.2302L102.569 61.2534C105.8 58.9844 110.296 60.7691 114.025 60.9881C116.279 61.1208 118.653 60.7865 120.895 60.5729Z" fill="#09201E"/>
<path d="M122.201 66.6971C122.159 68.5016 122.303 69.5584 121.002 71.0227C120.409 71.6888 119.3 72.4023 118.527 72.8398L117.214 72.2145L116.788 70.5395C117.586 69.4251 118.203 68.1332 118.862 66.9287L122.201 66.6971Z" fill="#4C8358"/>
<path d="M100.861 54.3263C106.472 52.9245 114.756 54.2237 120.649 54.3713C115.451 54.8802 101.16 53.3115 97.9053 57.6461C97.2219 58.5559 97.4318 59.1752 97.4978 60.2266C98.5109 61.3698 98.8105 61.368 100.315 61.7353L101.496 61.242L102.15 59.3877C107.143 57.9312 114.834 58.9315 120.067 58.9315L120.895 60.5729C118.653 60.7865 116.279 61.1208 114.025 60.9881C110.296 60.7691 105.8 58.9844 102.569 61.2534L102 63.2302L102.197 64.9441L102.239 65.6925L102.311 66.2212C98.8226 66.9395 98.4329 71.0329 92.798 72.5596C91.6411 70.5342 92.1446 68.1667 92.3484 65.9457C92.6601 64.8157 92.4563 63.0958 92.9059 62.0906C93.2416 61.3488 97.1381 56.5983 97.8455 56.1554C99.4281 55.1737 99.7158 56.2047 100.861 54.3263Z" fill="#1D201A"/>
<path d="M102.239 65.6925C101.208 66.0286 100.027 66.1155 98.9484 66.2829C97.5637 65.7176 97.4977 65.774 96.8863 64.4208C97.2879 62.9241 97.3239 62.8689 98.5767 61.9627C100.255 62.1547 100.633 62.252 102 63.2302L102.197 64.9441L102.239 65.6925Z" fill="#19191B"/>
<path d="M120.067 58.9315C120.055 58.5601 120.295 58.038 120.415 57.6797C122.543 57.1834 125.037 55.5949 127.111 55.6699L128.316 56.9944C129.023 57.4019 130.03 58.1466 130.804 58.3284L129.815 59.3937C126.835 59.9116 123.916 60.3496 120.895 60.5729L120.067 58.9315Z" fill="#19191B"/>
<path d="M30.3524 80.2668L30.6762 81.5504C31.977 82.0209 33.1099 82.0917 34.4827 82.1211L37.0004 82.0167C39.0985 84.4922 40.8069 87.3013 44.4576 87.6073C46.7176 87.797 49.1334 87.4861 51.3874 87.2947L51.843 88.1511L51.2974 91.0268L50.5841 94.2308L51.0637 95.293L50.1585 97.7325L50.5781 98.0494L52.6163 97.0952C53.4855 97.5753 53.4615 97.7079 53.8631 98.6369C53.1677 100.36 51.7531 100.668 51.4534 102.164C50.5002 103.305 49.589 104.277 48.4081 105.185L46.5978 105.74L45.3449 105.219C43.3667 106.357 38.613 110.021 37.4201 111.823L36.7906 111.857L35.8075 111.457C35.0342 111.807 33.2299 112.384 32.8282 113.055C31.6053 115.106 30.5023 116.263 28.5421 117.564L26.7137 117.693C25.7785 116.559 25.8505 115.964 26.0244 114.49C26.0723 114.092 26.1202 113.968 26.2222 113.624L27.0434 112.962C26.3481 111.318 25.239 109.837 24.2619 108.348L24.8374 111.329C23.7943 112.141 22.2897 112.121 21.0548 112.756L20.5453 111.684C20.6652 110.297 20.5333 108.96 20.4134 107.579L20.7551 107.304C20.7431 105.259 20.3474 102.403 20.887 100.469C21.5344 98.1105 23.7823 97.9173 24.136 95.7125C24.8074 91.5159 22.7573 85.1835 25.251 81.611C27.2292 81.1069 28.6379 81.8361 30.3524 80.2668Z" fill="#010101"/>
<path d="M35.5977 92.0554C36.5089 92.2289 38.7209 92.3525 39.4282 92.7834C41.9819 94.3244 41.7722 95.8319 45.2071 96.2826C45.279 96.1758 45.3329 96.0588 45.4168 95.9616C46.4419 94.7775 49.0974 94.5327 50.5841 94.2308L51.0637 95.293L50.1585 97.7325L50.5781 98.0494L52.6163 97.0952C53.4855 97.5753 53.4615 97.7079 53.8631 98.6369C53.1677 100.36 51.7531 100.668 51.4534 102.164C50.5002 103.305 49.589 104.277 48.4081 105.185L46.5978 105.74L45.3449 105.219C43.3667 106.357 38.613 110.021 37.4201 111.823L36.7906 111.857L35.8075 111.457C35.0342 111.807 33.2299 112.384 32.8282 113.055C31.6053 115.106 30.5023 116.263 28.5421 117.564L26.7137 117.693C25.7785 116.559 25.8505 115.964 26.0244 114.49C26.0723 114.092 26.1202 113.968 26.2222 113.624L28.3382 113.634C33.014 110.867 30.4843 106.756 32.3606 102.668C33.6914 102.389 34.2609 102.188 35.1781 101.164C36.395 98.4935 35.7656 94.9294 35.5977 92.0554Z" fill="#2A303B"/>
<path d="M45.2071 96.2826C45.279 96.1758 45.3329 96.0588 45.4168 95.9616C46.4419 94.7775 49.0974 94.5327 50.5841 94.2308L51.0637 95.293L50.1585 97.7325L50.5781 98.0494L52.6163 97.0952C53.4855 97.5753 53.4615 97.7079 53.8631 98.6369C53.1677 100.36 51.7531 100.668 51.4534 102.164C50.5002 103.305 49.589 104.277 48.4081 105.185L46.5978 105.74L45.3449 105.219C43.3667 106.357 38.613 110.021 37.4201 111.823L37.6419 109.712C38.2473 109.172 38.9846 108.584 39.4761 107.939C40.4233 106.689 39.68 105.112 39.3503 103.743L39.5901 102.418C41.7122 101.643 42.965 99.4032 44.7933 98.0781C44.8833 98.0169 44.9672 97.9581 45.0511 97.8981L45.2071 96.2826Z" fill="#1D201A"/>
<path d="M48.4081 105.185L47.2331 104.385C46.9394 103.018 46.7775 101.745 46.7295 100.348L48.8217 98.4382C49.4331 99.3006 49.541 100.417 49.7628 101.443L51.4534 102.164C50.5002 103.305 49.589 104.277 48.4081 105.185Z" fill="#323329"/>
<path d="M35.8075 111.457C35.256 110.474 35.1181 110.011 35.1061 108.884C36.2511 106.911 37.1923 104.745 39.3503 103.743C39.68 105.112 40.4233 106.689 39.4761 107.939C38.9846 108.584 38.2473 109.172 37.6419 109.712L37.4201 111.823L36.7906 111.857L35.8075 111.457Z" fill="#010101"/>
<path d="M34.4827 82.1211L37.0004 82.0167C39.0985 84.4922 40.8069 87.3013 44.4576 87.6073C46.7176 87.797 49.1334 87.4861 51.3874 87.2947L51.843 88.1511L51.2974 91.0268L50.5841 94.2308C49.0974 94.5327 46.4419 94.7775 45.4168 95.9616C45.3329 96.0588 45.279 96.1758 45.2071 96.2826C41.7722 95.8319 41.9819 94.3244 39.4282 92.7834C38.7209 92.3525 36.5089 92.2289 35.5977 92.0554C35.5498 91.1739 35.6456 90.5629 35.8554 89.7197C36.6347 90.3589 37.6658 91.3815 38.6489 91.6509C39.5481 91.8982 39.7939 91.5843 40.5012 91.1126C40.5192 90.8366 40.5492 90.6883 40.4533 90.3967C39.7879 88.4541 38.8347 88.3101 37.1323 87.7178C36.8145 87.869 35.9934 87.7646 35.6157 87.7652C34.6626 86.7732 34.8844 83.9761 34.5667 82.4806L34.4827 82.1211Z" fill="#1A4131"/>
<path d="M37.1323 87.7178C38.6848 87.5012 39.8297 87.0499 41.1905 88.1199C41.4123 88.2951 41.796 88.7038 41.9878 88.8994C43.2467 90.1656 44.9252 91.7404 46.8195 91.7302C48.1203 91.7236 50.1405 91.606 51.2974 91.0268L50.5841 94.2308C49.0974 94.5327 46.4419 94.7775 45.4168 95.9616C45.3329 96.0588 45.279 96.1758 45.2071 96.2826C41.7722 95.8319 41.9819 94.3244 39.4282 92.7834C38.7209 92.3525 36.5089 92.2289 35.5977 92.0554C35.5498 91.1739 35.6456 90.5629 35.8554 89.7197C36.6347 90.3589 37.6658 91.3815 38.6489 91.6509C39.5481 91.8982 39.7939 91.5843 40.5012 91.1126C40.5192 90.8366 40.5492 90.6883 40.4533 90.3967C39.7879 88.4541 38.8347 88.3101 37.1323 87.7178Z" fill="#052123"/>
<path d="M20.7551 107.304L22.979 107.498L23.8423 106.686C23.7524 105.946 23.2608 103.763 23.6565 103.25C27.8107 97.8513 25.9284 88.3605 29.1595 86.4365C30.838 86.7078 30.8799 86.7066 31.9709 88.0107C33.6074 94.2668 28.7938 101.726 27.0554 107.724C26.0842 107.855 25.1731 107.945 24.2619 108.348L24.8374 111.329C23.7943 112.141 22.2897 112.121 21.0548 112.756L20.5453 111.684C20.6652 110.297 20.5333 108.96 20.4134 107.579L20.7551 107.304Z" fill="#323329"/>
<path d="M37.3061 54.7308C38.2412 56.4915 40.0935 57.636 41.4123 59.4525C42.0538 60.3383 42.7131 60.6299 43.7202 61.017C45.3627 61.5595 45.8183 61.6081 46.8854 62.9325C46.9753 64.3758 46.8974 65.4885 46.5077 66.8819L48.6299 66.4215L50.7879 66.9857C51.5252 68.5772 51.945 70.794 53.7134 71.3761C54.3608 71.5909 55.0681 71.7109 55.7395 71.8495C57.3401 74.1906 56.6446 78.005 56.3329 80.7379L55.0561 81.1688C55.0081 81.2918 54.9662 81.4142 54.9182 81.5384C54.3428 83.2043 54.3248 84.635 54.3368 86.3753C53.4676 87.7208 53.3896 87.6974 51.843 88.1511L51.3874 87.2947C49.1334 87.4861 46.7176 87.797 44.4576 87.6073C40.8069 87.3013 39.0985 84.4922 37.0004 82.0167L34.4827 82.1211C33.1099 82.0917 31.977 82.0209 30.6762 81.5504L30.3524 80.2668C28.6379 81.8361 27.2292 81.1069 25.251 81.611C25.8085 79.8215 25.8984 77.0076 25.4668 75.1628C25.1071 73.6062 23.6264 72.8032 22.3675 72.0146L21.8221 71.6756C20.7851 68.1181 21.0848 64.1034 21.0548 60.4205C23.4407 60.3136 28.0564 61.3566 29.9447 59.7417C30.6281 59.1518 30.5861 57.7289 30.712 56.824L31.0538 60.3743C32.8282 58.0476 33.9252 57.3407 36.6707 56.3439L37.3061 54.7308Z" fill="#326D3E"/>
<path d="M37.3061 54.7308C38.2412 56.4915 40.0935 57.636 41.4123 59.4525C42.0538 60.3383 42.7131 60.6299 43.7202 61.017C45.3627 61.5595 45.8183 61.6081 46.8854 62.9325C46.9753 64.3758 46.8974 65.4885 46.5077 66.8819C45.4227 66.0478 44.5236 64.8235 43.6244 63.7919L42.5393 67.2941C42.0597 68.5928 41.9998 69.1413 40.8908 70.0091C39.0984 70.2059 38.2232 70.1441 36.7606 71.2717L35.9933 72.5668L35.1421 71.8034C34.9203 72.4425 34.6685 73.0271 34.3987 73.6446L33.1099 73.5467C31.815 72.5187 31.881 71.2903 31.5273 69.7174L31.2875 70.695L29.8128 71.5574C30.5921 74.3635 30.9099 77.385 30.3524 80.2668C28.6379 81.8361 27.2292 81.1069 25.251 81.611C25.8085 79.8215 25.8984 77.0076 25.4668 75.1628C25.1071 73.6062 23.6264 72.8032 22.3675 72.0146L21.8221 71.6756C20.7851 68.1181 21.0848 64.1034 21.0548 60.4205C23.4407 60.3136 28.0564 61.3566 29.9447 59.7417C30.6281 59.1518 30.5861 57.7289 30.712 56.824L31.0538 60.3743C32.8282 58.0476 33.9252 57.3407 36.6707 56.3439L37.3061 54.7308Z" fill="#052123"/>
<path d="M27.7088 68.3648C32.2047 66.0255 37.6597 66.9947 42.5393 67.2941C42.0597 68.5928 41.9998 69.1413 40.8908 70.0091C39.0984 70.2059 38.2232 70.1441 36.7606 71.2717L35.9933 72.5668L35.1421 71.8034C34.9203 72.4425 34.6685 73.0271 34.3987 73.6446L33.1099 73.5467C31.815 72.5187 31.881 71.2903 31.5273 69.7174L31.2875 70.695L29.8128 71.5574L28.9316 71.4373C27.8047 70.4994 27.9366 69.7372 27.7088 68.3648Z" fill="#4B7751"/>
<path d="M27.7088 68.3648C27.7747 67.1441 27.9306 66.0057 28.1764 64.8097C31.4374 62.1734 39.5781 63.6617 43.6244 63.7919L42.5393 67.2941C37.6597 66.9947 32.2047 66.0255 27.7088 68.3648Z" fill="#498D56"/>
<path d="M37.3061 54.7308C38.2412 56.4915 40.0935 57.636 41.4123 59.4525C42.0538 60.3383 42.7131 60.6299 43.7202 61.017C39.3742 60.1066 35.4478 59.8954 31.0538 60.3743C32.8282 58.0476 33.9252 57.3407 36.6707 56.3439L37.3061 54.7308Z" fill="#101622"/>
<path d="M31.2875 70.695L31.5273 69.7174C31.881 71.2903 31.815 72.5187 33.1099 73.5467L34.3987 73.6446C34.6685 73.0271 34.9203 72.4425 35.1421 71.8034L35.9933 72.5668L36.7607 74.1396C36.8986 74.1798 37.0364 74.2189 37.1743 74.2615C40.5253 75.2949 42.8092 77.1456 45.7945 78.5979L47.491 78.0176C48.6839 78.2732 50.1526 78.2739 50.824 79.4051C51.3935 80.3677 51.4174 81.9141 51.5433 83.0153L51.3874 87.2947C49.1334 87.4861 46.7176 87.797 44.4576 87.6073C40.8069 87.3013 39.0985 84.4922 37.0004 82.0167L34.4827 82.1211C33.1099 82.0917 31.977 82.0209 30.6762 81.5504L30.3524 80.2668C30.9099 77.385 30.5921 74.3635 29.8128 71.5574L31.2875 70.695Z" fill="#407F4A"/>
<path d="M29.8128 71.5574L31.2875 70.695C31.1077 72.67 30.5503 74.2398 31.9411 75.8961C34.1051 78.4724 34.105 78.6927 34.4827 82.1211C33.1099 82.0917 31.977 82.0209 30.6762 81.5504L30.3524 80.2668C30.9099 77.385 30.5921 74.3635 29.8128 71.5574Z" fill="#0E2F2A"/>
<path d="M45.7945 78.5979L47.491 78.0176C48.6839 78.2732 50.1526 78.2739 50.824 79.4051C51.3935 80.3677 51.4174 81.9141 51.5433 83.0153C50.2844 81.5714 48.9476 81.605 47.1253 81.4322C46.28 80.5098 46.0762 79.8053 45.7945 78.5979Z" fill="#1C542F"/>
<path d="M55.7395 71.8495C57.3401 74.1906 56.6446 78.005 56.3329 80.7379L55.0561 81.1688C55.0081 81.2918 54.9662 81.4142 54.9182 81.5384C54.3428 83.2043 54.3248 84.635 54.3368 86.3753C53.4676 87.7208 53.3896 87.6974 51.843 88.1511L51.3874 87.2947L51.5433 83.0153C51.4174 81.9141 51.3935 80.3677 50.824 79.4051C50.1526 78.2739 48.6839 78.2732 47.491 78.0176C47.6349 77.2518 47.9945 76.5131 48.2823 75.79C48.4801 75.8872 48.6658 76 48.8636 76.0828C50.3203 76.6841 52.7721 76.962 54.2228 76.3523C55.8233 74.8196 55.5417 74.0076 55.7395 71.8495Z" fill="#2A5243"/>
<path d="M36.7606 71.2717C40.0396 71.531 44.2719 70.8702 47.2392 72.2379C48.1503 73.6073 48.1504 74.1241 48.2823 75.79C47.9945 76.5131 47.6349 77.2518 47.491 78.0176L45.7945 78.5979C42.8092 77.1456 40.5253 75.2949 37.1743 74.2615C37.0364 74.2189 36.8986 74.1798 36.7607 74.1396L35.9933 72.5668L36.7606 71.2717Z" fill="#2A5243"/>
<path d="M115.505 24.1934C115.559 21.2103 116.842 20.0076 118.964 18.0278C121.152 15.9839 125.768 13.9381 128.801 14.0725C129.497 14.1031 130.138 14.243 130.798 14.45C131.859 15.7048 132.152 16.6092 132.039 18.2901C131.925 19.9902 131.163 21.3699 129.857 22.4489C127.83 24.1256 123.772 24.4659 123.346 27.1892C122.753 30.9351 124.743 37.8118 121.554 40.6905C120.805 41.3662 119.87 41.925 119.024 42.4711C117.418 44.9244 118.017 48.3798 118.059 51.2087L128.562 51.2177L128.819 54.4769L120.649 54.3713C114.756 54.2237 106.472 52.9245 100.861 54.3263L99.1403 53.7748C100.525 52.2073 102.413 50.5186 104.308 49.613C105.579 49.0075 105.938 48.7404 107.323 49.2415C108.498 47.5426 108.366 46.8495 108.39 44.8499L109.511 43.9198C109.427 42.5839 109.025 41.6357 108.486 40.4211C108.6 40.3202 108.738 40.244 108.822 40.1192C109.637 38.8896 109.031 37.3221 108.792 35.9634L112.778 36.3967C113.821 36.3631 114.241 36.3301 115.14 35.7114C116.291 32.3609 115.691 28.2682 115.685 24.7329L115.505 24.1934Z" fill="#19191B"/>
<path d="M115.685 24.7329L117.226 25.1848C118.467 29.9119 116.806 35.2787 117.346 40.0994L115.595 41.0656L115.505 41.4022C114.972 43.3712 114.498 44.8157 113.03 46.2842C112.184 46.4846 111.891 46.7403 111.129 46.247C110.278 45.6937 109.823 44.8703 109.511 43.9198C109.427 42.5839 109.025 41.6357 108.486 40.4211C108.6 40.3202 108.738 40.244 108.822 40.1192C109.637 38.8896 109.031 37.3221 108.792 35.9634L112.778 36.3967C113.821 36.3631 114.241 36.3301 115.14 35.7114C116.291 32.3609 115.691 28.2682 115.685 24.7329Z" fill="#3D3C30"/>
<path d="M108.792 35.9634L112.778 36.3967C112.826 39.7448 112.023 40.7313 110.692 43.703L109.511 43.9198C109.427 42.5839 109.025 41.6357 108.486 40.4211C108.6 40.3202 108.738 40.244 108.822 40.1192C109.637 38.8896 109.031 37.3221 108.792 35.9634Z" fill="#19191B"/>
<path d="M118.023 22.9824L119.042 24.5805C120.145 24.7095 121.2 24.7629 122.303 24.7485C121.788 24.9352 120.505 25.201 120.301 25.6805C119.12 28.4074 119.738 32.0279 119.192 34.9594C118.874 36.665 117.939 38.014 117.676 39.7717L117.346 40.0994C116.806 35.2787 118.467 29.9119 117.226 25.1848L115.685 24.7329L115.505 24.1934C116.914 23.993 117.034 23.9912 118.023 22.9824Z" fill="#323329"/>
<path d="M121.266 20.5224C123.286 18.6045 121.074 16.7639 125.295 16.8936C125.96 16.914 126.583 17.0898 127.207 17.2981C127.681 18.3945 127.89 18.6339 127.339 19.8065C126.691 21.1874 124.725 22.4992 123.508 23.3508L121.266 20.5224Z" fill="#323329"/>
<path d="M118.023 22.9824C118.101 22.3036 118.311 21.8752 118.575 21.2445L121.266 20.5224L123.508 23.3508L122.303 24.7485C121.2 24.7629 120.145 24.7095 119.042 24.5805L118.023 22.9824Z" fill="#3D3C30"/>
<path d="M15.336 30.7053C15.2521 28.2526 14.9405 25.5623 15.7497 23.2159C19.5383 20.0683 32.013 18.8878 36.7128 20.7914C41.2866 22.6457 39.638 25.6805 46.1901 26.154L45.1291 30.9902L43.5045 29.6844L41.85 29.0015C40.6691 27.2594 37.4021 24.2552 35.5977 23.211C32.8162 21.5997 24.226 22.021 21.1447 22.9433L20.5692 24.7593L21.936 25.6907C24.9573 25.4944 27.6549 25.1122 30.4124 26.5795C34.9923 29.0111 38.4032 34.918 39.5901 35.5037C40.1716 35.7894 40.5791 36.129 41.0467 36.5785C41.4723 40.5885 41.5503 45.1025 42.5993 48.9733C43.9541 53.9902 43.1209 57.0604 48.1743 60.4018C48.8997 60.8843 49.7868 61.1298 50.6321 61.308C50.8479 61.8847 51.0098 62.0173 50.8539 62.6319L48.8217 61.8877C47.8206 63.2008 48.4381 64.8132 48.6299 66.4215L46.5077 66.8819C46.8974 65.4885 46.9753 64.3758 46.8854 62.9325C45.8183 61.6081 45.3627 61.5595 43.7202 61.017C42.7131 60.6299 42.0538 60.3383 41.4123 59.4525C40.0935 57.636 38.2412 56.4915 37.3061 54.7308L36.6707 56.3439C33.9252 57.3407 32.8282 58.0476 31.0538 60.3743L30.712 56.824L27.9246 56.4837C26.9415 56.3949 26.8457 56.2995 26.0604 55.6814C25.5808 52.697 25.1792 49.52 26.456 46.6761C30.8081 46.1186 32.2467 49.7181 35.8255 51.3618L36.8087 50.8037C37.3782 49.5206 37.6299 48.3744 37.7018 46.9809C37.9716 41.5937 35.9934 35.2499 32.2948 31.2532C31.7133 30.6267 30.6762 29.6928 29.8789 29.4318C29.2675 29.2308 18.1055 30.8049 15.336 30.7053Z" fill="#010101"/>
<path d="M27.9246 56.4837C31.3415 55.1521 28.8778 52.7222 31.0658 50.9477C33.6914 51.7098 32.1088 53.1723 37.3061 54.7308L36.6707 56.3439C33.9252 57.3407 32.8282 58.0476 31.0538 60.3743L30.712 56.824L27.9246 56.4837Z" fill="#19191B"/>
<path d="M20.5692 24.7593L21.936 25.6907L21.1568 27.401C19.4903 27.9225 19.1666 27.9435 17.4701 27.5373L16.9606 26.6449C18.0216 25.1074 18.8248 25.1974 20.5692 24.7593Z" fill="#323329"/>
<path d="M70.8579 32.2361C69.8867 31.783 68.9515 31.207 68.0164 30.6879C66.4758 26.4601 61.824 26.0945 61.3085 20.9852C61.1166 19.0366 61.4704 17.3533 62.7052 15.7948C64.2279 15.0441 64.5696 15.0429 66.2721 15.1749C67.1173 16.4003 68.0104 17.8106 69.0834 18.8446C71.4693 21.1407 75.2578 21.8415 76.6186 25.3144L74.0829 26.9485C75.5276 28.1925 76.1032 28.6102 76.7506 30.4652C76.3789 31.702 76.1691 32.3574 75.144 33.1759C73.6813 33.7118 72.3325 34.2129 71.0196 35.0758L70.8579 32.2361Z" fill="#010101"/>
<path d="M68.2502 21.3362C70.69 22.2574 72.4644 24.9879 74.0829 26.9485C75.5276 28.1925 76.1032 28.6102 76.7506 30.4652C76.3789 31.702 76.1691 32.3574 75.144 33.1759C71.7211 29.8603 69.2333 25.6 65.6306 22.5538L68.2502 21.3362Z" fill="#323329"/>
<path d="M65.6306 22.5538C65.4148 22.4284 65.1151 22.2676 64.8992 22.1158C63.5625 21.1742 63.5145 20.3467 63.2927 18.8368L64.4016 18.7587L63.6044 18.592C64.5396 18.2727 65.1809 18.5895 66.1281 18.8152C66.7036 19.6763 67.2851 20.3971 68.0284 21.1202L68.2502 21.3362L65.6306 22.5538Z" fill="#2C2A29"/>
<path d="M128.562 51.2177C128.622 49.424 128.412 48.729 129.641 47.335C131.787 46.5902 134.262 46.8602 136.51 46.9149C136.582 49.4059 137.188 53.1956 135.917 55.3573C134.808 55.9514 133.741 56.5233 132.566 56.9728C131.703 57.3028 131.373 57.6119 130.804 58.3284C130.03 58.1466 129.023 57.4019 128.316 56.9944L129.173 54.9024L128.819 54.4769L128.562 51.2177Z" fill="#19191B"/>
<path d="M128.562 51.2177C130.504 51.0221 131.409 50.6529 133.142 51.6251L133.423 52.8266C132.224 54.2441 131.043 54.6906 129.173 54.9024L128.819 54.4769L128.562 51.2177Z" fill="#323329"/>
<path d="M112.778 36.3967C112.586 33.0925 111.573 27.0295 113.479 24.2246L115.505 24.1934L115.685 24.7329C115.691 28.2682 116.291 32.3609 115.14 35.7114C114.241 36.3301 113.821 36.3631 112.778 36.3967Z" fill="#19191B"/>
<path d="M133.999 10.4316L138.123 10.4094C138.075 11.9589 138.183 13.7136 137.805 15.2151C136.618 15.2835 135.623 15.1683 134.466 14.9258C133.537 13.3607 133.897 12.2043 133.999 10.4316Z" fill="#4B5861"/>
</svg>
