<svg width="168" height="174" viewBox="0 0 168 174" fill="none" xmlns="http://www.w3.org/2000/svg">
<path d="M10.322 4.8757C10.5308 2.27412 10.0702 1.73742 11.5807 0.392013C24.3958 -0.523803 140.29 0.376628 141.057 0.947782C141.524 2.8822 141.487 3.44904 141.469 5.39207L141.923 5.59394C144.662 5.67026 144.938 5.21174 146.774 6.55038C147.001 8.0195 147.167 9.29783 147.308 10.778L147.529 10.9941C150.084 11.0851 150.231 10.6266 151.748 12.0367C151.834 13.5169 151.914 14.8715 151.926 16.3579C153.971 16.2188 154.959 15.9246 156.685 16.9666C156.955 20.1381 156.108 19.2204 157.71 21.2453C159.184 21.3918 160.357 21.4478 161.83 21.4822C163.556 24.2648 161.118 24.4094 163.206 26.6436L166.89 26.8977C167.13 27.1753 167.449 27.4012 167.608 27.7317C168.161 28.8795 168.118 154.03 167.547 162.29C166.227 163.327 164.98 163.074 163.212 163.069C160.971 165.525 163.691 166.387 161.493 168.279L157.778 168.355C155.131 171.245 159.816 173.648 153.485 173.789C149.678 173.873 141.42 174 141.42 174C141.42 174 112.191 173.642 107.463 173.644L20.9203 173.599L20.9264 170.074C19.7966 168.266 19.1212 168.587 16.5852 167.803C15.222 166.147 15.701 165.932 15.658 163.217C13.8343 163.275 13.122 163.368 11.3413 162.872C10.2729 161.156 10.6168 160.426 10.5308 158.153L10.3098 157.855L5.66755 157.737L5.13332 153.851C3.72103 152.353 2.49918 152.664 0.0123201 152.295L0 10.8722C1.60265 10.7516 2.83682 10.6285 4.42105 10.3786L4.66669 9.22643L5.29915 6.54854C6.92022 5.25113 7.68782 5.64134 10.1256 5.4807L10.322 4.8757Z" fill="#19191B"/>
<path d="M147.529 10.9941C150.084 11.0851 150.231 10.6266 151.748 12.0367C151.834 13.5169 151.914 14.8715 151.926 16.3579C153.971 16.2188 154.959 15.9246 156.685 16.9666C156.955 20.1381 156.108 19.2204 157.71 21.2453C159.184 21.3918 160.357 21.4478 161.83 21.4822C163.556 24.2648 161.118 24.4094 163.206 26.6436L166.89 26.8977C167.13 27.1753 167.449 27.4012 167.608 27.7317C168.161 28.8795 168.118 154.03 167.547 162.29C166.227 163.327 164.98 163.074 163.212 163.069C160.971 165.525 163.691 166.387 161.493 168.279L157.778 168.355C155.131 171.245 159.816 173.648 153.485 173.789C149.678 173.873 141.42 174 141.42 174C141.42 174 112.191 173.642 107.463 173.644L20.9203 173.599L20.9264 170.074C19.7966 168.266 19.1212 168.587 16.5852 167.803C15.222 166.147 15.701 165.932 15.658 163.217C13.8343 163.275 13.122 163.368 11.3413 162.872C10.2729 161.156 10.6168 160.426 10.5308 158.153L10.3098 157.855L5.66755 157.737L5.13332 153.851C3.72103 152.353 2.49918 152.664 0.0123201 152.295C2.95357 151.972 3.06406 152.452 4.91232 150.844C6.24479 148.473 5.50793 144.123 5.29915 141.218L6.07902 141.733L9.25978 142.265C11.4028 144.202 9.73258 143.936 11.3536 146.881C14.4852 147.942 55.368 147.292 62.3067 147.292L135.224 147.552C145.675 147.49 138.884 145.73 142.304 142.25C144.011 142.263 144.373 142.326 145.994 141.878C146.75 138.492 146.332 131.029 146.449 127.208C146.786 115.755 146.123 103.134 146.885 91.7815C146.891 80.4606 145.411 17.3088 147.529 10.9941Z" fill="#848188"/>
<path d="M146.885 91.7815C147.793 107.02 147.186 136.678 146.35 151.489C143.053 153.244 143.679 151.458 141.635 154.015C141.383 155.54 141.149 155.956 141.825 157.238C143.52 157.493 145.221 157.696 146.928 157.846C143.9 158.178 143.17 157.67 141.598 159.394L141.186 163.226C100.175 162.597 56.7496 162.962 15.658 163.217C13.8343 163.275 13.122 163.368 11.3413 162.872C10.2729 161.156 10.6168 160.426 10.5308 158.153L10.3098 157.855L5.66755 157.737L5.13332 153.851C3.72103 152.353 2.49918 152.664 0.0123201 152.295C2.95357 151.972 3.06406 152.452 4.91232 150.844C6.24479 148.473 5.50793 144.123 5.29915 141.218L6.07902 141.733L9.25978 142.265C11.4028 144.202 9.73258 143.936 11.3536 146.881C14.4852 147.942 55.368 147.292 62.3067 147.292L135.224 147.552C145.675 147.49 138.884 145.73 142.304 142.25C144.011 142.263 144.373 142.326 145.994 141.878C146.75 138.492 146.332 131.029 146.449 127.208C146.786 115.755 146.123 103.134 146.885 91.7815Z" fill="#070912"/>
<path d="M10.5308 158.153C36.4924 157.142 65.6286 157.88 91.9218 157.85C101.648 157.89 111.375 157.876 121.101 157.808C126.492 157.756 135.199 157.384 140.13 157.81C141.051 159.417 141.014 161.32 141.186 163.226C100.175 162.597 56.7496 162.962 15.658 163.217C13.8343 163.275 13.122 163.368 11.3413 162.872C10.2729 161.156 10.6168 160.426 10.5308 158.153Z" fill="#010101"/>
<path d="M5.66755 157.737C5.96843 154.501 5.40349 154.736 7.22719 152.9L8.74386 152.618C11.2614 154.518 10.8809 154.89 10.3098 157.855L5.66755 157.737Z" fill="#010101"/>
<path d="M147.529 10.9941C150.084 11.0851 150.231 10.6266 151.748 12.0367C151.834 13.5169 151.914 14.8715 151.926 16.3579L151.864 103.234C151.871 117.559 152.485 137.85 151.564 151.801C148.782 154.546 146.878 150.313 146.928 157.846C145.221 157.696 143.52 157.493 141.825 157.238C141.149 155.956 141.383 155.54 141.635 154.015C143.679 151.458 143.053 153.244 146.35 151.489C147.186 136.678 147.793 107.02 146.885 91.7815C146.891 80.4606 145.411 17.3088 147.529 10.9941Z" fill="#010101"/>
<path d="M10.322 4.8757C10.5308 2.27412 10.0702 1.73742 11.5807 0.392013C24.3958 -0.523803 140.29 0.376628 141.057 0.947782C141.524 2.8822 141.487 3.44904 141.469 5.39207C141.5 8.43618 142.126 12.529 140.787 14.8278C139.32 15.8402 138.153 15.6778 136.335 15.7504C136.434 13.9354 136.698 12.8355 135.82 11.2778C132.541 10.5281 18.3291 10.6685 16.0203 11.3609L15.3633 12.9236C12.0721 13.6972 10.9176 12.1782 10.2605 16.1123L10.5308 17.0804C9.40098 26.542 10.2422 53.5198 10.2299 64.5896L10.1624 113.762C10.1624 120.936 9.89832 130.8 10.2483 137.825L10.015 140.775C8.39394 141.903 8.22202 141.581 6.07902 141.733L5.29915 141.218C5.50793 144.123 6.24479 148.473 4.91232 150.844C3.06406 152.452 2.95357 151.972 0.0123201 152.295L0 10.8722C1.60265 10.7516 2.83682 10.6285 4.42105 10.3786L4.66669 9.22643L5.29915 6.54854C6.92022 5.25113 7.68782 5.64134 10.1256 5.4807L10.322 4.8757Z" fill="#4B5861"/>
<path d="M0 10.8722C2.13072 11.1461 3.72724 10.9208 4.9676 12.1647C5.64304 22.1593 5.20095 36.9452 5.17639 47.29L5.13954 107.882C5.14568 118.477 4.86932 130.727 5.29915 141.218C5.50793 144.123 6.24479 148.473 4.91232 150.844C3.06406 152.452 2.95357 151.972 0.0123201 152.295L0 10.8722Z" fill="#010101"/>
<path d="M10.322 4.8757C10.5308 2.27412 10.0702 1.73742 11.5807 0.392013C24.3958 -0.523803 140.29 0.376628 141.057 0.947782C141.524 2.8822 141.487 3.44904 141.469 5.39207C128.801 5.93984 13.1343 6.35467 10.322 4.8757Z" fill="#010101"/>
<path d="M4.66669 9.22643L5.29915 6.54854C6.92022 5.25113 7.68782 5.64134 10.1256 5.4807L10.144 11.1411C8.14222 11.3141 6.80967 11.015 5.68598 12.1597L5.88245 104.981C5.89473 110.615 5.29304 132.638 6.34919 136.348C7.89043 137.407 8.40006 137.437 10.2483 137.825L10.015 140.775C8.39394 141.903 8.22202 141.581 6.07902 141.733L5.29915 141.218C4.86932 130.727 5.14568 118.477 5.13954 107.882L5.17639 47.29C5.20095 36.9452 5.64304 22.1593 4.9676 12.1647C3.72724 10.9208 2.13072 11.1461 0 10.8722C1.60265 10.7516 2.83682 10.6285 4.42105 10.3786L4.66669 9.22643Z" fill="#373F4B"/>
<path d="M4.66669 9.22643L5.29915 6.54854C6.92022 5.25113 7.68782 5.64134 10.1256 5.4807L10.144 11.1411C7.76765 10.8433 6.33688 10.9048 4.66669 9.22643Z" fill="#010101"/>
<path d="M141.469 5.39207L141.923 5.59394C144.662 5.67026 144.938 5.21174 146.774 6.55038C147.001 8.0195 147.167 9.29783 147.308 10.778L147.529 10.9941C145.411 17.3088 146.891 80.4606 146.885 91.7815C146.123 103.134 146.786 115.755 146.449 127.208C146.332 131.029 146.75 138.492 145.994 141.878C144.373 142.326 144.011 142.263 142.304 142.25C138.884 145.73 145.675 147.49 135.224 147.552L62.3067 147.292C55.368 147.292 14.4852 147.942 11.3536 146.881C9.73258 143.936 11.4028 144.202 9.25978 142.265L6.07902 141.733C8.22202 141.581 8.39394 141.903 10.015 140.775L10.2483 137.825C9.89832 130.8 10.1624 120.936 10.1624 113.762L10.2299 64.5896C10.2422 53.5198 9.40098 26.542 10.5308 17.0804C11.1756 23.7638 10.7887 37.272 10.7887 44.361L10.7396 104.435C10.7212 113.78 10.2177 128.135 10.9668 137.002C12.8089 139.159 12.0536 136.394 14.8721 138.215C14.9457 139.906 14.8229 140.452 15.6273 141.874C18.5317 142.748 27.1836 142.356 30.6775 142.361L58.8128 142.387C66.7216 142.391 133.885 142.947 135.777 141.559C136.213 139.788 136.256 138.912 137.465 137.554C139.258 137.595 139.663 137.72 141.272 137.058C141.991 134.915 142.126 22.2282 141.26 16.9949C139.768 15.5202 138.933 15.9572 136.335 15.7504C138.153 15.6778 139.32 15.8402 140.787 14.8278C142.126 12.529 141.5 8.43618 141.469 5.39207Z" fill="#2A303B"/>
<path d="M141.923 5.59394C144.662 5.67026 144.938 5.21174 146.774 6.55038C147.001 8.0195 147.167 9.29783 147.308 10.778C145.509 10.7553 144.508 10.818 142.746 10.306C141.53 8.49895 141.96 8.19614 141.923 5.59394Z" fill="#010101"/>
<path d="M10.2605 16.1123C10.9176 12.1782 12.0721 13.6972 15.3633 12.9236C14.9028 15.4968 15.394 14.8696 13.8404 16.0483L10.2605 16.1123Z" fill="#474C54"/>
<path d="M68.5085 74.5411L70.8358 74.3478C74.2928 70.2999 76.5156 71.1283 81.1823 71.6964C81.8885 74.8069 86.0947 75.908 83.1718 81.7125C80.949 83.2124 81.6121 82.376 80.6481 84.8471C82.177 84.8286 82.2385 84.8372 83.6139 84.2175C84.6947 82.4394 84.6762 77.1426 85.1306 74.4198C86.4631 74.2038 87.8508 74.5497 88.9376 75.3473C89.4227 77.8178 89.257 83.9786 89.257 86.7526L84.0561 91.5803C84.142 92.9282 84.1788 92.962 83.9086 94.2637C78.8183 97.133 63.7989 94.4859 64.4252 86.7809C64.6831 83.6401 63.2586 76.3315 65.2419 73.9342C67.3112 73.5748 66.4514 73.4689 68.5085 74.5411Z" fill="#070912"/>
<path d="M68.5085 74.5411L70.8358 74.3478C74.2928 70.2999 76.5156 71.1283 81.1823 71.6964C81.8885 74.8069 86.0947 75.908 83.1718 81.7125C80.949 83.2124 81.6121 82.376 80.6481 84.8471L79.9664 84.6267C75.4962 84.9498 72.2787 85.1813 68.0357 83.6955C67.4524 81.1136 67.6181 77.6282 68.4287 75.0777L68.5085 74.5411Z" fill="#64645D"/>
<path d="M68.5085 74.5411L70.8358 74.3478C74.2928 70.2999 76.5156 71.1283 81.1823 71.6964C79.0455 77.2996 77.4919 72.6319 76.927 79.1651C73.7831 80.9185 73.077 78.5539 69.1901 80.9893C68.2383 79.7368 68.4901 76.9537 68.4287 75.0777L68.5085 74.5411Z" fill="#848188"/>
<path d="M68.0357 83.6955C72.2787 85.1813 75.4962 84.9498 79.9664 84.6267L79.4261 86.555C75.1585 89.6926 70.977 86.8658 68.0357 83.6955Z" fill="#474C54"/>
<path d="M126.449 115.702C127.984 115.649 128.93 115.758 130.306 116.456C130.993 117.642 131.073 117.583 130.723 118.999C127.199 123.211 124.061 125.058 118.719 125.567C117.736 125.631 116.76 125.508 115.784 125.419C115.569 125.126 115.427 124.972 115.298 124.651C114.807 123.46 114.998 121.557 115.544 120.444C116.895 117.686 121.758 119.689 124.233 118.635C125.688 118.015 125.841 117.041 126.449 115.702Z" fill="#070912"/>
<path d="M121.948 108.283L124.89 108.229C126.339 109.019 126.584 109.225 127.432 110.643C127.512 112.363 126.984 113.406 125.842 114.686C124.448 116.251 121.5 116.108 119.541 116.251C118.062 116.246 117.374 116.402 116.084 115.626C116.729 112.719 121.046 111.769 121.948 108.283Z" fill="#2C2A29"/>
<path d="M36.9344 25.1664C38.095 25.1037 38.6169 25.1984 39.6731 25.6785L40.0846 26.918C39.2986 28.8623 38.3099 29.6575 36.6766 30.8226C34.2634 32.5446 31.7889 32.2098 28.9705 32.0954L27.7424 31.8055C27.2082 30.6632 27.1406 30.5358 27.3309 29.2168C30.1985 27.5415 33.7721 29.4402 36.7318 27.3606L36.9344 25.1664Z" fill="#070912"/>
<path d="M31.7274 19.8112C33.7599 19.618 34.8959 19.6026 36.4924 20.8742C36.953 22.5661 36.8179 22.6079 36.0196 24.1952C33.9564 25.6206 32.7099 25.3123 30.2415 25.3572L28.2273 26.0262L27.2879 25.4311C27.7239 23.7619 30.3336 21.8743 31.4143 20.2741L31.7274 19.8112Z" fill="#2C2A29"/>
<path d="M128.076 42.2118C131.398 42.3053 131.392 41.9275 133.775 43.5898L133.977 45.0866C131.976 47.1737 127.518 47.8747 125.307 45.5501C125.43 43.9265 125.442 43.6883 126.167 42.2383L128.076 42.2118Z" fill="#070912"/>
<path d="M110.128 20.2335C110.767 20.1362 111.418 20.2267 112.007 20.4932C113.518 21.1782 114.298 22.8713 113.837 24.4679C113.376 26.065 111.817 27.0811 110.177 26.854C108.532 26.6269 107.304 25.2255 107.297 23.5637C107.285 21.9014 108.489 20.4833 110.128 20.2335Z" fill="#070912"/>
<path d="M56.6698 31.5162L62.104 31.462C62.2575 32.7705 62.2575 34.2415 62.2944 35.5734C61.1215 37.5047 61.797 36.9699 59.8137 37.6955C56.197 36.4135 56.8847 34.8791 56.6698 31.5162Z" fill="#070912"/>
<path d="M41.5397 106.662C43.3205 107.109 43.6767 107.055 44.8434 108.352C44.8495 112.101 39.2802 112.762 36.9407 110.933C36.4924 109.343 36.431 109.93 36.8609 108.458C38.2056 108.396 39.2187 108.29 40.5512 108.115L41.5397 106.662Z" fill="#070912"/>
<path d="M102.219 51.2462C103.687 51.2118 104.933 51.2161 106.346 51.6395C107.549 53.465 107.211 55.4745 107.254 57.6299C105.682 57.612 104.368 57.5997 102.87 56.9972C101.808 55.0763 102.176 53.4201 102.219 51.2462Z" fill="#2C2A29"/>
<path d="M37.7635 105.908C38.5679 104.957 38.8382 104.607 39.4891 103.544C41.19 102.947 42.0311 102.499 43.8364 102.862C44.5487 104.901 43.1363 105.526 41.5397 106.662L40.5512 108.115C39.2187 108.29 38.2056 108.396 36.8609 108.458L36.8363 107.866L36.7934 106.946L37.7635 105.908Z" fill="#2A303B"/>
<path d="M37.7635 105.908L39.8881 105.785L40.5267 106.571C39.1696 108.032 39.2127 107.61 36.8363 107.866L36.7934 106.946L37.7635 105.908Z" fill="#2C2A29"/>
<path d="M21.0984 56.8814C22.7808 56.8174 24.3896 56.8033 26.0721 56.9608C27.3186 58.2422 27.0853 59.0867 27.1958 60.7749C25.4642 60.9768 23.8431 61.1473 22.0869 61.0014C20.9632 59.5772 21.1659 58.6485 21.0984 56.8814Z" fill="#2A303B"/>
<path d="M89.0482 129.823C91.5105 129.772 92.7263 129.585 94.0956 131.685C93.021 134.363 90.8105 134.649 88.428 133.567C87.7587 131.575 87.8754 132.393 88.6123 129.913L89.0482 129.823Z" fill="#070912"/>
<path d="M56.6698 31.5162C56.7926 28.7097 56.375 29.2962 57.8057 27.2325C59.6724 26.6103 58.8496 26.5857 60.9373 27.5735C62.061 29.0457 61.9505 29.5775 62.104 31.462L56.6698 31.5162Z" fill="#2C2A29"/>
<path d="M126.167 42.2383C125.51 40.4559 125.338 40.2731 125.602 38.4654C126.941 37.1785 126.271 37.4419 127.991 37.4401C129.753 39.3831 129.274 39.7862 128.076 42.2118L126.167 42.2383Z" fill="#2C2A29"/>
<path d="M110.128 20.2335C108.182 19.1059 108.648 19.7497 108.151 17.9236C109.287 16.6274 108.654 16.9721 110.595 16.8028C112.001 17.947 112.443 18.3858 112.007 20.4932C111.418 20.2267 110.767 20.1362 110.128 20.2335Z" fill="#2C2A29"/>
<path d="M88.6123 129.913C88.1333 127.913 88.0166 128.633 88.7166 126.917C90.8719 126.314 91.7622 126.326 93.5 128.062L93.1745 128.918L89.0482 129.823L88.6123 129.913Z" fill="#2C2A29"/>
<path d="M125.817 77.5821C126.695 77.3845 127.579 77.8824 127.861 78.7361C128.15 79.5897 127.751 80.5234 126.934 80.8995C126.326 81.1807 125.608 81.0884 125.086 80.6619C124.57 80.2354 124.337 79.5491 124.49 78.8943C124.644 78.2388 125.16 77.7298 125.817 77.5821Z" fill="#2C2A29"/>
<path d="M21.5405 125.954C22.1975 125.318 23.2476 125.344 23.8801 126.013C24.5064 126.682 24.4695 127.735 23.7941 128.358C23.1309 128.972 22.0993 128.937 21.4791 128.277C20.8589 127.618 20.8835 126.581 21.5405 125.954Z" fill="#2C2A29"/>
<path d="M22.5721 61.8815L25.1143 61.5375L25.8265 62.4496C24.3713 62.9253 23.9537 62.465 22.5721 61.8815Z" fill="#070912"/>
</svg>
