<svg width="188" height="204" viewBox="0 0 188 204" fill="none" xmlns="http://www.w3.org/2000/svg">
<path d="M12.2181 6.03733L116.038 5.68167C125.17 5.68387 155.323 5.17053 162.918 6.32877C163.523 8.78912 163.48 9.5734 163.494 12.0732L163.309 17.2831L164.885 17.7629C167.282 17.8798 167.667 17.7855 169.974 17.2488C169.543 20.1524 169.687 42.0348 169.878 46.467C170.371 57.8675 169.048 75.7647 169.964 86.1641C169.098 95.0371 169.484 104.241 169.461 113.166C169.413 131.258 169.698 149.396 169.277 167.48C164.113 168.277 165.044 169.771 161.593 172.69C160.028 174.015 157.325 174.533 155.336 174.716C149.332 175.267 142.941 174.856 136.903 174.858L100.561 174.824C72.5197 174.801 43.629 176.159 15.7236 173.99C13.1575 170.265 10.5351 168.94 7.26554 166.105L7.13986 163.024L7.1362 94.274C7.11064 80.9761 7.52994 67.3993 6.59275 54.1387C6.72058 47.7034 6.24064 15.4866 7.36045 12.182L10.8733 11.3663C12.7593 9.41202 12.1392 9.59311 12.2181 6.03733Z" fill="#393C46"/>
<path d="M169.974 17.2488C169.543 20.1524 169.687 42.0348 169.878 46.467C170.371 57.8675 169.048 75.7647 169.964 86.1641C169.098 95.0371 169.484 104.241 169.461 113.166C169.413 131.258 169.698 149.396 169.277 167.48C164.113 168.277 165.044 169.771 161.593 172.69C160.028 174.015 157.325 174.533 155.336 174.716C149.332 175.267 142.941 174.856 136.903 174.858L100.561 174.824C72.5197 174.801 43.629 176.159 15.7236 173.99C13.1575 170.265 10.5351 168.94 7.26554 166.105L7.13986 163.024C9.15596 162.956 11.3875 163.113 13.2641 162.314C12.5738 158.147 13.0194 153.273 13.0223 149.022L12.961 145.113L12.9076 138.381C20.3117 138.425 46.1644 140.746 51.2178 136.382C61.7913 127.249 71.7753 134.798 85.1926 133.312C87.4351 129.181 77.0873 119.99 76.5227 116.374C75.7557 111.456 76.2766 105.695 76.2875 100.685C63.57 100.95 55.7474 101.067 45.5735 92.4366C44.339 91.3886 42.5478 89.5432 40.9218 89.2021C38.5857 88.7121 34.8158 89.3175 32.3498 89.3745C30.6215 88.4287 30.5024 88.1301 29.5842 86.362C29.6565 83.0779 31.0239 81.0806 33.0956 78.6122C36.5456 74.5014 42.7392 67.9652 48.1286 67.53L49.8372 69.3835L49.4515 70.9996C48.5041 71.3896 47.9709 71.6204 47.3741 72.4675C45.114 75.6728 36.7428 76.46 36.8765 82.3476C38.8648 84.8467 45.0037 85.9114 48.0322 86.3679L49.0001 87.8905C50.6634 88.5587 52.2696 89.1444 54.0074 89.5972C54.5523 91.5595 55.4465 93.2633 57.2997 94.2754C62.7745 97.266 74.8981 93.1486 78.7017 95.6908C80.1765 96.6759 79.7331 98.6761 82.1904 99.8395C82.2941 102.471 82.4555 105.117 82.4497 107.751L82.4146 109.084C81.7937 114.45 84.3095 117.842 85.2152 122.9C85.8142 126.238 85.4074 129.939 85.1926 133.312L83.5272 133.485L84.4658 136.407C87.8501 136.675 90.7186 138.522 93.6916 138.747C96.9985 138.998 103 137.5 103 137.5C103 137.5 105.708 144.989 105.528 148.282C111.539 147.913 114.967 150.546 120.574 151.43C126.07 153.352 133.559 147.714 139.134 146.761L139.821 146.65L140.664 145.098C140.458 142.997 140.119 141.963 141.037 140.031C143.835 138.3 148.914 138.935 152.218 138.578L163.311 138.406C162.332 129.138 163.84 101.589 163.801 90.8007L163.229 39.7593C163.207 35.13 162.867 22.455 163.435 18.3603L164.885 17.7629C167.282 17.8798 167.667 17.7855 169.974 17.2488Z" fill="#062828"/>
<path d="M169.974 17.2488C169.543 20.1524 169.687 42.0348 169.878 46.467C170.371 57.8675 169.048 75.7647 169.964 86.1641C169.098 95.0371 169.484 104.241 169.461 113.166C169.413 131.258 169.698 149.396 169.277 167.48C164.113 168.277 165.044 169.771 161.593 172.69C160.028 174.015 157.325 174.533 155.336 174.716C149.332 175.267 142.941 174.856 136.903 174.858L100.561 174.824C72.5197 174.801 43.629 176.159 15.7236 173.99C13.1575 170.265 10.5351 168.94 7.26554 166.105L7.13986 163.024C9.15596 162.956 11.3875 163.113 13.2641 162.314C17.3437 163.281 16.622 165.685 19.4467 167.962C20.6622 168.942 22.8537 168.965 24.357 169.039C39.1891 169.762 54.5202 168.743 69.4254 168.943C87.6784 169.27 105.936 169.331 124.19 169.124C134.447 169.091 145.152 169.679 155.33 168.354C157.402 165.893 159.876 164.106 162.058 161.805C164.075 159.68 163.53 157.172 163.522 154.476L163.675 144.026L163.311 138.406C162.332 129.138 163.84 101.589 163.801 90.8007L163.229 39.7593C163.207 35.13 162.867 22.455 163.435 18.3603L164.885 17.7629C167.282 17.8798 167.667 17.7855 169.974 17.2488Z" fill="#2A5243"/>
<path d="M62.2267 137.579C62.6774 137.23 62.4597 137.314 62.9776 137.209C65.1552 136.767 65.9338 135.206 67.8345 134.436C72.4153 132.582 78.6119 133.41 83.5272 133.485L84.4658 136.407C87.8501 136.675 90.7186 138.522 93.6916 138.747C96.9985 138.998 103 137.5 103 137.5C103 137.5 105.708 144.989 105.528 148.282C111.539 147.913 114.967 150.546 120.574 151.43C120.327 151.541 120.08 151.651 119.826 151.747L119.414 151.899C116.405 153.042 113.235 152.917 110.06 152.983L104.096 159.55L94.4834 158.843C91.5879 155.802 88.6785 152.888 85.5097 150.13C79.6688 150.06 73.7696 150.027 67.9331 150.308C66.519 150.376 60.1748 150.325 59.2866 151.404C58.5875 152.254 58.9768 153.772 57.8315 155.028C57.2537 155.06 55.9286 155.309 55.4297 155.158C53.1418 154.47 48.1542 149.657 45.8576 148.059C45.3383 146.81 45.2506 146.706 45.5698 145.316C46.9336 145.069 48.2491 144.751 49.5837 144.376C50.0446 143.223 50.5998 142.266 51.6291 141.522C54.6832 139.315 58.3384 136.984 62.2267 137.579Z" fill="#272830"/>
<path d="M62.2267 137.579C62.6774 137.23 62.4597 137.314 62.9776 137.209C65.1552 136.767 65.9338 135.206 67.8345 134.436C72.4153 132.582 78.6119 133.41 83.5272 133.485L84.4658 136.407C83.5666 136.188 83.0801 135.504 82.2838 135.075C80.2648 133.986 77.3591 135.323 75.351 135.955L70.2333 136.151C67.4875 136.829 65.0609 138.313 62.2267 137.579Z" fill="#202128"/>
<path d="M75.351 135.955L76.3225 137.089C76.5373 139.098 76.5958 139.167 75.4453 140.812C73.4591 141.612 73.2992 141.677 71.2436 141.117C69.8601 139.179 70.1632 138.478 70.2333 136.151L75.351 135.955Z" fill="#373840"/>
<path d="M85.4622 140.745C88.4593 140.634 93.3798 139.669 95.8882 141.569C97.1154 143.371 96.5865 145.708 96.398 147.763C93.2884 147.758 89.1803 148.264 86.4213 146.697C85.1094 144.577 85.4454 143.206 85.4622 140.745Z" fill="#373840"/>
<path d="M163.311 138.406L163.675 144.026L163.522 154.476C162.808 154.191 162.079 153.906 161.318 153.773C159.359 153.432 158.519 154.081 157.055 155.176L154.36 156.031C151.318 154.954 150.736 151.392 147.98 149.791C146.657 149.023 146.131 147.862 145.427 146.558L144.233 145.05C143.063 144.85 141.847 145.02 140.664 145.098C140.458 142.997 140.119 141.963 141.037 140.031C143.835 138.3 148.914 138.935 152.218 138.578L163.311 138.406Z" fill="#2A5243"/>
<path d="M163.311 138.406L163.675 144.026C158.054 146.041 150.205 145.074 144.233 145.05C143.063 144.85 141.847 145.02 140.664 145.098C140.458 142.997 140.119 141.963 141.037 140.031C143.835 138.3 148.914 138.935 152.218 138.578L163.311 138.406Z" fill="#10111A"/>
<path d="M144.233 145.05C150.205 145.074 158.054 146.041 163.675 144.026L163.522 154.476C162.808 154.191 162.079 153.906 161.318 153.773C159.359 153.432 158.519 154.081 157.055 155.176C157.911 152.25 157.584 148.497 157.657 145.437C153.937 145.548 148.804 144.962 145.427 146.558L144.233 145.05Z" fill="#202128"/>
<path d="M12.961 145.113C18.2729 145.986 32.4901 144.297 35.954 146.494C35.3886 149.041 30.7172 151.968 28.8633 156.273C26.6193 156.447 22.6543 157.209 20.869 155.672C17.5687 152.833 17.7002 150.278 13.0223 149.022L12.961 145.113Z" fill="#2A5243"/>
<path d="M48.1286 67.53C48.5728 66.3301 48.4793 66.306 49.6385 65.77C55.7445 62.9423 64.6927 64.0436 70.8404 66.4784C74.5811 67.9594 80.2546 70.9682 81.9442 74.7694C82.2444 75.4435 82.476 76.1387 82.6908 76.8434C84.1217 77.0603 85.1473 76.7937 86.2598 75.7991C87.8208 74.4028 88.3008 72.4244 88.3285 70.4183C88.3753 67.0867 87.4812 63.1811 88.7354 60.0401L90.964 59.1295L91.2058 57.6638C91.3512 56.7984 91.2665 57.3768 91.3235 56.591C91.5521 53.4486 96.7596 48.7433 99.176 46.754C103.161 43.4735 107.79 41.7887 110.679 37.3639C114.947 34.5479 134.9 36.1458 140.955 36.2554C141.003 40.7233 141.686 46.4837 140.42 50.7355C139.424 51.2146 138.445 51.7287 137.485 52.2772C136.953 54.5155 137.58 57.1153 136.903 59.1317C134.572 66.0789 121.496 78.285 115.132 81.9993C111.541 84.0938 103.215 81.2828 100.622 83.8169C98.0525 86.327 96.0437 90.9702 93.4703 93.9351L93.5382 108.73C96.7259 112.189 102.314 114.635 102.168 119.5C102.148 120.146 103 137.5 103 137.5C103 137.5 105.487 128.507 107.259 128.668C109.098 128.836 110.546 128.257 111.941 127.074C116.021 123.613 117.62 120.689 123.623 120.895C128.628 121.066 133.892 123.562 137.291 127.236C140.709 130.928 140.472 133.684 140.347 138.475L152.218 138.578C148.914 138.935 143.835 138.3 141.037 140.031C140.119 141.963 140.458 142.997 140.664 145.098L139.821 146.65L139.134 146.761C133.559 147.714 126.07 153.352 120.574 151.43C114.967 150.546 111.539 147.913 105.528 148.282C105.708 144.989 103 137.5 103 137.5C103 137.5 96.9985 138.998 93.6916 138.747C90.7186 138.522 87.8501 136.675 84.4658 136.407L83.5272 133.485L85.1926 133.312C85.4074 129.939 85.8142 126.238 85.2152 122.9C84.3095 117.842 81.7937 114.45 82.4146 109.084L82.4497 107.751C82.4555 105.117 82.2941 102.471 82.1904 99.8395C79.7331 98.6761 80.1765 96.6759 78.7017 95.6908C74.8981 93.1486 62.7745 97.266 57.2997 94.2754C55.4465 93.2633 54.5523 91.5595 54.0074 89.5972C52.2696 89.1444 50.6634 88.5587 49.0001 87.8905L48.0322 86.3679C45.0037 85.9114 38.8648 84.8467 36.8765 82.3476C36.7428 76.46 45.114 75.6728 47.3741 72.4675C47.9709 71.6204 48.5041 71.3896 49.4515 70.9996L49.8372 69.3835L48.1286 67.53Z" fill="#062828"/>
<path d="M102.392 50.4945L102.646 48.7696C103.961 47.9122 105.194 48.2599 106.43 47.5654C108.685 46.2961 110.511 43.4786 112.832 42.4504C117.006 40.6005 129.829 41.9611 134.887 41.9611C135.253 50.5705 130.488 52.7402 128.441 60.1877C127.978 60.3768 127.464 60.6499 126.975 60.7412C125.85 65.6634 122.038 66.6748 120.066 70.9353L119.509 71.0566L118.978 71.4224C116.843 72.9159 115.551 75.4076 113.689 76.7426C110.579 78.97 103.432 76.4936 99.4792 77.8512C98.5003 78.1871 98.187 80.86 94.913 82.1468L93.3695 76.089C94.6763 72.3521 93.3973 66.2973 93.7757 62.1273C95.5208 60.769 96.6362 59.8744 97.1986 57.6645C97.241 57.5002 97.2775 57.3337 97.3177 57.1679C97.3075 56.729 97.2849 56.4106 97.458 55.9958C98.4127 53.7063 100.109 51.5074 102.392 50.4945Z" fill="#2A5243"/>
<path d="M102.392 50.4945L102.646 48.7696C103.961 47.9122 105.194 48.2599 106.43 47.5654C108.685 46.2961 110.511 43.4786 112.832 42.4504C117.006 40.6005 129.829 41.9611 134.887 41.9611C135.253 50.5705 130.488 52.7402 128.441 60.1877C127.978 60.3768 127.464 60.6499 126.975 60.7412L125.603 62.5275C124.437 62.9511 123.132 63.5229 121.878 63.5002C120.303 63.4718 118.964 62.6502 118.035 61.3598C116.892 59.7743 117.551 56.3675 117.732 54.4892C117.886 54.3614 118.034 54.227 118.192 54.1051C118.81 53.6311 119.228 53.6494 119.972 53.5858C122.414 53.377 125.128 51.2833 127.463 50.3134L127.76 48.4775C125.716 46.9716 122.734 47.4646 120.269 47.8166C111.127 49.1194 107.731 60.5382 101.515 61.5957C100.827 60.7149 100.473 60.398 100.294 59.2595C99.7393 55.7015 100.27 53.3923 102.392 50.4945Z" fill="#498D56"/>
<path d="M117.732 54.4892C117.551 56.3675 116.892 59.7743 118.035 61.3598C118.964 62.6502 120.303 63.4718 121.878 63.5002C123.132 63.5229 124.437 62.9511 125.603 62.5275L126.975 60.7412C125.85 65.6634 122.038 66.6748 120.066 70.9353L119.509 71.0566C117.051 71.2297 115.634 72.3726 113.379 73.1116C108.935 74.5693 104.634 74.3991 100.019 74.1961C102.485 70.5395 105.362 67.6286 106.401 63.2052C109.781 59.9569 113.946 57.2643 117.732 54.4892Z" fill="#3A4044"/>
<path d="M97.3177 57.1679C97.3075 56.729 97.2849 56.4106 97.458 55.9958C98.4127 53.7063 100.109 51.5074 102.392 50.4945C100.27 53.3923 99.7393 55.7015 100.294 59.2595C100.473 60.398 100.827 60.7149 101.515 61.5957C99.8817 62.7072 99.6471 63.9494 97.555 64.4036C96.5652 62.4413 97.1636 59.3449 97.3177 57.1679Z" fill="#393C46"/>
<path d="M49.4515 70.9996C50.2382 70.9302 51.762 70.9872 52.3362 70.5198C54.0608 69.1162 57.1996 68.1909 59.4187 68.4429C62.1485 68.7532 65.5839 71.2815 68.058 72.4952C67.5284 74.088 67.3779 76.0977 65.7804 76.8463C65.1061 77.1625 64.4093 77.1194 63.6833 77.0895C68.657 79.2066 70.6768 82.2081 76.6666 82.7215C77.6746 82.8566 79.7901 82.8296 80.4314 83.5723C81.6214 84.9511 80.9033 87.0419 82.1992 88.6654C83.8953 88.2294 85.3475 87.3595 86.2679 85.7704C86.6097 85.1804 86.8398 84.5129 87.0575 83.8695L89.3994 82.7113C86.327 85.3214 87.3797 88.7909 84.5228 91.5397C84.0502 94.5252 82.2591 96.8497 82.1904 99.8395C79.7331 98.6761 80.1765 96.6759 78.7017 95.6908C74.8981 93.1486 62.7745 97.266 57.2997 94.2754C55.4465 93.2633 54.5523 91.5595 54.0074 89.5972C52.2696 89.1444 50.6634 88.5587 49.0001 87.8905L48.0322 86.3679C45.0037 85.9114 38.8648 84.8467 36.8765 82.3476C36.7428 76.46 45.114 75.6728 47.3741 72.4675C47.9709 71.6204 48.5041 71.3896 49.4515 70.9996Z" fill="#2A5243"/>
<path d="M49.4515 70.9996C50.2382 70.9302 51.762 70.9872 52.3362 70.5198C54.0608 69.1162 57.1996 68.1909 59.4187 68.4429C62.1485 68.7532 65.5839 71.2815 68.058 72.4952C67.5284 74.088 67.3779 76.0977 65.7804 76.8463C65.1061 77.1625 64.4093 77.1194 63.6833 77.0895C62.5992 75.4011 62.3377 74.7109 60.2201 74.2815C56.4289 73.5132 51.3646 76.3169 48.3083 78.2244L47.6962 79.368L48.6195 80.4824C49.9277 80.5723 51.1966 80.6592 52.5071 80.5752C53.8212 82.4769 55.2756 83.8987 55.3983 86.2473C53.3303 87.6553 51.3186 87.0105 49.0001 87.8905L48.0322 86.3679C45.0037 85.9114 38.8648 84.8467 36.8765 82.3476C36.7428 76.46 45.114 75.6728 47.3741 72.4675C47.9709 71.6204 48.5041 71.3896 49.4515 70.9996Z" fill="#498D56"/>
<path d="M52.5071 80.5752C53.8124 79.7784 55.1455 79.509 56.6444 79.8771C61.5642 81.0857 67.6687 84.1018 70.6753 88.2513C70.7184 88.8019 70.9777 89.8097 70.6234 90.2281C69.2056 91.9005 66.4985 92.0802 64.4488 92.17C62.6956 92.2467 57.8285 92.2204 56.3282 91.3886C55.4589 90.9066 55.06 89.8258 54.0074 89.5972C52.2696 89.1444 50.6634 88.5587 49.0001 87.8905C51.3186 87.0105 53.3303 87.6553 55.3983 86.2473C55.2756 83.8987 53.8212 82.4769 52.5071 80.5752Z" fill="#3A4044"/>
<path d="M82.4146 109.084C83.7193 115.544 89.0145 120.817 92.7735 126.045C93.3096 125.815 93.9422 125.621 94.409 125.275C95.5215 126.242 96.3842 127.116 97.1797 128.361C96.8663 130.163 96.7143 130.324 95.4185 131.631C91.929 132.815 88.4739 132.27 85.1926 133.312C85.4074 129.939 85.8142 126.238 85.2152 122.9C84.3095 117.842 81.7937 114.45 82.4146 109.084Z" fill="#272830"/>
<path d="M87.5885 103.371L88.216 103.489C87.704 111.986 94.8801 117.006 94.409 125.275C93.9422 125.621 93.3096 125.815 92.7735 126.045C89.0145 120.817 83.7193 115.544 82.4146 109.084L82.4497 107.751C83.8295 108.378 84.7675 108.315 86.2613 108.193C87.476 106.592 87.3592 105.345 87.5885 103.371Z" fill="#2A5243"/>
<path d="M84.5228 91.5397L86.8018 91.3667C88.8377 94.1929 87.7894 99.9929 87.5885 103.371C87.3592 105.345 87.476 106.592 86.2613 108.193C84.7675 108.315 83.8295 108.378 82.4497 107.751C82.4555 105.117 82.2941 102.471 82.1904 99.8395C82.2591 96.8497 84.0502 94.5252 84.5228 91.5397Z" fill="#2A5243"/>
<path d="M68.058 72.4952C68.1464 72.5398 68.2341 72.5866 68.3225 72.6297C69.1238 73.0226 69.6782 73.173 70.554 73.2957C71.855 73.4782 74.8769 75.0199 75.6147 76.1292C76.988 78.1959 76.6754 80.0246 76.6695 82.387L76.6666 82.7215C70.6768 82.2081 68.657 79.2066 63.6833 77.0895C64.4093 77.1194 65.1061 77.1625 65.7804 76.8463C67.3779 76.0977 67.5284 74.088 68.058 72.4952Z" fill="#373840"/>
<path d="M89.3994 82.7113C89.9071 80.1691 91.409 77.6212 93.3695 76.089L94.913 82.1468C89.1942 90.4159 88.6178 93.6328 88.216 103.489L87.5885 103.371C87.7894 99.9929 88.8377 94.1929 86.8018 91.3667L84.5228 91.5397C87.3797 88.7909 86.327 85.3214 89.3994 82.7113Z" fill="#2A5243"/>
<path d="M127.852 126.402C129.59 128.391 131.099 130.184 132.211 132.594L134.252 133.529C135.271 134.896 135.535 135.742 135.6 137.443C134.993 138.905 134.233 139.87 133.049 140.9C129.894 143.646 125.749 144.816 121.607 144.446C118.384 144.158 115.34 142.651 113.297 140.127C112.107 138.657 111.258 137.235 111.596 135.269C111.931 133.318 113.384 132.067 114.872 130.918L116.441 129.361L117.372 127.667C119.555 125.844 125.002 126.444 127.852 126.402Z" fill="#44241E"/>
<path d="M132.211 132.594L134.252 133.529C135.271 134.896 135.535 135.742 135.6 137.443C134.993 138.905 134.233 139.87 133.049 140.9C129.894 143.646 125.749 144.816 121.607 144.446C118.384 144.158 115.34 142.651 113.297 140.127C112.107 138.657 111.258 137.235 111.596 135.269C111.931 133.318 113.384 132.067 114.872 130.918C114.215 133.44 113.816 134.047 115.204 136.429C117.022 139.551 121.561 142.765 125.146 143.565C126.091 143.775 127.127 143.677 128.078 143.581L128.824 142.829L127.967 140.254C129.867 137.856 132.138 137.411 133.177 134.409L132.994 134.162C132.564 133.572 132.355 133.335 132.211 132.594Z" fill="#502A1F"/>
<path d="M116.441 129.361L117.372 127.667C119.555 125.844 125.002 126.444 127.852 126.402C127.478 128.85 127.403 132.004 125.466 133.735C123.688 134.23 122.371 134.33 120.722 133.263C120.054 132.831 119.536 132.232 118.988 131.666C118.198 130.848 117.292 130.115 116.441 129.361Z" fill="#6C4433"/>
<path d="M12.2181 6.03733L116.038 5.68167C125.17 5.68387 155.323 5.17053 162.918 6.32877C163.523 8.78912 163.48 9.5734 163.494 12.0732L163.309 17.2831C156.18 17.3372 156.745 11.6153 147.312 11.394C104.556 10.3892 61.4107 12.4143 18.7506 12.2003L18.6404 12.4953C17.3752 15.8101 15.3189 16.5316 13.7331 19.0628C11.1793 23.1378 12.9938 125.771 12.9076 138.381L12.961 145.113L13.0223 149.022C13.0194 153.273 12.5738 158.147 13.2641 162.314C11.3875 163.113 9.15596 162.956 7.13986 163.024L7.1362 94.274C7.11064 80.9761 7.52994 67.3993 6.59275 54.1387C6.72058 47.7034 6.24064 15.4866 7.36045 12.182L10.8733 11.3663C12.7593 9.41202 12.1392 9.59311 12.2181 6.03733Z" fill="#5A6069"/>
<path d="M12.2181 6.03733C12.4964 2.95696 12.042 2.72695 13.5745 0.506137C15.9989 -0.143091 31.7325 0.0949697 35.0393 0.0935091L134.906 0.0766939C141.468 0.0766939 155.353 -0.275268 161.371 0.528781C163.951 2.49618 162.135 4.52854 164.59 6.05631L167.549 5.53785C171.231 8.41592 166.971 12.1564 174.313 12.2857C175.549 14.3692 175.139 14.6095 175.235 17.3686C179.547 18.3252 182.461 21.9569 186.52 25.0972C187.211 34.4201 186.906 45.7016 186.883 55.1976L186.777 104.049L186.853 161.201C186.875 167.145 187.742 193.556 185.69 196.011C183.991 196.591 183.45 196.677 181.664 196.9C179.192 200.446 181.567 199.52 177.996 202.686C170.243 203.915 155.672 203.735 147.584 203.721L57.2858 203.614C47.7262 203.606 35.8086 203.916 26.4272 203.119C23.2942 198.842 19.915 192.831 15.0661 191.592C48.8335 192.245 82.6798 191.748 116.455 191.721C130.727 191.71 145.102 191.348 159.361 191.904C159.456 191.842 159.559 191.79 159.649 191.719C161.505 190.26 161.452 187.848 161.737 185.675C162.307 183.751 163.14 182.374 164.244 180.724C165.974 179.826 167.299 179.071 168.647 177.626C170.062 174.732 169.4 170.641 169.277 167.48C169.698 149.396 169.413 131.258 169.461 113.166C169.484 104.241 169.098 95.0371 169.964 86.1641C169.048 75.7647 170.371 57.8675 169.878 46.467C169.687 42.0348 169.543 20.1524 169.974 17.2488C167.667 17.7855 167.282 17.8798 164.885 17.7629L163.309 17.2831L163.494 12.0732C163.48 9.5734 163.523 8.78912 162.918 6.32877C155.323 5.17053 125.17 5.68387 116.038 5.68167L12.2181 6.03733Z" fill="#8A868A"/>
<path d="M12.2181 6.03733C12.4964 2.95696 12.042 2.72695 13.5745 0.506137C15.9989 -0.143091 31.7325 0.0949697 35.0393 0.0935091L134.906 0.0766939C141.468 0.0766939 155.353 -0.275268 161.371 0.528781C163.951 2.49618 162.135 4.52854 164.59 6.05631L167.549 5.53785C171.231 8.41592 166.971 12.1564 174.313 12.2857C175.549 14.3692 175.139 14.6095 175.235 17.3686L175.211 132.484C175.216 139.594 175.638 174.223 174.637 178.417L172.939 179.336L170.71 180.375C170.678 180.541 170.65 180.708 170.614 180.873C169.636 185.232 164.252 187.327 162.282 191.404C161.32 191.58 160.332 191.809 159.361 191.904C159.456 191.842 159.559 191.79 159.649 191.719C161.505 190.26 161.452 187.848 161.737 185.675C162.307 183.751 163.14 182.374 164.244 180.724C165.974 179.826 167.299 179.071 168.647 177.626C170.062 174.732 169.4 170.641 169.277 167.48C169.698 149.396 169.413 131.258 169.461 113.166C169.484 104.241 169.098 95.0371 169.964 86.1641C169.048 75.7647 170.371 57.8675 169.878 46.467C169.687 42.0348 169.543 20.1524 169.974 17.2488C167.667 17.7855 167.282 17.8798 164.885 17.7629L163.309 17.2831L163.494 12.0732C163.48 9.5734 163.523 8.78912 162.918 6.32877C155.323 5.17053 125.17 5.68387 116.038 5.68167L12.2181 6.03733Z" fill="#010000"/>
<path d="M169.277 167.48C169.698 149.396 169.413 131.258 169.461 113.166C169.484 104.241 169.098 95.0371 169.964 86.1641C172.549 116.65 168.025 147.915 170.382 178.409C171.327 178.989 171.839 179.217 172.939 179.336L170.71 180.375C170.678 180.541 170.65 180.708 170.614 180.873C169.636 185.232 164.252 187.327 162.282 191.404C161.32 191.58 160.332 191.809 159.361 191.904C159.456 191.842 159.559 191.79 159.649 191.719C161.505 190.26 161.452 187.848 161.737 185.675C162.307 183.751 163.14 182.374 164.244 180.724C165.974 179.826 167.299 179.071 168.647 177.626C170.062 174.732 169.4 170.641 169.277 167.48Z" fill="#0A0A0D"/>
<path d="M163.494 12.0732C166.514 12.1294 167.303 11.5897 169.218 13.0803C169.473 14.4576 169.753 15.8693 169.974 17.2488C167.667 17.7855 167.282 17.8798 164.885 17.7629L163.309 17.2831L163.494 12.0732Z" fill="#3A4044"/>
<path d="M0.629916 12.9992C5.53063 10.8324 4.19755 12.0425 7.28086 7.61402C8.51973 5.83503 9.56645 6.30242 12.2181 6.03733C12.1392 9.59311 12.7593 9.41202 10.8733 11.3663L7.36045 12.182C6.24064 15.4866 6.72058 47.7034 6.59275 54.1387C7.52994 67.3993 7.11064 80.9761 7.1362 94.274L7.13986 163.024L7.26554 166.105C10.5351 168.94 13.1575 170.265 15.7236 173.99C43.629 176.159 72.5197 174.801 100.561 174.824L136.903 174.858C142.941 174.856 149.332 175.267 155.336 174.716C157.325 174.533 160.028 174.015 161.593 172.69C165.044 169.771 164.113 168.277 169.277 167.48C169.4 170.641 170.062 174.732 168.647 177.626C167.299 179.071 165.974 179.826 164.244 180.724C163.14 182.374 162.307 183.751 161.737 185.675C161.452 187.848 161.505 190.26 159.649 191.719C159.559 191.79 159.456 191.842 159.361 191.904C145.102 191.348 130.727 191.71 116.455 191.721C82.6798 191.748 48.8335 192.245 15.0661 191.592C14.969 191.568 14.866 191.563 14.7747 191.521C12.7666 190.61 12.7425 188.848 12.1516 186.915C6.95065 186.134 8.17855 183.406 5.39109 180.048L3.38309 180.002C2.03391 179.197 1.89437 178.975 0.816927 177.802C0.220135 166.95 0.572932 154.461 0.604342 143.486L0.584628 90.567C0.553218 68.4341 -0.744096 33.6788 0.629916 12.9992Z" fill="#141621"/>
<path d="M0.629916 12.9992C5.53063 10.8324 4.19755 12.0425 7.28086 7.61402C8.51973 5.83503 9.56645 6.30242 12.2181 6.03733C12.1392 9.59311 12.7593 9.41202 10.8733 11.3663L7.36045 12.182C6.24064 15.4866 6.72058 47.7034 6.59275 54.1387C5.74321 65.5999 6.2735 77.3451 6.28519 88.8384L6.39115 149.651C6.42767 158.355 7.97773 170.191 6.57669 178.5C5.52336 179.384 4.70597 179.661 3.38309 180.002C2.03391 179.197 1.89437 178.975 0.816927 177.802C0.220135 166.95 0.572932 154.461 0.604342 143.486L0.584628 90.567C0.553218 68.4341 -0.744096 33.6788 0.629916 12.9992Z" fill="#010000"/>
<path d="M12.1516 186.915C25.4089 183.788 45.9935 186.506 60.1997 186.532C94.0474 186.595 127.895 186.31 161.737 185.675C161.452 187.848 161.505 190.26 159.649 191.719C159.559 191.79 159.456 191.842 159.361 191.904C145.102 191.348 130.727 191.71 116.455 191.721C82.6798 191.748 48.8335 192.245 15.0661 191.592C14.969 191.568 14.866 191.563 14.7747 191.521C12.7666 190.61 12.7425 188.848 12.1516 186.915Z" fill="#010000"/>
</svg>
