<svg width="190" height="202" viewBox="0 0 190 202" fill="none" xmlns="http://www.w3.org/2000/svg">
<path d="M12.4513 6.39158C12.894 3.48795 12.5119 2.87089 14.0934 0.874279C21.8473 -0.0831318 39.9337 0.170969 48.264 0.09721C75.3323 -0.151819 102.403 0.07749 129.462 0.786602C133.993 0.876428 159.453 1.08823 162.486 1.72432C163.613 3.03738 163.482 4.01012 163.621 5.77085C167.308 8.84173 168.699 3.86773 170.853 11.5482C172.916 13.3367 172.13 12.8327 175.159 13.1271C176.938 19.3075 185.24 24.5766 189.802 28.7991C189.803 77.6826 189.824 126.565 189.861 175.449C189.864 179.831 190.645 185.593 187.745 189.004C176.927 201.727 173.847 201.993 157.284 201.93C132.505 201.644 107.723 201.585 82.9423 201.754C66.2576 201.858 49.4401 202.077 32.7488 201.982C31.0892 201.972 26.0665 201.98 25.16 200.742C22.6486 197.314 20.0635 193.835 17.0335 190.779C15.5171 190.545 14.2504 190.35 13.2344 190.193L12.8027 184.938C11.36 184.769 9.90416 184.672 8.5842 184.017C7.04292 183.254 6.42275 180.605 5.89023 179.01C2.35915 177.995 2.53007 178.611 0.353278 176.271C-0.190191 172.477 0.0545186 163.474 0.0574405 159.132L0.0749728 54.2498C0.0786252 46.359 -0.337735 20.5279 1.21889 14.4577C3.32995 12.1901 2.701 12.8591 6.2467 12.1704L6.92094 10.5754L7.13862 6.9795C8.46953 6.69323 11.0064 6.52961 12.4513 6.39158Z" fill="#1A1A1B"/>
<path d="M175.159 13.1271C176.938 19.3075 185.24 24.5766 189.802 28.7991C189.803 77.6826 189.824 126.565 189.861 175.449C189.864 179.831 190.645 185.593 187.745 189.004C176.927 201.727 173.847 201.993 157.284 201.93C132.505 201.644 107.723 201.585 82.9423 201.754C66.2576 201.858 49.4401 202.077 32.7488 201.982C31.0892 201.972 26.0665 201.98 25.16 200.742C22.6486 197.314 20.0635 193.835 17.0335 190.779C15.5171 190.545 14.2504 190.35 13.2344 190.193L12.8027 184.938C21.2951 183.376 30.7722 184.532 39.4253 184.31C61.4409 183.746 83.428 184.191 105.443 184.16C121.958 184.138 138.786 183.383 155.266 184.228C158.346 184.386 161.448 184.703 164.327 185.882C165.135 184.22 167.352 184.891 168.839 183.838C170.098 182.945 169.964 180.997 170.176 179.576L171.292 178.982C172.13 178.577 173.393 178.014 174.011 177.353C174.088 177.27 174.826 176.408 174.828 176.342C175.098 164.55 175.171 149.622 175.2 138.192L175.159 13.1271Z" fill="#8A868A"/>
<path d="M12.8027 184.938C21.2951 183.376 30.7722 184.532 39.4253 184.31C61.4409 183.746 83.428 184.191 105.443 184.16C121.958 184.138 138.786 183.383 155.266 184.228C158.346 184.386 161.448 184.703 164.327 185.882C164.043 186.901 163.824 188.878 162.928 189.406C159.371 191.499 31.6992 188.566 13.2344 190.193L12.8027 184.938Z" fill="#010000"/>
<path d="M6.2467 12.1704L6.92094 10.5754L7.60537 13.176C6.54765 17.4482 7.04511 41.7369 7.07287 47.4266L7.15906 124.56C7.15468 133.31 7.74856 154.012 7.02978 161.785L7.35482 164.699C8.82891 165.776 10.7924 165.263 11.7902 166.249C13.5426 167.981 12.4959 170.783 15.0584 171.81C16.5135 172.393 150.153 173.135 159.869 171.844C160.777 171.723 161.425 171.419 162.137 170.865C162.904 169.054 163.552 167.418 164.953 165.983C166.338 165.837 167.721 165.672 169.111 165.591C168.955 170.536 171.116 174.354 171.292 178.982L170.176 179.576C169.964 180.997 170.098 182.945 168.839 183.838C167.352 184.891 165.135 184.22 164.327 185.882C161.448 184.703 158.346 184.386 155.266 184.228C138.786 183.383 121.958 184.138 105.443 184.16C83.428 184.191 61.4409 183.746 39.4253 184.31C30.7722 184.532 21.2951 183.376 12.8027 184.938C11.36 184.769 9.90416 184.672 8.5842 184.017C7.04292 183.254 6.42275 180.605 5.89023 179.01C2.35915 177.995 2.53007 178.611 0.353278 176.271C-0.190191 172.477 0.0545186 163.474 0.0574405 159.132L0.0749728 54.2498C0.0786252 46.359 -0.337735 20.5279 1.21889 14.4577C3.32995 12.1901 2.701 12.8591 6.2467 12.1704Z" fill="#10111A"/>
<path d="M5.89023 179.01C2.35915 177.995 2.53007 178.611 0.353278 176.271C-0.190191 172.477 0.0545186 163.474 0.0574405 159.132L0.0749728 54.2498C0.0786252 46.359 -0.337735 20.5279 1.21889 14.4577C3.32995 12.1901 2.701 12.8591 6.2467 12.1704L6.3066 140.769C6.31098 146.271 7.99764 176.606 5.89023 179.01Z" fill="#010000"/>
<path d="M12.4513 6.39158C12.894 3.48795 12.5119 2.87089 14.0934 0.874279C21.8473 -0.0831318 39.9337 0.170969 48.264 0.09721C75.3323 -0.151819 102.403 0.07749 129.462 0.786602C133.993 0.876428 159.453 1.08823 162.486 1.72432C163.613 3.03738 163.482 4.01012 163.621 5.77085C167.308 8.84173 168.699 3.86773 170.853 11.5482C172.916 13.3367 172.13 12.8327 175.159 13.1271L175.2 138.192C175.171 149.622 175.098 164.55 174.828 176.342C174.826 176.408 174.088 177.27 174.011 177.353C173.393 178.014 172.13 178.577 171.292 178.982C171.116 174.354 168.955 170.536 169.111 165.591C169.935 154.544 169.42 137.626 169.596 126.16C170.18 87.8745 168.867 50.9437 170.13 12.6224C167.676 12.5501 167.013 12.5187 164.621 11.9301L163.613 10.2205C163.313 8.09685 163.7 8.67301 162.419 7.31175C150.325 6.20755 121.485 7.12118 107.777 7.27088C75.352 7.62654 44.7833 7.06856 12.4513 6.39158Z" fill="#010000"/>
<path d="M163.613 10.2205L164.621 11.9301C167.013 12.5187 167.676 12.5501 170.13 12.6224C168.867 50.9437 170.18 87.8745 169.596 126.16C169.42 137.626 169.935 154.544 169.111 165.591C167.721 165.672 166.338 165.837 164.953 165.983C163.552 167.418 162.904 169.054 162.137 170.865C161.425 171.419 160.777 171.723 159.869 171.844C150.153 173.135 16.5135 172.393 15.0584 171.81C12.4959 170.783 13.5426 167.981 11.7902 166.249C10.7924 165.263 8.82891 165.776 7.35482 164.699L7.02978 161.785C9.03491 161.811 11.0101 161.454 12.9904 161.169C14.5178 161.058 15.4367 161.001 16.8239 161.695C17.4163 163.174 17.8488 164.302 19.0102 165.449C25.8671 166.229 33.0461 165.794 39.9491 165.859L87.3251 165.887C108.691 165.835 133.419 167.248 154.343 165.792C158.632 165.493 156.785 162.945 159.037 160.377C160.612 160.298 161.634 160.29 162.946 159.363C164.624 145.825 163.453 130.815 163.6 117.088C164.184 84.1756 164.083 51.2548 163.298 18.3464C163.249 16.0132 163.506 12.6349 163.613 10.2205Z" fill="#2D2F37"/>
<path d="M7.13862 6.9795C8.46953 6.69323 11.0064 6.52961 12.4513 6.39158C44.7833 7.06856 75.352 7.62654 107.777 7.27088C121.485 7.12118 150.325 6.20755 162.419 7.31175C163.7 8.67301 163.313 8.09685 163.613 10.2205C163.506 12.6349 163.249 16.0132 163.298 18.3464C161.409 18.1887 159.658 18.5604 158.425 16.9932C157.147 15.3691 157.416 13.7062 155.05 13.3571C146.784 12.1375 20.5091 12.9416 19.3126 13.8625C16.3111 16.1717 19.8926 18.1595 13.9349 18.6685C12.265 21.0946 13.0006 146.795 12.9904 161.169C11.0101 161.454 9.03491 161.811 7.02978 161.785C7.74856 154.012 7.15468 133.31 7.15906 124.56L7.07287 47.4266C7.04511 41.7369 6.54765 17.4482 7.60537 13.176L6.92094 10.5754L7.13862 6.9795Z" fill="#494B54"/>
<path d="M7.13862 6.9795C10.6719 7.0372 10.1898 6.48286 12.577 8.24943C13.4586 10.6514 13.4937 9.64577 12.4294 11.9995C10.2234 13.4615 10.6032 13.011 7.60537 13.176L6.92094 10.5754L7.13862 6.9795Z" fill="#010000"/>
<path d="M63.438 77.3956C72.0912 77.4869 75.9568 81.7182 82.1804 87.0858C81.6654 91.0966 82.2286 95.877 82.2819 99.9645C78.7056 102.447 77.1285 104.429 75.3637 108.467C71.0678 108.125 64.7865 106.307 61.5709 103.368C61.4701 103.276 61.3715 103.181 61.2715 103.089C58.9062 100.896 57.4672 97.3595 55.9931 94.518L56.1662 84.1303C59.2649 82.122 61.2101 80.3993 63.438 77.3956Z" fill="#070912"/>
<path d="M61.4555 83.2971C65.4256 82.9531 70.7507 81.9906 73.9809 84.9402C75.7362 86.5432 76.2687 88.9787 76.2227 91.2711C76.1628 94.2543 75.761 97.2952 75.4769 100.268L65.8289 100.517C64.1057 97.7634 62.2751 95.1577 61.5541 91.9459C61.5147 91.7706 61.4709 91.5961 61.4307 91.4201C61.3533 91.0812 61.2927 90.738 61.2349 90.3948L61.4555 83.2971Z" fill="#64645D"/>
<path d="M61.4555 83.2971C64.7872 83.4139 68.8063 83.124 71.8925 84.4633L71.715 85.2506C70.5667 85.7399 68.5272 86.284 67.5878 87.0077C64.4578 89.4228 66.517 90.5248 61.2349 90.3948L61.4555 83.2971Z" fill="#848188"/>
<path d="M97.0258 91.9459L98.738 92.0116L99.9637 94.0053C102.097 94.3675 103.372 94.6655 105.092 96.0676C107.056 98.861 106.075 104.538 106.072 107.972C102.802 111.358 99.9331 115.394 96.9769 119.072L86.9212 119.2L83.1944 119.106C80.7999 118.242 79.778 115.915 78.5325 113.852C78.3287 111.811 77.8203 109.292 78 107.27C78.2104 104.902 80.3989 103.964 82.1345 102.623L82.0505 99.8783C83.9519 96.9067 87.2901 94.5472 89.9483 92.2475L89.9169 92.2139L97.0258 91.9459Z" fill="#070912"/>
<path d="M83.06 106.172C82.7794 105.637 82.8342 105.084 82.8006 104.484C86.014 103.33 88.7065 97.017 93.9644 94.8312C95.8987 94.8838 96.6452 94.8685 98.1734 96.221C100.134 97.9576 99.6818 102.317 99.7161 104.76C98.4122 106.505 97.0842 108.839 94.99 109.659C91.0462 109.874 86.7868 107.419 83.06 106.172Z" fill="#848188"/>
<path d="M83.06 106.172C90.3486 106.893 92.1806 102.417 99.7161 104.76C98.4122 106.505 97.0842 108.839 94.99 109.659C91.0462 109.874 86.7868 107.419 83.06 106.172Z" fill="#64645D"/>
<path d="M146.165 134.149C148.55 134.535 149.332 134.396 151.082 136.139C151.108 137.774 151.125 138.391 150.077 139.773C147.263 143.49 142.57 145.765 138.085 146.518C137.315 146.48 136.482 146.447 135.743 146.21C133.696 145.554 132.964 144.947 132.068 143.037C136.368 136.949 140.987 140.522 146.165 134.149Z" fill="#0A0A0D"/>
<path d="M95.6532 69.3931L95.9044 69.0834C96.624 68.1808 97.0345 67.5469 97.3486 66.4368C99.8921 64.9923 101.894 64.1999 104.78 64.9419C106.08 66.6501 106.154 67.6878 105.85 69.878C105.819 70.108 105.782 70.3373 105.748 70.5673L105.649 71.283C105.596 72.8064 105.972 74.7388 104.756 75.8218C103.293 77.1246 100.723 77.8367 98.792 77.6132C97.3895 77.4504 95.9863 76.8946 94.6699 76.4053C94.1177 75.5289 93.6444 74.7585 93.3339 73.7573C93.8971 71.5204 93.7715 70.8244 95.6532 69.3931Z" fill="#32333A"/>
<path d="M105.649 71.283C105.596 72.8064 105.972 74.7388 104.756 75.8218C103.293 77.1246 100.723 77.8367 98.792 77.6132C97.3895 77.4504 95.9863 76.8946 94.6699 76.4053C94.1177 75.5289 93.6444 74.7585 93.3339 73.7573C95.0783 74.2517 97.2638 74.8184 99.0754 74.749C100.582 74.6913 102.209 73.9347 103.248 72.8648C103.96 72.1323 104.395 71.7935 105.348 71.3999C105.447 71.359 105.549 71.3224 105.649 71.283Z" fill="#202128"/>
<path d="M93.3339 73.7573C93.8971 71.5204 93.7715 70.8244 95.6532 69.3931L95.2419 71.5481L96.1302 72.6545C99.3574 72.0425 102.511 71.1691 105.748 70.5673L105.649 71.283C105.549 71.3224 105.447 71.359 105.348 71.3999C104.395 71.7935 103.96 72.1323 103.248 72.8648C102.209 73.9347 100.582 74.6913 99.0754 74.749C97.2638 74.8184 95.0783 74.2517 93.3339 73.7573Z" fill="#272830"/>
<path d="M141.813 126.839L144.939 127.061C146.348 128.35 146.37 128.707 146.824 130.59C146.635 131.382 146.437 132.234 145.938 132.895C144.547 134.737 143.675 134.688 141.548 135.018C139.688 135.113 137.542 135.444 135.848 134.535C135.366 134.276 135.329 133.558 135.172 133.055C136.517 130.4 139.486 128.609 141.813 126.839Z" fill="#272830"/>
<path d="M42.9111 126.535C43.5868 124.997 44.7497 123.416 46.0704 122.356C47.4415 121.255 48.7278 120.491 50.4781 120.631L50.7345 121.997L49.0456 124.464L51.3093 124.457L52.2502 125.66C51.9054 127.528 51.4971 128.593 49.9353 129.786C48.4532 130.918 47.3663 130.911 45.6234 130.816C44.2983 129.915 43.3611 128.82 42.9966 127.204C42.9476 126.984 42.9396 126.758 42.9111 126.535Z" fill="#10111A"/>
<path d="M42.9111 126.535C43.5868 124.997 44.7497 123.416 46.0704 122.356C47.4415 121.255 48.7278 120.491 50.4781 120.631L50.7345 121.997L49.0456 124.464C47.0164 126.013 45.4203 126.286 42.9111 126.535Z" fill="#272830"/>
<path d="M44.7716 29.8471C45.7665 30.0655 45.8564 30.2392 46.573 30.9856L46.196 32.9179C44.974 34.6538 43.7146 35.7559 41.7979 36.7074C39.4202 37.8883 37.1156 38.2301 34.586 37.4078C33.3668 36.8367 32.4289 36.2386 31.4121 35.3564C32.3398 34.2142 40.6583 33.0764 44.7716 29.8471Z" fill="#10111A"/>
<path d="M124.632 23.9105C126.836 24.1676 130.341 24.2458 131.851 25.9919C131.937 28.3076 131.352 28.7824 130.123 30.6877C129.456 30.887 128.729 31.1222 128.033 31.1645C126.167 31.2784 125.552 30.8907 124.185 29.7982C123.338 27.4999 123.865 26.1262 124.632 23.9105Z" fill="#0A0A0D"/>
<path d="M145.416 48.7521C147.975 48.9851 149.925 49.2327 152.174 50.5253C153.632 52.527 153.621 52.7767 153.458 55.1151C150.806 55.7972 149.26 56.1661 146.779 54.8004C145.558 52.7877 145.518 51.0423 145.416 48.7521Z" fill="#0A0A0D"/>
<path d="M36.8344 23.6338C37.9045 22.8823 39.3055 22.7947 40.4604 23.4074C41.616 24.0201 42.3289 25.2287 42.307 26.5352C42.2851 27.8424 41.532 29.0263 40.3567 29.6003C38.7277 30.3956 36.7606 29.8047 35.8387 28.2434C34.9169 26.6827 35.3508 24.6752 36.8344 23.6338Z" fill="#272830"/>
<path d="M65.5644 37.9928C67.7412 37.8445 69.7953 37.4874 71.7456 38.6654C72.5594 40.4568 72.4513 41.2301 72.3125 43.1384C71.0049 43.5094 69.9027 43.5532 68.5491 43.5064C66.6032 41.9443 66.3979 40.3129 65.5644 37.9928Z" fill="#0A0A0D"/>
<path d="M120.412 60.2016C121.701 60.7523 122.317 61.3562 123.228 62.41C123.966 64.4818 123.927 65.7138 123.527 67.8507C122.034 67.5381 120.907 67.2117 119.617 66.3857C118.826 63.9896 119.694 62.5816 120.412 60.2016Z" fill="#272830"/>
<path d="M65.9523 31.8196C67.1481 32.0643 68.5674 32.3914 69.6594 32.9304C71.6624 33.9185 71.8859 35.2126 72.4856 37.1274C70.6536 37.2136 69.0414 37.3114 67.2533 36.7805C65.9903 35.0854 66.1459 33.8973 65.9523 31.8196Z" fill="#272830"/>
<path d="M23.7224 67.1533L28.4946 66.8991C30.6203 67.9274 30.7612 68.4028 31.8014 70.4126L26.8189 70.72C24.7655 69.7297 24.6786 69.1265 23.7224 67.1533Z" fill="#272830"/>
<path d="M103.244 152.311C103.791 151.519 104.726 151.088 105.682 151.186C106.639 151.284 107.467 151.896 107.842 152.782C108.216 153.668 108.078 154.687 107.482 155.442C106.599 156.558 104.991 156.772 103.847 155.927C102.703 155.082 102.436 153.481 103.244 152.311Z" fill="#0A0A0D"/>
</svg>
