<svg width="189" height="202" viewBox="0 0 189 202" fill="none" xmlns="http://www.w3.org/2000/svg">
<path d="M5.71267 176.087C4.53662 175.727 2.13342 175.231 1.52713 174.46C0.533689 173.195 0.285329 169.745 0.248806 168.116C-0.182171 146.344 0.0807982 124.424 0.0661888 102.636C0.0442748 75.6885 -0.0945485 48.7342 0.190334 21.7967C0.212248 19.63 0.336423 14.7151 0.964626 12.6958C1.2422 11.8056 4.8653 11.5529 5.10635 11.2674C8.1524 7.6269 10.2926 4.12589 13.7916 0.852724C16.6623 -0.0535665 161.069 -0.39024 166.394 0.608797C166.562 1.9591 166.766 4.32524 167.19 5.5105C169.944 5.85958 169.995 5.38928 171.573 6.96597C171.427 9.75276 171.091 8.753 172.683 10.7839C174.115 11.4054 175.547 12.013 176.993 12.6082C177.534 14.6369 177.621 15.0072 177.57 17.1002C181.88 18.1204 183.837 21.241 188.118 24.6266C189.002 34.2124 188.505 52.1754 188.498 62.2694L188.469 132.247C188.469 142.314 189.827 185.68 188.14 192.842C187.183 193.749 183.1 195.685 183.275 195.377C182.252 197.348 182.851 200.264 179.849 200.529C162.537 202.054 137.394 201.561 120.732 201.185C110.33 200.951 28.1453 202.805 24.8289 199.838C24.2738 197.357 24.5295 196.392 22.9298 194.952L19.6938 194.546C16.4651 190.073 18.1598 190.148 13.1999 186.773C12.3526 185.786 12.3015 183.359 12.1043 182.058L9.58413 181.248C8.49574 181.327 7.44382 180.812 6.83023 179.9C6.22394 178.987 6.15822 177.817 6.65493 176.84L5.71267 176.087Z" fill="#141621"/>
<path d="M35.8079 103.19L36.3923 103.72L36.4361 108.454L35.8006 109.607C33.8357 109.631 32.0753 109.383 30.1541 109.039L30.0372 103.506C31.8853 103.229 33.938 103.282 35.8079 103.19Z" fill="#373840"/>
<path d="M117.591 85.6358L118.453 85.9455C118.38 87.9173 118.446 89.9935 117.971 91.9127L112.551 91.4329L112.726 86.6356L113.347 85.6278L117.591 85.6358Z" fill="#373840"/>
<path d="M5.71267 176.087C4.53662 175.727 2.13342 175.231 1.52713 174.46C0.533689 173.195 0.285329 169.745 0.248806 168.116C-0.182171 146.344 0.0807982 124.424 0.0661888 102.636C0.0442748 75.6885 -0.0945485 48.7342 0.190334 21.7967C0.212248 19.63 0.336423 14.7151 0.964626 12.6958C1.2422 11.8056 4.8653 11.5529 5.10635 11.2674C8.1524 7.6269 10.2926 4.12589 13.7916 0.852724C16.6623 -0.0535665 161.069 -0.39024 166.394 0.608797C166.562 1.9591 166.766 4.32524 167.19 5.5105L166.292 6.82724C164.531 11.6866 167.731 14.4339 164.882 18.0372L165.963 18.0204C165.094 32.2187 165.437 46.4514 165.634 60.6657C165.722 66.7914 166.394 73.5203 165.766 79.5897C162.457 79.467 158.644 78.8974 155.598 80.4047C154.341 81.644 153.888 82.5942 153.413 84.2819C151.624 84.7449 150.55 85.0406 148.768 84.2585C147.562 82.1866 147.57 80.7151 145.313 79.7395L142.865 80.1104C141.748 82.3042 143.012 83.9802 140.404 84.9471C138.541 85.6358 137.862 85.2028 136.54 86.9087C135.897 90.0234 136.89 94.048 135.488 96.7333C133.888 97.143 132.317 97.4716 130.857 98.2713C130.491 99.9407 131.032 102.095 129.498 102.963C128.767 103.378 127.891 103.342 127.073 103.354L125.334 102.492L124.779 100.492C124.253 98.2304 124.575 95.8679 124.019 93.6121C123.603 91.9331 123.493 91.7681 122.062 90.9049C120.484 91.2364 119.352 91.6578 117.986 92.5188L117.971 91.9127C118.446 89.9935 118.38 87.9173 118.453 85.9455L117.591 85.6358L113.347 85.6278L112.726 86.6356L112.551 91.4329L112.66 97.1233L113.055 99.2031L113.376 109.319L106.999 109.555L106.912 121.489L108.723 121.523C107.029 124.522 107.84 130.192 107.861 133.649C107.241 135.413 106.715 138.147 104.932 138.972C103.8 139.496 102.244 139.449 101.01 139.514C99.9358 139.46 98.3287 139.218 97.3206 139.628C96.0277 140.154 95.3923 143.039 94.9029 144.318C93.2448 145.322 92.58 145.092 90.7027 144.941C88.7012 142.171 90.5639 137.248 88.9496 133.845C87.1964 132.834 86.6486 133.013 84.7055 133.202C82.8575 134.686 82.9231 135.989 82.3534 138.244C80.498 139.527 79.7602 139.035 77.5761 138.738C77.2036 132.163 73.9895 134.709 71.6739 130.188C71.5059 128.147 71.6375 126.916 72.3534 124.996C70.8559 122.345 68.3212 121.231 65.7718 119.766L65.8155 109.486C64.1135 109.367 62.4189 109.315 60.7096 109.26L60.1399 108.182L60.1107 103.637C59.446 102.175 59.3948 100.299 59.1829 98.711C57.9265 98.6116 55.7862 98.6766 54.7782 97.8762C54.0842 97.3205 54.2158 96.5223 54.1135 95.6744L52.9301 91.3985C49.2194 91.4489 45.5013 91.4518 41.7905 91.4073L41.922 97.5469L38.3939 97.1459C36.9914 98.0427 36.4069 98.0968 36.0344 99.7648C35.7933 100.876 35.8226 102.056 35.8079 103.19C33.938 103.282 31.8853 103.229 30.0372 103.506L29.9131 103.153C30.1906 101.211 29.8765 99.0914 29.7596 97.1357L24.1058 96.8363C22.7837 97.0086 21.3958 97.0787 20.1467 97.5322L18.5105 97.9894L18.3497 101.053C16.5674 104.99 15.5667 103.2 13.4337 105.518C11.7682 107.335 12.8422 118.36 12.4623 121.325C12.4915 125.483 12.4257 129.664 12.5791 133.818L12.5207 139.205C12.5353 145.209 14.3395 157.104 11.1912 161.994C9.70103 162.895 8.38618 162.763 6.71341 162.745C6.62575 167.264 6.5308 171.629 5.71267 176.087Z" fill="#393C46"/>
<path d="M36.0052 58.0009C35.9906 49.523 34.0037 39.3456 35.5523 31.0926C36.1002 28.1466 38.5034 26.632 40.8847 25.0414C45.4648 21.9793 57.4372 16.8746 62.5067 20.0528C66.9918 22.8644 62.9813 24.5382 71.1261 26.12C73.3467 30.8749 69.7236 38.8249 72.4629 42.9094C74.2817 43.146 74.9464 43.2863 76.6922 42.5662C78.3285 40.2811 77.6127 35.2502 77.8537 32.4028C79.5557 31.8273 81.3892 31.5885 83.157 31.2606C83.3396 35.424 83.4783 39.5654 83.4417 43.7332C85.5966 43.6346 87.7881 43.4447 89.943 43.4696L89.9796 55.3229C92.0541 55.7158 93.6685 56.0561 95.743 55.4266L97.2623 55.5047C100.44 55.4558 105.319 54.9278 107.796 57.256C108.512 57.9337 108.351 58.4011 108.395 59.3336C107.745 60.3626 107.357 61.5464 106.123 61.821C104.896 62.0971 103.712 62.0781 102.456 62.0584C100.732 63.7694 100.666 65.9318 100.652 68.3476C100.637 71.5916 100.937 76.6146 102.836 79.3144C104.129 79.6913 105.385 79.9892 106.715 80.2105C106.963 82.5102 106.678 85.0209 108.468 86.5494L112.726 86.6356L112.551 91.4329L112.66 97.1233L113.055 99.2031L113.376 109.319L106.999 109.555L106.912 121.489L108.723 121.523C107.029 124.522 107.84 130.192 107.861 133.649C107.241 135.413 106.715 138.147 104.932 138.972C103.8 139.496 102.244 139.449 101.01 139.514C99.9358 139.46 98.3287 139.218 97.3206 139.628C96.0277 140.154 95.3923 143.039 94.9029 144.318C93.2448 145.322 92.58 145.092 90.7027 144.941C88.7012 142.171 90.5639 137.248 88.9496 133.845C87.1964 132.834 86.6486 133.013 84.7055 133.202C82.8575 134.686 82.9231 135.989 82.3534 138.244C80.498 139.527 79.7602 139.035 77.5761 138.738C77.2036 132.163 73.9895 134.709 71.6739 130.188C71.5059 128.147 71.6375 126.916 72.3534 124.996C70.8559 122.345 68.3212 121.231 65.7718 119.766L65.8155 109.486C64.1135 109.367 62.4189 109.315 60.7096 109.26L60.1399 108.182L60.1107 103.637C59.446 102.175 59.3948 100.299 59.1829 98.711C57.9265 98.6116 55.7862 98.6766 54.7782 97.8762C54.0842 97.3205 54.2158 96.5223 54.1135 95.6744L52.9301 91.3985C49.2194 91.4489 45.5013 91.4518 41.7905 91.4073L37.0936 91.4241L40.6875 90.6536C42.1411 88.7542 41.7028 87.7895 41.6006 85.4496L41.7467 85.0465C41.9804 81.4593 41.7758 77.7844 41.732 74.1885L41.1988 73.9161C39.1243 73.6714 38.2915 73.7686 36.6261 72.446C34.9752 67.8474 35.808 62.815 36.0052 58.0009Z" fill="#10111A"/>
<path d="M97.2623 55.5047C100.44 55.4558 105.319 54.9278 107.796 57.256C108.512 57.9337 108.351 58.4011 108.395 59.3336C107.745 60.3626 107.357 61.5464 106.123 61.821C104.896 62.0971 103.712 62.0781 102.456 62.0584C100.732 63.7694 100.666 65.9318 100.652 68.3476C100.637 71.5916 100.937 76.6146 102.836 79.3144C104.129 79.6913 105.385 79.9892 106.715 80.2105C106.963 82.5102 106.678 85.0209 108.468 86.5494L112.726 86.6356L112.551 91.4329L112.66 97.1233L113.055 99.2031L113.376 109.319L106.999 109.555L106.912 121.489L108.723 121.523C107.029 124.522 107.84 130.192 107.861 133.649C107.241 135.413 106.715 138.147 104.932 138.972C103.8 139.496 102.244 139.449 101.01 139.514C99.9358 139.46 98.3287 139.218 97.3206 139.628C96.0277 140.154 95.3923 143.039 94.9029 144.318C93.2448 145.322 92.58 145.092 90.7027 144.941C88.7012 142.171 90.5639 137.248 88.9496 133.845C87.1964 132.834 86.6486 133.013 84.7055 133.202C82.8575 134.686 82.9231 135.989 82.3534 138.244C80.498 139.527 79.7602 139.035 77.5761 138.738C77.2036 132.163 73.9895 134.709 71.6739 130.188C71.5059 128.147 71.6375 126.916 72.3534 124.996L72.8647 127.403L74.9757 128.387C77.4008 125.957 77.1672 124.126 77.4228 120.88C77.4959 119.362 77.547 118.208 77.0064 116.757C74.7566 115.673 72.4921 114.052 71.075 111.972L71.4696 110.889C73.398 109.415 75.2388 109.367 77.5763 109.172L77.4155 103.797C79.5704 103.389 81.2506 103.165 83.4347 103.529L85.962 104.309C94.2601 102.238 86.8825 90.5638 90.4618 85.6869L92.6822 85.492C95.2169 86.8562 95.0198 88.5139 96.7876 90.5332C98.0513 91.9719 99.3222 91.6388 101.061 91.679C101.148 88.9426 101.828 84.2651 100.659 81.7959C99.6364 79.6182 97.6203 78.7426 95.5384 77.8911C96.5611 72.1956 95.2974 65.6149 95.5604 59.7784C95.6554 57.711 95.7429 56.9076 97.2623 55.5047Z" fill="#202128"/>
<path d="M97.2623 55.5047C100.44 55.4558 105.319 54.9278 107.796 57.256C108.512 57.9337 108.351 58.4011 108.395 59.3336C107.745 60.3626 107.357 61.5464 106.123 61.821C104.896 62.0971 103.712 62.0781 102.456 62.0584C100.732 63.7694 100.666 65.9318 100.652 68.3476C100.637 71.5916 100.937 76.6146 102.836 79.3144C104.129 79.6913 105.385 79.9892 106.715 80.2105C106.963 82.5102 106.678 85.0209 108.468 86.5494L112.726 86.6356L112.551 91.4329L112.66 97.1233L113.055 99.2031L113.376 109.319L106.999 109.555L106.802 109.045C105.086 109.253 102.814 109.012 101.703 110.469C100.966 111.433 100.659 112.873 100.308 114.024C99.4975 114.324 98.7744 114.604 97.9124 114.753C97.1601 114.589 96.7509 114.299 96.0935 113.909L95.5091 110.013C95.6041 108.643 95.8379 107.346 96.1081 106C97.3061 104.875 98.4017 103.702 99.4244 102.408C102.354 98.6774 101.565 96.0469 101.061 91.679C101.148 88.9426 101.828 84.2651 100.659 81.7959C99.6364 79.6182 97.6203 78.7426 95.5384 77.8911C96.5611 72.1956 95.2974 65.6149 95.5604 59.7784C95.6554 57.711 95.7429 56.9076 97.2623 55.5047Z" fill="#010000"/>
<path d="M112.66 97.1233L113.055 99.2031L113.376 109.319L106.999 109.555L106.802 109.045C106.912 105.626 106.189 101.913 107.555 98.6905C109.337 96.9495 110.235 97.2832 112.66 97.1233Z" fill="#373840"/>
<path d="M97.9124 114.753C98.7744 114.604 99.4975 114.324 100.308 114.024C100.659 112.873 100.966 111.433 101.703 110.469C102.814 109.012 105.086 109.253 106.802 109.045L106.999 109.555L106.912 121.489C102.492 122.055 100.907 125.313 97.9709 128.366L97.0797 128.018C95.5749 123.936 95.6773 120.241 95.5604 115.958L97.9124 114.753Z" fill="#32333A"/>
<path d="M95.5604 115.958C94.4866 119.632 95.5092 123.59 94.2601 127.357C93.8291 127.432 93.3908 127.511 92.9525 127.52C86.9042 127.655 90.4689 118.459 87.5763 115.455C86.1372 115.282 85.0708 115.094 83.7706 114.437C83.1935 112.565 83.2811 111.498 83.6902 109.638L85.6113 109.301C88.6135 110.461 89.8335 113.873 92.3463 115.827L93.8582 115.508C95.3776 114.04 95.3265 111.991 95.5091 110.013L96.0935 113.909C96.7509 114.299 97.1601 114.589 97.9124 114.753L95.5604 115.958Z" fill="#10111A"/>
<path d="M106.912 121.489L108.723 121.523C107.029 124.522 107.84 130.192 107.861 133.649C107.241 135.413 106.715 138.147 104.932 138.972C103.8 139.496 102.244 139.449 101.01 139.514C100.929 137.778 100.827 136.352 101.506 134.7C102.565 134.281 103.88 133.842 104.75 133.1C107.635 130.652 106.919 124.887 106.912 121.489Z" fill="#10111A"/>
<path d="M77.4228 120.88C79.9283 121.281 81.8567 122.158 84.165 123.157L84.7713 124.946C81.3162 128.319 79.1247 127.28 74.9757 128.387C77.4008 125.957 77.1672 124.126 77.4228 120.88Z" fill="#2D2F37"/>
<path d="M77.4155 103.797C79.5704 103.389 81.2506 103.165 83.4347 103.529C83.3616 105.728 83.683 107.028 82.3316 108.807C80.7319 109.002 79.1833 109.14 77.5763 109.172L77.4155 103.797Z" fill="#10111A"/>
<path d="M41.8855 67.5947C42.5575 62.9698 41.2646 59.2745 44.5809 55.2952L45.9176 55.2594C48.182 57.3071 48.1676 58.5516 48.5328 61.4457C50.1837 61.7385 51.9294 61.5939 52.9301 63.0793C54.6102 65.5857 53.3319 70.6685 53.5365 73.6583C53.573 75.1423 53.1858 77.7786 54.2669 78.8645C57.649 82.2699 59.1025 79.3919 59.7965 85.5599C62.0828 85.641 63.6023 85.1502 65.2166 86.8539L65.7061 90.4426L72.7259 92.6619L71.747 103.264C73.6097 103.454 75.5455 103.758 77.4155 103.797L77.5763 109.172C75.2388 109.367 73.398 109.415 71.4696 110.889L71.075 111.972C72.4921 114.052 74.7566 115.673 77.0064 116.757C77.547 118.208 77.4959 119.362 77.4228 120.88C77.1672 124.126 77.4008 125.957 74.9757 128.387L72.8647 127.403L72.3534 124.996C70.8559 122.345 68.3212 121.231 65.7718 119.766L65.8155 109.486C64.1135 109.367 62.4189 109.315 60.7096 109.26L60.1399 108.182L60.1107 103.637C59.446 102.175 59.3948 100.299 59.1829 98.711C57.9265 98.6116 55.7862 98.6766 54.7782 97.8762C54.0842 97.3205 54.2158 96.5223 54.1135 95.6744L52.9301 91.3985C49.2194 91.4489 45.5013 91.4518 41.7905 91.4073L37.0936 91.4241L40.6875 90.6536C42.1411 88.7542 41.7028 87.7895 41.6006 85.4496L41.7467 85.0465C41.9804 81.4593 41.7758 77.7844 41.732 74.1885L41.1988 73.9161C41.9366 71.9757 41.7978 69.6534 41.8855 67.5947Z" fill="#393C46"/>
<path d="M41.8855 67.5947C42.5575 62.9698 41.2646 59.2745 44.5809 55.2952L45.9176 55.2594C48.182 57.3071 48.1676 58.5516 48.5328 61.4457C47.2691 65.2301 46.7797 75.1693 48.4378 78.8244C48.5839 79.1428 48.6277 79.2071 48.7884 79.478L52.879 80.5048C54.055 83.6012 53.4634 87.8793 53.3977 91.1736L52.9301 91.3985C49.2194 91.4489 45.5013 91.4518 41.7905 91.4073L37.0936 91.4241L40.6875 90.6536C42.1411 88.7542 41.7028 87.7895 41.6006 85.4496L41.7467 85.0465C41.9804 81.4593 41.7758 77.7844 41.732 74.1885L41.1988 73.9161C41.9366 71.9757 41.7978 69.6534 41.8855 67.5947Z" fill="#272830"/>
<path d="M41.732 74.1885C44.0111 74.0483 45.0191 73.5911 46.8965 74.9699C48.1821 77.6932 48.7518 79.5423 47.6707 82.4992C47.2544 83.6202 46.6919 84.3607 45.7642 85.1202C44.3252 85.2677 43.1711 85.3576 41.7467 85.0465C41.9804 81.4593 41.7758 77.7844 41.732 74.1885Z" fill="#10111A"/>
<path d="M53.3977 91.1736C55.9397 91.4723 57.3421 91.2269 59.2559 92.9913C59.4386 94.9667 59.3802 96.7406 59.1829 98.711C57.9265 98.6116 55.7862 98.6766 54.7782 97.8762C54.0842 97.3205 54.2158 96.5223 54.1135 95.6744L52.9301 91.3985L53.3977 91.1736Z" fill="#2D2F37"/>
<path d="M60.1107 103.637C61.8857 103.136 63.0764 102.711 64.8661 103.508C66.0056 105.536 65.9105 107.157 65.8155 109.486C64.1135 109.367 62.4189 109.315 60.7096 109.26L60.1399 108.182L60.1107 103.637Z" fill="#271717"/>
<path d="M83.4417 43.7332C85.5966 43.6346 87.7881 43.4447 89.943 43.4696L89.9796 55.3229C92.0541 55.7158 93.6685 56.0561 95.743 55.4266L97.2623 55.5047C95.7429 56.9076 95.6554 57.711 95.5604 59.7784C95.2974 65.6149 96.5611 72.1956 95.5384 77.8911C97.6203 78.7426 99.6364 79.6182 100.659 81.7959C101.828 84.2651 101.148 88.9426 101.061 91.679C99.3222 91.6388 98.0513 91.9719 96.7876 90.5332C95.0198 88.5139 95.2169 86.8562 92.6822 85.492L90.4618 85.6869C86.8825 90.5638 94.2601 102.238 85.962 104.309L83.4347 103.529L83.3249 90.4834L83.4637 86.0104L83.4272 79.6941C81.265 79.6905 79.2708 79.7993 77.2547 78.8974C77.2986 77.6844 77.1963 76.077 77.8172 75.0064C78.4089 74.0045 81.3234 73.5247 82.4995 73.1661C83.9896 71.2564 83.5368 69.8572 83.5222 67.4801L83.3907 55.5091L77.5616 55.4653L77.5835 44.3875C79.3731 44.5884 80.7464 44.3678 82.4776 43.9742L83.4417 43.7332Z" fill="#393C46"/>
<path d="M83.5222 67.4801C86.0131 67.7262 87.3936 67.4575 89.2928 69.1532C90.2497 72.3898 89.1906 75.9952 89.3075 79.3707L83.4272 79.6941C81.265 79.6905 79.2708 79.7993 77.2547 78.8974C77.2986 77.6844 77.1963 76.077 77.8172 75.0064C78.4089 74.0045 81.3234 73.5247 82.4995 73.1661C83.9896 71.2564 83.5368 69.8572 83.5222 67.4801Z" fill="#272830"/>
<path d="M82.4776 43.9742L83.4417 43.7332L83.3907 55.5091L77.5616 55.4653L77.5835 44.3875C79.3731 44.5884 80.7464 44.3678 82.4776 43.9742Z" fill="#271717"/>
<path d="M95.743 55.4266L97.2623 55.5047C95.7429 56.9076 95.6554 57.711 95.5604 59.7784C95.2974 65.6149 96.5611 72.1956 95.5384 77.8911C93.179 74.4755 96.532 67.1522 94.4793 63.2743C93.6685 61.7422 92.4048 61.7787 90.8562 61.3602C89.5998 59.3308 89.9723 57.681 89.9796 55.3229C92.0541 55.7158 93.6685 56.0561 95.743 55.4266Z" fill="#272830"/>
<path d="M83.4272 79.6941L89.3075 79.3707C89.2856 81.8084 89.6654 83.5764 88.3432 85.6592C86.6558 86.1091 85.1803 86.0776 83.4637 86.0104L83.4272 79.6941Z" fill="#141621"/>
<path d="M72.4117 68.0227L73.9676 69.1904L74.5081 73.0755C75.8522 73.7416 76.6996 73.7949 77.1159 75.3154C77.4227 76.4312 77.2913 77.7472 77.2547 78.8974C79.2708 79.7993 81.265 79.6905 83.4272 79.6941L83.4637 86.0104L83.3249 90.4834L83.4347 103.529C81.2506 103.165 79.5704 103.389 77.4155 103.797C75.5455 103.758 73.6097 103.454 71.747 103.264L72.7259 92.6619L65.7061 90.4426L65.9033 84.8771L65.5746 80.5763C66.9917 80.3719 68.4088 80.1455 69.8186 79.8994C71.2649 78.0992 70.8704 76.0442 70.9435 73.7817L71.5426 73.8044C71.5572 71.7318 71.9004 70.0142 72.4117 68.0227Z" fill="#0A0A0D"/>
<path d="M76.9187 89.2457C78.4819 90.7099 79.1029 90.6654 81.1993 90.6186C81.9079 90.5975 82.6164 90.5528 83.3249 90.4834L83.4347 103.529C81.2506 103.165 79.5704 103.389 77.4155 103.797C75.5455 103.758 73.6097 103.454 71.747 103.264C74.0772 103.156 75.3263 103.516 77.1086 101.943C78.6645 98.6255 77.6784 94.8835 77.1086 91.4008L76.9187 89.2457Z" fill="#141621"/>
<path d="M71.5426 73.8044C71.6448 77.0571 72.4775 81.6382 70.4614 84.2965C68.8909 84.8471 67.5395 84.8588 65.9033 84.8771L65.5746 80.5763C66.9917 80.3719 68.4088 80.1455 69.8186 79.8994C71.2649 78.0992 70.8704 76.0442 70.9435 73.7817L71.5426 73.8044Z" fill="#202128"/>
<path d="M77.1086 91.4008C74.6835 91.3153 73.8361 91.5475 71.8492 90.0701C71.5643 88.2546 71.6228 88.281 72.682 86.7641C74.5958 86.1332 74.6031 86.1375 76.4366 86.9628L76.9187 89.2457L77.1086 91.4008Z" fill="#2D2F37"/>
<path d="M36.0052 58.0009C36.2317 55.0527 36.0125 52.0753 37.9702 49.7647C39.2704 49.8735 39.9863 49.6836 40.8191 50.8148C43.3173 54.1975 41.4326 63.1618 41.8855 67.5947C41.7978 69.6534 41.9366 71.9757 41.1988 73.9161C39.1243 73.6714 38.2915 73.7686 36.6261 72.446C34.9752 67.8474 35.808 62.815 36.0052 58.0009Z" fill="#010000"/>
<path d="M70.6878 48.9132C70.6586 47.2291 70.6951 46.065 71.506 44.5351C73.4052 43.3549 75.5089 44.0246 77.5835 44.3875L77.5616 55.4653L71.9443 55.4303C71.8201 53.0977 71.8128 51.0186 70.6878 48.9132Z" fill="#010000"/>
<path d="M71.3672 67.2216C71.3964 64.0784 70.9509 59.8252 72.9085 57.2114C73.734 56.0999 73.8288 56.1094 75.2021 55.9276C75.4432 56.1445 75.5967 56.276 75.8304 56.525C78.3432 59.2219 77.62 63.8513 77.5543 67.2727C75.5017 67.2931 73.4125 67.4093 71.3672 67.2216Z" fill="#393C46"/>
<path d="M77.8537 32.4028C79.5557 31.8273 81.3892 31.5885 83.157 31.2606C83.3396 35.424 83.4783 39.5654 83.4417 43.7332L82.4776 43.9742C81.1043 43.9698 80.1768 43.8961 78.9131 43.3505C77.3645 40.5703 78.3577 35.719 77.8537 32.4028Z" fill="#010000"/>
<path d="M53.5365 73.6583C55.3042 73.8124 57.6052 73.4918 58.7959 74.9298C60.6878 77.2178 59.8768 82.703 59.7965 85.5599C59.1025 79.3919 57.649 82.2699 54.2669 78.8645C53.1858 77.7786 53.573 75.1423 53.5365 73.6583Z" fill="#2D2F37"/>
<path d="M65.5746 80.5763C65.5599 78.5198 65.582 76.627 65.9764 74.599C67.693 73.348 68.8543 73.7364 70.9435 73.7817C70.8704 76.0442 71.2649 78.0992 69.8186 79.8994C68.4088 80.1455 66.9917 80.3719 65.5746 80.5763Z" fill="#373840"/>
<path d="M70.6878 48.9132C71.8128 51.0186 71.8201 53.0977 71.9443 55.4303C70.1035 55.6552 68.5914 55.9261 66.8164 55.1871C65.6622 53.5155 65.5818 53.5556 65.9325 51.5678C67.5614 49.5836 68.2773 49.6055 70.6878 48.9132Z" fill="#2D2F37"/>
<path d="M77.5543 67.2727C77.5543 69.3971 77.9268 71.1198 76.78 72.9382L74.5081 73.0755L73.9676 69.1904L72.4117 68.0227L71.3672 67.2216C73.4125 67.4093 75.5017 67.2931 77.5543 67.2727Z" fill="#272830"/>
<path d="M46.7503 28.7667C49.1828 26.1822 50.8191 25.1576 54.581 25.0685C56.2392 25.0283 57.8972 25.327 59.2413 26.3472L60.096 28.0641C62.5504 28.3175 63.6826 28.0298 65.4796 29.7986C66.9113 33.4916 65.5672 37.8902 65.8886 41.814C65.8448 43.88 66.137 44.6812 64.7856 46.3039C63.2662 46.6369 61.557 46.856 60.1107 47.43L59.8477 48.5386C58.2699 49.9363 55.2604 49.997 53.1201 50.1146C49.3655 50.3212 46.1367 49.5683 43.3756 46.8888C41.1403 44.7133 41.7174 41.7359 41.71 38.8841C41.7466 35.9119 40.9943 32.5576 42.1631 29.7511C43.887 28.3811 44.5954 28.717 46.7503 28.7667Z" fill="#271717"/>
<path d="M46.7503 28.7667C49.1828 26.1822 50.8191 25.1576 54.581 25.0685C56.2392 25.0283 57.8972 25.327 59.2413 26.3472L60.096 28.0641C62.5504 28.3175 63.6826 28.0298 65.4796 29.7986C66.9113 33.4916 65.5672 37.8902 65.8886 41.814C65.8448 43.88 66.137 44.6812 64.7856 46.3039C63.2662 46.6369 61.557 46.856 60.1107 47.43C60.0303 45.4626 59.8915 42.2201 58.4963 40.869C56.4656 39.6589 55.6329 39.5027 54.7052 37.2739L54.4056 37.2811L53.8213 35.6679L51.9659 34.8675C49.6357 33.0886 48.1529 32.08 47.2325 29.1822L46.7503 28.7667Z" fill="#272830"/>
<path d="M60.096 28.0641C62.5504 28.3175 63.6826 28.0298 65.4796 29.7986C66.9113 33.4916 65.5672 37.8902 65.8886 41.814C65.8448 43.88 66.137 44.6812 64.7856 46.3039C63.2662 46.6369 61.557 46.856 60.1107 47.43C60.0303 45.4626 59.8915 42.2201 58.4963 40.869C59.3948 39.3785 59.3584 38.2524 59.373 36.5778L59.7821 36.8057C59.7455 33.8897 59.9426 30.9758 60.096 28.0641Z" fill="#3D3D46"/>
<path d="M59.373 36.5778L59.7821 36.8057C60.1692 38.5058 60.1911 39.6874 61.8127 40.7361C62.8208 41.3919 64.6834 41.676 65.8886 41.814C65.8448 43.88 66.137 44.6812 64.7856 46.3039C63.2662 46.6369 61.557 46.856 60.1107 47.43C60.0303 45.4626 59.8915 42.2201 58.4963 40.869C59.3948 39.3785 59.3584 38.2524 59.373 36.5778Z" fill="#272830"/>
<path d="M47.2325 29.1822C48.8615 29.2085 49.811 28.9324 51.104 30.0476L51.1331 31.6929C52.5576 30.6121 53.0763 30.0834 54.9024 29.8862L56.2537 30.6691C55.947 32.5291 55.0631 33.0878 53.7848 34.4096L51.9659 34.8675C49.6357 33.0886 48.1529 32.08 47.2325 29.1822Z" fill="#141621"/>
<path d="M54.7052 37.2739C56.0565 36.0725 56.3268 35.8015 58.0872 35.4977L59.373 36.5778C59.3584 38.2524 59.3948 39.3785 58.4963 40.869C56.4656 39.6589 55.6329 39.5027 54.7052 37.2739Z" fill="#141621"/>
<path d="M41.71 38.8841C41.7466 35.9119 40.9943 32.5576 42.1631 29.7511C43.887 28.3811 44.5954 28.717 46.7503 28.7667L47.2325 29.1822C48.1529 32.08 49.6357 33.0886 51.9659 34.8675L53.8213 35.6679L54.4056 37.2811C51.7832 39.3165 45.1652 38.7395 41.71 38.8841Z" fill="#3D3D46"/>
<path d="M59.8916 56.0298C61.6885 55.9086 63.1567 55.7399 64.8441 56.5162C66.904 59.2526 65.9545 64.2682 65.7938 67.5787C63.5074 67.686 62.1999 67.9504 60.3299 66.6022C58.774 63.703 59.6651 59.2387 59.8916 56.0298Z" fill="#3D3D46"/>
<path d="M5.71267 176.087C4.53662 175.727 2.13342 175.231 1.52713 174.46C0.533689 173.195 0.285329 169.745 0.248806 168.116C-0.182171 146.344 0.0807982 124.424 0.0661888 102.636C0.0442748 75.6885 -0.0945485 48.7342 0.190334 21.7967C0.212248 19.63 0.336423 14.7151 0.964626 12.6958C1.2422 11.8056 4.8653 11.5529 5.10635 11.2674C8.1524 7.6269 10.2926 4.12589 13.7916 0.852724C16.6623 -0.0535665 161.069 -0.39024 166.394 0.608797C166.562 1.9591 166.766 4.32524 167.19 5.5105L166.292 6.82724C164.531 11.6866 167.731 14.4339 164.882 18.0372C160.221 17.2061 160.623 16.7124 158.585 12.3095C121.411 11.4127 84.2234 11.3762 47.0499 12.2007C40.6656 12.3585 23.8429 11.8611 18.6346 12.8368C16.4943 15.9274 18.2913 16.3772 15.888 17.5508L13.6601 16.9651C10.3365 19.2597 12.3966 76.0398 12.55 83.8458C13.2293 81.8646 13.368 80.9583 14.9531 79.5408C17.4586 80.5399 17.7727 82.7848 19.7303 84.474C21.6514 86.1361 23.2074 85.7994 24.9897 88.1312C24.2885 89.2829 24.1058 90.1132 22.8128 90.5733C24.471 92.5948 24.1935 94.2861 24.1058 96.8363C22.7837 97.0086 21.3958 97.0787 20.1467 97.5322L18.5105 97.9894L18.3497 101.053C16.5674 104.99 15.5667 103.2 13.4337 105.518C11.7682 107.335 12.8422 118.36 12.4623 121.325C12.4915 125.483 12.4257 129.664 12.5791 133.818L12.5207 139.205C12.5353 145.209 14.3395 157.104 11.1912 161.994C9.70103 162.895 8.38618 162.763 6.71341 162.745C6.62575 167.264 6.5308 171.629 5.71267 176.087Z" fill="#5A6069"/>
<path d="M5.71267 176.087C4.53662 175.727 2.13342 175.231 1.52713 174.46C0.533689 173.195 0.285329 169.745 0.248806 168.116C-0.182171 146.344 0.0807982 124.424 0.0661888 102.636C0.0442748 75.6885 -0.0945485 48.7342 0.190334 21.7967C0.212248 19.63 0.336423 14.7151 0.964626 12.6958C1.2422 11.8056 4.8653 11.5529 5.10635 11.2674C8.1524 7.6269 10.2926 4.12589 13.7916 0.852724C16.6623 -0.0535665 161.069 -0.39024 166.394 0.608797C166.014 3.07645 166.328 4.34569 164.816 5.66825C154.129 6.54094 135.553 5.82091 124.275 5.8158L44.3763 5.87494C39.8255 5.88078 15.5227 5.67048 13.0392 6.37302C12.4475 9.64837 13.3023 10.1172 11.5419 11.6143L7.56802 11.8852C6.40657 13.5934 6.39196 17.1491 6.37735 19.2991C6.04133 60.0712 7.26851 100.827 5.91714 141.591C5.6907 148.536 6.65497 155.801 6.71341 162.745C6.62575 167.264 6.5308 171.629 5.71267 176.087Z" fill="#010000"/>
<path d="M12.55 83.8458C13.2293 81.8646 13.368 80.9583 14.9531 79.5408C17.4586 80.5399 17.7727 82.7848 19.7303 84.474C21.6514 86.1361 23.2074 85.7994 24.9897 88.1312C24.2885 89.2829 24.1058 90.1132 22.8128 90.5733C24.471 92.5948 24.1935 94.2861 24.1058 96.8363C22.7837 97.0086 21.3958 97.0787 20.1467 97.5322L18.5105 97.9894L17.707 97.0532L12.5938 97.3278C12.2139 92.6159 11.9656 88.5467 12.55 83.8458Z" fill="#010000"/>
<path d="M22.8128 90.5733C24.471 92.5948 24.1935 94.2861 24.1058 96.8363C22.7837 97.0086 21.3958 97.0787 20.1467 97.5322L18.5105 97.9894L17.707 97.0532L17.948 93.0213C19.4089 91.0685 20.4972 91.178 22.8128 90.5733Z" fill="#523640"/>
<path d="M12.5938 97.3278L17.707 97.0532L18.5105 97.9894L18.3497 101.053C16.5674 104.99 15.5667 103.2 13.4337 105.518C11.7682 107.335 12.8422 118.36 12.4623 121.325C10.9648 113.831 11.7683 104.886 12.5938 97.3278Z" fill="#3A4044"/>
<path d="M118.767 34.9113L119.505 34.8982C121.506 35.0632 122.274 34.8697 123.771 36.3105C124.114 38.0501 124.392 39.8239 125.005 41.4912L124.845 42.564C126.627 43.6755 127.263 43.5784 129.293 43.5426C129.447 43.6018 129.6 43.6631 129.754 43.7201C132.171 44.6212 134.838 44.1999 136.839 45.6831C136.846 45.8314 136.854 45.9796 136.861 46.1278C136.912 47.4219 137 48.1413 137.679 49.244L139.973 49.9823L142.456 50.0123L142.259 54.1055C141.916 54.4057 141.441 54.9147 141.01 55.1046C141.675 57.4518 141.711 59.7061 141.762 62.1314C140.667 62.1862 138.767 61.9591 138.008 62.7347C137.197 63.5533 137.117 64.805 136.941 65.8866L136.474 63.9666C134.757 62.4754 133.121 62.7398 130.893 62.528L130.462 61.9576L124.311 62.038C124.122 64.1251 124.377 65.4017 122.938 66.9733L118.694 67.6524C118.417 70.2142 118.811 72.3555 116.598 74.022C115.809 74.6106 114.72 75.0335 113.829 75.4483C113.325 76.7007 113.157 77.7589 113.07 79.1034L113.106 79.6423L113.347 85.6278L112.726 86.6356L108.468 86.5494C106.678 85.0209 106.963 82.5102 106.715 80.2105C107.007 76.0814 106.503 71.9947 107.007 67.8445C108.994 67.8868 110.659 67.9285 112.566 67.2909C115.115 63.5788 112.953 40.6499 112.887 34.7207C114.845 34.8821 116.81 35.1421 118.767 34.9113Z" fill="#10111A"/>
<path d="M118.767 34.9113L119.505 34.8982C121.506 35.0632 122.274 34.8697 123.771 36.3105C124.114 38.0501 124.392 39.8239 125.005 41.4912L124.845 42.564C126.627 43.6755 127.263 43.5784 129.293 43.5426C129.447 43.6018 129.6 43.6631 129.754 43.7201C132.171 44.6212 134.838 44.1999 136.839 45.6831C136.846 45.8314 136.854 45.9796 136.861 46.1278C136.912 47.4219 137 48.1413 137.679 49.244L139.973 49.9823L142.456 50.0123L142.259 54.1055C141.916 54.4057 141.441 54.9147 141.01 55.1046C135.371 56.1723 130.192 56.6776 124.465 55.8473C124.472 54.7263 124.487 53.5878 124.406 52.4704C124.231 50.1204 120.849 50.7155 119.125 49.2367C117.409 45.3793 118.512 39.1215 118.767 34.9113Z" fill="#271717"/>
<path d="M119.505 34.8982C121.506 35.0632 122.274 34.8697 123.771 36.3105C124.114 38.0501 124.392 39.8239 125.005 41.4912L124.845 42.564C123.654 43.6602 122.741 43.7361 121.163 43.8347L119.812 42.6224C118.935 39.8897 119.147 37.7171 119.505 34.8982Z" fill="#3D3D46"/>
<path d="M139.973 49.9823L142.456 50.0123L142.259 54.1055C141.916 54.4057 141.441 54.9147 141.01 55.1046C135.371 56.1723 130.192 56.6776 124.465 55.8473C127.27 55.4464 134.662 56.0758 136.671 54.4918C136.686 53.6023 136.627 52.5697 136.985 51.7423C137.526 50.4797 138.767 50.3913 139.973 49.9823Z" fill="#272830"/>
<path d="M106.715 80.2105C107.007 76.0814 106.503 71.9947 107.007 67.8445C107.365 71.1753 106.554 76.4159 108.263 79.21C109.885 80.1455 111.346 79.841 113.106 79.6423L113.347 85.6278L112.726 86.6356L108.468 86.5494C106.678 85.0209 106.963 82.5102 106.715 80.2105Z" fill="#272830"/>
<path d="M119.994 30.7991L121.616 29.9651C121.886 28.5118 121.967 27.1476 123.026 26.0368C127.752 25.3313 134.093 23.6093 138.264 26.8146C139.827 28.0115 141.383 29.9541 143.085 30.8378C144.049 31.3351 146.752 31.2708 147.358 31.763C147.657 32.0121 147.986 34.6711 148.03 35.0851C148.673 41.2364 148.534 48.9921 147.029 54.9965C145.641 55.8758 142.844 57.1355 142.493 58.6984C142.223 59.8383 141.982 60.9827 141.762 62.1314C141.711 59.7061 141.675 57.4518 141.01 55.1046C141.441 54.9147 141.916 54.4057 142.259 54.1055L142.456 50.0123L139.973 49.9823L137.679 49.244C137 48.1413 136.912 47.4219 136.861 46.1278C136.854 45.9796 136.846 45.8314 136.839 45.6831C134.838 44.1999 132.171 44.6212 129.754 43.7201C129.6 43.6631 129.447 43.6018 129.293 43.5426C127.263 43.5784 126.627 43.6755 124.845 42.564L125.005 41.4912C124.392 39.8239 124.114 38.0501 123.771 36.3105C122.274 34.8697 121.506 35.0632 119.505 34.8982L118.767 34.9113C116.81 35.1421 114.845 34.8821 112.887 34.7207C114.604 34.6418 116.079 34.6842 117.62 33.8166C118.205 32.638 118.687 31.8127 119.739 30.9904C119.827 30.9247 119.907 30.8626 119.994 30.7991Z" fill="#10111A"/>
<path d="M136.671 34.5578C139.074 34.3855 140.009 33.8955 141.974 35.386C143.611 39.8152 142.383 45.2917 142.456 50.0123L139.973 49.9823L137.679 49.244C137 48.1413 136.912 47.4219 136.861 46.1278C136.854 45.9796 136.846 45.8314 136.839 45.6831C134.838 44.1999 132.171 44.6212 129.754 43.7201C129.6 43.6631 129.447 43.6018 129.293 43.5426C127.263 43.5784 126.627 43.6755 124.845 42.564L125.005 41.4912C126.459 40.062 127.737 38.8096 129.556 37.847L130.857 37.7733C131.66 36.7867 132.347 36.0308 133.442 35.367C133.961 35.0515 135.305 35.5934 135.926 35.7438L136.671 34.5578Z" fill="#3D3D46"/>
<path d="M129.556 37.847L130.857 37.7733C131.66 36.7867 132.347 36.0308 133.442 35.367C133.961 35.0515 135.305 35.5934 135.926 35.7438L135.385 37.8201C132.42 39.4647 131.098 40.6872 129.293 43.5426C127.263 43.5784 126.627 43.6755 124.845 42.564L125.005 41.4912C126.459 40.062 127.737 38.8096 129.556 37.847Z" fill="#141621"/>
<path d="M112.887 34.7207C114.604 34.6418 116.079 34.6842 117.62 33.8166C118.205 32.638 118.687 31.8127 119.739 30.9904C119.827 30.9247 119.907 30.8626 119.994 30.7991C122.39 31.8865 123.194 31.6571 125.758 31.3913C126.401 34.59 126.912 35.7891 129.556 37.847C127.737 38.8096 126.459 40.062 125.005 41.4912C124.392 39.8239 124.114 38.0501 123.771 36.3105C122.274 34.8697 121.506 35.0632 119.505 34.8982L118.767 34.9113C116.81 35.1421 114.845 34.8821 112.887 34.7207Z" fill="#272830"/>
<path d="M125.758 31.3913C128.819 31.2715 131.901 30.8618 134.655 32.4575C135.342 33.6588 135.364 33.9911 136.671 34.5578L135.926 35.7438C135.305 35.5934 133.961 35.0515 133.442 35.367C132.347 36.0308 131.66 36.7867 130.857 37.7733L129.556 37.847C126.912 35.7891 126.401 34.59 125.758 31.3913Z" fill="#271717"/>
<path d="M130.462 61.9576L130.893 62.528C133.121 62.7398 134.757 62.4754 136.474 63.9666L136.941 65.8866C138.804 66.7834 142.288 68.0862 143.092 70.1749C143.15 70.3348 143.194 70.5013 143.245 70.6641C141.521 73.142 139.476 72.5045 137.497 74.144C135.751 75.5856 137.511 78.1409 135.378 79.8322L131.551 79.8468C129.22 82.6541 131.288 86.8116 130.133 89.8467C128.607 93.8531 124.94 87.4053 124.779 100.492C124.253 98.2304 124.575 95.8679 124.019 93.6121C123.603 91.9331 123.493 91.7681 122.062 90.9049C120.484 91.2364 119.352 91.6578 117.986 92.5188L117.971 91.9127C118.446 89.9935 118.38 87.9173 118.453 85.9455L117.591 85.6358L113.347 85.6278L113.106 79.6423L113.07 79.1034C113.157 77.7589 113.325 76.7007 113.829 75.4483C114.72 75.0335 115.809 74.6106 116.598 74.022C118.811 72.3555 118.417 70.2142 118.694 67.6524L122.938 66.9733C124.377 65.4017 124.122 64.1251 124.311 62.038L130.462 61.9576Z" fill="#10111A"/>
<path d="M113.07 79.1034C113.157 77.7589 113.325 76.7007 113.829 75.4483C114.72 75.0335 115.809 74.6106 116.598 74.022C118.811 72.3555 118.417 70.2142 118.694 67.6524C121.141 67.9073 122.427 67.5998 124.202 69.3751C124.516 71.7311 124.436 74.0687 124.392 76.4385L124.326 79.9425C124.18 82.2561 124.443 83.7057 123.026 85.5818C121.492 85.7965 120.009 85.9301 118.453 85.9455L117.591 85.6358L113.347 85.6278L113.106 79.6423L113.07 79.1034Z" fill="#202128"/>
<path d="M118.694 67.6524C121.141 67.9073 122.427 67.5998 124.202 69.3751C124.516 71.7311 124.436 74.0687 124.392 76.4385L124.326 79.9425C122.193 80.0469 121.017 80.461 119.206 79.2633C117.781 76.2144 119.067 71.1885 118.694 67.6524Z" fill="#373840"/>
<path d="M113.106 79.6423L113.07 79.1034C115.276 79.8242 116.364 79.8943 117.854 81.7222C117.81 83.0068 117.869 84.3783 117.591 85.6358L113.347 85.6278L113.106 79.6423Z" fill="#141621"/>
<path d="M130.462 61.9576L130.893 62.528C130.951 65.3009 131.616 70.0946 129.629 72.2343C128.205 73.7621 126.014 75.0473 124.392 76.4385C124.436 74.0687 124.516 71.7311 124.202 69.3751C122.427 67.5998 121.141 67.9073 118.694 67.6524L122.938 66.9733C124.377 65.4017 124.122 64.1251 124.311 62.038L130.462 61.9576Z" fill="#141621"/>
<path d="M124.311 62.038L130.462 61.9576C130.425 62.7558 130.389 63.5628 130.287 64.3559C130.046 66.2875 129.469 66.7388 128.008 67.827L126.401 67.5086C124.553 65.4791 124.684 64.694 124.311 62.038Z" fill="#272830"/>
<path d="M83.1788 30.5113C83.3176 29.8803 83.4491 28.5329 83.734 28.0006C84.3622 26.8372 86.8093 25.5942 87.8174 24.6018C89.2783 23.1646 90.1036 20.9854 91.4769 19.3839L92.9963 18.7543C94.691 19.8622 94.9978 20.6546 95.458 22.641C97.5398 31.6265 95.8526 45.9416 95.743 55.4266C93.6685 56.0561 92.0541 55.7158 89.9796 55.3229L89.943 43.4696C87.7881 43.4447 85.5966 43.6346 83.4417 43.7332C83.4783 39.5654 83.3396 35.424 83.157 31.2606L83.1788 30.5113Z" fill="#010000"/>
<path d="M83.1788 30.5113C85.4871 30.7859 87.1453 30.9173 88.9569 32.4896C90.805 35.4816 90.0452 40.0387 89.943 43.4696C87.7881 43.4447 85.5966 43.6346 83.4417 43.7332C83.4783 39.5654 83.3396 35.424 83.157 31.2606L83.1788 30.5113Z" fill="#523640"/>
<path d="M41.6006 85.4496C41.7028 87.7895 42.1411 88.7542 40.6875 90.6536L37.0936 91.4241L41.7905 91.4073L41.922 97.5469L38.3939 97.1459C36.9914 98.0427 36.4069 98.0968 36.0344 99.7648C35.7933 100.876 35.8226 102.056 35.8079 103.19C33.938 103.282 31.8853 103.229 30.0372 103.506L29.9131 103.153C30.1906 101.211 29.8765 99.0914 29.7596 97.1357L24.1058 96.8363C24.1935 94.2861 24.471 92.5948 22.8128 90.5733C24.1058 90.1132 24.2885 89.2829 24.9897 88.1312C24.924 88.9572 25.1651 89.8102 25.3039 90.6245L26.8963 91.3664C28.9782 90.5989 30.4537 87.956 31.7174 86.1953C34.537 84.9443 38.5399 85.4408 41.6006 85.4496Z" fill="#10111A"/>
<path d="M35.6837 96.9816L38.3939 97.1459C36.9914 98.0427 36.4069 98.0968 36.0344 99.7648C35.7933 100.876 35.8226 102.056 35.8079 103.19C33.938 103.282 31.8853 103.229 30.0372 103.506L29.9131 103.153C30.1906 101.211 29.8765 99.0914 29.7596 97.1357C31.7319 97.162 33.7114 97.0561 35.6837 96.9816Z" fill="#272830"/>
<path d="M35.6837 96.9816L36.0199 92.0529L37.0936 91.4241L41.7905 91.4073L41.922 97.5469L38.3939 97.1459L35.6837 96.9816Z" fill="#32333A"/>
<path d="M167.19 5.5105C169.944 5.85958 169.995 5.38928 171.573 6.96597C171.427 9.75276 171.091 8.753 172.683 10.7839C174.115 11.4054 175.547 12.013 176.993 12.6082C177.534 14.6369 177.621 15.0072 177.57 17.1002C181.88 18.1204 183.837 21.241 188.118 24.6266C189.002 34.2124 188.505 52.1754 188.498 62.2694L188.469 132.247C188.469 142.314 189.827 185.68 188.14 192.842C187.183 193.749 183.1 195.685 183.275 195.377C182.252 197.348 182.851 200.264 179.849 200.529C162.537 202.054 137.394 201.561 120.732 201.185C110.33 200.951 28.1453 202.805 24.8289 199.838C24.2738 197.357 24.5295 196.392 22.9298 194.952L19.6938 194.546C16.4651 190.073 18.1598 190.148 13.1999 186.773C12.3526 185.786 12.3015 183.359 12.1043 182.058C21.7099 179.621 51.8198 181.066 63.2079 181.062C97.6275 181.049 132.135 180.535 166.547 181.121L171.186 180.911C171.777 179.255 171.829 176.966 172.055 175.197L172.566 175.168C172.384 170.22 172.172 165.272 171.938 160.326C171.661 113.177 172.851 64.5414 171.909 17.6341L165.963 18.0204L164.882 18.0372C167.731 14.4339 164.531 11.6866 166.292 6.82724L167.19 5.5105Z" fill="#8A868A"/>
<path d="M167.19 5.5105C169.944 5.85958 169.995 5.38928 171.573 6.96597C171.427 9.75276 171.091 8.753 172.683 10.7839C174.115 11.4054 175.547 12.013 176.993 12.6082C177.534 14.6369 177.621 15.0072 177.57 17.1002C177.351 49.9136 177.314 82.7285 177.46 115.543L177.636 152.481C177.636 157.433 178.68 170.815 175.656 174.291C174.517 174.7 173.794 175.016 172.566 175.168C172.384 170.22 172.172 165.272 171.938 160.326C171.661 113.177 172.851 64.5414 171.909 17.6341L165.963 18.0204L164.882 18.0372C167.731 14.4339 164.531 11.6866 166.292 6.82724L167.19 5.5105Z" fill="#010000"/>
<path d="M164.882 18.0372C167.731 14.4339 164.531 11.6866 166.292 6.82724C167.3 16.8578 172.267 6.9609 171.909 17.6341L165.963 18.0204L164.882 18.0372Z" fill="#53545B"/>
<path d="M12.1043 182.058C21.7099 179.621 51.8198 181.066 63.2079 181.062C97.6275 181.049 132.135 180.535 166.547 181.121C166.153 183.031 166.167 185.012 164.721 186.354C151.953 187.311 138.819 186.611 125.999 186.588L52.9813 186.579C39.789 186.584 26.3557 186.078 13.1999 186.773C12.3526 185.786 12.3015 183.359 12.1043 182.058Z" fill="#010000"/>
<path d="M165.963 18.0204L171.909 17.6341C172.851 64.5414 171.661 113.177 171.938 160.326L166.153 164.909L165.539 174.94C114.553 175.015 63.4271 173.884 12.4696 175.31C12.5281 171.479 12.0166 166.686 13.8574 163.253L15.0772 163.03C17.4513 164.333 18.452 166.788 19.6573 169.086H158.768L159.798 161.926C161.039 160.721 162.274 159.498 163.479 158.259C164.816 156.867 166.036 155.675 165.992 153.711C163.202 150.675 157.168 153.607 154.027 152.341C149.535 150.529 148.936 145.659 142.603 144.598L141.836 145.128L136.788 145.148L131.689 145.281L130.988 144.905L124.509 144.805L124.275 139.465L124.37 138.978L124.334 133.854C123.209 132.829 121.39 133.173 120.111 132.358C118.892 131.575 118.76 128.13 118.519 126.663C116.941 126.87 114.881 126.682 113.844 128.005C111.857 130.546 112.989 132.724 109.096 133.439C108.687 133.515 108.278 133.585 107.861 133.649C107.84 130.192 107.029 124.522 108.723 121.523L106.912 121.489L106.999 109.555L113.376 109.319L113.055 99.2031L112.66 97.1233L112.551 91.4329L117.971 91.9127L117.986 92.5188C119.352 91.6578 120.484 91.2364 122.062 90.9049C123.493 91.7681 123.603 91.9331 124.019 93.6121C124.575 95.8679 124.253 98.2304 124.779 100.492L125.334 102.492L127.073 103.354C127.891 103.342 128.767 103.378 129.498 102.963C131.032 102.095 130.491 99.9407 130.857 98.2713C132.317 97.4716 133.888 97.143 135.488 96.7333C136.89 94.048 135.897 90.0234 136.54 86.9087C137.862 85.2028 138.541 85.6358 140.404 84.9471C143.012 83.9802 141.748 82.3042 142.865 80.1104L145.313 79.7395C147.57 80.7151 147.562 82.1866 148.768 84.2585C150.55 85.0406 151.624 84.7449 153.413 84.2819C153.888 82.5942 154.341 81.644 155.598 80.4047C158.644 78.8974 162.457 79.467 165.766 79.5897C166.394 73.5203 165.722 66.7914 165.634 60.6657C165.437 46.4514 165.094 32.2187 165.963 18.0204Z" fill="#272830"/>
<path d="M124.779 100.492L125.334 102.492L127.073 103.354C127.891 103.342 128.767 103.378 129.498 102.963C131.032 102.095 130.491 99.9407 130.857 98.2713C132.317 97.4716 133.888 97.143 135.488 96.7333C136.89 94.048 135.897 90.0234 136.54 86.9087C137.862 85.2028 138.541 85.6358 140.404 84.9471C143.012 83.9802 141.748 82.3042 142.865 80.1104L145.313 79.7395C147.57 80.7151 147.562 82.1866 148.768 84.2585C150.55 85.0406 151.624 84.7449 153.413 84.2819C153.888 82.5942 154.341 81.644 155.598 80.4047C158.644 78.8974 162.457 79.467 165.766 79.5897C166.671 84.7558 167.701 92.6809 164.173 97.1043C163.932 97.4059 163.808 97.4424 163.509 97.6031C162.018 96.7479 161.332 95.8767 160.806 94.1904C160.105 91.9236 160.389 88.5387 160.295 86.1594L159.929 91.1451C159.966 93.355 159.885 95.6342 160.061 97.8324C158.242 97.3044 156.153 97.5279 154.275 97.5454C152.289 97.7659 150.426 97.5702 148.446 97.365L148.497 103.21L148.476 103.716L148.417 104.602C147.497 108.043 146.927 108.537 143.822 110.332C142.566 111.061 142.332 112.239 141.755 113.534C141.952 115.18 142.215 116.772 141.967 118.421L141.31 120.66C139.637 121.286 137.884 121.686 136.854 123.236L136.54 127.782C130.141 128.017 132.42 130.019 127.891 132.437C126.525 133.162 126.423 133.065 125.057 132.623C124.56 126.354 122.047 128.978 118.694 125.067L118.519 126.663C116.941 126.87 114.881 126.682 113.844 128.005C111.857 130.546 112.989 132.724 109.096 133.439C108.687 133.515 108.278 133.585 107.861 133.649C107.84 130.192 107.029 124.522 108.723 121.523L106.912 121.489L106.999 109.555L113.376 109.319L113.055 99.2031L112.66 97.1233L112.551 91.4329L117.971 91.9127L117.986 92.5188C119.352 91.6578 120.484 91.2364 122.062 90.9049C123.493 91.7681 123.603 91.9331 124.019 93.6121C124.575 95.8679 124.253 98.2304 124.779 100.492Z" fill="#010000"/>
<path d="M118.694 125.067C118.848 122.326 119.001 119.624 119.447 116.912C120.761 116.519 121.945 115.938 122.967 115.012C124.421 113.699 124.94 112.133 124.998 110.232C125.005 110.063 124.998 109.893 124.998 109.724C126.992 108.666 128.629 108.993 130.864 109.02C130.725 111.297 130.374 112.508 131.463 114.547C133.968 116.023 135.422 116.383 138.3 115.617C140.199 115.111 140.579 115.084 141.755 113.534C141.952 115.18 142.215 116.772 141.967 118.421L141.31 120.66C139.637 121.286 137.884 121.686 136.854 123.236L136.54 127.782C130.141 128.017 132.42 130.019 127.891 132.437C126.525 133.162 126.423 133.065 125.057 132.623C124.56 126.354 122.047 128.978 118.694 125.067Z" fill="#202128"/>
<path d="M141.879 97.1408L141.858 95.7211C141.814 92.4334 141.251 87.8274 143.735 85.278C145.663 85.7322 146.204 86.8569 147.519 88.2839C148.899 89.7795 149.659 91.0575 151.741 91.1466C153.735 89.093 153.603 88.1152 154.078 85.351C155.941 85.4335 158.702 85.2115 160.295 86.1594L159.929 91.1451C159.966 93.355 159.885 95.6342 160.061 97.8324C158.242 97.3044 156.153 97.5279 154.275 97.5454C152.289 97.7659 150.426 97.5702 148.446 97.365C146.525 96.8421 143.903 97.1291 141.879 97.1408Z" fill="#271717"/>
<path d="M154.078 85.351C155.941 85.4335 158.702 85.2115 160.295 86.1594L159.929 91.1451C157.811 91.1597 156.423 91.5453 154.67 90.3038L154.078 85.351Z" fill="#523640"/>
<path d="M141.879 97.1408C143.903 97.1291 146.525 96.8421 148.446 97.365L148.497 103.21L148.476 103.716L148.417 104.602C147.497 108.043 146.927 108.537 143.822 110.332C142.566 111.061 142.332 112.239 141.755 113.534C140.579 115.084 140.199 115.111 138.3 115.617C135.422 116.383 133.968 116.023 131.463 114.547C130.374 112.508 130.725 111.297 130.864 109.02C132.763 109.072 134.275 109.093 136.101 108.414C136.014 107.122 136.204 105.727 137.044 104.683C138.249 103.202 139.301 103.131 141.054 102.857C142.193 101.048 141.85 99.2572 141.879 97.1408Z" fill="#373840"/>
<path d="M113.376 109.319C115.013 109.432 117.343 109.294 118.797 110.035L119.761 111.842C118.03 114.444 114.991 114.858 113.398 116.97C112.054 118.746 114.056 120.62 111.149 121.341C110.396 121.529 109.505 121.506 108.723 121.523L106.912 121.489L106.999 109.555L113.376 109.319Z" fill="#271717"/>
<path d="M112.551 91.4329L117.971 91.9127L117.986 92.5188C117.854 93.8779 118.066 95.8117 116.912 96.6895C116.094 97.3081 114.728 97.4534 113.742 97.6477L113.055 99.2031L112.66 97.1233L112.551 91.4329Z" fill="#141621"/>
<path d="M154.275 97.5454C156.153 97.5279 158.242 97.3044 160.061 97.8324C161.514 98.0778 162.946 98.3035 164.422 98.4028C167.497 103.416 165.678 125.832 165.546 132.712C157.431 132.74 148.768 132.225 140.725 133.107L138.103 133.002C136.313 131.416 136.722 130.109 136.54 127.782L136.854 123.236C137.884 121.686 139.637 121.286 141.31 120.66L141.967 118.421C142.215 116.772 141.952 115.18 141.755 113.534C142.332 112.239 142.566 111.061 143.822 110.332C146.927 108.537 147.497 108.043 148.417 104.602L148.476 103.716L148.497 103.21L148.446 97.365C150.426 97.5702 152.289 97.7659 154.275 97.5454Z" fill="#2D2F37"/>
<path d="M148.476 103.716C150.579 103.718 152.018 103.396 153.823 104.514C154.166 106.103 154.188 107.4 154.034 109.016C154.115 109.805 154.085 111.893 154.414 112.504C155.86 115.188 161.069 117.351 159.958 120.96C156.759 122.344 153.377 121.029 150.156 121.834C144.568 123.234 149.761 128.092 136.54 127.782L136.854 123.236C137.884 121.686 139.637 121.286 141.31 120.66L141.967 118.421C142.215 116.772 141.952 115.18 141.755 113.534C142.332 112.239 142.566 111.061 143.822 110.332C146.927 108.537 147.497 108.043 148.417 104.602L148.476 103.716Z" fill="#010000"/>
<path d="M141.755 113.534C142.332 112.239 142.566 111.061 143.822 110.332C146.927 108.537 147.497 108.043 148.417 104.602C148.446 108.199 148.921 111.292 146.226 114.086C144.86 115.5 142.836 116.66 141.967 118.421C142.215 116.772 141.952 115.18 141.755 113.534Z" fill="#202128"/>
<path d="M154.275 97.5454C156.153 97.5279 158.242 97.3044 160.061 97.8324C160.404 100.811 161.368 104.718 159.995 107.477C157.877 109.134 156.671 108.858 154.034 109.016C154.188 107.4 154.166 106.103 153.823 104.514C152.018 103.396 150.579 103.718 148.476 103.716L148.497 103.21L148.446 97.365C150.426 97.5702 152.289 97.7659 154.275 97.5454Z" fill="#10111A"/>
<path d="M148.446 97.365C150.426 97.5702 152.289 97.7659 154.275 97.5454C154.071 99.6808 154.356 101.141 152.858 102.734C151.412 102.896 149.958 103.077 148.497 103.21L148.446 97.365Z" fill="#272830"/>
<path d="M118.519 126.663L118.694 125.067C122.047 128.978 124.56 126.354 125.057 132.623C126.423 133.065 126.525 133.162 127.891 132.437C132.42 130.019 130.141 128.017 136.54 127.782C136.722 130.109 136.313 131.416 138.103 133.002L140.725 133.107C148.709 133.806 157.657 132.333 165.379 134.023C165.985 135.883 166.043 137.453 166.051 139.387L159.6 139.528L151.003 139.466C148.41 139.565 143.355 139.043 141.295 140.706C140.988 142.312 141.032 142.587 141.616 144.119L142.603 144.598L141.836 145.128L136.788 145.148L131.689 145.281L130.988 144.905L124.509 144.805L124.275 139.465L124.37 138.978L124.334 133.854C123.209 132.829 121.39 133.173 120.111 132.358C118.892 131.575 118.76 128.13 118.519 126.663Z" fill="#10111A"/>
<path d="M136.788 145.148C136.627 144.041 136.393 142.858 136.503 141.74C136.62 140.523 136.81 140.202 137.818 139.47C140.908 137.221 147.482 138.825 151.003 139.466C148.41 139.565 143.355 139.043 141.295 140.706C140.988 142.312 141.032 142.587 141.616 144.119L142.603 144.598L141.836 145.128L136.788 145.148Z" fill="#202128"/>
<path d="M124.37 138.978C125.846 139.17 128.643 139.061 129.542 140.318C130.221 141.274 130.389 142.804 130.659 143.936C130.776 144.453 130.747 144.288 130.988 144.905L124.509 144.805L124.275 139.465L124.37 138.978Z" fill="#272830"/>
<path d="M166.051 139.387C166.043 141.724 166.438 144.81 164.896 146.705L163.34 147.272C161.894 146.563 160.85 145.444 160.382 143.877C159.966 142.489 159.798 140.962 159.6 139.528L166.051 139.387Z" fill="#141621"/>
<path d="M107.861 133.649C108.278 133.585 108.687 133.515 109.096 133.439C112.989 132.724 111.857 130.546 113.844 128.005C114.881 126.682 116.941 126.87 118.519 126.663C118.76 128.13 118.892 131.575 120.111 132.358C121.39 133.173 123.209 132.829 124.334 133.854L124.37 138.978L124.275 139.465L124.509 144.805L124.173 145.294L124.743 151.215L129.87 151.403L130.462 152.373L130.784 157.362C134.356 158.005 137.927 157.865 141.543 157.808C141.894 160.05 142.288 160.721 141.185 162.762C140.243 163.315 139.228 163.929 138.169 164.201C130.104 166.265 131.448 158.295 129.111 157.69C125.509 156.754 122.186 159.229 118.526 157.092C118.307 155.844 118.008 154.912 117.394 153.801C113.347 153.956 107.116 160.417 103.924 163.114C103.8 163.099 103.676 163.103 103.552 163.069C102.631 162.815 96.3566 157.021 95.911 156.075C95.2097 154.593 95.2462 152.988 94.3551 151.437C88.7597 150.08 82.989 151.694 77.284 150.489C77.7369 146.705 77.5177 142.566 77.5761 138.738C79.7602 139.035 80.498 139.527 82.3534 138.244C82.9231 135.989 82.8575 134.686 84.7055 133.202C86.6486 133.013 87.1964 132.834 88.9496 133.845C90.5639 137.248 88.7012 142.171 90.7027 144.941C92.58 145.092 93.2448 145.322 94.9029 144.318C95.3923 143.039 96.0277 140.154 97.3206 139.628C98.3287 139.218 99.9358 139.46 101.01 139.514C102.244 139.449 103.8 139.496 104.932 138.972C106.715 138.147 107.241 135.413 107.861 133.649Z" fill="#10111A"/>
<path d="M107.861 133.649C108.278 133.585 108.687 133.515 109.096 133.439C112.989 132.724 111.857 130.546 113.844 128.005C114.881 126.682 116.941 126.87 118.519 126.663C118.76 128.13 118.892 131.575 120.111 132.358C121.39 133.173 123.209 132.829 124.334 133.854L124.37 138.978L124.275 139.465L124.509 144.805L124.173 145.294L119.206 144.909L118.716 145.332C116.503 145.382 115.181 145.033 113.398 146.403C113.274 147.747 113.113 149.097 113.128 150.448L112.712 150.446C110.367 151.279 108.212 151.344 105.75 151.405C104.53 151.03 103.347 150.519 102.164 150.058C100.075 147.442 100.885 142.722 101.01 139.514C102.244 139.449 103.8 139.496 104.932 138.972C106.715 138.147 107.241 135.413 107.861 133.649Z" fill="#202128"/>
<path d="M118.351 139.181L124.275 139.465L124.509 144.805L124.173 145.294L119.206 144.909C117.745 144.699 116.269 144.557 114.801 144.397C113.501 143.23 113.238 143.197 113.019 141.494C114.881 139.778 115.918 139.737 118.351 139.181Z" fill="#373840"/>
<path d="M105.75 151.405C105.977 149.906 106.495 148.667 107.072 147.282C108.694 146.005 108.782 145.742 110.812 145.807C112.595 147.483 112.39 148.091 112.712 150.446C110.367 151.279 108.212 151.344 105.75 151.405Z" fill="#271717"/>
<path d="M118.351 139.181C120.995 137.788 120.068 135.287 124.334 133.854L124.37 138.978L124.275 139.465L118.351 139.181Z" fill="#2D2F37"/>
<path d="M119.206 144.909L124.173 145.294L124.743 151.215L129.87 151.403L130.462 152.373C130.133 153.692 129.834 155.016 129.549 156.346C127.716 156.676 125.86 157.028 124.012 157.256C122.317 157.465 121.236 157.418 119.885 156.344C119.856 155.176 119.958 153.664 119.483 152.584C118.826 151.094 114.823 151.008 113.128 150.448C113.113 149.097 113.274 147.747 113.398 146.403C115.181 145.033 116.503 145.382 118.716 145.332L119.206 144.909Z" fill="#010000"/>
<path d="M119.206 144.909L124.173 145.294L124.743 151.215L120.535 150.99C118.891 149.31 119.067 147.618 118.716 145.332L119.206 144.909Z" fill="#202128"/>
<path d="M41.7905 91.4073C45.5013 91.4518 49.2194 91.4489 52.9301 91.3985L54.1135 95.6744C54.2158 96.5223 54.0842 97.3205 54.7782 97.8762C55.7862 98.6766 57.9265 98.6116 59.1829 98.711C59.3948 100.299 59.446 102.175 60.1107 103.637L60.1399 108.182L60.7096 109.26C62.4189 109.315 64.1135 109.367 65.8155 109.486L65.7718 119.766C68.3212 121.231 70.8559 122.345 72.3534 124.996C71.6375 126.916 71.5059 128.147 71.6739 130.188C73.9895 134.709 77.2036 132.163 77.5761 138.738C75.7427 138.875 74.3987 138.961 72.6383 138.237C71.6156 135.076 68.2043 132.682 65.7718 130.527C63.3759 128.411 61.9515 127.208 58.6497 127.409C56.6483 127.174 55.5015 127.317 53.9237 126.02L54.3546 121.802L48.584 121.986L42.4626 121.814L41.5276 122.237L35.45 122.293L34.6246 121.652L31.1695 121.324L30.1981 116.767L29.8182 115.403C30.1615 113.476 29.9788 111.344 29.9715 109.386L30.1541 109.039C32.0753 109.383 33.8357 109.631 35.8006 109.607L36.4361 108.454L36.3923 103.72L35.8079 103.19C35.8226 102.056 35.7933 100.876 36.0344 99.7648C36.4069 98.0968 36.9914 98.0427 38.3939 97.1459L41.922 97.5469L41.7905 91.4073Z" fill="#10111A"/>
<path d="M36.4361 108.454L41.754 109.184C41.9366 111.252 42.1558 112.586 43.2442 114.407C42.3019 116.624 42.4918 119.125 42.4626 121.492V121.814L41.5276 122.237L35.45 122.293L34.6246 121.652L31.1695 121.324L30.1981 116.767L29.8182 115.403C30.1615 113.476 29.9788 111.344 29.9715 109.386L30.1541 109.039C32.0753 109.383 33.8357 109.631 35.8006 109.607L36.4361 108.454Z" fill="#202128"/>
<path d="M36.4361 108.454L41.754 109.184C41.9366 111.252 42.1558 112.586 43.2442 114.407C42.3019 116.624 42.4918 119.125 42.4626 121.492C42.017 119.986 41.7174 118.53 41.4983 116.975C40.3222 115.693 39.2119 115.436 37.583 115.076L36.9767 114.945C35.6837 113.219 35.9394 111.73 35.8006 109.607L36.4361 108.454Z" fill="#2D2F37"/>
<path d="M30.1981 116.767C31.6006 115.508 31.9657 115.499 33.8503 115.201C35.5669 116.078 35.6473 116.158 36.4581 117.904C36.0417 119.707 35.9687 120.294 34.6246 121.652L31.1695 121.324L30.1981 116.767Z" fill="#0A0A0D"/>
<path d="M48.3136 114.653L53.7556 115.215C56.4583 115.5 57.2471 115.399 59.4312 117.131L60.0304 118.755C59.351 120.113 59.1464 121.049 57.5394 121.493C56.5825 121.758 55.3553 121.738 54.3546 121.802L48.584 121.986L42.4626 121.814V121.492C42.4918 119.125 42.3019 116.624 43.2442 114.407L48.3136 114.653Z" fill="#202128"/>
<path d="M43.2442 114.407L48.3136 114.653C49.0879 116.994 48.7227 119.559 48.584 121.986L42.4626 121.814V121.492C42.4918 119.125 42.3019 116.624 43.2442 114.407Z" fill="#373840"/>
<path d="M41.7905 91.4073C45.5013 91.4518 49.2194 91.4489 52.9301 91.3985L54.1135 95.6744L53.4342 97.0269C51.8125 97.1576 50.0813 96.9327 48.4597 96.845L47.5466 97.1985L42.6743 97.3366L41.922 97.5469L41.7905 91.4073Z" fill="#10111A"/>
<path d="M42.6743 97.3366C42.6378 94.9785 42.2946 94.2087 43.7701 92.302C45.4502 91.8331 45.5452 91.9382 47.1522 92.6452C48.2479 94.262 48.2844 94.9594 48.4597 96.845L47.5466 97.1985L42.6743 97.3366Z" fill="#0A0A0D"/>
<path d="M54.1135 95.6744C54.2158 96.5223 54.0842 97.3205 54.7782 97.8762C55.7862 98.6766 57.9265 98.6116 59.1829 98.711C59.3948 100.299 59.446 102.175 60.1107 103.637L60.1399 108.182L59.2926 104.792C57.3641 103.312 55.9543 103.721 53.5656 103.698L53.4342 97.0269L54.1135 95.6744Z" fill="#202128"/>
<path d="M38.3939 97.1459L41.922 97.5469L41.3961 103.114L41.2135 103.597L36.3923 103.72L35.8079 103.19C35.8226 102.056 35.7933 100.876 36.0344 99.7648C36.4069 98.0968 36.9914 98.0427 38.3939 97.1459Z" fill="#0A0A0D"/>
<path d="M48.4597 96.845C50.0813 96.9327 51.8125 97.1576 53.4342 97.0269L53.5656 103.698C53.5218 103.718 53.4853 103.746 53.4415 103.757C51.7322 104.152 50.914 104.26 49.2778 103.598C47.9703 101.564 48.3647 99.1557 48.4597 96.845Z" fill="#0A0A0D"/>
<path d="M42.6743 97.3366L47.5466 97.1985C47.5758 99.3441 47.9557 100.794 46.7796 102.623C44.9608 103.179 43.2734 103.136 41.3961 103.114L41.922 97.5469L42.6743 97.3366Z" fill="#2D2F37"/>
<path d="M47.4005 109.65C49.8329 109.687 51.2428 109.441 53.3685 110.669C53.931 112.339 53.9893 113.473 53.7556 115.215L48.3136 114.653C47.5831 113.205 47.5831 111.252 47.4005 109.65Z" fill="#141621"/>
<path d="M41.2135 103.597C41.6737 105.574 41.9366 107.138 41.754 109.184L36.4361 108.454L36.3923 103.72L41.2135 103.597Z" fill="#202128"/>
<path d="M41.754 109.184L47.4005 109.65C47.5831 111.252 47.5831 113.205 48.3136 114.653L43.2442 114.407C42.1558 112.586 41.9366 111.252 41.754 109.184Z" fill="#272830"/>
<path d="M20.1467 97.5322C21.3958 97.0787 22.7837 97.0086 24.1058 96.8363L29.7596 97.1357C29.8765 99.0914 30.1906 101.211 29.9131 103.153L30.0372 103.506L30.1541 109.039L29.9715 109.386C29.9788 111.344 30.1615 113.476 29.8182 115.403L30.1981 116.767L31.1695 121.324L34.6246 121.652L35.45 122.293L41.5276 122.237L42.4626 121.814L48.584 121.986L54.3546 121.802L53.9237 126.02C55.5015 127.317 56.6483 127.174 58.6497 127.409C57.0792 127.592 55.3772 127.938 53.8067 127.904C50.8995 127.571 46.3853 126.536 43.982 128.455C43.0324 129.212 42.6306 130.334 42.1266 131.394C41.8271 132.022 41.5056 132.639 41.2061 133.265C39.9132 133.666 38.7957 133.896 37.437 133.945C37.5758 135.518 37.2908 137.229 38.6057 138.28C39.4019 138.912 40.6218 139.145 41.586 139.395C33.9307 139.44 26.2827 139.501 18.6274 139.233C16.7063 138.985 14.4783 139.205 12.5207 139.205L12.5791 133.818C12.4257 129.664 12.4915 125.483 12.4623 121.325C12.8422 118.36 11.7682 107.335 13.4337 105.518C15.5667 103.2 16.5674 104.99 18.3497 101.053L18.5105 97.9894L20.1467 97.5322Z" fill="#373840"/>
<path d="M20.1467 97.5322C21.3958 97.0787 22.7837 97.0086 24.1058 96.8363L29.7596 97.1357C29.8765 99.0914 30.1906 101.211 29.9131 103.153L30.0372 103.506L30.1541 109.039L29.9715 109.386C29.9788 111.344 30.1615 113.476 29.8182 115.403L30.1981 116.767L31.1695 121.324L22.1117 121.432C21.929 121.435 21.7537 121.442 21.5711 121.442C19.6427 121.441 18.4593 121.093 17.181 119.748L17.2906 118.952C18.642 116.576 21.3593 115.184 23.6091 113.738C22.9809 109.839 18.3205 111.327 18.3497 101.053L18.5105 97.9894L20.1467 97.5322Z" fill="#010000"/>
<path d="M20.1467 97.5322C21.3958 97.0787 22.7837 97.0086 24.1058 96.8363L29.7596 97.1357C29.8765 99.0914 30.1906 101.211 29.9131 103.153L24.2009 102.949L23.8648 98.9541C22.5719 97.5797 21.951 97.7374 20.1467 97.5322Z" fill="#271717"/>
<path d="M22.1117 121.432C22.9444 119.932 23.8721 117.894 25.0189 116.627C26.3703 115.131 27.9628 115.484 29.8182 115.403L30.1981 116.767L31.1695 121.324L22.1117 121.432Z" fill="#271717"/>
<path d="M24.2009 102.949L29.9131 103.153L30.0372 103.506L30.1541 109.039L29.9715 109.386C28.6786 108.972 26.9984 109.153 25.8297 108.42C24.6901 107.708 24.4566 104.305 24.2009 102.949Z" fill="#141621"/>
<path d="M13.3534 133.685C21.352 134.219 29.4895 133.157 37.437 133.945C37.5758 135.518 37.2908 137.229 38.6057 138.28C39.4019 138.912 40.6218 139.145 41.586 139.395C33.9307 139.44 26.2827 139.501 18.6274 139.233C16.7063 138.985 14.4783 139.205 12.5207 139.205L12.5791 133.818L13.3534 133.685Z" fill="#10111A"/>
<path d="M41.5276 122.237L42.4626 121.814L48.584 121.986L54.3546 121.802L53.9237 126.02C55.5015 127.317 56.6483 127.174 58.6497 127.409C57.0792 127.592 55.3772 127.938 53.8067 127.904C50.8995 127.571 46.3853 126.536 43.982 128.455C43.0324 129.212 42.6306 130.334 42.1266 131.394C41.8271 132.022 41.5056 132.639 41.2061 133.265C39.9132 133.666 38.7957 133.896 37.437 133.945C29.4895 133.157 21.352 134.219 13.3534 133.685C20.9064 130.407 35.2163 136.788 41.5567 131.502L41.6152 128.599L41.5276 122.237Z" fill="#202128"/>
<path d="M35.45 122.293L41.5276 122.237L41.6152 128.599L38.0724 127.64C36.2462 125.84 36.144 124.722 35.45 122.293Z" fill="#0A0A0D"/>
<path d="M58.6497 127.409C61.9515 127.208 63.3759 128.411 65.7718 130.527C68.2043 132.682 71.6156 135.076 72.6383 138.237C70.2423 138.668 68.4964 138.607 66.6483 140.231C66.3123 142.02 66.1078 143.708 66.0274 145.525L58.6204 145.22L54.1573 145.574C54.0039 147.816 54.0551 148.479 52.6307 150.325C49.7015 152.024 45.3406 151.285 42.0169 151.304L41.6517 157.112L36.7795 157.047L35.5815 157.105C33.4924 157.101 32.4989 157.297 30.6727 156.241C29.0803 153.627 29.8474 149.468 29.9935 146.498C33.1783 144.74 36.8891 146.019 40.2419 144.597C41.7321 142.54 41.5349 141.872 41.586 139.395C40.6218 139.145 39.4019 138.912 38.6057 138.28C37.2908 137.229 37.5758 135.518 37.437 133.945C38.7957 133.896 39.9132 133.666 41.2061 133.265C41.5056 132.639 41.8271 132.022 42.1266 131.394C42.6306 130.334 43.0324 129.212 43.982 128.455C46.3853 126.536 50.8995 127.571 53.8067 127.904C55.3772 127.938 57.0792 127.592 58.6497 127.409Z" fill="#010000"/>
<path d="M58.6497 127.409C61.9515 127.208 63.3759 128.411 65.7718 130.527C68.2043 132.682 71.6156 135.076 72.6383 138.237C70.2423 138.668 68.4964 138.607 66.6483 140.231C66.3123 142.02 66.1078 143.708 66.0274 145.525L58.6204 145.22L54.1573 145.574L53.5948 142.42L53.2004 141.106C51.608 139.972 50.4976 140.189 48.5692 140.099L47.941 134.827L51.1843 132.962C52.1704 132.978 52.3385 132.772 53.1786 132.226L53.8067 127.904C55.3772 127.938 57.0792 127.592 58.6497 127.409Z" fill="#272830"/>
<path d="M51.1843 132.962L53.4707 134.183C54.1646 136.605 53.8578 137.286 55.8374 139.03L58.92 139.607C59.6797 141.54 59.1537 142.708 58.7739 144.722L58.6204 145.22L54.1573 145.574L53.5948 142.42L53.2004 141.106C51.608 139.972 50.4976 140.189 48.5692 140.099L47.941 134.827L51.1843 132.962Z" fill="#393C46"/>
<path d="M53.5948 142.42C54.2011 140.494 54.0769 140.281 55.8227 139.324C57.2033 140.096 58.0068 140.381 58.5255 141.997C58.7738 142.79 58.7374 143.89 58.7739 144.722L58.6204 145.22L54.1573 145.574L53.5948 142.42Z" fill="#3D3D46"/>
<path d="M47.941 134.827L48.5692 140.099C50.4976 140.189 51.608 139.972 53.2004 141.106L53.5948 142.42L54.1573 145.574C54.0039 147.816 54.0551 148.479 52.6307 150.325C49.7015 152.024 45.3406 151.285 42.0169 151.304L40.9212 148.022C41.7613 146.492 43.1856 145.586 44.5516 144.546L46.4436 145.069C47.5685 141.629 47.5027 138.372 47.941 134.827Z" fill="#271717"/>
<path d="M48.5692 140.099C50.4976 140.189 51.608 139.972 53.2004 141.106L53.5948 142.42L54.1573 145.574C52.6599 145.683 51.177 145.59 49.6795 145.521C48.2186 143.791 48.6276 142.322 48.5692 140.099Z" fill="#523640"/>
<path d="M35.5815 157.105C35.6473 156.302 35.7129 155.491 35.8371 154.694C36.217 152.218 38.9782 151.508 40.8336 150.107L40.9212 148.022L42.0169 151.304L41.6517 157.112L36.7795 157.047L35.5815 157.105Z" fill="#271717"/>
<path d="M66.0274 145.525C66.1078 143.708 66.3123 142.02 66.6483 140.231C68.4964 138.607 70.2423 138.668 72.6383 138.237C74.3987 138.961 75.7427 138.875 77.5761 138.738C77.5177 142.566 77.7369 146.705 77.284 150.489L77.1452 151.282C77.3205 152.06 77.5908 153.001 77.5908 153.806C77.5835 155.245 76.5681 156.203 75.5089 157.014C74.1867 158.024 72.1635 158.319 70.5492 158.072C68.4819 157.754 67.0794 156.74 65.8011 155.143C65.6769 154.355 65.5819 153.406 65.2678 152.674C64.5738 151.064 62.7258 150.968 61.2284 150.568C60.0231 150.118 59.3948 149.293 58.5548 148.348L58.9638 147.216C61.0311 145.622 63.5219 145.704 66.0274 145.525Z" fill="#010000"/>
<path d="M66.0274 145.525C66.1078 143.708 66.3123 142.02 66.6483 140.231C68.4964 138.607 70.2423 138.668 72.6383 138.237C74.3987 138.961 75.7427 138.875 77.5761 138.738C77.5177 142.566 77.7369 146.705 77.284 150.489L77.1452 151.282L73.7047 151.281C71.7178 150.072 71.8566 148.608 71.2722 146.411C69.5264 144.839 68.3211 145.409 66.0274 145.525Z" fill="#242029"/>
<path d="M18.6274 139.233C26.2827 139.501 33.9307 139.44 41.586 139.395C41.5349 141.872 41.7321 142.54 40.2419 144.597C36.8891 146.019 33.1783 144.74 29.9935 146.498L28.9635 149.878L28.4669 149.99C28.1966 150.053 27.919 150.128 27.6414 150.174C24.6319 150.673 22.4623 152.999 19.7085 153.047C18.1087 151.87 16.3045 150.777 15.3914 148.959C18.7954 145.58 18.5909 143.779 18.6274 139.233Z" fill="#272830"/>
<path d="M58.6204 145.22L66.0274 145.525C63.5219 145.704 61.0311 145.622 58.9638 147.216L58.5548 148.348C59.3948 149.293 60.0231 150.118 61.2284 150.568C60.9216 152.641 61.0457 154.963 59.1976 156.337C55.2969 159.235 48.2844 158.78 43.7848 157.894C43.0397 157.748 42.2945 157.5 41.6517 157.112L42.0169 151.304C45.3406 151.285 49.7015 152.024 52.6307 150.325C54.0551 148.479 54.0039 147.816 54.1573 145.574L58.6204 145.22Z" fill="#10111A"/>
<path d="M124.509 144.805L130.988 144.905L131.689 145.281L136.788 145.148L136.708 150.685L136.642 151.011L131.127 150.917L129.87 151.403L124.743 151.215L124.173 145.294L124.509 144.805Z" fill="#2D2F37"/>
<path d="M131.689 145.281L136.788 145.148L136.708 150.685L136.642 151.011L131.127 150.917C131.682 149.23 131.58 147.059 131.689 145.281Z" fill="#271717"/>
<path d="M131.127 150.917L136.642 151.011C137.029 152.853 137.518 154.385 136.664 156.177C135.013 157.464 132.778 157.285 130.784 157.362L130.462 152.373L129.87 151.403L131.127 150.917Z" fill="#523640"/>
<path d="M136.708 150.685L141.938 151.366C142.449 153.768 142.128 155.455 141.543 157.808C137.927 157.865 134.356 158.005 130.784 157.362C132.778 157.285 135.013 157.464 136.664 156.177C137.518 154.385 137.029 152.853 136.642 151.011L136.708 150.685Z" fill="#271717"/>
<path d="M171.186 180.911L167.643 180.497C166.102 179.269 166.043 179.051 165.503 177.143L166.431 175.518C168.768 174.514 169.593 174.835 172.055 175.197C171.829 176.966 171.777 179.255 171.186 180.911Z" fill="#010000"/>
<path d="M35.5815 157.105L36.7795 157.047C38.4669 157.264 39.6794 157.299 40.9724 158.518C41.491 160.433 41.44 160.42 40.4976 162.175C38.6057 163.009 38.5838 163.095 36.6407 162.445C35.377 160.421 35.5961 159.448 35.5815 157.105Z" fill="#10111A"/>
<path d="M136.788 145.148L141.836 145.128C142.011 147.207 142.296 149.295 141.938 151.366L136.708 150.685L136.788 145.148Z" fill="#0A0A0D"/>
<path d="M6.65493 176.84C7.31966 175.531 8.8246 174.884 10.2344 175.302C11.6369 175.72 12.5427 177.084 12.3893 178.543C12.2286 180.003 11.0524 181.14 9.58413 181.248C8.49574 181.327 7.44382 180.812 6.83023 179.9C6.22394 178.987 6.15822 177.817 6.65493 176.84Z" fill="#10111A"/>
</svg>
