<svg width="168" height="181" viewBox="0 0 168 181" fill="none" xmlns="http://www.w3.org/2000/svg">
<path d="M10.9291 0C22.7655 0.889155 41.7504 0.186564 54.2373 0.181041L147.009 0.255288L147.015 5.16864C148.506 5.19932 150.813 5.16619 152.206 5.44294C152.488 8.11899 152.052 8.95414 153.617 10.4348L157.378 10.8939L157.446 15.9563C159.974 15.9557 160.962 15.455 162.49 16.7737L162.913 20.4395C165.668 22.2694 166.055 19.7927 168 22.0485L167.877 157.6C167.871 160.985 168.08 169.516 167.656 172.498C163.576 173.76 165.134 171.619 162.281 174.21C162.023 175.481 161.98 175.779 161.925 177.075C159.207 178.931 150.85 181.076 147.291 180.998L21.7101 180.991L21.2621 174.566C20.0227 172.692 19.7466 173.123 17.059 172.242C15.6722 170.649 16.1386 170.28 16.0772 167.681L10.8493 167.667C10.7757 166.323 10.6836 164.98 10.5854 163.639C9.04528 162.198 8.26598 162.563 5.77474 162.253C6.04473 155.222 3.81732 158.983 0.55293 156.387C-0.502473 141.856 0.270703 116.708 0.30752 101.335C0.36888 71.808 -0.17724 40.9619 0.491591 11.5541C2.52263 9.32231 2.93372 11.8039 5.66426 9.95314L5.78705 6.33578C7.25357 4.41449 6.71358 5.45337 10.0086 4.72499C11.2297 2.78774 10.8309 2.64108 10.9291 0Z" fill="#373F4B"/>
<path d="M152.206 5.44294C152.488 8.11899 152.052 8.95414 153.617 10.4348L157.378 10.8939L157.446 15.9563C159.974 15.9557 160.962 15.455 162.49 16.7737L162.913 20.4395C165.668 22.2694 166.055 19.7927 168 22.0485L167.877 157.6C167.871 160.985 168.08 169.516 167.656 172.498C163.576 173.76 165.134 171.619 162.281 174.21C162.023 175.481 161.98 175.779 161.925 177.075C159.207 178.931 150.85 181.076 147.291 180.998L21.7101 180.991L21.2621 174.566C20.0227 172.692 19.7466 173.123 17.059 172.242C15.6722 170.649 16.1386 170.28 16.0772 167.681L10.8493 167.667C10.7757 166.323 10.6836 164.98 10.5854 163.639C9.04528 162.198 8.26598 162.563 5.77474 162.253L10.383 161.871C11.3218 160.547 10.9597 158.546 10.0639 157.307C8.54828 157.136 7.86106 157.166 6.33932 157.247C5.43732 155.392 5.86681 148.677 5.90363 146.106L5.76864 141.819L10.8063 141.584L11.3524 141.564L14.1996 141.651C16.3349 143.256 14.9604 144.167 16.8074 146.359C25.8704 147.12 140.468 146.841 141.682 146.301L142.167 141.978C144.45 139.883 143.309 142.548 146.395 140.274C147.585 137.713 147.186 134.057 147.119 131.137L146.861 125.908C146.444 96.4227 147.266 66.94 146.867 37.447C146.775 30.7025 146.671 23.5341 147.033 16.8314C148.42 15.7366 149.702 16.0649 151.807 15.9508L151.813 10.6011C151.789 9.06335 152.052 7.01568 152.206 5.44294Z" fill="#101622"/>
<path d="M157.446 15.9563C159.974 15.9557 160.962 15.455 162.49 16.7737L162.913 20.4395C165.668 22.2694 166.055 19.7927 168 22.0485L167.877 157.6C167.871 160.985 168.08 169.516 167.656 172.498C163.576 173.76 165.134 171.619 162.281 174.21C162.023 175.481 161.98 175.779 161.925 177.075C159.207 178.931 150.85 181.076 147.291 180.998L21.7101 180.991L21.2621 174.566C20.0227 172.692 19.7466 173.123 17.059 172.242C15.6722 170.649 16.1386 170.28 16.0772 167.681L102.749 167.663C113.052 167.659 137.203 168.266 146.377 167.276C147.094 165.815 147.174 164.991 147.475 163.434C149.212 161.915 149.132 162.429 152.101 162.408C152.236 160.556 152.169 159.824 152.991 158.13C159.072 155.463 157.599 152.724 157.317 146.632C157.968 134.688 157.378 115.61 157.372 103.015L157.446 15.9563Z" fill="#848188"/>
<path d="M152.206 5.44294C152.488 8.11899 152.052 8.95414 153.617 10.4348L157.378 10.8939L157.446 15.9563L157.372 103.015C157.378 115.61 157.968 134.688 157.317 146.632C156.636 149.919 157.747 155.131 154.114 156.823C152.286 153.993 152.488 146.025 152.433 142.464C152.065 145.352 152.58 145.218 150.893 146.744L148.07 146.817C144.898 150.213 149.144 151.615 141.989 151.853C132.742 152.162 12.8496 152.297 11.874 151.244C9.05753 148.212 12.9049 147.705 6.47431 146.433L5.90363 146.106L5.76864 141.819L10.8063 141.584L11.3524 141.564L14.1996 141.651C16.3349 143.256 14.9604 144.167 16.8074 146.359C25.8704 147.12 140.468 146.841 141.682 146.301L142.167 141.978C144.45 139.883 143.309 142.548 146.395 140.274C147.585 137.713 147.186 134.057 147.119 131.137L146.861 125.908C146.444 96.4227 147.266 66.94 146.867 37.447C146.775 30.7025 146.671 23.5341 147.033 16.8314C148.42 15.7366 149.702 16.0649 151.807 15.9508L151.813 10.6011C151.789 9.06335 152.052 7.01568 152.206 5.44294Z" fill="#2A303B"/>
<path d="M152.433 142.464C152.114 134.714 152.433 124.623 152.439 116.639L152.445 65.3538L152.359 33.181C152.322 26.7489 152.016 18.1421 152.611 11.9327C153.948 10.7607 155.243 11.0687 157.378 10.8939L157.446 15.9563L157.372 103.015C157.378 115.61 157.968 134.688 157.317 146.632C156.636 149.919 157.747 155.131 154.114 156.823C152.286 153.993 152.488 146.025 152.433 142.464Z" fill="#010101"/>
<path d="M5.76864 141.819L10.8063 141.584C10.8002 143.896 11.1868 144.478 10.113 146.191C8.43782 146.584 8.18627 146.591 6.47431 146.433L5.90363 146.106L5.76864 141.819Z" fill="#373F4B"/>
<path d="M10.8493 167.667C11.0211 165.755 11.0273 164.999 11.7145 163.143C17.9181 159.854 125.796 164.449 141.382 162.294C142.695 162.113 144.904 162.274 146.689 161.849C146.61 160.093 146.61 159.758 147.003 158.047C148.776 156.808 148.291 157.173 150.721 157.064C152.175 158.446 151.825 159.916 152.101 162.408C149.132 162.429 149.212 161.915 147.475 163.434C147.174 164.991 147.094 165.815 146.377 167.276C137.203 168.266 113.052 167.659 102.749 167.663L16.0772 167.681L10.8493 167.667Z" fill="#010101"/>
<path d="M45.7818 30.8253C65.9572 30.7713 61.6252 29.7134 76.4192 43.409C77.0022 43.9484 78.0514 43.3146 78.7571 42.9059L79.2173 40.6127C79.8984 39.715 81.3342 39.0105 82.3712 38.3736L82.5921 36.8462L83.7702 36.6094L85.3902 35.3422C85.6233 33.8867 85.5681 33.0632 86.5069 32.0231L88.6055 32.1096C88.6423 33.9744 88.3048 35.3496 90.434 36.2019C89.759 38.249 89.8572 38.6976 90.072 40.7839C88.7404 41.9504 88.452 41.9596 86.6848 42.2272C86.9548 44.9977 86.5131 45.0033 87.9735 46.8767L89.397 47.3958L87.6175 48.6335C87.8691 50.9052 87.5378 52.2018 88.8816 53.3837L89.1208 53.4291L91.1274 57.6226C88.2311 57.36 88.0593 56.8942 85.746 57.9392C84.1629 61.394 86.0099 61.4401 83.8501 63.8731L81.414 64.1965L81.2606 64.707L81.322 75.0486L81.3649 87.6195C81.3404 91.0221 81.4262 95.9084 81.1624 99.1644C80.4506 101.135 80.6961 103.271 80.7452 105.415C80.7452 108.733 80.7145 112.052 80.6408 115.369L80.7207 116.517L75.7075 116.724L75.5909 120.496L72.7622 120.684L70.2524 120.386C69.1295 117.742 71.9277 117.366 69.0008 114.357C68.7308 113.229 68.8045 110.74 68.4486 109.692C64.6933 98.7514 55.3603 106.338 47.6534 103.313C47.0214 103.064 47.0704 101.942 46.9293 101.03C45.7512 99.9412 44.7817 100.044 42.9163 100.031C38.1977 99.9971 30.7362 89.4843 27.5332 86.1486C25.9746 84.5298 26.2569 81.9078 26.2385 79.514C24.729 77.5774 24.8027 78.739 21.5505 77.8155C20.759 74.5098 21.1333 66.5915 21.1886 62.825C30.1595 62.8508 41.3884 62.598 50.3225 63.4669C52.8567 63.7129 50.8258 65.2697 52.955 66.4829C57.2871 68.9497 63.4292 71.1422 66.8347 74.8031C66.8715 74.8424 68.3627 78.1781 68.9088 79.0906C70.5532 79.8067 70.007 79.8503 71.5104 79.5392C72.351 76.8545 72.2775 71.5362 71.6148 68.8331C65.1842 64.4775 58.3854 61.4542 52.4272 56.5224C52.7218 56.7623 51.8567 53.1167 51.6664 52.6129L49.0586 52.0772C48.5247 50.7057 48.6045 50.2253 48.5799 48.7697L48.5676 48.2653C47.7393 47.7063 46.8925 47.1725 46.0335 46.665C45.2235 42.8181 45.6775 35.0618 45.7818 30.8253Z" fill="#062828"/>
<path d="M52.8876 41.9388C56.3544 40.8698 59.8765 39.3634 61.2265 35.9313L63.1594 37.6863C67.3135 38.338 67.3993 42.2211 71.1423 44.7327L71.7989 46.368L73.6581 46.3692C73.5108 48.6746 73.4617 52.8743 72.5536 54.8054C71.5964 54.1347 71.443 53.3155 71.0135 52.2024C69.234 51.6526 69.9948 51.6876 68.1049 52.1613C67.7245 55.1681 68.9395 54.1403 68.9334 56.6562L66.5526 57.5889L63.5213 57.6613C62.0425 57.1268 62.0855 56.5549 61.3799 55.2055C60.4595 53.4413 57.2626 55.1123 55.477 51.8527C53.5073 48.2617 51.3044 45.0886 51.8751 40.9981L52.8876 41.9388Z" fill="#498D56"/>
<path d="M71.7989 46.368L73.6581 46.3692C73.5108 48.6746 73.4617 52.8743 72.5536 54.8054C71.5964 54.1347 71.443 53.3155 71.0135 52.2024C69.234 51.6526 69.9948 51.6876 68.1049 52.1613C67.7245 55.1681 68.9395 54.1403 68.9334 56.6562C67.9148 55.135 68.3442 55.6326 66.5218 54.7625L67.0679 52.9068C66.4359 51.1064 66.7611 51.7194 64.6564 50.5308C65.3498 50.1087 65.6751 49.6018 66.1844 48.9686L65.5585 46.1102C67.0312 48.1647 66.2518 47.6505 68.4178 48.2862C70.9213 47.5535 70.0869 48.0954 71.7989 46.368Z" fill="#407F4A"/>
<path d="M64.6564 50.5308L63.6623 49.8234C63.3432 48.6145 63.2021 48.1862 62.7297 47.0289C60.6495 46.7374 59.1462 46.6644 57.9803 44.9014C58.3055 43.1623 59.2137 42.226 60.9502 42.1167C62.4597 42.9887 62.9383 44.2191 63.8403 45.763L65.5585 46.1102L66.1844 48.9686C65.6751 49.6018 65.3498 50.1087 64.6564 50.5308Z" fill="#4B7751"/>
<path d="M52.8876 41.9388C56.3544 40.8698 59.8765 39.3634 61.2265 35.9313L63.1594 37.6863L63.8893 40.6004C61.4901 43.0562 56.3544 41.9492 52.8876 41.9388Z" fill="#51A25B"/>
<path d="M66.5218 54.7625C68.3442 55.6326 67.9148 55.135 68.9334 56.6562L66.5526 57.5889L63.5213 57.6613C64.7669 55.1583 63.9692 55.9333 66.5218 54.7625Z" fill="#4C8358"/>
<path d="M37.2037 87.3194C37.5534 86.3192 37.9584 85.3613 38.3634 84.3819C37.6945 82.846 37.7927 83.2774 36.0869 82.1944C34.2645 79.6337 34.9886 76.4753 35.3199 73.3439C35.3997 74.5626 35.5408 76.0359 35.5469 77.2331C37.5902 77.0564 39.4126 76.598 41.0448 77.6179L41.3455 78.5138C47.7331 79.5705 46.0211 83.0185 51.5251 83.4996C52.7401 82.2379 53.9919 81.9501 55.6487 81.3199C57.8883 82.1385 56.5507 81.4874 57.7411 83.2406C58.3424 84.1242 61.8706 84.6145 62.6621 84.8882C62.2203 86.2388 60.5023 89.156 59.3364 89.8083C58.9867 92.4445 59.4714 92.1199 57.8637 93.3514C51.8381 94.5057 48.3652 93.1219 42.5359 93.4423L42.407 92.8654C41.6339 88.7842 41.5235 89.5426 37.7682 89.1137L37.2037 87.3194Z" fill="#498D56"/>
<path d="M55.6487 81.3199C57.8883 82.1385 56.5507 81.4874 57.7411 83.2406C58.3424 84.1242 61.8706 84.6145 62.6621 84.8882C62.2203 86.2388 60.5023 89.156 59.3364 89.8083C56.1518 89.4573 52.7523 86.372 51.5251 83.4996C52.7401 82.2379 53.9919 81.9501 55.6487 81.3199Z" fill="#1C542F"/>
<path d="M37.2037 87.3194C37.5534 86.3192 37.9584 85.3613 38.3634 84.3819C37.6945 82.846 37.7927 83.2774 36.0869 82.1944C34.2645 79.6337 34.9886 76.4753 35.3199 73.3439C35.3997 74.5626 35.5408 76.0359 35.5469 77.2331C36.2157 81.2407 40.4926 81.7151 42.8427 86.815L41.9162 86.5063C41.4253 88.1441 41.7014 87.5697 40.2594 88.8044L37.7682 89.1137L37.2037 87.3194Z" fill="#51A25B"/>
<path d="M37.7682 89.1137L40.2594 88.8044C41.7014 87.5697 41.4253 88.1441 41.9162 86.5063L42.8427 86.815C44.211 88.3429 46.9416 90.6987 47.0091 92.253C45.4076 93.1103 44.2417 92.8974 42.407 92.8654C41.6339 88.7842 41.5235 89.5426 37.7682 89.1137Z" fill="#4C9E5A"/>
<path d="M78.7265 69.9873C79.021 67.7212 79.1007 67.2965 79.9045 65.1126L81.2606 64.707L81.322 75.0486L81.3649 87.6195C81.3404 91.0221 81.4262 95.9084 81.1624 99.1644C80.4506 101.135 80.6961 103.271 80.7452 105.415C80.7452 108.733 80.7145 112.052 80.6408 115.369L80.7207 116.517L75.7075 116.724L75.7688 111.117V104.986L75.8978 104.62C75.8058 99.8314 75.7934 95.9483 76.0634 91.1742L75.6093 90.1501C75.7443 83.4713 75.824 76.7919 75.8425 70.1119L78.7265 69.9873Z" fill="#4C8358"/>
<path d="M78.7265 69.9873C79.4382 73.8508 79.9168 93.8804 77.8367 96.619C76.3517 95.0555 76.6402 93.7662 76.0634 91.1742L75.6093 90.1501C75.7443 83.4713 75.824 76.7919 75.8425 70.1119L78.7265 69.9873Z" fill="#51A25B"/>
<path d="M81.3649 87.6195C81.3404 91.0221 81.4262 95.9084 81.1624 99.1644C80.4506 101.135 80.6961 103.271 80.7452 105.415C80.7452 108.733 80.7145 112.052 80.6408 115.369L80.7207 116.517L75.7075 116.724L75.7688 111.117V104.986L75.8978 104.62C76.9164 104.772 76.861 104.681 77.9164 104.505C81.0213 101.102 78.4932 93.4459 81.3649 87.6195Z" fill="#407F4A"/>
<path d="M75.7688 111.117C77.9164 110.961 78.4319 110.52 79.88 111.514C80.1255 112.791 80.3586 114.105 80.6408 115.369L80.7207 116.517L75.7075 116.724L75.7688 111.117Z" fill="#4C8358"/>
<path d="M62.7114 84.0445L66.2089 83.8867C66.5402 85.1582 66.7733 86.5855 67.5833 87.6201C68.565 88.8676 68.9578 92.1978 69.4487 93.7466L72.0872 94.6308C72.9462 95.8366 73.8545 97.1523 74.8301 98.2268C75.5419 95.0555 75.5295 93.4312 75.6093 90.1501L76.0634 91.1742C75.7934 95.9483 75.8058 99.8314 75.8978 104.62L75.7688 104.986L72.8297 105.095C71.9767 104.639 71.8725 104.181 71.4368 103.298L71.2711 102.96C69.3199 101.847 68.7001 101.62 67.5466 99.6C66.3255 98.6011 55.7776 99.3147 52.5071 98.9821C51.5437 98.1322 51.2921 97.5076 50.6724 96.3988C48.985 95.004 46.7514 95.2206 44.481 95.1224C43.1802 94.8867 43.5852 94.9383 42.5359 93.4423C48.3652 93.1219 51.8381 94.5057 57.8637 93.3514C59.4714 92.1199 58.9867 92.4445 59.3364 89.8083C60.5023 89.156 62.2203 86.2388 62.6621 84.8882L62.7114 84.0445Z" fill="#2A5243"/>
<path d="M83.7702 36.6094L85.3902 35.3422C85.6233 33.8867 85.5681 33.0632 86.5069 32.0231L88.6055 32.1096C88.6423 33.9744 88.3048 35.3496 90.434 36.2019C89.759 38.249 89.8572 38.6976 90.072 40.7839C88.7404 41.9504 88.452 41.9596 86.6848 42.2272C86.9548 44.9977 86.5131 45.0033 87.9735 46.8767L89.397 47.3958L87.6175 48.6335C87.8691 50.9052 87.5378 52.2018 88.8816 53.3837L89.1208 53.4291L91.1274 57.6226C88.2311 57.36 88.0593 56.8942 85.746 57.9392C84.1629 61.394 86.0099 61.4401 83.8501 63.8731L81.414 64.1965L81.2606 64.707L79.9045 65.1126C79.1007 67.2965 79.021 67.7212 78.7265 69.9873L75.8425 70.1119L75.4375 68.2262C75.1982 67.2205 74.5231 66.4215 73.9218 65.5526C73.8665 64.5064 74.069 64.2038 74.4617 63.2515L76.9898 62.7434L77.5115 61.548C83.3714 53.0609 82.6166 48.1174 82.3712 38.3736L82.5921 36.8462L83.7702 36.6094Z" fill="#1B4F3A"/>
<path d="M83.7702 36.6094L85.3902 35.3422C85.6233 33.8867 85.5681 33.0632 86.5069 32.0231L88.6055 32.1096C88.6423 33.9744 88.3048 35.3496 90.434 36.2019C89.759 38.249 89.8572 38.6976 90.072 40.7839C88.7404 41.9504 88.452 41.9596 86.6848 42.2272L86.0222 47.6045C84.7398 47.0424 84.6907 46.9301 83.6967 45.8967C82.7026 42.7911 82.7393 39.7211 83.7702 36.6094Z" fill="#51A25B"/>
<path d="M75.4375 68.2262C75.6645 66.4584 75.7873 66.2116 76.5849 64.6137C78.9351 63.5657 78.5362 63.9369 81.414 64.1965L81.2606 64.707L79.9045 65.1126C79.1007 67.2965 79.021 67.7212 78.7265 69.9873L75.8425 70.1119L75.4375 68.2262Z" fill="#326D3E"/>
<path d="M86.6848 42.2272C86.9548 44.9977 86.5131 45.0033 87.9735 46.8767L89.397 47.3958L87.6175 48.6335C87.5746 50.3916 87.7587 51.7103 86.8505 53.1572C85.8381 51.6305 86.0651 49.5528 86.0222 47.6045L86.6848 42.2272Z" fill="#205B2C"/>
<path d="M47.6288 69.5995C56.1641 71.6926 58.2811 76.6711 62.4107 78.0536L62.7849 78.639L62.7114 84.0445L62.6621 84.8882C61.8706 84.6145 58.3424 84.1242 57.7411 83.2406C56.5507 81.4874 57.8883 82.1385 55.6487 81.3199C53.9919 81.9501 52.7401 82.2379 51.5251 83.4996C46.0211 83.0185 47.7331 79.5705 41.3455 78.5138L41.0448 77.6179C39.4126 76.598 37.5902 77.0564 35.5469 77.2331C35.5408 76.0359 35.3997 74.5626 35.3199 73.3439C39.5599 72.694 43.665 73.9496 47.4386 72.6867C48.3161 71.1582 48.1013 71.7841 47.6288 69.5995Z" fill="#498D56"/>
<path d="M47.138 75.6548C48.7763 77.8897 51.605 79.0955 53.7465 81.2285L55.6487 81.3199C53.9919 81.9501 52.7401 82.2379 51.5251 83.4996C46.0211 83.0185 47.7331 79.5705 41.3455 78.5138L41.8548 76.5495C43.5668 75.2744 44.6038 75.7162 47.138 75.6548Z" fill="#205B2C"/>
<path d="M35.3199 73.3439C38.1732 73.5936 44.8615 73.5605 46.8066 74.392L47.138 75.6548C44.6038 75.7162 43.5668 75.2744 41.8548 76.5495L41.3455 78.5138L41.0448 77.6179C39.4126 76.598 37.5902 77.0564 35.5469 77.2331C35.5408 76.0359 35.3997 74.5626 35.3199 73.3439Z" fill="#326D3E"/>
<path d="M37.2037 87.3194L36.8231 85.5362C33.7367 84.2881 25.5697 71.9491 27.1098 67.9808C29.9508 66.7246 44.1742 66.8787 47.095 67.7832L47.6288 69.5995C48.1013 71.7841 48.3161 71.1582 47.4386 72.6867C43.665 73.9496 39.5599 72.694 35.3199 73.3439C34.9886 76.4753 34.2645 79.6337 36.0869 82.1944C37.7927 83.2774 37.6945 82.846 38.3634 84.3819C37.9584 85.3613 37.5534 86.3192 37.2037 87.3194Z" fill="#4C9E5A"/>
<path d="M73.6581 46.3692C73.9833 50.4444 74.6705 58.205 77.5115 61.548L76.9898 62.7434L74.4617 63.2515C74.069 64.2038 73.8665 64.5064 73.9218 65.5526C73.4554 65.047 73.2224 64.1112 72.9585 63.3994C71.5288 62.7612 71.3079 62.7232 69.7371 62.4323L69.3198 62.3587C67.209 59.7998 69.5837 61.4265 68.6326 58.2565L66.5526 57.5889L68.9334 56.6562C68.9395 54.1403 67.7245 55.1681 68.1049 52.1613C69.9948 51.6876 69.234 51.6526 71.0135 52.2024C71.443 53.3155 71.5964 54.1347 72.5536 54.8054C73.4617 52.8743 73.5108 48.6746 73.6581 46.3692Z" fill="#2A5243"/>
<path d="M51.8751 40.9981C51.7892 39.1198 51.5681 38.0115 52.3229 36.297C54.8141 34.1475 58.7352 33.694 61.2265 35.9313C59.8765 39.3634 56.3544 40.8698 52.8876 41.9388L51.8751 40.9981Z" fill="#64B35D"/>
<path d="M72.8297 105.095L75.7688 104.986V111.117L75.7075 116.724L75.5909 120.496L72.7622 120.684C72.8174 117.605 73.5537 107.355 72.8297 105.095Z" fill="#1E3C2E"/>
<path d="M44.481 95.1224C46.7514 95.2206 48.985 95.004 50.6724 96.3988C51.2921 97.5076 51.5437 98.1322 52.5071 98.9821C55.7776 99.3147 66.3255 98.6011 67.5466 99.6C63.1654 99.7234 50.9239 100.614 47.6841 98.7115C46.6287 96.9117 46.2482 96.3717 44.481 95.1224Z" fill="#0E2F2A"/>
<path d="M62.7849 78.639C67.1538 81.871 64.2576 80.8167 66.2089 83.8867L62.7114 84.0445L62.7849 78.639Z" fill="#1B4F3A"/>
<path d="M10.9291 0C22.7655 0.889155 41.7504 0.186564 54.2373 0.181041L147.009 0.255288L147.015 5.16864C148.506 5.19932 150.813 5.16619 152.206 5.44294C152.052 7.01568 151.789 9.06335 151.813 10.6011L151.807 15.9508C149.985 15.5176 148.739 15.5875 146.898 15.5844C144.131 15.5347 144.266 16.0048 142.597 14.5818L141.689 11.143C140.731 10.7214 20.7222 9.79972 16.4454 10.9957C15.1077 13.7061 16.9976 14.1915 15.1752 15.6391C12.9232 15.7606 12.2974 15.3513 11.0702 16.6184C10.1743 25.3179 10.6284 37.5403 10.7388 46.4557C11.1499 78.1014 10.3093 109.965 10.8063 141.584L5.76864 141.819L5.90363 146.106C5.86681 148.677 5.43732 155.392 6.33932 157.247C7.86106 157.166 8.54828 157.136 10.0639 157.307C10.9597 158.546 11.3218 160.547 10.383 161.871L5.77474 162.253C6.04473 155.222 3.81732 158.983 0.55293 156.387C-0.502473 141.856 0.270703 116.708 0.30752 101.335C0.36888 71.808 -0.17724 40.9619 0.491591 11.5541C2.52263 9.32231 2.93372 11.8039 5.66426 9.95314L5.78705 6.33578C7.25357 4.41449 6.71358 5.45337 10.0086 4.72499C11.2297 2.78774 10.8309 2.64108 10.9291 0Z" fill="#010101"/>
<path d="M147.015 5.16864C148.506 5.19932 150.813 5.16619 152.206 5.44294C152.052 7.01568 151.789 9.06335 151.813 10.6011L151.807 15.9508C149.985 15.5176 148.739 15.5875 146.898 15.5844C144.131 15.5347 144.266 16.0048 142.597 14.5818L141.689 11.143C140.731 10.7214 20.7222 9.79972 16.4454 10.9957C15.1077 13.7061 16.9976 14.1915 15.1752 15.6391C12.9232 15.7606 12.2974 15.3513 11.0702 16.6184C10.1743 25.3179 10.6284 37.5403 10.7388 46.4557C11.1499 78.1014 10.3093 109.965 10.8063 141.584L5.76864 141.819L5.72571 47.7272C5.71344 36.5879 5.49251 23.3856 5.98953 12.0867C6.09385 9.68865 8.04514 11.9609 10.923 10.1194C10.9045 8.39142 10.8677 7.74222 11.1561 6.0535C15.0893 4.33226 132.392 5.74914 147.015 5.16864Z" fill="#546974"/>
<path d="M147.015 10.7085L151.813 10.6011L151.807 15.9508C149.985 15.5176 148.739 15.5875 146.898 15.5844L147.015 10.7085Z" fill="#474C54"/>
<path d="M147.015 10.7085C146.935 9.029 146.984 8.25644 147.156 6.58061C148.684 5.35518 149.923 5.65648 152.206 5.44294C152.052 7.01568 151.789 9.06335 151.813 10.6011L147.015 10.7085Z" fill="#010101"/>
<path d="M69.0008 114.357C71.9277 117.366 69.1295 117.742 70.2524 120.386L72.7622 120.684L75.5909 120.496L75.7075 116.724L80.7207 116.517L80.9047 120.53L84.0157 120.585L83.9972 121.033C84.9299 122.138 85.1631 122.246 85.2552 123.612C85.5436 120.6 86.9488 121.159 89.6057 120.773L90.1211 120.449L94.3059 120.522C95.889 120.562 98.8834 120.548 100.331 120.722C102.381 121.029 103.246 120.777 104.529 121.979L104.762 123.01L105.136 124.323C108.204 125.085 111.702 127.014 112.542 127.08L114.444 126.705L115.432 127.395L115.819 130.014C117.838 131.445 123.538 130.953 126.391 130.918L128.932 130.961C135.068 130.656 142.222 131.483 147.119 131.137C147.186 134.057 147.585 137.713 146.395 140.274C143.309 142.548 144.45 139.883 142.167 141.978L141.682 146.301C140.468 146.841 25.8704 147.12 16.8074 146.359C14.9604 144.167 16.3349 143.256 14.1996 141.651L11.3524 141.564C11.3893 137.969 11.3524 134.375 11.2359 130.781C20.0534 131.157 28.8832 131.191 37.7007 130.884C40.5233 130.939 41.2289 131.146 42.4255 128.607L41.7628 127.079C39.5599 125.394 39.566 125.954 36.1912 125.858L40.9099 125.149C42.2966 123.697 41.9776 122.809 42.315 120.448C44.1804 120.562 45.5058 120.892 46.9846 119.884C47.3159 118.538 47.4386 117.857 47.5859 116.478C50.5803 114.261 65.0615 114.41 69.0008 114.357Z" fill="#101622"/>
<path d="M69.0008 114.357C71.9277 117.366 69.1295 117.742 70.2524 120.386L68.8105 120.38C68.8534 121.987 68.7614 124.013 69.3014 125.466L69.1542 125.876L69.4977 131.321C68.5896 132.363 68.5651 133.555 68.4239 134.901L68.3749 135.363C65.0676 137.701 52.415 135.409 48.3652 136.324C47.003 136.63 48.6045 138.372 45.9844 140.336C44.3154 140.304 43.9963 140.434 42.7568 139.465L42.5114 137.005C41.4007 135.631 40.0938 136.017 37.713 135.745C37.038 134.38 37.5289 132.663 37.7007 130.884C40.5233 130.939 41.2289 131.146 42.4255 128.607L41.7628 127.079C39.5599 125.394 39.566 125.954 36.1912 125.858L40.9099 125.149C42.2966 123.697 41.9776 122.809 42.315 120.448C44.1804 120.562 45.5058 120.892 46.9846 119.884C47.3159 118.538 47.4386 117.857 47.5859 116.478C50.5803 114.261 65.0615 114.41 69.0008 114.357Z" fill="#222835"/>
<path d="M69.0008 114.357C71.9277 117.366 69.1295 117.742 70.2524 120.386L68.8105 120.38C66.9144 120.422 59.5328 120.488 58.1154 120.791C55.5321 120.97 54.2619 120.569 52.6175 121.961C52.4702 123.029 52.2984 124.137 52.2186 125.206C50.9178 125.325 49.5126 125.311 48.4143 125.951L47.3711 126C45.9905 126.037 44.886 125.957 43.5054 125.869C42.0266 124.237 42.4807 123.143 42.315 120.448C44.1804 120.562 45.5058 120.892 46.9846 119.884C47.3159 118.538 47.4386 117.857 47.5859 116.478C50.5803 114.261 65.0615 114.41 69.0008 114.357Z" fill="#070912"/>
<path d="M58.1154 120.791C59.5328 120.488 66.9144 120.422 68.8105 120.38C68.8534 121.987 68.7614 124.013 69.3014 125.466L69.1542 125.876C65.7855 125.814 61.349 125.204 58.6676 126.561C57.471 128.114 57.6798 129.413 57.6307 131.432C57.5325 129.499 57.6306 128.297 56.5936 126.626C54.7957 125.547 52.1327 126.415 48.9788 126.024L48.4143 125.951C49.5126 125.311 50.9178 125.325 52.2186 125.206C52.2984 124.137 52.4702 123.029 52.6175 121.961C54.2619 120.569 55.5321 120.97 58.1154 120.791Z" fill="#2A303B"/>
<path d="M52.2186 125.206C52.2984 124.137 52.4702 123.029 52.6175 121.961C54.2619 120.569 55.5321 120.97 58.1154 120.791C57.8945 123.566 58.3732 123.648 56.8637 125.26C54.8756 125.404 54.1821 125.373 52.2186 125.206Z" fill="#1B202C"/>
<path d="M47.3711 126L48.4143 125.951L48.9788 126.024C52.1327 126.415 54.7957 125.547 56.5936 126.626C57.6306 128.297 57.5325 129.499 57.6307 131.432C54.6792 131.53 49.3776 132.167 47.2361 130.381C46.4568 128.619 46.8741 127.9 47.3711 126Z" fill="#373F4B"/>
<path d="M80.7207 116.517L80.9047 120.53L84.0157 120.585L83.9972 121.033C84.9299 122.138 85.1631 122.246 85.2552 123.612C85.5436 120.6 86.9488 121.159 89.6057 120.773L90.1211 120.449L94.3059 120.522C95.889 120.562 98.8834 120.548 100.331 120.722C102.381 121.029 103.246 120.777 104.529 121.979L104.762 123.01L105.136 124.323C108.204 125.085 111.702 127.014 112.542 127.08L113.69 128.081C113.837 130.874 115.395 130.44 115.665 133.794C114.733 136.271 114.23 136.352 111.389 136.318L110.253 135.502C110.18 133.91 110.235 133.285 109.756 131.784C108.094 131.169 108.008 131.075 106.375 131.546C104.608 134.559 105.694 134.568 103.277 136.046L101.436 136.135C100.055 133.605 101.982 131.705 99.6381 131.355C96.6008 130.904 88.2188 130.493 85.5803 131.171C84.1813 137.441 80.7145 136.828 74.7134 136.055C73.8789 134.435 73.9403 133.344 73.8053 131.529L69.4977 131.321L69.1542 125.876L69.3014 125.466C68.7614 124.013 68.8534 121.987 68.8105 120.38L70.2524 120.386L72.7622 120.684L75.5909 120.496L75.7075 116.724L80.7207 116.517Z" fill="#222835"/>
<path d="M80.7207 116.517L80.9047 120.53L84.0157 120.585L83.9972 121.033C84.9299 122.138 85.1631 122.246 85.2552 123.612V125.606C82.8437 126.204 76.3886 126.254 73.8298 126.054C72.1056 125.025 71.5902 125.421 69.3014 125.466C68.7614 124.013 68.8534 121.987 68.8105 120.38L70.2524 120.386L72.7622 120.684L75.5909 120.496L75.7075 116.724L80.7207 116.517Z" fill="#1B202C"/>
<path d="M83.9972 121.033C84.9299 122.138 85.1631 122.246 85.2552 123.612V125.606C81.322 125.594 77.2477 126.061 74.1981 123.453L74.4005 122.595C77.941 120.553 79.8984 121.019 83.9972 121.033Z" fill="#070912"/>
<path d="M80.7207 116.517L80.9047 120.53L75.5909 120.496L75.7075 116.724L80.7207 116.517Z" fill="#1C542F"/>
<path d="M94.3059 120.522C95.889 120.562 98.8834 120.548 100.331 120.722C100.221 123.809 100.718 123.774 99.2024 125.875C97.6745 126.399 95.5146 126.018 94.1218 125.376L94.3059 120.522Z" fill="#373F4B"/>
<path d="M69.3014 125.466C71.5902 125.421 72.1056 125.025 73.8298 126.054C73.793 127.569 73.6458 130.107 73.8053 131.529L69.4977 131.321L69.1542 125.876L69.3014 125.466Z" fill="#2A303B"/>
<path d="M90.1211 120.449L94.3059 120.522L94.1218 125.376C92.735 124.977 91.8023 124.771 90.3788 124.515C89.3602 122.823 89.7836 122.774 90.1211 120.449Z" fill="#2A303B"/>
<path d="M85.2552 123.612C85.5436 120.6 86.9488 121.159 89.6057 120.773C88.6914 126.527 89.127 123.609 85.2552 125.606V123.612Z" fill="#1B202C"/>
<path d="M126.391 130.918L128.932 130.961C133.061 131.4 137.087 131.559 141.228 131.757L142.4 133.242C138.897 137.157 132.184 137.727 127.508 135.672C125.907 133.686 126.416 134.061 126.391 130.918Z" fill="#222835"/>
<path d="M15.9728 131.565C19.0409 131.705 22.5017 130.798 25.4286 131.835C26.7724 133.283 26.4716 133.968 26.4532 135.869C23.4834 135.834 19.5624 137.002 16.8258 135.828C15.6231 134.306 15.9299 133.444 15.9728 131.565Z" fill="#222835"/>
<path d="M85.0587 75.8402L85.384 78.0609L86.7953 78.8599C89.6608 77.7142 89.3602 74.6105 90.9985 73.8673C92.9375 72.9855 92.8638 74.8087 95.7846 72.5112C97.2081 65.5232 104.424 70.2077 105.535 64.7923C105.627 64.3395 105.713 63.8854 105.793 63.4307C109.376 62.0445 130.822 62.9484 136.473 62.7766C136.59 67.0137 137.369 74.7755 135.086 78.021C133.785 78.5352 133.798 78.5083 132.386 78.6212C130.57 81.2445 132.638 82.7663 131.049 85.1821C131.141 82.8927 131.546 79.8822 129.613 78.3493C127.741 79.6993 128.214 79.5336 127.134 81.847L125.962 80.3013L127.355 78.0395C121.918 80.0172 125.845 81.9372 123.379 84.7225L121.44 84.6158C120.059 88.0901 119.887 88.1478 116.291 89.6463L116.04 90.8632L115.101 93.7681C113.794 94.0092 112.763 94.0688 111.665 94.9205C108.535 97.3407 106.105 94.2559 105.602 98.9453C102.596 100.296 91.2992 97.977 89.5197 99.6504C87.2187 102.297 86.2738 101.154 85.1631 104.209C85.0159 104.366 84.8686 104.523 84.7213 104.68L80.7452 105.415C80.6961 103.271 80.4506 101.135 81.1624 99.1644C81.4262 95.9084 81.3404 91.0221 81.3649 87.6195L81.322 75.0486C82.8437 75.6536 83.4756 76.0709 85.0587 75.8402Z" fill="#0E2F2A"/>
<path d="M108.155 76.541C111.076 76.3569 113.819 75.9709 116.592 76.9024C119.758 77.3822 118.819 76.9926 121.151 80.0233C121.028 81.0665 121.194 81.1389 120.636 81.8507L121.44 84.6158C120.059 88.0901 119.887 88.1478 116.291 89.6463L116.04 90.8632L115.101 93.7681C113.794 94.0092 112.763 94.0688 111.665 94.9205C108.535 97.3407 106.105 94.2559 105.602 98.9453C102.596 100.296 91.2992 97.977 89.5197 99.6504C87.2187 102.297 86.2738 101.154 85.1631 104.209C85.0159 104.366 84.8686 104.523 84.7213 104.68L80.7452 105.415C80.6961 103.271 80.4506 101.135 81.1624 99.1644C87.0714 98.2359 88.6483 87.9073 91.3359 83.9223C91.6673 83.4278 93.1952 83.7493 94.0604 83.8137C95.4042 84.4274 96.3983 84.2746 97.877 84.2549C100.988 82.5625 106.805 79.6883 108.155 76.541Z" fill="#2A5243"/>
<path d="M116.592 76.9024C119.758 77.3822 118.819 76.9926 121.151 80.0233C121.028 81.0665 121.194 81.1389 120.636 81.8507L121.44 84.6158C120.059 88.0901 119.887 88.1478 116.291 89.6463L116.04 90.8632L115.101 93.7681C111.364 93.3613 100.614 94.8591 98.6073 93.0262L98.6503 91.0368C100.62 86.5407 106.099 85.3999 110.358 82.3821L110.744 79.9227L111.929 79.3066C115.285 79.6582 115.07 79.6791 116.592 76.9024Z" fill="#498D56"/>
<path d="M116.04 90.8632L113.751 91.8812C112.401 91.6198 112.051 91.4406 110.775 90.8889L108.627 92.5003L107.995 92.0806L108.223 89.8586C110.229 88.4239 112.039 90.028 112.892 89.669C117.071 87.9042 115.635 83.3296 120.636 81.8507L121.44 84.6158C120.059 88.0901 119.887 88.1478 116.291 89.6463L116.04 90.8632Z" fill="#4C9E5A"/>
<path d="M94.0604 83.8137C94.1034 83.2805 94.1709 82.6552 94.1954 82.1281C94.7047 71.3343 125.084 61.5253 131.03 69.4056C131.214 73.2482 130.865 72.869 127.661 73.944L127.355 78.0395C121.918 80.0172 125.845 81.9372 123.379 84.7225L121.44 84.6158L120.636 81.8507C121.194 81.1389 121.028 81.0665 121.151 80.0233C118.819 76.9926 119.758 77.3822 116.592 76.9024C113.819 75.9709 111.076 76.3569 108.155 76.541C106.805 79.6883 100.988 82.5625 97.877 84.2549C96.3983 84.2746 95.4042 84.4274 94.0604 83.8137Z" fill="#51A25B"/>
<path d="M115.322 73.2151C117.758 72.5726 126.146 71.8884 127.661 73.944L127.355 78.0395C121.918 80.0172 125.845 81.9372 123.379 84.7225L121.44 84.6158L120.636 81.8507C121.194 81.1389 121.028 81.0665 121.151 80.0233C118.819 76.9926 119.758 77.3822 116.592 76.9024C113.819 75.9709 111.076 76.3569 108.155 76.541C112.653 75.0983 108.793 73.8876 115.322 73.2151Z" fill="#4C9E5A"/>
<path d="M115.322 73.2151C117.476 73.223 119.04 72.9506 120.697 74.1833C121.532 76.1028 121.237 77.8854 121.151 80.0233C118.819 76.9926 119.758 77.3822 116.592 76.9024C113.819 75.9709 111.076 76.3569 108.155 76.541C112.653 75.0983 108.793 73.8876 115.322 73.2151Z" fill="#326D3E"/>
<path d="M127.134 81.847C128.214 79.5336 127.741 79.6993 129.613 78.3493C131.546 79.8822 131.141 82.8927 131.049 85.1821C125.52 88.3712 128.588 93.5994 121.746 93.8467C120.194 95.6213 117.819 99.9382 116.365 100C113.543 100.12 113.536 99.0766 110.91 100.295L110.861 100.69C110.695 101.958 110.732 102.223 110.143 103.313C104.4 105.402 92.5817 100.12 92.14 106.839C90.8759 107.702 89.8757 108.298 88.8141 109.418L88.7773 114.176C92.3301 114.13 106.093 114.664 109.714 115.292C108.64 117.628 108.529 118.064 105.645 118.038C106.86 118.07 108.038 118.505 109.204 118.838L109.628 120.511C111.671 121.587 113.671 122.4 114.672 124.366C113.984 125.781 114.438 125.315 112.616 125.954C110.45 125.398 108.259 123.63 105.793 122.644L105.296 121.669L104.762 123.01L104.529 121.979C103.246 120.777 102.381 121.029 100.331 120.722C98.8834 120.548 95.889 120.562 94.3059 120.522L90.1211 120.449L89.6057 120.773C86.9488 121.159 85.5436 120.6 85.2552 123.612C85.1631 122.246 84.9299 122.138 83.9972 121.033L84.0157 120.585L80.9047 120.53L80.7207 116.517L80.6408 115.369C80.7145 112.052 80.7452 108.733 80.7452 105.415L84.7213 104.68C84.8686 104.523 85.0159 104.366 85.1631 104.209C86.2738 101.154 87.2187 102.297 89.5197 99.6504C91.2992 97.977 102.596 100.296 105.602 98.9453C106.105 94.2559 108.535 97.3407 111.665 94.9205C112.763 94.0688 113.794 94.0092 115.101 93.7681L116.04 90.8632L116.291 89.6463C119.887 88.1478 120.059 88.0901 121.44 84.6158L123.379 84.7225C125.845 81.9372 121.918 80.0172 127.355 78.0395L125.962 80.3013L127.134 81.847Z" fill="#101622"/>
<path d="M121.44 84.6158L123.379 84.7225C125.845 81.9372 121.918 80.0172 127.355 78.0395L125.962 80.3013L127.134 81.847L126.852 82.9847C124.771 84.0948 125.594 85.9946 124.305 87.1446C120.574 90.4938 118.85 87.5471 118.893 93.546L118.028 94.4026C111.542 94.3093 109.039 98.3108 103.817 99.9959C101.761 100.659 92.4037 99.6608 89.5197 99.6504C91.2992 97.977 102.596 100.296 105.602 98.9453C106.105 94.2559 108.535 97.3407 111.665 94.9205C112.763 94.0688 113.794 94.0092 115.101 93.7681L116.04 90.8632L116.291 89.6463C119.887 88.1478 120.059 88.0901 121.44 84.6158Z" fill="#1F3E28"/>
<path d="M80.7452 105.415L84.7213 104.68C83.9911 109.692 85.1202 117.114 84.0157 120.585L80.9047 120.53L80.7207 116.517L80.6408 115.369C80.7145 112.052 80.7452 108.733 80.7452 105.415Z" fill="#2A5243"/>
<path d="M92.2564 27.4797L93.8702 26.7102C95.6006 23.0517 101.418 20.7175 105.431 21.0255C106.13 27.9553 107.578 44.1515 99.675 47.3492C98.0429 52.2306 93.907 53.5929 89.1208 53.4291L88.8816 53.3837C87.5378 52.2018 87.8691 50.9052 87.6175 48.6335L89.397 47.3958L87.9735 46.8767C86.5131 45.0033 86.9548 44.9977 86.6848 42.2272C88.452 41.9596 88.7404 41.9504 90.072 40.7839C89.8572 38.6976 89.759 38.249 90.434 36.2019C88.3048 35.3496 88.6423 33.9744 88.6055 32.1096L89.1701 29.8827C90.5384 29.1206 91.2256 28.6647 92.2564 27.4797Z" fill="#498D56"/>
<path d="M92.2564 27.4797L93.8702 26.7102C95.6006 23.0517 101.418 20.7175 105.431 21.0255C104.952 26.0199 106.296 33.6553 103.694 36.2307C102.074 36.821 101.841 36.7456 100.166 36.2706C99.4664 35.0507 99.5951 34.5058 99.5645 33.0466L99.5154 30.4031C96.9076 28.3848 94.5268 30.2644 92.2564 27.4797Z" fill="#51A25B"/>
<path d="M88.6055 32.1096L89.1701 29.8827C90.5384 29.1206 91.2256 28.6647 92.2564 27.4797C94.5268 30.2644 96.9076 28.3848 99.5154 30.4031L99.5645 33.0466C98.6134 38.1526 97.7974 35.2416 94.0789 36.4646L92.8026 36.286L90.434 36.2019C88.3048 35.3496 88.6423 33.9744 88.6055 32.1096Z" fill="#4C9E5A"/>
<path d="M93.9807 33.964C94.0543 33.1564 94.3058 32.571 94.5635 31.8095C96.4105 31.1321 97.6317 30.8443 99.5154 30.4031L99.5645 33.0466C98.6134 38.1526 97.7974 35.2416 94.0789 36.4646L92.8026 36.286L93.9807 33.964Z" fill="#4B7751"/>
<path d="M88.6055 32.1096C90.25 31.9685 91.2195 31.8801 92.8823 31.9249C93.5021 32.814 93.6309 32.9067 93.9807 33.964L92.8026 36.286L90.434 36.2019C88.3048 35.3496 88.6423 33.9744 88.6055 32.1096Z" fill="#64B35D"/>
<path d="M90.072 40.7839L92.772 41.1582L93.1339 42.0529L91.7656 44.0153L91.6919 46.5625C90.612 47.5087 91.0538 47.2252 89.397 47.3958L87.9735 46.8767C86.5131 45.0033 86.9548 44.9977 86.6848 42.2272C88.452 41.9596 88.7404 41.9504 90.072 40.7839Z" fill="#1C542F"/>
<path d="M92.8026 36.286L94.0789 36.4646C94.3612 38.619 94.9869 40.9981 93.9131 42.7948L91.7656 44.0153L93.1339 42.0529L92.772 41.1582L90.072 40.7839C89.8572 38.6976 89.759 38.249 90.434 36.2019L92.8026 36.286Z" fill="#426549"/>
<path d="M79.2173 40.6127C78.8737 37.7305 78.4379 35.4367 80.6469 32.8637C86.1878 26.4077 92.7718 18.8085 101.135 16.0815C101.951 15.8133 109.928 16.0336 111.309 16.0716C111.358 22.4676 111.941 41.9118 110.438 46.8362C108.799 47.5351 108.548 47.3854 106.701 47.1338C103.823 47.1694 103.136 47.6486 99.675 47.3492C107.578 44.1515 106.13 27.9553 105.431 21.0255C101.418 20.7175 95.6006 23.0517 93.8702 26.7102L92.2564 27.4797C91.2256 28.6647 90.5384 29.1206 89.1701 29.8827L88.6055 32.1096L86.5069 32.0231C85.5681 33.0632 85.6233 33.8867 85.3902 35.3422L83.7702 36.6094L82.5921 36.8462L82.3712 38.3736C81.3342 39.0105 79.8984 39.715 79.2173 40.6127Z" fill="#0E2F2A"/>
<path d="M99.675 47.3492C103.136 47.6486 103.823 47.1694 106.701 47.1338C105.903 52.6264 106.001 50.8463 101.319 55.3485C100.467 56.1732 97.018 57.7208 96.0546 58.6953C95.6374 59.1113 94.7109 62.6372 94.6863 62.6458C92.0171 63.6675 91.0661 61.8683 89.3296 63.8995C89.1394 66.7559 89.6056 66.3945 88.0593 68.2354L85.6541 68.819C84.6355 70.631 85.0035 73.6287 85.0587 75.8402C83.4756 76.0709 82.8437 75.6536 81.322 75.0486L81.2606 64.707L81.414 64.1965L83.8501 63.8731C86.0099 61.4401 84.1629 61.394 85.746 57.9392C88.0593 56.8942 88.2311 57.36 91.1274 57.6226L89.1208 53.4291C93.907 53.5929 98.0429 52.2306 99.675 47.3492Z" fill="#052123"/>
<path d="M89.1208 53.4291C93.907 53.5929 98.0429 52.2306 99.675 47.3492C99.7732 48.8698 100.098 51.1365 98.9754 52.1097C97.0609 53.7665 93.6002 57.3992 91.1274 57.6226L89.1208 53.4291Z" fill="#2A5243"/>
<path d="M109.714 115.292C110.033 117.237 110.149 117.876 110.794 119.752C111.91 120.202 112.156 120.068 113.322 119.846C118.046 122.419 114.089 123.641 116.568 125.762C124.729 126.522 138.228 125.834 146.861 125.908L147.119 131.137C142.222 131.483 135.068 130.656 128.932 130.961L126.391 130.918C123.538 130.953 117.838 131.445 115.819 130.014L115.432 127.395L114.444 126.705L112.542 127.08C111.702 127.014 108.204 125.085 105.136 124.323L104.762 123.01L105.296 121.669L105.793 122.644C108.259 123.63 110.45 125.398 112.616 125.954C114.438 125.315 113.984 125.781 114.672 124.366C113.671 122.4 111.671 121.587 109.628 120.511L109.204 118.838C108.038 118.505 106.86 118.07 105.645 118.038C108.529 118.064 108.64 117.628 109.714 115.292Z" fill="#070912"/>
<path d="M36.1912 125.858C39.566 125.954 39.5599 125.394 41.7628 127.079L42.4255 128.607C41.2289 131.146 40.5233 130.939 37.7007 130.884C28.8832 131.191 20.0534 131.157 11.2359 130.781C11.2052 128.903 11.0272 127.972 11.8065 126.258C15.5188 125.527 31.221 125.851 36.1912 125.858Z" fill="#070912"/>
</svg>
