<svg width="168" height="184" viewBox="0 0 168 184" fill="none" xmlns="http://www.w3.org/2000/svg">
<path d="M5.59166 5.53309C11.0486 5.21077 9.88171 5.41025 10.9959 0.139014L108.077 0.204869C114.151 0.203603 142.329 -0.482188 145.909 0.66274C146.578 2.47322 146.411 3.50416 146.324 5.39253L151.573 5.33997L152.048 10.639C154.599 10.8601 155.384 10.4541 156.972 11.8733C157.097 13.3716 157.196 14.595 157.205 16.1085C158.996 16.0579 160.348 15.7969 161.854 16.655C161.889 19.4571 161.501 18.7428 162.886 20.8927C164.298 21.0973 165.712 21.2829 167.129 21.4507C168.311 23.4283 167.852 44.9357 167.851 48.7124L167.815 141.026C167.815 146.991 168.455 174.025 167.356 177.692C163.974 179.01 163.872 177.078 162.413 179.326L162.313 182.898C161.016 184.063 159.515 183.829 157.41 183.835C131.941 183.911 106.364 183.797 80.9026 183.791H40.8759C36.4037 183.797 25.9778 184.411 22.2829 183.506C20.7962 180.529 22.7798 179.693 20.755 178.212L17.1819 178.231C15.864 176.483 17.0639 174.944 16.2987 173.495C14.1927 169.513 10.4845 176.381 10.6381 162.55C8.12406 162.349 7.26111 162.757 5.73571 161.357L5.67289 159.26C5.59675 158.061 5.55295 158.137 4.87337 157.123C2.99453 156.93 2.5034 156.968 0.798422 156.244C-0.491574 153.254 0.231801 65.1486 0.23307 53.9728C0.248933 45.1623 0.216581 36.3518 0.135361 27.542C0.0966548 23.3599 -0.242181 15.4081 0.326356 11.7397C2.41776 10.5428 2.71916 10.9817 5.50348 10.9905L5.59166 5.53309Z" fill="#373F4B"/>
<path d="M103.112 48.7916L108.09 48.8333C108.167 50.362 108.219 52.7209 108.385 54.173C106.821 54.047 104.763 54.1306 103.156 54.1477L102.85 54.0419C102.997 52.9527 103.057 50.0176 103.112 48.7916Z" fill="#222733"/>
<path d="M146.324 5.39253L151.573 5.33997L152.048 10.639C154.599 10.8601 155.384 10.4541 156.972 11.8733C157.097 13.3716 157.196 14.595 157.205 16.1085C158.996 16.0579 160.348 15.7969 161.854 16.655C161.889 19.4571 161.501 18.7428 162.886 20.8927C164.298 21.0973 165.712 21.2829 167.129 21.4507C168.311 23.4283 167.852 44.9357 167.851 48.7124L167.815 141.026C167.815 146.991 168.455 174.025 167.356 177.692C163.974 179.01 163.872 177.078 162.413 179.326L162.313 182.898C161.016 184.063 159.515 183.829 157.41 183.835C131.941 183.911 106.364 183.797 80.9026 183.791H40.8759C36.4037 183.797 25.9778 184.411 22.2829 183.506C20.7962 180.529 22.7798 179.693 20.755 178.212L17.1819 178.231C15.864 176.483 17.0639 174.944 16.2987 173.495C14.1927 169.513 10.4845 176.381 10.6381 162.55C8.12406 162.349 7.26111 162.757 5.73571 161.357L5.67289 159.26C5.59675 158.061 5.55295 158.137 4.87337 157.123L5.48503 151.527L5.48249 151.025L5.45458 146.352L11.1311 146.577C11.1406 148.081 11.1907 149.732 11.0898 151.218C12.8062 151.485 14.3354 151.698 15.7758 150.808C15.9643 149.695 16.2352 148.536 16.4763 147.426C18.4561 146.042 19.0195 146.561 21.9701 146.566C21.9066 148.199 21.9733 148.949 22.1624 150.576C22.4707 150.821 22.7791 151.067 23.0869 151.313C35.1626 151.199 58.4016 151.545 69.4925 151.153C70.5889 149.338 70.233 148.492 70.3142 146.125L70.6664 145.92L81.5625 145.926L81.48 140.743L81.5967 140.378L81.5783 135.052L81.5333 129.894L81.6925 129.54C85.5759 130.014 88.4801 129.752 91.9967 130.069L92.4948 130.05L97.5964 129.902C99.6757 129.964 101.085 129.774 103.121 129.543C103.19 127.863 102.98 126.103 102.836 124.419C102.417 122.921 102.758 120.937 102.905 119.324C104.547 119.362 106.159 119.481 107.77 119.202C105.176 118.909 105.338 119.303 103.446 117.938C102.479 116.005 103.194 110.984 103.124 108.015L108.07 108.065L108.213 108.705C112.318 108.378 115.203 108.48 119.283 108.62L118.989 113.519C119.025 115.278 119.009 117.661 119.164 119.355C119.234 120.584 119.305 123.2 119.514 124.291L124.711 124.35C127.645 124.445 127.793 124.005 129.988 125.331L130.031 124.845C131.782 124.628 133.802 124.313 135.542 124.279L140.766 124.301L141.253 124.189L146.176 124.423L146.27 119.077C146.639 116.851 146.411 101.695 146.402 98.9056L146.187 45.023C146.151 38.9001 145.744 21.2525 146.652 16.1484L146.182 15.8901L146.302 11.0887L146.324 5.39253Z" fill="#272C37"/>
<path d="M157.205 16.1085C158.996 16.0579 160.348 15.7969 161.854 16.655C161.889 19.4571 161.501 18.7428 162.886 20.8927C164.298 21.0973 165.712 21.2829 167.129 21.4507C168.311 23.4283 167.852 44.9357 167.851 48.7124L167.815 141.026C167.815 146.991 168.455 174.025 167.356 177.692C163.974 179.01 163.872 177.078 162.413 179.326L162.313 182.898C161.016 184.063 159.515 183.829 157.41 183.835C131.941 183.911 106.364 183.797 80.9026 183.791H40.8759C36.4037 183.797 25.9778 184.411 22.2829 183.506C20.7962 180.529 22.7798 179.693 20.755 178.212L17.1819 178.231C15.864 176.483 17.0639 174.944 16.2987 173.495C14.1927 169.513 10.4845 176.381 10.6381 162.55L11.2415 162.231C26.6751 161.584 45.2928 162.133 61.085 162.089C89.5296 161.862 117.976 161.88 146.421 162.141C148.319 162.348 149.76 162.111 151.635 161.901L151.659 157.617L151.882 157.239C153.83 156.941 154.731 156.806 156.66 156.176C157.75 152.774 157.108 123.441 157.104 117.182L157.205 16.1085Z" fill="#5E616B"/>
<path d="M11.2415 162.231C26.6751 161.584 45.2928 162.133 61.085 162.089C89.5296 161.862 117.976 161.88 146.421 162.141C146.486 164.061 146.722 165.508 145.781 167.203C142.242 167.736 128.672 167.473 124.292 167.469L34.6981 167.555C29.2215 167.563 16.3913 167.928 11.7777 167.303C10.9071 165.916 11.2034 163.984 11.2415 162.231Z" fill="#02020A"/>
<path d="M108.07 108.065L108.213 108.705C112.318 108.378 115.203 108.48 119.283 108.62L118.989 113.519C119.025 115.278 119.009 117.661 119.164 119.355C119.234 120.584 119.305 123.2 119.514 124.291L124.711 124.35C127.645 124.445 127.793 124.005 129.988 125.331L130.031 124.845C131.782 124.628 133.802 124.313 135.542 124.279L140.766 124.301L141.253 124.189L146.176 124.423C146.289 129.993 147.885 149.246 143.742 152.267C141.847 151.56 142.512 152.036 141.235 150.439L141.114 146.423C140.633 149.13 141.05 149.51 139.44 151.076L135.356 151.263C131.063 151.816 108.598 151.515 104.008 151.231C103.072 150.2 103.063 147.488 102.909 145.938C104.751 145.994 105.531 145.955 107.359 145.726C108.723 144.104 108.281 143.676 108.394 141.135L108.262 140.652L108.38 135.156L108.055 131.237C106.584 129.855 106.042 130.213 103.669 129.9L103.228 129.979L103.121 129.543C103.19 127.863 102.98 126.103 102.836 124.419C102.417 122.921 102.758 120.937 102.905 119.324C104.547 119.362 106.159 119.481 107.77 119.202C105.176 118.909 105.338 119.303 103.446 117.938C102.479 116.005 103.194 110.984 103.124 108.015L108.07 108.065Z" fill="#373F4B"/>
<path d="M108.07 108.065L108.213 108.705C112.318 108.378 115.203 108.48 119.283 108.62L118.989 113.519C119.025 115.278 119.009 117.661 119.164 119.355C119.234 120.584 119.305 123.2 119.514 124.291L119.109 124.42L113.933 124.269L113.943 129.846C116.55 130.105 117.293 129.695 118.894 131.17C118.973 132.51 119.038 133.851 119.089 135.192L119.056 140.366L119.007 140.723C116.345 140.767 110.218 140.27 108.394 141.135L108.262 140.652L108.38 135.156L108.055 131.237C106.584 129.855 106.042 130.213 103.669 129.9L103.228 129.979L103.121 129.543C103.19 127.863 102.98 126.103 102.836 124.419C102.417 122.921 102.758 120.937 102.905 119.324C104.547 119.362 106.159 119.481 107.77 119.202C105.176 118.909 105.338 119.303 103.446 117.938C102.479 116.005 103.194 110.984 103.124 108.015L108.07 108.065Z" fill="#02020A"/>
<path d="M108.359 119.352C109.69 123.053 108.718 124.507 110.861 128.502L111.701 128.724C113.087 126.991 113.373 122.449 113.628 120.192L113.933 124.269L113.943 129.846C116.55 130.105 117.293 129.695 118.894 131.17C118.973 132.51 119.038 133.851 119.089 135.192L119.056 140.366L119.007 140.723C116.345 140.767 110.218 140.27 108.394 141.135L108.262 140.652L108.38 135.156L108.055 131.237C106.584 129.855 106.042 130.213 103.669 129.9L103.228 129.979L103.121 129.543C103.19 127.863 102.98 126.103 102.836 124.419C102.417 122.921 102.758 120.937 102.905 119.324C104.547 119.362 106.159 119.481 107.77 119.202L108.359 119.352Z" fill="#0A0E1B"/>
<path d="M113.646 135.158L119.089 135.192L119.056 140.366L119.007 140.723C116.345 140.767 110.218 140.27 108.394 141.135L108.262 140.652L108.38 135.156L113.646 135.158Z" fill="#272C37"/>
<path d="M113.646 135.158L119.089 135.192L119.056 140.366C117.618 140.366 116.224 140.257 114.79 140.165C113.288 138.637 113.777 137.858 113.646 135.158Z" fill="#141922"/>
<path d="M107.77 119.202L108.359 119.352L108.299 124.283C108.251 126.962 108.746 127.671 107.333 129.326L103.669 129.9L103.228 129.979L103.121 129.543C103.19 127.863 102.98 126.103 102.836 124.419C102.417 122.921 102.758 120.937 102.905 119.324C104.547 119.362 106.159 119.481 107.77 119.202Z" fill="#272C37"/>
<path d="M107.77 119.202L108.359 119.352L108.299 124.283L102.836 124.419C102.417 122.921 102.758 120.937 102.905 119.324C104.547 119.362 106.159 119.481 107.77 119.202Z" fill="#5E616B"/>
<path d="M108.213 108.705C112.318 108.378 115.203 108.48 119.283 108.62L118.989 113.519C115.912 113.474 112.01 114.323 109.404 113.189C107.876 111.493 108.368 111.567 108.213 108.705Z" fill="#5E616B"/>
<path d="M113.628 120.192C114.846 118.667 117.361 119.272 119.164 119.355C119.234 120.584 119.305 123.2 119.514 124.291L119.109 124.42L113.933 124.269L113.628 120.192Z" fill="#141922"/>
<path d="M119.514 124.291L124.711 124.35C127.645 124.445 127.793 124.005 129.988 125.331L130.031 124.845C131.782 124.628 133.802 124.313 135.542 124.279L135.466 129.299L135.147 129.468L134.775 130.373C135.456 130.901 135.855 131.712 135.857 132.573C135.859 133.433 135.464 134.247 134.785 134.778L135.682 135.252L135.5 140.247C133.492 139.99 132.327 140.098 130.347 140.21C126.302 140.661 123.057 140.677 119.007 140.723L119.056 140.366L119.089 135.192C119.038 133.851 118.973 132.51 118.894 131.17C117.293 129.695 116.55 130.105 113.943 129.846L113.933 124.269L119.109 124.42L119.514 124.291Z" fill="#272C37"/>
<path d="M119.634 135.092L124.877 135.138L129.969 135.079L130.347 140.21C126.302 140.661 123.057 140.677 119.007 140.723L119.056 140.366L119.089 135.192L119.634 135.092Z" fill="#0A0E1B"/>
<path d="M134.775 130.373C135.456 130.901 135.855 131.712 135.857 132.573C135.859 133.433 135.464 134.247 134.785 134.778L135.682 135.252L135.5 140.247C133.492 139.99 132.327 140.098 130.347 140.21L129.969 135.079L130.037 129.942L131.256 130.44C132.267 129.593 133.733 129.564 134.775 130.373Z" fill="#141922"/>
<path d="M134.775 130.373C135.456 130.901 135.855 131.712 135.857 132.573C135.859 133.433 135.464 134.247 134.785 134.778C133.582 135.719 131.847 135.524 130.884 134.34C129.921 133.156 130.087 131.421 131.256 130.44C132.267 129.593 133.733 129.564 134.775 130.373Z" fill="#02020A"/>
<path d="M130.031 124.845C131.782 124.628 133.802 124.313 135.542 124.279L135.466 129.299L135.147 129.468C133.44 129.569 131.694 129.421 129.981 129.327L129.988 125.331L130.031 124.845Z" fill="#6A7582"/>
<path d="M124.67 129.923C126.367 129.946 128.371 130.031 130.037 129.942L129.969 135.079L124.877 135.138C124.934 134.238 124.718 130.985 124.67 129.923Z" fill="#545B69"/>
<path d="M113.933 124.269L119.109 124.42C119.148 127.139 119.6 127.274 118.359 129.177C116.766 129.49 115.558 129.666 113.943 129.846L113.933 124.269Z" fill="#545B69"/>
<path d="M119.634 135.092C119.542 133.152 119.38 132.368 119.977 130.491C121.821 129.468 122.298 129.865 124.67 129.923C124.718 130.985 124.934 134.238 124.877 135.138L119.634 135.092Z" fill="#5E616B"/>
<path d="M124.711 124.35C127.645 124.445 127.793 124.005 129.988 125.331L129.981 129.327C128.117 129.489 127.316 129.65 125.463 129.138C124.313 127.265 124.72 126.834 124.711 124.35Z" fill="#02020A"/>
<path d="M140.766 124.301L141.253 124.189C141.397 127.16 142.029 131.686 140.669 134.112C138.805 135.599 138.603 135.11 135.682 135.252L134.785 134.778C135.464 134.247 135.859 133.433 135.857 132.573C135.855 131.712 135.456 130.901 134.775 130.373L135.147 129.468L135.466 129.299L135.542 124.279L140.766 124.301Z" fill="#141922"/>
<path d="M135.542 124.279L140.766 124.301C140.715 127.077 141.185 127.591 139.864 129.486C137.922 129.64 137.401 129.576 135.466 129.299L135.542 124.279Z" fill="#02020A"/>
<path d="M130.347 140.21C132.327 140.098 133.492 139.99 135.5 140.247L130.84 140.622C128.789 144.014 132.14 145.061 127.741 146.057C124.426 146.807 123.033 146.561 119.992 145.187C118.661 143.42 119.102 143.392 119.007 140.723C123.057 140.677 126.302 140.661 130.347 140.21Z" fill="#272C37"/>
<path d="M135.356 151.263C135.403 149.433 135.425 148.929 135.871 147.161C137.686 145.985 138.605 146.425 141.114 146.423C140.633 149.13 141.05 149.51 139.44 151.076L135.356 151.263Z" fill="#141922"/>
<path d="M136.377 140.694C137.66 139.66 139.528 139.81 140.629 141.034C141.73 142.258 141.678 144.128 140.511 145.289C139.699 146.096 138.508 146.39 137.413 146.054C136.318 145.719 135.499 144.807 135.282 143.685C135.065 142.562 135.486 141.412 136.377 140.694Z" fill="#8E9DA9"/>
<path d="M11.2935 156.719L103.592 156.695C114.953 156.704 135.836 157.369 146.258 156.547C148.579 156.467 149.964 156.112 151.659 157.617L151.635 161.901C149.76 162.111 148.319 162.348 146.421 162.141C117.976 161.88 89.5296 161.862 61.085 162.089C45.2928 162.133 26.6751 161.584 11.2415 162.231L11.2485 157.118L11.2935 156.719Z" fill="#141922"/>
<path d="M146.258 156.547C148.579 156.467 149.964 156.112 151.659 157.617L151.635 161.901C150.085 161.751 148.54 161.56 147 161.33C145.754 159.643 146.224 159.067 146.258 156.547Z" fill="#02020A"/>
<path d="M152.048 10.639C154.599 10.8601 155.384 10.4541 156.972 11.8733C157.097 13.3716 157.196 14.595 157.205 16.1085L157.104 117.182C157.108 123.441 157.75 152.774 156.66 156.176C154.731 156.806 153.83 156.941 151.882 157.239C152.293 147.7 152.429 136.333 151.987 126.778C151.762 88.695 151.279 48.568 152.048 10.639Z" fill="#02020A"/>
<path d="M81.6925 129.54C85.5759 130.014 88.4801 129.752 91.9967 130.069L92.4948 130.05L92.5151 134.804L92.3539 140.358L92.4827 140.765L92.3412 145.887L81.5625 145.926L81.48 140.743L81.5967 140.378L81.5783 135.052L81.5333 129.894L81.6925 129.54Z" fill="#545B69"/>
<path d="M92.3539 140.358L92.4827 140.765L92.3412 145.887L81.5625 145.926L81.48 140.743L81.5967 140.378C83.5879 140.533 90.4522 140.858 92.3539 140.358Z" fill="#272C37"/>
<path d="M81.6925 129.54C85.5759 130.014 88.4801 129.752 91.9967 130.069C91.8958 133.226 92.4402 132.986 90.7473 134.759C88.0448 135.763 84.6063 135.022 81.5783 135.052L81.5333 129.894L81.6925 129.54Z" fill="#272C37"/>
<path d="M97.5964 129.902C99.6757 129.964 101.085 129.774 103.121 129.543L103.228 129.979L103.669 129.9C106.042 130.213 106.584 129.855 108.055 131.237L108.38 135.156L108.262 140.652L103.151 140.687C99.4524 140.629 96.1973 140.617 92.4827 140.765L92.3539 140.358L92.5151 134.804L92.4948 130.05L97.5964 129.902Z" fill="#2F3644"/>
<path d="M103.228 129.979L103.669 129.9C106.042 130.213 106.584 129.855 108.055 131.237L108.38 135.156L108.262 140.652L103.151 140.687L103.201 139.967C103.109 136.707 103.199 133.255 103.228 129.979Z" fill="#0A0E1B"/>
<path d="M92.5151 134.804L95.0012 135.399L97.0266 135.947C97.7354 137.74 97.6383 138.401 97.6801 140.295L102.589 139.974L103.201 139.967L103.151 140.687C99.4524 140.629 96.1973 140.617 92.4827 140.765L92.3539 140.358L92.5151 134.804Z" fill="#222733"/>
<path d="M92.4948 130.05L97.5964 129.902C97.5025 132.522 97.9504 133.242 96.5957 134.994L95.0012 135.399L92.5151 134.804L92.4948 130.05Z" fill="#5F6A7A"/>
<path d="M97.6801 140.295C98.0792 137.097 97.5349 137.562 99.3648 135.488L100.763 135.21C102.767 136.926 102.604 137.178 102.589 139.974L97.6801 140.295Z" fill="#444853"/>
<path d="M108.262 140.652L108.394 141.135C108.281 143.676 108.723 144.104 107.359 145.726C105.531 145.955 104.751 145.994 102.909 145.938C102.668 148.934 103.135 149.014 101.615 151.098C99.4619 152.403 94.8774 151.656 92.1502 151.463L92.3412 145.887L92.4827 140.765C96.1973 140.617 99.4524 140.629 103.151 140.687L108.262 140.652Z" fill="#222733"/>
<path d="M92.4827 140.765C96.1973 140.617 99.4524 140.629 103.151 140.687C103.022 143.914 103.579 143.737 101.854 145.592C99.1592 146.64 95.4694 145.813 92.3412 145.887L92.4827 140.765Z" fill="#02020A"/>
<path d="M5.48503 151.527C8.07644 151.613 8.83154 151.154 10.4769 152.518L11.2935 156.719L11.2485 157.118L11.2415 162.231L10.6381 162.55C8.12406 162.349 7.26111 162.757 5.73571 161.357L5.67289 159.26C5.59675 158.061 5.55295 158.137 4.87337 157.123L5.48503 151.527Z" fill="#0A0E1B"/>
<path d="M5.67289 159.26L6.69955 157.113C8.96038 156.254 8.54092 156.585 11.2485 157.118L11.2415 162.231L10.6381 162.55C8.12406 162.349 7.26111 162.757 5.73571 161.357L5.67289 159.26Z" fill="#030612"/>
<path d="M81.5625 145.926L92.3412 145.887L92.1502 151.463C89.3646 151.607 84.7846 152.221 82.494 151.026C81.039 149.063 81.5555 148.939 81.5625 145.926Z" fill="#02020A"/>
<path d="M151.987 126.778C152.429 136.333 152.293 147.7 151.882 157.239L151.659 157.617C149.964 156.112 148.579 156.467 146.258 156.547L146.495 152.628C148.878 150.285 150.528 151.881 150.834 150.819C152.376 145.473 151.323 132.283 151.987 126.778Z" fill="#141922"/>
<path d="M146.324 5.39253L151.573 5.33997C151.459 7.11246 151.238 9.29277 151.368 11.0285L146.302 11.0887L146.324 5.39253Z" fill="#02020A"/>
<path d="M5.45458 146.352L11.1311 146.577C11.1406 148.081 11.1907 149.732 11.0898 151.218C9.75414 150.993 6.94762 151.043 5.48249 151.025L5.45458 146.352Z" fill="#2F3644"/>
<path d="M146.302 11.0887L151.368 11.0285C151.387 13.7306 151.9 14.2885 150.507 15.9787C149.083 16.0958 148.079 16.1833 146.652 16.1484L146.182 15.8901L146.302 11.0887Z" fill="#444853"/>
<path d="M15.7758 150.808C15.9643 149.695 16.2352 148.536 16.4763 147.426C18.4561 146.042 19.0195 146.561 21.9701 146.566C21.5011 149.114 21.9086 149.192 20.4035 150.788C18.5011 150.954 17.6838 150.938 15.7758 150.808Z" fill="#141922"/>
<path d="M108.487 64.6084L109.797 64.4678L113.496 64.9225C113.777 67.7785 113.328 68.3725 114.862 70.1646C116.333 70.3115 117.802 70.4819 119.267 70.6763L119.362 75.8253C121.036 75.7544 122.292 75.8817 123.721 75.0698C123.984 73.809 124.285 72.5558 124.624 71.3127L124.876 75.5321C124.844 77.2412 124.73 79.5406 124.824 81.1972L124.652 83.6011L124.675 91.9398C124.584 94.0922 125.084 96.3485 123.19 97.5998C123.993 100.297 123.557 100.45 125.378 101.931C126.873 102.041 128.366 102.171 129.858 102.319L129.521 102.741L129.917 106.762L129.702 108.238C126.269 108.731 122.757 108.624 119.283 108.62C115.203 108.48 112.318 108.378 108.213 108.705L108.07 108.065L103.124 108.015C103.194 110.984 102.479 116.005 103.446 117.938C105.338 119.303 105.176 118.909 107.77 119.202C106.159 119.481 104.547 119.362 102.905 119.324C102.758 120.937 102.417 122.921 102.836 124.419C102.98 126.103 103.19 127.863 103.121 129.543C101.085 129.774 99.6757 129.964 97.5964 129.902L92.4948 130.05L91.9967 130.069C88.4801 129.752 85.5759 130.014 81.6925 129.54C81.5377 126.16 81.6412 122.541 81.6755 119.139L81.5485 118.755L81.513 114.075L81.4616 113.703L75.5402 113.56C74.1182 113.503 72.372 113.271 70.9291 113.122L70.752 113.648C70.2501 112.129 70.3352 109.644 70.2958 107.962L70.3155 102.782C70.1956 100.741 69.9138 99.4452 70.825 97.6404C72.1144 97.5397 72.9621 97.5518 74.2572 97.5834C76.6513 95.7438 75.3955 96.5005 76.11 92.3818C77.7052 91.5313 78.546 91.601 80.3099 91.5586L80.9305 91.5459C81.8963 89.7842 81.534 88.8001 81.539 86.5584C82.171 86.5413 82.803 86.5147 83.4344 86.4786C88.6749 86.1613 84.4578 84.7093 87.43 81.3201C89.1153 81.0256 89.7834 81.0636 91.51 81.0839C93.5817 78.5781 91.0957 78.913 93.1845 75.5916C94.7328 75.3028 95.0824 75.3193 96.67 75.3586C97.9708 73.5956 97.5501 73.0225 97.656 70.4768H103.148L103.13 64.8541C104.393 65.0238 107.102 64.7186 108.487 64.6084Z" fill="#373F4B"/>
<path d="M92.3228 102.767L103.016 102.728L103.124 108.015C103.194 110.984 102.479 116.005 103.446 117.938C105.338 119.303 105.176 118.909 107.77 119.202C106.159 119.481 104.547 119.362 102.905 119.324C102.758 120.937 102.417 122.921 102.836 124.419C102.98 126.103 103.19 127.863 103.121 129.543C101.085 129.774 99.6757 129.964 97.5964 129.902L92.4948 130.05L91.9967 130.069C88.4801 129.752 85.5759 130.014 81.6925 129.54C81.5377 126.16 81.6412 122.541 81.6755 119.139L81.5485 118.755L81.513 114.075L81.4616 113.703L75.5402 113.56C74.1182 113.503 72.372 113.271 70.9291 113.122L70.752 113.648C70.2501 112.129 70.3352 109.644 70.2958 107.962C73.7553 107.979 77.919 108.185 81.2338 107.444L81.6526 107.434L81.553 102.76L86.4541 102.798L92.3228 102.767Z" fill="#4C545F"/>
<path d="M91.9262 118.67L92.3672 118.542L97.6687 118.948L98.0038 119.541L102.905 119.324C102.758 120.937 102.417 122.921 102.836 124.419C102.98 126.103 103.19 127.863 103.121 129.543C101.085 129.774 99.6757 129.964 97.5964 129.902L92.4948 130.05L91.9967 130.069C88.4801 129.752 85.5759 130.014 81.6925 129.54C81.5377 126.16 81.6412 122.541 81.6755 119.139C83.6552 118.758 89.3691 118.927 91.9262 118.67Z" fill="#272C37"/>
<path d="M91.9262 118.67C92.2993 121.565 92.3476 127.105 91.9967 130.069C88.4801 129.752 85.5759 130.014 81.6925 129.54C81.5377 126.16 81.6412 122.541 81.6755 119.139C83.6552 118.758 89.3691 118.927 91.9262 118.67Z" fill="#0A0E1B"/>
<path d="M98.0038 119.541L102.905 119.324C102.758 120.937 102.417 122.921 102.836 124.419C102.98 126.103 103.19 127.863 103.121 129.543C101.085 129.774 99.6757 129.964 97.5964 129.902C97.6237 126.678 97.8718 122.809 98.0038 119.541Z" fill="#545B69"/>
<path d="M81.513 114.075C84.9337 112.903 89.6889 112.042 91.9611 115.367L91.9262 118.67C89.3691 118.927 83.6552 118.758 81.6755 119.139L81.5485 118.755L81.513 114.075Z" fill="#222733"/>
<path d="M92.3228 102.767L103.016 102.728L103.124 108.015C99.6567 107.775 95.9098 109.01 93.2955 107.738C91.8736 105.694 92.3558 105.742 92.3228 102.767Z" fill="#02020A"/>
<path d="M97.6433 112.293C97.821 112.641 98.071 112.947 98.3768 113.191C98.0539 115.253 97.8039 116.855 97.6687 118.948L92.3672 118.542C92.4903 116.682 92.616 115.145 92.859 113.286C94.5817 111.827 94.7613 112.336 97.6433 112.293Z" fill="#545B69"/>
<path d="M75.5122 108.498C78.065 108.576 79.5345 108.134 81.2109 109.437C81.4159 111.12 81.4781 112.009 81.4616 113.703L75.5402 113.56L75.5122 108.498Z" fill="#6A7582"/>
<path d="M81.553 102.76L86.4541 102.798C86.3132 105.282 86.6914 105.99 85.449 107.796C83.6964 108.157 83.4381 107.961 81.6526 107.434L81.553 102.76Z" fill="#828F9B"/>
<path d="M97.6433 112.293C97.0018 111.039 97.4124 109.503 98.5945 108.734C99.7766 107.965 101.35 108.21 102.241 109.302C103.133 110.394 103.055 111.98 102.062 112.98C101.068 113.981 99.4778 114.072 98.3768 113.191C98.071 112.947 97.821 112.641 97.6433 112.293Z" fill="#828F9B"/>
<path d="M70.9291 113.122C70.877 111.739 70.9633 110.801 71.075 109.419C72.5547 108.181 73.1765 108.589 75.5122 108.498L75.5402 113.56C74.1182 113.503 72.372 113.271 70.9291 113.122Z" fill="#828F9B"/>
<path d="M119.173 91.9949L124.675 91.9398C124.584 94.0922 125.084 96.3485 123.19 97.5998C123.993 100.297 123.557 100.45 125.378 101.931C126.873 102.041 128.366 102.171 129.858 102.319L129.521 102.741L129.917 106.762L129.702 108.238C126.269 108.731 122.757 108.624 119.283 108.62C115.203 108.48 112.318 108.378 108.213 108.705L108.07 108.065L103.124 108.015L103.016 102.728C103.001 100.664 103.008 100.104 103.444 98.0957C105.364 96.8348 105.972 97.2775 108.683 97.2123L112.229 97.2965C113.969 99.3166 112.805 99.922 113.739 102.314C113.736 101.086 113.814 99.8492 113.87 98.6207C115.364 97.1775 115.47 97.6113 117.958 97.446L118.062 97.1908C119.825 95.6348 119.245 94.2005 119.173 91.9949Z" fill="#2F3644"/>
<path d="M108.683 97.2123L112.229 97.2965C113.969 99.3166 112.805 99.922 113.739 102.314L113.899 102.786C116.168 102.848 117.203 102.487 118.87 103.561C119.135 105.902 119.289 104.97 118.299 107.094C115.964 108.815 111.495 107.648 108.07 108.065L103.124 108.015L103.016 102.728C103.001 100.664 103.008 100.104 103.444 98.0957C105.364 96.8348 105.972 97.2775 108.683 97.2123Z" fill="#02020A"/>
<path d="M103.016 102.728C105.581 102.823 106.48 102.384 108.172 103.71C108.46 105.643 108.353 106.118 108.07 108.065L103.124 108.015L103.016 102.728Z" fill="#444853"/>
<path d="M108.683 97.2123L112.229 97.2965C113.969 99.3166 112.805 99.922 113.739 102.314L113.899 102.786C112.463 102.771 111.233 102.672 109.801 102.558C108.329 100.655 108.819 100.139 108.683 97.2123Z" fill="#272C37"/>
<path d="M124.07 102.793L129.521 102.741L129.917 106.762L129.702 108.238C128.374 108.022 125.703 108.066 124.255 108.045L124.07 102.793Z" fill="#545B69"/>
<path d="M117.958 97.446C119.046 98.7587 119.192 98.8239 119.441 100.446C118.054 102.995 116.364 102.511 113.739 102.314C113.736 101.086 113.814 99.8492 113.87 98.6207C115.364 97.1775 115.47 97.6113 117.958 97.446Z" fill="#5F6A7A"/>
<path d="M119.688 102.582C119.758 99.9543 119.288 99.1912 120.66 97.5004L123.19 97.5998C123.993 100.297 123.557 100.45 125.378 101.931C126.873 102.041 128.366 102.171 129.858 102.319L129.521 102.741L124.07 102.793L119.688 102.582Z" fill="#0A0E1B"/>
<path d="M119.688 102.582L124.07 102.793L124.255 108.045C122.523 108.045 122.06 108.015 120.37 107.646C119.035 105.734 119.559 105.487 119.688 102.582Z" fill="#5E616B"/>
<path d="M113.496 64.9225C113.777 67.7785 113.328 68.3725 114.862 70.1646C116.333 70.3115 117.802 70.4819 119.267 70.6763L119.362 75.8253C121.036 75.7544 122.292 75.8817 123.721 75.0698C123.984 73.809 124.285 72.5558 124.624 71.3127L124.876 75.5321C124.844 77.2412 124.73 79.5406 124.824 81.1972L124.652 83.6011L124.266 81.0617L119.093 81.422C117.304 81.3346 115.37 81.118 113.574 80.9534C113.402 79.5393 113.432 77.1589 113.402 75.6562C113.762 72.8021 113.185 68.7411 113.496 64.9225Z" fill="#0A0E1B"/>
<path d="M119.362 75.8253C121.036 75.7544 122.292 75.8817 123.721 75.0698C123.984 73.809 124.285 72.5558 124.624 71.3127L124.876 75.5321C124.844 77.2412 124.73 79.5406 124.824 81.1972L124.652 83.6011L124.266 81.0617C122.969 80.8667 121.67 80.6881 120.368 80.5272C119.061 78.9061 119.48 78.2988 119.362 75.8253Z" fill="#272C37"/>
<path d="M113.574 80.9534C113.954 78.3811 113.612 77.3033 115.157 75.8228C116.427 75.755 117.733 75.667 119 75.6252C118.927 78.0847 119.359 78.9017 118.085 80.5101C116.587 80.7141 115.083 80.8616 113.574 80.9534Z" fill="#030612"/>
<path d="M108.487 64.6084L109.797 64.4678L113.496 64.9225C113.185 68.7411 113.762 72.8021 113.402 75.6562L108.564 75.6803C108.41 74.0674 108.255 72.8161 107.975 71.2209C106.232 70.0937 105.536 70.4977 103.148 70.4768L103.13 64.8541C104.393 65.0238 107.102 64.7186 108.487 64.6084Z" fill="#02020A"/>
<path d="M108.487 64.6084L109.797 64.4678C107.024 69.1255 109.79 70.0266 108.564 75.6803C108.41 74.0674 108.255 72.8161 107.975 71.2209C106.232 70.0937 105.536 70.4977 103.148 70.4768L103.13 64.8541C104.393 65.0238 107.102 64.7186 108.487 64.6084Z" fill="#0A0E1B"/>
<path d="M81.553 102.76C81.1247 100.908 80.8639 100.28 81.4229 98.4389C84.8278 95.5304 87.6108 96.2636 91.2701 97.9209C92.687 99.8561 92.2187 99.898 92.3228 102.767L86.4541 102.798L81.553 102.76Z" fill="#02020A"/>
<path d="M119.093 81.422L124.266 81.0617L124.652 83.6011L124.675 91.9398L119.173 91.9949C119.022 88.7754 119.108 84.7169 119.093 81.422Z" fill="#0A0E1B"/>
<path d="M70.3155 102.782C73.7813 102.646 78.1627 101.945 80.8823 103.668C81.5536 105.098 81.3417 105.805 81.2338 107.444C77.919 108.185 73.7553 107.979 70.2958 107.962L70.3155 102.782Z" fill="#02020A"/>
<path d="M119.173 91.9949C119.245 94.2005 119.825 95.6348 118.062 97.1908C115.098 97.2167 114.474 97.2927 113.229 94.773L113.94 93.0967C116.231 91.5795 115.975 92.0709 119.173 91.9949Z" fill="#02020A"/>
<path d="M5.59166 5.53309C11.0486 5.21077 9.88171 5.41025 10.9959 0.139014L108.077 0.204869C114.151 0.203603 142.329 -0.482188 145.909 0.66274C146.578 2.47322 146.411 3.50416 146.324 5.39253L146.302 11.0887L146.182 15.8901C143.412 16.1111 142.889 15.6203 141.409 17.223C141.239 18.3262 141.015 20.3266 140.601 21.2873L140.599 21.6476L135.593 21.6381L135.537 16.3909L140.235 15.8938C141.216 14.2613 140.846 14.0504 140.728 11.903L139.635 11.1292C135.218 10.3997 20.663 10.7264 19.3241 11.0595C17.5265 11.5079 16.8552 11.9125 15.93 13.4488L16.3907 14.7704C18.562 16.6157 18.4789 16.0642 21.8495 16.4505C20.0056 16.5885 17.7587 16.8405 15.9491 16.7215C14.8278 16.4929 11.9192 16.4967 10.6317 16.4606C10.0346 21.8673 10.4414 32.1971 10.5035 37.9698L6.02948 38.2668L5.4641 38.2567L5.50348 10.9905L5.59166 5.53309Z" fill="#6A7582"/>
<path d="M10.9959 0.139014L108.077 0.204869C114.151 0.203603 142.329 -0.482188 145.909 0.66274C146.578 2.47322 146.411 3.50416 146.324 5.39253C137.11 5.46599 127.894 5.48627 118.679 5.45271C123.472 6.97442 127.375 4.25961 129.821 8.12565L129.889 9.31934C127.671 10.6796 122.151 10.2755 119.268 10.2464C119.418 8.4163 119.582 7.9952 118.951 6.33733C113.402 5.52803 98.5367 5.92446 92.253 5.94029L40.1208 6.09165C37.3295 6.13534 34.3726 6.04922 31.568 6.01503L31.7291 5.40582C26.4575 5.46915 16.831 5.85035 11.9363 5.19493C10.9566 3.80177 11.159 2.09071 10.9959 0.139014Z" fill="#02020A"/>
<path d="M31.7291 5.40582C59.0995 5.28741 91.4535 4.56361 118.679 5.45271C123.472 6.97442 127.375 4.25961 129.821 8.12565L129.889 9.31934C127.671 10.6796 122.151 10.2755 119.268 10.2464C119.418 8.4163 119.582 7.9952 118.951 6.33733C113.402 5.52803 98.5367 5.92446 92.253 5.94029L40.1208 6.09165C37.3295 6.13534 34.3726 6.04922 31.568 6.01503L31.7291 5.40582Z" fill="#778492"/>
<path d="M40.1208 6.09165L92.253 5.94029C98.5367 5.92446 113.402 5.52803 118.951 6.33733C119.582 7.9952 119.418 8.4163 119.268 10.2464C95.3279 11.4065 63.7239 10.4333 39.3542 10.4554L40.1208 6.09165Z" fill="#8E9DA9"/>
<path d="M31.568 6.01503C34.3726 6.04922 37.3295 6.13534 40.1208 6.09165L39.3542 10.4554C36.1162 10.5599 31.3427 11.0095 28.4296 9.99125C26.9074 8.43914 27.2583 9.23956 27.1834 6.95857C28.5444 5.74335 29.3293 6.13155 31.568 6.01503Z" fill="#828F9B"/>
<path d="M5.59166 5.53309C9.12155 5.99221 8.65642 5.37733 10.8081 7.43415L11.1692 9.0496C9.27446 11.6175 8.63487 11.2027 5.50348 10.9905L5.59166 5.53309Z" fill="#02020A"/>
<path d="M135.537 16.3909C137.806 16.6316 138.923 16.3314 140.402 17.5828C140.524 18.9354 140.621 19.9308 140.601 21.2873L140.599 21.6476L135.593 21.6381L135.537 16.3909Z" fill="#828F9B"/>
<path d="M5.50348 10.9905L5.4641 38.2567L5.47365 140.766L5.45458 146.352L5.48249 151.025L5.48503 151.527L4.87337 157.123C2.99453 156.93 2.5034 156.968 0.798422 156.244C-0.491574 153.254 0.231801 65.1486 0.23307 53.9728C0.248933 45.1623 0.216581 36.3518 0.135361 27.542C0.0966548 23.3599 -0.242181 15.4081 0.326356 11.7397C2.41776 10.5428 2.71916 10.9817 5.50348 10.9905Z" fill="#02020A"/>
<path d="M6.02948 38.2668L10.5035 37.9698C10.6755 44.9661 10.6888 51.9648 10.5435 58.9617L10.5955 113.795C10.5974 119.159 10.9407 135.621 10.2161 140.312C8.29793 141.049 7.47051 140.886 5.47365 140.766L5.4641 38.2567L6.02948 38.2668Z" fill="#828F9B"/>
<path d="M6.02948 38.2668L10.5035 37.9698C10.6755 44.9661 10.6888 51.9648 10.5435 58.9617C9.461 58.9364 8.50858 58.8072 7.43559 58.6906C4.8391 55.5756 5.8994 43.0004 6.02948 38.2668Z" fill="#8E9DA9"/>
<path d="M97.6599 53.8734L102.85 54.0419L103.156 54.1477L103.377 59.6107L108.272 59.6721L108.487 64.6084C107.102 64.7186 104.393 65.0238 103.13 64.8541L103.148 70.4768H97.656C97.5501 73.0225 97.9708 73.5956 96.67 75.3586C95.0824 75.3193 94.7328 75.3028 93.1845 75.5916C91.0957 78.913 93.5817 78.5781 91.51 81.0839C89.7834 81.0636 89.1153 81.0256 87.43 81.3201C84.4578 84.7093 88.6749 86.1613 83.4344 86.4786C82.803 86.5147 82.171 86.5413 81.539 86.5584L81.2516 86.0967C79.4197 86.2664 77.7198 86.4685 75.8765 86.4292L75.7756 81.17C75.7401 79.2183 75.5947 78.0651 76.3048 76.2065C78.1075 76.2673 78.5561 76.1324 80.3201 75.7082C82.6971 73.4544 79.4032 72.279 83.0022 69.9568C84.4502 70.1956 84.6038 70.2526 86.0378 70.0506C87.1939 68.3516 86.9223 66.9686 86.8443 64.9352C89.7098 64.7598 89.588 65.1803 91.7378 63.8301C92.7626 61.8151 92.2847 56.6908 92.3666 53.9095L97.6599 53.8734Z" fill="#030612"/>
<path d="M97.5132 70.0911L97.656 70.4768C97.5501 73.0225 97.9708 73.5956 96.67 75.3586C95.0824 75.3193 94.7328 75.3028 93.1845 75.5916C91.0957 78.913 93.5817 78.5781 91.51 81.0839C89.7834 81.0636 89.1153 81.0256 87.43 81.3201C84.4578 84.7093 88.6749 86.1613 83.4344 86.4786C82.803 86.5147 82.171 86.5413 81.539 86.5584L81.2516 86.0967C81.4426 83.2584 80.9812 83.2743 82.4451 81.3922L85.3075 81.3099C86.9446 79.6736 86.4204 79.7483 86.6133 76.7688C88.3272 74.2079 89.0759 76.8214 91.7549 74.9527L91.9256 71.0993C93.2371 70.0342 95.484 70.2514 97.5132 70.0911Z" fill="#222733"/>
<path d="M97.6599 53.8734L102.85 54.0419L103.156 54.1477L103.377 59.6107C101.505 59.7253 100.659 59.8564 98.7886 59.3948C97.4041 57.5463 97.835 56.63 97.6599 53.8734Z" fill="#141922"/>
<path d="M103.13 64.8541L103.148 70.4768H97.656L97.5132 70.0911C97.479 68.2737 97.5373 67.5721 97.8057 65.7724C99.5983 64.4489 100.49 64.9092 103.13 64.8541Z" fill="#272C37"/>
<path d="M48.8316 91.7454L50.1793 92.416C51.1781 91.7055 52.5157 91.6954 53.5246 92.3913C54.2295 92.8776 54.6838 93.6489 54.767 94.4994C54.8501 95.3505 54.5531 96.1947 53.9554 96.807L54.4497 97.6632L54.2175 102.693L54.2936 103.104C54.2225 104.438 54.1858 106.305 53.9884 107.576L53.0684 108.08L49.0543 108.468C48.8951 110.179 48.7053 111.744 48.7523 113.467C48.8246 116.172 49.2973 116.783 48.1387 118.767C46.1399 119.273 45.4292 119.241 43.4368 119.262L42.4736 119.286L37.9691 119.179L37.7946 118.823L33.858 119.048L32.6867 118.467C32.5426 116.899 32.6873 114.984 32.7514 113.384L32.719 113.065L32.5363 108.604L32.0382 108.049L32.6277 107.856C32.5623 106.137 32.6327 105.432 32.8554 103.722C34.5604 102.416 35.4272 102.815 37.9399 102.67L38.518 102.82C40.1481 102.806 40.9571 102.712 42.5713 102.468C43.7623 100.722 43.3575 100.276 43.4076 97.8468L42.8467 97.2016L43.4146 97.0286C43.3899 95.3853 43.4749 94.5874 43.6926 92.9555C45.3372 91.6206 46.3614 91.9727 48.8316 91.7454Z" fill="#4A3430"/>
<path d="M43.4076 97.8468L47.7072 97.8652C49.0302 99.2362 49.0848 101.045 48.3164 102.761C46.5073 103.018 45.9673 102.976 44.1374 102.834C42.1989 104.763 45.0257 110.763 38.8289 107.576C38.6639 105.893 38.5288 104.53 38.518 102.82C40.1481 102.806 40.9571 102.712 42.5713 102.468C43.7623 100.722 43.3575 100.276 43.4076 97.8468Z" fill="#5A4541"/>
<path d="M43.4108 113.624L48.7523 113.467C48.8246 116.172 49.2973 116.783 48.1387 118.767C46.1399 119.273 45.4292 119.241 43.4368 119.262L42.4736 119.286C43.1405 118.235 43.2147 115.151 43.4108 113.624Z" fill="#02020A"/>
<path d="M54.2175 102.693L54.2936 103.104C54.2225 104.438 54.1858 106.305 53.9884 107.576L53.0684 108.08L49.0543 108.468L48.7294 108.273C48.6266 106.259 48.6304 105.763 48.9794 103.781C50.7821 102.507 51.7054 102.87 54.2175 102.693Z" fill="#2C1F1D"/>
<path d="M43.051 113.447L43.4108 113.624C43.2147 115.151 43.1405 118.235 42.4736 119.286L37.9691 119.179L37.7946 118.823C37.8479 117.412 38.0148 116.147 38.1829 114.755C39.9767 113.183 40.1087 113.677 43.051 113.447Z" fill="#141922"/>
<path d="M48.7294 108.273L49.0543 108.468C48.8951 110.179 48.7053 111.744 48.7523 113.467L43.4108 113.624L43.051 113.447C43.2592 112.104 43.4603 110.76 43.6538 109.414C45.3271 107.971 46.0606 108.425 48.7294 108.273Z" fill="#141922"/>
<path d="M37.9399 102.67C37.9177 105.361 38.3505 105.677 37.1411 107.638C35.3035 108.197 34.49 108.023 32.6277 107.856C32.5623 106.137 32.6327 105.432 32.8554 103.722C34.5604 102.416 35.4272 102.815 37.9399 102.67Z" fill="#02020A"/>
<path d="M48.8316 91.7454C48.6647 94.317 49.0702 95.3018 47.7072 97.0109C45.8245 97.2965 45.3201 97.2243 43.4146 97.0286C43.3899 95.3853 43.4749 94.5874 43.6926 92.9555C45.3372 91.6206 46.3614 91.9727 48.8316 91.7454Z" fill="#02020A"/>
<path d="M53.5246 92.3913C54.2295 92.8776 54.6838 93.6489 54.767 94.4994C54.8501 95.3505 54.5531 96.1947 53.9554 96.807C53.1864 97.5954 52.0372 97.8829 50.9871 97.5492C49.9369 97.2155 49.1653 96.3187 48.994 95.2314C48.8233 94.1448 49.2821 93.055 50.1793 92.416C51.1781 91.7055 52.5157 91.6954 53.5246 92.3913Z" fill="#5A4541"/>
<path d="M32.5363 108.604C35.8663 108.653 35.6232 108.111 37.7997 109.767L38.3206 111.301C36.6759 114.129 35.9253 113.704 32.7514 113.384L32.719 113.065L32.5363 108.604Z" fill="#5A4541"/>
<path d="M75.8765 86.4292C77.7198 86.4685 79.4197 86.2664 81.2516 86.0967L81.539 86.5584C81.534 88.8001 81.8963 89.7842 80.9305 91.5459L80.3099 91.5586C78.546 91.601 77.7052 91.5313 76.11 92.3818C75.3955 96.5005 76.6513 95.7438 74.2572 97.5834C72.9621 97.5518 72.1144 97.5397 70.825 97.6404C69.9138 99.4452 70.1956 100.741 70.3155 102.782C67.3726 102.814 66.9093 102.284 65.1079 103.748C64.9359 105.117 64.7545 106.483 64.5628 107.849L59.8952 107.934L59.5247 107.838L59.5266 102.701C58.1478 102.791 55.5493 102.877 54.2936 103.104L54.2175 102.693L54.4497 97.6632L53.9554 96.807C54.5531 96.1947 54.8501 95.3505 54.767 94.4994C54.6838 93.6489 54.2295 92.8776 53.5246 92.3913L54.4611 90.9348C56.2156 92.3913 56.2372 91.9202 59.0431 92.0703L59.5513 92.1044L63.1225 91.9626C67.4328 89.2098 61.8483 86.9922 70.0617 86.1766L70.5877 86.1829L75.8765 86.4292Z" fill="#141922"/>
<path d="M70.0617 86.1766L70.5877 86.1829L70.212 91.6567L70.0686 91.9683C67.6016 91.9714 67.2437 91.5687 65.3884 92.7098C64.915 94.5336 64.9632 95.1409 64.9778 97.0368L64.5787 97.1699C62.073 97.268 61.5431 96.871 59.7169 98.1014C59.2302 99.9486 59.3883 100.843 59.5266 102.701C58.1478 102.791 55.5493 102.877 54.2936 103.104L54.2175 102.693L54.4497 97.6632L53.9554 96.807C54.5531 96.1947 54.8501 95.3505 54.767 94.4994C54.6838 93.6489 54.2295 92.8776 53.5246 92.3913L54.4611 90.9348C56.2156 92.3913 56.2372 91.9202 59.0431 92.0703L59.5513 92.1044L63.1225 91.9626C67.4328 89.2098 61.8483 86.9922 70.0617 86.1766Z" fill="#141922"/>
<path d="M54.4611 90.9348C56.2156 92.3913 56.2372 91.9202 59.0431 92.0703L59.5513 92.1044C59.4339 94.8604 59.8997 95.3068 58.5126 97.0825L54.4497 97.6632L53.9554 96.807C54.5531 96.1947 54.8501 95.3505 54.767 94.4994C54.6838 93.6489 54.2295 92.8776 53.5246 92.3913L54.4611 90.9348Z" fill="#4A3430"/>
<path d="M70.5877 86.1829L75.8765 86.4292C75.9349 88.4923 76.2737 90.0749 75.0833 91.62C73.3085 92.354 72.1397 91.9549 70.212 91.6567L70.5877 86.1829Z" fill="#02020A"/>
<path d="M64.5787 97.1699C64.8541 99.0392 65.3477 100.524 64.453 102.064C62.8509 103.074 61.4822 102.781 59.5266 102.701C59.3883 100.843 59.2302 99.9486 59.7169 98.1014C61.5431 96.871 62.073 97.268 64.5787 97.1699Z" fill="#02020A"/>
<path d="M64.9778 97.0368C64.9632 95.1409 64.915 94.5336 65.3884 92.7098C67.2437 91.5687 67.6016 91.9714 70.0686 91.9683C70.2546 94.8287 70.7336 94.9046 69.5267 96.971C67.6536 97.532 66.8636 97.3066 64.9778 97.0368Z" fill="#02020A"/>
<path d="M108.26 48.4825L113.674 48.7845C113.799 50.6862 113.941 52.3137 113.847 54.2306L118.76 54.0223L119.264 52.8602C122.149 55.6719 122.707 52.8437 124.678 55.5952C124.556 57.0587 124.512 58.4069 124.118 59.821L124.25 60.149L124.781 60.1313C124.741 63.6477 124.792 67.8583 124.624 71.3127C124.285 72.5558 123.984 73.809 123.721 75.0698C122.292 75.8817 121.036 75.7544 119.362 75.8253L119.267 70.6763C117.802 70.4819 116.333 70.3115 114.862 70.1646C113.328 68.3725 113.777 67.7785 113.496 64.9225L109.797 64.4678L108.487 64.6084L108.272 59.6721L103.377 59.6107L103.156 54.1477C104.763 54.1306 106.821 54.047 108.385 54.173C108.219 52.7209 108.167 50.362 108.09 48.8333L108.26 48.4825Z" fill="#2F3644"/>
<path d="M119.215 59.6513L124.118 59.821L124.25 60.149L124.781 60.1313C124.741 63.6477 124.792 67.8583 124.624 71.3127C124.285 72.5558 123.984 73.809 123.721 75.0698C122.292 75.8817 121.036 75.7544 119.362 75.8253L119.267 70.6763L120.019 70.5712C119.689 69.1869 119.328 61.5295 119.215 59.6513Z" fill="#778492"/>
<path d="M124.25 60.149L124.781 60.1313C124.741 63.6477 124.792 67.8583 124.624 71.3127C124.285 72.5558 123.984 73.809 123.721 75.0698C122.292 75.8817 121.036 75.7544 119.362 75.8253L119.267 70.6763L120.019 70.5712C121.665 70.549 122.174 70.7003 123.478 69.8378C124.762 67.3036 124.255 63.2602 124.25 60.149Z" fill="#4C545F"/>
<path d="M118.76 54.0223L119.264 52.8602C122.149 55.6719 122.707 52.8437 124.678 55.5952C124.556 57.0587 124.512 58.4069 124.118 59.821L119.215 59.6513L113.691 59.8641L113.847 54.2306L118.76 54.0223Z" fill="#02020A"/>
<path d="M118.76 54.0223C118.934 55.8967 119.086 57.7731 119.215 59.6513L113.691 59.8641L113.847 54.2306L118.76 54.0223Z" fill="#8E9DA9"/>
<path d="M113.691 59.8641L119.215 59.6513C119.328 61.5295 119.689 69.1869 120.019 70.5712L119.267 70.6763L119.06 66.8166C116.163 62.5098 113.906 67.8412 113.691 59.8641Z" fill="#5E616B"/>
<path d="M103.156 54.1477C104.763 54.1306 106.821 54.047 108.385 54.173L108.272 59.6721L103.377 59.6107L103.156 54.1477Z" fill="#272C37"/>
<path d="M113.674 48.7845L113.131 53.1369C111.67 54.4471 110.984 54.0628 108.621 54.2515C108.682 52.8818 108.755 51.5126 108.841 50.1442C110.331 48.6554 111.106 49.0619 113.674 48.7845Z" fill="#6A7582"/>
<path d="M70.3707 59.5936L75.9653 59.8697L76.0123 65.0111L76.7096 64.7382C77.959 64.1512 79.9464 64.3108 81.4026 64.307C83.862 64.958 84.2763 64.8477 86.7339 64.4469L86.8443 64.9352C86.9223 66.9686 87.1939 68.3516 86.0378 70.0506C84.6038 70.2526 84.4502 70.1956 83.0022 69.9568C79.4032 72.279 82.6971 73.4544 80.3201 75.7082C78.5561 76.1324 78.1075 76.2673 76.3048 76.2065C75.5947 78.0651 75.7401 79.2183 75.7756 81.17L75.8765 86.4292L70.5877 86.1829L70.0617 86.1766L70.3637 81.2485L65.1307 81.2421L65.0711 76.3838L64.4131 75.672L65.0178 75.4409C64.9708 73.6064 64.7519 72.4595 65.5882 70.844L67.5648 70.3191L70.2907 69.8473L70.3707 59.5936Z" fill="#4A3430"/>
<path d="M70.3707 59.5936L75.9653 59.8697L76.0123 65.0111L75.8708 70.2095C74.0839 70.2089 72.0883 69.993 70.2907 69.8473L70.3707 59.5936Z" fill="#02020A"/>
<path d="M76.7096 64.7382C79.737 64.9288 79.1944 64.4241 81.032 66.1232C81.5967 68.2541 81.6748 67.3529 80.5771 69.513C78.4914 70.7048 78.6544 70.2868 75.8708 70.2095L76.0123 65.0111L76.7096 64.7382Z" fill="#5A4541"/>
<path d="M65.0711 76.3838C67.9068 76.2401 67.9455 75.8025 70.1327 76.9316C70.8466 78.7332 70.6441 79.3563 70.3637 81.2485L65.1307 81.2421L65.0711 76.3838Z" fill="#5A4541"/>
<path d="M75.7756 81.17L75.8765 86.4292L70.5877 86.1829C70.6727 84.8302 70.7971 83.5282 70.9278 82.1794C72.5934 80.8344 73.2146 81.2745 75.7756 81.17Z" fill="#1B1818"/>
<path d="M67.5648 70.3191L69.5122 70.6098C70.799 72.4887 70.601 71.63 70.3028 73.8147C68.3383 75.9577 68.1124 75.7594 65.0178 75.4409C64.9708 73.6064 64.7519 72.4595 65.5882 70.844L67.5648 70.3191Z" fill="#02020A"/>
<path d="M70.9659 70.668C72.4157 70.6528 73.5738 70.7219 75.0211 70.8251C76.3092 72.559 75.8676 73.2024 75.9266 75.7487C74.4184 75.748 73.2426 75.6677 71.7394 75.5416C70.3948 73.811 70.9024 73.348 70.9659 70.668Z" fill="#5A4541"/>
<path d="M32.719 113.065L32.7514 113.384C32.6873 114.984 32.5426 116.899 32.6867 118.467L33.858 119.048L37.7946 118.823L37.9691 119.179L42.4736 119.286L43.4368 119.262L43.5676 124.057L43.7439 124.481C43.5015 127.465 44.0149 128.275 42.3696 129.875L38.3124 130.3L36.728 129.734L32.7355 129.387C28.7329 129.66 25.7747 129.635 21.7994 129.553C21.9587 126.584 21.5285 122.588 21.6091 119.121L16.3387 118.789C17.8863 118.651 20.2575 118.755 21.8743 118.776C21.833 117.032 21.8946 116.218 22.1084 114.484C23.7639 113.161 24.7747 113.496 27.2227 113.252L27.8852 113.627C30.106 113.635 30.6212 113.526 32.719 113.065Z" fill="#4A3430"/>
<path d="M37.9691 119.179L42.4736 119.286L43.4368 119.262L43.5676 124.057L43.7439 124.481C43.5015 127.465 44.0149 128.275 42.3696 129.875L38.3124 130.3L36.728 129.734L32.7355 129.387L32.6498 124.295L37.9748 124.124C37.8682 122.673 37.9539 120.68 37.9691 119.179Z" fill="#141922"/>
<path d="M37.9691 119.179L42.4736 119.286L43.4368 119.262L43.5676 124.057C41.2699 124.414 40.6297 124.516 38.2629 124.395L37.9748 124.124C37.8682 122.673 37.9539 120.68 37.9691 119.179Z" fill="#02020A"/>
<path d="M37.9748 124.124L38.2629 124.395C38.1544 126.423 38.6303 128.697 36.728 129.734L32.7355 129.387L32.6498 124.295L37.9748 124.124Z" fill="#02020A"/>
<path d="M21.6091 119.121L21.9339 119.551C22.0995 122.277 21.6097 122.621 23.1579 124.155L27.2532 124.413L32.6498 124.295L32.7355 129.387C28.7329 129.66 25.7747 129.635 21.7994 129.553C21.9587 126.584 21.5285 122.588 21.6091 119.121Z" fill="#2C1F1D"/>
<path d="M37.7946 118.823L37.9691 119.179C37.9539 120.68 37.8682 122.673 37.9748 124.124L32.6498 124.295C32.6353 122.736 32.7082 121.469 32.8154 119.914L33.858 119.048L37.7946 118.823Z" fill="#2C1F1D"/>
<path d="M32.719 113.065L32.7514 113.384C32.6873 114.984 32.5426 116.899 32.6867 118.467C30.884 119.118 30.4144 119.445 28.5578 119.108C27.2729 116.964 27.783 116.596 27.8852 113.627C30.106 113.635 30.6212 113.526 32.719 113.065Z" fill="#5A4541"/>
<path d="M27.2227 113.252C27.1066 115.846 27.4905 116.446 26.3122 118.392C24.531 119.001 23.7062 118.863 21.8743 118.776C21.833 117.032 21.8946 116.218 22.1084 114.484C23.7639 113.161 24.7747 113.496 27.2227 113.252Z" fill="#02020A"/>
<path d="M21.9339 119.551C24.3635 119.406 24.9727 118.944 26.776 120C27.3268 121.785 27.2525 122.598 27.2532 124.413L23.1579 124.155C21.6097 122.621 22.0995 122.277 21.9339 119.551Z" fill="#695659"/>
<path d="M129.917 106.762C130.188 104.625 129.862 104.18 131.141 102.848C133.609 102.68 132.649 102.484 134.82 103.51C136.291 105.556 135.641 110.712 135.553 113.583C135.479 115.278 135.45 117.631 135.247 119.26L134.634 119.139C135.771 120.705 135.522 122.26 135.542 124.279C133.802 124.313 131.782 124.628 130.031 124.845L129.988 125.331C127.793 124.005 127.645 124.445 124.711 124.35L119.514 124.291C119.305 123.2 119.234 120.584 119.164 119.355C119.009 117.661 119.025 115.278 118.989 113.519L119.283 108.62C122.757 108.624 126.269 108.731 129.702 108.238L129.917 106.762Z" fill="#222733"/>
<path d="M129.917 106.762C130.188 104.625 129.862 104.18 131.141 102.848C133.609 102.68 132.649 102.484 134.82 103.51C136.291 105.556 135.641 110.712 135.553 113.583L130.221 113.593C127.105 113.538 122.117 112.901 119.889 114.471C119.066 116.153 119.412 117.286 119.628 119.176L119.164 119.355C119.009 117.661 119.025 115.278 118.989 113.519L119.283 108.62C122.757 108.624 126.269 108.731 129.702 108.238L129.917 106.762Z" fill="#030612"/>
<path d="M130.221 113.593L135.553 113.583C135.479 115.278 135.45 117.631 135.247 119.26L134.634 119.139L130.461 119.093L130.221 113.593Z" fill="#5E616B"/>
<path d="M119.628 119.176C122.372 119.123 122.655 118.642 124.488 119.915C124.877 121.771 124.797 122.494 124.711 124.35L119.514 124.291C119.305 123.2 119.234 120.584 119.164 119.355L119.628 119.176Z" fill="#02020A"/>
<path d="M130.461 119.093L134.634 119.139C135.771 120.705 135.522 122.26 135.542 124.279C133.802 124.313 131.782 124.628 130.031 124.845C130.343 123.195 130.375 120.821 130.461 119.093Z" fill="#141922"/>
<path d="M86.7421 32.444L92.661 32.6093L97.026 32.5301V33.088C97.2379 34.4882 97.5272 35.9586 97.5076 37.3632L97.5615 37.8653L98.8889 38.5683C98.2303 39.1027 97.8496 39.9063 97.854 40.7536C97.8585 41.6009 98.2481 42.4001 98.913 42.9269C99.5032 43.3943 100.257 43.6046 101.004 43.5108C101.752 43.4165 102.43 43.0264 102.885 42.4274L107.845 43.3196L108.253 43.6299L108.26 48.4825L108.09 48.8333L103.112 48.7916C103.057 50.0176 102.997 52.9527 102.85 54.0419L97.6599 53.8734L92.3666 53.9095L92.2378 49.0645L91.8343 48.777L91.7701 48.5117L91.774 44.6342C90.6413 43.0365 89.4287 43.4082 86.81 42.7851L86.718 37.9154C86.6818 36.1309 86.7853 35.402 86.0854 33.7156C84.548 33.3768 83.2193 33.1691 81.6704 32.9398L86.7421 32.444Z" fill="#444853"/>
<path d="M91.7314 38.0173C93.5068 37.9863 95.8451 38.0085 97.5615 37.8653L98.8889 38.5683C98.2303 39.1027 97.8496 39.9063 97.854 40.7536C97.8585 41.6009 98.2481 42.4001 98.913 42.9269C98.5431 43.3968 98.7316 45.1751 97.6148 47.0337C95.4111 48.677 94.9561 49.2044 92.9104 47.4801C92.3203 45.0465 92.286 46.0584 93.0709 43.6489L94.9644 43.1733L93.0373 42.7674C91.5411 41.0494 91.9954 40.7865 91.7314 38.0173Z" fill="#6A7582"/>
<path d="M91.7314 38.0173C93.5068 37.9863 95.8451 38.0085 97.5615 37.8653C97.5266 40.5871 98.0475 41.4946 96.6034 43.1233L94.9644 43.1733L93.0373 42.7674C91.5411 41.0494 91.9954 40.7865 91.7314 38.0173Z" fill="#373F4B"/>
<path d="M92.2378 49.0645C95.3038 49.0607 100.424 48.6921 103.112 48.7916C103.057 50.0176 102.997 52.9527 102.85 54.0419L97.6599 53.8734L92.3666 53.9095L92.2378 49.0645Z" fill="#2F3644"/>
<path d="M97.026 32.5301V33.088C97.2379 34.4882 97.5272 35.9586 97.5076 37.3632L97.5615 37.8653C95.8451 38.0085 93.5068 37.9863 91.7314 38.0173C88.8012 37.928 88.5683 38.208 86.8437 35.9783L87.2352 34.4571C89.3253 32.5776 89.3608 33.1108 92.661 32.6093L97.026 32.5301Z" fill="#6A7582"/>
<path d="M97.026 33.088C97.2379 34.4882 97.5272 35.9586 97.5076 37.3632C94.4231 37.6342 93.6262 38.1357 91.687 35.6477L92.0126 34.3988C93.9751 32.7853 93.9447 33.2957 97.026 33.088Z" fill="#828F9B"/>
<path d="M70.9291 113.122C72.372 113.271 74.1182 113.503 75.5402 113.56L81.4616 113.703L81.513 114.075L81.5485 118.755L81.6755 119.139C81.6412 122.541 81.5377 126.16 81.6925 129.54L81.5333 129.894L81.5783 135.052L75.9304 135.09C75.9571 133.257 75.9139 132.496 75.6531 130.682C73.7831 129.458 73.4487 129.893 70.7996 129.858L70.3116 129.91C68.3922 129.166 67.1123 129.472 65.0539 129.667L65.1079 124.33L64.981 119.314L70.7298 119.278L70.7615 118.68L70.752 113.648L70.9291 113.122Z" fill="#5E616B"/>
<path d="M81.5333 129.894C79.8099 129.745 78.0853 129.61 76.3594 129.486C75.2483 125.191 74.787 124.032 76.4286 119.926C78.3835 118.258 78.2921 118.815 81.5485 118.755L81.6755 119.139C81.6412 122.541 81.5377 126.16 81.6925 129.54L81.5333 129.894Z" fill="#2F3644"/>
<path d="M70.7298 119.278L70.7368 124.451L65.1079 124.33L64.981 119.314L70.7298 119.278Z" fill="#828F9B"/>
<path d="M65.1079 124.33L70.7368 124.451C70.7482 125.974 70.6968 128.414 70.7996 129.858L70.3116 129.91C68.3922 129.166 67.1123 129.472 65.0539 129.667L65.1079 124.33Z" fill="#2F3644"/>
<path d="M70.3364 21.678L75.8841 21.7331C75.9939 24.6891 75.49 24.6835 77.0167 26.5066C79.8315 27.6395 82.8316 26.6921 86.0956 26.9828L85.9674 27.5604L86.6876 27.4368L86.7421 32.444L81.6704 32.9398C80.1551 32.6745 77.9241 32.5795 76.3314 32.4586L75.7629 32.6537L70.252 32.482L65.125 32.5111L64.9772 27.3355C61.7963 27.3881 57.1414 27.6933 54.201 26.8904L54.4066 26.3907L54.3571 21.4906L57.9967 21.735L64.448 21.6964L70.3364 21.678Z" fill="#545B69"/>
<path d="M85.9674 27.5604L86.6876 27.4368L86.7421 32.444L81.6704 32.9398C80.1551 32.6745 77.9241 32.5795 76.3314 32.4586C75.9076 30.6867 75.6277 30.1143 76.0453 28.3589C78.2096 27.1038 78.7185 27.5534 81.598 27.5173L85.9674 27.5604Z" fill="#5F6A7A"/>
<path d="M85.9674 27.5604L86.6876 27.4368L86.7421 32.444L81.6704 32.9398L81.598 27.5173L85.9674 27.5604Z" fill="#8E9DA9"/>
<path d="M57.9967 21.735L64.448 21.6964L64.5102 26.7207L58.1541 26.8537C56.946 26.8024 55.6166 26.5643 54.4066 26.3907L54.3571 21.4906L57.9967 21.735Z" fill="#778492"/>
<path d="M54.3571 21.4906L57.9967 21.735L58.1541 26.8537C56.946 26.8024 55.6166 26.5643 54.4066 26.3907L54.3571 21.4906Z" fill="#828F9B"/>
<path d="M64.448 21.6964L70.3364 21.678C70.2463 24.5289 70.7247 24.6873 69.3053 26.5497C67.3249 26.77 66.4886 26.7751 64.5102 26.7207L64.448 21.6964Z" fill="#5F6A7A"/>
<path d="M64.9772 27.3355C67.4753 27.3716 68.0788 26.967 69.9538 28.1296C70.431 29.9636 70.3396 30.5759 70.252 32.482L65.125 32.5111L64.9772 27.3355Z" fill="#272C37"/>
<path d="M21.7994 129.553C25.7747 129.635 28.7329 129.66 32.7355 129.387L36.728 129.734L38.3124 130.3C38.3904 132.687 38.8041 133.111 37.7483 134.92C35.9786 134.7 35.6416 134.642 33.8979 134.97C31.323 137.498 33.9119 136.922 32.1923 140.01C28.3883 140.588 26.2932 140.62 22.5114 140.659C21.0431 139.352 21.4929 138.311 21.1319 135.773C18.9517 134.438 19.5938 134.823 16.8418 134.696C15.8627 132.844 16.2403 132.213 16.2739 129.89L21.7994 129.553Z" fill="#272C37"/>
<path d="M21.7994 129.553C25.7747 129.635 28.7329 129.66 32.7355 129.387C32.7926 131.062 32.7323 131.859 32.5439 133.526C29.6555 136.821 26.2246 136.04 22.7753 134.456C21.2626 132.602 21.7905 132.587 21.7994 129.553Z" fill="#030612"/>
<path d="M91.8343 48.777L92.2378 49.0645L92.3666 53.9095C92.2847 56.6908 92.7626 61.8151 91.7378 63.8301C89.588 65.1803 89.7098 64.7598 86.8443 64.9352L86.7339 64.4469C84.2763 64.8477 83.862 64.958 81.4026 64.307C79.9464 64.3108 77.959 64.1512 76.7096 64.7382L76.0123 65.0111L75.9653 59.8697L70.3707 59.5936L75.7483 59.2568C75.8581 57.5831 75.9717 56.6522 76.2858 55.0051C78.0269 53.6443 78.9514 54.0843 81.5758 53.9703C84.6577 53.9298 88.0518 54.791 90.6889 53.7715C92.2956 51.9103 91.7556 51.8907 91.8343 48.777Z" fill="#141922"/>
<path d="M75.7483 59.2568C75.8581 57.5831 75.9717 56.6522 76.2858 55.0051C78.0269 53.6443 78.9514 54.0843 81.5758 53.9703C81.5619 56.5654 81.9616 56.9308 80.8563 58.9192C79.0079 59.6373 77.7356 59.3777 75.7483 59.2568Z" fill="#02020A"/>
<path d="M75.9653 59.8697C77.5548 59.838 80.3823 59.8717 81.8588 59.7285L81.4026 64.307C79.9464 64.3108 77.959 64.1512 76.7096 64.7382L76.0123 65.0111L75.9653 59.8697Z" fill="#2C1F1D"/>
<path d="M81.8588 59.7285C84.27 59.8102 84.9699 59.3815 86.482 60.6575C86.633 62.0691 86.744 63.0303 86.7339 64.4469C84.2763 64.8477 83.862 64.958 81.4026 64.307L81.8588 59.7285Z" fill="#4A3430"/>
<path d="M129.903 90.7784C130.285 86.8921 129.921 77.8251 131.118 75.7215C133.087 75.458 132.278 75.3339 134.192 76.3864C137.008 80.6083 135.62 91.8448 135.243 96.9945C132.849 98.7327 131.961 96.605 130.048 98.3205L129.858 102.319C128.366 102.171 126.873 102.041 125.378 101.931C123.557 100.45 123.993 100.297 123.19 97.5998C125.084 96.3485 124.584 94.0922 124.675 91.9398C126.278 91.9562 127.605 91.8942 129.207 91.7954L129.903 90.7784Z" fill="#02030D"/>
<path d="M98.0266 27.0081C98.1618 29.0193 98.3381 30.6842 98.1522 32.7049C99.7538 32.5776 101.758 32.482 103.306 32.2306L103.973 32.5073L113.496 32.5263L113.966 32.3933C114.113 36.0181 114.907 40.0393 112.802 42.7205C111.032 43.4601 110.133 43.4431 108.253 43.6299L107.845 43.3196L102.885 42.4274C102.43 43.0264 101.752 43.4165 101.004 43.5108C100.257 43.6046 99.5032 43.3943 98.913 42.9269C98.2481 42.4001 97.8585 41.6009 97.854 40.7536C97.8496 39.9063 98.2303 39.1027 98.8889 38.5683L97.5615 37.8653L97.5076 37.3632C97.5272 35.9586 97.2379 34.4882 97.026 33.088V32.5301C97.4225 31.5986 97.847 28.1929 98.0266 27.0081Z" fill="#2C1F1D"/>
<path d="M103.973 32.5073L113.496 32.5263L113.383 36.0257C111.257 39.0501 107.401 38.3897 104.536 36.9674C103.214 35.1265 103.683 35.4013 103.973 32.5073Z" fill="#5A4541"/>
<path d="M103.306 32.2306C103.098 35.3133 103.597 35.4115 101.928 37.3366C99.7639 38.0686 100.596 38.1268 98.755 37.3169C97.5647 35.0346 97.9352 35.5919 98.1522 32.7049C99.7538 32.5776 101.758 32.482 103.306 32.2306Z" fill="#02020A"/>
<path d="M98.8889 38.5683C99.4727 38.0958 100.221 37.8774 100.968 37.961C101.714 38.0452 102.396 38.4251 102.859 39.0153C103.643 40.0146 103.654 41.416 102.885 42.4274C102.43 43.0264 101.752 43.4165 101.004 43.5108C100.257 43.6046 99.5032 43.3943 98.913 42.9269C98.2481 42.4001 97.8585 41.6009 97.854 40.7536C97.8496 39.9063 98.2303 39.1027 98.8889 38.5683Z" fill="#828F9B"/>
<path d="M102.859 39.0153C105.671 38.8551 105.815 38.4062 107.976 39.5169C108.351 41.2558 108.237 41.5693 107.845 43.3196L102.885 42.4274C103.654 41.416 103.643 40.0146 102.859 39.0153Z" fill="#030612"/>
<path d="M70.7996 129.858C73.4487 129.893 73.7831 129.458 75.6531 130.682C75.9139 132.496 75.9571 133.257 75.9304 135.09L81.5783 135.052L81.5967 140.378L81.48 140.743L81.5625 145.926L70.6664 145.92C70.4056 144.916 70.3059 142.009 70.2342 140.832C70.351 137.035 70.4074 133.721 70.3116 129.91L70.7996 129.858Z" fill="#222733"/>
<path d="M70.2342 140.832C73.5985 140.73 78.2096 140.506 81.48 140.743L81.5625 145.926L70.6664 145.92C70.4056 144.916 70.3059 142.009 70.2342 140.832Z" fill="#02020A"/>
<path d="M70.7996 129.858C73.4487 129.893 73.7831 129.458 75.6531 130.682C75.9139 132.496 75.9571 133.257 75.9304 135.09L70.8802 135.167C71.0756 133.612 70.8802 131.47 70.7996 129.858Z" fill="#272C37"/>
<path d="M70.8802 135.167L75.9304 135.09C75.853 138.304 76.3752 137.959 74.7343 140.043C72.9868 140.728 73.7641 140.716 71.7844 139.905C70.4094 137.663 70.8358 138.154 70.8802 135.167Z" fill="#444853"/>
<path d="M113.966 32.3933C116.216 32.5288 117.559 32.2217 119.201 33.321C119.791 37.1111 119.75 48.8359 119.264 52.8602L118.76 54.0223L113.847 54.2306C113.941 52.3137 113.799 50.6862 113.674 48.7845L108.26 48.4825L108.253 43.6299C110.133 43.4431 111.032 43.4601 112.802 42.7205C114.907 40.0393 114.113 36.0181 113.966 32.3933Z" fill="#02020A"/>
<path d="M54.2936 103.104C55.5493 102.877 58.1478 102.791 59.5266 102.701L59.5247 107.838L59.8952 107.934C59.6389 109.736 59.4904 111.114 59.3502 112.93C57.0221 114.47 56.5608 112.388 54.3748 114.135C54.3894 115.624 54.3774 116.845 54.2854 118.331C51.1724 120.379 48.5238 116.935 48.7453 123.888C47.1577 124.92 45.7173 124.587 43.7439 124.481L43.5676 124.057L43.4368 119.262C45.4292 119.241 46.1399 119.273 48.1387 118.767C49.2973 116.783 48.8246 116.172 48.7523 113.467C48.7053 111.744 48.8951 110.179 49.0543 108.468L53.0684 108.08L53.9884 107.576C54.1858 106.305 54.2225 104.438 54.2936 103.104Z" fill="#222733"/>
<path d="M53.0684 108.08C54.3425 109.14 54.3069 109.296 54.7536 110.97C53.7733 113.004 54.3913 112.304 52.1648 113.502L48.7523 113.467C48.7053 111.744 48.8951 110.179 49.0543 108.468L53.0684 108.08Z" fill="#02020A"/>
<path d="M54.2936 103.104C55.5493 102.877 58.1478 102.791 59.5266 102.701L59.5247 107.838C57.5843 108.025 55.9218 107.77 53.9884 107.576C54.1858 106.305 54.2225 104.438 54.2936 103.104Z" fill="#02020A"/>
<path d="M60.274 81.3036L65.1307 81.2421L70.3637 81.2485L70.0617 86.1766C61.8483 86.9922 67.4328 89.2098 63.1225 91.9626L59.5513 92.1044L59.0431 92.0703C56.2372 91.9202 56.2156 92.3913 54.4611 90.9348L54.3431 87.3303L54.1362 86.497C54.1337 84.6365 54.0696 83.7841 54.5588 81.9344C56.5043 80.7052 56.8603 81.1441 59.5666 81.1143L60.274 81.3036Z" fill="#4A3430"/>
<path d="M54.1362 86.497C54.1337 84.6365 54.0696 83.7841 54.5588 81.9344C56.5043 80.7052 56.8603 81.1441 59.5666 81.1143C59.5367 83.8253 59.9758 84.1685 58.7416 86.1227C56.8876 86.6508 56.0138 86.5464 54.1362 86.497Z" fill="#02020A"/>
<path d="M60.274 81.3036L65.1307 81.2421C65.1517 84.587 65.5723 85.4527 62.5697 87.1385L61.1465 86.5508C59.8026 84.4192 60.2791 84.266 60.274 81.3036Z" fill="#5A4541"/>
<path d="M54.3431 87.3303C57.1325 87.1707 57.2537 86.6932 59.2099 87.9028C59.5488 89.8101 59.4384 90.1584 59.0431 92.0703C56.2372 91.9202 56.2156 92.3913 54.4611 90.9348L54.3431 87.3303Z" fill="#5A4541"/>
<path d="M54.3571 21.4906C54.3088 18.4358 53.7841 18.494 55.2854 16.5993C58.1814 15.4467 74.1639 15.9356 75.5795 16.4796C76.0941 18.632 75.9748 19.5807 75.8841 21.7331L70.3364 21.678L64.448 21.6964L57.9967 21.735L54.3571 21.4906Z" fill="#02030F"/>
<path d="M48.6577 32.5029C48.5619 28.8357 47.8138 22.7001 51.4211 20.6977C54.0049 22.153 53.9319 24.2655 54.201 26.8904C57.1414 27.6933 61.7963 27.3881 64.9772 27.3355L65.125 32.5111L48.6577 32.5029Z" fill="#0A0E1B"/>
<path d="M86.81 42.7851C89.4287 43.4082 90.6413 43.0365 91.774 44.6342L91.7701 48.5117L91.8343 48.777C91.7556 51.8907 92.2956 51.9103 90.6889 53.7715C88.0518 54.791 84.6577 53.9298 81.5758 53.9703L81.6278 43.1669L86.6825 43.172L86.81 42.7851Z" fill="#0A0E1B"/>
<path d="M86.81 42.7851C89.4287 43.4082 90.6413 43.0365 91.774 44.6342L91.7701 48.5117C90.0937 48.5585 89.3088 48.4894 87.6413 48.2861C86.3551 46.5554 86.7777 45.6993 86.6825 43.172L86.81 42.7851Z" fill="#2F3644"/>
<path d="M10.5035 37.9698C10.4414 32.1971 10.0346 21.8673 10.6317 16.4606C11.1818 22.1092 11.1996 28.3101 11.1971 33.9974C11.1786 69.9068 11.4889 105.866 10.8614 141.766C10.829 143.595 10.7814 144.729 11.1311 146.577L5.45458 146.352L5.47365 140.766C7.47051 140.886 8.29793 141.049 10.2161 140.312C10.9407 135.621 10.5974 119.159 10.5955 113.795L10.5435 58.9617C10.6888 51.9648 10.6755 44.9661 10.5035 37.9698Z" fill="#5E616B"/>
<path d="M65.0539 129.667C67.1123 129.472 68.3922 129.166 70.3116 129.91C70.4074 133.721 70.351 137.035 70.2342 140.832L64.9296 140.856C64.4657 135.735 64.8376 136.463 60.2817 134.551C58.9917 132.666 59.4523 132.395 59.4339 129.652C60.7747 129.695 63.8807 129.888 65.0539 129.667Z" fill="#02020A"/>
<path d="M65.0539 129.667C67.1123 129.472 68.3922 129.166 70.3116 129.91C67.2443 130.061 67.2698 129.548 65.3382 131.133C64.0939 134.347 65.6599 136.961 64.9296 140.856C64.4657 135.735 64.8376 136.463 60.2817 134.551C58.9917 132.666 59.4523 132.395 59.4339 129.652C60.7747 129.695 63.8807 129.888 65.0539 129.667Z" fill="#141922"/>
<path d="M64.5628 107.849C64.7545 106.483 64.9359 105.117 65.1079 103.748C66.9093 102.284 67.3726 102.814 70.3155 102.782L70.2958 107.962C70.3352 109.644 70.2501 112.129 70.752 113.648L70.7615 118.68C69.2133 118.722 67.8433 118.642 66.304 118.568C64.6009 116.84 65.1091 116.511 64.7678 113.481C64.092 111.691 64.4289 109.813 64.5628 107.849Z" fill="#02020A"/>
<path d="M64.5628 107.849C64.7545 106.483 64.9359 105.117 65.1079 103.748C66.9093 102.284 67.3726 102.814 70.3155 102.782L70.2958 107.962C67.8395 108.061 67.1828 107.668 65.4258 108.886C65.1161 110.528 64.9461 111.82 64.7678 113.481C64.092 111.691 64.4289 109.813 64.5628 107.849Z" fill="#2F3644"/>
<path d="M124.781 60.1313C127.346 59.6721 127.077 59.3074 129.095 60.2129C130.937 63.9023 131.237 72.0562 129.137 75.4358L126.977 75.8442L124.876 75.5321L124.624 71.3127C124.792 67.8583 124.741 63.6477 124.781 60.1313Z" fill="#02020A"/>
<path d="M76.3314 32.4586C77.9241 32.5795 80.1551 32.6745 81.6704 32.9398C83.2193 33.1691 84.548 33.3768 86.0854 33.7156C86.7853 35.402 86.6818 36.1309 86.718 37.9154L86.81 42.7851L86.6825 43.172L81.6278 43.1669C81.6399 41.5724 81.5523 40.7365 81.3442 39.1527C79.4958 37.6956 78.9489 38.2155 76.0097 38.1579L76.0383 33.1653L75.7629 32.6537L76.3314 32.4586Z" fill="#222733"/>
<path d="M76.3314 32.4586C77.9241 32.5795 80.1551 32.6745 81.6704 32.9398C83.2193 33.1691 84.548 33.3768 86.0854 33.7156C86.7853 35.402 86.6818 36.1309 86.718 37.9154C77.2033 38.7589 86.4826 33.4851 76.0383 33.1653L75.7629 32.6537L76.3314 32.4586Z" fill="#373F4B"/>
<path d="M70.252 32.482L75.7629 32.6537L76.0383 33.1653L76.0097 38.1579C72.9741 38.1687 68.797 38.9704 66.2462 37.8001C64.5908 35.7041 65.1485 35.8262 65.125 32.5111L70.252 32.482Z" fill="#02020A"/>
<path d="M59.4339 129.652C59.4669 126.556 58.7486 121.676 60.0995 119.58C62.2791 118.551 62.1764 118.982 64.981 119.314L65.1079 124.33L65.0539 129.667C63.8807 129.888 60.7747 129.695 59.4339 129.652Z" fill="#02020A"/>
<path d="M86.6876 27.4368C90.3418 26.777 94.2924 26.9701 98.0266 27.0081C97.847 28.1929 97.4225 31.5986 97.026 32.5301L92.661 32.6093L86.7421 32.444L86.6876 27.4368Z" fill="#02020A"/>
<path d="M103.306 32.2306C103.177 29.3227 102.712 29.581 104.069 27.6344C107.664 25.9297 110.418 25.6346 113.629 28.4918C114.018 30.1883 114 30.6455 113.966 32.3933L113.496 32.5263L103.973 32.5073L103.306 32.2306Z" fill="#030612"/>
<path d="M16.3387 118.789L21.6091 119.121C21.5285 122.588 21.9587 126.584 21.7994 129.553L16.2739 129.89L16.3387 118.789Z" fill="#02020A"/>
<path d="M75.8841 21.7331C78.8239 21.6444 84.0314 21.0814 86.3259 22.3803C87.0194 24.1268 86.9331 24.9488 86.0956 26.9828C82.8316 26.6921 79.8315 27.6395 77.0167 26.5066C75.49 24.6835 75.9939 24.6891 75.8841 21.7331Z" fill="#030612"/>
<path d="M124.824 81.1972L129.692 80.7242C129.649 83.6745 129.44 87.9762 129.903 90.7784L129.207 91.7954C127.605 91.8942 126.278 91.9562 124.675 91.9398L124.652 83.6011L124.824 81.1972Z" fill="#444853"/>
<path d="M64.4131 75.672L65.0711 76.3838L65.1307 81.2421L60.274 81.3036L59.5666 81.1143C59.4682 79.1265 59.4606 78.5356 59.767 76.575C61.5075 75.3636 61.9771 75.7594 64.4131 75.672Z" fill="#02020A"/>
<path d="M27.2227 113.252C27.0438 111.375 26.9213 110.716 27.3141 108.831C29.1917 107.555 29.2862 108.015 32.0382 108.049L32.5363 108.604L32.719 113.065C30.6212 113.526 30.106 113.635 27.8852 113.627L27.2227 113.252Z" fill="#02020A"/>
<path d="M135.553 113.583C138.73 113.629 138.654 113.131 140.912 114.614L141.536 116.196C140.463 118.406 141.11 117.688 139.15 119.011L135.247 119.26C135.45 117.631 135.479 115.278 135.553 113.583Z" fill="#02020A"/>
<path d="M54.1362 86.497L54.3431 87.3303L54.4611 90.9348L53.5246 92.3913C52.5157 91.6954 51.1781 91.7055 50.1793 92.416L48.8316 91.7454C48.7783 89.9362 48.7643 89.3725 49.0905 87.5994C50.8913 86.179 51.3361 86.6445 54.1362 86.497Z" fill="#02020A"/>
<path d="M37.9399 102.67C37.8003 100.614 37.7813 100.116 38.122 98.0913C39.9755 96.7545 40.0624 97.2206 42.8467 97.2016L43.4076 97.8468C43.3575 100.276 43.7623 100.722 42.5713 102.468C40.9571 102.712 40.1481 102.806 38.518 102.82L37.9399 102.67Z" fill="#02020A"/>
<path d="M135.593 21.6381L140.599 21.6476C141.479 24.2712 141.477 25.0273 139.875 27.0379C137.888 27.5895 138.723 27.6256 136.725 26.8194C135.119 24.6043 135.64 24.9063 135.593 21.6381Z" fill="#222733"/>
<path d="M17.3114 21.9636C18.4015 21.1423 19.9066 21.1486 20.9897 21.9782C22.0228 22.7704 22.4352 24.1319 22.0139 25.3623C21.5925 26.5927 20.4314 27.4172 19.128 27.4122C17.8253 27.4065 16.6711 26.5725 16.26 25.3389C15.8481 24.1047 16.2714 22.747 17.3114 21.9636Z" fill="#222733"/>
<path d="M76.0097 38.1579C78.9489 38.2155 79.4958 37.6956 81.3442 39.1527C81.5523 40.7365 81.6399 41.5724 81.6278 43.1669C79.5022 43.324 78.9863 43.362 76.86 43.0682C75.5135 41.1336 75.9945 41.0164 76.0097 38.1579Z" fill="#02020A"/>
<path d="M64.9296 140.856L70.2342 140.832C70.3059 142.009 70.4056 144.916 70.6664 145.92L70.3142 146.125C68.8345 146.007 67.5121 145.838 66.0463 145.643C64.6206 143.742 65.08 143.689 64.9296 140.856Z" fill="#141922"/>
<path d="M141.253 124.189C141.182 122.688 141.269 121.657 141.375 120.155C143.029 118.802 143.73 119.223 146.27 119.077L146.176 124.423L141.253 124.189Z" fill="#030612"/>
<path d="M124.876 75.5321L126.977 75.8442C130.495 76.8359 129.923 77.1292 129.692 80.7242L124.824 81.1972C124.73 79.5406 124.844 77.2412 124.876 75.5321Z" fill="#545B69"/>
<path d="M21.8495 16.4505L20.9897 21.9782C19.9066 21.1486 18.4015 21.1423 17.3114 21.9636L15.9491 16.7215C17.7587 16.8405 20.0056 16.5885 21.8495 16.4505Z" fill="#828F9B"/>
<path d="M16.9713 141.321C18.0747 140.107 19.9574 140.023 21.1649 141.132C22.373 142.243 22.4434 144.122 21.3222 145.319C20.2131 146.504 18.3539 146.573 17.1585 145.475C15.963 144.377 15.8799 142.522 16.9713 141.321Z" fill="#778492"/>
</svg>
