<svg width="168" height="173" viewBox="0 0 168 173" fill="none" xmlns="http://www.w3.org/2000/svg">
<path d="M76.0778 47.8766C76.0919 46.5447 76.0919 45.3424 75.9583 44.0336C75.8124 42.6144 77.7405 42.7389 78.767 42.5113C78.753 44.2805 78.7125 46.1454 78.7301 47.9075L76.0778 47.8766Z" fill="#1F345A"/>
<path d="M70.6958 27.5966C71.028 27.0556 70.9313 25.5781 71.0052 24.7414C71.0807 25.8041 71.1001 26.6081 71.0895 27.6725C71.8524 27.6859 72.8419 27.6741 73.5854 27.7481C73.5889 28.4933 73.6504 29.7114 73.4518 30.3869C72.7593 30.3224 71.7627 30.3239 71.0438 30.3027C71.0737 29.4447 71.137 28.6397 70.9841 27.7923L70.6958 27.5966Z" fill="#1F345A"/>
<path d="M132.202 49.8868L132.383 50.3629C132.351 50.9442 132.311 51.5425 132.305 52.1229L132.272 52.8995C130.585 52.8928 128.896 52.8723 127.208 52.8378L127.203 50.3399C128.639 50.3489 130.476 50.4447 131.884 50.2648C132.044 50.2444 132.088 50.0739 132.202 49.8868Z" fill="#1F345A"/>
<path d="M96.5774 103.615C97.2858 103.584 98.1101 103.466 98.7218 103.783C99.5338 104.801 98.7095 105.665 99.3985 106.049C100.407 106.136 100.95 106.021 101.597 106.654C101.791 107.4 101.694 108.139 101.748 108.92C100.177 108.8 97.9466 108.871 96.6302 108.732C96.5757 107.027 96.5563 105.321 96.5774 103.615Z" fill="#1F345A"/>
<path d="M70.9788 98.5226C75.7403 98.5808 80.5 98.5852 85.2615 98.5361C87.0508 98.5352 89.8385 98.7281 91.4556 98.6008L91.3888 101.22C86.6817 101.013 82.2489 101.053 77.5524 101.094C75.735 101.11 72.6363 101.256 70.9823 101.145L70.9788 98.5226Z" fill="#1F345A"/>
<path d="M122.093 63.1837C123.494 63.1977 124.927 63.1146 126.329 63.133C126.902 63.1408 126.837 63.1603 127.127 63.4892C127.061 65.0251 127.032 66.5625 127.045 68.0999C125.997 68.1125 124.192 68.0788 123.204 68.1709L122.39 68.0541C121.784 67.3818 122.072 64.2307 122.093 63.1837Z" fill="#1F345A"/>
<path d="M122.118 60.5457L127.106 60.5376C127.001 61.2358 127.097 62.2537 127.138 62.983L122.107 63.0058L122.118 60.5457Z" fill="#2A4A79"/>
<path d="M36.1929 15.7868C44.1885 14.3133 56.3937 15.4683 64.7831 15.526C80.9623 15.7085 97.1434 15.6479 113.323 15.3444C117.186 15.2828 128.02 14.0304 131.752 15.6041C132.404 15.8794 132.355 19.2536 132.367 20.2743C133.961 20.2954 135.717 20.4149 137.322 20.4911C137.533 21.9522 137.786 24.2382 138.25 25.5697C140.078 25.7404 140.844 25.6882 142.459 26.6028C142.556 27.7441 142.646 28.8296 142.691 29.9746C142.621 32.066 142.519 34.2499 142.496 36.3348C142.472 37.3189 142.352 39.8987 142.461 40.7518C142.393 42.6279 142.412 43.9038 142.509 45.7645L142.523 50.3461C142.519 51.7353 142.57 53.6363 142.489 54.9838L142.502 58.0189L142.51 60.559L142.517 63.101L142.521 68.1122C142.512 69.7281 142.321 71.7554 142.345 73.1827C142.338 76.5177 142.331 79.9958 142.498 83.3254L142.5 88.3877L142.535 93.4625C139.202 93.4878 135.647 93.5757 132.339 93.3976L132.314 93.5161C131.52 93.3737 128.198 93.4489 127.187 93.4656L127.061 93.5161C127.085 95.1579 127.287 96.9863 127.178 98.556L127.215 98.6478C127.14 99.9653 126.918 102.975 127.208 104.14C127.178 104.878 127.163 105.677 127.11 106.408C127.089 108.458 127.228 109.472 126.465 111.407C122.109 111.208 123.069 112.14 122.406 115.614C121.87 118.426 117.764 115.568 117.457 118.139C117.081 120.391 117.611 122.452 114.521 122.309C113.201 122.335 107.431 121.899 106.656 122.579C106.745 124.09 106.665 125.503 106.695 126.988L106.575 127.023L104.241 127.026C103.501 127.073 102.434 127.028 101.669 127.019L99.1506 127L96.6231 127.037C95.5738 127.237 92.3379 127.329 91.3554 127.025L91.2183 127.034C90.0249 127.023 87.42 127.082 86.3654 126.882C85.5498 126.91 84.8327 126.936 84.0154 127.019L77.563 127.149L76.635 126.98C75.7016 127.114 73.139 127.009 72.1635 126.958C70.1843 126.641 66.4335 126.912 64.4684 127.158C64.1661 127.168 63.681 127.115 63.3629 127.091C62.8127 126.991 61.6404 127.017 61.034 127.013C60.816 128.673 60.9355 132.337 60.9812 134.101C61.7599 134.152 62.5579 134.219 63.3365 134.219L63.4648 136.973C61.2326 137.44 58.6576 137.148 56.6082 137.553C56.4834 139.112 56.3849 140.927 56.1969 142.46C56.1934 144.05 56.1635 145.639 56.109 147.227C56.0686 148.883 56.0457 150.357 56.0949 152.019C55.4235 152.601 52.9997 152.543 52.0171 152.577C51.3563 154.757 51.1735 155.989 49.5547 157.643C45.9268 158.66 44.0444 158.047 40.4043 157.954C38.7784 158.019 36.9786 157.986 35.5056 157.26C35.6216 156.251 35.6234 154.059 35.6586 152.937C35.7763 149.323 35.8343 145.708 35.8343 142.092C33.516 142.29 32.4965 142.183 30.8074 143.801C30.9252 144.709 31.0746 146.625 30.2854 147.242C28.6156 147.739 23.7592 147.528 21.933 147.303C20.4407 145.613 20.3353 145.135 20.3335 142.977L20.4003 142.678C18.6163 142.544 16.8305 142.425 15.0429 142.32L15.1256 137.187L15.2275 137.151C15.1765 132.428 14.9832 132.667 10.4976 132.048L10.5046 121.905L10.3974 121.792C10.3113 120.275 10.3465 118.358 10.3289 116.81C10.3113 115.762 10.306 114.712 10.3148 113.663C10.7208 114.18 10.9212 115.256 11.2745 115.739C15.4279 121.418 15.5808 111.268 15.6353 109.409C15.7407 109.946 15.7548 111.208 15.7776 111.807C17.3929 112.116 18.7499 112.305 20.381 112.485L20.3897 76.783C20.3862 71.8523 20.1226 63.6869 20.4935 59.0807L20.4724 35.3405C22.216 35.4318 23.5711 35.3887 25.2936 35.1408C25.5485 33.9958 25.951 31.3225 25.7348 30.2193C24.7822 25.3526 26.2234 25.9342 30.4998 25.0887C30.8355 20.5456 29.9356 20.3356 35.0961 20.2643C35.5514 19.1961 35.9468 16.9825 36.1929 15.7868Z" fill="#2B3F64"/>
<path d="M25.4043 73.236C27.2235 73.1991 29.0445 73.1529 30.8637 73.0975C30.5385 76.7134 30.7705 81.1317 30.7107 84.8224C30.6896 86.0549 30.7019 90.553 30.8812 91.5423C30.9023 99.6995 31.2996 108.836 30.9111 116.852C35.8642 116.856 35.2156 117.01 35.6568 121.275C36.1226 121.411 36.9118 121.617 37.3881 121.632C41.7664 121.776 40.5361 123.456 41.3059 126.65C44.8828 127.376 49.5476 127.564 53.2176 127.387L54.8997 127.392L55.8436 127.341L56.0018 127.259C57.6417 127.188 59.2798 127.093 60.9162 126.975L61.034 127.013C60.816 128.673 60.9355 132.337 60.9812 134.101C61.7599 134.152 62.5579 134.219 63.3365 134.219L63.4648 136.973C61.2326 137.44 58.6576 137.148 56.6082 137.553C56.4834 139.112 56.3849 140.927 56.1969 142.46C56.1934 144.05 56.1635 145.639 56.109 147.227C56.0686 148.883 56.0457 150.357 56.0949 152.019C55.4235 152.601 52.9997 152.543 52.0171 152.577C51.3563 154.757 51.1735 155.989 49.5547 157.643C45.9268 158.66 44.0444 158.047 40.4043 157.954C38.7784 158.019 36.9786 157.986 35.5056 157.26C35.6216 156.251 35.6234 154.059 35.6586 152.937C35.7763 149.323 35.8343 145.708 35.8343 142.092C33.516 142.29 32.4965 142.183 30.8074 143.801C30.9252 144.709 31.0746 146.625 30.2854 147.242C28.6156 147.739 23.7592 147.528 21.933 147.303C20.4407 145.613 20.3353 145.135 20.3335 142.977L20.4003 142.678C18.6163 142.544 16.8305 142.425 15.0429 142.32L15.1256 137.187L15.2275 137.151C15.1765 132.428 14.9832 132.667 10.4976 132.048L10.5046 121.905C13.5366 121.785 17.5318 121.591 20.5075 121.88C22.1404 122.027 23.775 122.162 25.4096 122.286C26.0969 118.422 25.5116 109.246 25.4711 104.88L25.4043 73.236Z" fill="#152B57"/>
<path d="M10.5046 121.905C13.5366 121.785 17.5318 121.591 20.5075 121.88C22.1404 122.027 23.775 122.162 25.4096 122.286L25.5573 122.333C25.4764 125.611 25.2831 128.246 26.1496 131.44C27.8387 132.256 28.5734 132.33 30.4365 132.494L30.5455 132.551C30.5895 134.062 30.6176 135.461 30.5895 136.973C32.3436 137.138 34.0942 137.318 35.8537 137.4C35.808 138.963 35.8027 140.528 35.8343 142.092C33.516 142.29 32.4965 142.183 30.8074 143.801C30.9252 144.709 31.0746 146.625 30.2854 147.242C28.6156 147.739 23.7592 147.528 21.933 147.303C20.4407 145.613 20.3353 145.135 20.3335 142.977L20.4003 142.678C18.6163 142.544 16.8305 142.425 15.0429 142.32L15.1256 137.187L15.2275 137.151C15.1765 132.428 14.9832 132.667 10.4976 132.048L10.5046 121.905Z" fill="#2B3F64"/>
<path d="M10.5046 121.905C13.5366 121.785 17.5318 121.591 20.5075 121.88C20.4653 126.263 21.7836 133.983 19.4072 137.16C18.0151 137.254 16.6196 137.251 15.2275 137.151C15.1765 132.428 14.9832 132.667 10.4976 132.048L10.5046 121.905Z" fill="#51636C"/>
<path d="M30.5895 136.973C32.3436 137.138 34.0942 137.318 35.8537 137.4C35.808 138.963 35.8027 140.528 35.8343 142.092C33.516 142.29 32.4965 142.183 30.8074 143.801C29.7177 141.442 27.67 141.873 25.4395 142.11L25.4325 141.435C25.5045 137.721 27.1427 137.23 30.5895 136.973Z" fill="#1F345A"/>
<path d="M15.2275 137.151C16.6196 137.251 18.0151 137.254 19.4072 137.16C19.6902 137.206 20.1173 137.211 20.1806 137.407C20.6393 138.84 20.2034 141.156 20.4003 142.678C18.6163 142.544 16.8305 142.425 15.0429 142.32L15.1256 137.187L15.2275 137.151Z" fill="#1F345A"/>
<path d="M20.5356 137.32C24.4658 137.782 25.0546 137.306 25.4325 141.435L25.4395 142.11C23.8893 142.396 22.0859 142.314 20.4952 142.284L20.5356 137.32Z" fill="#51636C"/>
<path d="M25.5573 122.333C29.9286 121.916 30.4682 122.064 30.839 126.848C30.9814 128.685 30.6246 130.653 30.4365 132.494C28.5734 132.33 27.8387 132.256 26.1496 131.44C25.2831 128.246 25.4764 125.611 25.5573 122.333Z" fill="#0A182D"/>
<path d="M30.5455 132.551C31.7917 132.405 33.3367 132.418 34.5881 132.535C35.6128 134.345 35.5847 135.317 35.8537 137.4C34.0942 137.318 32.3436 137.138 30.5895 136.973C30.6176 135.461 30.5895 134.062 30.5455 132.551Z" fill="#0A182D"/>
<path d="M54.8997 127.392L55.8436 127.341C55.8629 128.603 56.1055 133.261 55.5325 133.965C54.8786 134.194 53.94 134.118 53.2246 134.107C53.2176 132.727 53.1051 128.922 53.295 127.738C53.6025 127.489 54.462 127.446 54.8997 127.392Z" fill="#0D1E3D"/>
<path d="M36.1929 15.7868C44.1885 14.3133 56.3937 15.4683 64.7831 15.526C80.9623 15.7085 97.1434 15.6479 113.323 15.3444C117.186 15.2828 128.02 14.0304 131.752 15.6041C132.404 15.8794 132.355 19.2536 132.367 20.2743C133.961 20.2954 135.717 20.4149 137.322 20.4911C137.533 21.9522 137.786 24.2382 138.25 25.5697C140.078 25.7404 140.844 25.6882 142.459 26.6028C142.556 27.7441 142.646 28.8296 142.691 29.9746C142.621 32.066 142.519 34.2499 142.496 36.3348C141.052 36.3292 140.327 36.2974 138.902 36.0902C137.93 35.2758 137.543 34.5578 136.868 33.4997L136.629 32.4892C135.35 31.964 133.532 31.489 132.465 30.9214C132.486 29.3364 132.437 27.55 132.047 26.0059L128.927 25.4227C127.233 23.8168 127.108 23.015 126.479 20.7527C123.006 20.0139 117.654 20.2964 113.92 20.308L97.806 20.3086L68.1138 20.2658C62.2749 20.2279 56.4605 19.9703 50.6005 20.1361C48.6987 20.1897 43.837 20.1334 42.1619 20.8591C41.3253 21.2218 40.6117 24.3119 40.1758 25.3724C38.3759 25.3696 37.7555 25.3135 36.0839 26.0937C36.0119 27.4735 35.9609 28.8543 35.931 30.2357C34.1312 30.459 32.5598 30.763 30.7863 31.1081C30.5403 32.7362 30.5034 34.1089 30.3417 35.7119C28.9531 35.7938 27.5786 36.0398 26.248 36.4449C26.1215 38.3211 26.0459 40.32 25.8438 42.1793C25.269 47.4405 25.5538 52.6826 25.4219 57.9522C25.4325 59.6646 25.4641 61.4311 25.4184 63.1386C25.4184 65.3203 25.5081 68.2226 25.4044 70.3437C25.3991 71.111 25.3534 72.5122 25.4043 73.236L25.4711 104.88C25.5116 109.246 26.0969 118.422 25.4096 122.286C23.775 122.162 22.1404 122.027 20.5075 121.88C17.5318 121.591 13.5366 121.785 10.5046 121.905L10.3974 121.792C10.3113 120.275 10.3465 118.358 10.3289 116.81C10.3113 115.762 10.306 114.712 10.3148 113.663C10.7208 114.18 10.9212 115.256 11.2745 115.739C15.4279 121.418 15.5808 111.268 15.6353 109.409C15.7407 109.946 15.7548 111.208 15.7776 111.807C17.3929 112.116 18.7499 112.305 20.381 112.485L20.3897 76.783C20.3862 71.8523 20.1226 63.6869 20.4935 59.0807L20.4724 35.3405C22.216 35.4318 23.5711 35.3887 25.2936 35.1408C25.5485 33.9958 25.951 31.3225 25.7348 30.2193C24.7822 25.3526 26.2234 25.9342 30.4998 25.0887C30.8355 20.5456 29.9356 20.3356 35.0961 20.2643C35.5514 19.1961 35.9468 16.9825 36.1929 15.7868Z" fill="#0A182D"/>
<path d="M20.381 112.485L20.3897 76.783C20.3862 71.8523 20.1226 63.6869 20.4935 59.0807C20.6991 67.2766 20.5321 76.1389 20.5286 84.3783L20.5075 121.88C17.5318 121.591 13.5366 121.785 10.5046 121.905L10.3974 121.792C10.3113 120.275 10.3465 118.358 10.3289 116.81C10.3113 115.762 10.306 114.712 10.3148 113.663C10.7208 114.18 10.9212 115.256 11.2745 115.739C15.4279 121.418 15.5808 111.268 15.6353 109.409C15.7407 109.946 15.7548 111.208 15.7776 111.807C17.3929 112.116 18.7499 112.305 20.381 112.485Z" fill="#2B3F64"/>
<path d="M132.465 30.9214C134.367 30.5993 136.229 29.9598 136.629 32.4892C135.35 31.964 133.532 31.489 132.465 30.9214Z" fill="#0D1E3D"/>
<path d="M40.1758 25.3724C40.6117 24.3119 41.3253 21.2218 42.1619 20.8591C43.837 20.1334 48.6987 20.1897 50.6005 20.1361C56.4605 19.9703 62.2749 20.2279 68.1138 20.2658L97.806 20.3086L113.92 20.308C117.654 20.2964 123.006 20.0139 126.479 20.7527C127.108 23.015 127.233 23.8168 128.927 25.4227L132.047 26.0059C132.437 27.55 132.486 29.3364 132.465 30.9214C133.532 31.489 135.35 31.964 136.629 32.4892L136.868 33.4997C137.543 34.5578 137.93 35.2758 138.902 36.0902C140.327 36.2974 141.052 36.3292 142.496 36.3348C142.472 37.3189 142.352 39.8987 142.461 40.7518C142.393 42.6279 142.412 43.9038 142.509 45.7645L142.523 50.3461C141.396 50.3641 133.077 50.5082 132.383 50.3629L132.202 49.8868C132.133 49.2763 132.114 48.5646 132.102 47.948C132.017 44.0009 131.657 40.1838 131.212 36.2603C125.517 35.6527 127.6 35.5247 126.925 31.2316C126.793 30.3931 123.176 30.3161 121.951 29.8542L121.874 29.8249C121.719 29.0425 121.626 27.8068 121.538 26.9824C118.9 24.4317 115.506 25.3038 112.048 25.1385C106.032 24.8507 99.9802 24.8247 93.9567 24.838C93.8636 27.3801 94.1782 41.2066 93.6579 42.3472C93.1394 42.4822 92.0883 42.7057 91.6366 42.4599C91.605 36.5088 91.7491 30.605 91.7842 24.6546C88.624 24.5755 84.2878 24.6518 81.168 24.8208C77.6368 24.9604 74.6699 24.5204 71.0052 24.7414C70.9313 25.5781 71.028 27.0556 70.6958 27.5966C69.1385 27.6513 67.5795 27.6449 66.0222 27.5773C66.0134 26.6588 66.0239 25.6433 65.9923 24.7325C63.4982 24.7121 52.4425 24.6733 50.7762 25.9745C50.1557 27.0896 50.2278 29.146 50.1891 30.4839C44.3344 30.5129 47.5825 32.8555 44.4644 35.8167C43.3431 35.8053 42.0424 35.8252 40.9368 35.7737C39.0491 35.7501 37.8275 35.7135 35.9767 36.0942C35.3316 40.3966 35.2736 43.6212 35.3193 47.9578C35.713 47.9596 37.5234 47.92 37.7414 48.0387C37.0172 48.0487 36.2808 48.067 35.5584 48.0672C35.5584 50.9074 35.4968 54.0608 35.648 56.8715C35.6832 59.6525 35.3404 61.0408 35.7025 63.9336L35.5338 64.1907C35.5109 63.8382 35.5197 63.5044 35.3808 63.1853C34.9467 64.0075 35.829 64.0428 34.7534 65.4371C33.465 65.6409 32.9342 65.6618 31.6282 65.6481C31.5843 66.4567 31.2345 70.6388 30.9726 71.2145L30.8637 73.0975C29.0445 73.1529 27.2235 73.1991 25.4043 73.236C25.3534 72.5122 25.3991 71.111 25.4044 70.3437C25.5081 68.2226 25.4184 65.3203 25.4184 63.1386C25.4641 61.4311 25.4325 59.6646 25.4219 57.9522C25.5538 52.6826 25.269 47.4405 25.8438 42.1793C26.0459 40.32 26.1215 38.3211 26.248 36.4449C27.5786 36.0398 28.9531 35.7938 30.3417 35.7119C30.5034 34.1089 30.5403 32.7362 30.7863 31.1081C32.5598 30.763 34.1312 30.459 35.931 30.2357C35.9609 28.8543 36.0119 27.4735 36.0839 26.0937C37.7555 25.3135 38.3759 25.3696 40.1758 25.3724Z" fill="#152B57"/>
<path d="M136.868 33.4997C137.543 34.5578 137.93 35.2758 138.902 36.0902C140.327 36.2974 141.052 36.3292 142.496 36.3348C142.472 37.3189 142.352 39.8987 142.461 40.7518C142.393 42.6279 142.412 43.9038 142.509 45.7645C142.162 45.6001 141.264 45.4161 140.835 45.2494C138.823 44.4704 138.167 43.6305 137.086 41.929C136.905 39.1431 136.902 36.2956 136.868 33.4997Z" fill="#0D1E3D"/>
<path d="M25.4219 57.9522L30.5226 57.9553C30.5525 59.5026 30.6474 61.5244 30.5578 63.0341L25.4184 63.1386C25.4641 61.4311 25.4325 59.6646 25.4219 57.9522Z" fill="#0D1E3D"/>
<path d="M25.4044 70.3437C26.4344 70.4896 30.368 70.6192 30.8056 70.8423L30.9726 71.2145L30.8637 73.0975C29.0445 73.1529 27.2235 73.1991 25.4043 73.236C25.3534 72.5122 25.3991 71.111 25.4044 70.3437Z" fill="#0D1E3D"/>
<path d="M30.6826 63.0977C31.9411 63.1262 34.0907 62.6693 34.908 63.5355C35.1559 64.0683 34.8905 64.8335 34.7534 65.4371C33.465 65.6409 32.9342 65.6618 31.6282 65.6481C31.2345 65.6317 31.2169 65.6254 30.8513 65.4784C30.5015 64.8632 30.6492 63.8436 30.6826 63.0977Z" fill="#0D1E3D"/>
<path d="M50.1891 30.4839C50.2278 29.146 50.1557 27.0896 50.7762 25.9745C52.4425 24.6733 63.4982 24.7121 65.9923 24.7325C66.0239 25.6433 66.0134 26.6588 66.0222 27.5773C67.5795 27.6449 69.1385 27.6513 70.6958 27.5966L70.9841 27.7923C71.137 28.6397 71.0737 29.4447 71.0438 30.3027C71.7627 30.3239 72.7593 30.3224 73.4518 30.3869C76.9021 31.5362 76.431 32.3775 76.8177 35.747C75.7526 35.7932 74.64 35.8247 73.5836 35.9089L72.8366 35.9731C72.2337 36.0661 71.7803 36.1377 71.1897 36.2904C70.9419 37.7565 71.1176 41.0048 71.0016 42.7943C69.3635 42.805 67.6392 42.8451 66.0099 42.8154L66.0485 47.8504C64.8726 47.769 62.3627 47.5689 61.236 47.7151C60.8371 48.1996 60.881 48.7496 60.9408 49.3863L60.9548 49.5208L61.1271 49.4539L61.2044 48.1281C61.8249 47.6428 64.8621 47.9005 65.8798 47.8912V52.8143L62.3733 52.842C63.5843 52.9702 64.8252 52.9708 66.0433 52.9938C66.0116 54.5491 66.0134 56.105 66.045 57.6603C64.2381 57.8961 63.013 57.9789 61.1798 57.8954C61.0269 58.8569 60.8845 59.5588 60.9355 60.5431L41.0827 60.5369C40.8964 57.5527 39.8242 55.1949 36.1472 56.1062C35.7956 56.1932 35.7623 56.5457 35.648 56.8715C35.4968 54.0608 35.5584 50.9074 35.5584 48.0672C36.2808 48.067 37.0172 48.0487 37.7414 48.0387C37.5234 47.92 35.713 47.9596 35.3193 47.9578C35.2736 43.6212 35.3316 40.3966 35.9767 36.0942C37.8275 35.7135 39.0491 35.7501 40.9368 35.7737C42.0424 35.8252 43.3431 35.8053 44.4644 35.8167C47.5825 32.8555 44.3344 30.5129 50.1891 30.4839Z" fill="#2B3F64"/>
<path d="M50.1891 30.4839C54.5358 30.583 57.4062 29.9008 61.6246 31.148C61.4962 33.262 61.5314 33.7241 60.6033 35.6147C55.9719 35.4626 56.0879 35.9126 56.0387 40.4274C54.6378 40.5678 51.9152 40.607 50.8624 41.611C50.1347 42.5501 51.7728 43.5962 50.9784 44.674C50.6462 45.1257 49.8517 45.8234 49.3227 45.8299C45.9163 45.8722 45.6369 45.7597 45.6087 49.9244C44.9953 50.6323 44.7914 50.882 44.0426 51.426C42.8562 51.0492 42.176 50.8069 41.0476 50.2901C40.5642 46.7069 40.283 39.3687 40.9368 35.7737C42.0424 35.8252 43.3431 35.8053 44.4644 35.8167C47.5825 32.8555 44.3344 30.5129 50.1891 30.4839Z" fill="#4679B1"/>
<path d="M71.0438 30.3027C71.7627 30.3239 72.7593 30.3224 73.4518 30.3869C76.9021 31.5362 76.431 32.3775 76.8177 35.747C75.7526 35.7932 74.64 35.8247 73.5836 35.9089L72.8366 35.9731C67.7271 35.9657 66.5143 36.4709 66.1487 30.8922C67.3633 30.617 69.8187 30.3472 71.0438 30.3027Z" fill="#4679B1"/>
<path d="M60.9917 52.9055L60.9706 55.4602L58.3658 55.4372C54.8188 55.3696 56.515 55.9986 55.9156 57.5574C55.0421 58.3275 47.4841 57.9553 45.7774 57.9273C45.693 57.0992 45.5911 56.263 45.4962 55.4351C44.0918 55.265 42.2093 55.402 40.761 55.4623C40.7399 54.6574 40.7558 53.7934 40.7558 52.9829C47.5017 53.0432 54.2476 53.0173 60.9917 52.9055Z" fill="#1F345A"/>
<path d="M70.9137 108.698C70.926 108.041 70.8856 106.798 71.3127 106.316C71.768 106.239 72.2197 106.211 72.6819 106.206C78.89 106.135 85.1121 106.315 91.3184 106.086C91.3677 106.879 91.5505 107.751 91.6928 108.54L96.6302 108.732L96.6635 111.195L99.1154 111.17L99.0785 122.039C98.3895 122.082 97.305 122.114 96.6565 122.246C97.7023 122.335 98.1048 122.302 99.1207 122.205C99.1084 123.681 99.0417 125.559 99.1506 127L96.6231 127.037C95.5738 127.237 92.3379 127.329 91.3554 127.025L91.2183 127.034C90.0249 127.023 87.42 127.082 86.3654 126.882C85.5498 126.91 84.8327 126.936 84.0154 127.019L77.563 127.149L76.635 126.98C75.7016 127.114 73.139 127.009 72.1635 126.958C70.1843 126.641 66.4335 126.912 64.4684 127.158C64.1661 127.168 63.681 127.115 63.3629 127.091C62.8127 126.991 61.6404 127.017 61.034 127.013L60.9162 126.975C61.0498 123.71 60.8845 119.657 60.9478 116.248C61.7018 116.393 62.5824 116.386 63.3593 116.406C63.3734 114.706 63.4103 113.006 63.4683 111.306L66.2331 111.339C66.0977 110.493 66.0608 109.696 66.0063 108.843C67.0258 108.696 69.7677 108.718 70.9137 108.698Z" fill="#1F345A"/>
<path d="M76.1797 113.81L86.3724 113.829C86.3794 114.727 86.3882 115.517 86.4603 116.418C88.0018 116.402 89.726 116.347 91.2499 116.424C91.4749 118.199 91.3958 120.415 91.4099 122.241C91.3976 123.597 91.4486 125.735 91.3554 127.025L91.2183 127.034C90.0249 127.023 87.42 127.082 86.3654 126.882C85.5498 126.91 84.8327 126.936 84.0154 127.019L77.563 127.149L76.635 126.98C75.9495 126.257 76.0989 123.221 76.0813 122.089C74.4361 122.066 72.7909 122.065 71.1475 122.086C71.0403 116.707 70.6835 116.486 76.236 116.283L76.1797 113.81Z" fill="#152B57"/>
<path d="M77.0832 121.834C78.4208 122.201 84.4443 122.295 85.8627 122.071L86.4093 122.12C86.4498 123.707 86.434 125.296 86.3654 126.882C85.5498 126.91 84.8327 126.936 84.0154 127.019L77.563 127.149L76.635 126.98C75.9495 126.257 76.0989 123.221 76.0813 122.089C76.345 122.044 76.8055 121.907 77.0832 121.834Z" fill="#2D5B9F"/>
<path d="M86.4093 122.12C88.1934 122.219 89.6083 122.265 91.4099 122.241C91.3976 123.597 91.4486 125.735 91.3554 127.025L91.2183 127.034C90.0249 127.023 87.42 127.082 86.3654 126.882C86.434 125.296 86.4498 123.707 86.4093 122.12Z" fill="#2B3F64"/>
<path d="M78.7353 119.086C80.6125 118.945 82.045 118.925 83.9205 118.966C83.9046 119.66 83.8976 120.377 83.8572 121.068C84.4249 121.348 85.3442 121.764 85.8627 122.071C84.4443 122.295 78.4208 122.201 77.0832 121.834C79.0553 121.136 78.7969 121.119 78.7353 119.086Z" fill="#2B3F64"/>
<path d="M76.1797 108.707C79.4612 108.672 83.2068 108.549 86.4497 108.72C86.3952 109.517 86.3021 110.475 86.3038 111.261C87.666 111.267 90.2463 111.204 91.5118 111.34C91.5223 112.974 91.5505 114.638 91.5417 116.268C93.1763 116.287 94.8953 116.285 96.5124 116.492C96.6881 118.367 96.653 120.355 96.6565 122.246C97.7023 122.335 98.1048 122.302 99.1207 122.205C99.1084 123.681 99.0417 125.559 99.1506 127L96.6231 127.037C95.5738 127.237 92.3379 127.329 91.3554 127.025C91.4486 125.735 91.3976 123.597 91.4099 122.241C91.3958 120.415 91.4749 118.199 91.2499 116.424C89.726 116.347 88.0018 116.402 86.4603 116.418C86.3882 115.517 86.3794 114.727 86.3724 113.829L76.1797 113.81L76.236 116.283C70.6835 116.486 71.0403 116.707 71.1475 122.086C70.5288 122.026 69.2088 122.033 68.5409 122.019C68.4706 120.165 68.518 118.191 68.5321 116.327L71.1739 116.29L71.1387 113.958L71.151 111.35L76.083 111.281L76.1797 108.707Z" fill="#2A4A79"/>
<path d="M71.1387 113.958L71.1739 116.29L68.5321 116.327C68.518 118.191 68.4706 120.165 68.5409 122.019C69.2088 122.033 70.5288 122.026 71.1475 122.086C72.7909 122.065 74.4361 122.066 76.0813 122.089C76.0989 123.221 75.9495 126.257 76.635 126.98C75.7016 127.114 73.139 127.009 72.1635 126.958C70.1843 126.641 66.4335 126.912 64.4684 127.158C64.1661 127.168 63.681 127.115 63.3629 127.091C63.3804 126.389 63.3628 125.594 63.3242 124.892C63.173 122.199 63.3874 121.877 65.9607 121.838C65.9976 119.992 66.0626 118.146 66.154 116.302C66.9327 116.297 67.7429 116.364 68.5216 116.414L68.6024 114.004L71.1387 113.958Z" fill="#2B3F64"/>
<path d="M132.662 60.566L142.51 60.559L142.517 63.101L142.521 68.1122C142.512 69.7281 142.321 71.7554 142.345 73.1827C142.338 76.5177 142.331 79.9958 142.498 83.3254L142.5 88.3877L142.535 93.4625C139.202 93.4878 135.647 93.5757 132.339 93.3976C132.047 92.0522 132.137 89.8552 132.193 88.4887L132.163 88.3857L132.212 86.7128C132.369 85.9652 132.326 84.2238 132.328 83.3857C131.184 83.3749 130.286 83.36 129.147 83.2504C128.618 83.322 127.799 83.3577 127.356 83.0495L127.409 81.4592C127.011 77.2908 126.892 72.45 127.229 68.2718C128.751 68.098 130.583 68.1445 132.137 68.1434C132.334 66.6245 132.464 65.0976 132.525 63.5673L132.676 63.1894L132.662 60.566Z" fill="#0D1E3D"/>
<path d="M127.409 81.4592L127.955 81.9739C129.755 81.4649 129.156 81.1903 131.365 81.2283C131.587 81.8243 131.92 82.6407 132.1 83.2302C135.782 83.6079 139.065 83.1698 142.498 83.3254L142.5 88.3877L142.535 93.4625C139.202 93.4878 135.647 93.5757 132.339 93.3976C132.047 92.0522 132.137 89.8552 132.193 88.4887L132.163 88.3857L132.212 86.7128C132.369 85.9652 132.326 84.2238 132.328 83.3857C131.184 83.3749 130.286 83.36 129.147 83.2504C128.618 83.322 127.799 83.3577 127.356 83.0495L127.409 81.4592Z" fill="#152B57"/>
<path d="M132.193 88.4887C135.638 88.2952 139.051 88.3378 142.5 88.3877L142.535 93.4625C139.202 93.4878 135.647 93.5757 132.339 93.3976C132.047 92.0522 132.137 89.8552 132.193 88.4887Z" fill="#0D1E3D"/>
<path d="M137.251 68.1161L142.521 68.1122C142.512 69.7281 142.321 71.7554 142.345 73.1827C140.983 73.1883 138.512 73.278 137.241 73.1814C135.517 73.0441 134 73.1366 132.286 73.2252C132.276 72.6469 132.453 71.3319 132.52 70.7044L137.248 70.6476L137.251 68.1161Z" fill="#152B57"/>
<path d="M132.662 60.566L142.51 60.559L142.517 63.101C141.041 63.049 133.596 62.8119 132.676 63.1894L132.662 60.566Z" fill="#152B57"/>
<path d="M132.286 73.2252C134 73.1366 135.517 73.0441 137.241 73.1814L137.237 78.2968L133.864 78.2813C131.822 76.7709 132.198 75.619 132.286 73.2252Z" fill="#2A4A79"/>
<path d="M127.11 106.408C127.089 108.458 127.228 109.472 126.465 111.407C122.109 111.208 123.069 112.14 122.406 115.614C121.87 118.426 117.764 115.568 117.457 118.139C117.081 120.391 117.611 122.452 114.521 122.309C113.201 122.335 107.431 121.899 106.656 122.579C106.745 124.09 106.665 125.503 106.695 126.988L106.575 127.023L104.241 127.026C103.501 127.073 102.434 127.028 101.669 127.019L99.1506 127C99.0417 125.559 99.1084 123.681 99.1207 122.205C100.137 122.07 100.632 122.104 101.636 122.151L101.945 122.143L103.135 122.115C104.666 121.399 105.09 121.193 106.731 121.147C106.793 119.953 106.833 118.757 106.849 117.561C108.839 116.077 114.177 117.419 116.286 116.839C117.877 116.401 117.103 113.842 117.617 112.591C118.22 111.8 120.548 111.574 121.665 111.345C122.529 109.573 122.587 108.761 122.707 106.855C123.962 106.809 125.818 106.55 127.11 106.408Z" fill="#2A4A79"/>
<path d="M99.1207 122.205C100.137 122.07 100.632 122.104 101.636 122.151C101.675 123.778 101.726 125.392 101.669 127.019L99.1506 127C99.0417 125.559 99.1084 123.681 99.1207 122.205Z" fill="#2D5B9F"/>
<path d="M103.135 122.115C104.666 121.399 105.09 121.193 106.731 121.147C106.663 121.504 106.638 121.885 106.403 122.146C105.712 122.002 103.921 122.095 103.135 122.115Z" fill="#2B3F64"/>
<path d="M81.168 24.8208C84.2878 24.6518 88.624 24.5755 91.7842 24.6546C91.7491 30.605 91.605 36.5088 91.6366 42.4599C92.0883 42.7057 93.1394 42.4822 93.6579 42.3472C92.8125 42.8985 92.3959 42.8185 91.4257 42.8749C91.5136 46.1744 91.4257 49.5073 91.3642 52.8098C89.6047 52.9311 88.1986 52.9765 86.441 52.9888C86.448 55.5101 86.513 58.6809 86.3513 61.1691C86.114 59.1299 86.4814 54.8071 86.1949 53.221L85.6588 53.1212L85.5586 52.926C86.1316 52.8515 86.0068 52.9519 86.3794 52.6282C86.6097 50.766 86.448 44.8389 86.4339 42.6655C87.724 42.8255 89.9967 42.7817 91.3642 42.7948C91.3536 39.7567 91.373 36.7188 91.4222 33.6812C91.489 30.7546 91.6718 27.7123 91.4327 24.8083C88.8806 24.8524 86.3285 24.8735 83.7763 24.8714C83.7306 30.6078 84.0716 37.0452 83.6305 42.7077L81.1029 42.7067C81.2189 41.5818 81.2506 40.4614 81.2154 39.3325C81.0625 34.4919 81.3543 29.6561 81.168 24.8208Z" fill="#1F345A"/>
<path d="M142.523 50.3461C142.519 51.7353 142.57 53.6363 142.489 54.9838L142.502 58.0189L142.51 60.559L132.662 60.566L132.61 59.4523C132.356 58.9885 132.45 58.4668 132.474 57.9128C132.476 56.1926 132.378 54.611 132.272 52.8995L132.305 52.1229C132.311 51.5425 132.351 50.9442 132.383 50.3629C133.077 50.5082 141.396 50.3641 142.523 50.3461Z" fill="#152B57"/>
<path d="M142.523 50.3461C142.519 51.7353 142.57 53.6363 142.489 54.9838C142.433 54.3043 142.423 53.8768 142.208 53.2301C140.823 52.2626 134.708 53.5564 132.748 52.8635C132.479 52.7686 132.436 52.4515 132.305 52.1229C132.311 51.5425 132.351 50.9442 132.383 50.3629C133.077 50.5082 141.396 50.3641 142.523 50.3461Z" fill="#0D1E3D"/>
<path d="M132.61 59.4523C132.624 59.0198 132.65 58.6848 132.694 58.2556C133.327 57.7814 141.266 57.9886 142.502 58.0189L142.51 60.559L132.662 60.566L132.61 59.4523Z" fill="#0D1E3D"/>
<path d="M127.127 63.4892L127.229 63.3354C127.714 63.035 131.209 63.2311 132.327 63.1156L132.525 63.5673C132.464 65.0976 132.334 66.6245 132.137 68.1434C130.583 68.1445 128.751 68.098 127.229 68.2718C126.892 72.45 127.011 77.2908 127.409 81.4592L127.356 83.0495C126.591 83.3109 124.424 83.1712 123.443 83.268C123.064 83.2672 122.649 83.0933 122.28 82.9693C122.078 81.5981 122.013 69.9401 122.169 68.4929C122.505 68.1805 122.675 68.2512 123.204 68.1709C124.192 68.0788 125.997 68.1125 127.045 68.0999C127.032 66.5625 127.061 65.0251 127.127 63.4892Z" fill="#2A4A79"/>
<path d="M81.3525 63.2097C82.1048 63.145 82.9626 63.0501 83.7078 63.0239L83.583 65.6586C82.9432 65.5844 82.2876 65.4327 81.7322 65.7289C80.892 66.4825 81.1469 68.1875 81.1522 69.2976C81.1188 70.0962 81.2453 69.9044 80.7971 70.4216C79.2064 71.0527 76.9883 70.2704 76.1253 71.0307C76.1165 72.0466 76.5998 71.6726 76.185 72.5382C75.1146 73.2784 72.4886 73.0558 71.0843 73.0446L70.963 78.2313C67.8555 78.2995 64.08 78.2167 61.0832 78.3778C61.0656 78.8233 61.0181 81.2062 60.8547 81.458L60.8406 81.7712C60.809 80.6877 60.7844 79.5924 60.7826 78.4845L40.9228 78.4856C40.9158 79.8243 40.9456 81.3998 40.8314 82.7125C40.7031 81.0696 40.6978 79.9838 40.7417 78.3314C47.4947 78.2442 54.281 78.3801 61.0023 78.2762L60.9162 73.1912L71.0439 73.104C71.0632 72.3267 71.0579 71.2951 71.1423 70.5433L76.0901 70.6651L76.1551 68.2808L78.6774 68.2515C78.7002 67.4692 78.7037 66.5294 78.7934 65.7643C79.6248 65.6823 80.3999 65.6169 81.2242 65.4553L81.3525 63.2097Z" fill="#1F345A"/>
<path d="M123.443 83.268C124.424 83.1712 126.591 83.3109 127.356 83.0495C127.799 83.3577 128.618 83.322 129.147 83.2504C130.286 83.36 131.184 83.3749 132.328 83.3857C132.326 84.2238 132.369 85.9652 132.212 86.7128L132.163 88.3857L132.193 88.4887C132.137 89.8552 132.047 92.0522 132.339 93.3976L132.314 93.5161C131.52 93.3737 128.198 93.4489 127.187 93.4656C127.025 91.8735 127.062 90.1336 127.061 88.5227C125.393 88.4921 123.723 88.4773 122.053 88.4784C122.092 87.3362 121.863 83.7276 122.28 82.9693C122.649 83.0933 123.064 83.2672 123.443 83.268Z" fill="#1F345A"/>
<path d="M123.443 83.268C124.424 83.1712 126.591 83.3109 127.356 83.0495C127.799 83.3577 128.618 83.322 129.147 83.2504C130.286 83.36 131.184 83.3749 132.328 83.3857C132.326 84.2238 132.369 85.9652 132.212 86.7128L132.163 88.3857C131.309 88.4381 128.804 88.3708 128.235 88.5042L127.245 88.1742L127.073 88.0429C126.915 86.6073 127.073 84.7847 127.256 83.3551C125.944 83.3586 124.749 83.3702 123.443 83.268Z" fill="#2A4A79"/>
<path d="M128.555 86.1956C129.697 86.1816 131.485 85.8658 132.212 86.7128L132.163 88.3857C131.309 88.4381 128.804 88.3708 128.235 88.5042L127.245 88.1742C127.994 87.7007 128.272 86.9844 128.555 86.1956Z" fill="#2D5B9F"/>
<path d="M58.4677 108.685L60.9953 108.661L60.983 113.783L58.5187 113.82L58.5064 116.364C57.6961 116.337 56.7364 116.459 55.9191 116.538C55.8945 118.043 55.652 126.505 56.0018 127.259L55.8436 127.341L54.8997 127.392L53.2176 127.387C53.2721 123.839 53.1737 120.076 53.2 116.479L55.7891 116.206C55.7732 114.868 55.3866 112.454 56.2812 111.493C56.798 111.162 57.5784 111.293 58.2182 111.331C58.35 110.435 58.4027 109.585 58.4677 108.685Z" fill="#1F345A"/>
<path d="M30.8637 73.0975C32.9395 73.3332 38.3987 73.1182 40.6556 73.0466C40.638 74.8977 40.6363 76.4754 40.7417 78.3314L30.8883 78.3461C30.9076 81.6787 31.1431 88.5433 30.8812 91.5423C30.7019 90.553 30.6896 86.0549 30.7107 84.8224C30.7705 81.1317 30.5385 76.7134 30.8637 73.0975Z" fill="#1F345A"/>
<path d="M35.648 56.8715C35.7623 56.5457 35.7956 56.1932 36.1472 56.1062C39.8242 55.1949 40.8964 57.5527 41.0827 60.5369L41.0774 63.0606C41.0106 63.9901 40.9456 65.4132 40.8138 66.2927C37.6764 66.299 37.1174 66.8073 35.7025 63.9336C35.3404 61.0408 35.6832 59.6525 35.648 56.8715Z" fill="#4679B1"/>
<path d="M41.0827 60.5369L60.9355 60.5431L60.9935 62.9881C54.6729 63.2462 47.4226 63.159 41.0774 63.0606L41.0827 60.5369Z" fill="#1F345A"/>
<path d="M72.8366 35.9731L73.5836 35.9089C73.6451 38.2115 73.6082 40.491 73.6487 42.7844L71.0174 42.895C71.0702 44.5595 71.1018 46.2246 71.1106 47.89C72.7663 47.8443 74.4221 47.8398 76.0778 47.8766C76.127 49.4129 76.2324 51.2445 76.2043 52.7597C75.7315 51.8407 75.8914 49.2431 75.8985 48.067C74.8861 48.057 72.3357 47.9716 71.4709 48.1483C71.2952 48.5504 71.3004 48.6073 71.2495 49.0497L71.0719 48.9511L71.035 48.1138C70.397 47.6273 67.0908 47.9135 66.0485 47.8914C66.0503 49.2465 66.1241 51.7198 66.0433 52.9938C64.8252 52.9708 63.5843 52.9702 62.3733 52.842L65.8798 52.8143V47.8912C64.8621 47.9005 61.8249 47.6428 61.2044 48.1281L61.1271 49.4539L60.9548 49.5208L60.9408 49.3863C60.881 48.7496 60.8371 48.1996 61.236 47.7151C62.3627 47.5689 64.8726 47.769 66.0485 47.8504L66.0099 42.8154C67.6392 42.8451 69.3635 42.805 71.0016 42.7943C71.1176 41.0048 70.9419 37.7565 71.1897 36.2904C71.7803 36.1377 72.2337 36.0661 72.8366 35.9731Z" fill="#1F345A"/>
<path d="M101.704 113.814C103.411 113.776 104.947 113.755 106.661 113.809C106.765 115.101 106.814 116.265 106.849 117.561C106.833 118.757 106.793 119.953 106.731 121.147C105.09 121.193 104.666 121.399 103.135 122.115L101.945 122.143C101.494 121.396 101.69 115.163 101.704 113.814Z" fill="#1F345A"/>
<path d="M66.0433 52.9938C67.7359 52.9811 69.4286 52.9839 71.1177 52.8844C71.1353 54.6755 71.1177 56.0952 71.0175 57.8955C69.3741 57.9417 67.7324 58.0022 66.0925 58.0773L66.0257 60.5364C64.486 60.5406 62.4365 60.6023 60.9355 60.5431C60.8845 59.5588 61.0269 58.8569 61.1798 57.8954C63.013 57.9789 64.2381 57.8961 66.045 57.6603C66.0134 56.105 66.0116 54.5491 66.0433 52.9938Z" fill="#1F345A"/>
<path d="M121.949 93.2535C121.933 91.7438 121.951 90.4673 122.032 88.961C122.187 90.2422 122.143 92.1142 122.148 93.451C123.608 93.471 125.681 93.3747 127.061 93.5161C127.085 95.1579 127.287 96.9863 127.178 98.556C125.674 98.4963 123.619 98.5583 122.076 98.5629L122.079 93.508C120.68 93.5319 119.849 93.5605 118.476 93.3587C119.525 93.2279 120.867 93.2585 121.949 93.2535Z" fill="#1F345A"/>
<path d="M132.474 57.9128C132.45 58.4668 132.356 58.9885 132.61 59.4523L132.662 60.566L132.676 63.1894L132.525 63.5673L132.327 63.1156C131.239 62.9385 128.477 62.979 127.259 62.9667C127.252 62.0735 127.268 61.4282 127.106 60.5376C127.087 59.8185 127.173 58.7047 127.208 57.9571C128.83 57.8893 130.825 57.9237 132.474 57.9128Z" fill="#1F345A"/>
<path d="M126.653 52.894L126.996 52.8866C127.312 53.3597 127.236 57.0431 127.249 57.9776C125.521 58.1237 123.841 58.0818 122.109 58.0646L122.106 60.549C121.262 60.5265 120.155 60.3482 119.575 61.0077C119.627 61.545 119.705 62.096 119.394 62.5421C118.676 63.5691 118.297 63.0885 117.409 63.286C117.074 63.7442 117.167 64.3525 117.175 64.9459H117.154L117.016 64.7829L117.096 63.836C116.815 63.4801 116.785 63.4613 116.662 63.0344C117.26 62.2082 117.156 59.1167 117.184 57.8907C118.664 57.9835 120.529 57.9287 122.039 57.9245L122.037 52.939C123.55 52.9627 125.136 52.916 126.653 52.894Z" fill="#1F345A"/>
<path d="M109.336 68.0898L111.795 68.0742C111.771 69.8399 111.927 82.7772 111.572 83.321L108.909 83.3009C109.148 77.9391 108.66 73.6516 109.336 68.0898Z" fill="#1F345A"/>
<path d="M117.418 68.1948L119.555 68.001C119.552 69.0734 119.589 83.1232 119.559 83.1789L119.005 83.2612C118.387 83.2925 117.738 83.2999 117.118 83.3169C117.14 78.5303 117.095 73.7225 116.987 68.9376C116.979 68.4931 117.126 68.432 117.418 68.1948Z" fill="#1F345A"/>
<path d="M66.0099 101.21C67.3457 101.115 69.6939 101.031 70.9823 101.145L70.9999 103.557C69.4637 103.659 67.7007 103.632 66.1452 103.644C66.1188 105.394 66.0802 107.145 66.031 108.895C64.261 108.758 62.7301 108.662 60.946 108.623C60.714 104.816 61.6491 107.108 63.3927 105.904C64.1081 104.365 61.8231 103.991 66.0573 103.486L66.0099 101.21Z" fill="#1F345A"/>
<path d="M111.736 83.3842L117.132 83.3745C117.079 85.0547 117.061 86.7357 117.074 88.4166C115.291 88.3827 113.504 88.47 111.721 88.5379L111.736 83.3842Z" fill="#1F345A"/>
<path d="M94.4876 101.057C95.3611 100.957 95.8568 100.791 96.5282 101.402C96.8253 102.041 96.6723 102.902 96.6143 103.626L94.2222 103.649C93.4593 103.636 92.7018 103.802 91.9776 103.596C91.3537 102.983 91.1937 102.025 91.7825 101.325C92.3221 101.026 93.73 101.095 94.4876 101.057Z" fill="#1F345A"/>
<path d="M25.4166 10.3776L98.4844 10.2287C109.728 10.0273 120.975 10.017 132.219 10.1977C134.689 10.2377 137.823 10.1724 140.254 10.3784C141.966 10.5233 141.987 12.9947 143.185 14.026C145.303 15.8467 149.835 15.3245 152.492 15.1756C152.494 14.0155 152.441 12.692 152.678 11.5743C152.682 11.1014 152.747 10.7033 152.812 10.2378C154.578 10.2422 156.044 10.1208 157.563 11.158C157.705 12.6008 157.818 13.5882 157.749 15.0279C165.198 15.1896 160.579 17.6216 164.578 20.1113L167.692 20.1002L167.772 76.8681C167.784 79.5158 167.471 92.0551 168 93.7961V163.143C167.107 166.705 168.717 167.323 163.998 167.432C161.474 167.491 163.24 171.103 162.193 172.447C160.064 173.274 126.683 172.928 122.053 172.929L43.7315 172.896C40.0457 172.894 35.3052 173.036 31.63 172.537C30.5174 172.386 30.8496 169.26 30.2168 167.975C28.9741 166.915 27.8686 167.905 26.3183 167.397C24.7171 166.071 27.2376 161.846 21.8802 162.733C20.2438 163.004 17.4245 162.754 15.7952 162.214C15.6071 161.114 15.5526 159.127 15.4876 157.947C13.8758 157.469 13.1675 157.586 11.5979 157.332C9.5713 157.004 10.6751 154.146 9.77869 152.842C9.31115 152.159 6.9225 151.902 5.92942 151.704C4.45123 148.942 5.17712 145.609 5.20876 142.522L5.36872 142.489C7.2336 141.953 13.0779 142.137 15.0429 142.32C16.8305 142.425 18.6163 142.544 20.4003 142.678L20.3335 142.977C20.3353 145.135 20.4407 145.613 21.933 147.303C23.7592 147.528 28.6156 147.739 30.2854 147.242C31.0746 146.625 30.9252 144.709 30.8074 143.801C32.4965 142.183 33.516 142.29 35.8343 142.092C35.8343 145.708 35.7763 149.323 35.6586 152.937C35.6234 154.059 35.6216 156.251 35.5056 157.26C36.9786 157.986 38.7784 158.019 40.4043 157.954C44.0444 158.047 45.9268 158.66 49.5547 157.643C51.1735 155.989 51.3563 154.757 52.0171 152.577C52.9997 152.543 55.4235 152.601 56.0949 152.019C56.0457 150.357 56.0686 148.883 56.109 147.227C56.1635 145.639 56.1934 144.05 56.1969 142.46C56.3849 140.927 56.4834 139.112 56.6082 137.553C58.6576 137.148 61.2326 137.44 63.4648 136.973L63.3365 134.219C62.5579 134.219 61.7599 134.152 60.9812 134.101C60.9355 132.337 60.816 128.673 61.034 127.013C61.6404 127.017 62.8127 126.991 63.3629 127.091C63.681 127.115 64.1661 127.168 64.4684 127.158C66.4335 126.912 70.1843 126.641 72.1635 126.958C73.139 127.009 75.7016 127.114 76.635 126.98L77.563 127.149L84.0154 127.019C84.8327 126.936 85.5498 126.91 86.3654 126.882C87.42 127.082 90.0249 127.023 91.2183 127.034L91.3554 127.025C92.3379 127.329 95.5738 127.237 96.6231 127.037L99.1506 127L101.669 127.019C102.434 127.028 103.501 127.073 104.241 127.026L106.575 127.023L106.695 126.988C106.665 125.503 106.745 124.09 106.656 122.579C107.431 121.899 113.201 122.335 114.521 122.309C117.611 122.452 117.081 120.391 117.457 118.139C117.764 115.568 121.87 118.426 122.406 115.614C123.069 112.14 122.109 111.208 126.465 111.407C127.228 109.472 127.089 108.458 127.11 106.408C127.163 105.677 127.178 104.878 127.208 104.14C126.918 102.975 127.14 99.9653 127.215 98.6478L127.178 98.556C127.287 96.9863 127.085 95.1579 127.061 93.5161L127.187 93.4656C128.198 93.4489 131.52 93.3737 132.314 93.5161L132.339 93.3976C135.647 93.5757 139.202 93.4878 142.535 93.4625L142.5 88.3877L142.498 83.3254C142.331 79.9958 142.338 76.5177 142.345 73.1827C142.321 71.7554 142.512 69.7281 142.521 68.1122L142.517 63.101L142.51 60.559L142.502 58.0189L142.489 54.9838C142.57 53.6363 142.519 51.7353 142.523 50.3461L142.509 45.7645C142.412 43.9038 142.393 42.6279 142.461 40.7518C142.352 39.8987 142.472 37.3189 142.496 36.3348C142.519 34.2499 142.621 32.066 142.691 29.9746C142.646 28.8296 142.556 27.7441 142.459 26.6028C140.844 25.6882 140.078 25.7404 138.25 25.5697C137.786 24.2382 137.533 21.9522 137.322 20.4911C135.717 20.4149 133.961 20.2954 132.367 20.2743C132.355 19.2536 132.404 15.8794 131.752 15.6041C128.02 14.0304 117.186 15.2828 113.323 15.3444C97.1434 15.6479 80.9623 15.7085 64.7831 15.526C56.3937 15.4683 44.1885 14.3133 36.1929 15.7868C35.9468 16.9825 35.5514 19.1961 35.0961 20.2643C29.9356 20.3356 30.8355 20.5456 30.4998 25.0887C26.2234 25.9342 24.7822 25.3526 25.7348 30.2193C25.951 31.3225 25.5485 33.9958 25.2936 35.1408C23.5711 35.3887 22.216 35.4318 20.4724 35.3405C20.3599 34.6125 20.3159 31.4441 20.2842 30.4739C20.1401 26.1137 19.6972 21.2889 20.3001 16.9846C20.7079 14.0716 22.8698 15.5576 24.7259 14.529C25.3498 14.1833 25.2954 11.4312 25.4166 10.3776Z" fill="#817F83"/>
<path d="M25.4166 10.3776L98.4844 10.2287C109.728 10.0273 120.975 10.017 132.219 10.1977C134.689 10.2377 137.823 10.1724 140.254 10.3784C141.966 10.5233 141.987 12.9947 143.185 14.026C145.303 15.8467 149.835 15.3245 152.492 15.1756C152.494 14.0155 152.441 12.692 152.678 11.5743L152.696 137.573L152.686 139.653C152.71 140.841 152.622 146.746 152.814 147.432L152.728 147.5C151.763 147.302 149.495 147.399 148.423 147.447C148.089 148.2 147.636 149.139 147.414 149.915L147.409 152.505C144.136 152.538 140.865 152.545 137.592 152.527C137.58 150.81 137.614 149.093 137.694 147.377L137.55 147.292C133.297 147.728 131.667 146.06 131.848 141.579C131.885 140.652 132.168 138.213 132.819 137.633C132.385 136.658 132.138 134.493 132.015 133.435C133.857 132.16 134.278 132.135 136.489 131.63C137.614 128.769 137.174 127.318 136.974 124.384C136.766 121.347 140.303 121.374 142.479 121.168L142.535 93.4625L142.5 88.3877L142.498 83.3254C142.331 79.9958 142.338 76.5177 142.345 73.1827C142.321 71.7554 142.512 69.7281 142.521 68.1122L142.517 63.101L142.51 60.559L142.502 58.0189L142.489 54.9838C142.57 53.6363 142.519 51.7353 142.523 50.3461L142.509 45.7645C142.412 43.9038 142.393 42.6279 142.461 40.7518C142.352 39.8987 142.472 37.3189 142.496 36.3348C142.519 34.2499 142.621 32.066 142.691 29.9746C142.646 28.8296 142.556 27.7441 142.459 26.6028C140.844 25.6882 140.078 25.7404 138.25 25.5697C137.786 24.2382 137.533 21.9522 137.322 20.4911C135.717 20.4149 133.961 20.2954 132.367 20.2743C132.355 19.2536 132.404 15.8794 131.752 15.6041C128.02 14.0304 117.186 15.2828 113.323 15.3444C97.1434 15.6479 80.9623 15.7085 64.7831 15.526C56.3937 15.4683 44.1885 14.3133 36.1929 15.7868C35.9468 16.9825 35.5514 19.1961 35.0961 20.2643C29.9356 20.3356 30.8355 20.5456 30.4998 25.0887C26.2234 25.9342 24.7822 25.3526 25.7348 30.2193C25.951 31.3225 25.5485 33.9958 25.2936 35.1408C23.5711 35.3887 22.216 35.4318 20.4724 35.3405C20.3599 34.6125 20.3159 31.4441 20.2842 30.4739C20.1401 26.1137 19.6972 21.2889 20.3001 16.9846C20.7079 14.0716 22.8698 15.5576 24.7259 14.529C25.3498 14.1833 25.2954 11.4312 25.4166 10.3776Z" fill="#2B3F64"/>
<path d="M142.461 40.7518C144.266 40.7652 146.005 40.514 147.291 41.8161C147.68 48.7332 147.411 55.6578 147.613 62.5507C148.2 82.4424 147.411 102.273 147.423 122.15C138.324 120.733 144.625 127.796 141.848 131.895C141.487 132.427 138.457 132.372 137.534 132.392C136.903 136.523 137.371 137.419 132.819 137.633C132.385 136.658 132.138 134.493 132.015 133.435C133.857 132.16 134.278 132.135 136.489 131.63C137.614 128.769 137.174 127.318 136.974 124.384C136.766 121.347 140.303 121.374 142.479 121.168L142.535 93.4625L142.5 88.3877L142.498 83.3254C142.331 79.9958 142.338 76.5177 142.345 73.1827C142.321 71.7554 142.512 69.7281 142.521 68.1122L142.517 63.101L142.51 60.559L142.502 58.0189L142.489 54.9838C142.57 53.6363 142.519 51.7353 142.523 50.3461L142.509 45.7645C142.412 43.9038 142.393 42.6279 142.461 40.7518Z" fill="#0A182D"/>
<path d="M152.696 137.573L152.686 139.653C152.71 140.841 152.622 146.746 152.814 147.432L152.728 147.5C151.763 147.302 149.495 147.399 148.423 147.447C148.089 148.2 147.636 149.139 147.414 149.915L147.409 152.505C144.136 152.538 140.865 152.545 137.592 152.527C137.58 150.81 137.614 149.093 137.694 147.377C139.225 147.38 140.863 147.35 142.386 147.387C142.665 146.841 142.667 143.993 142.69 143.2L142.755 143.173C144.792 142.328 145.226 142.355 147.458 142.285L147.574 142.322C147.685 141.148 147.479 139.325 148.198 138.347C148.62 137.774 151.8 137.837 152.696 137.573Z" fill="#0A182D"/>
<path d="M152.696 137.573L152.686 139.653C152.561 140.707 152.527 141.316 152.524 142.379C151.619 142.357 148.305 142.219 147.616 142.424C147.608 144.27 147.58 145.426 147.365 147.285C145.713 147.317 144.034 147.333 142.386 147.387C142.665 146.841 142.667 143.993 142.69 143.2L142.755 143.173C144.792 142.328 145.226 142.355 147.458 142.285L147.574 142.322C147.685 141.148 147.479 139.325 148.198 138.347C148.62 137.774 151.8 137.837 152.696 137.573Z" fill="#1F345A"/>
<path d="M142.691 29.9746C144.101 30.4128 145.409 30.6666 146.892 30.6914C147.015 33.226 147.641 39.5631 147.291 41.8161C146.005 40.514 144.266 40.7652 142.461 40.7518C142.352 39.8987 142.472 37.3189 142.496 36.3348C142.519 34.2499 142.621 32.066 142.691 29.9746Z" fill="#1F345A"/>
<path d="M143.219 137.446C144.648 137.281 145.857 137.344 147.274 137.515C147.381 139.184 147.449 140.604 147.458 142.285C145.226 142.355 144.792 142.328 142.755 143.173L142.69 143.2C142.667 143.993 142.665 146.841 142.386 147.387C140.863 147.35 139.225 147.38 137.694 147.377L137.55 147.292C136.635 142.439 138.549 143.221 141.844 142.357C142.292 141.339 142.876 138.702 143.219 137.446Z" fill="#51636C"/>
<path d="M132.339 93.3976C135.647 93.5757 139.202 93.4878 142.535 93.4625L142.479 121.168C140.303 121.374 136.766 121.347 136.974 124.384C137.174 127.318 137.614 128.769 136.489 131.63C134.278 132.135 133.857 132.16 132.015 133.435C132.138 134.493 132.385 136.658 132.819 137.633C132.168 138.213 131.885 140.652 131.848 141.579C131.667 146.06 133.297 147.728 137.55 147.292L137.694 147.377C137.614 149.093 137.58 150.81 137.592 152.527L137.571 154.243C137.246 157.659 135.578 157.394 132.965 158.948C132.381 160.338 132.138 161.084 131.799 162.562L126.621 162.31C123.682 162.326 120.974 162.159 118.202 163.246L117.232 164.645C117.221 165.427 117.242 166.532 117.177 167.286C117.04 166.502 117.051 163.838 117.035 162.909C115.502 162.883 114.288 162.673 112.794 162.374C111.853 160.619 112.064 159.521 112.073 157.531L111.985 157.462C112.08 156.744 112.078 153.513 112.101 152.557C112.154 151.917 112.122 150.8 112.126 150.123L111.906 147.45C111.934 145.806 111.989 144.163 112.069 142.522C110.89 142.507 109.839 142.53 108.675 142.322C108.428 141.917 107.492 142.046 107.023 142.045C106.809 139.865 107.368 138.642 105.438 137.218L103.367 137.174C102.71 137.112 102.439 137.103 101.812 136.879C101.654 136.032 101.706 128.453 101.669 127.019C102.434 127.028 103.501 127.073 104.241 127.026L106.575 127.023L106.695 126.988C106.665 125.503 106.745 124.09 106.656 122.579C107.431 121.899 113.201 122.335 114.521 122.309C117.611 122.452 117.081 120.391 117.457 118.139C117.764 115.568 121.87 118.426 122.406 115.614C123.069 112.14 122.109 111.208 126.465 111.407C127.228 109.472 127.089 108.458 127.11 106.408C127.163 105.677 127.178 104.878 127.208 104.14C126.918 102.975 127.14 99.9653 127.215 98.6478L127.178 98.556C127.287 96.9863 127.085 95.1579 127.061 93.5161L127.187 93.4656C128.198 93.4489 131.52 93.3737 132.314 93.5161L132.339 93.3976Z" fill="#152B57"/>
<path d="M127.187 93.4656C128.198 93.4489 131.52 93.3737 132.314 93.5161C132.355 95.1822 132.42 96.8475 132.506 98.512C132.624 101.667 132.743 104.702 132.653 107.86C132.669 110.489 132.442 114.221 132.072 116.809C130.208 116.817 127.393 116.236 127.465 118.776C127.488 119.335 127.518 119.893 127.556 120.452C127.236 120.924 126.844 121.544 126.473 121.956C121.436 121.929 122.387 122.068 122.055 126.294C119.22 127.589 110.233 127.125 106.695 126.988C106.665 125.503 106.745 124.09 106.656 122.579C107.431 121.899 113.201 122.335 114.521 122.309C117.611 122.452 117.081 120.391 117.457 118.139C117.764 115.568 121.87 118.426 122.406 115.614C123.069 112.14 122.109 111.208 126.465 111.407C127.228 109.472 127.089 108.458 127.11 106.408C127.163 105.677 127.178 104.878 127.208 104.14C126.918 102.975 127.14 99.9653 127.215 98.6478L127.178 98.556C127.287 96.9863 127.085 95.1579 127.061 93.5161L127.187 93.4656Z" fill="#4679B1"/>
<path d="M127.187 93.4656C128.198 93.4489 131.52 93.3737 132.314 93.5161C132.355 95.1822 132.42 96.8475 132.506 98.512C131.639 98.5118 127.839 98.452 127.215 98.6478L127.178 98.556C127.287 96.9863 127.085 95.1579 127.061 93.5161L127.187 93.4656Z" fill="#2A4A79"/>
<path d="M127.215 98.6478C127.839 98.452 131.639 98.5118 132.506 98.512C132.624 101.667 132.743 104.702 132.653 107.86C132.471 106.277 131.518 101.168 129.114 101.879C127.917 102.233 127.7 103.146 127.208 104.14C126.918 102.975 127.14 99.9653 127.215 98.6478Z" fill="#2D5B9F"/>
<path d="M112.126 150.123C112.24 150.812 112.312 151.295 112.352 151.99C113.477 152.22 114.595 152.458 115.731 152.634C116.037 153.684 116.822 157.035 117.798 157.298C120.805 158.109 122.637 157.108 123.171 161.219C125.378 162.194 124.561 161.822 126.621 162.31C123.682 162.326 120.974 162.159 118.202 163.246L117.232 164.645C117.221 165.427 117.242 166.532 117.177 167.286C117.04 166.502 117.051 163.838 117.035 162.909C115.502 162.883 114.288 162.673 112.794 162.374C111.853 160.619 112.064 159.521 112.073 157.531L111.985 157.462C112.08 156.744 112.078 153.513 112.101 152.557C112.154 151.917 112.122 150.8 112.126 150.123Z" fill="#0D1E3D"/>
<path d="M112.073 157.531C113.643 157.178 115.464 157.727 116.82 158.519C116.878 159.775 117.045 161.718 117.035 162.909C115.502 162.883 114.288 162.673 112.794 162.374C111.853 160.619 112.064 159.521 112.073 157.531Z" fill="black"/>
<path d="M105.438 137.218C107.445 136.962 109.718 137.115 111.686 137.576C112.057 139.624 112.233 140.457 112.069 142.522C110.89 142.507 109.839 142.53 108.675 142.322C108.428 141.917 107.492 142.046 107.023 142.045C106.809 139.865 107.368 138.642 105.438 137.218Z" fill="#0D1E3D"/>
<path d="M104.241 127.026L106.575 127.023C106.881 127.921 106.67 132.934 106.633 134.1L104.325 134.233C104.169 131.834 104.139 129.428 104.241 127.026Z" fill="#0D1E3D"/>
<path d="M152.812 10.2378C154.578 10.2422 156.044 10.1208 157.563 11.158C157.705 12.6008 157.818 13.5882 157.749 15.0279L157.639 103.184C157.64 104.159 157.653 105.142 157.64 106.116C157.456 119.462 158.888 133.5 157.366 146.774C155.758 147.391 154.533 147.379 152.814 147.432C152.622 146.746 152.71 140.841 152.686 139.653L152.696 137.573L152.678 11.5743C152.682 11.1014 152.747 10.7033 152.812 10.2378Z" fill="black"/>
<path d="M86.3654 126.882C87.42 127.082 90.0249 127.023 91.2183 127.034L91.3554 127.025C92.3379 127.329 95.5738 127.237 96.6231 127.037L99.1506 127L101.669 127.019C101.706 128.453 101.654 136.032 101.812 136.879C102.439 137.103 102.71 137.112 103.367 137.174L105.438 137.218C107.368 138.642 106.809 139.865 107.023 142.045C107.492 142.046 108.428 141.917 108.675 142.322C106.796 142.457 103.529 142.393 101.564 142.392L88.9263 142.375C79.1027 142.368 68.8854 142.584 59.097 142.289C58.1531 142.353 57.1372 142.441 56.1969 142.46C56.3849 140.927 56.4834 139.112 56.6082 137.553C58.6576 137.148 61.2326 137.44 63.4648 136.973L63.3365 134.219C62.5579 134.219 61.7599 134.152 60.9812 134.101C60.9355 132.337 60.816 128.673 61.034 127.013C61.6404 127.017 62.8127 126.991 63.3629 127.091C63.681 127.115 64.1661 127.168 64.4684 127.158C66.4335 126.912 70.1843 126.641 72.1635 126.958C73.139 127.009 75.7016 127.114 76.635 126.98L77.563 127.149L84.0154 127.019C84.8327 126.936 85.5498 126.91 86.3654 126.882Z" fill="#0D1E3D"/>
<path d="M91.2183 127.034L91.3554 127.025C92.3379 127.329 95.5738 127.237 96.6231 127.037L99.1506 127C99.0417 128.968 99.286 135.613 98.9327 136.915C98.321 136.844 97.2998 136.861 96.653 136.851C96.6512 135.945 96.5897 135.091 96.5299 134.189C95.0201 134.227 93.5085 134.221 91.9987 134.17L91.677 134.307C91.4468 134.846 91.4995 136.058 91.489 136.703C89.9317 136.901 88.0123 136.857 86.4146 136.864L86.4269 134.053C87.6432 134.044 90.466 134.129 91.5153 133.94C91.4433 132.53 91.5646 128.179 91.2183 127.034Z" fill="#152B57"/>
<path d="M64.4684 127.158C66.4335 126.912 70.1843 126.641 72.1635 126.958C72.0281 126.982 71.4217 127.054 71.3953 127.148C70.8575 129.086 70.6571 132.899 72.58 134.03C73.7524 134.062 75.0355 134.07 76.1973 134.136L76.2957 137.169C74.8035 136.972 72.9104 137.012 71.3743 137.001C71.2002 135.979 71.195 135.1 71.1616 134.069L66.0644 134.073C66.0661 132.549 66.1751 128.738 65.9642 127.422C65.581 127.114 65.001 127.177 64.4684 127.158Z" fill="#152B57"/>
<path d="M77.563 127.149L84.0154 127.019L83.8835 128.964C83.1172 128.972 79.3523 129.151 78.7951 128.71C78.4805 128.461 78.8057 127.991 77.563 127.149Z" fill="#1F345A"/>
<path d="M59.097 142.289C68.8854 142.584 79.1027 142.368 88.9263 142.375L101.564 142.392C103.529 142.393 106.796 142.457 108.675 142.322C109.839 142.53 110.89 142.507 112.069 142.522C111.989 144.163 111.934 145.806 111.906 147.45L112.126 150.123C112.122 150.8 112.154 151.917 112.101 152.557C110.971 152.426 107.515 152.494 106.232 152.495L94.8092 152.507L56.1723 152.487L56.0949 152.019C56.0457 150.357 56.0686 148.883 56.109 147.227C56.1635 145.639 56.1934 144.05 56.1969 142.46C57.1372 142.441 58.1531 142.353 59.097 142.289Z" fill="#0A182D"/>
<path d="M59.097 142.289C68.8854 142.584 79.1027 142.368 88.9263 142.375L101.564 142.392C103.529 142.393 106.796 142.457 108.675 142.322C109.839 142.53 110.89 142.507 112.069 142.522C111.989 144.163 111.934 145.806 111.906 147.45C109.799 147.418 107.589 147.532 105.447 147.515C95.5421 147.407 85.636 147.359 75.7298 147.369C69.4145 147.377 62.3399 147.554 56.109 147.227C56.1635 145.639 56.1934 144.05 56.1969 142.46C57.1372 142.441 58.1531 142.353 59.097 142.289Z" fill="#2B3F64"/>
<path d="M56.0949 152.019L56.1723 152.487L94.8092 152.507L106.232 152.495C107.515 152.494 110.971 152.426 112.101 152.557C112.078 153.513 112.08 156.744 111.985 157.462C110.275 157.283 105.875 157.398 103.951 157.4L87.942 157.399C77.382 157.487 66.7411 157.295 56.1986 157.425C56.1951 158.579 56.2355 160.054 56.181 161.181C56.0316 159.825 56.0387 158.731 56.0404 157.362C54.4462 157.611 52.7606 157.904 51.1647 158.062C51.0135 159.324 50.7305 161.242 50.7024 162.46C47.7583 162.48 45.048 162.478 42.1092 162.354C40.5572 161.123 40.4412 159.791 40.4043 157.954C44.0444 158.047 45.9268 158.66 49.5547 157.643C51.1735 155.989 51.3563 154.757 52.0171 152.577C52.9997 152.543 55.4235 152.601 56.0949 152.019Z" fill="black"/>
<path d="M56.0949 152.019L56.1723 152.487L56.0967 157.279L77.1412 157.24C79.4824 157.24 85.8838 157.103 87.942 157.399C77.382 157.487 66.7411 157.295 56.1986 157.425C56.1951 158.579 56.2355 160.054 56.181 161.181C56.0316 159.825 56.0387 158.731 56.0404 157.362C54.4462 157.611 52.7606 157.904 51.1647 158.062C51.0135 159.324 50.7305 161.242 50.7024 162.46C47.7583 162.48 45.048 162.478 42.1092 162.354C40.5572 161.123 40.4412 159.791 40.4043 157.954C44.0444 158.047 45.9268 158.66 49.5547 157.643C51.1735 155.989 51.3563 154.757 52.0171 152.577C52.9997 152.543 55.4235 152.601 56.0949 152.019Z" fill="#0D1E3D"/>
<path d="M30.8074 143.801C32.4965 142.183 33.516 142.29 35.8343 142.092C35.8343 145.708 35.7763 149.323 35.6586 152.937C35.6234 154.059 35.6216 156.251 35.5056 157.26L35.3967 157.895C35.4353 158.731 35.5584 162.061 35.4178 162.794C35.003 162.877 34.7551 162.919 34.3333 162.951C28.7035 162.607 32.0519 159.945 30.3821 158.213C27.4257 155.149 20.4864 161.151 20.5181 154.133C20.4689 153.596 20.4565 153.453 20.2843 152.925L19.8625 152.772L20.163 152.659C20.6552 151.87 19.9328 145.361 20.3335 142.977C20.3353 145.135 20.4407 145.613 21.933 147.303C23.7592 147.528 28.6156 147.739 30.2854 147.242C31.0746 146.625 30.9252 144.709 30.8074 143.801Z" fill="#0C1728"/>
<path d="M20.5181 154.133C20.5462 153.72 20.5269 152.996 20.7606 152.71C23.1194 152.26 27.9706 152.63 30.6106 152.521C30.8074 157.272 30.4436 157.591 35.3967 157.895C35.4353 158.731 35.5584 162.061 35.4178 162.794C35.003 162.877 34.7551 162.919 34.3333 162.951C28.7035 162.607 32.0519 159.945 30.3821 158.213C27.4257 155.149 20.4864 161.151 20.5181 154.133Z" fill="black"/>
<path d="M35.3967 157.895L35.5056 157.26C36.9786 157.986 38.7784 158.019 40.4043 157.954C40.4412 159.791 40.5572 161.123 42.1092 162.354C45.048 162.478 47.7583 162.48 50.7024 162.46C50.7305 161.242 51.0135 159.324 51.1647 158.062C52.7606 157.904 54.4462 157.611 56.0404 157.362C56.0387 158.731 56.0316 159.825 56.181 161.181C56.181 161.977 56.3129 161.871 55.8875 162.304C54.4884 162.766 52.7202 162.541 51.119 162.687C51.0364 163.904 50.9502 166.12 50.713 167.239C46.3504 168.457 40.6099 167.765 36.0716 167.341C35.6867 165.767 35.6445 164.657 35.6252 163.032C35.3088 163.067 34.676 162.984 34.3333 162.951C34.7551 162.919 35.003 162.877 35.4178 162.794C35.5584 162.061 35.4353 158.731 35.3967 157.895Z" fill="black"/>
<path d="M35.3967 157.895L35.5056 157.26C36.9786 157.986 38.7784 158.019 40.4043 157.954C40.4412 159.791 40.5572 161.123 42.1092 162.354C41.1882 162.42 36.1841 162.74 35.6252 163.032C35.3088 163.067 34.676 162.984 34.3333 162.951C34.7551 162.919 35.003 162.877 35.4178 162.794C35.5584 162.061 35.4353 158.731 35.3967 157.895Z" fill="#0A182D"/>
<path d="M148.423 147.447C149.495 147.399 151.763 147.302 152.728 147.5C152.605 152.47 152.612 152.69 147.485 152.724C147.455 154.222 147.469 156.133 147.339 157.596C140.892 157.394 144.038 159.993 140.813 162.722C139.438 162.92 137.937 162.536 137.362 163.302L137.29 163.958C137.255 163.535 137.273 163.426 137.088 163.055C135.647 162.37 133.439 162.551 131.799 162.562C132.138 161.084 132.381 160.338 132.965 158.948C135.578 157.394 137.246 157.659 137.571 154.243L137.592 152.527C140.865 152.545 144.136 152.538 147.409 152.505L147.414 149.915C147.636 149.139 148.089 148.2 148.423 147.447Z" fill="black"/>
<path d="M137.571 154.243C137.631 157.145 137.663 159.811 137.368 162.701C138.248 162.695 140.002 162.639 140.813 162.722C139.438 162.92 137.937 162.536 137.362 163.302L137.29 163.958C137.255 163.535 137.273 163.426 137.088 163.055C135.647 162.37 133.439 162.551 131.799 162.562C132.138 161.084 132.381 160.338 132.965 158.948C135.578 157.394 137.246 157.659 137.571 154.243Z" fill="#0A182D"/>
<path d="M126.621 162.31L131.799 162.562C133.439 162.551 135.647 162.37 137.088 163.055C137.273 163.426 137.255 163.535 137.29 163.958L137.273 167.463C134.749 167.48 117.761 167.892 117.267 167.424C117.191 167.352 117.216 167.383 117.177 167.286C117.242 166.532 117.221 165.427 117.232 164.645L118.202 163.246C120.974 162.159 123.682 162.326 126.621 162.31Z" fill="black"/>
<path d="M5.36872 142.489C7.2336 141.953 13.0779 142.137 15.0429 142.32C16.8305 142.425 18.6163 142.544 20.4003 142.678L20.3335 142.977C19.9328 145.361 20.6552 151.87 20.163 152.659L19.8625 152.772C18.335 152.643 17.1609 152.619 15.8972 151.689C15.8444 150.668 15.6775 149.364 15.5755 148.325C15.5298 148.287 15.4841 148.249 15.4384 148.212C10.7525 144.377 6.01202 152.099 5.36872 142.489Z" fill="black"/>
<path d="M147.442 4.81611C148.316 4.81641 149.474 4.76739 150.3 4.96005C153.461 5.45236 152.679 7.44631 152.751 10.1511L152.812 10.2378C152.747 10.7033 152.682 11.1014 152.678 11.5743C152.441 12.692 152.494 14.0155 152.492 15.1756C149.835 15.3245 145.303 15.8467 143.185 14.026C141.987 12.9947 141.966 10.5233 140.254 10.3784C137.823 10.1724 134.689 10.2377 132.219 10.1977C120.975 10.017 109.728 10.0273 98.4844 10.2287L25.4166 10.3776C25.2954 11.4312 25.3498 14.1833 24.7259 14.529C22.8698 15.5576 20.7079 14.0716 20.3001 16.9846C19.6972 21.2889 20.1401 26.1137 20.2842 30.4739C20.3159 31.4441 20.3599 34.6125 20.4724 35.3405L20.4935 59.0807C20.1226 63.6869 20.3862 71.8523 20.3897 76.783L20.381 112.485C18.7499 112.305 17.3929 112.116 15.7776 111.807C15.7548 111.208 15.7407 109.946 15.6353 109.409C15.2679 99.6973 15.4859 90.8112 15.5878 81.0849L15.6107 55.1813L15.3822 24.7915C15.3628 21.1617 15.2152 15.9892 15.579 12.3952C15.8269 10.0635 20.1402 10.6419 20.569 9.10487C21.5779 5.49304 19.0293 5.84836 17.4931 5.19706L17.335 5.12904C18.0187 4.97665 19.5883 4.97196 20.3511 4.94776L107.282 5.00216L133.026 5.17255C137.406 5.17243 143.168 5.27539 147.442 4.81611Z" fill="#51636C"/>
<path d="M150.3 4.96005C153.461 5.45236 152.679 7.44631 152.751 10.1511C147.58 11.0484 147.456 9.43654 147.456 4.97769C148.404 4.98054 149.353 4.97474 150.3 4.96005Z" fill="black"/>
<path d="M20.3511 4.94776C20.3353 1.38435 20.6499 -0.114748 24.8085 0.00681556C31.5808 0.204739 38.3355 0.199588 45.1113 0.199605L102.269 0.200572C113.991 0.200238 125.737 0.0685117 137.457 0.158885C140.424 0.181759 143.922 0.118867 146.831 0.487708C147.323 2.11391 147.404 3.14045 147.442 4.81611C143.168 5.27539 137.406 5.17243 133.026 5.17255L107.282 5.00216L20.3511 4.94776Z" fill="black"/>
<path d="M15.2328 5.20396L17.335 5.12904L17.4931 5.19706C19.0293 5.84836 21.5779 5.49304 20.569 9.10487C20.1402 10.6419 15.8269 10.0635 15.579 12.3952C15.2152 15.9892 15.3628 21.1617 15.3822 24.7915L15.6107 55.1813L15.5878 81.0849C15.4859 90.8112 15.2679 99.6973 15.6353 109.409C15.5808 111.268 15.4279 121.418 11.2745 115.739C10.9212 115.256 10.7208 114.18 10.3148 113.663C9.7928 109.16 10.3078 103.08 10.3236 98.4749C10.35 90.7098 10.3412 82.945 10.3394 75.1801L10.35 33.9224C10.3517 26.063 10.016 18.2858 10.5468 10.4706C15.2539 10.1662 15.2996 10.0296 15.2328 5.20396Z" fill="black"/>
<path d="M10.3974 121.792L10.5046 121.905L10.4976 132.048C14.9832 132.667 15.1765 132.428 15.2275 137.151L15.1256 137.187L15.0429 142.32C13.0779 142.137 7.2336 141.953 5.36872 142.489L5.20876 142.522L3.39843 142.391L4.00658 142.216C5.46544 140.663 5.00669 137.774 5.36877 135.562L5.3969 135.398L5.41447 121.931C6.53762 121.934 9.50102 122.042 10.3974 121.792Z" fill="#152B57"/>
<path d="M3.39843 142.391L4.00658 142.216C5.46544 140.663 5.00669 137.774 5.36877 135.562L5.3969 135.398C5.39865 135.991 5.33186 136.794 5.59375 137.288C7.49906 137.714 12.9144 137.108 15.1256 137.187L15.0429 142.32C13.0779 142.137 7.2336 141.953 5.36872 142.489L5.20876 142.522L3.39843 142.391Z" fill="#0A182D"/>
<path d="M5.4619 116.958C7.0438 116.848 8.73644 116.843 10.3289 116.81C10.3465 118.358 10.3113 120.275 10.3974 121.792C9.50102 122.042 6.53762 121.934 5.41447 121.931L5.3969 135.398L5.36877 135.562C5.00669 137.774 5.46544 140.663 4.00658 142.216L3.39843 142.391L0.190672 142.307C0.174853 139.393 -0.4913 124.33 0.763671 122.816C1.93779 122.016 3.7271 122.072 5.1842 121.98L5.4619 116.958Z" fill="black"/>
</svg>
