<svg width="168" height="184" viewBox="0 0 168 184" fill="none" xmlns="http://www.w3.org/2000/svg">
<path d="M11.1842 0.143938L104.861 0.147729C112.169 0.147729 140.692 -0.342666 145.824 0.463509C146.725 2.22077 146.564 3.24779 146.592 5.22273C147.82 5.27335 150.503 5.30813 151.587 5.5448C151.871 7.44254 152.092 8.76949 152.12 10.7178L157.44 10.8425C157.717 13.2661 157.39 14.4077 158.764 15.9257C161.397 16.275 160.644 15.8067 162.096 17.3754L162.367 20.9899C165.34 23.4559 167.797 19.0795 167.916 25.3188C168.13 36.6249 167.819 48.3069 167.831 59.5901L167.874 147.112C167.871 151.822 168.338 174.963 167.492 177.697C165.699 178.089 165.177 178.07 163.334 178.038C161.536 180.411 163.679 181.253 161.691 183.474C138.295 184.581 106.449 183.594 82.5784 183.607L44.6687 183.619C38.1667 183.619 28.9759 183.885 22.6755 183.309C21.0664 180.348 23.254 179.589 20.9619 178.007C18.5911 178.038 18.1951 178.469 16.6152 177.292C16.5823 175.754 16.5683 174.868 16.3389 173.349C13.7451 171.335 14.0803 173.069 11.7185 171.802C11.1754 169.763 11.2318 169.256 11.2989 167.204L11.3509 162.469C10.3053 162.238 7.19307 161.926 5.98964 161.776C5.73996 160.089 5.52702 158.397 5.35021 156.701C3.45476 156.687 2.93638 156.75 1.08719 156.221C-0.367831 153.448 -0.17265 21.6987 0.570069 11.6651C2.15563 10.4755 3.29951 10.8875 5.66074 10.8286L5.73361 5.47264L9.57522 5.043C11.3281 3.52114 10.8065 3.16867 11.1842 0.143938Z" fill="#343C46"/>
<path d="M76.0124 75.4979L81.2913 75.4846C81.238 78.3195 81.7273 78.8789 80.3559 80.7601C78.1037 81.2094 77.783 80.8829 76.3635 82.3288C76.5536 85.1403 76.8229 86.7413 76.0403 89.4332L75.8299 86.2135C74.7887 86.3141 71.918 86.235 70.7063 86.235C70.6435 82.4554 70.596 79.4326 70.8805 75.6384L71.3451 75.4523L76.0124 75.4979Z" fill="#8A8FA3"/>
<path d="M76.0124 75.4979L81.2913 75.4846C81.238 78.3195 81.7273 78.8789 80.3559 80.7601C78.1037 81.2094 77.783 80.8829 76.3635 82.3288C76.5536 85.1403 76.8229 86.7413 76.0403 89.4332L75.8299 86.2135C76.0872 82.2099 76.1341 79.5072 76.0124 75.4979Z" fill="#6F6F7D"/>
<path d="M37.8087 97.0975L38.123 101.007L37.8461 102.624L32.9284 102.682L32.9778 97.3216L37.8087 97.0975Z" fill="#595D6A"/>
<path d="M152.12 10.7178L157.44 10.8425C157.717 13.2661 157.39 14.4077 158.764 15.9257C161.397 16.275 160.644 15.8067 162.096 17.3754L162.367 20.9899C165.34 23.4559 167.797 19.0795 167.916 25.3188C168.13 36.6249 167.819 48.3069 167.831 59.5901L167.874 147.112C167.871 151.822 168.338 174.963 167.492 177.697C165.699 178.089 165.177 178.07 163.334 178.038C161.536 180.411 163.679 181.253 161.691 183.474C138.295 184.581 106.449 183.594 82.5784 183.607L44.6687 183.619C38.1667 183.619 28.9759 183.885 22.6755 183.309C21.0664 180.348 23.254 179.589 20.9619 178.007C18.5911 178.038 18.1951 178.469 16.6152 177.292C16.5823 175.754 16.5683 174.868 16.3389 173.349C13.7451 171.335 14.0803 173.069 11.7185 171.802C11.1754 169.763 11.2318 169.256 11.2989 167.204L11.3509 162.469C10.3053 162.238 7.19307 161.926 5.98964 161.776C5.73996 160.089 5.52702 158.397 5.35021 156.701C5.35338 155.353 5.61512 152.801 5.72158 151.368C7.40284 151.363 9.41679 151.3 11.0645 151.39C11.0512 150.341 11.4548 146.885 11.5651 145.66L11.2755 140.022C11.4288 136.124 11.4979 133.143 11.337 129.223L30.2953 129.46C32.6306 129.529 35.7136 129.918 37.63 128.843C38.6306 126.725 38.2339 126.822 38.0115 124.145C38.0913 122.434 38.3232 120.515 38.488 118.79C40.2067 118.64 41.258 118.512 42.9469 118.168C44.104 116.446 43.7244 115.659 43.8087 113.287L44.2783 113.375L49.4944 113.375L54.5661 113.448C57.9584 113.512 58.7911 114.142 59.9844 110.869L60.6992 112.418C63.7024 113.193 64.0484 112.788 66.6948 113.122L70.1892 113.401C72.3641 113.358 74.1277 113.118 76.1062 113.939L76.5574 114.071L76.7323 113.514L81.4561 113.337C81.7279 112.195 81.6588 109.115 81.6684 107.794L86.9612 107.849L91.3098 107.853C94.6444 107.758 99.8516 107.089 102.464 108.497C103.678 110.551 103.257 110.601 103.272 113.351C103.291 116.026 102.797 116.713 104.171 118.429C105.247 118.517 106.378 118.645 107.451 118.612C110.421 119.169 111.934 118.785 113.366 120.613L113.927 124.073L117.47 124.46C119.591 123.567 119.231 121.105 119.498 118.953L119.842 123.494C122.664 124.071 122.809 123.58 124.143 125.347L124.24 128.781L124.681 128.77C126.74 130.098 126.424 129.698 129.143 129.864L129.848 129.219L130.548 129.423C133.187 129.474 138.327 129.423 140.76 129.735L146.067 129.687L146.51 129.319C148.166 125.445 147.076 112.733 146.525 108.246L146.281 102.571C147.108 91.4524 146.37 84.5689 146.381 73.8824L146.316 16.5477L150.181 16.2269C151.858 15.0139 151.501 14.5203 152.139 12.0606L152.12 10.7178Z" fill="#131821"/>
<path d="M152.12 10.7178L157.44 10.8425C157.717 13.2661 157.39 14.4077 158.764 15.9257C161.397 16.275 160.644 15.8067 162.096 17.3754L162.367 20.9899C165.34 23.4559 167.797 19.0795 167.916 25.3188C168.13 36.6249 167.819 48.3069 167.831 59.5901L167.874 147.112C167.871 151.822 168.338 174.963 167.492 177.697C165.699 178.089 165.177 178.07 163.334 178.038C161.536 180.411 163.679 181.253 161.691 183.474C138.295 184.581 106.449 183.594 82.5784 183.607L44.6687 183.619C38.1667 183.619 28.9759 183.885 22.6755 183.309C21.0664 180.348 23.254 179.589 20.9619 178.007C18.5911 178.038 18.1951 178.469 16.6152 177.292C16.5823 175.754 16.5683 174.868 16.3389 173.349C13.7451 171.335 14.0803 173.069 11.7185 171.802C11.1754 169.763 11.2318 169.256 11.2989 167.204L146.137 167.328L146.562 163.31C148.082 161.752 148.938 162.17 151.604 161.869C151.836 160.546 151.981 158.168 152.116 156.746V151.216C151.599 144.68 152.024 132.151 151.986 125.107C152.3 118.011 151.826 109.3 151.796 101.997L151.817 48.1797C151.795 36.6243 151.377 23.4357 152.139 12.0606L152.12 10.7178Z" fill="#9E9B9E"/>
<path d="M152.12 10.7178L157.44 10.8425C156.639 17.9595 157.249 39.3997 157.251 47.7949L157.283 124.372C157.3 129.65 157.697 152.484 156.822 156.113C154.846 156.75 154.125 156.702 152.116 156.746V151.216C151.599 144.68 152.024 132.151 151.986 125.107C152.3 118.011 151.826 109.3 151.796 101.997L151.817 48.1797C151.795 36.6243 151.377 23.4357 152.139 12.0606L152.12 10.7178Z" fill="#020205"/>
<path d="M91.3098 107.853C94.6444 107.758 99.8516 107.089 102.464 108.497C103.678 110.551 103.257 110.601 103.272 113.351C103.291 116.026 102.797 116.713 104.171 118.429C105.247 118.517 106.378 118.645 107.451 118.612C110.421 119.169 111.934 118.785 113.366 120.613L113.927 124.073L113.605 124.257C114.008 126.853 114.441 126.863 113.528 128.877C112.034 129.269 111.182 129.429 109.651 129.636C108.167 132.659 109.399 132.846 107.101 135.028C103.157 135.247 102.817 133.982 98.8947 135.097L98.6938 135.486L98.0912 136.646C95.3953 141.948 86.164 141.77 81.9383 139.404C81.5796 137.771 81.5473 136.976 81.4694 135.301C78.5555 133.652 58.5351 136.61 54.5952 134.196C54.4767 132.732 54.3728 131.934 54.0705 130.498C52.6485 129.456 52.215 129.636 50.3341 129.665C47.4627 132.31 50.6003 136.477 48.7378 139.813C46.8189 140.714 47.6738 140.542 45.3252 140.204C42.6636 137.994 44.3309 138.574 42.7567 135.746C39.7029 133.866 31.8923 134.863 28.1324 135.088C26.3346 136.772 27.7503 139.491 25.9347 139.933C23.1603 140.609 19.6818 140.032 16.773 140.058L16.3592 129.908C19.6304 129.925 27.1749 130.165 30.1071 129.88L30.2953 129.46C32.6306 129.529 35.7136 129.918 37.63 128.843C38.6306 126.725 38.2339 126.822 38.0115 124.145C38.0913 122.434 38.3232 120.515 38.488 118.79C40.2067 118.64 41.258 118.512 42.9469 118.168C44.104 116.446 43.7244 115.659 43.8087 113.287L44.2783 113.375L49.4944 113.375L54.5661 113.448C57.9584 113.512 58.7911 114.142 59.9844 110.869L60.6992 112.418C63.7024 113.193 64.0484 112.788 66.6948 113.122L70.1892 113.401C72.3641 113.358 74.1277 113.118 76.1062 113.939L76.5574 114.071L76.7323 113.514L81.4561 113.337C81.7279 112.195 81.6588 109.115 81.6684 107.794L86.9612 107.849L91.3098 107.853Z" fill="#252A33"/>
<path d="M91.3098 107.853C94.6444 107.758 99.8516 107.089 102.464 108.497C103.678 110.551 103.257 110.601 103.272 113.351L98.0151 113.388L92.5867 113.373C89.8313 113.438 89.4384 112.991 87.4948 114.278C87.4168 115.491 87.3427 116.327 87.1583 117.529C85.4605 118.857 83.3065 119.463 81.1639 119.214C79.6886 119.057 78.5752 118.539 77.2513 117.916C76.2653 116.59 76.494 115.799 76.5574 114.071L76.7323 113.514L81.4561 113.337C81.7279 112.195 81.6588 109.115 81.6684 107.794L86.9612 107.849L91.3098 107.853Z" fill="#040713"/>
<path d="M49.4944 113.375L54.5661 113.448C54.6181 116.097 54.1827 116.394 55.433 118.235C57.127 118.539 58.2771 118.673 59.9939 118.807C64.6378 119.908 74.0029 117.542 76.2006 121.493L75.4091 122.779C71.6594 124.674 57.6333 125.293 54.3316 122.972C54.3893 121.619 54.3563 120.952 54.2448 119.601C52.4856 118.188 52.4945 118.642 49.7555 118.488C47.8848 118.52 47.1484 118.483 45.2992 118.209C43.9 116.382 44.3721 116.181 44.2783 113.375L49.4944 113.375Z" fill="#020205"/>
<path d="M43.8087 113.287L44.2783 113.375C44.3721 116.181 43.9 116.382 45.2992 118.209C47.1484 118.483 47.8848 118.52 49.7555 118.488C49.7492 120.608 49.9811 122.036 48.8658 123.783C47.4868 123.612 46.6763 123.64 45.3189 123.939C42.4583 126.284 43.5432 125.576 42.4513 128.679C41.7441 130.689 32.026 129.932 30.1071 129.88L30.2953 129.46C32.6306 129.529 35.7136 129.918 37.63 128.843C38.6306 126.725 38.2339 126.822 38.0115 124.145C38.0913 122.434 38.3232 120.515 38.488 118.79C40.2067 118.64 41.258 118.512 42.9469 118.168C44.104 116.446 43.7244 115.659 43.8087 113.287Z" fill="#10111B"/>
<path d="M38.488 118.79C41.2244 119.111 42.2396 118.693 43.7688 120.303L43.8734 123.976C41.3657 123.847 40.6313 124.266 38.9918 122.941C38.7656 121.469 38.6021 120.275 38.488 118.79Z" fill="#020205"/>
<path d="M92.5861 118.589C92.7464 123.649 93.0607 123.2 88.2704 124.469C85.9694 125.078 87.0081 126.794 85.5556 128.692C83.0847 129.76 78.8502 129.462 76.0143 129.458C75.9421 126.685 75.5523 125.867 77.5302 124.087C81.5511 123.601 83.4833 125.989 87.0771 122.968C87.4212 121.562 87.425 121.455 87.3528 119.985L87.3325 119.631C89.4612 118.264 89.6627 118.712 92.5861 118.589Z" fill="#343C46"/>
<path d="M59.9844 110.869L60.6992 112.418C63.7024 113.193 64.0484 112.788 66.6948 113.122L65.4572 113.42L65.2823 118.573C63.7062 118.574 61.6099 118.731 59.9939 118.807C58.2771 118.673 57.127 118.539 55.433 118.235C54.1827 116.394 54.6181 116.097 54.5661 113.448C57.9584 113.512 58.7911 114.142 59.9844 110.869Z" fill="#48515C"/>
<path d="M59.9939 118.807C59.9768 116.967 59.8735 115.939 60.447 114.147C62.2886 113.043 63.0294 113.439 65.4572 113.42L65.2823 118.573C63.7062 118.574 61.6099 118.731 59.9939 118.807Z" fill="#9DA7B1"/>
<path d="M70.1892 113.401C72.3641 113.358 74.1277 113.118 76.1062 113.939C75.9078 116.864 76.4066 116.723 74.8261 118.481C73.1543 118.625 72.0086 118.716 70.3134 118.693L65.2823 118.573L65.4572 113.42L66.6948 113.122L70.1892 113.401Z" fill="#636876"/>
<path d="M66.6948 113.122L70.1892 113.401L70.3134 118.693L65.2823 118.573L65.4572 113.42L66.6948 113.122Z" fill="#767F8C"/>
<path d="M107.451 118.612C110.421 119.169 111.934 118.785 113.366 120.613L113.927 124.073L113.605 124.257C111.352 124.209 110.522 124.572 108.84 123.522C108.724 121.449 108.52 121.07 107.708 119.141L107.451 118.612Z" fill="#131821"/>
<path d="M92.5867 113.373L98.0151 113.388C97.7192 116.213 98.1761 116.736 96.6222 118.419C95.2312 118.509 93.9802 118.571 92.5861 118.589L92.5867 113.373Z" fill="#343C46"/>
<path d="M107.708 119.141C108.52 121.07 108.724 121.449 108.84 123.522L105.405 124.009C103.312 123.148 104.037 123.72 102.72 121.749L103.076 120.393C105.103 118.817 104.683 119.301 107.708 119.141Z" fill="#343C46"/>
<path d="M5.72158 151.368C7.40284 151.363 9.41679 151.3 11.0645 151.39C11.1842 153.181 11.0245 155.051 12.1335 156.281C18.0271 156.905 30.858 156.474 37.1325 156.445L83.3433 156.396L126.411 156.462C130.69 156.474 142.83 156.847 146.389 156.4L146.829 156.417L150.252 156.544C151.725 158.219 151.338 159.234 151.604 161.869C148.938 162.17 148.082 161.752 146.562 163.31L146.137 167.328L11.2989 167.204L11.3509 162.469C10.3053 162.238 7.19307 161.926 5.98964 161.776C5.73996 160.089 5.52702 158.397 5.35021 156.701C5.35338 155.353 5.61512 152.801 5.72158 151.368Z" fill="#10111B"/>
<path d="M11.3509 162.469C37.0976 161.64 63.0478 162.306 88.8306 162.19L124.703 162.157C130.573 162.169 139.187 161.941 144.86 162.493C146.008 163.876 145.934 165.461 146.137 167.328L11.2989 167.204L11.3509 162.469Z" fill="#020205"/>
<path d="M146.829 156.417L150.252 156.544C151.725 158.219 151.338 159.234 151.604 161.869C149.812 161.651 148.966 161.531 147.234 161.043C146.159 159.101 146.6 159.064 146.829 156.417Z" fill="#020205"/>
<path d="M5.98964 161.776C6.27481 159.131 5.88951 158.6 7.27228 156.797C8.91552 156.579 9.71402 156.503 11.3693 156.523C10.9726 159.314 11.4251 159.474 9.83505 161.179L5.98964 161.776Z" fill="#020205"/>
<path d="M152.139 12.0606C151.377 23.4357 151.795 36.6243 151.817 48.1797L151.796 101.997C151.826 109.3 152.3 118.011 151.986 125.107C152.024 132.151 151.599 144.68 152.116 151.216V156.746C151.981 158.168 151.836 160.546 151.604 161.869C151.338 159.234 151.725 158.219 150.252 156.544L146.829 156.417L146.389 156.4C142.83 156.847 130.69 156.474 126.411 156.462L83.3433 156.396L37.1325 156.445C30.858 156.474 18.0271 156.905 12.1335 156.281C11.0245 155.051 11.1842 153.181 11.0645 151.39C11.0512 150.341 11.4548 146.885 11.5651 145.66L14.7483 145.826C18.8592 149.17 13.0854 151.023 22.3725 151.135C61.5744 151.611 100.795 151.341 139.998 151.178C141.179 151.173 141.026 146.879 141.761 146.211C143.545 144.453 143.5 146.189 145.806 144.218C146.827 141.664 146.452 137.433 146.393 134.545C146.59 132.614 146.966 131.341 146.067 129.687L146.51 129.319C148.166 125.445 147.076 112.733 146.525 108.246L146.281 102.571C147.108 91.4524 146.37 84.5689 146.381 73.8824L146.316 16.5477L150.181 16.2269C151.858 15.0139 151.501 14.5203 152.139 12.0606Z" fill="#2D323C"/>
<path d="M146.389 156.4C146.247 151.17 145.135 147.955 150.296 145.364L150.903 145.064C152.089 139.355 150.621 131.318 151.986 125.107C152.024 132.151 151.599 144.68 152.116 151.216V156.746C151.981 158.168 151.836 160.546 151.604 161.869C151.338 159.234 151.725 158.219 150.252 156.544L146.829 156.417L146.389 156.4Z" fill="#191D27"/>
<path d="M146.829 156.417C146.784 154.884 146.872 154.128 147.043 152.596C148.837 151.045 149.24 151.505 152.116 151.216V156.746C151.981 158.168 151.836 160.546 151.604 161.869C151.338 159.234 151.725 158.219 150.252 156.544L146.829 156.417Z" fill="#131821"/>
<path d="M140.76 129.735L146.067 129.687C146.966 131.341 146.59 132.614 146.393 134.545C145.218 134.576 142.193 134.564 141.22 134.861L135.589 134.731L131.439 134.749C129.327 133.417 130.787 132.179 129.143 129.864L129.848 129.219L130.548 129.423C133.187 129.474 138.327 129.423 140.76 129.735Z" fill="#252A33"/>
<path d="M135.589 134.731L141.22 134.861L141.153 138.538C139.889 140.481 140.598 139.864 138.434 140.833L136.681 140.097C135.11 137.742 135.623 138.047 135.589 134.731Z" fill="#426283"/>
<path d="M119.842 123.494C122.664 124.071 122.809 123.58 124.143 125.347L124.24 128.781C121.777 129.54 122.538 129.645 120.439 129.174C119.31 127.533 119.728 125.618 119.842 123.494Z" fill="#020205"/>
<path d="M113.79 129.575C116.06 129.555 117.55 129.471 119.79 129.923C121.576 131.712 121.037 131.526 121.43 134.612C119.219 134.86 117.034 135.376 115.055 134.585C113.465 132.452 113.964 132.701 113.79 129.575Z" fill="#252A33"/>
<path d="M11.1842 0.143938L104.861 0.147729C112.169 0.147729 140.692 -0.342666 145.824 0.463509C146.725 2.22077 146.564 3.24779 146.592 5.22273C147.82 5.27335 150.503 5.30813 151.587 5.5448C151.871 7.44254 152.092 8.76949 152.12 10.7178L152.139 12.0606C151.501 14.5203 151.858 15.0139 150.181 16.2269L146.316 16.5477C144.417 16.8458 142.748 16.6566 140.845 16.5288C140.838 14.7994 141.115 12.3561 140.193 11.1013C133.474 10.485 21.292 10.1053 17.0518 11.4152C16.3566 13.1307 16.4802 13.58 16.498 15.4846C14.0436 17.3115 13.3744 15.0588 11.3427 16.9686C10.4865 23.6483 11.0873 35.2752 10.9719 42.5548C10.4561 75.1004 11.2191 107.513 10.6728 140.132L11.2755 140.022L11.5651 145.66C11.4548 146.885 11.0512 150.341 11.0645 151.39C9.41679 151.3 7.40284 151.363 5.72158 151.368C5.61512 152.801 5.35338 155.353 5.35021 156.701C3.45476 156.687 2.93638 156.75 1.08719 156.221C-0.367831 153.448 -0.17265 21.6987 0.570069 11.6651C2.15563 10.4755 3.29951 10.8875 5.66074 10.8286L5.73361 5.47264L9.57522 5.043C11.3281 3.52114 10.8065 3.16867 11.1842 0.143938Z" fill="#52656C"/>
<path d="M5.35021 156.701C3.45476 156.687 2.93638 156.75 1.08719 156.221C-0.367831 153.448 -0.17265 21.6987 0.570069 11.6651C2.15563 10.4755 3.29951 10.8875 5.66074 10.8286L5.65693 140.316L10.6728 140.132L11.2755 140.022L11.5651 145.66C11.4548 146.885 11.0512 150.341 11.0645 151.39C9.41679 151.3 7.40284 151.363 5.72158 151.368C5.61512 152.801 5.35338 155.353 5.35021 156.701Z" fill="#020205"/>
<path d="M5.65693 140.316L10.6728 140.132L11.2755 140.022L11.5651 145.66C11.4548 146.885 11.0512 150.341 11.0645 151.39C9.41679 151.3 7.40284 151.363 5.72158 151.368L5.67279 146.264L5.65693 140.316Z" fill="#191D27"/>
<path d="M5.65693 140.316L10.6728 140.132C10.7318 143.02 11.2134 143.459 9.97637 145.597C8.22414 146.345 7.54606 146.258 5.67279 146.264L5.65693 140.316Z" fill="#343C46"/>
<path d="M11.1842 0.143938L104.861 0.147729C112.169 0.147729 140.692 -0.342666 145.824 0.463509C146.725 2.22077 146.564 3.24779 146.592 5.22273C139.633 5.61126 129.596 5.30053 122.461 5.29926L35.8942 5.31443C28.6261 5.32329 19.2832 5.5929 12.145 5.07148C11.2254 3.7616 11.3655 1.9689 11.1842 0.143938Z" fill="#020205"/>
<path d="M151.587 5.5448C151.871 7.44254 152.092 8.76949 152.12 10.7178L152.139 12.0606C151.501 14.5203 151.858 15.0139 150.181 16.2269L146.316 16.5477C144.417 16.8458 142.748 16.6566 140.845 16.5288C142.906 16.2086 143.775 16.0675 145.823 15.3885C147.183 13.1857 146.71 13.0446 146.742 10.0332C145.895 8.92706 146.009 7.36341 147.006 6.39018C148.004 5.41695 149.573 5.34039 150.66 6.21175L151.587 5.5448Z" fill="#474957"/>
<path d="M146.742 10.0332C145.895 8.92706 146.009 7.36341 147.006 6.39018C148.004 5.41695 149.573 5.34039 150.66 6.21175C151.492 6.87807 151.864 7.96206 151.618 8.99731C151.372 10.0326 150.55 10.8337 149.508 11.0551C148.465 11.2766 147.389 10.8792 146.742 10.0332Z" fill="#020205"/>
<path d="M5.73361 5.47264C9.26913 5.91496 8.81158 5.30118 10.9694 7.35016L11.3534 8.72647C9.56191 11.3627 8.7666 10.9704 5.66074 10.8286L5.73361 5.47264Z" fill="#020205"/>
<path d="M86.8718 21.2715L87.2172 21.5481C89.7673 21.5582 90.3927 21.1133 92.1957 22.3453C92.4986 24.083 92.5803 24.8601 92.6196 26.6224L93.1038 26.8375L92.5537 27.2925L92.555 43.1217L92.5658 49.2472L92.4992 54.0792L92.477 59.2801C89.9732 59.2623 89.2394 58.8137 87.4586 60.0021C86.8725 61.8549 87.1031 62.8971 87.2945 64.7923L87.5537 69.7666L86.9523 69.6971L85.7596 69.8825L85.7311 70.2767C87.4871 71.4094 86.9612 70.7601 87.6963 72.7357C87.0024 74.8049 87.4871 74.0816 85.8908 75.5143L83.439 75.8326L81.2913 75.4846L76.0124 75.4979L71.3451 75.4523C70.9395 74.3 71.0022 71.6416 70.9724 70.2982L70.7348 69.8451L65.4724 70.2147C63.9534 70.1179 63.0148 69.9844 61.5148 69.7179C60.1815 68.0252 60.6042 67.5779 60.4743 65.0493L62.7594 64.6139C63.4477 63.1724 63.5529 60.9348 63.7449 59.2762L64.8235 59.2206C61.7163 59.2971 61.03 59.8439 59.7461 56.9172L58.9045 57.1501L58.6485 59.43C57.5712 59.5756 55.3266 59.9533 54.3462 59.8635C53.1085 59.6528 50.5768 59.5749 49.2226 59.4902C49.0648 58.5473 49.0375 55.1448 49.0065 54.0064L49.0851 48.6188L49.3442 43.1933L54.497 42.9541L54.5395 37.6361C54.3538 35.734 54.2663 35.3037 54.7074 33.4578L55.7702 33.2598C57.8722 32.7738 58.2588 32.7421 59.7607 31.2323L59.9831 31.1361L60.1574 32.3106L65.2436 32.5193L70.4103 32.5472L70.4344 31.9923C70.7728 30.6564 70.9699 29.389 71.1993 28.0374C73.0231 26.7389 73.2234 27.2185 75.9852 27.2622L75.9883 26.7761L76.2272 21.6309L81.8508 21.5828L86.4263 21.6158L86.8718 21.2715Z" fill="#12151E"/>
<path d="M81.5974 48.4973C92.0658 49.9742 82.6018 54.2956 92.4992 54.0792L92.477 59.2801C89.9732 59.2623 89.2394 58.8137 87.4586 60.0021C86.8725 61.8549 87.1031 62.8971 87.2945 64.7923L87.5537 69.7666L86.9523 69.6971L85.7596 69.8825L85.7311 70.2767C87.4871 71.4094 86.9612 70.7601 87.6963 72.7357C87.0024 74.8049 87.4871 74.0816 85.8908 75.5143L83.439 75.8326L81.2913 75.4846L76.0124 75.4979L71.3451 75.4523C70.9395 74.3 71.0022 71.6416 70.9724 70.2982L70.7348 69.8451L65.4724 70.2147C63.9534 70.1179 63.0148 69.9844 61.5148 69.7179C60.1815 68.0252 60.6042 67.5779 60.4743 65.0493L62.7594 64.6139C63.4477 63.1724 63.5529 60.9348 63.7449 59.2762L64.8235 59.2206L65.243 59.0345L70.5814 59.089C70.6214 58.3233 70.6752 57.5588 70.743 56.7951C71.2785 51.3018 75.8863 58.122 76.1284 48.3435L81.5974 48.4973Z" fill="#636876"/>
<path d="M85.7311 70.2767C87.4871 71.4094 86.9612 70.7601 87.6963 72.7357C87.0024 74.8049 87.4871 74.0816 85.8908 75.5143L83.439 75.8326L81.2913 75.4846L76.0124 75.4979L71.3451 75.4523C70.9395 74.3 71.0022 71.6416 70.9724 70.2982C75.7272 70.3223 81.0264 70.4564 85.7311 70.2767Z" fill="#2D323C"/>
<path d="M85.7596 69.8825C83.3908 69.8591 72.8159 69.811 70.8039 69.2687L69.9883 67.681C74.0935 63.6052 80.8135 63.3913 86.0043 65.2953C87.4016 67.1273 86.9485 66.8982 86.9523 69.6971L85.7596 69.8825Z" fill="#8A8FA3"/>
<path d="M66.6175 64.5601C69.1017 64.8107 68.9971 64.3639 70.3748 65.8921L70.7348 69.8451L65.4724 70.2147C63.9534 70.1179 63.0148 69.9844 61.5148 69.7179C60.1815 68.0252 60.6042 67.5779 60.4743 65.0493L62.7594 64.6139L65.6574 64.7259L66.6175 64.5601Z" fill="#252A33"/>
<path d="M65.243 59.0345L70.5814 59.089L70.5688 59.6679C70.9116 62.1415 71.2189 61.6745 70.2741 63.6311C68.6809 64.2341 68.3058 64.3443 66.6175 64.5601L65.6574 64.7259L62.7594 64.6139C63.4477 63.1724 63.5529 60.9348 63.7449 59.2762L64.8235 59.2206L65.243 59.0345Z" fill="#6F6F7D"/>
<path d="M65.243 59.0345L70.5814 59.089L70.5688 59.6679C68.1106 59.7635 67.1011 59.3756 65.3304 60.5767C65.0345 62.4972 65.1625 62.8307 65.6574 64.7259L62.7594 64.6139C63.4477 63.1724 63.5529 60.9348 63.7449 59.2762L64.8235 59.2206L65.243 59.0345Z" fill="#595D6A"/>
<path d="M86.8718 21.2715L87.2172 21.5481C89.7673 21.5582 90.3927 21.1133 92.1957 22.3453C92.4986 24.083 92.5803 24.8601 92.6196 26.6224L93.1038 26.8375L92.5537 27.2925L92.555 43.1217L92.5658 49.2472L92.4992 54.0792C82.6018 54.2956 92.0658 49.9742 81.5974 48.4973L81.6145 43.2901C83.2552 43.3781 85.2064 43.5362 86.8217 43.5078C86.6994 39.849 86.7666 35.7289 86.7489 32.0353L81.9554 32.1093C81.2596 30.5052 81.3699 29.1352 81.3103 27.3736L75.9852 27.2622L75.9883 26.7761L76.2272 21.6309L81.8508 21.5828L86.4263 21.6158L86.8718 21.2715Z" fill="#343C46"/>
<path d="M87.24 42.239C87.4314 37.233 86.0676 32.7605 87.7799 28.3392C89.5461 26.8357 89.605 27.3482 92.5537 27.2925L92.555 43.1217C90.8465 42.7826 88.9726 42.5194 87.24 42.239Z" fill="#844D33"/>
<path d="M87.24 42.239C88.9726 42.5194 90.8465 42.7826 92.555 43.1217L92.5658 49.2472C90.6615 48.8409 89.9872 48.6441 88.1824 47.9158C86.849 45.682 87.3103 45.229 87.24 42.239Z" fill="#6D4C41"/>
<path d="M76.2272 21.6309L81.8508 21.5828L81.6956 26.8628L75.9883 26.7761L76.2272 21.6309Z" fill="#A76457"/>
<path d="M87.2172 21.5481C89.7673 21.5582 90.3927 21.1133 92.1957 22.3453C92.4986 24.083 92.5803 24.8601 92.6196 26.6224C90.7508 26.8103 89.9707 26.9724 88.0892 26.5301C86.8205 24.5868 87.2641 24.2843 87.2172 21.5481Z" fill="#201314"/>
<path d="M81.8508 21.5828L86.4263 21.6158C86.7673 24.2254 87.1811 24.2462 86.2894 26.342C84.4656 27.1919 83.7007 26.9786 81.6956 26.8628L81.8508 21.5828Z" fill="#844D33"/>
<path d="M81.6145 43.2901C83.2552 43.3781 85.2064 43.5362 86.8217 43.5078C86.7882 46.0288 87.2641 46.5559 85.9105 48.031L81.5974 48.4973L81.6145 43.2901Z" fill="#131821"/>
<path d="M81.3103 27.3736C83.8699 27.3457 84.65 26.9015 86.5632 28.0595C86.9079 29.8256 86.8743 30.2325 86.7489 32.0353L81.9554 32.1093C81.2596 30.5052 81.3699 29.1352 81.3103 27.3736Z" fill="#331F1A"/>
<path d="M54.5395 37.6361L55.2207 37.9867L59.5661 38.1075L60.1105 37.9791L60.0376 43.8843C60.2474 47.452 60.3133 53.3546 59.7461 56.9172L58.9045 57.1501L58.6485 59.43C57.5712 59.5756 55.3266 59.9533 54.3462 59.8635C53.1085 59.6528 50.5768 59.5749 49.2226 59.4902C49.0648 58.5473 49.0375 55.1448 49.0065 54.0064L49.0851 48.6188L49.3442 43.1933L54.497 42.9541L54.5395 37.6361Z" fill="#A76457"/>
<path d="M54.497 42.9541C54.4571 47.0204 53.9387 52.4586 55.338 56.0402C57.0997 57.4412 56.2505 57.0646 58.9045 57.1501L58.6485 59.43C57.5712 59.5756 55.3266 59.9533 54.3462 59.8635C53.1085 59.6528 50.5768 59.5749 49.2226 59.4902C49.0648 58.5473 49.0375 55.1448 49.0065 54.0064L49.0851 48.6188L49.3442 43.1933L54.497 42.9541Z" fill="#553431"/>
<path d="M59.5661 38.1075L60.1105 37.9791L60.0376 43.8843C59.7537 46.9843 60.1568 47.4096 57.3614 48.9909L56.1808 48.5942C54.7689 46.3256 55.2169 46.6496 55.1238 43.6166L55.2207 37.9867L59.5661 38.1075Z" fill="#BC7D53"/>
<path d="M55.2207 37.9867L59.5661 38.1075C59.5021 40.8108 59.9907 41.7385 58.5826 43.4647C57.383 43.5546 56.3342 43.6552 55.1238 43.6166L55.2207 37.9867Z" fill="#CD9D86"/>
<path d="M70.4344 31.9923C70.7728 30.6564 70.9699 29.389 71.1993 28.0374C73.0231 26.7389 73.2234 27.2185 75.9852 27.2622L81.3103 27.3736C81.3699 29.1352 81.2596 30.5052 81.9554 32.1093L81.6912 32.7035L81.5391 36.0529C79.2171 39.2447 74.8952 39.4807 71.7462 37.14C70.6575 36.3307 70.8837 33.9704 70.7956 32.5953L70.4103 32.5472L70.4344 31.9923Z" fill="#343C46"/>
<path d="M70.4344 31.9923C70.7728 30.6564 70.9699 29.389 71.1993 28.0374C73.0231 26.7389 73.2234 27.2185 75.9852 27.2622L81.3103 27.3736C81.3699 29.1352 81.2596 30.5052 81.9554 32.1093L81.6912 32.7035C78.8483 31.9575 73.8749 32.4333 70.7956 32.5953L70.4103 32.5472L70.4344 31.9923Z" fill="#201314"/>
<path d="M61.9926 43.6609C64.7322 46.199 65.044 52.6446 65.1815 56.1763C65.2183 57.1286 65.2385 58.0815 65.243 59.0345L64.8235 59.2206C61.7163 59.2971 61.03 59.8439 59.7461 56.9172C60.3133 53.3546 60.2474 47.452 60.0376 43.8843L61.9926 43.6609Z" fill="#10111B"/>
<path d="M59.7607 31.2323L59.9831 31.1361L60.1574 32.3106L65.2436 32.5193L65.2113 37.9874L60.1105 37.9791L59.5661 38.1075L55.2207 37.9867L54.5395 37.6361C54.3538 35.734 54.2663 35.3037 54.7074 33.4578L55.7702 33.2598C57.8722 32.7738 58.2588 32.7421 59.7607 31.2323Z" fill="#693922"/>
<path d="M60.1574 32.3106L65.2436 32.5193L65.2113 37.9874L60.1105 37.9791L60.1574 32.3106Z" fill="#CD9D86"/>
<path d="M76.1284 48.3435C76.0111 46.3325 75.9915 45.9371 76.4231 43.9779C78.5302 42.7699 78.7805 43.2287 81.6145 43.2901L81.5974 48.4973L76.1284 48.3435Z" fill="#2D323C"/>
<path d="M60.1105 37.9791L65.2113 37.9874C65.2436 41.0577 65.8032 41.3658 64.2924 43.2325L61.9926 43.6609L60.0376 43.8843L60.1105 37.9791Z" fill="#693922"/>
<path d="M58.9045 57.1501L59.7461 56.9172C61.03 59.8439 61.7163 59.2971 64.8235 59.2206L63.7449 59.2762C63.5529 60.9348 63.4477 63.1724 62.7594 64.6139L60.4743 65.0493C60.6042 67.5779 60.1815 68.0252 61.5148 69.7179C63.0148 69.9844 63.9534 70.1179 65.4724 70.2147L70.7348 69.8451L70.9724 70.2982C71.0022 71.6416 70.9395 74.3 71.3451 75.4523L70.8805 75.6384C70.596 79.4326 70.6435 82.4554 70.7063 86.235C67.5751 86.3395 67.7665 85.8573 65.5218 87.3519C64.1942 90.5735 67.0218 93.8032 64.0738 97.2943C61.7163 97.4146 61.6967 97.0013 60.2734 98.3549C59.9489 100.315 59.9831 100.863 60.1086 102.855L59.9635 107.225L58.4762 107.911L59.9172 108.733L59.9844 110.869C58.7911 114.142 57.9584 113.512 54.5661 113.448L49.4944 113.375L44.2783 113.375L43.8087 113.287L43.708 107.827V102.564L43.6509 96.9545L38.6566 96.9963L38.123 101.007L37.8087 97.0975C37.8834 91.827 38.0178 86.5577 38.213 81.2904C38.7358 79.7331 38.6756 77.1501 38.7326 75.4225L43.5914 75.5852L43.765 75.8864C44.8835 75.4339 47.6915 75.3687 49.0293 75.2795C49.2289 72.0649 48.1934 68.265 49.2245 65.4675L49.6763 64.7056L49.2226 59.4902C50.5768 59.5749 53.1085 59.6528 54.3462 59.8635C55.3266 59.9533 57.5712 59.5756 58.6485 59.43L58.9045 57.1501Z" fill="#595D6A"/>
<path d="M38.7326 75.4225L43.5914 75.5852L43.765 75.8864L43.7415 86.2249C43.7187 89.6046 43.7865 93.628 43.6509 96.9545L38.6566 96.9963L38.123 101.007L37.8087 97.0975C37.8834 91.827 38.0178 86.5577 38.213 81.2904C38.7358 79.7331 38.6756 77.1501 38.7326 75.4225Z" fill="#343C46"/>
<path d="M38.6566 96.9963C38.5045 94.1443 37.7846 89.4091 39.0451 87.1089C41.0844 85.725 40.7973 86.1837 43.7415 86.2249C43.7187 89.6046 43.7865 93.628 43.6509 96.9545L38.6566 96.9963Z" fill="#767F8C"/>
<path d="M58.9045 57.1501L59.7461 56.9172C61.03 59.8439 61.7163 59.2971 64.8235 59.2206L63.7449 59.2762C63.5529 60.9348 63.4477 63.1724 62.7594 64.6139L60.4743 65.0493C60.6042 67.5779 60.1815 68.0252 61.5148 69.7179C63.0148 69.9844 63.9534 70.1179 65.4724 70.2147C58.8076 70.8241 55.9958 72.5737 54.5579 65.4897L54.3627 64.8265L49.6763 64.7056L49.2226 59.4902C50.5768 59.5749 53.1085 59.6528 54.3462 59.8635C55.3266 59.9533 57.5712 59.5756 58.6485 59.43L58.9045 57.1501Z" fill="#343C46"/>
<path d="M49.2226 59.4902C50.5768 59.5749 53.1085 59.6528 54.3462 59.8635C54.4698 61.0727 54.6516 63.6052 54.9089 64.6746L54.3627 64.8265L49.6763 64.7056L49.2226 59.4902Z" fill="#343C46"/>
<path d="M58.6485 59.43C59.6149 61.0108 59.7258 61.2183 59.8095 63.061C58.1986 65.0625 57.6175 64.8473 54.9089 64.6746C54.6516 63.6052 54.4698 61.0727 54.3462 59.8635C55.3266 59.9533 57.5712 59.5756 58.6485 59.43Z" fill="#252A33"/>
<path d="M60.4743 65.0493C60.2214 63.4223 60.2005 62.4396 60.1561 60.8139C61.4749 59.2636 61.3874 59.6914 63.7449 59.2762C63.5529 60.9348 63.4477 63.1724 62.7594 64.6139L60.4743 65.0493Z" fill="#6F6F7D"/>
<path d="M49.1991 108.023C52.8715 107.695 54.7828 107.721 58.4762 107.911L59.9172 108.733L59.9844 110.869C58.7911 114.142 57.9584 113.512 54.5661 113.448L49.4944 113.375L44.2783 113.375L43.8087 113.287L43.708 107.827C45.3189 107.866 47.6643 107.847 49.1991 108.023Z" fill="#636876"/>
<path d="M49.1991 108.023L49.7422 109.137C49.1649 110.023 49.1668 111.166 49.7473 112.05L49.4944 113.375L44.2783 113.375L43.8087 113.287L43.708 107.827C45.3189 107.866 47.6643 107.847 49.1991 108.023Z" fill="#636876"/>
<path d="M49.7422 109.137C50.3861 108.15 51.6028 107.702 52.734 108.037C53.8652 108.371 54.6415 109.408 54.6434 110.585C54.6453 111.764 53.8722 112.803 52.7422 113.141C51.6117 113.479 50.3937 113.035 49.7473 112.05C49.1668 111.166 49.1649 110.023 49.7422 109.137Z" fill="#9DA7B1"/>
<path d="M43.765 75.8864C44.8835 75.4339 47.6915 75.3687 49.0293 75.2795C49.1751 78.6744 49.8861 83.0907 48.1459 85.7288C46.4786 86.6096 45.6376 86.3603 43.7415 86.2249L43.765 75.8864Z" fill="#767F8C"/>
<path d="M49.7391 102.519C52.1713 102.558 57.9609 102.504 60.1086 102.855L59.9635 107.225L58.4762 107.911C54.7828 107.721 52.8715 107.695 49.1991 108.023C49.4349 106.563 49.5952 104.069 49.7391 102.519Z" fill="#343C46"/>
<path d="M43.708 102.564L49.7391 102.519C49.5952 104.069 49.4349 106.563 49.1991 108.023C47.6643 107.847 45.3189 107.866 43.708 107.827V102.564Z" fill="#343C46"/>
<path d="M70.7348 69.8451L70.9724 70.2982C71.0022 71.6416 70.9395 74.3 71.3451 75.4523L70.8805 75.6384C68.9667 75.5555 68.1429 75.4959 66.2715 75.1099C65.0871 73.3875 65.506 72.6471 65.4724 70.2147L70.7348 69.8451Z" fill="#343C46"/>
<path d="M49.6763 64.7056L54.3627 64.8265L54.5579 65.4897C54.5243 68.5897 54.8025 68.982 52.2828 70.5722L50.798 70.2368C48.9913 68.2151 49.535 68.6782 49.2245 65.4675L49.6763 64.7056Z" fill="#636876"/>
<path d="M38.7529 38.0626L43.7048 38.0196L43.6706 42.8339C45.8677 43.0863 47.1129 43.2287 49.3442 43.1933L49.0851 48.6188L49.0065 54.0064C49.0375 55.1448 49.0648 58.5473 49.2226 59.4902L49.6763 64.7056L49.2245 65.4675C48.1934 68.265 49.2289 72.0649 49.0293 75.2795C47.6915 75.3687 44.8835 75.4339 43.765 75.8864L43.5914 75.5852L38.7326 75.4225C38.6756 77.1501 38.7358 79.7331 38.213 81.2904L37.5076 81.0822L32.9417 81.0316L33.026 80.5425L32.9588 75.737L27.9955 75.4187L27.3194 73.5463C27.4436 72.4212 27.372 71.2841 27.346 70.1463C27.159 68.7074 27.128 66.137 27.0665 64.5955C27.5741 61.019 27.2883 51.7346 27.2167 47.998C27.0823 46.137 27.2661 45.7636 27.7294 43.9153L27.9353 43.2274L38.1426 43.2452C38.4342 42.2276 38.6395 39.2605 38.7529 38.0626Z" fill="#191D27"/>
<path d="M27.9594 48.8625L38.0349 48.9295C38.1433 53.1344 39.1141 65.7415 36.9405 69.1649C36.5495 69.7806 35.8188 69.7002 34.9797 69.8205L33.5615 69.1136C33.3137 68.0626 33.0742 67.009 32.8435 65.9535L32.7465 65.5194C31.493 64.2974 30.0482 64.6632 27.8472 64.5303L27.9594 48.8625Z" fill="#343C46"/>
<path d="M49.0065 54.0064C49.0375 55.1448 49.0648 58.5473 49.2226 59.4902L49.6763 64.7056L49.2245 65.4675C48.1934 68.265 49.2289 72.0649 49.0293 75.2795C47.6915 75.3687 44.8835 75.4339 43.765 75.8864L43.5914 75.5852L43.689 69.9451L43.6674 64.9493L43.6737 59.5199L43.6382 54.0627L49.0065 54.0064Z" fill="#474957"/>
<path d="M49.0065 54.0064C49.0375 55.1448 49.0648 58.5473 49.2226 59.4902L43.6737 59.5199L43.6382 54.0627L49.0065 54.0064Z" fill="#343C46"/>
<path d="M43.6674 64.9493C41.8569 65.022 40.8429 65.2928 39.4399 64.2354C37.6445 59.9755 37.1838 51.3651 41.0229 48.265C44.1756 48.2688 43.6585 51.5784 43.6382 54.0627L43.6737 59.5199L43.6674 64.9493Z" fill="#10111B"/>
<path d="M27.9353 43.2274L38.1426 43.2452C38.1325 46.0535 38.5894 45.8491 37.1864 47.688C32.9113 49.5446 27.659 49.8647 27.7294 43.9153L27.9353 43.2274Z" fill="#020205"/>
<path d="M43.6706 42.8339C45.8677 43.0863 47.1129 43.2287 49.3442 43.1933L49.0851 48.6188L43.2149 48.4726L43.4456 43.1831L43.6706 42.8339Z" fill="#474957"/>
<path d="M33.1306 75.27L38.1978 74.8182C38.1135 76.4046 38.0799 79.7635 37.5076 81.0822L32.9417 81.0316L33.026 80.5425L32.9588 75.737L33.1306 75.27Z" fill="#040713"/>
<path d="M27.8472 64.5303C30.0482 64.6632 31.493 64.2974 32.7465 65.5194L32.8435 65.9535L32.8181 70.2932C30.9271 70.3526 30.3669 70.4184 28.5475 69.9521C27.2382 67.9234 27.7604 67.4525 27.8472 64.5303Z" fill="#020205"/>
<path d="M43.689 69.9451L43.5914 75.5852L38.7326 75.4225C38.7073 73.695 38.7567 72.704 38.9361 70.9854C40.7162 69.5977 40.931 70.0596 43.689 69.9451Z" fill="#2D323C"/>
<path d="M38.7529 38.0626L43.7048 38.0196L43.6706 42.8339L43.4456 43.1831L38.6464 43.2591L38.1426 43.2452C38.4342 42.2276 38.6395 39.2605 38.7529 38.0626Z" fill="#48515C"/>
<path d="M32.8181 70.2932C35.6547 70.3824 36.1857 69.8843 37.9335 71.3188C38.0463 72.4642 38.1952 73.6722 38.1978 74.8182L33.1306 75.27L32.8181 70.2932Z" fill="#020205"/>
<path d="M38.6464 43.2591L43.4456 43.1831L43.2149 48.4726L39.7979 48.0955C38.2491 46.5313 38.7605 46.0421 38.6464 43.2591Z" fill="#343C46"/>
<path d="M76.3635 82.3288C79.4548 87.5373 81.0866 83.9095 81.1816 90.7145C78.9186 91.4872 78.3831 91.5251 76.0517 91.7397C79.0802 91.8858 79.2114 91.4138 81.3578 92.8711C82.6278 95.5054 81.4719 98.8662 82.0505 102.473C81.6284 104.771 81.4402 105.441 81.6684 107.794C81.6588 109.115 81.7279 112.195 81.4561 113.337L76.7323 113.514L76.5574 114.071L76.1062 113.939C74.1277 113.118 72.3641 113.358 70.1892 113.401L66.6948 113.122C64.0484 112.788 63.7024 113.193 60.6992 112.418L59.9844 110.869L59.9172 108.733L58.4762 107.911L59.9635 107.225L60.1086 102.855C59.9831 100.863 59.9489 100.315 60.2734 98.3549C61.6967 97.0013 61.7163 97.4146 64.0738 97.2943C67.0218 93.8032 64.1942 90.5735 65.5218 87.3519C67.7665 85.8573 67.5751 86.3395 70.7063 86.235C71.918 86.235 74.7887 86.3141 75.8299 86.2135L76.0403 89.4332C76.8229 86.7413 76.5536 85.1403 76.3635 82.3288Z" fill="#2D323C"/>
<path d="M60.1086 102.855C59.9831 100.863 59.9489 100.315 60.2734 98.3549C61.6967 97.0013 61.7163 97.4146 64.0738 97.2943C67.0218 93.8032 64.1942 90.5735 65.5218 87.3519C67.7665 85.8573 67.5751 86.3395 70.7063 86.235C71.918 86.235 74.7887 86.3141 75.8299 86.2135L76.0403 89.4332L75.7431 91.1974C72.3147 92.7939 73.0181 90.3849 70.9693 92.5123C70.4363 95.8142 71.4192 100.746 70.5231 102.421C65.7303 103.614 65.5478 101.156 65.1162 107.185C63.461 108.406 61.8989 107.842 59.9635 107.225L60.1086 102.855Z" fill="#767F8C"/>
<path d="M76.3635 82.3288C79.4548 87.5373 81.0866 83.9095 81.1816 90.7145C78.9186 91.4872 78.3831 91.5251 76.0517 91.7397L76.1087 107.794C73.1271 107.895 62.1276 108.075 59.9172 108.733L58.4762 107.911L59.9635 107.225C61.8989 107.842 63.461 108.406 65.1162 107.185C65.5478 101.156 65.7303 103.614 70.5231 102.421C71.4192 100.746 70.4363 95.8142 70.9693 92.5123C73.0181 90.3849 72.3147 92.7939 75.7431 91.1974L76.0403 89.4332C76.8229 86.7413 76.5536 85.1403 76.3635 82.3288Z" fill="#595D6A"/>
<path d="M76.7323 113.514C76.4326 110.635 76.0257 110.948 77.1265 108.71L78.3312 108.106C80.5023 108.911 79.7881 108.349 81.0822 110.174L81.4561 113.337L76.7323 113.514Z" fill="#474957"/>
<path d="M93.1038 26.8375C95.4321 26.9951 96.3611 26.6382 97.9346 27.8595C98.8592 39.675 98.1736 62.8427 98.1533 75.5212C100.896 75.4845 105.596 75.1125 107.928 76.1402C108.719 77.4279 108.435 78.1568 108.26 79.7603C106.177 81.5865 101.78 80.3166 99.0227 81.0487L98.1723 81.1671L94.9251 80.8234L93.4264 80.6842C92.0265 79.0282 92.5113 78.429 92.458 75.7744L92.5208 70.0812L87.5537 69.7666L87.2945 64.7923C87.1031 62.8971 86.8725 61.8549 87.4586 60.0021C89.2394 58.8137 89.9732 59.2623 92.477 59.2801L92.4992 54.0792L92.5658 49.2472L92.555 43.1217L92.5537 27.2925L93.1038 26.8375Z" fill="#040713"/>
<path d="M87.2945 64.7923C87.1031 62.8971 86.8725 61.8549 87.4586 60.0021C89.2394 58.8137 89.9732 59.2623 92.477 59.2801L92.4916 64.6594L87.2945 64.7923Z" fill="#B0BAC3"/>
<path d="M92.4916 64.6594L92.5208 70.0812L87.5537 69.7666L87.2945 64.7923L92.4916 64.6594Z" fill="#343C46"/>
<path d="M87.5537 69.7666L92.5208 70.0812L92.458 75.7744C92.5113 78.429 92.0265 79.0282 93.4264 80.6842L94.9251 80.8234L98.1723 81.1671L99.0227 81.0487L103.967 81.2493C103.845 82.5534 103.693 85.0485 103.478 86.2337L103.252 86.6413C95.0949 87.0551 100.47 89.1566 96.1773 91.9282L92.37 91.9624C91.9447 94.9277 92.4549 95.313 90.6995 96.7121L87.143 97.069C86.7666 100.133 87.4295 101.778 84.0835 102.46L82.0505 102.473C81.4719 98.8662 82.6278 95.5054 81.3578 92.8711C79.2114 91.4138 79.0802 91.8858 76.0517 91.7397C78.3831 91.5251 78.9186 91.4872 81.1816 90.7145C81.0866 83.9095 79.4548 87.5373 76.3635 82.3288C77.783 80.8829 78.1037 81.2094 80.3559 80.7601C81.7273 78.8789 81.238 78.3195 81.2913 75.4846L83.439 75.8326L85.8908 75.5143C87.4871 74.0816 87.0024 74.8049 87.6963 72.7357C86.9612 70.7601 87.4871 71.4094 85.7311 70.2767L85.7596 69.8825L86.9523 69.6971L87.5537 69.7666Z" fill="#474957"/>
<path d="M94.9251 80.8234L98.1723 81.1671L99.0227 81.0487L103.967 81.2493C103.845 82.5534 103.693 85.0485 103.478 86.2337L103.252 86.6413C95.0949 87.0551 100.47 89.1566 96.1773 91.9282L92.37 91.9624C90.766 91.984 89.9422 91.8959 88.3484 91.6903C86.8515 89.7868 87.4086 89.3914 87.4308 86.3274L91.8782 86.2799L91.9194 85.768C92.2134 84.088 92.3541 83.2229 92.92 81.6188L94.9251 80.8234Z" fill="#636876"/>
<path d="M94.9251 80.8234L98.1723 81.1671L98.164 86.1426L91.8782 86.2799L91.9194 85.768C92.2134 84.088 92.3541 83.2229 92.92 81.6188L94.9251 80.8234Z" fill="#48515C"/>
<path d="M99.0227 81.0487L103.967 81.2493C103.845 82.5534 103.693 85.0485 103.478 86.2337L98.164 86.1426L98.1723 81.1671L99.0227 81.0487Z" fill="#8A8FA3"/>
<path d="M81.2913 75.4846L83.439 75.8326C86.3008 76.8286 86.574 76.7527 86.714 80.2634C86.792 82.2118 86.7622 84.2215 86.7768 86.1762C84.1772 86.2426 83.4763 85.7769 81.8211 87.1349C81.719 88.2967 81.591 89.4951 81.5714 90.6576L81.1816 90.7145C81.0866 83.9095 79.4548 87.5373 76.3635 82.3288C77.783 80.8829 78.1037 81.2094 80.3559 80.7601C81.7273 78.8789 81.238 78.3195 81.2913 75.4846Z" fill="#48515C"/>
<path d="M87.1988 81.1967C87.2204 79.2471 87.1253 78.4352 87.728 76.5457C89.5303 75.4345 90.0695 75.8162 92.458 75.7744C92.5113 78.429 92.0265 79.0282 93.4264 80.6842L94.9251 80.8234L92.92 81.6188C92.3541 83.2229 92.2134 84.088 91.9194 85.768L91.8782 86.2799L87.4308 86.3274L87.1988 81.1967Z" fill="#252A33"/>
<path d="M87.1988 81.1967C89.5968 81.2429 90.157 80.7987 91.6013 82.0751L91.9194 85.768L91.8782 86.2799L87.4308 86.3274L87.1988 81.1967Z" fill="#252A33"/>
<path d="M81.5714 90.6576C81.591 89.4951 81.719 88.2967 81.8211 87.1349C83.4763 85.7769 84.1772 86.2426 86.7768 86.1762C86.7793 88.2505 87.0809 89.9008 85.849 91.4188C84.0524 91.7492 83.5061 91.7055 81.5714 90.6576Z" fill="#2D323C"/>
<path d="M32.9417 81.0316L37.5076 81.0822L38.213 81.2904C38.0178 86.5577 37.8834 91.827 37.8087 97.0975L32.9778 97.3216L32.9284 102.682C30.9404 102.748 30.0596 102.677 28.1273 102.47C26.749 100.959 27.0101 82.4408 28.1026 81.2075L32.9417 81.0316Z" fill="#10111B"/>
<path d="M32.9417 81.0316L37.5076 81.0822L38.213 81.2904C38.0178 86.5577 37.8834 91.827 37.8087 97.0975L32.9778 97.3216L32.9417 81.0316Z" fill="#2D323C"/>
<path d="M114.085 69.8122C114.049 66.9052 113.262 62.6389 114.532 60.285C116.492 58.9827 116.286 59.4199 119.081 59.4895L119.666 59.6097L124.244 59.5965L124.816 59.661L124.685 64.4057C124.529 66.2357 124.442 67.4114 124.028 69.2364C122.609 70.2052 121.554 69.9482 119.792 69.8818C119.788 72.3332 119.373 73.3432 120.464 75.2124C122.264 75.7516 122.986 75.6478 124.83 75.5757L124.961 80.6342C123.015 80.5823 122.073 80.5507 120.1 80.195C118.911 78.453 119.31 77.8911 119.243 75.4688L113.939 75.5118L109.011 75.5921C108.835 73.7456 108.863 73.1407 109.039 71.2898C110.844 69.7515 111.278 70.1742 114.085 69.8122Z" fill="#020205"/>
<path d="M114.085 69.8122L119.165 70.1033L119.243 75.4688L113.939 75.5118L109.011 75.5921C108.835 73.7456 108.863 73.1407 109.039 71.2898C110.844 69.7515 111.278 70.1742 114.085 69.8122Z" fill="#10111B"/>
<path d="M119.666 59.6097L124.244 59.5965L124.816 59.661L124.685 64.4057C124.529 66.2357 124.442 67.4114 124.028 69.2364C122.609 70.2052 121.554 69.9482 119.792 69.8818L119.733 64.2443L119.666 59.6097Z" fill="#8A8FA3"/>
<path d="M119.666 59.6097L124.244 59.5965C124.185 62.2745 124.67 62.694 123.246 64.3563C122.082 64.336 120.892 64.3348 119.733 64.2443L119.666 59.6097Z" fill="#B0BAC3"/>
<path d="M119.081 59.4895L119.666 59.6097L119.733 64.2443L119.792 69.8818C119.788 72.3332 119.373 73.3432 120.464 75.2124C122.264 75.7516 122.986 75.6478 124.83 75.5757L124.961 80.6342C123.015 80.5823 122.073 80.5507 120.1 80.195C118.911 78.453 119.31 77.8911 119.243 75.4688L119.165 70.1033L119.081 59.4895Z" fill="#474957"/>
<path d="M113.939 75.5118L119.243 75.4688C119.31 77.8911 118.911 78.453 120.1 80.195C122.073 80.5507 123.015 80.5823 124.961 80.6342L124.811 81.093L124.788 86.2597L114.03 86.2344L108.87 86.3306L108.516 86.2249L103.478 86.2337C103.693 85.0485 103.845 82.5534 103.967 81.2493L109.002 81.1563L109.011 75.5921L113.939 75.5118Z" fill="#343C46"/>
<path d="M114.03 86.2344C113.95 84.3949 113.628 83.0939 114.665 81.6878C117.027 80.3583 121.707 81.0411 124.811 81.093L124.788 86.2597L114.03 86.2344Z" fill="#10111B"/>
<path d="M109.011 75.5921L113.939 75.5118C114.005 78.3866 114.503 78.7061 113.202 80.6987C111.423 81.0765 110.824 81.1189 109.002 81.1563L109.011 75.5921Z" fill="#8A8FA3"/>
<path d="M109.002 81.1563C108.888 82.5086 108.759 84.9897 108.516 86.2249L103.478 86.2337C103.693 85.0485 103.845 82.5534 103.967 81.2493L109.002 81.1563Z" fill="#6F6F7D"/>
<path d="M11.337 129.223C11.2723 127.154 11.1735 126.479 11.8433 124.443C15.8364 123.813 32.9911 124.133 38.0115 124.145C38.2339 126.822 38.6306 126.725 37.63 128.843C35.7136 129.918 32.6306 129.529 30.2953 129.46L11.337 129.223Z" fill="#040713"/>
<path d="M135.749 64.76L141.028 64.7385C141.468 67.8246 141.694 83.4666 140.929 86.2407H135.545L135.715 81.2005L135.473 75.5535L135.612 74.9796L135.513 69.4496L135.749 64.76Z" fill="#191D27"/>
<path d="M135.749 64.76L141.028 64.7385C140.752 67.8746 141.223 72.6927 140.116 74.7328C138.488 75.6598 137.528 75.5884 135.612 74.9796L135.513 69.4496L135.749 64.76Z" fill="#10111B"/>
<path d="M135.715 81.2005C138.486 81.1727 138.964 80.6367 140.57 82.0997L140.929 86.2407H135.545L135.715 81.2005Z" fill="#10111B"/>
<path d="M124.685 64.4057L129.941 64.6987C129.965 65.9307 129.932 68.5922 130.058 69.6939L135.513 69.4496L135.612 74.9796L135.473 75.5535L129.877 75.6003L129.183 75.4725L124.83 75.5757C122.986 75.6478 122.264 75.7516 120.464 75.2124C119.373 73.3432 119.788 72.3332 119.792 69.8818C121.554 69.9482 122.609 70.2052 124.028 69.2364C124.442 67.4114 124.529 66.2357 124.685 64.4057Z" fill="#474957"/>
<path d="M130.058 69.6939L135.513 69.4496L135.612 74.9796L135.473 75.5535L129.877 75.6003L130.058 69.6939Z" fill="#636876"/>
<path d="M124.685 64.4057C124.738 66.2914 124.869 68.5985 124.839 70.4438L124.83 75.5757C122.986 75.6478 122.264 75.7516 120.464 75.2124C119.373 73.3432 119.788 72.3332 119.792 69.8818C121.554 69.9482 122.609 70.2052 124.028 69.2364C124.442 67.4114 124.529 66.2357 124.685 64.4057Z" fill="#767F8C"/>
<path d="M124.839 70.4438C127.086 70.2299 127.54 69.7749 129.148 70.7557C129.532 72.6218 129.354 73.6178 129.183 75.4725L124.83 75.5757L124.839 70.4438Z" fill="#2D323C"/>
<path d="M16.4891 59.2807L16.9593 59.0909C17.01 62.1004 16.4916 62.8332 17.9276 64.867C19.4036 65.0233 19.7946 65.0803 21.2591 64.9372L21.8643 65.0644L27.0665 64.5955C27.128 66.137 27.159 68.7074 27.346 70.1463C27.372 71.2841 27.4436 72.4212 27.3194 73.5463L27.2414 75.415L22.159 75.4871L16.413 75.4814L16.2096 71.5499C14.7597 70.1002 13.9669 70.5715 11.3674 70.4406C18.8934 69.7046 16.3395 66.0053 16.4891 59.2807Z" fill="#2D323C"/>
<path d="M22.0918 70.0723L27.346 70.1463C27.372 71.2841 27.4436 72.4212 27.3194 73.5463L27.2414 75.415L22.159 75.4871L22.0918 70.0723Z" fill="#595D6A"/>
<path d="M16.413 75.4814C16.6272 73.5596 16.7635 72.663 17.2217 70.7697C19.2458 69.5655 19.3237 70.0084 22.0918 70.0723L22.159 75.4871L16.413 75.4814Z" fill="#040713"/>
<path d="M65.2461 21.6474L70.6879 21.6177L76.2272 21.6309L75.9883 26.7761L75.9852 27.2622C73.2234 27.2185 73.0231 26.7389 71.1993 28.0374C70.9699 29.389 70.7728 30.6564 70.4344 31.9923L70.4103 32.5472L65.2436 32.5193L60.1574 32.3106L59.9831 31.1361L60.1967 28.5461C61.6061 26.928 62.1948 27.3102 64.7683 26.8395L65.0998 26.8104L65.2461 21.6474Z" fill="#A76457"/>
<path d="M64.7683 26.8395L65.0998 26.8104L65.191 27.5147C65.4698 29.9041 65.089 30.2901 66.4673 31.7923C68.006 31.9436 68.8919 32.0176 70.4344 31.9923L70.4103 32.5472L65.2436 32.5193L60.1574 32.3106L59.9831 31.1361L60.1967 28.5461C61.6061 26.928 62.1948 27.3102 64.7683 26.8395Z" fill="#925C41"/>
<path d="M70.6879 21.6177L76.2272 21.6309L75.9883 26.7761C74.2931 26.7249 73.2659 26.6376 71.5872 26.3984C70.3628 24.6747 70.7684 24.0659 70.6879 21.6177Z" fill="#E6AD7F"/>
<path d="M65.191 27.5147C66.9128 26.9046 67.1638 26.83 68.9857 26.8464C70.5491 28.3835 70.3089 29.5079 70.4344 31.9923C68.8919 32.0176 68.006 31.9436 66.4673 31.7923C65.089 30.2901 65.4698 29.9041 65.191 27.5147Z" fill="#CD9D86"/>
<path d="M65.2461 21.6474L65.3564 17.121C66.6277 16.0801 82.3166 16.3535 84.944 16.6433C85.4713 16.6996 85.996 16.7711 86.5188 16.8572C86.9656 18.7916 86.9352 19.2763 86.8718 21.2715L86.4263 21.6158L81.8508 21.5828L76.2272 21.6309L70.6879 21.6177L65.2461 21.6474Z" fill="#201314"/>
<path d="M11.3642 48.3537L16.4733 47.8538C16.4523 51.4961 16.3256 55.6864 16.4891 59.2807C16.3395 66.0053 18.8934 69.7046 11.3674 70.4406C11.3021 63.078 11.3008 55.7162 11.3642 48.3537Z" fill="#020205"/>
<path d="M103.272 113.351C105.78 113.305 111.942 112.722 113.201 114.686C115.674 118.544 113.801 118.631 119.498 118.953C119.231 121.105 119.591 123.567 117.47 124.46L113.927 124.073L113.366 120.613C111.934 118.785 110.421 119.169 107.451 118.612C106.378 118.645 105.247 118.517 104.171 118.429C102.797 116.713 103.291 116.026 103.272 113.351Z" fill="#020205"/>
<path d="M119.498 118.953C119.231 121.105 119.591 123.567 117.47 124.46C115.308 123.625 113.657 123.185 114.09 120.616C116.321 118.793 116.141 119.337 119.498 118.953Z" fill="#020205"/>
<path d="M129.877 75.6003L135.473 75.5535L135.715 81.2005L135.545 86.2407L135.061 86.1857L130.124 86.2863L129.974 81.0107L124.811 81.093L124.961 80.6342L124.83 75.5757L129.183 75.4725L129.877 75.6003Z" fill="#343C46"/>
<path d="M124.83 75.5757L129.183 75.4725L129.877 75.6003L129.974 81.0107L124.811 81.093L124.961 80.6342L124.83 75.5757Z" fill="#636876"/>
<path d="M129.974 81.0107C132.922 81.0993 133.14 80.5918 134.976 82.0813C135.138 83.7842 135.187 84.4841 135.061 86.1857L130.124 86.2863L129.974 81.0107Z" fill="#636876"/>
<path d="M124.811 81.093L129.974 81.0107L130.124 86.2863L135.061 86.1857L135.545 86.2407L135.635 86.7425L135.432 91.4264C132.475 91.7137 128.249 92.5421 125.776 91.2392C124.32 89.1117 124.804 89.3218 124.788 86.2597L124.811 81.093Z" fill="#10111B"/>
<path d="M124.811 81.093L129.974 81.0107L130.124 86.2863L124.788 86.2597L124.811 81.093Z" fill="#2D323C"/>
<path d="M27.2167 47.998C27.2883 51.7346 27.5741 61.019 27.0665 64.5955L21.8643 65.0644C22.5785 58.8574 21.0696 54.7462 22.6057 49.4295C24.1698 47.6868 24.1115 48.241 27.2167 47.998Z" fill="#020205"/>
<path d="M16.9593 59.0909C16.8199 55.4321 16.3193 50.9962 18.0747 47.7785L19.6152 47.3684C22.5069 51.9814 21.5455 59.4984 21.2591 64.9372C19.7946 65.0803 19.4036 65.0233 17.9276 64.867C16.4916 62.8332 17.01 62.1004 16.9593 59.0909Z" fill="#595D6A"/>
<path d="M38.6566 96.9963L43.6509 96.9545L43.708 102.564V107.827L38.6382 107.949L38.097 108.331L37.8327 107.884C37.9766 106.372 37.872 104.195 37.8461 102.624L38.123 101.007L38.6566 96.9963Z" fill="#2D323C"/>
<path d="M38.6382 107.949C38.5533 106.105 38.4342 105.203 38.8904 103.365C40.7365 102.195 41.2251 102.599 43.708 102.564V107.827L38.6382 107.949Z" fill="#636876"/>
<path d="M87.143 97.069C87.4276 99.8261 86.9948 100.921 88.5993 102.468L92.119 102.741L91.3098 107.853L86.9612 107.849L81.6684 107.794C81.4402 105.441 81.6284 104.771 82.0505 102.473L84.0835 102.46C87.4295 101.778 86.7666 100.133 87.143 97.069Z" fill="#2D323C"/>
<path d="M82.0505 102.473L84.0835 102.46L86.3946 102.998C87.4897 104.838 87.0486 105.389 86.9612 107.849L81.6684 107.794C81.4402 105.441 81.6284 104.771 82.0505 102.473Z" fill="#131821"/>
<path d="M43.7048 38.0196C47.194 37.8715 51.0787 37.6178 54.5395 37.6361L54.497 42.9541L49.3442 43.1933C47.1129 43.2287 45.8677 43.0863 43.6706 42.8339L43.7048 38.0196Z" fill="#040713"/>
<path d="M27.5183 38.0911L38.7529 38.0626C38.6395 39.2605 38.4342 42.2276 38.1426 43.2452L27.9353 43.2274L27.5183 38.0911Z" fill="#767F8C"/>
<path d="M87.143 97.069C91.0252 97.4512 94.1501 97.4911 98.0253 97.5323C97.9695 100.052 98.3833 100.56 97.1615 102.394C95.0316 102.903 94.2394 102.813 92.119 102.741L88.5993 102.468C86.9948 100.921 87.4276 99.8261 87.143 97.069Z" fill="#040713"/>
<path d="M130.548 129.423C130.501 127.493 130.36 126.828 131.062 125C134.052 123.346 137.053 124.05 140.77 124.206L140.76 129.735C138.327 129.423 133.187 129.474 130.548 129.423Z" fill="#020205"/>
<path d="M108.87 86.3306L114.03 86.2344C114.155 88.2119 114.567 89.9691 113.5 91.4783C111.749 92.2598 110.361 91.9978 108.42 91.8991C108.266 89.3699 108.169 88.8073 108.87 86.3306Z" fill="#020205"/>
<path d="M140.77 124.206C143.362 124.149 144.237 123.661 146.071 124.874C146.559 126.774 146.522 127.346 146.51 129.319L146.067 129.687L140.76 129.735L140.77 124.206Z" fill="#90C4D7"/>
<path d="M38.6382 107.949L43.708 107.827L43.8087 113.287C41.8049 113.453 40.9842 113.649 39.0191 113.113C37.808 111.313 38.1971 110.791 38.097 108.331L38.6382 107.949Z" fill="#020205"/>
<path d="M146.525 108.246C143.432 108.306 143.032 108.55 140.96 106.891C140.275 104.811 140.227 105.655 141.081 103.727C143.226 102.182 143.139 102.686 146.281 102.571L146.525 108.246Z" fill="#90C4D7"/>
<path d="M135.59 91.7941C137.803 91.5865 139.085 91.4309 141.316 91.5789L141.041 95.1852C139.623 97.1735 140.384 96.566 138.182 97.5259L136.522 96.8615C135.157 94.7284 135.621 94.7574 135.59 91.7941Z" fill="#90C4D7"/>
<path d="M98.0253 97.5323C98.0709 94.7784 97.6077 94.0829 98.8922 92.1579C100.725 91.6321 101.466 91.7244 103.346 91.7725C103.282 94.734 103.804 95.4585 102.345 97.3632C100.53 97.5816 99.8472 97.6278 98.0253 97.5323Z" fill="#040713"/>
<path d="M124.681 128.77C124.899 125.428 124.335 126.023 126.227 124.013C128.159 123.499 127.337 123.408 129.311 124.543C130.396 126.727 130.013 126.487 129.848 129.219L129.143 129.864C126.424 129.698 126.74 130.098 124.681 128.77Z" fill="#90C4D7"/>
<path d="M135.635 86.7425C138.517 86.8501 139.424 86.3578 141.278 87.7942C141.447 89.4958 141.506 89.8976 141.316 91.5789C139.085 91.4309 137.803 91.5865 135.59 91.7941L135.432 91.4264L135.635 86.7425Z" fill="#48515C"/>
<path d="M21.9904 38.5056C23.0303 37.9949 26.1793 38.1126 27.5183 38.0911L27.9353 43.2274C25.8599 43.242 24.1958 43.1123 22.1355 42.9522L21.9904 38.5056Z" fill="#636876"/>
<path d="M22.159 75.4871L27.2414 75.415L27.3276 79.0212C26.0209 81.0303 26.7471 80.4627 24.6533 81.2897L23.1026 80.6127C21.6558 78.2929 22.1286 78.6593 22.159 75.4871Z" fill="#020205"/>
<path d="M130.413 64.6727L135.749 64.76L135.513 69.4496L130.058 69.6939C129.932 68.5922 129.965 65.9307 129.941 64.6987L130.413 64.6727Z" fill="#6F6F7D"/>
<path d="M108.516 86.2249L108.87 86.3306C108.169 88.8073 108.266 89.3699 108.42 91.8991L104.238 91.3651C102.824 89.5129 103.304 89.4971 103.252 86.6413L103.478 86.2337L108.516 86.2249Z" fill="#10111B"/>
<path d="M55.7702 33.2598C53.767 31.6626 54.1732 29.2897 55.3925 27.4065C57.3881 26.4718 56.5769 26.5193 58.4743 27.0306C60.0117 28.8245 59.5484 28.4379 59.7607 31.2323C58.2588 32.7421 57.8722 32.7738 55.7702 33.2598Z" fill="#10111B"/>
<path d="M130.413 64.6727C130.565 61.5183 130.052 61.8334 131.688 59.7673L133.368 59.2351C135.341 60.2894 134.767 59.6756 135.751 61.4657L135.749 64.76L130.413 64.6727Z" fill="#10111B"/>
<path d="M64.7683 26.8395L61.6872 26.773C59.8342 25.5739 60.3938 26.2611 59.6048 24.1621L60.312 22.6605C62.3919 21.2412 62.2734 21.7107 65.2461 21.6474L65.0998 26.8104L64.7683 26.8395Z" fill="#10111B"/>
<path d="M32.9284 102.682L37.8461 102.624C37.872 104.195 37.9766 106.372 37.8327 107.884C36.2345 107.978 35.4487 107.922 33.8511 107.776C32.4113 105.936 32.9335 105.614 32.9284 102.682Z" fill="#020205"/>
<path d="M11.3642 48.3537C11.4485 45.4783 11.0093 45.7004 12.3725 43.6166C14.5404 42.6529 13.6931 42.656 15.5924 43.3673C16.9466 45.3574 16.5126 45.0176 16.4733 47.8538L11.3642 48.3537Z" fill="#10111B"/>
<path d="M22.1355 42.9522L18.2527 42.5579C16.5588 41.2031 17.0474 41.9201 16.4067 39.8496C17.3022 37.9892 16.7363 38.5745 18.5107 37.6102C20.3637 37.6076 20.4898 37.5444 21.9904 38.5056L22.1355 42.9522Z" fill="#020205"/>
<path d="M124.816 59.661C127.181 59.6591 127.8 59.2592 129.558 60.3501C130.036 62.1567 129.97 62.8674 129.941 64.6987L124.685 64.4057L124.816 59.661Z" fill="#767F8C"/>
<path d="M27.9955 75.4187L32.9588 75.737L33.026 80.5425C31.4094 80.5361 30.3916 80.4589 28.7845 80.2767C27.5316 78.4327 27.9911 78.1081 27.9955 75.4187Z" fill="#474957"/>
<path d="M21.8789 32.3979C27.6216 32.3694 37.623 32.0366 43.009 32.6864C43.9323 33.8115 43.7453 35.9307 43.796 37.5051C36.86 37.4513 29.7028 37.7183 22.8003 37.3013C21.7338 35.6972 22.0253 34.5684 21.8789 32.3979Z" fill="#10111B"/>
<path d="M125.15 97.8467C125.724 97.2006 126.546 96.8273 127.411 96.8184C128.276 96.8096 129.105 97.1658 129.693 97.7999C130.648 100.995 130.889 107.108 126.917 108.282L125.542 107.372C123.964 104.476 124.753 101.149 125.15 97.8467Z" fill="#426283"/>
<path d="M125.15 97.8467C125.724 97.2006 126.546 96.8273 127.411 96.8184C128.276 96.8096 129.105 97.1658 129.693 97.7999C130.818 99.0129 130.776 100.897 129.598 102.059C128.421 103.221 126.533 103.241 125.332 102.103C124.131 100.966 124.05 99.0825 125.15 97.8467Z" fill="#90C4D7"/>
<path d="M119.285 53.9729C122.406 53.9786 126.505 53.1762 129.177 54.2583C130.875 56.0623 130.32 55.8371 130.375 59.0523C127.224 58.9093 123.124 59.6617 120.518 58.5353C118.928 56.7452 119.435 56.9514 119.285 53.9729Z" fill="#10111B"/>
<path d="M136.044 113.99C137.151 112.814 138.999 112.744 140.191 113.833C141.384 114.923 141.478 116.766 140.404 117.972C139.695 118.766 138.614 119.118 137.573 118.894C136.532 118.669 135.693 117.902 135.376 116.887C135.06 115.872 135.315 114.765 136.044 113.99Z" fill="#90C4D7"/>
</svg>
