<svg width="168" height="172" viewBox="0 0 168 172" fill="none" xmlns="http://www.w3.org/2000/svg">
<path d="M62.9929 0.165654C68.5777 0.147988 102.878 -0.516931 104.99 0.948378L105.118 3.58112C106.949 6.32085 113.874 2.73168 117.292 5.02485C117.366 11.8626 121.589 6.42194 125.685 8.87656L125.749 11.9019C127.05 13.907 131.24 11.8253 133.916 13.1621C134.083 14.2893 134.147 15.1073 134.211 16.2458C135.468 17.1124 135.993 16.7871 137.796 16.7772C139.382 17.872 137.781 19.0896 138.935 20.7384C138.95 20.7546 141.577 20.8934 141.651 20.9195C143.237 21.5176 141.887 23.4482 143.011 24.7447C143.866 25.7364 146.483 24.5356 146.793 25.837C147.151 27.3553 146.15 28.1341 147.544 29.5425L149.828 29.5229C151.984 30.6736 149.774 31.2537 151.512 33.4752C159.085 33.725 152.833 37.9486 155.923 41.7189C157.386 41.7621 157.833 41.7228 159.193 42.2302C160.038 43.7274 159.203 47.1242 159.463 49.7226C160.824 51.16 161.128 49.6358 163.299 50.8381C163.967 53.5366 163.427 58.778 163.594 62.163C165.146 63.7648 165.642 62.1513 167.552 63.435C167.596 63.7599 167.635 64.0862 167.665 64.4125C168.421 71.8573 167.67 94.9441 167.606 103.715C167.591 105.884 164.016 102.622 163.486 106.886C162.994 110.849 164.895 119.072 162.862 121.564L160.028 121.849C158.403 124.017 160.343 127.263 158.884 129.658L156.139 130.034C154.42 131.614 156.134 131.995 154.921 133.98C147.117 134.324 153.251 138.202 150.599 142.696C149.204 142.874 148.679 142.757 147.274 142.562C146.459 143.442 146.783 144.593 146.778 146.132C145.256 147.705 145.074 145.992 142.864 147.271L142.643 150.06C141.612 151.099 141.076 150.729 139.176 150.76C138.331 151.591 138.375 151.531 138.498 153.203C138.778 156.967 132.978 153.6 130.375 155.735L130.262 158.618C129.039 159.689 128.583 159.376 126.648 159.539C125.071 161.336 126.888 161.287 125.39 163.192C122.405 164.01 118.029 163.101 114.174 163.543C112.867 164.756 113.712 164.727 113.118 167.122C111.134 167.936 103.487 167.617 100.909 167.617C100.874 169.232 100.884 169.924 100.521 171.553C96.6214 172.338 89.0731 171.636 84.7071 171.749C81.5788 171.828 69.4765 172.593 67.5317 170.988C67.5194 170.66 67.4212 169.104 67.4079 168.888C67.1815 165.257 57.9983 169.369 54.9706 166.94L54.8562 164.243C52.6094 161.604 45.4167 165.232 42.3954 162.668L42.2185 160.001C41.1877 159.021 40.5237 159.328 38.7553 159.224C37.3031 158.023 38.3609 157.996 37.7112 155.251C35.7148 154.294 34.0038 155.203 31.7447 155.139C27.6725 155.025 30.7674 152.817 28.7686 150.771L26.4967 150.78C24.4365 149.547 26.5876 148.917 24.7872 146.862L21.845 146.698C20.8539 145.734 21.181 145.33 21.1329 143.577C20.2882 142.335 19.2348 142.989 17.0115 142.219C16.4482 140.855 16.8912 136.979 16.8308 134.897C15.3771 132.939 15.0549 135.116 12.9741 133.453C12.9393 129.361 12.8558 130.397 9.12629 129.547C8.32383 127.994 8.86602 124.832 8.68725 122.439C6.94677 120.929 6.86575 122.508 4.76185 121.385C3.23303 116.857 5.23526 111.032 4.53347 106.304C4.13715 103.635 2.6992 105.653 0.574669 104.151C-0.0534564 100.03 -0.409516 64.7119 0.819233 63.0984L3.45549 62.9629C6.28917 61.1993 2.88678 54.0921 4.87134 50.6683L7.82929 50.4352C9.92484 47.9551 8.09498 46.2419 8.57578 43.3118C9.64492 42.0551 10.8275 41.9755 12.483 41.5633C13.2825 40.0087 12.6421 37.8564 12.8504 35.943C13.3091 31.7321 14.6262 34.8561 17.0292 32.9266L17.2664 30.0077C18.2678 29.2284 18.8748 29.5234 20.4203 29.5244C22.1784 27.8068 20.1767 27.1792 21.7217 25.4189L24.5981 25.2374C26.2183 23.2612 24.4955 23.0713 25.9889 20.7894C27.1087 20.7546 28.0688 20.6878 29.1846 20.5853C29.6678 19.3889 29.578 18.5448 29.5961 17.2586C31.1451 16.0485 31.4672 17.6316 33.4994 16.3449L33.6438 13.1768C36.0399 11.8307 39.5686 13.7838 42.1027 12.3607C42.2726 11.0446 42.2829 10.1976 42.2883 8.88833C44.1525 7.43087 48.8799 9.28236 50.5315 7.74295L50.5904 5.30897C51.9867 3.34066 58.6706 4.90608 62.2665 4.25587C63.3617 2.78762 62.9668 2.42103 62.9929 0.165654Z" fill="#870523"/>
<path d="M67.268 16.8798C76.3977 16.8337 91.4599 16.3081 100.133 17.0859C101.611 18.3451 99.9904 18.932 101.312 21.0755C104.17 21.7419 109.184 20.4503 112.253 21.2188C113.732 21.5883 112.484 22.9054 113.535 25.0401C116.246 26.0078 119.728 23.9855 121.722 25.8748L121.712 28.6086C123.013 30.6564 123.568 28.4781 125.778 30.0273L125.926 33.1886C127.939 34.7638 128.313 32.7695 130.13 34.3973L130.164 37.1856C131.23 38.2637 131.652 37.8829 133.621 37.9109C135.213 39.2309 133.548 39.835 134.834 41.7528C136.067 41.9667 136.696 41.9613 137.953 41.9814C139.343 43.9478 137.634 43.8658 138.935 46.1722C140.011 46.2562 141.096 46.3082 142.176 46.3283C143.198 48.1032 142.81 51.3803 142.766 53.6342C144.156 55.6491 144.205 53.5695 146.65 55.0882C147.441 58.623 146.434 62.4624 146.837 66.0658C147.102 68.4635 149.273 66.3838 150.805 67.9899C151.095 71.7582 151.355 102.791 150.452 104.318L147.122 104.711C146.464 105.855 146.832 110.613 146.754 112.492C145.285 113.752 144.416 112.269 142.849 113.46C142.27 115.225 142.952 118.136 142.805 120.688C141.666 122.056 141.469 121.101 138.866 121.672C138.248 122.67 138.783 127.006 138.419 129.237C137.388 130.037 136.573 129.747 134.996 129.772C134.078 130.696 134.368 131.728 134.284 133.379C133.238 134.493 132.88 134.116 130.886 134.18C129.324 135.783 131.092 136.11 129.668 138.014L126.653 138.064C124.865 139.793 126.751 140.397 125.297 142.375L122.252 142.46L121.683 143.097C121.707 144.522 121.756 144.747 121.368 146.093C119.517 147.093 116.727 146.042 113.879 146.483C112.862 147.706 113.226 147.988 113.231 149.945C110.618 152.678 105.52 149.101 101.375 151.132C100.393 152.729 100.757 152.901 100.776 155.108C91.5286 154.902 76.3043 155.727 67.927 154.86C66.9831 153.697 67.3048 153.459 67.3068 151.671C65.7436 149.282 59.6043 151.623 55.64 150.7C54.6578 149.601 55.005 148.879 54.9653 147.038C53.4016 145.391 52.8771 147.28 50.4269 145.918C50.3268 144.625 50.2609 143.974 49.9766 142.711C48.1482 141.782 45.5389 142.773 42.7043 142.299C41.9308 141.377 42.2122 140.228 42.1852 138.738C40.8985 137.35 40.5468 138.486 38.7106 137.951C37.6115 137.63 38.3226 136.251 37.3173 134.197C36.0326 134.404 35.8465 134.432 34.5789 134.158C33.4012 132.906 33.8113 132.865 33.804 130.586C32.6975 129.256 32.3645 130.14 29.7626 129.593C28.3983 126.863 30.8642 123.654 28.7171 121.463C21.6142 121.742 27.6214 116.813 24.6409 113.119C23.2093 113.238 22.7654 113.371 21.4133 112.898C20.6718 111.263 21.4354 108.09 21.293 105.503C19.9036 103.318 19.4759 105.65 17.2458 103.96C16.792 99.8832 16.9757 92.2353 16.9914 87.9335C17.014 81.8623 16.7581 74.1618 17.2384 68.2117C18.4858 66.4157 19.1685 68.2387 21.0578 66.8431C21.8765 63.4581 19.7932 56.8146 21.9049 54.6378C23.2687 54.6755 23.6474 54.7011 24.9714 54.4022C25.8986 52.3451 24.6222 49.9975 25.2729 47.0119C27.0306 45.6825 27.0689 47.163 29.3373 46.1752C29.659 44.7388 29.5996 43.9895 29.5765 42.5531C30.597 41.5957 31.1559 41.9294 32.9254 41.8852C34.8741 40.4401 32.7024 39.7692 34.3402 37.9565L37.1076 37.903C38.8078 36.8602 37.0507 36.1079 38.2765 34.0518C39.5435 33.8585 40.348 33.8089 41.6307 33.7608C43.16 31.9098 41.3434 31.4745 42.6861 29.5322L45.4496 29.4301C46.5565 28.378 46.0841 27.7293 46.2859 25.6505C48.6388 24.3565 51.9494 26.3714 54.8439 24.3594C54.5778 18.5394 62.7331 22.1993 66.5048 21.0117C67.6363 19.4689 67.2361 19.2166 67.268 16.8798Z" fill="#ABABAA"/>
<path d="M67.294 33.514C74.1533 33.485 94.5735 32.9727 100.074 33.7809C101.051 34.7408 100.555 35.4145 100.909 37.3868C102.313 38.1332 106.355 37.747 108.339 37.7519C109.96 38.9026 108.654 38.7898 109.484 41.5589C111.04 42.3735 114.228 41.6418 116.752 41.8048C117.999 42.9143 117.601 43.3525 117.739 45.5132C119.119 47.0928 119.777 45.3459 121.761 46.6615L121.825 49.6957C123.367 51.1973 123.961 49.4282 125.945 50.7115C126.692 52.7225 125.67 54.9238 126.039 57.8339C127.188 59.1382 127.262 58.2623 129.81 58.7417C130.464 59.785 130.061 64.5524 130.223 66.5295C131.294 67.7245 131.79 66.9638 134.039 67.6395C134.805 69.2089 134.422 96.034 134.191 99.5618C132.403 101.829 129.339 98.1941 130.125 105.019C130.346 106.908 130.488 110.819 130.002 112.698C128.971 113.659 128.435 113.332 126.667 113.389C124.727 114.907 126.923 115.479 125.273 117.359L122.508 117.431C121.486 118.494 121.864 119.224 121.845 121.116C119.974 122.783 119.507 120.754 117.636 122.332L117.601 125.136C115.829 126.752 115.347 124.812 113.461 126.448L113.393 129.183C112.376 130.123 111.659 129.828 109.945 129.925C108.423 131.51 110.117 131.622 108.87 133.841C106.498 134.493 99.5631 134.147 96.7393 134.092C96.7933 135.69 96.9553 136.466 96.2973 137.925C94.9811 138.721 74.9489 138.532 72.238 138.216C70.6699 137.133 72.0715 136.894 71.102 134.324C68.9957 133.617 64.0753 134.438 61.4685 134.252C56.7651 133.915 60.252 132.12 58.2503 129.886L55.6061 129.929C53.9054 128.077 55.7761 128.109 54.259 125.827C53.1496 125.741 52.1448 125.7 51.0325 125.671C49.7634 124.022 51.3183 123.569 50.1018 121.841C48.8686 121.682 47.9974 121.641 46.7534 121.607C45.2688 119.704 47.0167 119.698 45.6588 117.517L42.6851 117.359C41.7108 116.246 42.0187 115.681 41.9205 113.886C40.9844 113.015 40.4663 113.324 38.8633 113.317C36.15 111.578 39.045 104.355 37.6007 100.9C36.3621 100.487 36.1617 100.507 34.8235 100.438L34.4438 100.42C33.0206 98.4861 33.7259 74.2604 33.7524 70.2713C33.7804 66.0692 35.566 67.8226 37.3085 66.3882C38.1163 64.1215 37.9749 61.6262 37.999 59.2045C39.0558 58.041 39.1187 58.7334 40.7791 58.5655C44.1138 58.2279 40.5557 53.0287 42.7593 50.3567L45.7221 50.2698C46.6125 49.3531 46.2697 48.5964 46.2697 46.9388C47.8899 45.3051 48.1777 47.1032 50.4647 45.7031C50.5276 44.5632 50.6111 43.4247 50.7162 42.2876C51.9165 41.4284 56.2667 41.846 58.2075 41.8421C59.6759 40.336 58.319 39.3325 59.0645 38.3324C60.3104 36.661 64.1268 38.3712 66.4242 37.6277C67.622 35.9367 67.2257 35.9789 67.294 33.514Z" fill="#870523"/>
<path d="M71.4674 50.5299C75.5038 50.4602 94.6767 49.626 96.5723 51.267C96.5723 52.6111 96.479 53.0405 96.9505 54.2668C98.4877 54.863 102.029 54.3267 104.474 54.5946C106.002 56.3519 104.18 56.899 105.623 58.7285L108.541 58.8521C109.405 59.8321 109.081 60.5815 109.091 62.2175C110.284 63.754 110.196 62.6023 113.005 63.3526C113.781 64.757 113.206 68.463 113.324 70.8116C114.675 72.2264 115.505 70.6487 117.155 71.9619C117.582 74.8542 117.891 94.4165 116.826 96.0845C115.789 96.1748 114.758 96.2941 113.727 96.4427C112.867 97.9316 113.417 99.8852 113.388 101.721C113.295 106.865 111.256 103.085 109.022 105.297L109.017 108.593C107.465 110.271 107.136 108.308 105.132 109.767L105.024 112.518C104.017 113.413 103.286 113.081 101.591 113.097C99.9217 114.325 101.208 114.448 100.251 117.01C99.0917 117.426 98.6792 117.447 97.4416 117.607C96.2875 118.904 96.6313 119.027 96.4054 121.13C95.0204 121.921 81.127 121.019 78.0281 121.525C69.4588 122.927 72.3215 118.917 70.7823 117.339L68.0095 117.319C66.3299 115.657 68.2453 114.939 66.8049 113.34L63.8459 113.251C62.2484 111.56 63.8789 110.865 62.5976 109.179C61.5245 109.173 60.4519 109.134 59.3818 109.062C58.3642 107.313 59.7943 106.754 58.6849 104.746C57.5529 104.644 56.4199 104.551 55.2864 104.466C54.4972 102.938 54.8837 98.9965 54.9107 97.0051C53.46 95.3803 52.5917 97.1028 50.8537 95.7866C50.3886 92.832 49.9059 73.0925 51.4273 71.4942C52.7661 71.4731 53.1432 71.478 54.4319 71.1394C55.3518 69.0789 54.236 66.8343 54.6603 63.8394C55.7201 62.7711 56.3074 63.1249 58.2277 63.0405C59.1804 62.0792 58.82 61.0771 58.9285 59.2516C60.0762 58.5391 60.8575 58.8737 62.4536 58.9537L63.1697 58.2706L63.2154 55.3591C66.1964 52.5429 67.7556 55.7743 70.5991 54.4479C71.6923 52.8535 71.3432 52.7779 71.4674 50.5299Z" fill="#ABABAA"/>
<path d="M75.7297 67.0203C79.2755 67.0252 88.7195 66.6409 91.6269 67.1959C92.6287 68.3643 92.28 68.9449 92.3291 70.8381C94.1708 72.428 94.6079 70.2836 96.5772 72.0345L96.6803 74.7404C97.913 76.2616 98.6939 74.6216 100.54 75.8273C100.928 78.1121 101.208 90.6963 100.167 92.1165L97.4317 92.2824C95.7178 93.4086 97.3827 94.2286 96.1009 96.4722C94.7552 96.5674 94.3722 96.6003 93.0805 96.984C92.0738 98.3379 92.4127 98.7344 92.3586 100.716C87.4034 100.631 81.1859 101.184 76.4615 100.581C75.16 99.4008 75.9851 99.7026 75.715 97.8286C75.4694 96.1223 73.9421 97.2784 71.7773 95.6321C71.769 94.892 71.7537 94.1515 71.7306 93.412C69.8266 91.6856 70.6453 92.8393 67.5533 92.141C67.0583 89.9985 66.8775 76.7273 67.9639 75.4784L70.7985 75.3832C71.764 74.414 71.4438 73.8139 71.5185 72.0737C72.842 70.6354 72.4541 71.4319 75.0913 70.9745C76.0146 69.4125 75.6904 69.1059 75.7297 67.0203Z" fill="#870523"/>
</svg>
