<svg width="168" height="184" viewBox="0 0 168 184" fill="none" xmlns="http://www.w3.org/2000/svg">
<path d="M11.0884 0.0587822L107.713 0.0999224C113.12 0.0967568 142.101 -0.27677 145.676 0.441184C146.511 2.19238 146.288 3.27246 146.219 5.21929C147.444 5.24652 150.404 5.15095 151.332 5.64225L151.848 10.7496C154.416 10.8642 155.23 10.4178 156.844 11.7892C157.055 13.4194 157.125 14.3602 157.139 16.0044C159.713 16.1051 160.139 15.6626 161.824 17.0174C161.758 19.7246 161.334 19.2346 162.757 20.8104C164.368 20.9845 165.431 21.1035 167.007 21.4707C167.199 21.7702 167.489 22.026 167.584 22.3691C168.032 23.9804 168.303 173.113 167.408 177.469C165.965 178.311 164.914 178.089 163.219 178.039C159.86 181.432 166.815 183.718 155.741 183.762L60.2601 183.648C53.3013 183.642 28.1654 184.572 22.7261 183.433C20.8714 180.622 23.1754 180.229 21.123 178.14L17.226 178.102C15.147 175.525 17.7456 175.329 15.5658 172.577C14.2903 172.475 13.3144 172.446 12.0344 172.439C10.8425 170.86 11.0225 169.583 11.0631 167.41L11.1892 162.296C9.25398 162.259 7.62993 162.021 5.72326 161.777L5.54519 157.841L4.94638 156.991C3.63408 156.806 2.43394 156.598 1.13114 156.357C0.903023 155.983 0.588735 155.648 0.448063 155.233C0.0393551 154.03 -0.310417 20.8933 0.443 11.6549C2.47577 10.5185 2.93767 10.9249 5.59269 10.8927L5.58892 5.48519C6.96206 5.31171 8.33579 5.14842 9.71146 4.99457C11.1556 3.43963 10.79 2.57225 11.0884 0.0587822Z" fill="#343C46"/>
<path d="M92.4499 21.6056L97.3728 21.7924L97.5096 22.1242L97.661 26.6895L92.365 27.248L92.2389 26.8415L92.4499 21.6056Z" fill="#5C443F"/>
<path d="M151.848 10.7496C154.416 10.8642 155.23 10.4178 156.844 11.7892C157.055 13.4194 157.125 14.3602 157.139 16.0044C159.713 16.1051 160.139 15.6626 161.824 17.0174C161.758 19.7246 161.334 19.2346 162.757 20.8104C164.368 20.9845 165.431 21.1035 167.007 21.4707C167.199 21.7702 167.489 22.026 167.584 22.3691C168.032 23.9804 168.303 173.113 167.408 177.469C165.965 178.311 164.914 178.089 163.219 178.039C159.86 181.432 166.815 183.718 155.741 183.762L60.2601 183.648C53.3013 183.642 28.1654 184.572 22.7261 183.433C20.8714 180.622 23.1754 180.229 21.123 178.14L17.226 178.102C15.147 175.525 17.7456 175.329 15.5658 172.577C14.2903 172.475 13.3144 172.446 12.0344 172.439C10.8425 170.86 11.0225 169.583 11.0631 167.41L11.1892 162.296C9.25398 162.259 7.62993 162.021 5.72326 161.777C7.37647 161.647 9.45483 161.41 11.077 161.477C11.5212 160.163 11.4059 158.021 11.4135 156.561C11.1847 154.841 10.9338 153.122 10.6607 151.407C10.4909 150.131 10.6632 147.751 10.7184 146.378C10.738 144.097 10.9046 142.172 11.1017 139.907L11.2487 133.762L11.2494 124.328C20.1237 124.246 29.6558 124.01 38.475 124.226C42.5748 124.305 45.7348 123.361 49.2503 124.134L54.772 124.082L55.3683 124.26L59.3134 124.206C59.3711 122.016 59.3337 121.408 60.0732 119.252L60.2835 118.685C66.4389 118.09 73.8191 119.126 80.6828 118.455C81.8253 117.158 81.4376 115.554 81.5073 113.405L86.7951 113.475L90.9544 113.397L92.0931 113.546L92.5474 118.61C94.207 118.513 95.9248 118.334 97.5628 118.53C97.6211 121.337 97.1737 121.42 98.4911 123.407C100.549 124.053 101.135 124.069 103.232 124.214L108.219 124.386L108.095 119.252L109.45 119.18L109.35 118.529C115.954 117.756 138.496 118.442 146.447 118.519C146.06 105.294 146.343 92.6678 146.288 79.4775C146.094 58.3586 146.077 37.2385 146.238 16.1197L151.23 15.9734L151.849 12.0424L151.848 10.7496Z" fill="#9E9B9E"/>
<path d="M90.9544 113.397L92.0931 113.546L92.5474 118.61C94.207 118.513 95.9248 118.334 97.5628 118.53C97.6211 121.337 97.1737 121.42 98.4911 123.407C100.549 124.053 101.135 124.069 103.232 124.214L108.219 124.386L113.82 124.329L113.571 127.498L114.309 129.349C119.06 130.802 127.315 128.603 129.936 129.867C130.41 131.477 130.247 131.943 130.072 133.658C131.536 135.263 137.464 135.59 140.277 136.088C137.655 136.441 137.256 136.065 135.481 137.479L136.211 138.832L136.562 138.936C137.834 139.323 137.996 139.343 139.078 140.06C136.109 140.69 136.903 140.08 135.178 142.187C135.512 146.243 139.939 146.261 141.179 149.855C139.005 151.632 131.037 151.431 127.966 151.429C91.4753 151.399 54.9659 151.485 18.4787 151.241C17.9984 151.237 17.2412 150.939 16.8065 150.78C16.1051 149.07 16.1811 148.657 16.0892 146.768C12.6421 143.198 11.5896 149.011 11.1017 139.907L11.2487 133.762L11.2494 124.328C20.1237 124.246 29.6558 124.01 38.475 124.226C42.5748 124.305 45.7348 123.361 49.2503 124.134L54.772 124.082L55.3683 124.26L59.3134 124.206C59.3711 122.016 59.3337 121.408 60.0732 119.252L60.2835 118.685C66.4389 118.09 73.8191 119.126 80.6828 118.455C81.8253 117.158 81.4376 115.554 81.5073 113.405L86.7951 113.475L90.9544 113.397Z" fill="#191D27"/>
<path d="M90.9544 113.397L92.0931 113.546L92.5474 118.61C94.207 118.513 95.9248 118.334 97.5628 118.53C97.6211 121.337 97.1737 121.42 98.4911 123.407C100.549 124.053 101.135 124.069 103.232 124.214L108.219 124.386C108.267 125.711 108.272 127.655 108.447 128.912C102.554 129.089 97.725 127.734 97.7048 134.859C95.4033 134.916 92.7876 135.014 90.5077 134.86C86.7241 134.604 87.0625 136.348 85.4004 139.386C82.4241 141.486 80.4022 140.747 77.0818 140.093C75.4109 139.764 75.9304 136.921 75.7625 135.291C73.2095 133.822 68.3494 135.676 65.5594 134.253C65.337 132.626 65.1855 132.03 64.6868 130.464C62.3417 129.248 62.5001 129.692 59.4744 129.838L59.2856 129.156L59.3134 124.206C59.3711 122.016 59.3337 121.408 60.0732 119.252L60.2835 118.685C66.4389 118.09 73.8191 119.126 80.6828 118.455C81.8253 117.158 81.4376 115.554 81.5073 113.405L86.7951 113.475L90.9544 113.397Z" fill="#252A33"/>
<path d="M90.9544 113.397L92.0931 113.546L92.5474 118.61C90.5812 118.54 89.1289 118.247 87.5118 119.243C87.4307 120.689 87.3325 121.351 87.0397 122.77C83.8676 125.493 84.4702 122.707 81.4287 124.659C81.3305 125.96 81.3013 126.957 81.3083 128.262C79.529 129.616 79.4935 129.212 76.9 129.477C75.2575 128.545 74.8494 127.225 75.2094 125.476C76.6427 123.984 78.5006 123.817 80.6005 123.306C81.9445 121.894 81.5174 121.886 81.5599 119.493C82.8804 118.112 83.6256 118.517 86.0208 118.308C86.9073 117.14 86.6893 115.223 86.7951 113.475L90.9544 113.397Z" fill="#343C46"/>
<path d="M60.0732 119.252C63.7382 119.137 67.852 118.296 70.4373 121.228C69.2669 125.052 62.6274 124.251 59.3134 124.206C59.3711 122.016 59.3337 121.408 60.0732 119.252Z" fill="#343C46"/>
<path d="M11.2494 124.328C20.1237 124.246 29.6558 124.01 38.475 124.226C38.4959 126.954 38.93 127.071 37.7235 129.068C32.5256 131.666 26.855 125.826 27.0147 134.046C24.7614 136.162 24.1107 133.672 21.7117 135.844C21.6971 137.068 21.6692 138.114 21.5843 139.336C20.0572 140.192 19.7188 140.039 17.8812 139.949C14.2472 135.983 19.1251 134.935 11.2487 133.762L11.2494 124.328Z" fill="#252A33"/>
<path d="M54.772 124.082L55.3683 124.26L59.3134 124.206L59.2856 129.156L59.4744 129.838C59.4078 132.941 59.9446 132.862 58.3357 134.689C55.7136 135.738 52.0707 134.888 48.9671 134.953L43.7781 135.019C40.1333 135.075 39.966 135.539 37.657 132.578C38.0112 129.288 45.3394 129.656 48.1814 129.509C48.5033 127.718 48.7929 126.38 49.232 124.612L49.2503 124.134L54.772 124.082Z" fill="#252A33"/>
<path d="M54.772 124.082L55.3683 124.26L59.3134 124.206L59.2856 129.156L59.4744 129.838C57.0449 130.292 52.8121 130.378 50.5107 129.288C48.8163 127.525 49.3593 127.753 49.232 124.612L49.2503 124.134L54.772 124.082Z" fill="#2D323C"/>
<path d="M59.3134 124.206L59.2856 129.156C56.9778 129.399 55.8873 129.817 54.3145 128.728C54.5388 126.831 54.8081 126.055 55.3683 124.26L59.3134 124.206Z" fill="#343C46"/>
<path d="M97.7048 134.859C97.725 127.734 102.554 129.089 108.447 128.912L108.591 130.027L108.384 130.407C106.629 129.671 106.445 129.47 104.66 129.793C101.173 133.679 104.051 134.759 97.7048 134.859Z" fill="#191D27"/>
<path d="M108.219 124.386L113.82 124.329L113.571 127.498L113.373 129.824L108.591 130.027L108.447 128.912C108.272 127.655 108.267 125.711 108.219 124.386Z" fill="#10111B"/>
<path d="M43.7781 135.019L48.9671 134.953L48.9658 138.565C47.8272 140.42 48.4824 139.824 46.4243 140.761L44.804 140.067C43.358 137.827 43.8275 138.107 43.7781 135.019Z" fill="#252A33"/>
<path d="M108.591 130.027L113.373 129.824C113.53 132.72 113.896 132.142 112.702 134.481L111.023 135.242C108.851 134.401 109.506 134.978 108.386 133.183L108.384 130.407L108.591 130.027Z" fill="#252A33"/>
<path d="M151.849 12.0424C151.328 56.8569 152.168 102.25 151.861 147.199C149.689 151.487 152.808 151.812 146.399 151.686C146.263 153.806 146.58 155.018 145.474 156.44C135.208 157.231 114.573 156.472 103.579 156.464L11.4135 156.561C11.1847 154.841 10.9338 153.122 10.6607 151.407C10.4909 150.131 10.6632 147.751 10.7184 146.378C10.738 144.097 10.9046 142.172 11.1017 139.907C11.5896 149.011 12.6421 143.198 16.0892 146.768C16.1811 148.657 16.1051 149.07 16.8065 150.78C17.2412 150.939 17.9984 151.237 18.4787 151.241C54.9659 151.485 91.4753 151.399 127.966 151.429C131.037 151.431 139.005 151.632 141.179 149.855C139.939 146.261 135.512 146.243 135.178 142.187C136.903 140.08 136.109 140.69 139.078 140.06C137.996 139.343 137.834 139.323 136.562 138.936L136.211 138.832L135.481 137.479C137.256 136.065 137.655 136.441 140.277 136.088C137.464 135.59 131.536 135.263 130.072 133.658C130.247 131.943 130.41 131.477 129.936 129.867C127.315 128.603 119.06 130.802 114.309 129.349L113.571 127.498L113.82 124.329L108.219 124.386L108.095 119.252L109.45 119.18L109.35 118.529C115.954 117.756 138.496 118.442 146.447 118.519C146.06 105.294 146.343 92.6678 146.288 79.4775C146.094 58.3586 146.077 37.2385 146.238 16.1197L151.23 15.9734L151.849 12.0424Z" fill="#252A33"/>
<path d="M146.183 124.132L146.3 129.191C143.357 129.511 143.276 129.061 141.234 130.596C140.926 131.686 140.619 132.704 140.409 133.82L140.277 136.088C137.464 135.59 131.536 135.263 130.072 133.658C130.247 131.943 130.41 131.477 129.936 129.867C127.315 128.603 119.06 130.802 114.309 129.349L113.571 127.498L113.82 124.329C122.866 124.26 131.913 124.238 140.959 124.265L146.183 124.132Z" fill="#252A33"/>
<path d="M146.183 124.132L146.3 129.191C143.357 129.511 143.276 129.061 141.234 130.596C140.926 131.686 140.619 132.704 140.409 133.82C140.297 131.204 141.043 127.984 140.959 124.265L146.183 124.132Z" fill="#191D27"/>
<path d="M109.45 119.18C116.154 118.786 138.832 118.619 145.143 119.37C146.277 120.447 146.146 122.494 146.183 124.132L140.959 124.265C131.913 124.238 122.866 124.26 113.82 124.329L108.219 124.386L108.095 119.252L109.45 119.18Z" fill="#020205"/>
<path d="M151.849 12.0424C151.328 56.8569 152.168 102.25 151.861 147.199C149.689 151.487 152.808 151.812 146.399 151.686C146.3 150.484 146.34 149.013 146.338 147.788C147.722 146.175 148.018 146.528 150.4 145.894C152.513 142.688 150.936 31.9881 151.23 15.9734L151.849 12.0424Z" fill="#191D27"/>
<path d="M140.409 133.82C140.619 132.704 140.926 131.686 141.234 130.596C143.276 129.061 143.357 129.511 146.3 129.191C146.368 132.234 146.967 137.204 145.475 139.452C143.09 140.666 142.075 140.3 139.078 140.06C137.996 139.343 137.834 139.323 136.562 138.936L136.211 138.832L135.481 137.479C137.256 136.065 137.655 136.441 140.277 136.088L140.409 133.82Z" fill="#131821"/>
<path d="M146.399 151.686C152.808 151.812 149.689 151.487 151.861 147.199C152.178 150.99 152.015 152.953 151.743 156.694C151.663 158.283 151.625 160.589 151.405 162.099C148.456 162.158 148.566 161.66 146.731 163.158C146.42 164.76 146.404 165.986 145.284 167.082C130.729 167.752 113.717 167.376 98.9746 167.374L11.0631 167.41L11.1892 162.296C9.25398 162.259 7.62993 162.021 5.72326 161.777C7.37647 161.647 9.45483 161.41 11.077 161.477C11.5212 160.163 11.4059 158.021 11.4135 156.561L103.579 156.464C114.573 156.472 135.208 157.231 145.474 156.44C146.58 155.018 146.263 153.806 146.399 151.686Z" fill="#131821"/>
<path d="M11.1892 162.296C21.3885 161.714 36.9466 162.222 47.6326 162.229L119.345 162.226C126.838 162.216 137.705 162.62 145.268 161.785C146.987 161.596 145.229 159.771 147.065 156.714C148.864 156.238 149.087 156.208 150.832 156.839C151.202 158.687 151.276 160.236 151.405 162.099C148.456 162.158 148.566 161.66 146.731 163.158C146.42 164.76 146.404 165.986 145.284 167.082C130.729 167.752 113.717 167.376 98.9746 167.374L11.0631 167.41L11.1892 162.296Z" fill="#020205"/>
<path d="M151.848 10.7496C154.416 10.8642 155.23 10.4178 156.844 11.7892C157.055 13.4194 157.125 14.3602 157.139 16.0044C156.561 48.1338 157.346 80.6469 156.998 112.784C156.856 125.944 157.569 142.999 156.766 155.845C155.182 156.877 153.887 156.579 151.743 156.694C152.015 152.953 152.178 150.99 151.861 147.199C152.168 102.25 151.328 56.8569 151.849 12.0424L151.848 10.7496Z" fill="#020205"/>
<path d="M11.0884 0.0587822L107.713 0.0999224C113.12 0.0967568 142.101 -0.27677 145.676 0.441184C146.511 2.19238 146.288 3.27246 146.219 5.21929C147.444 5.24652 150.404 5.15095 151.332 5.64225L151.848 10.7496L151.849 12.0424L151.23 15.9734L146.238 16.1197L145.832 16.0519C141.301 16.0893 141.59 16.7091 140.023 12.238C137.417 9.83155 123.857 10.8053 119.848 10.823L88.5427 10.8414C66.1157 10.8395 43.5341 10.818 21.0913 10.7705C19.1333 10.7667 17.821 10.7705 16.5905 11.9804L16.4682 15.4384C13.6484 17.7708 11.1081 13.7911 10.9535 20.1457C10.1595 52.7347 11.7715 85.7638 10.9287 118.309L11.2766 118.92L11.2494 124.328L11.2487 133.762L11.1017 139.907C10.9046 142.172 10.738 144.097 10.7184 146.378C10.6632 147.751 10.4909 150.131 10.6607 151.407C10.9338 153.122 11.1847 154.841 11.4135 156.561C11.4059 158.021 11.5212 160.163 11.077 161.477C9.45483 161.41 7.37647 161.647 5.72326 161.777L5.54519 157.841L4.94638 156.991C3.63408 156.806 2.43394 156.598 1.13114 156.357C0.903023 155.983 0.588735 155.648 0.448063 155.233C0.0393551 154.03 -0.310417 20.8933 0.443 11.6549C2.47577 10.5185 2.93767 10.9249 5.59269 10.8927L5.58892 5.48519C6.96206 5.31171 8.33579 5.14842 9.71146 4.99457C11.1556 3.43963 10.79 2.57225 11.0884 0.0587822Z" fill="#52656C"/>
<path d="M4.94638 156.991C3.63408 156.806 2.43394 156.598 1.13114 156.357C0.903023 155.983 0.588735 155.648 0.448063 155.233C0.0393551 154.03 -0.310417 20.8933 0.443 11.6549C2.47577 10.5185 2.93767 10.9249 5.59269 10.8927L5.57309 140.411L5.60602 146.202L10.7184 146.378C10.6632 147.751 10.4909 150.131 10.6607 151.407C10.9338 153.122 11.1847 154.841 11.4135 156.561C11.4059 158.021 11.5212 160.163 11.077 161.477C9.45483 161.41 7.37647 161.647 5.72326 161.777L5.54519 157.841L4.94638 156.991Z" fill="#020205"/>
<path d="M5.47298 151.42L10.6607 151.407C10.9338 153.122 11.1847 154.841 11.4135 156.561C11.4059 158.021 11.5212 160.163 11.077 161.477C9.45483 161.41 7.37647 161.647 5.72326 161.777L5.54519 157.841L4.94638 156.991L5.47298 151.42Z" fill="#10111B"/>
<path d="M5.54519 157.841C7.06849 156.807 7.37839 156.487 9.18938 156.497C10.9852 158.06 10.8489 158.653 11.077 161.477C9.45483 161.41 7.37647 161.647 5.72326 161.777L5.54519 157.841Z" fill="#020205"/>
<path d="M5.60602 146.202L10.7184 146.378C10.6632 147.751 10.4909 150.131 10.6607 151.407L5.47298 151.42L5.60602 146.202Z" fill="#252A33"/>
<path d="M11.0884 0.0587822L107.713 0.0999224C113.12 0.0967568 142.101 -0.27677 145.676 0.441184C146.511 2.19238 146.288 3.27246 146.219 5.21929C113.412 5.92649 80.136 4.75395 47.2816 5.24461C36.1489 5.41112 23.0182 5.78909 11.9933 5.08949C11.1169 4.07208 11.1917 1.5523 11.0884 0.0587822Z" fill="#020205"/>
<path d="M146.219 5.21929C147.444 5.24652 150.404 5.15095 151.332 5.64225L151.848 10.7496L151.849 12.0424L151.23 15.9734L146.238 16.1197L145.832 16.0519C146.05 14.8579 146.115 12.3013 146.19 10.9813L146.219 5.21929Z" fill="#343C46"/>
<path d="M146.219 5.21929C147.444 5.24652 150.404 5.15095 151.332 5.64225C151.172 8.56724 151.688 9.15031 150.133 10.8116L146.19 10.9813L146.219 5.21929Z" fill="#020205"/>
<path d="M5.57309 140.411C7.32831 140.522 8.03166 140.721 9.59045 139.976C12.3088 135.572 9.92819 125.142 10.8432 118.863L10.9287 118.309L11.2766 118.92L11.2494 124.328L11.2487 133.762L11.1017 139.907C10.9046 142.172 10.738 144.097 10.7184 146.378L5.60602 146.202L5.57309 140.411Z" fill="#474957"/>
<path d="M5.58892 5.48519C8.89027 5.85873 8.72869 5.30984 10.8274 7.13448L11.3381 8.63815C9.71971 11.5328 8.78378 11.0826 5.59269 10.8927L5.58892 5.48519Z" fill="#020205"/>
<path d="M92.2572 53.9806L140.876 53.9965C140.729 72.7158 141.462 95.2693 140.651 113.389C135.801 113.359 111.44 112.377 108.517 114.771C108.307 116.451 107.954 117.195 109.35 118.529L109.45 119.18L108.095 119.252L108.219 124.386L103.232 124.214C101.135 124.069 100.549 124.053 98.4911 123.407C97.1737 121.42 97.6211 121.337 97.5628 118.53C95.9248 118.334 94.207 118.513 92.5474 118.61L92.0931 113.546L90.9544 113.397L86.7951 113.475L81.5073 113.405L81.2969 108.177C84.8865 107.638 88.6486 107.847 92.2895 107.921L92.2572 53.9806Z" fill="#151214"/>
<path d="M81.2969 108.177C84.699 108.571 89.5407 108.178 91.8808 109.117C92.811 110.764 92.2078 112.025 90.9544 113.397L86.7951 113.475L81.5073 113.405L81.2969 108.177Z" fill="#020205"/>
<path d="M97.5628 118.53C99.4061 118.788 101.231 119.065 103.085 119.235L103.232 124.214C101.135 124.069 100.549 124.053 98.4911 123.407C97.1737 121.42 97.6211 121.337 97.5628 118.53Z" fill="#191D27"/>
<path d="M92.0931 113.546C94.5048 113.506 95.3178 113.077 97.1155 114.163C97.7244 115.982 97.6249 116.65 97.5628 118.53C95.9248 118.334 94.207 118.513 92.5474 118.61L92.0931 113.546Z" fill="#191D27"/>
<path d="M103.085 119.235L108.095 119.252L108.219 124.386L103.232 124.214L103.085 119.235Z" fill="#040713"/>
<path d="M97.5711 59.5147C105.882 58.9835 127.233 58.6645 135.467 59.3748L135.422 64.6043C135.437 70.3144 135.67 77.6452 135.377 83.2281C135.41 86.0663 135.496 89.0527 135.46 91.8764L135.352 97.8037L135.441 102.312C135.436 104.779 135.844 105.631 134.738 107.516C132.93 108.053 132.36 107.979 130.461 107.939L124.38 107.952L97.4563 107.966C97.4291 102.308 97.4494 96.6514 97.5172 90.9939L97.5888 74.6589C97.4785 69.8054 97.2295 64.2935 97.5711 59.5147Z" fill="#85AA89"/>
<path d="M97.5711 59.5147C105.882 58.9835 127.233 58.6645 135.467 59.3748L135.422 64.6043C135.437 70.3144 135.67 77.6452 135.377 83.2281C134.615 78.9032 135.869 75.1071 134.547 71.8174C132.738 70.1049 133.054 70.6379 129.939 70.4385L128.161 70.196C124.439 70.2834 104.561 69.5629 103.091 71.0229C102.564 73.8795 103.078 73.7959 101.313 75.2787L98.2605 75.5737L98.0653 74.7975L97.5888 74.6589C97.4785 69.8054 97.2295 64.2935 97.5711 59.5147Z" fill="#925C41"/>
<path d="M107.698 59.787C112.618 59.6426 120.942 58.9373 124.958 61.5191L124.624 61.4077L124.91 62.8974C120.573 65.5173 112.859 64.874 107.672 64.7867C107.803 63.4907 107.71 61.1678 107.698 59.787Z" fill="#CD9D86"/>
<path d="M98.0653 74.7975C98.2478 72.9197 98.0013 71.4034 99.0836 70.3651C103.347 69.4059 124.61 69.0247 128.161 70.196C124.439 70.2834 104.561 69.5629 103.091 71.0229C102.564 73.8795 103.078 73.7959 101.313 75.2787L98.2605 75.5737L98.0653 74.7975Z" fill="#937055"/>
<path d="M135.467 59.3748L135.422 64.6043L131.915 64.7152C130.151 63.7123 130.735 64.3011 129.772 62.3922L130.32 60.8968C132.559 59.1444 132.178 59.6749 135.467 59.3748Z" fill="#CD9D86"/>
<path d="M97.5711 59.5147L103.014 59.8832L103.109 64.8918C101.647 64.8715 100.394 64.7785 98.936 64.6645C97.3011 62.8968 97.8144 62.5353 97.5711 59.5147Z" fill="#CD9D86"/>
<path d="M103.014 59.8832L107.698 59.787C107.71 61.1678 107.803 63.4907 107.672 64.7867L103.109 64.8918L103.014 59.8832Z" fill="#BC7D53"/>
<path d="M97.5172 90.9939L97.8638 91.5346L102.562 92.2101C102.64 94.6134 102.662 99.7575 103.007 101.928L103.053 102.381C108.853 102.857 118.938 102.845 124.789 102.503L125.136 102.751C124.626 104.956 124.471 105.647 124.38 107.952L97.4563 107.966C97.4291 102.308 97.4494 96.6514 97.5172 90.9939Z" fill="#77584E"/>
<path d="M97.8638 91.5346L102.562 92.2101C102.64 94.6134 102.662 99.7575 103.007 101.928L103.053 102.381L99.5798 103.318L98.493 102.605C97.3094 100.35 97.8549 94.6014 97.8638 91.5346Z" fill="#796247"/>
<path d="M135.46 91.8764L135.352 97.8037L135.441 102.312C135.436 104.779 135.844 105.631 134.738 107.516C132.93 108.053 132.36 107.979 130.461 107.939L124.38 107.952C124.471 105.647 124.626 104.956 125.136 102.751L124.789 102.503L124.687 99.0237C127.165 94.8141 129.429 100.383 129.934 92.4278L130.365 92.4177C131.792 91.865 133.866 91.9353 135.46 91.8764Z" fill="#937055"/>
<path d="M135.46 91.8764L135.352 97.8037L134.819 97.47C132.329 97.47 132.069 97.0129 130.537 98.3203C129.754 101.205 130.238 101.437 128.322 102.777L125.136 102.751L124.789 102.503L124.687 99.0237C127.165 94.8141 129.429 100.383 129.934 92.4278L130.365 92.4177C131.792 91.865 133.866 91.9353 135.46 91.8764Z" fill="#4E3F30"/>
<path d="M135.46 91.8764L135.352 97.8037L134.819 97.47C132.58 96.5919 132.479 97.5187 130.614 95.9119L130.365 92.4177C131.792 91.865 133.866 91.9353 135.46 91.8764Z" fill="#5C443F"/>
<path d="M130.461 107.939C130.384 106.318 130.402 105.228 130.488 103.607C132.114 102.165 132.865 102.563 135.441 102.312C135.436 104.779 135.844 105.631 134.738 107.516C132.93 108.053 132.36 107.979 130.461 107.939Z" fill="#925C41"/>
<path d="M129.939 70.4385C133.054 70.6379 132.738 70.1049 134.547 71.8174C135.869 75.1071 134.615 78.9032 135.377 83.2281C135.41 86.0663 135.496 89.0527 135.46 91.8764C133.866 91.9353 131.792 91.865 130.365 92.4177L129.934 92.4278C130.043 85.1958 129.946 77.6928 129.939 70.4385Z" fill="#937055"/>
<path d="M103.091 71.0229C102.379 80.9026 103.703 91.4801 103.007 101.928C102.662 99.7575 102.64 94.6134 102.562 92.2101L97.8638 91.5346L97.5172 90.9939L97.5888 74.6589L98.0653 74.7975L98.2605 75.5737L101.313 75.2787C103.078 73.7959 102.564 73.8795 103.091 71.0229Z" fill="#768184"/>
<path d="M97.5888 74.6589L98.0653 74.7975L98.2605 75.5737C98.1813 78.1499 97.5964 84.9806 99.4283 86.2183C102.64 88.388 103.214 86.1531 102.562 92.2101L97.8638 91.5346L97.5172 90.9939L97.5888 74.6589Z" fill="#52656C"/>
<path d="M113.976 80.6304C113.822 77.9087 113.436 78.2486 114.589 76.1619C117.309 74.6152 121.008 75.4762 124.192 75.9207C123.981 77.903 124.402 80.305 122.329 80.8527C122.176 82.6881 121.997 84.4209 122.01 86.2664L121.921 91.5859L124.61 91.8872L119.397 91.9531C119.181 95.0174 119.686 94.8603 118.072 96.8445C115.599 98.0417 111.469 97.1674 108.451 97.1965C108.058 91.7289 106.992 86.5653 109 81.6054C110.981 80.205 111.061 80.683 113.976 80.6304Z" fill="#937055"/>
<path d="M108.451 97.1965C108.058 91.7289 106.992 86.5653 109 81.6054C110.981 80.205 111.061 80.683 113.976 80.6304L113.932 81.0951L113.931 86.3019L113.803 91.8816L119.397 91.9531C119.181 95.0174 119.686 94.8603 118.072 96.8445C115.599 98.0417 111.469 97.1674 108.451 97.1965Z" fill="#4E3F30"/>
<path d="M113.803 91.8816L119.397 91.9531C119.181 95.0174 119.686 94.8603 118.072 96.8445C115.599 98.0417 111.469 97.1674 108.451 97.1965C108.576 95.6859 108.728 94.369 108.937 92.8673C110.577 91.5434 111.278 91.9797 113.803 91.8816Z" fill="#020205"/>
<path d="M113.932 81.0951L113.931 86.3019C110.776 86.4203 110.142 86.8603 108.478 84.0112L109.031 82.3847C111.044 80.8026 110.884 81.2983 113.932 81.0951Z" fill="#312717"/>
<path d="M113.976 80.6304C113.822 77.9087 113.436 78.2486 114.589 76.1619C117.309 74.6152 121.008 75.4762 124.192 75.9207C123.981 77.903 124.402 80.305 122.329 80.8527L118.972 80.4994C117.742 80.343 115.308 80.5564 113.976 80.6304Z" fill="#2C2C2E"/>
<path d="M124.192 75.9207C123.981 77.903 124.402 80.305 122.329 80.8527L118.972 80.4994C119.01 78.7184 118.953 78.393 119.498 76.7298C121.233 76.0904 122.371 76.0865 124.192 75.9207Z" fill="#020205"/>
<path d="M122.01 86.2664L121.921 91.5859L124.61 91.8872L119.397 91.9531L113.803 91.8816L113.931 86.3019L118.908 86.3354L119.05 86.7141L122.01 86.2664Z" fill="#553431"/>
<path d="M122.01 86.2664L121.921 91.5859L119.873 91.2668C118.526 89.5289 119.008 89.484 119.05 86.7141L122.01 86.2664Z" fill="#312717"/>
<path d="M113.976 80.6304C115.308 80.5564 117.742 80.343 118.972 80.4994L122.329 80.8527C122.176 82.6881 121.997 84.4209 122.01 86.2664L119.05 86.7141L118.908 86.3354C119.017 84.4424 119.12 83.7067 118.714 81.8251C116.85 80.5772 116.655 81.0419 113.932 81.0951L113.976 80.6304Z" fill="#553431"/>
<path d="M124.192 75.9207C124.81 79.8302 124.636 87.6435 124.61 91.8872L121.921 91.5859L122.01 86.2664C121.997 84.4209 122.176 82.6881 122.329 80.8527C124.402 80.305 123.981 77.903 124.192 75.9207Z" fill="#2C2C2E"/>
<path d="M43.5069 64.7272L48.5451 64.7645C48.5793 66.1048 48.5527 69.197 48.9018 70.334L54.3475 70.4188L54.9361 70.4347L59.3952 70.3144C59.4186 71.8339 59.5308 74.1733 59.3534 75.6123L59.4953 75.9244L59.4915 80.9267L54.3881 81.0559L54.293 86.2094L54.1916 91.8941L48.7713 91.9486C47.1409 91.991 45.4123 91.8613 43.7749 91.7777L43.9194 97.0161C43.6508 98.6046 43.3985 100.017 43.0469 101.596C41.9766 102.327 41.6794 102.206 40.3944 102.144C38.0397 103.773 37.4561 104.459 37.3807 107.351C35.5146 107.953 34.5755 107.74 32.6347 107.599L32.8393 102.13C31.6848 102.092 30.3218 101.82 29.1565 101.625C26.326 98.6831 29.0222 95.912 27.2973 92.3171L27.0863 90.6659L27.0591 87.092L26.9159 86.417C27.5831 82.6209 26.2993 79.5655 27.5273 76.6304C29.576 75.0995 29.4885 75.6319 32.6619 75.6756L32.7905 75.9207C33.8848 75.6883 36.2598 75.5724 37.4771 75.4749L38.008 75.5249L38.3851 75.3572C40.2962 75.5414 40.7638 75.6085 42.6445 75.2837C44.0753 73.2919 43.5646 72.7576 43.6153 69.7807L43.5069 64.7272Z" fill="#595D6A"/>
<path d="M48.9018 70.334L54.3475 70.4188L54.9361 70.4347L59.3952 70.3144C59.4186 71.8339 59.5308 74.1733 59.3534 75.6123L59.4953 75.9244L59.4915 80.9267L54.3881 81.0559L49.2434 81.173C48.9988 78.5247 49.078 73.4129 48.9018 70.334Z" fill="#343C46"/>
<path d="M54.9361 70.4347L59.3952 70.3144C59.4186 71.8339 59.5308 74.1733 59.3534 75.6123L59.4953 75.9244L59.4915 80.9267L54.3881 81.0559L54.3475 70.4188L54.9361 70.4347Z" fill="#8A8FA3"/>
<path d="M54.9361 70.4347L59.3952 70.3144C59.4186 71.8339 59.5308 74.1733 59.3534 75.6123C57.5747 76.0581 57.3295 76.2309 55.6122 75.8194C54.407 73.8669 54.8899 73.1634 54.9361 70.4347Z" fill="#ABAEBC"/>
<path d="M43.7749 91.7777C43.4296 87.5573 42.4487 83.3149 46.1714 80.4291C48.8423 81.6567 48.706 83.8638 48.9107 86.4292L54.293 86.2094L54.1916 91.8941L48.7713 91.9486C47.1409 91.991 45.4123 91.8613 43.7749 91.7777Z" fill="#343C46"/>
<path d="M27.0591 87.092C28.2326 86.9014 31.3483 86.8292 32.684 86.7666C32.8501 91.8859 32.902 97.0085 32.8393 102.13C31.6848 102.092 30.3218 101.82 29.1565 101.625C26.326 98.6831 29.0222 95.912 27.2973 92.3171L27.0863 90.6659L27.0591 87.092Z" fill="#8A8FA3"/>
<path d="M27.0591 87.092C28.2326 86.9014 31.3483 86.8292 32.684 86.7666C32.2018 89.5643 32.6397 89.7112 31.0169 91.4833C29.1147 91.6258 28.9113 91.4269 27.0863 90.6659L27.0591 87.092Z" fill="#ABAEBC"/>
<path d="M32.6619 75.6756L32.7905 75.9207L32.7931 81.154L32.7506 86.2759C30.9865 86.3012 28.6153 86.2702 26.9159 86.417C27.5831 82.6209 26.2993 79.5655 27.5273 76.6304C29.576 75.0995 29.4885 75.6319 32.6619 75.6756Z" fill="#020205"/>
<path d="M37.4771 75.4749L38.008 75.5249C38.3642 78.0498 38.4617 78.7165 38.2526 81.2591L32.7931 81.154L32.7905 75.9207C33.8848 75.6883 36.2598 75.5724 37.4771 75.4749Z" fill="#ABAEBC"/>
<path d="M32.7931 81.154L38.2526 81.2591C37.9928 84.0188 38.4338 84.4057 36.9644 86.1645C35.13 86.3867 34.5863 86.4355 32.7506 86.2759L32.7931 81.154Z" fill="#767F8C"/>
<path d="M54.3881 81.0559L54.293 86.2094L48.9107 86.4292C49.1661 84.9743 49.1826 82.7109 49.2434 81.173L54.3881 81.0559Z" fill="#767F8C"/>
<path d="M59.4953 75.9244C61.0965 75.2869 63.3327 75.411 65.1266 75.3704C66.43 75.3483 69.0046 75.4104 70.1395 75.0577L70.7953 74.8443L71.102 75.4047C70.5976 77.7225 70.5342 78.0606 70.7497 80.4639L70.3511 80.6475L70.2802 81.0729L70.815 81.1685L70.7814 85.6643C70.8188 88.6324 70.2972 89.1515 71.7413 91.0781C73.3819 91.2731 74.2069 91.3459 75.8557 91.306L75.8386 91.8175C73.2057 91.9068 72.6348 91.4485 70.9208 92.8261L70.6058 94.4754L70.3708 94.5184L69.8651 96.4273C68.2106 97.3117 67.4319 97.1383 65.5569 97.118L65.1868 97.4668L65.0601 102.631L60.5421 102.675L60.0295 102.973L59.4826 102.832L54.5091 102.525L54.2993 107.815L50.4961 107.934L50.4974 108.317C48.585 110.067 49.1515 110.191 48.7023 113.465L32.8659 113.452L32.8995 112.899L32.71 108.338L32.1429 107.857L32.6347 107.599C34.5755 107.74 35.5146 107.953 37.3807 107.351C37.4561 104.459 38.0397 103.773 40.3944 102.144C41.6794 102.206 41.9766 102.327 43.0469 101.596C43.3985 100.017 43.6508 98.6046 43.9194 97.0161L43.7749 91.7777C45.4123 91.8613 47.1409 91.991 48.7713 91.9486L54.1916 91.8941L54.293 86.2094L54.3881 81.0559L59.4915 80.9267L59.4953 75.9244Z" fill="#767F8C"/>
<path d="M59.4953 75.9244C61.0965 75.2869 63.3327 75.411 65.1266 75.3704C66.43 75.3483 69.0046 75.4104 70.1395 75.0577L70.7953 74.8443L71.102 75.4047C70.5976 77.7225 70.5342 78.0606 70.7497 80.4639L70.3511 80.6475L70.2802 81.0729L70.815 81.1685L70.7814 85.6643C68.2398 86.4412 67.6676 86.3532 65.0537 86.2449L59.9826 86.2619L59.5377 86.1397L54.293 86.2094L54.3881 81.0559L59.4915 80.9267L59.4953 75.9244Z" fill="#48515C"/>
<path d="M65.1266 75.3704C66.43 75.3483 69.0046 75.4104 70.1395 75.0577L70.7953 74.8443L71.102 75.4047C70.5976 77.7225 70.5342 78.0606 70.7497 80.4639L70.3511 80.6475C68.5218 80.6981 67.8615 80.6342 66.048 80.3626C64.6907 78.3866 65.1627 78.2385 65.1266 75.3704Z" fill="#2D323C"/>
<path d="M70.2802 81.0729L70.815 81.1685L70.7814 85.6643C68.2398 86.4412 67.6676 86.3532 65.0537 86.2449C65.0778 84.9603 65.1596 83.6289 65.2185 82.3405C66.8895 80.7533 67.3254 81.2679 70.2802 81.0729Z" fill="#6F6F7D"/>
<path d="M54.3881 81.0559L59.4915 80.9267C59.9433 82.997 60.2158 83.9947 59.5377 86.1397L54.293 86.2094L54.3881 81.0559Z" fill="#474957"/>
<path d="M38.2083 108.194C41.3011 108.122 45.5733 107.452 47.8899 108.844C48.8835 110.306 48.6718 111.636 48.7023 113.465L32.8659 113.452L32.8995 112.899L32.71 108.338L38.2083 108.194Z" fill="#8A8FA3"/>
<path d="M32.71 108.338L38.2083 108.194C37.9313 110.57 38.2875 111.103 36.9473 112.666C35.5235 112.785 34.3271 112.885 32.8995 112.899L32.71 108.338Z" fill="#ABAEBC"/>
<path d="M59.5377 86.1397L59.9826 86.2619C59.8584 89.337 60.3805 89.7549 58.8306 91.7233C56.8441 91.993 56.1971 92.0005 54.1916 91.8941L54.293 86.2094L59.5377 86.1397Z" fill="#595D6A"/>
<path d="M50.4961 107.934C48.5305 106.81 48.4539 105.924 48.9481 104.006C51.65 102.198 50.9074 102.731 54.5091 102.525L54.2993 107.815L50.4961 107.934Z" fill="#B0BAC3"/>
<path d="M60.5421 102.675C59.6658 100.708 59.6322 100.027 60.1271 98.3171C61.7163 97.1617 63.1433 97.4403 65.1868 97.4668L65.0601 102.631L60.5421 102.675Z" fill="#ABAEBC"/>
<path d="M43.7749 91.7777C45.4123 91.8613 47.1409 91.991 48.7713 91.9486C48.6965 94.5868 49.1838 95.2573 47.7587 96.8192C46.4838 96.9034 45.195 97.0079 43.9194 97.0161L43.7749 91.7777Z" fill="#48515C"/>
<path d="M65.5569 97.118C65.4004 95.3263 65.3813 95.0085 65.7463 93.2535C67.4109 91.6125 66.6613 91.9094 68.5978 91.6884C70.1933 92.8224 69.6693 92.2202 70.3708 94.5184L69.8651 96.4273C68.2106 97.3117 67.4319 97.1383 65.5569 97.118Z" fill="#ABAEBC"/>
<path d="M48.7023 113.465C49.1515 110.191 48.585 110.067 50.4974 108.317C53.9755 108.337 56.7459 107.916 59.6011 109.776C59.8793 110.885 59.987 110.931 59.5992 112.035C62.0749 114.669 77.2782 113.292 81.5073 113.405C81.4376 115.554 81.8253 117.158 80.6828 118.455C73.8191 119.126 66.4389 118.09 60.2835 118.685L60.0732 119.252C59.3337 121.408 59.3711 122.016 59.3134 124.206L55.3683 124.26L54.772 124.082L49.2503 124.134C45.7348 123.361 42.5748 124.305 38.475 124.226C29.6558 124.01 20.1237 124.246 11.2494 124.328L11.2766 118.92C18.2753 118.251 25.5541 120.674 31.814 118.257C33.2822 116.403 32.7886 116.368 32.8659 113.452L48.7023 113.465Z" fill="#040713"/>
<path d="M54.772 124.082C54.6668 122.179 54.7099 121.654 55.0014 119.767C56.8289 118.348 57.4612 118.819 60.2835 118.685L60.0732 119.252C59.3337 121.408 59.3711 122.016 59.3134 124.206L55.3683 124.26L54.772 124.082Z" fill="#191D27"/>
<path d="M70.2573 48.7511C72.4878 48.8176 74.9039 48.9354 77.1173 48.8695L81.1873 48.9227L81.5459 49.0727L81.5396 54.0149C81.6549 56.1041 81.9724 57.4241 80.8755 59.143C77.8922 59.093 78.6602 58.6986 76.3556 60.1174C73.7393 64.95 78.5956 64.4195 70.9366 64.9722C70.8118 68.3796 70.7243 71.416 70.7953 74.8443L70.1395 75.0577C69.0046 75.4104 66.43 75.3483 65.1266 75.3704C63.3327 75.411 61.0965 75.2869 59.4953 75.9244L59.3534 75.6123C59.5308 74.1733 59.4186 71.8339 59.3952 70.3144L59.3489 69.8402L59.9015 69.8624C59.8444 67.9953 60.1328 66.5917 60.4135 64.7588C61.7087 64.8056 63.9657 64.7879 65.1171 65.1526L65.2996 64.8531L70.1224 64.4904L70.3593 59.4698L70.0533 54.5086L70.0767 53.923L70.2573 48.7511Z" fill="#040713"/>
<path d="M70.2573 48.7511C72.4878 48.8176 74.9039 48.9354 77.1173 48.8695L81.1873 48.9227L81.5459 49.0727L81.5396 54.0149L80.0283 54.0585C77.2542 54.0053 73.5327 53.5216 71.4061 55.0538C70.3314 56.4947 70.4728 57.6413 70.3593 59.4698L70.0533 54.5086L70.0767 53.923L70.2573 48.7511Z" fill="#42302F"/>
<path d="M60.4135 64.7588C61.7087 64.8056 63.9657 64.7879 65.1171 65.1526L65.0645 70.2169L65.1266 75.3704C63.3327 75.411 61.0965 75.2869 59.4953 75.9244L59.3534 75.6123C59.5308 74.1733 59.4186 71.8339 59.3952 70.3144L59.3489 69.8402L59.9015 69.8624C59.8444 67.9953 60.1328 66.5917 60.4135 64.7588Z" fill="#767F8C"/>
<path d="M60.4135 64.7588C61.7087 64.8056 63.9657 64.7879 65.1171 65.1526L65.0645 70.2169C62.8594 70.3682 62.0191 70.1935 59.9015 69.8624C59.8444 67.9953 60.1328 66.5917 60.4135 64.7588Z" fill="#B0BAC3"/>
<path d="M65.2996 64.8531L70.1224 64.4904L70.1395 75.0577C69.0046 75.4104 66.43 75.3483 65.1266 75.3704L65.0645 70.2169L65.1171 65.1526L65.2996 64.8531Z" fill="#020205"/>
<path d="M70.3593 59.4698C70.4728 57.6413 70.3314 56.4947 71.4061 55.0538C73.5327 53.5216 77.2542 54.0053 80.0283 54.0585L76.2105 54.6859C73.9148 57.949 77.5387 57.1848 70.9398 60.3092C70.7281 62.3333 70.7756 62.9526 70.9366 64.9722C70.8118 68.3796 70.7243 71.416 70.7953 74.8443L70.1395 75.0577L70.1224 64.4904L70.3593 59.4698Z" fill="#191D27"/>
<path d="M86.6982 26.3223C88.8634 26.642 90.0268 26.8054 92.2389 26.8415L92.365 27.248L97.661 26.6895L97.6009 31.3125C97.6357 34.1172 98.1211 34.7231 96.8747 36.7301C92.0919 38.8188 92.0044 37.952 92.3117 43.2955L92.1431 48.7922C90.4887 48.8055 88.6264 48.6175 86.9598 48.4959C86.8876 46.7352 87.0302 44.8106 87.1139 43.0372L86.745 43.027L86.586 37.857L81.5535 37.5759L81.48 32.5686C83.3398 32.2185 84.2548 32.0678 86.0721 31.3777C87.2279 29.2986 86.8052 29.3853 86.6925 26.6243L86.6982 26.3223Z" fill="#42302F"/>
<path d="M86.6982 26.3223C88.8634 26.642 90.0268 26.8054 92.2389 26.8415L92.365 27.248C92.2978 28.625 92.2369 31.5512 91.9702 32.775C90.1776 32.4199 88.961 31.9248 87.3831 32.6782C86.3554 34.3781 86.5841 35.8235 86.586 37.857L81.5535 37.5759L81.48 32.5686C83.3398 32.2185 84.2548 32.0678 86.0721 31.3777C87.2279 29.2986 86.8052 29.3853 86.6925 26.6243L86.6982 26.3223Z" fill="#925C41"/>
<path d="M86.586 37.857C86.5841 35.8235 86.3554 34.3781 87.3831 32.6782C88.961 31.9248 90.1776 32.4199 91.9702 32.775L92.4613 33.2727C92.0887 40.3446 89.8297 35.4854 87.1664 39.5165L87.1139 43.0372L86.745 43.027L86.586 37.857Z" fill="#412117"/>
<path d="M92.365 27.248L97.661 26.6895L97.6009 31.3125C95.5516 31.7184 94.0004 31.8329 92.4613 33.2727L91.9702 32.775C92.2369 31.5512 92.2978 28.625 92.365 27.248Z" fill="#553431"/>
<path d="M87.1139 43.0372C89.7099 43.2854 90.3112 42.8511 91.7997 44.3497L92.1431 48.7922C90.4887 48.8055 88.6264 48.6175 86.9598 48.4959C86.8876 46.7352 87.0302 44.8106 87.1139 43.0372Z" fill="#020205"/>
<path d="M26.9159 86.417L27.0591 87.092L27.0863 90.6659L27.2973 92.3171C29.0222 95.912 26.326 98.6831 29.1565 101.625C30.3218 101.82 31.6848 102.092 32.8393 102.13L32.6347 107.599L32.1429 107.857L27.1757 107.818C25.6967 107.916 23.4352 108.246 22.152 107.733C21.4481 102.781 21.794 92.2443 22.197 87.2028C23.4162 86.0499 24.7773 86.4639 26.9159 86.417Z" fill="#040713"/>
<path d="M27.2973 92.3171C29.0222 95.912 26.326 98.6831 29.1565 101.625C30.3218 101.82 31.6848 102.092 32.8393 102.13L32.6347 107.599L32.1429 107.857L27.1757 107.818C27.1434 102.59 27.1117 97.5416 27.2973 92.3171Z" fill="#767F8C"/>
<path d="M77.3543 37.6551L81.5535 37.5759L86.586 37.857L86.745 43.027L81.6042 43.5133C81.5402 44.7029 81.4471 47.93 81.1873 48.9227L77.1173 48.8695C74.9039 48.9354 72.4878 48.8176 70.2573 48.7511L70.3378 45.4988L70.8473 43.766L70.7953 43.3152L74.5142 43.1911C76.1358 42.0344 75.741 40.9081 76.4931 38.2616L77.1579 38.0166L77.3543 37.6551Z" fill="#7D442C"/>
<path d="M77.3543 37.6551L81.5535 37.5759L86.586 37.857L86.745 43.027L81.6042 43.5133L81.506 43.0752L81.3717 39.2702C79.8965 37.8615 79.5962 38.2698 77.1579 38.0166L77.3543 37.6551Z" fill="#5C443F"/>
<path d="M70.8473 43.766C74.8038 44.1186 75.7752 44.5764 77.1173 48.8695C74.9039 48.9354 72.4878 48.8176 70.2573 48.7511L70.3378 45.4988L70.8473 43.766Z" fill="#6D4C41"/>
<path d="M77.1579 38.0166C79.5962 38.2698 79.8965 37.8615 81.3717 39.2702L81.506 43.0752C79.6468 43.369 79.2876 43.424 77.4278 43.193C76.1427 41.3354 76.5799 40.9448 76.4931 38.2616L77.1579 38.0166Z" fill="#925C41"/>
<path d="M97.5096 22.1242C99.3086 21.6177 99.9663 21.2992 101.768 21.8494C104.119 24.7402 104.334 34.3851 102.362 37.5639C98.6426 38.2711 99.1869 37.1106 97.2048 39.0866C97.1332 40.4877 97.1402 40.9999 97.2771 42.3959C95.544 43.5697 94.6575 43.2385 92.3117 43.2955C92.0044 37.952 92.0919 38.8188 96.8747 36.7301C98.1211 34.7231 97.6357 34.1172 97.6009 31.3125L97.661 26.6895L97.5096 22.1242Z" fill="#020205"/>
<path d="M81.4509 21.5803L86.6437 21.6309L86.6982 26.3223L86.6925 26.6243C86.8052 29.3853 87.2279 29.2986 86.0721 31.3777C84.2548 32.0678 83.3398 32.2185 81.48 32.5686L81.5535 37.5759L77.3543 37.6551L76.3037 37.2695C76.0623 34.789 75.5858 31.7108 76.1123 29.3417C79.0702 24.5414 80.591 29.3834 81.4509 21.5803Z" fill="#10111B"/>
<path d="M83.3911 27.2353L86.6925 26.6243C86.8052 29.3853 87.2279 29.2986 86.0721 31.3777C84.2548 32.0678 83.3398 32.2185 81.48 32.5686C81.3919 30.6034 81.096 29.0998 82.0009 27.4176L83.3911 27.2353Z" fill="#6D4C41"/>
<path d="M81.4509 21.5803L86.6437 21.6309L86.6982 26.3223L86.6925 26.6243L83.3911 27.2353C81.2012 26.3293 81.6416 23.755 81.4509 21.5803Z" fill="#020205"/>
<path d="M75.9279 81.2084C78.9467 81.1027 78.7692 80.6178 80.8394 82.0024C82.7061 85.739 82.9824 88.0759 80.2025 91.546C78.306 92.0347 77.7731 91.9207 75.8386 91.8175L75.8557 91.306C74.2069 91.3459 73.3819 91.2731 71.7413 91.0781C70.2972 89.1515 70.8188 88.6324 70.7814 85.6643L70.815 81.1685L75.9279 81.2084Z" fill="#10111B"/>
<path d="M70.815 81.1685L75.9279 81.2084C75.9095 84.3569 75.9888 88.2183 75.8557 91.306C74.2069 91.3459 73.3819 91.2731 71.7413 91.0781C70.2972 89.1515 70.8188 88.6324 70.7814 85.6643L70.815 81.1685Z" fill="#8A8FA3"/>
<path d="M65.1475 53.9667L70.0767 53.923L70.0533 54.5086L70.3593 59.4698L70.1224 64.4904L65.2996 64.8531L65.1171 65.1526C63.9657 64.7879 61.7087 64.8056 60.4135 64.7588C61.9748 63.4565 61.1593 61.5236 60.8247 59.8091C59.6905 58.1288 59.9306 56.0636 59.8787 53.9255L65.1475 53.9667Z" fill="#636876"/>
<path d="M59.8787 53.9255L65.1475 53.9667L65.1152 59.5034L60.8247 59.8091C59.6905 58.1288 59.9306 56.0636 59.8787 53.9255Z" fill="#020205"/>
<path d="M65.1152 59.5034L65.2996 64.8531L65.1171 65.1526C63.9657 64.7879 61.7087 64.8056 60.4135 64.7588C61.9748 63.4565 61.1593 61.5236 60.8247 59.8091L65.1152 59.5034Z" fill="#2D323C"/>
<path d="M70.3593 59.4698C68.4615 59.5077 68.0199 59.5926 66.3293 58.7784C65.1329 56.836 65.2521 57.659 65.7026 55.6958C67.5649 54.1858 67.1993 54.6479 70.0533 54.5086L70.3593 59.4698Z" fill="#8A8FA3"/>
<path d="M86.6437 21.6309C86.7451 18.8009 86.2565 18.7135 87.7171 16.9946C91.4842 15.4194 94.5529 14.4938 97.5767 18.0823C97.5254 19.3156 97.502 20.5679 97.3728 21.7924L92.4499 21.6056L92.2389 26.8415C90.0268 26.8054 88.8634 26.642 86.6982 26.3223L86.6437 21.6309Z" fill="#020205"/>
<path d="M86.6437 21.6309L92.4499 21.6056L92.2389 26.8415C90.0268 26.8054 88.8634 26.642 86.6982 26.3223L86.6437 21.6309Z" fill="#77584E"/>
<path d="M48.9018 70.334C49.0146 68.4853 49.1173 67.4692 49.4614 65.6515C51.4041 64.3049 51.4681 64.7886 54.3481 64.8291C56.7592 64.9424 57.728 64.5049 59.0796 65.8414L59.3489 69.8402L59.3952 70.3144L54.9361 70.4347L54.3475 70.4188L48.9018 70.334Z" fill="#10111B"/>
<path d="M32.6619 75.6756C32.6175 71.549 31.9699 67.3881 34.8955 64.3973L35.6933 64.1662C38.7608 66.7917 38.3667 71.8047 37.4771 75.4749C36.2598 75.5724 33.8848 75.6883 32.7905 75.9207L32.6619 75.6756Z" fill="#10111B"/>
<path d="M38.558 64.7689L43.5069 64.7272L43.6153 69.7807C43.5646 72.7576 44.0753 73.2919 42.6445 75.2837C40.7638 75.6085 40.2962 75.5414 38.3851 75.3572L38.4979 69.8769L38.558 64.7689Z" fill="#8A8FA3"/>
<path d="M38.558 64.7689L43.5069 64.7272L43.6153 69.7807L38.4979 69.8769L38.558 64.7689Z" fill="#B0BAC3"/>
<path d="M38.558 64.7689C38.4668 61.9914 38.0093 62.1029 39.3045 60.2447C42.8352 58.5993 45.7874 57.8243 48.6851 61.176C48.6503 62.2213 48.6503 63.7731 48.5451 64.7645L43.5069 64.7272L38.558 64.7689Z" fill="#040713"/>
<path d="M65.1475 53.9667C65.3116 50.5593 64.1387 46.4225 65.9085 43.9616C68.1067 43.0499 67.1645 43.2418 69.8182 43.5849L70.3378 45.4988L70.2573 48.7511L70.0767 53.923L65.1475 53.9667Z" fill="#10111B"/>
<path d="M54.3481 64.8291C54.4267 62.7031 54.1136 61.8345 55.092 60.1979L57.6685 60.1662C60.3406 57.9769 58.7349 57.3482 59.8787 53.9255C59.9306 56.0636 59.6905 58.1288 60.8247 59.8091C61.1593 61.5236 61.9748 63.4565 60.4135 64.7588C60.1328 66.5917 59.8444 67.9953 59.9015 69.8624L59.3489 69.8402L59.0796 65.8414C57.728 64.5049 56.7592 64.9424 54.3481 64.8291Z" fill="#191D27"/>
<path d="M27.1757 107.818L32.1429 107.857L32.71 108.338L32.8995 112.899L32.8659 113.452C30.7977 113.535 29.9429 113.662 27.905 113.043C26.7251 110.947 27.1624 110.587 27.1757 107.818Z" fill="#020205"/>
<path d="M86.745 43.027L87.1139 43.0372C87.0302 44.8106 86.8876 46.7352 86.9598 48.4959L86.7843 48.7771L81.5459 49.0727L81.1873 48.9227C81.4471 47.93 81.5402 44.7029 81.6042 43.5133L86.745 43.027Z" fill="#42302F"/>
<path d="M76.3037 37.2695L77.3543 37.6551L77.1579 38.0166L76.4931 38.2616C75.741 40.9081 76.1358 42.0344 74.5142 43.1911L70.7953 43.3152C70.5824 41.4298 70.4221 40.67 70.7966 38.7504C72.6982 37.2379 73.4725 37.6247 76.3037 37.2695Z" fill="#201314"/>
<path d="M81.5459 49.0727L86.7843 48.7771C86.8186 51.5691 87.2982 51.8167 86.0024 53.7135C84.1065 54.0231 83.4621 54.0554 81.5396 54.0149L81.5459 49.0727Z" fill="#020205"/>
<path d="M75.8386 91.8175C75.7803 95.2699 76.3259 94.7812 74.5789 97.0801L72.9307 97.7752C71.1172 96.9686 70.7795 96.6564 70.6058 94.4754L70.9208 92.8261C72.6348 91.4485 73.2057 91.9068 75.8386 91.8175Z" fill="#020205"/>
<path d="M60.5421 102.675L65.0601 102.631L65.1152 105.958C64.1013 107.766 64.6983 107.154 62.6294 108.164L60.9407 107.571C59.539 105.575 59.9972 105.898 60.0295 102.973L60.5421 102.675Z" fill="#020205"/>
<path d="M54.5091 102.525L59.4826 102.832C59.304 105.766 59.8178 105.994 58.2406 107.656C56.934 107.716 55.6053 107.797 54.2993 107.815L54.5091 102.525Z" fill="#8A8FA3"/>
<path d="M71.102 75.4047C74.2773 75.6718 73.7602 75.1394 75.7695 76.914C76.3011 78.74 76.3677 77.9593 75.3551 79.846C73.7507 80.9603 72.6697 80.6494 70.7497 80.4639C70.5342 78.0606 70.5976 77.7225 71.102 75.4047Z" fill="#040713"/>
<path d="M66.0537 98.1418C66.7577 97.4042 67.8114 97.113 68.7942 97.3852C69.7776 97.6575 70.5317 98.4482 70.7554 99.4429C70.979 100.437 70.6369 101.474 69.8645 102.141C68.748 103.105 67.07 103.024 66.0524 101.956C65.0341 100.888 65.0347 99.2092 66.0537 98.1418Z" fill="#020205"/>
</svg>
