<svg width="168" height="178" viewBox="0 0 168 178" fill="none" xmlns="http://www.w3.org/2000/svg">
<path d="M99.7955 41.8389L105.153 41.8941L113.475 41.9487C110.892 42.3626 107.05 42.1933 105.577 43.2911C104.883 44.6999 105.055 45.3206 105.11 46.9519L99.6911 46.8519L99.7955 41.8389Z" fill="#C9343B"/>
<path d="M10.3752 5.054C10.5655 2.80136 10.2525 1.97157 11.4185 0.363511C18.1818 -0.268797 32.3221 0.115781 39.6868 0.116395L129.113 0.138417C132.863 0.131671 143.063 -0.135685 146.126 0.333486C147.237 1.98448 146.844 2.77499 146.875 5.08282L151.858 5.11655C151.748 6.96687 151.551 8.74607 151.797 10.5774C151.913 12.9809 152.361 13.4917 151.293 15.2703C149.692 15.6579 148.575 15.8248 146.936 16.0413C146.832 23.8829 146.562 34.0371 147.212 41.8309C135.969 41.7812 124.719 41.8205 113.475 41.9487L105.153 41.8941L99.7955 41.8389L99.6911 46.8519L105.11 46.9519L105.215 47.2813L146.899 47.2935L152.159 47.2555L157.357 47.3365C160.039 47.3371 165.434 47.4947 167.907 47.2218L167.815 130.782C167.815 140.592 168.392 163.197 167.508 171.972C166.078 172.665 165.286 172.505 163.678 172.469C161.647 174.364 163.402 177.823 161.659 177.835C115.679 178.142 69.6061 177.933 23.6194 177.902C22.6559 177.902 22.3367 177.718 21.7721 177.479C21.4407 176.019 21.14 174.548 20.8822 173.076C17.967 171.714 19.9371 174.118 16.3038 172.156C15.5857 168.629 16.7211 168.726 14.8492 166.966C13.4929 166.952 12.6644 166.914 11.3141 166.743C10.2647 165.227 10.633 163.651 10.7373 161.698L10.59 157.394C8.74271 157.327 8.17187 157.318 6.39206 156.841C5.32417 155.125 5.68021 154.356 5.6127 152.078L5.35487 151.865C3.63029 151.87 2.17577 152.077 0.721231 151.262C0.156601 150.062 -0.444821 24.5427 0.475772 11.0355C1.92417 10.1695 3.85125 10.4627 5.64947 10.5025L5.75997 5.29197C7.0488 5.07486 9.00663 5.09325 10.3752 5.054Z" fill="#131821"/>
<path d="M37.8886 120.317L41.8288 120.416C41.9393 121.642 42.1049 124.26 42.3136 125.352L41.9454 125.453L37.0663 125.584L37.0785 120.247L37.8886 120.317Z" fill="#474957"/>
<path d="M84.2497 120.446L89.5154 120.376L89.2945 125.128L88.5458 125.472L84.2497 125.304V120.446Z" fill="#48515C"/>
<path d="M10.3752 5.054C10.5655 2.80136 10.2525 1.97157 11.4185 0.363511C18.1818 -0.268797 32.3221 0.115781 39.6868 0.116395L129.113 0.138417C132.863 0.131671 143.063 -0.135685 146.126 0.333486C147.237 1.98448 146.844 2.77499 146.875 5.08282L151.858 5.11655C151.748 6.96687 151.551 8.74607 151.797 10.5774C151.913 12.9809 152.361 13.4917 151.293 15.2703C149.692 15.6579 148.575 15.8248 146.936 16.0413C146.832 23.8829 146.562 34.0371 147.212 41.8309C135.969 41.7812 124.719 41.8205 113.475 41.9487L105.153 41.8941L99.7955 41.8389L99.6911 46.8519L94.7629 46.8955L94.591 47.2819C93.6827 46.9661 90.9455 47.3715 89.8285 47.4806L89.362 47.4702L89.2638 46.9526C87.797 47.2709 85.7165 46.6434 84.1637 46.3153L84.2865 52.5029L84.2374 57.3492L84.3601 57.8116L78.812 57.7766L78.7507 52.712C77.4741 52.417 75.2218 52.3624 73.8347 52.276L73.2332 52.1368L69.2195 52.3251L68.3847 52.0436L68.3786 57.3485C65.5371 57.9502 60.7132 58.266 57.9023 57.5638L57.8594 52.2631L56.681 52.1914L56.1532 52.0614L53.0048 52.3851L52.3911 52.3937C51.0409 52.4127 48.7087 52.368 47.4567 52.4845C43.6147 52.3048 40.7548 52.0767 36.9128 52.5397L37.189 57.367L37.011 57.7306L37.0663 62.7186L37.0355 63.3736C36.9496 65.1779 36.7594 65.9261 37.68 67.4563C41.2396 68.1003 39.9937 66.8001 42.2461 68.8675C42.332 70.9656 41.9699 71.8082 43.0685 73.1667L43.5718 73.1789C45.2166 73.2292 45.5664 73.1839 47.1498 73.7217C47.6285 75.4488 47.5303 76.0265 47.4874 77.7983C49.6784 79.8602 50.5437 77.5186 52.5506 79.2763C52.612 82.0331 53.0416 81.5179 51.6055 83.1812C48.5921 84.3078 17.5006 83.2481 11.2038 83.7338L10.7004 83.7817L10.6145 141.272L5.72314 141.19L5.80906 145.993C5.74155 147.737 5.75379 150.234 5.35487 151.865C3.63029 151.87 2.17577 152.077 0.721231 151.262C0.156601 150.062 -0.444821 24.5427 0.475772 11.0355C1.92417 10.1695 3.85125 10.4627 5.64947 10.5025L5.75997 5.29197C7.0488 5.07486 9.00663 5.09325 10.3752 5.054Z" fill="#343C46"/>
<path d="M10.3752 5.054C10.5655 2.80136 10.2525 1.97157 11.4185 0.363511C18.1818 -0.268797 32.3221 0.115781 39.6868 0.116395L129.113 0.138417C132.863 0.131671 143.063 -0.135685 146.126 0.333486C147.237 1.98448 146.844 2.77499 146.875 5.08282L151.858 5.11655C151.748 6.96687 151.551 8.74607 151.797 10.5774C151.913 12.9809 152.361 13.4917 151.293 15.2703C149.692 15.6579 148.575 15.8248 146.936 16.0413C145.021 16.3859 143.389 16.1915 141.462 16.0621C141.443 12.9711 141.983 12.9606 140.406 11.1489C135.3 9.25877 128.763 10.7221 123.228 10.6908C103.754 10.5013 84.2804 10.448 64.8007 10.5307L34.4824 10.4645C29.6646 10.4602 21.0909 10.2124 16.5493 10.987C14.8493 13.9057 16.85 14.4105 14.6774 16.0093L11.6641 16.1173C10.1972 17.9952 10.6145 76.9986 10.7004 83.7817L10.6145 141.272L5.72314 141.19L5.80906 145.993C5.74155 147.737 5.75379 150.234 5.35487 151.865C3.63029 151.87 2.17577 152.077 0.721231 151.262C0.156601 150.062 -0.444821 24.5427 0.475772 11.0355C1.92417 10.1695 3.85125 10.4627 5.64947 10.5025L5.75997 5.29197C7.0488 5.07486 9.00663 5.09325 10.3752 5.054Z" fill="#52656C"/>
<path d="M5.35487 151.865C3.63029 151.87 2.17577 152.077 0.721231 151.262C0.156601 150.062 -0.444821 24.5427 0.475772 11.0355C1.92417 10.1695 3.85125 10.4627 5.64947 10.5025L5.65563 96.6166C5.65563 110.981 5.26284 127.024 5.72314 141.19L5.80906 145.993C5.74155 147.737 5.75379 150.234 5.35487 151.865Z" fill="#020205"/>
<path d="M10.3752 5.054C10.5655 2.80136 10.2525 1.97157 11.4185 0.363511C18.1818 -0.268797 32.3221 0.115781 39.6868 0.116395L129.113 0.138417C132.863 0.131671 143.063 -0.135685 146.126 0.333486C147.237 1.98448 146.844 2.77499 146.875 5.08282C101.882 5.08957 55.2511 5.7875 10.3752 5.054Z" fill="#020205"/>
<path d="M146.893 10.6466L151.797 10.5774C151.913 12.9809 152.361 13.4917 151.293 15.2703C149.692 15.6579 148.575 15.8248 146.936 16.0413C145.021 16.3859 143.389 16.1915 141.462 16.0621C143.082 15.8892 144.371 15.7094 145.966 15.4211C147.249 13.7769 146.819 13.1243 146.893 10.6466Z" fill="#474957"/>
<path d="M146.875 5.08282L151.858 5.11655C151.748 6.96687 151.551 8.74607 151.797 10.5774L146.893 10.6466L146.875 5.08282Z" fill="#020205"/>
<path d="M5.75997 5.29197C8.74883 5.67712 8.52785 5.17296 10.4181 6.86627L10.9153 8.40992C9.38094 11.0802 8.55241 10.6503 5.64947 10.5025L5.75997 5.29197Z" fill="#020205"/>
<path d="M73.5463 26.0545C77.8485 26.0011 85.4158 25.6822 89.4603 25.9919L89.7672 26.0815L89.8838 36.792C89.8531 38.1799 89.9083 40.7687 89.5646 42.0027L89.2638 46.9526C87.797 47.2709 85.7165 46.6434 84.1637 46.3153L84.2865 52.5029L84.2374 57.3492L84.3601 57.8116L78.812 57.7766L78.7507 52.712C77.4741 52.417 75.2218 52.3624 73.8347 52.276L73.2332 52.1368L69.2195 52.3251L68.3847 52.0436L68.3786 57.3485C65.5371 57.9502 60.7132 58.266 57.9023 57.5638L57.8594 52.2631L56.681 52.1914L56.1532 52.0614L53.0048 52.3851L52.3911 52.3937C51.0409 52.4127 48.7087 52.368 47.4567 52.4845C43.6147 52.3048 40.7548 52.0767 36.9128 52.5397L36.0168 52.5108C35.1453 52.4164 33.2673 52.3968 32.9666 51.8816C31.3648 49.1432 32.0399 39.493 32.0583 36.3836L31.8926 31.6428L32.3283 30.6603C31.3893 29.6975 31.3463 28.1747 32.2301 27.1597C33.1139 26.1447 34.6298 25.9772 35.7161 26.7751L36.8331 26.2078C36.9129 28.0569 36.7165 29.787 37.7905 31.154C46.7632 31.955 63.9905 31.4515 73.5279 31.4534C72.9817 28.9229 72.9387 28.5892 73.5463 26.0545Z" fill="#474957"/>
<path d="M52.2253 46.6373C52.3297 45.0366 52.4892 44.2835 52.8391 42.7147C54.7784 41.3041 54.6066 41.7757 57.5096 41.7665L68.3419 41.8107C70.6004 41.8757 71.3553 41.488 72.8773 42.6312C73.0307 43.794 73.3744 46.3417 73.8777 47.3334C76.1485 47.2021 76.7193 46.7814 78.4561 47.7406C78.8857 49.7363 78.8857 50.4121 78.9225 52.4059L78.7507 52.712C77.4741 52.417 75.2218 52.3624 73.8347 52.276L73.2332 52.1368L69.2195 52.3251L68.3847 52.0436L68.3786 57.3485C65.5371 57.9502 60.7132 58.266 57.9023 57.5638L57.8594 52.2631L56.681 52.1914L56.1532 52.0614L53.0048 52.3851L52.3911 52.3937C51.0409 52.4127 48.7087 52.368 47.4567 52.4845C47.3892 49.8602 47.3217 49.2505 48.0581 46.7422L52.2253 46.6373Z" fill="#343C46"/>
<path d="M63.5303 52.0816L63.8493 52.2747L68.3847 52.0436L68.3786 57.3485C65.5371 57.9502 60.7132 58.266 57.9023 57.5638L57.8594 52.2631L59.3814 52.3582L63.5303 52.0816Z" fill="#343C46"/>
<path d="M63.5303 52.0816L63.8493 52.2747C63.475 55.4516 63.8923 55.7865 61.3147 57.5049L60.0565 57.1124C58.9211 55.0076 59.3261 55.0886 59.3814 52.3582L63.5303 52.0816Z" fill="#636876"/>
<path d="M57.5096 41.7665L68.3419 41.8107C68.6426 48.4214 63.3583 48.1822 58.4055 45.783C57.5525 45.3702 57.5955 42.7533 57.5096 41.7665Z" fill="#191D27"/>
<path d="M73.8777 47.3334C76.1485 47.2021 76.7193 46.7814 78.4561 47.7406C78.8857 49.7363 78.8857 50.4121 78.9225 52.4059L78.7507 52.712C77.4741 52.417 75.2218 52.3624 73.8347 52.276L73.2332 52.1368C71.6314 51.7559 71.1097 51.6706 69.6367 50.9684C68.7038 48.9114 68.5934 49.5241 69.1703 47.9203C70.7169 46.8017 71.9874 47.1512 73.8777 47.3334Z" fill="#252A33"/>
<path d="M52.2253 46.6373L53.2258 46.5337C53.0049 49.1641 52.5139 49.5572 53.594 51.4523L56.1532 52.0614L53.0048 52.3851L52.3911 52.3937C51.0409 52.4127 48.7087 52.368 47.4567 52.4845C47.3892 49.8602 47.3217 49.2505 48.0581 46.7422L52.2253 46.6373Z" fill="#252A33"/>
<path d="M57.8594 52.2631C57.798 50.4024 57.7366 49.8087 58.16 48.0081C60.0196 46.7385 60.8728 47.212 63.5793 47.185L63.5303 52.0816L59.3814 52.3582L57.8594 52.2631Z" fill="#8A8FA3"/>
<path d="M63.5793 47.185C65.9667 47.2414 66.3166 46.8513 68.0411 48.0184C68.305 49.667 68.3786 50.3766 68.3847 52.0436L63.8493 52.2747L63.5303 52.0816L63.5793 47.185Z" fill="#767F8C"/>
<path d="M53.2258 46.5337C55.9385 46.8072 55.607 46.3436 57.2641 47.8879C57.4114 49.8743 57.2456 50.2638 56.681 52.1914L56.1532 52.0614L53.594 51.4523C52.5139 49.5572 53.0049 49.1641 53.2258 46.5337Z" fill="#191D27"/>
<path d="M35.7161 26.7751L36.8331 26.2078C36.9129 28.0569 36.7165 29.787 37.7905 31.154C46.7632 31.955 63.9905 31.4515 73.5279 31.4534L73.9882 36.3143C66.4332 35.812 40.3743 35.8966 32.8438 36.421L32.0583 36.3836L31.8926 31.6428L32.3283 30.6603C31.3893 29.6975 31.3463 28.1747 32.2301 27.1597C33.1139 26.1447 34.6298 25.9772 35.7161 26.7751Z" fill="#8A8FA3"/>
<path d="M32.3283 30.6603C31.3893 29.6975 31.3463 28.1747 32.2301 27.1597C33.1139 26.1447 34.6298 25.9772 35.7161 26.7751C36.5016 27.3522 36.8944 28.3212 36.7287 29.2822C36.5692 30.2427 35.8818 31.0314 34.9551 31.3227C34.0222 31.614 33.0095 31.3577 32.3283 30.6603Z" fill="#B0BAC3"/>
<path d="M73.5463 26.0545C77.8485 26.0011 85.4158 25.6822 89.4603 25.9919L89.7672 26.0815L89.8838 36.792C89.8531 38.1799 89.9083 40.7687 89.5646 42.0027L89.2638 46.9526C87.797 47.2709 85.7165 46.6434 84.1637 46.3153L84.1269 41.8181L84.268 38.1555C84.1453 35.8991 84.176 33.6355 84.1821 31.3755L84.2619 26.5237L83.6973 26.5317C83.5991 28.9861 84.0102 29.4319 82.7337 31.1007C81.4203 31.2755 80.1008 31.4245 78.7752 31.5484L78.3333 31.4221L73.5279 31.4534C72.9817 28.9229 72.9387 28.5892 73.5463 26.0545Z" fill="#474957"/>
<path d="M84.1821 31.3755L89.2576 31.235C89.2944 34.2855 89.2086 39.103 89.5646 42.0027L89.2638 46.9526C87.797 47.2709 85.7165 46.6434 84.1637 46.3153L84.1269 41.8181L84.268 38.1555C84.1453 35.8991 84.176 33.6355 84.1821 31.3755Z" fill="#B0BAC3"/>
<path d="M84.1269 41.8181L89.5646 42.0027L89.2638 46.9526C87.797 47.2709 85.7165 46.6434 84.1637 46.3153L84.1269 41.8181Z" fill="#767F8C"/>
<path d="M84.2619 26.5237C86.6616 26.485 87.1711 26.0631 88.9202 27.1793C89.3314 28.9265 89.2944 29.4301 89.2576 31.235L84.1821 31.3755L84.2619 26.5237Z" fill="#9DA7B1"/>
<path d="M78.3333 31.4221C78.5788 30.6027 78.9164 28.4003 79.0883 27.4497C80.6901 26.1728 81.2424 26.6034 83.6973 26.5317C83.5991 28.9861 84.0102 29.4319 82.7337 31.1007C81.4203 31.2755 80.1008 31.4245 78.7752 31.5484L78.3333 31.4221Z" fill="#636876"/>
<path d="M83.6973 26.5317L84.2619 26.5237L84.1821 31.3755C84.176 33.6355 84.1453 35.8991 84.268 38.1555C84.1637 37.8562 83.3352 36.8056 83.2615 36.7994C73.3928 35.9047 39.8772 38.091 32.8438 36.421C40.3743 35.8966 66.4332 35.812 73.9882 36.3143L73.5279 31.4534L78.3333 31.4221L78.7752 31.5484C80.1008 31.4245 81.4203 31.2755 82.7337 31.1007C84.0102 29.4319 83.5991 28.9861 83.6973 26.5317Z" fill="#767F8C"/>
<path d="M78.3333 31.4221L78.7752 31.5484C78.7568 34.1341 79.2354 34.6265 77.8913 36.2579C76.2527 36.4112 75.6207 36.4652 73.9882 36.3143L73.5279 31.4534L78.3333 31.4221Z" fill="#B0BAC3"/>
<path d="M48.1686 41.845C48.2606 43.6254 48.4387 44.9937 48.0581 46.7422C47.3217 49.2505 47.3892 49.8602 47.4567 52.4845C43.6147 52.3048 40.7548 52.0767 36.9128 52.5397L36.0168 52.5108C35.9984 50.5606 36.3543 49.0003 36.698 47.0911C39.607 47.177 44.0873 47.656 46.5607 46.4791C48.1993 44.733 47.7328 44.6852 48.1686 41.845Z" fill="#502F3C"/>
<path d="M36.698 47.0911C36.7777 44.4748 36.3973 44.5687 37.5756 42.5761C40.0858 41.2109 44.9526 41.7892 48.1686 41.845C47.7328 44.6852 48.1993 44.733 46.5607 46.4791C44.0873 47.656 39.607 47.177 36.698 47.0911Z" fill="#912A36"/>
<path d="M78.9225 52.4059C81.224 52.3575 81.6781 51.9644 83.4211 52.9929C83.8139 54.6004 84.0042 55.7098 84.2374 57.3492L84.3601 57.8116L78.812 57.7766L78.7507 52.712L78.9225 52.4059Z" fill="#2D323C"/>
<path d="M41.5525 20.9819C50.2552 20.9727 60.5659 21.2334 69.1336 20.9052L73.3621 21.2113L73.9022 21.1218C73.8408 22.544 73.8163 24.723 73.5463 26.0545C72.9387 28.5892 72.9817 28.9229 73.5279 31.4534C63.9905 31.4515 46.7632 31.955 37.7905 31.154C36.7165 29.787 36.9129 28.0569 36.8331 26.2078L36.9067 25.7417L37.0171 20.9629L41.5525 20.9819Z" fill="#636876"/>
<path d="M41.5525 20.9819C50.2552 20.9727 60.5659 21.2334 69.1336 20.9052C69.1397 22.5299 69.0784 24.7782 69.1888 26.3421L67.3967 26.003C59.9215 25.183 49.8686 26.6365 42.467 25.5902C41.4053 24.1502 41.6937 23.0444 41.5525 20.9819Z" fill="#9DA7B1"/>
<path d="M37.0171 20.9629L41.5525 20.9819C41.6937 23.0444 41.4053 24.1502 42.467 25.5902C49.8686 26.6365 59.9215 25.183 67.3967 26.003C58.7738 26.7818 45.6953 26.4053 36.8331 26.2078L36.9067 25.7417L37.0171 20.9629Z" fill="#767F8C"/>
<path d="M69.1336 20.9052L73.3621 21.2113C73.3192 24.087 73.8224 24.187 72.3618 25.9159L69.1888 26.3421C69.0784 24.7782 69.1397 22.5299 69.1336 20.9052Z" fill="#B0BAC3"/>
<path d="M89.7672 26.0815C92.1116 26.0778 92.7621 25.6362 94.2657 26.8284C95.2784 33.0656 99.6297 31.5477 105.178 31.4386L105.153 41.8941L99.7955 41.8389L99.6911 46.8519L94.7629 46.8955L94.591 47.2819C93.6827 46.9661 90.9455 47.3715 89.8285 47.4806L89.362 47.4702L89.2638 46.9526L89.5646 42.0027C89.9083 40.7687 89.8531 38.1799 89.8838 36.792L89.7672 26.0815Z" fill="#040713"/>
<path d="M89.8838 36.792C92.4062 36.6044 97.4632 36.0438 99.7524 36.4762V41.4231L99.7955 41.8389L99.6911 46.8519L94.7629 46.8955L94.591 47.2819C93.6827 46.9661 90.9455 47.3715 89.8285 47.4806L89.362 47.4702L89.2638 46.9526L89.5646 42.0027C89.9083 40.7687 89.8531 38.1799 89.8838 36.792Z" fill="#502F3C"/>
<path d="M94.7997 41.6776L99.7524 41.4231L99.7955 41.8389L99.6911 46.8519L94.7629 46.8955L94.6892 42.1639L94.7997 41.6776Z" fill="#6F6F7D"/>
<path d="M89.8285 47.4806C89.8776 45.6266 89.8224 44.2767 90.3625 42.4749C92.1116 41.4059 92.2343 41.8628 94.6892 42.1639L94.7629 46.8955L94.591 47.2819C93.6827 46.9661 90.9455 47.3715 89.8285 47.4806Z" fill="#6A313F"/>
<path d="M94.7997 41.6776C94.7383 40.1161 94.7813 39.3643 94.947 37.8083C96.4384 36.4781 97.4203 36.7791 99.7524 36.4762V41.4231L94.7997 41.6776Z" fill="#8A8FA3"/>
<path d="M28.9957 57.7238L27.492 57.4951L26.8047 56.5212C26.3198 53.1486 26.1664 29.0124 27.0134 26.4261C28.6459 25.811 28.8975 25.9858 30.6957 26.3482C31.8986 27.9888 31.4383 29.0652 31.4383 31.5079L31.8926 31.6428L32.0583 36.3836C32.0399 39.493 31.3648 49.1432 32.9666 51.8816C33.2673 52.3968 35.1453 52.4164 36.0168 52.5108L36.9128 52.5397L37.189 57.367L37.011 57.7306C34.9488 57.6558 33.0218 57.3743 31.2359 58.3917C31.0456 58.277 29.3333 57.8201 28.9957 57.7238Z" fill="#020205"/>
<path d="M31.4383 31.5079L31.8926 31.6428L32.0583 36.3836C32.0399 39.493 31.3648 49.1432 32.9666 51.8816C33.2673 52.3968 35.1453 52.4164 36.0168 52.5108L36.9128 52.5397L37.189 57.367L37.011 57.7306C34.9488 57.6558 33.0218 57.3743 31.2359 58.3917C31.0456 58.277 29.3333 57.8201 28.9957 57.7238C29.4928 57.6404 30.4625 57.2854 30.9903 57.1124C32.5063 54.4924 31.377 36.2113 31.4383 31.5079Z" fill="#252A33"/>
<path d="M37.0171 20.9629C36.9741 19.0396 36.6611 17.4322 37.7351 15.9682C41.7858 15.6358 71.5271 15.3948 73.4971 16.5324C73.6076 18.901 73.9451 18.6465 72.9509 20.4815L69.1336 20.9052C60.5659 21.2334 50.2552 20.9727 41.5525 20.9819L37.0171 20.9629Z" fill="#10111B"/>
<path d="M73.9022 21.1218C77.9773 20.9102 85.336 19.7289 88.9877 21.8154C89.8408 22.3048 89.5462 25.0462 89.4603 25.9919C85.4158 25.6822 77.8485 26.0011 73.5463 26.0545C73.8163 24.723 73.8408 22.544 73.9022 21.1218Z" fill="#020205"/>
<path d="M31.2359 58.3917C33.0218 57.3743 34.9488 57.6558 37.011 57.7306L37.0663 62.7186C35.5258 62.7413 34.2124 62.686 32.6781 62.6045C31.1806 61.0393 31.6102 61.0013 31.2359 58.3917Z" fill="#020205"/>
<path d="M36.9067 25.7417L33.5802 25.7668C31.8495 24.7175 32.3896 25.3265 31.5672 23.4572L32.1748 21.9577C34.2799 20.5213 34.0037 20.9899 37.0171 20.9629L36.9067 25.7417Z" fill="#020205"/>
<path d="M146.899 47.2935L152.159 47.2555L157.357 47.3365C160.039 47.3371 165.434 47.4947 167.907 47.2218L167.815 130.782C167.815 140.592 168.392 163.197 167.508 171.972C166.078 172.665 165.286 172.505 163.678 172.469C161.647 174.364 163.402 177.823 161.659 177.835C115.679 178.142 69.6061 177.933 23.6194 177.902C22.6559 177.902 22.3367 177.718 21.7721 177.479C21.4407 176.019 21.14 174.548 20.8822 173.076C17.967 171.714 19.9371 174.118 16.3038 172.156C15.5857 168.629 16.7211 168.726 14.8492 166.966C13.4929 166.952 12.6644 166.914 11.3141 166.743C10.2647 165.227 10.633 163.651 10.7373 161.698L10.59 157.394C8.74271 157.327 8.17187 157.318 6.39206 156.841C5.32417 155.125 5.68021 154.356 5.6127 152.078L5.35487 151.865C5.75379 150.234 5.74155 147.737 5.80906 145.993L5.72314 141.19L10.6145 141.272C12.1365 141.354 14.4442 141.125 15.2482 142.102C16.537 143.672 15.7514 146.074 17.3594 146.153C31.96 146.871 49.034 146.635 63.5364 146.596L112.254 146.497C121.092 146.475 131.519 146.721 140.16 146.172C144.002 143.317 138.847 141.736 147.028 141.625L147.065 88.5831L146.991 83.6491C146.813 71.5316 146.783 59.4122 146.899 47.2935Z" fill="#848287"/>
<path d="M5.72314 141.19L10.6145 141.272C12.1365 141.354 14.4442 141.125 15.2482 142.102C16.537 143.672 15.7514 146.074 17.3594 146.153C31.96 146.871 49.034 146.635 63.5364 146.596L112.254 146.497C121.092 146.475 131.519 146.721 140.16 146.172C144.002 143.317 138.847 141.736 147.028 141.625L152.318 141.721C152.214 144.785 151.95 148.824 152.306 151.787C152.251 152.979 152.208 155.697 151.956 156.734C150.084 156.928 148.931 157.107 147.028 156.954C112.095 157.792 49.5863 156.53 12.2532 157.264C11.9893 157.534 11.7192 157.805 11.4553 158.075L11.1055 161.649L10.7373 161.698L10.59 157.394C8.74271 157.327 8.17187 157.318 6.39206 156.841C5.32417 155.125 5.68021 154.356 5.6127 152.078L5.35487 151.865C5.75379 150.234 5.74155 147.737 5.80906 145.993L5.72314 141.19Z" fill="#131821"/>
<path d="M5.72314 141.19L10.6145 141.272C12.1365 141.354 14.4442 141.125 15.2482 142.102C16.537 143.672 15.7514 146.074 17.3594 146.153C31.96 146.871 49.034 146.635 63.5364 146.596L112.254 146.497C121.092 146.475 131.519 146.721 140.16 146.172C144.002 143.317 138.847 141.736 147.028 141.625V151.753L57.6568 151.624C44.3757 151.626 24.2331 152.344 11.5535 151.418C8.92061 148.733 13.1554 146.179 5.80906 145.993L5.72314 141.19Z" fill="#252A33"/>
<path d="M5.6127 152.078C8.09216 151.662 7.92644 151.315 10.007 152.096C10.9214 153.893 10.6637 155.341 10.59 157.394C8.74271 157.327 8.17187 157.318 6.39206 156.841C5.32417 155.125 5.68021 154.356 5.6127 152.078Z" fill="#020205"/>
<path d="M147.175 151.601L150.68 151.742C152.116 153.325 151.717 154.182 151.956 156.734C149.606 156.466 148.532 156.796 147.114 155.444C147.12 154.163 147.138 152.882 147.175 151.601Z" fill="#020205"/>
<path d="M146.899 47.2935L152.159 47.2555L157.357 47.3365L157.308 115.769C157.308 124.473 157.86 142.843 157.044 150.904C155.547 151.986 154.442 151.665 152.306 151.787C151.95 148.824 152.214 144.785 152.318 141.721L147.028 141.625L147.065 88.5831L146.991 83.6491C146.813 71.5316 146.783 59.4122 146.899 47.2935Z" fill="#020205"/>
<path d="M146.899 47.2935L152.159 47.2555C152.49 78.7427 152.539 110.232 152.318 141.721L147.028 141.625L147.065 88.5831L146.991 83.6491C146.813 71.5316 146.783 59.4122 146.899 47.2935Z" fill="#252A33"/>
<path d="M11.1055 161.649L11.4553 158.075C11.7192 157.805 11.9893 157.534 12.2532 157.264C49.5863 156.53 112.095 157.792 147.028 156.954C146.948 159.543 147.366 160.165 146.157 162.012C134.054 162.467 14.4933 162.917 11.1055 161.649Z" fill="#020205"/>
<path d="M84.1637 46.3153C85.7165 46.6434 87.797 47.2709 89.2638 46.9526L89.362 47.4702L89.8285 47.4806C90.9455 47.3715 93.6827 46.9661 94.591 47.2819L94.7629 46.8955L99.6911 46.8519L105.11 46.9519L105.215 47.2813L146.899 47.2935C146.783 59.4122 146.813 71.5316 146.991 83.6491L147.065 88.5831C136.411 89.0234 79.6774 87.3755 74.295 89.1884C73.5708 90.648 73.7979 91.0167 74.0863 92.7222C78.0326 96.773 84.17 92.5314 88.822 94.6571C89.9083 96.3848 89.5769 95.9445 89.4235 98.3296C87.6989 99.5605 77.2962 98.3351 73.6936 99.1122L73.6997 109.788C72.3372 109.772 70.4532 109.81 69.1398 109.677L68.6672 108.248C67.1758 110.554 65.8992 110.001 63.2111 109.872L57.8041 109.891L52.9435 109.852L52.968 99.4752C49.2672 99.5501 46.5054 99.512 42.7924 99.3053C41.7306 99.0287 38.8645 98.9343 37.637 98.8595L36.8514 97.9598C35.6976 90.6149 46.9412 96.0702 52.2315 94.1015C53.2196 92.5597 52.9557 91.2289 52.9066 89.3418C52.6182 89.0805 52.3297 88.8198 52.0413 88.5585C41.2888 89.0964 30.5055 88.6585 19.7591 89.3368C17.4515 89.4828 13.0695 89.0026 11.6272 87.5031C10.9521 86.799 11.2099 84.9322 11.2038 83.7338C17.5006 83.2481 48.5921 84.3078 51.6055 83.1812C53.0416 81.5179 52.612 82.0331 52.5506 79.2763C50.5437 77.5186 49.6784 79.8602 47.4874 77.7983C47.5303 76.0265 47.6285 75.4488 47.1498 73.7217C45.5664 73.1839 45.2166 73.2292 43.5718 73.1789L43.0685 73.1667C41.9699 71.8082 42.332 70.9656 42.2461 68.8675C39.9937 66.8001 41.2396 68.1003 37.68 67.4563C36.7594 65.9261 36.9496 65.1779 37.0355 63.3736L37.0663 62.7186L37.011 57.7306L37.189 57.367L36.9128 52.5397C40.7548 52.0767 43.6147 52.3048 47.4567 52.4845C48.7087 52.368 51.0409 52.4127 52.3911 52.3937L53.0048 52.3851L56.1532 52.0614L56.681 52.1914L57.8594 52.2631L57.9023 57.5638C60.7132 58.266 65.5371 57.9502 68.3786 57.3485L68.3847 52.0436L69.2195 52.3251L73.2332 52.1368L73.8347 52.276C75.2218 52.3624 77.4741 52.417 78.7507 52.712L78.812 57.7766L84.3601 57.8116L84.2374 57.3492L84.2865 52.5029L84.1637 46.3153Z" fill="#040713"/>
<path d="M105.215 47.2813L146.899 47.2935C146.783 59.4122 146.813 71.5316 146.991 83.6491L99.9673 83.6417C94.4131 83.6546 75.725 85.0241 72.9202 81.437C72.9202 80.4072 73.6199 79.8148 74.3011 78.9672C75.8723 78.7016 76.6702 78.6698 78.2658 78.6385C79.2724 77.2972 78.8918 76.0768 78.9102 74.0584C80.7943 72.1897 83.3229 74.1798 84.219 72.5595C84.71 71.6677 83.3721 69.7518 85.1703 67.9917C86.8703 68.1155 87.3736 68.1824 89.0429 67.8745C89.6567 66.2235 89.5339 65.4336 89.5216 63.6912L90.3931 62.9509C92.1054 63.0086 93.0996 63.23 94.5603 62.3793L94.8487 58.1163C97.7762 56.5512 100.888 58.6597 104.552 57.2964C105.521 56.0686 105.245 53.3327 105.264 51.5615L105.215 47.2813Z" fill="#343C46"/>
<path d="M56.1532 52.0614L56.681 52.1914L57.8594 52.2631L57.9023 57.5638C60.7132 58.266 65.5371 57.9502 68.3786 57.3485L68.3847 52.0436L69.2195 52.3251L73.2332 52.1368L73.8347 52.276L73.8041 73.1237L52.5261 73.1704L52.3911 52.3937L53.0048 52.3851L56.1532 52.0614Z" fill="#474957"/>
<path d="M68.3847 52.0436L69.2195 52.3251L73.2332 52.1368L73.2701 57.6313C73.2886 59.9415 73.6813 66.3677 72.7484 67.9249C71.0238 68.2781 70.7599 68.3523 69.066 67.9132C67.992 66.0985 68.4584 65.1742 68.5505 62.7376L68.3786 57.3485L68.3847 52.0436Z" fill="#636876"/>
<path d="M69.2195 52.3251L73.2332 52.1368L73.2701 57.6313C72.1041 57.5276 70.944 57.4154 69.784 57.2958C68.4891 55.4866 69.0292 55.1677 69.2195 52.3251Z" fill="#6F6F7D"/>
<path d="M56.1532 52.0614L56.681 52.1914L57.8594 52.2631L57.9023 57.5638L57.8595 62.7382C57.8227 64.9497 58.1785 66.31 56.5522 67.7635C54.3305 67.6421 55.1037 67.999 53.6062 66.4903C52.3972 62.9178 52.9557 56.4543 53.0048 52.3851L56.1532 52.0614Z" fill="#767F8C"/>
<path d="M68.3786 57.3485L68.5505 62.7376L57.8595 62.7382L57.9023 57.5638C60.7132 58.266 65.5371 57.9502 68.3786 57.3485Z" fill="#2D323C"/>
<path d="M63.0945 83.6755L68.348 83.8761C68.4339 90.8799 68.4462 97.8843 68.3848 104.889L68.6672 108.248C67.1758 110.554 65.8992 110.001 63.2111 109.872L57.8041 109.891L57.8778 104.829L57.8716 88.5714L57.8901 83.6123L63.0945 83.6755Z" fill="#474957"/>
<path d="M57.8716 88.5714C60.6763 88.5549 60.9771 88.0715 62.8735 89.384L63.4811 91.4073C63.3768 93.4422 63.2847 95.6672 63.3338 97.6997C63.4749 103.282 63.8064 104.967 57.8778 104.829L57.8716 88.5714Z" fill="#8A8FA3"/>
<path d="M57.8901 83.6123L63.0945 83.6755C63.2602 86.2243 63.475 88.8609 63.4811 91.4073L62.8735 89.384C60.9771 88.0715 60.6763 88.5549 57.8716 88.5714L57.8901 83.6123Z" fill="#636876"/>
<path d="M68.3848 104.889L68.6672 108.248C67.1758 110.554 65.8992 110.001 63.2111 109.872C63.2786 108.186 63.3645 107.347 63.653 105.684C65.4696 104.449 65.7397 104.895 68.3848 104.889Z" fill="#343C46"/>
<path d="M84.1637 46.3153C85.7165 46.6434 87.797 47.2709 89.2638 46.9526L89.362 47.4702L89.8285 47.4806C90.0188 53.1696 89.4725 57.354 89.448 62.6492C86.4162 62.7093 81.6844 63.3178 79.4074 61.9734C78.4684 60.5567 78.7322 59.5153 78.812 57.7766L84.3601 57.8116L84.2374 57.3492L84.2865 52.5029L84.1637 46.3153Z" fill="#252A33"/>
<path d="M84.1637 46.3153C85.7165 46.6434 87.797 47.2709 89.2638 46.9526L89.362 47.4702L89.221 52.4673L84.2865 52.5029L84.1637 46.3153Z" fill="#6F6F7D"/>
<path d="M84.2865 52.5029L89.221 52.4673C89.1719 55.27 89.6566 55.7246 88.2941 57.5712C86.6861 57.7834 85.9803 57.8588 84.3601 57.8116L84.2374 57.3492L84.2865 52.5029Z" fill="#595D6A"/>
<path d="M57.8901 83.6123C57.9269 82.2772 57.5954 80.2202 58.6448 79.356C61.1673 77.2708 66.3288 77.3383 68.2559 80.1533C68.2989 81.3713 68.3603 82.6636 68.348 83.8761L63.0945 83.6755L57.8901 83.6123Z" fill="#343C46"/>
<path d="M36.9128 52.5397C40.7548 52.0767 43.6147 52.3048 47.4567 52.4845L47.4628 57.7214C44.0628 57.7656 40.5215 57.9459 37.189 57.367L36.9128 52.5397Z" fill="#6A313F"/>
<path d="M47.4628 57.7214C47.4506 60.7394 47.9722 60.6554 46.4256 62.4088C43.8664 63.4496 40.092 62.6493 37.0663 62.7186L37.011 57.7306L37.189 57.367C40.5215 57.9459 44.0628 57.7656 47.4628 57.7214Z" fill="#2D323C"/>
<path d="M99.6911 46.8519L105.11 46.9519L105.215 47.2813L99.7892 47.1501C99.8076 50.4894 100.262 50.9415 97.2361 52.6219L95.8307 52.2208C94.1429 50.1313 94.6708 50.5428 94.591 47.2819L94.7629 46.8955L99.6911 46.8519Z" fill="#474957"/>
<path d="M99.7892 47.1501L105.215 47.2813L105.264 51.5615C102.968 51.5283 102.263 51.908 100.569 50.8292L99.7892 47.1501Z" fill="#020205"/>
<path d="M42.7924 99.3053C46.5054 99.512 49.2672 99.5501 52.968 99.4752L52.9435 109.852L57.8041 109.891L63.2111 109.872C65.8992 110.001 67.1758 110.554 68.6672 108.248L69.1398 109.677C70.4532 109.81 72.3372 109.772 73.6997 109.788L73.6936 99.1122C77.5356 99.6512 80.2604 99.528 84.1146 99.4593L84.1269 103.889C84.133 108.83 83.9428 115.656 84.2497 120.446V125.304C71.0852 125.69 55.6315 125.35 42.3136 125.352C42.1049 124.26 41.9393 121.642 41.8288 120.416L37.8886 120.317L37.0785 120.247C36.9128 113.61 37.0846 106.107 37.1031 99.4066L42.1234 99.512L42.7924 99.3053Z" fill="#474957"/>
<path d="M42.3382 120.459C56.3066 120.339 70.2812 120.335 84.2497 120.446V125.304C71.0852 125.69 55.6315 125.35 42.3136 125.352C42.1049 124.26 41.9393 121.642 41.8288 120.416L42.3382 120.459Z" fill="#767F8C"/>
<path d="M37.1031 99.4066L42.1234 99.512C42.5346 106.907 42.4609 113.079 42.3382 120.459L41.8288 120.416L37.8886 120.317L37.0785 120.247C36.9128 113.61 37.0846 106.107 37.1031 99.4066Z" fill="#8A8FA3"/>
<path d="M37.1031 99.4066L42.1234 99.512C42.5346 106.907 42.4609 113.079 42.3382 120.459L41.8288 120.416C41.4422 115.69 42.5469 109.173 41.3624 104.786C39.6071 104.268 40.3312 104.255 38.6189 104.806C36.5261 107.804 37.6431 116.262 37.8886 120.317L37.0785 120.247C36.9128 113.61 37.0846 106.107 37.1031 99.4066Z" fill="#767F8C"/>
<path d="M68.6672 108.248L69.1398 109.677C68.7102 111.726 68.3971 113.035 68.2928 115.136C64.8006 114.641 61.8424 115.758 58.9579 114.631C57.3745 112.782 57.8901 112.94 57.8041 109.891L63.2111 109.872C65.8992 110.001 67.1758 110.554 68.6672 108.248Z" fill="#10111B"/>
<path d="M52.9435 109.852L57.8041 109.891C57.8901 112.94 57.3745 112.782 58.9579 114.631C61.8424 115.758 64.8006 114.641 68.2928 115.136C65.0646 116.129 56.6503 116.214 53.7781 114.153C52.7286 113.4 52.9987 111.114 52.9435 109.852Z" fill="#343C46"/>
<path d="M69.1398 109.677C70.4532 109.81 72.3372 109.772 73.6997 109.788C73.3744 112.136 73.6506 113.135 72.331 114.72C70.8704 114.927 69.7657 115.052 68.2928 115.136C68.3971 113.035 68.7102 111.726 69.1398 109.677Z" fill="#343C46"/>
<path d="M89.5154 120.376C90.8472 115.62 88.8833 101.62 90.7797 99.1747L92.9462 99.1778C95.7571 102.089 94.5357 129.771 94.7321 135.968C82.298 136.586 68.9127 136.079 56.3987 136.251C52.8146 136.301 40.0122 136.455 37.3486 135.902C36.5507 134.156 36.8514 132.749 37.011 130.855L37.0663 125.584L41.9454 125.453L42.3136 125.352C55.6315 125.35 71.0852 125.69 84.2497 125.304L88.5458 125.472L89.2945 125.128L89.5154 120.376Z" fill="#040713"/>
<path d="M37.0663 125.584L41.9454 125.453L42.3136 125.352C55.6315 125.35 71.0852 125.69 84.2497 125.304L88.5458 125.472C86.1154 125.99 85.3421 125.653 84.2497 127.245L84.0348 130.758L41.9515 130.796L37.011 130.855L37.0663 125.584Z" fill="#343C46"/>
<path d="M37.0663 125.584L41.9454 125.453L41.9515 130.796L37.011 130.855L37.0663 125.584Z" fill="#252A33"/>
<path d="M89.2945 125.128C89.3805 127.859 89.8346 128.333 88.7114 130.409C86.9685 131.081 85.9005 130.861 84.0348 130.758L84.2497 127.245C85.3421 125.653 86.1154 125.99 88.5458 125.472L89.2945 125.128Z" fill="#252A33"/>
<path d="M37.011 130.855C35.1207 131.054 33.1753 131.218 31.6839 130.195C30.8554 124.198 32.4264 116.646 31.4752 110.302C31.0517 107.43 31.1684 101.769 33.0034 99.5181C34.8569 99.098 35.2066 99.1711 37.1031 99.4066C37.0846 106.107 36.9128 113.61 37.0785 120.247L37.0663 125.584L37.011 130.855Z" fill="#040713"/>
<path d="M84.1269 103.889L89.3928 103.845C89.3376 108.301 89.0429 116.231 89.5154 120.376L84.2497 120.446C83.9428 115.656 84.133 108.83 84.1269 103.889Z" fill="#8A8FA3"/>
<path d="M84.1146 99.4593C86.9009 99.5096 87.4472 99.0097 89.1595 100.403C89.2884 101.63 89.4235 102.611 89.3928 103.845L84.1269 103.889L84.1146 99.4593Z" fill="#767F8C"/>
<path d="M151.858 5.11655L152.429 10.3394C154.884 10.5264 155.62 10.1351 157.204 11.4684C157.394 13.1679 157.449 14.1277 157.431 15.8363C159.579 15.802 160.493 15.3616 161.825 16.4564C161.96 18.1705 161.917 18.8667 162.887 20.2975C164.513 20.7372 167.336 20.8102 167.453 21.4768C168.349 26.5249 167.778 36.9417 167.938 41.9198C164.888 41.7665 160.463 41.883 157.314 41.8794L152.337 41.8677L147.212 41.8309C146.562 34.0371 146.832 23.8829 146.936 16.0413C148.575 15.8248 149.692 15.6579 151.293 15.2703C152.361 13.4917 151.913 12.9809 151.797 10.5774C151.551 8.74607 151.748 6.96687 151.858 5.11655Z" fill="#252A33"/>
<path d="M157.431 15.8363C159.579 15.802 160.493 15.3616 161.825 16.4564C161.96 18.1705 161.917 18.8667 162.887 20.2975C164.513 20.7372 167.336 20.8102 167.453 21.4768C168.349 26.5249 167.778 36.9417 167.938 41.9198C164.888 41.7665 160.463 41.883 157.314 41.8794L157.431 15.8363Z" fill="#8A8FA3"/>
<path d="M152.429 10.3394C154.884 10.5264 155.62 10.1351 157.204 11.4684C157.394 13.1679 157.449 14.1277 157.431 15.8363L157.314 41.8794L152.337 41.8677L152.429 10.3394Z" fill="#020205"/>
</svg>
