<svg width="168" height="198" viewBox="0 0 168 198" fill="none" xmlns="http://www.w3.org/2000/svg">
<path d="M53.5661 0.0382883L114.496 0L114.666 91.0949L167.794 91.0842C167.852 99.6022 168.46 119.511 167.266 128.408C167.161 129.196 163.329 129.217 161.247 129.692C159.394 133.019 159.772 131.493 160.169 135.661C157.912 137.303 156.052 137.006 153.187 137.059C153.131 139.356 153.197 142.19 152.686 144.375L150.226 143.991C147.045 144.604 147.253 144.007 145.551 146.152C145.384 147.731 145.18 150.567 144.892 152.013C141.472 151.988 140.36 151.373 137.917 152.985C137.456 155.519 137.356 156.43 137.347 159.004C134.707 159.335 133.826 159.371 131.293 160.259C130.378 162.171 130.383 162.981 130.351 165.098C126.453 168.735 126.631 164.933 122.328 167.959C122.231 169.943 122.149 171.928 122.082 173.914C120.237 175.238 118.574 174.763 115.878 174.809C114.278 176.824 114.805 178.243 114.687 181.322C112.689 183.335 112.004 182.641 108.342 182.722C105.468 186.016 108.889 186.31 106.246 189.965L100.8 190.164C98.213 193.449 100.931 193.797 98.7725 197.26C98.1854 197.426 97.5893 197.562 96.988 197.668C94.1729 198.18 71.6099 198.289 69.2767 196.586L68.951 191.154C67.2406 189.484 65.9442 190.1 62.8534 190.064C59.8412 187.419 63.1702 186.046 60.6924 182.882L54.8223 182.574C52.1518 179.903 54.9321 179.163 52.9932 175.077L47.1928 174.551C45.7705 172.667 46.2585 171.254 46.1809 168.446C43.5845 164.974 43.0964 168.53 38.6548 166.223C38.422 164.088 38.3675 162.542 38.3372 160.394C36.3653 158.883 35.0431 159.443 32.0407 159.418C30.3989 157.654 30.9557 155.994 30.8504 152.967C28.8152 150.941 28.1817 151.656 24.4548 151.624C22.5615 149.588 23.2369 148.792 23.2048 145.267C20.1087 142.782 20.3425 145.722 16.2667 143.58C15.8714 141.261 15.8946 140.133 15.8768 137.765C12.5237 135.166 11.0765 138.361 8.14282 135.572C8.25257 132.931 8.40244 132.215 7.67704 129.643C5.42056 129.184 3.97159 129.037 1.67406 128.843C-0.900958 125.148 0.264288 98.3413 0.255366 91.0762L53.6909 91.1055L53.5661 0.0382883Z" fill="#5B301F"/>
<path d="M100.732 8.19483C102.751 8.13161 105.222 8.13605 107.184 7.89207L107.187 16.3023L107.205 33.0862C108.563 50.8514 106.053 82.5236 108.081 97.5631C110.521 99.1757 111.002 98.6949 114.204 98.8551L114.968 99.0181C115.089 102.072 114.622 103.624 116.091 105.865C127.536 106.793 141.326 106.081 153.07 106.349L160.592 106.435L160.51 114.009L153.187 114.252L152.791 114.039C150.204 113.945 147.988 113.517 145.905 114.829C146.235 117.854 146.396 118.402 144.778 120.922C142.424 121.628 141.108 121.494 138.683 121.503C136.886 123.776 137.529 124.078 137.586 127.602C134.614 132.192 129.202 124.468 130.21 135.635C130.361 137.316 124.382 136.554 123.429 136.947C120.684 138.083 123.784 143.142 120.967 144.361C118.04 144.902 117.109 143.184 114.689 145.589C114.849 147.982 115.167 149.171 114.094 151.315C111.763 151.778 110.561 151.84 108.18 151.943C106.539 154.063 107.178 155.067 107.233 158.346C105.209 160.782 104.439 158.606 99.9324 160.094C99.2837 162.642 99.3417 163.731 99.3096 166.322C97.5456 167.855 96.6578 167.195 93.6269 167.022C90.1177 169.278 93.4324 169.867 91.2124 174.234C87.0109 175.207 82.4417 174.73 78.1018 174.518C76.1728 172.628 76.8464 171.954 76.7866 168.452C73.7548 164.988 72.677 169.112 69.1714 165.953C69.3275 163.528 69.7379 161.979 68.4843 159.98C66.0654 159.543 64.8092 159.591 62.393 159.614C60.7441 157.565 61.382 156.117 61.3936 152.878C59.5779 151.052 58.6134 151.695 55.2782 151.625C51.7886 149.041 55.586 147.416 52.7192 144.174L47.5692 144.03C44.7417 140.766 48.0314 140.68 45.4912 136.686C43.282 136.627 41.3788 136.515 39.1768 136.325C37.9642 134.449 38.4684 133.196 38.521 130.575C35.913 126.876 33.909 131.01 30.5443 127.615L30.9182 123.071C28.2843 119.359 27.3795 123.398 23.6366 120.41L23.3921 115.028C21.6709 113.623 18.6382 114.035 15.9142 113.913L15.8491 106.223C28.4761 106.057 41.1049 106.036 53.7319 106.158L53.541 98.9798L61.5052 98.6566C63.6117 98.4473 65.208 98.1526 67.2905 97.7608C69.4265 94.971 68.6039 25.3795 68.653 15.5027L69.3346 15.5579C68.9902 12.7548 68.6181 11.6132 69.5514 8.93478C72.4521 7.79769 95.6317 8.1886 100.732 8.19483Z" fill="#C88859"/>
<path d="M100.732 8.19483C102.751 8.13161 105.222 8.13605 107.184 7.89207L107.187 16.3023L107.205 33.0862C108.563 50.8514 106.053 82.5236 108.081 97.5631C110.521 99.1757 111.002 98.6949 114.204 98.8551C114.09 102.39 114.688 103.615 112.905 106.047C110.325 106.503 109.824 106.455 107.208 106.179C104.272 106.357 102.335 106.809 99.8465 105.378C99.0658 101.033 99.801 83.5627 99.7483 77.8683C99.5574 57.2439 100.342 35.8537 99.3852 15.2694C89.4081 15.24 79.2912 15.0949 69.3346 15.5579C68.9902 12.7548 68.6181 11.6132 69.5514 8.93478C72.4521 7.79769 95.6317 8.1886 100.732 8.19483Z" fill="#E4AA77"/>
<path d="M107.205 33.0862C108.563 50.8514 106.053 82.5236 108.081 97.5631C110.521 99.1757 111.002 98.6949 114.204 98.8551C114.09 102.39 114.688 103.615 112.905 106.047C110.325 106.503 109.824 106.455 107.208 106.179C107.115 83.3187 105.959 55.6865 107.205 33.0862Z" fill="#A76C49"/>
<path d="M100.732 8.19483C102.751 8.13161 105.222 8.13605 107.184 7.89207L107.187 16.3023C104.527 16.1367 103.486 16.1848 100.994 15.1429C99.6504 12.2392 100.299 11.9151 100.732 8.19483Z" fill="#C88859"/>
<path d="M69.3346 15.5579C69.572 45.7537 69.5201 75.9522 69.1793 106.147C65.3489 106.171 57.2474 106.427 53.7319 106.158L53.541 98.9798L61.5052 98.6566C63.6117 98.4473 65.208 98.1526 67.2905 97.7608C69.4265 94.971 68.6039 25.3795 68.653 15.5027L69.3346 15.5579Z" fill="#A76C49"/>
<path d="M153.07 106.349L160.592 106.435L160.51 114.009L153.187 114.252L152.791 114.039L153.07 106.349Z" fill="#8F543A"/>
<path d="M8.04287 106.107L15.8491 106.223L15.9142 113.913C18.6382 114.035 21.6709 113.623 23.3921 115.028L23.6366 120.41C27.3795 123.398 28.2843 119.359 30.9182 123.071L30.5443 127.615C33.909 131.01 35.913 126.876 38.521 130.575C38.4684 133.196 37.9642 134.449 39.1768 136.325C41.3788 136.515 43.282 136.627 45.4912 136.686C48.0314 140.68 44.7417 140.766 47.5692 144.03L52.7192 144.174C55.586 147.416 51.7886 149.041 55.2782 151.625C58.6134 151.695 59.5779 151.052 61.3936 152.878C61.382 156.117 60.7441 157.565 62.393 159.614C64.8092 159.591 66.0654 159.543 68.4843 159.98C69.7379 161.979 69.3275 163.528 69.1714 165.953C72.677 169.112 73.7548 164.988 76.7866 168.452C76.8464 171.954 76.1728 172.628 78.1018 174.518C82.4417 174.73 87.0109 175.207 91.2124 174.234C93.4324 169.867 90.1177 169.278 93.6269 167.022C96.6578 167.195 97.5456 167.855 99.3096 166.322C99.3417 163.731 99.2837 162.642 99.9324 160.094C104.439 158.606 105.209 160.782 107.233 158.346C107.178 155.067 106.539 154.063 108.18 151.943C110.561 151.84 111.763 151.778 114.094 151.315C115.167 149.171 114.849 147.982 114.689 145.589C117.109 143.184 118.04 144.902 120.967 144.361C123.784 143.142 120.684 138.083 123.429 136.947C124.382 136.554 130.361 137.316 130.21 135.635C129.202 124.468 134.614 132.192 137.586 127.602C137.529 124.078 136.886 123.776 138.683 121.503C141.108 121.494 142.424 121.628 144.778 120.922C146.396 118.402 146.235 117.854 145.905 114.829C147.988 113.517 150.204 113.945 152.791 114.039L153.187 114.252C152.85 117.853 152.208 125.014 152.559 128.4L153.173 128.128C153.159 130.853 153.037 134.416 153.187 137.059C153.131 139.356 153.197 142.19 152.686 144.375L150.226 143.991C147.045 144.604 147.253 144.007 145.551 146.152C145.384 147.731 145.18 150.567 144.892 152.013C141.472 151.988 140.36 151.373 137.917 152.985C137.456 155.519 137.356 156.43 137.347 159.004C134.641 158.301 131.756 158.547 128.949 158.627C126.821 159.672 124.438 159.241 121.965 159.112C119.207 159.266 118.164 159.202 115.556 160.35C116.495 169.728 111.355 164.951 107.222 168.311L107.302 173.463C104.573 176.863 103.308 172.825 99.9573 175.995C100.023 178.612 100.161 179.388 99.4371 181.934C97.0388 182.884 95.7058 182.687 93.145 182.677C90.2212 186.142 93.8589 186.351 91.0037 189.847C85.6056 190.126 82.9699 190.25 77.4844 189.661C76.0684 187.882 76.6413 186.333 76.6689 183.528L75.4956 182.404L70.8452 182.545C67.9151 180.324 70.036 177.482 69.199 175.915C67.4984 172.728 64.7824 176.524 61.6042 173.431C61.6605 170.845 61.8407 170.109 60.9895 167.734C58.6375 167.03 57.3812 167.207 54.957 167.261C52.8147 165.181 53.5464 164.736 53.4795 160.868C51.5477 158.981 50.6466 159.622 47.2079 159.509C45.6224 157.613 46.2282 156.329 46.2326 153.259C43.0304 149.88 42.5174 153.729 38.6745 150.714L38.5933 145.705C35.9621 142.65 34.6486 146.009 31.334 143.581L30.9833 137.761C29.214 136.015 28.1478 136.661 24.9152 136.643C22.9424 134.641 23.6518 134.147 23.6803 130.494C20.4094 127.194 19.6822 130.904 16.0945 128.017L15.9803 122.967C14.1556 121.209 12.7334 121.794 9.52756 121.661C7.81892 119.782 8.41488 115.417 8.38187 112.304L8.04287 106.107Z" fill="#8F543A"/>
<path d="M152.559 128.4L153.173 128.128C153.159 130.853 153.037 134.416 153.187 137.059C153.131 139.356 153.197 142.19 152.686 144.375L150.226 143.991C147.045 144.604 147.253 144.007 145.551 146.152C145.384 147.731 145.18 150.567 144.892 152.013C141.472 151.988 140.36 151.373 137.917 152.985C137.456 155.519 137.356 156.43 137.347 159.004C134.641 158.301 131.756 158.547 128.949 158.627C126.821 159.672 124.438 159.241 121.965 159.112L122.241 153.901C125.207 149.889 123.977 154.084 128.836 151.674C130.76 149.035 130.672 148.233 130.55 145.124C132.317 143.695 134.709 144.051 137.164 144.026C137.328 141.136 137.125 139.541 138.702 137.142C143.987 138.117 145.845 134.71 146.821 130.083C149.093 129.561 150.366 129.19 152.559 128.4Z" fill="#613520"/>
<path d="M137.823 144.343C141.244 144.5 142.139 143.905 144.279 145.74C144.446 147.834 144.65 149.925 144.892 152.013C141.472 151.988 140.36 151.373 137.917 152.985C137.456 155.519 137.356 156.43 137.347 159.004C134.641 158.301 131.756 158.547 128.949 158.627C129.845 145.996 136.166 159.429 137.823 144.343Z" fill="#4B291A"/>
<path d="M150.226 143.991C145.76 143.578 146.152 143.716 145.114 139.728C146.433 136.555 145.557 137.486 148.237 135.938L150.562 136.591C153.071 139.593 152.293 139.662 152.686 144.375L150.226 143.991Z" fill="#5B301F"/>
<path d="M8.04287 106.107L15.8491 106.223L15.9142 113.913C12.976 113.896 10.6143 114.218 8.38187 112.304L8.04287 106.107Z" fill="#8F543A"/>
<path d="M61.3956 15.2819L68.653 15.5027C68.6039 25.3795 69.4265 94.971 67.2905 97.7608C65.208 98.1526 63.6117 98.4473 61.5052 98.6566C61.5712 71.3129 62.0666 42.5071 61.3956 15.2819Z" fill="#8F543A"/>
<path d="M114.968 99.0181C121.2 98.9255 157.458 97.5872 160.182 99.8916C160.51 102.518 160.655 103.737 160.592 106.435L153.07 106.349C141.326 106.081 127.536 106.793 116.091 105.865C114.622 103.624 115.089 102.072 114.968 99.0181Z" fill="#E4AA77"/>
<path d="M8.04287 106.107C8.06607 103.397 7.78214 100.836 9.3748 99.1874C19.111 98.1269 42.7788 98.905 53.541 98.9798L53.7319 106.158C41.1049 106.036 28.4761 106.057 15.8491 106.223L8.04287 106.107Z" fill="#E4AA77"/>
<path d="M61.3956 15.2819C61.376 14.2223 61.3685 8.32833 62.4507 8.25442C73.8358 7.47083 96.2839 5.99454 107.184 7.89207C105.222 8.13605 102.751 8.13161 100.732 8.19483C95.6317 8.1886 72.4521 7.79769 69.5514 8.93478C68.6181 11.6132 68.9902 12.7548 69.3346 15.5579L68.653 15.5027L61.3956 15.2819Z" fill="#A76C49"/>
<path d="M153.187 114.252L160.51 114.009C160.424 117.643 161.086 118.475 159.159 120.731C153.355 122.731 152.865 121.658 153.173 128.128L152.559 128.4C152.208 125.014 152.85 117.853 153.187 114.252Z" fill="#75412C"/>
</svg>
