<svg width="168" height="179" viewBox="0 0 168 179" fill="none" xmlns="http://www.w3.org/2000/svg">
<path d="M10.4561 4.48389C10.9 1.68637 10.4035 1.60788 12.0896 0.242035C21.3908 -0.18329 32.7129 0.10533 42.2373 0.104697L127.643 0.0806353C132.598 0.066078 141.193 -0.218102 145.681 0.375581C146.633 2.05093 146.337 3.67691 146.274 5.67315L151.653 5.68898C151.896 8.01244 151.582 8.97575 152.848 10.5473C154.334 10.7163 155.716 10.8695 157.195 11.1182C157.552 13.6872 157.167 14.5246 158.716 15.9493C161.359 16.0196 160.542 15.6379 162.189 17.0519C162.354 18.5177 162.441 19.7646 162.512 21.2387C165.173 23.1646 165.569 20.6405 167.639 22.576C168.144 33.0237 168.22 171.1 167.205 172.728C165.697 172.918 164.525 173.004 163.006 173.073C161.039 176.299 163.842 176.476 161.43 178.327C156.252 179.103 151.372 178.223 146.176 178.451L21.7491 178.409C22.1302 173.373 21.7529 174.204 17.1302 172.596C15.77 170.652 16.2367 170.521 16.1841 167.68C14.2824 167.724 13.6679 167.781 11.8302 167.338C10.64 165.585 11.0712 164.966 11.0636 162.499C9.28555 162.367 8.17966 162.247 6.42824 161.921C5.06363 160.226 5.50244 159.433 5.38196 156.842C3.62293 156.885 1.99198 156.694 0.243731 156.538L0.251972 44.103C0.250704 39.5175 -0.387209 14.4974 0.371825 12.0347C2.16256 10.3758 1.95965 10.9049 5.04778 10.7517L5.09343 9.39222L5.6914 6.61115C7.26083 5.27568 8.10547 5.64658 10.5398 5.43138L10.4561 4.48389Z" fill="#FBDEAB"/>
<path d="M5.09343 9.39222L5.6914 6.61115C7.26083 5.27568 8.10547 5.64658 10.5398 5.43138L10.8207 10.9011C8.65207 11.1201 7.24434 10.8416 5.89939 12.0518C5.38766 55.0292 6.07187 98.6041 5.85754 141.673L5.95963 145.821C7.70914 145.98 9.30395 146.162 11.0674 146.129L10.8544 151.545C47.222 150.753 107.43 151.955 145.203 151.258C146.78 151.229 145.972 147.12 146.239 146.697C147.511 144.684 148.877 146.951 151.076 144.833C152.042 133.445 151.243 109.477 151.226 96.8477L151.269 11.241L146.272 11.2619L146.274 5.67315L151.653 5.68898C151.896 8.01244 151.582 8.97575 152.848 10.5473C154.334 10.7163 155.716 10.8695 157.195 11.1182C157.552 13.6872 157.167 14.5246 158.716 15.9493C161.359 16.0196 160.542 15.6379 162.189 17.0519C162.354 18.5177 162.441 19.7646 162.512 21.2387C165.173 23.1646 165.569 20.6405 167.639 22.576C168.144 33.0237 168.22 171.1 167.205 172.728C165.697 172.918 164.525 173.004 163.006 173.073C161.039 176.299 163.842 176.476 161.43 178.327C156.252 179.103 151.372 178.223 146.176 178.451L21.7491 178.409C22.1302 173.373 21.7529 174.204 17.1302 172.596C15.77 170.652 16.2367 170.521 16.1841 167.68C14.2824 167.724 13.6679 167.781 11.8302 167.338C10.64 165.585 11.0712 164.966 11.0636 162.499C9.28555 162.367 8.17966 162.247 6.42824 161.921C5.06363 160.226 5.50244 159.433 5.38196 156.842C3.62293 156.885 1.99198 156.694 0.243731 156.538L0.251972 44.103C0.250704 39.5175 -0.387209 14.4974 0.371825 12.0347C2.16256 10.3758 1.95965 10.9049 5.04778 10.7517L5.09343 9.39222Z" fill="#A4A1A6"/>
<path d="M5.09343 9.39222L5.6914 6.61115C7.26083 5.27568 8.10547 5.64658 10.5398 5.43138L10.8207 10.9011C8.65207 11.1201 7.24434 10.8416 5.89939 12.0518C5.38766 55.0292 6.07187 98.6041 5.85754 141.673L5.95963 145.821C7.70914 145.98 9.30395 146.162 11.0674 146.129L10.8544 151.545C47.222 150.753 107.43 151.955 145.203 151.258C146.78 151.229 145.972 147.12 146.239 146.697C147.511 144.684 148.877 146.951 151.076 144.833C152.042 133.445 151.243 109.477 151.226 96.8477L151.269 11.241L146.272 11.2619L146.274 5.67315L151.653 5.68898C151.896 8.01244 151.582 8.97575 152.848 10.5473C154.334 10.7163 155.716 10.8695 157.195 11.1182L152.84 11.5581C150.104 15.2544 153.087 133.409 151.825 148.081C151.695 149.586 151.326 154.763 150.418 155.506C146.941 158.346 146.042 154.953 146.397 161.854L146.801 162.126L146.706 162.491C146.04 165.089 146.583 166.16 145.182 167.473C133.937 168.295 119.068 167.452 107.488 167.638C77.3874 168.119 46.1871 166.995 16.1841 167.68C14.2824 167.724 13.6679 167.781 11.8302 167.338C10.64 165.585 11.0712 164.966 11.0636 162.499C9.28555 162.367 8.17966 162.247 6.42824 161.921C5.06363 160.226 5.50244 159.433 5.38196 156.842C3.62293 156.885 1.99198 156.694 0.243731 156.538L0.251972 44.103C0.250704 39.5175 -0.387209 14.4974 0.371825 12.0347C2.16256 10.3758 1.95965 10.9049 5.04778 10.7517L5.09343 9.39222Z" fill="#9A5A38"/>
<path d="M146.397 161.854L146.801 162.126L146.706 162.491C146.04 165.089 146.583 166.16 145.182 167.473C133.937 168.295 119.068 167.452 107.488 167.638C77.3874 168.119 46.1871 166.995 16.1841 167.68C14.2824 167.724 13.6679 167.781 11.8302 167.338C10.64 165.585 11.0712 164.966 11.0636 162.499L11.3629 162.155C42.281 161.701 73.4362 162.37 104.339 162.092C115.763 161.99 135.936 162.798 146.397 161.854Z" fill="#572C1A"/>
<path d="M5.04778 10.7517C5.80174 17.3886 5.35025 35.825 5.35151 43.2087L5.3661 139.497C5.38766 142.264 5.71423 153.474 5.32742 155.627C3.54746 156.471 2.18348 156.42 0.243731 156.538L0.251972 44.103C0.250704 39.5175 -0.387209 14.4974 0.371825 12.0347C2.16256 10.3758 1.95965 10.9049 5.04778 10.7517Z" fill="#572C1A"/>
<path d="M5.38196 156.842C7.34644 156.761 9.22214 156.379 10.6895 157.457C11.4289 159.203 11.3134 160.27 11.3629 162.155L11.0636 162.499C9.28555 162.367 8.17966 162.247 6.42824 161.921C5.06363 160.226 5.50244 159.433 5.38196 156.842Z" fill="#572C1A"/>
<path d="M146.274 5.67315L151.653 5.68898C151.442 7.63712 151.216 9.26816 151.269 11.241L146.272 11.2619L146.274 5.67315Z" fill="#572C1A"/>
<path d="M5.09343 9.39222L5.6914 6.61115C7.26083 5.27568 8.10547 5.64658 10.5398 5.43138L10.8207 10.9011C8.6749 10.7416 6.63433 10.8593 5.09343 9.39222Z" fill="#5F2F17"/>
<path d="M146.397 161.854C146.042 154.953 146.941 158.346 150.418 155.506C151.326 154.763 151.695 149.586 151.825 148.081C153.087 133.409 150.104 15.2544 152.84 11.5581L157.195 11.1182C156.154 28.3413 158.757 153.534 156.164 156.656C154.468 156.736 153.667 156.652 152.089 157.363C151.094 159.021 151.291 159.556 151.538 161.515C149.565 162.586 149.385 162.183 146.801 162.126L146.397 161.854Z" fill="#572C1A"/>
<path d="M108.151 11.3024C112.036 10.1992 135.623 10.5574 139.917 11.2011C143.382 14.2259 138.453 15.5468 146.267 15.967L146.272 11.2619L151.269 11.241L151.226 96.8477C151.243 109.477 152.042 133.445 151.076 144.833C148.877 146.951 147.511 144.684 146.239 146.697C145.972 147.12 146.78 151.229 145.203 151.258C107.43 151.955 47.222 150.753 10.8544 151.545L11.0674 146.129C13.6083 145.958 17.9361 146.348 19.2354 146.191C20.451 146.113 30.5036 145.186 30.5334 145.19C33.1872 146.598 37.6666 146.914 39.6444 144.278L40.1872 145.807C42.8733 146.564 65.5866 146.722 67.4312 145.68C69.7939 146.001 71.0165 146.333 73.1103 145.149C75.9328 142.02 81.7102 139.428 82.922 135.474C80.4832 132.864 82.0957 125.208 81.2625 119.958C85.0437 119.066 85.6398 118.761 87.1521 115.301C87.4958 117.955 86.8953 118.079 89.1788 119.439C94.1363 113.204 92.9999 117.868 94.3182 110.009C95.9492 108.725 95.1908 109.035 97.1813 108.752C98.5858 109.676 98.6778 110.575 99.2466 112.229L99.4691 112.884C101.233 114.133 105.822 113.273 108.623 114.19C113.687 115.847 112.635 116.505 118.402 117.021C120.182 116.488 120.082 115.73 120.555 114.202C119.484 114.005 118.39 113.754 117.324 113.524L116.434 111.887C112.351 110.051 111.607 113.746 109.23 107.929C105.011 108.962 105.067 107.969 101.895 105.877C97.2111 102.787 92.6778 99.5567 88.2301 96.13C88.2301 96.13 87.5085 91.9882 87.4394 91.59C87.9327 87.6526 95.849 84.4348 99.3816 82.9304C100.054 81.5335 104.768 78.624 106.206 77.8372L106.765 76.134L108.926 75.4866C113.813 76.2733 126.628 75.3245 129.134 76.5416C129.95 78.2107 130.073 78.3974 131.694 79.2968C131.714 76.8087 131.822 75.56 131.152 73.1479C127.959 70.3713 127.021 73.9555 123.179 69.544C124 65.9104 125.384 65.4819 125.525 61.7249C125.564 57.9856 125.671 55.3317 125.067 51.5937C123.754 52.3855 124.453 52.1836 122.882 52.1734L119.298 51.7747C119.555 50.0221 119.245 49.1189 118.893 47.3999L118.697 43.6321C113.188 41.1941 109.228 36.3054 104.652 32.4268C103.757 32.3914 102.996 32.361 102.37 32.3363L100.978 32.0224C99.641 30.4249 100.051 29.5401 99.9022 27.0514L98.3892 26.652L98.0196 27.0603C96.7165 28.4831 96.3905 28.8711 94.5085 29.5635C94.4888 28.1343 94.771 25.785 94.9029 24.2894L95.5592 24.3064C97.9276 19.9988 103.081 17.0436 106.508 12.8847L106.864 12.4467L106.933 12.786L107.761 12.7651L108.151 11.3024Z" fill="#D29362"/>
<path d="M108.926 75.4866C113.813 76.2733 126.628 75.3245 129.134 76.5416C129.95 78.2107 130.073 78.3974 131.694 79.2968C132.875 81.1462 132.438 81.1537 134.03 81.6196C134.391 80.6297 134.775 77.9271 134.973 76.7631C138.317 79.2252 141.474 85.2988 145.555 86.2551L143.73 87.5798L143.818 88.3773L144.479 88.4381L146.482 90.0077L146.274 91.3679C145.506 91.7432 145.052 92.0299 144.222 92.2381L145.718 92.9881C146.866 97.6104 145.896 132.519 146.319 140.465L141.987 140.452C141.744 139.891 141.225 139.057 140.905 138.499C138.776 138.107 131.947 134.553 130.655 133.14C124.247 129.041 128.085 127.161 123.014 124.005C122.48 122.768 122.668 115.283 122.544 113.155L120.555 114.202C119.484 114.005 118.39 113.754 117.324 113.524L116.434 111.887C112.351 110.051 111.607 113.746 109.23 107.929C105.011 108.962 105.067 107.969 101.895 105.877C97.2111 102.787 92.6778 99.5567 88.2301 96.13C88.2301 96.13 87.5085 91.9882 87.4394 91.59C87.9327 87.6526 95.849 84.4348 99.3816 82.9304C100.054 81.5335 104.768 78.624 106.206 77.8372L106.765 76.134L108.926 75.4866Z" fill="#F3C481"/>
<path d="M87.4394 91.59C94.8788 93.397 94.1134 99.087 103.222 100.346C103.609 101.35 103.756 101.748 104.287 102.714C107.302 103.743 114.16 106.337 116.95 106.481L117.463 106.887C120.488 109.312 121.86 108.447 125.364 107.476L125.243 108.25L123.741 109.025L124.117 110.649L123.727 113.045L122.544 113.155L120.555 114.202C119.484 114.005 118.39 113.754 117.324 113.524L116.434 111.887C112.351 110.051 111.607 113.746 109.23 107.929C105.011 108.962 105.067 107.969 101.895 105.877C97.2111 102.787 92.6778 99.5567 88.2301 96.13C88.2301 96.13 87.5085 91.9882 87.4394 91.59Z" fill="#C08052"/>
<path d="M109.23 107.929L111.397 107.102C113.084 108.419 115.264 110.08 116.434 111.887C112.351 110.051 111.607 113.746 109.23 107.929Z" fill="#C88758"/>
<path d="M108.926 75.4866C113.813 76.2733 126.628 75.3245 129.134 76.5416L128.763 78.5138C125.238 79.8626 112.271 78.8265 107.562 78.8512L106.206 77.8372L106.765 76.134L108.926 75.4866Z" fill="#F6CF98"/>
<path d="M134.973 76.7631C138.317 79.2252 141.474 85.2988 145.555 86.2551L143.73 87.5798L143.818 88.3773L144.479 88.4381L146.482 90.0077L146.274 91.3679C145.506 91.7432 145.052 92.0299 144.222 92.2381C142.259 90.747 135.03 83.7051 134.03 81.6196C134.391 80.6297 134.775 77.9271 134.973 76.7631Z" fill="#AE6F44"/>
<path d="M125.364 107.476C127.375 103.867 130.966 104.275 134.601 105.408C135.53 106.569 135.458 106.526 135.579 108.041C134.343 108.096 131.416 108.036 130.552 108.633C128.19 107.482 128.293 107.949 125.243 108.25L125.364 107.476Z" fill="#AE6F44"/>
<path d="M124.117 110.649L126.461 112.147C125.753 114.128 126.139 113.79 125.957 114.749C125.095 119.277 122.877 118.398 123.014 124.005C122.48 122.768 122.668 115.283 122.544 113.155L123.727 113.045L124.117 110.649Z" fill="#AE6F44"/>
<path d="M125.496 104.781C129.501 103.643 136.298 104.273 140.075 106.17L140.408 107.171C138.283 108.426 138.403 108.006 135.579 108.041C135.458 106.526 135.53 106.569 134.601 105.408C130.966 104.275 127.375 103.867 125.364 107.476L125.496 104.781Z" fill="#D29362"/>
<path d="M117.463 106.887C120.117 104.535 121.744 105.03 125.496 104.781L125.364 107.476C121.86 108.447 120.488 109.312 117.463 106.887Z" fill="#F6CF98"/>
<path d="M125.243 108.25C128.293 107.949 128.19 107.482 130.552 108.633C129.356 111.32 129.503 111.377 126.461 112.147L124.117 110.649L123.741 109.025L125.243 108.25Z" fill="#9A5A38"/>
<path d="M89.1788 119.439C94.1363 113.204 92.9999 117.868 94.3182 110.009C95.9492 108.725 95.1908 109.035 97.1813 108.752C98.5858 109.676 98.6778 110.575 99.2466 112.229L99.4691 112.884C101.233 114.133 105.822 113.273 108.623 114.19C113.687 115.847 112.635 116.505 118.402 117.021C120.182 116.488 120.082 115.73 120.555 114.202L122.544 113.155C122.668 115.283 122.48 122.768 123.014 124.005C128.085 127.161 124.247 129.041 130.655 133.14C131.947 134.553 138.776 138.107 140.905 138.499C141.225 139.057 141.744 139.891 141.987 140.452L140.872 140.699L141.234 143.814L143.334 144.084L143.762 144.893L144.99 144.752L144.97 145.297C137.96 146.404 75.7527 146.727 73.1103 145.149C75.9328 142.02 81.7102 139.428 82.922 135.474C80.4832 132.864 82.0957 125.208 81.2625 119.958C85.0437 119.066 85.6398 118.761 87.1521 115.301C87.4958 117.955 86.8953 118.079 89.1788 119.439Z" fill="#F3C481"/>
<path d="M120.555 114.202L122.544 113.155C122.668 115.283 122.48 122.768 123.014 124.005C128.085 127.161 124.247 129.041 130.655 133.14C129.406 134.431 130.008 134.043 128.176 134.464C128.461 136.1 128.977 136.154 130.319 137.51C129.266 138.775 129.586 138.371 127.456 138.709C124.129 137.347 124.119 133.399 122.33 130.153C120.762 129.764 120.276 129.751 118.65 129.664C117.624 127.135 117.899 119.754 118.402 117.021C120.182 116.488 120.082 115.73 120.555 114.202Z" fill="#9A5A38"/>
<path d="M87.1521 115.301C87.4958 117.955 86.8953 118.079 89.1788 119.439L87.9429 119.978C86.4229 125.045 85.0393 129.324 84.6436 134.666C84.6163 135.036 83.2859 135.401 82.922 135.474C80.4832 132.864 82.0957 125.208 81.2625 119.958C85.0437 119.066 85.6398 118.761 87.1521 115.301Z" fill="#8C502D"/>
<path d="M130.655 133.14C131.947 134.553 138.776 138.107 140.905 138.499C141.225 139.057 141.744 139.891 141.987 140.452L140.872 140.699C136.236 139.888 130.744 141.999 127.456 138.709C129.586 138.371 129.266 138.775 130.319 137.51C128.977 136.154 128.461 136.1 128.176 134.464C130.008 134.043 129.406 134.431 130.655 133.14Z" fill="#BA7948"/>
<path d="M115.279 129.945C117.072 130.453 117.374 130.319 118.316 131.884C118.307 132.427 118.299 132.853 118.077 133.359C117.124 135.54 112.184 139.942 110.03 140.935C109.231 141.303 108.691 141.728 108.033 142.311L107.761 142.556L106.527 142.968L105.899 142.193C107.283 137.109 114.452 134.986 115.279 129.945Z" fill="#C08052"/>
<path d="M108.151 11.3024C112.036 10.1992 135.623 10.5574 139.917 11.2011C143.382 14.2259 138.453 15.5468 146.267 15.967C146.268 19.1298 146.52 29.8179 145.768 32.1971L145.131 32.6078L146.304 33.5237L146.822 38.2618C144.78 42.572 140.439 39.6314 135.963 41.0739L135.638 41.1435C134.531 41.8011 134.508 41.7485 133.295 41.9517L131.477 40.2175L129.803 40.1991C128.318 43.6631 128.2 43.0568 124.5 42.4555C122.775 44.8866 123.668 44.2954 121.213 45.1157C119.754 44.7214 119.584 44.76 118.697 43.6321C113.188 41.1941 109.228 36.3054 104.652 32.4268C103.757 32.3914 102.996 32.361 102.37 32.3363L100.978 32.0224C99.641 30.4249 100.051 29.5401 99.9022 27.0514L98.3892 26.652L98.0196 27.0603C96.7165 28.4831 96.3905 28.8711 94.5085 29.5635C94.4888 28.1343 94.771 25.785 94.9029 24.2894L95.5592 24.3064C97.9276 19.9988 103.081 17.0436 106.508 12.8847L106.864 12.4467L106.933 12.786L107.761 12.7651L108.151 11.3024Z" fill="#F3C481"/>
<path d="M124.5 42.4555L125.319 41.8827C125.476 41.3004 125.814 39.982 126.201 39.577C134.746 30.6344 133.375 32.7053 145.131 32.6078L146.304 33.5237L146.822 38.2618C144.78 42.572 140.439 39.6314 135.963 41.0739L135.638 41.1435C134.531 41.8011 134.508 41.7485 133.295 41.9517L131.477 40.2175L129.803 40.1991C128.318 43.6631 128.2 43.0568 124.5 42.4555Z" fill="#BA7948"/>
<path d="M131.477 40.2175C133.503 36.1579 142.873 37.4738 146.822 38.2618C144.78 42.572 140.439 39.6314 135.963 41.0739L135.638 41.1435C134.531 41.8011 134.508 41.7485 133.295 41.9517L131.477 40.2175Z" fill="#9A5A38"/>
<path d="M108.151 11.3024L110.317 11.5435C114.043 16.7291 103.171 24.0824 99.9022 27.0514L98.3892 26.652L98.0196 27.0603C96.7165 28.4831 96.3905 28.8711 94.5085 29.5635C94.4888 28.1343 94.771 25.785 94.9029 24.2894L95.5592 24.3064C97.9276 19.9988 103.081 17.0436 106.508 12.8847L106.864 12.4467L106.933 12.786L107.761 12.7651L108.151 11.3024Z" fill="#AE6F44"/>
<path d="M124.5 42.4555C128.2 43.0568 128.318 43.6631 129.803 40.1991L131.477 40.2175L133.295 41.9517C134.508 41.7485 134.531 41.8011 135.638 41.1435L135.963 41.0739L146.212 41.0884C146.26 45.2923 146.7 61.7065 145.556 64.356L145.682 65.075C146.172 66.9807 146.596 67.925 145.902 69.8054L145.169 70.4206C146.752 72.265 146.565 84.2209 145.555 86.2551C141.474 85.2988 138.317 79.2252 134.973 76.7631C134.775 77.9271 134.391 80.6297 134.03 81.6196C132.438 81.1537 132.875 81.1462 131.694 79.2968C131.714 76.8087 131.822 75.56 131.152 73.1479C127.959 70.3713 127.021 73.9555 123.179 69.544C124 65.9104 125.384 65.4819 125.525 61.7249C125.564 57.9856 125.671 55.3317 125.067 51.5937C123.754 52.3855 124.453 52.1836 122.882 52.1734L119.298 51.7747C119.555 50.0221 119.245 49.1189 118.893 47.3999L118.697 43.6321C119.584 44.76 119.754 44.7214 121.213 45.1157C123.668 44.2954 122.775 44.8866 124.5 42.4555Z" fill="#F3C481"/>
<path d="M125.525 61.7249C125.722 59.9989 125.713 59.9154 126.55 58.4236L126.109 58.8875L126.591 58.2868C126.596 60.3198 125.827 67.3775 126.197 68.351C128.582 68.3345 130.9 68.5548 132.996 67.4965L133.56 65.1585L133.122 64.6041L129.72 65.6237C127.026 64.1401 127.702 62.0812 127.842 59.1748C129.335 62.3141 127.396 61.285 129.972 63.7002C133.844 64.5338 141.816 59.54 145.35 62.5527L145.556 64.356L145.682 65.075C146.172 66.9807 146.596 67.925 145.902 69.8054L145.169 70.4206C146.752 72.265 146.565 84.2209 145.555 86.2551C141.474 85.2988 138.317 79.2252 134.973 76.7631C134.775 77.9271 134.391 80.6297 134.03 81.6196C132.438 81.1537 132.875 81.1462 131.694 79.2968C131.714 76.8087 131.822 75.56 131.152 73.1479C127.959 70.3713 127.021 73.9555 123.179 69.544C124 65.9104 125.384 65.4819 125.525 61.7249Z" fill="#F6CF98"/>
<path d="M134.949 70.2567C138.214 70.3035 141.952 70.2668 145.169 70.4206C146.752 72.265 146.565 84.2209 145.555 86.2551C141.474 85.2988 138.317 79.2252 134.973 76.7631C134.857 74.8853 134.945 72.2042 134.949 70.2567Z" fill="#F3C481"/>
<path d="M134.663 65.0699C134.827 66.7864 135.071 68.5472 134.949 70.2567C134.945 72.2042 134.857 74.8853 134.973 76.7631C134.775 77.9271 134.391 80.6297 134.03 81.6196C132.438 81.1537 132.875 81.1462 131.694 79.2968C131.714 76.8087 131.822 75.56 131.152 73.1479C127.959 70.3713 127.021 73.9555 123.179 69.544C129.224 68.4655 133.195 71.8283 134.663 65.0699Z" fill="#9E643F"/>
<path d="M134.663 65.0699L145.682 65.075C146.172 66.9807 146.596 67.925 145.902 69.8054L145.169 70.4206C141.952 70.2668 138.214 70.3035 134.949 70.2567C135.071 68.5472 134.827 66.7864 134.663 65.0699Z" fill="#8C502D"/>
<path d="M124.5 42.4555C128.2 43.0568 128.318 43.6631 129.803 40.1991L131.477 40.2175L133.295 41.9517C134.508 41.7485 134.531 41.8011 135.638 41.1435C133.787 46.4233 126.123 48.1411 125.067 51.5937C123.754 52.3855 124.453 52.1836 122.882 52.1734L119.298 51.7747C119.555 50.0221 119.245 49.1189 118.893 47.3999L118.697 43.6321C119.584 44.76 119.754 44.7214 121.213 45.1157C123.668 44.2954 122.775 44.8866 124.5 42.4555Z" fill="#9E643F"/>
<path d="M124.5 42.4555C124.281 44.6543 124.089 50.838 122.882 52.1734L119.298 51.7747C119.555 50.0221 119.245 49.1189 118.893 47.3999L118.697 43.6321C119.584 44.76 119.754 44.7214 121.213 45.1157C123.668 44.2954 122.775 44.8866 124.5 42.4555Z" fill="#AE6F44"/>
<path d="M141.987 140.452L146.319 140.465C146.034 142.864 146.476 142.333 145.05 143.525L141.234 143.814L140.872 140.699L141.987 140.452Z" fill="#AE6F44"/>
<path d="M11.0788 43.491C12.9139 43.6492 14.0693 43.4283 15.3787 44.3644C19.7674 49.4012 25.1675 42.6758 28.555 48.831L34.404 48.8019C34.6843 51.0203 34.7484 53.3475 35.9335 55.1925C37.2766 54.2912 38.0096 53.8001 39.2195 52.738C42.9322 51.9323 48.6862 50.5475 52.1656 52.6399C52.8961 54.0456 52.8669 53.964 52.8713 55.5533C57.3272 55.44 62.8757 54.9235 67.0235 56.1324C67.8808 57.2368 67.9975 57.3508 68.5048 58.6362C71.3139 59.9363 70.0488 60.0628 72.0888 61.573C76.8129 65.0686 75.986 71.7548 75.9156 77.1309C72.6049 78.4702 70.8592 82.724 67.6975 82.9627L67.7128 84.8045C60.2524 84.9184 52.7914 84.9754 45.3304 84.976C45.0216 86.4406 44.988 87.2988 44.1269 88.476L42.5423 88.0431C40.6773 89.1159 38.47 90.5793 36.4453 91.0071C35.6222 93.1806 34.6349 96.0427 33.5613 98.0307L18.0376 98.0883C16.8702 100.126 13.5855 101.942 11.2526 101.752L11.2678 99.1041C12.9342 97.8522 12.8987 98.3104 13.2031 96.7724L11.9919 96.2015C9.94565 92.6362 11.0224 56.7811 11.134 49.3658C10.7003 47.6271 10.9774 45.3404 11.0788 43.491Z" fill="#F3C481"/>
<path d="M32.5727 92.8059C32.9887 90.571 32.4922 91.3672 34.6013 89.9077L36.4453 91.0071C35.6222 93.1806 34.6349 96.0427 33.5613 98.0307L18.0376 98.0883C16.8702 100.126 13.5855 101.942 11.2526 101.752L11.2678 99.1041C13.4789 98.706 13.7332 98.6104 15.5493 97.2946C16.6666 95.4844 16.8873 95.2122 16.7002 93.1217C20.6121 93.0875 29.0242 93.2382 32.5727 92.8059Z" fill="#C88758"/>
<path d="M20.9539 74.6701C21.8207 72.5713 24.4358 70.6086 26.5372 70.0016C32.7515 68.206 39.4535 76.1081 43.1282 79.9335C40.9335 79.9601 40.1796 79.5638 38.7141 80.6658L38.5251 81.6038C34.5898 77.5113 32.2696 72.9219 26.2278 74.3935C25.4409 75.072 25.2005 75.322 24.2639 75.7922L23.6476 76.0942L20.9539 74.6701Z" fill="#BA7948"/>
<path d="M11.0788 43.491C12.9139 43.6492 14.0693 43.4283 15.3787 44.3644C19.7674 49.4012 25.1675 42.6758 28.555 48.831C29.2823 49.3481 29.6837 49.5601 30.5556 49.7607C27.7344 50.5987 14.6933 49.7848 11.134 49.3658C10.7003 47.6271 10.9774 45.3404 11.0788 43.491Z" fill="#F6CF98"/>
<path d="M44.0749 82.3038C44.4605 82.0607 44.9538 81.7493 45.5543 81.3702C52.3209 82.119 59.2283 81.5126 65.9518 82.1804C66.7191 82.2563 67.2613 82.65 67.6975 82.9627L67.7128 84.8045C60.2524 84.9184 52.7914 84.9754 45.3304 84.976L44.0749 82.3038Z" fill="#F6CF98"/>
<path d="M34.404 48.8019C34.6843 51.0203 34.7484 53.3475 35.9335 55.1925C35.3476 58.1881 29.8372 62.199 27.3673 64.9414L26.2798 65.0781C25.8093 63.98 25.5626 61.7458 25.3692 60.4787C25.801 60.1173 26.8207 59.84 26.9982 59.6325C30.0775 56.0444 33.4389 53.3811 34.404 48.8019Z" fill="#BA7948"/>
<path d="M43.1282 79.9335C43.3907 80.524 44.0014 81.7417 44.0749 82.3038L45.3304 84.976C45.0216 86.4406 44.988 87.2988 44.1269 88.476L42.5423 88.0431C40.6773 89.1159 38.47 90.5793 36.4453 91.0071L34.6013 89.9077C36.5137 88.2292 39.8219 86.1222 40.4757 84.2513C39.8612 82.0576 40.3945 82.7557 38.5251 81.6038L38.7141 80.6658C40.1796 79.5638 40.9335 79.9601 43.1282 79.9335Z" fill="#AE6F44"/>
<path d="M52.8713 55.5533C57.3272 55.44 62.8757 54.9235 67.0235 56.1324C67.8808 57.2368 67.9975 57.3508 68.5048 58.6362C65.4978 60.6318 57.1979 59.4147 53.9113 58.1356C53.1218 57.8286 53.0647 56.3944 52.8713 55.5533Z" fill="#F6CF98"/>
<path d="M16.7002 93.1217L16.2893 91.6964C18.0997 88.6368 29.1301 88.9678 31.9621 90.5621L32.5727 92.8059C29.0242 93.2382 20.6121 93.0875 16.7002 93.1217Z" fill="#F6CF98"/>
<path d="M26.2798 65.0781C23.8911 65.3857 23.2906 65.4224 22.3946 63.2901C23.517 60.9869 22.7979 61.7686 25.3692 60.4787C25.5626 61.7458 25.8093 63.98 26.2798 65.0781Z" fill="#D29362"/>
<path d="M23.6476 76.0942C21.2316 76.7024 22.0173 78.2277 18.737 78.9708L17.827 78.2733L17.7846 76.9568C19.4028 76.3093 19.8778 76.0461 20.9539 74.6701L23.6476 76.0942Z" fill="#C08052"/>
<path d="M53.8574 96.9794C56.1776 97.8724 67.371 97.7895 70.0006 97.1806C70.4191 96.0249 70.5796 95.4851 70.8687 94.2901C76.5631 92.5394 80.3234 99.6288 84.383 102.547C85.1103 103.07 86.7019 101.657 88.3088 103.595L88.4248 104.302C88.6283 107.252 89.0399 110.893 88.5719 113.749L87.1521 115.301C85.6398 118.761 85.0437 119.066 81.2625 119.958C82.0957 125.208 80.4832 132.864 82.922 135.474C81.7102 139.428 75.9328 142.02 73.1103 145.149C71.0165 146.333 69.7939 146.001 67.4312 145.68C65.5866 146.722 42.8733 146.564 40.1872 145.807L39.6444 144.278C37.6666 146.914 33.1872 146.598 30.5334 145.19C34.7217 140.554 46.8555 131.281 38.7788 124.787C38.1764 124.303 38.2385 123.934 37.9938 123.184L36.4605 122.484L39.4199 121.477C38.6678 119.09 37.7065 117.555 36.4865 115.385C32.4827 110.043 36.6862 98.9104 42.7775 96.7085L43.2499 94.8508C46.6145 94.2154 49.1573 93.7578 52.4363 94.8224C53.1884 95.749 53.3469 95.8654 53.8574 96.9794Z" fill="#F3C481"/>
<path d="M39.4199 121.477C41.6057 123.679 41.9062 125.476 43.1707 126.391C45.0952 126.254 46.7597 126.074 48.6925 126.229L49.4141 128.137C43.139 131.079 48.0869 134.864 45.787 139.935L44.0318 140.483C42.7407 143.513 43.0705 143.271 39.6444 144.278C37.6666 146.914 33.1872 146.598 30.5334 145.19C34.7217 140.554 46.8555 131.281 38.7788 124.787C38.1764 124.303 38.2385 123.934 37.9938 123.184L36.4605 122.484L39.4199 121.477Z" fill="#9A5A38"/>
<path d="M48.6925 126.229L49.4141 128.137C43.139 131.079 48.0869 134.864 45.787 139.935L44.0318 140.483C43.151 138.311 43.4313 129.571 43.8859 127.02C45.5796 126.797 47.0229 126.544 48.6925 126.229Z" fill="#8C502D"/>
<path d="M81.2625 119.958C82.0957 125.208 80.4832 132.864 82.922 135.474C81.7102 139.428 75.9328 142.02 73.1103 145.149C71.0165 146.333 69.7939 146.001 67.4312 145.68C67.9226 142.09 76.2676 136.022 78.0482 132.719C79.2936 130.409 77.9765 123.434 79.4939 120.333L81.2625 119.958Z" fill="#A9643B"/>
<path d="M52.118 121.954C55.2252 121.223 56.1395 121.298 59.3678 121.425L61.8669 121.509C65.0431 122.284 64.9987 122.793 67.3843 125.527L67.3031 127.395C62.6874 129.717 55.4851 120.73 49.4141 128.137L48.6925 126.229C46.7597 126.074 45.0952 126.254 43.1707 126.391L43.5683 122.103C45.7813 122.655 50.1878 123.206 52.118 121.954Z" fill="#C08052"/>
<path d="M61.8669 121.509C61.9119 122.249 61.8485 123.225 61.8256 123.986L60.397 125.038C58.2271 125.376 57.229 125.096 56.2822 123.143C57.4845 121.551 56.8929 122.074 59.3678 121.425L61.8669 121.509Z" fill="#9A5A38"/>
<path d="M88.4248 104.302C88.6283 107.252 89.0399 110.893 88.5719 113.749L87.1521 115.301C85.6398 118.761 85.0437 119.066 81.2625 119.958C83.3874 108.378 87.9441 115.273 88.4248 104.302Z" fill="#AE6F44"/>
<path d="M43.2499 94.8508C46.6145 94.2154 49.1573 93.7578 52.4363 94.8224C53.1884 95.749 53.3469 95.8654 53.8574 96.9794C51.787 97.4952 46.3786 98.3794 44.3622 97.3553C43.4922 96.9135 43.5809 96.1034 43.2499 94.8508Z" fill="#F6CF98"/>
<path d="M36.4865 115.385C38.9532 117.046 40.9272 118.413 43.2506 120.26L43.5683 122.103L43.1707 126.391C41.9062 125.476 41.6057 123.679 39.4199 121.477C38.6678 119.09 37.7065 117.555 36.4865 115.385Z" fill="#A9643B"/>
<path d="M52.118 121.954C52.5625 121.068 52.82 120.755 53.3774 119.958C56.7692 119.065 57.9886 118.945 61.3596 119.887L61.8669 121.509L59.3678 121.425C56.1395 121.298 55.2252 121.223 52.118 121.954Z" fill="#C88758"/>
<path d="M59.7223 104.818C60.3285 104.868 60.9848 104.905 61.5485 105.162C62.8332 105.749 63.5834 107.901 64.1592 109.121C63.4693 108.984 62.74 108.84 62.097 108.546C60.572 107.849 60.1617 106.285 59.7223 104.818Z" fill="#EFBC84"/>
<path d="M83.986 39.8612C80.9518 38.5282 81.9549 27.2223 82.5878 24.3843C82.9067 25.3881 82.6341 24.9754 83.44 25.6622L87.5713 25.1153L87.305 27.0881C92.1375 27.4489 92.3265 28.1445 94.9029 24.2894C94.771 25.785 94.4888 28.1343 94.5085 29.5635C96.3905 28.8711 96.7165 28.4831 98.0196 27.0603L98.3892 26.652L99.9022 27.0514C100.051 29.5401 99.641 30.4249 100.978 32.0224L102.37 32.3363C102.996 32.361 103.757 32.3914 104.652 32.4268C109.228 36.3054 113.188 41.1941 118.697 43.6321L118.893 47.3999C119.245 49.1189 119.555 50.0221 119.298 51.7747L122.882 52.1734C124.453 52.1836 123.754 52.3855 125.067 51.5937C125.671 55.3317 125.564 57.9856 125.525 61.7249C125.384 65.4819 124 65.9104 123.179 69.544C127.021 73.9555 127.959 70.3713 131.152 73.1479C131.822 75.56 131.714 76.8087 131.694 79.2968C130.073 78.3974 129.95 78.2107 129.134 76.5416C126.628 75.3245 113.813 76.2733 108.926 75.4866L106.765 76.134L106.206 77.8372C104.768 78.624 100.054 81.5335 99.3816 82.9304L99.0443 81.9569C97.4787 80.7968 96.3493 81.2056 94.0278 81.1582C93.9568 81.2094 93.8851 81.2607 93.8141 81.3113C90.1819 82.0683 90.0583 85.6273 85.6125 84.0247C84.2054 81.5259 84.6969 81.655 84.745 78.3657C84.8712 73.4372 85.8547 66.7047 82.1693 64.0382C81.4698 63.5325 81.3215 61.7996 81.0925 60.7192L81.097 59.7692C76.83 58.8856 73.2885 50.5975 76.539 47.3442C79.1452 44.7353 81.9619 43.3201 83.986 39.8612Z" fill="#F3C481"/>
<path d="M122.882 52.1734C124.453 52.1836 123.754 52.3855 125.067 51.5937C125.671 55.3317 125.564 57.9856 125.525 61.7249C125.384 65.4819 124 65.9104 123.179 69.544C127.021 73.9555 127.959 70.3713 131.152 73.1479C131.822 75.56 131.714 76.8087 131.694 79.2968C130.073 78.3974 129.95 78.2107 129.134 76.5416C126.628 75.3245 113.813 76.2733 108.926 75.4866L108.113 74.8467C107.987 73.3473 107.986 71.4238 107.938 69.8827L108.49 66.3237C110.392 64.5819 111.248 65.0072 114.329 64.5465L115.134 63.0091L115.433 61.6641L117.794 60.8034L117.754 59.6432C118.48 56.3552 117.978 55.5976 119.298 51.7747L122.882 52.1734Z" fill="#83472D"/>
<path d="M117.794 60.8034C117.893 63.4085 118.375 66.3712 116.822 68.3446C112.687 71.5751 109.936 69.9542 108.113 74.8467C107.987 73.3473 107.986 71.4238 107.938 69.8827L108.49 66.3237C110.392 64.5819 111.248 65.0072 114.329 64.5465L115.134 63.0091L115.433 61.6641L117.794 60.8034Z" fill="#BA7948"/>
<path d="M107.938 69.8827C107.986 71.4238 107.987 73.3473 108.113 74.8467L108.926 75.4866L106.765 76.134L106.206 77.8372C104.768 78.624 100.054 81.5335 99.3816 82.9304L99.0443 81.9569C97.4787 80.7968 96.3493 81.2056 94.0278 81.1582C93.9568 81.2094 93.8851 81.2607 93.8141 81.3113C90.1819 82.0683 90.0583 85.6273 85.6125 84.0247C84.2054 81.5259 84.6969 81.655 84.745 78.3657C89.9226 78.8202 91.7558 77.1663 96.6239 75.1055C97.9371 73.4853 98.0278 73.0397 98.4026 71.0757L98.5009 70.5415C100.151 69.5485 105.661 69.882 107.938 69.8827Z" fill="#C08052"/>
<path d="M108.113 74.8467L108.926 75.4866L106.765 76.134L106.206 77.8372C104.768 78.624 100.054 81.5335 99.3816 82.9304L99.0443 81.9569C97.4787 80.7968 96.3493 81.2056 94.0278 81.1582C94.5338 79.9088 94.6981 79.0765 95.8027 78.3296C97.4634 79.0233 96.863 78.4657 97.6886 80.0335C99.2707 77.5929 97.2295 78.96 98.005 75.7682C100.435 74.684 105.169 75.2625 108.113 74.8467Z" fill="#9A5A38"/>
<path d="M83.986 39.8612C80.9518 38.5282 81.9549 27.2223 82.5878 24.3843C82.9067 25.3881 82.6341 24.9754 83.44 25.6622L87.5713 25.1153L87.305 27.0881C92.1375 27.4489 92.3265 28.1445 94.9029 24.2894C94.771 25.785 94.4888 28.1343 94.5085 29.5635C96.3905 28.8711 96.7165 28.4831 98.0196 27.0603L98.3892 26.652L99.9022 27.0514C100.051 29.5401 99.641 30.4249 100.978 32.0224L102.37 32.3363L102.663 34.0775C99.3728 35.6782 92.3373 33.8111 88.2403 34.9649L87.986 35.7883C86.4629 38.6991 84.8642 38.1346 83.986 39.8612Z" fill="#8C502D"/>
<path d="M87.305 27.0881C92.1375 27.4489 92.3265 28.1445 94.9029 24.2894C94.771 25.785 94.4888 28.1343 94.5085 29.5635C93.9073 31.7256 94.4159 30.9623 92.4787 32.3781C87.4559 32.8845 87.4533 31.0623 87.305 27.0881Z" fill="#C08052"/>
<path d="M102.37 32.3363C102.996 32.361 103.757 32.3914 104.652 32.4268C109.228 36.3054 113.188 41.1941 118.697 43.6321C116.369 43.653 116.564 43.2695 114.946 44.5163L114.205 46.417C110.656 47.0303 104.576 29.8888 87.986 35.7883L88.2403 34.9649C92.3373 33.8111 99.3728 35.6782 102.663 34.0775L102.37 32.3363Z" fill="#AE6F44"/>
<path d="M114.205 46.417L114.946 44.5163C116.564 43.2695 116.369 43.653 118.697 43.6321L118.893 47.3999C119.245 49.1189 119.555 50.0221 119.298 51.7747C117.978 55.5976 118.48 56.3552 117.754 59.6432C117.151 53.8089 119.911 49.0784 114.205 46.417Z" fill="#9A5A38"/>
<path d="M119.298 51.7747C119.555 50.0221 119.245 49.1189 118.893 47.3999C118.727 49.6709 118.332 49.9715 119.298 51.7747Z" fill="#9E643F"/>
<path d="M114.329 64.5465C112.575 64.456 111.388 64.5351 109.782 63.8205C108.666 62.2629 108.822 62.9673 109.083 61.2666C111.09 59.8166 110.155 60.1356 112.607 60.0394C114.922 61.328 114.25 60.5325 115.134 63.0091L114.329 64.5465Z" fill="#F6CF98"/>
<path d="M40.9126 27.5692C43.6006 27.335 44.2214 27.0052 46.728 25.9742L46.2626 29.799L46.061 32.1382C47.0806 42.1175 52.695 41.6922 55.0838 46.0613L55.4458 46.1436C55.8409 45.0575 55.9702 45.0878 56.8992 44.4315C60.39 43.7277 67.2657 43.1834 70.6791 44.2113C71.5041 43.2777 72.986 42.7327 74.2847 41.3739C74.033 44.1277 74.3671 45.8638 71.5701 47.4063L71.9848 48.8474L73.0222 47.6828L74.0387 48.1113C75.4832 52.7412 74.1401 56.3419 77.3982 59.8287C78.9581 60.3742 79.4502 60.4559 81.0925 60.7192C81.3215 61.7996 81.4698 63.5325 82.1693 64.0382C85.8547 66.7047 84.8712 73.4372 84.745 78.3657C84.6969 81.655 84.2054 81.5259 85.6125 84.0247C90.0583 85.6273 90.1819 82.0683 93.8141 81.3113C93.8851 81.2607 93.9568 81.2094 94.0278 81.1582C96.3493 81.2056 97.4787 80.7968 99.0443 81.9569L99.3816 82.9304C95.849 84.4348 87.9327 87.6526 87.4394 91.59C87.5085 91.9882 88.2301 96.13 88.2301 96.13C92.6778 99.5567 97.2111 102.787 101.895 105.877C105.067 107.969 105.011 108.962 109.23 107.929C111.607 113.746 112.351 110.051 116.434 111.887L117.324 113.524C118.39 113.754 119.484 114.005 120.555 114.202C120.082 115.73 120.182 116.488 118.402 117.021C112.635 116.505 113.687 115.847 108.623 114.19C105.822 113.273 101.233 114.133 99.4691 112.884L99.2466 112.229C98.6778 110.575 98.5858 109.676 97.1813 108.752C95.1908 109.035 95.9492 108.725 94.3182 110.009C92.9999 117.868 94.1363 113.204 89.1788 119.439C86.8953 118.079 87.4958 117.955 87.1521 115.301L88.5719 113.749C89.0399 110.893 88.6283 107.252 88.4248 104.302L88.3088 103.595C86.7019 101.657 85.1103 103.07 84.383 102.547C80.3234 99.6288 76.5631 92.5394 70.8687 94.2901C70.5796 95.4851 70.4191 96.0249 70.0006 97.1806C67.371 97.7895 56.1776 97.8724 53.8574 96.9794C53.3469 95.8654 53.1884 95.749 52.4363 94.8224C49.1573 93.7578 46.6145 94.2154 43.2499 94.8508L42.7775 96.7085C36.6862 98.9104 32.4827 110.043 36.4865 115.385C37.7065 117.555 38.6678 119.09 39.4199 121.477L36.4605 122.484C35.5841 121.034 34.3324 120 32.9836 118.908C28.7528 115.482 30.0008 108.442 30.0122 102.543L19.8619 102.471L18.7021 101.236C18.2411 100.29 18.1891 99.1699 18.0376 98.0883L33.5613 98.0307C34.6349 96.0427 35.6222 93.1806 36.4453 91.0071C38.47 90.5793 40.6773 89.1159 42.5423 88.0431L44.1269 88.476C44.988 87.2988 45.0216 86.4406 45.3304 84.976C52.7914 84.9754 60.2524 84.9184 67.7128 84.8045L67.6975 82.9627C70.8592 82.724 72.6049 78.4702 75.9156 77.1309C75.986 71.7548 76.8129 65.0686 72.0888 61.573C70.0488 60.0628 71.3139 59.9363 68.5048 58.6362C67.9975 57.3508 67.8808 57.2368 67.0235 56.1324C62.8757 54.9235 57.3272 55.44 52.8713 55.5533C52.8669 53.964 52.8961 54.0456 52.1656 52.6399C48.6862 50.5475 42.9322 51.9323 39.2195 52.738C38.0096 53.8001 37.2766 54.2912 35.9335 55.1925C34.7484 53.3475 34.6843 51.0203 34.404 48.8019L28.555 48.831C25.1675 42.6758 19.7674 49.4012 15.3787 44.3644C20.4681 43.2347 22.9621 44.2094 27.2227 43.8309C31.4859 48.4645 34.4611 46.5372 40.787 47.9379L41.1358 44.2739C40.8257 39.3586 40.9627 32.6243 40.9126 27.5692Z" fill="#83472D"/>
<path d="M45.3304 84.976C52.7914 84.9754 60.2524 84.9184 67.7128 84.8045L67.4807 91.7337C62.9683 91.7584 46.8758 92.4407 44.3108 90.7476L44.1269 88.476C44.988 87.2988 45.0216 86.4406 45.3304 84.976Z" fill="#C88758"/>
<path d="M74.2847 41.3739C74.033 44.1277 74.3671 45.8638 71.5701 47.4063L71.9848 48.8474C71.6722 49.9531 71.6037 51.4899 70.3583 51.8488C66.9062 52.8431 58.3463 53.2576 55.2651 51.5835L54.8352 50.0456L55.0838 46.0613L55.4458 46.1436C55.8409 45.0575 55.9702 45.0878 56.8992 44.4315C60.39 43.7277 67.2657 43.1834 70.6791 44.2113C71.5041 43.2777 72.986 42.7327 74.2847 41.3739Z" fill="#C08052"/>
<path d="M55.4458 46.1436C55.8409 45.0575 55.9702 45.0878 56.8992 44.4315C60.39 43.7277 67.2657 43.1834 70.6791 44.2113L70.4115 46.0936C68.0235 47.3214 58.0425 47.1417 55.4458 46.1436Z" fill="#F6CF98"/>
<path d="M40.9126 27.5692C43.6006 27.335 44.2214 27.0052 46.728 25.9742L46.2626 29.799L45.1732 28.8553L44.2207 29.4103C43.1041 34.6604 44.8561 45.0885 42.4922 48.0999L40.787 47.9379L41.1358 44.2739C40.8257 39.3586 40.9627 32.6243 40.9126 27.5692Z" fill="#9E643F"/>
<path d="M75.9156 77.1309C75.8852 91.2021 69.558 83.4367 67.4807 91.7337L67.7128 84.8045L67.6975 82.9627C70.8592 82.724 72.6049 78.4702 75.9156 77.1309Z" fill="#9E643F"/>
<path d="M46.061 32.1382C47.0806 42.1175 52.695 41.6922 55.0838 46.0613L54.8352 50.0456C53.8447 48.7424 47.7832 44.0701 46.1998 42.7511C45.9291 39.1131 45.5283 35.7617 46.061 32.1382Z" fill="#A9643B"/>
<path d="M40.9532 11.2087C56.6887 10.4416 92.4647 10.0473 108.151 11.3024L107.761 12.7651L106.933 12.786L106.864 12.4467L106.508 12.8847C103.081 17.0436 97.9276 19.9988 95.5592 24.3064L94.9029 24.2894C92.3265 28.1445 92.1375 27.4489 87.305 27.0881L87.5713 25.1153L83.44 25.6622C82.6341 24.9754 82.9067 25.3881 82.5878 24.3843C81.9549 27.2223 80.9518 38.5282 83.986 39.8612C81.9619 43.3201 79.1452 44.7353 76.539 47.3442C73.2885 50.5975 76.83 58.8856 81.097 59.7692L81.0925 60.7192C79.4502 60.4559 78.9581 60.3742 77.3982 59.8287C74.1401 56.3419 75.4832 52.7412 74.0387 48.1113L73.0222 47.6828L71.9848 48.8474L71.5701 47.4063C74.3671 45.8638 74.033 44.1277 74.2847 41.3739C72.986 42.7327 71.5041 43.2777 70.6791 44.2113C67.2657 43.1834 60.39 43.7277 56.8992 44.4315C55.9702 45.0878 55.8409 45.0575 55.4458 46.1436L55.0838 46.0613C52.695 41.6922 47.0806 42.1175 46.061 32.1382L46.2626 29.799L46.728 25.9742C44.2214 27.0052 43.6006 27.335 40.9126 27.5692L39.5638 27.0805C41.6761 25.5843 41.014 21.7583 40.9348 19.3291L40.9532 11.2087Z" fill="#F3C481"/>
<path d="M73.7305 13.1018C75.2796 15.1784 77.5453 17.6683 80.369 17.5316C82.5453 18.5449 85.9809 21.7311 87.343 23.6355L87.5713 25.1153L83.44 25.6622C82.6341 24.9754 82.9067 25.3881 82.5878 24.3843C81.9549 27.2223 80.9518 38.5282 83.986 39.8612C81.9619 43.3201 79.1452 44.7353 76.539 47.3442C73.2885 50.5975 76.83 58.8856 81.097 59.7692L81.0925 60.7192C79.4502 60.4559 78.9581 60.3742 77.3982 59.8287C74.1401 56.3419 75.4832 52.7412 74.0387 48.1113L73.0222 47.6828L71.9848 48.8474L71.5701 47.4063C74.3671 45.8638 74.033 44.1277 74.2847 41.3739C76.2714 39.5131 80.2346 34.6826 81.3639 32.3192C84.2853 26.2065 76.0869 21.8342 73.9137 17.0487C73.8884 16.993 73.7476 13.472 73.7305 13.1018Z" fill="#9A5A38"/>
<path d="M40.9348 19.3291C44.4947 21.119 42.2931 23.1792 46.1174 24.602L46.728 25.9742C44.2214 27.0052 43.6006 27.335 40.9126 27.5692L39.5638 27.0805C41.6761 25.5843 41.014 21.7583 40.9348 19.3291Z" fill="#AE6F44"/>
<path d="M73.7305 13.1018L74.0881 11.515C77.7666 10.3144 78.4122 13.6183 80.5979 16.3025L80.369 17.5316C77.5453 17.6683 75.2796 15.1784 73.7305 13.1018Z" fill="#BA7948"/>
<path d="M11.2526 101.752C13.5855 101.942 16.8702 100.126 18.0376 98.0883C18.1891 99.1699 18.2411 100.29 18.7021 101.236L19.8619 102.471L30.0122 102.543C30.0008 108.442 28.7528 115.482 32.9836 118.908C34.3324 120 35.5841 121.034 36.4605 122.484L37.9938 123.184C38.2385 123.934 38.1764 124.303 38.7788 124.787C46.8555 131.281 34.7217 140.554 30.5334 145.19C30.5036 145.186 20.451 146.113 19.2354 146.191C17.9361 146.348 13.6083 145.958 11.0674 146.129C9.30395 146.162 7.70914 145.98 5.95963 145.821L5.85754 141.673L10.5455 141.175C11.2798 136.312 11.0972 114.409 11.1391 108.382L11.205 102.814L11.2526 101.752Z" fill="#F3C481"/>
<path d="M11.2526 101.752C13.5855 101.942 16.8702 100.126 18.0376 98.0883C18.1891 99.1699 18.2411 100.29 18.7021 101.236L19.8619 102.471C18.756 107.17 15.7364 108.628 11.1391 108.382L11.205 102.814L11.2526 101.752Z" fill="#8C502D"/>
<path d="M11.2526 101.752C13.5855 101.942 16.8702 100.126 18.0376 98.0883C18.1891 99.1699 18.2411 100.29 18.7021 101.236C14.3331 101.743 16.803 102.612 13.3578 104.269L11.6432 103.712L11.205 102.814L11.2526 101.752Z" fill="#9E643F"/>
<path d="M5.85754 141.673L10.5455 141.175L12.0294 143.442C10.0674 146.082 9.21073 145.535 5.95963 145.821L5.85754 141.673Z" fill="#EFBC84"/>
<path d="M12.0294 143.442C14.3413 142.684 13.5449 142.603 15.4333 143.223C17.3863 145.877 16.4897 145.48 19.2354 146.191C17.9361 146.348 13.6083 145.958 11.0674 146.129C9.30395 146.162 7.70914 145.98 5.95963 145.821C9.21073 145.535 10.0674 146.082 12.0294 143.442Z" fill="#E0A775"/>
<path d="M11.0357 37.9497C11.018 34.0832 10.3008 18.7835 12.2095 16.617L14.7941 16.4563C16.4124 15.1537 16.0496 14.5873 16.5779 12.1005C19.4326 10.0562 31.4802 11.16 35.8156 11.2606L40.9532 11.2087L40.9348 19.3291C41.014 21.7583 41.6761 25.5843 39.5638 27.0805L40.9126 27.5692C40.9627 32.6243 40.8257 39.3586 41.1358 44.2739L40.787 47.9379C34.4611 46.5372 31.4859 48.4645 27.2227 43.8309C22.9621 44.2094 20.4681 43.2347 15.3787 44.3644C14.0693 43.4283 12.9139 43.6492 11.0788 43.491L11.0357 37.9497Z" fill="#F3C481"/>
<path d="M35.8156 11.2606L40.9532 11.2087L40.9348 19.3291C41.014 21.7583 41.6761 25.5843 39.5638 27.0805C38.8879 25.0223 38.8314 24.983 37.3089 23.5248C34.7851 21.1076 35.7179 14.6556 35.8156 11.2606Z" fill="#8C502D"/>
<path d="M11.0357 37.9497C18.1086 37.8959 16.9032 41.0042 24.0889 41.0454L25.0883 42.0112L28.0876 41.915L28.9868 42.8005C28.2531 43.1441 28.0464 43.241 27.269 43.4581L27.2227 43.8309C22.9621 44.2094 20.4681 43.2347 15.3787 44.3644C14.0693 43.4283 12.9139 43.6492 11.0788 43.491L11.0357 37.9497Z" fill="#AE6F44"/>
<path d="M24.0889 41.0454C26.7294 40.8574 26.8327 40.434 28.8644 41.4599C29.9361 43.1872 29.7535 43.6524 31.4427 43.9024C34.4453 44.3467 38.0426 44.2195 41.1358 44.2739L40.787 47.9379C34.4611 46.5372 31.4859 48.4645 27.2227 43.8309L27.269 43.4581C28.0464 43.241 28.2531 43.1441 28.9868 42.8005L28.0876 41.915L25.0883 42.0112L24.0889 41.0454Z" fill="#C08052"/>
<path d="M10.4561 4.48389C10.9 1.68637 10.4035 1.60788 12.0896 0.242035C21.3908 -0.18329 32.7129 0.10533 42.2373 0.104697L127.643 0.0806353C132.598 0.066078 141.193 -0.218102 145.681 0.375581C146.633 2.05093 146.337 3.67691 146.274 5.67315L44.4795 5.64467C34.6412 5.64593 21.5766 5.81366 11.5417 5.41302C11.1137 5.04656 10.7516 4.73706 10.4561 4.48389Z" fill="#572C1A"/>
</svg>
