<svg width="123" height="168" viewBox="0 0 123 168" fill="none" xmlns="http://www.w3.org/2000/svg">
<path d="M7.83397 6.8235C7.84028 3.86063 7.34197 2.8147 8.68731 0.582179C26.3812 -0.905567 52.2103 1.00594 70.6801 0.357642C77.3311 0.124111 109.703 -0.226636 114.375 0.810278C115.751 3.11313 115.454 4.178 115.358 6.87668C118.474 7.10841 120.417 6.65936 122.436 8.32834C122.952 13.3371 123.489 24.6196 122.204 29.3903C120.052 29.8168 118.78 29.9331 116.589 30.0846C114.144 34.4505 117.463 34.5866 114.8 37.517L111.544 37.8182C109.083 41.0444 112.224 42.9928 109.504 45.4427L105.626 45.7636C102.639 50.2647 106.812 51.0799 101.56 53.7524C100.041 56.5304 100.891 58.0677 99.0863 60.8728C97.9473 62.641 96.8786 65.4226 96.0099 67.4063C94.4943 67.9608 94.26 68.1664 92.62 68.1375L90.2825 68.6524C90.0375 72.1608 90.5917 73.4492 88.7129 75.7449C86.7467 75.9667 85.5085 76.1344 83.536 76.0866L82.9458 75.8982L75.8704 76.4184C73.6645 76.6673 69.824 76.4806 67.4803 76.4401C59.5624 76.5248 47.921 77.165 40.551 75.9612L35.6581 75.7377C35.3886 74.157 35.3354 70.0067 35.2616 68.2061C32.5709 68.3558 30.4704 68.839 28.3483 67.5893C28.6862 65.1729 28.7286 64.8455 27.9717 62.5373C26.0325 60.3345 25.4973 59.771 22.6129 59.138C20.7476 57.1787 19.8871 48.8663 19.3509 45.6437L15.1869 45.1271C13.1685 42.6574 13.9443 42.2922 14.093 38.1284L13.6839 37.9273L9.33159 37.3232C7.24826 34.5623 8.00247 34.1953 8.01239 29.889C5.12257 30.0531 3.57269 30.3208 0.78199 29.3489C-0.376821 26.2318 -0.360617 10.2011 1.59927 7.54481L7.83397 6.8235Z" fill="#6C1203"/>
<path d="M115.358 6.87668C118.474 7.10841 120.417 6.65936 122.436 8.32834C122.952 13.3371 123.489 24.6196 122.204 29.3903C120.052 29.8168 118.78 29.9331 116.589 30.0846C114.144 34.4505 117.463 34.5866 114.8 37.517L111.544 37.8182C109.083 41.0444 112.224 42.9928 109.504 45.4427L105.626 45.7636C102.639 50.2647 106.812 51.0799 101.56 53.7524C100.041 56.5304 100.891 58.0677 99.0863 60.8728C97.9473 62.641 96.8786 65.4226 96.0099 67.4063C94.4943 67.9608 94.26 68.1664 92.62 68.1375L90.2825 68.6524C90.0375 72.1608 90.5917 73.4492 88.7129 75.7449C86.7467 75.9667 85.5085 76.1344 83.536 76.0866L82.9458 75.8982L75.8704 76.4184C73.6645 76.6673 69.824 76.4806 67.4803 76.4401C67.5443 73.3302 67.6146 72.3672 66.8928 69.2177C65.0942 68.8173 63.2893 68.445 61.479 68.1023C56.7915 63.0323 61.6736 56.1184 53.3493 52.0816L58.1395 52.1871C68.9842 53.71 60.2697 47.5327 71.0703 44.1551L70.4963 38.0084L77.8898 38.7568C82.3313 37.141 81.0824 34.5884 82.8476 30.3605C85.4743 24.0687 92.7272 14.0638 93.0129 7.54029C100.378 7.26348 107.749 7.17511 115.119 7.27519L115.358 6.87668Z" fill="#D0100F"/>
<path d="M115.358 6.87668C118.474 7.10841 120.417 6.65936 122.436 8.32834C122.952 13.3371 123.489 24.6196 122.204 29.3903C120.052 29.8168 118.78 29.9331 116.589 30.0846C114.144 34.4505 117.463 34.5866 114.8 37.517L111.544 37.8182C109.083 41.0444 112.224 42.9928 109.504 45.4427L105.626 45.7636C102.639 50.2647 106.812 51.0799 101.56 53.7524C99.553 52.3449 99.244 51.0303 98.2347 48.7734C98.4825 46.7681 98.1501 47.7031 99.4819 45.9647L103.21 45.6329C105.977 42.6763 102.728 42.0749 105.257 37.8109L108.925 37.4611C111.285 34.7245 108.31 33.2386 110.614 29.98L114.568 29.595C116.186 26.9585 115.255 11.4454 115.119 7.27519L115.358 6.87668Z" fill="#620201"/>
<path d="M58.1395 52.1871C68.9842 53.71 60.2697 47.5327 71.0703 44.1551L71.3406 45.3353C71.0396 52.7128 63.8849 59.5826 69.6601 66.4758C74.0358 71.6982 75.9975 66.6381 75.8704 76.4184C73.6645 76.6673 69.824 76.4806 67.4803 76.4401C67.5443 73.3302 67.6146 72.3672 66.8928 69.2177C65.0942 68.8173 63.2893 68.445 61.479 68.1023C56.7915 63.0323 61.6736 56.1184 53.3493 52.0816L58.1395 52.1871Z" fill="#6C1203"/>
<path d="M98.2347 48.7734C99.244 51.0303 99.553 52.3449 101.56 53.7524C100.041 56.5304 100.891 58.0677 99.0863 60.8728C97.9473 62.641 96.8786 65.4226 96.0099 67.4063C94.4943 67.9608 94.26 68.1664 92.62 68.1375L90.5556 67.3648C89.2742 63.1513 93.3868 53.5504 97.6175 51.7453L98.2347 48.7734Z" fill="#8A212E"/>
<path d="M82.9458 75.8982C82.7287 73.3825 82.8125 72.6062 83.1197 70.0915C85.8492 68.0681 86.1573 68.7597 90.2825 68.6524C90.0375 72.1608 90.5917 73.4492 88.7129 75.7449C86.7467 75.9667 85.5085 76.1344 83.536 76.0866L82.9458 75.8982Z" fill="#620201"/>
<path d="M70.4963 38.0084L77.8898 38.7568C77.2752 42.4139 77.8898 42.4022 75.6965 44.5662L71.3406 45.3353L71.0703 44.1551L70.4963 38.0084Z" fill="#620201"/>
<path d="M8.01239 29.889C5.12257 30.0531 3.57269 30.3208 0.78199 29.3489C-0.376821 26.2318 -0.360617 10.2011 1.59927 7.54481L7.83397 6.8235L8.1097 7.23913C12.1502 7.20848 28.4574 6.48174 30.5921 8.40048C31.2787 12.6762 41.8315 30.1062 44.1545 36.9436L46.3937 38.2474L52.7374 38.0156C52.5491 40.3176 52.2238 43.3048 52.1481 45.5527C52.6987 47.9267 53.1556 49.6246 53.3493 52.0816C61.6736 56.1184 56.7915 63.0323 61.479 68.1023C63.2893 68.445 65.0942 68.8173 66.8928 69.2177C67.6146 72.3672 67.5443 73.3302 67.4803 76.4401C59.5624 76.5248 47.921 77.165 40.551 75.9612L35.6581 75.7377C35.3886 74.157 35.3354 70.0067 35.2616 68.2061C32.5709 68.3558 30.4704 68.839 28.3483 67.5893C28.6862 65.1729 28.7286 64.8455 27.9717 62.5373C26.0325 60.3345 25.4973 59.771 22.6129 59.138C20.7476 57.1787 19.8871 48.8663 19.3509 45.6437L15.1869 45.1271C13.1685 42.6574 13.9443 42.2922 14.093 38.1284L13.6839 37.9273L9.33159 37.3232C7.24826 34.5623 8.00247 34.1953 8.01239 29.889Z" fill="#D0100F"/>
<path d="M8.01239 29.889C5.12257 30.0531 3.57269 30.3208 0.78199 29.3489C-0.376821 26.2318 -0.360617 10.2011 1.59927 7.54481L7.83397 6.8235L8.1097 7.23913C7.14643 15.0358 7.57265 22.0652 8.01239 29.889Z" fill="#620201"/>
<path d="M19.742 44.7637L24.0501 45.6816C27.1697 50.8202 34.3361 62.6726 35.2616 68.2061C32.5709 68.3558 30.4704 68.839 28.3483 67.5893C28.6862 65.1729 28.7286 64.8455 27.9717 62.5373C26.0325 60.3345 25.4973 59.771 22.6129 59.138C20.7476 57.1787 19.8871 48.8663 19.3509 45.6437L19.742 44.7637Z" fill="#620201"/>
<path d="M8.01239 29.889C11.9565 30.1766 11.7925 29.5147 14.2273 31.6589C14.5319 34.5117 14.3309 35.1096 13.6839 37.9273L9.33159 37.3232C7.24826 34.5623 8.00247 34.1953 8.01239 29.889Z" fill="#620201"/>
<path d="M14.093 38.1284C17.2657 38.2302 17.3352 37.6956 19.4852 39.4159C19.6717 41.4393 19.8087 42.7386 19.742 44.7637L19.3509 45.6437L15.1869 45.1271C13.1685 42.6574 13.9443 42.2922 14.093 38.1284Z" fill="#470E1A"/>
<path d="M52.7374 38.0156C52.5491 40.3176 52.2238 43.3048 52.1481 45.5527C46.4343 43.734 47.1083 43.9116 46.3937 38.2474L52.7374 38.0156Z" fill="#470E1A"/>
<path d="M35.6581 75.7377C35.804 71.7018 35.1661 71.379 37.0791 68.518C40.7916 68.976 40.3608 72.7856 40.551 75.9612L35.6581 75.7377Z" fill="#620201"/>
<path d="M7.83397 6.8235C7.84028 3.86063 7.34197 2.8147 8.68731 0.582179C26.3812 -0.905567 52.2103 1.00594 70.6801 0.357642C77.3311 0.124111 109.703 -0.226636 114.375 0.810278C115.751 3.11313 115.454 4.178 115.358 6.87668L115.119 7.27519C107.749 7.17511 100.378 7.26348 93.0129 7.54029C89.1589 8.1958 88.5317 8.08131 84.6805 7.46817C72.8337 6.85504 49.2412 7.1156 37.6027 7.7143C34.3938 8.57269 33.955 8.67008 30.5921 8.40048C28.4574 6.48174 12.1502 7.20848 8.1097 7.23913L7.83397 6.8235Z" fill="#620201"/>
<path d="M37.6027 7.7143C49.2412 7.1156 72.8337 6.85504 84.6805 7.46817C85.1454 11.5419 83.5703 18.5307 81.7374 22.1337C69.8907 23.1544 57.2619 22.6395 45.3629 22.4105C42.6443 22.3582 37.9027 10.697 37.6027 7.7143Z" fill="#A00C12"/>
<path d="M52.7374 38.0156C49.9512 37.4241 48.4383 37.4025 46.382 35.4711L45.9396 33.3441C50.4766 29.3001 72.7003 27.66 76.6066 31.4434C76.7634 34.6533 77.2563 34.4027 75.7614 36.9129C73.7501 37.4467 72.5553 37.7208 70.4963 38.0084L71.0703 44.1551C60.2697 47.5327 68.9842 53.71 58.1395 52.1871L53.3493 52.0816C53.1556 49.6246 52.6987 47.9267 52.1481 45.5527C52.2238 43.3048 52.5491 40.3176 52.7374 38.0156Z" fill="#E6D1CC"/>
<path d="M52.7374 38.0156C53.8025 47.9989 57.6809 41.8396 58.1395 52.1871L53.3493 52.0816C53.1556 49.6246 52.6987 47.9267 52.1481 45.5527C52.2238 43.3048 52.5491 40.3176 52.7374 38.0156Z" fill="#620201"/>
<path d="M35.6581 75.7377L40.551 75.9612C47.921 77.165 59.5624 76.5248 67.4803 76.4401C69.824 76.4806 73.6645 76.6673 75.8704 76.4184L82.9458 75.8982L83.536 76.0866C83.1765 79.4327 82.5241 79.8808 83.9614 82.3072C87.8064 83.749 88.9093 83.4081 90.9539 86.1771L91.0124 90.8324L96.5155 91.3734C99.1728 94.678 97.4688 95.5003 98.9376 98.4433L101.948 98.8112C102.499 103.402 102.341 106.376 107.99 106.761C109.334 110.456 109.616 134.399 108.095 137.166C105.956 137.548 105.382 137.709 103.238 137.586C102.102 143.868 103.921 144.71 97.4319 146.11C97.4787 149.846 98.0734 149.658 96.3064 152.255C94.1483 152.606 92.183 152.895 90.0113 153.142L90.2619 153.953L90.0014 160.518L83.1333 160.532C83.1053 163.613 83.1207 164.378 82.3403 167.454C77.687 168.348 50.7794 167.954 45.1421 167.605C43.6913 165.362 44.1842 163.892 44.104 160.83C42.1739 160.797 40.2446 160.737 38.3172 160.651C35.6184 158.388 36.7592 158.316 35.4067 153.998L33.0962 153.143L30.8985 153.264C26.4588 150.978 31.4004 150.379 27.2896 144.988L23.1589 144.734C21.5802 142.358 22.0893 140.718 22.338 137.79C19.5564 137.824 18.4426 137.958 15.724 137.05C14.7499 132.882 15.168 112.104 15.4789 107.229C17.2 106.054 20.0871 106.399 22.3155 106.408L28.9773 106.631C29.3603 104.987 29.1359 101.942 29.0801 100.139C28.5601 99.6272 28.2592 98.7021 27.9384 97.979C28.78 95.476 27.6734 94.2605 29.2873 91.6187L31.5049 91.6998C32.5466 91.3896 33.7982 90.8522 34.8336 90.4483C36.2834 85.5324 40.7727 82.0791 38.8579 76.9468L35.6581 75.7377Z" fill="#FDCD20"/>
<path d="M35.6581 75.7377L40.551 75.9612C47.921 77.165 59.5624 76.5248 67.4803 76.4401C69.824 76.4806 73.6645 76.6673 75.8704 76.4184L82.9458 75.8982L83.536 76.0866C83.1765 79.4327 82.5241 79.8808 83.9614 82.3072C87.8064 83.749 88.9093 83.4081 90.9539 86.1771L91.0124 90.8324L90.7241 91.1904L83.0395 91.3049L83.3774 86.1384C81.7897 83.858 81.705 84.4594 78.3818 83.7192L77.5023 90.3374C70.8612 90.2355 50.0432 89.4628 44.8393 91.368L44.3518 91.2147L37.0746 91.1074L36.2699 91.4067L31.5049 91.6998C32.5466 91.3896 33.7982 90.8522 34.8336 90.4483C36.2834 85.5324 40.7727 82.0791 38.8579 76.9468L35.6581 75.7377Z" fill="#A94506"/>
<path d="M44.3518 91.2147C44.5014 88.434 44.3014 86.0924 45.7557 83.8229C53.9521 82.9285 69.6285 83.5947 78.3818 83.7192L77.5023 90.3374C70.8612 90.2355 50.0432 89.4628 44.8393 91.368L44.3518 91.2147Z" fill="#FFDC39"/>
<path d="M22.338 137.79C19.5564 137.824 18.4426 137.958 15.724 137.05C14.7499 132.882 15.168 112.104 15.4789 107.229C17.2 106.054 20.0871 106.399 22.3155 106.408L28.9773 106.631L29.4819 106.913C29.5117 116.927 29.4783 126.94 29.381 136.954L28.9008 137.355L22.5129 137.483L22.338 137.79Z" fill="#FEEE3B"/>
<path d="M22.338 137.79C19.5564 137.824 18.4426 137.958 15.724 137.05C14.7499 132.882 15.168 112.104 15.4789 107.229C17.2 106.054 20.0871 106.399 22.3155 106.408C22.1777 112.948 21.5622 132.04 22.5129 137.483L22.338 137.79Z" fill="#A94506"/>
<path d="M54.9695 160.637L76.2849 160.609L83.1333 160.532C83.1053 163.613 83.1207 164.378 82.3403 167.454C77.687 168.348 50.7794 167.954 45.1421 167.605C43.6913 165.362 44.1842 163.892 44.104 160.83L44.8754 160.667L54.9695 160.637Z" fill="#A94506"/>
<path d="M98.9376 98.4433L101.948 98.8112C102.499 103.402 102.341 106.376 107.99 106.761C109.334 110.456 109.616 134.399 108.095 137.166C105.956 137.548 105.382 137.709 103.238 137.586L102.492 137.114C101.546 129.608 102.031 115.339 101.5 106.651L97.1733 106.648L97.2958 99.1187L98.9376 98.4433Z" fill="#A94506"/>
<path d="M98.9376 98.4433L101.948 98.8112C101.476 102.061 101.194 103.353 101.5 106.651L97.1733 106.648L97.2958 99.1187L98.9376 98.4433Z" fill="#A94506"/>
<path d="M91.0124 90.8324L96.5155 91.3734C99.1728 94.678 97.4688 95.5003 98.9376 98.4433L97.2958 99.1187L97.1733 106.648L94.9223 107.726L91.6378 106.602C88.8102 106.598 88.1641 106.683 85.5617 105.644C83.6901 103.507 84.0172 101.332 83.9055 98.346C83.5982 96.0007 83.3099 93.6537 83.0395 91.3049L90.7241 91.1904L91.0124 90.8324Z" fill="#FFDC39"/>
<path d="M91.0124 90.8324L96.5155 91.3734C99.1728 94.678 97.4688 95.5003 98.9376 98.4433L97.2958 99.1187C95.7685 98.7824 92.8381 98.6156 91.1656 98.465L90.7241 91.1904L91.0124 90.8324Z" fill="#B35E2D"/>
<path d="M91.1656 98.465C92.8381 98.6156 95.7685 98.7824 97.2958 99.1187L97.1733 106.648L94.9223 107.726L91.6378 106.602L91.1656 98.465Z" fill="#FCC63D"/>
<path d="M97.1733 106.648L101.5 106.651C102.031 115.339 101.546 129.608 102.492 137.114L96.3956 137.678C94.4808 134.731 95.0737 113.11 94.9223 107.726L97.1733 106.648Z" fill="#FFDC39"/>
<path d="M50.5108 152.208C59.3443 153.252 69.9187 152.226 76.7905 153.081L76.2849 160.609L54.9695 160.637C53.571 156.675 53.2646 155.332 50.5108 152.208Z" fill="#FFDC39"/>
<path d="M27.9384 97.979C28.78 95.476 27.6734 94.2605 29.2873 91.6187L31.5049 91.6998L36.2699 91.4067L37.0746 91.1074L36.9367 98.3973C36.6646 102.803 37.4053 103.553 35.1111 106.273C33.2026 106.525 31.4067 106.775 29.4819 106.913L28.9773 106.631C29.3603 104.987 29.1359 101.942 29.0801 100.139C28.5601 99.6272 28.2592 98.7021 27.9384 97.979Z" fill="#FFDC39"/>
<path d="M27.9384 97.979C28.78 95.476 27.6734 94.2605 29.2873 91.6187L31.5049 91.6998L36.2699 91.4067C36.0618 94.7222 36.5871 95.778 34.848 98.0196C31.5608 98.5894 30.8751 98.0827 29.0801 100.139C28.5601 99.6272 28.2592 98.7021 27.9384 97.979Z" fill="#A94506"/>
<path d="M28.9008 137.355C29.4288 141.069 29.0431 142.814 31.2427 145.17C33.691 145.204 35.0363 144.843 36.6502 147.063L36.0213 152.367L33.0962 153.143L30.8985 153.264C26.4588 150.978 31.4004 150.379 27.2896 144.988L23.1589 144.734C21.5802 142.358 22.0893 140.718 22.338 137.79L22.5129 137.483L28.9008 137.355Z" fill="#A94506"/>
<path d="M84.7714 152.485C87.6198 152.798 88.1227 152.408 90.2619 153.953L90.0014 160.518L83.1333 160.532L76.2849 160.609L76.7905 153.081C78.7314 153.197 81.5843 152.993 83.6045 152.916L84.7714 152.485Z" fill="#F99611"/>
<path d="M84.7714 152.485C87.6198 152.798 88.1227 152.408 90.2619 153.953L90.0014 160.518C87.4594 160.364 86.7431 160.258 84.2849 159.592C82.671 156.763 83.3045 156.808 83.6045 152.916L84.7714 152.485Z" fill="#A94506"/>
<path d="M86.1384 144.903L91.3017 145.299L96.8993 145.611L97.4319 146.11C97.4787 149.846 98.0734 149.658 96.3064 152.255C94.1483 152.606 92.183 152.895 90.0113 153.142L90.2619 153.953C88.1227 152.408 87.6198 152.798 84.7714 152.485C84.7138 149.634 84.3073 147.073 86.1384 144.903Z" fill="#A94506"/>
<path d="M86.1384 144.903L91.3017 145.299L90.0113 153.142L90.2619 153.953C88.1227 152.408 87.6198 152.798 84.7714 152.485C84.7138 149.634 84.3073 147.073 86.1384 144.903Z" fill="#F9B029"/>
<path d="M78.3818 83.7192C81.705 84.4594 81.7897 83.858 83.3774 86.1384L83.0395 91.3049C83.3099 93.6537 83.5982 96.0007 83.9055 98.346C82.0663 98.3667 80.5606 98.2585 78.726 98.1314C76.6093 95.5075 77.4329 94.6744 77.5023 90.3374L78.3818 83.7192Z" fill="#FFDC39"/>
<path d="M36.0213 152.367L44.0878 153.054L44.104 160.83C42.1739 160.797 40.2446 160.737 38.3172 160.651C35.6184 158.388 36.7592 158.316 35.4067 153.998L33.0962 153.143L36.0213 152.367Z" fill="#A94506"/>
<path d="M44.8754 160.667L44.9565 154.218C46.8398 151.95 46.8605 152.611 50.5108 152.208C53.2646 155.332 53.571 156.675 54.9695 160.637L44.8754 160.667Z" fill="#FFDC39"/>
<path d="M28.9008 137.355L29.381 136.954C35.7103 137.546 36.0239 137.208 37.2647 144.24L38.7137 144.459C37.3458 145.696 36.8944 145.64 36.6502 147.063C35.0363 144.843 33.691 145.204 31.2427 145.17C29.0431 142.814 29.4288 141.069 28.9008 137.355Z" fill="#FFDC39"/>
<path d="M37.0746 91.1074L44.3518 91.2147L44.8393 91.368C44.5095 95.2785 45.097 95.9006 43.1282 98.621C40.4032 99.1601 39.6923 98.9176 36.9367 98.3973L37.0746 91.1074Z" fill="#FEEE3B"/>
<path d="M38.7137 144.459C42.319 145.297 42.7055 144.685 44.3626 147.111L44.0878 153.054L36.0213 152.367L36.6502 147.063C36.8944 145.64 37.3458 145.696 38.7137 144.459Z" fill="#FFDC39"/>
<path d="M86.1384 144.903C84.1803 142.656 84.7399 143.741 84.1722 140.636C85.4896 137.868 84.6174 138.787 87.7181 137.336L89.9987 137.756C91.5233 139.972 92.1622 142.614 91.3017 145.299L86.1384 144.903Z" fill="#FFDC39"/>
<path d="M102.492 137.114L103.238 137.586C102.102 143.868 103.921 144.71 97.4319 146.11L96.8993 145.611C97.0002 142.379 96.793 140.855 96.3956 137.678L102.492 137.114Z" fill="#A94506"/>
<path d="M60.1661 98.7093C62.8144 98.6714 63.8903 98.7445 66.5116 99.1277C68.4661 102.129 67.5902 131.856 67.5452 137.808C70.7693 137.576 73.6699 136.746 75.8614 139.208C75.6947 142.911 76.202 141.626 74.2484 144.353C70.7828 146.173 62.7595 145.293 58.2486 145.201C56.0355 145.286 54.5316 145.627 52.7339 144.46C51.8805 141.965 51.9932 141.694 52.1454 138.997C55.1209 135.865 55.9426 139.646 59.8092 136.341C59.7056 131.278 61.1789 117.286 58.2224 114.256C55.8021 114.335 55.4263 114.382 53.0898 113.863C51.9238 110.714 52.3419 111.345 52.9105 107.68C54.7289 106.379 56.1986 106.295 58.3855 105.867C60.6689 103.28 59.9237 103.042 60.1661 98.7093Z" fill="#A94506"/>
<path d="M22.3155 106.408L22.4453 100.597C24.3466 97.9447 23.7978 98.7436 27.9384 97.979C28.2592 98.7021 28.5601 99.6272 29.0801 100.139C29.1359 101.942 29.3603 104.987 28.9773 106.631L22.3155 106.408Z" fill="#A94506"/>
</svg>
