<svg width="163" height="179" viewBox="0 0 163 179" fill="none" xmlns="http://www.w3.org/2000/svg">
<path d="M20.7951 0.229939L101.047 0.259399C114.081 0.259399 128.668 0.627447 141.507 0.235466L141.431 5.55759L146.693 5.59622L147.002 10.4589C149.902 10.7122 150.19 10.2135 151.815 11.8096C151.914 13.2175 151.989 14.6265 152.039 16.0368L156.212 16.1319C157.718 17.8802 156.245 18.7825 157.837 20.9878C159.563 21.089 160.247 21.1166 161.913 21.5528C162.966 24.2383 162.5 161.607 162.219 172.224C159.894 173.696 155.029 171.672 156.345 176.991C153.576 178.718 144.985 178.215 141.508 178.177C129.027 177.799 114.3 178.164 101.584 178.169L21.0203 178.14C21.4033 168.727 16.4603 178.027 15.5084 167.85C14.1441 167.858 13.2155 167.783 11.8555 167.659C9.67986 165.155 11.6364 164.876 9.86399 162.675L7.58768 162.524L6.24423 162.467C4.82775 161.181 5.24076 160.834 4.98299 158.451L4.61478 157.474L2.21204 157.18L0.981505 157.006C-0.54729 155.06 0.168314 134.751 0.16095 130.985L0.162176 33.5343C0.163403 26.7381 -0.108464 17.6961 0.435912 11.1447C1.71922 10.1706 3.50578 10.4466 5.24692 10.4528L5.18922 5.22816C7.01629 5.00119 8.66906 5.14965 10.5047 5.23369C10.4483 3.39279 10.2138 2.4254 11.1823 0.893662C13.5163 -0.504344 17.7492 0.12995 20.7951 0.229939Z" fill="#F3C481"/>
<path d="M146.693 5.59622L147.002 10.4589C149.902 10.7122 150.19 10.2135 151.815 11.8096C151.914 13.2175 151.989 14.6265 152.039 16.0368L156.212 16.1319C157.718 17.8802 156.245 18.7825 157.837 20.9878C159.563 21.089 160.247 21.1166 161.913 21.5528C162.966 24.2383 162.5 161.607 162.219 172.224C159.894 173.696 155.029 171.672 156.345 176.991C153.576 178.718 144.985 178.215 141.508 178.177C129.027 177.799 114.3 178.164 101.584 178.169L21.0203 178.14C21.4033 168.727 16.4603 178.027 15.5084 167.85C14.1441 167.858 13.2155 167.783 11.8555 167.659C9.67986 165.155 11.6364 164.876 9.86399 162.675L7.58768 162.524L6.24423 162.467C4.82775 161.181 5.24076 160.834 4.98299 158.451L4.61478 157.474L2.21204 157.18C3.68744 157.029 3.75004 157.042 4.88544 156.153C5.88397 153.539 5.48074 149.583 5.38929 146.674L9.64428 147.069C10.7214 145.351 10.3722 143.444 10.2488 141.407C10.2138 136.284 10.2384 131.16 10.3218 126.038L10.7465 126.049L10.8183 130.767L13.9882 131.074C17.8412 130.864 33.6901 130.64 37.246 131.103C38.6128 130.971 39.4456 130.817 40.7934 130.543L41.6698 129.191L42.2614 126.071C44.6151 126.142 45.3528 126.266 47.5917 125.476C47.8003 124.682 47.8863 124.665 48.2876 123.934L49.2954 124.76C49.7348 124.541 49.8545 124.487 50.219 124.148L50.7898 123.607C55.6628 119.076 61.1648 120.27 67.7956 120.491L68.6928 119.441C70.0651 120.652 70.7672 120.549 72.6029 120.756C75.469 120.627 77.6152 120.444 80.4868 120.9L83.3112 120.644C84.7547 119.279 85.0806 117.774 85.7011 115.906L85.9637 112.616L86.3706 114.229C89.4921 115.158 97.5589 113.952 104.399 115.843C105.531 118.497 104.031 119.594 106.114 120.422C110.711 122.25 113.636 121.209 115.997 125.432C119.851 124.95 136.655 125.284 141.454 125.278C141.475 113.51 140.653 18.7696 142.1 16.2398L144.669 15.8552L146.396 16.0822L146.315 10.7711C146.239 9.13511 146.517 7.24819 146.693 5.59622Z" fill="#9A5A38"/>
<path d="M152.039 16.0368L156.212 16.1319C157.718 17.8802 156.245 18.7825 157.837 20.9878C159.563 21.089 160.247 21.1166 161.913 21.5528C162.966 24.2383 162.5 161.607 162.219 172.224C159.894 173.696 155.029 171.672 156.345 176.991C153.576 178.718 144.985 178.215 141.508 178.177C129.027 177.799 114.3 178.164 101.584 178.169L21.0203 178.14C21.4033 168.727 16.4603 178.027 15.5084 167.85C45.1828 166.85 76.7928 168.327 106.6 167.707C113.95 167.554 135.279 168.335 141.115 167.398C141.723 165.285 141.763 164.422 141.944 162.255L146.582 162.397C146.784 161.119 146.89 158.811 146.999 157.438C149.427 157.215 150.095 157.583 151.713 156.259C152.63 146.261 151.937 123.956 151.928 112.884C151.794 80.6015 151.831 48.3185 152.039 16.0368Z" fill="#A4A1A6"/>
<path d="M85.7011 115.906L85.9637 112.616L86.3706 114.229C89.4921 115.158 97.5589 113.952 104.399 115.843C105.531 118.497 104.031 119.594 106.114 120.422C110.711 122.25 113.636 121.209 115.997 125.432C119.915 127.95 136.186 123.616 140.813 126.696C141.914 127.428 141.682 129.829 141.638 131.012C141.695 133.986 142.091 138.042 140.905 140.634C137.637 143.033 138.834 140.021 136.631 142.634C136.383 144.798 136.729 145.524 135.445 146.681C123.857 147.077 20.506 147.89 15.7061 146.443C14.6118 143.121 15.7908 143.56 13.8146 141.526L13.404 141.499C12.287 141.414 11.7979 141.503 10.9675 140.768C10.5907 138.528 10.6385 138.046 10.8134 135.831L10.8183 130.767L13.9882 131.074C17.8412 130.864 33.6901 130.64 37.246 131.103C38.6128 130.971 39.4456 130.817 40.7934 130.543L41.6698 129.191L42.2614 126.071C44.6151 126.142 45.3528 126.266 47.5917 125.476C47.8003 124.682 47.8863 124.665 48.2876 123.934L49.2954 124.76C49.7348 124.541 49.8545 124.487 50.219 124.148L50.7898 123.607C55.6628 119.076 61.1648 120.27 67.7956 120.491L68.6928 119.441C70.0651 120.652 70.7672 120.549 72.6029 120.756C75.469 120.627 77.6152 120.444 80.4868 120.9L83.3112 120.644C84.7547 119.279 85.0806 117.774 85.7011 115.906Z" fill="#9A5A38"/>
<path d="M85.7011 115.906L85.9637 112.616L86.3706 114.229C89.4921 115.158 97.5589 113.952 104.399 115.843C105.531 118.497 104.031 119.594 106.114 120.422C110.711 122.25 113.636 121.209 115.997 125.432C119.915 127.95 136.186 123.616 140.813 126.696C141.914 127.428 141.682 129.829 141.638 131.012C136.537 130.882 132.147 130.809 127.056 131.026L125.751 130.837L115.123 130.855L114.048 129.421L113.192 130.816C111.947 130.838 110.597 130.687 109.639 131.384C107.8 131.291 106.728 131.011 105.235 132.008C104.206 135.32 104.48 135.635 100.956 136.262C98.3058 135.051 101.093 134.309 98.8459 132.076C95.1414 130.829 87.5318 129.664 83.9704 131.108C83.9771 132.393 83.9323 133.14 83.7874 134.416C81.9972 136.53 75.8434 136.826 73.7328 135.522C73.4026 134.2 73.1 132.871 72.8244 131.536L71.5012 130.731C69.6711 130.797 69.1482 130.499 67.8612 131.446C67.7956 132.929 67.7041 134.131 67.5347 135.607C63.891 138.239 51.606 134.769 47.3179 136.92C46.6471 137.256 48.1348 138.692 45.6977 140.445C43.8375 140.539 43.7203 140.832 42.1952 140.042L41.7392 137.245C39.8691 135.602 40.5761 136.065 37.7567 135.839C36.7698 133.898 37.1644 133.588 37.246 131.103C38.6128 130.971 39.4456 130.817 40.7934 130.543L41.6698 129.191L42.2614 126.071C44.6151 126.142 45.3528 126.266 47.5917 125.476C47.8003 124.682 47.8863 124.665 48.2876 123.934L49.2954 124.76C49.7348 124.541 49.8545 124.487 50.219 124.148L50.7898 123.607C55.6628 119.076 61.1648 120.27 67.7956 120.491L68.6928 119.441C70.0651 120.652 70.7672 120.549 72.6029 120.756C75.469 120.627 77.6152 120.444 80.4868 120.9L83.3112 120.644C84.7547 119.279 85.0806 117.774 85.7011 115.906Z" fill="#BA7948"/>
<path d="M85.7011 115.906L85.9637 112.616L86.3706 114.229C89.4921 115.158 97.5589 113.952 104.399 115.843C105.531 118.497 104.031 119.594 106.114 120.422C110.711 122.25 113.636 121.209 115.997 125.432C119.915 127.95 136.186 123.616 140.813 126.696C141.914 127.428 141.682 129.829 141.638 131.012C136.537 130.882 132.147 130.809 127.056 131.026L125.751 130.837L115.123 130.855L114.048 129.421L113.767 129.034C109.796 128.131 110.663 126.457 104.798 125.527C103.05 125.421 100.852 125.618 99.0705 125.718C96.1964 125.552 93.2695 126.399 90.9889 125.316C89.6706 123.272 90.1144 123.292 90.0653 120.451L85.8416 120.411C85.903 119.411 85.7416 117.019 85.7011 115.906Z" fill="#5F2A0E"/>
<path d="M90.0653 120.451C92.7743 120.423 96.793 120.095 99.1497 121.123L99.0705 125.718C96.1964 125.552 93.2695 126.399 90.9889 125.316C89.6706 123.272 90.1144 123.292 90.0653 120.451Z" fill="#D29362"/>
<path d="M99.1497 121.123C102.8 123.733 103.727 119.749 104.798 125.527C103.05 125.421 100.852 125.618 99.0705 125.718L99.1497 121.123Z" fill="#AE6F44"/>
<path d="M47.5917 125.476C47.8003 124.682 47.8863 124.665 48.2876 123.934L49.2954 124.76C49.7348 124.541 49.8545 124.487 50.219 124.148L50.7898 123.607C55.6628 119.076 61.1648 120.27 67.7956 120.491L67.8201 121.325L67.6335 125.529C64.4501 125.502 59.4556 124.71 58.0876 128.258C56.5018 132.369 50.3694 131.17 46.7159 130.954C47.3591 129.132 47.4088 127.405 47.5917 125.476Z" fill="#C88758"/>
<path d="M83.3112 120.644C84.7547 119.279 85.0806 117.774 85.7011 115.906C85.7416 117.019 85.903 119.411 85.8416 120.411L85.6336 122.166C82.0015 124.128 77.1463 123.548 72.9472 123.447C69.7853 123.163 69.6159 123.29 67.8201 121.325L67.7956 120.491L68.6928 119.441C70.0651 120.652 70.7672 120.549 72.6029 120.756C75.469 120.627 77.6152 120.444 80.4868 120.9L83.3112 120.644Z" fill="#5F2F17"/>
<path d="M85.6336 122.166L85.7201 123.193C81.173 126.463 79.7411 126.213 74.0697 125.973L72.9472 123.447C77.1463 123.548 82.0015 124.128 85.6336 122.166Z" fill="#8C502D"/>
<path d="M47.5917 125.476C47.4088 127.405 47.3591 129.132 46.7159 130.954C44.825 131.111 44.0535 131.32 42.2547 130.675L41.6698 129.191L42.2614 126.071C44.6151 126.142 45.3528 126.266 47.5917 125.476Z" fill="#C88758"/>
<path d="M67.8201 121.325C69.6159 123.29 69.7853 123.163 72.9472 123.447L74.0697 125.973C71.9781 126.069 69.4514 126.425 67.6335 125.529L67.8201 121.325Z" fill="#A9643B"/>
<path d="M125.751 130.837L127.056 131.026C129.844 131.632 135.62 130.376 136.704 132.926C135.15 136.475 129.933 138.058 126.517 135.937C125.131 133.558 125.585 134.031 125.751 130.837Z" fill="#BA7948"/>
<path d="M15.5183 131.774C18.9472 131.467 24.9672 129.943 25.2649 134.647C22.9714 137.374 18.8968 137.168 15.8147 135.886C15.8435 134.621 15.6416 133.055 15.5183 131.774Z" fill="#BA7948"/>
<path d="M114.048 129.421L115.123 130.855C115.057 134.051 115.561 133.656 113.963 135.814C112.275 136.474 113.03 136.449 111.067 135.685C109.587 133.736 110.013 134.068 109.639 131.384C110.597 130.687 111.947 130.838 113.192 130.816L114.048 129.421Z" fill="#C08052"/>
<path d="M10.8183 130.767L13.9882 131.074L15.5183 131.774C15.6416 133.055 15.8435 134.621 15.8147 135.886L10.8134 135.831L10.8183 130.767Z" fill="#9E643F"/>
<path d="M146.396 16.0822C146.603 29.5666 147.968 143.543 145.639 146.635C143.894 146.635 143.384 146.554 141.739 147.04C141.392 148.246 141.616 151.102 140.627 151.549C139.381 152.113 17.6055 152.735 11.0135 151.465C9.48225 149.252 11.3854 148.539 9.64428 147.069C10.7214 145.351 10.3722 143.444 10.2488 141.407C10.2138 136.284 10.2384 131.16 10.3218 126.038L10.7465 126.049L10.8183 130.767L10.8134 135.831C10.6385 138.046 10.5907 138.528 10.9675 140.768C11.7979 141.503 12.287 141.414 13.404 141.499L13.8146 141.526C15.7908 143.56 14.6118 143.121 15.7061 146.443C20.506 147.89 123.857 147.077 135.445 146.681C136.729 145.524 136.383 144.798 136.631 142.634C138.834 140.021 137.637 143.033 140.905 140.634C142.091 138.042 141.695 133.986 141.638 131.012C141.682 129.829 141.914 127.428 140.813 126.696C136.186 123.616 119.915 127.95 115.997 125.432C119.851 124.95 136.655 125.284 141.454 125.278C141.475 113.51 140.653 18.7696 142.1 16.2398L144.669 15.8552L146.396 16.0822Z" fill="#D29362"/>
<path d="M147.002 10.4589C149.902 10.7122 150.19 10.2135 151.815 11.8096C151.914 13.2175 151.989 14.6265 152.039 16.0368C151.831 48.3185 151.794 80.6015 151.928 112.884C151.937 123.956 152.63 146.261 151.713 156.259C150.095 157.583 149.427 157.215 146.999 157.438C146.287 146.472 147.107 123.537 147.113 111.624L147.002 10.4589Z" fill="#572C1A"/>
<path d="M7.58768 162.524C8.60218 162.023 9.39205 162.083 10.5213 162.022C15.3207 162.68 26.9545 162.375 32.2024 162.369L117.395 162.389C122.127 162.386 137.054 162.581 141.448 161.951L141.944 162.255C141.763 164.422 141.723 165.285 141.115 167.398C135.279 168.335 113.95 167.554 106.6 167.707C76.7928 168.327 45.1828 166.85 15.5084 167.85C14.1441 167.858 13.2155 167.783 11.8555 167.659C9.67986 165.155 11.6364 164.876 9.86399 162.675L7.58768 162.524Z" fill="#572C1A"/>
<path d="M141.448 161.951C141.288 159.213 140.865 159.435 142.059 157.472C143.85 156.662 143.033 156.722 145.184 157.466C146.879 159.402 146.348 159.251 146.582 162.397L141.944 162.255L141.448 161.951Z" fill="#572C1A"/>
<path d="M4.98299 158.451C6.37677 157.181 6.65912 157.166 8.54756 156.922C10.2273 157.883 9.67866 157.324 10.598 159.07L10.5213 162.022C9.39205 162.083 8.60218 162.023 7.58768 162.524L6.24423 162.467C4.82775 161.181 5.24076 160.834 4.98299 158.451Z" fill="#572C1A"/>
<path d="M20.7951 0.229939L101.047 0.259399C114.081 0.259399 128.668 0.627447 141.507 0.235466L141.431 5.55759L146.693 5.59622C146.517 7.24819 146.239 9.13511 146.315 10.7711L146.396 16.0822L144.669 15.8552C144.114 15.7 142.116 15.5994 141.421 15.5491C138.758 15.4295 138.782 15.8755 137.099 14.5057C136.761 13.5978 136.277 11.4183 135.441 11.0392C133.888 10.3356 21.0338 9.77246 15.7048 10.9552C14.6811 13.9781 16.054 14.3904 14.6099 16.1613L11.2596 16.3785C9.26623 19.1935 10.7447 112.496 10.3218 126.038C10.2384 131.16 10.2138 136.284 10.2488 141.407C10.3722 143.444 10.7214 145.351 9.64428 147.069L5.38929 146.674C5.48074 149.583 5.88397 153.539 4.88544 156.153C3.75004 157.042 3.68744 157.029 2.21204 157.18L0.981505 157.006C-0.54729 155.06 0.168314 134.751 0.16095 130.985L0.162176 33.5343C0.163403 26.7381 -0.108464 17.6961 0.435912 11.1447C1.71922 10.1706 3.50578 10.4466 5.24692 10.4528L5.18922 5.22816C7.01629 5.00119 8.66906 5.14965 10.5047 5.23369C10.4483 3.39279 10.2138 2.4254 11.1823 0.893662C13.5163 -0.504344 17.7492 0.12995 20.7951 0.229939Z" fill="#FBDEAB"/>
<path d="M2.21204 157.18L0.981505 157.006C-0.54729 155.06 0.168314 134.751 0.16095 130.985L0.162176 33.5343C0.163403 26.7381 -0.108464 17.6961 0.435912 11.1447C1.71922 10.1706 3.50578 10.4466 5.24692 10.4528L5.32672 20.4787C6.45904 34.1213 4.09371 138.284 6.71556 141.151L10.2488 141.407C10.3722 143.444 10.7214 145.351 9.64428 147.069L5.38929 146.674C5.48074 149.583 5.88397 153.539 4.88544 156.153C3.75004 157.042 3.68744 157.029 2.21204 157.18Z" fill="#572C1A"/>
<path d="M5.32672 20.4787C6.45904 34.1213 4.09371 138.284 6.71556 141.151L10.2488 141.407C10.3722 143.444 10.7214 145.351 9.64428 147.069L5.38929 146.674C5.23893 140.564 5.15609 134.392 5.2236 128.28C5.61884 92.4241 4.60252 56.3091 5.32672 20.4787Z" fill="#EFBC84"/>
<path d="M20.7951 0.229939L101.047 0.259399C114.081 0.259399 128.668 0.627447 141.507 0.235466L141.431 5.55759L56.2047 5.46066C42.1547 5.45698 24.1141 6.06734 10.5047 5.23369C10.4483 3.39279 10.2138 2.4254 11.1823 0.893662C13.5163 -0.504344 17.7492 0.12995 20.7951 0.229939Z" fill="#572C1A"/>
<path d="M5.18922 5.22816C8.30512 5.5772 8.30204 5.0687 10.3028 6.76913L10.9178 8.50204C9.25211 11.2864 8.37939 10.765 5.24692 10.4528L5.18922 5.22816Z" fill="#572C1A"/>
<path d="M141.431 5.55759L146.693 5.59622C146.517 7.24819 146.239 9.13511 146.315 10.7711L141.687 10.9398L141.431 5.55759Z" fill="#572C1A"/>
<path d="M141.687 10.9398L146.315 10.7711L146.396 16.0822L144.669 15.8552C144.114 15.7 142.116 15.5994 141.421 15.5491L141.687 10.9398Z" fill="#EFBC84"/>
<path d="M61.8609 58.921C63.4615 58.8811 67.1585 58.4505 67.6937 59.7209C68.7346 62.1924 72.6943 63.4346 73.4621 64.4413L73.9967 64.5548L74.6067 67.6728C76.9812 67.1355 76.4755 66.9054 78.5683 67.5655C80.512 70.8228 79.0293 75.0481 79.9683 79.098C79.9934 83.6257 80.1868 89.6048 79.9008 94.0098L80.4562 95.9311C80.1745 99.1516 80.0548 101.023 80.1757 104.238L83.3124 104.628C86.2092 102.952 83.2174 103.641 86.4247 100.72C87.2925 101.092 89.3068 101.89 90.0303 102.31C88.3972 108.955 85.9705 104.539 85.9637 112.616L85.7011 115.906C85.0806 117.774 84.7547 119.279 83.3112 120.644L80.4868 120.9C77.6152 120.444 75.469 120.627 72.6029 120.756C70.7672 120.549 70.0651 120.652 68.6928 119.441L68.1884 114.59C68.254 112.469 68.3848 110.342 68.1675 108.235C66.821 107.416 65.4916 106.57 64.1795 105.698L63.9125 103.41C60.5413 100.495 51.6294 104.28 47.0774 102.054L46.749 99.6902C44.6875 97.8854 43.4834 99.3362 41.7048 98.5455C36.4249 96.1973 30.9216 88.6368 26.8882 84.3237C26.6574 84.0772 27.1576 80.1107 25.9105 78.2195C24.4817 78.1527 23.7226 78.0735 22.3147 77.8227C21.0964 75.3898 21.6378 66.0767 21.6899 62.9641C27.03 63.023 43.0636 62.2734 47.0399 63.3702L47.5591 64.7731C49.3248 66.4858 54.6913 66.9981 56.8172 68.3666C59.5882 70.1511 65.3756 78.5913 68.2375 79.0348C72.2678 77.6582 71.7247 72.0055 70.4745 68.6169C70.2941 68.1286 68.726 67.8286 68.1024 67.6335C67.5691 66.1264 67.6624 65.3878 67.6489 63.7941C64.0611 61.2913 59.2648 65.5878 57.9195 60.9184C58.4602 58.8088 59.9755 59.1707 61.8609 58.921Z" fill="#1C542F"/>
<path d="M74.6067 67.6728C76.9812 67.1355 76.4755 66.9054 78.5683 67.5655C80.512 70.8228 79.0293 75.0481 79.9683 79.098C79.9934 83.6257 80.1868 89.6048 79.9008 94.0098L80.4562 95.9311C80.1745 99.1516 80.0548 101.023 80.1757 104.238L83.3124 104.628C86.2092 102.952 83.2174 103.641 86.4247 100.72C87.2925 101.092 89.3068 101.89 90.0303 102.31C88.3972 108.955 85.9705 104.539 85.9637 112.616L85.7011 115.906C85.0806 117.774 84.7547 119.279 83.3112 120.644L80.4868 120.9C77.6152 120.444 75.469 120.627 72.6029 120.756C72.6759 116.223 73.324 110.036 72.5912 105.547C72.4004 104.381 69.8963 103.517 68.5394 102.832C67.2346 100.744 67.442 101.75 68.0165 98.9578C69.155 100.794 70.5678 103.025 72.7041 103.686L74.7497 103.282C74.8411 100.948 74.7178 98.2941 74.6607 95.9299C74.3066 86.9787 74.5625 76.7271 74.6067 67.6728Z" fill="#80D362"/>
<path d="M79.9008 94.0098L80.4562 95.9311C80.1745 99.1516 80.0548 101.023 80.1757 104.238L83.3124 104.628C86.2092 102.952 83.2174 103.641 86.4247 100.72C87.2925 101.092 89.3068 101.89 90.0303 102.31C88.3972 108.955 85.9705 104.539 85.9637 112.616L85.7011 115.906C85.0806 117.774 84.7547 119.279 83.3112 120.644L80.4868 120.9C77.6152 120.444 75.469 120.627 72.6029 120.756C72.6759 116.223 73.324 110.036 72.5912 105.547C72.4004 104.381 69.8963 103.517 68.5394 102.832C67.2346 100.744 67.442 101.75 68.0165 98.9578C69.155 100.794 70.5678 103.025 72.7041 103.686L74.7497 103.282C74.8461 106.325 73.8942 115.263 75.2223 117.226C77.1039 117.42 77.4035 117.537 79.1912 117.077C79.9283 114.087 79.5166 99.059 79.9008 94.0098Z" fill="#4C8358"/>
<path d="M86.4247 100.72C87.2925 101.092 89.3068 101.89 90.0303 102.31C88.3972 108.955 85.9705 104.539 85.9637 112.616L85.7011 115.906C85.0806 117.774 84.7547 119.279 83.3112 120.644C83.1093 117.262 82.1286 107.154 83.3124 104.628C86.2092 102.952 83.2174 103.641 86.4247 100.72Z" fill="#1F3E28"/>
<path d="M80.1757 104.238L83.3124 104.628C82.1286 107.154 83.1093 117.262 83.3112 120.644L80.4868 120.9C80.045 116.244 79.9928 108.919 80.1757 104.238Z" fill="#407F4A"/>
<path d="M51.7816 70.5241C53.3834 75.7186 62.504 74.7481 63.4436 83.7134L64.9829 84.068C65.6647 85.8414 65.6181 86.607 65.6966 88.4503L62.7354 87.5345L61.1465 89.1822L56.1489 89.2631L54.8367 88.9625C51.3771 83.5509 45.103 80.0813 39.4684 77.4785C41.6373 75.1315 43.4895 75.7677 46.6244 75.7892L45.2202 73.3404C47.626 72.8202 50.3762 72.5177 51.7816 70.5241Z" fill="#498D56"/>
<path d="M51.7816 70.5241C53.3834 75.7186 62.504 74.7481 63.4436 83.7134C61.2992 84.3956 60.2259 84.2692 57.987 84.2447C56.6742 81.5996 49.7366 78.936 46.8834 77.7478L46.6244 75.7892L45.2202 73.3404C47.626 72.8202 50.3762 72.5177 51.7816 70.5241Z" fill="#7CCA53"/>
<path d="M63.4436 83.7134L64.9829 84.068C65.6647 85.8414 65.6181 86.607 65.6966 88.4503L62.7354 87.5345L61.2342 87.1161L60.1675 84.9231L57.987 84.2447C60.2259 84.2692 61.2992 84.3956 63.4436 83.7134Z" fill="#64B35D"/>
<path d="M61.1465 89.1822L62.7354 87.5345L65.6966 88.4503L67.3126 88.9515C68.305 93.2019 70.1547 95.8545 74.6607 95.9299C74.7178 98.2941 74.8411 100.948 74.7497 103.282L72.7041 103.686C70.5678 103.025 69.155 100.794 68.0165 98.9578C56.8503 99.3283 49.6495 99.3847 40.0164 91.5941C43.4717 91.7119 44.6574 91.3678 47.1694 93.5829C50.173 92.9823 54.8723 94.4374 57.3708 92.2137C57.2628 90.6077 57.1885 90.5667 56.1489 89.2631L61.1465 89.1822Z" fill="#498D56"/>
<path d="M56.1489 89.2631L61.1465 89.1822C60.9427 92.1512 61.449 91.8334 59.814 93.5946C56.5907 94.6276 49.7299 94.6545 47.1694 93.5829C50.173 92.9823 54.8723 94.4374 57.3708 92.2137C57.2628 90.6077 57.1885 90.5667 56.1489 89.2631Z" fill="#51A25B"/>
<path d="M34.9704 84.5477C35.6025 82.1492 35.2846 76.6651 35.2312 73.9574C36.0315 74.9463 38.2734 77.1307 39.4684 77.4785C45.103 80.0813 51.3771 83.5509 54.8367 88.9625L56.1489 89.2631C57.1885 90.5667 57.2628 90.6077 57.3708 92.2137C54.8723 94.4374 50.173 92.9823 47.1694 93.5829C44.6574 91.3678 43.4717 91.7119 40.0164 91.5941C39.8348 91.3543 39.5175 90.333 39.3947 89.9809C36.3758 88.4001 36.9533 87.018 34.9704 84.5477Z" fill="#7CCA53"/>
<path d="M34.9704 84.5477C32.8303 83.7686 33.5036 84.2815 32.1263 82.7209C32.2558 80.8647 32.4872 79.9599 31.4697 78.3594C30.2318 78.1374 29.8942 78.1662 28.8871 77.3736C27.9272 74.8463 26.4162 70.7253 27.3466 68.0753C29.8304 66.7864 40.9106 67.4238 44.0756 67.66C47.6107 67.9231 46.239 69.9254 51.7816 70.5241C50.3762 72.5177 47.626 72.8202 45.2202 73.3404L46.6244 75.7892C43.4895 75.7677 41.6373 75.1315 39.4684 77.4785C38.2734 77.1307 36.0315 74.9463 35.2312 73.9574C35.2846 76.6651 35.6025 82.1492 34.9704 84.5477Z" fill="#91DC5E"/>
<path d="M35.2312 73.9574C38.2477 73.1459 42.038 73.3404 45.2202 73.3404L46.6244 75.7892C43.4895 75.7677 41.6373 75.1315 39.4684 77.4785C38.2734 77.1307 36.0315 74.9463 35.2312 73.9574Z" fill="#68B84D"/>
<path d="M78.9488 34.8072C79.948 30.1929 88.2222 23.2918 92.4962 20.5026C99.4909 15.9393 101.209 15.8681 109.225 16.084C109.574 20.3106 110.42 42.118 108.587 44.6975C104.656 47.2168 103.884 46.4065 104.057 51.2606C102.632 52.7083 100.893 52.0911 100.746 52.3445C97.2078 58.4591 96.1946 58.5904 90.2739 59.3737C88.1744 59.6516 92.4981 62.8169 86.6309 63.1881C83.9311 66.3239 82.8902 73.6845 83.0154 77.7785C84.2962 79.4029 85.8907 79.0293 87.8074 78.5195C90.3157 75.2567 88.4346 72.7974 92.8805 72.6091C90.9705 74.8291 91.0258 74.0893 90.8668 76.5719L91.7401 77.5693C93.0952 76.6412 92.6558 77.0479 93.2996 75.2321L93.3782 77.4196C92.1722 78.4367 90.2795 80.6199 90.05 82.2203C88.2284 84.471 88.183 84.4673 88.5524 87.9215L88.5991 88.3252L86.8383 89.0834C85.8882 91.5396 85.6323 94.2644 83.8132 95.571C82.2421 95.9305 82.0488 95.9936 80.4562 95.9311L79.9008 94.0098C80.1868 89.6048 79.9934 83.6257 79.9683 79.098C79.0293 75.0481 80.512 70.8228 78.5683 67.5655C76.4755 66.9054 76.9812 67.1355 74.6067 67.6728L73.9967 64.5548L75.6936 62.7028L76.6332 62.758L77.9853 61.7569C77.4563 60.8908 77.196 60.3908 76.7511 59.4744C77.3728 57.9408 78.3995 55.6539 79.155 54.1449C78.939 54.5755 80.1155 53.7652 80.96 52.4101C80.8434 48.4934 80.5979 47.8867 77.4108 45.59C76.942 42.7382 76.4313 37.9939 77.5164 35.2911L78.9488 34.8072Z" fill="#205B2C"/>
<path d="M97.0379 30.3248L97.1827 30.6579C98.6808 34.1845 99.9181 38.8018 104.087 40.7623C103.16 42.2339 102.727 42.2272 100.999 42.894C99.7339 44.8201 98.1383 47.4769 96.5591 49.032L96.4333 51.639L94.0711 52.5991L93.099 55.1092C88.4205 56.7066 84.4761 53.6038 82.7896 62.4967L81.6726 63.5978C80.3168 62.9764 78.1878 62.9114 76.6332 62.758L77.9853 61.7569C77.4563 60.8908 77.196 60.3908 76.7511 59.4744C77.3728 57.9408 78.3995 55.6539 79.155 54.1449C78.939 54.5755 80.1155 53.7652 80.96 52.4101C80.8434 48.4934 80.5979 47.8867 77.4108 45.59C76.942 42.7382 76.4313 37.9939 77.5164 35.2911L78.9488 34.8072C80.6943 35.7739 81.0239 35.7518 83.0351 35.8248L82.8614 36.3726C84.4288 37.1554 86.9316 38.1859 88.0044 39.4201L88.4174 38.0393L90.6115 37.297L91.3038 35.7009L92.7381 35.1568C94.9892 32.5123 91.0657 31.7688 97.0379 30.3248Z" fill="#4C9E5A"/>
<path d="M97.0379 30.3248L97.1827 30.6579C98.6808 34.1845 99.9181 38.8018 104.087 40.7623C103.16 42.2339 102.727 42.2272 100.999 42.894C99.7339 44.8201 98.1383 47.4769 96.5591 49.032L96.4333 51.639L90.8981 52.0979L89.7155 47.5413C89.7529 40.9335 91.2983 45.203 93.9447 37.8565L92.7381 35.1568C94.9892 32.5123 91.0657 31.7688 97.0379 30.3248Z" fill="#7CCA53"/>
<path d="M92.7381 35.1568C94.9892 32.5123 91.0657 31.7688 97.0379 30.3248C97.3005 33.5343 96.8476 35.082 94.8033 37.6755L93.9447 37.8565L92.7381 35.1568Z" fill="#68B84D"/>
<path d="M77.4108 45.59C76.942 42.7382 76.4313 37.9939 77.5164 35.2911L78.9488 34.8072C80.6943 35.7739 81.0239 35.7518 83.0351 35.8248L82.8614 36.3726L81.0601 36.6622C80.0959 42.5468 81.4062 47.4647 80.96 52.4101C80.8434 48.4934 80.5979 47.8867 77.4108 45.59Z" fill="#326D3E"/>
<path d="M81.0601 36.6622L82.8614 36.3726C84.4288 37.1554 86.9316 38.1859 88.0044 39.4201L87.6116 40.9562C82.5962 43.1799 85.5311 45.7311 83.0461 47.8701C81.0497 45.533 81.2086 39.6815 81.0601 36.6622Z" fill="#91DC5E"/>
<path d="M89.7155 47.5413L90.8981 52.0979C88.3014 51.9537 88.1167 51.9826 87.2121 49.6914C88.0455 47.9677 87.5459 48.5695 89.7155 47.5413Z" fill="#91DC5E"/>
<path d="M89.0041 29.5679C89.8431 25.9118 94.9622 24.6537 97.8443 22.1588C99.726 20.5302 102.043 20.7216 104.449 20.8719C104.475 25.84 104.771 36.2511 104.087 40.7623C99.9181 38.8018 98.6808 34.1845 97.1827 30.6579L97.0379 30.3248C91.0657 31.7688 94.9892 32.5123 92.7381 35.1568L91.3038 35.7009C89.6707 33.257 88.1161 33.5147 87.4349 31.6547L89.0041 29.5679Z" fill="#91DC5E"/>
<path d="M89.0041 29.5679L87.4349 31.6547C88.1161 33.5147 89.6707 33.257 91.3038 35.7009L90.6115 37.297L88.4174 38.0393L88.0044 39.4201C86.9316 38.1859 84.4288 37.1554 82.8614 36.3726L83.0351 35.8248L83.464 34.7507C86.7051 32.4669 85.5089 31.4836 89.0041 29.5679Z" fill="#7CCA53"/>
<path d="M75.6936 62.7028L76.6332 62.758C78.1878 62.9114 80.3168 62.9764 81.6726 63.5978C78.4775 68.0697 80.4433 73.1011 79.9683 79.098C79.0293 75.0481 80.512 70.8228 78.5683 67.5655C76.4755 66.9054 76.9812 67.1355 74.6067 67.6728L73.9967 64.5548L75.6936 62.7028Z" fill="#68B84D"/>
<path d="M93.3782 77.4196C94.8873 75.7474 101.722 70.7701 103.529 70.3241L103.06 71.6749C105.246 73.3158 107.187 71.8301 109.633 73.117L110.432 74.7383L110.011 75.6462L110.874 78.7434C113.019 77.93 113.658 78.2386 115.809 78.8085L115.607 76.3443C116.549 75.9057 118.89 76.213 120.06 76.286C120.512 77.9233 120.226 77.9226 121.28 78.8489L121.25 80.0666C123.205 83.492 122.216 82.8043 125.328 84.3674C125.862 84.0649 125.981 84.025 126.461 83.6367L126.802 84.8323L125 85.9298C124.533 89.4803 113.646 97.8113 110.534 100.209C106.492 103.322 94.9665 103.188 90.0303 102.31C89.3068 101.89 87.2925 101.092 86.4247 100.72C83.2174 103.641 86.2092 102.952 83.3124 104.628L80.1757 104.238C80.0548 101.023 80.1745 99.1516 80.4562 95.9311C82.0488 95.9936 82.2421 95.9305 83.8132 95.571C85.6323 94.2644 85.8882 91.5396 86.8383 89.0834L88.5991 88.3252L88.5524 87.9215C88.183 84.4673 88.2284 84.471 90.05 82.2203C90.2795 80.6199 92.1722 78.4367 93.3782 77.4196Z" fill="#1C542F"/>
<path d="M93.3782 77.4196C94.8873 75.7474 101.722 70.7701 103.529 70.3241L103.06 71.6749C105.246 73.3158 107.187 71.8301 109.633 73.117L110.432 74.7383L110.011 75.6462L110.874 78.7434L110.434 80.2126C104.19 82.0234 99.942 89.4667 93.5187 90.0047L93.3285 88.803C91.9562 87.8025 90.6772 88.2559 88.5991 88.3252L88.5524 87.9215C88.183 84.4673 88.2284 84.471 90.05 82.2203C90.2795 80.6199 92.1722 78.4367 93.3782 77.4196Z" fill="#7CCA53"/>
<path d="M90.05 82.2203C90.2304 83.6907 90.428 84.9434 90.6962 86.3997L92.3263 86.4033C95.7226 82.7233 102.666 79.9114 106.49 76.4289C107.104 75.8701 108.987 75.7953 110.011 75.6462L110.874 78.7434L110.434 80.2126C104.19 82.0234 99.942 89.4667 93.5187 90.0047L93.3285 88.803C91.9562 87.8025 90.6772 88.2559 88.5991 88.3252L88.5524 87.9215C88.183 84.4673 88.2284 84.471 90.05 82.2203Z" fill="#4C9E5A"/>
<path d="M115.607 76.3443C116.549 75.9057 118.89 76.213 120.06 76.286C120.512 77.9233 120.226 77.9226 121.28 78.8489L121.25 80.0666C120.509 87.597 113.302 88.1639 112.479 91.8223L111.39 92.3597L109.526 92.2616C109.139 93.0915 108.952 93.1192 108.228 93.7142C104.264 94.0295 99.2283 94.4386 95.2519 93.2124C94.0306 92.8357 93.941 91.4003 93.5187 90.0047C99.942 89.4667 104.19 82.0234 110.434 80.2126L110.874 78.7434C113.019 77.93 113.658 78.2386 115.809 78.8085L115.607 76.3443Z" fill="#7CCA53"/>
<path d="M115.607 76.3443C116.549 75.9057 118.89 76.213 120.06 76.286C120.512 77.9233 120.226 77.9226 121.28 78.8489L121.25 80.0666C120.509 87.597 113.302 88.1639 112.479 91.8223L111.39 92.3597L109.526 92.2616C108.856 91.5819 109.071 91.7684 108.691 90.809C111.378 87.4897 110.143 88.3424 110.356 84.2527C110.445 82.5553 115.24 82.7424 116.44 80.6383L115.809 78.8085L115.607 76.3443Z" fill="#91DC5E"/>
<path d="M88.5991 88.3252C90.6772 88.2559 91.9562 87.8025 93.3285 88.803L93.5187 90.0047C93.941 91.4003 94.0306 92.8357 95.2519 93.2124C99.2283 94.4386 104.264 94.0295 108.228 93.7142C108.952 93.1192 109.139 93.0915 109.526 92.2616L111.39 92.3597C110.962 93.9497 110.968 93.2854 111.572 94.9202C109.62 95.2385 105.285 95.3894 104.273 96.3047L103.956 98.621C99.3921 100.646 89.7695 96.6273 86.4247 100.72C83.2174 103.641 86.2092 102.952 83.3124 104.628L80.1757 104.238C80.0548 101.023 80.1745 99.1516 80.4562 95.9311C82.0488 95.9936 82.2421 95.9305 83.8132 95.571C85.6323 94.2644 85.8882 91.5396 86.8383 89.0834L88.5991 88.3252Z" fill="#498D56"/>
<path d="M64.2507 34.2232L65.979 34.19C68.8696 38.2289 73.1934 42.1076 76.4535 46.3544L77.4108 45.59C80.5979 47.8867 80.8434 48.4934 80.96 52.4101C80.1155 53.7652 78.939 54.5755 79.155 54.1449C78.3995 55.6539 77.3728 57.9408 76.7511 59.4744C77.196 60.3908 77.4563 60.8908 77.9853 61.7569L76.6332 62.758L75.6936 62.7028L73.9967 64.5548L73.4621 64.4413C72.6943 63.4346 68.7346 62.1924 67.6937 59.7209C67.1585 58.4505 63.4615 58.8811 61.8609 58.921C60.445 57.7365 59.8791 56.425 58.9714 54.808L58.1128 53.0003C56.1225 51.9771 55.9715 52.3733 53.4104 52.4647C53.4902 50.3785 53.508 49.9625 53.0183 47.9431C51.1298 41.3862 50.3841 41.6665 50.4013 34.89C53.9155 34.7936 60.3364 33.7294 62.358 36.4745L64.2507 34.2232Z" fill="#91DC5E"/>
<path d="M64.2507 34.2232L65.979 34.19C68.8696 38.2289 73.1934 42.1076 76.4535 46.3544L77.4108 45.59C80.5979 47.8867 80.8434 48.4934 80.96 52.4101C80.1155 53.7652 78.939 54.5755 79.155 54.1449C78.3995 55.6539 77.3728 57.9408 76.7511 59.4744C77.196 60.3908 77.4563 60.8908 77.9853 61.7569L76.6332 62.758L75.6936 62.7028C75.0247 60.016 72.3783 48.429 71.616 46.5132L69.7282 45.7011C68.9574 41.3647 63.2958 40.4219 62.358 36.4745L64.2507 34.2232Z" fill="#205B2C"/>
<path d="M69.7282 45.7011L71.616 46.5132C72.3783 48.429 75.0247 60.016 75.6936 62.7028L73.9967 64.5548L73.4621 64.4413C72.6943 63.4346 68.7346 62.1924 67.6937 59.7209C67.1585 58.4505 63.4615 58.8811 61.8609 58.921C60.445 57.7365 59.8791 56.425 58.9714 54.808C62.1211 55.1215 63.3657 56.5845 66.3159 56.0453C68.1405 54.7307 67.5967 55.165 68.3939 52.6819L69.1169 51.1655C70.5045 49.489 70.8611 49.5859 71.1772 47.6094L69.7282 45.7011Z" fill="#51A25B"/>
<path d="M63.3595 48.1413L62.2616 48.213L61.403 46.5642C60.0571 46.3826 59.3482 46.3501 57.9888 46.3298C56.576 44.0424 57.1671 42.1622 59.4133 40.8734C61.5429 41.6825 61.4214 43.9307 65.1338 45.5422C63.988 46.6059 63.7308 46.6973 63.3595 48.1413Z" fill="#68B84D"/>
<path d="M63.3595 48.1413C63.7308 46.6973 63.988 46.6059 65.1338 45.5422C66.036 46.65 66.7578 47.1242 67.9877 47.8407C68.7383 49.297 68.7628 49.5442 69.1169 51.1655L68.3939 52.6819C66.3828 52.8003 66.1011 53.1235 64.4176 52.3169C64.2089 50.687 64.0113 49.6515 63.3595 48.1413Z" fill="#68B84D"/>
<path d="M92.8805 72.6091C94.192 71.7896 93.2266 72.1601 93.833 71.4258C102.749 60.6331 119.914 62.8887 131.812 63.0531C131.857 66.5448 132.166 74.5562 131.537 77.5963C130.338 78.3085 129.403 78.1662 127.967 78.1883C126.511 80.055 127.571 82.5123 126.802 84.8323L126.461 83.6367C125.981 84.025 125.862 84.0649 125.328 84.3674C122.216 82.8043 123.205 83.492 121.25 80.0666L121.28 78.8489C120.226 77.9226 120.512 77.9233 120.06 76.286C118.89 76.213 116.549 75.9057 115.607 76.3443L115.809 78.8085C113.658 78.2386 113.019 77.93 110.874 78.7434L110.011 75.6462L110.432 74.7383L109.633 73.117C107.187 71.8301 105.246 73.3158 103.06 71.6749L103.529 70.3241C101.722 70.7701 94.8873 75.7474 93.3782 77.4196L93.2996 75.2321C92.6558 77.0479 93.0952 76.6412 91.7401 77.5693L90.8668 76.5719C91.0258 74.0893 90.9705 74.8291 92.8805 72.6091Z" fill="#205B2C"/>
<path d="M103.529 70.3241C104.498 69.8653 106.357 67.8986 105.727 67.9281C109.352 67.76 125.201 66.0626 126.772 68.7181C127.855 70.5468 123.874 76.1578 122.448 78.633L121.28 78.8489C120.226 77.9226 120.512 77.9233 120.06 76.286C118.89 76.213 116.549 75.9057 115.607 76.3443L115.809 78.8085C113.658 78.2386 113.019 77.93 110.874 78.7434L110.011 75.6462L110.432 74.7383L109.633 73.117C107.187 71.8301 105.246 73.3158 103.06 71.6749L103.529 70.3241Z" fill="#91DC5E"/>
<path d="M109.633 73.117C112.639 73.1183 117.224 72.7422 119.738 73.766C120.188 75.0322 120.205 74.9653 120.06 76.286C118.89 76.213 116.549 75.9057 115.607 76.3443L115.809 78.8085C113.658 78.2386 113.019 77.93 110.874 78.7434L110.011 75.6462L110.432 74.7383L109.633 73.117Z" fill="#7CCA53"/>
<path d="M110.432 74.7383C112.69 74.9868 114.251 74.8107 115.607 76.3443L115.809 78.8085C113.658 78.2386 113.019 77.93 110.874 78.7434L110.011 75.6462L110.432 74.7383Z" fill="#51A25B"/>
<path d="M68.1884 114.59L68.6928 119.441L67.7956 120.491C61.1648 120.27 55.6628 119.076 50.7898 123.607L50.219 124.148C49.8545 124.487 49.7348 124.541 49.2954 124.76L48.2876 123.934C47.8863 124.665 47.8003 124.682 47.5917 125.476C45.3528 126.266 44.6151 126.142 42.2614 126.071L42.0577 125.62C41.9853 123.911 41.6883 122.602 42.591 121.249C50.788 121.626 46.4495 118.053 48.3202 116.848C52.6948 114.032 62.8318 114.569 68.1884 114.59Z" fill="#5F2A0E"/>
<path d="M42.0577 125.62L42.2614 126.071L41.6698 129.191L40.7934 130.543C39.4456 130.817 38.6128 130.971 37.246 131.103C33.6901 130.64 17.8412 130.864 13.9882 131.074L10.8183 130.767L10.7465 126.049C17.4319 125.36 33.9866 125.82 42.0577 125.62Z" fill="#5F2A0E"/>
<path d="M46.3648 30.8628C49.8127 30.8493 59.5741 30.5702 62.4543 31.2658C62.8833 32.7135 63.1362 33.1988 64.2507 34.2232L62.358 36.4745C60.3364 33.7294 53.9155 34.7936 50.4013 34.89C50.3841 41.6665 51.1298 41.3862 53.0183 47.9431C50.5811 47.3818 50.1006 47.2131 47.5776 47.5468L46.6993 47.2217C46.0604 43.9049 46.3396 34.6912 46.3648 30.8628Z" fill="#326D3E"/>
<path d="M53.4104 52.4647C55.9715 52.3733 56.1225 51.9771 58.1128 53.0003L58.9714 54.808C59.8791 56.425 60.445 57.7365 61.8609 58.921C59.9755 59.1707 58.4602 58.8088 57.9195 60.9184C57.7918 60.1767 57.5347 59.6866 57.2499 58.9867L55.8058 58.5297C52.0682 57.3654 52.7347 56.7391 52.1885 53.169L53.4104 52.4647Z" fill="#205B2C"/>
<path d="M47.5776 47.5468C50.1006 47.2131 50.5811 47.3818 53.0183 47.9431C53.508 49.9625 53.4902 50.3785 53.4104 52.4647L52.1885 53.169L49.3531 52.9162C47.6132 51.2011 48.0544 50.5293 47.5776 47.5468Z" fill="#1C542F"/>
</svg>
