<svg width="168" height="179" viewBox="0 0 168 179" fill="none" xmlns="http://www.w3.org/2000/svg">
<path d="M10.6171 5.37321C10.7216 2.63219 10.3061 2.48956 11.5683 0.46359C12.8109 0.0724681 140.826 -0.307875 145.391 0.381818C146.458 2.27467 146.081 3.16341 146.114 5.58367C148.891 5.69524 149.479 5.23185 151.32 6.60427C151.509 7.9583 151.719 9.30916 151.948 10.6575C154.83 10.8863 155.151 10.3919 156.809 11.9576C156.91 13.4847 157.008 14.9294 157.043 16.4641C159.05 16.421 160.523 16.1161 162.048 17.2672C162.178 20.4875 161.466 19.7972 163.065 21.787C165.328 21.9956 166.267 21.6241 167.476 22.942C167.978 35.0085 167.668 48.8435 167.662 61.0165L167.625 127.127C167.621 135.795 168.698 166.302 167.219 172.763C165.518 173.434 165.005 173.374 163.145 173.498C161.237 176.347 163.523 176.685 161.538 178.519C155.296 179.129 146.567 178.861 140.014 178.863L52.6593 178.846C50.2438 178.847 25.2583 179.555 22.8618 177.928C21.2278 176.818 24.2526 173.419 16.7857 172.659C16.1663 170.775 16.3702 169.961 16.5222 168.001L11.0788 167.968C10.8349 166.381 10.7545 164.157 10.6411 162.503L5.50738 162.396C5.79935 160.089 5.08813 158.941 6.20279 156.852L8.07932 156.483C7.0052 156.405 6.88233 156.224 5.96591 155.676C4.96145 153.013 5.42885 149.327 5.57705 146.395L10.1737 146.398C10.5081 145.168 10.5449 143.379 10.6393 142.052L10.6874 128.938L10.726 108.642C10.6494 105.118 10.6513 101.592 10.7317 98.0678L10.7494 92.8888C11.3074 90.3861 11.1453 79.2407 11.1801 76.0129C14.576 76.2259 25.0386 74.9219 26.3984 71.63L24.606 71.1914C19.8941 70.5239 15.5672 72.4059 12.0794 70.4015C10.7589 68.108 11.2175 68.018 11.1928 64.9867L11.1282 62.0637C11.2884 59.8178 10.9673 57.6885 10.7203 55.4508L10.6158 50.1133C10.4746 47.5358 10.6532 43.6765 10.6943 41.0014L10.7634 35.9492C10.5829 31.1232 10.4505 21.1969 11.0078 16.7183C13.2074 14.4622 12.8755 17.2584 17.0333 14.5903C16.8079 13.6166 16.59 13.0537 16.7718 12.0629C19.9289 10.6049 23.3128 10.8939 26.8303 10.8375C25.4927 9.53863 20.079 10.1193 17.5602 9.91201L16.8389 8.53072C17.1651 7.03533 16.8629 7.58112 18.2943 6.52629C20.2633 6.36592 21.7035 6.09841 23.6199 5.74405L16.1061 5.66609C14.2783 5.67813 12.443 5.50633 10.6171 5.37321Z" fill="#9D9699"/>
<path d="M86.5988 70.527L86.745 70.9391L86.6849 76.0376L81.4681 76.0338L81.4998 70.4934L86.5988 70.527Z" fill="#3A1E16"/>
<path d="M81.4681 76.0338L86.6849 76.0376L86.5234 81.1241L82.7563 80.9777L81.4719 81.6864L81.3206 81.249L81.4681 76.0338Z" fill="#92593B"/>
<path d="M10.6171 5.37321C10.7216 2.63219 10.3061 2.48956 11.5683 0.46359C12.8109 0.0724681 140.826 -0.307875 145.391 0.381818C146.458 2.27467 146.081 3.16341 146.114 5.58367L146.202 10.9833L146.013 11.524L146.185 13.1012C143.269 13.6755 143.028 13.3136 140.862 11.5805L140.769 16.215C144.916 16.6181 146.917 16.2441 146.642 21.697C146.507 24.3994 146.23 26.9223 146.304 29.6462L146.09 32.9311C137.043 33.8269 138.129 29.5461 130.883 30.3423C125.558 30.2801 127.291 31.0275 123.18 32.7131C121.903 33.2367 115.635 32.27 114.006 33.534L113.801 38.0614L113.919 43.5295C113.927 46.6984 114.214 51.2321 113.207 54.0993L113.103 54.4479L108.619 54.5278L108.188 54.614L108.093 59.672L108.198 64.8485L107.991 65.2294L108.019 70.565L107.922 70.9429L107.848 75.9622L97.5388 76.023L97.4476 81.067C93.7832 81.2363 90.172 81.5127 86.5234 81.1241L86.6849 76.0376L86.745 70.9391L86.5988 70.527L81.4998 70.4934L81.5739 68.0275C80.6176 70.295 81.2338 69.708 79.4142 70.617C78.242 70.4706 76.9063 70.38 75.8372 69.9413L75.4224 69.9457L72.2874 70.5701L70.1012 70.3267C68.68 70.3299 65.7033 70.2481 64.4354 70.4979C63.4557 70.4085 60.65 70.6887 59.5221 70.7711L54.2483 70.5575C52.5896 69.8912 51.176 69.9318 49.3882 69.8126C48.5205 68.7521 48.4844 66.768 48.3045 65.3131L43.5603 65.2199L43.4437 59.7297C41.9326 59.7392 39.5918 59.4323 38.0231 59.277C38.0357 60.9182 37.9851 63.4076 38.1136 64.9676L38.0769 67.5527L37.9103 70.9365C34.6747 70.7039 28.8075 69.7575 26.3984 71.63L24.606 71.1914C19.8941 70.5239 15.5672 72.4059 12.0794 70.4015C10.7589 68.108 11.2175 68.018 11.1928 64.9867L11.1282 62.0637C11.2884 59.8178 10.9673 57.6885 10.7203 55.4508L10.6158 50.1133C10.4746 47.5358 10.6532 43.6765 10.6943 41.0014L10.7634 35.9492C10.5829 31.1232 10.4505 21.1969 11.0078 16.7183C13.2074 14.4622 12.8755 17.2584 17.0333 14.5903C16.8079 13.6166 16.59 13.0537 16.7718 12.0629C19.9289 10.6049 23.3128 10.8939 26.8303 10.8375C25.4927 9.53863 20.079 10.1193 17.5602 9.91201L16.8389 8.53072C17.1651 7.03533 16.8629 7.58112 18.2943 6.52629C20.2633 6.36592 21.7035 6.09841 23.6199 5.74405L16.1061 5.66609C14.2783 5.67813 12.443 5.50633 10.6171 5.37321Z" fill="#A46540"/>
<path d="M11.4208 32.3651C14.493 33.4319 43.2721 32.8323 48.7346 32.9121L59.5195 32.8804C59.5404 34.8398 59.3719 36.4506 60.1649 38.2097L65.5336 38.1013L70.4577 38.1558C71.7725 38.211 74.6149 38.2541 75.8068 38.4011L75.8771 43.6917L75.86 54.4676L70.3216 54.5062C70.2848 55.743 70.2924 58.0213 70.1575 59.1572L69.7972 59.6624C70.1208 62.1366 70.198 63.1211 70.1208 65.6098L70.1012 70.3267C68.68 70.3299 65.7033 70.2481 64.4354 70.4979C63.4557 70.4085 60.65 70.6887 59.5221 70.7711L54.2483 70.5575C52.5896 69.8912 51.176 69.9318 49.3882 69.8126C48.5205 68.7521 48.4844 66.768 48.3045 65.3131L43.5603 65.2199L43.4437 59.7297C41.9326 59.7392 39.5918 59.4323 38.0231 59.277C38.0357 60.9182 37.9851 63.4076 38.1136 64.9676L38.0769 67.5527L37.9103 70.9365C34.6747 70.7039 28.8075 69.7575 26.3984 71.63L24.606 71.1914C19.8941 70.5239 15.5672 72.4059 12.0794 70.4015C10.7589 68.108 11.2175 68.018 11.1928 64.9867L11.1282 62.0637C11.2884 59.8178 10.9673 57.6885 10.7203 55.4508L10.6158 50.1133C10.4746 47.5358 10.6532 43.6765 10.6943 41.0014L10.7634 35.9492C11.7761 34.6649 11.4252 34.3118 11.4208 32.3651Z" fill="#9E613D"/>
<path d="M65.0282 54.3788L70.3216 54.5062C70.2848 55.743 70.2924 58.0213 70.1575 59.1572L69.7972 59.6624C70.1208 62.1366 70.198 63.1211 70.1208 65.6098L70.1012 70.3267C68.68 70.3299 65.7033 70.2481 64.4354 70.4979C63.4557 70.4085 60.65 70.6887 59.5221 70.7711L54.2483 70.5575C52.5896 69.8912 51.176 69.9318 49.3882 69.8126C48.5205 68.7521 48.4844 66.768 48.3045 65.3131L43.5603 65.2199L43.4437 59.7297C43.3677 57.8241 43.084 56.7325 44.174 55.2352C46.7541 53.8235 51.1146 54.446 54.3946 54.5284L59.3168 54.5265L65.0282 54.3788Z" fill="#B57A54"/>
<path d="M65.0282 54.3788L70.3216 54.5062C70.2848 55.743 70.2924 58.0213 70.1575 59.1572L69.7972 59.6624C70.1208 62.1366 70.198 63.1211 70.1208 65.6098C65.1878 65.2383 59.6962 66.9321 55.4332 64.4814C54.3085 62.4523 54.5181 63.3772 54.7581 60.9436C56.4656 59.4229 56.4358 59.9471 59.4144 59.9515L59.3168 54.5265L65.0282 54.3788Z" fill="#A2714E"/>
<path d="M65.0282 54.3788L70.3216 54.5062C70.2848 55.743 70.2924 58.0213 70.1575 59.1572L69.7972 59.6624L64.9452 59.5496C63.1029 59.698 61.2592 59.8317 59.4144 59.9515L59.3168 54.5265L65.0282 54.3788Z" fill="#9E613D"/>
<path d="M65.0282 54.3788L70.3216 54.5062C70.2848 55.743 70.2924 58.0213 70.1575 59.1572L69.7972 59.6624L64.9452 59.5496L65.0282 54.3788Z" fill="#341D1A"/>
<path d="M43.4437 59.7297C43.3677 57.8241 43.084 56.7325 44.174 55.2352C46.7541 53.8235 51.1146 54.446 54.3946 54.5284C54.3117 57.6568 54.8405 57.4558 53.2147 59.3398C50.6016 60.4929 46.5122 59.7049 43.4437 59.7297Z" fill="#3A1E16"/>
<path d="M48.3045 65.3131C51.1121 65.3036 51.8379 64.8187 53.8392 66.0814C54.2635 68.0155 54.2629 68.5682 54.2483 70.5575C52.5896 69.8912 51.176 69.9318 49.3882 69.8126C48.5205 68.7521 48.4844 66.768 48.3045 65.3131Z" fill="#814A32"/>
<path d="M11.4208 32.3651C14.493 33.4319 43.2721 32.8323 48.7346 32.9121L59.5195 32.8804C59.5404 34.8398 59.3719 36.4506 60.1649 38.2097C55.47 37.8915 23.694 37.475 21.1607 38.6427L20.6224 40.9571L20.1284 41.416C16.9826 41.2987 13.8375 41.1606 10.6943 41.0014L10.7634 35.9492C11.7761 34.6649 11.4252 34.3118 11.4208 32.3651Z" fill="#9E613D"/>
<path d="M11.1928 64.9867C20.1658 65.1768 29.1413 65.1705 38.1136 64.9676L38.0769 67.5527L37.9103 70.9365C34.6747 70.7039 28.8075 69.7575 26.3984 71.63L24.606 71.1914C19.8941 70.5239 15.5672 72.4059 12.0794 70.4015C10.7589 68.108 11.2175 68.018 11.1928 64.9867Z" fill="#92593B"/>
<path d="M24.606 71.1914C24.8644 69.6662 24.8068 69.4513 25.7884 68.3432C29.1761 67.3055 34.2548 67.6364 38.0769 67.5527L37.9103 70.9365C34.6747 70.7039 28.8075 69.7575 26.3984 71.63L24.606 71.1914Z" fill="#B57A54"/>
<path d="M11.1282 62.0637C12.8451 62.0878 14.5943 62.0701 16.3151 62.0707C21.5362 58.8828 32.4283 56.4168 38.0231 59.277C38.0357 60.9182 37.9851 63.4076 38.1136 64.9676C29.1413 65.1705 20.1658 65.1768 11.1928 64.9867L11.1282 62.0637Z" fill="#814A32"/>
<path d="M20.6224 40.9571L21.1607 38.6427C23.694 37.475 55.47 37.8915 60.1649 38.2097L59.9723 40.54C57.4422 42.4645 53.3154 41.0547 49.7567 41.3368C40.0447 41.2601 30.3332 41.1339 20.6224 40.9571Z" fill="#B57A54"/>
<path d="M54.3946 54.5284C54.3136 51.5009 53.8151 51.6118 55.2338 49.5915C58.8184 47.8673 61.4556 47.312 64.7755 50.2045C65.2663 51.982 65.1593 52.5247 65.0282 54.3788L59.3168 54.5265L54.3946 54.5284Z" fill="#3A1E16"/>
<path d="M10.6943 41.0014C13.8375 41.1606 16.9826 41.2987 20.1284 41.416C18.8928 42.2173 17.0986 43.2531 16.1644 44.3124C16.1416 47.2974 16.635 47.0306 15.1188 48.8866L11.0439 49.8331L10.6158 50.1133C10.4746 47.5358 10.6532 43.6765 10.6943 41.0014Z" fill="#A46540"/>
<path d="M10.6943 41.0014C13.8375 41.1606 16.9826 41.2987 20.1284 41.416C18.8928 42.2173 17.0986 43.2531 16.1644 44.3124C13.6786 44.1063 13.0662 43.5903 11.3416 44.7155C10.8102 46.7155 10.9692 47.79 11.0439 49.8331L10.6158 50.1133C10.4746 47.5358 10.6532 43.6765 10.6943 41.0014Z" fill="#C5865B"/>
<path d="M65.5336 38.1013L70.4577 38.1558L69.9865 42.4442C66.4912 41.8186 54.6714 41.7488 49.7567 41.3368C53.3154 41.0547 57.4422 42.4645 59.9723 40.54L60.1649 38.2097L65.5336 38.1013Z" fill="#A2714E"/>
<path d="M70.4577 38.1558C71.7725 38.211 74.6149 38.2541 75.8068 38.4011L75.8771 43.6917C75.3534 43.7247 74.8296 43.7494 74.3058 43.7659C71.4413 43.8299 71.504 43.9244 69.9865 42.4442L70.4577 38.1558Z" fill="#3A1E16"/>
<path d="M29.5358 44.5215C31.7189 44.4017 32.7804 44.2369 34.9356 44.841C36.2485 46.8144 35.8337 46.4157 35.7729 49.1947C33.6696 48.5678 31.6037 48.1139 29.8215 46.8512L29.5358 44.5215Z" fill="#B57A54"/>
<path d="M10.6171 5.37321C10.7216 2.63219 10.3061 2.48956 11.5683 0.46359C12.8109 0.0724681 140.826 -0.307875 145.391 0.381818C146.458 2.27467 146.081 3.16341 146.114 5.58367L146.202 10.9833L146.013 11.524L146.185 13.1012C143.269 13.6755 143.028 13.3136 140.862 11.5805L140.503 11.2857C137.365 10.3722 45.6427 10.4781 40.5906 11.2629L39.6938 11.5564L35.7887 11.1564C32.8019 11.0809 29.8151 10.9751 26.8303 10.8375C25.4927 9.53863 20.079 10.1193 17.5602 9.91201L16.8389 8.53072C17.1651 7.03533 16.8629 7.58112 18.2943 6.52629C20.2633 6.36592 21.7035 6.09841 23.6199 5.74405L16.1061 5.66609C14.2783 5.67813 12.443 5.50633 10.6171 5.37321Z" fill="#59321E"/>
<path d="M143.143 5.68826L146.114 5.58367L146.202 10.9833L146.013 11.524L146.185 13.1012C143.269 13.6755 143.028 13.3136 140.862 11.5805L140.503 11.2857C137.365 10.3722 45.6427 10.4781 40.5906 11.2629L39.6938 11.5564L35.7887 11.1564C32.8019 11.0809 29.8151 10.9751 26.8303 10.8375C25.4927 9.53863 20.079 10.1193 17.5602 9.91201L16.8389 8.53072C17.1651 7.03533 16.8629 7.58112 18.2943 6.52629C20.2633 6.36592 21.7035 6.09841 23.6199 5.74405C37.5582 5.07021 55.7753 5.61219 70.0974 5.62741L143.143 5.68826Z" fill="#EBAF7E"/>
<path d="M143.143 5.68826L146.114 5.58367L146.202 10.9833L146.013 11.524C145.265 11.7713 144.418 11.8188 143.618 11.9171C141.575 10.7012 142.174 11.4093 141.295 9.29775C141.799 6.53518 141.266 7.45307 143.143 5.68826Z" fill="#EABC89"/>
<path d="M75.8771 43.6917L81.3383 43.5523L81.4453 48.8423L86.6905 49.0102L86.8754 53.6752L86.8767 54.4834L92.1904 54.5455C94.3031 54.5874 95.6642 54.8397 97.4495 53.776L97.5052 50.5456C98.7978 48.86 99.1076 49.3152 101.755 48.86L102.653 47.7158L102.92 47.6702L103.967 48.9076L103.71 49.3158C105.964 49.3285 106.429 48.924 107.942 50.0581L108.275 51.9846L108.619 54.5278L108.188 54.614L108.093 59.672L108.198 64.8485L107.991 65.2294L108.019 70.565L107.922 70.9429L107.848 75.9622L97.5388 76.023L97.4476 81.067C93.7832 81.2363 90.172 81.5127 86.5234 81.1241L86.6849 76.0376L86.745 70.9391L86.5988 70.527L81.4998 70.4934L81.5739 68.0275C80.6176 70.295 81.2338 69.708 79.4142 70.617C78.242 70.4706 76.9063 70.38 75.8372 69.9413L75.4224 69.9457L72.2874 70.5701L70.1012 70.3267L70.1208 65.6098C70.198 63.1211 70.1208 62.1366 69.7972 59.6624L70.1575 59.1572C70.2924 58.0213 70.2848 55.743 70.3216 54.5062L75.86 54.4676L75.8771 43.6917Z" fill="#341D1A"/>
<path d="M75.8771 43.6917L81.3383 43.5523L81.4453 48.8423L86.6905 49.0102L86.8754 53.6752L86.8767 54.4834C86.7748 57.3049 87.3011 57.9027 85.7342 59.4501C84.7285 59.6168 82.4985 59.9186 81.6214 60.1613C78.6137 60.1911 77.7492 59.6415 75.8422 61.1154C75.6947 62.2945 75.525 63.5014 75.4293 64.6817L75.4224 69.9457L72.2874 70.5701L70.1012 70.3267L70.1208 65.6098C70.198 63.1211 70.1208 62.1366 69.7972 59.6624L70.1575 59.1572C70.2924 58.0213 70.2848 55.743 70.3216 54.5062L75.86 54.4676L75.8771 43.6917Z" fill="#341D1A"/>
<path d="M69.7972 59.6624L70.1575 59.1572L71.1474 59.5934C70.7275 62.3021 70.2772 62.2209 71.3082 64.205C73.0144 64.8434 73.5914 64.7394 75.4293 64.6817L75.4224 69.9457L72.2874 70.5701L70.1012 70.3267L70.1208 65.6098C70.198 63.1211 70.1208 62.1366 69.7972 59.6624Z" fill="#3A1E16"/>
<path d="M75.86 54.4676C75.7884 56.8676 76.2172 57.845 74.9632 59.3702C73.3685 59.5915 72.7541 59.6504 71.1474 59.5934L70.1575 59.1572C70.2924 58.0213 70.2848 55.743 70.3216 54.5062L75.86 54.4676Z" fill="#744D3F"/>
<path d="M81.4453 48.8423L86.6905 49.0102L86.8754 53.6752L86.8767 54.4834C85.1496 54.4695 84.2383 54.394 82.5264 54.1576C81.1084 52.4169 81.5669 51.5332 81.4453 48.8423Z" fill="#A46540"/>
<path d="M94.9656 70.5581L97.1094 70.2975L97.5388 76.023L97.4476 81.067C93.7832 81.2363 90.172 81.5127 86.5234 81.1241L86.6849 76.0376L86.745 70.9391C89.1168 70.4896 89.4816 70.3996 91.9022 70.9169L94.9656 70.5581Z" fill="#B57A54"/>
<path d="M94.9656 70.5581L97.1094 70.2975L97.5388 76.023L91.9858 76.0325L91.9022 70.9169L94.9656 70.5581Z" fill="#3A1E16"/>
<path d="M86.745 70.9391C89.1168 70.4896 89.4816 70.3996 91.9022 70.9169L91.9858 76.0325L86.6849 76.0376L86.745 70.9391Z" fill="#744D3F"/>
<path d="M102.653 47.7158L102.92 47.6702L103.967 48.9076L103.71 49.3158C105.964 49.3285 106.429 48.924 107.942 50.0581L108.275 51.9846L108.619 54.5278L108.188 54.614L108.093 59.672L103.072 59.7176L102.9 60.2755L102.687 60.1728C100.928 59.3854 99.5503 59.5281 97.6148 59.497C97.604 57.5579 97.6129 55.7145 97.4495 53.776L97.5052 50.5456C98.7978 48.86 99.1076 49.3152 101.755 48.86L102.653 47.7158Z" fill="#8E5334"/>
<path d="M103.71 49.3158C105.964 49.3285 106.429 48.924 107.942 50.0581L108.275 51.9846L108.619 54.5278L108.188 54.614L108.093 59.672L103.072 59.7176L102.991 54.4055C102.996 52.0118 103.106 51.6023 103.71 49.3158Z" fill="#A46540"/>
<path d="M102.991 54.4055L108.188 54.614L108.093 59.672L103.072 59.7176L102.991 54.4055Z" fill="#CB8B5F"/>
<path d="M75.4293 64.6817C75.525 63.5014 75.6947 62.2945 75.8422 61.1154C77.7492 59.6415 78.6137 60.1911 81.6214 60.1613C83.5296 60.2406 84.8824 60.3794 86.7849 60.0618L86.7691 65.2998L86.5988 70.527L81.4998 70.4934L81.5739 68.0275C80.6176 70.295 81.2338 69.708 79.4142 70.617C78.242 70.4706 76.9063 70.38 75.8372 69.9413L75.4224 69.9457L75.4293 64.6817Z" fill="#744D3F"/>
<path d="M75.4293 64.6817C75.525 63.5014 75.6947 62.2945 75.8422 61.1154C77.7492 59.6415 78.6137 60.1911 81.6214 60.1613C81.5087 62.8371 81.9533 62.8903 80.6005 64.6228C78.4852 64.8795 77.4997 64.8009 75.4293 64.6817Z" fill="#59321E"/>
<path d="M81.5232 65.3943L86.7691 65.2998L86.5988 70.527L81.4998 70.4934L81.5739 68.0275L81.5232 65.3943Z" fill="#582C1C"/>
<path d="M75.8372 69.9413C75.8942 68.6082 76.0323 67.5648 76.2052 66.2412C77.9595 64.9112 78.8734 65.4032 81.5232 65.3943L81.5739 68.0275C80.6176 70.295 81.2338 69.708 79.4142 70.617C78.242 70.4706 76.9063 70.38 75.8372 69.9413Z" fill="#9C5B46"/>
<path d="M97.4495 53.776C97.6129 55.7145 97.604 57.5579 97.6148 59.497C99.5503 59.5281 100.928 59.3854 102.687 60.1728C98.7998 60.0625 90.0833 59.4571 86.7849 60.0618C84.8824 60.3794 83.5296 60.2406 81.6214 60.1613C82.4985 59.9186 84.7285 59.6168 85.7342 59.4501C87.3011 57.9027 86.7748 57.3049 86.8767 54.4834L92.1904 54.5455C94.3031 54.5874 95.6642 54.8397 97.4495 53.776Z" fill="#643A2E"/>
<path d="M97.4495 53.776C97.6129 55.7145 97.604 57.5579 97.6148 59.497C95.7484 59.5851 94.8561 59.6967 92.9827 59.2796C91.7863 57.4888 92.2075 57.0324 92.1904 54.5455C94.3031 54.5874 95.6642 54.8397 97.4495 53.776Z" fill="#9C5B46"/>
<path d="M97.1094 70.2975L97.8846 68.7673L99.5857 68.212C101.673 68.669 101.898 68.7717 103.246 70.4231C104.78 70.6158 106.386 70.8528 107.922 70.9429L107.848 75.9622L97.5388 76.023L97.1094 70.2975Z" fill="#A46540"/>
<path d="M103.072 59.7176L108.093 59.672L108.198 64.8485L107.991 65.2294L108.019 70.565L107.922 70.9429C106.386 70.8528 104.78 70.6158 103.246 70.4231L102.926 65.2459L102.921 64.8485L102.9 60.2755L103.072 59.7176Z" fill="#59321E"/>
<path d="M103.072 59.7176L108.093 59.672L108.198 64.8485L107.991 65.2294C106.773 64.96 104.274 64.9182 102.921 64.8485L102.9 60.2755L103.072 59.7176Z" fill="#8E5334"/>
<path d="M94.9656 70.5581C93.2221 70.3933 93.6362 70.6709 92.3671 69.7644C92.1872 67.0095 91.8079 67.6383 93.1467 65.7556C95.6167 64.6443 100.052 65.1407 102.926 65.2459L103.246 70.4231C101.898 68.7717 101.673 68.669 99.5857 68.212L97.8846 68.7673L97.1094 70.2975L94.9656 70.5581Z" fill="#9E613D"/>
<path d="M75.67 27.3096C77.3223 27.2982 79.9184 27.1981 81.4846 27.3572C84.8412 27.3775 88.1972 27.3623 91.5532 27.3122L97.5185 27.323L97.2317 32.9812L97.4666 33.3654L97.2994 38.0601L97.3843 43.4534C97.4096 45.1922 97.4812 47.0502 97.3824 48.7763C98.6275 48.7922 100.579 48.751 101.755 48.86C99.1076 49.3152 98.7978 48.86 97.5052 50.5456L97.4495 53.776C95.6642 54.8397 94.3031 54.5874 92.1904 54.5455L86.8767 54.4834L86.8754 53.6752L86.6905 49.0102L81.4453 48.8423L81.3383 43.5523L75.8771 43.6917L75.8068 38.4011C74.6149 38.2541 71.7725 38.211 70.4577 38.1558L70.2671 33.0351L70.1639 32.4671C70.2006 31.153 70.3285 30.1375 70.4875 28.8317C72.2924 27.4066 72.9182 27.8814 75.7365 27.7489L75.67 27.3096Z" fill="#814A32"/>
<path d="M86.8254 38.216L87.2149 38.2376C87.0693 41.0465 86.5823 41.0382 87.8907 42.8347C89.1276 42.9767 90.2885 43.1231 91.5323 43.1846L91.5944 43.5707L92.3202 43.6905C94.1214 43.8097 95.5964 43.6157 97.3843 43.4534C97.4096 45.1922 97.4812 47.0502 97.3824 48.7763C98.6275 48.7922 100.579 48.751 101.755 48.86C99.1076 49.3152 98.7978 48.86 97.5052 50.5456L97.4495 53.776C95.6642 54.8397 94.3031 54.5874 92.1904 54.5455L86.8767 54.4834L86.8754 53.6752L86.6905 49.0102L81.4453 48.8423L81.3383 43.5523L75.8771 43.6917L75.8068 38.4011C77.095 38.41 80.311 38.2985 81.3471 38.7004C83.8849 38.9647 84.3808 39.0864 86.8254 38.216Z" fill="#B57A54"/>
<path d="M97.3843 43.4534C97.4096 45.1922 97.4812 47.0502 97.3824 48.7763C98.6275 48.7922 100.579 48.751 101.755 48.86C99.1076 49.3152 98.7978 48.86 97.5052 50.5456L97.4495 53.776C95.6642 54.8397 94.3031 54.5874 92.1904 54.5455L86.8767 54.4834L86.8754 53.6752L87.4075 53.7468L87.2504 48.8803L91.7547 48.957L92.3202 43.6905C94.1214 43.8097 95.5964 43.6157 97.3843 43.4534Z" fill="#B57A54"/>
<path d="M97.3843 43.4534C97.4096 45.1922 97.4812 47.0502 97.3824 48.7763C95.6933 49.0229 93.4989 48.9507 91.7547 48.957L92.3202 43.6905C94.1214 43.8097 95.5964 43.6157 97.3843 43.4534Z" fill="#D79868"/>
<path d="M87.2504 48.8803L91.7547 48.957C91.6717 51.5281 92.108 52.0714 90.7951 53.821C89.1878 53.9757 88.98 54.0188 87.4075 53.7468L87.2504 48.8803Z" fill="#CB8B5F"/>
<path d="M75.8068 38.4011C77.095 38.41 80.311 38.2985 81.3471 38.7004C81.432 41.4211 80.9729 41.5726 82.332 43.326L83.5429 43.6106L81.3383 43.5523L75.8771 43.6917L75.8068 38.4011Z" fill="#814A32"/>
<path d="M81.3383 43.5523L83.5429 43.6106L85.7083 43.636C87.0693 45.2214 86.6069 46.4397 86.6905 49.0102L81.4453 48.8423L81.3383 43.5523Z" fill="#814A32"/>
<path d="M91.5944 43.5707L92.3202 43.6905L91.7547 48.957L87.2504 48.8803C87.1453 47.1383 87.1902 46.3928 87.3631 44.6534C88.987 43.3444 89.2245 43.7292 91.5944 43.5707Z" fill="#EBAF7E"/>
<path d="M75.67 27.3096C77.3223 27.2982 79.9184 27.1981 81.4846 27.3572C81.5802 28.4849 81.7481 31.4161 82.0552 32.348L82.0172 32.8766L87.1472 32.9438L86.8254 38.216C84.3808 39.0864 83.8849 38.9647 81.3471 38.7004C80.311 38.2985 77.095 38.41 75.8068 38.4011C74.6149 38.2541 71.7725 38.211 70.4577 38.1558L70.2671 33.0351L70.1639 32.4671C70.2006 31.153 70.3285 30.1375 70.4875 28.8317C72.2924 27.4066 72.9182 27.8814 75.7365 27.7489L75.67 27.3096Z" fill="#C5865B"/>
<path d="M70.1639 32.4671C70.2006 31.153 70.3285 30.1375 70.4875 28.8317C72.2924 27.4066 72.9182 27.8814 75.7365 27.7489C75.9195 30.4843 75.4217 30.6503 77.0076 32.0995L81.375 32.5394C78.9304 32.9971 72.9043 32.5755 70.1639 32.4671Z" fill="#EBAF7E"/>
<path d="M70.2671 33.0351C72.8131 33.1023 73.7535 32.6712 75.5313 33.9333C75.8226 35.8199 75.8531 36.4905 75.8068 38.4011C74.6149 38.2541 71.7725 38.211 70.4577 38.1558L70.2671 33.0351Z" fill="#A46540"/>
<path d="M82.0172 32.8766L87.1472 32.9438L86.8254 38.216C84.7259 38.249 83.5037 38.5159 81.8013 37.3628C81.1357 35.7318 81.6151 34.644 82.0172 32.8766Z" fill="#EBAF7E"/>
<path d="M75.7365 27.7489C78.8271 27.7927 79.1147 27.2406 80.9608 28.8057C81.1122 30.0462 81.2775 31.2944 81.375 32.5394L77.0076 32.0995C75.4217 30.6503 75.9195 30.4843 75.7365 27.7489Z" fill="#EFBF7A"/>
<path d="M87.1472 32.9438C89.7349 32.999 90.0162 32.5375 91.6521 33.9086L92.2581 37.3628L92.4026 37.9612L97.2994 38.0601L97.3843 43.4534C95.5964 43.6157 94.1214 43.8097 92.3202 43.6905L91.5944 43.5707L91.5323 43.1846C90.2885 43.1231 89.1276 42.9767 87.8907 42.8347C86.5823 41.0382 87.0693 41.0465 87.2149 38.2376L86.8254 38.216L87.1472 32.9438Z" fill="#CB8B5F"/>
<path d="M92.4026 37.9612L97.2994 38.0601L97.3843 43.4534C95.5964 43.6157 94.1214 43.8097 92.3202 43.6905L92.4026 37.9612Z" fill="#EFBF7A"/>
<path d="M87.2149 38.2376C89.5557 38.1926 89.9877 37.7527 91.5153 38.9235C91.6559 40.6965 91.6869 41.416 91.5323 43.1846C90.2885 43.1231 89.1276 42.9767 87.8907 42.8347C86.5823 41.0382 87.0693 41.0465 87.2149 38.2376Z" fill="#8E5334"/>
<path d="M81.4846 27.3572C84.8412 27.3775 88.1972 27.3623 91.5532 27.3122C91.6647 30.1248 92.16 30.2117 90.8388 32.0075C87.9547 33.1017 85.3878 32.0101 82.0552 32.348C81.7481 31.4161 81.5802 28.4849 81.4846 27.3572Z" fill="#582C1C"/>
<path d="M92.2581 37.3628C92.3303 36.0766 92.4804 34.8703 92.6286 33.5917C94.3785 32.3106 94.5774 32.8082 97.2317 32.9812L97.4666 33.3654L97.2994 38.0601L92.4026 37.9612L92.2581 37.3628Z" fill="#3A1E16"/>
<path d="M108.353 27.387C112.758 27.3388 123.772 26.9249 127.661 27.3249L128.172 27.4814C131.921 28.6016 133.496 27.7584 136.702 28.7328C135.963 29.7236 133.639 29.9473 132.397 30.1299C131.893 30.2041 131.388 30.2751 130.883 30.3423C125.558 30.2801 127.291 31.0275 123.18 32.7131C121.903 33.2367 115.635 32.27 114.006 33.534L113.801 38.0614L113.919 43.5295C113.927 46.6984 114.214 51.2321 113.207 54.0993L113.103 54.4479L108.619 54.5278L108.275 51.9846L107.942 50.0581C106.429 48.924 105.964 49.3285 103.71 49.3158L103.967 48.9076L102.92 47.6702L102.653 47.7158L101.755 48.86C100.579 48.751 98.6275 48.7922 97.3824 48.7763C97.4812 47.0502 97.4096 45.1922 97.3843 43.4534L97.2994 38.0601L97.4666 33.3654C98.8118 32.8627 101.127 32.8969 102.643 32.8342C104.179 32.9045 106.769 32.9476 108.208 33.1162L108.502 32.9248C108.353 31.7216 108.376 28.7353 108.353 27.387Z" fill="#814A32"/>
<path d="M102.643 32.8342C104.179 32.9045 106.769 32.9476 108.208 33.1162L108.261 38.2585L108.192 43.7539C105.641 43.7843 104.851 43.3057 103.269 44.6388L102.92 47.6702L102.653 47.7158L101.755 48.86C100.579 48.751 98.6275 48.7922 97.3824 48.7763C97.4812 47.0502 97.4096 45.1922 97.3843 43.4534L97.2994 38.0601L97.4666 33.3654C98.8118 32.8627 101.127 32.8969 102.643 32.8342Z" fill="#764530"/>
<path d="M102.643 32.8342C104.179 32.9045 106.769 32.9476 108.208 33.1162L108.261 38.2585C106.26 38.2211 104.512 37.8826 102.552 37.5568L102.643 32.8342Z" fill="#A2714E"/>
<path d="M97.4666 33.3654C98.8118 32.8627 101.127 32.8969 102.643 32.8342L102.552 37.5568L100.65 38.1393L98.4584 38.3669C97.4007 40.1698 97.8093 40.8778 97.8403 43.2531L97.3843 43.4534L97.2994 38.0601L97.4666 33.3654Z" fill="#CB8B5F"/>
<path d="M97.8403 43.2531C99.518 43.5441 100.466 43.7101 102.081 44.2376C102.715 45.738 102.63 46.0448 102.653 47.7158L101.755 48.86C100.579 48.751 98.6275 48.7922 97.3824 48.7763C97.4812 47.0502 97.4096 45.1922 97.3843 43.4534L97.8403 43.2531Z" fill="#CB8B5F"/>
<path d="M97.8403 43.2531C97.8093 40.8778 97.4007 40.1698 98.4584 38.3669L100.65 38.1393C101.906 39.4921 101.973 39.7133 102.365 41.5257C101.015 43.7235 100.367 43.397 97.8403 43.2531Z" fill="#713F28"/>
<path d="M108.192 43.7539L113.267 43.8261L113.239 48.8543L113.207 54.0993L113.103 54.4479L108.619 54.5278L108.275 51.9846L107.942 50.0581C106.429 48.924 105.964 49.3285 103.71 49.3158L103.967 48.9076L102.92 47.6702L103.269 44.6388C104.851 43.3057 105.641 43.7843 108.192 43.7539Z" fill="#582C1C"/>
<path d="M108.275 51.9846L108.753 50.0461C110.324 48.5988 110.659 49.0426 113.239 48.8543L113.207 54.0993L113.103 54.4479L108.619 54.5278L108.275 51.9846Z" fill="#59321E"/>
<path d="M108.192 43.7539C108.103 46.1165 108.528 47.1085 107.26 48.5373L103.967 48.9076L102.92 47.6702L103.269 44.6388C104.851 43.3057 105.641 43.7843 108.192 43.7539Z" fill="#3A1E16"/>
<path d="M108.502 32.9248C111.281 32.888 111.162 32.4145 112.857 33.7971C114.033 36.346 113.186 40.6743 113.267 43.8261L108.192 43.7539L108.261 38.2585L108.208 33.1162L108.502 32.9248Z" fill="#341D1A"/>
<path d="M48.1183 20.2162C50.556 22.3347 52.4161 20.9585 54.6809 21.9284L59.1712 22.1839L59.2801 27.1512L58.94 27.3249C59.6816 29.8168 59.6151 30.3283 59.5195 32.8804L48.7346 32.9121C43.2721 32.8323 14.493 33.4319 11.4208 32.3651C11.3074 31.2449 11.4011 31.1239 11.6532 30.0557C14.7394 28.5458 17.6705 30.7581 21.0151 29.5562L21.1639 28.9775C21.2507 28.6434 21.751 26.9737 21.8131 26.9553C26.9671 25.4073 38.5392 29.0801 42.8307 26.5635L43.2081 22.5965C44.7877 20.9363 44.7908 21.7984 47.9138 21.3908L48.1183 20.2162Z" fill="#814A32"/>
<path d="M55.4314 27.2386L58.94 27.3249C59.6816 29.8168 59.6151 30.3283 59.5195 32.8804L48.7346 32.9121C48.6339 31.6335 48.7346 30.3264 48.796 29.0409C50.252 27.4028 52.5409 27.6355 55.0672 27.3775L55.4314 27.2386Z" fill="#3A1E16"/>
<path d="M54.6809 21.9284L59.1712 22.1839L59.2801 27.1512L58.94 27.3249L55.4314 27.2386L55.0672 27.3775C53.7195 26.6085 50.2336 26.6142 48.5072 26.5141C49.2792 25.4472 49.2317 23.993 48.3913 22.9788C50.4357 22.4159 52.5713 22.2086 54.6809 21.9284Z" fill="#EBAF7E"/>
<path d="M54.6809 21.9284L59.1712 22.1839L59.2801 27.1512L58.94 27.3249L55.4314 27.2386L54.6809 21.9284Z" fill="#D79868"/>
<path d="M48.5072 26.5141C47.7846 27.5138 46.5065 27.9429 45.3279 27.5816C44.1486 27.2209 43.3291 26.1496 43.2892 24.916C43.2487 23.683 43.996 22.5604 45.1486 22.1224C46.3013 21.685 47.6047 22.0292 48.3913 22.9788C49.2317 23.993 49.2792 25.4472 48.5072 26.5141Z" fill="#3A1E16"/>
<path d="M75.354 22.1046L75.8492 22.0869C75.7973 23.3902 75.798 26.0665 75.418 27.1854L75.67 27.3096L75.7365 27.7489C72.9182 27.8814 72.2924 27.4066 70.4875 28.8317C70.3285 30.1375 70.2006 31.153 70.1639 32.4671L70.2671 33.0351L70.4577 38.1558L65.5336 38.1013L60.1649 38.2097C59.3719 36.4506 59.5404 34.8398 59.5195 32.8804C59.6151 30.3283 59.6816 29.8168 58.94 27.3249L59.2801 27.1512L59.1712 22.1839L64.3778 22.1617C66.1105 22.1845 68.514 22.1496 70.1784 22.291C71.8719 22.303 73.7061 22.4007 75.354 22.1046Z" fill="#B57A54"/>
<path d="M59.5195 32.8804L65.6128 32.9172L70.2671 33.0351L70.4577 38.1558L65.5336 38.1013L60.1649 38.2097C59.3719 36.4506 59.5404 34.8398 59.5195 32.8804Z" fill="#3A1E16"/>
<path d="M65.6128 32.9172L70.2671 33.0351L70.4577 38.1558L65.5336 38.1013L65.6128 32.9172Z" fill="#59321E"/>
<path d="M64.3778 22.1617C66.1105 22.1845 68.514 22.1496 70.1784 22.291L70.1581 27.1727C68.4469 27.219 66.0326 27.373 64.3904 27.1702L60.2142 27.4307L59.2801 27.1512L59.1712 22.1839L64.3778 22.1617Z" fill="#D79868"/>
<path d="M59.1712 22.1839L64.3778 22.1617L64.3904 27.1702L60.2142 27.4307L59.2801 27.1512L59.1712 22.1839Z" fill="#EBAF7E"/>
<path d="M59.2801 27.1512L60.2142 27.4307C62.0484 27.664 62.778 27.6684 64.5114 28.412C65.1992 29.6881 65.9149 30.9495 66.6577 32.1952C67.9168 32.334 68.8972 32.4513 70.1639 32.4671L70.2671 33.0351L65.6128 32.9172L59.5195 32.8804C59.6151 30.3283 59.6816 29.8168 58.94 27.3249L59.2801 27.1512Z" fill="#8E5334"/>
<path d="M75.354 22.1046L75.8492 22.0869C75.7973 23.3902 75.798 26.0665 75.418 27.1854L70.1581 27.1727L70.1784 22.291C71.8719 22.303 73.7061 22.4007 75.354 22.1046Z" fill="#582C1C"/>
<path d="M48.1183 20.2162C48.7003 18.2162 48.4749 17.6337 49.8974 16.6264C55.249 16.381 64.3784 16.0749 69.5844 16.8749C72.5844 19.9569 67.3113 21.0181 75.354 22.1046C73.7061 22.4007 71.8719 22.303 70.1784 22.291C68.514 22.1496 66.1105 22.1845 64.3778 22.1617L59.1712 22.1839L54.6809 21.9284C52.4161 20.9585 50.556 22.3347 48.1183 20.2162Z" fill="#582C1C"/>
<path d="M40.5906 11.2629C45.6427 10.4781 137.365 10.3722 140.503 11.2857C138.097 11.7085 130.744 11.4194 127.343 11.6464C125.379 13.5614 127.711 14.0426 125.93 16.4977L123.537 16.4837C121.152 14.2904 123.479 14.4831 121.916 11.7725C119.5 11.1152 106.978 11.4765 103.462 11.4885L64.2897 11.6115C57.3725 11.6248 47.2621 11.8949 40.5906 11.2629Z" fill="#B57A54"/>
<path d="M97.5185 27.323L108.353 27.387C108.376 28.7353 108.353 31.7216 108.502 32.9248L108.208 33.1162C106.769 32.9476 104.179 32.9045 102.643 32.8342C101.127 32.8969 98.8118 32.8627 97.4666 33.3654L97.2317 32.9812L97.5185 27.323Z" fill="#3A1E16"/>
<path d="M127.661 27.3249C139.713 26.4589 136.164 30.4862 146.304 29.6462L146.09 32.9311C137.043 33.8269 138.129 29.5461 130.883 30.3423C131.388 30.2751 131.893 30.2041 132.397 30.1299C133.639 29.9473 135.963 29.7236 136.702 28.7328C133.496 27.7584 131.921 28.6016 128.172 27.4814L127.661 27.3249Z" fill="#713F28"/>
<path d="M75.8492 22.0869C77.8822 21.8986 79.3306 21.484 80.9475 22.5604C81.7012 24.3607 81.5391 25.444 81.4846 27.3572C79.9184 27.1981 77.3223 27.2982 75.67 27.3096L75.418 27.1854C75.798 26.0665 75.7973 23.3902 75.8492 22.0869Z" fill="#713F28"/>
<path d="M35.7887 11.1564L39.6938 11.5564L40.6197 14.6359C40.7027 15.0422 40.4246 15.4904 40.2321 16.0115C38.2251 16.8349 39.0896 16.6714 36.6728 16.3101C34.8463 14.9174 35.4258 15.6628 34.5961 13.3326L35.7887 11.1564Z" fill="#B57A54"/>
<path d="M35.7887 11.1564L39.6938 11.5564L40.6197 14.6359C38.201 13.4777 37.2542 13.519 34.5961 13.3326L35.7887 11.1564Z" fill="#A2714E"/>
<path d="M38.0231 59.277C39.5918 59.4323 41.9326 59.7392 43.4437 59.7297L43.5603 65.2199L48.3045 65.3131C48.4844 66.768 48.5205 68.7521 49.3882 69.8126C51.176 69.9318 52.5896 69.8912 54.2483 70.5575L59.5221 70.7711C60.65 70.6887 63.4557 70.4085 64.4354 70.4979C65.7033 70.2481 68.68 70.3299 70.1012 70.3267L72.2874 70.5701L75.4224 69.9457L75.8372 69.9413C76.9063 70.38 78.242 70.4706 79.4142 70.617C81.2338 69.708 80.6176 70.295 81.5739 68.0275L81.4998 70.4934L81.4681 76.0338L81.3206 81.249L81.4719 81.6864L82.7563 80.9777L86.5234 81.1241C90.172 81.5127 93.7832 81.2363 97.4476 81.067L97.5388 76.023L107.848 75.9622L113.428 76.0718L113.757 76.0414L118.974 76.1428L118.965 81.8303L118.905 84.5282C118.926 86.492 118.824 90.8242 119.325 92.4863L118.967 92.5966C118.978 95.4365 118.476 95.8118 119.855 97.6273C121.519 97.891 122.272 97.9607 123.956 97.9747C125.913 98.0095 127.776 97.7414 129.716 97.5125L129.797 98.0184C129.751 100.602 129.432 106.273 130.061 108.494L134.941 108.376C135.257 110.32 135.434 111.277 135.409 113.301L136.25 113.581C139.088 113.788 138.77 113.296 140.341 114.901C141.473 117.838 140.867 121.593 140.869 124.825C140.799 127.907 140.535 132.816 140.723 135.757L141.092 135.361C143.796 135.696 144.007 135.212 145.359 136.868L146.223 137.2C146.273 139.775 146.786 140.38 145.444 141.887C144.157 142.032 142.218 142.116 141.147 142.699L140.274 140.965L134.601 140.375L131.468 140.84C120.686 140.687 97.2253 142.687 87.7266 141.081L86.752 140.55L86.6031 136.927L86.4397 136.326C84.7532 135.276 83.5872 135.618 81.3389 135.542L80.3509 135.656C73.3552 133.887 79.8373 131.368 71.8301 129.891L70.2152 129.794C66.6647 130.293 57.0299 129.985 53.0006 129.949C52.5041 132.878 52.9373 133.1 51.2824 135.055L49.606 135.684L49.7935 138.155C47.4786 137.179 38.068 137.641 35.0933 137.707C33.1129 138.403 15.9117 140.43 14.4474 141.408C12.992 141.948 12.201 141.923 10.6393 142.052L10.6874 128.938L10.726 108.642C10.6494 105.118 10.6513 101.592 10.7317 98.0678L10.7494 92.8888C11.3074 90.3861 11.1453 79.2407 11.1801 76.0129C14.576 76.2259 25.0386 74.9219 26.3984 71.63C28.8075 69.7575 34.6747 70.7039 37.9103 70.9365L38.0769 67.5527L38.1136 64.9676C37.9851 63.4076 38.0357 60.9182 38.0231 59.277Z" fill="#341D1A"/>
<path d="M38.0231 59.277C39.5918 59.4323 41.9326 59.7392 43.4437 59.7297L43.5603 65.2199L48.3045 65.3131C48.4844 66.768 48.5205 68.7521 49.3882 69.8126C51.176 69.9318 52.5896 69.8912 54.2483 70.5575L59.5221 70.7711C60.65 70.6887 63.4557 70.4085 64.4354 70.4979C65.7033 70.2481 68.68 70.3299 70.1012 70.3267L72.2874 70.5701L75.4224 69.9457L75.8372 69.9413C76.9063 70.38 78.242 70.4706 79.4142 70.617C81.2338 69.708 80.6176 70.295 81.5739 68.0275L81.4998 70.4934L81.4681 76.0338L81.3206 81.249L75.8625 81.2344C74.1139 81.2458 71.8491 81.0689 70.3228 81.7276L70.3912 86.9003C68.9117 86.9852 66.4912 87.0372 65.1251 87.3174L64.9433 91.9677C63.2948 92.0558 60.6259 91.917 59.5049 92.892L59.5328 97.5626L59.9039 97.7262L64.8021 97.6793L65.0624 98.1528L65.077 102.89C63.3885 103.063 61.8552 103.265 60.1535 103.241L60.1674 107.62C59.8742 109.603 59.4264 110.899 60.3701 112.583C61.9698 113.652 63.1801 113.626 65.096 113.875L64.9364 119.053L64.6127 119.207C65.0206 129.985 70.2905 120.141 70.2152 129.794C66.6647 130.293 57.0299 129.985 53.0006 129.949C52.5041 132.878 52.9373 133.1 51.2824 135.055L49.606 135.684L49.7935 138.155C47.4786 137.179 38.068 137.641 35.0933 137.707C33.1129 138.403 15.9117 140.43 14.4474 141.408C12.992 141.948 12.201 141.923 10.6393 142.052L10.6874 128.938L10.726 108.642C10.6494 105.118 10.6513 101.592 10.7317 98.0678L10.7494 92.8888C11.3074 90.3861 11.1453 79.2407 11.1801 76.0129C14.576 76.2259 25.0386 74.9219 26.3984 71.63C28.8075 69.7575 34.6747 70.7039 37.9103 70.9365L38.0769 67.5527L38.1136 64.9676C37.9851 63.4076 38.0357 60.9182 38.0231 59.277Z" fill="#9E613D"/>
<path d="M59.3371 92.421L59.5049 92.892L59.5328 97.5626L59.9039 97.7262L64.8021 97.6793L65.0624 98.1528L65.077 102.89C63.3885 103.063 61.8552 103.265 60.1535 103.241L60.1674 107.62C59.8742 109.603 59.4264 110.899 60.3701 112.583C61.9698 113.652 63.1801 113.626 65.096 113.875L64.9364 119.053L64.6127 119.207C65.0206 129.985 70.2905 120.141 70.2152 129.794C66.6647 130.293 57.0299 129.985 53.0006 129.949C49.8384 129.983 46.5939 129.888 43.426 129.834L43.5254 124.499L43.5001 119.155L43.5166 114.51L43.2835 114.098L43.5944 113.542L43.5153 108.516L43.281 103.149L43.6128 98.0114L46.1993 97.7445L47.7605 97.5677C49.1431 96.2194 48.6826 95.5835 48.7852 93.105L49.2051 93.0796C50.3945 92.6004 52.8924 92.5186 54.2749 92.4077L59.3371 92.421Z" fill="#4A3430"/>
<path d="M49.0037 119.477L54.318 119.069C57.724 119.159 61.2143 119.301 64.6127 119.207C65.0206 129.985 70.2905 120.141 70.2152 129.794C66.6647 130.293 57.0299 129.985 53.0006 129.949C49.8384 129.983 46.5939 129.888 43.426 129.834L43.5254 124.499L43.5001 119.155L45.122 119.452C46.105 119.474 48.1202 119.581 49.0037 119.477Z" fill="#814A32"/>
<path d="M59.3371 92.421L59.5049 92.892L59.5328 97.5626L54.2761 97.936L54.3237 102.838L54.2293 103.306C53.9411 105.841 54.3357 106.726 52.848 108.146C51.7897 108.31 49.6086 108.579 48.6877 108.879L48.5484 108.475C47.0923 108.403 45.0251 108.497 43.5153 108.516L43.281 103.149L43.6128 98.0114L46.1993 97.7445L47.7605 97.5677C49.1431 96.2194 48.6826 95.5835 48.7852 93.105L49.2051 93.0796C50.3945 92.6004 52.8924 92.5186 54.2749 92.4077L59.3371 92.421Z" fill="#A2714E"/>
<path d="M48.8834 102.981L54.3237 102.838L54.2293 103.306C53.9411 105.841 54.3357 106.726 52.848 108.146C51.7897 108.31 49.6086 108.579 48.6877 108.879L48.5484 108.475L48.8834 102.981Z" fill="#744D3F"/>
<path d="M59.3371 92.421L59.5049 92.892L59.5328 97.5626L54.2761 97.936L54.102 97.4206L54.2749 92.4077L59.3371 92.421Z" fill="#A2714E"/>
<path d="M43.281 103.149C45.0549 103.117 47.1424 103.135 48.8834 102.981L48.5484 108.475C47.0923 108.403 45.0251 108.497 43.5153 108.516L43.281 103.149Z" fill="#A2714E"/>
<path d="M49.2051 93.0796C50.3945 92.6004 52.8924 92.5186 54.2749 92.4077L54.102 97.4206C52.9626 97.4289 51.6099 97.3458 50.4509 97.3071C49.1222 95.9297 49.4781 95.3649 49.2051 93.0796Z" fill="#B57A54"/>
<path d="M54.2293 103.306L58.769 103.402C59.8906 104.874 59.7241 105.671 59.7 107.519L59.1547 108.417C57.6955 108.512 56.2357 108.598 54.7752 108.675C52.3395 112.899 56.7987 114.237 48.7029 113.499L48.6877 108.879C49.6086 108.579 51.7897 108.31 52.848 108.146C54.3357 106.726 53.9411 105.841 54.2293 103.306Z" fill="#341D1A"/>
<path d="M54.2749 114.107C57.8817 114.011 61.4885 113.933 65.096 113.875L64.9364 119.053L64.6127 119.207C61.2143 119.301 57.724 119.159 54.318 119.069L54.2749 114.107Z" fill="#341D1A"/>
<path d="M64.8021 97.6793L65.0624 98.1528L65.077 102.89C63.3885 103.063 61.8552 103.265 60.1535 103.241L59.7431 102.55C59.3548 100.397 59.1819 99.8872 59.9039 97.7262L64.8021 97.6793Z" fill="#341D1A"/>
<path d="M43.5153 108.516C45.0251 108.497 47.0923 108.403 48.5484 108.475L48.6877 108.879L48.7029 113.499L43.5944 113.542L43.5153 108.516Z" fill="#814A32"/>
<path d="M59.5328 97.5626L59.9039 97.7262C59.1819 99.8872 59.3548 100.397 59.7431 102.55L54.3237 102.838L54.2761 97.936L59.5328 97.5626Z" fill="#764530"/>
<path d="M43.5166 114.51C46.3488 114.014 45.794 113.689 48.1304 114.661C49.1671 116.705 49.0651 115.781 48.402 118.139C46.946 119.503 47.4388 119.078 45.122 119.452L43.5001 119.155L43.5166 114.51Z" fill="#341D1A"/>
<path d="M49.0037 119.477C49.0981 118.074 49.2013 116.671 49.314 115.268C51.0398 113.708 51.3002 114.233 54.2749 114.107L54.318 119.069L49.0037 119.477Z" fill="#744D3F"/>
<path d="M75.8372 69.9413C76.9063 70.38 78.242 70.4706 79.4142 70.617C81.2338 69.708 80.6176 70.295 81.5739 68.0275L81.4998 70.4934L81.4681 76.0338L81.3206 81.249L75.8625 81.2344C74.1139 81.2458 71.8491 81.0689 70.3228 81.7276L70.3912 86.9003C68.9117 86.9852 66.4912 87.0372 65.1251 87.3174L64.9433 91.9677C63.2948 92.0558 60.6259 91.917 59.5049 92.892L59.3371 92.421L54.2749 92.4077C52.8924 92.5186 50.3945 92.6004 49.2051 93.0796L48.7852 93.105L45.9941 92.3417L46.048 92.1509C45.3589 91.988 44.5495 91.6907 43.8636 91.4644L43.3113 89.4968L43.7591 86.7824L43.5742 86.2004L43.5355 81.6794L48.0778 81.5824C49.074 79.9945 48.4679 77.7948 48.1101 76.0693C47.8967 75.5013 47.5369 73.8462 47.3735 73.1704C48.0639 71.102 47.5496 71.8443 49.587 70.4548L49.3882 69.8126C51.176 69.9318 52.5896 69.8912 54.2483 70.5575L59.5221 70.7711C60.65 70.6887 63.4557 70.4085 64.4354 70.4979C65.7033 70.2481 68.68 70.3299 70.1012 70.3267L72.2874 70.5701L75.4224 69.9457L75.8372 69.9413Z" fill="#59321E"/>
<path d="M75.8372 69.9413C76.9063 70.38 78.242 70.4706 79.4142 70.617C81.2338 69.708 80.6176 70.295 81.5739 68.0275L81.4998 70.4934L81.4681 76.0338L81.3206 81.249L75.8625 81.2344C74.1139 81.2458 71.8491 81.0689 70.3228 81.7276L70.1676 81.2984C67.5115 81.5323 67.1688 82.0566 65.3873 80.8204L64.9509 78.3805L65.0339 76.6329L64.899 76.127L64.3087 76.0452L59.7962 76.2069C59.6069 74.8287 59.5822 72.2741 59.5221 70.7711C60.65 70.6887 63.4557 70.4085 64.4354 70.4979C65.7033 70.2481 68.68 70.3299 70.1012 70.3267L72.2874 70.5701L75.4224 69.9457L75.8372 69.9413Z" fill="#764530"/>
<path d="M75.8372 69.9413C76.9063 70.38 78.242 70.4706 79.4142 70.617C81.2338 69.708 80.6176 70.295 81.5739 68.0275L81.4998 70.4934L81.4681 76.0338L81.3206 81.249L75.8625 81.2344L75.8093 76.1282L75.4211 76.0072C75.7587 74.9758 75.6865 73.573 75.6979 72.4459C74.1956 70.773 74.7612 71.263 72.0835 70.9112L72.2874 70.5701L75.4224 69.9457L75.8372 69.9413Z" fill="#744D3F"/>
<path d="M75.8093 76.1282L81.4681 76.0338L81.3206 81.249L75.8625 81.2344L75.8093 76.1282Z" fill="#3A1E16"/>
<path d="M59.5221 70.7711C60.65 70.6887 63.4557 70.4085 64.4354 70.4979L64.3087 76.0452L59.7962 76.2069C59.6069 74.8287 59.5822 72.2741 59.5221 70.7711Z" fill="#A2714E"/>
<path d="M64.899 76.127C65.0016 73.2446 64.4949 72.8129 65.9731 71.0766C67.5906 70.9112 68.597 70.8402 70.2215 70.8592C70.11 73.4189 70.5286 73.9869 69.2246 75.7682C67.6242 75.9742 66.5115 76.0744 64.899 76.127Z" fill="#3A1E16"/>
<path d="M65.0339 76.6329C67.8541 76.5593 67.9966 76.0864 69.9764 77.3511C70.3311 79.1412 70.3196 79.4747 70.1676 81.2984C67.5115 81.5323 67.1688 82.0566 65.3873 80.8204L64.9509 78.3805L65.0339 76.6329Z" fill="#B57A54"/>
<path d="M72.0835 70.9112C74.7612 71.263 74.1956 70.773 75.6979 72.4459C75.6865 73.573 75.7587 74.9758 75.4211 76.0072L72.3406 75.9945C70.5198 74.8516 71.0055 75.4855 70.3032 73.6826C70.7123 72.0985 70.8358 72.0636 72.0835 70.9112Z" fill="#9E613D"/>
<path d="M43.5355 81.6794L48.0778 81.5824C49.0727 83.7193 49.0157 84.4642 49.131 86.7418C51.8467 86.9415 52.3166 86.4559 53.7866 88.021L53.7803 91.7649L54.2705 91.8359L54.2749 92.4077C52.8924 92.5186 50.3945 92.6004 49.2051 93.0796L48.7852 93.105L45.9941 92.3417L46.048 92.1509C45.3589 91.988 44.5495 91.6907 43.8636 91.4644L43.3113 89.4968L43.7591 86.7824L43.5742 86.2004L43.5355 81.6794Z" fill="#764530"/>
<path d="M43.7591 86.7824C46.4425 86.9022 48.0011 86.376 49.0107 89.4701C48.4514 91.3148 48.2013 91.8638 46.048 92.1509C45.3589 91.988 44.5495 91.6907 43.8636 91.4644L43.3113 89.4968L43.7591 86.7824Z" fill="#B57A54"/>
<path d="M49.131 86.7418C51.8467 86.9415 52.3166 86.4559 53.7866 88.021L53.7803 91.7649C52.3641 91.9139 51.5934 91.8308 50.1652 91.7376C48.7972 90.1598 49.2437 89.2926 49.131 86.7418Z" fill="#341D1A"/>
<path d="M49.3882 69.8126C51.176 69.9318 52.5896 69.8912 54.2483 70.5575L59.5221 70.7711C59.5822 72.2741 59.6069 74.8287 59.7962 76.2069L59.5379 76.4611C57.3256 75.8607 56.0368 76.5701 53.855 75.0918L53.4313 75.7732L50.9284 76.1175L48.1101 76.0693C47.8967 75.5013 47.5369 73.8462 47.3735 73.1704C48.0639 71.102 47.5496 71.8443 49.587 70.4548L49.3882 69.8126Z" fill="#764530"/>
<path d="M49.587 70.4548C52.2242 71.2053 52.328 70.7489 53.6188 72.5245L53.855 75.0918L53.4313 75.7732L50.9284 76.1175L48.1101 76.0693C47.8967 75.5013 47.5369 73.8462 47.3735 73.1704C48.0639 71.102 47.5496 71.8443 49.587 70.4548Z" fill="#744D3F"/>
<path d="M64.3087 76.0452L64.899 76.127L65.0339 76.6329L64.9509 78.3805L65.3873 80.8204C67.1688 82.0566 67.5115 81.5323 70.1676 81.2984L70.3228 81.7276L70.3912 86.9003C68.9117 86.9852 66.4912 87.0372 65.1251 87.3174L64.9281 86.9713C64.9446 85.493 64.9022 84.1339 64.8502 82.6613C63.4126 81.3726 62.6107 81.8226 60.2028 81.7662L59.5366 81.7345L59.6842 81.1767L59.5379 76.4611L59.7962 76.2069L64.3087 76.0452Z" fill="#92593B"/>
<path d="M64.3087 76.0452L64.899 76.127L65.0339 76.6329L64.9509 78.3805C64.0092 81.9133 63.1782 81.3212 59.6842 81.1767L59.5379 76.4611L59.7962 76.2069L64.3087 76.0452Z" fill="#3A1E16"/>
<path d="M60.2028 81.7662C62.6107 81.8226 63.4126 81.3726 64.8502 82.6613C64.9022 84.1339 64.9446 85.493 64.9281 86.9713L65.1251 87.3174L64.9433 91.9677C63.2948 92.0558 60.6259 91.917 59.5049 92.892L59.3371 92.421C59.5043 90.7215 59.4163 88.5725 59.4023 86.8318L59.5366 81.7345L60.2028 81.7662Z" fill="#92593B"/>
<path d="M60.2028 81.7662C62.6107 81.8226 63.4126 81.3726 64.8502 82.6613C64.9022 84.1339 64.9446 85.493 64.9281 86.9713C63.2017 87.1589 62.6817 87.0866 60.9502 86.8794C59.5569 85.022 60.099 84.7145 60.2028 81.7662Z" fill="#B57A54"/>
<path d="M53.855 75.0918C56.0368 76.5701 57.3256 75.8607 59.5379 76.4611L59.6842 81.1767C57.6683 81.0163 55.2097 81.1089 53.1451 81.1304C53.1356 79.5539 53.3338 77.3967 53.4313 75.7732L53.855 75.0918Z" fill="#643A2E"/>
<path d="M59.4023 86.8318C59.4163 88.5725 59.5043 90.7215 59.3371 92.421L54.2749 92.4077L54.2705 91.8359L54.3731 86.9091L59.4023 86.8318Z" fill="#C5865B"/>
<path d="M54.3731 86.9091C54.2033 84.9973 54.0691 84.3171 54.5219 82.4204C56.5162 81.1843 56.7366 81.6559 59.5366 81.7345L59.4023 86.8318L54.3731 86.9091Z" fill="#341D1A"/>
<path d="M50.9284 76.1175L53.4313 75.7732C53.3338 77.3967 53.1356 79.5539 53.1451 81.1304C50.6953 81.1171 50.5984 80.991 49.3793 79.185C49.7105 76.9251 49.302 77.7409 50.9284 76.1175Z" fill="#582C1C"/>
<path d="M32.686 124.844L37.4822 124.712C37.9439 127.044 38.0224 127.503 37.9464 129.914L43.426 129.834C46.5939 129.888 49.8384 129.983 53.0006 129.949C52.5041 132.878 52.9373 133.1 51.2824 135.055L49.606 135.684L49.7935 138.155C47.4786 137.179 38.068 137.641 35.0933 137.707C33.1129 138.403 15.9117 140.43 14.4474 141.408C12.992 141.948 12.201 141.923 10.6393 142.052L10.6874 128.938L11.0249 128.713L11.277 129.885L15.2606 130.196C17.3867 130.406 19.4108 130.276 21.5439 130.198C21.7465 131.574 22.1082 134.625 22.751 135.679L23.8365 135.699L27.2109 135.631L27.1387 130.033L32.7044 129.947L32.686 124.844Z" fill="#B57A54"/>
<path d="M32.686 124.844L37.4822 124.712C37.9439 127.044 38.0224 127.503 37.9464 129.914L37.7507 135.64L32.4517 135.652L27.2109 135.631L27.1387 130.033L32.7044 129.947L32.686 124.844Z" fill="#59321E"/>
<path d="M27.1387 130.033L32.7044 129.947L32.4517 135.652L27.2109 135.631L27.1387 130.033Z" fill="#341D1A"/>
<path d="M32.686 124.844L37.4822 124.712C37.9439 127.044 38.0224 127.503 37.9464 129.914L32.7044 129.947L32.686 124.844Z" fill="#341D1A"/>
<path d="M11.277 129.885L15.2606 130.196C17.3867 130.406 19.4108 130.276 21.5439 130.198C21.7465 131.574 22.1082 134.625 22.751 135.679L22.2196 137.495C20.046 138.542 13.9173 137.701 11.1883 137.454L11.277 129.885Z" fill="#9E613D"/>
<path d="M43.426 129.834C46.5939 129.888 49.8384 129.983 53.0006 129.949C52.5041 132.878 52.9373 133.1 51.2824 135.055L49.606 135.684L37.7507 135.64L37.9464 129.914L43.426 129.834Z" fill="#8E5334"/>
<path d="M32.4517 135.652L37.7507 135.64L49.606 135.684L49.7935 138.155C47.4786 137.179 38.068 137.641 35.0933 137.707C31.5492 137.211 28.1533 138.206 23.8232 137.103L23.8365 135.699L27.2109 135.631L32.4517 135.652Z" fill="#B57A54"/>
<path d="M38.0231 59.277C39.5918 59.4323 41.9326 59.7392 43.4437 59.7297L43.5603 65.2199L48.3045 65.3131C48.4844 66.768 48.5205 68.7521 49.3882 69.8126L49.587 70.4548C47.5496 71.8443 48.0639 71.102 47.3735 73.1704C47.5369 73.8462 47.8967 75.5013 48.1101 76.0693C48.4679 77.7948 49.074 79.9945 48.0778 81.5824L43.5355 81.6794L43.5742 86.2004L43.7591 86.7824L39.1187 86.8274L38.1839 86.5865L32.755 86.8629L32.6493 81.2445C32.2769 76.2157 32.4238 76.9631 36.9616 75.4468C38.3296 73.7131 37.8635 73.6776 37.9103 70.9365L38.0769 67.5527L38.1136 64.9676C37.9851 63.4076 38.0357 60.9182 38.0231 59.277Z" fill="#2C1F1D"/>
<path d="M32.6493 81.2445C34.6639 81.3003 41.5393 81.3643 43.141 81.7003L43.5355 81.6794L43.5742 86.2004L43.7591 86.7824L39.1187 86.8274L38.1839 86.5865L32.755 86.8629L32.6493 81.2445Z" fill="#9C5B46"/>
<path d="M43.141 81.7003L43.5355 81.6794L43.5742 86.2004C40.4696 86.4876 39.7413 86.9858 37.6944 84.5599L37.9711 83.3092C40.0706 81.4873 39.8338 82.0407 43.141 81.7003Z" fill="#A46540"/>
<path d="M43.5603 65.2199L48.3045 65.3131C48.4844 66.768 48.5205 68.7521 49.3882 69.8126L49.587 70.4548C47.5496 71.8443 48.0639 71.102 47.3735 73.1704C47.5369 73.8462 47.8967 75.5013 48.1101 76.0693C46.3881 76.1593 45.8719 76.3317 44.3633 75.637C42.6343 73.1425 43.3791 68.4142 43.5603 65.2199Z" fill="#643A2E"/>
<path d="M27.1944 87.0213C27.0849 84.9947 26.9202 83.9786 27.5333 81.9944C29.5998 80.8046 29.8968 81.2395 32.6493 81.2445L32.755 86.8629L38.1839 86.5865L39.1187 86.8274L43.7591 86.7824L43.3113 89.4968L43.8636 91.4644C44.5495 91.6907 45.3589 91.988 46.048 92.1509L45.9941 92.3417L48.7852 93.105C48.6826 95.5835 49.1431 96.2194 47.7605 97.5677L46.1993 97.7445L43.6128 98.0114C42.3899 97.6964 39.7609 97.7116 38.3891 97.6723C36.6595 97.7033 33.4441 97.2285 32.5118 98.7715C31.6049 97.9645 28.6162 97.9182 27.2153 97.7839L27.1115 91.1627L27.1944 87.0213Z" fill="#341D1A"/>
<path d="M38.1839 86.5865L39.1187 86.8274L43.7591 86.7824L43.3113 89.4968L43.8636 91.4644C44.5495 91.6907 45.3589 91.988 46.048 92.1509L45.9941 92.3417L48.7852 93.105C48.6826 95.5835 49.1431 96.2194 47.7605 97.5677L46.1993 97.7445L43.6128 98.0114C42.3899 97.6964 39.7609 97.7116 38.3891 97.6723L38.1295 93.6374C38.0326 91.6102 38.1586 88.6885 38.1839 86.5865Z" fill="#744D3F"/>
<path d="M38.1839 86.5865L39.1187 86.8274L43.7591 86.7824L43.3113 89.4968L43.8636 91.4644C44.5495 91.6907 45.3589 91.988 46.048 92.1509L45.9941 92.3417C45.0428 92.5877 43.7712 92.8318 42.9592 93.3199C41.4443 92.4432 41.2246 92.4438 39.4709 92.5738L38.1295 93.6374C38.0326 91.6102 38.1586 88.6885 38.1839 86.5865Z" fill="#764530"/>
<path d="M39.1187 86.8274L43.7591 86.7824L43.3113 89.4968C42.9282 89.7129 41.7926 89.9151 41.2948 90.0267C39.6178 88.9573 39.9794 88.885 39.1187 86.8274Z" fill="#713F28"/>
<path d="M45.9941 92.3417L48.7852 93.105C48.6826 95.5835 49.1431 96.2194 47.7605 97.5677L46.1993 97.7445C44.7674 97.723 44.8434 97.7445 43.6407 96.9636L42.9592 93.3199C43.7712 92.8318 45.0428 92.5877 45.9941 92.3417Z" fill="#3A1E16"/>
<path d="M32.755 86.8629L38.1839 86.5865C38.1586 88.6885 38.0326 91.6102 38.1295 93.6374L38.3891 97.6723C36.6595 97.7033 33.4441 97.2285 32.5118 98.7715C31.6049 97.9645 28.6162 97.9182 27.2153 97.7839C29.1096 97.7376 29.8626 97.8669 31.5631 97.001C33.2946 94.4317 32.7531 90.2568 32.755 86.8629Z" fill="#582C1C"/>
<path d="M27.5941 113.508C29.1381 113.445 31.1071 113.526 32.6898 113.543L37.8761 113.524L37.9541 114.108L43.2835 114.098L43.5166 114.51L43.5001 119.155L43.5254 124.499L43.426 129.834L37.9464 129.914C38.0224 127.503 37.9439 127.044 37.4822 124.712L32.686 124.844L32.7044 129.947L27.1387 130.033L27.1109 119.034C27.0203 116.515 26.9728 116.003 27.5941 113.508Z" fill="#814A32"/>
<path d="M37.9541 114.108L43.2835 114.098L43.5166 114.51L43.5001 119.155L43.5254 124.499L43.426 129.834L37.9464 129.914C38.0224 127.503 37.9439 127.044 37.4822 124.712L37.6798 124.25L37.9483 119.666L37.8071 119.297L37.9541 114.108Z" fill="#341D1A"/>
<path d="M37.6798 124.25C39.8312 125.051 41.2416 124.733 43.5254 124.499L43.426 129.834L37.9464 129.914C38.0224 127.503 37.9439 127.044 37.4822 124.712L37.6798 124.25Z" fill="#4A3430"/>
<path d="M37.9541 114.108L43.2835 114.098L43.5166 114.51L43.5001 119.155C41.937 119.201 39.2986 119.126 37.9483 119.666L37.8071 119.297L37.9541 114.108Z" fill="#764530"/>
<path d="M32.5961 119.15C32.629 120.949 32.7189 123.074 32.686 124.844L32.7044 129.947L27.1387 130.033L27.1109 119.034L28.0564 119.236L32.5961 119.15Z" fill="#92593B"/>
<path d="M32.5961 119.15C32.629 120.949 32.7189 123.074 32.686 124.844C31.2395 124.845 30.3763 124.745 28.9354 124.576C27.4895 122.744 28.038 122.199 28.0564 119.236L32.5961 119.15Z" fill="#A2714E"/>
<path d="M27.5941 113.508C30.223 114.008 30.7911 113.613 32.2167 115.284L32.5961 119.15L28.0564 119.236L27.1109 119.034C27.0203 116.515 26.9728 116.003 27.5941 113.508Z" fill="#3A1E16"/>
<path d="M37.8071 119.297C35.8729 119.374 35.0825 119.598 33.4447 118.598C32.332 116.583 32.4067 117.404 32.9305 115.498C34.9711 113.689 34.5797 114.254 37.9541 114.108L37.8071 119.297Z" fill="#B57A54"/>
<path d="M27.1115 91.1627L27.2153 97.7839C21.5439 97.4656 14.1403 100.404 11.391 96.3544C11.258 93.8466 10.9502 94.6866 12.3011 93.0302C15.0092 91.6394 20.0967 91.5868 23.3362 91.3262L27.1115 91.1627Z" fill="#814A32"/>
<path d="M21.3051 125.477C21.2981 123.247 21.1069 121.357 21.8637 119.285L27.1109 119.034L27.1387 130.033L27.2109 135.631L23.8365 135.699L22.751 135.679C22.1082 134.625 21.7465 131.574 21.5439 130.198C21.3925 128.835 21.3684 126.895 21.3051 125.477Z" fill="#3A1E16"/>
<path d="M21.3051 125.477C21.2981 123.247 21.1069 121.357 21.8637 119.285C21.9796 122.297 21.3292 127.303 22.3659 129.244C24.5338 130.47 24.3007 130.058 27.1387 130.033L27.2109 135.631L23.8365 135.699L22.751 135.679C22.1082 134.625 21.7465 131.574 21.5439 130.198C21.3925 128.835 21.3684 126.895 21.3051 125.477Z" fill="#643A2E"/>
<path d="M37.7894 103.575C39.602 103.385 41.4658 103.133 43.281 103.149L43.5153 108.516L43.5944 113.542L43.2835 114.098L37.9541 114.108L37.8761 113.524L37.9281 108.66L37.7894 103.575Z" fill="#B57A54"/>
<path d="M37.7894 103.575C39.602 103.385 41.4658 103.133 43.281 103.149L43.5153 108.516L37.9281 108.66L37.7894 103.575Z" fill="#764530"/>
<path d="M10.7317 98.0678C10.8825 100.325 10.7171 102.854 12.2346 104.412C16.2746 106.866 21.9979 102.766 28.0399 103.327C26.5573 105.977 26.8125 106.099 23.4261 107.046L22.9904 107.164C19.4893 107.352 15.8819 108.426 10.726 108.642C10.6494 105.118 10.6513 101.592 10.7317 98.0678Z" fill="#C5865B"/>
<path d="M38.3891 97.6723C39.7609 97.7116 42.3899 97.6964 43.6128 98.0114L43.281 103.149C41.4658 103.133 39.602 103.385 37.7894 103.575L32.7614 102.678L32.5118 98.7715C33.4441 97.2285 36.6595 97.7033 38.3891 97.6723Z" fill="#2C1F1D"/>
<path d="M32.7614 102.678L37.7894 103.575L37.9281 108.66L37.8761 113.524L32.6898 113.543L32.7614 102.678Z" fill="#3A1E16"/>
<path d="M28.0399 103.327C30.3484 103.315 30.4098 102.91 31.9153 104.137C32.3554 106.254 32.5125 105.422 31.3282 107.237C28.601 109.081 25.9448 108.163 22.9904 107.164L23.4261 107.046C26.8125 106.099 26.5573 105.977 28.0399 103.327Z" fill="#A2714E"/>
<path d="M14.7831 125.936L21.3051 125.477C21.3684 126.895 21.3925 128.835 21.5439 130.198C19.4108 130.276 17.3867 130.406 15.2606 130.196C16.2398 129.685 15.8084 130.058 16.2784 128.724L14.7831 125.936Z" fill="#814A32"/>
<path d="M23.3362 91.3262C22.9891 90.3297 22.6535 89.33 22.3279 88.3265C23.5762 86.8679 24.7257 87.266 27.1944 87.0213L27.1115 91.1627L23.3362 91.3262Z" fill="#92593B"/>
<path d="M11.0249 128.713C11.1813 127.346 11.1433 127.41 11.9147 126.28L14.7831 125.936L16.2784 128.724C15.8084 130.058 16.2398 129.685 15.2606 130.196L11.277 129.885L11.0249 128.713Z" fill="#713F28"/>
<path d="M113.757 76.0414L118.974 76.1428L118.965 81.8303L118.905 84.5282C118.926 86.492 118.824 90.8242 119.325 92.4863L118.967 92.5966C118.978 95.4365 118.476 95.8118 119.855 97.6273C121.519 97.891 122.272 97.9607 123.956 97.9747C125.913 98.0095 127.776 97.7414 129.716 97.5125L129.797 98.0184C129.751 100.602 129.432 106.273 130.061 108.494L129.594 109.145C127.244 109.167 126.83 109.085 124.578 108.56C124.493 111.001 124.909 111.753 123.657 113.389C122.052 113.646 120.94 113.769 119.318 113.871L114.424 114.165C111.309 114.197 99.4895 113.733 97.6648 114.4L97.1341 115.245L97.4742 119.457C96.0708 119.273 93.934 119.34 92.4621 119.339L92.293 119.614C91.1378 119.266 88.3512 119.266 87.0193 119.218C86.6823 116.392 86.2637 116.617 87.3302 114.446L89.638 113.917L89.5551 113.585L86.6963 113.498L86.6399 109.651L86.6253 108.685L81.6157 108.608L75.9101 108.436C72.5553 108.402 69.1993 108.43 65.8452 108.518L65.1023 108.18L65.1682 103.311L65.077 102.89L65.0624 98.1528L64.8021 97.6793L59.9039 97.7262L59.5328 97.5626L59.5049 92.892C60.6259 91.917 63.2948 92.0558 64.9433 91.9677L65.1251 87.3174C66.4912 87.0372 68.9117 86.9852 70.3912 86.9003L70.3228 81.7276C71.8491 81.0689 74.1139 81.2458 75.8625 81.2344L81.3206 81.249L81.4719 81.6864L82.7563 80.9777L86.5234 81.1241C90.172 81.5127 93.7832 81.2363 97.4476 81.067L97.5388 76.023L107.848 75.9622L113.428 76.0718L113.757 76.0414Z" fill="#643A2E"/>
<path d="M75.8625 81.2344L81.3206 81.249L81.4719 81.6864L81.4428 86.8293L86.5829 86.7982L86.5848 92.0603L86.8217 98.1794L87.1396 98.4184C86.5348 100.32 86.4968 100.602 86.5379 102.597L86.1655 102.769C86.8476 104.418 87.2625 107.017 86.6253 108.685L81.6157 108.608L75.9101 108.436C72.5553 108.402 69.1993 108.43 65.8452 108.518L65.1023 108.18L65.1682 103.311L65.077 102.89L65.0624 98.1528L64.8021 97.6793L59.9039 97.7262L59.5328 97.5626L59.5049 92.892C60.6259 91.917 63.2948 92.0558 64.9433 91.9677L65.1251 87.3174C66.4912 87.0372 68.9117 86.9852 70.3912 86.9003L70.3228 81.7276C71.8491 81.0689 74.1139 81.2458 75.8625 81.2344Z" fill="#59321E"/>
<path d="M70.3228 81.7276C71.8491 81.0689 74.1139 81.2458 75.8625 81.2344L75.879 86.97C75.9297 88.8781 76.2083 90.4197 75.2685 91.9969C72.4077 91.9063 73.5503 91.6615 70.9416 93.02C68.9181 96.7271 71.8124 95.7256 69.3259 97.5049C67.6204 97.6805 66.5184 97.6951 64.8021 97.6793L59.9039 97.7262L59.5328 97.5626L59.5049 92.892C60.6259 91.917 63.2948 92.0558 64.9433 91.9677L65.1251 87.3174C66.4912 87.0372 68.9117 86.9852 70.3912 86.9003L70.3228 81.7276Z" fill="#341D1A"/>
<path d="M59.5049 92.892C60.6259 91.917 63.2948 92.0558 64.9433 91.9677L65.0396 92.3684L64.8021 97.6793L59.9039 97.7262L59.5328 97.5626L59.5049 92.892Z" fill="#764530"/>
<path d="M65.1251 87.3174C66.4912 87.0372 68.9117 86.9852 70.3912 86.9003C70.2576 89.8093 70.7668 90.1338 69.2449 91.8409C67.8414 92.0032 66.4399 92.1795 65.0396 92.3684L64.9433 91.9677L65.1251 87.3174Z" fill="#643A2E"/>
<path d="M70.0131 103.278L75.9626 103.372L75.9101 108.436C72.5553 108.402 69.1993 108.43 65.8452 108.518L65.1023 108.18L65.1682 103.311L70.0131 103.278Z" fill="#A2714E"/>
<path d="M75.8625 81.2344L81.3206 81.249L81.4719 81.6864L81.4428 86.8293L81.0286 86.9675L75.879 86.97L75.8625 81.2344Z" fill="#814A32"/>
<path d="M86.1655 102.769C86.8476 104.418 87.2625 107.017 86.6253 108.685L81.6157 108.608L81.5321 106.204C81.4409 102.929 82.2028 103.376 84.9717 102.737L86.1655 102.769Z" fill="#3A1E16"/>
<path d="M75.9626 103.372C78.7645 103.397 79.0811 102.91 80.8994 104.271L81.5321 106.204L81.6157 108.608L75.9101 108.436L75.9626 103.372Z" fill="#764530"/>
<path d="M76.259 102.835C73.1677 102.883 71.6883 103.447 70.4602 100.424L71.2557 99.0403C72.8352 97.6723 74.8448 98.0038 76.9664 98.052C76.8024 99.9271 76.7619 100.989 76.259 102.835Z" fill="#341D1A"/>
<path d="M81.4428 86.8293L86.5829 86.7982L86.5848 92.0603L82.6981 91.8486C81.1236 90.4685 81.4618 89.5094 81.0286 86.9675L81.4428 86.8293Z" fill="#814A32"/>
<path d="M65.0624 98.1528C67.8566 98.2466 68.0821 97.7712 69.8687 99.1753C69.9903 100.703 70.0461 101.746 70.0131 103.278L65.1682 103.311L65.077 102.89L65.0624 98.1528Z" fill="#744D3F"/>
<path d="M86.8217 98.1794L87.1396 98.4184C86.5348 100.32 86.4968 100.602 86.5379 102.597L86.1655 102.769L84.9717 102.737L81.522 102.559L81.4301 98.1972L86.8217 98.1794Z" fill="#744D3F"/>
<path d="M76.9664 98.052L81.4301 98.1972L81.522 102.559L76.259 102.835C76.7619 100.989 76.8024 99.9271 76.9664 98.052Z" fill="#341D1A"/>
<path d="M113.813 92.1414L118.967 92.5966C118.978 95.4365 118.476 95.8118 119.855 97.6273C121.519 97.891 122.272 97.9607 123.956 97.9747C125.913 98.0095 127.776 97.7414 129.716 97.5125L129.797 98.0184C129.751 100.602 129.432 106.273 130.061 108.494L129.594 109.145C127.244 109.167 126.83 109.085 124.578 108.56C124.493 111.001 124.909 111.753 123.657 113.389C122.052 113.646 120.94 113.769 119.318 113.871L114.424 114.165L114.252 113.581L113.152 113.706L113.037 108.323C113.126 106.51 113.411 105.003 113.712 103.228L113.767 102.75L113.973 97.6869L113.813 92.1414Z" fill="#A2714E"/>
<path d="M119.153 102.817C121.74 102.346 121.55 101.953 123.561 102.874C124.19 104.872 124.044 106.217 124.001 108.276L124.578 108.56C124.493 111.001 124.909 111.753 123.657 113.389C122.052 113.646 120.94 113.769 119.318 113.871L114.424 114.165L114.252 113.581L113.152 113.706L113.037 108.323C113.126 106.51 113.411 105.003 113.712 103.228C115.47 103.151 117.444 103.137 119.153 102.817Z" fill="#CB8B5F"/>
<path d="M124.001 108.276L124.578 108.56C124.493 111.001 124.909 111.753 123.657 113.389C122.052 113.646 120.94 113.769 119.318 113.871L114.424 114.165L114.252 113.581C123.831 113.415 114.656 109.058 124.001 108.276Z" fill="#A2714E"/>
<path d="M113.712 103.228C115.47 103.151 117.444 103.137 119.153 102.817C119.005 105.772 119.495 106.241 118.009 108.168C115.903 108.451 115.087 108.415 113.037 108.323C113.126 106.51 113.411 105.003 113.712 103.228Z" fill="#9E613D"/>
<path d="M129.716 97.5125L129.797 98.0184C129.751 100.602 129.432 106.273 130.061 108.494L129.594 109.145C127.244 109.167 126.83 109.085 124.578 108.56C124.624 105.994 124.987 99.9144 123.956 97.9747C125.913 98.0095 127.776 97.7414 129.716 97.5125Z" fill="#3A1E16"/>
<path d="M113.757 76.0414L118.974 76.1428L118.965 81.8303L118.905 84.5282C118.926 86.492 118.824 90.8242 119.325 92.4863L118.967 92.5966L113.813 92.1414C113.818 90.6112 113.599 88.4781 113.489 86.9003L108.642 86.809L108.665 86.3932L108.285 86.2752L108.228 81.5976C106.129 81.1976 99.8752 81.145 97.4476 81.067L97.5388 76.023L107.848 75.9622L113.428 76.0718L113.757 76.0414Z" fill="#341D1A"/>
<path d="M113.898 81.7345L118.965 81.8303L118.905 84.5282C118.926 86.492 118.824 90.8242 119.325 92.4863L118.967 92.5966L113.813 92.1414C113.818 90.6112 113.599 88.4781 113.489 86.9003L108.642 86.809L108.665 86.3932C110.521 86.5643 110.785 86.57 112.583 86.0996C113.99 84.3691 113.58 84.331 113.898 81.7345Z" fill="#59321E"/>
<path d="M113.757 76.0414L118.974 76.1428L118.965 81.8303L113.898 81.7345C113.538 79.8594 113.701 77.9628 113.757 76.0414Z" fill="#8E5334"/>
<path d="M82.7563 80.9777L86.5234 81.1241C90.172 81.5127 93.7832 81.2363 97.4476 81.067C99.8752 81.145 106.129 81.1976 108.228 81.5976L108.285 86.2752C104.01 86.5497 101.647 86.6727 97.3412 86.3906L97.2171 86.8445L86.5829 86.7982L81.4428 86.8293L81.4719 81.6864L82.7563 80.9777Z" fill="#9E613D"/>
<path d="M108.228 81.5976L108.285 86.2752C104.01 86.5497 101.647 86.6727 97.3412 86.3906C97.3951 84.2093 97.0708 84.125 98.1126 82.3754C100.491 81.275 104.643 81.9235 108.228 81.5976Z" fill="#B57A54"/>
<path d="M82.7563 80.9777C85.3232 81.6661 85.296 81.2059 86.6108 82.9307L86.5829 86.7982L81.4428 86.8293L81.4719 81.6864L82.7563 80.9777Z" fill="#B57A54"/>
<path d="M108.285 86.2752L108.665 86.3932L108.642 86.809L113.489 86.9003C113.599 88.4781 113.818 90.6112 113.813 92.1414L113.973 97.6869C110.514 97.6095 106.851 97.6926 103.374 97.7116L103.136 93.9531C101.7 91.9601 101.221 92.4083 98.2222 91.5766C96.8358 89.8834 97.2976 89.4758 97.2171 86.8445L97.3412 86.3906C101.647 86.6727 104.01 86.5497 108.285 86.2752Z" fill="#A2714E"/>
<path d="M108.642 86.809L113.489 86.9003C113.388 88.6537 113.406 89.2432 112.926 90.9104C111.209 92.3081 112.02 91.9512 109.854 92.2885L108.408 91.2165C107.795 89.3376 108.11 88.6961 108.642 86.809Z" fill="#C5865B"/>
<path d="M86.5829 86.7982L97.2171 86.8445C97.2976 89.4758 96.8358 89.8834 98.2222 91.5766C101.221 92.4083 101.7 91.9601 103.136 93.9531L103.374 97.7116L102.605 97.9404C100.885 97.7655 99.5889 98.0266 97.3279 97.7223L92.2752 97.6254C92.1283 96.5059 92.0738 93.6064 92.0181 92.3544L86.5848 92.0603L86.5829 86.7982Z" fill="#B57A54"/>
<path d="M92.0181 92.3544C94.5261 92.5902 95.288 92.2314 97.0442 93.5646C97.3583 95.387 97.4071 95.877 97.3279 97.7223L92.2752 97.6254C92.1283 96.5059 92.0738 93.6064 92.0181 92.3544Z" fill="#C5865B"/>
<path d="M86.5848 92.0603L92.0181 92.3544C92.0738 93.6064 92.1283 96.5059 92.2752 97.6254L97.3279 97.7223C99.5889 98.0266 100.885 97.7655 102.605 97.9404L102.55 102.851L102.503 103.244L102.052 103.274C98.5205 104.001 96.2386 103.031 92.4709 102.577C90.6133 102.628 88.355 102.766 86.5379 102.597C86.4968 100.602 86.5348 100.32 87.1396 98.4184L86.8217 98.1794L86.5848 92.0603Z" fill="#713F28"/>
<path d="M97.3279 97.7223C99.5889 98.0266 100.885 97.7655 102.605 97.9404L102.55 102.851L102.503 103.244L102.052 103.274L101.54 103.19C94.2988 101.959 101.043 99.1056 92.2752 97.6254L97.3279 97.7223Z" fill="#9E613D"/>
<path d="M87.1396 98.4184C91.1669 98.9781 90.8629 98.464 92.4709 102.577C90.6133 102.628 88.355 102.766 86.5379 102.597C86.4968 100.602 86.5348 100.32 87.1396 98.4184Z" fill="#744D3F"/>
<path d="M103.374 97.7116C106.851 97.6926 110.514 97.6095 113.973 97.6869L113.767 102.75L113.712 103.228C113.411 105.003 113.126 106.51 113.037 108.323L108.228 108.305C108.176 106.48 108.157 105.736 107.775 103.958L106.407 103.324C105.054 103.298 103.877 103.066 102.55 102.851L102.605 97.9404L103.374 97.7116Z" fill="#D79868"/>
<path d="M106.407 103.324C107.788 102.452 111.872 102.742 113.767 102.75L113.712 103.228C113.411 105.003 113.126 106.51 113.037 108.323L108.228 108.305C108.176 106.48 108.157 105.736 107.775 103.958L106.407 103.324Z" fill="#C5865B"/>
<path d="M102.55 102.851C103.877 103.066 105.054 103.298 106.407 103.324L107.775 103.958C108.157 105.736 108.176 106.48 108.228 108.305L108.222 113.52L102.683 113.514C102.357 110.782 102.882 107.124 102.503 103.244L102.55 102.851Z" fill="#A2714E"/>
<path d="M108.228 108.305L108.222 113.52L102.683 113.514L103.263 109.564C104.854 108.063 105.558 108.513 108.228 108.305Z" fill="#CB8B5F"/>
<path d="M89.638 113.917L92.2822 114.212C94.7598 114.365 95.3589 113.984 97.1341 115.245L97.4742 119.457C96.0708 119.273 93.934 119.34 92.4621 119.339L92.293 119.614C91.1378 119.266 88.3512 119.266 87.0193 119.218C86.6823 116.392 86.2637 116.617 87.3302 114.446L89.638 113.917Z" fill="#B57A54"/>
<path d="M92.2822 114.212C94.7598 114.365 95.3589 113.984 97.1341 115.245L97.4742 119.457C96.0708 119.273 93.934 119.34 92.4621 119.339L92.2822 114.212Z" fill="#814A32"/>
<path d="M86.6399 109.651C89.3962 107.57 94.6965 108.075 97.3881 110.445L97.5325 111.708C95.4887 114.242 92.5419 113.678 89.5551 113.585L86.6963 113.498L86.6399 109.651Z" fill="#341D1A"/>
<path d="M108.228 108.305L113.037 108.323L113.152 113.706L108.222 113.52L108.228 108.305Z" fill="#A46540"/>
<path d="M65.077 102.89L65.1682 103.311L65.1023 108.18L65.8452 108.518C69.1993 108.43 72.5553 108.402 75.9101 108.436L81.6157 108.608L86.6253 108.685L86.6399 109.651L86.6963 113.498L89.5551 113.585L89.638 113.917L87.3302 114.446C86.2637 116.617 86.6823 116.392 87.0193 119.218L86.6424 119.329L86.505 123.896C86.4246 125.895 86.2492 128.18 86.4404 130.144C85.1997 130.145 83.8659 130.035 82.6195 129.963C80.6296 128.219 81.8621 128.858 81.071 125.45C78.4054 124.011 75.366 125.395 71.5553 124.381C69.8453 122.683 70.345 123.276 70.1784 120.298C68.1841 118.879 67.7661 119.299 64.9364 119.053L65.096 113.875C63.1801 113.626 61.9698 113.652 60.3701 112.583C59.4264 110.899 59.8742 109.603 60.1674 107.62L60.1535 103.241C61.8552 103.265 63.3885 103.063 65.077 102.89Z" fill="#582C1C"/>
<path d="M75.9101 108.436L81.6157 108.608L86.6253 108.685L86.6399 109.651L86.6963 113.498C83.7779 113.843 79.1559 113.668 75.867 113.831L75.9101 108.436Z" fill="#A2714E"/>
<path d="M86.6963 113.498L89.5551 113.585L89.638 113.917L87.3302 114.446C86.2637 116.617 86.6823 116.392 87.0193 119.218L86.6424 119.329L81.5466 118.961C81.5048 116.738 81.8899 116.089 80.7847 114.554C79.0659 114.225 77.5903 114.039 75.867 113.831C79.1559 113.668 83.7779 113.843 86.6963 113.498Z" fill="#764530"/>
<path d="M65.8452 108.518C69.1993 108.43 72.5553 108.402 75.9101 108.436L75.867 113.831C69.0676 113.267 74.0037 110.231 65.8452 108.518Z" fill="#764530"/>
<path d="M65.077 102.89L65.1682 103.311L65.1023 108.18L60.1674 107.62L60.1535 103.241C61.8552 103.265 63.3885 103.063 65.077 102.89Z" fill="#643A2E"/>
<path d="M81.5466 118.961L86.6424 119.329L86.505 123.896C84.9514 123.993 84.1072 123.956 82.5524 123.845C81.2167 122.197 81.653 121.5 81.5466 118.961Z" fill="#59321E"/>
<path d="M141.092 135.361C143.796 135.696 144.007 135.212 145.359 136.868L146.223 137.2C146.273 139.775 146.786 140.38 145.444 141.887C144.157 142.032 142.218 142.116 141.147 142.699L140.274 140.965L134.601 140.375L131.468 140.84C120.686 140.687 97.2253 142.687 87.7266 141.081C94.1746 140.247 101.94 141.24 108.59 140.956C117.344 140.582 111.82 138.937 114.542 135.851C119.784 135.139 134.683 135.664 140.723 135.757L141.092 135.361Z" fill="#814A32"/>
<path d="M138.584 136.205C141.653 137.09 142.15 137.06 145.359 136.868L146.223 137.2C146.273 139.775 146.786 140.38 145.444 141.887C144.157 142.032 142.218 142.116 141.147 142.699L140.274 140.965C140.67 138.438 139.955 138.01 138.584 136.205Z" fill="#9E613D"/>
<path d="M138.584 136.205C139.955 138.01 140.67 138.438 140.274 140.965L134.601 140.375C135.502 137.119 135.766 137.399 138.584 136.205Z" fill="#B57A54"/>
<path d="M87.0193 119.218C88.3512 119.266 91.1378 119.266 92.293 119.614L92.1447 124.364C95.224 124.65 95.5381 124.146 97.459 125.8C97.6116 127.477 97.6572 128.318 97.5749 129.997L97.2329 135.093L97.3057 135.546L91.8401 135.526C90.2049 135.515 89.2156 135.443 87.5918 135.248C86.2744 133.601 86.6399 132.608 86.4404 130.144C86.2492 128.18 86.4246 125.895 86.505 123.896L86.6424 119.329L87.0193 119.218Z" fill="#643A2E"/>
<path d="M92.1447 124.364C95.224 124.65 95.5381 124.146 97.459 125.8C97.6116 127.477 97.6572 128.318 97.5749 129.997L97.2329 135.093L97.3057 135.546L91.8401 135.526C91.7052 132.375 92.025 127.628 92.1447 124.364Z" fill="#A2714E"/>
<path d="M97.2329 135.093C94.0726 135.119 93.4323 135.391 92.0434 132.478L92.7103 130.923C94.8561 129.55 94.6046 130.004 97.5749 129.997L97.2329 135.093Z" fill="#CB8B5F"/>
<path d="M130.061 108.494L134.941 108.376C135.257 110.32 135.434 111.277 135.409 113.301L136.25 113.581L135.514 113.932C132.849 113.926 132.207 113.502 130.159 114.615C129.47 116.449 129.636 117.129 129.73 119.062L119.247 119.255C119.369 117.61 119.313 115.555 119.318 113.871C120.94 113.769 122.052 113.646 123.657 113.389C124.909 111.753 124.493 111.001 124.578 108.56C126.83 109.085 127.244 109.167 129.594 109.145L130.061 108.494Z" fill="#59321E"/>
<path d="M130.061 108.494L134.941 108.376C135.257 110.32 135.434 111.277 135.409 113.301L130.858 113.269C129.301 111.788 129.789 111.927 129.594 109.145L130.061 108.494Z" fill="#3A1E16"/>
<path d="M129.73 119.062C129.636 117.129 129.47 116.449 130.159 114.615C132.207 113.502 132.849 113.926 135.514 113.932L135.367 119.3L135.432 124.724C135.338 127.502 135.803 127.822 134.435 129.659C132.55 129.938 131.705 129.989 129.798 129.984C129.81 127.832 130.065 126.333 128.949 124.559C129.869 123.086 129.68 121.38 129.725 119.564L129.73 119.062Z" fill="#AB8265"/>
<path d="M135.432 124.724C132.006 124.799 131.343 125.267 129.752 122.049L130.362 120.422C132.556 118.892 132.231 119.38 135.367 119.3L135.432 124.724Z" fill="#8E5334"/>
<path d="M97.4742 119.457C100.211 120.088 101.892 119.699 102.993 121.228L103.174 124.347L102.975 129.922L97.5749 129.997C97.6572 128.318 97.6116 127.477 97.459 125.8C95.5381 124.146 95.224 124.65 92.1447 124.364L92.293 119.614L92.4621 119.339C93.934 119.34 96.0708 119.273 97.4742 119.457Z" fill="#C5865B"/>
<path d="M97.4742 119.457C101.139 119.235 105.816 119.331 109.118 119.062C108.499 122.726 108.811 126.364 108.972 130.075C108.856 131.352 108.801 133.267 108.29 134.366L108.361 129.882L102.975 129.922L103.174 124.347L102.993 121.228C101.892 119.699 100.211 120.088 97.4742 119.457Z" fill="#B57A54"/>
<path d="M103.174 124.347C105.735 124.37 106.354 123.919 108.121 125.186C108.549 127.095 108.443 127.979 108.361 129.882L102.975 129.922L103.174 124.347Z" fill="#9E613D"/>
<path d="M102.975 129.922L108.361 129.882L108.29 134.366L108.088 134.839C109.659 134.883 112.18 134.872 113.661 135.06C109.48 135.79 101.912 135.51 97.3057 135.546L97.2329 135.093L97.5749 129.997L102.975 129.922Z" fill="#A46540"/>
<path d="M102.975 129.922L108.361 129.882L108.29 134.366L108.088 134.839C106.384 134.988 105.705 134.939 103.996 134.786C102.62 132.893 103.079 132.729 102.975 129.922Z" fill="#CB8B5F"/>
<path d="M129.73 119.062L129.725 119.564C129.68 121.38 129.869 123.086 128.949 124.559L124.617 124.827L118.862 124.888L119.247 119.255L129.73 119.062Z" fill="#92593B"/>
<path d="M124.617 124.827C124.535 123.204 124.585 122.336 124.723 120.714C126.398 119.255 127.041 119.716 129.725 119.564C129.68 121.38 129.869 123.086 128.949 124.559L124.617 124.827Z" fill="#B57A54"/>
<path d="M109.118 119.062L113.54 119.264C113.078 123.01 113.692 126.765 112.586 129.306C111.322 130.261 110.658 130.068 108.972 130.075C108.811 126.364 108.499 122.726 109.118 119.062Z" fill="#CB8B5F"/>
<path d="M113.54 119.264C114.147 124.875 113.455 129.673 113.661 135.06C112.18 134.872 109.659 134.883 108.088 134.839L108.29 134.366C108.801 133.267 108.856 131.352 108.972 130.075C110.658 130.068 111.322 130.261 112.586 129.306C113.692 126.765 113.078 123.01 113.54 119.264Z" fill="#9E613D"/>
<path d="M128.949 124.559C130.065 126.333 129.81 127.832 129.798 129.984L124.546 130.045L124.617 124.827L128.949 124.559Z" fill="#92593B"/>
<path d="M118.862 124.888L124.617 124.827L124.546 130.045C122.623 130.064 121.772 130.019 119.87 129.75C118.518 127.816 118.966 127.683 118.862 124.888Z" fill="#AB8265"/>
<path d="M71.8301 129.891C74.6453 129.849 78.6542 129.275 80.6758 130.85C81.5086 132.564 81.3376 133.635 81.3389 135.542L80.3509 135.656C73.3552 133.887 79.8373 131.368 71.8301 129.891Z" fill="#744D3F"/>
<path d="M146.114 5.58367C148.891 5.69524 149.479 5.23185 151.32 6.60427C151.509 7.9583 151.719 9.30916 151.948 10.6575C152.03 13.427 152.18 14.8064 151.493 17.4764L151.768 99.8358C151.229 107.105 152.376 143.166 150.491 146.108L146.664 146.363C144.529 148.908 148.159 151.488 142.815 151.58C128.4 151.829 113.525 151.581 99.1361 151.592L13.595 151.874C12.7102 151.87 12.2967 151.627 11.5436 151.238C10.3257 149.606 10.5987 148.516 10.6398 146.426L10.1737 146.398C10.5081 145.168 10.5449 143.379 10.6393 142.052C12.201 141.923 12.992 141.948 14.4474 141.408C15.9117 140.43 33.1129 138.403 35.0933 137.707C38.068 137.641 47.4786 137.179 49.7935 138.155L49.606 135.684L51.2824 135.055C52.9373 133.1 52.5041 132.878 53.0006 129.949C57.0299 129.985 66.6647 130.293 70.2152 129.794L71.8301 129.891C79.8373 131.368 73.3552 133.887 80.3509 135.656L81.3389 135.542C83.5872 135.618 84.7532 135.276 86.4397 136.326L86.6031 136.927L86.752 140.55L87.7266 141.081C97.2253 142.687 120.686 140.687 131.468 140.84L134.601 140.375L140.274 140.965L141.147 142.699C142.218 142.116 144.157 142.032 145.444 141.887C146.786 140.38 146.273 139.775 146.223 137.2L145.359 136.868C144.007 135.212 143.796 135.696 141.092 135.361L140.723 135.757C140.535 132.816 140.799 127.907 140.869 124.825C140.867 121.593 141.473 117.838 140.341 114.901C138.77 113.296 139.088 113.788 136.25 113.581L135.409 113.301C135.434 111.277 135.257 110.32 134.941 108.376L130.061 108.494C129.432 106.273 129.751 100.602 129.797 98.0184L129.716 97.5125C127.776 97.7414 125.913 98.0095 123.956 97.9747C122.272 97.9607 121.519 97.891 119.855 97.6273C118.476 95.8118 118.978 95.4365 118.967 92.5966L119.325 92.4863C118.824 90.8242 118.926 86.492 118.905 84.5282L118.965 81.8303L118.974 76.1428L113.757 76.0414L113.428 76.0718L107.848 75.9622L107.922 70.9429L108.019 70.565L107.991 65.2294L108.198 64.8485L108.093 59.672L108.188 54.614L108.619 54.5278L113.103 54.4479L113.207 54.0993C114.214 51.2321 113.927 46.6984 113.919 43.5295L113.801 38.0614L114.006 33.534C115.635 32.27 121.903 33.2367 123.18 32.7131C127.291 31.0275 125.558 30.2801 130.883 30.3423C138.129 29.5461 137.043 33.8269 146.09 32.9311L146.304 29.6462C146.23 26.9223 146.507 24.3994 146.642 21.697C146.917 16.2441 144.916 16.6181 140.769 16.215L140.862 11.5805C143.028 13.3136 143.269 13.6755 146.185 13.1012L146.013 11.524L146.202 10.9833L146.114 5.58367Z" fill="#CB8B5F"/>
<path d="M70.2152 129.794L71.8301 129.891C79.8373 131.368 73.3552 133.887 80.3509 135.656L81.3389 135.542C83.5872 135.618 84.7532 135.276 86.4397 136.326L86.6031 136.927L86.752 140.55L87.7266 141.081C97.2253 142.687 120.686 140.687 131.468 140.84C127.08 144.576 131.728 142.76 128.182 145.551C125.152 144.895 124.605 144.973 121.828 146.353C112.221 146.583 17.9447 146.804 16.3385 145.601L14.4474 141.408C15.9117 140.43 33.1129 138.403 35.0933 137.707C38.068 137.641 47.4786 137.179 49.7935 138.155L49.606 135.684L51.2824 135.055C52.9373 133.1 52.5041 132.878 53.0006 129.949C57.0299 129.985 66.6647 130.293 70.2152 129.794Z" fill="#9E613D"/>
<path d="M70.2152 129.794L71.8301 129.891C79.8373 131.368 73.3552 133.887 80.3509 135.656L81.3389 135.542C83.5872 135.618 84.7532 135.276 86.4397 136.326L86.6031 136.927L86.752 140.55C82.5017 141.106 53.1793 140.987 50.3369 140.1L49.7935 138.155L49.606 135.684L51.2824 135.055C52.9373 133.1 52.5041 132.878 53.0006 129.949C57.0299 129.985 66.6647 130.293 70.2152 129.794Z" fill="#C5865B"/>
<path d="M70.2152 129.794L71.8301 129.891C79.8373 131.368 73.3552 133.887 80.3509 135.656C73.3191 134.899 57.5796 135.123 50.5256 135.88L49.606 135.684L51.2824 135.055C52.9373 133.1 52.5041 132.878 53.0006 129.949C57.0299 129.985 66.6647 130.293 70.2152 129.794Z" fill="#92593B"/>
<path d="M50.5256 135.88C57.5796 135.123 73.3191 134.899 80.3509 135.656L81.3389 135.542C83.5872 135.618 84.7532 135.276 86.4397 136.326L86.6031 136.927C82.0204 135.384 54.5859 141.021 50.5256 135.88Z" fill="#A46540"/>
<path d="M130.883 30.3423C138.129 29.5461 137.043 33.8269 146.09 32.9311L146.07 38.4791C145.889 41.3672 146.33 40.9178 144.856 43.0211L141.978 44.0626C143.215 44.1558 144.451 44.2788 145.683 44.4315C146.659 46.5424 146.395 58.0808 146.354 61.3442C139.214 61.6814 141.668 62.2482 137.204 59.0184C134.549 57.097 123.487 59.2333 118.984 58.2235C118.782 58.652 118.475 59.0216 118.092 59.2986C116.889 60.1683 115.218 59.9502 114.279 58.801L113.593 59.6713L113.103 54.4479L113.207 54.0993C114.214 51.2321 113.927 46.6984 113.919 43.5295L113.801 38.0614L114.006 33.534C115.635 32.27 121.903 33.2367 123.18 32.7131C127.291 31.0275 125.558 30.2801 130.883 30.3423Z" fill="#9E613D"/>
<path d="M130.883 30.3423C138.129 29.5461 137.043 33.8269 146.09 32.9311L146.07 38.4791C141.793 38.1527 138.556 38.107 134.281 38.1298C128.89 38.0354 118.429 38.4208 113.801 38.0614L114.006 33.534C115.635 32.27 121.903 33.2367 123.18 32.7131C127.291 31.0275 125.558 30.2801 130.883 30.3423Z" fill="#9E613D"/>
<path d="M134.281 38.1298C138.556 38.107 141.793 38.1527 146.07 38.4791C145.889 41.3672 146.33 40.9178 144.856 43.0211L141.978 44.0626C143.215 44.1558 144.451 44.2788 145.683 44.4315C138.366 46.1481 140.461 43.2011 134.049 41.1751C132.82 40.7872 126.485 41.1194 124.773 41.1992C122.007 45.4217 118.863 43.3266 113.919 43.5295L113.801 38.0614C118.429 38.4208 128.89 38.0354 134.281 38.1298Z" fill="#B57A54"/>
<path d="M113.801 38.0614C118.429 38.4208 128.89 38.0354 134.281 38.1298L133.685 38.2237C128.699 38.9729 120.745 37.7571 117.488 40.2572L117.328 41.5663C119.672 44.1558 122.188 43.0788 124.773 41.1992C122.007 45.4217 118.863 43.3266 113.919 43.5295L113.801 38.0614Z" fill="#A2714E"/>
<path d="M114.279 58.801C113.4 57.7246 113.44 56.1664 114.375 55.1376C115.308 54.1088 116.853 53.9192 118.008 54.692C119.163 55.4647 119.577 56.9671 118.984 58.2235C118.782 58.652 118.475 59.0216 118.092 59.2986C116.889 60.1683 115.218 59.9502 114.279 58.801Z" fill="#582C1C"/>
<path d="M108.619 54.5278L113.103 54.4479L113.593 59.6713L114.279 58.801C115.218 59.9502 116.889 60.1683 118.092 59.2986C118.475 59.0216 118.782 58.652 118.984 58.2235C123.487 59.2333 134.549 57.097 137.204 59.0184C141.668 62.2482 139.214 61.6814 146.354 61.3442L146.356 65.5509L146.346 68.8269L146.409 72.2608L146.283 76.0921L145.448 75.9818C140.687 76.3996 134.577 76.1301 129.682 76.0395C128.206 75.9793 126.108 76.0921 124.577 76.1245L123.866 76.1916L118.974 76.1428L113.757 76.0414L113.428 76.0718L107.848 75.9622L107.922 70.9429L108.019 70.565L107.991 65.2294L108.198 64.8485L108.093 59.672L108.188 54.614L108.619 54.5278Z" fill="#814A32"/>
<path d="M108.619 54.5278L113.103 54.4479L113.593 59.6713L114.279 58.801C115.218 59.9502 116.889 60.1683 118.092 59.2986L118.822 65.3017C120.56 65.2345 122.841 65.057 124.522 65.2624L124.648 70.115L124.577 76.1245L123.866 76.1916L118.974 76.1428L113.757 76.0414L113.428 76.0718L107.848 75.9622L107.922 70.9429L108.019 70.565L107.991 65.2294L108.198 64.8485L108.093 59.672L108.188 54.614L108.619 54.5278Z" fill="#D79868"/>
<path d="M118.822 65.3017C120.56 65.2345 122.841 65.057 124.522 65.2624L124.648 70.115L124.577 76.1245L123.866 76.1916L118.974 76.1428L113.757 76.0414C113.901 74.5986 113.901 72.423 113.951 70.9124L113.681 70.3793L114.057 66.4484C115.517 65.0088 115.867 65.471 118.431 65.3359L118.822 65.3017Z" fill="#582C1C"/>
<path d="M118.431 65.3359L118.822 65.3017L118.905 70.8687L113.951 70.9124L113.681 70.3793L114.057 66.4484C115.517 65.0088 115.867 65.471 118.431 65.3359Z" fill="#EBAF7E"/>
<path d="M113.951 70.9124L118.905 70.8687L118.974 76.1428L113.757 76.0414C113.901 74.5986 113.901 72.423 113.951 70.9124Z" fill="#CB8B5F"/>
<path d="M108.198 64.8485C110.822 65.095 111.482 64.6767 113.127 66.1505L113.681 70.3793L113.951 70.9124C113.901 72.423 113.901 74.5986 113.757 76.0414L113.428 76.0718L107.848 75.9622L107.922 70.9429L108.019 70.565L107.991 65.2294L108.198 64.8485Z" fill="#A46540"/>
<path d="M108.019 70.565C111.072 70.7704 111.409 70.2411 113.168 71.8811C113.287 73.3238 113.391 74.6195 113.428 76.0718L107.848 75.9622L107.922 70.9429L108.019 70.565Z" fill="#59321E"/>
<path d="M114.279 58.801C115.218 59.9502 116.889 60.1683 118.092 59.2986L118.822 65.3017L118.431 65.3359L114.789 64.6513C113.192 62.9271 113.727 62.6989 113.593 59.6713L114.279 58.801Z" fill="#8E5334"/>
<path d="M146.346 68.8269L146.409 72.2608L146.283 76.0921L145.448 75.9818C140.687 76.3996 134.577 76.1301 129.682 76.0395C128.206 75.9793 126.108 76.0921 124.577 76.1245L124.648 70.115L125.177 70.3489C128.918 69.7765 132.757 69.8652 136.548 69.8335L146.346 68.8269Z" fill="#B57A54"/>
<path d="M124.648 70.115L125.177 70.3489L125.641 72.5029L127.035 72.3558C130.749 72.2513 132.217 71.9964 135.409 74.0066L135.309 74.1999C139.836 76.139 143.035 75.0056 145.448 75.9818C140.687 76.3996 134.577 76.1301 129.682 76.0395C128.206 75.9793 126.108 76.0921 124.577 76.1245L124.648 70.115Z" fill="#A2714E"/>
<path d="M124.648 70.115L125.177 70.3489L125.641 72.5029L127.035 72.3558L130.412 73.1654C130.671 74.3438 130.213 74.9327 129.682 76.0395C128.206 75.9793 126.108 76.0921 124.577 76.1245L124.648 70.115Z" fill="#A46540"/>
<path d="M146.346 68.8269L146.409 72.2608C142.178 72.4148 138.86 73.5692 136.548 69.8335L146.346 68.8269Z" fill="#9E613D"/>
<path d="M146.356 65.5509L146.346 68.8269L136.548 69.8335C132.757 69.8652 128.918 69.7765 125.177 70.3489L124.648 70.115L124.522 65.2624L146.356 65.5509Z" fill="#92593B"/>
<path d="M129.682 76.0395C134.577 76.1301 140.687 76.3996 145.448 75.9818L146.283 76.0921L146.264 92.3608L146.178 97.5455C143.579 97.574 131.538 97.5417 129.797 98.0184L129.716 97.5125C127.776 97.7414 125.913 98.0095 123.956 97.9747C122.272 97.9607 121.519 97.891 119.855 97.6273C118.476 95.8118 118.978 95.4365 118.967 92.5966L119.325 92.4863C118.824 90.8242 118.926 86.492 118.905 84.5282L118.965 81.8303L118.974 76.1428L123.866 76.1916L124.577 76.1245C126.108 76.0921 128.206 75.9793 129.682 76.0395Z" fill="#9E613D"/>
<path d="M124.577 76.1245C126.108 76.0921 128.206 75.9793 129.682 76.0395L129.72 91.465C129.731 93.2628 129.813 95.7648 129.716 97.5125C127.776 97.7414 125.913 98.0095 123.956 97.9747C122.272 97.9607 121.519 97.891 119.855 97.6273C118.476 95.8118 118.978 95.4365 118.967 92.5966L119.325 92.4863C118.824 90.8242 118.926 86.492 118.905 84.5282L118.965 81.8303L118.974 76.1428L123.866 76.1916L124.577 76.1245Z" fill="#3A1E16"/>
<path d="M118.974 76.1428L123.866 76.1916C123.98 79.6705 124.641 84.6829 123.148 87.519C121.201 88.4337 122.038 88.338 119.99 87.9418C119.097 86.4705 119.142 86.279 118.905 84.5282L118.965 81.8303L118.974 76.1428Z" fill="#EBAF7E"/>
<path d="M124.577 76.1245C124.633 80.6461 125.818 89.1614 123.299 92.0907C121.619 92.4444 121.047 92.4654 119.325 92.4863C118.824 90.8242 118.926 86.492 118.905 84.5282C119.142 86.279 119.097 86.4705 119.99 87.9418C122.038 88.338 121.201 88.4337 123.148 87.519C124.641 84.6829 123.98 79.6705 123.866 76.1916L124.577 76.1245Z" fill="#C5865B"/>
<path d="M129.72 91.465C131.656 92.6542 143.068 92.3132 146.264 92.3608L146.178 97.5455C143.579 97.574 131.538 97.5417 129.797 98.0184L129.716 97.5125C129.813 95.7648 129.731 93.2628 129.72 91.465Z" fill="#814A32"/>
<path d="M146.178 97.5455L146.119 105.372L146.185 108.34C142.368 108.479 139.086 108.387 135.288 108.262L134.941 108.376L130.061 108.494C129.432 106.273 129.751 100.602 129.797 98.0184C131.538 97.5417 143.579 97.574 146.178 97.5455Z" fill="#9E613D"/>
<path d="M135.459 103.121C142.254 102.908 139.395 105.855 146.119 105.372L146.185 108.34C142.368 108.479 139.086 108.387 135.288 108.262L135.459 103.121Z" fill="#B57A54"/>
<path d="M130.061 108.494C129.996 106.583 129.805 105.504 130.692 103.77C132.88 102.593 132.614 103.003 135.459 103.121L135.288 108.262L134.941 108.376L130.061 108.494Z" fill="#A2714E"/>
<path d="M134.941 108.376L135.288 108.262C139.086 108.387 142.368 108.479 146.185 108.34L146.264 124.985L140.869 124.825C140.867 121.593 141.473 117.838 140.341 114.901C138.77 113.296 139.088 113.788 136.25 113.581L135.409 113.301C135.434 111.277 135.257 110.32 134.941 108.376Z" fill="#A2714E"/>
<path d="M131.468 140.84L134.601 140.375L140.274 140.965L141.147 142.699L141.105 144.861C138.306 147.113 126.033 146.371 121.828 146.353C124.605 144.973 125.152 144.895 128.182 145.551C131.728 142.76 127.08 144.576 131.468 140.84Z" fill="#A46540"/>
<path d="M140.869 124.825L146.264 124.985L146.285 130.506L146.223 137.2L145.359 136.868C144.007 135.212 143.796 135.696 141.092 135.361L140.723 135.757C140.535 132.816 140.799 127.907 140.869 124.825Z" fill="#713F28"/>
<path d="M141.092 135.361L141.298 131.737C142.822 130.123 143.433 130.649 146.285 130.506L146.223 137.2L145.359 136.868C144.007 135.212 143.796 135.696 141.092 135.361Z" fill="#92593B"/>
<path d="M146.114 5.58367C148.891 5.69524 149.479 5.23185 151.32 6.60427C151.509 7.9583 151.719 9.30916 151.948 10.6575C152.03 13.427 152.18 14.8064 151.493 17.4764C151.528 15.5811 151.875 13.306 150.862 11.9025C149.051 11.2223 148.078 11.1855 146.202 10.9833L146.114 5.58367Z" fill="#59321E"/>
<path d="M10.6393 142.052C12.201 141.923 12.992 141.948 14.4474 141.408L16.3385 145.601C12.8951 147.203 12.7406 145.764 10.6398 146.426L10.1737 146.398C10.5081 145.168 10.5449 143.379 10.6393 142.052Z" fill="#CB8B5F"/>
<path d="M140.862 11.5805C143.028 13.3136 143.269 13.6755 146.185 13.1012C145.268 16.5839 144.303 15.9475 140.769 16.215L140.862 11.5805Z" fill="#D79868"/>
<path d="M10.6398 146.426C10.5987 148.516 10.3257 149.606 11.5436 151.238C12.2967 151.627 12.7102 151.87 13.595 151.874L99.1361 151.592C113.525 151.581 128.4 151.829 142.815 151.58C148.159 151.488 144.529 148.908 146.664 146.363L150.491 146.108C152.376 143.166 151.229 107.105 151.768 99.8358C152.633 111.919 151.709 126.187 151.937 138.445C152.044 144.211 151.173 150.349 151.953 156.071C153.295 157.112 155.026 156.978 156.82 157.1C154.256 157.229 153.627 156.803 151.912 158.148C151.692 159.651 151.54 160.911 151.419 162.425L146.134 162.428L145.7 167.928C103.548 167.821 58.3795 167.028 16.5222 168.001L11.0788 167.968C10.8349 166.381 10.7545 164.157 10.6411 162.503L5.50738 162.396C5.79935 160.089 5.08813 158.941 6.20279 156.852L8.07932 156.483C7.0052 156.405 6.88233 156.224 5.96591 155.676C4.96145 153.013 5.42885 149.327 5.57705 146.395L10.1737 146.398L10.6398 146.426Z" fill="#764530"/>
<path d="M11.0788 167.968C11.2086 166.608 11.3023 163.401 12.0167 162.486C22.5977 162.237 142.355 161.681 145.007 162.721C145.646 164.855 145.617 165.765 145.7 167.928C103.548 167.821 58.3795 167.028 16.5222 168.001L11.0788 167.968Z" fill="#582C1C"/>
<path d="M8.07932 156.483C11.873 157.335 10.9198 158.725 10.6411 162.503L5.50738 162.396C5.79935 160.089 5.08813 158.941 6.20279 156.852L8.07932 156.483Z" fill="#582C1C"/>
<path d="M146.134 162.428C146.027 159.251 145.552 158.53 148.389 156.799L149.983 157.332C151.673 159.401 151.151 159.246 151.419 162.425L146.134 162.428Z" fill="#59321E"/>
<path d="M151.948 10.6575C154.83 10.8863 155.151 10.3919 156.809 11.9576C156.91 13.4847 157.008 14.9294 157.043 16.4641C156.5 63.0596 157.758 110.755 156.82 157.1C155.026 156.978 153.295 157.112 151.953 156.071C151.173 150.349 152.044 144.211 151.937 138.445C151.709 126.187 152.633 111.919 151.768 99.8358L151.493 17.4764C152.18 14.8064 152.03 13.427 151.948 10.6575Z" fill="#582C1C"/>
<path d="M10.6171 5.37321C12.443 5.50633 14.2783 5.67813 16.1061 5.66609L23.6199 5.74405C21.7035 6.09841 20.2633 6.36592 18.2943 6.52629C16.8629 7.58112 17.1651 7.03533 16.8389 8.53072L17.5602 9.91201C20.079 10.1193 25.4927 9.53863 26.8303 10.8375C23.3128 10.8939 19.9289 10.6049 16.7718 12.0629C16.59 13.0537 16.8079 13.6166 17.0333 14.5903C12.8755 17.2584 13.2074 14.4622 11.0078 16.7183C10.4505 21.1969 10.5829 31.1232 10.7634 35.9492L10.6943 41.0014C10.6532 43.6765 10.4746 47.5358 10.6158 50.1133L10.7203 55.4508C10.9673 57.6885 11.2884 59.8178 11.1282 62.0637L11.1928 64.9867C11.2175 68.018 10.7589 68.108 12.0794 70.4015C15.5672 72.4059 19.8941 70.5239 24.606 71.1914L26.3984 71.63C25.0386 74.9219 14.576 76.2259 11.1801 76.0129C11.1453 79.2407 11.3074 90.3861 10.7494 92.8888L10.7317 98.0678C10.6513 101.592 10.6494 105.118 10.726 108.642L10.6874 128.938L10.6393 142.052C10.5449 143.379 10.5081 145.168 10.1737 146.398L5.57705 146.395C5.42885 149.327 4.96145 153.013 5.96591 155.676C6.88233 156.224 7.0052 156.405 8.07932 156.483L6.20279 156.852C5.08813 158.941 5.79935 160.089 5.50738 162.396C5.02986 157.436 5.16477 158.222 0.791637 156.079C0.735271 155.751 0.685857 155.421 0.644691 155.091C-0.699865 144.715 0.474965 12.1484 0.481299 12.1313C0.615564 11.7605 0.96579 11.5088 1.20836 11.1976C2.77648 10.9795 3.40284 10.8768 4.9146 10.3824L5.2585 10.267C5.2205 8.70884 5.2946 8.17446 5.55237 6.63343C7.39028 5.30476 7.78165 5.75799 10.5088 5.66798L10.6171 5.37321Z" fill="#EABC89"/>
<path d="M5.50738 162.396C5.02986 157.436 5.16477 158.222 0.791637 156.079C0.735271 155.751 0.685857 155.421 0.644691 155.091C-0.699865 144.715 0.474965 12.1484 0.481299 12.1313C0.615564 11.7605 0.96579 11.5088 1.20836 11.1976C2.77648 10.9795 3.40284 10.8768 4.9146 10.3824L5.2585 10.267C5.86903 10.5041 7.04066 10.9136 7.56632 11.2026L5.76133 11.8556C5.16727 15.5576 5.57517 46.0391 5.5834 52.1424L5.57705 146.395C5.42885 149.327 4.96145 153.013 5.96591 155.676C6.88233 156.224 7.0052 156.405 8.07932 156.483L6.20279 156.852C5.08813 158.941 5.79935 160.089 5.50738 162.396Z" fill="#582C1C"/>
<path d="M10.7203 55.4508C10.9673 57.6885 11.2884 59.8178 11.1282 62.0637L11.1928 64.9867C11.2175 68.018 10.7589 68.108 12.0794 70.4015C15.5672 72.4059 19.8941 70.5239 24.606 71.1914L26.3984 71.63C25.0386 74.9219 14.576 76.2259 11.1801 76.0129C11.1453 79.2407 11.3074 90.3861 10.7494 92.8888C10.1908 82.5054 10.5271 65.9515 10.7203 55.4508Z" fill="#B57A54"/>
<path d="M10.5088 5.66798L11.2213 8.2144L10.6247 10.7634C8.96408 11.5494 9.5651 11.3307 7.56632 11.2026C7.04066 10.9136 5.86903 10.5041 5.2585 10.267C5.2205 8.70884 5.2946 8.17446 5.55237 6.63343C7.39028 5.30476 7.78165 5.75799 10.5088 5.66798Z" fill="#3A1E16"/>
<path d="M10.6171 5.37321C12.443 5.50633 14.2783 5.67813 16.1061 5.66609C16.0086 9.07462 16.5051 8.44577 14.8629 10.9871L13.5196 11.5462C11.4378 10.5079 11.7469 10.5814 11.2213 8.2144L10.5088 5.66798L10.6171 5.37321Z" fill="#EFBF7A"/>
</svg>
