<svg width="168" height="161" viewBox="0 0 168 161" fill="none" xmlns="http://www.w3.org/2000/svg">
<path d="M52.6592 0.274404C66.7117 0.213656 101.812 -0.628823 114.019 0.97938C116.665 4.59544 116.021 8.38416 116.019 13.0969L129.888 13.1784C130.197 19.5776 129.098 21.5152 132.518 25.5724C136.002 25.9321 139.481 26.3174 142.959 26.7298L143.002 39.936C149.228 40.0127 150.478 38.9752 155.018 41.9566C156.044 46.6022 155.862 48.447 155.697 53.1069L165.567 53.6856C169.048 57.9907 167.992 96.8977 167.243 104.199C167.166 104.977 167.076 105.754 166.974 106.529C163.805 109.017 160.094 108.366 155.788 108.379L155.921 121.438L142.348 123.783C144.603 126.653 144.388 130.745 141.846 133.364C139.305 135.982 135.22 136.318 132.283 134.152L129.397 148.961L118.56 148.127C114.863 151.446 116.673 152.955 114.684 159.624C106.313 161.392 59.0755 161.984 53.3356 158.141C50.1282 147.315 49.599 149.281 39.3038 147.393L38.4836 136.572L35.7847 136.379L28.5178 134.865C24.8644 130.683 25.7917 128.363 25.0626 121.863L12.1565 121.724L11.437 109.249C6.43575 108.278 4.17655 108.747 0.95002 105.724C-0.616876 92.1738 0.206615 68.2154 0.292955 53.8567L8.98591 52.9582C13.1877 49.4461 12.027 47.1537 12.8152 40.1358L24.9459 39.7282L26.0044 28.549L26.1818 27.2877C29.7937 25.6891 34.9453 25.9321 39.0688 25.7851L39.0304 13.4805C42.5383 13.0985 46.0607 12.8651 49.5798 12.6013C53.1181 8.77422 52.1124 6.57613 52.6592 0.274404Z" fill="#27498F"/>
<path d="M39.3038 147.393C43.7551 147.088 48.4765 146.479 52.8094 147.241C69.1371 149.046 99.3559 148.699 115.794 146.854L118.56 148.127C114.863 151.446 116.673 152.955 114.684 159.624C106.313 161.392 59.0755 161.984 53.3356 158.141C50.1282 147.315 49.599 149.281 39.3038 147.393Z" fill="#07124F"/>
<path d="M52.6592 0.274404C66.7117 0.213656 101.812 -0.628823 114.019 0.97938C116.665 4.59544 116.021 8.38416 116.019 13.0969L103.382 13.188C93.6799 13.0249 73.6284 12.3407 64.8075 13.9457C61.8431 13.6804 58.6982 13.1704 55.7307 12.7452C52.4082 8.6863 53.2684 6.35712 52.6592 0.274404Z" fill="#07124F"/>
<path d="M0.292955 53.8567C4.25177 54.1892 8.93482 54.7151 12.8345 54.8558L13.2854 66.3242C13.0983 75.0479 12.9895 83.7731 12.9575 92.4983C12.6362 96.8066 12.2189 105.321 11.437 109.249C6.43575 108.278 4.17655 108.747 0.95002 105.724C-0.616876 92.1738 0.206615 68.2154 0.292955 53.8567Z" fill="#07124F"/>
<path d="M155.697 53.1069L165.567 53.6856C169.048 57.9907 167.992 96.8977 167.243 104.199C167.166 104.977 167.076 105.754 166.974 106.529C163.805 109.017 160.094 108.366 155.788 108.379L155.499 107.636L156.079 92.1115L155.774 66.5337L155.697 53.1069Z" fill="#07124F"/>
<path d="M12.9575 92.4983C27.082 96.6323 21.1742 96.0568 25.9596 107.391C25.9596 111.549 26.1514 117.656 25.7517 121.631L25.0626 121.863L12.1565 121.724L11.437 109.249C12.2189 105.321 12.6362 96.8066 12.9575 92.4983Z" fill="#273B7F"/>
<path d="M12.1565 121.724C12.4475 117.214 12.7721 114.212 13.5092 109.754C18.0388 106.181 18.7279 107.453 25.9596 107.391C25.9596 111.549 26.1514 117.656 25.7517 121.631L25.0626 121.863L12.1565 121.724Z" fill="#07124F"/>
<path d="M39.0304 13.4805C42.5383 13.0985 46.0607 12.8651 49.5798 12.6013C53.1181 8.77422 52.1124 6.57613 52.6592 0.274404C53.2684 6.35712 52.4082 8.6863 55.7307 12.7452C58.6982 13.1704 61.8431 13.6804 64.8075 13.9457C65.4278 18.9382 66.3967 22.0475 63.5427 26.2439L60.2746 28.0183C55.1134 26.3446 56.7955 27.5595 53.553 23.6797L52.9454 14.7626L39.0304 13.4805Z" fill="#3D5AA6"/>
<path d="M142.465 107.385C142.868 102.01 142.992 100.651 144.467 95.4206C149.286 91.6527 148.95 92.7957 156.079 92.1115L155.499 107.636L142.465 107.385Z" fill="#273B7F"/>
<path d="M115.794 146.854C115.616 139.464 114.459 140.169 117.912 135.077C123.021 133.599 120.774 133.448 126.559 136.596C129.626 140.538 129.22 144.014 129.397 148.961L118.56 148.127L115.794 146.854Z" fill="#07124F"/>
<path d="M25.0626 121.863L25.7517 121.631C34.6127 122.079 33.161 120.719 39.4781 125.206C40.591 129.489 39.8203 133.706 35.7847 136.379L28.5178 134.865C24.8644 130.683 25.7917 128.363 25.0626 121.863Z" fill="#07124F"/>
<path d="M142.959 26.7298L143.002 39.936L130.574 40.147L129.413 39.3317L129.183 29.0222C131.226 27.5004 139.859 27.0543 142.959 26.7298Z" fill="#07124F"/>
<path d="M116.019 13.0969L115.837 26.5444C111.57 27.1503 110.457 27.0352 106.113 26.7618C102.245 22.0875 103.595 20.823 103.382 13.188L116.019 13.0969Z" fill="#3D5AA6"/>
<path d="M142.465 107.385L155.499 107.636L155.788 108.379L155.921 121.438C152.095 121.177 149.143 120.821 145.349 120.258C141.624 115.651 142.847 114.658 142.465 107.385Z" fill="#07124F"/>
<path d="M143.872 52.9582L155.697 53.1069L155.774 66.5337C151.064 67.082 148.768 67.8653 144.606 65.7312C142.108 61.7634 143.287 57.8996 143.872 52.9582Z" fill="#3D5AA6"/>
<path d="M132.283 134.152C129.998 132.465 128.902 129.605 129.471 126.824C130.04 124.042 132.173 121.844 134.937 121.192C137.702 120.538 140.593 121.55 142.348 123.783C144.603 126.653 144.388 130.745 141.846 133.364C139.305 135.982 135.22 136.318 132.283 134.152Z" fill="#07124F"/>
<path d="M143.002 39.936C149.228 40.0127 150.478 38.9752 155.018 41.9566C156.044 46.6022 155.862 48.447 155.697 53.1069L143.872 52.9582L143.148 51.9463L143.002 39.936Z" fill="#07124F"/>
<path d="M130.574 40.147L143.002 39.936L143.148 51.9463C138.608 52.752 135.959 53.7767 131.864 51.8792C129.287 46.7636 130.277 46.6885 130.574 40.147Z" fill="#3D5AA6"/>
<path d="M116.019 13.0969L129.888 13.1784C128.985 19.3954 129.789 21.456 126.209 25.5421C122.319 26.1048 119.762 26.3957 115.837 26.5444L116.019 13.0969Z" fill="#07124F"/>
<path d="M26.1818 27.2877L38.8993 27.1982L38.5363 39.2102L37.8344 40.075L26.4488 40.0239C26.5416 36.849 26.1531 31.8742 26.0044 28.549L26.1818 27.2877Z" fill="#07124F"/>
<path d="M38.8993 27.1982C46.5195 27.6123 46.2926 26.4005 51.5321 30.2068L52.7185 33.8181C48.4447 40.7321 46.1885 39.5811 38.5363 39.2102L38.8993 27.1982Z" fill="#3D5AA6"/>
<path d="M26.4488 40.0239L37.8344 40.075C38.111 47.9962 39.1839 49.8042 31.8898 53.8615L28.0877 52.4403C24.7845 46.639 25.8796 47.8091 26.4488 40.0239Z" fill="#3D5AA6"/>
<path d="M38.4836 136.572C43.0164 135.205 45.0549 134.12 49.6565 135.161C53.4762 140.164 52.285 139.827 52.8094 147.241C48.4765 146.479 43.7551 147.088 39.3038 147.393L38.4836 136.572Z" fill="#07124F"/>
<path d="M39.0304 13.4805L52.9454 14.7626C51.5 22.1562 52.8127 22.3161 48.2096 25.8858L39.0688 25.7851L39.0304 13.4805Z" fill="#07124F"/>
<path d="M129.413 39.3317C126.326 39.4036 123.571 39.0871 120.509 38.8153C116.023 34.9227 117.075 36.8347 115.824 31.6999L118.133 28.3492C122.576 26.9456 124.625 27.9192 129.183 29.0222L129.413 39.3317Z" fill="#3D5AA6"/>
<path d="M12.8152 40.1358L24.9459 39.7282C25.0035 46.9923 25.974 49.3885 19.772 53.5721L16.6765 52.5826C12.5146 47.5182 13.7442 47.7596 12.8152 40.1358Z" fill="#07124F"/>
<path d="M12.8345 54.8558C20.2533 54.7072 19.1532 53.6233 24.5926 57.0587L25.9244 60.5996C22.1319 67.3218 20.7569 66.572 13.2854 66.3242L12.8345 54.8558Z" fill="#3D5AA6"/>
<path d="M64.6507 66.1164L90.7045 66.0205C90.6581 72.6132 89.6572 103.593 91.9723 108.173C96.2717 108.387 97.7986 108.325 101.895 109.48C104.319 114.732 104.109 112.563 103.203 117.779C98.6956 122.517 101.111 121.309 93.8206 121.85C86.6497 121.994 72.1176 122.747 65.6565 121.425C63.4277 117.638 63.5364 117.366 63.3749 112.847C68.1059 107.319 69.1101 111.48 75.707 107.329C76.9845 101.946 76.7974 86.4204 74.8212 81.6294C62.9848 77.5625 64.8058 78.1668 64.6507 66.1164Z" fill="#C2D3E3"/>
<path d="M78.027 41.712C80.817 38.558 85.6041 38.1839 88.8514 40.8648C92.0971 43.5457 92.6327 48.3191 90.0617 51.6522C88.3205 53.9111 85.4841 55.0412 82.6669 54.5984C79.8481 54.1572 77.4961 52.2133 76.5288 49.5293C75.5631 46.8452 76.1371 43.8494 78.027 41.712Z" fill="#C2D3E3"/>
</svg>
