<svg width="168" height="187" viewBox="0 0 168 187" fill="none" xmlns="http://www.w3.org/2000/svg">
<path d="M63.4391 8.33486C63.6164 3.70975 62.8738 3.46672 65.1159 0.270488C71.3661 -0.01045 114.088 -0.332298 118.801 0.776516C121.869 5.90297 117.924 5.43084 122.152 9.73142C124.551 10.0301 125.409 10.0819 127.82 10.0184C129.697 12.8465 129.171 14.6164 129.248 18.346C121.956 18.8042 118.573 18.8019 111.331 18.3761C111.236 23.3304 112.08 23.6882 109.645 26.9101L105.886 27.2501C101.246 27.4687 96.4094 27.7719 91.7814 27.7284C91.4123 32.074 92.0958 33.2814 89.7132 36.0986C86.7653 36.4319 85.1398 36.5468 82.1774 36.5055C82.2878 41.4108 83.0739 41.9593 81.0336 45.685C77.7892 46.8556 75.8403 46.4253 72.4052 46.1811C73.1768 66.2593 64.525 72.9595 68.4149 92.565C70.4363 94.0622 71.9369 93.6508 74.6517 93.5895C78.4302 98.128 75.2995 108.451 76.5404 110.269C80.5597 116.153 83.1597 109.934 82.1853 122.216C87.2147 122.268 88.0119 121.446 91.6286 123.73C92.5217 127.233 92.1538 128.825 91.7535 132.327C98.0929 132.211 104.78 131.975 111.091 132.059C111.436 135.576 111.765 137.735 111.343 141.312C122.336 141.459 138.562 142.084 149.159 141.054L149.116 150.816L158.355 151.241C158.098 156.658 159.076 157.055 156.154 159.899L149.285 160.847L149.084 161.846L148.842 169.878C142.816 170.575 136.731 170.593 130.702 169.929C130.452 174.92 131.258 174.765 128.744 178.124C124.348 180.318 117.198 178.626 111.649 178.892L111.88 186.704C99.6616 186.699 76.6542 187.602 65.4705 186.277C62.9429 183.786 63.6152 183.155 63.0934 178.988C56.0605 179.135 51.9119 179.163 44.8133 178.452L44.1488 172.183C41.4362 169.377 39.6947 170.2 34.8035 169.792C34.2082 166.708 34.5092 163.419 34.6207 160.245C32.3139 160.142 29.9648 159.91 27.6614 159.713C25.0592 157.047 25.7671 155.835 25.2665 151.347L17.9315 151.281L17.4833 141.855L16.7798 141.637C13.7049 141.534 12.2131 141.786 9.62202 140.132C7.41003 135.789 8.48818 128.71 8.52497 123.143L8.34545 122.562C5.05979 122.331 3.8735 122.375 0.788528 121.047C-0.533764 116.179 0.148592 73.2315 0.408368 66.5971C3.02062 64.5715 4.05972 65.1913 7.91733 64.955L8.66654 64.4555C8.81705 58.8947 7.48919 53.7219 9.09913 48.6795C11.8875 45.6014 11.4326 46.5602 16.8355 46.1176C16.4297 42.6672 16.6951 41.2636 17.0541 37.8823L20.3331 36.5735L25.2464 36.0729C25.3657 33.4843 25.5899 31.6738 25.9645 29.1086C29.2747 26.676 29.744 27.511 34.7244 27.3795L35.5383 27.1297L35.0633 17.6202L42.4441 17.0126C44.9326 14.4357 44.2123 13.8087 44.6516 9.50367L54.7985 9.17389C56.6715 7.8809 60.9116 8.31636 63.4391 8.33486Z" fill="#DDD4CE"/>
<path d="M72.0507 149.302C76.7891 150.161 77.768 150.252 82.5632 149.933C85.2769 150.027 89.2784 150.031 91.8583 150.352C91.5372 155.512 92.3868 156.345 89.7377 159.659C86.975 159.934 85.4787 160.058 82.7082 159.948C82.6714 162.054 82.27 167.194 83.1519 168.74C88.2014 169.043 105.906 169.346 109.849 167.661C111.621 164.876 111.593 164.444 111.314 161.131C114.143 159.555 116.722 159.95 120.046 159.976L130.541 160.075L135.921 160.209L139.316 158.802C141.696 155.43 140.951 155.495 141.274 150.711L149.116 150.816L158.355 151.241C158.098 156.658 159.076 157.055 156.154 159.899L149.285 160.847L149.084 161.846L148.842 169.878C142.816 170.575 136.731 170.593 130.702 169.929C130.452 174.92 131.258 174.765 128.744 178.124C124.348 180.318 117.198 178.626 111.649 178.892L111.88 186.704C99.6616 186.699 76.6542 187.602 65.4705 186.277C62.9429 183.786 63.6152 183.155 63.0934 178.988C56.0605 179.135 51.9119 179.163 44.8133 178.452C45.0831 175.678 45.3852 173.467 45.8546 170.72C48.6307 168.694 49.526 169.339 53.5007 169.153L63.4089 169.023L70.3148 168.832C73.0095 166.025 72.0919 165.739 72.248 160.63C72.5557 155.68 72.5301 154.692 71.6092 149.831L72.0507 149.302Z" fill="#AAB1B5"/>
<path d="M63.0934 178.988C70.1297 178.88 107.048 177.444 110.351 180.147L111.88 186.704C99.6616 186.699 76.6542 187.602 65.4705 186.277C62.9429 183.786 63.6152 183.155 63.0934 178.988Z" fill="#4D5C63"/>
<path d="M141.274 150.711L149.116 150.816L158.355 151.241C158.098 156.658 159.076 157.055 156.154 159.899L149.285 160.847L149.084 161.846L148.842 169.878C142.763 169.604 136.687 169.274 130.615 168.885L130.541 160.075L135.921 160.209L139.316 158.802C141.696 155.43 140.951 155.495 141.274 150.711Z" fill="#4D5C63"/>
<path d="M149.116 150.816L158.355 151.241C158.098 156.658 159.076 157.055 156.154 159.899L149.285 160.847C148.525 157.32 148.912 154.415 149.116 150.816Z" fill="#4D5C63"/>
<path d="M141.274 150.711L149.116 150.816C148.912 154.415 148.525 157.32 149.285 160.847L149.084 161.846C146.774 159.302 139.469 160.163 135.921 160.209L139.316 158.802C141.696 155.43 140.951 155.495 141.274 150.711Z" fill="#C2D3E3"/>
<path d="M111.649 178.892C111.048 174.135 110.384 174.553 112.084 170.694C116.803 168.176 124.879 169.554 130.702 169.929C130.452 174.92 131.258 174.765 128.744 178.124C124.348 180.318 117.198 178.626 111.649 178.892Z" fill="#526774"/>
<path d="M53.5007 169.153L63.4089 169.023C63.3777 174.483 64.3076 174.211 61.527 177.49C56.2088 179.487 51.2709 177.475 44.8133 178.452C45.0831 175.678 45.3852 173.467 45.8546 170.72C48.6307 168.694 49.526 169.339 53.5007 169.153Z" fill="#526774"/>
<path d="M120.046 159.976L130.541 160.075L130.615 168.885C127.862 168.661 125.107 168.481 122.349 168.342C119.835 165.392 120.526 164.471 120.046 159.976Z" fill="#9CB7C0"/>
<path d="M74.9851 159.522C76.6976 160.816 79.0568 160.836 80.7916 159.572C81.3703 164.91 82.5911 166.623 77.6576 169.288L75.7032 168.379C73.674 164.669 74.5202 164.569 74.9851 159.522Z" fill="#7F99A5"/>
<path d="M81.8229 152.719L91.8583 150.352C91.5372 155.512 92.3868 156.345 89.7377 159.659C86.975 159.934 85.4787 160.058 82.7082 159.948L81.8018 158.581C83.1151 156.851 83.124 154.459 81.8229 152.719Z" fill="#7F99A5"/>
<path d="M74.9851 159.522C73.4655 158.375 72.7542 156.446 73.1645 154.585C73.5759 152.726 75.0331 151.275 76.895 150.874C78.7569 150.473 80.6824 151.194 81.8229 152.719C83.124 154.459 83.1151 156.851 81.8018 158.581C81.5152 158.959 81.174 159.292 80.7916 159.572C79.0568 160.836 76.6976 160.816 74.9851 159.522Z" fill="#DDD4CE"/>
<path d="M62.4501 56.4688C65.2954 53.024 64.4191 53.4164 64.8595 48.102C67.4282 45.5936 67.9244 46.4019 72.4052 46.1811C73.1768 66.2593 64.525 72.9595 68.4149 92.565C70.4363 94.0622 71.9369 93.6508 74.6517 93.5895C78.4302 98.128 75.2995 108.451 76.5404 110.269C80.5597 116.153 83.1597 109.934 82.1853 122.216C79.3144 122.333 77.7947 122.205 74.9305 121.916C69.8175 116.308 76.4156 113.628 66.8663 112.16C65.2765 112.039 64.6309 111.552 63.1938 110.837C60.4566 105.444 60.8904 100.436 61.0877 94.4245L62.507 94.2205C60.1255 90.187 60.1255 60.6049 62.4501 56.4688Z" fill="#526774"/>
<path d="M62.507 94.2205L65.8952 95.012C67.5754 99.1603 66.8552 107.221 66.8663 112.16C65.2765 112.039 64.6309 111.552 63.1938 110.837C60.4566 105.444 60.8904 100.436 61.0877 94.4245L62.507 94.2205Z" fill="#C2D3E3"/>
<path d="M63.4391 8.33486C63.6164 3.70975 62.8738 3.46672 65.1159 0.270488C71.3661 -0.01045 114.088 -0.332298 118.801 0.776516C121.869 5.90297 117.924 5.43084 122.152 9.73142C124.551 10.0301 125.409 10.0819 127.82 10.0184C129.697 12.8465 129.171 14.6164 129.248 18.346C121.956 18.8042 118.573 18.8019 111.331 18.3761L101.726 17.7964L102.43 17.3984C104.435 13.9349 103.656 13.0589 103.591 8.39038L71.9816 8.49374L63.4391 8.33486Z" fill="#526774"/>
<path d="M103.591 8.39038C107.347 8.6294 108.408 8.0042 110.795 10.0399C110.904 19.7841 121.435 18.1286 129.248 18.346C121.956 18.8042 118.573 18.8019 111.331 18.3761L101.726 17.7964L102.43 17.3984C104.435 13.9349 103.656 13.0589 103.591 8.39038Z" fill="#9CB7C0"/>
<path d="M72.2993 36.3617L72.4041 30.3282C75.6341 24.948 73.4076 30.5779 80.3457 26.9681C82.3849 23.919 82.4551 23.1988 82.5198 19.6893L82.5298 18.7685C85.782 16.9201 87.3909 17.6425 91.6175 17.6871L101.726 17.7964L111.331 18.3761C111.236 23.3304 112.08 23.6882 109.645 26.9101L105.886 27.2501C101.246 27.4687 96.4094 27.7719 91.7814 27.7284C91.4123 32.074 92.0958 33.2814 89.7132 36.0986C86.7653 36.4319 85.1398 36.5468 82.1774 36.5055C82.2878 41.4108 83.0739 41.9593 81.0336 45.685C77.7892 46.8556 75.8403 46.4253 72.4052 46.1811L72.2993 36.3617Z" fill="#9CB7C0"/>
<path d="M101.726 17.7964L111.331 18.3761C111.236 23.3304 112.08 23.6882 109.645 26.9101L105.886 27.2501C101.08 26.5077 97.056 27.9224 92.8372 25.9904C90.7768 22.5456 91.5294 22.3973 91.6175 17.6871L101.726 17.7964Z" fill="#526774"/>
<path d="M72.2993 36.3617L82.1774 36.5055C82.2878 41.4108 83.0739 41.9593 81.0336 45.685C77.7892 46.8556 75.8403 46.4253 72.4052 46.1811L72.2993 36.3617Z" fill="#4D5C63"/>
<path d="M82.1774 36.5055C81.9344 33.2067 81.6769 31.9068 82.6692 28.7083C86.2403 26.5857 86.7999 27.4608 91.7814 27.7284C91.4123 32.074 92.0958 33.2814 89.7132 36.0986C86.7653 36.4319 85.1398 36.5468 82.1774 36.5055Z" fill="#4D5C63"/>
<path d="M25.8664 141.326C29.1621 141.089 31.16 140.534 33.8848 142.242L33.8692 142.833C33.7566 149.518 36.0912 152.717 43.21 150.863C45.2447 153.203 45.0685 156.495 45.3807 159.793C49.7244 160.104 50.3544 159.394 53.2498 161.738C53.5464 164.714 53.6278 166.169 53.5007 169.153C49.526 169.339 48.6307 168.694 45.8546 170.72C45.3852 173.467 45.0831 175.678 44.8133 178.452L44.1488 172.183C41.4362 169.377 39.6947 170.2 34.8035 169.792C34.2082 166.708 34.5092 163.419 34.6207 160.245C32.3139 160.142 29.9648 159.91 27.6614 159.713C25.0592 157.047 25.7671 155.835 25.2665 151.347L17.9315 151.281L17.4833 141.855C21.0678 141.236 22.0879 140.903 25.6512 141.916L25.8664 141.326Z" fill="#9CB7C0"/>
<path d="M45.3807 159.793C49.7244 160.104 50.3544 159.394 53.2498 161.738C53.5464 164.714 53.6278 166.169 53.5007 169.153C49.526 169.339 48.6307 168.694 45.8546 170.72C45.3852 173.467 45.0831 175.678 44.8133 178.452L44.1488 172.183C41.4362 169.377 39.6947 170.2 34.8035 169.792C35.1045 166.464 35.283 164.709 36.0222 161.391C39.2699 159.39 40.358 160.129 44.7129 160.147L45.3807 159.793Z" fill="#9CB7C0"/>
<path d="M34.8035 169.792C35.1045 166.464 35.283 164.709 36.0222 161.391C39.2699 159.39 40.358 160.129 44.7129 160.147C45.1288 164.81 45.8546 164.699 44.0484 168.269C40.6992 169.554 38.3222 169.54 34.8035 169.792Z" fill="#4D5C63"/>
<path d="M25.2665 151.347C28.676 151.082 31.5915 150.349 34.255 152.133C35.6264 155.268 35.0745 156.828 34.6207 160.245C32.3139 160.142 29.9648 159.91 27.6614 159.713C25.0592 157.047 25.7671 155.835 25.2665 151.347Z" fill="#4D5C63"/>
<path d="M17.4833 141.855C21.0678 141.236 22.0879 140.903 25.6512 141.916C25.5375 146.487 26.3357 146.968 23.9409 149.95L17.9315 151.281L17.4833 141.855Z" fill="#4D5C63"/>
<path d="M8.34545 122.562C5.05979 122.331 3.8735 122.375 0.788528 121.047C-0.533764 116.179 0.148592 73.2315 0.408368 66.5971C3.02062 64.5715 4.05972 65.1913 7.91733 64.955C8.00095 82.8101 7.40446 105.099 8.34545 122.562Z" fill="#526774"/>
<path d="M149.159 141.054L149.116 150.816L141.274 150.711C131.129 150.796 120.983 150.736 110.84 150.533L111.343 141.312C122.336 141.459 138.562 142.084 149.159 141.054Z" fill="#526774"/>
<path d="M54.7985 9.17389C59.5045 9.38504 60.3485 8.55348 63.2328 11.1116L63.6564 16.7272L64.1359 17.6537C56.9492 18.7897 54.2042 17.8866 52.0045 25.8544C49.0577 27.2345 47.6551 27.1487 44.4542 27.3371L35.5383 27.1297L35.0633 17.6202L42.4441 17.0126C44.9326 14.4357 44.2123 13.8087 44.6516 9.50367L54.7985 9.17389Z" fill="#9CB7C0"/>
<path d="M54.7985 9.17389C59.5045 9.38504 60.3485 8.55348 63.2328 11.1116L63.6564 16.7272C59.558 17.7529 50.3678 19.1598 46.8056 16.5979C44.7742 15.1357 44.9927 11.995 44.6516 9.50367L54.7985 9.17389Z" fill="#4D5C63"/>
<path d="M35.0633 17.6202C40.0124 18.1509 41.2756 17.3917 44.3272 20.0818C44.5747 23.0194 44.6594 24.4017 44.4542 27.3371L35.5383 27.1297L35.0633 17.6202Z" fill="#526774"/>
<path d="M7.91733 64.955L8.66654 64.4555L9.23625 65.305C9.01438 70.5972 8.16703 77.6752 10.117 82.3765C11.9499 84.1825 12.0191 84.3219 14.3771 85.2304C17.0128 92.7411 16.1944 112.065 17.2503 121.4C14.1976 121.708 11.1461 121.708 8.52497 123.143L8.34545 122.562C7.40446 105.099 8.00095 82.8101 7.91733 64.955Z" fill="#AAB1B5"/>
<path d="M20.3331 36.5735C25.0525 37.4977 23.8539 36.5579 25.8797 39.5501L25.7605 46.83L25.9065 47.7821C25.4237 51.5769 25.9678 51.9694 23.8272 54.7754C20.0922 54.3796 21.5572 54.0207 18.3507 56.2213C17.4354 59.4889 17.6472 63.7219 16.8133 65.3396L9.23625 65.305L8.66654 64.4555C8.81705 58.8947 7.48919 53.7219 9.09913 48.6795C11.8875 45.6014 11.4326 46.5602 16.8355 46.1176C16.4297 42.6672 16.6951 41.2636 17.0541 37.8823L20.3331 36.5735Z" fill="#9CB7C0"/>
<path d="M8.66654 64.4555C8.81705 58.8947 7.48919 53.7219 9.09913 48.6795C11.8875 45.6014 11.4326 46.5602 16.8355 46.1176C16.8043 50.5279 16.4676 61.3005 16.8133 65.3396L9.23625 65.305L8.66654 64.4555Z" fill="#4D5C63"/>
<path d="M20.3331 36.5735C25.0525 37.4977 23.8539 36.5579 25.8797 39.5501L25.7605 46.83L19.7455 46.3595C16.9259 43.9091 17.6673 42.5468 17.0541 37.8823L20.3331 36.5735Z" fill="#4D5C63"/>
<path d="M61.0877 94.4245C58.0005 93.8883 56.6648 93.7054 53.7649 92.556C53.3223 81.275 53.7727 69.0263 53.9757 57.6673C55.7015 56.111 59.5101 56.5837 62.4501 56.4688C60.1255 60.6049 60.1255 90.187 62.507 94.2205L61.0877 94.4245Z" fill="#9CB7C0"/>
<path d="M91.7535 132.327C98.0929 132.211 104.78 131.975 111.091 132.059C111.436 135.576 111.765 137.735 111.343 141.312L110.84 150.533C108.504 150.371 107.013 150.09 104.707 149.663C102.227 146.497 103.061 146.128 102.88 141.196C99.0818 141.328 96.881 141.543 93.0825 140.759C90.7846 137.489 91.545 137.9 91.6509 133.093L91.7535 132.327Z" fill="#4D5C63"/>
<path d="M111.091 132.059C111.436 135.576 111.765 137.735 111.343 141.312L110.84 150.533C108.504 150.371 107.013 150.09 104.707 149.663C102.227 146.497 103.061 146.128 102.88 141.196L108.744 140.866C111.331 138.065 110.627 136.62 111.091 132.059Z" fill="#9CB7C0"/>
<path d="M34.7244 27.3795L35.5383 27.1297C35.7702 33.5334 37.1292 41.0217 34.3051 46.2023C31.6639 48.3239 29.4374 47.8211 25.9065 47.7821L25.7605 46.83L25.8797 39.5501C23.8539 36.5579 25.0525 37.4977 20.3331 36.5735L25.2464 36.0729C25.3657 33.4843 25.5899 31.6738 25.9645 29.1086C29.2747 26.676 29.744 27.511 34.7244 27.3795Z" fill="#AAB1B5"/>
<path d="M25.2464 36.0729C25.3657 33.4843 25.5899 31.6738 25.9645 29.1086C29.2747 26.676 29.744 27.511 34.7244 27.3795C34.789 32.3539 35.614 32.5478 33.3374 36.0127C29.9725 36.8132 28.5845 36.481 25.2464 36.0729Z" fill="#4D5C63"/>
<path d="M8.52497 123.143C11.1461 121.708 14.1976 121.708 17.2503 121.4L17.442 131.387L16.7798 141.637C13.7049 141.534 12.2131 141.786 9.62202 140.132C7.41003 135.789 8.48818 128.71 8.52497 123.143Z" fill="#4D5C63"/>
<path d="M82.1853 122.216C87.2147 122.268 88.0119 121.446 91.6286 123.73C92.5217 127.233 92.1538 128.825 91.7535 132.327L91.6509 133.093C88.5158 131.996 86.9426 131.804 83.7461 131.318C81.3145 128.077 82.2076 127.239 82.1853 122.216Z" fill="#526774"/>
<path d="M71.6092 149.831C72.5301 154.692 72.5557 155.68 72.248 160.63C66.8997 160.404 67.7861 161.223 63.9764 158.5C62.2405 154.323 62.2706 156.056 63.7022 152.009C67.213 149.248 66.378 150.079 71.6092 149.831Z" fill="#7F99A5"/>
<path d="M63.4391 8.33486L71.9816 8.49374C70.7217 11.4265 70.9369 13.1167 71.0239 16.2066C68.4551 18.2969 68.056 17.6091 64.1359 17.6537L63.6564 16.7272L63.2328 11.1116C60.3485 8.55348 59.5045 9.38504 54.7985 9.17389C56.6715 7.8809 60.9116 8.31636 63.4391 8.33486Z" fill="#9CB7C0"/>
<path d="M72.0507 149.302C72.4944 144.339 71.6883 144.91 74.3797 141.563C78.3377 140.105 76.6363 140.069 80.747 141.873C83.1251 145.483 82.3848 145.021 82.5632 149.933C77.768 150.252 76.7891 150.161 72.0507 149.302Z" fill="#7F99A5"/>
<path d="M17.442 131.387C21.9329 131.584 22.5026 130.789 25.2464 133.242C25.4761 135.934 25.6824 138.629 25.8664 141.326L25.6512 141.916C22.0879 140.903 21.0678 141.236 17.4833 141.855L16.7798 141.637L17.442 131.387Z" fill="#9CB7C0"/>
<path d="M25.5776 122.253C25.1182 117.64 24.0033 109.175 26.0247 105.331C29.336 102.536 29.414 103.444 34.7712 103.158C39.7649 103.297 40.7349 102.451 44.0607 104.882C44.4654 108.174 44.5312 109.505 44.4041 112.817C49.4335 112.513 49.6564 111.635 53.1004 113.854C53.8586 117.133 53.7861 118.244 53.7404 121.63C53.8062 126.301 54.6714 127.686 52.4293 130.933C49.031 131.659 48.0376 131.551 44.5434 131.377C41.3169 131.357 39.921 131.255 36.7357 130.746C34.362 127.383 35.1926 127.227 35.1703 122.242L25.5776 122.253Z" fill="#7F99A5"/>
<path d="M25.5776 122.253C25.1182 117.64 24.0033 109.175 26.0247 105.331C29.336 102.536 29.414 103.444 34.7712 103.158C34.2104 120.424 26.6189 104.761 25.5776 122.253Z" fill="#9CB7C0"/>
<path d="M53.7404 121.63C53.8062 126.301 54.6714 127.686 52.4293 130.933C49.031 131.659 48.0376 131.551 44.5434 131.377L44.6906 121.997L53.7404 121.63Z" fill="#9CB7C0"/>
<path d="M43.6504 112.785L44.4041 112.817C49.4335 112.513 49.6564 111.635 53.1004 113.854C53.8586 117.133 53.7861 118.244 53.7404 121.63L44.6906 121.997C44.6906 117.872 44.4609 116.748 43.6504 112.785Z" fill="#7F99A5"/>
<path d="M44.6906 121.997L44.5434 131.377C41.3169 131.357 39.921 131.255 36.7357 130.746C34.362 127.383 35.1926 127.227 35.1703 122.242L44.6906 121.997Z" fill="#7F99A5"/>
<path d="M43.6504 112.785C44.4609 116.748 44.6906 117.872 44.6906 121.997L35.1703 122.242C35.3242 119.781 35.4981 117.322 35.6887 114.864C38.6589 112.228 38.6879 113.078 43.6504 112.785Z" fill="#C2D3E3"/>
<path d="M25.378 65.3641C25.2509 61.9193 24.9822 60.5581 26.0793 57.2392C30.9627 53.4488 37.8506 55.1143 44.2904 55.6405L44.306 63.0018C44.1544 67.5982 44.8255 70.4567 42.6659 73.8714C39.6501 74.828 39.0514 74.8279 35.8738 74.8681C35.565 79.6463 36.3165 79.4266 33.9172 82.7611C29.7675 84.4746 31.4744 84.4601 27.5198 83.0086C24.5831 79.3252 25.4906 80.1045 25.2665 74.4723L25.378 65.3641Z" fill="#9CB7C0"/>
<path d="M25.378 65.3641C25.2509 61.9193 24.9822 60.5581 26.0793 57.2392C30.9627 53.4488 37.8506 55.1143 44.2904 55.6405L44.306 63.0018L43.3115 64.8368C40.4829 64.625 37.146 64.1412 34.2807 63.8056C33.2081 63.9606 30.9158 64.188 30.0462 64.577L25.378 65.3641Z" fill="#9CB7C0"/>
<path d="M34.2807 63.8056L34.8682 58.0151C37.5841 55.4833 39.8262 56.1099 44.2904 55.6405L44.306 63.0018L43.3115 64.8368C40.4829 64.625 37.146 64.1412 34.2807 63.8056Z" fill="#7F99A5"/>
<path d="M30.0462 64.577C34.4579 65.7989 33.0977 64.7599 35.3654 68.2582C34.6742 72.2136 35.3086 70.6986 32.2292 74.0542C29.4887 74.382 28.0204 74.5403 25.2665 74.4723L25.378 65.3641L30.0462 64.577Z" fill="#7F99A5"/>
<path d="M44.306 63.0018C44.1544 67.5982 44.8255 70.4567 42.6659 73.8714C39.6501 74.828 39.0514 74.8279 35.8738 74.8681L35.8605 67.751C38.0045 65.0809 39.1562 65.6685 43.3115 64.8368L44.306 63.0018Z" fill="#AAB1B5"/>
<path d="M54.5688 28.4185C55.8365 27.1141 57.7173 26.608 59.4677 27.1019C61.2193 27.5946 62.5594 29.0071 62.9597 30.7808C63.3599 32.5556 62.7568 34.4063 61.3877 35.6036C59.3864 37.355 56.3593 37.2145 54.5287 35.2847C52.698 33.3561 52.7159 30.326 54.5688 28.4185Z" fill="#7F99A5"/>
<path d="M149.159 141.054C149.402 135.886 148.518 135.959 151.235 132.854C155.852 130.903 162.125 132.317 167.453 132.225C167.774 137.641 168.819 144.954 166.736 149.712C164.108 151.851 164.598 151.203 160.784 151.88L158.355 151.241L149.116 150.816L149.159 141.054Z" fill="#526774"/>
<path d="M149.159 141.054C152.704 140.794 155.501 140.078 158.262 141.977C158.892 144.795 159.43 149.967 160.784 151.88L158.355 151.241L149.116 150.816L149.159 141.054Z" fill="#C2D3E3"/>
</svg>
