<svg width="168" height="179" viewBox="0 0 168 179" fill="none" xmlns="http://www.w3.org/2000/svg">
<path d="M10.4739 0.173706L108.787 0.0812218C113.723 0.0805884 142.976 -0.219652 145.818 0.338397C146.669 2.1652 146.434 3.64235 146.351 5.63575L151.712 5.69909C151.943 8.58625 151.444 8.98151 153.025 10.5898L157.159 10.999C157.565 13.8038 157.115 14.1173 158.727 15.7636C161.436 16.4319 160.953 15.8681 162.251 17.7406C162.335 19.9347 161.928 20.8076 163.137 22.0434C165.601 21.9902 166.151 21.498 167.574 22.7852C168.315 33.6928 167.871 48.0481 167.842 59.1667L167.807 153.302C167.809 157.956 168.091 168.553 167.366 172.599C164.912 174.06 164.567 172.23 162.186 173.782C162.153 175.143 162.091 176.504 161.998 177.863C161.636 178.078 161.311 178.373 160.912 178.508C159.53 178.975 29.3734 179.394 22.1725 178.35C20.3946 176.176 22.6596 175.712 20.3972 173.019C19.0227 172.909 18.155 172.802 16.8008 172.544C15.6927 171.059 15.9883 169.688 16.0416 167.75C14.0639 167.832 13.3992 167.987 11.516 167.294C11.5293 165.331 11.4139 165.078 10.6211 163.271C8.71379 161.69 9.18506 162.242 6.11643 162.167C4.79967 159.9 5.23542 160.169 5.23669 157.181C3.31737 157.038 2.52706 157.042 0.661024 156.37C0.258259 155.17 -0.417245 15.4083 0.349595 11.6824C2.06404 10.3807 2.74842 10.807 5.28362 10.7089L5.59062 5.72443L10.4238 5.53314C10.3528 3.87356 10.4447 1.86432 10.4739 0.173706Z" fill="#EFBF7A"/>
<path d="M146.351 5.63575L151.712 5.69909C151.943 8.58625 151.444 8.98151 153.025 10.5898L157.159 10.999C157.565 13.8038 157.115 14.1173 158.727 15.7636C161.436 16.4319 160.953 15.8681 162.251 17.7406C162.335 19.9347 161.928 20.8076 163.137 22.0434C165.601 21.9902 166.151 21.498 167.574 22.7852C168.315 33.6928 167.871 48.0481 167.842 59.1667L167.807 153.302C167.809 157.956 168.091 168.553 167.366 172.599C164.912 174.06 164.567 172.23 162.186 173.782C162.153 175.143 162.091 176.504 161.998 177.863C161.636 178.078 161.311 178.373 160.912 178.508C159.53 178.975 29.3734 179.394 22.1725 178.35C20.3946 176.176 22.6596 175.712 20.3972 173.019C19.0227 172.909 18.155 172.802 16.8008 172.544C15.6927 171.059 15.9883 169.688 16.0416 167.75C14.0639 167.832 13.3992 167.987 11.516 167.294C11.5293 165.331 11.4139 165.078 10.6211 163.271C8.71379 161.69 9.18506 162.242 6.11643 162.167C4.79967 159.9 5.23542 160.169 5.23669 157.181C3.31737 157.038 2.52706 157.042 0.661024 156.37C0.258259 155.17 -0.417245 15.4083 0.349595 11.6824C2.06404 10.3807 2.74842 10.807 5.28362 10.7089L5.59062 5.72443L10.4238 5.53314L10.6471 9.88351L10.0711 10.712L10.3756 11.1941C10.7003 12.9968 11.0124 14.4987 11.0777 16.3457C9.76162 38.1755 10.9306 61.5674 10.5716 83.4928C10.4872 88.6711 11.0181 104.908 10.4225 109.241L10.7968 109.327L11.0086 113.832L16.0016 113.834L16.3073 119.101L33.7461 119.092L37.8099 119.197L37.7262 124.474L34.5434 124.493L34.4254 129.685L37.8036 129.995L37.7516 135.265C39.6468 135.405 41.4906 135.585 43.3916 135.495L48.3326 135.424L53.37 135.583C53.5152 133.84 53.5095 132.656 53.4848 130.925C51.7748 129.424 51.4177 129.943 48.5032 129.854L48.9783 125.238L49.0125 124.804C48.5609 123.114 48.8914 121.555 49.0861 119.79L48.8844 119.063L53.9281 119.097C53.8996 116.721 53.8432 116.213 54.5802 113.91L54.5631 113.379C67.4205 113.386 85.7162 113.141 98.0826 113.85C101.931 112.802 103.451 114.152 106.798 113.271C108.498 111.569 107.968 111.766 108.218 108.729L108.287 103.247L108.77 103.173L108.592 102.437L118.879 102.573C118.854 100.146 118.916 99.7821 119.507 97.4808C122.368 97.6689 122.186 97.1958 124.014 98.7046C125.122 101.138 124.247 105.17 124.357 108.243L124.035 113.781L124.503 113.909L129.518 113.766L129.603 119.071L141.001 119.045L141.011 113.887L146.184 113.921L146.165 108.268L146.228 15.9771L146.169 10.2059L146.351 5.63575Z" fill="#92593B"/>
<path d="M157.159 10.999C157.565 13.8038 157.115 14.1173 158.727 15.7636C161.436 16.4319 160.953 15.8681 162.251 17.7406C162.335 19.9347 161.928 20.8076 163.137 22.0434C165.601 21.9902 166.151 21.498 167.574 22.7852C168.315 33.6928 167.871 48.0481 167.842 59.1667L167.807 153.302C167.809 157.956 168.091 168.553 167.366 172.599C164.912 174.06 164.567 172.23 162.186 173.782C162.153 175.143 162.091 176.504 161.998 177.863C161.636 178.078 161.311 178.373 160.912 178.508C159.53 178.975 29.3734 179.394 22.1725 178.35C20.3946 176.176 22.6596 175.712 20.3972 173.019C19.0227 172.909 18.155 172.802 16.8008 172.544C15.6927 171.059 15.9883 169.688 16.0416 167.75C25.8627 167.272 38.6034 167.64 48.6827 167.641L110.753 167.708C120.777 167.736 135.98 168.244 145.343 167.475C146.596 165.968 146.328 164.938 146.619 162.695L151.339 162.412C151.537 160.72 151.62 159.801 152.129 158.145C154.156 156.503 153.394 156.966 156.187 156.639C158.733 150.366 156.37 29.8485 157.159 10.999Z" fill="#9D9699"/>
<path d="M119.507 97.4808C122.368 97.6689 122.186 97.1958 124.014 98.7046C125.122 101.138 124.247 105.17 124.357 108.243L124.035 113.781L124.503 113.909L129.518 113.766L129.603 119.071L130.017 124.185C129.895 126.919 129.402 127.389 130.585 129.33C132.469 129.936 133.483 129.998 135.405 130.203L135.417 135.495L135.348 141.023L129.894 141.298C127.325 141.555 122.367 141.385 119.619 141.374C119.468 142.687 119.343 145.051 118.825 146.12C115.384 146.291 111.477 146.219 107.997 146.236L108.146 145.819C108.15 144.096 108.407 142.565 107.426 141.278C99.1279 140.398 89.7724 141.516 81.6156 140.762L81.0384 140.705L75.9432 140.686C75.9128 139.041 75.8684 138.415 75.5595 136.802C72.7864 134.284 64.3341 135.456 59.7476 135.447C58.519 135.495 55.1643 135.545 54.1349 135.787L53.37 135.583C53.5152 133.84 53.5095 132.656 53.4848 130.925C51.7748 129.424 51.4177 129.943 48.5032 129.854L48.9783 125.238L49.0125 124.804C48.5609 123.114 48.8914 121.555 49.0861 119.79L48.8844 119.063L53.9281 119.097C53.8996 116.721 53.8432 116.213 54.5802 113.91L54.5631 113.379C67.4205 113.386 85.7162 113.141 98.0826 113.85C101.931 112.802 103.451 114.152 106.798 113.271C108.498 111.569 107.968 111.766 108.218 108.729L108.287 103.247L108.77 103.173L108.592 102.437L118.879 102.573C118.854 100.146 118.916 99.7821 119.507 97.4808Z" fill="#643A2E"/>
<path d="M119.507 97.4808C122.368 97.6689 122.186 97.1958 124.014 98.7046C125.122 101.138 124.247 105.17 124.357 108.243L124.035 113.781L124.503 113.909L129.518 113.766L129.603 119.071L130.017 124.185C129.895 126.919 129.402 127.389 130.585 129.33C132.469 129.936 133.483 129.998 135.405 130.203L135.417 135.495L135.348 141.023L129.894 141.298C127.325 141.555 122.367 141.385 119.619 141.374L119.73 140.733L119.016 140.797L119.115 135.385L118.903 134.888L118.871 130.518L118.9 124.755L113.156 124.871C113.17 122.952 113.156 121.033 113.114 119.114L108.563 119.143L108.219 118.996C105.346 119.195 100.844 119.043 97.8492 119.036C98.0236 117.871 97.8454 115.951 97.7775 114.712L98.0826 113.85C101.931 112.802 103.451 114.152 106.798 113.271C108.498 111.569 107.968 111.766 108.218 108.729L108.287 103.247L108.77 103.173L108.592 102.437L118.879 102.573C118.854 100.146 118.916 99.7821 119.507 97.4808Z" fill="#2C1F1D"/>
<path d="M124.503 113.909L129.518 113.766L129.603 119.071L130.017 124.185C129.895 126.919 129.402 127.389 130.585 129.33C132.469 129.936 133.483 129.998 135.405 130.203L135.417 135.495L135.348 141.023L129.894 141.298C127.325 141.555 122.367 141.385 119.619 141.374L119.73 140.733L119.016 140.797L119.115 135.385C120.675 135.442 121.704 135.64 123.097 134.961C125.735 131.002 123.802 119.726 124.035 113.781L124.503 113.909Z" fill="#713F28"/>
<path d="M119.73 140.733L120.99 140.753C125.518 140.811 130.287 141.775 130.006 136.137C131.435 135.185 133.564 135.479 135.417 135.495L135.348 141.023L129.894 141.298C127.325 141.555 122.367 141.385 119.619 141.374L119.73 140.733Z" fill="#9E613D"/>
<path d="M124.503 113.909L129.518 113.766L129.603 119.071C127.704 119.094 127.105 119.148 125.282 118.666C124.153 116.956 124.545 116.263 124.503 113.909Z" fill="#B57A54"/>
<path d="M108.592 102.437L118.879 102.573L118.995 108.409L118.954 113.322L118.227 113.583C115.067 114.402 114.351 113.746 113.159 115.653L113.114 119.114L108.563 119.143L108.219 118.996C105.346 119.195 100.844 119.043 97.8492 119.036C98.0236 117.871 97.8454 115.951 97.7775 114.712L98.0826 113.85C101.931 112.802 103.451 114.152 106.798 113.271C108.498 111.569 107.968 111.766 108.218 108.729L108.287 103.247L108.77 103.173L108.592 102.437Z" fill="#EBAF7E"/>
<path d="M108.592 102.437L118.879 102.573L118.995 108.409C115.26 108.515 112.737 108.946 108.652 108.862L108.218 108.729L108.287 103.247L108.77 103.173L108.592 102.437Z" fill="#A2714E"/>
<path d="M108.77 103.173C111.761 103.147 111.562 102.683 113.695 104.054C114.271 105.77 114.121 105.171 113.064 107.371C110.998 109.057 110.532 108.258 108.652 108.862L108.218 108.729L108.287 103.247L108.77 103.173Z" fill="#59321E"/>
<path d="M108.652 108.862C112.737 108.946 115.26 108.515 118.995 108.409L118.954 113.322L118.227 113.583C115.328 113.537 112.147 114.339 109.785 113.41C108.232 111.546 108.726 111.855 108.652 108.862Z" fill="#EBAF7E"/>
<path d="M108.218 108.729L108.652 108.862C108.726 111.855 108.232 111.546 109.785 113.41C112.147 114.339 115.328 113.537 118.227 113.583C115.067 114.402 114.351 113.746 113.159 115.653L113.114 119.114L108.563 119.143L108.219 118.996C108.295 117.149 108.536 116.214 107.58 114.663C105.633 113.473 100.834 113.939 98.0826 113.85C101.931 112.802 103.451 114.152 106.798 113.271C108.498 111.569 107.968 111.766 108.218 108.729Z" fill="#9E613D"/>
<path d="M118.954 113.322L118.9 124.755L113.156 124.871C113.17 122.952 113.156 121.033 113.114 119.114L113.159 115.653C114.351 113.746 115.067 114.402 118.227 113.583L118.954 113.322Z" fill="#744D3F"/>
<path d="M54.5631 113.379C67.4205 113.386 85.7162 113.141 98.0826 113.85L97.7775 114.712L97.1014 118.377C95.2652 119.534 94.8618 119.088 92.3424 119.01L91.9219 119.073C92.161 121.088 92.3285 122.262 92.234 124.332L92.0101 124.608L82.8442 124.628C78.7245 124.926 74.5872 124.901 70.4707 124.553C68.4163 124.346 66.4278 124.45 64.9867 123.161C63.1727 122.499 61.8445 122.604 59.9195 122.556L59.6626 119.081L53.9281 119.097C53.8996 116.721 53.8432 116.213 54.5802 113.91L54.5631 113.379Z" fill="#92593B"/>
<path d="M70.1491 119.012L70.5601 119.146L91.9219 119.073C92.161 121.088 92.3285 122.262 92.234 124.332L92.0101 124.608L82.8442 124.628C78.7245 124.926 74.5872 124.901 70.4707 124.553C68.4163 124.346 66.4278 124.45 64.9867 123.161L65.3388 119.141L70.1491 119.012Z" fill="#EBAF7E"/>
<path d="M70.1491 119.012L70.5601 119.146C70.1637 121.714 69.8523 121.309 70.7079 123.465C74.0512 125.362 78.6801 124.044 82.8442 124.628C78.7245 124.926 74.5872 124.901 70.4707 124.553C68.4163 124.346 66.4278 124.45 64.9867 123.161L65.3388 119.141L70.1491 119.012Z" fill="#B57A54"/>
<path d="M70.1491 119.012C70.217 117.054 69.9335 115.772 70.8259 114.281C73.7981 114.123 89.9239 113.681 91.9726 114.539C92.2111 116.247 92.3551 117.26 92.3424 119.01L91.9219 119.073L70.5601 119.146L70.1491 119.012Z" fill="#B57A54"/>
<path d="M54.5802 113.91C57.7465 113.871 61.8097 113.257 64.2688 114.67C65.1878 116.246 65.04 116.726 65.0641 118.632L65.3388 119.141L64.9867 123.161C63.1727 122.499 61.8445 122.604 59.9195 122.556L59.6626 119.081L53.9281 119.097C53.8996 116.721 53.8432 116.213 54.5802 113.91Z" fill="#EBAF7E"/>
<path d="M65.0641 118.632L65.3388 119.141L64.9867 123.161C63.1727 122.499 61.8445 122.604 59.9195 122.556L59.6626 119.081C62.0786 119.169 62.7262 119.045 65.0641 118.632Z" fill="#A2714E"/>
<path d="M97.7775 114.712C97.8454 115.951 98.0236 117.871 97.8492 119.036C100.844 119.043 105.346 119.195 108.219 118.996L108.563 119.143C107.757 121.851 108.111 126.871 108.177 129.874C102.559 130.081 98.3573 131.441 96.6257 125.116C95.0533 124.484 93.9484 124.854 92.2416 125.119L92.0101 124.608L92.234 124.332C92.3285 122.262 92.161 121.088 91.9219 119.073L92.3424 119.01C94.8618 119.088 95.2652 119.534 97.1014 118.377L97.7775 114.712Z" fill="#826152"/>
<path d="M97.7775 114.712C97.8454 115.951 98.0236 117.871 97.8492 119.036C97.6729 121.716 98.0953 122.247 96.7507 124.061C94.8079 124.365 94.199 124.403 92.234 124.332C92.3285 122.262 92.161 121.088 91.9219 119.073L92.3424 119.01C94.8618 119.088 95.2652 119.534 97.1014 118.377L97.7775 114.712Z" fill="#B57A54"/>
<path d="M82.8442 124.628L92.0101 124.608L92.2416 125.119C92.2378 127.8 92.6875 127.745 91.3492 129.463C88.6915 130.595 83.3516 129.91 79.9043 129.94C77.2061 129.805 73.7017 130.532 71.5166 129.516C70.0825 127.641 70.5665 127.431 70.4707 124.553C74.5872 124.901 78.7245 124.926 82.8442 124.628Z" fill="#9E613D"/>
<path d="M48.8844 119.063L53.9281 119.097L59.6626 119.081L59.9195 122.556C59.8834 125.041 59.8777 127.513 59.6956 129.99C57.8169 130.028 56.9378 129.991 55.0736 129.762C53.571 127.975 54.0728 127.417 53.9326 124.504L49.0125 124.804C48.5609 123.114 48.8914 121.555 49.0861 119.79L48.8844 119.063Z" fill="#744D3F"/>
<path d="M48.8844 119.063L53.9281 119.097L59.6626 119.081L59.9195 122.556C59.8834 125.041 59.8777 127.513 59.6956 129.99C57.8169 130.028 56.9378 129.991 55.0736 129.762C53.571 127.975 54.0728 127.417 53.9326 124.504L55.2195 123.711C56.8991 123.873 57.6996 124.145 59.0696 123.289C59.4508 121.099 59.6354 121.869 58.6104 120.275C56.2534 119.188 51.8553 119.686 49.0861 119.79L48.8844 119.063Z" fill="#826152"/>
<path d="M113.156 124.871L118.9 124.755L118.871 130.518L118.903 134.888L119.115 135.385C116.346 135.65 113.914 135.441 111.157 135.281L109.379 134.761C108.19 133.026 108.693 132.379 108.824 129.847L112.766 129.843L113.156 124.871Z" fill="#744D3F"/>
<path d="M113.156 124.871L118.9 124.755L118.871 130.518L118.201 130.342C116.59 129.677 114.571 129.851 112.766 129.843L113.156 124.871Z" fill="#4A3430"/>
<path d="M118.201 130.342L118.871 130.518L118.903 134.888C115.643 135.269 114.808 135.814 112.984 132.977L113.372 131.644C115.367 130.048 115.152 130.546 118.201 130.342Z" fill="#826152"/>
<path d="M81.0384 140.705C80.9654 138.799 80.8665 138.463 81.4202 136.682C84.3068 134.331 93.4353 135.417 97.6862 135.473L97.7052 140.483C92.0843 140.46 86.6631 140.416 81.0384 140.705Z" fill="#A2714E"/>
<path d="M111.157 135.281C113.914 135.441 116.346 135.65 119.115 135.385L119.016 140.797C115.028 140.561 111.775 142.153 108.737 139.3C108.45 136.945 108.246 137.66 109.004 135.793L111.157 135.281Z" fill="#2C1F1D"/>
<path d="M119.016 140.797L119.73 140.733L119.619 141.374C119.468 142.687 119.343 145.051 118.825 146.12C115.384 146.291 111.477 146.219 107.997 146.236L108.146 145.819C108.495 144.242 108.647 143.556 109.264 142.069C111.669 140.244 114.356 141.875 118.534 140.913L119.016 140.797Z" fill="#814A32"/>
<path d="M59.9195 122.556C61.8445 122.604 63.1727 122.499 64.9867 123.161C66.4278 124.45 68.4163 124.346 70.4707 124.553C67.9139 124.703 66.764 124.29 65.1149 125.649C64.9633 127.285 64.9081 127.85 65.0356 129.477C63.6408 129.783 61.1989 129.882 59.6956 129.99C59.8777 127.513 59.8834 125.041 59.9195 122.556Z" fill="#9E613D"/>
<path d="M65.0356 129.477C64.9081 127.85 64.9633 127.285 65.1149 125.649C66.764 124.29 67.9139 124.703 70.4707 124.553C70.5665 127.431 70.0825 127.641 71.5166 129.516C73.7017 130.532 77.2061 129.805 79.9043 129.94C77.1737 130.563 68.6104 130.955 66.3244 129.134L65.0356 129.477Z" fill="#764530"/>
<path d="M97.6862 135.473C101.095 135.559 100.756 135.013 103.028 136.721L103.529 138.047C101.986 141.208 101.062 140.637 97.7052 140.483L97.6862 135.473Z" fill="#826152"/>
<path d="M16.3073 119.101L33.7461 119.092L37.8099 119.197L37.7262 124.474L34.5434 124.493L34.4254 129.685L37.8036 129.995L37.7516 135.265C39.6468 135.405 41.4906 135.585 43.3916 135.495L48.3326 135.424L53.37 135.583L54.1349 135.787C55.1643 135.545 58.519 135.495 59.7476 135.447C64.3341 135.456 72.7864 134.284 75.5595 136.802C75.8684 138.415 75.9128 139.041 75.9432 140.686L81.0384 140.705L81.6156 140.762C89.7724 141.516 99.1279 140.398 107.426 141.278C108.407 142.565 108.15 144.096 108.146 145.819L107.997 146.236C111.477 146.219 115.384 146.291 118.825 146.12C119.343 145.051 119.468 142.687 119.619 141.374C122.367 141.385 127.325 141.555 129.894 141.298L135.348 141.023L135.417 135.495L141.024 135.522L141.328 141.059L140.931 146.397C142.977 146.323 144.753 146.264 146.792 146.028C146.733 148.387 147.096 149.408 146.024 151.22C141.978 151.748 128.546 151.432 123.803 151.422L81.1005 151.418L35.5253 151.476C30.1105 151.491 16.4475 151.852 11.8071 151.137C9.55166 146.497 12.326 146.824 5.9642 145.962C7.50739 145.825 9.35505 145.595 10.876 145.667L10.9661 140.783L10.9674 135.361L11.0251 129.767L10.923 124.723L10.975 119.06L16.3073 119.101Z" fill="#CB8B5F"/>
<path d="M16.3073 119.101L33.7461 119.092L37.8099 119.197L37.7262 124.474L34.5434 124.493L34.4254 129.685L37.8036 129.995L37.7516 135.265C31.8357 135.939 17.5264 135.444 10.9674 135.361L11.0251 129.767L10.923 124.723L10.975 119.06L16.3073 119.101Z" fill="#C5865B"/>
<path d="M16.3073 119.101L33.7461 119.092L37.8099 119.197L37.7262 124.474L34.5434 124.493L27.5499 124.619L16.1462 124.68L10.923 124.723L10.975 119.06L16.3073 119.101Z" fill="#92593B"/>
<path d="M27.5499 124.619L34.5434 124.493L34.4254 129.685L37.8036 129.995L37.7516 135.265C33.963 135.091 28.715 136.036 26.2737 133.166C26.3409 131.467 26.3815 131.268 27.4008 129.912C26.6771 127.814 27.09 126.747 27.5499 124.619Z" fill="#CB8B5F"/>
<path d="M27.5499 124.619L34.5434 124.493L34.4254 129.685C32.4363 129.858 29.4749 129.851 27.4008 129.912C26.6771 127.814 27.09 126.747 27.5499 124.619Z" fill="#B57A54"/>
<path d="M10.923 124.723L16.1462 124.68C16.0149 127.173 16.4247 127.711 15.1213 129.403C13.4455 129.676 12.7205 129.758 11.0251 129.767L10.923 124.723Z" fill="#A2714E"/>
<path d="M54.1349 135.787C55.1643 135.545 58.519 135.495 59.7476 135.447C64.3341 135.456 72.7864 134.284 75.5595 136.802C75.8684 138.415 75.9128 139.041 75.9432 140.686L81.0384 140.705L81.6156 140.762C89.7724 141.516 99.1279 140.398 107.426 141.278C108.407 142.565 108.15 144.096 108.146 145.819L107.997 146.236L54.3182 146.183L54.1444 141.018L54.0563 140.745L54.1349 135.787Z" fill="#2C1F1D"/>
<path d="M59.7476 135.447C64.3341 135.456 72.7864 134.284 75.5595 136.802C75.8684 138.415 75.9128 139.041 75.9432 140.686L66.4278 140.671C64.3525 140.612 62.9311 140.603 60.8544 140.237C59.4704 138.464 59.9144 138.158 59.7476 135.447Z" fill="#A2714E"/>
<path d="M54.1349 135.787C55.1643 135.545 58.519 135.495 59.7476 135.447C59.9144 138.158 59.4704 138.464 60.8544 140.237C62.9311 140.603 64.3525 140.612 66.4278 140.671C62.8359 140.967 56.6181 140.708 54.1444 141.018L54.0563 140.745L54.1349 135.787Z" fill="#744D3F"/>
<path d="M37.7516 135.265C39.6468 135.405 41.4906 135.585 43.3916 135.495L43.3884 140.688L43.2603 141.142C39.1324 139.976 21.6568 140.968 16.1323 140.986C14.773 140.755 12.4287 140.805 10.9661 140.783L10.9674 135.361C17.5264 135.444 31.8357 135.939 37.7516 135.265Z" fill="#92593B"/>
<path d="M16.1323 140.986C21.6568 140.968 39.1324 139.976 43.2603 141.142L43.2653 145.918L43.5197 146.279C37.5112 145.848 19.9735 147.294 16.2775 145.673L16.0885 145.159L16.1323 140.986Z" fill="#B57A54"/>
<path d="M16.2775 145.673C17.3247 145.731 21.9962 145.892 22.7636 145.626C25.8817 144.546 40.2462 140.399 42.4699 142.697C42.6514 143.473 43.0243 145.257 43.2653 145.918L43.5197 146.279C37.5112 145.848 19.9735 147.294 16.2775 145.673Z" fill="#C5865B"/>
<path d="M135.417 135.495L141.024 135.522L141.328 141.059L140.931 146.397C134.901 146.183 124.538 146.654 119.571 146.155L118.825 146.12C119.343 145.051 119.468 142.687 119.619 141.374C122.367 141.385 127.325 141.555 129.894 141.298L135.348 141.023L135.417 135.495Z" fill="#C5865B"/>
<path d="M119.619 141.374C122.367 141.385 127.325 141.555 129.894 141.298C129.697 144.116 130.183 143.901 128.613 145.501C125.36 146.587 123.136 145.482 119.571 146.155L118.825 146.12C119.343 145.051 119.468 142.687 119.619 141.374Z" fill="#A46540"/>
<path d="M135.417 135.495L141.024 135.522L141.328 141.059C139.559 140.963 137.162 141.027 135.348 141.023L135.417 135.495Z" fill="#CB8B5F"/>
<path d="M43.3916 135.495L48.3326 135.424L53.37 135.583L54.1349 135.787L54.0563 140.745L54.1444 141.018L54.3182 146.183L43.5197 146.279L43.2653 145.918L43.2603 141.142L43.3884 140.688L43.3916 135.495Z" fill="#8E5334"/>
<path d="M43.3916 135.495L48.3326 135.424L53.37 135.583L54.1349 135.787L54.0563 140.745C50.5075 140.841 46.9391 140.746 43.3884 140.688L43.3916 135.495Z" fill="#2C1F1D"/>
<path d="M10.9661 140.783C12.4287 140.805 14.773 140.755 16.1323 140.986L16.0885 145.159C14.4242 145.367 12.5321 145.671 10.876 145.667L10.9661 140.783Z" fill="#CB8B5F"/>
<path d="M146.169 10.2059C148.116 11.7737 148.222 11.3056 151.168 11.6109C151.288 24.3009 151.966 142.562 150.817 145.365C149.076 146.008 148.685 145.944 146.792 146.028C144.753 146.264 142.977 146.323 140.931 146.397L141.328 141.059L141.024 135.522L135.417 135.495L135.405 130.203C133.483 129.998 132.469 129.936 130.585 129.33C129.402 127.389 129.895 126.919 130.017 124.185L129.603 119.071L141.001 119.045L141.011 113.887L146.184 113.921L146.165 108.268L146.228 15.9771L146.169 10.2059Z" fill="#D79868"/>
<path d="M141.001 119.045L146.245 119.119L146.097 124.228C146.345 126.199 146.674 128.15 146.606 130.128L146.808 135.396L141.024 135.522L135.417 135.495L135.405 130.203C133.483 129.998 132.469 129.936 130.585 129.33C129.402 127.389 129.895 126.919 130.017 124.185L129.603 119.071L141.001 119.045Z" fill="#8E5334"/>
<path d="M135.519 129.796C138.237 129.863 144.137 129.858 146.606 130.128L146.808 135.396L141.024 135.522L135.417 135.495L135.405 130.203L135.519 129.796Z" fill="#9E613D"/>
<path d="M146.097 124.228C146.345 126.199 146.674 128.15 146.606 130.128C144.137 129.858 138.237 129.863 135.519 129.796C135.35 127.927 134.977 126.678 135.955 125.172C138.15 123.675 141.463 124.92 145.194 124.275L145.681 124.187L146.097 124.228Z" fill="#CB8B5F"/>
<path d="M130.017 124.185C135.418 124.218 140.348 123.657 145.681 124.187L145.194 124.275C141.463 124.92 138.15 123.675 135.955 125.172C134.977 126.678 135.35 127.927 135.519 129.796L135.405 130.203C133.483 129.998 132.469 129.936 130.585 129.33C129.402 127.389 129.895 126.919 130.017 124.185Z" fill="#92593B"/>
<path d="M141.024 135.522L146.808 135.396C146.931 138.184 147.437 139.005 146.305 141.111C144.477 141.701 143.244 141.334 141.328 141.059L141.024 135.522Z" fill="#C5865B"/>
<path d="M146.184 113.921L146.245 119.119L141.001 119.045L141.011 113.887L146.184 113.921Z" fill="#CB8B5F"/>
<path d="M151.604 156.721C151.246 148.598 151.999 137.97 151.995 129.413L151.871 39.7357C151.862 35.8787 151.407 13.0449 152.512 11.5615L157.159 10.999C156.37 29.8485 158.733 150.366 156.187 156.639C153.394 156.966 154.156 156.503 152.129 158.145C151.62 159.801 151.537 160.72 151.339 162.412C148.052 162.273 147.741 162.466 146.384 159.498L147.007 157.846C148.979 156.311 148.594 156.793 151.604 156.721Z" fill="#582C1C"/>
<path d="M5.44346 156.693C8.39411 156.991 8.60723 156.525 10.5487 158.089C11.0321 159.378 11.3784 160.309 11.7355 161.637C20.4098 162.78 40.8798 162.261 50.3356 162.253L119.937 162.161C123.961 162.146 144.43 161.798 146.619 162.695C146.328 164.938 146.596 165.968 145.343 167.475C135.98 168.244 120.777 167.736 110.753 167.708L48.6827 167.641C38.6034 167.64 25.8627 167.272 16.0416 167.75C14.0639 167.832 13.3992 167.987 11.516 167.294C11.5293 165.331 11.4139 165.078 10.6211 163.271C8.71379 161.69 9.18506 162.242 6.11643 162.167C4.79967 159.9 5.23542 160.169 5.23669 157.181L5.44346 156.693Z" fill="#582C1C"/>
<path d="M5.23669 157.181C3.31737 157.038 2.52706 157.042 0.661024 156.37C0.258259 155.17 -0.417245 15.4083 0.349595 11.6824C2.06404 10.3807 2.74842 10.807 5.28362 10.7089L5.21957 112.905C5.22908 126.507 5.82847 143.409 5.44346 156.693L5.23669 157.181Z" fill="#582C1C"/>
<path d="M5.88681 141.748L5.87349 45.3257C5.87222 40.0042 5.04831 16.5415 5.99274 12.3171C7.74208 10.7526 7.41353 11.2454 10.3756 11.1941C10.7003 12.9968 11.0124 14.4987 11.0777 16.3457C9.76162 38.1755 10.9306 61.5674 10.5716 83.4928C10.4872 88.6711 11.0181 104.908 10.4225 109.241L10.7968 109.327L11.0086 113.832L16.0016 113.834L16.3073 119.101L10.975 119.06L10.923 124.723L11.0251 129.767L10.9674 135.361L10.9661 140.783L10.876 145.667C9.35505 145.595 7.50739 145.825 5.9642 145.962L5.88681 141.748Z" fill="#F6D7A3"/>
<path d="M10.4225 109.241L10.7968 109.327L11.0086 113.832L16.0016 113.834L16.3073 119.101L10.975 119.06L10.923 124.723L11.0251 129.767L10.9674 135.361L10.9661 140.783L10.876 145.667C9.35505 145.595 7.50739 145.825 5.9642 145.962L5.88681 141.748C7.79218 141.551 8.24189 141.531 10.0064 140.817C10.7726 137.985 10.2563 114.315 10.4225 109.241Z" fill="#EBAF7E"/>
<path d="M11.0086 113.832L16.0016 113.834L16.3073 119.101L10.975 119.06L11.0086 113.832Z" fill="#C5865B"/>
<path d="M146.351 5.63575L151.712 5.69909L151.168 11.6109C148.222 11.3056 148.116 11.7737 146.169 10.2059L146.351 5.63575Z" fill="#582C1C"/>
<path d="M5.59062 5.72443L10.4238 5.53314L10.6471 9.88351L10.0711 10.712L6.88835 10.439C5.54749 9.03915 5.87097 8.04214 5.59062 5.72443Z" fill="#59321E"/>
<path d="M86.6809 11.0357C96.3954 10.7861 132.146 9.8246 140.585 11.2954C142.254 14.2016 140.493 13.9159 142.819 15.82L146.228 15.9771L146.165 108.268L146.184 113.921L141.011 113.887L141.001 119.045L129.603 119.071L129.518 113.766L124.503 113.909L124.035 113.781L124.357 108.243C124.247 105.17 125.122 101.138 124.014 98.7046C122.186 97.1958 122.368 97.6689 119.507 97.4808C118.916 99.7821 118.854 100.146 118.879 102.573L108.592 102.437C108.025 100.268 108.247 99.6148 108.642 97.484L108.378 97.1945L108.006 92.3311L97.4705 92.2766C97.4477 94.2953 97.5321 95.2417 96.8452 97.1958C95.1041 97.9078 95.8113 97.7709 93.7004 97.2192C91.065 94.3371 92.2587 85.5793 92.2244 80.7153L92.1096 75.6979L92.0234 70.6868C91.8959 67.1251 92.0469 63.1585 92.1052 59.5664C91.9993 57.8422 91.9739 57.6142 91.195 56.0781C88.9192 54.6985 85.5652 55.3256 81.9929 54.6231L81.3511 54.4939L75.8633 54.3944L70.4815 54.3222L70.2912 54.0283C70.0774 51.6131 70.165 51.1228 70.543 48.7829L70.2125 48.6898L70.0749 43.5996L64.9284 43.6851C65.021 40.1202 64.955 36.217 64.9633 32.6204C67.7814 32.7084 68.181 32.2682 70.2284 33.5661C70.7428 35.5468 70.6083 36.4374 70.543 38.4498L75.9191 37.8265C75.6128 36.509 75.7568 34.1926 75.784 32.7585L76.5686 32.7344C76.5591 31.275 76.568 29.8162 76.5959 28.3574C78.1277 26.8486 78.3744 27.342 81.084 27.2388L86.6238 27.2217L86.5902 22.2651L86.6105 16.4015L86.6809 11.0357Z" fill="#EFBF7A"/>
<path d="M81.084 27.2388L86.6238 27.2217L86.6048 38.0989C89.7571 38.0115 94.2636 37.3654 96.6815 38.6937C97.8302 40.186 97.5365 41.5682 97.494 43.5394L92.2454 43.6243L92.1877 48.7082C89.2243 48.2363 79.8161 48.4852 76.6346 48.7772L76.3663 49.2586C75.5126 51.2508 75.5982 51.6112 75.8411 53.7864L75.8633 54.3944L70.4815 54.3222L70.2912 54.0283C70.0774 51.6131 70.165 51.1228 70.543 48.7829L70.2125 48.6898L70.0749 43.5996L64.9284 43.6851C65.021 40.1202 64.955 36.217 64.9633 32.6204C67.7814 32.7084 68.181 32.2682 70.2284 33.5661C70.7428 35.5468 70.6083 36.4374 70.543 38.4498L75.9191 37.8265C75.6128 36.509 75.7568 34.1926 75.784 32.7585L76.5686 32.7344C76.5591 31.275 76.568 29.8162 76.5959 28.3574C78.1277 26.8486 78.3744 27.342 81.084 27.2388Z" fill="#2C1F1D"/>
<path d="M64.9633 32.6204C67.7814 32.7084 68.181 32.2682 70.2284 33.5661C70.7428 35.5468 70.6083 36.4374 70.543 38.4498L75.9191 37.8265C76.5388 39.9048 76.2058 42.2687 77.4833 43.4982C78.7816 43.5856 80.0812 43.6629 81.3809 43.7294C85.0026 43.7719 88.6249 43.737 92.2454 43.6243L92.1877 48.7082C89.2243 48.2363 79.8161 48.4852 76.6346 48.7772L76.3663 49.2586C75.5126 51.2508 75.5982 51.6112 75.8411 53.7864L75.8633 54.3944L70.4815 54.3222L70.2912 54.0283C70.0774 51.6131 70.165 51.1228 70.543 48.7829L70.2125 48.6898L70.0749 43.5996L64.9284 43.6851C65.021 40.1202 64.955 36.217 64.9633 32.6204Z" fill="#59321E"/>
<path d="M64.9633 32.6204C67.7814 32.7084 68.181 32.2682 70.2284 33.5661C70.7428 35.5468 70.6083 36.4374 70.543 38.4498C72.4731 38.624 73.4822 38.6341 75.3534 39.2492C76.0561 40.8258 75.9515 41.8773 76.0067 43.5958L70.0749 43.5996L64.9284 43.6851C65.021 40.1202 64.955 36.217 64.9633 32.6204Z" fill="#3A1E16"/>
<path d="M75.0419 49.1205L76.6346 48.7772L76.3663 49.2586C75.5126 51.2508 75.5982 51.6112 75.8411 53.7864L75.8633 54.3944L70.4815 54.3222L70.2912 54.0283C70.0774 51.6131 70.165 51.1228 70.543 48.7829L75.0419 49.1205Z" fill="#D79868"/>
<path d="M70.0749 43.5996L76.0067 43.5958L75.0419 49.1205L70.543 48.7829L70.2125 48.6898L70.0749 43.5996Z" fill="#582C1C"/>
<path d="M76.5686 32.7344C79.355 32.5988 79.0264 32.1725 80.9489 33.466C82.109 35.7102 81.4024 40.6928 81.3809 43.7294C80.0812 43.6629 78.7816 43.5856 77.4833 43.4982C76.2058 42.2687 76.5388 39.9048 75.9191 37.8265C75.6128 36.509 75.7568 34.1926 75.784 32.7585L76.5686 32.7344Z" fill="#828F9B"/>
<path d="M76.6346 48.7772C79.8161 48.4852 89.2243 48.2363 92.1877 48.7082C94.0524 48.9413 95.5893 49.1725 97.4839 49.168C97.508 52.4783 97.4547 56.2403 97.5676 59.5132C102.202 59.4568 109.748 59.1597 114.129 59.5911C112.34 59.7609 110.129 60.0351 108.368 60.0548L108.381 65.1615L113.281 65.266C113.477 66.9313 113.727 68.6675 113.768 70.3359C110.98 70.1022 108.441 69.7291 105.71 70.3676L102.588 70.4753C99.537 70.4867 94.9328 70.3657 92.0234 70.6868C91.8959 67.1251 92.0469 63.1585 92.1052 59.5664C91.9993 57.8422 91.9739 57.6142 91.195 56.0781C88.9192 54.6985 85.5652 55.3256 81.9929 54.6231L81.3511 54.4939L75.8633 54.3944L75.8411 53.7864C75.5982 51.6112 75.5126 51.2508 76.3663 49.2586L76.6346 48.7772Z" fill="#643A2E"/>
<path d="M96.8065 64.5407L103.095 65.1L108.381 65.1615L113.281 65.266C113.477 66.9313 113.727 68.6675 113.768 70.3359C110.98 70.1022 108.441 69.7291 105.71 70.3676L102.588 70.4753L101.064 69.0342C99.7203 67.7826 99.3061 67.6768 98.7175 65.9868L98.8564 65.5472L96.8065 64.5407Z" fill="#814A32"/>
<path d="M76.3663 49.2586L87.0367 49.0641C87.4509 51.8234 87.8936 51.558 86.6822 53.3195C83.878 54.6155 79.695 53.291 75.8411 53.7864C75.5982 51.6112 75.5126 51.2508 76.3663 49.2586Z" fill="#EBAF7E"/>
<path d="M87.0367 49.0641C89.643 49.1535 90.3838 48.6999 92.0818 50.058C92.038 52.7539 92.3678 51.774 91.006 53.8909C89.2396 54.9962 84.1038 54.4141 81.3511 54.4939L75.8633 54.3944L75.8411 53.7864C79.695 53.291 83.878 54.6155 86.6822 53.3195C87.8936 51.558 87.4509 51.8234 87.0367 49.0641Z" fill="#D79868"/>
<path d="M102.829 60.037L108.368 60.0548L108.381 65.1615L103.095 65.1L102.829 60.037Z" fill="#B6684D"/>
<path d="M96.8065 64.5407C97.0246 63.3828 97.2936 62.1976 97.5397 61.0423C99.4983 59.6335 99.9182 60.1194 102.829 60.037L103.095 65.1L96.8065 64.5407Z" fill="#814A32"/>
<path d="M102.588 70.4753L105.71 70.3676C108.548 70.9738 111.482 70.1522 113.442 71.5255C113.971 73.4137 113.875 74.0313 113.774 75.9481L97.6443 75.9722C97.6044 79.4155 97.4705 83.2705 97.5822 86.6783C100.706 86.589 105.249 85.9588 107.617 87.4093C108.665 88.9682 108.305 90.1622 108.142 92.1049L108.006 92.3311L97.4705 92.2766C97.4477 94.2953 97.5321 95.2417 96.8452 97.1958C95.1041 97.9078 95.8113 97.7709 93.7004 97.2192C91.065 94.3371 92.2587 85.5793 92.2244 80.7153L92.1096 75.6979L92.0234 70.6868C94.9328 70.3657 99.537 70.4867 102.588 70.4753Z" fill="#2C1F1D"/>
<path d="M119.04 59.3536L119.622 59.5518L124.379 59.5512C124.562 61.5496 124.677 62.9027 124.651 64.9246L124.437 75.8277C120.666 76.0235 117.527 76.0083 113.774 75.9481C113.875 74.0313 113.971 73.4137 113.442 71.5255C111.482 70.1522 108.548 70.9738 105.71 70.3676C108.441 69.7291 110.98 70.1022 113.768 70.3359C113.727 68.6675 113.477 66.9313 113.281 65.266L108.381 65.1615L108.368 60.0548C110.129 60.0351 112.34 59.7609 114.129 59.5911C115.615 59.5271 117.607 59.5043 119.04 59.3536Z" fill="#B57A54"/>
<path d="M119.04 59.3536L119.622 59.5518L124.379 59.5512C124.189 61.4806 123.945 63.3328 124.006 65.2704L119.047 65.1323L113.697 65.1558L113.281 65.266L108.381 65.1615L108.368 60.0548C110.129 60.0351 112.34 59.7609 114.129 59.5911C115.615 59.5271 117.607 59.5043 119.04 59.3536Z" fill="#C5865B"/>
<path d="M119.622 59.5518L124.379 59.5512C124.189 61.4806 123.945 63.3328 124.006 65.2704L119.047 65.1323L119.032 60.2175L119.622 59.5518Z" fill="#3A1E16"/>
<path d="M113.697 65.1558C113.485 63.3176 113.432 62.8969 113.696 61.0739C115.635 59.797 116.273 60.2581 119.032 60.2175L119.047 65.1323L113.697 65.1558Z" fill="#EBAF7E"/>
<path d="M105.71 70.3676C108.441 69.7291 110.98 70.1022 113.768 70.3359L118.789 70.9681C119.042 73.4574 118.622 73.9325 120.075 75.3545L124.437 75.8277C120.666 76.0235 117.527 76.0083 113.774 75.9481C113.875 74.0313 113.971 73.4137 113.442 71.5255C111.482 70.1522 108.548 70.9738 105.71 70.3676Z" fill="#814A32"/>
<path d="M113.697 65.1558L119.047 65.1323L118.962 70.3942L118.789 70.9681L113.768 70.3359C113.727 68.6675 113.477 66.9313 113.281 65.266L113.697 65.1558Z" fill="#8E5334"/>
<path d="M119.047 65.1323L124.006 65.2704C124.068 67.3721 124.385 68.8961 123.243 70.5601C121.82 71.2113 120.473 70.9041 118.962 70.3942L119.047 65.1323Z" fill="#EBAF7E"/>
<path d="M97.494 43.5394C100.454 43.5704 100.249 43.0897 102.204 44.5472C103.456 47.0366 102.653 51.4211 102.661 54.4495C106.922 54.39 115.86 53.3106 118.733 55.5289C119.201 57.2252 119.148 57.5863 119.04 59.3536C117.607 59.5043 115.615 59.5271 114.129 59.5911C109.748 59.1597 102.202 59.4568 97.5676 59.5132C97.4547 56.2403 97.508 52.4783 97.4839 49.168C95.5893 49.1725 94.0524 48.9413 92.1877 48.7082L92.2454 43.6243L97.494 43.5394Z" fill="#341D1A"/>
<path d="M97.494 43.5394L97.4839 49.168C95.5893 49.1725 94.0524 48.9413 92.1877 48.7082L92.2454 43.6243L97.494 43.5394Z" fill="#C5865B"/>
<path d="M124.357 108.243L146.165 108.268L146.184 113.921L141.011 113.887L141.001 119.045L129.603 119.071L129.518 113.766L124.503 113.909L124.035 113.781L124.357 108.243Z" fill="#713F28"/>
<path d="M129.518 113.766L141.011 113.887L141.001 119.045L129.603 119.071L129.518 113.766Z" fill="#CB8B5F"/>
<path d="M124.651 64.9246C127.792 65.1526 127.642 64.5933 129.226 66.3567C130.578 71.2474 129.607 76.0412 129.677 81.3449C127.157 81.3962 124.564 81.5254 122.05 81.5026C117.413 81.4614 113.527 82.6124 113.745 76.6151L113.774 75.9481C117.527 76.0083 120.666 76.0235 124.437 75.8277L124.651 64.9246Z" fill="#341D1A"/>
<path d="M108.142 92.1049C111.369 92.1074 115.825 91.5133 118.343 92.8764C119.367 94.3396 119.174 95.2885 119.191 97.1033L119.507 97.4808C118.916 99.7821 118.854 100.146 118.879 102.573L108.592 102.437C108.025 100.268 108.247 99.6148 108.642 97.484L108.378 97.1945L108.006 92.3311L108.142 92.1049Z" fill="#341D1A"/>
<path d="M119.191 97.1033L119.507 97.4808C118.916 99.7821 118.854 100.146 118.879 102.573L108.592 102.437C108.025 100.268 108.247 99.6148 108.642 97.484C111.548 97.7044 116.449 97.8368 119.191 97.1033Z" fill="#AB8265"/>
<path d="M86.6105 16.4015C89.6671 16.4426 89.4533 15.946 91.4633 17.4587C93.1892 21.0179 93.6915 23.5636 90.8627 26.8689C89.0854 27.3572 88.4791 27.2774 86.6238 27.2217L86.5902 22.2651L86.6105 16.4015Z" fill="#3A1E16"/>
<path d="M10.4739 0.173706L108.787 0.0812218C113.723 0.0805884 142.976 -0.219652 145.818 0.338397C146.669 2.1652 146.434 3.64235 146.351 5.63575L146.169 10.2059L146.228 15.9771L142.819 15.82C140.493 13.9159 142.254 14.2016 140.585 11.2954C132.146 9.8246 96.3954 10.7861 86.6809 11.0357C82.3475 9.60923 24.7882 10.7868 15.6077 10.8374C13.8381 11.1383 13.3922 11.1896 11.6035 11.0883L10.6471 9.88351L10.4238 5.53314C10.3528 3.87356 10.4447 1.86432 10.4739 0.173706Z" fill="#59321E"/>
<path d="M10.4238 5.53314C10.3528 3.87356 10.4447 1.86432 10.4739 0.173706C10.739 2.03852 10.6851 4.29161 11.752 5.41784C25.4866 5.98983 41.5179 5.62245 55.399 5.62181L146.351 5.63575L146.169 10.2059L146.228 15.9771L142.819 15.82C140.493 13.9159 142.254 14.2016 140.585 11.2954C132.146 9.8246 96.3954 10.7861 86.6809 11.0357C82.3475 9.60923 24.7882 10.7868 15.6077 10.8374C13.8381 11.1383 13.3922 11.1896 11.6035 11.0883L10.6471 9.88351L10.4238 5.53314Z" fill="#F6D7A3"/>
<path d="M91.4944 81.0269L92.2244 80.7153C92.2587 85.5793 91.065 94.3371 93.7004 97.2192C95.8113 97.7709 95.1041 97.9078 96.8452 97.1958C97.5321 95.2417 97.4477 94.2953 97.4705 92.2766L108.006 92.3311L108.378 97.1945L108.642 97.484C108.247 99.6148 108.025 100.268 108.592 102.437L108.77 103.173L108.287 103.247L108.218 108.729C107.968 111.766 108.498 111.569 106.798 113.271C103.451 114.152 101.931 112.802 98.0826 113.85C85.7162 113.141 67.4205 113.386 54.5631 113.379C54.2852 112.439 54.1933 109.969 54.1197 108.875L54.0696 103.277C56.5908 103.138 63.3066 102.265 64.9024 103.65L65.0705 103.305L65.6058 103.02C67.2606 102.727 67.8879 102.629 69.4565 102.064C70.2652 100.36 70.2849 99.0086 70.5062 97.1375C70.7796 95.6812 70.6781 87.7121 70.6781 85.82L70.6978 81.571C71.8477 81.1669 74.3423 81.0998 75.6635 81.0098L75.8506 85.3608C77.3907 87.1262 78.4087 86.7088 80.8513 86.7119L86.4824 86.6923C86.4912 84.2606 86.3923 83.344 87.1496 81.0149L91.4944 81.0269Z" fill="#341D1A"/>
<path d="M91.4944 81.0269L92.2244 80.7153C92.2587 85.5793 91.065 94.3371 93.7004 97.2192C95.8113 97.7709 95.1041 97.9078 96.8452 97.1958C97.5321 95.2417 97.4477 94.2953 97.4705 92.2766L108.006 92.3311L108.378 97.1945L108.642 97.484C108.247 99.6148 108.025 100.268 108.592 102.437L108.77 103.173L108.287 103.247C104.985 102.843 101.211 103.051 97.8505 103.128C97.8904 104.714 98.0617 106.841 97.7065 108.329L92.3577 108.291L86.5572 108.264L86.6098 102.988L86.573 93.425C86.5819 91.2137 86.5147 88.9124 86.4824 86.6923C86.4912 84.2606 86.3923 83.344 87.1496 81.0149L91.4944 81.0269Z" fill="#814A32"/>
<path d="M97.4705 92.2766L108.006 92.3311L108.378 97.1945L108.642 97.484C108.247 99.6148 108.025 100.268 108.592 102.437L108.77 103.173L108.287 103.247C104.985 102.843 101.211 103.051 97.8505 103.128C97.6887 101.416 97.8073 99.2791 97.8454 97.5277C97.8048 95.9942 97.5872 93.8532 97.4705 92.2766Z" fill="#4A3430"/>
<path d="M97.4705 92.2766L108.006 92.3311L108.378 97.1945C105.086 97.9204 101.257 97.624 97.8454 97.5277C97.8048 95.9942 97.5872 93.8532 97.4705 92.2766Z" fill="#A2714E"/>
<path d="M91.4944 81.0269L92.2244 80.7153C92.2587 85.5793 91.065 94.3371 93.7004 97.2192C95.8113 97.7709 95.1041 97.9078 96.8452 97.1958C97.5321 95.2417 97.4477 94.2953 97.4705 92.2766C97.5872 93.8532 97.8048 95.9942 97.8454 97.5277C97.8073 99.2791 97.6887 101.416 97.8505 103.128C97.8904 104.714 98.0617 106.841 97.7065 108.329L92.3577 108.291L92.3158 102.575C90.9458 94.2396 92.4553 87.752 91.4944 81.0269Z" fill="#643A2E"/>
<path d="M92.3158 102.575C94.9645 102.698 95.2201 102.276 97.0602 103.562C97.3824 105.309 97.5327 106.58 97.7065 108.329L92.3577 108.291L92.3158 102.575Z" fill="#B6684D"/>
<path d="M75.6635 81.0098L75.8506 85.3608C77.3907 87.1262 78.4087 86.7088 80.8513 86.7119L86.4824 86.6923C86.5147 88.9124 86.5819 91.2137 86.573 93.425L86.6098 102.988L81.2788 103.174L80.9344 103.046L75.6825 103.269L74.9227 103.349C73.8393 103.227 72.6995 103.049 71.6137 102.897C70.0793 101.044 70.6121 100.154 70.5062 97.1375C70.7796 95.6812 70.6781 87.7121 70.6781 85.82L70.6978 81.571C71.8477 81.1669 74.3423 81.0998 75.6635 81.0098Z" fill="#D79868"/>
<path d="M86.4824 86.6923C86.5147 88.9124 86.5819 91.2137 86.573 93.425L86.6098 102.988L81.2788 103.174L80.9344 103.046C81.1405 100.214 80.836 95.0693 80.7485 92.0707L80.8513 86.7119L86.4824 86.6923Z" fill="#B6684D"/>
<path d="M86.4824 86.6923C86.5147 88.9124 86.5819 91.2137 86.573 93.425C83.3427 94.2218 82.5682 95.0047 80.7485 92.0707L80.8513 86.7119L86.4824 86.6923Z" fill="#C6775A"/>
<path d="M75.8506 85.3608C77.3907 87.1262 78.4087 86.7088 80.8513 86.7119L80.7485 92.0707C80.836 95.0693 81.1405 100.214 80.9344 103.046L75.6825 103.269L74.9227 103.349C76.4488 101.41 75.8069 89.1379 75.746 85.8448L75.8506 85.3608Z" fill="#A46540"/>
<path d="M75.6635 81.0098L75.8506 85.3608L75.746 85.8448L70.6781 85.82L70.6978 81.571C71.8477 81.1669 74.3423 81.0998 75.6635 81.0098Z" fill="#C5865B"/>
<path d="M65.6058 103.02C67.2606 102.727 67.8879 102.629 69.4565 102.064C70.2652 100.36 70.2849 99.0086 70.5062 97.1375C70.6121 100.154 70.0793 101.044 71.6137 102.897C72.6995 103.049 73.8393 103.227 74.9227 103.349L75.6825 103.269L75.8094 108.335L69.9963 108.379C68.5336 108.337 67.345 108.219 65.8887 108.069C64.5973 106.544 65.014 106.055 64.9024 103.65L65.0705 103.305L65.6058 103.02Z" fill="#8E5334"/>
<path d="M65.6058 103.02C68.0218 103.203 68.3078 102.804 69.891 104.125C70.0514 105.845 70.087 106.655 69.9963 108.379C68.5336 108.337 67.345 108.219 65.8887 108.069C64.5973 106.544 65.014 106.055 64.9024 103.65L65.0705 103.305L65.6058 103.02Z" fill="#C6775A"/>
<path d="M80.9344 103.046L81.2788 103.174L86.6098 102.988L86.5572 108.264L80.5462 108.283L75.8094 108.335L75.6825 103.269L80.9344 103.046Z" fill="#EBAF7E"/>
<path d="M80.9344 103.046L81.2788 103.174C81.0295 104.836 80.7219 106.624 80.5462 108.283L75.8094 108.335L75.6825 103.269L80.9344 103.046Z" fill="#D79868"/>
<path d="M59.3277 38.4498C59.61 40.4356 59.6392 41.3598 60.4618 43.2252C62.1718 43.9796 63.0636 43.7744 64.9284 43.6851L70.0749 43.5996L70.2125 48.6898L70.543 48.7829C70.165 51.1228 70.0774 51.6131 70.2912 54.0283L70.4815 54.3222L75.8633 54.3944L81.3511 54.4939L81.9929 54.6231C85.5652 55.3256 88.9192 54.6985 91.195 56.0781C91.9739 57.6142 91.9993 57.8422 92.1052 59.5664C92.0469 63.1585 91.8959 67.1251 92.0234 70.6868L92.1096 75.6979L92.2244 80.7153L91.4944 81.0269L87.1496 81.0149C86.3923 83.344 86.4912 84.2606 86.4824 86.6923L80.8513 86.7119C78.4087 86.7088 77.3907 87.1262 75.8506 85.3608L75.6635 81.0098C74.3423 81.0998 71.8477 81.1669 70.6978 81.571L70.1377 81.7686C70.2411 79.8855 70.5113 77.7793 70.7098 75.8847L70.7891 75.4312L70.5487 70.8116C68.5457 70.227 67.1331 70.486 65.0565 70.64C63.1638 70.8021 61.431 70.6647 59.539 70.5747C59.6366 66.7456 59.6734 63.8034 59.4527 59.9464L59.5085 59.4935C59.9563 54.9671 59.2034 51.2153 59.2408 46.7667C59.3024 43.9948 59.3315 41.2223 59.3277 38.4498Z" fill="#9C5B46"/>
<path d="M59.3277 38.4498C59.61 40.4356 59.6392 41.3598 60.4618 43.2252C62.1718 43.9796 63.0636 43.7744 64.9284 43.6851L70.0749 43.5996L70.2125 48.6898L70.543 48.7829C70.165 51.1228 70.0774 51.6131 70.2912 54.0283L70.4815 54.3222C69.4305 56.683 69.5637 57.2411 69.7406 59.7843C68.6446 59.7742 65.9946 59.6798 65.0457 60.0769C65.1225 63.0509 65.765 67.4963 64.2389 69.6163C62.7268 70.5861 61.3739 70.4607 59.539 70.5747C59.6366 66.7456 59.6734 63.8034 59.4527 59.9464L59.5085 59.4935C59.9563 54.9671 59.2034 51.2153 59.2408 46.7667C59.3024 43.9948 59.3315 41.2223 59.3277 38.4498Z" fill="#341D1A"/>
<path d="M59.3277 38.4498C59.61 40.4356 59.6392 41.3598 60.4618 43.2252C62.1718 43.9796 63.0636 43.7744 64.9284 43.6851L70.0749 43.5996L70.2125 48.6898C68.1492 49.1845 67.1433 49.0186 65.0774 48.8722L64.8764 49.1782C64.0486 48.9286 61.6872 48.7551 60.198 48.3934L59.2408 46.7667C59.3024 43.9948 59.3315 41.2223 59.3277 38.4498Z" fill="#643A2E"/>
<path d="M64.9284 43.6851L70.0749 43.5996L70.2125 48.6898C68.1492 49.1845 67.1433 49.0186 65.0774 48.8722L64.9284 43.6851Z" fill="#B6684D"/>
<path d="M70.2125 48.6898L70.543 48.7829C70.165 51.1228 70.0774 51.6131 70.2912 54.0283L70.4815 54.3222C69.4305 56.683 69.5637 57.2411 69.7406 59.7843C68.6446 59.7742 65.9946 59.6798 65.0457 60.0769L64.9582 52.1648L64.8764 49.1782L65.0774 48.8722C67.1433 49.0186 68.1492 49.1845 70.2125 48.6898Z" fill="#643A2E"/>
<path d="M70.2125 48.6898L70.543 48.7829C70.165 51.1228 70.0774 51.6131 70.2912 54.0283C66.941 54.4622 66.7564 54.7967 64.9582 52.1648L64.8764 49.1782L65.0774 48.8722C67.1433 49.0186 68.1492 49.1845 70.2125 48.6898Z" fill="#814A32"/>
<path d="M82.7718 75.9398C85.6026 75.9981 89.2167 75.784 92.1096 75.6979L92.2244 80.7153L91.4944 81.0269L87.1496 81.0149C86.3923 83.344 86.4912 84.2606 86.4824 86.6923L80.8513 86.7119C78.4087 86.7088 77.3907 87.1262 75.8506 85.3608L75.6635 81.0098C74.3423 81.0998 71.8477 81.1669 70.6978 81.571L70.1377 81.7686C70.2411 79.8855 70.5113 77.7793 70.7098 75.8847L82.7718 75.9398Z" fill="#59321E"/>
<path d="M75.6635 81.0098C78.878 81.025 84.0645 81.1935 87.1496 81.0149C86.3923 83.344 86.4912 84.2606 86.4824 86.6923L80.8513 86.7119C78.4087 86.7088 77.3907 87.1262 75.8506 85.3608L75.6635 81.0098Z" fill="#814A32"/>
<path d="M75.8633 54.3944L81.3511 54.4939L81.9929 54.6231C85.5652 55.3256 88.9192 54.6985 91.195 56.0781C91.9739 57.6142 91.9993 57.8422 92.1052 59.5664C86.1487 59.6867 74.7438 59.1832 69.7406 59.7843C69.5637 57.2411 69.4305 56.683 70.4815 54.3222L75.8633 54.3944Z" fill="#582C1C"/>
<path d="M75.7257 61.3843C76.3162 64.1771 75.8132 64.1473 77.5816 65.5459L80.9445 65.2546C80.8069 68.0702 80.3977 72.0006 81.0999 74.6211C81.8115 75.1126 81.9054 75.2798 82.6894 75.525L82.7718 75.9398L70.7098 75.8847L70.7891 75.4312L70.5487 70.8116L70.6686 70.467C72.5663 70.761 73.9307 70.9947 75.8785 71.0397L75.7257 61.3843Z" fill="#B6684D"/>
<path d="M70.6686 70.467C72.5663 70.761 73.9307 70.9947 75.8785 71.0397C75.7682 73.4663 76.176 73.6253 74.8466 75.2577C73.4359 75.3501 72.2023 75.4306 70.7891 75.4312L70.5487 70.8116L70.6686 70.467Z" fill="#CB8B5F"/>
<path d="M80.9445 65.2546C82.5048 65.252 85.0064 64.7396 85.8906 66.2351C87.8461 69.5403 87.2333 71.4824 85.8665 74.8548C84.5795 75.6662 84.2878 75.5433 82.6894 75.525C81.9054 75.2798 81.8115 75.1126 81.0999 74.6211C80.3977 72.0006 80.8069 68.0702 80.9445 65.2546Z" fill="#C6775A"/>
<path d="M70.6686 70.467C70.484 67.5482 69.7863 62.5188 71.3834 60.2625C73.0535 59.8673 73.3687 60.0092 75.1111 60.2676L75.7257 61.3843L75.8785 71.0397C73.9307 70.9947 72.5663 70.761 70.6686 70.467Z" fill="#D79868"/>
<path d="M37.8048 108.285C37.9184 105.209 37.0545 101.17 38.2019 98.6894C40.184 97.1432 40.1948 97.6696 43.3085 97.6246L53.5102 97.5752L54.1603 98.1516C54.0721 99.4824 54.0328 101.275 53.7404 102.525L53.5584 103.184L54.0696 103.277L54.1197 108.875C54.1933 109.969 54.2852 112.439 54.5631 113.379L54.5802 113.91C53.8432 116.213 53.8996 116.721 53.9281 119.097L48.8844 119.063L49.0861 119.79C48.8914 121.555 48.5609 123.114 49.0125 124.804L48.9783 125.238L48.5032 129.854C51.4177 129.943 51.7748 129.424 53.4848 130.925C53.5095 132.656 53.5152 133.84 53.37 135.583L48.3326 135.424L43.3916 135.495C41.4906 135.585 39.6468 135.405 37.7516 135.265L37.8036 129.995L34.4254 129.685L34.5434 124.493L37.7262 124.474L37.8099 119.197L33.7461 119.092C33.6193 117.575 33.7512 115.405 33.7918 113.827L37.8613 113.792L37.8048 108.285Z" fill="#2C1F1D"/>
<path d="M43.3085 97.6246L53.5102 97.5752L54.1603 98.1516C54.0721 99.4824 54.0328 101.275 53.7404 102.525L53.5584 103.184L54.0696 103.277L54.1197 108.875L53.4994 108.623L53.1467 108.938L48.318 108.718C47.6526 108.507 44.1876 108.383 43.2653 108.331L43.2882 102.99L43.3085 97.6246Z" fill="#9E613D"/>
<path d="M43.3085 97.6246L53.5102 97.5752L54.1603 98.1516C54.0721 99.4824 54.0328 101.275 53.7404 102.525C51.072 102.444 46.1811 102.876 43.2882 102.99L43.3085 97.6246Z" fill="#AB8265"/>
<path d="M53.5584 103.184L54.0696 103.277L54.1197 108.875L53.4994 108.623C51.6784 108.416 51.4018 108.433 49.7375 107.739C48.3973 105.478 48.4861 106.352 48.9009 104.302C50.9839 102.751 50.4929 103.224 53.5584 103.184Z" fill="#59321E"/>
<path d="M43.2653 108.331C44.1876 108.383 47.6526 108.507 48.318 108.718L53.1467 108.938L53.4994 108.623L54.1197 108.875C54.1933 109.969 54.2852 112.439 54.5631 113.379L54.5802 113.91C53.8432 116.213 53.8996 116.721 53.9281 119.097L48.8844 119.063L43.3402 118.989L43.3433 113.287L43.2653 108.331Z" fill="#AB8265"/>
<path d="M43.3433 113.287L44.0969 113.514C46.053 113.773 46.8135 113.756 48.6009 114.663C49.1292 116.469 48.9992 117.216 48.8844 119.063L43.3402 118.989L43.3433 113.287Z" fill="#744D3F"/>
<path d="M43.2653 108.331C44.1876 108.383 47.6526 108.507 48.318 108.718L48.5317 113.529C47.2099 113.359 45.4701 113.48 44.0969 113.514L43.3433 113.287L43.2653 108.331Z" fill="#B59A8E"/>
<path d="M48.318 108.718L53.1467 108.938C53.4848 111.347 53.9376 111.561 52.9926 113.419C51.2153 114.019 50.387 113.76 48.5317 113.529L48.318 108.718Z" fill="#EBAF7E"/>
<path d="M48.5032 129.854C51.4177 129.943 51.7748 129.424 53.4848 130.925C53.5095 132.656 53.5152 133.84 53.37 135.583L48.3326 135.424L43.3916 135.495L43.4689 130.532L44.0525 130.292C45.4168 129.722 46.9822 129.866 48.5032 129.854Z" fill="#744D3F"/>
<path d="M44.0525 130.292C46.5052 130.431 46.7431 130.016 48.3446 131.339C48.4658 133.037 48.5038 133.736 48.3326 135.424L43.3916 135.495L43.4689 130.532L44.0525 130.292Z" fill="#8D7472"/>
<path d="M43.3402 118.989L48.8844 119.063L49.0861 119.79C48.8914 121.555 48.5609 123.114 49.0125 124.804L48.9783 125.238C47.9038 124.69 44.8206 124.731 43.4455 124.675L43.3402 118.989Z" fill="#5A4541"/>
<path d="M43.4455 124.675C44.8206 124.731 47.9038 124.69 48.9783 125.238L48.5032 129.854C46.9822 129.866 45.4168 129.722 44.0525 130.292L43.4689 130.532L43.4455 124.675Z" fill="#4A3430"/>
<path d="M33.7918 113.827L37.8613 113.792L37.8099 119.197L33.7461 119.092C33.6193 117.575 33.7512 115.405 33.7918 113.827Z" fill="#B57A54"/>
<path d="M34.5434 124.493L37.7262 124.474L37.8036 129.995L34.4254 129.685L34.5434 124.493Z" fill="#A2714E"/>
<path d="M64.8998 16.4724C64.8637 14.4296 64.7603 13.6144 65.4218 11.6178C68.4302 10.9926 82.5746 11.1624 86.6809 11.0357L86.6105 16.4015L86.5902 22.2651L86.6238 27.2217L81.084 27.2388C78.3744 27.342 78.1277 26.8486 76.5959 28.3574C76.568 29.8162 76.5591 31.275 76.5686 32.7344L75.784 32.7585C75.7568 34.1926 75.6128 36.509 75.9191 37.8265L70.543 38.4498C70.6083 36.4374 70.7428 35.5468 70.2284 33.5661C68.181 32.2682 67.7814 32.7084 64.9633 32.6204L64.9436 27.3009L64.8865 22.2657L64.4324 22.179L64.5098 21.7045L64.87 21.4689L64.8998 16.4724Z" fill="#3A1E16"/>
<path d="M64.8865 22.2657C69.0842 22.0364 76.483 20.7968 80.2741 22.7966C81.2432 23.3077 81.105 26.1993 81.084 27.2388C78.3744 27.342 78.1277 26.8486 76.5959 28.3574C76.568 29.8162 76.5591 31.275 76.5686 32.7344L75.784 32.7585C75.7568 34.1926 75.6128 36.509 75.9191 37.8265L70.543 38.4498C70.6083 36.4374 70.7428 35.5468 70.2284 33.5661C68.181 32.2682 67.7814 32.7084 64.9633 32.6204L64.9436 27.3009L64.8865 22.2657Z" fill="#3A1E16"/>
<path d="M64.9436 27.3009C68.0078 27.2806 72.874 26.651 75.0901 27.9482C76.1551 29.4311 75.8487 30.8455 75.784 32.7585C75.7568 34.1926 75.6128 36.509 75.9191 37.8265L70.543 38.4498C70.6083 36.4374 70.7428 35.5468 70.2284 33.5661C68.181 32.2682 67.7814 32.7084 64.9633 32.6204L64.9436 27.3009Z" fill="#EFBF7A"/>
<path d="M64.8998 16.4724L69.2503 16.4807L70.0508 17.0387C73.2793 16.848 77.7674 16.0886 80.2918 17.6633C81.0003 19.0245 80.7942 19.7232 80.7092 21.3232C82.4541 21.5354 84.9842 21.7362 86.5902 22.2651L86.6238 27.2217L81.084 27.2388C81.105 26.1993 81.2432 23.3077 80.2741 22.7966C76.483 20.7968 69.0842 22.0364 64.8865 22.2657L64.4324 22.179L64.5098 21.7045L64.87 21.4689L64.8998 16.4724Z" fill="#9C5B46"/>
<path d="M70.0508 17.0387C73.2793 16.848 77.7674 16.0886 80.2918 17.6633C81.0003 19.0245 80.7942 19.7232 80.7092 21.3232C77.1553 21.3264 73.6021 21.3713 70.0502 21.4575L70.0508 17.0387Z" fill="#C6775A"/>
<path d="M64.8998 16.4724L69.2503 16.4807L70.0508 17.0387L70.0502 21.4575C68.4397 21.5487 66.5096 21.4803 64.87 21.4689L64.8998 16.4724Z" fill="#EBAF7E"/>
<path d="M69.2503 16.4807C75.0368 16.4148 80.8234 16.3882 86.6105 16.4015L86.5902 22.2651C84.9842 21.7362 82.4541 21.5354 80.7092 21.3232C80.7942 19.7232 81.0003 19.0245 80.2918 17.6633C77.7674 16.0886 73.2793 16.848 70.0508 17.0387L69.2503 16.4807Z" fill="#A46540"/>
<path d="M65.0565 70.64C67.1331 70.486 68.5457 70.227 70.5487 70.8116L70.7891 75.4312L70.7098 75.8847C70.5113 77.7793 70.2411 79.8855 70.1377 81.7686L70.6978 81.571L70.6781 85.82C70.6781 87.7121 70.7796 95.6812 70.5062 97.1375C70.2849 99.0086 70.2652 100.36 69.4565 102.064C67.8879 102.629 67.2606 102.727 65.6058 103.02L65.0705 103.305L64.9024 103.65C63.3066 102.265 56.5908 103.138 54.0696 103.277L53.5584 103.184L53.7404 102.525C54.0328 101.275 54.0721 99.4824 54.1603 98.1516L53.5102 97.5752L54.041 97.375L54.3455 92.2956L54.2129 91.9763C54.0582 90.0482 53.7207 88.9504 54.792 87.4118C57.3723 86.0088 61.7272 86.6416 65.0058 86.7265L65.0565 70.64Z" fill="#3A2420"/>
<path d="M54.3455 92.2956C57.4439 92.1873 62.0532 91.5285 64.3683 93.0918C65.314 94.6678 65.0724 95.7661 65.0172 97.6315C60.7276 97.7582 58.3503 97.7842 54.041 97.375L54.3455 92.2956Z" fill="#AB8265"/>
<path d="M54.1603 98.1516C57.4642 98.0623 61.8496 97.394 64.3918 98.8522C65.3267 100.362 65.0997 101.496 65.0705 103.305L64.9024 103.65C63.3066 102.265 56.5908 103.138 54.0696 103.277L53.5584 103.184L53.7404 102.525C54.0328 101.275 54.0721 99.4824 54.1603 98.1516Z" fill="#5A4541"/>
<path d="M70.1377 81.7686L70.6978 81.571L70.6781 85.82C70.6781 87.7121 70.7796 95.6812 70.5062 97.1375C70.2849 99.0086 70.2652 100.36 69.4565 102.064C67.8879 102.629 67.2606 102.727 65.6058 103.02L65.0705 103.305C65.0997 101.496 65.3267 100.362 64.3918 98.8522C61.8496 97.394 57.4642 98.0623 54.1603 98.1516L53.5102 97.5752L54.041 97.375C58.3503 97.7842 60.7276 97.7582 65.0172 97.6315C66.809 97.7 67.2372 97.7519 68.9573 97.2864C71.1722 94.6101 70.1174 86.0538 70.1377 81.7686Z" fill="#814A32"/>
<path d="M43.3801 38.2199C44.5313 38.0204 47.6729 37.9222 48.9909 37.8506L54.2332 38.059C55.5049 38.1496 58.1905 38.2579 59.3277 38.4498C59.3315 41.2223 59.3024 43.9948 59.2408 46.7667C59.2034 51.2153 59.9563 54.9671 59.5085 59.4935L59.4527 59.9464L54.1933 59.9084C51.6708 59.9711 50.935 59.543 49.18 60.7978L48.5368 63.4753L48.3687 60.1637L43.1169 60.1517L43.4721 58.9083L43.434 54.9759L43.3801 38.2199Z" fill="#814A32"/>
<path d="M54.2332 38.059C55.5049 38.1496 58.1905 38.2579 59.3277 38.4498C59.3315 41.2223 59.3024 43.9948 59.2408 46.7667C59.2034 51.2153 59.9563 54.9671 59.5085 59.4935C57.3469 59.4999 56.6898 59.5176 54.4946 59.0267C53.8432 54.677 54.2009 42.9712 54.2332 38.059Z" fill="#2C1F1D"/>
<path d="M43.3801 38.2199C46.3098 38.5037 46.346 38.0102 48.1093 39.6172C49.6848 44.8259 48.3148 49.379 48.6383 55.5695L48.3687 60.1637L43.1169 60.1517L43.4721 58.9083L43.434 54.9759L43.3801 38.2199Z" fill="#3A1E16"/>
<path d="M43.434 54.9759C45.295 55.0387 46.889 54.9601 48.6383 55.5695L48.3687 60.1637L43.1169 60.1517L43.4721 58.9083L43.434 54.9759Z" fill="#59321E"/>
<path d="M49.3582 38.6094C50.3959 38.6696 52.3209 38.5556 52.7186 39.1814C54.3886 41.8095 53.7233 51.4763 53.7575 54.7739C52.137 54.9297 51.7577 55.064 50.2297 54.6269C47.9939 51.7866 49.211 42.7109 49.3582 38.6094Z" fill="#A46540"/>
<path d="M10.7968 109.327C13.0396 107.314 33.6415 108.244 37.8048 108.285L37.8613 113.792L33.7918 113.827C33.7512 115.405 33.6193 117.575 33.7461 119.092L16.3073 119.101L16.0016 113.834L11.0086 113.832L10.7968 109.327Z" fill="#582C1C"/>
<path d="M16.0016 113.834L33.7918 113.827C33.7512 115.405 33.6193 117.575 33.7461 119.092L16.3073 119.101L16.0016 113.834Z" fill="#CB8B5F"/>
<path d="M64.8998 16.4724L64.87 21.4689L64.5098 21.7045L64.4324 22.179L64.8865 22.2657L64.9436 27.3009L64.9633 32.6204C64.955 36.217 65.021 40.1202 64.9284 43.6851C63.0636 43.7744 62.1718 43.9796 60.4618 43.2252C59.6392 41.3598 59.61 40.4356 59.3277 38.4498C58.1905 38.2579 55.5049 38.1496 54.2332 38.059C54.3182 34.5967 54.1051 30.5985 54.0055 27.0982L54.3937 25.2574L54.2148 21.8889C55.5925 21.7197 56.9682 21.5398 58.3427 21.3492C59.643 19.7371 59.2725 18.8864 59.4635 16.4655L64.8998 16.4724Z" fill="#9C5B46"/>
<path d="M64.5244 32.875L64.9633 32.6204C64.955 36.217 65.021 40.1202 64.9284 43.6851C63.0636 43.7744 62.1718 43.9796 60.4618 43.2252C59.6392 41.3598 59.61 40.4356 59.3277 38.4498L59.5275 38.0634L59.3785 32.8966L59.9969 32.9358L64.5244 32.875Z" fill="#A46540"/>
<path d="M59.9969 32.9358L64.5244 32.875C64.5402 35.766 65.0121 35.7964 63.6725 37.81C61.8553 38.2066 61.3961 38.1616 59.5275 38.0634L59.3785 32.8966L59.9969 32.9358Z" fill="#C6775A"/>
<path d="M59.8003 27.2869L64.9436 27.3009L64.9633 32.6204L64.5244 32.875L59.9969 32.9358L59.8003 27.2869Z" fill="#3A1E16"/>
<path d="M64.8998 16.4724L64.87 21.4689L64.5098 21.7045L61.0764 21.5278C59.428 20.0525 59.8421 19.1873 59.4635 16.4655L64.8998 16.4724Z" fill="#3A1E16"/>
<path d="M64.4324 22.179L64.8865 22.2657L64.9436 27.3009L59.8003 27.2869C59.6296 25.3531 59.5662 24.9344 59.9658 23.0474C61.6885 21.8597 62.0342 22.2512 64.4324 22.179Z" fill="#CB8B5F"/>
<path d="M54.2148 21.8889C57.272 22.1555 57.052 21.657 59.0721 23.283C59.6227 25.1555 59.6557 24.3453 58.7214 26.3723C56.6936 27.4896 57.6063 27.3484 55.2944 26.8689L54.3937 25.2574L54.2148 21.8889Z" fill="#3A1E16"/>
<path d="M54.6214 27.5067C57.0761 27.7297 57.5556 27.3256 59.0671 28.7109L59.3785 32.8966C56.6365 32.6951 56.5769 33.1607 54.9265 31.6918C54.806 30.2856 54.6855 28.9193 54.6214 27.5067Z" fill="#C5865B"/>
<path d="M48.5368 63.4753L49.18 60.7978C50.935 59.543 51.6708 59.9711 54.1933 59.9084L54.2098 70.595C51.079 71.0175 51.2642 70.4886 49.3176 72.2729C48.363 75.6979 49.6817 76.9178 48.533 81.4405L47.0272 81.0142L43.4588 80.8818L43.3706 79.9482L42.4979 75.9557C42.2296 74.6457 42.1585 72.7018 42.0627 71.319L43.3687 70.5367C43.5698 67.4747 44.2142 66.2465 41.608 64.5115L42.7433 63.766C42.7351 62.6284 42.9672 61.3007 43.1169 60.1517L48.3687 60.1637L48.5368 63.4753Z" fill="#9C5B46"/>
<path d="M43.3687 70.5367C45.8513 70.6235 46.6657 70.1877 48.2545 71.49C48.3935 72.5998 48.5463 73.7077 48.6415 74.8219C48.5749 76.9559 48.4442 79.335 48.533 81.4405L47.0272 81.0142L43.4588 80.8818L43.3706 79.9482L42.4979 75.9557C42.2296 74.6457 42.1585 72.7018 42.0627 71.319L43.3687 70.5367Z" fill="#2C1F1D"/>
<path d="M43.3687 70.5367C45.8513 70.6235 46.6657 70.1877 48.2545 71.49C48.3935 72.5998 48.5463 73.7077 48.6415 74.8219C46.3111 74.5077 45.1745 73.8749 43.6205 74.9036C43.3243 76.8444 43.3586 78.0232 43.3706 79.9482L42.4979 75.9557C42.2296 74.6457 42.1585 72.7018 42.0627 71.319L43.3687 70.5367Z" fill="#492B25"/>
<path d="M48.5368 63.4753L49.18 60.7978C50.935 59.543 51.6708 59.9711 54.1933 59.9084L54.2098 70.595C52.3742 70.5279 51.2978 70.5627 49.5009 70.0255C48.2596 68.2146 48.6097 66.2459 48.5102 63.747L48.5368 63.4753Z" fill="#341D1A"/>
<path d="M43.1169 60.1517L48.3687 60.1637L48.5368 63.4753L48.5102 63.747C47.057 63.7381 44.0601 63.6425 42.7433 63.766C42.7351 62.6284 42.9672 61.3007 43.1169 60.1517Z" fill="#A46540"/>
<path d="M42.4979 75.9557L43.3706 79.9482L43.4588 80.8818L47.0272 81.0142L44.1463 81.7249C42.2892 85.0029 44.8282 84.1459 42.4573 86.57C39.733 86.7803 39.1787 86.3014 37.6812 87.8654C37.3126 89.5497 37.3101 89.7581 37.7135 91.4335C36.157 92.6516 35.3623 92.3355 33.0928 92.5394C32.475 91.0072 32.5264 88.4627 32.4471 86.7208C34.2707 86.7993 35.1707 86.9228 36.9752 86.4281C38.1512 84.6083 37.7154 83.7031 37.723 81.2005L37.7116 76.1033L42.4979 75.9557Z" fill="#3A1E16"/>
<path d="M42.4979 75.9557L43.3706 79.9482L43.4588 80.8818C41.8579 81.0839 39.4064 81.1251 37.723 81.2005L37.7116 76.1033L42.4979 75.9557Z" fill="#814A32"/>
<path d="M32.456 75.8961L37.3647 75.9361L37.7116 76.1033L37.723 81.2005C37.7154 83.7031 38.1512 84.6083 36.9752 86.4281C35.1707 86.9228 34.2707 86.7993 32.4471 86.7208C30.2398 86.7429 28.9389 86.5865 26.764 86.3306L27.0139 81.2397L31.1012 80.828C32.6425 79.2698 32.1998 78.5743 32.456 75.8961Z" fill="#9C5B46"/>
<path d="M32.456 75.8961L37.3647 75.9361L37.7116 76.1033L37.723 81.2005C36.4405 81.2695 35.0902 81.2366 33.8013 81.229C32.1928 79.5745 32.6932 78.8441 32.456 75.8961Z" fill="#3A1E16"/>
<path d="M27.0139 81.2397C29.5459 81.5172 30.5582 81.1732 32.2429 82.5674C32.3406 83.9932 32.4262 85.2867 32.4471 86.7208C30.2398 86.7429 28.9389 86.5865 26.764 86.3306L27.0139 81.2397Z" fill="#3A1E16"/>
<path d="M26.764 86.3306C28.9389 86.5865 30.2398 86.7429 32.4471 86.7208C32.5264 88.4627 32.475 91.0072 33.0928 92.5394L32.7509 92.8011C30.6857 92.2265 28.5216 91.8085 26.556 93.0386C25.6547 92.345 22.7865 92.383 21.3695 92.2702C21.4253 90.446 21.5135 89.4749 21.8008 87.6728C23.6497 86.2932 23.717 86.7379 26.4678 86.5903L26.764 86.3306Z" fill="#9C5B46"/>
<path d="M26.4678 86.5903C27.0038 89.2393 27.3317 88.9365 26.6029 91.2568C24.9253 92.3272 23.4055 92.174 21.3695 92.2702C21.4253 90.446 21.5135 89.4749 21.8008 87.6728C23.6497 86.2932 23.717 86.7379 26.4678 86.5903Z" fill="#3A1E16"/>
<path d="M54.2129 91.9763L54.3455 92.2956L54.041 97.375L53.5102 97.5752L43.3085 97.6246C43.2533 95.7237 42.9425 94.3675 44.0208 92.917C46.5553 91.4911 50.9477 91.9909 54.2129 91.9763Z" fill="#341D1A"/>
<path d="M48.9909 37.8506C49.048 34.7905 48.2368 30.8404 49.3823 28.308C51.2299 26.7548 51.0447 27.2495 54.0055 27.0982C54.1051 30.5985 54.3182 34.5967 54.2332 38.059L48.9909 37.8506Z" fill="#3A1E16"/>
<path d="M41.608 64.5115C44.2142 66.2465 43.5698 67.4747 43.3687 70.5367L42.0627 71.319C41.0327 71.1157 40.0286 70.8591 39.0081 70.6127C37.8017 68.7485 38.2565 67.8909 38.2672 65.3179L41.608 64.5115Z" fill="#341D1A"/>
<path d="M26.556 93.0386C28.5216 91.8085 30.6857 92.2265 32.7509 92.8011C32.4998 95.9517 33.0243 95.3747 31.2502 97.3909C29.3017 98.03 30.1587 98.0142 27.8848 97.0894C26.6067 95.6363 26.6923 94.9566 26.556 93.0386Z" fill="#341D1A"/>
<path d="M37.7376 65.3508L38.2672 65.3179C38.2565 67.8909 37.8017 68.7485 39.0081 70.6127C40.0286 70.8591 41.0327 71.1157 42.0627 71.319C42.1585 72.7018 42.2296 74.6457 42.4979 75.9557L37.7116 76.1033L37.3647 75.9361C37.8321 74.1099 37.7205 67.5868 37.7376 65.3508Z" fill="#59321E"/>
<path d="M43.4721 58.9083L43.1169 60.1517C42.9672 61.3007 42.7351 62.6284 42.7433 63.766L41.608 64.5115L38.2672 65.3179L37.7376 65.3508L37.7814 61.4838C39.1787 59.5296 40.994 60.6077 43.4721 58.9083Z" fill="#EBAF7E"/>
<path d="M10.6471 9.88351L11.6035 11.0883C13.3922 11.1896 13.8381 11.1383 15.6077 10.8374C15.4517 13.2932 15.8443 14.0337 14.5472 15.6838L11.0777 16.3457C11.0124 14.4987 10.7003 12.9968 10.3756 11.1941L10.0711 10.712L10.6471 9.88351Z" fill="#EABC89"/>
</svg>
