<svg width="168" height="179" viewBox="0 0 168 179" fill="none" xmlns="http://www.w3.org/2000/svg">
<path d="M10.982 2.61455e-06C21.7512 0.563918 35.1534 0.17365 46.085 0.158924L106.708 0.146667C116.863 0.144213 127.169 0.146659 137.336 0.0196396C138.727 0.00245832 140.078 0.897102 141.069 1.82796C141.746 3.4295 141.71 2.63734 141.208 4.28245C138.122 5.91713 113.081 5.128 107.89 5.12063L51.878 5.18875C46.8105 5.19734 13.7909 5.56368 10.9489 4.99608L10.982 2.61455e-06Z" fill="#572C1A"/>
<path d="M141.481 10.4935C141.496 8.93429 141.567 8.08442 141.778 6.53872C143.302 5.27528 144.498 5.56921 146.8 5.32253L146.494 10.2033L146.368 10.5101L141.481 10.4935Z" fill="#572C1A"/>
<path d="M5.54803 5.23848L11.1278 5.71279L104.393 5.66309C108.937 5.66002 137.268 5.344 140.675 6.06193C141.034 7.67084 141.265 8.86066 141.481 10.4935L146.368 10.5101L146.494 10.2033C149.321 10.5236 150.221 10.091 151.862 11.6655C151.952 13.1241 152.042 14.5004 152.062 15.9657C154.13 15.9921 155.119 15.6467 156.655 16.6033L156.641 17.1316C156.606 18.8209 156.521 19.4069 157.565 20.7998C159.28 21.1447 159.81 21.1428 161.566 21.1183C163.336 22.6885 163.196 22.9131 162.924 25.3596C165.277 26.7574 167.719 26.3126 167.743 27.6766C168.073 46.2208 167.896 70.2464 167.883 88.169L167.893 140.261C167.894 146.378 168.272 161.316 167.6 166.888C164.991 168.573 164.374 166.375 162.484 168.474L162.512 172.058C160.163 174.198 156.055 170.801 156.622 176.893C154.017 178.808 145.172 178.184 141.689 178.138C130.698 177.595 114.249 178.109 102.859 178.115L21.3639 178.057L21.4718 174.522C20.2034 172.578 19.6519 173.005 16.7456 172.181C15.5041 170.596 15.9018 170.119 15.7903 167.747L12.4293 167.661C10.7209 166.503 10.8962 165.636 10.0727 163.306C8.49543 162.205 7.96721 162.579 5.73922 162.525L5.52415 157.414C3.63441 157.405 2.16073 157.583 0.527733 156.605C-0.162845 153.396 -0.248026 14.6299 0.709101 11.2495C2.43095 10.0222 3.06578 10.4579 5.54928 10.4321L5.54803 5.23848Z" fill="#F3C481"/>
<path d="M65.0995 53.1461L66.4531 53.4265L66.6963 53.8254C67.8085 55.6091 68.6945 55.9362 69.5371 57.1536L69.8116 57.1432C71.4679 61.2563 71.2608 56.8578 73.0893 61.6754C70.6719 62.9842 67.7699 62.5676 65.0333 62.3166C64.4365 61.8079 63.9156 59.081 63.6485 58.0722L63.499 55.4797C63.9745 53.8707 63.7527 54.4144 65.0995 53.1461Z" fill="#B69A4E"/>
<path d="M65.0995 53.1461L66.4531 53.4265L66.6963 53.8254C67.8085 55.6091 68.6945 55.9362 69.5371 57.1536C67.8128 58.5741 67.4464 58.4612 64.6369 58.182C64.3072 58.1495 63.9775 58.1127 63.6485 58.0722L63.499 55.4797C63.9745 53.8707 63.7527 54.4144 65.0995 53.1461Z" fill="#C6A854"/>
<path d="M63.8304 120.651L64.4867 122.217C66.1589 124.277 68.5886 123.658 71.1493 123.416L73.2394 123.855L74.0709 125.695L74.1812 126.571C71.7154 126.624 70.5322 126.506 68.0848 126.213L67.7656 125.589C66.1191 125.558 64.9708 125.654 63.3519 125.786C63.9248 124.306 63.836 122.247 63.8304 120.651Z" fill="#C88758"/>
<path d="M51.1078 131.081C51.9669 130.527 52.0943 129.912 52.628 128.903L53.2114 130.658C54.0993 130.926 54.6447 131.135 55.5859 131.195C55.7856 133.204 55.9382 134.495 55.8395 136.548C54.0821 135.839 52.7187 135.843 50.8406 135.683L51.1078 131.081Z" fill="#C08052"/>
<path d="M141.481 10.4935L146.368 10.5101L146.494 10.2033C149.321 10.5236 150.221 10.091 151.862 11.6655C151.952 13.1241 152.042 14.5004 152.062 15.9657C154.13 15.9921 155.119 15.6467 156.655 16.6033L156.641 17.1316C156.606 18.8209 156.521 19.4069 157.565 20.7998C159.28 21.1447 159.81 21.1428 161.566 21.1183C163.336 22.6885 163.196 22.9131 162.924 25.3596C165.277 26.7574 167.719 26.3126 167.743 27.6766C168.073 46.2208 167.896 70.2464 167.883 88.169L167.893 140.261C167.894 146.378 168.272 161.316 167.6 166.888C164.991 168.573 164.374 166.375 162.484 168.474L162.512 172.058C160.163 174.198 156.055 170.801 156.622 176.893C154.017 178.808 145.172 178.184 141.689 178.138C130.698 177.595 114.249 178.109 102.859 178.115L21.3639 178.057L21.4718 174.522C20.2034 172.578 19.6519 173.005 16.7456 172.181C15.5041 170.596 15.9018 170.119 15.7903 167.747L12.4293 167.661C10.7209 166.503 10.8962 165.636 10.0727 163.306C8.49543 162.205 7.96721 162.579 5.73922 162.525L5.52415 157.414L5.61666 146.128L6.22452 146.318C7.82933 146.436 8.24478 146.422 9.83733 146.191C11.0984 144.43 10.629 144.151 10.5984 141.478L10.58 137.207L11.058 137.058L11.0193 130.801L17.313 130.871L17.9803 130.92C21.6599 130.848 34.749 130.51 37.8293 131.313C38.9415 131.001 40.0377 130.421 41.0898 129.916C41.3992 128.473 43.9483 126.714 45.1604 125.773L45.979 125.961C48.0489 125.833 50.7935 125.356 52.3977 126.407C52.7353 127.615 52.7855 127.593 52.628 128.903C52.0943 129.912 51.9669 130.527 51.1078 131.081L50.8406 135.683C52.7187 135.843 54.0821 135.839 55.8395 136.548C55.9382 134.495 55.7856 133.204 55.5859 131.195L56.0252 130.247C56.7654 127.974 56.9467 127.08 57.315 124.728L58.3984 126.019L62.7085 125.998L63.3519 125.786C64.9708 125.654 66.1191 125.558 67.7656 125.589L68.0848 126.213C70.5322 126.506 71.7154 126.624 74.1812 126.571L74.0709 125.695L78.5073 126.029L81.6832 125.897C83.5012 124.676 82.9693 125.352 83.7549 123.382L85.1593 123.008L88.1428 122.457L88.717 120.85C90.6999 120.248 91.6956 120.239 93.7116 120.104C94.04 120.987 94.5241 122.157 94.7147 123.041C97.6664 123.403 100.761 123.029 102.727 124.182L102.913 125.225C105.325 126.113 106.223 126.587 108.79 126.348C109.317 125.174 109.505 124.96 110.291 123.928C112.128 123.408 113.235 123.417 115.103 123.324L115.74 125.536C120.018 124.849 136.712 125.231 141.655 125.257C141.469 114.651 141.629 103.597 141.632 92.9558L141.635 43.5884C141.638 34.9769 141.338 24.603 141.854 16.1136L141.512 15.6319C141.621 13.9156 141.531 12.2135 141.481 10.4935Z" fill="#A4A1A6"/>
<path d="M141.632 92.9558C143.154 92.8233 145.088 92.7146 146.563 92.5066L146.597 117.64C146.477 122.438 147.29 144.534 145.52 146.436C143.51 146.534 142.528 146.174 141.392 147.29L141.077 150.883C139.04 152.305 20.9038 152.067 11.0433 151.677C10.9489 149.887 11.0494 148.972 10.2172 147.379C8.82015 146.952 7.64734 146.65 6.22452 146.318C7.82933 146.436 8.24478 146.422 9.83733 146.191C11.0984 144.43 10.629 144.151 10.5984 141.478L10.58 137.207L11.058 137.058L11.0193 130.801L17.313 130.871L17.9803 130.92C21.6599 130.848 34.749 130.51 37.8293 131.313C38.9415 131.001 40.0377 130.421 41.0898 129.916C41.3992 128.473 43.9483 126.714 45.1604 125.773L45.979 125.961C48.0489 125.833 50.7935 125.356 52.3977 126.407C52.7353 127.615 52.7855 127.593 52.628 128.903C52.0943 129.912 51.9669 130.527 51.1078 131.081L50.8406 135.683C52.7187 135.843 54.0821 135.839 55.8395 136.548C55.9382 134.495 55.7856 133.204 55.5859 131.195L56.0252 130.247C56.7654 127.974 56.9467 127.08 57.315 124.728L58.3984 126.019L62.7085 125.998L63.3519 125.786C64.9708 125.654 66.1191 125.558 67.7656 125.589L68.0848 126.213C70.5322 126.506 71.7154 126.624 74.1812 126.571L74.0709 125.695L78.5073 126.029L81.6832 125.897C83.5012 124.676 82.9693 125.352 83.7549 123.382L85.1593 123.008L88.1428 122.457L88.717 120.85C90.6999 120.248 91.6956 120.239 93.7116 120.104C94.04 120.987 94.5241 122.157 94.7147 123.041C97.6664 123.403 100.761 123.029 102.727 124.182L102.913 125.225C105.325 126.113 106.223 126.587 108.79 126.348C109.317 125.174 109.505 124.96 110.291 123.928C112.128 123.408 113.235 123.417 115.103 123.324L115.74 125.536C120.018 124.849 136.712 125.231 141.655 125.257C141.469 114.651 141.629 103.597 141.632 92.9558Z" fill="#9A5A38"/>
<path d="M141.632 92.9558C143.154 92.8233 145.088 92.7146 146.563 92.5066L146.597 117.64C146.477 122.438 147.29 144.534 145.52 146.436C143.51 146.534 142.528 146.174 141.392 147.29L141.077 150.883C139.04 152.305 20.9038 152.067 11.0433 151.677C10.9489 149.887 11.0494 148.972 10.2172 147.379C8.82015 146.952 7.64734 146.65 6.22452 146.318C7.82933 146.436 8.24478 146.422 9.83733 146.191C11.0984 144.43 10.629 144.151 10.5984 141.478L10.58 137.207L11.058 137.058C11.145 139.418 10.7589 139.694 11.9501 141.368L14.3681 141.424C16.3289 143.073 14.7786 143.279 16.1083 146.398C18.8584 147.15 27.4174 146.777 30.7293 146.774L58.3873 146.754C82.6924 146.733 107.045 146.612 131.356 146.871C133.175 146.89 134.942 146.968 136.225 145.948L136.647 142.225C138.912 139.33 137.689 142.564 140.705 140.477C141.849 137.911 141.548 133.847 141.547 130.914C134.454 130.658 126.369 130.82 119.194 130.817L115.925 130.664L114.854 130.547L113.78 127.53C111.889 126.184 111.472 126.582 108.79 126.348C109.317 125.174 109.505 124.96 110.291 123.928C112.128 123.408 113.235 123.417 115.103 123.324L115.74 125.536C120.018 124.849 136.712 125.231 141.655 125.257C141.469 114.651 141.629 103.597 141.632 92.9558Z" fill="#D29362"/>
<path d="M115.103 123.324L115.74 125.536L116.207 125.613C121.417 126.426 139.308 124.747 141.382 126.802C141.475 128.204 141.589 129.504 141.547 130.914C134.454 130.658 126.369 130.82 119.194 130.817L115.925 130.664L114.854 130.547L113.78 127.53C111.889 126.184 111.472 126.582 108.79 126.348C109.317 125.174 109.505 124.96 110.291 123.928C112.128 123.408 113.235 123.417 115.103 123.324Z" fill="#5F2A0E"/>
<path d="M100.137 126.564C102.21 126.294 101.479 126.662 102.913 125.225C105.325 126.113 106.223 126.587 108.79 126.348C111.472 126.582 111.889 126.184 113.78 127.53L114.854 130.547L115.925 130.664L114.981 131.824C115.24 132.908 115.403 133.687 115.816 134.741C115.115 137.465 115.694 136.942 113.774 138.247C110.429 138.499 108.069 137.463 105.627 138.527L105.013 140.768C101.404 142.361 98.132 141.529 94.2404 140.864C93.0486 140.661 92.6484 139.136 92.1803 138.074C93.4867 136.852 93.7434 136.649 95.4812 136.411L98.371 136.005C99.8551 134.015 99.4378 133.617 99.7552 130.754L99.1939 130.633C99.2068 129.614 99.6075 128.224 99.8581 127.188L100.137 126.564Z" fill="#572C1A"/>
<path d="M100.137 126.564C102.21 126.294 101.479 126.662 102.913 125.225C105.325 126.113 106.223 126.587 108.79 126.348C111.472 126.582 111.889 126.184 113.78 127.53L114.854 130.547C112.76 130.75 106.385 131.538 104.788 130.885C103.043 130.175 101.663 130.537 99.7552 130.754L99.1939 130.633C99.2068 129.614 99.6075 128.224 99.8581 127.188L100.137 126.564Z" fill="#83472D"/>
<path d="M99.8581 127.188C102.468 127.306 102.9 126.888 104.711 128.154C105.022 129.553 105.072 129.51 104.788 130.885C103.043 130.175 101.663 130.537 99.7552 130.754L99.1939 130.633C99.2068 129.614 99.6075 128.224 99.8581 127.188Z" fill="#693712"/>
<path d="M114.854 130.547L115.925 130.664L114.981 131.824C115.24 132.908 115.403 133.687 115.816 134.741C112.523 134.038 110.298 135.059 106.304 134.042C104.629 132.608 105.082 133.407 104.788 130.885C106.385 131.538 112.76 130.75 114.854 130.547Z" fill="#5F2F17"/>
<path d="M93.7116 120.104C94.04 120.987 94.5241 122.157 94.7147 123.041C97.6664 123.403 100.761 123.029 102.727 124.182L102.913 125.225C101.479 126.662 102.21 126.294 100.137 126.564L99.8581 127.188C99.6075 128.224 99.2068 129.614 99.1939 130.633L99.7552 130.754C99.4378 133.617 99.8551 134.015 98.371 136.005L95.4812 136.411C93.7434 136.649 93.4867 136.852 92.1803 138.074L90.1527 138.106C86.3144 134.651 84.2653 137.242 84.4019 131.244C84.685 129.091 84.4559 127.682 85.6894 126.343C85.701 125.6 85.3089 123.814 85.1593 123.008L88.1428 122.457L88.717 120.85C90.6999 120.248 91.6956 120.239 93.7116 120.104Z" fill="#5F2F17"/>
<path d="M93.7116 120.104C94.04 120.987 94.5241 122.157 94.7147 123.041C97.6664 123.403 100.761 123.029 102.727 124.182L102.913 125.225C101.479 126.662 102.21 126.294 100.137 126.564L99.2577 126.594C94.7343 126.565 90.2109 126.481 85.6894 126.343C85.701 125.6 85.3089 123.814 85.1593 123.008L88.1428 122.457L88.717 120.85C90.6999 120.248 91.6956 120.239 93.7116 120.104Z" fill="#C88758"/>
<path d="M99.2577 126.594L100.137 126.564L99.8581 127.188C99.6075 128.224 99.2068 129.614 99.1939 130.633C96.1883 131.165 89.361 130.971 86.3052 130.624L84.4019 131.244C84.685 129.091 84.4559 127.682 85.6894 126.343C90.2109 126.481 94.7343 126.565 99.2577 126.594Z" fill="#9E643F"/>
<path d="M85.6894 126.343C90.2109 126.481 94.7343 126.565 99.2577 126.594C95.4714 127.402 89.5724 129.084 86.2329 129.658L86.3052 130.624L84.4019 131.244C84.685 129.091 84.4559 127.682 85.6894 126.343Z" fill="#A9643B"/>
<path d="M45.979 125.961C48.0489 125.833 50.7935 125.356 52.3977 126.407C52.7353 127.615 52.7855 127.593 52.628 128.903C52.0943 129.912 51.9669 130.527 51.1078 131.081L50.8406 135.683L47.1935 135.717C47.2799 137.972 47.2897 139.215 45.93 140.893C43.5439 140.374 43.191 136.736 41.6879 136.168C40.6045 135.759 39.2013 136.69 37.1522 135.253C36.9047 133.547 37.2576 132.962 37.8293 131.313C38.9415 131.001 40.0377 130.421 41.0898 129.916C41.3992 128.473 43.9483 126.714 45.1604 125.773L45.979 125.961Z" fill="#BA7948"/>
<path d="M45.979 125.961C48.0489 125.833 50.7935 125.356 52.3977 126.407C52.7353 127.615 52.7855 127.593 52.628 128.903C52.0943 129.912 51.9669 130.527 51.1078 131.081L46.6953 130.846C45.7706 129.498 46.055 127.87 45.979 125.961Z" fill="#C88758"/>
<path d="M46.6953 130.846L51.1078 131.081L50.8406 135.683L47.1935 135.717L46.6953 130.846Z" fill="#AE6F44"/>
<path d="M57.315 124.728L58.3984 126.019L62.7085 125.998L63.3519 125.786C64.9708 125.654 66.1191 125.558 67.7656 125.589L68.0848 126.213L68.1056 130.829L65.8146 130.861L65.7116 131.331C62.3065 132.202 64.2594 132.735 61.4615 133.715C59.9627 134.241 58.418 134.776 56.8652 135.12C56.277 136.206 56.247 136.178 56.0251 137.465L55.8395 136.548C55.9382 134.495 55.7856 133.204 55.5859 131.195L56.0252 130.247C56.7654 127.974 56.9467 127.08 57.315 124.728Z" fill="#83472D"/>
<path d="M63.3519 125.786C64.9708 125.654 66.1191 125.558 67.7656 125.589L68.0848 126.213L68.1056 130.829L65.8146 130.861L63.2251 130.86L62.7575 130.383C62.9671 128.765 62.8206 127.609 62.7085 125.998L63.3519 125.786Z" fill="#BA7948"/>
<path d="M58.3984 126.019L62.7085 125.998C62.8206 127.609 62.9671 128.765 62.7575 130.383C61.1938 130.196 60.9615 130.16 59.554 129.461L58.3984 126.019Z" fill="#9A5A38"/>
<path d="M57.315 124.728L58.3984 126.019L59.554 129.461C60.9615 130.16 61.1938 130.196 62.7575 130.383L63.2251 130.86C60.4223 130.944 58.6564 131.175 56.0252 130.247C56.7654 127.974 56.9467 127.08 57.315 124.728Z" fill="#8C502D"/>
<path d="M74.1812 126.571C77.2842 126.483 83.1219 125.795 84.7077 129.082C82.9975 131.115 82.0177 130.919 79.2775 130.914C75.5544 130.817 71.8299 130.788 68.1056 130.829L68.0848 126.213C70.5322 126.506 71.7154 126.624 74.1812 126.571Z" fill="#D29362"/>
<path d="M17.313 130.871L17.9803 130.92C21.0324 131.482 26.0485 130.604 26.8677 134.528C23.6017 136.887 18.6984 136.354 14.7394 136.261C14.221 134.935 13.7167 133.603 13.2265 132.265C14.4532 130.832 14.9765 131.209 17.313 130.871Z" fill="#C88758"/>
<path d="M78.5073 126.029L81.6832 125.897C83.5012 124.676 82.9693 125.352 83.7549 123.382L85.1593 123.008C85.3089 123.814 85.701 125.6 85.6894 126.343C84.4559 127.682 84.685 129.091 84.4019 131.244C81.8045 131.698 81.1874 131.189 81.0122 134.252C78.0275 136.189 76.0862 134.638 73.7081 135.847C73.5408 134.316 73.58 133.911 73.762 132.377C75.3319 130.952 76.786 131.237 79.2775 130.914C82.0177 130.919 82.9975 131.115 84.7077 129.082C83.1219 125.795 77.2842 126.483 74.1812 126.571L74.0709 125.695L78.5073 126.029Z" fill="#BA7948"/>
<path d="M68.1056 130.829C71.8299 130.788 75.5544 130.817 79.2775 130.914C76.786 131.237 75.3319 130.952 73.762 132.377C73.58 133.911 73.5408 134.316 73.7081 135.847C73.493 138.032 72.7167 138.152 71.0352 139.138L72.2846 138.871C67.2858 138.453 67.9463 135.097 68.1056 130.829Z" fill="#C08052"/>
<path d="M56.0251 137.465C56.247 136.178 56.277 136.206 56.8652 135.12C58.418 134.776 59.9627 134.241 61.4615 133.715C64.2594 132.735 62.3065 132.202 65.7116 131.331C66.8507 138.443 61.3684 138.044 56.0251 137.465Z" fill="#693712"/>
<path d="M115.925 130.664L119.194 130.817L118.949 133.668C117.599 134.795 117.858 134.445 115.816 134.741C115.403 133.687 115.24 132.908 114.981 131.824L115.925 130.664Z" fill="#693712"/>
<path d="M130.408 131.409C131.351 131.341 132.295 131.285 133.24 131.242C135.088 131.173 135.723 131.136 137.075 132.387L137.113 135.791C135.777 135.891 133.396 136.34 132.223 135.662C131.121 135.025 130.73 132.592 130.408 131.409Z" fill="#C08052"/>
<path d="M146.597 117.64C147.577 125.756 147.203 147.614 146.183 155.857C145.16 156.739 142.939 156.735 141.474 156.886L141.742 162.075L142.02 162.208C141.704 163.774 141.426 165.348 141.188 166.928C138.564 168.605 29.6901 167.131 15.7903 167.747L12.4293 167.661C10.7209 166.503 10.8962 165.636 10.0727 163.306C8.49543 162.205 7.96721 162.579 5.73922 162.525L5.52415 157.414L5.61666 146.128L6.22452 146.318C7.64734 146.65 8.82015 146.952 10.2172 147.379C11.0494 148.972 10.9489 149.887 11.0433 151.677C20.9038 152.067 139.04 152.305 141.077 150.883L141.392 147.29C142.528 146.174 143.51 146.534 145.52 146.436C147.29 144.534 146.477 122.438 146.597 117.64Z" fill="#9A5A38"/>
<path d="M5.73922 162.525L6.10625 158.356C7.56094 156.798 8.4709 157.14 11.0181 156.722C10.9906 158.456 10.6756 160.982 11.5335 162.29L97.507 162.371C109.632 162.374 130.689 163.01 141.742 162.075L142.02 162.208C141.704 163.774 141.426 165.348 141.188 166.928C138.564 168.605 29.6901 167.131 15.7903 167.747L12.4293 167.661C10.7209 166.503 10.8962 165.636 10.0727 163.306C8.49543 162.205 7.96721 162.579 5.73922 162.525Z" fill="#572C1A"/>
<path d="M5.61666 146.128L6.22452 146.318C7.64734 146.65 8.82015 146.952 10.2172 147.379C11.0494 148.972 10.9489 149.887 11.0433 151.677C9.04629 152.012 7.92493 151.991 6.58176 153.546L6.35138 154.779C7.93781 156.781 7.75581 156.215 11.0181 156.722C8.4709 157.14 7.56094 156.798 6.10625 158.356L5.73922 162.525L5.52415 157.414L5.61666 146.128Z" fill="#83472D"/>
<path d="M141.481 10.4935L146.368 10.5101L146.494 10.2033C149.321 10.5236 150.221 10.091 151.862 11.6655C151.952 13.1241 152.042 14.5004 152.062 15.9657L151.941 116.778L151.948 142.773C151.955 146.086 152.189 153.77 151.659 156.604C150.006 157.567 148.57 157.273 146.599 157.192C144.971 157.289 143.119 157.041 141.474 156.886C142.939 156.735 145.16 156.739 146.183 155.857C147.203 147.614 147.577 125.756 146.597 117.64L146.563 92.5066C145.088 92.7146 143.154 92.8233 141.632 92.9558L141.635 43.5884C141.638 34.9769 141.338 24.603 141.854 16.1136L141.512 15.6319C141.621 13.9156 141.531 12.2135 141.481 10.4935Z" fill="#5F2F17"/>
<path d="M141.854 16.1136L146.561 16.2996L146.563 92.5066C145.088 92.7146 143.154 92.8233 141.632 92.9558L141.635 43.5884C141.638 34.9769 141.338 24.603 141.854 16.1136Z" fill="#D29362"/>
<path d="M141.481 10.4935L146.368 10.5101L146.561 16.2996L141.854 16.1136L141.512 15.6319C141.621 13.9156 141.531 12.2135 141.481 10.4935Z" fill="#EFBC84"/>
<path d="M141.474 156.886C143.119 157.041 144.971 157.289 146.599 157.192C146.518 159.78 146.973 160.411 145.621 162.086C144.249 162.196 143.391 162.282 142.02 162.208L141.742 162.075L141.474 156.886Z" fill="#572C1A"/>
<path d="M5.54803 5.23848L11.1278 5.71279L104.393 5.66309C108.937 5.66002 137.268 5.344 140.675 6.06193C141.034 7.67084 141.265 8.86066 141.481 10.4935C141.531 12.2135 141.621 13.9156 141.512 15.6319C138.436 15.5258 138.454 16.0302 136.409 14.4992C135.986 13.1811 135.692 12.2368 135.391 10.8875C132.783 10.2855 100.121 10.5058 94.7796 10.5015L44.3951 10.48C36.1841 10.48 24.228 10.1425 16.4208 10.7635C14.6408 12.605 16.8136 13.9709 14.8687 16.0412L11.4593 15.8369C9.83982 17.6575 10.8845 55.114 10.8061 60.7102C10.5126 78.267 10.4244 95.8269 10.542 113.386C10.5543 120.156 10.1915 130.113 10.5426 136.571L10.58 137.207L10.5984 141.478C10.629 144.151 11.0984 144.43 9.83733 146.191C8.24478 146.422 7.82933 146.436 6.22452 146.318L5.61666 146.128L5.52415 157.414C3.63441 157.405 2.16073 157.583 0.527733 156.605C-0.162845 153.396 -0.248026 14.6299 0.709101 11.2495C2.43095 10.0222 3.06578 10.4579 5.54928 10.4321L5.54803 5.23848Z" fill="#FBDEAB"/>
<path d="M5.52415 157.414C3.63441 157.405 2.16073 157.583 0.527733 156.605C-0.162845 153.396 -0.248026 14.6299 0.709101 11.2495C2.43095 10.0222 3.06578 10.4579 5.54928 10.4321L6.06339 10.6494L6.01435 100.501L6.04195 125.964C6.04134 130.05 5.77111 137.068 6.39612 140.781C8.0377 141.572 8.82323 141.467 10.5984 141.478C10.629 144.151 11.0984 144.43 9.83733 146.191C8.24478 146.422 7.82933 146.436 6.22452 146.318L5.61666 146.128L5.52415 157.414Z" fill="#572C1A"/>
<path d="M5.54928 10.4321L6.06339 10.6494L6.01435 100.501L6.04195 125.964C6.04134 130.05 5.77111 137.068 6.39612 140.781C8.0377 141.572 8.82323 141.467 10.5984 141.478C10.629 144.151 11.0984 144.43 9.83733 146.191C8.24478 146.422 7.82933 146.436 6.22452 146.318L5.61666 146.128C5.0615 101.251 5.54928 55.387 5.54928 10.4321Z" fill="#EFBC84"/>
<path d="M5.54803 5.23848L11.1278 5.71279C10.9268 8.27281 11.3564 8.88767 9.9219 10.4291C8.64798 10.5156 7.33731 10.6267 6.06339 10.6494L5.54928 10.4321L5.54803 5.23848Z" fill="#572C1A"/>
<path d="M106.053 44.6174C106.881 44.1805 108.255 43.724 109.181 43.3828C110.942 48.3519 114.39 45.7189 115.1 52.071C117.45 52.4926 117.123 52.0367 118.221 53.4633L118.169 54.0297C118.026 55.6509 117.839 56.2418 118.619 57.6556L121.322 58.087C127.615 68.1472 120.314 71.3773 120.687 80.4809C120.8 83.7172 120.344 90.5658 121.769 92.6956L122.233 93.4982L121.685 94.1652C118.036 93.0288 116.42 93.2209 115.183 89.587C112.616 89.3299 109.581 85.6789 108.121 83.627L106.46 83.5545L106.096 79.5065L106.082 78.9205C104.802 74.6264 106.482 73.1611 101.454 69.1174C100.011 67.9576 99.4757 68.0797 97.7539 67.5459C97.1191 65.8952 97.458 60.9366 97.6553 59.0546L98.393 58.4846C99.545 58.2011 99.9133 58.001 100.953 57.5108C101.571 55.3852 103.329 52.2723 104.886 50.7352L104.815 47.9788C106.662 48.0199 107.363 48.1537 109.125 47.518C106.8 46.3736 107.544 46.8866 106.053 44.6174Z" fill="#C6A854"/>
<path d="M104.815 47.9788C106.662 48.0199 107.363 48.1537 109.125 47.518L110.523 47.9788C111.402 50.0031 110.807 53.7929 110.572 56.1406L110.388 57.0788C110.852 59.8787 110.427 64.7392 111.404 66.7064L112.57 67.1004L112.814 67.6146C113.854 70.5176 114.001 70.9423 113.012 74.0208C113.199 76.8146 113.595 79.8397 112.891 82.5194L112.031 82.6139C110.644 81.3535 109.806 80.7939 109.223 78.9733C107.806 78.456 107.624 78.591 106.082 78.9205C104.802 74.6264 106.482 73.1611 101.454 69.1174C100.011 67.9576 99.4757 68.0797 97.7539 67.5459C97.1191 65.8952 97.458 60.9366 97.6553 59.0546L98.393 58.4846C99.545 58.2011 99.9133 58.001 100.953 57.5108C101.571 55.3852 103.329 52.2723 104.886 50.7352L104.815 47.9788Z" fill="#A18B42"/>
<path d="M110.388 57.0788C110.852 59.8787 110.427 64.7392 111.404 66.7064L112.57 67.1004L112.814 67.6146C111.553 67.6256 110.397 67.4821 109.353 68.146C107.483 68.1724 107.981 68.4239 106.573 67.5704C105.241 64.3452 105.061 61.0992 106.888 57.9814C107.331 57.2267 109.435 57.2089 110.388 57.0788Z" fill="#907638"/>
<path d="M109.353 68.146C110.397 67.4821 111.553 67.6256 112.814 67.6146C113.854 70.5176 114.001 70.9423 113.012 74.0208L110.919 73.2372C109.262 71.3086 109.739 71.1515 109.353 68.146Z" fill="#795B2B"/>
<path d="M112.57 67.1004L114.83 67.2323C117.272 69.8568 116.539 75.6076 116.398 79.5992C116.347 81.0093 116.287 82.4188 116.218 83.8283C115.813 85.8158 115.461 87.5713 115.183 89.587C112.616 89.3299 109.581 85.6789 108.121 83.627L106.46 83.5545L106.096 79.5065L106.082 78.9205C107.624 78.591 107.806 78.456 109.223 78.9733C109.806 80.7939 110.644 81.3535 112.031 82.6139L112.891 82.5194C113.595 79.8397 113.199 76.8146 113.012 74.0208C114.001 70.9423 113.854 70.5176 112.814 67.6146L112.57 67.1004Z" fill="#907638"/>
<path d="M110.388 57.0788L110.572 56.1406C112.608 58.3496 113.339 57.45 114.041 58.0207C115.072 58.8601 114.813 65.5995 114.83 67.2323L112.57 67.1004L111.404 66.7064C110.427 64.7392 110.852 59.8787 110.388 57.0788Z" fill="#AC9445"/>
<path d="M120.687 80.4809C120.8 83.7172 120.344 90.5658 121.769 92.6956L122.233 93.4982L121.685 94.1652C118.036 93.0288 116.42 93.2209 115.183 89.587C115.461 87.5713 115.813 85.8158 116.218 83.8283C116.24 86.6086 115.915 87.432 117.73 89.3342L118.837 88.8022C120.777 86.1569 120.559 83.7472 120.687 80.4809Z" fill="#8C7037"/>
<path d="M47.9514 55.9178L48.778 57.5347C50.2701 57.7494 50.4821 57.7341 51.9919 57.593C54.003 57.7666 62.9199 57.9391 63.6485 58.0722C63.9156 59.081 64.4365 61.8079 65.0333 62.3166C71.3919 65.3025 70.2834 70.9723 70.5763 76.4329C70.3392 80.052 69.6198 84.5302 72.936 86.9343L73.3723 88.5242L74.8172 88.569L77.9502 88.6433L78.8859 88.5169L79.4937 86.3152L79.5722 88.8881C79.6543 94.234 79.8271 99.7712 79.5122 105.093L79.5367 105.407L78.0054 106.147C77.5317 109.582 78.786 111.873 77.5023 113.975C75.759 115.06 76.5268 114.9 74.6174 114.69C73.2203 113.04 73.2638 113.063 73.2007 110.382L70.8459 110.663L70.667 109.887C70.1817 106.212 70.9556 101.511 70.3753 97.885C68.7895 88.3905 67.8152 79.5998 67.3581 69.9899C67.2613 67.9533 57.3407 59.4731 52.9197 63.8359C53.2696 67.0132 57.6483 70.9508 58.6214 73.7213C59.0448 75.2253 59.5712 87.1694 58.4934 87.4253C53.6599 88.5733 57.9149 90.2559 55.3585 94.4143C52.0226 95.2654 52.7144 95.8447 52.3884 98.9668C51.9809 95.3072 52.5606 95.868 50.6053 93.2442C49.9711 91.3242 50.4074 89.9061 50.7334 87.8799L52.0054 87.5394L52.6532 85.0266L52.6936 72.742C52.6035 68.8148 52.8039 69.0947 49.264 67.5919C48.9858 66.415 48.9999 65.2307 48.6279 63.739L46.5605 63.7991L46.2413 64.0476L44.134 61.8613C44.9379 60.8789 44.7516 59.5001 44.8699 57.9832L47.8785 57.1941L47.9514 55.9178Z" fill="#5F2F17"/>
<path d="M77.9502 88.6433L78.8859 88.5169L79.4937 86.3152L79.5722 88.8881C79.6543 94.234 79.8271 99.7712 79.5122 105.093L79.5367 105.407L78.0054 106.147C77.5317 109.582 78.786 111.873 77.5023 113.975C75.759 115.06 76.5268 114.9 74.6174 114.69C73.2203 113.04 73.2638 113.063 73.2007 110.382C73.7878 107.78 73.4581 91.8893 73.3723 88.5242L74.8172 88.569L77.9502 88.6433Z" fill="#AA8D45"/>
<path d="M77.9502 88.6433L78.8859 88.5169L79.4937 86.3152L79.5722 88.8881C79.6543 94.234 79.8271 99.7712 79.5122 105.093L77.2051 105.172C74.0439 102.499 75.3539 91.5887 77.9502 88.6433Z" fill="#AC9445"/>
<path d="M47.9514 55.9178L48.778 57.5347C50.2701 57.7494 50.4821 57.7341 51.9919 57.593C51.0177 60.9722 49.6635 64.2299 49.264 67.5919C48.9858 66.415 48.9999 65.2307 48.6279 63.739L46.5605 63.7991L46.2413 64.0476L44.134 61.8613C44.9379 60.8789 44.7516 59.5001 44.8699 57.9832L47.8785 57.1941L47.9514 55.9178Z" fill="#AA8D45"/>
<path d="M44.8699 57.9832L47.8785 57.1941C47.8932 59.0141 47.9337 60.5518 48.0538 62.3786C47.5911 62.832 47.0525 63.399 46.5605 63.7991L46.2413 64.0476L44.134 61.8613C44.9379 60.8789 44.7516 59.5001 44.8699 57.9832Z" fill="#B69A4E"/>
<path d="M52.6936 72.742C54.7549 74.219 55.2371 74.5472 55.4259 77.1975C55.6918 80.9368 56.0956 83.3649 52.6532 85.0266L52.6936 72.742Z" fill="#8C7037"/>
<path d="M39.9819 65.8879C42.6474 64.757 40.9103 63.6476 44.134 61.8613L46.2413 64.0476L46.5605 63.7991L48.6279 63.739C48.9999 65.2307 48.9858 66.415 49.264 67.5919C52.8039 69.0947 52.6035 68.8148 52.6936 72.742L52.6532 85.0266L52.0054 87.5394L50.7334 87.8799C50.4074 89.9061 49.9711 91.3242 50.6053 93.2442L46.8173 93.613C43.7786 95.1906 44.5378 96.3779 44.819 99.6767L42.156 99.7805C36.5768 99.5184 38.4801 96.2614 37.4139 91.7721C36.9408 89.7785 36.5107 90.2909 36.1332 87.6811L34.8151 87.1277L34.6865 85.9311C33.6908 85.6832 33.2226 85.6881 32.5995 84.8836C32.2765 80.8239 31.2612 75.0363 35.4972 72.934C37.1535 72.1124 36.8648 70.5188 37.0701 68.7958C38.1743 68.4921 38.613 68.2884 39.6259 67.8318L39.9819 65.8879Z" fill="#AC9445"/>
<path d="M39.9819 65.8879C42.6474 64.757 40.9103 63.6476 44.134 61.8613L46.2413 64.0476C46.2223 67.7275 36.7521 75.0835 41.7975 86.773C41.7932 88.7187 42.0476 92.3232 41.1609 93.813C40.9875 93.6412 36.5879 88.2678 36.1332 87.6811L34.8151 87.1277L34.6865 85.9311C33.6908 85.6832 33.2226 85.6881 32.5995 84.8836C32.2765 80.8239 31.2612 75.0363 35.4972 72.934C37.1535 72.1124 36.8648 70.5188 37.0701 68.7958C38.1743 68.4921 38.613 68.2884 39.6259 67.8318L39.9819 65.8879Z" fill="#C6A854"/>
<path d="M41.7975 86.773L42.5402 87.3001L42.3349 87.694L43.6781 89.2121L43.6922 88.7046C44.0114 90.3872 44.2529 91.5365 44.3619 93.2681C44.4673 91.9887 44.5415 90.7075 44.585 89.4244C46.7854 88.7728 48.4877 88.3567 50.7334 87.8799C50.4074 89.9061 49.9711 91.3242 50.6053 93.2442L46.8173 93.613C43.7786 95.1906 44.5378 96.3779 44.819 99.6767L42.156 99.7805C36.5768 99.5184 38.4801 96.2614 37.4139 91.7721C36.9408 89.7785 36.5107 90.2909 36.1332 87.6811C36.5879 88.2678 40.9875 93.6412 41.1609 93.813C42.0476 92.3232 41.7932 88.7187 41.7975 86.773Z" fill="#AA8D45"/>
<path d="M44.9128 76.9551C45.6567 77.1643 46.1285 77.5172 46.7529 77.9547C47.6905 81.5094 47.2922 85.4052 47.2003 89.0532L45.8417 88.5549C43.6407 85.9655 44.7265 80.2428 44.9128 76.9551Z" fill="#C6A854"/>
<path d="M83.3578 88.6347L84.1397 88.3574L84.2947 86.3134L85.3481 85.5089L88.9468 86.044C89.0362 87.0424 88.994 87.9769 89.5307 88.7838C92.4744 92.7337 89.5938 95.3317 91.4278 98.0623L89.4443 99.597L87.3989 99.6847C85.9412 101.338 86.2267 104.728 86.1262 106.844C85.891 111.787 92.0388 113.821 95.1522 116.243L94.8378 119.581L93.7116 120.104C91.6956 120.239 90.6999 120.248 88.717 120.85L88.1428 122.457L85.1593 123.008L83.7549 123.382C82.9693 125.352 83.5012 124.676 81.6832 125.897L78.5073 126.029L74.0709 125.695L73.2394 123.855L71.1493 123.416C68.5886 123.658 66.1589 124.277 64.4867 122.217L65.1209 122.444C66.5584 121.773 66.8036 121.566 68.0101 120.526C69.3974 116.677 70.8306 114.526 70.8459 110.663L73.2007 110.382C73.2638 113.063 73.2203 113.04 74.6174 114.69C76.5268 114.9 75.759 115.06 77.5023 113.975C78.786 111.873 77.5317 109.582 78.0054 106.147L79.5367 105.407L79.5122 105.093C79.8271 99.7712 79.6543 94.234 79.5722 88.8881L83.3578 88.6347Z" fill="#572C1A"/>
<path d="M79.5367 105.407L80.3381 105.41C80.4515 109.031 81.291 116.407 80.3914 119.232L80.3541 119.912L79.759 121.257L78.5801 121.21C77.4821 123.48 77.2646 123.533 78.5073 126.029L74.0709 125.695L73.2394 123.855L71.1493 123.416C68.5886 123.658 66.1589 124.277 64.4867 122.217L65.1209 122.444C66.5584 121.773 66.8036 121.566 68.0101 120.526C69.3974 116.677 70.8306 114.526 70.8459 110.663L73.2007 110.382C73.2638 113.063 73.2203 113.04 74.6174 114.69C76.5268 114.9 75.759 115.06 77.5023 113.975C78.786 111.873 77.5317 109.582 78.0054 106.147L79.5367 105.407Z" fill="#8C7037"/>
<path d="M71.1493 123.416C71.1395 121.188 70.8435 121.963 72.1058 120.399C74.4673 119.184 77.6732 119.332 80.3914 119.232L80.3541 119.912L79.759 121.257L78.5801 121.21C77.4821 123.48 77.2646 123.533 78.5073 126.029L74.0709 125.695L73.2394 123.855L71.1493 123.416Z" fill="#907638"/>
<path d="M74.0709 125.695L74.3748 124.464C76.3859 122.291 76.1757 121.796 78.5801 121.21C77.4821 123.48 77.2646 123.533 78.5073 126.029L74.0709 125.695Z" fill="#795B2B"/>
<path d="M79.5722 88.8881L83.3578 88.6347C82.4129 92.3857 82.8652 99.4558 82.8835 103.67L80.3381 105.41L79.5367 105.407L79.5122 105.093C79.8271 99.7712 79.6543 94.234 79.5722 88.8881Z" fill="#8C7037"/>
<path d="M82.8835 103.67C83.0343 106.468 84.0092 116.802 82.7279 118.459L80.3541 119.912L80.3914 119.232C81.291 116.407 80.4515 109.031 80.3381 105.41L82.8835 103.67Z" fill="#795B2B"/>
<path d="M80.3541 119.912L82.7279 118.459L81.7738 120.588L82.2665 121.796C84.2763 122.55 85.9994 122.43 88.1428 122.457L85.1593 123.008L83.7549 123.382C82.9693 125.352 83.5012 124.676 81.6832 125.897L78.5073 126.029C77.2646 123.533 77.4821 123.48 78.5801 121.21L79.759 121.257L80.3541 119.912Z" fill="#654015"/>
<path d="M76.1665 61.8815C77.7223 63.2487 77.7131 64.252 79.0434 64.7545L79.1874 63.777C80.3632 63.2119 81.6494 63.3468 82.9748 63.3468C82.617 67.3525 82.693 70.671 82.7493 74.6718C84.8879 74.665 86.7819 74.5601 88.8683 75.0504C90.2979 76.5053 89.8836 75.7751 90.2985 77.9547L89.5938 78.4646L89.402 82.4832C88.3536 82.9244 88.4669 83.0686 87.4743 82.9434L87.1704 83.3036L88.1624 83.1674L89.0706 84.1915L88.9468 86.044L85.3481 85.5089L84.2947 86.3134L84.1397 88.3574L83.3578 88.6347L79.5722 88.8881L79.4937 86.3152L78.8859 88.5169L77.9502 88.6433L74.8172 88.569L73.3723 88.5242L72.936 86.9343C69.6198 84.5302 70.3392 80.052 70.5763 76.4329C70.2834 70.9723 71.3919 65.3025 65.0333 62.3166C67.7699 62.5676 70.6719 62.9842 73.0893 61.6754C74.9073 62.3454 74.1193 62.2473 76.1665 61.8815Z" fill="#5F2F17"/>
<path d="M70.5763 76.4329C71.5028 74.1478 71.8043 68.0503 74.8197 67.3194C76.4245 69.11 76.0023 69.4671 76.4502 72.291C76.6169 75.7616 76.161 80.7055 76.8564 83.503C77.824 84.3694 77.8056 84.3013 79.0336 84.4228L79.1316 84.7578L79.4937 86.3152L78.8859 88.5169L77.9502 88.6433L74.8172 88.569L73.3723 88.5242L72.936 86.9343C69.6198 84.5302 70.3392 80.052 70.5763 76.4329Z" fill="#AC9445"/>
<path d="M74.8172 88.569C75.221 86.4097 74.9067 86.1103 76.2695 84.7204L79.1316 84.7578L79.4937 86.3152L78.8859 88.5169L77.9502 88.6433L74.8172 88.569Z" fill="#B69A4E"/>
<path d="M76.1665 61.8815C77.7223 63.2487 77.7131 64.252 79.0434 64.7545C79.1181 67.2495 79.2223 69.618 79.0869 72.1142C78.1108 70.9613 77.6009 69.1014 77.0678 67.6238L76.7124 68.5952L77.1886 68.173L77.3877 68.8633L76.566 69.2045L76.4502 72.291C76.0023 69.4671 76.4245 69.11 74.8197 67.3194C71.8043 68.0503 71.5028 74.1478 70.5763 76.4329C70.2834 70.9723 71.3919 65.3025 65.0333 62.3166C67.7699 62.5676 70.6719 62.9842 73.0893 61.6754C74.9073 62.3454 74.1193 62.2473 76.1665 61.8815Z" fill="#A18B42"/>
<path d="M83.5141 84.2191C84.0607 83.2134 84.0264 80.8197 84.7163 78.7278C86.6287 77.8663 87.2733 78.2866 89.5938 78.4646L89.402 82.4832C88.3536 82.9244 88.4669 83.0686 87.4743 82.9434L87.1704 83.3036L88.1624 83.1674L89.0706 84.1915L88.9468 86.044L85.3481 85.5089L84.2947 86.3134L84.1397 88.3574L83.3578 88.6347L79.5722 88.8881L79.4937 86.3152L79.1316 84.7578L79.0336 84.4228C80.3001 84.5229 82.1954 84.3167 83.5141 84.2191Z" fill="#907638"/>
<path d="M76.4502 72.291L76.566 69.2045L77.3877 68.8633L77.1886 68.173L76.7124 68.5952L77.0678 67.6238C77.6009 69.1014 78.1108 70.9613 79.0869 72.1142L79.1702 72.7837C79.8871 78.7567 76.8791 83.2416 83.5141 84.2191C82.1954 84.3167 80.3001 84.5229 79.0336 84.4228C77.8056 84.3013 77.824 84.3694 76.8564 83.503C76.161 80.7055 76.6169 75.7616 76.4502 72.291Z" fill="#8C7037"/>
<path d="M90.2985 77.9547L93.4971 78.1498C93.9837 82.1076 93.3617 81.9806 96.9077 84.3664C97.0205 86.236 96.7613 87.7695 97.7184 89.0299L100.452 89.2986C102.294 92.0949 99.9011 91.9034 102.048 94.0799L104.768 94.2996C106.032 96.2748 105.619 111.168 105.037 113.822C103.024 114.591 101.277 114.323 99.1228 114.205C96.7196 112.064 92.8182 108.266 91.7771 105.256C90.9579 105.06 90.2047 104.846 89.3702 104.748L89.4443 99.597L91.4278 98.0623C89.5938 95.3317 92.4744 92.7337 89.5307 88.7838C88.994 87.9769 89.0362 87.0424 88.9468 86.044L89.0706 84.1915L88.1624 83.1674L87.1704 83.3036L87.4743 82.9434C88.4669 83.0686 88.3536 82.9244 89.402 82.4832L89.5938 78.4646L90.2985 77.9547Z" fill="#693712"/>
<path d="M99.2105 96.5283C101.394 97.8592 102.241 97.7604 102.618 100.513C103.143 104.345 104.804 108.034 100.545 110.046L99.1602 109.841C98.3434 107.908 98.2215 106.084 96.0407 105.628C100.464 104.353 97.0419 101.534 99.2105 96.5283Z" fill="#907638"/>
<path d="M92.8378 89.0796C94.7514 89.5428 95.537 89.3434 96.5119 90.616L96.0492 92.252C94.798 96.5209 96.2508 96.0914 93.9511 100.779C93.1693 98.568 93.7845 99.3233 91.4278 98.0623C89.5938 95.3317 92.4744 92.7337 89.5307 88.7838L92.8378 89.0796Z" fill="#8C7037"/>
<path d="M96.0492 92.252C98.3557 93.7596 98.822 93.5718 99.2105 96.5283C97.0419 101.534 100.464 104.353 96.0407 105.628L93.5946 101.413L93.9511 100.779C96.2508 96.0914 94.798 96.5209 96.0492 92.252Z" fill="#A18B42"/>
<path d="M88.9468 86.044L89.0706 84.1915L88.1624 83.1674L87.1704 83.3036L87.4743 82.9434C88.4669 83.0686 88.3536 82.9244 89.402 82.4832L90.3947 83.2171C93.7759 84.1332 92.9358 85.6863 92.8378 89.0796L89.5307 88.7838C88.994 87.9769 89.0362 87.0424 88.9468 86.044Z" fill="#AA8D45"/>
<path d="M91.4278 98.0623C93.7845 99.3233 93.1693 98.568 93.9511 100.779L93.5946 101.413C92.7532 104.553 93.0161 104.416 89.3702 104.748L89.4443 99.597L91.4278 98.0623Z" fill="#5F2A0E"/>
<path d="M90.2985 77.9547L93.4971 78.1498C93.1607 81.3823 93.9107 82.685 90.3947 83.2171L89.402 82.4832L89.5938 78.4646L90.2985 77.9547Z" fill="#5F2A0E"/>
<path d="M76.596 47.356C77.9208 47.4486 77.854 47.4763 79.0471 46.9148C79.8191 43.1147 82.6513 39.3777 86.375 38.1775L88.6036 38.7911C84.5288 41.939 84.9001 42.3605 84.7273 47.2143L84.7163 47.5929L85.1287 51.3396L87.6526 52.0091L85.5215 52.5417C85.804 55.8166 86.4633 59.7873 85.2457 62.7725C84.1912 63.3469 84.2377 63.3916 82.9748 63.3468C81.6494 63.3468 80.3632 63.2119 79.1874 63.777L79.0434 64.7545C77.7131 64.252 77.7223 63.2487 76.1665 61.8815C76.612 58.1164 76.5335 51.358 76.596 47.356Z" fill="#C6A854"/>
<path d="M79.1874 63.777C78.9674 60.3745 81.4919 52.4502 82.8964 49.7847L83.4423 51.6832L85.1287 51.3396L87.6526 52.0091L85.5215 52.5417C85.804 55.8166 86.4633 59.7873 85.2457 62.7725C84.1912 63.3469 84.2377 63.3916 82.9748 63.3468C81.6494 63.3468 80.3632 63.2119 79.1874 63.777Z" fill="#8C7037"/>
<path d="M83.4423 51.6832L85.1287 51.3396L87.6526 52.0091L85.5215 52.5417C84.8144 54.8108 85.8511 59.6879 84.3248 62.5455C82.1856 60.3377 82.0667 54.2187 83.4423 51.6832Z" fill="#5F2F17"/>
<path d="M88.6036 38.7911L91.5872 39.644C94.4959 39.5146 97.4071 39.4477 100.319 39.4428L100.669 42.4863L102.367 43.2675C103.515 46.8234 102.391 46.1637 104.815 47.9788L104.886 50.7352C103.329 52.2723 101.571 55.3852 100.953 57.5108C99.9133 58.001 99.545 58.2011 98.393 58.4846L97.2386 56.5302L97.2827 53.8377C100.26 50.5401 100.105 49.2644 99.9005 44.9359C92.3035 44.6592 90.0338 43.9866 89.1098 52.4092L87.6526 52.0091L85.1287 51.3396L84.7163 47.5929L84.7273 47.2143C84.9001 42.3605 84.5288 41.939 88.6036 38.7911Z" fill="#5F2F17"/>
<path d="M88.6036 38.7911L91.5872 39.644L89.6711 41.5119L88.4541 41.6665C86.5435 44.337 89.2409 46.1699 85.3756 47.4106L84.7163 47.5929L84.7273 47.2143C84.9001 42.3605 84.5288 41.939 88.6036 38.7911Z" fill="#907638"/>
<path d="M100.319 39.4428L100.669 42.4863C96.8783 41.8089 93.5008 41.7095 89.6711 41.5119L91.5872 39.644C94.4959 39.5146 97.4071 39.4477 100.319 39.4428Z" fill="#693712"/>
<path d="M85.3756 47.4106C87.4805 47.5769 87.6055 47.1983 88.7219 48.4611L89.1098 52.4092L87.6526 52.0091L85.1287 51.3396L84.7163 47.5929L85.3756 47.4106Z" fill="#5F2A0E"/>
<path d="M116.398 46.6019C119.082 47.9383 118.9 47.88 118.941 51.0739C121.708 53.3756 122.99 51.0408 123.286 54.1119C123.521 56.5431 122.631 56.3602 124.107 57.7071L126.069 58.1023C127.08 60.4193 126.94 75.7113 126.202 78.0087L124.095 78.8506C122.953 82.2377 124.346 88.153 123.343 92.1789L121.769 92.6956C120.344 90.5658 120.8 83.7172 120.687 80.4809C120.314 71.3773 127.615 68.1472 121.322 58.087L118.619 57.6556C117.839 56.2418 118.026 55.6509 118.169 54.0297L118.221 53.4633C117.123 52.0367 117.45 52.4926 115.1 52.071C115.369 49.5546 115.375 48.9581 116.398 46.6019Z" fill="#5F2F17"/>
<path d="M35.9574 67.3391L37.0701 68.7958C36.8648 70.5188 37.1535 72.1124 35.4972 72.934C31.2612 75.0363 32.2765 80.8239 32.5995 84.8836C33.2226 85.6881 33.6908 85.6832 34.6865 85.9311L34.8151 87.1277L36.1332 87.6811C36.5107 90.2909 36.9408 89.7785 37.4139 91.7721C38.4801 96.2614 36.5768 99.5184 42.156 99.7805C42.1021 102.767 42.6046 102.431 41.02 104.144C39.0965 104.87 37.0928 105.112 35.5726 103.437L36.8593 102.693L35.5015 102.387C34.5462 100.435 34.9763 99.5798 35.0891 97.1597C33.8862 93.2994 32.692 95.9159 30.342 93.6332C29.1931 86.1287 29.2863 74.2085 33.5431 67.7054L35.9574 67.3391Z" fill="#5F2F17"/>
<path d="M34.8151 87.1277L36.1332 87.6811C36.5107 90.2909 36.9408 89.7785 37.4139 91.7721C38.4801 96.2614 36.5768 99.5184 42.156 99.7805C42.1021 102.767 42.6046 102.431 41.02 104.144C39.0965 104.87 37.0928 105.112 35.5726 103.437L36.8593 102.693C38.6731 98.9379 37.697 93.9701 35.2147 90.8388C34.6503 90.127 34.8366 88.1555 34.8151 87.1277Z" fill="#795B2B"/>
<path d="M55.9522 117.858L56.8402 119.564C59.0099 119.973 61.9634 119.801 63.1356 120.173L63.8304 120.651C63.836 122.247 63.9248 124.306 63.3519 125.786L62.7085 125.998L58.3984 126.019L57.315 124.728C56.9467 127.08 56.7654 127.974 56.0252 130.247L55.5859 131.195C54.6447 131.135 54.0993 130.926 53.2114 130.658L52.628 128.903C52.7855 127.593 52.7353 127.615 52.3977 126.407C50.7935 125.356 48.0489 125.833 45.979 125.961L45.1604 125.773C43.9483 126.714 41.3992 128.473 41.0898 129.916C40.4348 127.342 40.3643 126.918 38.1768 125.702C38.6609 125.503 44.4833 120.813 44.5133 120.805C47.3657 120.067 52.6697 121.447 55.4706 119.789L55.9522 117.858Z" fill="#5F2F17"/>
<path d="M57.0056 121.934L57.315 124.728C56.9467 127.08 56.7654 127.974 56.0252 130.247L55.5859 131.195C54.6447 131.135 54.0993 130.926 53.2114 130.658L52.628 128.903C52.7855 127.593 52.7353 127.615 52.3977 126.407C50.7935 125.356 48.0489 125.833 45.979 125.961L45.1604 125.773C46.1279 125.175 50.5851 125.157 52.0992 125.06L52.8327 124.126C54.3358 123.514 55.5987 122.737 57.0056 121.934Z" fill="#693712"/>
<path d="M57.0056 121.934L57.315 124.728C56.0221 125.006 55.3187 125.119 54.0013 125.228L52.8327 124.126C54.3358 123.514 55.5987 122.737 57.0056 121.934Z" fill="#A9643B"/>
<path d="M63.1356 120.173L63.8304 120.651C63.836 122.247 63.9248 124.306 63.3519 125.786L62.7085 125.998L58.3984 126.019L57.315 124.728L57.0056 121.934L57.6686 120.8C59.8286 120.172 60.9015 120.231 63.1356 120.173Z" fill="#C88758"/>
<path d="M11.0193 130.801C11.0855 128.66 10.754 127.701 11.7559 126.1C17.6935 125.372 31.6239 125.702 38.1768 125.702C40.3643 126.918 40.4348 127.342 41.0898 129.916C40.0377 130.421 38.9415 131.001 37.8293 131.313C34.749 130.51 21.6599 130.848 17.9803 130.92L17.313 130.871L11.0193 130.801Z" fill="#5F2A0E"/>
<path d="M46.8173 93.613L50.6053 93.2442C52.5606 95.868 51.9809 95.3072 52.3884 98.9668C43.9593 101.57 52.1942 110.024 32.3409 109.344C32.176 100.8 33.6748 104.017 35.0891 97.1597C34.9763 99.5798 34.5462 100.435 35.5015 102.387L36.8593 102.693L35.5726 103.437C37.0928 105.112 39.0965 104.87 41.02 104.144C42.6046 102.431 42.1021 102.767 42.156 99.7805L44.819 99.6767C44.5378 96.3779 43.7786 95.1906 46.8173 93.613Z" fill="#5F2A0E"/>
<path d="M44.819 99.6767C44.5378 96.3779 43.7786 95.1906 46.8173 93.613C47.1549 95.7238 47.6978 97.2554 46.7051 99.0263C46.0108 99.3055 45.5556 99.5405 44.819 99.6767Z" fill="#654015"/>
<path d="M102.988 85.3015L102.406 82.9925C101.041 82.023 96.985 74.0423 95.0303 71.8946C93.6785 70.4084 94.3293 60.8415 94.8336 58.654C95.1675 57.2046 95.7515 57.2837 97.2386 56.5302L98.393 58.4846L97.6553 59.0546C97.458 60.9366 97.1191 65.8952 97.7539 67.5459C99.4757 68.0797 100.011 67.9576 101.454 69.1174C106.482 73.1611 104.802 74.6264 106.082 78.9205L106.096 79.5065L106.46 83.5545C104.997 84.7186 104.794 84.8278 102.988 85.3015Z" fill="#5F2F17"/>
<path d="M97.7539 67.5459C99.4757 68.0797 100.011 67.9576 101.454 69.1174C106.482 73.1611 104.802 74.6264 106.082 78.9205L106.096 79.5065C100.003 77.7644 102.152 70.9386 97.7539 67.5459Z" fill="#795B2B"/>
<path d="M106.46 83.5545L108.121 83.627C109.581 85.6789 112.616 89.3299 115.183 89.587C116.42 93.2209 118.036 93.0288 121.685 94.1652L122.233 93.4982L121.769 92.6956L123.343 92.1789C126.244 93.0736 126.197 93.2123 127.272 95.9134C126.546 99.4767 123.458 100.155 120.226 99.8707L119.875 99.8375C116.721 99.5847 107.551 88.9587 105.349 85.9863L105.06 85.5905L102.988 85.3015C104.794 84.8278 104.997 84.7186 106.46 83.5545Z" fill="#5F2A0E"/>
<path d="M51.7389 51.242C54.3523 50.0418 59.9677 50.2952 62.7778 50.7113C63.6375 51.5415 63.4616 51.1684 63.8703 52.2011L65.0995 53.1461C63.7527 54.4144 63.9745 53.8707 63.499 55.4797L63.6485 58.0722C62.9199 57.9391 54.003 57.7666 51.9919 57.593C50.4821 57.7341 50.2701 57.7494 48.778 57.5347L47.9514 55.9178C48.0513 55.1489 48.1739 55.1011 48.5195 54.3672C50.1065 54.1224 50.2334 54.1561 51.5177 53.2627L51.7389 51.242Z" fill="#C6A854"/>
<path d="M51.9919 57.593L53.1048 55.8834C55.6477 55.1913 60.4597 55.5674 63.499 55.4797L63.6485 58.0722C62.9199 57.9391 54.003 57.7666 51.9919 57.593Z" fill="#795B2B"/>
<path d="M55.9522 117.858L55.8848 116.356C58.0185 112.086 62.4904 117.188 66.8164 113.682L67.0064 111.253C68.3588 109.813 68.3753 110.211 70.667 109.887L70.8459 110.663C70.8306 114.526 69.3974 116.677 68.0101 120.526C66.8036 121.566 66.5584 121.773 65.1209 122.444L64.4867 122.217L63.8304 120.651L63.1356 120.173C61.9634 119.801 59.0099 119.973 56.8402 119.564L55.9522 117.858Z" fill="#572C1A"/>
<path d="M93.7116 120.104L94.8378 119.581C98.7049 122.242 106.776 117.88 110.589 122.12C111.705 123.211 113.428 123.138 115.103 123.324C113.235 123.417 112.128 123.408 110.291 123.928C109.505 124.96 109.317 125.174 108.79 126.348C106.223 126.587 105.325 126.113 102.913 125.225L102.727 124.182C100.761 123.029 97.6664 123.403 94.7147 123.041C94.5241 122.157 94.04 120.987 93.7116 120.104Z" fill="#5F2A0E"/>
<path d="M110.589 122.12C111.705 123.211 113.428 123.138 115.103 123.324C113.235 123.417 112.128 123.408 110.291 123.928C109.505 124.96 109.317 125.174 108.79 126.348C106.223 126.587 105.325 126.113 102.913 125.225L102.727 124.182C100.761 123.029 97.6664 123.403 94.7147 123.041C100.153 122.158 105.054 123.527 110.589 122.12Z" fill="#5F2F17"/>
<path d="M89.5608 34.494C92.3016 33.3496 97.2613 33.4502 100.168 34.0595C101.36 35.0186 100.997 34.5314 101.316 36.3538L100.319 39.4428C97.4071 39.4477 94.4959 39.5146 91.5872 39.644L88.6036 38.7911L86.375 38.1775L86.9265 36.6612L89.1202 36.1912L89.5608 34.494Z" fill="#C6A854"/>
<path d="M76.596 47.356C76.5813 46.4951 76.5219 43.7252 76.8681 43.0895C79.3516 38.5303 82.6801 34.2688 88.0981 33.2526L89.5608 34.494L89.1202 36.1912L86.9265 36.6612L86.375 38.1775C82.6513 39.3777 79.8191 43.1147 79.0471 46.9148C77.854 47.4763 77.9208 47.4486 76.596 47.356Z" fill="#5F2F17"/>
<path d="M73.8245 54.8237C73.6327 51.8317 73.047 49.8111 74.5274 47.5137L76.596 47.356C76.5335 51.358 76.612 58.1164 76.1665 61.8815C74.1193 62.2473 74.9073 62.3454 73.0893 61.6754C71.2608 56.8578 71.4679 61.2563 69.8116 57.1432L70.0542 55.7184C71.186 54.6513 71.9445 54.9557 73.8245 54.8237Z" fill="#693712"/>
<path d="M50.6617 51.0825C50.7861 50.1854 50.7671 48.3599 51.5557 47.958C54.7751 46.3172 63.3905 45.9416 65.7227 48.8735L66.1259 51.3452C65.1253 52.0962 65.1767 52.1514 63.8703 52.2011C63.4616 51.1684 63.6375 51.5415 62.7778 50.7113C59.9677 50.2952 54.3523 50.0418 51.7389 51.242L50.6617 51.0825Z" fill="#5F2F17"/>
<path d="M101.316 36.3538L101.573 36.3796C103.541 37.6927 103.778 37.8787 104.926 39.9981L107.325 40.2828L107.432 42.4882C108.182 43.0398 108.286 43.2534 109.181 43.3828C108.255 43.724 106.881 44.1805 106.053 44.6174C107.544 46.8866 106.8 46.3736 109.125 47.518C107.363 48.1537 106.662 48.0199 104.815 47.9788C102.391 46.1637 103.515 46.8234 102.367 43.2675L100.669 42.4863L100.319 39.4428L101.316 36.3538Z" fill="#AA8D45"/>
<path d="M104.926 39.9981L107.325 40.2828L107.432 42.4882C108.182 43.0398 108.286 43.2534 109.181 43.3828C108.255 43.724 106.881 44.1805 106.053 44.6174C104.66 41.8568 104.372 42.4084 104.926 39.9981Z" fill="#B69A4E"/>
<path d="M42.9973 56.999L44.8699 57.9832C44.7516 59.5001 44.9379 60.8789 44.134 61.8613C40.9103 63.6476 42.6474 64.757 39.9819 65.8879L39.6259 67.8318C38.613 68.2884 38.1743 68.4921 37.0701 68.7958L35.9574 67.3391L36.6688 62.9106C39.8361 62.9235 39.5328 61.0256 40.3913 58.2944C41.4011 57.6599 41.8932 57.4641 42.9973 56.999Z" fill="#5F2F17"/>
<path d="M36.6688 62.9106L39.3918 63.7537C39.6854 64.6324 39.8355 64.957 39.9819 65.8879L39.6259 67.8318C38.613 68.2884 38.1743 68.4921 37.0701 68.7958L35.9574 67.3391L36.6688 62.9106Z" fill="#5F2A0E"/>
<path d="M88.0981 33.2526C88.4676 32.3843 88.6074 31.3473 89.5143 31.1706C93.0768 30.4754 101.231 29.4525 103.439 32.9765C102.095 34.3264 101.853 34.5173 101.573 36.3796L101.316 36.3538C100.997 34.5314 101.36 35.0186 100.168 34.0595C97.2613 33.4502 92.3016 33.3496 89.5608 34.494L88.0981 33.2526Z" fill="#693712"/>
<path d="M107.325 40.2828L108.993 38.7015C112.028 40.7216 113.662 43.9676 116.173 45.0905L116.398 46.6019C115.375 48.9581 115.369 49.5546 115.1 52.071C114.39 45.7189 110.942 48.3519 109.181 43.3828C108.286 43.2534 108.182 43.0398 107.432 42.4882L107.325 40.2828Z" fill="#654015"/>
<path d="M42.9973 56.999L43.4949 55.0833C48.0881 52.5055 45.585 51.8735 50.6617 51.0825L51.7389 51.242L51.5177 53.2627C50.2334 54.1561 50.1065 54.1224 48.5195 54.3672C48.1739 55.1011 48.0513 55.1489 47.9514 55.9178L47.8785 57.1941L44.8699 57.9832L42.9973 56.999Z" fill="#5F2F17"/>
<path d="M103.439 32.9765C106.627 34.6664 105.415 36.2458 108.744 37.5295L108.993 38.7015L107.325 40.2828L104.926 39.9981C103.778 37.8787 103.541 37.6927 101.573 36.3796C101.853 34.5173 102.095 34.3264 103.439 32.9765Z" fill="#5F2F17"/>
<path d="M66.1259 51.3452C71.0862 51.2261 68.2674 53.5124 73.8245 54.8237C71.9445 54.9557 71.186 54.6513 70.0542 55.7184L69.8116 57.1432L69.5371 57.1536C68.6945 55.9362 67.8085 55.6091 66.6963 53.8254L66.4531 53.4265L65.0995 53.1461L63.8703 52.2011C65.1767 52.1514 65.1253 52.0962 66.1259 51.3452Z" fill="#654015"/>
</svg>
