<svg width="168" height="180" viewBox="0 0 168 180" fill="none" xmlns="http://www.w3.org/2000/svg">
<path d="M10.6781 5.56911C10.6553 2.72413 10.1951 2.25146 11.4112 0.127293C22.8359 0.102415 144.235 -0.310293 145.859 0.49791C146.577 2.51618 146.434 3.49598 146.37 5.58697C149.018 5.63099 149.4 5.20998 151.346 6.40411C151.761 8.58568 151.502 9.40153 152.855 10.6703C155.518 10.921 155.407 10.4642 156.983 11.9652C157.08 13.5338 157.152 14.9256 157.154 16.505C158.962 16.4546 160.718 16.1529 162.17 17.0575L162.155 17.6532C162.118 19.6473 162.048 20.2488 163.274 21.9016C164.604 22.0783 165.932 22.2703 167.257 22.4789C168.394 24.5284 167.886 111.693 167.89 120.194L167.913 154.495C167.915 159.824 168.175 168.554 167.634 173.67C164.606 175.345 164.358 173.16 162.569 175.519C162.545 177.854 162.982 178.216 161.687 179.515C155.502 180.282 140.741 179.911 133.93 179.906L42.1535 179.841C37.3408 179.841 26.3799 180.184 22.2768 179.534C20.5314 177.552 23.9098 173.046 16.8459 173.842C15.9973 172.04 16.2785 170.964 16.4283 168.96L10.9345 168.932C10.7993 166.955 10.7676 166.025 10.2427 164.057L9.21137 163.905L6.06465 163.224L5.56771 162.096C4.62522 155.859 3.03536 159.852 0.616611 156.742C-0.426795 147.829 0.0339864 13.4043 0.678816 11.5455C2.45527 10.5638 2.87541 10.9739 5.17991 11.0983C5.20467 9.24716 5.28336 8.41792 5.57912 6.58973C7.20896 5.28972 8.20921 5.69668 10.6781 5.56911Z" fill="#A3633B"/>
<path d="M97.5131 27.4033C97.4718 29.1907 97.6248 31.3933 96.8873 32.9236C95.1204 32.9823 93.0767 32.553 92.0524 34.1783C91.0248 33.0014 89.7352 32.9619 87.998 32.4458C90.215 32.6506 89.6977 32.9204 91.4367 32.0688L91.6404 29.8158L92.0689 28.4999C93.5185 27.4104 95.5894 27.5386 97.5131 27.4033Z" fill="#572E1C"/>
<path d="M146.37 5.58697C149.018 5.63099 149.4 5.20998 151.346 6.40411C151.761 8.58568 151.502 9.40153 152.855 10.6703C155.518 10.921 155.407 10.4642 156.983 11.9652C157.08 13.5338 157.152 14.9256 157.154 16.505C158.962 16.4546 160.718 16.1529 162.17 17.0575L162.155 17.6532C162.118 19.6473 162.048 20.2488 163.274 21.9016C164.604 22.0783 165.932 22.2703 167.257 22.4789C168.394 24.5284 167.886 111.693 167.89 120.194L167.913 154.495C167.915 159.824 168.175 168.554 167.634 173.67C164.606 175.345 164.358 173.16 162.569 175.519C162.545 177.854 162.982 178.216 161.687 179.515C155.502 180.282 140.741 179.911 133.93 179.906L42.1535 179.841C37.3408 179.841 26.3799 180.184 22.2768 179.534C20.5314 177.552 23.9098 173.046 16.8459 173.842C15.9973 172.04 16.2785 170.964 16.4283 168.96L10.9345 168.932C10.7993 166.955 10.7676 166.025 10.2427 164.057L9.21137 163.905L6.06465 163.224L5.56771 162.096L5.58039 157.497C5.317 154.99 5.49091 149.879 5.50424 147.178L10.5981 147.275C10.4979 145.999 10.5626 143.776 10.5563 142.417L11.0513 142.215C11.5743 141.664 11.9849 141.55 12.6799 141.194C20.341 141.806 22.1099 140.174 29.1135 139.322C33.8666 138.744 44.0144 138.751 48.7935 139.119C61.5898 139.122 84.2357 139.823 96.1345 138.882L97.1253 136.476C95.2549 136.54 94.6227 136.645 92.8583 136.066L92.468 134.479L92.2694 126.106L92.3303 104.921L92.3639 100.14C92.1532 93.9126 92.6222 87.956 92.3055 81.4228L92.1659 77.6388L92.4509 76.8734C96.0977 76.0218 129.59 76.6571 136.288 76.4262C137.644 76.5308 139.909 76.6176 141.142 76.9334L141.522 76.3439L146.087 75.9893L146.323 72.5906L146.464 65.7697L146.552 61.6336C146.519 57.1665 146.67 48.8759 146.04 44.7749L146.297 38.759L146.304 33.3032L146.413 29.8069C146.295 25.4272 148.012 19.5159 144.942 16.8546C143.387 16.6371 142.438 16.4017 140.919 15.9979L141.164 11.8338C143.531 12.6503 144.023 12.5265 146.47 12.265L146.481 11.2099L146.37 5.58697Z" fill="#9E9B9E"/>
<path d="M146.087 75.9893C146.719 80.6471 146.983 98.2458 146.412 102.68L146.448 105.759L146.262 109.694L146.511 126.081L146.494 131.08L141.269 131.282C141.182 132.746 141.1 135.4 140.922 136.761C136.033 135.75 114.271 136.204 107.868 136.266L97.1253 136.476C95.2549 136.54 94.6227 136.645 92.8583 136.066L92.468 134.479L92.2694 126.106L92.3303 104.921L92.3639 100.14C92.1532 93.9126 92.6222 87.956 92.3055 81.4228L92.1659 77.6388L92.4509 76.8734C96.0977 76.0218 129.59 76.6571 136.288 76.4262C137.644 76.5308 139.909 76.6176 141.142 76.9334L141.522 76.3439L146.087 75.9893Z" fill="#4B2716"/>
<path d="M146.087 75.9893C146.719 80.6471 146.983 98.2458 146.412 102.68L146.199 98.899L141.126 98.9691L141.203 92.4806C141.062 87.299 141.042 82.1156 141.142 76.9334L141.522 76.3439L146.087 75.9893Z" fill="#A3633B"/>
<path d="M141.203 92.4806C143.7 92.5731 144.212 92.1655 145.997 93.4151C146.57 95.3766 146.325 96.8577 146.199 98.899L141.126 98.9691L141.203 92.4806Z" fill="#693922"/>
<path d="M141.073 109.329L146.262 109.694L146.511 126.081L146.494 131.08L141.269 131.282L141.215 125.993C141.051 120.44 141.004 114.884 141.073 109.329Z" fill="#A3633B"/>
<path d="M141.215 125.993L146.511 126.081L146.494 131.08L141.269 131.282L141.215 125.993Z" fill="#693922"/>
<path d="M141.126 98.9691L146.199 98.899L146.412 102.68L146.448 105.759L146.262 109.694L141.073 109.329L141.05 105.893L141.126 98.9691Z" fill="#925C41"/>
<path d="M141.05 105.893L146.448 105.759L146.262 109.694L141.073 109.329L141.05 105.893Z" fill="#B3754D"/>
<path d="M97.5917 81.8802C100.785 81.507 132.393 81.2359 135.603 81.7877L135.538 87.1791L135.561 93.2276L135.556 114.812L135.573 120.491L130.948 120.178L130.578 120.698C129.065 124.296 128.707 124.423 124.987 125.687C124.873 127.119 124.613 129.428 124.713 130.785L97.5733 130.761C97.3283 117.002 97.3741 103.24 97.7098 89.4831C97.3982 86.4041 97.4273 84.9886 97.5917 81.8802Z" fill="#C0E0AE"/>
<path d="M97.5917 81.8802C100.785 81.507 132.393 81.2359 135.603 81.7877L135.538 87.1791L135.561 93.2276C125.932 92.0877 118.578 92.2739 108.883 92.3032V92.7963L102.887 92.7906C102.588 95.6592 103.056 96.6549 101.372 98.1635L98.0735 98.2847L98.3807 92.6362L97.7098 89.4831C97.3982 86.4041 97.4273 84.9886 97.5917 81.8802Z" fill="#BC7D53"/>
<path d="M97.5917 81.8802L98.2727 81.9522C104.418 82.5672 119.483 81.4662 123.829 82.6488C124.517 84.4713 124.44 85.2865 124.47 87.1816C119.948 87.2575 101.727 87.8215 98.4828 86.9118C97.7802 84.7571 97.7599 84.0586 97.5917 81.8802Z" fill="#F0C07C"/>
<path d="M98.3807 92.6362C101.88 92.4825 105.381 92.3715 108.883 92.3032V92.7963L102.887 92.7906C102.588 95.6592 103.056 96.6549 101.372 98.1635L98.0735 98.2847L98.3807 92.6362Z" fill="#A39E8E"/>
<path d="M135.538 87.1791C132.435 87.3654 131.723 87.8431 129.8 85.326L130.202 83.6943C132.406 81.6422 132.05 82.2552 135.603 81.7877L135.538 87.1791Z" fill="#E6AD7F"/>
<path d="M97.7098 89.4831L98.3807 92.6362L98.0735 98.2847C97.9808 101.91 97.0624 117.337 98.7983 119.418C100.208 119.575 101.614 119.749 103.029 119.838L103.209 120.515C103.226 122.768 102.859 123.416 103.884 125.12C107.99 125.588 120.558 125.6 124.784 125.158L124.987 125.687C124.873 127.119 124.613 129.428 124.713 130.785L97.5733 130.761C97.3283 117.002 97.3741 103.24 97.7098 89.4831Z" fill="#A2845D"/>
<path d="M108.883 92.3032C118.578 92.2739 125.932 92.0877 135.561 93.2276L135.556 114.812L135.573 120.491L130.948 120.178L130.646 119.848L129.698 119.7C130.055 110.805 130.14 101.902 129.953 93.0024C123.242 92.7198 115.66 92.841 108.883 92.7963V92.3032Z" fill="#A2A679"/>
<path d="M130.646 119.848C130.401 117.935 130.327 117.571 130.714 115.693C132.626 114.417 132.84 114.86 135.556 114.812L135.573 120.491L130.948 120.178L130.646 119.848Z" fill="#A2845D"/>
<path d="M98.0735 98.2847L101.372 98.1635C103.056 96.6549 102.588 95.6592 102.887 92.7906C103.549 98.4034 101.776 105.326 104.218 108.652C105.953 108.995 106.447 108.951 108.222 108.858L108.259 109.476C108.27 111.345 108.443 112.556 107.695 114.262L107.68 114.726C105.157 114.883 104.527 114.418 103.243 115.875L103.029 119.838C101.614 119.749 100.208 119.575 98.7983 119.418C97.0624 117.337 97.9808 101.91 98.0735 98.2847Z" fill="#85AA89"/>
<path d="M107.695 114.262C106.123 114.309 106.038 114.305 104.545 113.847C103.325 112.132 103.502 112.911 103.806 110.946C105.606 109.135 105.084 109.678 108.259 109.476C108.27 111.345 108.443 112.556 107.695 114.262Z" fill="#285630"/>
<path d="M113.944 103.633C116.78 103.66 117.215 103.157 119.035 104.547C119.389 106.427 119.349 106.928 119.239 108.847L119.02 109.633L118.951 114.282L114.484 114.284L113.835 114.271C112.898 114.401 108.836 114.888 108.157 115.073L107.68 114.726L107.695 114.262C108.443 112.556 108.27 111.345 108.259 109.476L108.222 108.858C108.362 107.156 108.519 105.456 108.692 103.757L113.944 103.633Z" fill="#796247"/>
<path d="M113.944 103.633C116.78 103.66 117.215 103.157 119.035 104.547C119.389 106.427 119.349 106.928 119.239 108.847L113.968 108.944L113.944 103.633Z" fill="#BC7D53"/>
<path d="M108.692 103.757L113.944 103.633L113.968 108.944C112.326 109.027 111.455 108.985 109.814 108.847C108.576 107.226 108.897 106.113 108.692 103.757Z" fill="#4E3F30"/>
<path d="M113.835 114.271C113.827 112.74 113.928 111.747 114.1 110.223C115.725 108.995 116.509 109.517 119.02 109.633L118.951 114.282L114.484 114.284L113.835 114.271Z" fill="#693922"/>
<path d="M113.944 103.633C114.014 100.432 113.485 100.629 115.102 98.6024C117.653 97.5141 121.527 98.3555 124.564 98.3115C124.614 103.038 125.897 111.254 123.351 114.257C121.669 114.694 120.824 114.719 119.084 114.826L118.951 114.282L119.02 109.633L119.239 108.847C119.349 106.928 119.389 106.427 119.035 104.547C117.215 103.157 116.78 103.66 113.944 103.633Z" fill="#4E3F30"/>
<path d="M118.951 114.282L119.084 114.826C119.168 117.667 119.638 117.683 118.351 119.636C116.213 120.074 115.264 120.008 113.143 119.97C113.35 116.872 112.936 116.486 114.484 114.284L118.951 114.282Z" fill="#312717"/>
<path d="M113.835 114.271L114.484 114.284C112.936 116.486 113.35 116.872 113.143 119.97C111.599 119.975 110.703 119.878 109.169 119.684C107.891 118.077 108.291 117.501 108.157 115.073C108.836 114.888 112.898 114.401 113.835 114.271Z" fill="#4E3F30"/>
<path d="M107.68 114.726C107.791 116.963 108.207 118.821 106.993 120.539C105.276 121.052 105.032 120.891 103.209 120.515L103.029 119.838L103.243 115.875C104.527 114.418 105.157 114.883 107.68 114.726Z" fill="#C6E9BB"/>
<path d="M130.646 119.848L130.948 120.178L130.578 120.698C129.065 124.296 128.707 124.423 124.987 125.687L124.784 125.158C124.796 123.774 124.829 122.39 124.883 121.007C126.504 119.374 126.718 119.903 129.698 119.7L130.646 119.848Z" fill="#828158"/>
<path d="M130.948 120.178L135.573 120.491L135.548 124.968C135.521 127.99 136.039 128.478 134.609 130.506C132.866 130.754 132.268 130.828 130.517 130.734L124.713 130.785C124.613 129.428 124.873 127.119 124.987 125.687C128.707 124.423 129.065 124.296 130.578 120.698L130.948 120.178Z" fill="#D19263"/>
<path d="M124.987 125.687C128.707 124.423 129.065 124.296 130.578 120.698C130.126 123.785 129.294 127.298 130.397 130.199L130.517 130.734L124.713 130.785C124.613 129.428 124.873 127.119 124.987 125.687Z" fill="#937055"/>
<path d="M130.948 120.178L135.573 120.491L135.548 124.968C133.708 124.531 133.117 124.228 131.29 124.776C130.047 126.355 130.342 128.179 130.397 130.199C129.294 127.298 130.126 123.785 130.578 120.698L130.948 120.178Z" fill="#BC7D53"/>
<path d="M146.37 5.58697C149.018 5.63099 149.4 5.20998 151.346 6.40411C151.761 8.58568 151.502 9.40153 152.855 10.6703C151.655 13.4534 152.457 18.7102 151.917 22.2671C151.186 55.4589 151.668 93.4559 151.946 126.728C151.584 131.819 152.036 142.911 151.213 146.809C149.66 147.417 148.867 147.257 147.192 147.192L146.379 147.78C146.38 149.67 146.448 150.277 145.963 152.131C139.301 152.969 120.551 152.536 113.292 152.537L48.8932 152.528C37.7324 152.528 23.6401 152.634 12.1848 152.489C11.6949 152.163 11.283 151.888 10.9485 151.666C10.6876 149.924 10.6242 149.038 10.5981 147.275C10.4979 145.999 10.5626 143.776 10.5563 142.417L11.0513 142.215C11.5743 141.664 11.9849 141.55 12.6799 141.194C20.341 141.806 22.1099 140.174 29.1135 139.322C33.8666 138.744 44.0144 138.751 48.7935 139.119C61.5898 139.122 84.2357 139.823 96.1345 138.882L97.1253 136.476L107.868 136.266C114.271 136.204 136.033 135.75 140.922 136.761C141.1 135.4 141.182 132.746 141.269 131.282L146.494 131.08L146.511 126.081L146.262 109.694L146.448 105.759L146.412 102.68C146.983 98.2458 146.719 80.6471 146.087 75.9893L146.323 72.5906L146.464 65.7697L146.552 61.6336C146.519 57.1665 146.67 48.8759 146.04 44.7749L146.297 38.759L146.304 33.3032L146.413 29.8069C146.295 25.4272 148.012 19.5159 144.942 16.8546C143.387 16.6371 142.438 16.4017 140.919 15.9979L141.164 11.8338C143.531 12.6503 144.023 12.5265 146.47 12.265L146.481 11.2099L146.37 5.58697Z" fill="#C58453"/>
<path d="M146.494 131.08L146.613 133.919C146.706 136.213 147.113 139.571 146.076 141.484C143.07 142.636 142.99 141.984 141.328 144.119L141.05 146.264C138.968 147.748 26.981 147.713 16.6783 146.594C13.7354 142.8 15.0421 143.429 11.0513 142.215C11.5743 141.664 11.9849 141.55 12.6799 141.194C20.341 141.806 22.1099 140.174 29.1135 139.322C33.8666 138.744 44.0144 138.751 48.7935 139.119C61.5898 139.122 84.2357 139.823 96.1345 138.882L97.1253 136.476L107.868 136.266C114.271 136.204 136.033 135.75 140.922 136.761C141.1 135.4 141.182 132.746 141.269 131.282L146.494 131.08Z" fill="#A3633B"/>
<path d="M97.1253 136.476L107.868 136.266L107.439 140.966C103.243 142.975 62.5767 140.678 55.417 141.521C52.5717 141.856 50.363 141.641 48.7935 139.119C61.5898 139.122 84.2357 139.823 96.1345 138.882L97.1253 136.476Z" fill="#BC7D53"/>
<path d="M146.494 131.08L146.613 133.919C146.032 137.38 146.695 136.548 144.412 138.505C142.286 138.63 143.097 138.859 141.354 137.656L140.922 136.761C141.1 135.4 141.182 132.746 141.269 131.282L146.494 131.08Z" fill="#925C41"/>
<path d="M146.37 5.58697C149.018 5.63099 149.4 5.20998 151.346 6.40411C151.761 8.58568 151.502 9.40153 152.855 10.6703C151.655 13.4534 152.457 18.7102 151.917 22.2671C151.405 18.5386 152.589 15.0009 151.142 12.1164C149.247 10.8336 149.183 11.268 146.481 11.2099L146.37 5.58697Z" fill="#693922"/>
<path d="M141.164 11.8338C143.531 12.6503 144.023 12.5265 146.47 12.265C146.181 14.615 146.603 14.4995 145.132 15.8097L140.919 15.9979L141.164 11.8338Z" fill="#E6AD7F"/>
<path d="M151.946 126.728C152.386 132.616 151.422 154.09 152.41 157.112C154.376 157.634 155.039 157.735 157.068 157.888C154.632 158.09 153.767 157.71 152.2 159.049L151.717 163.448L146.384 163.338L146.054 168.908L61.5803 168.868C46.9041 168.871 30.9198 168.532 16.4283 168.96L10.9345 168.932C10.7993 166.955 10.7676 166.025 10.2427 164.057L9.21137 163.905L6.06465 163.224L5.56771 162.096L5.58039 157.497C5.317 154.99 5.49091 149.879 5.50424 147.178L10.5981 147.275C10.6242 149.038 10.6876 149.924 10.9485 151.666C11.283 151.888 11.6949 152.163 12.1848 152.489C23.6401 152.634 37.7324 152.528 48.8932 152.528L113.292 152.537C120.551 152.536 139.301 152.969 145.963 152.131C146.448 150.277 146.38 149.67 146.379 147.78L147.192 147.192C148.867 147.257 149.66 147.417 151.213 146.809C152.036 142.911 151.584 131.819 151.946 126.728Z" fill="#844D33"/>
<path d="M10.9345 168.932C11.0525 167.421 11.057 164.337 11.8592 163.283L108.268 163.311C113.384 163.312 142.412 163.008 145.312 163.581C145.813 165.82 145.904 166.666 146.054 168.908L61.5803 168.868C46.9041 168.871 30.9198 168.532 16.4283 168.96L10.9345 168.932Z" fill="#572E1C"/>
<path d="M5.58039 157.497C9.04317 157.601 8.30762 157.053 10.5614 158.943C11.3287 160.939 11.2004 160.08 10.5994 162.547C10.2262 162.935 9.6201 163.621 9.21137 163.905L6.06465 163.224L5.56771 162.096L5.58039 157.497Z" fill="#4B2716"/>
<path d="M146.384 163.338C146.401 160.364 145.931 160.366 147.297 158.25L148.599 157.693C150.783 158.64 150.07 158.035 151.38 159.92L151.717 163.448L146.384 163.338Z" fill="#572E1C"/>
<path d="M152.855 10.6703C155.518 10.921 155.407 10.4642 156.983 11.9652C157.08 13.5338 157.152 14.9256 157.154 16.505L157.068 157.888C155.039 157.735 154.376 157.634 152.41 157.112C151.422 154.09 152.386 132.616 151.946 126.728C151.668 93.4559 151.186 55.4589 151.917 22.2671C152.457 18.7102 151.655 13.4534 152.855 10.6703Z" fill="#572E1C"/>
<path d="M11.3775 5.63991L14.9165 5.57485C16.0246 7.91781 16.189 8.25142 16.2118 10.8553L16.2753 11.3101C16.1477 13.7194 16.545 14.1053 15.2827 15.7306C13.4846 15.9316 12.7427 15.9641 10.937 15.8767C11.3375 19.5905 11.3686 25.9649 10.9263 29.7157L11.1078 32.761L10.9136 41.3648C12.8296 41.3852 18.4256 41.3239 20.0116 41.6601L19.7958 42.9958C15.3671 45.1143 13.0074 43.5674 11.3102 45.439C10.5067 51.4912 11.3458 56.8661 10.8711 62.299L11.0881 65.5094C11.1782 68.5451 10.6781 68.8175 12.1487 70.8607C15.2325 72.3616 19.8441 71.2 24.0501 71.563C24.8726 71.9304 25.5771 72.1983 26.3393 72.6825L26.4618 71.8488C28.197 70.9372 35.6506 71.3569 38.2553 71.3576C39.8401 71.2326 42.0494 70.9557 43.5669 71.1669L44.0709 71.3404C45.2013 71.3799 47.5629 71.3895 48.5764 71.526L48.5403 76.4045L54.286 76.6737C56.0237 76.6444 57.7614 76.5972 59.4986 76.5321L60.17 76.4224L60.4715 76.4932L65.1592 76.5959L65.1281 81.5083L65.2862 87.1682C66.6463 87.2499 69.6096 87.3175 70.7628 87.7264L70.9208 87.4087C73.3643 87.3207 73.8733 86.8474 75.4898 88.0453L76.6062 91.7923C78.5902 92.8442 78.6023 92.4716 81.1175 92.4187L81.5129 92.2784C84.117 92.9029 89.1144 92.8167 91.9641 92.8665C91.9152 88.8663 91.7781 85.4077 92.3055 81.4228C92.6222 87.956 92.1532 93.9126 92.3639 100.14L92.3303 104.921L92.2694 126.106L92.468 134.479L92.8583 136.066C94.6227 136.645 95.2549 136.54 97.1253 136.476L96.1345 138.882C84.2357 139.823 61.5898 139.122 48.7935 139.119C44.0144 138.751 33.8666 138.744 29.1135 139.322C22.1099 140.174 20.341 141.806 12.6799 141.194C11.9849 141.55 11.5743 141.664 11.0513 142.215L10.5563 142.417C10.5626 143.776 10.4979 145.999 10.5981 147.275L5.50424 147.178C5.49091 149.879 5.317 154.99 5.58039 157.497L5.56771 162.096C4.62522 155.859 3.03536 159.852 0.616611 156.742C-0.426795 147.829 0.0339864 13.4043 0.678816 11.5455C2.45527 10.5638 2.87541 10.9739 5.17991 11.0983C5.20467 9.24716 5.28336 8.41792 5.57912 6.58973C7.20896 5.28972 8.20921 5.69668 10.6781 5.56911L11.3775 5.63991Z" fill="#F0C07C"/>
<path d="M38.2553 71.3576C39.8401 71.2326 42.0494 70.9557 43.5669 71.1669L44.0709 71.3404C45.2013 71.3799 47.5629 71.3895 48.5764 71.526L48.5403 76.4045L54.286 76.6737C56.0237 76.6444 57.7614 76.5972 59.4986 76.5321L60.17 76.4224L60.4715 76.4932L65.1592 76.5959L65.1281 81.5083L65.2862 87.1682C66.6463 87.2499 69.6096 87.3175 70.7628 87.7264L70.9208 87.4087C73.3643 87.3207 73.8733 86.8474 75.4898 88.0453L76.6062 91.7923C78.5902 92.8442 78.6023 92.4716 81.1175 92.4187L81.5129 92.2784C84.117 92.9029 89.1144 92.8167 91.9641 92.8665C91.9152 88.8663 91.7781 85.4077 92.3055 81.4228C92.6222 87.956 92.1532 93.9126 92.3639 100.14L92.3303 104.921L92.2694 126.106L92.468 134.479C92.2694 133.404 92.0269 130.902 91.0629 130.832C88.6784 130.658 84.4972 130.561 82.2606 130.545C70.4537 130.471 58.6462 130.508 46.84 130.656C42.7381 130.699 31.1559 131.717 27.8309 129.368C24.78 127.212 25.984 127.423 22.3625 127.822L21.5622 129.345C21.3629 128.646 20.8526 127.499 20.5632 126.783C20.9491 122.718 20.4921 123.793 23.9105 120.529L26.1255 120.21C27.4932 121.499 27.2311 122.771 27.4126 125.001C27.5059 123.062 27.4278 121.763 28.3037 120L32.7032 119.837L32.4773 119.257L32.9984 114.582L32.7083 113.975C32.5369 107.34 33.1482 100.375 32.3866 93.7774C31.3273 92.9635 29.3319 93.1765 27.7217 93.0949L27.0864 93.1191L26.8052 92.568L27.141 88.0626C27.0807 86.0456 26.9036 84.8444 27.5122 82.9072C29.5229 81.4834 29.9348 81.8795 32.7324 81.5765C32.813 79.8453 32.8822 79.0186 33.2103 77.3206C35.188 75.9255 35.4933 76.4039 38.3836 76.3267L38.2553 71.3576Z" fill="#693922"/>
<path d="M38.2553 71.3576C39.8401 71.2326 42.0494 70.9557 43.5669 71.1669L44.0709 71.3404C45.2013 71.3799 47.5629 71.3895 48.5764 71.526L48.5403 76.4045L54.286 76.6737C56.0237 76.6444 57.7614 76.5972 59.4986 76.5321L60.17 76.4224L60.4715 76.4932L65.1592 76.5959L65.1281 81.5083L65.2862 87.1682C66.6463 87.2499 69.6096 87.3175 70.7628 87.7264L70.712 92.5208C72.319 92.6005 74.3525 92.6369 75.9094 92.8397L70.8142 93.2696C67.5704 93.0362 63.134 92.2503 60.4804 93.6874C59.5697 94.9556 59.8115 95.9628 59.8661 97.5773C55.6652 99.0004 52.4562 96.9662 49.1375 98.9787C48.3994 100.781 48.6349 101.61 48.7967 103.549C46.7467 103.821 45.2026 103.603 44.0481 104.82C44.2664 106.726 44.0481 107.121 43.0377 108.734C39.5635 109.732 39.2772 108.456 37.5598 110.444L37.4494 112.985C35.961 114.281 34.9931 113.935 32.7083 113.975C32.5369 107.34 33.1482 100.375 32.3866 93.7774C31.3273 92.9635 29.3319 93.1765 27.7217 93.0949L27.0864 93.1191L26.8052 92.568L27.141 88.0626C27.0807 86.0456 26.9036 84.8444 27.5122 82.9072C29.5229 81.4834 29.9348 81.8795 32.7324 81.5765C32.813 79.8453 32.8822 79.0186 33.2103 77.3206C35.188 75.9255 35.4933 76.4039 38.3836 76.3267L38.2553 71.3576Z" fill="#9E9B9E"/>
<path d="M65.2862 87.1682C66.6463 87.2499 69.6096 87.3175 70.7628 87.7264L70.712 92.5208C72.319 92.6005 74.3525 92.6369 75.9094 92.8397L70.8142 93.2696C67.5704 93.0362 63.134 92.2503 60.4804 93.6874C59.5697 94.9556 59.8115 95.9628 59.8661 97.5773C55.6652 99.0004 52.4562 96.9662 49.1375 98.9787C48.3994 100.781 48.6349 101.61 48.7967 103.549C46.9872 103.402 45.5142 103.23 43.7231 102.98C43.2573 100.481 43.7694 94.4472 44.5545 91.9326C46.3703 92.2299 46.9796 92.3345 48.8221 92.2318L49.2143 92.2063C51.046 92.1929 52.3667 92.124 54.1921 92.4774C56.2979 92.7695 57.2753 92.5201 59.3228 92.1884L59.5621 87.1415L65.2862 87.1682Z" fill="#8A8FA3"/>
<path d="M65.2862 87.1682C66.6463 87.2499 69.6096 87.3175 70.7628 87.7264L70.712 92.5208C66.9135 92.5182 63.1156 92.4072 59.3228 92.1884L59.5621 87.1415L65.2862 87.1682Z" fill="#767F8C"/>
<path d="M54.286 76.6737C56.0237 76.6444 57.7614 76.5972 59.4986 76.5321L60.17 76.4224L60.4715 76.4932L65.1592 76.5959L65.1281 81.5083L65.2862 87.1682L59.5621 87.1415C59.7328 85.3152 59.9308 84.4247 59.3323 82.6456C57.1579 81.4668 57.1769 81.9108 54.3146 82.0435L54.114 81.6021L54.286 76.6737Z" fill="#767F8C"/>
<path d="M54.286 76.6737C56.0237 76.6444 57.7614 76.5972 59.4986 76.5321C59.4078 79.0212 59.8629 79.837 58.5117 81.2825C57.0449 81.3807 55.5795 81.4872 54.114 81.6021L54.286 76.6737Z" fill="#48515C"/>
<path d="M60.4715 76.4932L65.1592 76.5959L65.1281 81.5083C63.2355 81.5727 61.9865 81.8438 60.4043 80.8882C59.623 79.2686 60.0723 78.3004 60.4715 76.4932Z" fill="#C2C6D9"/>
<path d="M32.7324 81.5765L32.8257 82.3962L32.6963 86.6369L32.7242 92.6656L27.7287 92.515L27.7217 93.0949L27.0864 93.1191L26.8052 92.568L27.141 88.0626C27.0807 86.0456 26.9036 84.8444 27.5122 82.9072C29.5229 81.4834 29.9348 81.8795 32.7324 81.5765Z" fill="#51504F"/>
<path d="M27.7287 92.515C27.6138 90.6001 27.4672 89.5195 27.874 87.602C29.7856 86.2695 29.9329 86.7185 32.6963 86.6369L32.7242 92.6656L27.7287 92.515Z" fill="#2D323C"/>
<path d="M54.3146 82.0435C57.1769 81.9108 57.1579 81.4668 59.3323 82.6456C59.9308 84.4247 59.7328 85.3152 59.5621 87.1415L59.3228 92.1884C57.2753 92.5201 56.2979 92.7695 54.1921 92.4774L54.3152 87.2378L54.3146 82.0435Z" fill="#C2C6D9"/>
<path d="M54.3152 87.2378L59.5621 87.1415L59.3228 92.1884C57.2753 92.5201 56.2979 92.7695 54.1921 92.4774L54.3152 87.2378Z" fill="#9E9B9E"/>
<path d="M54.114 81.6021L54.3146 82.0435L54.3152 87.2378L54.1921 92.4774C52.3667 92.124 51.046 92.1929 49.2143 92.2063L49.2092 89.184C49.1007 86.9539 48.8284 84.7092 49.4301 82.5799C51.3538 81.1708 51.2389 81.641 54.114 81.6021Z" fill="#52656C"/>
<path d="M49.2092 89.184C51.2383 88.7528 52.4632 88.0983 54.3152 87.2378L54.1921 92.4774C52.3667 92.124 51.046 92.1929 49.2143 92.2063L49.2092 89.184Z" fill="#767F8C"/>
<path d="M32.8257 82.3962L33.343 82.2616C33.291 84.7768 32.8499 85.194 34.0227 87.0062C35.6539 87.3787 36.3951 87.4604 38.0669 87.5765C37.9044 90.5254 38.3728 90.5255 36.908 92.5444C35.0249 92.8939 34.639 92.8518 32.7242 92.6656L32.6963 86.6369L32.8257 82.3962Z" fill="#C2C6D9"/>
<path d="M32.7324 81.5765C32.813 79.8453 32.8822 79.0186 33.2103 77.3206C35.188 75.9255 35.4933 76.4039 38.3836 76.3267L38.4344 81.5389L32.7324 81.5765Z" fill="#343C46"/>
<path d="M38.2553 71.3576C39.8401 71.2326 42.0494 70.9557 43.5669 71.1669C43.461 73.7107 43.8691 74.2293 42.5985 76.0416L41.7975 76.2138L38.3836 76.3267L38.2553 71.3576Z" fill="#2C2C2E"/>
<path d="M33.343 82.2616C35.8995 82.1679 35.9699 81.7698 37.9292 82.8179C38.5035 84.743 38.2884 85.6284 38.0669 87.5765C36.3951 87.4604 35.6539 87.3787 34.0227 87.0062C32.8499 85.194 33.291 84.7768 33.343 82.2616Z" fill="#EFEFF0"/>
<path d="M38.3836 76.3267L41.7975 76.2138C43.5149 77.0424 43.0745 76.536 43.9014 78.0433C43.2998 80.3244 43.7859 79.4779 41.6229 81.183L38.4344 81.5389L38.3836 76.3267Z" fill="#EFEFF0"/>
<path d="M44.0709 71.3404C45.2013 71.3799 47.5629 71.3895 48.5764 71.526L48.5403 76.4045C47.2747 76.328 46.0098 76.2368 44.7462 76.1315C43.4515 74.3869 43.956 74.0003 44.0709 71.3404Z" fill="#C2C6D9"/>
<path d="M59.8661 97.5773C59.8115 95.9628 59.5697 94.9556 60.4804 93.6874C63.134 92.2503 67.5704 93.0362 70.8142 93.2696L70.8472 98.3574L70.7533 103.408L70.1395 103.332L70.2506 103.792L65.5794 103.889L65.5585 104.621L65.1675 104.442L65.2303 108.94C65.3846 111.022 65.7799 112.576 64.7067 114.248C61.7491 114.275 62.4638 113.854 60.2634 115.337C59.2142 117.071 59.1412 117.296 59.2415 119.32C57.3356 120.192 55.6696 119.961 53.5936 119.882L49.1147 119.72L48.5866 119.517L48.1779 119.865L32.7032 119.837L32.4773 119.257L32.9984 114.582L32.7083 113.975C34.9931 113.935 35.961 114.281 37.4494 112.985L37.5598 110.444C39.2772 108.456 39.5635 109.732 43.0377 108.734C44.0481 107.121 44.2664 106.726 44.0481 104.82C45.2026 103.603 46.7467 103.821 48.7967 103.549C48.6349 101.61 48.3994 100.781 49.1375 98.9787C52.4562 96.9662 55.6652 99.0004 59.8661 97.5773Z" fill="#9DA7B1"/>
<path d="M32.9984 114.582C37.3427 114.603 45.7496 113.459 48.3156 115.774C48.6171 117.398 48.6291 117.864 48.5866 119.517L48.1779 119.865L32.7032 119.837L32.4773 119.257L32.9984 114.582Z" fill="#EFEFF0"/>
<path d="M59.8648 109.043L65.2303 108.94C65.3846 111.022 65.7799 112.576 64.7067 114.248C61.7491 114.275 62.4638 113.854 60.2634 115.337C59.2142 117.071 59.1412 117.296 59.2415 119.32C57.3356 120.192 55.6696 119.961 53.5936 119.882L53.5859 114.575C55.5699 114.719 57.2791 115.001 59.147 114.282C60.2989 112.197 59.8711 111.779 59.8648 109.043Z" fill="#2C2C2E"/>
<path d="M59.8661 97.5773C59.8115 95.9628 59.5697 94.9556 60.4804 93.6874C63.134 92.2503 67.5704 93.0362 70.8142 93.2696L70.8472 98.3574L70.7533 103.408L70.1395 103.332C70.2531 100.81 70.184 100.395 69.6096 97.9556C66.018 98.0181 63.4075 97.849 59.8661 97.5773Z" fill="#9E9B9E"/>
<path d="M59.8648 109.043C59.8254 107.022 59.5557 105.832 60.693 104.227C62.314 103.514 63.3885 104.016 65.1675 104.442L65.2303 108.94L59.8648 109.043Z" fill="#EFEFF0"/>
<path d="M65.5794 103.889C65.1808 102.006 65.21 101.591 65.323 99.6593C66.8672 98.0461 66.9693 98.4812 69.6096 97.9556C70.184 100.395 70.2531 100.81 70.1395 103.332L70.2506 103.792L65.5794 103.889Z" fill="#EFEFF0"/>
<path d="M49.1147 119.72C49.1388 118.289 49.246 117.067 49.3704 115.641C50.9279 114.318 51.2167 114.715 53.5859 114.575L53.5936 119.882L49.1147 119.72Z" fill="#2D323C"/>
<path d="M49.3533 109.2C52.3135 109.147 55.6664 108.24 58.2718 109.32C59.6865 111.108 59.2016 111.158 59.2441 114.004C56.0898 113.905 53.0027 114.759 50.3117 113.69C48.9008 111.99 49.3819 112.004 49.3533 109.2Z" fill="#C2C6D9"/>
<path d="M81.1556 102.389C81.4977 101.162 81.4234 101.214 82.3196 100.327C85.4587 99.4489 89.0687 99.926 92.3639 100.14L92.3303 104.921L92.2694 126.106C87.5855 126.659 82.0232 126.541 77.2346 126.8C72.781 127.039 67.1997 127.815 64.5519 123.748C64.503 121.888 64.6166 121.686 65.6562 120.134C67.2067 119.989 68.6481 119.905 70.203 119.829C71.1518 118.341 70.7399 116.375 70.7171 114.283L74.2503 113.672C76.035 112.205 80.3743 108.29 80.6688 106.018L81.1556 102.389Z" fill="#A3633B"/>
<path d="M81.1556 102.389C81.4977 101.162 81.4234 101.214 82.3196 100.327C85.4587 99.4489 89.0687 99.926 92.3639 100.14L92.3303 104.921L91.8943 105.008C89.0827 102.68 91.0724 105.761 86.4723 105.254L86.0096 104.748C84.03 102.604 84.3696 103.08 81.5116 102.964L81.1556 102.389Z" fill="#844D33"/>
<path d="M70.7171 114.283L74.2503 113.672C76.035 112.205 80.3743 108.29 80.6688 106.018L81.1556 102.389L81.5116 102.964L81.7852 106.753C81.6481 109.206 81.4152 112.094 81.4215 114.51C78.0711 114.555 73.9742 114.749 70.7171 114.283Z" fill="#7D442C"/>
<path d="M81.5116 102.964C84.3696 103.08 84.03 102.604 86.0096 104.748L86.4723 105.254C91.0724 105.761 89.0827 102.68 91.8943 105.008L91.4627 107.051C89.3042 108.413 87.9568 108.302 85.505 107.748C84.2547 107.458 83.0139 107.125 81.7852 106.753L81.5116 102.964Z" fill="#BC7D53"/>
<path d="M32.7032 119.837L48.1779 119.865C48.7218 121.781 49.0353 122.266 48.4 124.096C45.5713 126.306 30.9833 125.621 27.4126 125.001C27.5059 123.062 27.4278 121.763 28.3037 120L32.7032 119.837Z" fill="#2C2C2E"/>
<path d="M70.9208 87.4087C73.3643 87.3207 73.8733 86.8474 75.4898 88.0453L76.6062 91.7923C78.5902 92.8442 78.6023 92.4716 81.1175 92.4187C81.4374 94.5033 81.7953 95.4755 81.0204 97.4197C79.5035 98.7408 78.2196 98.5622 76.2324 98.6273L75.9043 98.0021L70.8472 98.3574L70.8142 93.2696L75.9094 92.8397C74.3525 92.6369 72.319 92.6005 70.712 92.5208L70.7628 87.7264L70.9208 87.4087Z" fill="#2C2C2E"/>
<path d="M75.9094 92.8397L75.9043 98.0021L70.8472 98.3574L70.8142 93.2696L75.9094 92.8397Z" fill="#C2C6D9"/>
<path d="M75.9043 98.0021L76.2324 98.6273C75.9976 101.158 76.4089 101.475 74.9986 103.108C73.5274 103.246 72.2371 103.362 70.7533 103.408L70.8472 98.3574L75.9043 98.0021Z" fill="#252A33"/>
<path d="M65.5794 103.889L70.2506 103.792C70.4499 105.7 70.7844 106.843 69.6781 108.431C67.8039 109.419 68.6316 109.337 66.5879 108.728C65.2538 106.904 65.6632 107.25 65.5585 104.621L65.5794 103.889Z" fill="#2C2C2E"/>
<path d="M5.17991 11.0983L6.14525 11.261C4.51414 13.8234 5.44521 134.68 5.50424 147.178C5.49091 149.879 5.317 154.99 5.58039 157.497L5.56771 162.096C4.62522 155.859 3.03536 159.852 0.616611 156.742C-0.426795 147.829 0.0339864 13.4043 0.678816 11.5455C2.45527 10.5638 2.87541 10.9739 5.17991 11.0983Z" fill="#572E1C"/>
<path d="M14.8657 92.7989C16.6079 91.9078 19.8549 92.2784 21.9607 92.3479L26.8052 92.568L27.0864 93.1191L27.7217 93.0949C29.3319 93.1765 31.3273 92.9635 32.3866 93.7774C33.1482 100.375 32.5369 107.34 32.7083 113.975L32.9984 114.582L32.4773 119.257L32.7032 119.837L28.3037 120C27.4278 121.763 27.5059 123.062 27.4126 125.001C27.2311 122.771 27.4932 121.499 26.1255 120.21L23.9105 120.529C20.4921 123.793 20.9491 122.718 20.5632 126.783L10.9631 126.839C11.0615 120.906 11.0456 114.971 10.9174 109.038C13.7024 109.186 17.8157 110.084 19.4195 107.701L19.1148 106.25C17.5726 105.298 14.4379 105.974 11.7615 105.734C10.7638 104.382 11.0507 101.338 11.0012 99.3289L11.064 92.9749L14.8657 92.7989Z" fill="#A3633B"/>
<path d="M26.8052 92.568L27.0864 93.1191L27.7217 93.0949C29.3319 93.1765 31.3273 92.9635 32.3866 93.7774C33.1482 100.375 32.5369 107.34 32.7083 113.975L32.9984 114.582L32.4773 119.257L32.7032 119.837L28.3037 120C27.4278 121.763 27.5059 123.062 27.4126 125.001C27.2311 122.771 27.4932 121.499 26.1255 120.21L23.9105 120.529L22.7268 120.163C21.2182 118.041 21.8624 102.481 21.8966 98.8492L21.9607 92.3479L26.8052 92.568Z" fill="#343C46"/>
<path d="M27.0864 93.1191L27.7217 93.0949C29.3319 93.1765 31.3273 92.9635 32.3866 93.7774C33.1482 100.375 32.5369 107.34 32.7083 113.975L32.9984 114.582L32.4773 119.257L32.7032 119.837L28.3037 120C26.3832 117.097 27.0737 98.2707 27.0864 93.1191Z" fill="#C2C6D9"/>
<path d="M27.0864 93.1191L27.7217 93.0949C27.6963 97.0829 26.9506 112.528 28.9453 114.604L31.5189 115.4C32.3091 116.977 32.2628 117.465 32.4773 119.257L32.7032 119.837L28.3037 120C26.3832 117.097 27.0737 98.2707 27.0864 93.1191Z" fill="#9DA7B1"/>
<path d="M14.8657 92.7989C16.6079 91.9078 19.8549 92.2784 21.9607 92.3479L21.8966 98.8492L20.9516 97.1308C17.8811 95.8831 17.8004 97.5939 14.9514 99.3634C13.3749 99.3493 12.0585 99.3379 11.0012 99.3289L11.064 92.9749L14.8657 92.7989Z" fill="#7D442C"/>
<path d="M20.5632 126.783C20.8526 127.499 21.3629 128.646 21.5622 129.345L22.3625 127.822C25.984 127.423 24.78 127.212 27.8309 129.368C31.1559 131.717 42.7381 130.699 46.84 130.656C58.6462 130.508 70.4537 130.471 82.2606 130.545C84.4972 130.561 88.6784 130.658 91.0629 130.832C92.0269 130.902 92.2694 133.404 92.468 134.479L92.8583 136.066C94.6227 136.645 95.2549 136.54 97.1253 136.476L96.1345 138.882C87.1666 137.657 70.8186 139.076 61.3658 138.477C58.4349 138.292 53.3619 138.814 50.6677 138.106L50.2685 135.953C47.9335 134.253 26.9562 135.091 22.9337 135.413C22.3282 136.474 22.273 136.772 21.9468 137.902C19.5775 139.02 13.9416 138.876 11.0697 138.964L11.177 130.665L10.9631 126.839L20.5632 126.783Z" fill="#A3633B"/>
<path d="M20.5632 126.783C20.8526 127.499 21.3629 128.646 21.5622 129.345C19.6981 131.112 19.0343 130.999 16.0678 130.904C14.4367 130.843 12.8062 130.764 11.177 130.665L10.9631 126.839L20.5632 126.783Z" fill="#7D442C"/>
<path d="M26.3393 72.6825L26.4618 71.8488C28.197 70.9372 35.6506 71.3569 38.2553 71.3576L38.3836 76.3267C35.4933 76.4039 35.188 75.9255 33.2103 77.3206C32.8822 79.0186 32.813 79.8453 32.7324 81.5765C29.9348 81.8795 29.5229 81.4834 27.5122 82.9072C26.9036 84.8444 27.0807 86.0456 27.141 88.0626L26.8052 92.568L21.9607 92.3479C19.8549 92.2784 16.6079 91.9078 14.8657 92.7989L11.064 92.9749C11.0297 87.507 11.1313 81.914 11.1693 76.4345C18.5823 76.5819 19.1161 75.2002 26.3393 72.6825Z" fill="#A3633B"/>
<path d="M14.8657 92.7989C14.7451 91.9345 14.7134 91.0734 14.6582 90.2014C17.1359 87.2225 21.4321 89.1304 26.5437 88.178L27.141 88.0626L26.8052 92.568L21.9607 92.3479C19.8549 92.2784 16.6079 91.9078 14.8657 92.7989Z" fill="#925C41"/>
<path d="M10.5563 142.417C10.0574 117.377 10.6838 90.9573 10.5334 65.7805C10.463 54.0115 9.64547 26.6258 10.937 15.8767C11.3375 19.5905 11.3686 25.9649 10.9263 29.7157L11.1078 32.761L10.9136 41.3648C12.8296 41.3852 18.4256 41.3239 20.0116 41.6601L19.7958 42.9958C15.3671 45.1143 13.0074 43.5674 11.3102 45.439C10.5067 51.4912 11.3458 56.8661 10.8711 62.299L11.0881 65.5094C11.1782 68.5451 10.6781 68.8175 12.1487 70.8607C15.2325 72.3616 19.8441 71.2 24.0501 71.563C24.8726 71.9304 25.5771 72.1983 26.3393 72.6825C19.1161 75.2002 18.5823 76.5819 11.1693 76.4345C11.1313 81.914 11.0297 87.507 11.064 92.9749L11.0012 99.3289C11.0507 101.338 10.7638 104.382 11.7615 105.734C14.4379 105.974 17.5726 105.298 19.1148 106.25L19.4195 107.701C17.8157 110.084 13.7024 109.186 10.9174 109.038C11.0456 114.971 11.0615 120.906 10.9631 126.839L11.177 130.665L11.0697 138.964C13.9416 138.876 19.5775 139.02 21.9468 137.902C22.273 136.772 22.3282 136.474 22.9337 135.413C26.9562 135.091 47.9335 134.253 50.2685 135.953L50.6677 138.106C53.3619 138.814 58.4349 138.292 61.3658 138.477C70.8186 139.076 87.1666 137.657 96.1345 138.882C84.2357 139.823 61.5898 139.122 48.7935 139.119C44.0144 138.751 33.8666 138.744 29.1135 139.322C22.1099 140.174 20.341 141.806 12.6799 141.194C11.9849 141.55 11.5743 141.664 11.0513 142.215L10.5563 142.417Z" fill="#C58453"/>
<path d="M5.17991 11.0983C5.20467 9.24716 5.28336 8.41792 5.57912 6.58973C7.20896 5.28972 8.20921 5.69668 10.6781 5.56911C10.746 8.32733 11.2113 8.86443 10.053 10.9197C8.29619 11.3158 7.94646 11.3331 6.14525 11.261L5.17991 11.0983Z" fill="#4B2716"/>
<path d="M11.3775 5.63991L14.9165 5.57485C16.0246 7.91781 16.189 8.25142 16.2118 10.8553L15.5302 11.6354C13.5228 12.2235 14.3428 12.2873 12.4565 11.4051C10.9929 9.53166 11.2988 8.05049 11.3775 5.63991Z" fill="#F6D9A5"/>
<path d="M20.0116 41.6601C26.7696 40.9591 55.9146 41.079 63.002 41.9905L63.3682 42.4281C66.7904 46.4487 71.1461 45.1545 75.969 44.7207L76.5866 43.8525L81.5536 43.8895L81.485 48.5148L81.631 48.8682L81.2451 53.5357C83.615 54.0032 84.8824 54.081 87.27 54.2227C84.6983 54.5371 83.4023 54.2144 81.7509 55.6719C81.5726 57.2711 81.4926 58.219 81.5085 59.8259L76.1334 59.9821L75.9709 60.4012C73.1003 60.1665 72.9029 59.6396 70.9754 60.9007C70.6765 62.32 70.4759 63.3987 70.2989 64.8377L70.0317 65.4042L70.085 70.5921L70.6752 73.2872L70.1122 76.2846C68.4697 76.4109 66.8037 76.5678 65.1592 76.5959L60.4715 76.4932L60.17 76.4224L59.4986 76.5321C57.7614 76.5972 56.0237 76.6444 54.286 76.6737L48.5403 76.4045L48.5764 71.526C47.5629 71.3895 45.2013 71.3799 44.0709 71.3404L43.5669 71.1669C42.0494 70.9557 39.8401 71.2326 38.2553 71.3576C35.6506 71.3569 28.197 70.9372 26.4618 71.8488L26.3393 72.6825C25.5771 72.1983 24.8726 71.9304 24.0501 71.563C19.8441 71.2 15.2325 72.3616 12.1487 70.8607C10.6781 68.8175 11.1782 68.5451 11.0881 65.5094L10.8711 62.299C11.3458 56.8661 10.5067 51.4912 11.3102 45.439C13.0074 43.5674 15.3671 45.1143 19.7958 42.9958L20.0116 41.6601Z" fill="#A3633B"/>
<path d="M10.8711 62.299C18.7962 62.5968 15.5353 62.9821 19.9729 59.5943C22.8505 57.3968 34.4385 59.9617 39.5203 58.3351C39.8186 56.8916 39.7881 56.7091 40.6323 55.5495C49.286 54.2546 50.2939 55.4034 57.1477 59.2594C57.7938 59.623 63.6164 59.4138 64.8813 59.3685L65.0786 59.6613C67.5025 59.2569 67.9131 59.2658 70.3166 59.4591L70.2989 64.8377L70.0317 65.4042L70.085 70.5921L70.6752 73.2872L70.1122 76.2846C68.4697 76.4109 66.8037 76.5678 65.1592 76.5959L60.4715 76.4932L60.17 76.4224L59.4986 76.5321C57.7614 76.5972 56.0237 76.6444 54.286 76.6737L48.5403 76.4045L48.5764 71.526C47.5629 71.3895 45.2013 71.3799 44.0709 71.3404L43.5669 71.1669C42.0494 70.9557 39.8401 71.2326 38.2553 71.3576C35.6506 71.3569 28.197 70.9372 26.4618 71.8488L26.3393 72.6825C25.5771 72.1983 24.8726 71.9304 24.0501 71.563C19.8441 71.2 15.2325 72.3616 12.1487 70.8607C10.6781 68.8175 11.1782 68.5451 11.0881 65.5094L10.8711 62.299Z" fill="#7D442C"/>
<path d="M65.0786 59.6613C67.5025 59.2569 67.9131 59.2658 70.3166 59.4591L70.2989 64.8377L70.0317 65.4042L70.085 70.5921L70.6752 73.2872L70.1122 76.2846C68.4697 76.4109 66.8037 76.5678 65.1592 76.5959L60.4715 76.4932L60.17 76.4224L59.4986 76.5321C57.7614 76.5972 56.0237 76.6444 54.286 76.6737L48.5403 76.4045L48.5764 71.526L48.8328 70.9564L48.6577 65.8118C50.9933 65.1242 57.1985 65.0195 59.9079 64.9609L60.0945 65.5286C61.6387 65.5075 62.6383 65.4087 64.1723 65.2186C65.4715 63.5282 65.0177 62.2275 65.0786 59.6613Z" fill="#343C46"/>
<path d="M59.9079 64.9609L60.0945 65.5286C59.8997 68.8373 60.4683 68.5796 58.6665 70.4582C55.7184 71.5579 52.4111 70.5315 48.8328 70.9564L48.6577 65.8118C50.9933 65.1242 57.1985 65.0195 59.9079 64.9609Z" fill="#AB6735"/>
<path d="M65.1891 71.3321C66.6856 70.4352 68.278 70.6247 70.085 70.5921L70.6752 73.2872L70.1122 76.2846L66.2801 75.8375C64.8032 74.5004 65.2018 74.2294 64.8819 71.8392L65.1891 71.3321Z" fill="#E8E5E2"/>
<path d="M65.1891 71.3321C65.0628 69.3151 64.8584 68.2817 65.4334 66.3266C67.1921 65.1382 67.637 65.5139 70.0317 65.4042L70.085 70.5921C68.278 70.6247 66.6856 70.4352 65.1891 71.3321Z" fill="#B0BAC3"/>
<path d="M60.17 76.4224L61.1126 75.5753L60.9393 72.6882C62.1515 71.4947 62.7526 71.8928 64.8819 71.8392C65.2018 74.2294 64.8032 74.5004 66.2801 75.8375L70.1122 76.2846C68.4697 76.4109 66.8037 76.5678 65.1592 76.5959L60.4715 76.4932L60.17 76.4224Z" fill="#52656C"/>
<path d="M11.0881 65.5094C13.8565 65.5267 30.0852 65.4048 31.7493 65.6676C35.5123 66.6308 41.093 65.734 42.4665 66.4758L41.173 67.4365L42.615 67.9391C44.1217 65.8022 46.2593 66.1027 48.6577 65.8118L48.8328 70.9564L48.5764 71.526C47.5629 71.3895 45.2013 71.3799 44.0709 71.3404L43.5669 71.1669C42.0494 70.9557 39.8401 71.2326 38.2553 71.3576C35.6506 71.3569 28.197 70.9372 26.4618 71.8488L26.3393 72.6825C25.5771 72.1983 24.8726 71.9304 24.0501 71.563C19.8441 71.2 15.2325 72.3616 12.1487 70.8607C10.6781 68.8175 11.1782 68.5451 11.0881 65.5094Z" fill="#A3633B"/>
<path d="M42.615 67.9391C44.1217 65.8022 46.2593 66.1027 48.6577 65.8118L48.8328 70.9564L48.5764 71.526C47.5629 71.3895 45.2013 71.3799 44.0709 71.3404L43.5669 71.1669C42.0494 70.9557 39.8401 71.2326 38.2553 71.3576C35.6506 71.3569 28.197 70.9372 26.4618 71.8488L26.3393 72.6825C25.5771 72.1983 24.8726 71.9304 24.0501 71.563C25.4502 70.7242 24.4106 70.61 25.5771 68.4654C30.7485 67.2196 35.8703 68.5585 41.173 67.4365L42.615 67.9391Z" fill="#B3754D"/>
<path d="M42.615 67.9391C44.1217 65.8022 46.2593 66.1027 48.6577 65.8118L48.8328 70.9564C44.6808 71.1178 44.2645 71.718 42.615 67.9391Z" fill="#42302F"/>
<path d="M31.7493 65.6676C36.8642 65.3238 36.4224 66.118 41.1914 63.6921C50.0229 59.1995 52.877 62.8341 59.9079 64.9609C57.1985 65.0195 50.9933 65.1242 48.6577 65.8118C46.2593 66.1027 44.1217 65.8022 42.615 67.9391L41.173 67.4365L42.4665 66.4758C41.093 65.734 35.5123 66.6308 31.7493 65.6676Z" fill="#925C41"/>
<path d="M76.5866 43.8525L81.5536 43.8895L81.485 48.5148L81.631 48.8682L81.2451 53.5357C83.615 54.0032 84.8824 54.081 87.27 54.2227C84.6983 54.5371 83.4023 54.2144 81.7509 55.6719C81.5726 57.2711 81.4926 58.219 81.5085 59.8259L76.1334 59.9821L75.9709 60.4012C73.1003 60.1665 72.9029 59.6396 70.9754 60.9007C70.6765 62.32 70.4759 63.3987 70.2989 64.8377L70.3166 59.4591C70.3553 57.5863 70.1167 56.4591 69.8095 54.6475L70.0901 54.2833C70.1408 52.6522 70.2417 51.6048 70.4626 49.9871C72.2905 48.6118 72.8249 49.0341 75.5286 48.8319L75.6784 48.2463L75.969 44.7207L76.5866 43.8525Z" fill="#7D442C"/>
<path d="M76.3086 54.356C78.3535 54.2986 79.329 54.3879 81.2451 53.5357C83.615 54.0032 84.8824 54.081 87.27 54.2227C84.6983 54.5371 83.4023 54.2144 81.7509 55.6719C81.5726 57.2711 81.4926 58.219 81.5085 59.8259L76.1334 59.9821C75.9151 57.4625 75.976 56.8539 76.3086 54.356Z" fill="#AB6735"/>
<path d="M75.5286 48.8319C76.0084 50.6805 76.4082 51.5595 75.7405 53.3883C73.9571 54.7036 72.281 54.8523 70.0901 54.2833C70.1408 52.6522 70.2417 51.6048 70.4626 49.9871C72.2905 48.6118 72.8249 49.0341 75.5286 48.8319Z" fill="#553431"/>
<path d="M76.5866 43.8525L81.5536 43.8895L81.485 48.5148C79.3068 49.0692 78.9323 49.1336 76.6456 49.1336L75.6784 48.2463L75.969 44.7207L76.5866 43.8525Z" fill="#412117"/>
<path d="M81.485 48.5148L81.631 48.8682L81.2451 53.5357C79.329 54.3879 78.3535 54.2986 76.3086 54.356L76.6456 49.1336C78.9323 49.1336 79.3068 49.0692 81.485 48.5148Z" fill="#844D33"/>
<path d="M69.8095 54.6475C70.1167 56.4591 70.3553 57.5863 70.3166 59.4591C67.9131 59.2658 67.5025 59.2569 65.0786 59.6613L64.8813 59.3685C64.9727 58.1457 65.1415 56.9152 65.2925 55.6968C66.8081 54.4472 67.5012 54.8165 69.8095 54.6475Z" fill="#553431"/>
<path d="M29.5019 44.78C31.3222 44.6333 32.5896 44.6142 34.3934 44.6263C36.2657 45.9786 35.7465 45.823 36.5335 48.5448C34.7494 48.5965 33.501 48.4294 31.7538 48.231C29.6346 46.7026 30.2756 47.5727 29.5019 44.78Z" fill="#BC7D53"/>
<path d="M119.746 43.4755C120.45 43.5802 121.699 43.982 122.201 43.5719C124.74 41.4955 135.388 40.3206 137.982 41.6971C139.12 44.3794 138.429 43.7817 140.664 45.1672C142.809 45.1347 143.899 45.1213 146.04 44.7749C146.67 48.8759 146.519 57.1665 146.552 61.6336L146.464 65.7697L146.323 72.5906L146.087 75.9893L141.522 76.3439L141.142 76.9334C139.909 76.6176 137.644 76.5308 136.288 76.4262C129.59 76.6571 96.0977 76.0218 92.4509 76.8734L92.1659 77.6388L92.3055 81.4228C91.7781 85.4077 91.9152 88.8663 91.9641 92.8665C89.1144 92.8167 84.117 92.9029 81.5129 92.2784L81.1175 92.4187C78.6023 92.4716 78.5902 92.8442 76.6062 91.7923L75.4898 88.0453C73.8733 86.8474 73.3643 87.3207 70.9208 87.4087L70.7628 87.7264C69.6096 87.3175 66.6463 87.2499 65.2862 87.1682L65.1281 81.5083L65.1592 76.5959C66.8037 76.5678 68.4697 76.4109 70.1122 76.2846L70.6752 73.2872L70.085 70.5921L70.0317 65.4042L70.2989 64.8377C70.4759 63.3987 70.6765 62.32 70.9754 60.9007C72.9029 59.6396 73.1003 60.1665 75.9709 60.4012L76.1334 59.9821L81.5085 59.8259L86.8169 59.8609L87.218 60.0459L87.277 65.5936L91.8994 65.7219C94.6329 66.5709 95.0004 66.6589 97.8272 66.2998C100.406 63.0599 105.387 68.9438 108.394 62.4935C109.19 62.4457 112.933 62.1312 113.4 62.3181C114.89 61.9175 115.658 61.8977 116.631 60.7954C115.759 58.6509 114.817 59.4017 113.429 57.1416C114.471 55.5712 114.126 56.0725 116.482 55.4308C114.847 54.7795 114.425 54.3828 113.974 52.8155C116.287 47.683 119.758 52.5495 119.55 43.8155L119.746 43.4755Z" fill="#7D442C"/>
<path d="M119.746 43.4755C120.45 43.5802 121.699 43.982 122.201 43.5719C124.74 41.4955 135.388 40.3206 137.982 41.6971C139.12 44.3794 138.429 43.7817 140.664 45.1672C142.809 45.1347 143.899 45.1213 146.04 44.7749C146.67 48.8759 146.519 57.1665 146.552 61.6336L146.464 65.7697L146.323 72.5906C142.906 72.7775 142.496 72.9536 139.248 72.0944C130.143 69.6844 112.787 70.7778 102.981 70.8907C101.685 70.7223 98.9861 70.8536 97.5651 70.8773L97.8272 66.2998C100.406 63.0599 105.387 68.9438 108.394 62.4935C109.19 62.4457 112.933 62.1312 113.4 62.3181C114.89 61.9175 115.658 61.8977 116.631 60.7954C115.759 58.6509 114.817 59.4017 113.429 57.1416C114.471 55.5712 114.126 56.0725 116.482 55.4308C114.847 54.7795 114.425 54.3828 113.974 52.8155C116.287 47.683 119.758 52.5495 119.55 43.8155L119.746 43.4755Z" fill="#A3633B"/>
<path d="M119.746 43.4755C120.45 43.5802 121.699 43.982 122.201 43.5719C124.74 41.4955 135.388 40.3206 137.982 41.6971C139.12 44.3794 138.429 43.7817 140.664 45.1672C142.809 45.1347 143.899 45.1213 146.04 44.7749C146.67 48.8759 146.519 57.1665 146.552 61.6336C135.245 61.7236 142.233 61.2847 135.621 58.7638C133.136 57.8165 121.574 59.5286 117.048 58.3396L116.482 55.4308C114.847 54.7795 114.425 54.3828 113.974 52.8155C116.287 47.683 119.758 52.5495 119.55 43.8155L119.746 43.4755Z" fill="#A3633B"/>
<path d="M116.482 55.4308L117.048 58.3396C121.574 59.5286 133.136 57.8165 135.621 58.7638C142.233 61.2847 135.245 61.7236 146.552 61.6336L146.464 65.7697C137.826 65.7723 123.676 66.2736 115.115 64.846C114.09 64.6751 113.911 63.5058 113.4 62.3181C114.89 61.9175 115.658 61.8977 116.631 60.7954C115.759 58.6509 114.817 59.4017 113.429 57.1416C114.471 55.5712 114.126 56.0725 116.482 55.4308Z" fill="#7D442C"/>
<path d="M102.981 70.8907C112.787 70.7778 130.143 69.6844 139.248 72.0944C142.496 72.9536 142.906 72.7775 146.323 72.5906L146.087 75.9893L141.522 76.3439L141.142 76.9334C139.909 76.6176 137.644 76.5308 136.288 76.4262C133.577 75.78 128.016 75.9013 125.025 75.8655C123.424 75.8745 121.707 75.7903 120.096 75.7424C113.99 75.8349 107.828 75.8126 101.717 75.8343L97.7498 75.9268L97.8989 72.7743C99.9153 70.0614 99.8373 72.8356 102.981 70.8907Z" fill="#BC7D53"/>
<path d="M101.717 75.8343C104.628 73.0078 115.965 72.5185 119.101 74.385L120.096 75.7424C113.99 75.8349 107.828 75.8126 101.717 75.8343Z" fill="#AB6735"/>
<path d="M125.025 75.8655C128.846 69.5498 136.221 75.7584 141.522 76.3439L141.142 76.9334C139.909 76.6176 137.644 76.5308 136.288 76.4262C133.577 75.78 128.016 75.9013 125.025 75.8655Z" fill="#A3633B"/>
<path d="M76.1334 59.9821L81.5085 59.8259L86.8169 59.8609L87.218 60.0459L87.277 65.5936L81.2172 65.7167L81.023 70.8409L75.8726 70.7408C74.6153 70.6744 72.2511 70.8779 70.9037 70.95L70.085 70.5921L70.0317 65.4042L70.2989 64.8377C70.4759 63.3987 70.6765 62.32 70.9754 60.9007C72.9029 59.6396 73.1003 60.1665 75.9709 60.4012L76.1334 59.9821Z" fill="#343C46"/>
<path d="M70.2989 64.8377C70.4759 63.3987 70.6765 62.32 70.9754 60.9007C72.9029 59.6396 73.1003 60.1665 75.9709 60.4012C75.8732 62.7971 76.2642 63.7093 75.0557 65.3589C72.2759 65.7372 73.0622 65.2351 71.5727 66.9153L72.3019 69.0727L70.9037 70.95L70.085 70.5921L70.0317 65.4042L70.2989 64.8377Z" fill="#9E9B9E"/>
<path d="M76.1334 59.9821L81.5085 59.8259L86.8169 59.8609L87.218 60.0459L87.277 65.5936L81.2172 65.7167C81.1797 63.9855 81.1137 62.9107 80.8878 61.1948C79.2078 59.8673 78.5871 60.3681 75.9709 60.4012L76.1334 59.9821Z" fill="#6D4C41"/>
<path d="M86.5028 81.5115L90.3311 81.6104C91.9457 80.4768 91.5788 80.0411 92.1659 77.6388L92.3055 81.4228C91.7781 85.4077 91.9152 88.8663 91.9641 92.8665C89.1144 92.8167 84.117 92.9029 81.5129 92.2784C81.834 88.844 80.745 85.5136 81.8893 82.6546C83.7095 81.1102 83.5426 81.6116 86.5028 81.5115Z" fill="#A3633B"/>
<path d="M70.6752 73.2872C70.9278 74.2797 71.1569 75.2787 71.3613 76.2821L72.8103 76.876L71.2464 77.4354C70.1465 80.1796 70.6923 84.3953 70.9208 87.4087L70.7628 87.7264C69.6096 87.3175 66.6463 87.2499 65.2862 87.1682L65.1281 81.5083L65.1592 76.5959C66.8037 76.5678 68.4697 76.4109 70.1122 76.2846L70.6752 73.2872Z" fill="#2D323C"/>
<path d="M87.277 65.5936C87.2548 68.2173 87.6604 68.5292 86.5237 70.5034C84.6615 71.2651 83.0647 70.964 81.023 70.8409L81.2172 65.7167L87.277 65.5936Z" fill="#331F1A"/>
<path d="M97.5651 70.8773C98.9861 70.8536 101.685 70.7223 102.981 70.8907C99.8373 72.8356 99.9153 70.0614 97.8989 72.7743L97.7498 75.9268C94.6196 76.0671 94.0147 76.4767 92.4522 73.5711L92.8945 72.176C94.8588 70.5373 94.492 71.045 97.5651 70.8773Z" fill="#AB6735"/>
<path d="M70.9037 70.95C72.2511 70.8779 74.6153 70.6744 75.8726 70.7408C75.8516 73.3376 76.3041 74.8838 75.0913 76.7541C74.1615 76.8511 73.7585 76.934 72.8103 76.876L71.3613 76.2821C71.1569 75.2787 70.9278 74.2797 70.6752 73.2872L70.085 70.5921L70.9037 70.95Z" fill="#2C2C2E"/>
<path d="M86.5028 81.5115C86.7223 78.3539 86.2114 78.3928 87.8381 76.3076C89.6869 75.8802 90.6167 76.3433 92.4509 76.8734L92.1659 77.6388C91.5788 80.0411 91.9457 80.4768 90.3311 81.6104L86.5028 81.5115Z" fill="#B3754D"/>
<path d="M10.6781 5.56911C10.6553 2.72413 10.1951 2.25146 11.4112 0.127293C22.8359 0.102415 144.235 -0.310293 145.859 0.49791C146.577 2.51618 146.434 3.49598 146.37 5.58697L146.481 11.2099L146.47 12.265C144.023 12.5265 143.531 12.6503 141.164 11.8338L140.489 11.3024C137.353 10.3749 44.6808 10.2588 38.8983 11.2807C33.7194 10.8502 21.3832 10.2537 16.672 11.3254L16.2753 11.3101L16.2118 10.8553C16.189 8.25142 16.0246 7.91781 14.9165 5.57485L11.3775 5.63991L10.6781 5.56911Z" fill="#572E1C"/>
<path d="M14.9165 5.57485C58.5065 5.58378 102.849 6.04115 146.37 5.58697L146.481 11.2099L146.47 12.265C144.023 12.5265 143.531 12.6503 141.164 11.8338L140.489 11.3024C137.353 10.3749 44.6808 10.2588 38.8983 11.2807C33.7194 10.8502 21.3832 10.2537 16.672 11.3254L16.2753 11.3101L16.2118 10.8553C16.189 8.25142 16.0246 7.91781 14.9165 5.57485Z" fill="#F0C07C"/>
<path d="M108.335 27.3593L113.17 27.4282L113.458 27.9806C114.218 30.2305 114.164 30.751 114.133 33.025C114.022 35.8081 113.525 36.1328 114.773 38.0216C117.232 38.782 117.832 38.4605 118.955 40.2172L119.067 43.6548L119.55 43.8155C119.758 52.5495 116.287 47.683 113.974 52.8155C114.425 54.3828 114.847 54.7795 116.482 55.4308C114.126 56.0725 114.471 55.5712 113.429 57.1416C114.817 59.4017 115.759 58.6509 116.631 60.7954C115.658 61.8977 114.89 61.9175 113.4 62.3181C112.933 62.1312 109.19 62.4457 108.394 62.4935C105.387 68.9438 100.406 63.0599 97.8272 66.2998C95.0004 66.6589 94.6329 66.5709 91.8994 65.7219L87.277 65.5936L87.218 60.0459L86.8169 59.8609L81.5085 59.8259C81.4926 58.219 81.5726 57.2711 81.7509 55.6719C83.4023 54.2144 84.6983 54.5371 87.27 54.2227C84.8824 54.081 83.615 54.0032 81.2451 53.5357L81.631 48.8682L81.485 48.5148L81.5536 43.8895C83.8365 43.931 84.6311 43.7345 86.7953 43.2931L86.6753 38.2455L86.5757 33.4129L87.998 32.4458C89.7352 32.9619 91.0248 33.0014 92.0524 34.1783C93.0767 32.553 95.1204 32.9823 96.8873 32.9236C96.9692 34.1535 97.098 37.5049 97.4287 38.4834L102.999 38.1747L105.698 38.2206L108.395 37.836L108.34 32.4803L108.335 27.3593Z" fill="#693922"/>
<path d="M86.5757 33.4129L87.998 32.4458C89.7352 32.9619 91.0248 33.0014 92.0524 34.1783C93.0767 32.553 95.1204 32.9823 96.8873 32.9236C96.9692 34.1535 97.098 37.5049 97.4287 38.4834L102.999 38.1747L105.698 38.2206L108.395 37.836L108.396 43.3454C106.501 43.2255 104.974 43.0462 103.081 43.3091L103.178 49.1317C103.291 51.1391 103.617 52.6209 102.654 54.3075C99.7452 54.4593 100.564 54.0453 98.2582 55.5482C97.2852 57.0211 97.4788 57.4702 97.5651 59.35C95.9905 60.3668 94.2083 59.8897 92.2313 59.7474L91.9381 59.8641L87.218 60.0459L86.8169 59.8609L81.5085 59.8259C81.4926 58.219 81.5726 57.2711 81.7509 55.6719C83.4023 54.2144 84.6983 54.5371 87.27 54.2227C84.8824 54.081 83.615 54.0032 81.2451 53.5357L81.631 48.8682L81.485 48.5148L81.5536 43.8895C83.8365 43.931 84.6311 43.7345 86.7953 43.2931L86.6753 38.2455L86.5757 33.4129Z" fill="#844D33"/>
<path d="M86.5757 33.4129L87.998 32.4458C89.7352 32.9619 91.0248 33.0014 92.0524 34.1783C93.0767 32.553 95.1204 32.9823 96.8873 32.9236C96.9692 34.1535 97.098 37.5049 97.4287 38.4834C97.5086 40.7447 97.9186 41.345 96.919 43.0297C94.1975 43.4188 94.3866 42.9793 92.5169 44.5185C92.0428 47.8744 92.6553 47.5759 90.6357 49.2427C89.6336 49.3588 88.6321 49.48 87.6312 49.6076C87.0003 51.5978 87.1183 52.1814 87.27 54.2227C84.8824 54.081 83.615 54.0032 81.2451 53.5357L81.631 48.8682L81.485 48.5148L81.5536 43.8895C83.8365 43.931 84.6311 43.7345 86.7953 43.2931L86.6753 38.2455L86.5757 33.4129Z" fill="#B3754D"/>
<path d="M86.5757 33.4129L87.998 32.4458C89.7352 32.9619 91.0248 33.0014 92.0524 34.1783L92.0873 38.3061C92.1336 40.6535 92.5252 40.8653 91.4012 42.6144C89.692 42.962 88.5318 43.119 86.7953 43.2931L86.6753 38.2455L86.5757 33.4129Z" fill="#AB6735"/>
<path d="M86.5757 33.4129L87.998 32.4458C89.7352 32.9619 91.0248 33.0014 92.0524 34.1783L92.0873 38.3061L86.6753 38.2455L86.5757 33.4129Z" fill="#412117"/>
<path d="M86.7953 43.2931C86.6138 46.4143 87.1729 46.6612 85.4796 48.275L81.631 48.8682L81.485 48.5148L81.5536 43.8895C83.8365 43.931 84.6311 43.7345 86.7953 43.2931Z" fill="#925C41"/>
<path d="M97.442 49.1432L103.178 49.1317C103.291 51.1391 103.617 52.6209 102.654 54.3075C99.7452 54.4593 100.564 54.0453 98.2582 55.5482C97.2852 57.0211 97.4788 57.4702 97.5651 59.35C95.9905 60.3668 94.2083 59.8897 92.2313 59.7474L92.3176 54.5716C94.207 54.6647 94.9198 54.7661 96.7864 54.3094C98.0132 52.2573 97.5353 51.9869 97.442 49.1432Z" fill="#201314"/>
<path d="M105.698 38.2206L108.395 37.836L108.396 43.3454C106.501 43.2255 104.974 43.0462 103.081 43.3091L103.178 49.1317L97.442 49.1432C97.3931 46.4424 96.9774 46.288 98.0963 44.2219C105.118 43.9495 101.044 41.1058 105.698 38.2206Z" fill="#7D442C"/>
<path d="M86.8169 59.8609C86.8759 58.0168 86.8245 56.9796 87.4198 55.191C89.381 53.9707 89.5403 54.4459 92.3176 54.5716L92.2313 59.7474L91.9381 59.8641L87.218 60.0459L86.8169 59.8609Z" fill="#7D442C"/>
<path d="M108.335 27.3593L113.17 27.4282L113.458 27.9806C113.471 31.1312 113.526 34.2383 113.623 37.3876C113.754 41.6218 113.612 44.8566 108.396 43.3454L108.395 37.836L108.34 32.4803L108.335 27.3593Z" fill="#331F1A"/>
<path d="M119.067 43.6548L119.55 43.8155C119.758 52.5495 116.287 47.683 113.974 52.8155C114.425 54.3828 114.847 54.7795 116.482 55.4308C114.126 56.0725 114.471 55.5712 113.429 57.1416C114.817 59.4017 115.759 58.6509 116.631 60.7954C115.658 61.8977 114.89 61.9175 113.4 62.3181C112.933 62.1312 109.19 62.4457 108.394 62.4935C109.456 59.7404 107.751 56.1708 109.851 54.2558C111.586 54.4542 111.959 54.5505 113.661 54.2973C113.99 52.6082 114.115 51.4581 114.265 49.7421C115.841 48.2259 115.382 48.6807 118.101 48.5684C119.336 46.7543 118.947 46.154 119.067 43.6548Z" fill="#844D33"/>
<path d="M103.081 43.3091C106.421 43.7709 107.737 43.23 108.668 47.0535C107.936 48.9288 108.444 48.2967 106.713 49.4092C105.539 49.3479 104.328 49.3275 103.178 49.1317L103.081 43.3091Z" fill="#201314"/>
<path d="M91.9381 59.8641C91.9584 61.7555 92.039 63.8522 91.8994 65.7219L87.277 65.5936L87.218 60.0459L91.9381 59.8641Z" fill="#201314"/>
<path d="M11.1078 32.761C14.6036 33.1609 39.493 33.4492 41.3101 32.2691L41.4624 29.782C43.7275 29.3087 59.3761 30.2413 62.0957 30.7912C62.5742 31.5222 63.0382 32.2628 63.4875 33.0123C69.6991 33.9328 79.6831 32.8681 86.5757 33.4129L86.6753 38.2455L86.7953 43.2931C84.6311 43.7345 83.8365 43.931 81.5536 43.8895L76.5866 43.8525L75.969 44.7207C71.1461 45.1545 66.7904 46.4487 63.3682 42.4281L63.002 41.9905C55.9146 41.079 26.7696 40.9591 20.0116 41.6601C18.4256 41.3239 12.8296 41.3852 10.9136 41.3648L11.1078 32.761Z" fill="#A3633B"/>
<path d="M20.0116 41.6601C20.3163 40.7052 20.7656 38.5989 21.3908 38.5485C30.8697 37.7837 54.9556 37.7798 63.3543 38.6716C69.06 42.9671 74.9771 40.7135 76.7408 42.379L76.5866 43.8525L75.969 44.7207C71.1461 45.1545 66.7904 46.4487 63.3682 42.4281L63.002 41.9905C55.9146 41.079 26.7696 40.9591 20.0116 41.6601Z" fill="#BC7D53"/>
<path d="M81.5536 43.8895C81.4558 41.7749 81.438 41.2385 81.7661 39.1309C83.7412 37.7862 83.8193 38.2563 86.6753 38.2455L86.7953 43.2931C84.6311 43.7345 83.8365 43.931 81.5536 43.8895Z" fill="#553431"/>
<path d="M10.9263 29.7157C14.985 29.8618 18.0391 30.8231 21.5127 27.7274C24.3693 25.1816 37.6689 28.4399 40.6779 25.9483C42.0241 21.3141 48.2331 22.3717 52.4873 22.401L53.4527 23.023L53.6151 26.0172C58.1949 29.0376 69.8895 23.4 70.957 28.5713C71.0135 28.8475 71.0643 29.125 71.1087 29.4038C74.8882 30.3268 87.2593 30.1086 91.6404 29.8158L91.4367 32.0688C89.6977 32.9204 90.215 32.6506 87.998 32.4458L86.5757 33.4129C79.6831 32.8681 69.6991 33.9328 63.4875 33.0123C63.0382 32.2628 62.5742 31.5222 62.0957 30.7912C59.3761 30.2413 43.7275 29.3087 41.4624 29.782L41.3101 32.2691C39.493 33.4492 14.6036 33.1609 11.1078 32.761L10.9263 29.7157Z" fill="#7D442C"/>
<path d="M139.091 30.0467C141.531 29.9249 143.972 29.7654 146.413 29.8069L146.304 33.3032L146.297 38.759L146.04 44.7749C143.899 45.1213 142.809 45.1347 140.664 45.1672C138.429 43.7817 139.12 44.3794 137.982 41.6971C135.388 40.3206 124.74 41.4955 122.201 43.5719C121.699 43.982 120.45 43.5802 119.746 43.4755L119.55 43.8155L119.067 43.6548L118.955 40.2172C117.832 38.4605 117.232 38.782 114.773 38.0216C113.525 36.1328 114.022 35.8081 114.133 33.025C121.923 33.2872 122.241 32.4886 129.704 30.6496C131.355 30.2426 135.941 30.2432 137.521 31.3366L139.091 30.0467Z" fill="#A3633B"/>
<path d="M119.746 43.4755C119.638 41.736 119.363 39.5723 120.627 38.3922C126.343 37.762 140.482 38.3221 146.297 38.759L146.04 44.7749C143.899 45.1213 142.809 45.1347 140.664 45.1672C138.429 43.7817 139.12 44.3794 137.982 41.6971C135.388 40.3206 124.74 41.4955 122.201 43.5719C121.699 43.982 120.45 43.5802 119.746 43.4755Z" fill="#BC7D53"/>
<path d="M139.091 30.0467C141.531 29.9249 143.972 29.7654 146.413 29.8069L146.304 33.3032C142.581 33.7038 139.607 34.7996 137.521 31.3366L139.091 30.0467Z" fill="#7D442C"/>
<path d="M113.17 27.4282C117.675 27.2904 133.684 26.2137 137.989 28.1701C138.278 28.3009 138.891 29.6219 139.091 30.0467L137.521 31.3366C135.941 30.2432 131.355 30.2426 129.704 30.6496C122.241 32.4886 121.923 33.2872 114.133 33.025C114.164 30.751 114.218 30.2305 113.458 27.9806L113.17 27.4282Z" fill="#7D442C"/>
<path d="M97.5131 27.4033L102.818 27.3408C103.233 28.9317 103.871 30.816 103.778 32.4057L108.34 32.4803L108.395 37.836L105.698 38.2206L102.999 38.1747L97.4287 38.4834C97.098 37.5049 96.9692 34.1535 96.8873 32.9236C97.6248 31.3933 97.4718 29.1907 97.5131 27.4033Z" fill="#BC7D53"/>
<path d="M103.778 32.4057L108.34 32.4803L108.395 37.836L105.698 38.2206L102.999 38.1747C103.025 35.6825 102.921 34.7614 103.778 32.4057Z" fill="#844D33"/>
<path d="M38.8983 11.2807C44.6808 10.2588 137.353 10.3749 140.489 11.3024C136.256 12.0335 129.104 10.338 126.763 12.4194C126.846 14.0358 127.039 14.7158 126.374 16.1236C124.049 16.2308 124.841 16.4789 123.058 15.4761C121.998 13.1083 120.994 11.2055 118.014 11.2138C91.7674 11.2846 65.1148 12.0647 38.8983 11.2807Z" fill="#C58453"/>
<path d="M97.5131 27.4033C97.5747 25.8239 97.1868 23.9064 98.4606 22.8954C101.201 20.7202 106.028 20.7942 108.221 23.7859L108.335 27.3593L108.34 32.4803L103.778 32.4057C103.871 30.816 103.233 28.9317 102.818 27.3408L97.5131 27.4033Z" fill="#42302F"/>
<path d="M102.818 27.3408L108.335 27.3593L108.34 32.4803L103.778 32.4057C103.871 30.816 103.233 28.9317 102.818 27.3408Z" fill="#AB6735"/>
<path d="M16.672 11.3254C21.3832 10.2537 33.7194 10.8502 38.8983 11.2807C39.9563 13.329 40.8582 14.208 39.7989 16.2122C38.07 16.7902 37.865 16.6549 36.0029 16.3252C34.8085 14.5844 35.1873 14.1608 35.0788 11.7566C30.963 10.9943 21.9919 11.7821 16.672 11.3254Z" fill="#BC7D53"/>
</svg>
