<svg width="168" height="173" viewBox="0 0 168 173" fill="none" xmlns="http://www.w3.org/2000/svg">
<path d="M10.8796 5.55767C10.9347 3.38328 10.5731 1.81816 11.6337 0.308144C46.2661 -0.503196 104.091 0.573892 140.415 0.316712C140.765 0.545725 141.12 0.77412 141.476 1.00252C141.825 2.82972 141.709 3.72801 141.599 5.53807C144.278 5.57052 144.75 5.12781 146.644 6.35737C146.938 7.96413 147.214 9.57517 147.472 11.1893C150.016 11.0184 149.973 10.5966 151.733 11.7312C152.156 13.529 152.076 14.4824 152.051 16.2857C153.921 16.178 155.129 15.8546 156.6 16.8803C156.741 19.7117 156.275 19.435 157.863 20.9229C160.089 21.1152 161.1 20.7613 162.375 22.027C162.369 23.9577 161.983 25.0727 162.94 26.3451L167.323 26.6023C168.028 27.7333 167.961 28.8808 167.942 30.3265C167.482 73.8952 168.543 117.57 167.581 161.1C167.513 161.341 167.452 161.582 167.384 161.824C164.527 163.002 164.227 161.475 162.486 162.868C162.517 164.572 162.566 165.394 162.216 167.093C159.341 168.464 158.998 166.469 156.956 168.351C156.895 170.583 157.312 171.255 156.091 172.522C151.077 173.146 142.972 172.895 137.712 172.894L106.273 172.866L57.0622 172.729C52.2742 172.751 24.2323 173.566 21.6635 172.258C20.7684 167.566 22.4789 167.544 16.3604 166.983C15.5389 165.432 15.778 164.176 15.8209 162.387C13.9511 162.411 13.4544 162.441 11.652 161.987C10.5853 160.316 10.9654 159.568 10.9348 157.302C9.586 157.037 7.1337 156.983 5.66847 156.9C5.53359 155.541 5.38653 154.182 5.23326 152.825C3.4247 151.474 2.90359 151.928 0.175428 151.814C0.181558 139.004 -0.486663 12.9577 0.74561 10.9829L1.6958 11.2046C5.61333 10.7625 5.01252 10.0467 5.9873 6.58331C7.74681 5.11188 7.97974 5.62135 10.8796 5.55767Z" fill="#EFBF7A"/>
<path d="M52.685 52.6552L57.6447 52.6074L58.178 52.8842L58.1596 57.7657C58.1228 59.4937 58.0309 61.4655 58.086 63.1702L58.0003 68.1797L57.4486 68.1925L52.6604 68.1276L47.7313 68.015L47.67 67.6059C47.8049 66.3537 47.8111 64.5032 47.854 63.1941L47.1366 58.2538L47.6455 58.1889C49.9446 57.5882 50.435 57.6629 52.7708 57.8037L52.685 52.6552Z" fill="#92593B"/>
<path d="M52.5623 63.0796L53.2736 62.594C56.0692 63.2412 56.2163 62.755 57.5222 64.5492L57.4486 68.1925L52.6604 68.1276L47.7313 68.015L47.67 67.6059C47.8049 66.3537 47.8111 64.5032 47.854 63.1941L52.5623 63.0796Z" fill="#B57A54"/>
<path d="M47.854 63.1941L52.5623 63.0796C52.6052 64.6992 52.691 66.527 52.6604 68.1276L47.7313 68.015L47.67 67.6059C47.8049 66.3537 47.8111 64.5032 47.854 63.1941Z" fill="#CB8B5F"/>
<path d="M47.1366 58.2538L47.6455 58.1889C50.0672 58.337 51.1891 57.9819 52.9118 59.2011C53.1448 60.5659 53.2736 61.2175 53.2736 62.594L52.5623 63.0796L47.854 63.1941L47.1366 58.2538Z" fill="#A2714E"/>
<path d="M52.685 52.6552L57.6447 52.6074C57.5466 55.1743 57.9942 55.8975 56.6454 57.5557C54.9902 57.8129 54.4383 57.8533 52.7708 57.8037L52.685 52.6552Z" fill="#582C1C"/>
<path d="M63.1562 94.3483L68.5389 94.4395L73.7132 94.3526L73.6581 99.4594C71.825 99.6542 70.4947 99.8532 68.6309 99.6928C67.1473 99.4074 64.6704 99.5201 63.0826 99.5293L63.1562 94.3483Z" fill="#A2714E"/>
<path d="M68.5389 94.4395L73.7132 94.3526L73.6581 99.4594C71.966 99.3578 70.9544 99.2574 69.2869 98.9623C68.1711 97.2643 68.5635 96.7738 68.5389 94.4395Z" fill="#713F28"/>
<path d="M94.6007 52.6393L99.4868 52.7673L99.9466 52.6956L99.5052 57.6972L94.4474 57.6708L94.6007 52.6393Z" fill="#643A2E"/>
<path d="M115.703 52.7085L120.76 52.7073C120.809 54.055 120.822 56.3635 121.085 57.6022L120.742 58.3566C118.872 56.9299 119.154 57.402 116.236 57.4553L115.893 57.3187L115.703 52.7085Z" fill="#3A1E16"/>
<path d="M10.8796 5.55767C10.9347 3.38328 10.5731 1.81816 11.6337 0.308144C46.2661 -0.503196 104.091 0.573892 140.415 0.316712C140.765 0.545725 141.12 0.77412 141.476 1.00252C141.825 2.82972 141.709 3.72801 141.599 5.53807L141.654 10.8758L141.697 15.9569C140.63 15.8828 139.471 15.742 138.404 15.6348C136.964 14.0856 137.35 14.0477 136.927 11.6191C133.788 9.24451 99.8607 10.5555 94.5761 11.2132L94.3492 15.603L94.2143 16.0004L94.3983 21.3081L94.4289 26.4009L89.3405 26.4229L85.0735 26.538L84.773 26.658C84.5278 29.4895 85.0244 29.3609 83.4243 30.8476C77.7779 32.3564 74.2588 30.9278 68.4346 31.441L68.5389 31.948C66.9817 32.0631 64.6582 32.038 63.0336 32.0674L62.819 36.6923C64.7134 36.6623 66.9756 36.4762 68.7474 36.9758C68.6554 38.2483 68.5634 41.147 68.1404 42.1978L68.4409 42.3937C68.2692 44.6673 68.2753 45.0096 68.6554 47.2502L68.4102 51.948L67.9625 52.1237C66.2276 52.6693 65.0016 52.4054 63.1869 52.2462L63.1194 52.6871L58.9688 52.6668L58.178 52.8842L57.6447 52.6074L52.685 52.6552L52.7708 57.8037C50.435 57.6629 49.9446 57.5882 47.6455 58.1889L47.1366 58.2538L47.854 63.1941C47.8111 64.5032 47.8049 66.3537 47.67 67.6059L47.7313 68.015C45.4016 68.0909 43.7892 67.5765 42.2136 69.4337L42.3546 73.42L42.1646 73.8964L42.1523 78.4693L42.1953 79.0798C43.6728 79.0676 46.2723 79.1257 47.6455 78.9335L47.5167 83.3061C48.7612 83.376 50.9438 83.3827 52.0167 83.8193L52.7401 84.0685C55.0452 84.6447 55.3517 84.622 57.663 84.3165C59.4348 83.7593 61.2617 83.9515 63.15 83.9907L63.1562 94.3483L63.0826 99.5293C64.6704 99.5201 67.1473 99.4074 68.6309 99.6928C70.4947 99.8532 71.825 99.6542 73.6581 99.4594L73.7132 94.3526C77.2077 94.1401 79.9052 93.875 83.412 94.3208L83.2465 94.7751L84.1048 95.3042C84.5462 97.8141 84.1232 98.206 85.7294 99.3939L87.7158 99.4252L89.0093 99.9132C90.7014 105.234 87.4705 127.81 90.4807 130.749L90.4991 131.066C88.3595 132.377 88.2982 133.736 89.3772 136.187L89.4323 141.525L83.97 141.525L78.9611 141.477L73.6029 141.504L68.5818 141.538L63.1562 141.513C63.1991 139.722 63.2726 139.05 62.7821 137.289C60.6609 135.885 58.9444 136.262 56.1181 136.119L47.1121 136.183L47.155 136.763C47.0692 138.739 47.3634 139.802 46.4132 141.255C39.3567 142.167 19.7753 141.532 11.1187 141.624L10.8919 141.958C9.81899 141.522 6.93138 141.483 5.63167 141.41C5.73589 144.466 6.3857 148.71 4.66297 150.93C2.94637 151.759 2.05756 151.684 0.175428 151.814C0.181558 139.004 -0.486663 12.9577 0.74561 10.9829L1.6958 11.2046C5.61333 10.7625 5.01252 10.0467 5.9873 6.58331C7.74681 5.11188 7.97974 5.62135 10.8796 5.55767Z" fill="#EFBF7A"/>
<path d="M10.8796 5.55767C10.9347 3.38328 10.5731 1.81816 11.6337 0.308144C46.2661 -0.503196 104.091 0.573892 140.415 0.316712C140.765 0.545725 141.12 0.77412 141.476 1.00252C141.825 2.82972 141.709 3.72801 141.599 5.53807L141.654 10.8758L141.697 15.9569C140.63 15.8828 139.471 15.742 138.404 15.6348C136.964 14.0856 137.35 14.0477 136.927 11.6191C133.788 9.24451 99.8607 10.5555 94.5761 11.2132L94.3492 15.603L94.2143 16.0004L94.3983 21.3081L94.4289 26.4009L89.3405 26.4229L85.0735 26.538L84.773 26.658C84.5278 29.4895 85.0244 29.3609 83.4243 30.8476C77.7779 32.3564 74.2588 30.9278 68.4346 31.441C68.5389 29.6395 68.5941 29.1104 68.2569 27.3487C66.5832 26.0659 65.5655 26.5166 63.0397 26.4645L59.9252 26.5472L58.8708 26.2876C57.6814 24.6147 58.0921 23.9485 58.0308 21.5555L58.6194 21.4661C66.81 20.3002 58.9689 16.658 67.8891 16.4382L67.7542 16.05C64.9157 15.7867 61.2618 16.7376 59.0302 15.6385C57.8286 13.5958 58.2638 13.7978 58.4599 10.9793L57.9758 10.8801C52.2129 11.0785 18.451 9.14103 15.7106 11.4103C15.4592 13.7176 15.9681 15.0733 14.8216 16.0849C12.9886 16.0818 12.4675 15.7328 11.3517 16.7119C9.8803 28.214 10.4382 50.1808 10.5485 62.4513C10.6405 79.6101 10.6099 96.7695 10.4628 113.928C10.4628 119.519 10.7938 124.902 10.849 130.453C10.898 135.015 10.0765 136.28 5.91372 136.52C8.56831 136.708 9.29783 136.247 10.806 137.747L11.1187 141.624L10.8919 141.958C9.81899 141.522 6.93138 141.483 5.63167 141.41C5.73589 144.466 6.3857 148.71 4.66297 150.93C2.94637 151.759 2.05756 151.684 0.175428 151.814C0.181558 139.004 -0.486663 12.9577 0.74561 10.9829L1.6958 11.2046C5.61333 10.7625 5.01252 10.0467 5.9873 6.58331C7.74681 5.11188 7.97974 5.62135 10.8796 5.55767Z" fill="#F6D7A3"/>
<path d="M0.175428 151.814C0.181558 139.004 -0.486663 12.9577 0.74561 10.9829L1.6958 11.2046L5.4907 11.1899C5.59493 49.25 4.86542 89.0192 5.55819 126.812C5.76664 130.044 5.88306 133.282 5.91372 136.52C8.56831 136.708 9.29783 136.247 10.806 137.747L11.1187 141.624L10.8919 141.958C9.81899 141.522 6.93138 141.483 5.63167 141.41C5.73589 144.466 6.3857 148.71 4.66297 150.93C2.94637 151.759 2.05756 151.684 0.175428 151.814Z" fill="#582C1C"/>
<path d="M5.55819 126.812C5.76664 130.044 5.88306 133.282 5.91372 136.52C8.56831 136.708 9.29783 136.247 10.806 137.747L11.1187 141.624L10.8919 141.958C9.81899 141.522 6.93138 141.483 5.63167 141.41C5.44162 136.201 5.35588 132.01 5.55819 126.812Z" fill="#D79868"/>
<path d="M10.8796 5.55767C10.9347 3.38328 10.5731 1.81816 11.6337 0.308144C46.2661 -0.503196 104.091 0.573892 140.415 0.316712C140.765 0.545725 141.12 0.77412 141.476 1.00252C141.825 2.82972 141.709 3.72801 141.599 5.53807L10.8796 5.55767Z" fill="#59321E"/>
<path d="M58.6194 21.4661C66.81 20.3002 58.9689 16.658 67.8891 16.4382L68.4287 16.6378C72.2542 16.4768 81.6158 15.6036 84.3501 17.5588L84.8283 20.0448L85.3616 21.0558L84.4605 21.7226C84.4911 23.5302 84.35 24.897 85.0735 26.538L84.773 26.658C84.5278 29.4895 85.0244 29.3609 83.4243 30.8476C77.7779 32.3564 74.2588 30.9278 68.4346 31.441C68.5389 29.6395 68.5941 29.1104 68.2569 27.3487C66.5832 26.0659 65.5655 26.5166 63.0397 26.4645L59.9252 26.5472L58.8708 26.2876C57.6814 24.6147 58.0921 23.9485 58.0308 21.5555L58.6194 21.4661Z" fill="#CB8B5F"/>
<path d="M58.6194 21.4661C66.81 20.3002 58.9689 16.658 67.8891 16.4382L68.4287 16.6378C72.2542 16.4768 81.6158 15.6036 84.3501 17.5588L84.8283 20.0448L85.3616 21.0558L84.4605 21.7226C83.3386 21.4618 70.5007 21.485 68.2753 21.4501C65.449 21.3301 61.6603 21.5291 58.6194 21.4661Z" fill="#CB8B5F"/>
<path d="M58.6194 21.4661C66.81 20.3002 58.9689 16.658 67.8891 16.4382L68.4287 16.6378C68.4471 19.3584 67.9933 18.961 69.4646 20.4447C72.8978 21.2554 82.0143 21.8512 84.8283 20.0448L85.3616 21.0558L84.4605 21.7226C83.3386 21.4618 70.5007 21.485 68.2753 21.4501C65.449 21.3301 61.6603 21.5291 58.6194 21.4661Z" fill="#B57A54"/>
<path d="M68.2753 21.4501C70.5007 21.485 83.3386 21.4618 84.4605 21.7226C84.4911 23.5302 84.35 24.897 85.0735 26.538L84.773 26.658C79.3044 26.4462 74.8291 27.4871 69.759 26.0396C67.9565 24.4187 68.5205 24.63 68.2753 21.4501Z" fill="#A2714E"/>
<path d="M58.4599 10.9793C65.2405 10.9297 89.1197 10.3939 94.5761 11.2132L94.3492 15.603L94.2143 16.0004L94.3983 21.3081L94.4289 26.4009L89.3405 26.4229L85.0735 26.538C84.35 24.897 84.4911 23.5302 84.4605 21.7226L85.3616 21.0558L84.8283 20.0448L84.3501 17.5588C81.6158 15.6036 72.2542 16.4768 68.4287 16.6378L67.8891 16.4382L67.7542 16.05C64.9157 15.7867 61.2618 16.7376 59.0302 15.6385C57.8286 13.5958 58.2638 13.7978 58.4599 10.9793Z" fill="#3A1E16"/>
<path d="M85.3616 21.0558L89.6041 21.1593L94.3983 21.3081L94.4289 26.4009L89.3405 26.4229L85.0735 26.538C84.35 24.897 84.4911 23.5302 84.4605 21.7226L85.3616 21.0558Z" fill="#C5865B"/>
<path d="M67.7542 16.05C72.9285 16.0059 78.63 15.8436 83.7614 16.0867C85.5639 16.3108 86.9372 16.4768 88.7274 16.8932C89.8125 18.601 89.4815 18.9218 89.6041 21.1593L85.3616 21.0558L84.8283 20.0448L84.3501 17.5588C81.6158 15.6036 72.2542 16.4768 68.4287 16.6378L67.8891 16.4382L67.7542 16.05Z" fill="#B57A54"/>
<path d="M83.7614 16.0867L94.2143 16.0004L94.3983 21.3081L89.6041 21.1593C89.4815 18.9218 89.8125 18.601 88.7274 16.8932C86.9372 16.4768 85.5639 16.3108 83.7614 16.0867Z" fill="#814A32"/>
<path d="M1.6958 11.2046C5.61333 10.7625 5.01252 10.0467 5.9873 6.58331C7.74681 5.11188 7.97974 5.62135 10.8796 5.55767C10.8673 8.16069 11.3026 8.72894 10.1316 10.6088C8.29241 11.0815 7.33605 11.0919 5.4907 11.1899L1.6958 11.2046Z" fill="#764530"/>
<path d="M73.7132 94.3526C77.2077 94.1401 79.9052 93.875 83.412 94.3208L83.2465 94.7751L84.1048 95.3042C84.5462 97.8141 84.1232 98.206 85.7294 99.3939L87.7158 99.4252L89.0093 99.9132C90.7014 105.234 87.4705 127.81 90.4807 130.749L90.4991 131.066C88.3595 132.377 88.2982 133.736 89.3772 136.187L89.4323 141.525L83.97 141.525L78.9611 141.477L73.6029 141.504L68.5818 141.538L63.1562 141.513C63.1991 139.722 63.2726 139.05 62.7821 137.289C60.6609 135.885 58.9444 136.262 56.1181 136.119C58.6869 135.854 60.379 136.468 62.8006 135.492C63.7693 133.559 63.3586 133.622 63.0459 131.07L63.0091 130.573C63.4505 120.704 63.1561 109.506 63.0826 99.5293C64.6704 99.5201 67.1473 99.4074 68.6309 99.6928C70.4947 99.8532 71.825 99.6542 73.6581 99.4594L73.7132 94.3526Z" fill="#582C1C"/>
<path d="M87.7158 99.4252L89.0093 99.9132C90.7014 105.234 87.4705 127.81 90.4807 130.749L90.4991 131.066C88.3595 132.377 88.2982 133.736 89.3772 136.187L89.4323 141.525L83.97 141.525L78.9611 141.477C79.0654 139.95 79.0102 137.602 79.0163 136.005C79.0838 133.912 78.9489 133.116 78.6362 131.115L79.0224 130.989C79.1634 129.574 79.139 127.69 79.1635 126.229L79.1267 125.692C79.0593 123.921 78.8753 122.394 78.673 120.646L78.6669 120.211C79.1083 117.881 79.1573 117.573 78.6178 115.218L78.9857 115.096L79.139 110.162C80.6533 110.052 82.4985 109.864 83.9883 109.821L84.2274 104.771C85.4168 100.719 83.081 100.922 87.7158 99.4252Z" fill="#582C1C"/>
<path d="M79.139 110.162C80.6533 110.052 82.4985 109.864 83.9883 109.821L84.019 115.251L84.0619 120.119L84.0006 125.672L79.1267 125.692C79.0593 123.921 78.8753 122.394 78.673 120.646L78.6669 120.211C79.1083 117.881 79.1573 117.573 78.6178 115.218L78.9857 115.096L79.139 110.162Z" fill="#B57A54"/>
<path d="M79.139 110.162C80.6533 110.052 82.4985 109.864 83.9883 109.821L84.019 115.251L78.9857 115.096L79.139 110.162Z" fill="#CB8B5F"/>
<path d="M78.9857 115.096L84.019 115.251L84.0619 120.119C81.8425 120.11 80.8433 120.292 78.673 120.646L78.6669 120.211C79.1083 117.881 79.1573 117.573 78.6178 115.218L78.9857 115.096Z" fill="#9E613D"/>
<path d="M79.1267 125.692L84.0006 125.672V131.257L83.9454 135.785L79.0163 136.005C79.0838 133.912 78.9489 133.116 78.6362 131.115L79.0224 130.989C79.1634 129.574 79.139 127.69 79.1635 126.229L79.1267 125.692Z" fill="#9E613D"/>
<path d="M78.6362 131.115L79.0224 130.989L84.0006 131.257L83.9454 135.785L79.0163 136.005C79.0838 133.912 78.9489 133.116 78.6362 131.115Z" fill="#A2714E"/>
<path d="M83.9454 135.785L83.97 141.525L78.9611 141.477C79.0654 139.95 79.0102 137.602 79.0163 136.005L83.9454 135.785Z" fill="#9E613D"/>
<path d="M73.7132 94.3526C77.2077 94.1401 79.9052 93.875 83.412 94.3208L83.2465 94.7751L84.1048 95.3042C84.5462 97.8141 84.1232 98.206 85.7294 99.3939L87.7158 99.4252C83.081 100.922 85.4168 100.719 84.2274 104.771L83.9883 109.821C82.4985 109.864 80.6533 110.052 79.139 110.162C76.2514 110.379 71.684 110.208 68.6738 110.189C68.8209 108.045 68.8761 106.947 68.7474 104.771L68.6309 99.6928C70.4947 99.8532 71.825 99.6542 73.6581 99.4594L73.7132 94.3526Z" fill="#EBAF7E"/>
<path d="M68.7474 104.771L73.6275 104.764L79.0163 104.816L84.2274 104.771L83.9883 109.821C82.4985 109.864 80.6533 110.052 79.139 110.162C76.2514 110.379 71.684 110.208 68.6738 110.189C68.8209 108.045 68.8761 106.947 68.7474 104.771Z" fill="#764530"/>
<path d="M79.0163 104.816L84.2274 104.771L83.9883 109.821C82.4985 109.864 80.6533 110.052 79.139 110.162L78.9611 109.572L79.0163 104.816Z" fill="#92593B"/>
<path d="M73.6275 104.764L79.0163 104.816L78.9611 109.572C77.1403 109.719 76.282 109.873 74.4551 109.434C73.186 107.611 73.6336 107.456 73.6275 104.764Z" fill="#3A1E16"/>
<path d="M73.7132 94.3526C77.2077 94.1401 79.9052 93.875 83.412 94.3208L83.2465 94.7751L84.1048 95.3042C84.5462 97.8141 84.1232 98.206 85.7294 99.3939L87.7158 99.4252C83.081 100.922 85.4168 100.719 84.2274 104.771C84.0742 103.283 84.1048 101.259 84.0803 99.7191C81.4257 100.028 76.4843 99.6334 73.6581 99.4594L73.7132 94.3526Z" fill="#A2714E"/>
<path d="M84.0803 99.7191C83.7921 99.6077 81.1008 99.089 80.1812 98.811C78.906 97.3157 78.5688 97.4633 78.5994 95.8528C80.0892 94.6288 81.2602 94.8382 83.2465 94.7751L84.1048 95.3042C84.5462 97.8141 84.1232 98.206 85.7294 99.3939L87.7158 99.4252C83.081 100.922 85.4168 100.719 84.2274 104.771C84.0742 103.283 84.1048 101.259 84.0803 99.7191Z" fill="#713F28"/>
<path d="M68.6738 110.189C71.684 110.208 76.2514 110.379 79.139 110.162L78.9857 115.096L78.6178 115.218C79.1573 117.573 79.1083 117.881 78.6669 120.211L78.673 120.646C78.8753 122.394 79.0593 123.921 79.1267 125.692C76.1043 125.451 71.3837 125.638 68.2325 125.668C67.7543 124.11 67.9996 114.874 68.4165 113.512L68.6738 110.189Z" fill="#764530"/>
<path d="M68.6738 110.189C71.684 110.208 76.2514 110.379 79.139 110.162L78.9857 115.096L78.6178 115.218L73.56 115.136C71.0157 115.301 69.6426 115.899 68.4165 113.512L68.6738 110.189Z" fill="#EBAF7E"/>
<path d="M68.2325 125.668C68.3796 123.792 68.2753 122.858 69.3053 121.288C71.3775 120.051 75.8161 120.66 78.673 120.646C78.8753 122.394 79.0593 123.921 79.1267 125.692C76.1043 125.451 71.3837 125.638 68.2325 125.668Z" fill="#EBAF7E"/>
<path d="M73.56 115.136L78.6178 115.218C79.1573 117.573 79.1083 117.881 78.6669 120.211C76.8645 120.279 75.9448 120.417 74.2036 119.816C73.1859 118.036 73.56 117.434 73.56 115.136Z" fill="#3A1E16"/>
<path d="M68.2325 125.668C71.3837 125.638 76.1043 125.451 79.1267 125.692L79.1635 126.229C79.139 127.69 79.1634 129.574 79.0224 130.989L78.6362 131.115L73.5784 131.104L68.5818 130.927L68.2325 125.668Z" fill="#764530"/>
<path d="M73.5784 131.104C73.4741 129.227 73.3025 128.467 73.9094 126.664C75.9754 125.577 76.4292 126.057 79.1635 126.229C79.139 127.69 79.1634 129.574 79.0224 130.989L78.6362 131.115L73.5784 131.104Z" fill="#3A1E16"/>
<path d="M68.5818 130.927L73.5784 131.104L78.6362 131.115C78.9489 133.116 79.0838 133.912 79.0163 136.005L73.56 136.019L68.6493 135.993L68.5818 130.927Z" fill="#D79868"/>
<path d="M79.0163 136.005C79.0102 137.602 79.0654 139.95 78.9611 141.477L73.6029 141.504L73.56 136.019L79.0163 136.005Z" fill="#3A1E16"/>
<path d="M68.6493 135.993L73.56 136.019L73.6029 141.504L68.5818 141.538L68.6493 135.993Z" fill="#92593B"/>
<path d="M52.685 26.4284L56.253 26.3188C57.7367 25.3164 57.3749 24.0617 58.0308 21.5555C58.0921 23.9485 57.6814 24.6147 58.8708 26.2876L59.9252 26.5472L63.0397 26.4645C65.5655 26.5166 66.5832 26.0659 68.2569 27.3487C68.5941 29.1104 68.5389 29.6395 68.4346 31.441L68.5389 31.948C66.9817 32.0631 64.6582 32.038 63.0336 32.0674L62.819 36.6923C64.7134 36.6623 66.9756 36.4762 68.7474 36.9758C68.6554 38.2483 68.5634 41.147 68.1404 42.1978L68.4409 42.3937C68.2692 44.6673 68.2753 45.0096 68.6554 47.2502L68.4102 51.948L67.9625 52.1237C66.2276 52.6693 65.0016 52.4054 63.1869 52.2462L63.1194 52.6871L58.9688 52.6668L58.178 52.8842L57.6447 52.6074L52.685 52.6552L52.7708 57.8037C50.435 57.6629 49.9446 57.5882 47.6455 58.1889L47.1366 58.2538C45.5059 58.2868 43.4828 58.1442 42.0727 58.8024L41.7846 57.8631L37.2907 57.5961L36.9536 57.6206L36.6715 52.6852L36.8371 47.511L36.9351 47.0726L36.8616 42.4666L37.0823 42.3472L36.8187 37.3616C38.1368 36.6831 40.6258 36.7383 42.2198 36.6507L42.226 31.8641L38.4556 31.7569C36.8493 30.2065 37.3213 29.4956 37.0271 26.6299C38.3758 26.4333 40.583 26.4076 42.0114 26.3439L47.2776 26.4682L47.5903 22.8438L47.6638 21.5959L52.6175 21.3981L52.685 26.4284Z" fill="#814A32"/>
<path d="M44.6721 42.0257L47.0141 42.6546C48.0992 44.7525 47.6701 44.5737 47.3206 47.3757L47.8049 47.3004L52.5501 47.2655L52.6727 48.0676L52.685 52.6552L52.7708 57.8037C50.435 57.6629 49.9446 57.5882 47.6455 58.1889L47.1366 58.2538C45.5059 58.2868 43.4828 58.1442 42.0727 58.8024L41.7846 57.8631L37.2907 57.5961L36.9536 57.6206L36.6715 52.6852L36.8371 47.511L36.9351 47.0726L36.8616 42.4666L37.0823 42.3472L41.5945 42.3362L42.2015 42.4029L44.6721 42.0257Z" fill="#713F28"/>
<path d="M47.8049 47.3004L52.5501 47.2655L52.6727 48.0676L52.685 52.6552L52.7708 57.8037C50.435 57.6629 49.9446 57.5882 47.6455 58.1889L47.1366 58.2538C45.5059 58.2868 43.4828 58.1442 42.0727 58.8024L41.7846 57.8631C42.0727 56.5276 42.1157 54.6043 42.2015 53.1959L42.3118 52.8261C43.544 52.7667 44.7764 52.6962 46.0087 52.6142C47.5965 50.9884 47.0938 50.2873 47.3206 47.3757L47.8049 47.3004Z" fill="#764530"/>
<path d="M52.685 52.6552L52.7708 57.8037C50.435 57.6629 49.9446 57.5882 47.6455 58.1889L47.1366 58.2538C45.5059 58.2868 43.4828 58.1442 42.0727 58.8024L41.7846 57.8631C43.7709 57.7921 44.7886 57.7829 46.7811 57.353C48.1237 55.6122 47.664 55.6752 47.6517 52.9381L52.685 52.6552Z" fill="#814A32"/>
<path d="M47.8049 47.3004L52.5501 47.2655L52.6727 48.0676L52.685 52.6552L47.6517 52.9381C47.5782 51.4863 47.7497 48.849 47.8049 47.3004Z" fill="#764530"/>
<path d="M36.9351 47.0726C38.4984 47.2244 40.1048 47.4136 41.6681 47.4639C42.5448 48.9843 42.3056 50.9719 42.3118 52.8261L42.2015 53.1959C42.1157 54.6043 42.0727 56.5276 41.7846 57.8631L37.2907 57.5961L36.9536 57.6206L36.6715 52.6852L36.8371 47.511L36.9351 47.0726Z" fill="#814A32"/>
<path d="M37.2907 57.5961C37.2601 55.0102 36.8432 54.8517 37.9897 52.9693C39.5837 52.3729 40.5094 52.7961 42.2015 53.1959C42.1157 54.6043 42.0727 56.5276 41.7846 57.8631L37.2907 57.5961Z" fill="#B57A54"/>
<path d="M44.6721 42.0257L47.0141 42.6546C48.0992 44.7525 47.6701 44.5737 47.3206 47.3757C45.5427 47.4198 44.9051 47.3555 43.1456 47.0867C41.901 45.5093 42.3057 44.7874 42.2015 42.4029L44.6721 42.0257Z" fill="#CB8B5F"/>
<path d="M37.0823 42.3472L41.5945 42.3362L41.6681 47.4639C40.1048 47.4136 38.4984 47.2244 36.9351 47.0726L36.8616 42.4666L37.0823 42.3472Z" fill="#764530"/>
<path d="M62.819 36.6923C64.7134 36.6623 66.9756 36.4762 68.7474 36.9758C68.6554 38.2483 68.5634 41.147 68.1404 42.1978L68.4409 42.3937C68.2692 44.6673 68.2753 45.0096 68.6554 47.2502L68.4102 51.948L67.9625 52.1237C66.2276 52.6693 65.0016 52.4054 63.1869 52.2462L63.1194 52.6871L58.9688 52.6668L58.178 52.8842L57.6447 52.6074L52.685 52.6552L52.6727 48.0676L52.5501 47.2655L53.8927 42.1672C54.8246 42.6693 55.9587 42.5909 56.8109 41.9657L57.6692 41.3546L58.3436 37.1167L62.819 36.6923Z" fill="#713F28"/>
<path d="M52.5501 47.2655C55.8852 47.2679 59.3183 47.2153 62.6412 47.4094L63.0029 47.6451L63.1869 52.2462L63.1194 52.6871L58.9688 52.6668L58.178 52.8842L57.6447 52.6074L52.685 52.6552L52.6727 48.0676L52.5501 47.2655Z" fill="#A2714E"/>
<path d="M52.6727 48.0676C55.3089 47.7627 55.6031 47.2796 57.5833 48.2758C57.9205 49.5703 58.2454 51.8629 58.9688 52.6668L58.178 52.8842L57.6447 52.6074L52.685 52.6552L52.6727 48.0676Z" fill="#AB8265"/>
<path d="M68.1404 42.1978L68.4409 42.3937C68.2692 44.6673 68.2753 45.0096 68.6554 47.2502L68.4102 51.948L67.9625 52.1237C66.2276 52.6693 65.0016 52.4054 63.1869 52.2462L63.0029 47.6451L62.6412 47.4094C62.6412 45.8908 63.2542 44.2038 63.6833 42.7097C65.075 42.5272 66.7733 42.2456 68.1404 42.1978Z" fill="#744D3F"/>
<path d="M63.0029 47.6451C65.3755 47.2232 65.6208 46.7676 67.5519 47.5912C68.2754 49.3401 68.0852 50.2763 67.9625 52.1237C66.2276 52.6693 65.0016 52.4054 63.1869 52.2462L63.0029 47.6451Z" fill="#713F28"/>
<path d="M63.6833 42.7097C63.1377 40.8433 62.8558 40.2304 63.2053 38.255C65.3449 36.7805 65.7556 37.2214 68.7474 36.9758C68.6554 38.2483 68.5634 41.147 68.1404 42.1978C66.7733 42.2456 65.075 42.5272 63.6833 42.7097Z" fill="#B57A54"/>
<path d="M42.7839 31.8684C44.0897 31.8408 46.1313 31.7294 47.3697 31.8329C47.3942 33.3637 47.3696 35.1952 47.4739 36.6942L47.6455 37.2269L50.8274 37.1473L52.967 38.2005C52.2988 39.1447 52.2987 40.4073 52.9731 41.3503C53.2122 41.6896 53.531 41.9688 53.8927 42.1672L52.5501 47.2655L47.8049 47.3004L47.3206 47.3757C47.6701 44.5737 48.0992 44.7525 47.0141 42.6546L44.6721 42.0257L42.2015 42.4029L41.5945 42.3362L37.0823 42.3472L36.8187 37.3616C38.1368 36.6831 40.6258 36.7383 42.2198 36.6507L42.226 31.8641L42.7839 31.8684Z" fill="#764530"/>
<path d="M52.9731 41.3503C53.2122 41.6896 53.531 41.9688 53.8927 42.1672L52.5501 47.2655L47.8049 47.3004L47.3206 47.3757C47.6701 44.5737 48.0992 44.7525 47.0141 42.6546L44.6721 42.0257C45.6836 41.8347 47.4003 41.978 48.4977 42.0165L52.9731 41.3503Z" fill="#A46540"/>
<path d="M36.8187 37.3616C38.1368 36.6831 40.6258 36.7383 42.2198 36.6507L42.2015 42.4029L41.5945 42.3362L37.0823 42.3472L36.8187 37.3616Z" fill="#AB8265"/>
<path d="M42.7839 31.8684C44.0897 31.8408 46.1313 31.7294 47.3697 31.8329C47.3942 33.3637 47.3696 35.1952 47.4739 36.6942C46.0699 36.7646 45.1933 36.6537 43.7893 36.519C42.3977 34.7592 42.8697 34.6349 42.7839 31.8684Z" fill="#713F28"/>
<path d="M47.6455 37.2269L50.8274 37.1473L52.967 38.2005C52.2988 39.1447 52.2987 40.4073 52.9731 41.3503L48.4977 42.0165C47.4248 40.3259 47.6455 39.2556 47.6455 37.2269Z" fill="#713F28"/>
<path d="M63.0397 26.4645C65.5655 26.5166 66.5832 26.0659 68.2569 27.3487C68.5941 29.1104 68.5389 29.6395 68.4346 31.441L68.5389 31.948C66.9817 32.0631 64.6582 32.038 63.0336 32.0674L58.1167 31.7202C57.1481 34.1793 58.8831 35.7169 55.9281 37.1485L54.2911 36.5307C52.8749 34.7702 53.1937 35.5871 52.9546 33.4604C53.9907 31.6222 53.3102 32.1935 55.7318 31.4961C56.6269 31.4018 57.3995 30.817 57.7305 29.9793C58.0616 29.1417 57.896 28.1901 57.3075 27.5098L58.2148 27.1957L59.9252 26.5472L63.0397 26.4645Z" fill="#713F28"/>
<path d="M63.0397 26.4645C65.5655 26.5166 66.5832 26.0659 68.2569 27.3487C68.5941 29.1104 68.5389 29.6395 68.4346 31.441C66.4851 31.594 65.2223 31.8549 63.3953 31.0846L62.7822 29.5568L63.0397 26.4645Z" fill="#A2714E"/>
<path d="M59.9252 26.5472L63.0397 26.4645L62.7822 29.5568L62.2796 30.6817C60.7346 31.719 61.3661 31.6185 59.7844 31.444C57.9084 29.566 58.4355 30.329 58.2148 27.1957L59.9252 26.5472Z" fill="#582C1C"/>
<path d="M47.6638 21.5959L52.6175 21.3981L52.685 26.4284C52.6114 29.2145 53.065 29.1863 51.6979 31.0582C49.4786 31.9376 50.392 31.9461 48.2892 31.1115C46.8669 29.1808 47.3328 29.3535 47.2776 26.4682L47.5903 22.8438L47.6638 21.5959Z" fill="#764530"/>
<path d="M47.6638 21.5959L52.6175 21.3981L52.685 26.4284L48.8961 26.3543C47.5412 25.1266 47.9091 24.9986 47.5903 22.8438L47.6638 21.5959Z" fill="#826152"/>
<path d="M47.3697 31.8329C50.901 32.068 50.1713 31.4967 52.5194 33.45L53.1325 35.4903C52.1025 36.974 52.6788 36.5105 50.8274 37.1473L47.6455 37.2269L47.4739 36.6942C47.3696 35.1952 47.3942 33.3637 47.3697 31.8329Z" fill="#AB8265"/>
<path d="M58.1167 31.7202L63.0336 32.0674L62.819 36.6923L58.3436 37.1167L58.1167 31.7202Z" fill="#9E613D"/>
<path d="M37.0271 26.6299C39.5345 26.8479 40.5277 26.4578 42.0665 27.8551C42.1646 29.2684 42.2444 30.4392 42.226 31.8641L38.4556 31.7569C36.8493 30.2065 37.3213 29.4956 37.0271 26.6299Z" fill="#3A1E16"/>
<path d="M52.967 38.2005C53.5923 37.3206 54.6712 36.8907 55.7318 37.1038C56.7863 37.3163 57.6201 38.1319 57.8531 39.1839C58.086 40.2365 57.6753 41.3264 56.8109 41.9657C55.9587 42.5909 54.8246 42.6693 53.8927 42.1672C53.531 41.9688 53.2122 41.6896 52.9731 41.3503C52.2987 40.4073 52.2988 39.1447 52.967 38.2005Z" fill="#AB8265"/>
<path d="M55.7318 31.4961C54.5915 31.6161 53.5248 30.918 53.1754 29.8262C52.8259 28.7338 53.298 27.5478 54.2973 26.9862C55.2966 26.4253 56.5534 26.6446 57.3075 27.5098C57.896 28.1901 58.0616 29.1417 57.7305 29.9793C57.3995 30.817 56.6269 31.4018 55.7318 31.4961Z" fill="#B57A54"/>
<path d="M47.5167 83.3061C48.7612 83.376 50.9438 83.3827 52.0167 83.8193L52.7401 84.0685C55.0452 84.6447 55.3517 84.622 57.663 84.3165C59.4348 83.7593 61.2617 83.9515 63.15 83.9907L63.1562 94.3483L63.0826 99.5293C63.1561 109.506 63.4505 120.704 63.0091 130.573L63.0459 131.07C63.3586 133.622 63.7693 133.559 62.8006 135.492C60.379 136.468 58.6869 135.854 56.1181 136.119L47.1121 136.183C47.2532 134.543 47.106 132.803 47.0263 131.147C46.9098 129.549 47.106 127.713 47.2163 126.095L47.3328 125.708L47.3819 120.035C47.811 109.542 46.3702 93.2859 47.5167 83.3061Z" fill="#8E5334"/>
<path d="M57.663 84.3165C59.4348 83.7593 61.2617 83.9515 63.15 83.9907L63.1562 94.3483L63.0826 99.5293C63.1561 109.506 63.4505 120.704 63.0091 130.573C61.1086 130.66 60.753 130.783 59.018 130.154C56.8784 127.125 58.1045 117.781 58.0186 113.002C58.0186 103.439 57.896 93.8762 57.663 84.3165Z" fill="#C5865B"/>
<path d="M47.5167 83.3061C48.7612 83.376 50.9438 83.3827 52.0167 83.8193L52.7401 84.0685L52.8075 93.9307C52.7401 100.503 52.7218 107.076 52.7586 113.649C52.6543 117.058 53.2245 122.395 52.3172 124.847C50.6312 126.357 49.6747 126.057 47.3328 125.708L47.3819 120.035C47.811 109.542 46.3702 93.2859 47.5167 83.3061Z" fill="#B57A54"/>
<path d="M52.0167 83.8193L52.7401 84.0685L52.8075 93.9307C50.392 93.9491 50.4289 94.3073 48.5651 93.2578C47.3451 90.7013 46.64 89.5905 47.578 86.767C48.6571 83.5327 49.0801 84.142 52.0167 83.8193Z" fill="#CB8B5F"/>
<path d="M52.7586 113.649C53.6966 119.758 50.6067 119.943 56.768 121.193C56.8968 121.919 57.0377 122.558 57.2032 123.277C57.2952 120.182 57.2953 116.493 57.9145 113.506L58.0186 113.002C58.1045 117.781 56.8784 127.125 59.018 130.154C60.753 130.783 61.1086 130.66 63.0091 130.573L63.0459 131.07C63.3586 133.622 63.7693 133.559 62.8006 135.492C60.379 136.468 58.6869 135.854 56.1181 136.119L47.1121 136.183C47.2532 134.543 47.106 132.803 47.0263 131.147C46.9098 129.549 47.106 127.713 47.2163 126.095L47.3328 125.708C49.6747 126.057 50.6312 126.357 52.3172 124.847C53.2245 122.395 52.6543 117.058 52.7586 113.649Z" fill="#92593B"/>
<path d="M47.2163 126.095C47.4309 127.466 47.4555 129.75 48.4732 130.322C51.5692 132.065 59.2694 131.089 63.0459 131.07C63.3586 133.622 63.7693 133.559 62.8006 135.492C60.379 136.468 58.6869 135.854 56.1181 136.119L47.1121 136.183C47.2532 134.543 47.106 132.803 47.0263 131.147C46.9098 129.549 47.106 127.713 47.2163 126.095Z" fill="#341D1A"/>
<path d="M36.7083 73.5021L37.1865 73.5847L37.4073 73.9442C39.4795 73.5841 40.0372 73.4127 42.1646 73.8964L42.1523 78.4693L42.1953 79.0798C43.6728 79.0676 46.2723 79.1257 47.6455 78.9335L47.5167 83.3061C46.3702 93.2859 47.811 109.542 47.3819 120.035L47.3328 125.708L42.2628 125.766C40.7056 125.858 38.8295 125.787 37.2478 125.77L36.8003 125.812L36.6654 120.682L36.7083 73.5021Z" fill="#A2714E"/>
<path d="M42.1953 79.0798C43.6728 79.0676 46.2723 79.1257 47.6455 78.9335L47.5167 83.3061C46.3702 93.2859 47.811 109.542 47.3819 120.035L42.1646 120.156C42.324 106.476 41.9991 92.7759 42.1953 79.0798Z" fill="#8E5334"/>
<path d="M36.7083 73.5021L37.1865 73.5847L37.4073 73.9442L37.254 102.184C37.2234 107.235 36.9168 114.564 37.5299 119.35C39.1484 120.376 40.0066 120.058 42.1646 120.156L47.3819 120.035L47.3328 125.708L42.2628 125.766C40.7056 125.858 38.8295 125.787 37.2478 125.77L36.8003 125.812L36.6654 120.682L36.7083 73.5021Z" fill="#764530"/>
<path d="M37.2478 125.77C37.1804 122.868 36.7389 123.145 38.0387 121.037C39.9085 120.156 39.087 120.203 41.104 120.906C42.5692 122.743 42.2199 123.028 42.2628 125.766C40.7056 125.858 38.8295 125.787 37.2478 125.77Z" fill="#3A1E16"/>
<path d="M31.7976 52.752L36.6715 52.6852L36.9536 57.6206L37.2907 57.5961L41.7846 57.8631L42.0727 58.8024C43.4828 58.1442 45.5059 58.2868 47.1366 58.2538L47.854 63.1941C47.8111 64.5032 47.8049 66.3537 47.67 67.6059L47.7313 68.015C45.4016 68.0909 43.7892 67.5765 42.2136 69.4337L42.3546 73.42L42.1646 73.8964C40.0372 73.4127 39.4795 73.5841 37.4073 73.9442L37.1865 73.5847L36.7083 73.5021L36.6654 120.682L31.7424 120.599L31.7976 52.752Z" fill="#341D1A"/>
<path d="M37.2907 57.5961L41.7846 57.8631L42.0727 58.8024C43.4828 58.1442 45.5059 58.2868 47.1366 58.2538L47.854 63.1941C47.8111 64.5032 47.8049 66.3537 47.67 67.6059L47.7313 68.015C45.4016 68.0909 43.7892 67.5765 42.2136 69.4337L42.3546 73.42L42.1646 73.8964C40.0372 73.4127 39.4795 73.5841 37.4073 73.9442L37.1865 73.5847L36.7083 73.5021C36.5796 71.3411 36.8002 63.379 37.3213 61.4838L36.9536 57.6206L37.2907 57.5961Z" fill="#4A3430"/>
<path d="M42.0727 58.8024C43.4828 58.1442 45.5059 58.2868 47.1366 58.2538L47.854 63.1941C47.8111 64.5032 47.8049 66.3537 47.67 67.6059L47.7313 68.015C45.4016 68.0909 43.7892 67.5765 42.2136 69.4337L41.95 68.6218L42.3178 63.0287L42.0727 58.8024Z" fill="#B57A54"/>
<path d="M42.3178 63.0287C44.7333 63.1518 45.5365 62.7299 47.0079 64.0452L47.67 67.6059L47.7313 68.015C45.4016 68.0909 43.7892 67.5765 42.2136 69.4337L41.95 68.6218L42.3178 63.0287Z" fill="#59321E"/>
<path d="M37.2907 57.5961L41.7846 57.8631L42.0727 58.8024L42.3178 63.0287C40.4848 63.1261 39.8226 63.2204 38.008 62.7722L37.3213 61.4838L36.9536 57.6206L37.2907 57.5961Z" fill="#59321E"/>
<path d="M37.1865 73.5847C37.1865 71.7784 37.1007 70.776 37.634 69.0094C39.3936 67.9764 39.5652 68.4062 41.95 68.6218L42.2136 69.4337L42.3546 73.42L42.1646 73.8964C40.0372 73.4127 39.4795 73.5841 37.4073 73.9442L37.1865 73.5847Z" fill="#744D3F"/>
<path d="M31.6996 36.824L36.7144 36.8815L36.8187 37.3616L37.0823 42.3472L36.8616 42.4666L36.9351 47.0726L36.8371 47.511L36.6715 52.6852L31.7976 52.752C29.9829 52.8206 29.3698 52.9271 27.6593 52.3601C25.1948 49.5458 26.4884 41.2622 26.6784 37.1963C27.782 36.9464 30.4551 36.887 31.6996 36.824Z" fill="#3A1E16"/>
<path d="M31.6996 36.824L36.7144 36.8815L36.8187 37.3616L37.0823 42.3472L36.8616 42.4666L36.9351 47.0726L36.8371 47.511C35.7642 47.3334 33.085 47.4002 31.8772 47.3971L31.8651 46.7756C31.6873 43.9252 32.4536 41.0736 31.6137 38.6971C29.75 36.9838 29.7806 37.5086 26.6784 37.1963C27.782 36.9464 30.4551 36.887 31.6996 36.824Z" fill="#764530"/>
<path d="M31.8651 46.7756C32.0183 45.2093 32.1225 44.5002 32.5026 42.9755C34.1395 41.9259 34.5687 42.3539 36.8616 42.4666L36.9351 47.0726L36.8371 47.511C35.7642 47.3334 33.085 47.4002 31.8772 47.3971L31.8651 46.7756Z" fill="#92593B"/>
<path d="M31.8772 47.3971C33.085 47.4002 35.7642 47.3334 36.8371 47.511L36.6715 52.6852L31.7976 52.752L31.8772 47.3971Z" fill="#B57A54"/>
<path d="M57.9758 10.8801L58.4599 10.9793C58.2638 13.7978 57.8286 13.5958 59.0302 15.6385C61.2618 16.7376 64.9157 15.7867 67.7542 16.05L67.8891 16.4382C58.9689 16.658 66.81 20.3002 58.6194 21.4661L58.0308 21.5555C57.3749 24.0617 57.7367 25.3164 56.253 26.3188L52.685 26.4284L52.6175 21.3981L47.6638 21.5959L47.3267 21.444L47.48 16.211C51.048 15.5577 53.4758 16.7927 56.5044 15.674C58.129 13.9111 57.6386 13.7954 57.9758 10.8801Z" fill="#3A1E16"/>
<path d="M57.9758 10.8801L58.4599 10.9793C58.2638 13.7978 57.8286 13.5958 59.0302 15.6385C61.2618 16.7376 64.9157 15.7867 67.7542 16.05L67.8891 16.4382C58.9689 16.658 66.81 20.3002 58.6194 21.4661L58.0308 21.5555C58.2209 19.5611 58.4539 18.5018 57.7857 16.5686C53.9295 16.6011 51.373 16.5772 47.48 16.211C51.048 15.5577 53.4758 16.7927 56.5044 15.674C58.129 13.9111 57.6386 13.7954 57.9758 10.8801Z" fill="#92593B"/>
<path d="M57.7857 16.5686C58.4539 18.5018 58.2209 19.5611 58.0308 21.5555C57.3749 24.0617 57.7367 25.3164 56.253 26.3188L52.685 26.4284L52.6175 21.3981C53.8498 21.4459 55.2352 21.346 56.4798 21.2891C57.9327 19.7742 57.5282 19.0988 57.7857 16.5686Z" fill="#764530"/>
<path d="M31.7609 31.7814L35.5926 31.3797C37.0946 29.8777 36.7021 29.1815 37.0271 26.6299C37.3213 29.4956 36.8493 30.2065 38.4556 31.7569L42.226 31.8641L42.2198 36.6507C40.6258 36.7383 38.1368 36.6831 36.8187 37.3616L36.7144 36.8815L31.6996 36.824L31.7609 31.7814Z" fill="#9E613D"/>
<path d="M31.7609 31.7814C34.1212 31.9449 35.0347 31.5904 36.6594 32.8156C36.8126 34.5075 36.8432 35.1909 36.7144 36.8815L31.6996 36.824L31.7609 31.7814Z" fill="#3A1E16"/>
<path d="M47.3328 125.708L47.2163 126.095C47.106 127.713 46.9098 129.549 47.0263 131.147L42.5938 131.153L42.2076 131.244C41.0121 131.001 38.8478 131.034 37.5542 131.01C37.1619 129.93 36.9413 127.087 36.8003 125.812L37.2478 125.77C38.8295 125.787 40.7056 125.858 42.2628 125.766L47.3328 125.708Z" fill="#A2714E"/>
<path d="M47.3328 125.708L47.2163 126.095C47.106 127.713 46.9098 129.549 47.0263 131.147L42.5938 131.153C42.183 129.71 42.2812 127.343 42.2628 125.766L47.3328 125.708Z" fill="#3A1E16"/>
<path d="M31.7547 125.731L36.8003 125.812C36.9413 127.087 37.1619 129.93 37.5542 131.01L36.8248 131.284C35.3902 131.173 34.1517 131.03 32.7233 130.834C31.3071 129.071 31.8099 128.566 31.7547 125.731Z" fill="#AB8265"/>
<path d="M36.8248 131.284L37.5542 131.01C38.8478 131.034 41.0121 131.001 42.2076 131.244L41.8275 136.272C39.9515 136.353 39.461 136.408 37.6524 135.977C36.4079 134.269 36.8432 133.776 36.8248 131.284Z" fill="#B57A54"/>
<path d="M42.5938 131.153L47.0263 131.147C47.106 132.803 47.2532 134.543 47.1121 136.183L41.8275 136.272L42.2076 131.244L42.5938 131.153Z" fill="#AB8265"/>
<path d="M31.7424 120.599L36.6654 120.682L36.8003 125.812L31.7547 125.731L31.7424 120.599Z" fill="#826152"/>
<path d="M42.0114 26.3439C42.0605 24.5234 42.0726 23.9062 42.4895 22.1415C44.3165 20.915 44.6414 21.3859 47.3267 21.444L47.6638 21.5959L47.5903 22.8438L47.2776 26.4682L42.0114 26.3439Z" fill="#3A1E16"/>
<path d="M141.599 5.53807C144.278 5.57052 144.75 5.12781 146.644 6.35737C146.938 7.96413 147.214 9.57517 147.472 11.1893C150.016 11.0184 149.973 10.5966 151.733 11.7312C152.156 13.529 152.076 14.4824 152.051 16.2857C153.921 16.178 155.129 15.8546 156.6 16.8803C156.741 19.7117 156.275 19.435 157.863 20.9229C160.089 21.1152 161.1 20.7613 162.375 22.027C162.369 23.9577 161.983 25.0727 162.94 26.3451L167.323 26.6023C168.028 27.7333 167.961 28.8808 167.942 30.3265C167.482 73.8952 168.543 117.57 167.581 161.1C167.513 161.341 167.452 161.582 167.384 161.824C164.527 163.002 164.227 161.475 162.486 162.868C162.517 164.572 162.566 165.394 162.216 167.093C159.341 168.464 158.998 166.469 156.956 168.351C156.895 170.583 157.312 171.255 156.091 172.522C151.077 173.146 142.972 172.895 137.712 172.894L106.273 172.866L57.0622 172.729C52.2742 172.751 24.2323 173.566 21.6635 172.258C20.7684 167.566 22.4789 167.544 16.3604 166.983C15.5389 165.432 15.778 164.176 15.8209 162.387C13.9511 162.411 13.4544 162.441 11.652 161.987C10.5853 160.316 10.9654 159.568 10.9348 157.302C9.586 157.037 7.1337 156.983 5.66847 156.9C5.53359 155.541 5.38653 154.182 5.23326 152.825C3.4247 151.474 2.90359 151.928 0.175428 151.814C2.05756 151.684 2.94637 151.759 4.66297 150.93C6.3857 148.71 5.73589 144.466 5.63167 141.41C6.93138 141.483 9.81899 141.522 10.8919 141.958L11.1187 141.624C19.7753 141.532 39.3567 142.167 46.4132 141.255C47.3634 139.802 47.0692 138.739 47.155 136.763L47.1121 136.183L56.1181 136.119C58.9444 136.262 60.6609 135.885 62.7821 137.289C63.2726 139.05 63.1991 139.722 63.1562 141.513L68.5818 141.538L73.6029 141.504L78.9611 141.477L83.97 141.525L89.4323 141.525C96.3539 141.471 103.269 141.458 110.191 141.487C120.613 141.566 131.035 141.523 141.458 141.358C142.206 132.063 141.592 111.523 141.586 101.472L141.697 15.9569L141.654 10.8758L141.599 5.53807Z" fill="#9D9699"/>
<path d="M47.1121 136.183L56.1181 136.119C58.9444 136.262 60.6609 135.885 62.7821 137.289C63.2726 139.05 63.1991 139.722 63.1562 141.513L68.5818 141.538L73.6029 141.504L78.9611 141.477L83.97 141.525L89.4323 141.525C96.3539 141.471 103.269 141.458 110.191 141.487C120.613 141.566 131.035 141.523 141.458 141.358L141.856 141.489L146.626 141.522C146.736 144.44 147.122 148.156 146.203 150.836C145.283 151.622 145.308 151.724 144.069 151.83L142.022 152.26C141.231 153.831 141.488 154.755 141.629 156.526C137.657 157.281 109.094 156.899 103.564 156.895C72.757 156.765 41.9439 156.802 11.1371 157.005L10.9348 157.302C9.586 157.037 7.1337 156.983 5.66847 156.9C5.53359 155.541 5.38653 154.182 5.23326 152.825C3.4247 151.474 2.90359 151.928 0.175428 151.814C2.05756 151.684 2.94637 151.759 4.66297 150.93C6.3857 148.71 5.73589 144.466 5.63167 141.41C6.93138 141.483 9.81899 141.522 10.8919 141.958L11.1187 141.624C19.7753 141.532 39.3567 142.167 46.4132 141.255C47.3634 139.802 47.0692 138.739 47.155 136.763L47.1121 136.183Z" fill="#92593B"/>
<path d="M47.1121 136.183L56.1181 136.119C58.9444 136.262 60.6609 135.885 62.7821 137.289C63.2726 139.05 63.1991 139.722 63.1562 141.513L68.5818 141.538L73.6029 141.504L78.9611 141.477L83.97 141.525L89.4323 141.525C96.3539 141.471 103.269 141.458 110.191 141.487C120.613 141.566 131.035 141.523 141.458 141.358L141.856 141.489C141.666 143.386 141.856 145.007 140.863 146.304C136.161 146.661 131.446 146.576 126.732 146.571C88.8439 146.532 50.9499 146.425 13.0621 146.648C12.3571 146.653 11.8299 146.349 11.2475 145.999C10.7386 144.275 10.8183 143.77 10.8919 141.958L11.1187 141.624C19.7753 141.532 39.3567 142.167 46.4132 141.255C47.3634 139.802 47.0692 138.739 47.155 136.763L47.1121 136.183Z" fill="#CB8B5F"/>
<path d="M47.1121 136.183L56.1181 136.119C58.9444 136.262 60.6609 135.885 62.7821 137.289C63.2726 139.05 63.1991 139.722 63.1562 141.513C60.569 141.545 49.7973 141.99 47.9827 140.922C47.7374 139.429 47.5045 138.235 47.155 136.763L47.1121 136.183Z" fill="#A2714E"/>
<path d="M5.66847 156.9C6.06696 153.813 5.55813 154.081 7.27473 152.016L8.8381 151.559C11.5356 153.249 11.1003 153.962 11.1371 157.005L10.9348 157.302C9.586 157.037 7.1337 156.983 5.66847 156.9Z" fill="#59321E"/>
<path d="M141.599 5.53807C144.278 5.57052 144.75 5.12781 146.644 6.35737C146.938 7.96413 147.214 9.57517 147.472 11.1893C150.016 11.0184 149.973 10.5966 151.733 11.7312C152.156 13.529 152.076 14.4824 152.051 16.2857C152.009 33.4641 153.161 148.856 150.997 151.621C148.367 152.177 148.955 151.68 147.196 153.379L146.718 157.225L143.898 156.973C143.469 156.755 142.187 156.613 141.629 156.526C141.488 154.755 141.231 153.831 142.022 152.26L144.069 151.83C145.308 151.724 145.283 151.622 146.203 150.836C147.122 148.156 146.736 144.44 146.626 141.522L141.856 141.489L141.458 141.358C142.206 132.063 141.592 111.523 141.586 101.472L141.697 15.9569L141.654 10.8758L141.599 5.53807Z" fill="#582C1C"/>
<path d="M141.599 5.53807C144.278 5.57052 144.75 5.12781 146.644 6.35737C146.938 7.96413 147.214 9.57517 147.472 11.1893L146.847 11.8206C145.817 25.4162 146.558 47.2887 146.565 61.6479C146.583 88.0388 146.24 115.194 146.626 141.522L141.856 141.489L141.458 141.358C142.206 132.063 141.592 111.523 141.586 101.472L141.697 15.9569L141.654 10.8758L141.599 5.53807Z" fill="#D79868"/>
<path d="M141.599 5.53807C144.278 5.57052 144.75 5.12781 146.644 6.35737C146.938 7.96413 147.214 9.57517 147.472 11.1893L146.847 11.8206C145.314 10.5127 143.665 10.8103 141.654 10.8758L141.599 5.53807Z" fill="#764530"/>
<path d="M141.629 156.526C141.488 154.755 141.231 153.831 142.022 152.26L144.069 151.83L145.982 152.355C146.877 154.751 146.393 155.064 146.718 157.225L143.898 156.973C143.469 156.755 142.187 156.613 141.629 156.526Z" fill="#59321E"/>
<path d="M147.392 142.606C148.22 143.843 148.802 149.876 149.041 151.777L147.539 151.003C146.797 148.733 147.245 145.103 147.392 142.606Z" fill="#582C1C"/>
<path d="M141.629 156.526C142.187 156.613 143.469 156.755 143.898 156.973C140.973 157.622 141.439 158.483 141.464 161.32C139.177 163.102 116.211 162.133 111.037 162.127L51.4219 162.203C40.1598 162.209 26.9604 161.893 15.8209 162.387C13.9511 162.411 13.4544 162.441 11.652 161.987C10.5853 160.316 10.9654 159.568 10.9348 157.302L11.1371 157.005C41.9439 156.802 72.757 156.765 103.564 156.895C109.094 156.899 137.657 157.281 141.629 156.526Z" fill="#582C1C"/>
<path d="M84.2029 47.2061C88.568 45.7977 90.3214 47.1412 93.5768 45.862L94.1041 43.7072C94.2512 44.7004 94.429 46.3292 94.7539 47.2018L94.3431 47.271C94.4473 48.615 94.7539 51.441 94.6007 52.6393L94.4474 57.6708L99.5052 57.6972C101.461 57.8551 102.895 58.0425 104.863 57.7529L110.283 57.6874L115.267 57.6531L115.893 57.3187L116.236 57.4553C115.169 60.0969 115.66 67.1191 115.733 70.2965L115.335 70.3081L115.077 73.3367L110.369 73.5137L110.308 78.4693C108.726 78.492 106.225 78.6071 104.729 78.4509L104.287 78.5361C103.196 78.6236 100.836 78.74 99.8607 78.9169L99.6033 78.5526C96.4889 78.7057 93.3684 78.7583 90.2479 78.7093L89.1504 79.0792C89.132 80.4012 89.1933 82.6154 88.991 83.837L84.6872 84.1597C84.6198 84.9178 84.6566 85.7022 84.3071 86.2955C84.1968 88.3334 84.1967 92.6809 83.412 94.3208C79.9052 93.875 77.2077 94.1401 73.7132 94.3526L68.5389 94.4395L63.1562 94.3483L63.15 83.9907C61.2617 83.9515 59.4348 83.7593 57.663 84.3165C55.3517 84.622 55.0452 84.6447 52.7401 84.0685L52.0167 83.8193C50.9438 83.3827 48.7612 83.376 47.5167 83.3061L47.6455 78.9335C46.2723 79.1257 43.6728 79.0676 42.1953 79.0798L42.1523 78.4693L42.1646 73.8964L42.3546 73.42L42.2136 69.4337C43.7892 67.5765 45.4016 68.0909 47.7313 68.015L52.6604 68.1276L57.4486 68.1925L58.0003 68.1797L58.086 63.1702C58.0309 61.4655 58.1228 59.4937 58.1596 57.7657L58.178 52.8842L58.9688 52.6668L63.1194 52.6871L63.1869 52.2462C65.0016 52.4054 66.2276 52.6693 67.9625 52.1237L68.4102 51.948L68.6554 47.2502C73.5784 47.252 79.3535 47.4002 84.2029 47.2061Z" fill="#341D1A"/>
<path d="M84.2029 47.2061C88.568 45.7977 90.3214 47.1412 93.5768 45.862L94.1041 43.7072C94.2512 44.7004 94.429 46.3292 94.7539 47.2018L94.3431 47.271C94.4473 48.615 94.7539 51.441 94.6007 52.6393L94.4474 57.6708L94.3676 62.8401C93.1598 62.984 90.5297 63.3735 89.4323 63.3551L84.1049 63.0753L78.9122 63.2081L63.1194 63.2063L58.086 63.1702C58.0309 61.4655 58.1228 59.4937 58.1596 57.7657L58.178 52.8842L58.9688 52.6668L63.1194 52.6871L63.1869 52.2462C65.0016 52.4054 66.2276 52.6693 67.9625 52.1237L68.4102 51.948L68.6554 47.2502C73.5784 47.252 79.3535 47.4002 84.2029 47.2061Z" fill="#643A2E"/>
<path d="M84.2029 47.2061C88.568 45.7977 90.3214 47.1412 93.5768 45.862L94.1041 43.7072C94.2512 44.7004 94.429 46.3292 94.7539 47.2018L94.3431 47.271C94.4473 48.615 94.7539 51.441 94.6007 52.6393L94.4474 57.6708L89.3833 57.7553L83.8964 57.6359L84.0067 57.1859C84.4236 55.9759 84.4114 53.9087 84.4727 52.5578L84.2029 47.2061Z" fill="#9E613D"/>
<path d="M84.2029 47.2061C88.568 45.7977 90.3214 47.1412 93.5768 45.862L94.1041 43.7072C94.2512 44.7004 94.429 46.3292 94.7539 47.2018L94.3431 47.271L89.1627 47.274C88.801 49.5886 89.0707 50.7196 87.6913 52.1121L84.4727 52.5578L84.2029 47.2061Z" fill="#764530"/>
<path d="M84.4727 52.5578L87.6913 52.1121C89.0707 50.7196 88.801 49.5886 89.1627 47.274C89.4631 51.147 89.4508 53.9086 89.3833 57.7553L83.8964 57.6359L84.0067 57.1859C84.4236 55.9759 84.4114 53.9087 84.4727 52.5578Z" fill="#713F28"/>
<path d="M68.6554 47.2502C73.5784 47.252 79.3535 47.4002 84.2029 47.2061L84.4727 52.5578C84.4114 53.9087 84.4236 55.9759 84.0067 57.1859C84.0005 55.6691 83.9455 55.2203 83.639 53.7329C81.0763 51.6706 72.432 52.5664 68.5083 52.567L68.4102 51.948L68.6554 47.2502Z" fill="#A2714E"/>
<path d="M68.5083 52.567C72.432 52.5664 81.0763 51.6706 83.639 53.7329C83.9455 55.2203 84.0005 55.6691 84.0067 57.1859L83.8964 57.6359L68.355 57.6904L68.5083 52.567Z" fill="#C5865B"/>
<path d="M67.9625 52.1237L68.4102 51.948L68.5083 52.567L68.355 57.6904L63.2849 57.7027L58.1596 57.7657L58.178 52.8842L58.9688 52.6668L63.1194 52.6871L63.1869 52.2462C65.0016 52.4054 66.2276 52.6693 67.9625 52.1237Z" fill="#92593B"/>
<path d="M58.9688 52.6668L63.1194 52.6871L63.2849 57.7027L58.1596 57.7657L58.178 52.8842L58.9688 52.6668Z" fill="#CB8B5F"/>
<path d="M42.3546 73.42L47.903 73.5945L52.6053 73.6307C55.4561 73.6662 55.6216 73.1659 57.3443 74.5981L58.0861 77.7578C61.9607 79.5611 79.5374 77.1767 83.9822 78.7932L89.1504 79.0792C89.132 80.4012 89.1933 82.6154 88.991 83.837L84.6872 84.1597C84.6198 84.9178 84.6566 85.7022 84.3071 86.2955C84.1968 88.3334 84.1967 92.6809 83.412 94.3208C79.9052 93.875 77.2077 94.1401 73.7132 94.3526L68.5389 94.4395L63.1562 94.3483L63.15 83.9907C61.2617 83.9515 59.4348 83.7593 57.663 84.3165C55.3517 84.622 55.0452 84.6447 52.7401 84.0685L52.0167 83.8193C50.9438 83.3827 48.7612 83.376 47.5167 83.3061L47.6455 78.9335C46.2723 79.1257 43.6728 79.0676 42.1953 79.0798L42.1523 78.4693L42.1646 73.8964L42.3546 73.42Z" fill="#59321E"/>
<path d="M63.5609 83.9019L68.165 83.9007L68.5451 84.0605C72.0396 83.9681 81.6219 83.2535 83.9945 84.8559L84.3071 86.2955C84.1968 88.3334 84.1967 92.6809 83.412 94.3208C79.9052 93.875 77.2077 94.1401 73.7132 94.3526L68.5389 94.4395L63.1562 94.3483L63.15 83.9907L63.5609 83.9019Z" fill="#B57A54"/>
<path d="M63.5609 83.9019L68.165 83.9007L68.5451 84.0605C68.5145 87.5202 68.5144 90.9799 68.5389 94.4395L63.1562 94.3483L63.15 83.9907L63.5609 83.9019Z" fill="#92593B"/>
<path d="M83.9822 78.7932L89.1504 79.0792C89.132 80.4012 89.1933 82.6154 88.991 83.837L84.6872 84.1597C84.6198 84.9178 84.6566 85.7022 84.3071 86.2955L83.9945 84.8559C81.6219 83.2535 72.0396 83.9681 68.5451 84.0605L68.165 83.9007C68.3367 82.8542 68.1098 80.1832 68.0423 78.9996C71.7698 78.9947 80.6716 79.2066 83.9822 78.7932Z" fill="#814A32"/>
<path d="M83.9822 78.7932L89.1504 79.0792C89.132 80.4012 89.1933 82.6154 88.991 83.837L84.6872 84.1597C84.0251 82.6332 84.0741 80.52 83.9822 78.7932Z" fill="#582C1C"/>
<path d="M42.3546 73.42L47.903 73.5945L52.6053 73.6307C52.6605 75.464 52.4581 77.59 53.4145 79.0143L52.5807 79.0486L52.7401 84.0685L52.0167 83.8193C50.9438 83.3827 48.7612 83.376 47.5167 83.3061L47.6455 78.9335C46.2723 79.1257 43.6728 79.0676 42.1953 79.0798L42.1523 78.4693L42.1646 73.8964L42.3546 73.42Z" fill="#744D3F"/>
<path d="M42.3546 73.42L47.903 73.5945C47.6823 76.4106 48.1544 76.6856 46.6402 78.3689C44.8255 78.5397 43.967 78.5563 42.1523 78.4693L42.1646 73.8964L42.3546 73.42Z" fill="#643A2E"/>
<path d="M47.6455 78.9335C49.4664 78.8471 50.766 78.7106 52.5807 79.0486L52.7401 84.0685L52.0167 83.8193C50.9438 83.3827 48.7612 83.376 47.5167 83.3061L47.6455 78.9335Z" fill="#92593B"/>
<path d="M53.4145 79.0143L63.052 78.9788C63.1623 80.3712 63.2666 82.6191 63.5609 83.9019L63.15 83.9907C61.2617 83.9515 59.4348 83.7593 57.663 84.3165C55.3517 84.622 55.0452 84.6447 52.7401 84.0685L52.5807 79.0486L53.4145 79.0143Z" fill="#764530"/>
<path d="M63.052 78.9788L68.0423 78.9996C68.1098 80.1832 68.3367 82.8542 68.165 83.9007L63.5609 83.9019C63.2666 82.6191 63.1623 80.3712 63.052 78.9788Z" fill="#643A2E"/>
<path d="M58.086 63.1702L63.1194 63.2063L78.9122 63.2081L84.1049 63.0753L83.8289 68.7369C83.976 70.0479 84.1171 71.9614 84.3807 73.1977L84.2949 73.5027L72.9715 73.5596C68.2876 73.4421 63.4505 73.5223 58.7544 73.5456C57.7551 72.1286 58.0554 70.4594 58.0983 68.6156L58.0003 68.1797L58.086 63.1702Z" fill="#92593B"/>
<path d="M78.9122 63.2081L84.1049 63.0753L83.8289 68.7369C83.976 70.0479 84.1171 71.9614 84.3807 73.1977L84.2949 73.5027L72.9715 73.5596L73.1308 73.1004C75.1171 73.1414 76.0674 73.1794 78.0905 72.8659C79.427 71.2634 79.0285 71.1893 79.2615 68.7277C79.0898 67.5906 78.9919 64.4934 78.9122 63.2081Z" fill="#814A32"/>
<path d="M73.1308 73.1004C70.3045 73.014 68.9374 73.4409 67.9136 70.6737C69.7528 67.7437 76.3003 68.5256 79.2615 68.7277C79.0285 71.1893 79.427 71.2634 78.0905 72.8659C76.0674 73.1794 75.1171 73.1414 73.1308 73.1004Z" fill="#B57A54"/>
<path d="M58.086 63.1702L63.1194 63.2063C62.9845 66.0518 63.4934 66.3378 61.973 67.9035L58.0003 68.1797L58.086 63.1702Z" fill="#713F28"/>
<path d="M58.0983 68.6156C61.225 68.6946 60.9307 68.1938 63.0213 69.7546L63.3952 71.0503C62.0587 73.3918 61.599 73.2229 58.7544 73.5456C57.7551 72.1286 58.0554 70.4594 58.0983 68.6156Z" fill="#B57A54"/>
<path d="M99.5052 57.6972C101.461 57.8551 102.895 58.0425 104.863 57.7529L110.283 57.6874C110.307 67.0616 105.82 60.648 105.329 65.8877C105.268 66.6452 105.213 67.4039 105.176 68.1631L100.081 68.1166L95.1278 68.1074L94.5148 68.345C93.0189 68.1791 91.0692 68.195 89.5304 68.1576L89.4323 63.3551C90.5297 63.3735 93.1598 62.984 94.3676 62.8401L94.4474 57.6708L99.5052 57.6972Z" fill="#92593B"/>
<path d="M89.4323 63.3551C90.5297 63.3735 93.1598 62.984 94.3676 62.8401L94.5148 68.345C93.0189 68.1791 91.0692 68.195 89.5304 68.1576L89.4323 63.3551Z" fill="#764530"/>
<path d="M99.5174 63.0967C102.331 63.1506 102.736 62.6644 104.563 64.0428L105.176 68.1631L100.081 68.1166C99.64 66.2147 99.6155 65.0109 99.5174 63.0967Z" fill="#B57A54"/>
<path d="M95.1278 68.1074C94.9439 66.2894 94.8826 65.8179 95.1401 64.0177C96.6851 62.7979 97.1877 63.1947 99.5174 63.0967C99.6155 65.0109 99.64 66.2147 100.081 68.1166L95.1278 68.1074Z" fill="#9E613D"/>
<path d="M84.1049 63.0753L89.4323 63.3551L89.5304 68.1576C91.0692 68.195 93.0189 68.1791 94.5148 68.345C94.4167 71.1409 94.8704 71.1544 93.4971 73.0434C91.3329 74.2448 86.9679 73.6405 84.2949 73.5027L84.3807 73.1977C84.1171 71.9614 83.976 70.0479 83.8289 68.7369L84.1049 63.0753Z" fill="#814A32"/>
<path d="M84.1049 63.0753L89.4323 63.3551L89.5304 68.1576L89.4079 68.5397C86.8944 68.3591 86.318 68.315 83.8289 68.7369L84.1049 63.0753Z" fill="#92593B"/>
<path d="M83.8289 68.7369C86.318 68.315 86.8944 68.3591 89.4079 68.5397C89.4263 70.7882 89.8064 71.2193 88.7642 72.891C87.0047 73.4194 86.1709 73.2877 84.3807 73.1977C84.1171 71.9614 83.976 70.0479 83.8289 68.7369Z" fill="#B57A54"/>
<path d="M110.222 73.1145L110.369 73.5137L110.308 78.4693C108.726 78.492 106.225 78.6071 104.729 78.4509L104.888 73.4684C107.205 73.5829 107.959 73.4525 110.222 73.1145Z" fill="#582C1C"/>
<path d="M99.6033 78.5526C99.5849 76.9158 99.6522 76.0935 99.8545 74.4671C101.626 73.0973 102.141 73.5658 104.888 73.4684L104.729 78.4509L104.287 78.5361C103.196 78.6236 100.836 78.74 99.8607 78.9169L99.6033 78.5526Z" fill="#643A2E"/>
<path d="M110.222 73.1145L110.314 70.1244C111.871 68.3181 111.086 68.8159 113.226 68.0915C115.139 68.9635 114.574 68.3683 115.335 70.3081L115.077 73.3367L110.369 73.5137L110.222 73.1145Z" fill="#744D3F"/>
<path d="M115.335 70.3081L115.733 70.2965L115.752 103.533C115.745 108.232 115.482 116.355 115.837 120.84C115.776 122.254 115.77 124.547 115.42 125.836L110.835 125.67L110.442 125.454C108.959 125.568 106.696 125.548 105.152 125.578L105.103 124.854C103.086 126.074 101.16 126.388 99.6339 124.547C98.9779 126.616 99.0086 128.944 98.9105 131.13C96.0291 131.189 93.3805 131.145 90.4991 131.066L90.4807 130.749C87.4705 127.81 90.7014 105.234 89.0093 99.9132L87.7158 99.4252L85.7294 99.3939C84.1232 98.206 84.5462 97.8141 84.1048 95.3042L83.2465 94.7751L83.412 94.3208C84.1967 92.6809 84.1968 88.3334 84.3071 86.2955C84.6566 85.7022 84.6198 84.9178 84.6872 84.1597L88.991 83.837C89.1933 82.6154 89.132 80.4012 89.1504 79.0792L90.2479 78.7093C93.3684 78.7583 96.4889 78.7057 99.6033 78.5526L99.8607 78.9169C100.836 78.74 103.196 78.6236 104.287 78.5361L104.729 78.4509C106.225 78.6071 108.726 78.492 110.308 78.4693L110.369 73.5137L115.077 73.3367L115.335 70.3081Z" fill="#92593B"/>
<path d="M90.2479 78.7093C93.3684 78.7583 96.4889 78.7057 99.6033 78.5526L99.8607 78.9169C99.8669 91.3099 100.48 112.791 99.6339 124.547C98.9779 126.616 99.0086 128.944 98.9105 131.13C96.0291 131.189 93.3805 131.145 90.4991 131.066L90.4807 130.749C87.4705 127.81 90.7014 105.234 89.0093 99.9132L87.7158 99.4252L85.7294 99.3939C84.1232 98.206 84.5462 97.8141 84.1048 95.3042L83.2465 94.7751L83.412 94.3208C84.1967 92.6809 84.1968 88.3334 84.3071 86.2955C84.6566 85.7022 84.6198 84.9178 84.6872 84.1597L88.991 83.837C89.1933 82.6154 89.132 80.4012 89.1504 79.0792L90.2479 78.7093Z" fill="#A46540"/>
<path d="M90.2479 78.7093C93.3684 78.7583 96.4889 78.7057 99.6033 78.5526L99.8607 78.9169C99.8669 91.3099 100.48 112.791 99.6339 124.547C98.9779 126.616 99.0086 128.944 98.9105 131.13C96.0291 131.189 93.3805 131.145 90.4991 131.066L90.4807 130.749C91.5107 130.725 92.7062 130.617 93.7484 130.548C95.3669 128.741 94.4903 89.9714 94.4597 83.973L89.3589 84.0164L88.991 83.837C89.1933 82.6154 89.132 80.4012 89.1504 79.0792L90.2479 78.7093Z" fill="#582C1C"/>
<path d="M89.1504 79.0792L90.2479 78.7093C92.5469 79.1178 93.0557 78.7786 94.3861 80.2071L94.4597 83.973L89.3589 84.0164L88.991 83.837C89.1933 82.6154 89.132 80.4012 89.1504 79.0792Z" fill="#764530"/>
<path d="M88.991 83.837L89.3589 84.0164C89.3527 87.0664 90.0578 91.9719 88.8194 94.1475C87.3235 95.3342 86.0666 95.1762 84.1048 95.3042L83.2465 94.7751L83.412 94.3208C84.1967 92.6809 84.1968 88.3334 84.3071 86.2955C84.6566 85.7022 84.6198 84.9178 84.6872 84.1597L88.991 83.837Z" fill="#764530"/>
<path d="M110.308 78.4693L110.271 99.7148L105.182 99.8759C104.52 103.367 104.649 121.297 105.103 124.854C103.086 126.074 101.16 126.388 99.6339 124.547C100.48 112.791 99.8669 91.3099 99.8607 78.9169C100.836 78.74 103.196 78.6236 104.287 78.5361L104.729 78.4509C106.225 78.6071 108.726 78.492 110.308 78.4693Z" fill="#814A32"/>
<path d="M110.308 78.4693L110.271 99.7148L105.182 99.8759C105.152 96.23 105.219 81.5555 104.287 78.5361L104.729 78.4509C106.225 78.6071 108.726 78.492 110.308 78.4693Z" fill="#764530"/>
<path d="M115.335 70.3081L115.733 70.2965L115.752 103.533C115.745 108.232 115.482 116.355 115.837 120.84C115.776 122.254 115.77 124.547 115.42 125.836L110.835 125.67L110.442 125.454C108.959 125.568 106.696 125.548 105.152 125.578L105.103 124.854C104.649 121.297 104.52 103.367 105.182 99.8759L110.271 99.7148L110.301 104.915C110.295 107.757 110.24 117.513 110.773 119.734C112.95 120.24 112.067 120.314 114.102 119.484C114.844 118.437 115.47 117.001 115.414 115.709C114.801 101.601 115.243 87.4651 115.077 73.3367L115.335 70.3081Z" fill="#764530"/>
<path d="M110.442 125.454C110.442 122.473 109.983 122.846 111.411 120.773L112.821 120.336C115.831 122.032 115.365 122.488 115.42 125.836L110.835 125.67L110.442 125.454Z" fill="#341D1A"/>
<path d="M105.182 99.8759L110.271 99.7148L110.301 104.915C108.781 104.896 107.788 104.808 106.273 104.63C105.017 103.07 105.372 102.219 105.182 99.8759Z" fill="#59321E"/>
<path d="M120.748 110.017L125.726 110.063C126.407 114.752 125.806 114.561 130.655 115.766C131.63 117.77 131.599 121.456 130.962 123.663C128.632 126.032 127.48 124.362 126.554 126.335C125.867 127.785 127.198 129.756 125.113 131.174L121.588 131.115C119.032 133.74 123.36 136.144 117.076 136.455C113.771 136.618 114.305 135.172 111.031 136.467C109.878 138.143 110.142 139.409 110.191 141.487C103.269 141.458 96.3539 141.471 89.4323 141.525L89.3772 136.187C88.2982 133.736 88.3595 132.377 90.4991 131.066C93.3805 131.145 96.0291 131.189 98.9105 131.13C99.0086 128.944 98.9779 126.616 99.6339 124.547C101.16 126.388 103.086 126.074 105.103 124.854L105.152 125.578C106.696 125.548 108.959 125.568 110.442 125.454L110.835 125.67L115.42 125.836C115.77 124.547 115.776 122.254 115.837 120.84C117.572 120.834 118.572 121.026 119.988 120.082C121.496 117.498 120.852 113.289 120.748 110.017Z" fill="#A2714E"/>
<path d="M98.9105 131.13C99.0086 128.944 98.9779 126.616 99.6339 124.547C101.16 126.388 103.086 126.074 105.103 124.854L105.152 125.578C106.696 125.548 108.959 125.568 110.442 125.454L110.835 125.67L110.553 131.026C107.825 131.059 107.727 130.65 105.648 131.837C105.372 133.072 105.317 135.133 104.667 135.433C101.412 136.923 93.0312 136.112 89.3772 136.187C88.2982 133.736 88.3595 132.377 90.4991 131.066C93.3805 131.145 96.0291 131.189 98.9105 131.13Z" fill="#3A1E16"/>
<path d="M98.9105 131.13C99.0086 128.944 98.9779 126.616 99.6339 124.547C101.16 126.388 103.086 126.074 105.103 124.854L105.152 125.578C104.925 128.346 105.335 128.956 103.944 130.886C101.859 131.202 100.952 131.175 98.9105 131.13Z" fill="#744D3F"/>
<path d="M115.42 125.836C115.23 128.495 115.66 129.054 114.292 130.795C112.876 130.952 111.975 131.036 110.553 131.026L110.835 125.67L115.42 125.836Z" fill="#826152"/>
<path d="M85.0735 26.538L89.3405 26.4229L89.5182 26.8681C91.8479 26.8185 92.3015 26.4278 94.1039 27.4492C94.5392 28.9953 94.6006 29.3162 94.6312 30.9199L94.3676 31.8561L94.5148 36.8503L94.9623 36.8583C94.7293 39.2427 94.3553 40.0883 93.5645 42.3295L89.6961 42.4519C91.0019 42.7256 93.2764 42.9669 94.1041 43.7072L93.5768 45.862C90.3214 47.1412 88.568 45.7977 84.2029 47.2061C79.3535 47.4002 73.5784 47.252 68.6554 47.2502C68.2753 45.0096 68.2692 44.6673 68.4409 42.3937L68.1404 42.1978C68.5634 41.147 68.6554 38.2483 68.7474 36.9758C66.9756 36.4762 64.7134 36.6623 62.819 36.6923L63.0336 32.0674C64.6582 32.038 66.9817 32.0631 68.5389 31.948L68.4346 31.441C74.2588 30.9278 77.7779 32.3564 83.4243 30.8476C85.0244 29.3609 84.5278 29.4895 84.773 26.658L85.0735 26.538Z" fill="#643A2E"/>
<path d="M89.3405 34.3612L89.5366 32.5346C91.2164 31.504 92.1176 31.8775 94.3676 31.8561L94.5148 36.8503L94.9623 36.8583C94.7293 39.2427 94.3553 40.0883 93.5645 42.3295L89.6961 42.4519C85.846 42.4605 82.5844 42.5101 78.7343 42.1164L78.6546 37.1357C82.8664 36.2729 88.145 38.8202 89.3405 34.3612Z" fill="#92593B"/>
<path d="M78.6546 37.1357C81.7261 37.2845 87.6055 36.9079 89.4569 39.7803C87.2192 42.4862 82.0387 42.0508 78.7343 42.1164L78.6546 37.1357Z" fill="#B57A54"/>
<path d="M89.3405 34.3612L89.5366 32.5346C91.2164 31.504 92.1176 31.8775 94.3676 31.8561L94.5148 36.8503C92.7123 37.2379 91.3206 37.0879 89.7757 36.3017L89.3405 34.3612Z" fill="#9C5B46"/>
<path d="M85.0735 26.538L89.3405 26.4229L89.5182 26.8681C89.2791 29.931 89.8186 29.6444 88.0713 31.2089C81.5912 32.9626 75.4912 31.6902 68.5389 31.948L68.4346 31.441C74.2588 30.9278 77.7779 32.3564 83.4243 30.8476C85.0244 29.3609 84.5278 29.4895 84.773 26.658L85.0735 26.538Z" fill="#9E613D"/>
<path d="M68.7474 36.9758C71.7147 37.1987 71.3835 36.7187 73.376 38.2844C74.0443 40.0038 74.0259 39.2488 73.2963 41.1378C71.3652 42.6638 71.3836 42.1843 68.4409 42.3937L68.1404 42.1978C68.5634 41.147 68.6554 38.2483 68.7474 36.9758Z" fill="#9C5B46"/>
<path d="M110.117 28.6989L110.436 31.8555C110.35 33.4709 110.185 35.4511 110.228 37.0365L110.35 42.248L115.059 42.2652L115.813 42.2535L115.684 47.7131L115.703 52.7085L115.893 57.3187L115.267 57.6531L110.283 57.6874L104.863 57.7529C102.895 58.0425 101.461 57.8551 99.5052 57.6972L99.9466 52.6956L99.4868 52.7673L94.6007 52.6393C94.7539 51.441 94.4473 48.615 94.3431 47.271L94.7539 47.2018C94.429 46.3292 94.2512 44.7004 94.1041 43.7072C93.2764 42.9669 91.0019 42.7256 89.6961 42.4519L93.5645 42.3295C94.3553 40.0883 94.7293 39.2427 94.9623 36.8583L99.7995 36.7781L104.79 37.2894L104.925 32.3962L105.47 32.3833C109.069 31.8243 109.498 32.338 110.117 28.6989Z" fill="#814A32"/>
<path d="M110.35 42.248L115.059 42.2652L115.813 42.2535L115.684 47.7131L115.703 52.7085L115.893 57.3187L115.267 57.6531L110.283 57.6874L104.863 57.7529C102.895 58.0425 101.461 57.8551 99.5052 57.6972L99.9466 52.6956C100.118 50.8856 99.9466 49.089 99.8485 47.2685L104.471 47.29L104.888 47.3132L110.283 47.4755L110.35 42.248Z" fill="#744D3F"/>
<path d="M110.35 42.248L115.059 42.2652L115.813 42.2535L115.684 47.7131L115.703 52.7085L115.893 57.3187L115.267 57.6531L110.283 57.6874L110.381 53.0722L110.755 52.8487C110.32 51.3503 110.344 49.0951 110.283 47.4755L110.35 42.248Z" fill="#764530"/>
<path d="M110.35 42.248L115.059 42.2652C115.188 44.3195 115.586 45.9202 114.458 47.4988C112.76 48.1338 112.036 47.846 110.283 47.4755L110.35 42.248Z" fill="#59321E"/>
<path d="M110.755 52.8487C113.336 52.7563 113.538 52.2719 115.126 53.5896C115.212 55.0225 115.286 56.2086 115.267 57.6531L110.283 57.6874L110.381 53.0722L110.755 52.8487Z" fill="#826152"/>
<path d="M99.9466 52.6956L104.428 52.7618L104.741 52.8922L104.863 57.7529C102.895 58.0425 101.461 57.8551 99.5052 57.6972L99.9466 52.6956Z" fill="#744D3F"/>
<path d="M104.741 52.8922C106.764 52.7685 108.456 52.4972 110.381 53.0722L110.283 57.6874L104.863 57.7529L104.741 52.8922Z" fill="#59321E"/>
<path d="M99.8485 47.2685L104.471 47.29C104.925 49.8458 104.894 50.2028 104.428 52.7618L99.9466 52.6956C100.118 50.8856 99.9466 49.089 99.8485 47.2685Z" fill="#59321E"/>
<path d="M110.117 28.6989L110.436 31.8555C110.35 33.4709 110.185 35.4511 110.228 37.0365L110.35 42.248L110.283 47.4755L104.888 47.3132L104.612 42.1384C101.841 42.2658 101.026 42.6999 99.315 40.4429L99.6707 39.1068C101.761 37.0665 101.265 37.68 104.79 37.2894L104.925 32.3962L105.47 32.3833C109.069 31.8243 109.498 32.338 110.117 28.6989Z" fill="#764530"/>
<path d="M104.612 42.1384L110.35 42.248L110.283 47.4755L104.888 47.3132L104.612 42.1384Z" fill="#B57A54"/>
<path d="M93.5645 42.3295C96.1332 42.3227 97.2675 41.8555 99.0883 43.0716C99.3764 44.4641 99.6278 45.8632 99.8485 47.2685C99.9466 49.089 100.118 50.8856 99.9466 52.6956L99.4868 52.7673L94.6007 52.6393C94.7539 51.441 94.4473 48.615 94.3431 47.271L94.7539 47.2018C94.429 46.3292 94.2512 44.7004 94.1041 43.7072C93.2764 42.9669 91.0019 42.7256 89.6961 42.4519L93.5645 42.3295Z" fill="#764530"/>
<path d="M94.7539 47.2018C97.1204 47.3267 97.5802 46.9434 99.2171 48.1656C99.4562 50.0063 99.4807 50.9468 99.4868 52.7673L94.6007 52.6393C94.7539 51.441 94.4473 48.615 94.3431 47.271L94.7539 47.2018Z" fill="#9C5B46"/>
<path d="M116.236 57.4553C119.154 57.402 118.872 56.9299 120.742 58.3566L120.748 110.017C120.852 113.289 121.496 117.498 119.988 120.082C118.572 121.026 117.572 120.834 115.837 120.84C115.482 116.355 115.745 108.232 115.752 103.533L115.733 70.2965C115.66 67.1191 115.169 60.0969 116.236 57.4553Z" fill="#341D1A"/>
<path d="M94.3492 15.603C98.046 16.4033 102.521 15.715 104.851 16.32C104.912 18.7718 104.496 19.187 105.734 20.8678C107.426 21.1801 108.64 21.3271 110.326 21.4955L110.418 26.0524L110.865 26.369L110.326 27.0334L110.117 28.6989C109.498 32.338 109.069 31.8243 105.47 32.3833L104.925 32.3962L104.79 37.2894L99.7995 36.7781L94.9623 36.8583L94.5148 36.8503L94.3676 31.8561L94.6312 30.9199C94.6006 29.3162 94.5392 28.9953 94.1039 27.4492C92.3015 26.4278 91.8479 26.8185 89.5182 26.8681L89.3405 26.4229L94.4289 26.4009L94.3983 21.3081L94.2143 16.0004L94.3492 15.603Z" fill="#744D3F"/>
<path d="M94.3492 15.603C98.046 16.4033 102.521 15.715 104.851 16.32C104.912 18.7718 104.496 19.187 105.734 20.8678C107.426 21.1801 108.64 21.3271 110.326 21.4955C108.462 21.7526 106.678 21.6847 104.79 21.6785L101.804 21.0576L99.7688 21.9308C99.2599 23.5774 99.2844 24.0207 99.2538 25.7536L98.2422 27.1136C97.0344 26.9452 95.6428 26.6366 94.4289 26.4009L94.3983 21.3081L94.2143 16.0004L94.3492 15.603Z" fill="#3A1E16"/>
<path d="M94.3492 15.603C98.046 16.4033 102.521 15.715 104.851 16.32C102.705 16.5215 96.3724 16.5821 95.1585 17.045C94.7539 18.7106 94.7661 18.9071 95.4344 20.4821C97.3655 21.5561 99.4745 21.3289 101.804 21.0576L99.7688 21.9308C99.2599 23.5774 99.2844 24.0207 99.2538 25.7536L98.2422 27.1136C97.0344 26.9452 95.6428 26.6366 94.4289 26.4009L94.3983 21.3081L94.2143 16.0004L94.3492 15.603Z" fill="#643A2E"/>
<path d="M110.326 21.4955L110.418 26.0524L110.865 26.369L110.326 27.0334C107.855 27.0689 107.15 26.6384 105.44 27.8594L105.305 29.3688C104.968 30.3718 104.624 30.5488 103.839 31.2389C101.54 31.6271 102.368 31.7851 100.511 30.9382C99.358 29.078 99.4867 29.8924 99.922 27.9023C102.043 26.3237 101.792 26.7964 104.802 26.4847L104.79 21.6785C106.678 21.6847 108.462 21.7526 110.326 21.4955Z" fill="#764530"/>
<path d="M110.326 21.4955L110.418 26.0524C108.07 26.4162 107.205 26.5705 104.802 26.4847L104.79 21.6785C106.678 21.6847 108.462 21.7526 110.326 21.4955Z" fill="#3A1E16"/>
<path d="M94.3676 31.8561L99.8362 32.0306L99.7995 36.7781L94.9623 36.8583L94.5148 36.8503L94.3676 31.8561Z" fill="#764530"/>
<path d="M99.8362 32.0306C101.657 31.9902 103.233 31.7986 104.925 32.3962L104.79 37.2894L99.7995 36.7781L99.8362 32.0306Z" fill="#AB8265"/>
<path d="M94.4289 26.4009C95.6428 26.6366 97.0344 26.9452 98.2422 27.1136C99.3947 28.3321 99.1066 27.7278 99.4806 29.3603C98.5917 31.0589 99.1557 30.5023 97.1877 31.3516L94.6312 30.9199C94.6006 29.3162 94.5392 28.9953 94.1039 27.4492C92.3015 26.4278 91.8479 26.8185 89.5182 26.8681L89.3405 26.4229L94.4289 26.4009Z" fill="#814A32"/>
<path d="M126.045 37.1405C126.112 41.3118 126.701 46.4921 125.978 50.5163C125.505 53.1316 122.943 52.7838 120.76 52.7073L115.703 52.7085L115.684 47.7131L115.813 42.2535L120.717 42.2033L120.938 38.5428C122.397 37.0879 123.544 37.4394 126.045 37.1405Z" fill="#3A1E16"/>
<path d="M115.813 42.2535L120.717 42.2033L120.766 47.7902L120.76 52.7073L115.703 52.7085L115.684 47.7131L115.813 42.2535Z" fill="#814A32"/>
<path d="M115.684 47.7131L120.766 47.7902L120.76 52.7073L115.703 52.7085L115.684 47.7131Z" fill="#A2714E"/>
<path d="M110.865 26.369L115.537 26.4302C115.629 27.9556 115.825 30.0271 115.758 31.5071C115.635 33.4555 115.47 35.1143 115.66 37.0671C115.727 38.6904 115.862 40.659 115.813 42.2535L115.059 42.2652L110.35 42.248L110.228 37.0365C110.185 35.4511 110.35 33.4709 110.436 31.8555L110.117 28.6989L110.326 27.0334L110.865 26.369Z" fill="#814A32"/>
<path d="M110.865 26.369L115.537 26.4302C115.243 29.0731 115.641 30.2322 114.09 31.6994L110.436 31.8555L110.117 28.6989L110.326 27.0334L110.865 26.369Z" fill="#3A1E16"/>
<path d="M110.228 37.0365C112.766 37.0622 113.091 36.6586 114.954 37.7909C115.518 39.555 115.286 40.4655 115.059 42.2652L110.35 42.248L110.228 37.0365Z" fill="#B57A54"/>
<path d="M121.085 57.6022C122.348 64.5761 120.693 94.7592 121.754 103.522C121.901 104.774 125.432 103.238 125.726 110.063L120.748 110.017L120.742 58.3566L121.085 57.6022Z" fill="#EABC89"/>
<path d="M120.84 36.7878C122.232 36.876 124.751 36.9642 126.045 37.1405C123.544 37.4394 122.397 37.0879 120.938 38.5428L120.717 42.2033L115.813 42.2535C115.862 40.659 115.727 38.6904 115.66 37.0671L120.84 36.7878Z" fill="#643A2E"/>
<path d="M115.758 31.5071C118.235 31.7496 119.031 31.3626 120.54 32.7654C120.668 34.1469 120.779 35.4015 120.84 36.7878L115.66 37.0671C115.47 35.1143 115.635 33.4555 115.758 31.5071Z" fill="#3A1E16"/>
</svg>
