<svg width="126" height="168" viewBox="0 0 126 168" fill="none" xmlns="http://www.w3.org/2000/svg">
<path d="M7.03547 6.68578L7.51489 1.40557C10.8872 -1.28233 80.5456 0.922256 90.3618 0.116158C93.5417 -0.145329 112.867 0.0656741 116.315 0.440772C116.79 0.491265 117.264 0.549883 117.736 0.615705C120.217 4.69669 116.892 5.25212 120.211 7.34311C123.23 7.36836 123.852 6.79938 125.586 8.46027C126.26 14.946 125.933 22.9466 125.831 29.5956L118.722 29.6605C118.627 32.8822 119.169 34.351 117.565 36.5818C116.056 36.9776 113.208 37.4988 112.175 38.4708C112.259 47.6417 107.402 43.6464 106.417 51.6046C105.751 51.8733 104.85 52.2962 104.152 52.4314C102.666 59.0497 104.29 58.5836 97.6778 61.6853C96.5158 64.2596 96.542 65.2848 96.2215 68.0376C92.5522 68.3749 92.2091 67.7536 89.9564 69.8473L89.467 75.8624L83.6777 75.7993L82.9915 76.0734C81.397 75.7767 78.4355 75.8416 76.7074 75.8227L70.4956 75.7407C63.1705 75.8461 50.3766 75.5108 43.6158 76.0491L42.9892 76.0463L38.1579 75.6487C35.776 73.3188 36.5182 72.8517 36.1264 68.5715L29.3475 68.1125L29.1949 60.7764C19.5765 60.4311 27.6573 57.1418 20.7322 51.3837C20.1823 50.0357 20.1814 46.9321 20.0875 45.3019C18.2177 45.3965 17.5893 45.2604 15.7239 44.9728C13.9894 42.6392 14.4725 41.1686 14.2242 37.8234L7.66839 37.46L7.3298 29.8543L0.39565 29.5261C0.518443 22.1558 -0.936119 15.4014 1.06829 8.53871C3.19187 6.5451 3.23698 7.16997 6.76907 7.05726L7.03547 6.68578Z" fill="#49A23F"/>
<path d="M93.8099 12.3186C94.5484 10.2176 94.6848 8.34215 96.5673 7.79753C103.113 5.90491 111.93 7.2917 118.813 7.09514C118.746 13.9046 117.055 24.6183 121.153 28.9346L125.831 29.5956L118.722 29.6605C118.627 32.8822 119.169 34.351 117.565 36.5818C116.056 36.9776 113.208 37.4988 112.175 38.4708C112.259 47.6417 107.402 43.6464 106.417 51.6046C105.751 51.8733 104.85 52.2962 104.152 52.4314C102.666 59.0497 104.29 58.5836 97.6778 61.6853C96.5158 64.2596 96.542 65.2848 96.2215 68.0376C92.5522 68.3749 92.2091 67.7536 89.9564 69.8473L89.467 75.8624L83.6777 75.7993L82.9915 76.0734C81.397 75.7767 78.4355 75.8416 76.7074 75.8227L70.4956 75.7407L70.7123 68.3009L71.1204 62.9432L70.4666 61.2228L66.2818 59.4194L66.4299 52.8967C67.6145 52.6604 70.8125 52.4765 72.1768 52.3575C72.193 49.3396 72.1677 48.4271 72.9018 45.3731C75.3811 45.2631 75.7973 44.934 77.9823 43.7059C80.598 40.0776 86.2238 27.4613 86.2825 22.292L84.1345 21.7438C83.9503 19.036 83.563 17.2579 84.5833 14.7666C86.6193 13.6467 87.8193 13.1823 89.997 12.3591C92.5143 13.314 92.0104 12.2554 93.8099 12.3186Z" fill="#49A23F"/>
<path d="M98.8173 52.6406C99.2055 49.8824 99.3951 48.4424 100.231 45.7085C103.588 45.044 104.083 44.9674 106.804 42.8322C106.542 41.202 106.455 40.358 106.358 38.7088C109.252 37.1498 108.049 37.5817 111.832 37.6178L112.175 38.4708C112.259 47.6417 107.402 43.6464 106.417 51.6046C105.751 51.8733 104.85 52.2962 104.152 52.4314C102.562 52.6578 100.462 52.6127 98.8173 52.6406Z" fill="#1A401C"/>
<path d="M98.8173 52.6406C100.462 52.6127 102.562 52.6578 104.152 52.4314C102.666 59.0497 104.29 58.5836 97.6778 61.6853C96.5158 64.2596 96.542 65.2848 96.2215 68.0376C95.6057 65.1649 95.8269 62.8503 95.9091 59.9261C95.8441 57.2752 95.5623 55.7063 96.6566 53.2961L98.8173 52.6406Z" fill="#0E4F0C"/>
<path d="M89.997 12.3591C92.5143 13.314 92.0104 12.2554 93.8099 12.3186L93.5065 13.8198L91.9843 14.3599C90.4575 18.5022 90.8908 21.9268 86.2825 22.292L84.1345 21.7438C83.9503 19.036 83.563 17.2579 84.5833 14.7666C86.6193 13.6467 87.8193 13.1823 89.997 12.3591Z" fill="#0E4F0C"/>
<path d="M111.832 37.6178C111.444 34.8731 111.209 33.9308 111.697 31.1545C114.481 29.1483 114.625 29.8129 118.722 29.6605C118.627 32.8822 119.169 34.351 117.565 36.5818C116.056 36.9776 113.208 37.4988 112.175 38.4708L111.832 37.6178Z" fill="#1A401C"/>
<path d="M72.1768 52.3575C71.5836 56.1689 73.0164 60.4978 71.1204 62.9432L70.4666 61.2228L66.2818 59.4194L66.4299 52.8967C67.6145 52.6604 70.8125 52.4765 72.1768 52.3575Z" fill="#3F923D"/>
<path d="M70.7123 68.3009C74.6398 68.4046 74.2597 67.7302 76.3309 69.8636L76.7074 75.8227L70.4956 75.7407L70.7123 68.3009Z" fill="#0E4F0C"/>
<path d="M96.2215 68.0376C94.1268 67.8366 93.3178 67.6698 91.2836 67.1224C89.2042 64.1586 89.4932 65.4255 89.7361 62.3156C92.3183 59.5853 91.3757 60.3824 95.9091 59.9261C95.8269 62.8503 95.6057 65.1649 96.2215 68.0376Z" fill="#1A401C"/>
<path d="M83.6777 75.7993C83.3229 72.2025 82.8768 70.9176 85.4229 68.5047L87.161 68.7662C89.7974 71.6777 88.9966 71.1593 89.467 75.8624L83.6777 75.7993Z" fill="#1A401C"/>
<path d="M7.03547 6.68578L7.51489 1.40557C10.8872 -1.28233 80.5456 0.922256 90.3618 0.116158C93.5417 -0.145329 112.867 0.0656741 116.315 0.440772C116.79 0.491265 117.264 0.549883 117.736 0.615705C120.217 4.69669 116.892 5.25212 120.211 7.34311C123.23 7.36836 123.852 6.79938 125.586 8.46027C126.26 14.946 125.933 22.9466 125.831 29.5956L121.153 28.9346C117.055 24.6183 118.746 13.9046 118.813 7.09514C111.93 7.2917 103.113 5.90491 96.5673 7.79753C94.6848 8.34215 94.5484 10.2176 93.8099 12.3186C92.0104 12.2554 92.5143 13.314 89.997 12.3591C87.8193 13.1823 86.6193 13.6467 84.5833 14.7666C83.563 17.2579 83.9503 19.036 84.1345 21.7438C80.8128 23.6391 48.5808 22.3578 43.0398 22.2244C42.5901 10.6928 38.4721 18.1812 36.809 7.26465L35.8519 11.7343L34.3784 12.672C32.0029 11.4926 31.6119 10.4647 30.2648 8.20331L30.0246 7.75157C28.0997 6.66505 11.633 6.99595 7.03547 6.68578Z" fill="#1A401C"/>
<path d="M36.809 7.26465C44.0456 7.12489 84.8921 5.92836 88.491 8.12845L89.997 12.3591C87.8193 13.1823 86.6193 13.6467 84.5833 14.7666C83.563 17.2579 83.9503 19.036 84.1345 21.7438C80.8128 23.6391 48.5808 22.3578 43.0398 22.2244C42.5901 10.6928 38.4721 18.1812 36.809 7.26465Z" fill="#257630"/>
<path d="M84.1345 21.7438L86.2825 22.292C86.2238 27.4613 80.598 40.0776 77.9823 43.7059C75.7973 44.934 75.3811 45.2631 72.9018 45.3731C72.1677 48.4271 72.193 49.3396 72.1768 52.3575C70.8125 52.4765 67.6145 52.6604 66.4299 52.8967L65.611 52.5369L61.3106 51.9617C59.0371 48.8175 55.5727 41.3471 53.1232 37.4203L49.0963 36.8342L47.7619 37.8432C46.4942 37.4437 45.222 37.0551 43.9471 36.6791C41.6962 32.4286 40.5713 27.6308 40.9803 22.8294L43.0398 22.2244C48.5808 22.3578 80.8128 23.6391 84.1345 21.7438Z" fill="#0E4F0C"/>
<path d="M49.0963 36.8342C49.2137 32.6694 48.4959 32.8218 50.6737 30.371C54.4721 28.7507 73.625 29.0474 76.647 31.9985C76.7616 35.718 70.0378 43.6933 67.396 46.4596C67.0646 46.8086 66.7252 47.1503 66.3785 47.4839L65.611 52.5369L61.3106 51.9617C59.0371 48.8175 55.5727 41.3471 53.1232 37.4203L49.0963 36.8342Z" fill="#DDD4CE"/>
<path d="M49.0963 36.8342L53.1232 37.4203C55.5727 41.3471 59.0371 48.8175 61.3106 51.9617L65.611 52.5369L66.4299 52.8967L66.2818 59.4194L64.4147 61.0036L59.8939 60.4681C58.2678 58.4808 59.0939 56.1851 58.7806 52.6866L54.4721 52.1889C52.3657 49.5569 54.9533 48.2693 52.8676 44.6815L49.0259 43.7474C47.2851 41.5004 47.8431 41.1298 47.7619 37.8432L49.0963 36.8342Z" fill="#1A401C"/>
<path d="M0.39565 29.5261C0.518443 22.1558 -0.936119 15.4014 1.06829 8.53871C3.19187 6.5451 3.23698 7.16997 6.76907 7.05726C7.37581 13.1598 9.42087 24.0656 5.71633 28.8093C3.55753 29.3161 2.61494 29.39 0.39565 29.5261Z" fill="#1A401C"/>
<path d="M30.2648 8.20331C31.6119 10.4647 32.0029 11.4926 34.3784 12.672L35.8519 11.7343L36.809 7.26465C38.4721 18.1812 42.5901 10.6928 43.0398 22.2244L40.9803 22.8294C40.2391 22.3001 38.2653 21.7086 37.2974 21.3669C35.6867 18.1245 34.234 14.2112 31.4459 12.1021C30.5439 11.4187 30.551 9.69919 30.2648 8.20331Z" fill="#0E4F0C"/>
<path d="M20.7322 51.3837L25.7459 52.234C27.5363 53.004 28.1169 53.3006 29.7655 54.3394C30.4644 56.4565 30.1113 57.9704 29.8937 60.2003L29.1949 60.7764C19.5765 60.4311 27.6573 57.1418 20.7322 51.3837Z" fill="#1A401C"/>
<path d="M29.1949 60.7764L29.8937 60.2003C34.3242 60.6169 33.8041 59.8937 36.7656 62.2831L37.2811 64.2398C34.6565 68.4641 34.1924 67.8519 29.3475 68.1125L29.1949 60.7764Z" fill="#0E4F0C"/>
<path d="M66.2818 59.4194L70.4666 61.2228L71.1204 62.9432L70.7123 68.3009C69.1512 68.5453 67.7436 68.4452 66.1672 68.4109C64.1167 66.026 64.7099 64.7456 64.4147 61.0036L66.2818 59.4194Z" fill="#0E4F0C"/>
<path d="M7.3298 29.8543C11.9526 29.9274 11.177 29.2187 14.356 31.5369C15.1641 34.1535 15.2093 32.9967 13.6545 36.0299C11.6239 37.4852 10.1938 37.3013 7.66839 37.46L7.3298 29.8543Z" fill="#0E4F0C"/>
<path d="M36.1264 68.5715C39.7126 68.6652 40.3023 68.0304 42.6001 69.914C42.8674 72.243 42.9784 73.7038 42.9892 76.0463L38.1579 75.6487C35.776 73.3188 36.5182 72.8517 36.1264 68.5715Z" fill="#1A401C"/>
<path d="M20.0875 45.3019L23.9528 44.576C26.6515 46.4488 25.8723 49.0357 25.7459 52.234L20.7322 51.3837C20.1823 50.0357 20.1814 46.9321 20.0875 45.3019Z" fill="#1A401C"/>
<path d="M14.2242 37.8234C17.4908 37.9884 17.8104 37.4356 19.943 39.2435C20.0974 41.4941 20.1535 43.0486 20.0875 45.3019C18.2177 45.3965 17.5893 45.2604 15.7239 44.9728C13.9894 42.6392 14.4725 41.1686 14.2242 37.8234Z" fill="#1A401C"/>
<path d="M76.7074 75.8227C78.4355 75.8416 81.397 75.7767 82.9915 76.0734C82.662 78.223 82.4398 80.7269 81.5604 82.661C85.9421 83.2696 86.7845 82.5375 88.881 85.1081L89.2007 90.2865L96.7497 90.4659C97.0594 94.2124 96.4463 95.9283 98.5897 98.0183L104.069 98.4701L104.031 106.171C107.359 106.033 107.884 105.42 110.218 106.981C110.687 112.155 111.367 132.501 108.813 136.609C106.812 137.552 106.503 137.464 104.238 137.575C104.112 141.535 104.793 142.229 102.819 144.773C100.805 145.058 99.1893 145.28 97.1614 145.408C97.0747 147.493 97.0341 151.303 96.6684 153.214L89.7433 153.57L89.0083 153.576C88.807 157.494 89.4535 157.56 87.4599 160.123C84.7612 160.675 83.3454 160.379 80.6711 160.074L80.5203 160.516C80.8237 163.244 81.1406 164.551 80.2828 167.227C77.5579 168.046 50.5147 168.573 46.1367 166.904C44.2794 164.382 44.9566 164.556 45.2211 160.572L44.803 160.321C41.7901 160.519 40.8999 160.605 37.8392 160.133C35.7363 157.541 36.3882 157.268 36.0641 153.261C33.5784 153.279 32.8697 153.205 30.4301 152.723C28.5123 149.808 29.2021 149.088 29.1507 144.945C26.2009 145.114 25.5175 145.171 22.6418 144.573C20.734 141.737 21.3624 141.741 21.2297 137.742C19.2957 137.547 17.5252 137.207 15.6228 136.865C14.3046 134.303 15.0205 111.232 15.174 107.402C17.3545 105.92 18.9255 106.362 21.9421 106.203C21.971 104.207 22.1335 102.539 22.3186 100.551C24.565 98.4449 25.8732 98.847 29.389 98.2185C29.2807 95.5802 29.3384 94.6659 29.7032 92.0493C32.2439 90.1548 32.3957 90.8266 36.3178 90.8338L44.6965 91.3144C44.627 88.2694 44.8085 86.2614 45.0803 83.248L44.3219 81.4428L43.6158 76.0491C50.3766 75.5108 63.1705 75.8461 70.4956 75.7407L76.7074 75.8227Z" fill="#AAB1B5"/>
<path d="M29.2943 137.084C33.7148 136.957 33.1794 136.359 36.6961 138.147C36.8713 140.511 36.8062 140.785 36.3638 143.137L37.5701 144.678C41.1265 144.709 43.1282 143.998 45.0848 145.928C45.3466 148.992 44.8879 150.566 46.589 152.453C55.6801 154.277 71.8743 151.747 80.9031 153.246L80.6711 160.074L80.5203 160.516C80.8237 163.244 81.1406 164.551 80.2828 167.227C77.5579 168.046 50.5147 168.573 46.1367 166.904C44.2794 164.382 44.9566 164.556 45.2211 160.572L44.803 160.321C41.7901 160.519 40.8999 160.605 37.8392 160.133C35.7363 157.541 36.3882 157.268 36.0641 153.261C33.5784 153.279 32.8697 153.205 30.4301 152.723C28.5123 149.808 29.2021 149.088 29.1507 144.945C26.2009 145.114 25.5175 145.171 22.6418 144.573C20.734 141.737 21.3624 141.741 21.2297 137.742L21.7443 137.107L29.2943 137.084Z" fill="#DDD4CE"/>
<path d="M45.2211 160.572L80.5203 160.516C80.8237 163.244 81.1406 164.551 80.2828 167.227C77.5579 168.046 50.5147 168.573 46.1367 166.904C44.2794 164.382 44.9566 164.556 45.2211 160.572Z" fill="#4D5156"/>
<path d="M36.3593 152.719C40.4051 152.733 41.4624 152.049 44.3625 153.868C45.0866 156.528 44.9249 157.647 44.803 160.321C41.7901 160.519 40.8999 160.605 37.8392 160.133C35.7363 157.541 36.3882 157.268 36.0641 153.261L36.3593 152.719Z" fill="#4D5156"/>
<path d="M21.7443 137.107L29.2943 137.084L29.1507 144.945C26.2009 145.114 25.5175 145.171 22.6418 144.573C20.734 141.737 21.3624 141.741 21.2297 137.742L21.7443 137.107Z" fill="#3E4449"/>
<path d="M29.1507 144.945C32.6159 145.072 33.4791 144.52 35.999 146.216C36.6464 148.852 36.483 150.079 36.3593 152.719L36.0641 153.261C33.5784 153.279 32.8697 153.205 30.4301 152.723C28.5123 149.808 29.2021 149.088 29.1507 144.945Z" fill="#4D5156"/>
<path d="M21.2297 137.742C19.2957 137.547 17.5252 137.207 15.6228 136.865C14.3046 134.303 15.0205 111.232 15.174 107.402C17.3545 105.92 18.9255 106.362 21.9421 106.203L29.2509 106.435C29.4739 116.65 29.4884 126.868 29.2943 137.084L21.7443 137.107L21.2297 137.742Z" fill="#DDD4CE"/>
<path d="M21.2297 137.742C19.2957 137.547 17.5252 137.207 15.6228 136.865C14.3046 134.303 15.0205 111.232 15.174 107.402C17.3545 105.92 18.9255 106.362 21.9421 106.203C21.869 115.945 21.5086 127.496 21.7443 137.107L21.2297 137.742Z" fill="#4D5156"/>
<path d="M104.031 106.171C107.359 106.033 107.884 105.42 110.218 106.981C110.687 112.155 111.367 132.501 108.813 136.609C106.812 137.552 106.503 137.464 104.238 137.575L97.3203 137.099L96.3876 136.65C96.3497 126.523 96.4598 116.395 96.7172 106.271L104.031 106.171Z" fill="#DDD4CE"/>
<path d="M104.031 106.171C107.359 106.033 107.884 105.42 110.218 106.981C110.687 112.155 111.367 132.501 108.813 136.609C106.812 137.552 106.503 137.464 104.238 137.575C103.88 127.111 103.81 116.639 104.031 106.171Z" fill="#4D5156"/>
<path d="M76.7074 75.8227C78.4355 75.8416 81.397 75.7767 82.9915 76.0734C82.662 78.223 82.4398 80.7269 81.5604 82.661L80.6296 83.1272C68.781 83.3679 56.9297 83.4076 45.0803 83.248L44.3219 81.4428L43.6158 76.0491C50.3766 75.5108 63.1705 75.8461 70.4956 75.7407L76.7074 75.8227Z" fill="#434B4E"/>
<path d="M80.6296 83.1272L80.9176 90.2261C69.5277 91.0511 55.997 90.2027 45.5146 91.2486L44.6965 91.3144C44.627 88.2694 44.8085 86.2614 45.0803 83.248C56.9297 83.4076 68.781 83.3679 80.6296 83.1272Z" fill="#DDD4CE"/>
<path d="M89.2007 90.2865L96.7497 90.4659L95.9479 98.5143L95.7231 105.879C93.9932 106.829 92.052 106.608 90.0358 106.626C86.6175 104.272 90.8557 102.61 86.9453 98.6198C84.2041 98.7244 83.6127 98.9164 81.1307 97.9606C80.5799 95.27 80.6495 94.8904 81.1731 92.1827C83.8276 90.4001 85.116 91.0836 88.8711 91.1133L89.2007 90.2865Z" fill="#DDD4CE"/>
<path d="M89.2007 90.2865L96.7497 90.4659L95.9479 98.5143C93.7422 98.4548 92.3671 98.2997 90.1803 97.9913C88.3032 95.3575 88.9533 95.0086 88.8711 91.1133L89.2007 90.2865Z" fill="#4D5156"/>
<path d="M29.389 98.2185C29.2807 95.5802 29.3384 94.6659 29.7032 92.0493C32.2439 90.1548 32.3957 90.8266 36.3178 90.8338L44.6965 91.3144L45.5146 91.2486C45.6843 94.1385 46.1719 95.9472 44.5945 98.2537C42.359 98.6973 41.6665 98.3502 39.3794 97.8173C33.4231 100.57 38.4377 102.986 35.5684 106.628C33.0809 106.939 32.7847 106.913 30.4698 105.959C29.8486 102.851 29.9597 101.503 30.0445 98.425L29.389 98.2185Z" fill="#DDD4CE"/>
<path d="M29.389 98.2185C29.2807 95.5802 29.3384 94.6659 29.7032 92.0493C32.2439 90.1548 32.3957 90.8266 36.3178 90.8338C36.2492 94.4279 36.8757 95.4071 35.0736 97.8678C33.2578 98.1311 31.8765 98.3394 30.0445 98.425L29.389 98.2185Z" fill="#4D5156"/>
<path d="M80.6296 83.1272L81.5604 82.661C85.9421 83.2696 86.7845 82.5375 88.881 85.1081L89.2007 90.2865L80.9176 90.2261L80.6296 83.1272Z" fill="#4D5156"/>
<path d="M89.0526 145.207C92.5955 145.349 93.558 144.749 95.9136 146.588C96.244 148.787 96.496 150.997 96.6684 153.214L89.7433 153.57L89.2657 152.343C89.0797 150.352 89.1049 147.295 89.0526 145.207Z" fill="#4D5156"/>
<path d="M80.9031 153.246C83.2389 153.196 86.5877 153.455 89.0083 153.576C88.807 157.494 89.4535 157.56 87.4599 160.123C84.7612 160.675 83.3454 160.379 80.6711 160.074L80.9031 153.246Z" fill="#363C43"/>
<path d="M104.238 137.575C104.112 141.535 104.793 142.229 102.819 144.773C100.805 145.058 99.1893 145.28 97.1614 145.408C96.821 142.061 97.0304 140.426 97.3203 137.099L104.238 137.575Z" fill="#4D5156"/>
<path d="M29.389 98.2185L29.2509 106.435L21.9421 106.203C21.971 104.207 22.1335 102.539 22.3186 100.551C24.565 98.4449 25.8732 98.847 29.389 98.2185Z" fill="#4D5156"/>
<path d="M88.6508 144.591C88.5975 142.098 88.6869 140.916 88.993 138.438C91.391 136.48 92.7869 136.995 96.3876 136.65C96.2585 139.394 96.1944 140.548 95.6265 143.298C93.0713 145.016 92.163 144.458 88.6508 144.591Z" fill="#DDD4CE"/>
<path d="M89.2657 152.343C84.9372 152.311 85.2162 152.971 82.067 150.986C80.7668 147.955 80.7469 149.115 81.7618 146.546C84.7801 144.35 84.4551 145.099 89.0526 145.207C89.1049 147.295 89.0797 150.352 89.2657 152.343Z" fill="#DDD4CE"/>
<path d="M96.7172 106.271C96.6865 104.181 96.839 102.64 97.0277 100.555C99.5341 98.4241 100.194 98.9949 104.069 98.4701L104.031 106.171L96.7172 106.271Z" fill="#4D5156"/>
<path d="M65.434 122.015L65.3924 129.134C61.352 129.512 60.8943 128.905 58.0791 130.96C55.4725 143.51 73.6936 133.612 80.2846 138.77C81.0873 141.196 80.9483 141.614 80.4445 144.144C77.9101 145.57 54.6752 145.116 50.1743 145.123C50.1139 143.347 49.7969 134.805 50.1391 133.989C53.8473 125.144 56.4448 133.815 57.977 121.903L65.434 122.015Z" fill="#434B4E"/>
<path d="M65.434 122.015L65.3924 129.134L59.7467 128.628C57.7992 126.673 58.3201 125.282 57.977 121.903L65.434 122.015Z" fill="#363C43"/>
<path d="M57.9636 106.425C57.7433 102.547 57.1329 102.795 58.8682 100.048C63.463 97.8407 69.497 96.6225 73.2756 101.092C73.3884 102.968 73.5256 104.423 73.3776 106.295L57.9636 106.425Z" fill="#4D5156"/>
<path d="M50.4985 114.421C50.3107 111.722 50.1274 110.543 50.7116 107.82C53.5448 105.843 53.8311 106.52 57.9636 106.425C58.1441 109.223 58.3888 110.553 57.485 113.282C54.5687 114.955 54.3439 114.374 50.4985 114.421Z" fill="#4D5156"/>
<path d="M65.434 122.015C65.5514 118.469 64.9501 117.113 66.7513 114.707C69.2767 114.221 70.3981 114.08 72.9668 113.978C72.9442 117.753 73.5437 118.674 71.9258 121.54C69.2406 122.446 68.2257 122.194 65.434 122.015Z" fill="#3E4449"/>
<path d="M73.3776 106.295C76.8013 106.4 77.6961 105.873 80.2973 107.474C81.0729 110.051 80.9203 111.486 80.877 114.116C77.3837 114.056 76.5422 114.597 73.8299 113.021C72.9099 110.375 73.2024 109.07 73.3776 106.295Z" fill="#4D5156"/>
<path d="M44.3219 81.4428L45.0803 83.248C44.8085 86.2614 44.627 88.2694 44.6965 91.3144L36.3178 90.8338C36.6239 79.2797 38.5425 87.521 44.3219 81.4428Z" fill="#4D5156"/>
</svg>
