<svg width="168" height="161" viewBox="0 0 168 161" fill="none" xmlns="http://www.w3.org/2000/svg">
<path d="M65.5252 36.5142C65.7985 33.8346 65.4679 31.9189 66.9662 30.2652C72.5927 30.0375 96.9956 29.5562 101.676 30.5008C102.209 32.9842 102.38 34.1883 102.56 36.7223L103.24 36.9972C107.257 36.9937 113.013 36.1956 115.854 38.2603C117.086 40.3969 116.75 42.1251 116.694 44.6488L123.667 44.7242L123.438 50.7333L124.213 50.9397C129.131 52.0941 129.057 51.3456 131.3 54.6349C131.844 57.7966 131.398 62.1932 131.199 65.4988L137.316 66.5008C138.812 68.8789 138.441 90.563 138.14 94.6496L137.846 95.1823C136.126 95.315 132.778 95.4692 131.228 95.7826L130.973 95.3424L131.238 88.3442C127.933 88.2277 126.883 87.5889 124.548 89.1218L123.616 91.6472L123.356 95.0153L123.579 100.978L123.628 102.467C123.722 105.885 123.157 107.27 124.82 109.716C127.367 110.248 128.714 110.118 131.254 110.035C128.437 110.253 126.317 109.895 124.412 111.363L124.588 112.37C123.684 116.067 124.419 115.635 121.933 117.4L116.755 117.414C116.536 121.347 117.204 121.392 115.141 123.806C111.346 125.407 107.289 124.012 102.606 124.551L102.284 124.905L102.144 131.829C91.2294 131.288 76.8529 131.703 65.682 131.718L65.7017 124.311C61.433 124.188 56.1268 125.296 52.5194 123.858C50.2176 121.408 50.9603 121.737 50.8403 117.413L43.796 117.329L43.7155 110.472L43.7249 102.782L43.7592 95.7637C41.3828 95.0213 39.7834 95.3938 37.3034 95.6387L36.8905 96.3307C35.4624 95.2902 32.3758 95.2311 30.6128 95.118L29.566 93.6682C29.8847 85.5027 28.8969 76.9117 29.8495 68.8661C30.4278 63.9899 32.3904 67.9155 36.5949 64.8094L36.8442 61.217L36.8767 51.7267L43.7369 51.4903C43.6521 48.8733 43.4628 47.7857 44.2269 45.2388C46.6795 43.8438 47.065 44.3739 50.2492 44.4733L50.9072 44.7918L57.1728 44.4784L65.431 44.451C65.6323 41.0367 65.7094 40.3242 64.9787 36.9124L65.5252 36.5142Z" fill="#FFDC39"/>
<path d="M65.5252 36.5142C65.7985 33.8346 65.4679 31.9189 66.9662 30.2652C72.5927 30.0375 96.9956 29.5562 101.676 30.5008C102.209 32.9842 102.38 34.1883 102.56 36.7223L103.24 36.9972C101.933 39.1321 102.132 42.1876 102.7 44.5589L102.14 44.7053L94.4847 44.5829L73.147 44.7028L65.8688 44.7096L65.431 44.451C65.6323 41.0367 65.7094 40.3242 64.9787 36.9124L65.5252 36.5142Z" fill="#A94506"/>
<path d="M73.147 44.7028L73.1341 44.2027C73.0707 41.2362 72.7272 38.405 76.099 37.7585C81.3752 36.7463 88.3433 37.4382 93.7951 37.4493C94.2372 40.23 94.4941 41.6978 94.4847 44.5829L73.147 44.7028Z" fill="#FCC63D"/>
<path d="M64.9787 36.9124L65.5252 36.5142C73.798 37.7114 85.2131 36.5176 93.8773 36.9997L93.7951 37.4493C88.3433 37.4382 81.3752 36.7463 76.099 37.7585C72.7272 38.405 73.0707 41.2362 73.1341 44.2027L73.147 44.7028L65.8688 44.7096L65.431 44.451C65.6323 41.0367 65.7094 40.3242 64.9787 36.9124Z" fill="#F99611"/>
<path d="M102.56 36.7223L103.24 36.9972C101.933 39.1321 102.132 42.1876 102.7 44.5589L102.14 44.7053L94.4847 44.5829C94.4941 41.6978 94.2372 40.23 93.7951 37.4493L93.8773 36.9997L102.56 36.7223Z" fill="#F99611"/>
<path d="M102.21 117.195L102.698 117.417C102.18 120.663 102.049 121.237 102.606 124.551L102.284 124.905L102.144 131.829C91.2294 131.288 76.8529 131.703 65.682 131.718L65.7017 124.311L65.4122 117.456L65.9673 117.22C76.3569 117.33 92.128 117.941 102.21 117.195Z" fill="#E77C16"/>
<path d="M65.682 131.718C65.8696 128.596 65.9416 127.932 66.788 124.868C70.7654 123.973 96.8148 124.778 102.284 124.905L102.144 131.829C91.2294 131.288 76.8529 131.703 65.682 131.718Z" fill="#A94506"/>
<path d="M43.5904 56.7082L43.9493 59.1017L43.856 65.9219L44.4137 66.1026C43.5005 70.9804 43.7181 82.9859 43.748 88.4076L44.0513 95.2474L43.7592 95.7637C41.3828 95.0213 39.7834 95.3938 37.3034 95.6387L36.8905 96.3307C35.4624 95.2902 32.3758 95.2311 30.6128 95.118L29.566 93.6682C29.8847 85.5027 28.8969 76.9117 29.8495 68.8661C30.4278 63.9899 32.3904 67.9155 36.5949 64.8094L36.8442 61.217C38.8968 59.7218 41.4351 58.1289 43.5904 56.7082Z" fill="#B35E2D"/>
<path d="M43.856 65.9219L44.4137 66.1026C43.5005 70.9804 43.7181 82.9859 43.748 88.4076L36.6377 88.3279C36.8185 80.982 35.3125 73.9589 37.4653 67.6603C39.8262 65.4551 39.7603 66.1642 43.856 65.9219Z" fill="#F9B029"/>
<path d="M36.6377 88.3279L43.748 88.4076L44.0513 95.2474L43.7592 95.7637C41.3828 95.0213 39.7834 95.3938 37.3034 95.6387C36.9016 93.5269 36.7902 90.539 36.6377 88.3279Z" fill="#E77C16"/>
<path d="M123.628 102.467C123.722 105.885 123.157 107.27 124.82 109.716C127.367 110.248 128.714 110.118 131.254 110.035C128.437 110.253 126.317 109.895 124.412 111.363L124.588 112.37C123.684 116.067 124.419 115.635 121.933 117.4L116.755 117.414C116.536 121.347 117.204 121.392 115.141 123.806C111.346 125.407 107.289 124.012 102.606 124.551C102.049 121.237 102.18 120.663 102.698 117.417L102.21 117.195C102.113 115.22 102.238 112.051 102.261 109.983L106.636 109.802C109.126 108.212 108.679 107.201 109.708 103.639C112.153 101.932 112.382 102.572 116.057 102.668L116.707 103.222L123.628 102.467Z" fill="#F99611"/>
<path d="M123.628 102.467C123.722 105.885 123.157 107.27 124.82 109.716C127.367 110.248 128.714 110.118 131.254 110.035C128.437 110.253 126.317 109.895 124.412 111.363L124.588 112.37C123.684 116.067 124.419 115.635 121.933 117.4L116.755 117.414L116.641 110.623L116.707 103.222L123.628 102.467Z" fill="#E77C16"/>
<path d="M116.641 110.623C119.588 110.42 122.823 109.565 124.588 112.37C123.684 116.067 124.419 115.635 121.933 117.4L116.755 117.414L116.641 110.623Z" fill="#A94506"/>
<path d="M102.698 117.417L116.755 117.414C116.536 121.347 117.204 121.392 115.141 123.806C111.346 125.407 107.289 124.012 102.606 124.551C102.049 121.237 102.18 120.663 102.698 117.417Z" fill="#B35E2D"/>
<path d="M43.7249 102.782L51.53 102.697C55.2376 102.454 55.2299 101.812 57.6577 103.496C58.9307 107.416 58.4312 108.333 61.1451 110.105L66.011 110.486L65.9673 117.22L65.4122 117.456L65.7017 124.311C61.433 124.188 56.1268 125.296 52.5194 123.858C50.2176 121.408 50.9603 121.737 50.8403 117.413L43.796 117.329L43.7155 110.472L43.7249 102.782Z" fill="#F99611"/>
<path d="M43.7249 102.782L51.53 102.697L51.3089 110.607L51.3021 117.185L50.8403 117.413L43.796 117.329L43.7155 110.472L43.7249 102.782Z" fill="#E77C16"/>
<path d="M43.7155 110.472L51.3089 110.607L51.3021 117.185L50.8403 117.413L43.796 117.329L43.7155 110.472Z" fill="#A94506"/>
<path d="M50.8403 117.413L51.3021 117.185C56.0034 117.349 60.7074 117.44 65.4122 117.456L65.7017 124.311C61.433 124.188 56.1268 125.296 52.5194 123.858C50.2176 121.408 50.9603 121.737 50.8403 117.413Z" fill="#B35E2D"/>
<path d="M116.694 44.6488L123.667 44.7242L123.438 50.7333L124.213 50.9397C129.131 52.0941 129.057 51.3456 131.3 54.6349C131.844 57.7966 131.398 62.1932 131.199 65.4988L131.024 66.1462C128.72 66.2841 125.838 66.0503 123.489 65.9364L122.879 66.2182L118.578 66.2559C115.794 64.6151 116.48 64.2211 115.23 60.1465C113.128 58.5126 112.629 59.0675 109.491 59.0581C110.12 52.9196 109.928 53.9627 115.111 51.9117L116.133 49.0591L116.694 44.6488Z" fill="#F99611"/>
<path d="M123.438 50.7333L124.213 50.9397C129.131 52.0941 129.057 51.3456 131.3 54.6349C131.844 57.7966 131.398 62.1932 131.199 65.4988L131.024 66.1462C128.72 66.2841 125.838 66.0503 123.489 65.9364C123.755 61.2375 123.626 57.1227 123.502 52.4452L123.438 50.7333Z" fill="#A94506"/>
<path d="M116.694 44.6488L123.667 44.7242L123.438 50.7333L123.502 52.4452C119.062 52.5445 117.477 53.472 116.133 49.0591L116.694 44.6488Z" fill="#A94506"/>
<path d="M43.7369 51.4903C43.6521 48.8733 43.4628 47.7857 44.2269 45.2388C46.6795 43.8438 47.065 44.3739 50.2492 44.4733L50.9072 44.7918L57.1728 44.4784C58.4304 50.8464 58.0157 53.9481 58.8236 59.142L51.5497 58.933C48.0116 58.4835 47.4565 58.4783 43.9493 59.1017L43.5904 56.7082C41.4351 58.1289 38.8968 59.7218 36.8442 61.217L36.8767 51.7267L43.7369 51.4903Z" fill="#F99611"/>
<path d="M43.7369 51.4903C43.6521 48.8733 43.4628 47.7857 44.2269 45.2388C46.6795 43.8438 47.065 44.3739 50.2492 44.4733L50.9072 44.7918C50.914 48.4537 51.5248 48.607 49.8063 51.1067C47.2758 51.6762 46.2889 51.5708 43.7369 51.4903Z" fill="#A94506"/>
<path d="M36.8767 51.7267C40.2391 51.9151 41.429 51.3687 43.6589 53.1363C43.6692 54.3258 43.7352 55.5384 43.5904 56.7082C41.4351 58.1289 38.8968 59.7218 36.8442 61.217L36.8767 51.7267Z" fill="#A94506"/>
<path d="M103.24 36.9972C107.257 36.9937 113.013 36.1956 115.854 38.2603C117.086 40.3969 116.75 42.1251 116.694 44.6488L116.133 49.0591L115.111 51.9117C109.928 53.9627 110.12 52.9196 109.491 59.0581C108.942 46.5405 102.721 57.4798 102.14 44.7053L102.7 44.5589C102.132 42.1876 101.933 39.1321 103.24 36.9972Z" fill="#F9B029"/>
<path d="M103.24 36.9972C107.257 36.9937 113.013 36.1956 115.854 38.2603C117.086 40.3969 116.75 42.1251 116.694 44.6488L102.7 44.5589C102.132 42.1876 101.933 39.1321 103.24 36.9972Z" fill="#B35E2D"/>
<path d="M131.199 65.4988L137.316 66.5008C138.812 68.8789 138.441 90.563 138.14 94.6496L137.846 95.1823C136.126 95.315 132.778 95.4692 131.228 95.7826L130.973 95.3424L131.238 88.3442C131.328 80.9443 131.256 73.5427 131.024 66.1462L131.199 65.4988Z" fill="#B35E2D"/>
<path d="M123.489 65.9364C125.838 66.0503 128.72 66.2841 131.024 66.1462C131.256 73.5427 131.328 80.9443 131.238 88.3442C127.933 88.2277 126.883 87.5889 124.548 89.1218L123.616 91.6472C123.752 85.7477 124.984 71.186 122.879 66.2182L123.489 65.9364Z" fill="#F99611"/>
<path d="M66.011 110.486C69.4282 110.761 71.1561 109.599 73.6892 110.689C76.0339 119.197 85.8564 116.777 93.1423 115.929C96.0139 109.845 95.8793 110.747 102.261 109.983C102.238 112.051 102.113 115.22 102.21 117.195C92.128 117.941 76.3569 117.33 65.9673 117.22L66.011 110.486Z" fill="#FCC63D"/>
<path d="M123.356 95.0153L123.579 100.978L123.628 102.467L116.707 103.222L116.057 102.668C116.004 100 115.942 98.9032 116.45 96.1962C119.108 94.4432 119.576 95.065 123.356 95.0153Z" fill="#F99611"/>
<path d="M44.0513 95.2474C47.7272 95.303 48.2267 94.7147 50.8952 96.3812C51.6233 98.9743 51.5317 100.081 51.53 102.697L43.7249 102.782L43.7592 95.7637L44.0513 95.2474Z" fill="#F9B029"/>
<path d="M65.431 44.451L65.8688 44.7096C65.5347 46.7769 65.4498 47.9544 64.6018 49.8872C58.8561 53.5482 59.1088 52.2482 58.8236 59.142C58.0157 53.9481 58.4304 50.8464 57.1728 44.4784L65.431 44.451Z" fill="#F9B029"/>
<path d="M43.9493 59.1017C47.4565 58.4783 48.0116 58.4835 51.5497 58.933C50.8995 62.6017 51.4306 64.4155 49.2358 66.0323L44.4137 66.1026L43.856 65.9219L43.9493 59.1017Z" fill="#F9B029"/>
<path d="M29.566 93.6682L30.6128 95.118C32.3758 95.2311 35.4624 95.2902 36.8905 96.3307L37.3034 95.6387C39.7834 95.3938 41.3828 95.0213 43.7592 95.7637L43.7249 102.782L43.7155 110.472L36.7757 110.125L29.1102 109.736C22.161 110.628 14.4802 110.856 7.51636 110.083C7.4701 107.481 7.1163 105.856 8.56149 103.778C11.8733 101.696 18.1244 102.314 22.4309 102.3C22.2467 100.119 22.3152 98.9297 22.4514 96.7417C24.8612 94.7207 25.3478 95.3424 29.1685 95.023L29.566 93.6682Z" fill="#EFD8C3"/>
<path d="M7.51636 110.083C7.4701 107.481 7.1163 105.856 8.56149 103.778C11.8733 101.696 18.1244 102.314 22.4309 102.3L22.579 102.817L29.6105 102.876L29.1102 109.736C22.161 110.628 14.4802 110.856 7.51636 110.083Z" fill="#E77C16"/>
<path d="M22.579 102.817L29.6105 102.876L29.1102 109.736C22.161 110.628 14.4802 110.856 7.51636 110.083C12.0704 109.676 17.2258 111.037 20.9034 109.41C23.1076 106.815 22.3974 107.03 22.579 102.817Z" fill="#FCC63D"/>
<path d="M37.3034 95.6387C39.7834 95.3938 41.3828 95.0213 43.7592 95.7637L43.7249 102.782L43.7155 110.472L36.7757 110.125C36.6891 105.577 36.8211 100.89 36.8905 96.3307L37.3034 95.6387Z" fill="#A94506"/>
<path d="M29.1685 95.023C29.5069 98.0999 29.6688 99.745 29.6105 102.876L22.579 102.817L22.4309 102.3C22.2467 100.119 22.3152 98.9297 22.4514 96.7417C24.8612 94.7207 25.3478 95.3424 29.1685 95.023Z" fill="#E77C16"/>
<path d="M80.5383 0.00263722C84.3872 0.132548 84.2587 -0.509809 86.7036 1.45239C89.1186 8.15364 87.4712 15.5543 87.6306 23.148C83.3421 23.1111 78.0128 23.2173 73.8177 22.9424C73.9317 14.7417 72.1601 9.30631 74.2701 1.73781C76.5762 -0.544666 76.3278 0.189582 80.5383 0.00263722Z" fill="#F9B029"/>
<path d="M73.8177 22.9424C73.9317 14.7417 72.1601 9.30631 74.2701 1.73781C76.5762 -0.544666 76.3278 0.189582 80.5383 0.00263722C80.5708 4.66753 81.7144 18.3079 78.8943 22.0022C78.2038 22.9056 75.3426 22.8148 73.8177 22.9424Z" fill="#E77C16"/>
<path d="M80.6248 138.583C82.781 138.779 85.6696 138.525 86.582 140.111C89.1648 144.601 87.7128 155.679 87.6271 160.957C83.4381 160.959 77.7952 161.129 73.7303 160.777C73.6481 153.233 71.9014 147.033 74.306 140.152C76.631 138.095 76.7124 138.771 80.6248 138.583Z" fill="#F9B029"/>
<path d="M73.7303 160.777C73.6481 153.233 71.9014 147.033 74.306 140.152C76.631 138.095 76.7124 138.771 80.6248 138.583C80.5819 144.309 81.8592 156.576 78.8532 160.259C76.601 160.758 76.0588 160.749 73.7303 160.777Z" fill="#E77C16"/>
<path d="M145.309 80.4673L145.764 75.7658C150.114 71.7966 161.22 73.3834 167.647 73.5264C167.936 78.5944 168.033 82.5414 167.991 87.6163C161.566 87.8792 151.419 89.2494 146.557 85.5772C145.322 83.4689 145.457 82.9996 145.309 80.4673Z" fill="#FCC63D"/>
<path d="M145.309 80.4673L145.764 75.7658C150.114 71.7966 161.22 73.3834 167.647 73.5264C167.28 77.9496 168.063 77.7518 165.571 80.0871C159.108 81.9574 152.411 80.499 145.309 80.4673Z" fill="#E77C16"/>
<path d="M0 80.7465C0.0308398 78.1217 0.148199 76.7746 0.477157 74.1901C3.4849 73.1376 19.621 72.8028 22.0299 74.5729L22.4488 80.3851C22.3049 82.3573 22.5739 85.2039 21.1167 85.996C15.4045 89.1004 7.27392 87.8543 1.4983 87.0827C-0.143061 85.6535 0.229586 84.3509 0.0454037 81.5523L0 80.7465Z" fill="#E77C16"/>
<path d="M0 80.7465C7.48466 80.8107 14.9702 80.69 22.4488 80.3851C22.3049 82.3573 22.5739 85.2039 21.1167 85.996C15.4045 89.1004 7.27392 87.8543 1.4983 87.0827C-0.143061 85.6535 0.229586 84.3509 0.0454037 81.5523L0 80.7465Z" fill="#FCC63D"/>
<path d="M138.14 94.6496C140.707 94.9142 142.458 94.9622 144.881 95.965C146.178 98.1727 146.078 99.5352 146.306 102.082C150.142 102.091 156.696 101.906 160.272 102.503L160.353 110.158C153.844 110.808 145.471 112.161 139.805 109.26C137.686 106.16 138.322 106.456 137.928 102.235C138.001 100.085 137.88 97.3823 137.846 95.1823L138.14 94.6496Z" fill="#FCC63D"/>
<path d="M160.353 110.158C155.98 110.225 145.868 111.203 144.638 105.824C149.094 101.677 154.257 102.503 160.272 102.503L160.353 110.158Z" fill="#E77C16"/>
<path d="M138.14 94.6496C140.707 94.9142 142.458 94.9622 144.881 95.965C146.178 98.1727 146.078 99.5352 146.306 102.082C143.091 102.753 141.184 102.471 137.928 102.235C138.001 100.085 137.88 97.3823 137.846 95.1823L138.14 94.6496Z" fill="#D56E28"/>
<path d="M58.2522 30.2533C56.078 30.1728 54.6011 30.3406 52.7224 29.289C49.1733 23.0675 49.2289 14.1889 53.2767 8.23679C55.9041 6.98461 55.1528 6.82781 57.2028 7.53106C58.5152 9.56066 58.4561 10.0675 58.5906 12.5095C58.7208 14.5387 58.9461 19.1442 59.389 21.0396C60.046 23.8502 65.2408 25.3788 66.1129 28.7837C64.2771 30.547 63.7639 30.4348 60.5686 30.3646C59.7959 30.3406 59.024 30.3038 58.2522 30.2533Z" fill="#E77C16"/>
<path d="M58.5906 12.5095C58.7208 14.5387 58.9461 19.1442 59.389 21.0396C60.046 23.8502 65.2408 25.3788 66.1129 28.7837C64.2771 30.547 63.7639 30.4348 60.5686 30.3646C59.7959 30.3406 59.024 30.3038 58.2522 30.2533L58.5906 12.5095Z" fill="#F9C67C"/>
<path d="M109.57 8.14302C113.367 8.31866 113.32 7.71835 115.966 9.57898C117.887 13.1505 116.739 18.8348 116.707 23.1557C116.553 26.9914 117.19 26.7952 115.219 29.2445C110.41 31.227 106.64 32.3882 102.985 27.6165C102.316 24.7562 102.032 25.5509 103.188 23.6378C104.963 23.4511 106.025 23.3312 107.762 22.9416C109.576 19.91 109.338 12.2087 109.57 8.14302Z" fill="#F9B029"/>
<path d="M109.57 8.14302C113.367 8.31866 113.32 7.71835 115.966 9.57898C117.887 13.1505 116.739 18.8348 116.707 23.1557C113.189 23.3903 112.494 23.7783 110.305 22.0578C109.075 19.232 109.772 12.226 109.57 8.14302Z" fill="#D56E28"/>
<path d="M123.616 91.6472L124.548 89.1218C126.883 87.5889 127.933 88.2277 131.238 88.3442L130.973 95.3424L131.228 95.7826L131.254 110.035C128.714 110.118 127.367 110.248 124.82 109.716C123.157 107.27 123.722 105.885 123.628 102.467L123.579 100.978L123.356 95.0153L123.616 91.6472Z" fill="#A94506"/>
<path d="M123.616 91.6472L124.548 89.1218C126.883 87.5889 127.933 88.2277 131.238 88.3442L130.973 95.3424C126.998 95.2208 126.789 94.5083 124.315 96.412L123.579 100.978L123.356 95.0153L123.616 91.6472Z" fill="#E77C16"/>
<path d="M109.738 131.859C112.272 132.3 113.847 132.307 115.631 134.205C116.479 136.358 116.725 136.719 116.848 138.985C116.663 142.562 117.238 144.052 115.388 146.469C112.828 146.985 112.195 146.863 109.579 146.591C109.508 145.568 109.417 144.548 109.308 143.529C108.391 135.614 102.7 144.08 102.144 131.829L109.738 131.859Z" fill="#E77C16"/>
<path d="M109.938 138.971L116.848 138.985C116.663 142.562 117.238 144.052 115.388 146.469C112.828 146.985 112.195 146.863 109.579 146.591C110.107 143.733 109.987 141.829 109.938 138.971Z" fill="#D56E28"/>
<path d="M109.738 131.859C112.272 132.3 113.847 132.307 115.631 134.205C116.479 136.358 116.725 136.719 116.848 138.985L109.938 138.971L109.738 131.859Z" fill="#F9B029"/>
<path d="M50.926 139.464C52.6128 132.254 53.8078 132.614 60.8196 131.142C66.2611 132.98 65.6238 133.112 65.2588 138.969C61.3473 139.366 61.2214 138.682 59.1234 140.892L58.5897 143.875C58.026 146.477 57.7502 146.504 55.6085 147.5L53.3221 146.658C50.5217 143.441 51.3458 144.414 50.926 139.464Z" fill="#FCC63D"/>
<path d="M50.926 139.464C54.3998 139.426 55.958 138.732 58.1785 140.477L58.5897 143.875C58.026 146.477 57.7502 146.504 55.6085 147.5L53.3221 146.658C50.5217 143.441 51.3458 144.414 50.926 139.464Z" fill="#D56E28"/>
<path d="M60.8196 131.142C66.2611 132.98 65.6238 133.112 65.2588 138.969L60.8624 138.798C58.1794 137.197 58.8296 138.077 57.9129 135.612C58.4895 133.176 58.9632 132.879 60.8196 131.142Z" fill="#D56E28"/>
<path d="M137.839 51.9948C142.476 52.0855 148.032 50.8498 151.922 52.6858C153.966 55.1676 153.292 55.1196 153.431 59.1035C149.039 59.1583 143.018 60.3572 139.408 58.4689C137.421 55.8681 138.057 55.9032 137.839 51.9948Z" fill="#E77C16"/>
<path d="M50.2492 44.4733C50.723 43.1116 50.8163 41.1591 51.6285 38.894C55.0388 36.2735 60.2439 36.998 64.9787 36.9124C65.7094 40.3242 65.6323 41.0367 65.431 44.451L57.1728 44.4784L50.9072 44.7918L50.2492 44.4733Z" fill="#B35E2D"/>
<path d="M14.6635 52.2457C18.4516 51.9913 24.5237 51.1178 27.7747 52.5386C30.2162 55.2087 29.4718 54.8422 29.9155 59.2105C25.4146 59.1206 20.1718 60.3127 16.3237 58.5674C14.194 55.8964 14.8605 56.3383 14.6635 52.2457Z" fill="#E77C16"/>
<path d="M131.177 37.2635C131.268 41.0486 131.944 41.4143 130.165 43.8798L125.019 45.4915C123.893 47.6461 124.125 48.4708 124.213 50.9397L123.438 50.7333L123.667 44.7242C123.632 42.1182 123.505 40.7326 124.192 38.1558C126.84 36.5339 127.481 37.1761 131.177 37.2635Z" fill="#D56E28"/>
<path d="M22.0145 22.4029C26.0922 22.5031 26.7133 21.842 29.5917 23.7491C30.1759 26.4904 30.1417 27.1121 30.0029 29.9261C26.1325 30.0597 25.418 30.7431 22.6279 29.0749C21.6573 26.469 21.9126 25.163 22.0145 22.4029Z" fill="#D56E28"/>
<path d="M130.721 124.354L131.288 124.023C135.08 124.457 135.549 123.913 138.229 125.869C138.995 128.466 138.954 129.175 138.981 131.901L138.372 132.956C137.019 131.897 134.604 131.713 132.819 131.4C130.693 129.412 131.197 127.914 130.721 124.354Z" fill="#E77C16"/>
<path d="M35.9421 124.434C36.313 122.481 36.5829 120.645 36.8613 118.677C39.3756 116.771 39.9299 117.432 43.796 117.329C43.8003 121.209 44.4796 121.492 42.589 123.959C38.1172 124.762 36.6394 123.824 35.8093 128.567L35.9421 124.434Z" fill="#D56E28"/>
<path d="M30.0029 29.9261C33.839 30.016 33.8279 29.3549 36.1392 31.3229C38.0881 37.2541 36.8982 37.07 43.1338 37.7354C40.5989 37.9914 38.692 37.7825 36.1734 37.6172C33.7114 37.4254 32.6637 37.4365 30.3207 36.5219C29.1317 34.0881 29.745 32.9928 30.0029 29.9261Z" fill="#E77C16"/>
<path d="M21.8243 139.21C21.7292 136.631 21.7635 135.875 22.1807 133.33C24.9571 131.318 25.3846 131.976 29.4649 131.774C29.5814 134.311 29.8196 135.858 28.9492 138.294C26.3158 139.956 25.5619 139.293 21.8243 139.21Z" fill="#D56E28"/>
<path d="M138.981 131.901C143.356 131.96 142.79 131.273 145.749 133.447C146.45 136.095 146.515 134.955 145.121 137.824C142.404 139.703 143.562 139.409 140.659 139.421C137.802 137.083 138.043 136.806 138.372 132.956L138.981 131.901Z" fill="#D56E28"/>
<path d="M7.12914 44.6146C9.75824 44.5358 10.8599 44.5555 13.4642 44.892C15.4756 47.5176 14.8451 47.9998 15.1235 51.9442C12.6863 51.9074 11.517 51.8055 9.10804 51.4295C6.96124 48.9966 7.58317 48.5247 7.12914 44.6146Z" fill="#E77C16"/>
<path d="M131.177 37.2635C131.271 33.4021 130.603 32.9328 132.521 30.4682C134.836 30.1137 136.047 29.9929 138.388 29.945C138.346 33.7635 138.96 33.9536 137.195 36.6666C134.67 37.3765 133.746 37.2918 131.177 37.2635Z" fill="#E77C16"/>
<path d="M130.721 124.354C126.746 124.426 127.285 125.024 124.47 123.139C123.627 120.648 123.635 121.727 124.631 119.046C126.949 117.08 125.881 117.499 128.649 117.173C131.796 119.331 131.443 119.958 131.288 124.023L130.721 124.354Z" fill="#D56E28"/>
<path d="M29.4649 131.774C29.2302 129.277 28.9903 128.117 29.6585 125.631C32.1763 124.009 32.4598 124.552 35.9421 124.434L35.8093 128.567L36.0449 130.627C33.9256 132.075 32.1146 131.755 29.4649 131.774Z" fill="#E77C16"/>
<path d="M153.173 44.576C155.586 44.5666 156.637 44.6437 159.025 44.9991C160.855 47.4817 160.271 47.879 160.496 51.5375C158.032 51.7944 156.937 52.0145 154.443 51.4998C152.682 48.9889 153.288 48.2421 153.173 44.576Z" fill="#E77C16"/>
<path d="M43.1338 37.7354C44.0102 40.0955 43.7832 41.631 42.6601 43.6768C39.6909 44.8004 40.9151 44.7773 38.035 43.9123C35.6209 41.339 36.3559 42.0112 36.1734 37.6172C38.692 37.7825 40.5989 37.9914 43.1338 37.7354Z" fill="#D56E28"/>
</svg>
