<svg width="168" height="173" viewBox="0 0 168 173" fill="none" xmlns="http://www.w3.org/2000/svg">
<path d="M30.6466 0.0344427L147.486 0.0582185L147.472 4.81091L152.573 4.96648L152.809 10.0488L157.692 10.0951C158.083 12.7099 157.946 13.4629 160.048 15.0948L161.894 15.2445C162.879 16.9738 161.856 18.7038 163.158 20.17C164.752 20.2318 166.251 19.9348 167.495 20.9777C168.437 31.1814 167.774 41.9785 167.762 52.2458L167.691 148.252C167.688 153.944 168.458 160.834 167.342 166.381C166.047 167.135 164.838 166.993 163.393 166.963C160.289 170.087 165.716 172.29 157.185 172.314C129.678 172.13 102.17 172.094 74.663 172.201C62 172.213 43.8441 173.365 31.8681 171.922C30.5297 170.093 31.9126 168.519 30.3873 166.898L26.7323 166.838C25.296 165.087 26.6404 164.338 26.0109 162.827C24.7847 159.88 21.1545 165.734 20.6805 156.969L21.078 156.803L20.9054 156.201C20.1775 154.817 20.2896 153.301 20.2457 151.772C20.9748 151.232 21.4043 150.377 21.4019 149.47C21.3996 148.562 20.9665 147.709 20.2344 147.173C19.43 146.584 18.3751 146.458 17.4544 146.842C16.5337 147.225 15.8799 148.063 15.7316 149.051C15.543 148.36 15.4296 147.644 15.292 146.94C16.3456 145.406 15.9992 143.762 15.874 141.993L16.2032 141.876C15.8651 140.395 15.9078 138.678 15.8022 137.154L9.87204 137.158L5.74953 137.07C5.70147 138.791 6.01234 139.876 4.85075 141.216C3.42635 141.344 2.00372 141.463 0.585842 141.653C0.568637 136.978 -1.0529 126.294 1.17495 122.446C1.79074 121.383 3.39727 121.449 4.52683 121.265L5.44044 121.176C5.64689 119.898 5.83733 118.617 6.01174 117.334C7.48183 116.195 8.70096 116.425 10.5116 116.313L10.8088 115.736C11.4768 106.955 10.9286 97.6865 10.9203 88.8658L10.8325 35.5582C10.8218 27.3914 10.3769 18.9562 11.1042 10.8238C12.4011 9.65922 14.1411 9.91163 15.8526 9.77504C15.7725 7.99761 15.6972 7.44945 16.1208 5.73437C17.7552 4.61434 18.4908 4.98015 20.766 4.89641C20.6147 3.5038 20.696 1.45202 20.7072 1.78162e-05L30.6466 0.0344427Z" fill="#346EB4"/>
<path d="M25.9735 131.268L25.8347 131.856L26.0335 136.299L25.5256 136.617L21.1854 136.747L21.027 132.286L25.9735 131.268Z" fill="#5B98CA"/>
<path d="M31.1497 30.3762C32.7497 30.4534 34.0418 30.5727 35.5682 29.9712C35.5742 28.1017 35.6317 26.8855 36.8841 25.4513L40.472 25.4144C42.0732 24.1055 40.8511 22.3465 42.0792 20.5982C50.3218 19.5144 59.2889 20.2615 67.6259 20.2656L117.096 20.2834C117.208 22.1161 116.983 23.5788 118.08 25.0926L118.417 25.0819C119.435 25.0575 120.212 25.1336 121.195 25.3967C122.275 27.1361 121.427 28.904 122.797 30.2675L126.162 30.3566C127.547 31.96 126.157 32.9785 126.755 34.5255C127.627 36.778 130.908 34.7963 131.701 36.588C133.306 40.2112 132.053 73.9717 132.059 80.8095L132.132 85.7522L132.16 100.814C130.529 100.816 128.943 101.058 127.33 101.275L127.209 101.913C127.069 103.1 127.187 104.796 126.214 105.562C124.965 106.546 122.843 106.51 122.45 108.244C122.238 109.182 122.299 110.36 122.269 111.324C122.136 113.192 122.412 114.823 121.165 116.267C119.84 116.412 118.547 116.51 117.214 116.519C114.542 116.45 109.737 115.739 107.745 117.801C105.412 120.216 108.616 120.946 103.022 121.325C98.7788 121.612 94.5139 121.109 90.2982 121.714C82.4786 121.818 74.6577 121.793 66.8386 121.638L66.695 126.516L61.5082 126.525C56.9526 126.627 45.0063 128.181 41.429 125.843L41.2795 122.268C40.0769 121.268 38.6318 121.622 37.097 121.617C36.1128 120.473 36.4889 118.713 36.4806 117.218C35.2508 115.981 33.6087 116.264 31.9037 116.131C31.6658 115.868 31.3407 115.665 31.19 115.344C29.8237 112.443 30.9681 48.138 31.2974 40.1488C31.4671 36.8261 31.5501 33.6941 31.1497 30.3762Z" fill="#4388CD"/>
<path d="M127.237 85.7623L132.132 85.7522L132.16 100.814C130.529 100.816 128.943 101.058 127.33 101.275C127.092 96.1318 127.251 90.9147 127.237 85.7623Z" fill="#71B5E4"/>
<path d="M117.214 116.519C117.135 114.935 117.032 113.634 117.555 112.103C119.12 111.086 120.441 111.356 122.269 111.324C122.136 113.192 122.412 114.823 121.165 116.267C119.84 116.412 118.547 116.51 117.214 116.519Z" fill="#64A0D2"/>
<path d="M61.5082 126.525C61.4442 125.073 61.424 123.83 61.8108 122.412C63.5633 121.347 64.8133 121.631 66.8386 121.638L66.695 126.516L61.5082 126.525Z" fill="#64A0D2"/>
<path d="M127.237 85.7623C127.2 84.4695 127.285 83.2099 127.384 81.9212C128.87 80.5832 130.098 80.9074 132.059 80.8095L132.132 85.7522L127.237 85.7623Z" fill="#5B98CA"/>
<path d="M51.1625 30.2977C51.2865 28.6955 51.0836 26.9258 52.0613 25.6359C59.191 25.0444 113.277 24.5937 116.715 25.7202C117.434 26.7601 117.273 27.0458 117.206 28.2745C115.968 29.8726 114.956 30.4034 112.919 30.641C105.284 31.5306 82.3113 28.411 77.3089 30.7841C76.9388 32.3965 76.8723 33.9381 76.8183 35.5814C74.0555 35.5808 69.5616 36.3747 67.1186 35.0195C66.0087 33.3342 66.2187 32.286 66.1576 30.2954C64.3659 30.388 63.5105 30.1107 62.2184 31.4475L61.841 35.6787C61.7509 34.0308 61.8689 32.3686 60.8533 30.9944C58.2981 29.426 54.1448 30.1926 51.1625 30.2977Z" fill="#64A0D2"/>
<path d="M66.1576 30.2954C68.9945 30.29 73.2867 29.578 75.6864 31.0063C76.7388 32.3407 76.6795 33.9464 76.8183 35.5814C74.0555 35.5808 69.5616 36.3747 67.1186 35.0195C66.0087 33.3342 66.2187 32.286 66.1576 30.2954Z" fill="#83C9F1"/>
<path d="M41.3002 35.4543L43.3215 34.8937C42.6885 33.6573 41.7511 32.5533 41.741 31.1161C43.0557 30.0686 44.7055 30.2586 46.315 30.2176L51.1625 30.2977C54.1448 30.1926 58.2981 29.426 60.8533 30.9944C61.8689 32.3686 61.7509 34.0308 61.841 35.6787C59.9195 35.6306 58.6446 35.3486 56.9271 36.2566C56.8447 38.1196 56.9621 38.6582 55.7371 40.1541C54.4473 40.22 53.16 40.3246 51.8774 40.4689C50.8504 42.295 52.0097 43.9377 50.5508 45.3736C48.8251 45.4021 47.441 45.0321 46.1222 46.2151C46.1092 47.7194 46.5244 49.6821 45.2074 50.7118C44.8182 51.0159 44.2558 51.2048 43.7967 51.3817C42.6155 50.8657 42.4458 50.8247 41.9125 49.5639C40.354 45.8808 41.2184 39.5033 41.3002 35.4543Z" fill="#83C9F1"/>
<path d="M41.3002 35.4543L43.3215 34.8937C42.6885 33.6573 41.7511 32.5533 41.741 31.1161C43.0557 30.0686 44.7055 30.2586 46.315 30.2176C46.2563 32.1388 46.5695 33.7713 45.4305 35.3599C43.9794 35.6616 42.7685 35.6111 41.3002 35.4543Z" fill="#5B98CA"/>
<path d="M36.0873 55.7246C37.701 55.6605 39.0014 55.5026 40.4845 56.2686C42.1444 58.7593 41.3566 62.9419 41.2385 65.8987C39.6302 65.9564 38.2663 66.16 36.8396 65.2787C35.2674 62.8053 36.0054 58.6494 36.0873 55.7246Z" fill="#83C9F1"/>
<path d="M152.573 4.96648L152.809 10.0488L157.692 10.0951C158.083 12.7099 157.946 13.4629 160.048 15.0948L161.894 15.2445C162.879 16.9738 161.856 18.7038 163.158 20.17C164.752 20.2318 166.251 19.9348 167.495 20.9777C168.437 31.1814 167.774 41.9785 167.762 52.2458L167.691 148.252C167.688 153.944 168.458 160.834 167.342 166.381C166.047 167.135 164.838 166.993 163.393 166.963C160.289 170.087 165.716 172.29 157.185 172.314C129.678 172.13 102.17 172.094 74.663 172.201C62 172.213 43.8441 173.365 31.8681 171.922C30.5297 170.093 31.9126 168.519 30.3873 166.898L26.7323 166.838C25.296 165.087 26.6404 164.338 26.0109 162.827C24.7847 159.88 21.1545 165.734 20.6805 156.969L21.078 156.803C51.3891 156.985 81.7008 156.999 112.012 156.844C112.041 158.418 111.915 160.171 112.208 161.713C114.173 161.381 115.996 161.498 117.92 160.795L118.279 161.822C122.709 162.58 127.591 162.206 132.092 162.178L137.391 162.156L137.454 157.274L137.476 152.187C140.721 151.753 144.221 151.991 147.502 151.975C147.432 150.128 147.563 148.533 147.895 146.718L147.584 146.597L147.492 141.915L147.415 136.696C147.346 131.523 147.31 126.35 147.309 121.177L147.09 121.274C145.356 121.21 144.064 121.45 142.607 120.443C141.506 107.605 142.217 94.2421 142.204 81.3338C142.192 67.811 141.508 53.8712 142.416 40.397L142.546 35.5689C142.468 32.1684 142.373 28.8072 142.665 25.4127C142.832 27.1972 142.607 28.7603 143.825 30.1214C145.075 30.204 146.327 30.2663 147.579 30.3085L147.609 21.6755C147.427 19.5637 147.544 17.3581 147.544 15.235C147.964 14.6595 148.485 14.0081 148.741 13.3412C149.297 11.8934 148.967 11.2597 148.266 10.05L152.169 10.0553C152.163 8.36521 152.41 6.6483 152.573 4.96648Z" fill="#A4A1A6"/>
<path d="M148.266 10.05L152.169 10.0553C152.3 15.5426 152.287 21.0323 152.131 26.519C152.651 50.1803 152.29 73.9135 152.295 97.585C152.298 110.13 153.362 123.711 152.122 136.142C150.641 136.938 149.05 136.732 147.415 136.696C147.346 131.523 147.31 126.35 147.309 121.177L147.09 121.274C145.356 121.21 144.064 121.45 142.607 120.443C141.506 107.605 142.217 94.2421 142.204 81.3338C142.192 67.811 141.508 53.8712 142.416 40.397L142.546 35.5689C142.468 32.1684 142.373 28.8072 142.665 25.4127C142.832 27.1972 142.607 28.7603 143.825 30.1214C145.075 30.204 146.327 30.2663 147.579 30.3085L147.609 21.6755C147.427 19.5637 147.544 17.3581 147.544 15.235C147.964 14.6595 148.485 14.0081 148.741 13.3412C149.297 11.8934 148.967 11.2597 148.266 10.05Z" fill="#64A0D2"/>
<path d="M142.416 40.397L147.468 40.5028C147.487 67.3692 147.965 94.3211 147.309 121.177L147.09 121.274C145.356 121.21 144.064 121.45 142.607 120.443C141.506 107.605 142.217 94.2421 142.204 81.3338C142.192 67.811 141.508 53.8712 142.416 40.397Z" fill="#294875"/>
<path d="M148.266 10.05L152.169 10.0553C152.3 15.5426 152.287 21.0323 152.131 26.519C150.624 30.5906 152.544 35.3991 151.106 39.4356L149.634 39.8032C147.276 37.5625 148.482 25.9412 147.732 22.2498L147.609 21.6755C147.427 19.5637 147.544 17.3581 147.544 15.235C147.964 14.6595 148.485 14.0081 148.741 13.3412C149.297 11.8934 148.967 11.2597 148.266 10.05Z" fill="#71B5E4"/>
<path d="M142.665 25.4127C142.832 27.1972 142.607 28.7603 143.825 30.1214C145.075 30.204 146.327 30.2663 147.579 30.3085L147.468 40.5028L142.416 40.397L142.546 35.5689C142.468 32.1684 142.373 28.8072 142.665 25.4127Z" fill="#4A79AC"/>
<path d="M152.573 4.96648L152.809 10.0488L157.692 10.0951C156.997 21.8827 157.634 34.0296 157.637 45.857L157.65 115.727C157.665 122.531 158.906 141.324 157.162 146.55C155.682 146.904 154.306 147.066 152.787 147.135C152.752 148.751 152.819 150.447 152.579 152.045L147.502 151.975C147.432 150.128 147.563 148.533 147.895 146.718L147.584 146.597L147.492 141.915L147.415 136.696C149.05 136.732 150.641 136.938 152.122 136.142C153.362 123.711 152.298 110.13 152.295 97.585C152.29 73.9135 152.651 50.1803 152.131 26.519C152.287 21.0323 152.3 15.5426 152.169 10.0553C152.163 8.36521 152.41 6.6483 152.573 4.96648Z" fill="#294875"/>
<path d="M152.573 4.96648L152.809 10.0488L152.9 107.732C152.94 115.257 152.9 122.782 152.777 130.306C152.666 135.878 152.055 141.599 152.787 147.135C152.752 148.751 152.819 150.447 152.579 152.045L147.502 151.975C147.432 150.128 147.563 148.533 147.895 146.718L147.584 146.597L147.492 141.915L147.415 136.696C149.05 136.732 150.641 136.938 152.122 136.142C153.362 123.711 152.298 110.13 152.295 97.585C152.29 73.9135 152.651 50.1803 152.131 26.519C152.287 21.0323 152.3 15.5426 152.169 10.0553C152.163 8.36521 152.41 6.6483 152.573 4.96648Z" fill="#4A79AC"/>
<path d="M147.895 146.718C149.571 146.725 150.748 146.44 152.163 147.408C152.424 148.963 152.516 150.476 152.579 152.045L147.502 151.975C147.432 150.128 147.563 148.533 147.895 146.718Z" fill="#244171"/>
<path d="M112.208 161.713C114.173 161.381 115.996 161.498 117.92 160.795L118.279 161.822C122.709 162.58 127.591 162.206 132.092 162.178L137.391 162.156C137.409 163.596 137.282 164.968 137.125 166.399C136.946 166.488 136.629 166.66 136.416 166.726C133.428 167.616 119.721 167.563 117.402 166.144C117.348 165.158 117.197 164.243 117 163.274C115.436 161.858 114.266 162.003 112.208 161.713Z" fill="#294875"/>
<path d="M137.476 152.187C140.721 151.753 144.221 151.991 147.502 151.975C147.477 153.623 147.787 155.198 146.83 156.565C144.826 156.647 144.358 156.76 142.642 157.787C142.04 159.062 142.026 159.815 142.148 161.209C140.724 162.443 139.222 162.205 137.391 162.156L137.454 157.274L137.476 152.187Z" fill="#294875"/>
<path d="M30.6466 0.0344427L147.486 0.0582185L147.472 4.81091L152.573 4.96648C152.41 6.6483 152.163 8.36521 152.169 10.0553L148.266 10.05C148.967 11.2597 149.297 11.8934 148.741 13.3412C148.485 14.0081 147.964 14.6595 147.544 15.235C147.544 17.3581 147.427 19.5637 147.609 21.6755L147.579 30.3085C146.327 30.2663 145.075 30.204 143.825 30.1214C142.607 28.7603 142.832 27.1972 142.665 25.4127C142.373 28.8072 142.468 32.1684 142.546 35.5689C140.74 35.7186 139.042 36.0975 137.454 35.0534C137.28 33.9037 137.289 32.8282 137.323 31.6678C135.935 30.0959 134.362 30.6215 132.361 30.1832C131.826 28.8327 132.004 27.5381 132.084 26.1199L131.208 25.3538C130.235 25.3586 128.59 25.5498 127.769 24.9744C127.153 24.5426 127.212 21.7533 126.975 20.7538C124.379 19.5631 119.97 20.2264 117.096 20.2834L67.6259 20.2656C59.2889 20.2615 50.3218 19.5144 42.0792 20.5982C40.8511 22.3465 42.0732 24.1055 40.472 25.4144L36.8841 25.4513C35.6317 26.8855 35.5742 28.1017 35.5682 29.9712C34.0418 30.5727 32.7497 30.4534 31.1497 30.3762C31.5501 33.6941 31.4671 36.8261 31.2974 40.1488L25.7807 40.4552C25.9569 58.3406 25.9955 76.2266 25.8964 94.1126C25.8887 102.963 26.7252 112.733 25.6941 121.488L25.385 121.655C26.2269 124.691 25.9593 128.133 25.9735 131.268L21.027 132.286L21.1854 136.747L15.8532 136.758L15.8022 137.154L9.87204 137.158L5.74953 137.07C5.70147 138.791 6.01234 139.876 4.85075 141.216C3.42635 141.344 2.00372 141.463 0.585842 141.653C0.568637 136.978 -1.0529 126.294 1.17495 122.446C1.79074 121.383 3.39727 121.449 4.52683 121.265L5.44044 121.176C5.64689 119.898 5.83733 118.617 6.01174 117.334C7.48183 116.195 8.70096 116.425 10.5116 116.313L10.8088 115.736C11.4768 106.955 10.9286 97.6865 10.9203 88.8658L10.8325 35.5582C10.8218 27.3914 10.3769 18.9562 11.1042 10.8238C12.4011 9.65922 14.1411 9.91163 15.8526 9.77504C15.7725 7.99761 15.6972 7.44945 16.1208 5.73437C17.7552 4.61434 18.4908 4.98015 20.766 4.89641C20.6147 3.5038 20.696 1.45202 20.7072 1.78162e-05L30.6466 0.0344427Z" fill="#83C9F1"/>
<path d="M21.1106 30.6856C20.9588 27.0832 19.8897 20.1932 21.2756 17.0017C22.2159 14.8365 25.3293 15.8366 25.8757 14.1352C26.3271 12.7277 25.595 11.5376 26.7252 10.2466C50.9204 9.09921 75.598 10.0441 99.8419 10.0102C109.892 9.99656 131.915 8.92343 140.598 10.3238C142.7 10.6629 142.132 12.9279 143.314 14.3145C144.17 15.3182 146.284 15.1263 147.544 15.235C147.544 17.3581 147.427 19.5637 147.609 21.6755L147.579 30.3085C146.327 30.2663 145.075 30.204 143.825 30.1214C142.607 28.7603 142.832 27.1972 142.665 25.4127C142.373 28.8072 142.468 32.1684 142.546 35.5689C140.74 35.7186 139.042 36.0975 137.454 35.0534C137.28 33.9037 137.289 32.8282 137.323 31.6678C135.935 30.0959 134.362 30.6215 132.361 30.1832C131.826 28.8327 132.004 27.5381 132.084 26.1199L131.208 25.3538C130.235 25.3586 128.59 25.5498 127.769 24.9744C127.153 24.5426 127.212 21.7533 126.975 20.7538C124.379 19.5631 119.97 20.2264 117.096 20.2834L67.6259 20.2656C59.2889 20.2615 50.3218 19.5144 42.0792 20.5982C40.8511 22.3465 42.0732 24.1055 40.472 25.4144L36.8841 25.4513C35.6317 26.8855 35.5742 28.1017 35.5682 29.9712C34.0418 30.5727 32.7497 30.4534 31.1497 30.3762C31.5501 33.6941 31.4671 36.8261 31.2974 40.1488L25.7807 40.4552L21.1492 40.0473L21.2156 35.7435C21.2406 34.3099 21.0774 32.8294 21.0003 31.3946L21.1106 30.6856Z" fill="#5B98CA"/>
<path d="M25.7843 30.195C25.7594 28.3041 25.5339 27.0006 26.8231 25.5445C27.8749 25.5914 28.8977 25.589 29.9489 25.5272C31.5264 23.7023 30.4182 22.4338 31.3407 20.3939C32.7384 20.0572 34.0258 20.0803 35.4496 20.1225L36.0743 19.4104C36.0695 18.0689 35.9076 16.8248 36.7387 15.6899C42.2755 14.5135 129.246 14.9292 131.172 15.7059C131.256 16.6555 131.345 17.8723 131.855 18.7055C132.996 20.5691 134.011 19.9289 135.906 20.2751C137.164 20.5043 137.137 20.676 137.83 21.7075C137.592 22.9024 137.39 23.7047 137.818 24.8693C139.483 25.7773 140.861 25.5718 142.665 25.4127C142.373 28.8072 142.468 32.1684 142.546 35.5689C140.74 35.7186 139.042 36.0975 137.454 35.0534C137.28 33.9037 137.289 32.8282 137.323 31.6678C135.935 30.0959 134.362 30.6215 132.361 30.1832C131.826 28.8327 132.004 27.5381 132.084 26.1199L131.208 25.3538C130.235 25.3586 128.59 25.5498 127.769 24.9744C127.153 24.5426 127.212 21.7533 126.975 20.7538C124.379 19.5631 119.97 20.2264 117.096 20.2834L67.6259 20.2656C59.2889 20.2615 50.3218 19.5144 42.0792 20.5982C40.8511 22.3465 42.0732 24.1055 40.472 25.4144L36.8841 25.4513C35.6317 26.8855 35.5742 28.1017 35.5682 29.9712C34.0418 30.5727 32.7497 30.4534 31.1497 30.3762C31.5501 33.6941 31.4671 36.8261 31.2974 40.1488L25.7807 40.4552L21.1492 40.0473L21.2156 35.7435C21.2406 34.3099 21.0774 32.8294 21.0003 31.3946L21.1106 30.6856C22.6056 30.3186 24.2478 30.3144 25.7843 30.195Z" fill="#274D84"/>
<path d="M31.1497 30.3762C31.5501 33.6941 31.4671 36.8261 31.2974 40.1488L25.7807 40.4552L21.1492 40.0473L21.2156 35.7435L25.7973 35.5125C27.1328 35.4733 28.4403 35.3397 29.7668 35.1936C31.0696 33.7594 30.9064 32.2593 31.1497 30.3762Z" fill="#4A79AC"/>
<path d="M21.2156 35.7435L25.7973 35.5125L25.7807 40.4552L21.1492 40.0473L21.2156 35.7435Z" fill="#274D84"/>
<path d="M25.7843 30.195C25.8027 31.9552 25.8934 33.757 25.7973 35.5125L21.2156 35.7435C21.2406 34.3099 21.0774 32.8294 21.0003 31.3946L21.1106 30.6856C22.6056 30.3186 24.2478 30.3144 25.7843 30.195Z" fill="#4A79AC"/>
<path d="M15.8526 9.77504L15.8983 10.0227L16.2638 9.98049C16.8446 34.5094 16.4133 59.121 16.3955 83.66C16.3895 91.5311 15.8242 99.5632 16.1421 107.412C16.1997 108.819 16.227 110.298 17.1317 111.39C18.4618 111.453 19.3967 111.721 20.5554 110.977C21.4037 92.2503 20.6936 73.0673 20.6087 54.3065C20.5761 47.1107 19.6518 38.3916 21.0003 31.3946C21.0774 32.8294 21.2406 34.3099 21.2156 35.7435L21.1492 40.0473L25.7807 40.4552C25.9569 58.3406 25.9955 76.2266 25.8964 94.1126C25.8887 102.963 26.7252 112.733 25.6941 121.488L25.385 121.655C26.2269 124.691 25.9593 128.133 25.9735 131.268L21.027 132.286L21.1854 136.747L15.8532 136.758L15.8022 137.154L9.87204 137.158L5.74953 137.07C5.70147 138.791 6.01234 139.876 4.85075 141.216C3.42635 141.344 2.00372 141.463 0.585842 141.653C0.568637 136.978 -1.0529 126.294 1.17495 122.446C1.79074 121.383 3.39727 121.449 4.52683 121.265L5.44044 121.176C5.64689 119.898 5.83733 118.617 6.01174 117.334C7.48183 116.195 8.70096 116.425 10.5116 116.313L10.8088 115.736C11.4768 106.955 10.9286 97.6865 10.9203 88.8658L10.8325 35.5582C10.8218 27.3914 10.3769 18.9562 11.1042 10.8238C12.4011 9.65922 14.1411 9.91163 15.8526 9.77504Z" fill="#64A0D2"/>
<path d="M15.8526 9.77504L15.8983 10.0227C15.5863 36.0553 15.8034 62.1134 15.7963 88.149C15.7945 93.8786 16.7508 111.278 15.4273 116.07C14.1838 116.623 12.7434 116.559 11.4483 116.119C11.1297 116.011 11.0449 115.92 10.8088 115.736C11.4768 106.955 10.9286 97.6865 10.9203 88.8658L10.8325 35.5582C10.8218 27.3914 10.3769 18.9562 11.1042 10.8238C12.4011 9.65922 14.1411 9.91163 15.8526 9.77504Z" fill="#294875"/>
<path d="M21.1492 40.0473L25.7807 40.4552C25.9569 58.3406 25.9955 76.2266 25.8964 94.1126C25.8887 102.963 26.7252 112.733 25.6941 121.488L25.385 121.655L21.1747 121.821C20.2439 113.552 21.1367 104.306 21.1462 95.9174L21.1492 40.0473Z" fill="#294875"/>
<path d="M5.44044 121.176C7.15079 121.47 8.73715 121.703 10.4795 121.677C10.5163 123.382 10.4748 125.131 10.683 126.824C10.8503 128.611 10.6397 129.782 11.8589 131.164L15.8876 131.569L15.8532 136.758L15.8022 137.154L9.87204 137.158L5.74953 137.07C5.70147 138.791 6.01234 139.876 4.85075 141.216C3.42635 141.344 2.00372 141.463 0.585842 141.653C0.568637 136.978 -1.0529 126.294 1.17495 122.446C1.79074 121.383 3.39727 121.449 4.52683 121.265L5.44044 121.176Z" fill="#5B98CA"/>
<path d="M0.585842 141.653C0.568637 136.978 -1.0529 126.294 1.17495 122.446C1.79074 121.383 3.39727 121.449 4.52683 121.265C6.83221 123.779 5.79521 133.35 5.74953 137.07C5.70147 138.791 6.01234 139.876 4.85075 141.216C3.42635 141.344 2.00372 141.463 0.585842 141.653Z" fill="#294875"/>
<path d="M9.87204 137.158C10.3324 135.707 10.5537 134.295 10.7595 132.795C12.2106 131.615 14.0509 131.776 15.8876 131.569L15.8532 136.758L15.8022 137.154L9.87204 137.158Z" fill="#4388CD"/>
<path d="M21.1747 121.821L25.385 121.655C26.2269 124.691 25.9593 128.133 25.9735 131.268L21.027 132.286L21.1854 136.747L15.8532 136.758L15.8876 131.569L11.8589 131.164C10.6397 129.782 10.8503 128.611 10.683 126.824C10.7601 125.606 10.8474 124.389 10.9441 123.172C11.2804 122.751 11.6429 122.357 12.105 122.068C14.2995 120.696 18.6213 121.757 21.0501 122.244L21.1747 121.821Z" fill="#83C9F1"/>
<path d="M21.1747 121.821L25.385 121.655C26.2269 124.691 25.9593 128.133 25.9735 131.268L21.027 132.286L21.0501 122.244L21.1747 121.821Z" fill="#4388CD"/>
<path d="M10.5116 116.313L10.4795 121.677C8.73715 121.703 7.15079 121.47 5.44044 121.176C5.64689 119.898 5.83733 118.617 6.01174 117.334C7.48183 116.195 8.70096 116.425 10.5116 116.313Z" fill="#294875"/>
<path d="M30.6466 0.0344427L147.486 0.0582185L147.472 4.81091C117.928 5.79078 87.4755 4.31088 57.8259 4.92256C46.3156 5.15951 33.2189 5.28301 21.8125 4.74556C20.7648 3.37552 20.9427 1.96333 20.7072 1.78162e-05L30.6466 0.0344427Z" fill="#294875"/>
<path d="M20.766 4.89641C20.9594 7.61869 21.4565 7.84084 20.2563 9.66697C18.4962 10.1047 18.0868 10.0624 16.2638 9.98049L15.8983 10.0227L15.8526 9.77504C15.7725 7.99761 15.6972 7.44945 16.1208 5.73437C17.7552 4.61434 18.4908 4.98015 20.766 4.89641Z" fill="#294875"/>
<path d="M148.266 10.05C147.583 8.70784 147.321 7.62703 147.582 6.15068C149.325 4.99324 150.511 5.12623 152.573 4.96648C152.41 6.6483 152.163 8.36521 152.169 10.0553L148.266 10.05Z" fill="#244171"/>
<path d="M21.0027 146.679C49.7197 147.171 78.4866 146.13 107.194 146.873C108.756 147.1 110.582 146.939 111.62 148.234C113.042 150.008 112.526 154.578 112.67 156.863L112.208 161.713C111.915 160.171 112.041 158.418 112.012 156.844C81.7008 156.999 51.3891 156.985 21.078 156.803L20.9054 156.201C20.1775 154.817 20.2896 153.301 20.2457 151.772C20.9748 151.232 21.4043 150.377 21.4019 149.47C21.3996 148.562 20.9665 147.709 20.2344 147.173L21.0027 146.679Z" fill="#3C6497"/>
<path d="M20.9054 156.201C21.0406 154.886 20.8917 153.051 21.7763 152.076C37.7247 151.955 53.6737 151.943 69.6228 152.041C83.5672 152.045 97.5585 151.791 111.496 152.261C112.314 153.664 112.062 155.271 112.012 156.844C81.7008 156.999 51.3891 156.985 21.078 156.803L20.9054 156.201Z" fill="#244171"/>
<path d="M31.1716 136.617C34.3236 136.674 38.21 136.304 41.2356 137.121C41.2261 138.877 40.9217 139.864 41.9878 141.327C43.7498 141.783 45.5017 141.812 47.3081 141.875C67.1981 141.89 87.1154 141.666 107.001 141.945C109.168 142.015 110.077 141.769 111.846 143.09L112.355 144.617C111.774 145.677 111.514 146.506 110.206 146.806C109.316 147.011 108.111 146.887 107.194 146.873C78.4866 146.13 49.7197 147.171 21.0027 146.679L20.2344 147.173C19.43 146.584 18.3751 146.458 17.4544 146.842C16.5337 147.225 15.8799 148.063 15.7316 149.051C15.543 148.36 15.4296 147.644 15.292 146.94C16.3456 145.406 15.9992 143.762 15.874 141.993L16.2032 141.876C15.8651 140.395 15.9078 138.678 15.8022 137.154L15.8532 136.758L21.1854 136.747L25.5256 136.617L26.0335 136.299C26.1924 137.861 26.3532 139.324 26.8219 140.833C28.1555 141.586 29.3373 141.417 30.8097 141.35L31.212 141.476L31.1716 136.617Z" fill="#64A0D2"/>
<path d="M31.1716 136.617C34.3236 136.674 38.21 136.304 41.2356 137.121C41.2261 138.877 40.9217 139.864 41.9878 141.327C43.7498 141.783 45.5017 141.812 47.3081 141.875C42.2352 142.084 36.1383 142.625 31.212 141.476L31.1716 136.617Z" fill="#3C6497"/>
<path d="M16.2032 141.876C18.0269 141.964 19.3214 141.691 20.7855 142.856C20.9161 144.137 21.0009 145.39 21.0027 146.679L20.2344 147.173C19.43 146.584 18.3751 146.458 17.4544 146.842C16.5337 147.225 15.8799 148.063 15.7316 149.051C15.543 148.36 15.4296 147.644 15.292 146.94C16.3456 145.406 15.9992 143.762 15.874 141.993L16.2032 141.876Z" fill="#4A79AC"/>
<path d="M25.5256 136.617C25.6057 136.94 25.7054 137.298 25.7594 137.632C26.072 139.563 25.8917 140.395 24.7639 141.864C23.4184 142.263 23.3638 142.23 22.0693 141.675C20.8455 139.86 21.1498 138.901 21.1854 136.747L25.5256 136.617Z" fill="#83C9F1"/>
<path d="M127.33 101.275C128.943 101.058 130.529 100.816 132.16 100.814C132.244 105.077 133.279 112.142 131.703 116.076C130.364 116.469 129.233 116.476 127.844 116.445C126.328 118.155 127.999 119.991 126.407 121.599C125.066 121.555 123.779 121.531 122.444 121.661C121.48 123.245 122.338 124.899 121.142 126.207C115.264 127.307 108.629 126.649 102.636 126.622C90.6584 126.569 78.6716 126.415 66.695 126.516L66.8386 121.638C74.6577 121.793 82.4786 121.818 90.2982 121.714C94.5139 121.109 98.7788 121.612 103.022 121.325C108.616 120.946 105.412 120.216 107.745 117.801C109.737 115.739 114.542 116.45 117.214 116.519C118.547 116.51 119.84 116.412 121.165 116.267C122.412 114.823 122.136 113.192 122.269 111.324C122.299 110.36 122.238 109.182 122.45 108.244C122.843 106.51 124.965 106.546 126.214 105.562C127.187 104.796 127.069 103.1 127.209 101.913L127.33 101.275Z" fill="#83C9F1"/>
<path d="M90.2982 121.714C94.5139 121.109 98.7788 121.612 103.022 121.325C108.616 120.946 105.412 120.216 107.745 117.801C109.737 115.739 114.542 116.45 117.214 116.519C117.187 118.362 117.443 119.847 116.512 121.471C108.405 122.272 98.4306 122.406 90.2982 121.714Z" fill="#64A0D2"/>
<path d="M122.269 111.324C122.299 110.36 122.238 109.182 122.45 108.244C122.843 106.51 124.965 106.546 126.214 105.562C127.187 104.796 127.069 103.1 127.209 101.913C127.349 104.503 128.078 108.315 126.636 110.564C125.294 111.578 123.869 111.351 122.269 111.324Z" fill="#64A0D2"/>
<path d="M41.5541 136.822C57.324 136.226 73.238 136.8 89.021 136.882C94.505 136.91 101.47 135.955 106.784 136.959C107.344 138.608 107.122 140.243 107.001 141.945C87.1154 141.666 67.1981 141.89 47.3081 141.875C45.5017 141.812 43.7498 141.783 41.9878 141.327C40.9217 139.864 41.2261 138.877 41.2356 137.121L41.5541 136.822Z" fill="#294875"/>
<path d="M147.09 121.274L147.309 121.177C147.31 126.35 147.346 131.523 147.415 136.696L147.492 141.915L147.584 146.597L147.895 146.718C147.563 148.533 147.432 150.128 147.502 151.975C144.221 151.991 140.721 151.753 137.476 152.187C137.289 150.445 137.389 148.612 137.376 146.858C135.667 146.807 134.295 146.585 132.654 146.133L132.191 145.886C133.209 144.559 132.807 138.36 132.881 136.391C133.977 137.313 135.582 137.287 136.648 136.331C137.713 135.376 137.915 133.78 137.12 132.59C138.874 132.192 140.663 131.96 142.441 131.692C142.911 128.842 142.095 126.091 142.716 123.269C144.038 121.551 145.016 121.719 147.09 121.274Z" fill="#5B98CA"/>
<path d="M147.492 141.915L147.584 146.597L147.895 146.718C147.563 148.533 147.432 150.128 147.502 151.975C144.221 151.991 140.721 151.753 137.476 152.187C137.289 150.445 137.389 148.612 137.376 146.858L137.792 146.698L142.739 146.751L142.73 141.988L147.492 141.915Z" fill="#346EB4"/>
<path d="M147.492 141.915L147.584 146.597L142.739 146.751L142.73 141.988L147.492 141.915Z" fill="#4388CD"/>
<path d="M142.73 141.988L142.739 146.751L137.792 146.698C137.365 145.303 137.535 143.541 137.518 142.081L142.73 141.988Z" fill="#83C9F1"/>
<path d="M147.415 136.696L147.492 141.915L142.73 141.988C142.661 140.45 142.572 139.078 143.02 137.578C144.517 136.571 145.635 136.772 147.415 136.696Z" fill="#83C9F1"/>
<path d="M132.654 146.133C132.667 144.906 132.805 143.751 132.985 142.538C134.49 141.546 135.762 141.972 137.518 142.081C137.535 143.541 137.365 145.303 137.792 146.698L137.376 146.858C135.667 146.807 134.295 146.585 132.654 146.133Z" fill="#64A0D2"/>
<path d="M132.191 145.886L132.654 146.133C134.295 146.585 135.667 146.807 137.376 146.858C137.389 148.612 137.289 150.445 137.476 152.187L137.454 157.274L137.391 162.156L132.092 162.178L132.263 161.63C131.526 161.651 130.79 161.667 130.053 161.68C126.939 161.734 124.427 162.131 121.995 159.783C122.002 159.273 121.851 158.924 122.241 158.559C124.907 156.066 129.206 156.873 132.569 157.033C132.549 153.314 132.423 149.597 132.191 145.886Z" fill="#4A79AC"/>
<path d="M137.454 157.274L137.391 162.156L132.092 162.178L132.263 161.63C132.426 160.419 132.6 159.208 132.786 158.001C134.216 156.842 135.657 157.253 137.454 157.274Z" fill="#3C6497"/>
<path d="M31.1716 136.617C31.2191 135.4 30.9432 133.437 31.8562 132.559C32.7698 131.679 35.3357 130.546 36.5934 130.701C38.2396 130.904 40.0325 131.819 41.1009 133.061L41.5541 136.822L41.2356 137.121C38.21 136.304 34.3236 136.674 31.1716 136.617Z" fill="#274D84"/>
<path d="M25.385 121.655L25.6941 121.488C27.5154 121.376 28.5512 121.064 30.175 121.947C31.3122 123.988 32.084 125.408 31.4054 127.814C31.0725 128.994 30.5155 129.937 29.7953 130.927C28.4124 131.468 27.4377 131.401 25.9735 131.268C25.9593 128.133 26.2269 124.691 25.385 121.655Z" fill="#274D84"/>
<path d="M137.451 121.721C139.259 121.616 140.127 121.323 141.688 122.341C143.027 124.999 141.946 128.734 142.441 131.692C140.299 131.496 139.234 131.755 137.636 130.256C136.643 127.637 137.467 124.472 137.451 121.721Z" fill="#274D84"/>
<path d="M25.8347 131.856C27.723 131.886 28.8045 131.598 30.3511 132.734C31.6047 135.046 30.9325 138.771 30.8097 141.35C29.3373 141.417 28.1555 141.586 26.8219 140.833C26.3532 139.324 26.1924 137.861 26.0335 136.299L25.8347 131.856Z" fill="#4388CD"/>
<path d="M132.881 136.391C132.02 135.667 131.66 134.507 131.959 133.422C132.258 132.337 133.163 131.527 134.273 131.347C135.383 131.169 136.495 131.654 137.12 132.59C137.915 133.78 137.713 135.376 136.648 136.331C135.582 137.287 133.977 137.313 132.881 136.391Z" fill="#274D84"/>
<path d="M112.67 156.863C114.514 156.927 115.973 156.633 117.482 157.757C117.671 158.772 117.861 159.763 117.92 160.795C115.996 161.498 114.173 161.381 112.208 161.713L112.67 156.863Z" fill="#244171"/>
<path d="M5.74953 137.07L9.87204 137.158L15.8022 137.154C15.9078 138.678 15.8651 140.395 16.2032 141.876L15.874 141.993C15.9992 143.762 16.3456 145.406 15.292 146.94C12.1199 146.729 9.08717 146.646 5.90614 146.867L5.56206 143.045C4.1335 141.554 2.60053 141.855 0.585842 141.653C2.00372 141.463 3.42635 141.344 4.85075 141.216C6.01234 139.876 5.70147 138.791 5.74953 137.07Z" fill="#4A79AC"/>
<path d="M5.90614 146.867C5.99395 145.18 5.86105 143.675 7.02561 142.336C9.37015 140.92 13.2257 141.773 15.874 141.993C15.9992 143.762 16.3456 145.406 15.292 146.94C12.1199 146.729 9.08717 146.646 5.90614 146.867Z" fill="#294875"/>
<path d="M5.90614 146.867C9.08717 146.646 12.1199 146.729 15.292 146.94C15.4296 147.644 15.543 148.36 15.7316 149.051C15.8799 148.063 16.5337 147.225 17.4544 146.842C18.3751 146.458 19.43 146.584 20.2344 147.173C20.9665 147.709 21.3996 148.562 21.4019 149.47C21.4043 150.377 20.9748 151.232 20.2457 151.772C20.2896 153.301 20.1775 154.817 20.9054 156.201L21.078 156.803L20.6805 156.969C19.1612 156.98 17.916 156.992 16.472 156.416C16.4263 154.741 16.3723 153.603 15.4753 152.115C14.1672 151.967 12.8614 151.796 11.5593 151.6C10.4973 150.071 10.5549 149.802 10.5739 147.916C9.38083 146.829 7.45216 146.981 5.90614 146.867Z" fill="#A4A1A6"/>
<path d="M20.2344 147.173C20.9665 147.709 21.3996 148.562 21.4019 149.47C21.4043 150.377 20.9748 151.232 20.2457 151.772C19.3178 152.457 18.0684 152.517 17.0807 151.921C16.0923 151.326 15.5596 150.193 15.7316 149.051C15.8799 148.063 16.5337 147.225 17.4544 146.842C18.3751 146.458 19.43 146.584 20.2344 147.173Z" fill="#244171"/>
</svg>
