<svg width="168" height="199" viewBox="0 0 168 199" fill="none" xmlns="http://www.w3.org/2000/svg">
<path d="M99.6482 22.973C99.8908 19.1002 99.263 19.481 101.312 16.9093L103.431 16.2529C107.692 18.5964 107.191 19.3303 106.976 24.1278L107.012 31.1654L106.814 32.0928L106.975 39.1741L107.021 46.7396L114.775 47.0722L122.182 47.2069C126.352 47.4307 126.689 46.7066 129.133 48.9092L129.826 54.594L130.477 54.3568L136.712 54.5914L137.701 55.846C138.726 54.5691 140.409 54.0197 141.99 54.4442C143.571 54.8696 144.751 56.1894 144.998 57.8079C145.244 59.4264 144.511 61.0368 143.127 61.9134L144.58 69.4985L145.187 69.4263L151.85 69.9542L152.309 70.4393C152.452 72.2165 152.64 75.9243 152.974 77.5063L160.295 77.4358C162.809 77.3654 165.528 76.9124 167.483 78.1974C168.395 85.4927 167.84 99.8621 167.756 107.704C149.988 107.82 132.219 107.837 114.451 107.753C114.6 137.94 114.041 168.941 114.541 198.946L54.0742 199L53.9681 107.748L0.462886 107.733C0.428104 100.757 -1.05593 83.3534 1.48047 78.398C3.75467 77.1059 5.48128 77.1389 8.05781 78.2473L8.24332 77.7167L14.9749 77.3574L15.2728 77.0355C16.3279 74.5047 16.0523 72.5268 16.0041 69.7687C18.0099 69.7919 20.8219 69.7304 22.7429 69.9372C23.0559 67.7864 23.2111 64.7955 23.3993 62.559C25.752 62.5876 28.3963 62.3379 30.7668 62.1783C31.1637 59.9917 31.0522 56.8278 31.0629 54.5307L38.4144 54.3015C38.4349 52.2746 38.5695 50.5411 38.7292 48.5204C41.1336 46.4676 42.2742 47.1783 46.16 47.0856L46.3937 39.4416L53.4794 39.0849L54.1357 39.1509C54.1643 36.6889 53.9815 35.2184 54.9589 32.9498C57.0717 32.1089 58.2106 31.8343 60.4313 31.3179L61.4364 30.6723L62.0134 31.2243L66.9497 31.8735C68.8824 33.6489 68.3499 35.6339 68.6309 38.9789C68.9359 36.927 69.0117 33.961 69.1374 31.8164L75.2162 30.9951C77.0525 28.7854 76.4505 27.4112 76.595 23.937C81.6259 23.9727 86.7014 24.0467 91.7278 24.0164C94.2901 24.0199 97.3803 23.781 99.6982 24.6326L100.293 24.1234L99.6482 22.973Z" fill="#474E5A"/>
<path d="M122.182 47.2069C126.352 47.4307 126.689 46.7066 129.133 48.9092L129.826 54.594L130.477 54.3568L136.712 54.5914L137.701 55.846C138.726 54.5691 140.409 54.0197 141.99 54.4442C143.571 54.8696 144.751 56.1894 144.998 57.8079C145.244 59.4264 144.511 61.0368 143.127 61.9134L144.58 69.4985L145.187 69.4263L151.85 69.9542L152.309 70.4393C152.452 72.2165 152.64 75.9243 152.974 77.5063L160.295 77.4358C162.809 77.3654 165.528 76.9124 167.483 78.1974C168.395 85.4927 167.84 99.8621 167.756 107.704C149.988 107.82 132.219 107.837 114.451 107.753C114.6 137.94 114.041 168.941 114.541 198.946L54.0742 199L53.9681 107.748L0.462886 107.733C0.428104 100.757 -1.05593 83.3534 1.48047 78.398C3.75467 77.1059 5.48128 77.1389 8.05781 78.2473L8.24332 77.7167L14.9749 77.3574L15.2728 77.0355C16.3279 74.5047 16.0523 72.5268 16.0041 69.7687C18.0099 69.7919 20.8219 69.7304 22.7429 69.9372L23.1888 70.8692C25.3506 68.844 28.168 69.7064 30.8819 70.0925C35.3972 70.4046 35.2037 69.6314 37.8694 72.081C40.5771 79.3817 33.9079 85.3518 45.7943 84.4779C50.0779 84.3254 56.1201 83.5978 59.7767 85.3938C61.8234 87.888 61.489 88.2848 61.1768 92.4091L61.4694 93.2972L61.4221 100.044L61.3508 168.457L61.3784 175.763L61.3115 176.546C64.8619 176.648 66.0748 176.016 68.3562 177.866L69.2427 183.797L98.8715 183.454L99.4583 168.542C99.9862 146.377 99.197 123.939 99.4235 101.758C99.4788 96.3728 99.0873 90.8583 99.9229 85.54C102.287 84.2131 105.114 84.7071 107.971 84.8213L114.081 84.7829C114.266 74.7233 114.539 64.6644 114.901 54.6092L114.775 47.0722L122.182 47.2069Z" fill="#000006"/>
<path d="M122.182 47.2069C126.352 47.4307 126.689 46.7066 129.133 48.9092L129.826 54.594L130.477 54.3568L136.712 54.5914L137.701 55.846C138.726 54.5691 140.409 54.0197 141.99 54.4442C143.571 54.8696 144.751 56.1894 144.998 57.8079C145.244 59.4264 144.511 61.0368 143.127 61.9134L144.58 69.4985L145.187 69.4263L151.85 69.9542L152.309 70.4393C152.452 72.2165 152.64 75.9243 152.974 77.5063L152.442 77.7257L152.501 84.6081L145.196 84.642C134.827 84.9336 124.452 84.9809 114.081 84.7829C114.266 74.7233 114.539 64.6644 114.901 54.6092L114.775 47.0722L122.182 47.2069Z" fill="#474E5A"/>
<path d="M129.826 54.594L130.477 54.3568L136.712 54.5914L137.701 55.846C138.726 54.5691 140.409 54.0197 141.99 54.4442C143.571 54.8696 144.751 56.1894 144.998 57.8079C145.244 59.4264 144.511 61.0368 143.127 61.9134L144.58 69.4985L137.844 69.6002L137.377 69.2997C137.342 67.3477 137.2 65.6159 137.043 63.6702C134.748 61.6504 134.047 62.3477 130.259 62.2755L130.136 61.7039L129.826 54.594Z" fill="#424753"/>
<path d="M137.701 55.846C138.726 54.5691 140.409 54.0197 141.99 54.4442C143.571 54.8696 144.751 56.1894 144.998 57.8079C145.244 59.4264 144.511 61.0368 143.127 61.9134C141.423 62.9933 139.188 62.6821 137.843 61.1786C136.498 59.6743 136.439 57.419 137.701 55.846Z" fill="#000006"/>
<path d="M145.187 69.4263L151.85 69.9542L152.309 70.4393C152.452 72.2165 152.64 75.9243 152.974 77.5063L152.442 77.7257L152.501 84.6081L145.196 84.642L145.08 77.5027C145.167 74.2051 144.986 72.7319 144.58 69.4985L145.187 69.4263Z" fill="#424753"/>
<path d="M145.08 77.5027L152.442 77.7257L152.501 84.6081L145.196 84.642L145.08 77.5027Z" fill="#8B9098"/>
<path d="M144.58 69.4985C144.986 72.7319 145.167 74.2051 145.08 77.5027C142.414 77.698 140.872 78.0814 138.467 76.965C136.992 74.0169 137.634 73.3963 137.844 69.6002L144.58 69.4985Z" fill="#8B9098"/>
<path d="M129.826 54.594L130.136 61.7039C125.884 62.1042 125.386 62.4251 122.576 60.3153C121.531 57.377 121.482 58.5987 122.759 55.7523C125.584 53.7958 125.625 54.5022 129.826 54.594Z" fill="#8B9098"/>
<path d="M114.775 47.0722L122.182 47.2069C122.275 51.1341 122.947 51.3901 121.152 54.076C118.657 54.5165 117.44 54.5584 114.901 54.6092L114.775 47.0722Z" fill="#8B9098"/>
<path d="M130.259 62.2755C134.047 62.3477 134.748 61.6504 137.043 63.6702C137.2 65.6159 137.342 67.3477 137.377 69.2997C134.755 69.561 133.654 69.7938 131.023 69.1401C129.417 66.5737 130.082 65.8255 130.259 62.2755Z" fill="#7F8B97"/>
<path d="M152.501 84.6081L152.977 84.8134C152.235 89.0269 153.196 90.0783 150.956 92.156C138.96 95.4661 112.916 87.5511 107.081 94.8829L107.007 100.055L106.913 168.521L99.4583 168.542C99.9862 146.377 99.197 123.939 99.4235 101.758C99.4788 96.3728 99.0873 90.8583 99.9229 85.54C102.287 84.2131 105.114 84.7071 107.971 84.8213L114.081 84.7829C124.452 84.9809 134.827 84.9336 145.196 84.642L152.501 84.6081Z" fill="#333944"/>
<path d="M16.0041 69.7687C18.0099 69.7919 20.8219 69.7304 22.7429 69.9372L23.1888 70.8692C25.3506 68.844 28.168 69.7064 30.8819 70.0925C35.3972 70.4046 35.2037 69.6314 37.8694 72.081C40.5771 79.3817 33.9079 85.3518 45.7943 84.4779C50.0779 84.3254 56.1201 83.5978 59.7767 85.3938C61.8234 87.888 61.489 88.2848 61.1768 92.4091C50.7155 90.9395 28.3724 92.8158 15.2543 91.8099C15.2543 88.8538 15.0402 87.6027 14.564 84.7785L9.00157 84.8124L7.97686 82.3646L8.05781 78.2473L8.24332 77.7167L14.9749 77.3574L15.2728 77.0355C16.3279 74.5047 16.0523 72.5268 16.0041 69.7687Z" fill="#333944"/>
<path d="M16.0041 69.7687C18.0099 69.7919 20.8219 69.7304 22.7429 69.9372L23.1888 70.8692L23.4574 77.4794C23.2951 81.2417 23.8802 81.6572 22.1027 84.3583C19.5155 85.0904 17.8799 84.7863 15.2481 84.5607L14.564 84.7785L9.00157 84.8124L7.97686 82.3646L8.05781 78.2473L8.24332 77.7167L14.9749 77.3574L15.2728 77.0355C16.3279 74.5047 16.0523 72.5268 16.0041 69.7687Z" fill="#8B9098"/>
<path d="M16.0041 69.7687C18.0099 69.7919 20.8219 69.7304 22.7429 69.9372L23.1888 70.8692L23.4574 77.4794L15.7064 77.5918L14.9749 77.3574L15.2728 77.0355C16.3279 74.5047 16.0523 72.5268 16.0041 69.7687Z" fill="#333944"/>
<path d="M14.9749 77.3574L15.7064 77.5918L15.2481 84.5607L14.564 84.7785L9.00157 84.8124L7.97686 82.3646L8.05781 78.2473L8.24332 77.7167L14.9749 77.3574Z" fill="#474E5A"/>
<path d="M23.1888 70.8692C25.3506 68.844 28.168 69.7064 30.8819 70.0925C30.7579 73.523 31.3037 74.5984 29.6315 77.0935C27.0702 77.7694 26.0536 77.6177 23.4574 77.4794L23.1888 70.8692Z" fill="#7F8B97"/>
<path d="M152.974 77.5063L160.295 77.4358L160.428 80.2759C160.406 86.9095 160.434 93.5432 160.514 100.177C145.136 99.9699 122.049 99.1579 107.007 100.055L107.081 94.8829C112.916 87.5511 138.96 95.4661 150.956 92.156C153.196 90.0783 152.235 89.0269 152.977 84.8134L152.501 84.6081L152.442 77.7257L152.974 77.5063Z" fill="#1C212B"/>
<path d="M152.974 77.5063L160.295 77.4358L160.428 80.2759C158.913 85.6022 158.622 84.9731 152.977 84.8134L152.501 84.6081L152.442 77.7257L152.974 77.5063Z" fill="#424753"/>
<path d="M99.4583 168.542L106.913 168.521L107.096 191.154C91.8107 190.951 76.5228 190.931 61.2366 191.093C61.2303 187.08 61.0083 180.342 61.3115 176.546C64.8619 176.648 66.0748 176.016 68.3562 177.866L69.2427 183.797L98.8715 183.454L99.4583 168.542Z" fill="#1C212B"/>
<path d="M7.97686 82.3646L9.00157 84.8124L14.564 84.7785C15.0402 87.6027 15.2543 88.8538 15.2543 91.8099C28.3724 92.8158 50.7155 90.9395 61.1768 92.4091L61.4694 93.2972L61.4221 100.044C57.9091 99.6579 46.7479 99.9942 42.7873 100.008L8.10172 99.9452L7.97686 82.3646Z" fill="#1C212B"/>
<path d="M9.00157 84.8124L14.564 84.7785C15.0402 87.6027 15.2543 88.8538 15.2543 91.8099L10.5246 91.2535C8.40383 89.001 9.12286 88.8466 9.00157 84.8124Z" fill="#262933"/>
<path d="M61.4364 30.6723L62.0134 31.2243L66.9497 31.8735C68.8824 33.6489 68.3499 35.6339 68.6309 38.9789C68.9359 36.927 69.0117 33.961 69.1374 31.8164C71.2225 32.0295 74.9576 32.0983 76.4488 33.2505C77.5761 48.4867 77.9694 172.051 75.3054 175.967C71.4027 176.985 71.5178 176.266 69.5486 178.856L69.2427 183.797L68.3562 177.866C66.0748 176.016 64.8619 176.648 61.3115 176.546L61.3784 175.763L61.3508 168.457L61.4221 100.044L61.4694 93.2972L61.1768 92.4091C61.489 88.2848 61.8234 87.888 59.7767 85.3938C56.1201 83.5978 50.0779 84.3254 45.7943 84.4779C33.9079 85.3518 40.5771 79.3817 37.8694 72.081C35.2037 69.6314 35.3972 70.4046 30.8819 70.0925C28.168 69.7064 25.3506 68.844 23.1888 70.8692L22.7429 69.9372C23.0559 67.7864 23.2111 64.7955 23.3993 62.559C25.752 62.5876 28.3963 62.3379 30.7668 62.1783C31.1637 59.9917 31.0522 56.8278 31.0629 54.5307L38.4144 54.3015C38.4349 52.2746 38.5695 50.5411 38.7292 48.5204C41.1336 46.4676 42.2742 47.1783 46.16 47.0856L46.3937 39.4416L53.4794 39.0849L54.1357 39.1509C54.1643 36.6889 53.9815 35.2184 54.9589 32.9498C57.0717 32.1089 58.2106 31.8343 60.4313 31.3179L61.4364 30.6723Z" fill="#424753"/>
<path d="M61.4221 100.044L68.7586 100.137C69.2607 121.2 69.2963 147.454 68.664 168.51L61.3508 168.457L61.4221 100.044Z" fill="#7F8B97"/>
<path d="M38.4144 54.3015L38.9103 54.5102C38.3966 58.1869 37.8891 57.9773 39.0628 61.0992C41.4404 62.3994 43.2268 61.9696 45.9915 61.8037C45.7766 69.3594 45.7105 76.9196 45.7943 84.4779C33.9079 85.3518 40.5771 79.3817 37.8694 72.081C35.2037 69.6314 35.3972 70.4046 30.8819 70.0925C28.168 69.7064 25.3506 68.844 23.1888 70.8692L22.7429 69.9372C23.0559 67.7864 23.2111 64.7955 23.3993 62.559C25.752 62.5876 28.3963 62.3379 30.7668 62.1783C31.1637 59.9917 31.0522 56.8278 31.0629 54.5307L38.4144 54.3015Z" fill="#474E5A"/>
<path d="M30.6349 62.2024C33.0937 62.1685 34.4939 62.2345 36.9393 62.494C38.8934 64.8954 38.237 65.7355 38.352 69.4611C35.7568 69.5842 34.6304 69.717 32.011 69.1758C30.2291 66.538 30.8124 65.9272 30.6349 62.2024Z" fill="#7F8B97"/>
<path d="M61.4364 30.6723L62.0134 31.2243L66.9497 31.8735C68.8824 33.6489 68.3499 35.6339 68.6309 38.9789L61.373 39.1787L54.1357 39.1509C54.1643 36.6889 53.9815 35.2184 54.9589 32.9498C57.0717 32.1089 58.2106 31.8343 60.4313 31.3179L61.4364 30.6723Z" fill="#474E5A"/>
<path d="M62.0134 31.2243L66.9497 31.8735C68.8824 33.6489 68.3499 35.6339 68.6309 38.9789L61.373 39.1787C61.233 35.5806 61.1474 34.785 62.0134 31.2243Z" fill="#8B9098"/>
<path d="M46.1752 54.4539L45.9915 61.8037C43.2268 61.9696 41.4404 62.3994 39.0628 61.0992C37.8891 57.9773 38.3966 58.1869 38.9103 54.5102L46.1752 54.4539Z" fill="#8B9098"/>
<path d="M46.1752 54.4539C46.1556 50.6114 45.5419 50.3047 47.2266 47.4708C49.7674 46.6602 51.1801 46.7307 53.7852 46.654C53.622 50.237 54.1749 51.3874 52.4215 54.0108C49.8263 54.6574 48.7964 54.5412 46.1752 54.4539Z" fill="#8B9098"/>
<path d="M61.373 39.1787C61.373 43.4903 61.977 42.7734 60.0408 46.0791C57.2752 47.3872 58.4614 47.3284 55.6164 46.3225C53.4207 43.2184 54.1349 43.697 54.1357 39.1509L61.373 39.1787Z" fill="#8B9098"/>
<path d="M61.4694 93.2972C64.9297 92.4839 64.5516 92.0436 67.5786 92.9522C69.2516 95.2476 68.8558 97.3144 68.7586 100.137L61.4221 100.044L61.4694 93.2972Z" fill="#4F5660"/>
<path d="M61.3508 168.457L68.664 168.51C68.5177 172.459 69.1634 172.656 67.2219 175.317C64.9513 175.621 63.666 175.747 61.3784 175.763L61.3508 168.457Z" fill="#4F5660"/>
<path d="M107.021 46.7396L114.775 47.0722L114.901 54.6092C114.539 64.6644 114.266 74.7233 114.081 84.7829L107.971 84.8213C106.833 72.1613 106.516 59.4406 107.021 46.7396Z" fill="#4F5660"/>
<path d="M99.6482 22.973C99.8908 19.1002 99.263 19.481 101.312 16.9093L103.431 16.2529C107.692 18.5964 107.191 19.3303 106.976 24.1278L107.012 31.1654L106.814 32.0928L105.936 31.7995C103.813 30.5849 102.092 30.9514 99.5842 31.0459L99.6982 24.6326L100.293 24.1234L99.6482 22.973Z" fill="#000006"/>
<path d="M100.293 24.1234L106.976 24.1278L107.012 31.1654L106.814 32.0928L105.936 31.7995C103.813 30.5849 102.092 30.9514 99.5842 31.0459L99.6982 24.6326L100.293 24.1234Z" fill="#424753"/>
<path d="M91.7278 24.0164C94.2901 24.0199 97.3803 23.781 99.6982 24.6326L99.5842 31.0459C96.741 31.4632 95.4593 31.9083 92.7437 30.9702C91.1348 28.0935 91.7171 27.7955 91.7278 24.0164Z" fill="#8B9098"/>
<path d="M106.975 39.1741C104.328 39.2678 102.915 39.6048 100.669 38.2699C98.8377 35.3058 99.0375 36.5551 99.5762 33.558C102.313 31.1601 101.477 31.8708 105.936 31.7995L106.814 32.0928L106.975 39.1741Z" fill="#7F8B97"/>
<path d="M76.5961 8.7232C76.6318 6.70074 76.1234 3.44592 77.6993 2.17162C81.7233 -1.08321 88.4799 -0.712263 91.6192 3.50743C91.679 5.24632 91.7869 7.13319 91.7137 8.85246C96.1676 8.95412 96.1159 8.23717 99.1829 10.3827L99.9124 12.4747C97.5143 16.8826 96.7214 16.3529 91.7628 16.5901C96.0365 16.9762 96.5136 16.2245 98.7227 18.6161C98.9029 19.5123 99.4003 22.2623 99.6482 22.973L100.293 24.1234L99.6982 24.6326C97.3803 23.781 94.2901 24.0199 91.7278 24.0164C86.7014 24.0467 81.6259 23.9727 76.595 23.937L76.638 16.706L76.3919 16.2031L76.5961 8.7232Z" fill="#474E5A"/>
<path d="M76.5961 8.7232C76.6318 6.70074 76.1234 3.44592 77.6993 2.17162C81.7233 -1.08321 88.4799 -0.712263 91.6192 3.50743C91.679 5.24632 91.7869 7.13319 91.7137 8.85246L76.5961 8.7232Z" fill="#000006"/>
<path d="M76.638 16.706C81.1641 16.1674 86.5402 14.9091 90.3956 16.9004C92.3264 19.3678 91.85 20.1329 91.7278 24.0164C86.7014 24.0467 81.6259 23.9727 76.595 23.937L76.638 16.706Z" fill="#7F8B97"/>
<path d="M91.7137 8.85246C96.1676 8.95412 96.1159 8.23717 99.1829 10.3827L99.9124 12.4747C97.5143 16.8826 96.7214 16.3529 91.7628 16.5901L91.7137 8.85246Z" fill="#000006"/>
<path d="M61.3589 24.0109C61.2251 21.2046 60.9504 19.6165 62.0456 16.9716C67.3565 17.0527 69.5567 15.4102 69.5425 9.92597L69.5362 9.47385C71.9665 8.15675 73.8662 8.54752 76.5961 8.7232L76.3919 16.2031L76.638 16.706L76.595 23.937C76.4505 27.4112 77.0525 28.7854 75.2162 30.9951L69.1374 31.8164C69.0117 33.961 68.9359 36.927 68.6309 38.9789C68.3499 35.6339 68.8824 33.6489 66.9497 31.8735L62.0134 31.2243L61.4364 30.6723L61.3589 24.0109Z" fill="#424753"/>
<path d="M61.3589 24.0109C61.2251 21.2046 60.9504 19.6165 62.0456 16.9716C67.3565 17.0527 69.5567 15.4102 69.5425 9.92597L69.5362 9.47385C71.9665 8.15675 73.8662 8.54752 76.5961 8.7232L76.3919 16.2031C72.5908 16.2726 71.7881 15.5805 69.4033 17.5771C68.2957 21.3634 68.7639 22.5458 66.1133 24.0332L61.3589 24.0109Z" fill="#000006"/>
<path d="M66.9497 31.8735C69.5495 29.8154 68.681 29.458 69.4007 25.0653C72.3536 23.371 72.6905 23.97 76.595 23.937C76.4505 27.4112 77.0525 28.7854 75.2162 30.9951L69.1374 31.8164C69.0117 33.961 68.9359 36.927 68.6309 38.9789C68.3499 35.6339 68.8824 33.6489 66.9497 31.8735Z" fill="#7F8B97"/>
<path d="M114.803 39.0752L121.924 39.4212L122.182 47.2069L114.775 47.0722L107.021 46.7396L106.975 39.1741L114.262 39.2999L114.803 39.0752Z" fill="#7F8B97"/>
<path d="M114.803 39.0752L121.924 39.4212L122.182 47.2069L114.775 47.0722C114.907 43.5954 114.83 42.7064 114.262 39.2999L114.803 39.0752Z" fill="#424753"/>
<path d="M31.0629 54.5307C29.4701 42.8178 34.18 49.7555 38.0372 46.4606C38.7801 45.8266 37.4869 41.433 40.7109 38.4412C42.8308 38.3449 43.4453 39.044 45.3351 40.2639L46.16 47.0856C42.2742 47.1783 41.1336 46.4676 38.7292 48.5204C38.5695 50.5411 38.4349 52.2746 38.4144 54.3015L31.0629 54.5307Z" fill="#000006"/>
<path d="M152.309 70.4393C155.107 69.5957 155.851 69.2531 158.803 69.6749C160.986 72.2824 160.575 73.4944 160.295 77.4358L152.974 77.5063C152.64 75.9243 152.452 72.2165 152.309 70.4393Z" fill="#000006"/>
<path d="M8.24332 77.7167C7.66005 73.8359 7.65375 72.6793 9.62204 69.9407C12.4688 68.9571 11.288 68.9108 14.0393 70.1048C16.0415 73.0868 15.3647 72.7302 15.2728 77.0355L14.9749 77.3574L8.24332 77.7167Z" fill="#000006"/>
<path d="M106.976 24.1278C111.358 24.0868 111.296 23.368 114.279 25.4252C115.496 28.1504 115.459 26.9822 114.412 29.785C111.348 31.9965 111.92 31.2973 107.446 31.3704L107.012 31.1654L106.976 24.1278Z" fill="#000006"/>
<path d="M114.623 32.1242C118.441 31.6373 118.467 31.0318 121.513 32.3543C122.714 34.8502 122.212 36.614 121.924 39.4212L114.803 39.0752L114.623 32.1242Z" fill="#000006"/>
<path d="M107.012 31.1654L107.446 31.3704C110.774 32.3665 111.224 32.3614 114.623 32.1242L114.803 39.0752L114.262 39.2999L106.975 39.1741L106.814 32.0928L107.012 31.1654Z" fill="#333944"/>
<path d="M145.187 69.4263C145.17 64.7705 144.425 65.4499 146.81 62.5393C149.801 61.6163 148.557 61.5575 151.474 62.7899C153.071 65.5373 153.165 66.7555 151.85 69.9542L145.187 69.4263Z" fill="#000006"/>
<path d="M46.3937 39.4416C46.3312 35.0784 45.6483 35.2834 47.6255 32.1605L49.8025 31.1253C52.7643 32.3193 51.7931 31.5016 53.4742 34.1964L53.4794 39.0849L46.3937 39.4416Z" fill="#000006"/>
<path d="M60.4313 31.3179L56.4108 31.212C54.0207 29.8111 54.851 30.5789 53.3937 27.8225L54.15 25.611C57.3775 23.3139 56.6776 24.0314 61.3589 24.0109L61.4364 30.6723L60.4313 31.3179Z" fill="#000006"/>
<path d="M16.0041 69.7687C15.6572 67.1345 15.3229 65.9621 16.2495 63.4028C18.9679 61.8565 19.8551 62.469 23.3993 62.559C23.2111 64.7955 23.0559 67.7864 22.7429 69.9372C20.8219 69.7304 18.0099 69.7919 16.0041 69.7687Z" fill="#000006"/>
<path d="M130.477 54.3568C130.203 49.9722 129.51 50.3332 131.474 47.3147C134.225 46.2892 133.035 46.299 135.947 47.4119C137.556 49.841 137.625 51.6397 136.712 54.5914L130.477 54.3568Z" fill="#000006"/>
<path d="M22.6688 54.4497C25.9802 54.4764 27.2386 53.9351 29.7661 55.4261C30.4644 58.1923 30.5528 59.4219 30.7668 62.1783C27.2717 61.76 25.6012 62.1882 23.253 60.2584C22.8686 57.9381 22.7081 56.7967 22.6688 54.4497Z" fill="#000006"/>
<path d="M122.845 39.2544C125.351 39.3347 126.34 39.406 128.792 39.9045C130.619 42.6992 129.986 43.0443 130.061 46.976C127.978 46.877 126.318 46.6933 124.249 46.4302C122.15 43.813 122.891 43.4732 122.845 39.2544Z" fill="#000006"/>
</svg>
