<svg width="168" height="180" viewBox="0 0 168 180" fill="none" xmlns="http://www.w3.org/2000/svg">
<path d="M21.4411 178.544C31.6955 178.579 146.53 179.932 146.53 179.932L21.4411 178.544Z" fill="#010101"/>
<path d="M10.7618 5.55324C10.6857 3.59489 10.3685 2.00592 11.3388 0.398567C14.5477 -0.247034 43.6114 0.0855931 49.2491 0.0862266L145.984 0.0919282L147.196 5.90867C148.318 5.01155 149.935 5.09644 150.956 6.1057C151.977 7.11434 152.079 8.72738 151.191 9.85639L156.886 11.0868C157.019 12.8899 157.025 14.6088 157.602 16.3105C159.327 16.766 159.809 16.6666 161.623 16.6039C163.519 19.439 161.134 19.982 163.234 21.9156L166.918 22.0322C168.706 24.0336 167.654 46.1121 167.666 51.0798C167.838 71.4128 167.888 91.747 167.812 112.081L167.704 149.077C167.717 155.044 168.529 166.941 167.406 172.104C164.559 174.063 164.413 171.679 162.422 173.733C162.428 175.392 162.587 176.741 162.01 178.279C156.797 180.513 146.53 179.932 146.53 179.932C146.53 179.932 31.6955 178.579 21.4411 178.544C21.6821 173.679 21.663 174.6 17.2936 172.537C16.0443 170.808 16.4502 170.343 16.3487 167.884L12.7404 167.877C10.6603 166.678 11.1296 166.281 10.134 163.311C8.38371 161.863 8.26947 162.361 5.40305 162.307L4.8704 157.937C3.29767 156.451 2.57469 156.839 0.0126675 156.527C0.856104 109.05 0.120491 58.5996 0 10.9347L3.85576 10.5197C5.49824 8.92823 5.00993 8.53796 5.35238 5.64384L10.7618 5.55324Z" fill="#101622"/>
<path d="M156.886 11.0868C157.019 12.8899 157.025 14.6088 157.602 16.3105C159.327 16.766 159.809 16.6666 161.623 16.6039C163.519 19.439 161.134 19.982 163.234 21.9156L166.918 22.0322C168.706 24.0336 167.654 46.1121 167.666 51.0798C167.838 71.4128 167.888 91.747 167.812 112.081L167.704 149.077C167.717 155.044 168.529 166.941 167.406 172.104C164.559 174.063 164.413 171.679 162.422 173.733C162.428 175.392 162.587 176.741 162.01 178.279C156.797 180.513 146.53 179.932 146.53 179.932C146.53 179.932 31.6955 178.579 21.4411 178.544C21.6821 173.679 21.663 174.6 17.2936 172.537C16.0443 170.808 16.4502 170.343 16.3487 167.884L12.7404 167.877C10.6603 166.678 11.1296 166.281 10.134 163.311C8.38371 161.863 8.26947 162.361 5.40305 162.307L4.8704 157.937C3.29767 156.451 2.57469 156.839 0.0126675 156.527C1.88979 156.426 2.72056 156.51 4.45817 155.727C5.94845 153.338 5.5426 149.389 5.6948 146.2L9.28415 146.384C11.4847 148.61 9.99444 148.329 11.4594 151.351C19.7669 152.11 33.674 151.764 42.4509 151.703L85.2315 151.586C101.669 151.503 129.116 152.602 144.348 151.485C146.403 150.073 145.674 149.895 146.587 146.55C148.502 145.212 148.794 145.682 151.603 145.637L151.616 59.3142C151.603 45.2244 150.912 25.9907 151.762 12.3647C152.985 11.1869 154.837 11.3548 156.886 11.0868Z" fill="#848188"/>
<path d="M5.6948 146.2L9.28415 146.384C11.4847 148.61 9.99444 148.329 11.4594 151.351C19.7669 152.11 33.674 151.764 42.4509 151.703L85.2315 151.586C101.669 151.503 129.116 152.602 144.348 151.485C146.403 150.073 145.674 149.895 146.587 146.55C148.502 145.212 148.794 145.682 151.603 145.637C151.685 149.455 151.717 153.376 151.945 157.181L151.635 157.412C151.52 159.928 151.939 160.122 150.614 161.823C148.857 162.3 148.407 162.304 146.58 162.338C143.689 166.009 150.214 167.907 138.393 167.871C128.45 167.842 118.411 167.849 108.461 167.826L48.951 167.766C38.7283 167.763 26.4446 167.446 16.3487 167.884L12.7404 167.877C10.6603 166.678 11.1296 166.281 10.134 163.311C8.38371 161.863 8.26947 162.361 5.40305 162.307L4.8704 157.937C3.29767 156.451 2.57469 156.839 0.0126675 156.527C1.88979 156.426 2.72056 156.51 4.45817 155.727C5.94845 153.338 5.5426 149.389 5.6948 146.2Z" fill="#101622"/>
<path d="M5.40305 162.307C5.58062 160.615 5.73919 158.002 6.24018 156.461C7.99047 156.461 9.09393 156.256 10.5271 157.197C11.1106 159.019 11.0217 159.663 11.0344 161.535C11.1929 161.609 11.3452 161.689 11.5037 161.758C13.6282 162.689 128.475 162.698 140.137 162.266C141.488 162.216 143.143 162.088 144.38 161.499C146.181 160.648 146.257 159.007 146.764 157.288C148.458 156.604 149.783 157.081 151.635 157.412C151.52 159.928 151.939 160.122 150.614 161.823C148.857 162.3 148.407 162.304 146.58 162.338C143.689 166.009 150.214 167.907 138.393 167.871C128.45 167.842 118.411 167.849 108.461 167.826L48.951 167.766C38.7283 167.763 26.4446 167.446 16.3487 167.884L12.7404 167.877C10.6603 166.678 11.1296 166.281 10.134 163.311C8.38371 161.863 8.26947 162.361 5.40305 162.307Z" fill="#010101"/>
<path d="M156.886 11.0868C156.283 16.9238 156.835 38.3306 156.828 45.1794L156.885 123.385C156.892 128.876 157.247 152.061 156.518 156.328C155.173 157.33 153.708 157.126 151.945 157.181C151.717 153.376 151.685 149.455 151.603 145.637L151.616 59.3142C151.603 45.2244 150.912 25.9907 151.762 12.3647C152.985 11.1869 154.837 11.3548 156.886 11.0868Z" fill="#010101"/>
<path d="M10.7618 5.55324C10.6857 3.59489 10.3685 2.00592 11.3388 0.398567C14.5477 -0.247034 43.6114 0.0855931 49.2491 0.0862266L145.984 0.0919282C145.864 1.84626 145.667 3.84578 145.642 5.58111C145.705 9.02643 146.549 13.6597 144.779 15.6744C142.217 16.1426 143.118 16.2864 140.955 15.5363C140.397 13.5729 140.683 11.2775 139.738 11.1032C135.749 10.3658 109.679 10.3721 107.681 11.2794C90.1336 10.144 58.2035 10.5774 40.6372 11.3263C39.1469 11.1698 36.978 11.1533 35.4243 11.0906C31.5877 11.1337 18.2576 10.1979 16.2219 11.9465C16.038 13.5843 16.019 13.9714 15.499 15.5186C13.8502 15.7992 13.0701 15.8277 11.396 15.8512C9.88665 18.2131 10.6857 33.9248 10.7618 37.7306L10.8252 43.4036C10.4954 57.653 10.0325 84.1056 10.673 98.0218L10.7428 102.501L10.692 108.44C10.6476 112.667 11.0408 138.961 10.0325 140.495L9.96273 145.721L5.50456 145.771L5.6948 146.2C5.5426 149.389 5.94845 153.338 4.45817 155.727C2.72056 156.51 1.88979 156.426 0.0126675 156.527C0.856104 109.05 0.120491 58.5996 0 10.9347L3.85576 10.5197C5.49824 8.92823 5.00993 8.53796 5.35238 5.64384L10.7618 5.55324Z" fill="#546974"/>
<path d="M0 10.9347C1.68053 11.0849 4.21085 11.031 5.33966 12.0682C6.06895 25.0214 5.40943 43.1058 5.39675 56.4195L5.40305 140.298L10.0325 140.495L9.96273 145.721L5.50456 145.771L5.6948 146.2C5.5426 149.389 5.94845 153.338 4.45817 155.727C2.72056 156.51 1.88979 156.426 0.0126675 156.527C0.856104 109.05 0.120491 58.5996 0 10.9347Z" fill="#010101"/>
<path d="M5.40305 140.298L10.0325 140.495L9.96273 145.721L5.50456 145.771L5.40305 140.298Z" fill="#474C54"/>
<path d="M10.7618 5.55324C10.6857 3.59489 10.3685 2.00592 11.3388 0.398567C14.5477 -0.247034 43.6114 0.0855931 49.2491 0.0862266L145.984 0.0919282C145.864 1.84626 145.667 3.84578 145.642 5.58111L10.7618 5.55324Z" fill="#010101"/>
<path d="M5.35238 5.64384L10.7618 5.55324C10.8125 8.79518 11.2881 8.40807 9.83589 10.8213L8.50417 11.4118C6.3163 10.4748 7.04564 11.0722 5.68219 9.18989L5.35238 5.64384Z" fill="#010101"/>
<path d="M10.8252 43.4036L14.0087 43.6044C18.0737 48.2516 21.7391 45.3835 27.1422 46.5701L27.3007 48.7857C30.313 48.716 30.6364 48.2491 32.9828 49.4579C34.3018 54.5308 26.0324 59.1951 23.6479 63.6662L24.0792 64.4924C29.4188 64.9067 34.2384 56.6495 38.2146 53.8472L38.6649 52.5351C41.1572 51.7679 50.4286 51.6551 52.5213 52.5199C54.8868 57.366 61.6597 54.5011 66.6442 55.6301L67.1578 55.8702C67.6081 58.9417 73.2204 63.7124 75.8014 66.3778C75.8966 69.2682 76.3596 73.3895 75.2751 75.9218C73.3536 76.9818 67.8871 82.4437 67.4749 84.7771C62.2304 85.2662 49.4583 84.9235 43.6874 84.9184L44.2836 82.3253C43.8143 81.0448 36.4644 73.9381 34.5238 71.4457L31.9618 74.369C33.8135 80.1331 41.7596 81.3401 40.1679 86.0316L38.8488 86.0373C35.1326 88.7692 36.6609 89.7189 32.9954 91.102L32.431 92.5833C29.6027 93.4506 19.7225 93.054 16.2916 93.0122C16.0189 95.938 16.52 95.7048 14.8902 97.4465C13.4887 97.6543 12.0809 97.8818 10.673 98.0218C10.0325 84.1056 10.4954 57.653 10.8252 43.4036Z" fill="#373F4B"/>
<path d="M44.2836 82.3253C47.41 81.8317 64.0251 81.3552 66.993 81.7398C67.551 83.2483 67.5383 83.1692 67.4749 84.7771C62.2304 85.2662 49.4583 84.9235 43.6874 84.9184L44.2836 82.3253Z" fill="#474C54"/>
<path d="M31.9618 74.369C23.2991 72.7794 22.6967 79.4147 17.3063 78.6227L16.9512 77.6445C20.7562 74.2169 29.4949 66.3113 34.5238 71.4457L31.9618 74.369Z" fill="#070912"/>
<path d="M16.2916 93.0122L16.6342 90.9138C18.8093 89.138 30.8076 89.0131 32.9954 91.102L32.431 92.5833C29.6027 93.4506 19.7225 93.054 16.2916 93.0122Z" fill="#4B5861"/>
<path d="M38.6649 52.5351C41.1572 51.7679 50.4286 51.6551 52.5213 52.5199C52.3628 53.4177 52.1599 53.4456 51.5004 54.1247C47.3276 54.5822 43.3514 54.98 39.1659 54.2046L38.6649 52.5351Z" fill="#474C54"/>
<path d="M66.6442 55.6301L67.1578 55.8702L66.8471 57.4307C64.3295 59.5841 56.5483 58.988 54.2336 56.3048C56.3644 55.862 63.7334 55.848 66.6442 55.6301Z" fill="#474C54"/>
<path d="M27.1422 46.5701L27.3007 48.7857C25.1128 49.9648 19.0059 49.4338 16.3931 49.2089L15.8351 48.3422L16.2599 47.5014C18.2956 46.534 24.187 46.7925 27.1422 46.5701Z" fill="#4B5861"/>
<path d="M147.196 5.90867C148.318 5.01155 149.935 5.09644 150.956 6.1057C151.977 7.11434 152.079 8.72738 151.191 9.85639L156.886 11.0868C154.837 11.3548 152.985 11.1869 151.762 12.3647C150.912 25.9907 151.603 45.2244 151.616 59.3142L151.603 145.637C148.794 145.682 148.502 145.212 146.587 146.55C145.674 149.895 146.403 150.073 144.348 151.485C129.116 152.602 101.669 151.503 85.2315 151.586L42.4509 151.703C33.674 151.764 19.7669 152.11 11.4594 151.351C9.99444 148.329 11.4847 148.61 9.28415 146.384L5.6948 146.2L5.50456 145.771L9.96273 145.721C15.9556 146.625 28.8037 146.31 32.9385 141.593L33.0209 142.832L31.0423 143.982L31.0169 145.224C33.5599 147.622 38.6776 146.033 40.8465 143.887L42.2796 143.956L40.6182 144.991C43.269 147.169 59.6938 146.111 64.0124 146.11C67.1008 146.11 66.974 144.765 68.3564 143.771L68.3184 145.33C69.9165 146.156 71.6604 146.584 73.3727 145.625C75.7254 146.426 134.436 146.705 141.082 146.03C140.404 144.646 140.429 144.509 140.258 142.935L140.213 142.516C142.446 143.407 144.24 144.655 146.035 142.752L145.838 140.272C145.902 133.026 146.587 97.9983 145.496 92.8221L144.513 92.2785C145.781 91.2528 145.382 91.6507 145.965 89.8837C145.731 87.8385 143.828 85.7173 142.528 83.9852C140.702 80.538 134.569 82.7276 135.292 72.047L135.863 70.2109L135.185 68.8969L135.14 65.3888C133.269 65.717 132.166 66.0351 130.27 65.6296C126.186 62.1253 129.401 54.5745 127.2 51.1184L126.262 51.2762L126.338 49.921C130.707 47.3443 130.333 44.1144 135.628 42.5425V41.4744C139.129 39.1574 143.08 41.8735 146.016 39.9798L146.327 37.9308L146.27 34.3576C143.568 31.5091 138.038 33.1595 132.458 32.7515L132.439 32.3675C135.692 32.3599 142.756 32.6716 145.287 31.8049L145.743 30.2692C145.927 23.3627 146.606 16.6083 146.764 9.88427C145.781 8.66719 145.978 6.88563 147.196 5.90867Z" fill="#2A303B"/>
<path d="M135.628 41.4744C138.184 40.7635 143.733 41.2038 146.479 41.468C146.187 47.5813 145.471 56.5443 146.327 62.4681C144.773 65.8374 142.928 64.8332 139.218 64.6134L139.37 65.1189C138.324 65.1798 136.066 65.2406 135.14 65.3888C133.269 65.717 132.166 66.0351 130.27 65.6296C126.186 62.1253 129.401 54.5745 127.2 51.1184L126.262 51.2762L126.338 49.921C130.707 47.3443 130.333 44.1144 135.628 42.5425V41.4744Z" fill="#373F4B"/>
<path d="M139.218 64.6134C137.271 64.6305 136.675 64.811 135.077 63.7137L135.4 62.8888C139.503 61.6407 142.103 61.7047 146.327 62.4681C144.773 65.8374 142.928 64.8332 139.218 64.6134Z" fill="#4B5861"/>
<path d="M135.628 41.4744C138.184 40.7635 143.733 41.2038 146.479 41.468C143.873 43.7622 138.666 43.6576 135.628 42.5425V41.4744Z" fill="#4B5861"/>
<path d="M135.863 70.2109L146.022 70.2065C145.984 72.4987 146.035 85.0648 145.382 86.3281C144.519 85.5152 143.562 84.4958 142.528 83.9852C140.702 80.538 134.569 82.7276 135.292 72.047L135.863 70.2109Z" fill="#373F4B"/>
<path d="M139.37 65.1189C141.837 65.1703 143.701 64.8148 145.616 65.9343C146.219 67.7001 146.105 68.3261 146.022 70.2065L135.863 70.2109L135.185 68.8969L135.14 65.3888C136.066 65.2406 138.324 65.1798 139.37 65.1189Z" fill="#070912"/>
<path d="M147.196 5.90867C148.318 5.01155 149.935 5.09644 150.956 6.1057C151.977 7.11434 152.079 8.72738 151.191 9.85639C150.658 10.5343 149.846 10.9328 148.984 10.9385C148.121 10.9436 147.303 10.5558 146.764 9.88427C145.781 8.66719 145.978 6.88563 147.196 5.90867Z" fill="#010101"/>
<path d="M44.5182 94.5606C48.1583 94.4276 50.7647 93.8529 53.8277 96.2073C56.358 98.1536 67.2022 98.2157 69.9418 97.2343L70.0497 96.8915C70.5189 95.4527 70.595 95.3063 71.394 94.043C76.2073 92.6923 77.6469 96.6603 80.4816 99.6051C81.7753 100.945 87.5906 103.014 87.7999 104.195C88.897 110.251 83.5383 115.816 80.0123 120.065C78.8455 121.477 79.1752 130.565 79.1879 132.59C74.8502 135.863 72.6941 139.931 68.3564 143.771C66.974 144.765 67.1008 146.11 64.0124 146.11C59.6938 146.111 43.269 147.169 40.6182 144.991L42.2796 143.956L40.8465 143.887C38.6776 146.033 33.5599 147.622 31.0169 145.224L31.0423 143.982L33.0209 142.832L32.9385 141.593L35.1009 140.545C36.8576 136.995 37.8595 136.891 40.9098 135.12C41.8103 131.353 40.8655 130.615 41.5187 127.197C42.9392 125.606 43.1674 126.111 45.9134 125.942C43.2182 123.206 42.9899 121.35 39.9967 118.706C39.3372 117.788 39.5147 118.035 38.722 117.463C34.0799 114.116 33.7692 106.553 37.0224 102.146C38.9186 99.5772 42.1528 96.7008 44.5182 94.5606Z" fill="#373F4B"/>
<path d="M45.9134 125.942L47.6763 126.359C47.8222 127.004 48.0569 127.905 48.1266 128.536C45.0129 131.288 47.7335 136.179 46.1798 140.078C42.8631 141.877 43.7002 140.861 42.2796 143.956L40.8465 143.887C38.6776 146.033 33.5599 147.622 31.0169 145.224L31.0423 143.982L33.0209 142.832L32.9385 141.593L35.1009 140.545C36.8576 136.995 37.8595 136.891 40.9098 135.12C41.8103 131.353 40.8655 130.615 41.5187 127.197C42.9392 125.606 43.1674 126.111 45.9134 125.942Z" fill="#070912"/>
<path d="M39.9967 118.706C44.3914 120.407 42.4952 122.27 48.2978 122.319C49.2744 122.323 50.2511 122.31 51.2277 122.279L50.9424 123.986C51.9634 124.742 51.938 124.775 53.2063 125.192L51.2974 125.574L51.1453 125.971C50.7204 127.025 50.6125 127.521 49.8135 128.347L48.1266 128.536C48.0569 127.905 47.8222 127.004 47.6763 126.359L45.9134 125.942C43.2182 123.206 42.9899 121.35 39.9967 118.706Z" fill="#1B202C"/>
<path d="M63.4353 121.146L63.6129 121.441C65.3632 124.23 66.2129 124.118 67.5383 127.342L67.2023 128.779C64.8876 129.21 61.5899 128.2 61.165 125.759L62.4206 124.332C62.7631 123.615 63.188 121.986 63.4353 121.146Z" fill="#1B202C"/>
<path d="M54.557 119.932C57.0366 119.163 59.5606 118.979 62.0782 119.681L63.4353 121.146C63.188 121.986 62.7631 123.615 62.4206 124.332C62.2304 123.924 61.5772 123.075 61.2855 122.664C58.9328 121.692 56.0917 121.988 53.5043 122.056L54.557 119.932Z" fill="#101622"/>
<path d="M53.5043 122.056C56.0917 121.988 58.9328 121.692 61.2855 122.664C61.5772 123.075 62.2304 123.924 62.4206 124.332L61.165 125.759C59.2308 125.388 55.8825 125.369 53.7897 125.295L53.5043 122.056Z" fill="#070912"/>
<path d="M51.2277 122.279C53.6692 121.564 52.7687 122.105 54.557 119.932L53.5043 122.056L53.7897 125.295L53.2063 125.192C51.938 124.775 51.9634 124.742 50.9424 123.986L51.2277 122.279Z" fill="#09182F"/>
<path d="M105.943 77.7896L106.14 76.6923C108.271 75.4365 126.566 75.5917 129.344 76.575C130.428 80.4189 140.873 87.9285 144.513 92.2785L145.496 92.8221C146.587 97.9983 145.902 133.026 145.838 140.272C142.592 140.312 141.621 140.853 139.884 138.066C138.729 138.023 136.859 137.74 135.647 137.597L135.502 136.21C134.829 135.896 133.536 135.149 133.079 134.64C128.526 129.581 119.622 124.614 125.615 117.411L125.932 117.038C126.357 111.535 128.773 108.647 134.36 107.886C134.512 106.861 134.322 106.589 134.005 105.6C132.083 104.392 129.629 104.661 127.625 105.544C126.63 106.837 126.534 107.086 125.158 107.878L124.416 107.468C121.601 108.253 120.523 107.962 117.593 107.552L117.2 107.306C115.824 106.046 101.777 101.458 99.2021 100.374C94.5854 98.4279 92.7209 92.3394 88.4086 91.8325C88.453 91.4283 88.8589 89.0645 88.916 89.0334C94.8264 85.6762 100.8 81.9344 105.943 77.7896Z" fill="#373F4B"/>
<path d="M105.943 77.7896L106.14 76.6923C108.271 75.4365 126.566 75.5917 129.344 76.575L129.014 78.5834C126.116 79.7809 108.112 79.8094 105.943 77.7896Z" fill="#4B5861"/>
<path d="M127.625 105.544L128.057 104.464C132.039 103.957 137.246 103.933 140.429 106.748L140.264 107.675C138.33 108.534 136.434 108.309 134.36 107.886C134.512 106.861 134.322 106.589 134.005 105.6C132.083 104.392 129.629 104.661 127.625 105.544Z" fill="#2A303B"/>
<path d="M117.593 107.552C119.774 105.75 122.317 105.177 124.416 107.468C121.601 108.253 120.523 107.962 117.593 107.552Z" fill="#4B5861"/>
<path d="M135.647 137.597C137.226 135.587 136.44 136.064 138.584 135.429L139.725 136.175L139.884 138.066C138.729 138.023 136.859 137.74 135.647 137.597Z" fill="#474C54"/>
<path d="M40.6372 11.3263C58.2035 10.5774 90.1336 10.144 107.681 11.2794C103.933 14.7196 94.3571 29.2403 88.3389 26.4792C87.3369 20.9919 83.8427 20.4705 79.8919 16.9352L79.7714 15.1454C78.8392 13.8073 77.6025 12.2855 76.5688 11.1121L75.0468 10.7586C73.5122 11.7698 73.2965 11.9041 72.5736 13.5754C72.0219 21.9264 94.3761 25.7468 70.836 44.4388L69.9418 46.3344C67.0691 47.3196 58.2035 47.7422 55.7112 45.8593C49.2555 40.5259 45.9071 37.4094 46.5159 28.9419V25.5802C45.3871 23.0162 42.7045 20.639 40.6245 18.6604L40.6372 11.3263Z" fill="#373F4B"/>
<path d="M73.3727 145.625C74.4127 143.734 83.6017 137.619 84.7749 134.896C85.9544 132.144 84.0646 128.601 85.688 125.513C90.6853 122.671 85.3266 119.766 91.7887 118.597C92.499 118.469 93.6976 112.227 95.2513 110.392C101.821 109.626 97.6674 112.55 100.99 113.766C103.521 114.692 109.564 112.911 112.05 115.236C113.452 116.55 115.652 116.781 117.561 116.967L117.878 116.996L117.897 129.46L118.347 129.721C119.641 129.763 122.051 129.545 122.647 130.418C125.171 134.125 125.133 138.384 129.578 140.687C133.371 140.946 136.218 139.839 139.395 140.747C139.985 141.562 140.08 141.537 140.213 142.516L140.258 142.935C140.429 144.509 140.404 144.646 141.082 146.03C134.436 146.705 75.7254 146.426 73.3727 145.625Z" fill="#373F4B"/>
<path d="M117.897 129.46L118.347 129.721C118.36 130.072 118.373 130.423 118.386 130.774C118.462 133.917 118.233 133.722 116.153 135.875C113.915 138.197 109.843 142.483 106.425 142.556L106.374 141.463C107.928 138.986 115.329 130.378 117.897 129.46Z" fill="#1B202C"/>
<path d="M145.984 0.0919282L147.196 5.90867C145.978 6.88563 145.781 8.66719 146.764 9.88427C146.606 16.6083 145.927 23.3627 145.743 30.2692L145.287 31.8049C142.756 32.6716 135.692 32.3599 132.439 32.3675L132.458 32.7515C129.94 35.2686 129.458 36.3659 126.065 39.3519L126.002 39.9754L124.131 41.8089C123.82 43.7241 123.884 44.0181 122.755 45.5019C120.567 45.8954 122.248 44.0751 121.106 43.9282C114.34 43.0557 110.75 37.0774 105.335 33.5878C103.73 32.5538 101.91 32.251 100.229 31.2468C99.348 25.2178 111.968 19.8033 111.074 12.4401C109.539 11.0412 110.281 11.4473 107.681 11.2794C109.679 10.3721 135.749 10.3658 139.738 11.1032C140.683 11.2775 140.397 13.5729 140.955 15.5363C143.118 16.2864 142.217 16.1426 144.779 15.6744C146.549 13.6597 145.705 9.02643 145.642 5.58111C145.667 3.84578 145.864 1.84626 145.984 0.0919282Z" fill="#373F4B"/>
<path d="M132.439 32.3675C131.595 31.8778 131.665 31.7834 131.227 30.8843L132.14 30.0354C135.197 29.5171 142.775 29.4848 145.743 30.2692L145.287 31.8049C142.756 32.6716 135.692 32.3599 132.439 32.3675Z" fill="#474C54"/>
<path d="M19.3546 103.481C22.8298 103.019 26.0451 102.401 29.3554 103.591L30.1418 105.391C27.789 126.791 41.1318 116.643 40.9098 135.12C37.8595 136.891 36.8576 136.995 35.1009 140.545L32.9385 141.593C28.8037 146.31 15.9556 146.625 9.96273 145.721L10.0325 140.495C11.0408 138.961 10.6476 112.667 10.692 108.44C14.6618 108.654 17.6487 107.275 19.3546 103.481Z" fill="#373F4B"/>
<path d="M19.3546 103.481C22.8298 103.019 26.0451 102.401 29.3554 103.591L30.1418 105.391C27.2944 106.175 22.7538 106.78 19.9508 105.64L19.3546 103.481Z" fill="#474C54"/>
<path d="M10.7618 37.7306C10.6857 33.9248 9.88665 18.2131 11.396 15.8512C13.0701 15.8277 13.8502 15.7992 15.499 15.5186C16.019 13.9714 16.038 13.5843 16.2219 11.9465C18.2576 10.1979 31.5877 11.1337 35.4243 11.0906C35.3799 12.7049 35.1326 19.5753 35.5321 20.5338C39.3752 29.8422 41.2015 23.9386 41.0557 35.1558L40.4976 41.7379L40.1489 43.3098C38.0434 44.6111 33.7438 44.1841 31.074 44.1676L30.1924 43.4169C28.2012 37.1509 20.1981 44.5516 15.315 38.1684C14.9789 37.723 11.7701 37.7731 10.7618 37.7306Z" fill="#373F4B"/>
<path d="M30.1924 43.4169C30.4715 41.7183 30.1672 42.2796 31.1882 40.9656C34.7902 39.9088 36.9019 40.6754 40.4976 41.7379L40.1489 43.3098C38.0434 44.6111 33.7438 44.1841 31.074 44.1676L30.1924 43.4169Z" fill="#4B5861"/>
<path d="M67.4749 84.7771C67.8871 82.4437 73.3536 76.9818 75.2751 75.9218C75.4273 79.1479 68.9526 87.1302 66.4603 91.0969C59.605 92.0992 44.4801 94.9737 43.6874 84.9184C49.4583 84.9235 62.2304 85.2662 67.4749 84.7771Z" fill="#1B202C"/>
<path d="M32.9954 91.102C36.6609 89.7189 35.1326 88.7692 38.8488 86.0373C37.3204 88.6026 33.7311 97.3616 31.4672 97.6068C28.55 97.9229 19.0502 96.4797 16.095 98.8353C15.6194 99.2129 15.3024 101.029 15.1755 101.714C13.6979 102.784 12.6135 102.535 10.7428 102.501L10.673 98.0218C12.0809 97.8818 13.4887 97.6543 14.8902 97.4465C16.52 95.7048 16.0189 95.938 16.2916 93.0122C19.7225 93.054 29.6027 93.4506 32.431 92.5833L32.9954 91.102Z" fill="#1B202C"/>
<path d="M88.4086 91.8325C92.7209 92.3394 94.5854 98.4279 99.2021 100.374C101.777 101.458 115.824 106.046 117.2 107.306L117.453 111.966C114.029 107.562 104.491 108.123 99.3987 104.772C95.8917 102.461 97.8577 103.633 96.8177 98.7662C95.1625 97.4566 92.9112 97.2868 90.6409 96.4233C88.9857 94.7576 88.9413 94.0405 88.4086 91.8325Z" fill="#1B202C"/>
<path d="M126.002 39.9754L126.065 39.3519C129.458 36.3659 129.94 35.2686 132.458 32.7515C138.038 33.1595 143.568 31.5091 146.27 34.3576L146.327 37.9308C143.574 36.7226 133.523 37.2859 130.016 37.4006C128.615 38.5042 127.695 39.4026 126.002 39.9754Z" fill="#222835"/>
<path d="M70.836 44.4388C71.0072 47.1543 70.9819 48.8262 70.8487 51.5499C66.2003 51.574 59.0343 52.672 56.022 49.857C55.3054 47.8043 55.9839 47.5883 55.7112 45.8593C58.2035 47.7422 67.0691 47.3196 69.9418 46.3344L70.836 44.4388Z" fill="#1B202C"/>
<path d="M126.262 51.2762L127.2 51.1184C129.401 54.5745 126.186 62.1253 130.27 65.6296C132.166 66.0351 133.269 65.717 135.14 65.3888L135.185 68.8969C131.678 69.0812 126.947 68.9691 123.351 68.9811C123.795 67.7451 125.475 64.9922 125.552 64.6634C126.433 60.9108 126.249 55.1232 126.262 51.2762Z" fill="#4B5861"/>
<path d="M117.2 107.306L117.593 107.552C120.523 107.962 121.601 108.253 124.416 107.468L125.158 107.878C125.444 109.304 125.495 109.56 125.463 111.007C123.395 113.191 120.586 114.814 117.707 112.989L117.453 111.966L117.2 107.306Z" fill="#222835"/>
<path d="M123.351 68.9811C126.947 68.9691 131.678 69.0812 135.185 68.8969L135.863 70.2109L135.292 72.047C129.978 71.44 125.672 74.2593 123.351 68.9811Z" fill="#1B202C"/>
<path d="M40.4976 41.7379L41.0557 35.1558C41.2015 37.0426 41.6202 40.9764 41.1636 42.6686C39.5084 48.7382 34.5429 48.8997 31.074 44.1676C33.7438 44.1841 38.0434 44.6111 40.1489 43.3098L40.4976 41.7379Z" fill="#1B202C"/>
<path d="M40.6245 18.6604C42.7045 20.639 45.3871 23.0162 46.5159 25.5802V28.9419C46.3383 27.7102 46.1798 27.2306 45.8057 26.0382C44.4295 25.4268 43.0407 24.8446 41.6392 24.2915C40.244 22.164 40.7196 21.6489 40.6245 18.6604Z" fill="#1B202C"/>
<path d="M82.1177 59.7818L80.1645 59.396C66.6886 49.8463 94.3 24.9206 104.897 38.5575C108.042 42.6123 112.741 45.6616 117.238 48.1578L117.422 49.8837C117.694 58.6414 119.559 65.6378 108.271 65.2786C108.283 66.4931 108.366 68.6422 108.213 69.768L98.1494 69.7642C97.9147 71.1866 97.6991 72.5842 97.4137 73.997C96.8049 78.8064 97.2361 77.3049 93.4692 80.2294C90.9009 82.2245 87.933 84.4071 85.593 86.6671L85.1617 87.0922C85.0285 80.3859 84.6291 71.5458 85.3584 65.0689L82.3841 65.034L82.1177 59.7818Z" fill="#373F4B"/>
<path d="M108.271 65.2786C107.903 63.5097 108.055 61.9796 109.127 60.5934C111.067 60.3026 111.663 60.2392 113.471 59.4973C114.701 57.5859 113.965 52.7157 115.094 48.9631L115.9 48.5335L117.422 49.8837C117.694 58.6414 119.559 65.6378 108.271 65.2786Z" fill="#4B5861"/>
<path d="M85.3584 65.0689C85.574 69.303 84.6037 76.6707 87.1974 79.1638C90.6028 79.2069 90.7678 76.62 95.6318 75.9649C96.3548 75.287 96.9 74.8568 97.4137 73.997C96.8049 78.8064 97.2361 77.3049 93.4692 80.2294C90.9009 82.2245 87.933 84.4071 85.593 86.6671L85.1617 87.0922C85.0285 80.3859 84.6291 71.5458 85.3584 65.0689Z" fill="#1B202C"/>
<path d="M98.1494 69.7642L97.8894 67.7096C100.439 65.2811 104.187 65.5403 107.313 66.6623C107.916 68.0333 107.947 68.2798 108.213 69.768L98.1494 69.7642Z" fill="#4B5861"/>
<path d="M82.1177 59.7818C84.7938 60.487 84.3754 59.9592 85.9608 61.7756C85.65 64.1382 84.8066 64.5247 82.3841 65.034L82.1177 59.7818Z" fill="#474C54"/>
</svg>
