<svg width="168" height="185" viewBox="0 0 168 185" fill="none" xmlns="http://www.w3.org/2000/svg">
<path d="M22.057 184.474L111.528 184.471C115.765 184.469 145.388 184.86 145.388 184.86L22.057 184.474Z" fill="#010101"/>
<path d="M21.6644 0.18643C31.9061 0.222009 143.431 -0.210036 145.414 0.661661C145.958 2.74814 145.952 3.42795 146.003 5.50427L146.123 5.86388C147.485 5.84291 150.309 5.87151 151.538 5.72792L151.627 11.0464L156.795 10.9721C158.144 14.5497 156.409 14.1768 158.404 16.607C159.418 16.6597 160.437 16.6991 161.451 16.7239C163.655 19.9311 160.976 21.5227 163.965 21.9039C166.372 22.2101 166.492 21.4852 167.746 22.97C168.221 35.0657 167.886 48.5999 167.873 60.7985L167.784 159.649C167.797 164.432 168.12 173.902 167.563 178.202C165.023 180.061 164.028 177.543 162.318 179.943C162.318 181.921 162.698 182.994 161.717 184.292C155.235 185.196 145.388 184.86 145.388 184.86C145.388 184.86 115.765 184.469 111.528 184.471L22.057 184.474L22.019 180.8C19.3968 176.503 17.0027 182.207 16.648 173.634L11.391 173.662L10.8716 169.724C9.52251 168.196 8.34446 168.537 5.82995 168.176L5.60823 162.839L0.268839 162.882L0.319503 49.525C0.319503 43.5819 -0.484834 16.1699 0.458897 12.286C2.32736 10.5235 2.14368 11.0801 5.36757 10.8647L5.81089 6.35566L5.82995 5.88548C7.71741 5.0627 8.7688 5.29589 10.8209 5.39564C10.8399 3.57728 10.6373 2.45463 11.619 0.962839C13.9942 -0.52705 18.4975 0.145768 21.6644 0.18643Z" fill="#373F4B"/>
<path d="M151.627 11.0464L156.795 10.9721C158.144 14.5497 156.409 14.1768 158.404 16.607C159.418 16.6597 160.437 16.6991 161.451 16.7239C163.655 19.9311 160.976 21.5227 163.965 21.9039C166.372 22.2101 166.492 21.4852 167.746 22.97C168.221 35.0657 167.886 48.5999 167.873 60.7985L167.784 159.649C167.797 164.432 168.12 173.902 167.563 178.202C165.023 180.061 164.028 177.543 162.318 179.943C162.318 181.921 162.698 182.994 161.717 184.292C155.235 185.196 145.388 184.86 145.388 184.86C145.388 184.86 115.765 184.469 111.528 184.471L22.057 184.474L22.019 180.8C19.3968 176.503 17.0027 182.207 16.648 173.634L110.806 173.627C116.012 173.627 142.886 173.899 145.705 173.165C146.389 171.783 146.503 170.74 146.782 169.249C148.498 167.748 148.492 168.262 151.418 168.236L151.766 164.029C153.312 162.463 154.148 162.908 156.859 162.65C155.212 162.442 153.939 162.206 152.317 161.865C150.69 158.27 153.337 36.5836 151.652 19.8441L151.576 15.9824L151.627 11.0464Z" fill="#848188"/>
<path d="M151.627 11.0464L156.795 10.9721C156.162 61.1467 157.467 112.264 156.859 162.65C155.212 162.442 153.939 162.206 152.317 161.865C150.69 158.27 153.337 36.5836 151.652 19.8441L151.576 15.9824L151.627 11.0464Z" fill="#010101"/>
<path d="M151.652 19.8441C153.337 36.5836 150.69 158.27 152.317 161.865C153.939 162.206 155.212 162.442 156.859 162.65C154.148 162.908 153.312 162.463 151.766 164.029L151.418 168.236C148.492 168.262 148.498 167.748 146.782 169.249C146.503 170.74 146.389 171.783 145.705 173.165C142.886 173.899 116.012 173.627 110.806 173.627L16.648 173.634L11.391 173.662L10.8716 169.724C9.52251 168.196 8.34446 168.537 5.82995 168.176L5.60823 162.839L0.268839 162.882C2.16264 162.683 3.06835 162.674 4.85447 161.887C6.76093 159.454 5.91863 155.311 5.69061 151.991C13.8358 151.923 8.42669 153.484 12.6767 156.85C16.2109 157.547 35.6873 157.282 40.2856 157.287C61.3517 157.413 82.4179 157.401 103.478 157.251C112.389 157.206 137.87 157.979 145.154 156.871C146.281 155.552 145.889 154.705 145.946 152.56C147.662 150.971 148.384 152.645 151.127 151.556C152.077 146.421 151.393 123.08 151.551 116.383C152.286 85.0396 150.411 50.9545 151.652 19.8441Z" fill="#101622"/>
<path d="M11.391 173.662L12.018 169.205C14.5768 167.039 130.858 169.139 141.29 168.29C145.464 167.95 145.451 167.204 146.699 163.3C148.473 162.314 147.979 162.631 150.309 162.697C151.602 164.523 151.241 165.682 151.418 168.236C148.492 168.262 148.498 167.748 146.782 169.249C146.503 170.74 146.389 171.783 145.705 173.165C142.886 173.899 116.012 173.627 110.806 173.627L16.648 173.634L11.391 173.662Z" fill="#010101"/>
<path d="M5.60823 162.839C8.74978 162.871 8.42671 162.382 10.6245 163.894L11.0996 165.173C9.61746 168.256 9.08551 167.93 5.82995 168.176L5.60823 162.839Z" fill="#010101"/>
<path d="M5.36757 10.8647L5.81089 6.35566C5.89956 7.71149 6.08964 9.69502 6.07697 10.9949C5.20924 50.4722 6.41896 90.3079 5.92492 129.817C5.85525 135.374 5.83626 141.19 5.98194 146.732C7.41337 146.753 9.58583 146.867 10.9349 146.697C13.6584 146.687 13.3671 146.304 15.508 147.493C15.679 149.071 15.7422 149.554 16.1729 151.076C19.3842 152.913 33.3058 151.922 37.7711 151.92L76.2994 152.022C94.6294 152.032 121.516 152.857 139.263 151.665C143.159 148.668 137.908 146.334 146.212 146.38C146.908 144.001 146.889 127.949 145.914 125.413L145.787 124.888C146.82 121.243 146.142 107.472 146.174 102.571C146.3 83.2955 146.034 63.7955 146.142 44.5464C146.174 39.5913 145.711 21.0468 146.617 17.3065C148.308 16.7207 149.144 16.6019 150.918 16.3223L151.576 15.9824L151.652 19.8441C150.411 50.9545 152.286 85.0396 151.551 116.383C151.393 123.08 152.077 146.421 151.127 151.556C148.384 152.645 147.662 150.971 145.946 152.56C145.889 154.705 146.281 155.552 145.154 156.871C137.87 157.979 112.389 157.206 103.478 157.251C82.4179 157.401 61.3517 157.413 40.2856 157.287C35.6873 157.282 16.2109 157.547 12.6767 156.85C8.42669 153.484 13.8358 151.923 5.69061 151.991C5.91863 155.311 6.76093 159.454 4.85447 161.887C3.06835 162.674 2.16264 162.683 0.268839 162.882L0.319503 49.525C0.319503 43.5819 -0.484834 16.1699 0.458897 12.286C2.32736 10.5235 2.14368 11.0801 5.36757 10.8647Z" fill="#2A303B"/>
<path d="M0.268839 162.882L0.319503 49.525C0.319503 43.5819 -0.484834 16.1699 0.458897 12.286C2.32736 10.5235 2.14368 11.0801 5.36757 10.8647L5.32956 106.16C5.32956 115.479 4.66454 144.085 5.69061 151.991C5.91863 155.311 6.76093 159.454 4.85447 161.887C3.06835 162.674 2.16264 162.683 0.268839 162.882Z" fill="#010101"/>
<path d="M5.98194 146.732C7.41337 146.753 9.58583 146.867 10.9349 146.697C10.8589 149.396 11.2452 148.961 9.9848 151.053C8.06567 151.904 8.83839 151.898 7.08394 151.23C5.63984 149.294 6.08961 149.575 5.98194 146.732Z" fill="#373F4B"/>
<path d="M145.914 125.413C146.889 127.949 146.908 144.001 146.212 146.38C137.908 146.334 143.159 148.668 139.263 151.665C121.516 152.857 94.6294 152.032 76.2994 152.022L37.7711 151.92C33.3058 151.922 19.3842 152.913 16.1729 151.076C15.7422 149.554 15.679 149.071 15.508 147.493C13.3671 146.304 13.6584 146.687 10.9349 146.697L10.9349 135.639L10.9223 130.161L16.838 130.286C21.7593 130.344 27.8651 130.577 32.6978 130.365L39.3038 130.002C37.5114 131.506 38.0434 130.693 37.4987 133.362L38.1448 134.829C39.8929 135.505 40.2349 135.477 42.1414 135.647C45.7643 138.873 40.8366 141.004 47.5821 140.909C50.7933 138.858 47.2083 135.548 48.9311 132.034C51.1733 130.765 50.5843 131.144 53.4218 131.184L54.1882 131.691L54.2832 134.744C56.7407 136.927 75.2227 134.327 79.688 135.758C84.527 137.308 79.935 140.625 85.0147 141.27C88.3652 141.695 94.4963 141.737 97.2578 139.612C97.8849 138.159 97.9102 137.95 97.9609 136.365C100.545 134.764 105.08 136.726 107.854 135.144C108.013 133.583 108.025 132.622 108.006 131.051C109.697 129.959 111.958 129.983 113.631 131.199C114.049 132.726 114.118 133.114 114.188 134.694C119.337 139.111 126.026 130.654 130.973 135.008C131.923 135.841 133.797 135.667 135.026 135.628L135.108 130.539L130.352 130.372C136.001 129.49 139.276 130.996 144.761 129.473C146.326 127.826 145.857 128.296 145.914 125.413Z" fill="#101622"/>
<path d="M10.9223 130.161L16.838 130.286C21.7593 130.344 27.8651 130.577 32.6978 130.365C32.6978 132.331 32.9447 133.627 31.8617 135.193C28.5238 135.173 29.7336 134.46 27.2127 136.018C26.5793 139.262 27.6497 139.219 25.9143 140.889C22.4117 141.716 20.5875 142.307 17.351 140.403C16.1729 139.024 16.4073 137.643 16.3566 135.728L10.9349 135.639L10.9223 130.161Z" fill="#2A303B"/>
<path d="M10.9223 130.161L16.838 130.286C16.6416 131.688 16.1033 134.51 16.3566 135.728L10.9349 135.639L10.9223 130.161Z" fill="#222835"/>
<path d="M145.914 125.413C146.889 127.949 146.908 144.001 146.212 146.38C145.857 143.516 146.313 139.845 145.16 138.107C143.045 137.564 143.254 137.907 140.853 138.686L140.321 140.495C138.168 141.539 139.092 141.471 136.869 140.793C135.051 138.871 135.59 139.484 135.545 136.16L135.026 135.628L135.108 130.539L130.352 130.372C136.001 129.49 139.276 130.996 144.761 129.473C146.326 127.826 145.857 128.296 145.914 125.413Z" fill="#1B202C"/>
<path d="M135.108 130.539L140.777 130.488C140.936 133.205 140.695 136.652 140.853 138.686L140.321 140.495C138.168 141.539 139.092 141.471 136.869 140.793C135.051 138.871 135.59 139.484 135.545 136.16L135.026 135.628L135.108 130.539Z" fill="#222835"/>
<path d="M135.108 130.539L140.777 130.488C140.403 133.328 140.828 133.696 139.276 135.552C138.06 135.754 136.755 135.998 135.545 136.16L135.026 135.628L135.108 130.539Z" fill="#2A303B"/>
<path d="M21.6644 0.18643C31.9061 0.222009 143.431 -0.210036 145.414 0.661661C145.958 2.74814 145.952 3.42795 146.003 5.50427L146.123 5.86388C147.485 5.84291 150.309 5.87151 151.538 5.72792L151.627 11.0464L151.576 15.9824L150.918 16.3223L146.307 16.2563C143.013 16.0841 143.121 16.6642 141.328 14.8687L140.454 11.5547C135.691 10.5032 19.3335 10.5985 16.6606 11.4403C15.1278 14.2873 17.237 14.6685 15.1912 16.349C13.3671 16.3763 12.3916 16.0282 11.2516 16.9812C10.3712 22.5221 10.8336 44.8939 10.8399 51.729L10.8842 124.741L10.9223 130.161L10.9349 135.639L10.9349 146.697C9.58583 146.867 7.41337 146.753 5.98194 146.732C5.83626 141.19 5.85525 135.374 5.92492 129.817C6.41896 90.3079 5.20924 50.4722 6.07697 10.9949C6.08964 9.69502 5.89956 7.71149 5.81089 6.35566L5.82995 5.88548C7.71741 5.0627 8.7688 5.29589 10.8209 5.39564C10.8399 3.57728 10.6373 2.45463 11.619 0.962839C13.9942 -0.52705 18.4975 0.145768 21.6644 0.18643Z" fill="#546974"/>
<path d="M21.6644 0.18643C31.9061 0.222009 143.431 -0.210036 145.414 0.661661C145.958 2.74814 145.952 3.42795 146.003 5.50427C117.564 6.20569 86.4018 5.62117 57.8365 5.60274L28.0171 5.63771C23.2921 5.6447 15.3179 5.88613 10.8209 5.39564C10.8399 3.57728 10.6373 2.45463 11.619 0.962839C13.9942 -0.52705 18.4975 0.145768 21.6644 0.18643Z" fill="#010101"/>
<path d="M146.123 5.86388C147.485 5.84291 150.309 5.87151 151.538 5.72792L151.627 11.0464L151.576 15.9824L150.918 16.3223L146.307 16.2563L146.186 11.3025C146.047 9.81321 146.123 7.43128 146.123 5.86388Z" fill="#010101"/>
<path d="M151.627 11.0464L151.576 15.9824L150.918 16.3223L146.307 16.2563L146.186 11.3025L151.627 11.0464Z" fill="#4B5861"/>
<path d="M5.82995 5.88548C9.18051 5.92868 8.76245 5.38612 10.9033 7.10029C11.5303 8.91166 11.543 8.1213 10.6752 10.0896C8.4711 11.3959 8.93983 10.9937 6.07697 10.9949C6.08964 9.69502 5.89956 7.71149 5.81089 6.35566L5.82995 5.88548Z" fill="#010101"/>
<path d="M86.3511 108.566C87.3582 108.012 88.2512 107.985 89.3913 107.821L89.8917 107.985C95.6491 109.784 101.02 106.46 103.427 110.654L103.281 113.922C102.863 116.487 103.148 116.963 104.06 119.355C105.555 119.551 107.056 119.723 108.557 119.869C108.716 122.478 108.253 122.719 109.729 124.212L113.732 125.056C115.233 125.223 116.094 125.296 117.545 125.682C118.001 126.447 118.463 127.204 118.945 127.953C121.256 131.578 126.387 130.438 130.352 130.372L135.108 130.539L135.026 135.628C133.797 135.667 131.923 135.841 130.973 135.008C126.026 130.654 119.337 139.111 114.188 134.694C114.118 133.114 114.049 132.726 113.631 131.199C111.958 129.983 109.697 129.959 108.006 131.051C108.025 132.622 108.013 133.583 107.854 135.144C105.08 136.726 100.545 134.764 97.9609 136.365C97.9102 137.95 97.8849 138.159 97.2578 139.612C94.4963 141.737 88.3652 141.695 85.0147 141.27C79.935 140.625 84.527 137.308 79.688 135.758C75.2227 134.327 56.7407 136.927 54.2832 134.744L54.1882 131.691L53.4218 131.184C50.5843 131.144 51.1733 130.765 48.9311 132.034C47.2083 135.548 50.7933 138.858 47.5821 140.909C40.8366 141.004 45.7643 138.873 42.1414 135.647C40.2349 135.477 39.8929 135.505 38.1448 134.829L37.4987 133.362C38.0434 130.693 37.5114 131.506 39.3038 130.002C40.9443 130.08 41.0266 130.079 42.5974 129.626C43.0851 128.393 43.2624 127.567 43.5728 126.272C45.4539 124.384 45.473 124.951 48.7665 124.543L48.8995 121.574L48.1205 120.334C46.3787 119.54 41.6474 119.674 39.1772 119.45C41.2864 118.94 46.2583 119.092 48.6462 119.085C48.3801 113.483 48.1901 114.553 53.4915 112.858C55.2903 112.283 57.2665 111.664 59.0589 111.051L59.3692 109.303C60.959 108.18 67.5145 108.594 70.1177 108.585C74.3169 110.53 70.8144 111.045 75.7357 113.494C76.5338 115.728 76.2614 116.086 78.6746 116.926C81.1764 116.559 83.2602 117.015 85.5277 115.793C86.8261 113.971 86.4081 110.96 86.3511 108.566Z" fill="#222835"/>
<path d="M48.6462 119.085C48.3801 113.483 48.1901 114.553 53.4915 112.858C55.2903 112.283 57.2665 111.664 59.0589 111.051L59.3692 109.303C60.959 108.18 67.5145 108.594 70.1177 108.585C74.3169 110.53 70.8144 111.045 75.7357 113.494C76.5338 115.728 76.2614 116.086 78.6746 116.926L76.7364 117.808L76.7427 118.484L80.4227 119.786C77.9272 119.982 75.6534 119.85 73.4049 118.591C70.9094 117.193 71.4541 117.266 70.732 114.421C67.6538 114.29 62.6945 113.618 60.332 115.128C59.9583 116.587 59.9836 116.515 60.237 118.015C58.1659 117.773 56.158 117.261 54.4416 118.38L53.4598 120.272L51.7054 119.972L49.6153 120.12C49.4316 120.465 49.0072 121.191 48.8995 121.574L48.1205 120.334C46.3787 119.54 41.6474 119.674 39.1772 119.45C41.2864 118.94 46.2583 119.092 48.6462 119.085Z" fill="#070912"/>
<path d="M86.3511 108.566C87.3582 108.012 88.2512 107.985 89.3913 107.821L89.8917 107.985C95.6491 109.784 101.02 106.46 103.427 110.654L103.281 113.922L97.9039 114.664L91.4941 114.343L89.5813 114.396C87.8078 116.757 89.2076 117.426 87.6495 119.923C85.5657 119.775 82.5889 119.821 80.4227 119.786L76.7427 118.484L76.7364 117.808L78.6746 116.926C81.1764 116.559 83.2602 117.015 85.5277 115.793C86.8261 113.971 86.4081 110.96 86.3511 108.566Z" fill="#070912"/>
<path d="M60.237 118.015C59.9836 116.515 59.9583 116.587 60.332 115.128C62.6945 113.618 67.6538 114.29 70.732 114.421L70.485 119.054C67.9515 121.221 66.9001 118.501 64.943 120.92L64.7467 123.794C63.0049 125.279 55.5247 125.255 53.0925 125.247L52.3958 124.848L51.7054 119.972L53.4598 120.272L54.4416 118.38C56.158 117.261 58.1659 117.773 60.237 118.015Z" fill="#2A303B"/>
<path d="M53.4598 120.272L54.4416 118.38C56.158 117.261 58.1659 117.773 60.237 118.015C59.4453 121.552 56.8104 120.266 53.4598 120.272Z" fill="#1B202C"/>
<path d="M87.6495 119.923C89.2076 117.426 87.8078 116.757 89.5813 114.396L91.4941 114.343L97.9039 114.664L98.3853 117.052L98.0432 119.015C94.756 120.92 93.7679 117.486 91.4245 121.421L91.5384 124.033C90.1893 125.088 88.6313 124.755 86.8135 124.871C86.9718 122.672 87.1238 121.996 87.6495 119.923Z" fill="#2A303B"/>
<path d="M87.6495 119.923C89.2076 117.426 87.8078 116.757 89.5813 114.396L91.4941 114.343C91.4815 116.897 91.9122 117.525 90.7088 119.385C89.6637 119.602 88.7136 119.827 87.6495 119.923Z" fill="#1B202C"/>
<path d="M86.8135 124.871C86.7565 127.696 87.2315 127.991 85.8507 129.842C83.5262 131.087 78.8899 130.253 76.0397 129.999C76.2107 127.004 75.7167 127.227 77.2811 125.306C79.7133 124.141 83.9633 124.721 86.8135 124.871Z" fill="#2A303B"/>
<path d="M103.281 113.922C102.863 116.487 103.148 116.963 104.06 119.355C102.217 116.668 101.369 117.209 98.3853 117.052L97.9039 114.664L103.281 113.922Z" fill="#101622"/>
<path d="M86.4904 65.2962L88.4412 64.2466L89.2013 60.8576C90.6518 60.6994 90.5757 60.6696 91.7982 59.8131C92.0325 55.6955 92.8369 56.5729 96.7638 55.8041L97.3908 53.3962C99.9243 52.4425 112.079 52.8027 114.91 53.7773C116.513 58.8283 113.713 59.1105 113.833 63.3215C113.726 66.0688 114.049 68.1673 111.572 69.7887L110.768 69.4926C106.796 73.597 109.735 75.496 104.206 75.6174C103.775 75.6237 103.351 75.6238 102.92 75.6181C100.564 75.6663 98.1129 75.8201 95.7504 75.9357C93.0586 76.0088 93.2486 75.9325 91.0507 77.5146C89.5433 78.6016 84.8373 76.8525 82.8549 76.4446C83.3552 74.0068 83.0955 70.844 83.7796 68.5415C83.9126 68.0943 85.6797 66.7333 86.4904 65.2962Z" fill="#51A25B"/>
<path d="M86.4904 65.2962C86.3194 68.011 85.8381 68.4704 86.9148 70.5181L88.3399 70.8536C89.48 70.5137 90.7277 70.0651 91.8678 69.6839L92.3428 70.2532L91.8741 72.0792C92.5582 75.4522 91.9882 75.559 95.7504 75.9357C93.0586 76.0088 93.2486 75.9325 91.0507 77.5146C89.5433 78.6016 84.8373 76.8525 82.8549 76.4446C83.3552 74.0068 83.0955 70.844 83.7796 68.5415C83.9126 68.0943 85.6797 66.7333 86.4904 65.2962Z" fill="#326D3E"/>
<path d="M88.3399 70.8536C89.48 70.5137 90.7277 70.0651 91.8678 69.6839L92.3428 70.2532L91.8741 72.0792C91.4941 74.1714 91.8298 74.1262 90.5314 75.62L89.3597 75.43C88.0296 73.2609 88.435 73.679 88.3399 70.8536Z" fill="#426549"/>
<path d="M102.92 75.6181C103.364 74.3143 103.243 72.663 103.997 71.311C104.174 70.2493 108.405 70.4959 108.564 70.1102C110.001 66.558 110.527 65.1513 113.833 63.3215C113.726 66.0688 114.049 68.1673 111.572 69.7887L110.768 69.4926C106.796 73.597 109.735 75.496 104.206 75.6174C103.775 75.6237 103.351 75.6238 102.92 75.6181Z" fill="#1C542F"/>
<path d="M94.509 65.5567L94.984 65.0846C97.0869 62.9873 98.3726 60.3576 101.571 59.7483L103.098 60.4091L103.535 61.7338C102.692 63.0954 101.28 63.711 99.9117 65.631L97.6189 65.9989L94.509 65.5567Z" fill="#407F4A"/>
<path d="M91.8678 69.6839C91.7854 67.8789 91.5891 67.3306 92.4442 65.8438L94.509 65.5567L97.6189 65.9989C97.1122 68.6712 97.5682 68.7169 95.9341 70.156L92.3428 70.2532L91.8678 69.6839Z" fill="#205B2C"/>
<path d="M74.3739 76.2184L75.7611 76.5183C76.2551 78.3011 76.3058 78.9352 76.4388 80.7872C79.1623 81.2733 80.8661 81.1024 82.8232 82.6507C83.5262 84.2283 83.6213 84.4494 83.6656 86.1712L86.0217 84.6234C86.2118 90.3682 86.7438 102.832 85.9204 108.096L86.3511 108.566C86.4081 110.96 86.8261 113.971 85.5277 115.793C83.2602 117.015 81.1764 116.559 78.6746 116.926C76.2614 116.086 76.5338 115.728 75.7357 113.494C75.9764 108.787 76.4071 90.7234 73.8039 87.7722C70.6243 87.8332 67.4385 87.8358 64.259 87.7798C60.256 86.0066 60.4017 86.2201 57.6148 82.7968L57.0194 81.7904C52.9721 80.9009 53.6499 80.3342 53.1875 76.6517C54.2453 77.6295 54.3339 77.7915 55.645 78.2998C58.4445 82.1977 62.5235 81.1462 66.9002 80.8539C66.7862 77.6905 67.5778 77.7617 69.9847 76.3334L70.4217 76.43C71.5491 76.4459 73.2022 76.2896 74.3739 76.2184Z" fill="#426549"/>
<path d="M57.6148 82.7968C60.1483 83.387 60.5917 83.645 62.3082 85.6038C67.4259 86.4875 74.925 84.7435 77.5282 86.6038L78.2629 87.3999C77.5788 91.2158 77.5155 111.875 78.7189 115.141C80.486 115.764 81.4361 115.517 83.2602 115.294C86.0091 113.154 84.869 111.541 85.9204 108.096L86.3511 108.566C86.4081 110.96 86.8261 113.971 85.5277 115.793C83.2602 117.015 81.1764 116.559 78.6746 116.926C76.2614 116.086 76.5338 115.728 75.7357 113.494C75.9764 108.787 76.4071 90.7234 73.8039 87.7722C70.6243 87.8332 67.4385 87.8358 64.259 87.7798C60.256 86.0066 60.4017 86.2201 57.6148 82.7968Z" fill="#1E3C2E"/>
<path d="M83.6656 86.1712L86.0217 84.6234C86.2118 90.3682 86.7438 102.832 85.9204 108.096C84.869 111.541 86.0091 113.154 83.2602 115.294C81.4361 115.517 80.486 115.764 78.7189 115.141C77.5155 111.875 77.5788 91.2158 78.2629 87.3999C78.9406 91.3244 78.7125 107.408 78.7252 112.182C80.1946 112.9 80.9737 112.612 82.2278 112.234C84.831 107.603 82.3546 92.4865 83.6656 86.1712Z" fill="#2A5243"/>
<path d="M77.5282 86.6038L78.0158 84.9468C80.6063 84.3464 79.6627 84.2244 81.8415 85.0313C83.3806 88.2792 82.8232 106.403 82.3798 110.75L81.7655 111.66L78.7252 112.182C78.7125 107.408 78.9406 91.3244 78.2629 87.3999L77.5282 86.6038Z" fill="#4C8358"/>
<path d="M74.0572 65.2536C75.0516 68.0828 75.3493 69.2194 77.6104 70.8377C80.7773 70.6934 81.2587 66.9817 81.7907 64.1684C82.6078 59.8487 85.0463 58.0018 88.0612 55.2196L91.8235 54.9368C93.0712 51.9386 91.3801 51.452 92.9129 49.2943C96.8905 48.3254 114.992 48.9729 120.199 49.0497C120.142 53.7195 120.566 66.8731 118.432 70.2811C116.937 71.0785 116.684 71.0086 114.942 71.135C113.7 72.5359 113.859 74.1853 113.713 76.1631C113.624 73.8905 113.599 72.8562 113.124 70.6083L111.572 69.7887C114.049 68.1673 113.726 66.0688 113.833 63.3215C113.713 59.1105 116.513 58.8283 114.91 53.7773C112.079 52.8027 99.9243 52.4425 97.3908 53.3962L96.7638 55.8041C92.8369 56.5729 92.0325 55.6955 91.7982 59.8131C90.5757 60.6696 90.6518 60.6994 89.2013 60.8576L88.4412 64.2466L86.4904 65.2962C85.6797 66.7333 83.9126 68.0943 83.7796 68.5415C83.0955 70.844 83.3552 74.0068 82.8549 76.4446L81.6514 76.7871C81.0054 79.486 81.5627 78.6385 79.7576 80.3088L76.4388 80.7872C76.3058 78.9352 76.2551 78.3011 75.7611 76.5183L74.3739 76.2184C74.0953 74.4668 74.1269 73.3555 72.9551 72.0753C71.9481 70.4984 70.1303 69.2321 68.6419 68.0186C69.5476 67.3852 72.8791 65.8318 74.0572 65.2536Z" fill="#0E2F2A"/>
<path d="M45.7832 62.4104C50.1155 62.4257 60.104 62.0597 63.6255 62.9022C65.5383 65.1977 67.0204 66.0668 68.6419 68.0186C70.1303 69.2321 71.9481 70.4984 72.9551 72.0753C74.1269 73.3555 74.0953 74.4668 74.3739 76.2184C73.2022 76.2896 71.5491 76.4459 70.4217 76.43L69.9847 76.3334C67.5778 77.7617 66.7862 77.6905 66.9002 80.8539C62.5235 81.1462 58.4445 82.1977 55.645 78.2998C54.3339 77.7915 54.2453 77.6295 53.1875 76.6517C51.9778 75.7502 51.224 75.7178 49.7166 75.374C48.4879 74.6968 47.2717 73.9865 46.0809 73.2437L45.5426 70.7678C45.7959 68.4901 45.7452 64.8025 45.7832 62.4104Z" fill="#51A25B"/>
<path d="M59.9963 70.3123C65.6334 71.8276 62.0358 72.7672 66.0831 73.2679C67.3752 75.5392 67.2611 75.6422 69.9847 76.3334C67.5778 77.7617 66.7862 77.6905 66.9002 80.8539C65.4434 75.402 60.8324 76.9415 59.9963 70.3123Z" fill="#4B7751"/>
<path d="M59.9963 70.3123C57.2411 70.6013 57.6148 70.9806 55.4677 69.8872C55.1573 67.6482 56.2784 67.1037 58.3369 66.4512C63.1125 67.253 63.7332 71.5308 66.0831 73.2679C62.0358 72.7672 65.6334 71.8276 59.9963 70.3123Z" fill="#407F4A"/>
<path d="M45.5426 70.7678L47.7214 70.4037C49.2606 71.5607 50.1663 73.4083 49.7166 75.374C48.4879 74.6968 47.2717 73.9865 46.0809 73.2437L45.5426 70.7678Z" fill="#1F3E28"/>
<path d="M72.9551 72.0753C74.1269 73.3555 74.0953 74.4668 74.3739 76.2184C73.2022 76.2896 71.5491 76.4459 70.4217 76.43C71.0741 74.1809 71.15 73.7317 72.9551 72.0753Z" fill="#4C9E5A"/>
<path d="M102.92 75.6181C103.351 75.6238 103.775 75.6237 104.206 75.6174C109.735 75.496 106.796 73.597 110.768 69.4926L111.572 69.7887L113.124 70.6083C113.599 72.8562 113.624 73.8905 113.713 76.1631C111.11 76.4243 110.78 76.0297 109.007 77.3843C108.779 80.0057 109.235 79.7071 107.74 81.1411C105.675 81.2815 104.447 80.9537 103.199 82.0916L102.939 84.9945C99.443 87.0098 91.2091 82.9213 89.784 89.6217C88.6249 95.0952 90.2653 101.967 89.3913 107.821C88.2512 107.985 87.3582 108.012 86.3511 108.566L85.9204 108.096C86.7438 102.832 86.2118 90.3682 86.0217 84.6234L83.6656 86.1712C83.6213 84.4494 83.5262 84.2283 82.8232 82.6507C80.8661 81.1024 79.1623 81.2733 76.4388 80.7872L79.7576 80.3088C81.5627 78.6385 81.0054 79.486 81.6514 76.7871L82.8549 76.4446C84.8373 76.8525 89.5433 78.6016 91.0507 77.5146C93.2486 75.9325 93.0586 76.0088 95.7504 75.9357C98.1129 75.8201 100.564 75.6663 102.92 75.6181Z" fill="#052123"/>
<path d="M95.7504 75.9357C98.1129 75.8201 100.564 75.6663 102.92 75.6181C95.8518 86.0371 93.9326 78.3971 87.2062 81.3864C86.0028 82.8858 86.3764 82.4715 86.0217 84.6234L83.6656 86.1712C83.6213 84.4494 83.5262 84.2283 82.8232 82.6507C80.8661 81.1024 79.1623 81.2733 76.4388 80.7872L79.7576 80.3088C81.5627 78.6385 81.0054 79.486 81.6514 76.7871L82.8549 76.4446C84.8373 76.8525 89.5433 78.6016 91.0507 77.5146C93.2486 75.9325 93.0586 76.0088 95.7504 75.9357Z" fill="#1B4F3A"/>
<path d="M103.281 113.922C105.891 113.874 110.552 113.443 112.662 114.522C112.193 121.9 117.026 117.988 119.388 120.143C119.401 122.17 119.014 123.146 120.059 124.418C125.506 125.549 139.175 124.573 145.787 124.888L145.914 125.413C145.857 128.296 146.326 127.826 144.761 129.473C139.276 130.996 136.001 129.49 130.352 130.372C126.387 130.438 121.256 131.578 118.945 127.953C118.463 127.204 118.001 126.447 117.545 125.682C116.094 125.296 115.233 125.223 113.732 125.056L109.729 124.212C108.253 122.719 108.716 122.478 108.557 119.869C107.056 119.723 105.555 119.551 104.06 119.355C103.148 116.963 102.863 116.487 103.281 113.922Z" fill="#070912"/>
<path d="M108.557 119.869C110.996 119.758 111.471 119.318 113.301 120.396C113.675 122.373 113.694 123.053 113.732 125.056L109.729 124.212C108.253 122.719 108.716 122.478 108.557 119.869Z" fill="#1B202C"/>
<path d="M39.1772 119.45C41.6474 119.674 46.3787 119.54 48.1205 120.334L48.8995 121.574L48.7665 124.543C45.473 124.951 45.4539 124.384 43.5728 126.272C43.2624 127.567 43.0851 128.393 42.5974 129.626C41.0266 130.079 40.9443 130.08 39.3038 130.002L32.6978 130.365C27.8651 130.577 21.7593 130.344 16.838 130.286L10.9223 130.161L10.8842 124.741C16.3629 124.801 33.9392 125.323 38.4742 124.353C39.5319 122.558 39.1519 121.793 39.1772 119.45Z" fill="#070912"/>
<path d="M39.3038 130.002C40.1272 126.679 39.7092 126.694 41.9197 124.735C44.1745 123.886 46.347 124.315 48.7665 124.543C45.473 124.951 45.4539 124.384 43.5728 126.272C43.2624 127.567 43.0851 128.393 42.5974 129.626C41.0266 130.079 40.9443 130.08 39.3038 130.002Z" fill="#101622"/>
<path d="M41.3687 57.9643C45.2386 57.8302 61.1807 56.7489 64.2906 58.6079C67.0901 60.2789 68.9396 63.4219 73.4619 65.0427L74.0572 65.2536C72.8791 65.8318 69.5476 67.3852 68.6419 68.0186C67.0204 66.0668 65.5383 65.1977 63.6255 62.9022C60.104 62.0597 50.1155 62.4257 45.7832 62.4104C45.7452 64.8025 45.7959 68.4901 45.5426 70.7678L46.0809 73.2437C47.2717 73.9865 48.4879 74.6968 49.7166 75.374C51.224 75.7178 51.9778 75.7502 53.1875 76.6517C51.5281 76.8544 47.7911 76.3182 45.6693 76.2458C44.1176 76.4122 43.9909 76.3874 42.4454 76.1022C40.3679 73.2069 41.318 62.0864 41.3687 57.9643Z" fill="#0E2F2A"/>
<path d="M64.259 87.7798C67.4385 87.8358 70.6243 87.8332 73.8039 87.7722C76.4071 90.7234 75.9764 108.787 75.7357 113.494C70.8144 111.045 74.3169 110.53 70.1177 108.585L70.7574 108.093C71.4224 105.322 71.1374 95.6423 71.112 92.2711C67.6411 92.186 64.2019 93.0418 61.0603 91.8842C59.2615 90.2691 59.7999 90.5137 59.3249 87.5352C61.054 87.5702 62.5362 87.574 64.259 87.7798Z" fill="#052123"/>
<path d="M45.6693 76.2458C47.7911 76.3182 51.5281 76.8544 53.1875 76.6517C53.6499 80.3342 52.9721 80.9009 57.0194 81.7904L57.6148 82.7968C60.4017 86.2201 60.256 86.0066 64.259 87.7798C62.5362 87.574 61.054 87.5702 59.3249 87.5352C54.0552 88.792 50.6603 83.7136 46.822 80.8901C45.3399 79.798 45.7263 77.9803 45.6693 76.2458Z" fill="#0E2F2A"/>
</svg>
