<svg width="168" height="153" viewBox="0 0 168 153" fill="none" xmlns="http://www.w3.org/2000/svg">
<path d="M45.8896 0.47526C66.6178 0.305448 87.7799 -0.0539303 108.512 0.00684421C128.379 0.0676188 116.799 7.32305 123.678 14.9306L134.837 14.986C140.222 20.2894 135.356 30.1725 139.748 29.9723C160.722 29.0196 146.943 38.3967 154.298 46.0578C159.663 46.1097 161.529 46.0026 166.804 47.5023C169.041 59.4373 167.406 85.4023 167.652 98.1417C167.946 113.35 159.729 101.391 152.037 108.609L151.784 119.62C147.77 123.188 146.671 121.883 139.858 121.805C132.252 126.688 141.685 129.121 133.559 137.892C130.047 138.128 127.198 138.201 123.678 138.187C120.116 144.102 121.319 144.486 121.125 152.397C101.213 152.444 80.9327 152.682 61.04 152.987C35.5658 153.379 50.4903 144.706 42.6156 136.666L33.2852 136.801C25.8122 132.004 34.1745 130.091 28.1842 121.822L17.5503 121.443C12.132 114.556 18.4826 115.781 13.5305 106.863C9.34035 106.178 6.35154 105.899 2.11302 105.617L0.488639 102.941C0.0672971 93.8374 -1.04248 52.6144 2.65278 46.6138L12.0208 46.0668C15.4902 42.3363 14.0934 40.0842 13.9321 33.483C19.3073 27.4627 28.5697 33.9191 29.8929 28.596C31.6625 21.48 26.7284 21.0742 33.8571 14.305C36.8549 13.8742 38.6998 13.5614 41.764 13.7688L43.7487 13.9225C46.4435 9.65936 45.9684 7.43575 45.9164 2.35035L45.8896 0.47526Z" fill="#5C7376"/>
<path d="M60.2581 61.3588L90.7884 61.5251C90.7668 73.9535 88.3231 112.125 92.8897 121.097C96.766 121.726 100.623 122.475 104.452 123.342L106.468 126.876C105.582 132.881 106.609 132.519 103.267 136.322L93.0116 136.596C85.3199 136.689 69.1637 137.374 62.32 135.985L59.8941 131.975C59.8242 125.512 58.8542 126.809 61.8986 122.403C66.3254 122.196 68.9378 122.001 73.3018 121.259C76.651 114.574 76.0683 84.1046 73.5689 77.1031L63.7328 74.5058C59.1106 70.0443 60.6418 69.8833 60.2581 61.3588Z" fill="#9CB7C0"/>
<path d="M76.7998 30.875C79.3978 28.7336 82.9513 28.1544 86.098 29.3609C89.2446 30.5675 91.4948 33.3721 91.9842 36.6968C92.4737 40.0233 91.1254 43.3535 88.4593 45.4091C84.4288 48.5175 78.6412 47.8275 75.4587 43.861C72.2745 39.8928 72.8715 34.114 76.7998 30.875Z" fill="#9CB7C0"/>
</svg>
