<svg width="168" height="184" viewBox="0 0 168 184" fill="none" xmlns="http://www.w3.org/2000/svg">
<path d="M10.6461 5.32448C10.7792 2.99878 10.4434 2.05799 11.5775 0.325104C18.8762 -0.253791 31.5605 0.115042 39.2774 0.1239L127.23 0.146674C130.861 0.146674 142.328 -0.0829634 145.439 0.341559C147.207 3.87377 144.616 3.14811 147.441 5.53139C148.614 5.56492 149.779 5.58385 150.951 5.58828C151.876 7.20539 151.522 8.53591 151.376 10.4586L152.225 10.7844L156.951 10.9173C157.091 12.7862 157.141 14.0073 157.572 15.8572C159.042 16.0413 160.088 16.0982 161.576 16.14C163.433 18.9389 161.038 18.9794 162.996 21.4202L166.81 21.5803C168.375 23.4783 167.716 115.364 167.684 128.629C167.64 138.496 167.659 148.363 167.741 158.23C167.785 162.145 168.774 175.783 166.569 177.7L163.338 177.871C161.222 180.616 163.617 181.268 161.386 183.432C133.851 184.615 98.3647 183.584 70.3163 183.584L39.2774 183.596C35.3493 183.609 26.1433 183.875 22.589 183.318C20.777 181.268 22.3103 179.724 20.5806 178.174C18.1603 178.655 19.1297 178.763 16.9122 177.814C15.0431 175.27 17.6978 174.688 15.1382 172.129L14.6884 172.166C13.0854 172.283 12.9016 172.364 11.4254 171.889C10.4434 170.089 10.7095 169.026 10.8805 167.018L10.7094 163.26C9.35992 161.811 8.11815 162.108 5.70422 161.751C5.76125 154.02 3.34731 158.269 0.667288 155.775C-0.0613234 150.058 -0.245036 13.8902 0.375868 11.9397C2.14354 10.3814 2.18791 10.8553 5.04534 10.5662C5.23541 8.87312 5.34942 7.19719 5.47614 5.49909C7.10443 5.172 8.96079 5.29791 10.6461 5.32448Z" fill="#343C46"/>
<path d="M129.543 97.4029L129.98 102.021L129.936 102.582C132.742 102.664 133.186 102.179 134.973 103.576C135.15 105.16 135.22 105.956 135.163 107.545L135.72 107.697L140.706 108.116L135.169 108.63L129.657 108.39C128.079 108.241 126.787 108.075 125.228 107.818C123.834 105.921 124.348 105.757 124.417 102.826L127.344 102.08L128.345 101.873C129.568 100.593 129.289 99.523 129.543 97.4029Z" fill="#FAC24D"/>
<path d="M129.936 102.582C132.742 102.664 133.186 102.179 134.973 103.576C135.15 105.16 135.22 105.956 135.163 107.545C133.287 107.763 132.47 107.958 130.601 107.457C129.378 105.576 129.853 105.294 129.936 102.582Z" fill="#FDEB93"/>
<path d="M113.824 38.4246C115.116 38.3132 117.828 37.9994 119 38.105L119.323 43.2898L119.095 43.6283C117.809 43.3486 115.382 43.3322 113.97 43.2709L113.545 43.1196L113.482 38.8675L113.824 38.4246Z" fill="#553431"/>
<path d="M151.376 10.4586L152.225 10.7844L156.951 10.9173C157.091 12.7862 157.141 14.0073 157.572 15.8572C159.042 16.0413 160.088 16.0982 161.576 16.14C163.433 18.9389 161.038 18.9794 162.996 21.4202L166.81 21.5803C168.375 23.4783 167.716 115.364 167.684 128.629C167.64 138.496 167.659 148.363 167.741 158.23C167.785 162.145 168.774 175.783 166.569 177.7L163.338 177.871C161.222 180.616 163.617 181.268 161.386 183.432C133.851 184.615 98.3647 183.584 70.3163 183.584L39.2774 183.596C35.3493 183.609 26.1433 183.875 22.589 183.318C20.777 181.268 22.3103 179.724 20.5806 178.174C18.1603 178.655 19.1297 178.763 16.9122 177.814C15.0431 175.27 17.6978 174.688 15.1382 172.129L14.6884 172.166C13.0854 172.283 12.9016 172.364 11.4254 171.889C10.4434 170.089 10.7095 169.026 10.8805 167.018L10.7094 163.26C9.35992 161.811 8.11815 162.108 5.70422 161.751C7.09809 161.513 8.46664 161.356 9.86684 161.183C11.1974 159.444 10.7412 159.035 10.7855 156.437L10.3104 151.537L10.2597 146.176L10.7158 145.587L14.4856 145.798C16.285 147.159 15.9618 147.543 16.8805 150.049C19.6366 151.825 125.849 151.651 139.306 151.02C141.48 149.331 139.281 148.349 141.182 145.551L145.376 145.222C147.22 142.649 146.459 115.313 146.282 110.544L146.098 107.839C145.224 78.7568 146.314 46.0495 146.257 16.5594C147.34 16.3165 150.21 16.2627 151.458 16.2064L151.363 10.8584L151.376 10.4586Z" fill="#848287"/>
<path d="M151.376 10.4586L152.225 10.7844C151.642 23.6808 152.054 38.4473 152.073 51.4709L152.2 119.83C152.238 125.697 151.465 152.187 152.276 156.725L151.667 156.755L151.439 161.81C148.823 162.135 148.132 161.737 146.542 163.261L146.073 167.461C107.596 166.932 69.0175 167.572 30.5341 167.342C24.1793 167.303 17.8119 167.459 11.4635 167.192L10.8805 167.018L10.7094 163.26C9.35992 161.811 8.11815 162.108 5.70422 161.751C7.09809 161.513 8.46664 161.356 9.86684 161.183C11.1974 159.444 10.7412 159.035 10.7855 156.437L10.3104 151.537L10.2597 146.176L10.7158 145.587L14.4856 145.798C16.285 147.159 15.9618 147.543 16.8805 150.049C19.6366 151.825 125.849 151.651 139.306 151.02C141.48 149.331 139.281 148.349 141.182 145.551L145.376 145.222C147.22 142.649 146.459 115.313 146.282 110.544L146.098 107.839C145.224 78.7568 146.314 46.0495 146.257 16.5594C147.34 16.3165 150.21 16.2627 151.458 16.2064L151.363 10.8584L151.376 10.4586Z" fill="#131821"/>
<path d="M146.257 16.5594C147.34 16.3165 150.21 16.2627 151.458 16.2064L151.389 146.212C151.313 148.677 151.731 149.285 150.47 150.952C148.829 151.188 148.031 151.267 146.371 151.265C146.231 153.795 146.624 154.526 145.332 156.307C134.01 157.182 112.449 156.443 100.424 156.434L10.7855 156.437L10.3104 151.537L10.2597 146.176L10.7158 145.587L14.4856 145.798C16.285 147.159 15.9618 147.543 16.8805 150.049C19.6366 151.825 125.849 151.651 139.306 151.02C141.48 149.331 139.281 148.349 141.182 145.551L145.376 145.222C147.22 142.649 146.459 115.313 146.282 110.544L146.098 107.839C145.224 78.7568 146.314 46.0495 146.257 16.5594Z" fill="#252A33"/>
<path d="M151.389 146.212C151.313 148.677 151.731 149.285 150.47 150.952C148.829 151.188 148.031 151.267 146.371 151.265C146.314 149.38 146.2 148.517 146.738 146.656C148.506 145.618 149.006 146.065 151.389 146.212Z" fill="#191D27"/>
<path d="M11.4635 167.192C11.5332 164.348 11.0706 164.259 12.4328 162.302C15.9808 161.632 143.482 161.668 145.211 162.057C145.743 164.27 145.877 165.207 146.073 167.461C107.596 166.932 69.0175 167.572 30.5341 167.342C24.1793 167.303 17.8119 167.459 11.4635 167.192Z" fill="#020205"/>
<path d="M151.439 161.81L147.625 161.267C146.143 159.836 146.605 160.542 145.978 158.435L146.725 157.13C149.006 156.103 148.835 156.505 151.667 156.755L151.439 161.81Z" fill="#020205"/>
<path d="M152.225 10.7844L156.951 10.9173C155.355 26.7986 158.82 152.458 155.887 156.251L152.276 156.725C151.465 152.187 152.238 125.697 152.2 119.83L152.073 51.4709C152.054 38.4473 151.642 23.6808 152.225 10.7844Z" fill="#020205"/>
<path d="M37.9532 91.8398L53.932 91.8113C59.3744 91.8081 65.0386 91.8904 70.462 91.793L113.685 91.7284C113.589 93.8131 113.368 95.1417 114.052 97.1226L114.008 97.6098L113.532 97.5079L113.273 102.094L113.482 102.6C113.526 104.219 113.627 106.113 113.57 107.707L113.963 107.863C115.668 107.911 116.523 107.855 118.221 107.67C119.577 105.94 119.114 105.217 119.19 102.595C120.831 102.648 122.814 102.652 124.417 102.826C124.348 105.757 123.834 105.921 125.228 107.818C126.787 108.075 128.079 108.241 129.657 108.39L135.169 108.63L140.706 108.116L135.72 107.697L135.784 103.575C137.013 102.43 138.907 102.288 140.415 103.041C140.84 104.894 140.776 105.492 140.706 107.405C142.48 108.147 144.141 107.9 146.098 107.839L146.282 110.544C146.459 115.313 147.22 142.649 145.376 145.222L141.182 145.551C139.281 148.349 141.48 149.331 139.306 151.02C125.849 151.651 19.6366 151.825 16.8805 150.049C15.9618 147.543 16.285 147.159 14.4856 145.798L10.7158 145.587L10.8299 140.511L10.7665 134.608L10.7918 124.173V118.634L16.5003 118.649L16.3229 113.432L21.9935 113.513L26.7896 113.61L27.0873 113.495L31.8709 113.365L32.232 113.465L38.1179 113.359L38.1052 108.424C40.139 108.475 41.3618 108.23 43.3322 107.912L43.1296 107.307C41.3809 107.667 40.3418 108.098 38.7325 107.433C37.6364 105.526 38.0103 104.963 37.9723 102.52L37.9532 91.8398Z" fill="#131821"/>
<path d="M37.9532 91.8398L53.932 91.8113C59.3744 91.8081 65.0386 91.8904 70.462 91.793L113.685 91.7284C113.589 93.8131 113.368 95.1417 114.052 97.1226L114.008 97.6098L113.532 97.5079L113.273 102.094L113.482 102.6C113.526 104.219 113.627 106.113 113.57 107.707L108.312 107.679L107.837 107.689L103.395 107.875L103.281 108.344L102.673 108.182C99.3593 107.357 86.9159 108.81 80.9856 107.851L81.2074 107.281C81.2327 106.046 81.1314 104.777 81.0553 103.539C79.4017 102.155 79.1546 102.624 76.5316 102.585L75.765 103.21L75.3278 108.34C73.0342 108.424 72.6225 108.371 70.405 107.931L70.2086 108.278L70.3163 113.382C67.8073 113.426 67.0343 112.968 65.4314 114.267C65.3617 115.464 65.2667 116.712 65.2477 117.905L65.7418 119.007C62.3902 119.037 57.6637 118.878 54.5212 119.663L54.122 119.603C52.1136 119.281 51.0302 119.146 49.0725 118.444L48.7113 118.03L48.8824 112.753C50.6754 112.255 51.9488 111.857 53.7165 111.221L54.724 107.603L54.5845 104.545L54.1854 102.619L51.2646 102.611L48.7873 102.802C47.216 102.636 44.5614 102.604 42.9014 102.536C43.0408 104.167 43.2246 105.671 43.1296 107.307C41.3809 107.667 40.3418 108.098 38.7325 107.433C37.6364 105.526 38.0103 104.963 37.9723 102.52L37.9532 91.8398Z" fill="#331F1A"/>
<path d="M54.1854 102.619L54.781 99.2686C57.4737 96.7968 66.4958 98.195 70.6584 98.3665C70.1072 99.2566 70.1199 100.388 70.7027 101.261L70.3669 102.201L70.481 102.569C71.9129 102.646 74.5992 102.628 75.765 103.21L75.3278 108.34C73.0342 108.424 72.6225 108.371 70.405 107.931L70.2086 108.278L70.3163 113.382C67.8073 113.426 67.0343 112.968 65.4314 114.267C65.3617 115.464 65.2667 116.712 65.2477 117.905L65.7418 119.007C62.3902 119.037 57.6637 118.878 54.5212 119.663L54.122 119.603C52.1136 119.281 51.0302 119.146 49.0725 118.444L48.7113 118.03L48.8824 112.753C50.6754 112.255 51.9488 111.857 53.7165 111.221L54.724 107.603L54.5845 104.545L54.1854 102.619Z" fill="#5C443F"/>
<path d="M54.724 107.603L58.1706 107.724C59.8243 109.678 58.5381 109.961 59.5835 112.302L59.7482 113.228C58.9816 114.917 59.0133 115.16 59.2857 117.005C60.9394 118.864 62.9921 119.245 65.2477 117.905L65.7418 119.007C62.3902 119.037 57.6637 118.878 54.5212 119.663L54.122 119.603C52.1136 119.281 51.0302 119.146 49.0725 118.444L48.7113 118.03L48.8824 112.753C50.6754 112.255 51.9488 111.857 53.7165 111.221L54.724 107.603Z" fill="#252A33"/>
<path d="M48.8824 112.753C50.6754 112.255 51.9488 111.857 53.7165 111.221C54.217 113.242 54.9647 115.33 54.4515 117.316C53.026 118.623 53.2098 118.639 50.7578 118.544C50.1939 118.518 49.6364 118.484 49.0725 118.444L48.7113 118.03L48.8824 112.753Z" fill="#331F1A"/>
<path d="M65.3744 108.339C66.6479 108.175 68.8527 108.266 70.2086 108.278L70.3163 113.382C67.8073 113.426 67.0343 112.968 65.4314 114.267C65.3617 115.464 65.2667 116.712 65.2477 117.905C62.9921 119.245 60.9394 118.864 59.2857 117.005C59.0133 115.16 58.9816 114.917 59.7482 113.228L59.5835 112.302C59.5138 110.674 59.3173 110.004 60.0396 108.618L62.0102 108.06L65.3744 108.339Z" fill="#10111B"/>
<path d="M62.0102 108.06L65.3744 108.339C65.1716 110.699 65.5074 111.322 64.2973 113.044C62.4283 113.455 61.5982 113.338 59.7482 113.228L59.5835 112.302C59.5138 110.674 59.3173 110.004 60.0396 108.618L62.0102 108.06Z" fill="#77584E"/>
<path d="M70.3669 102.201L70.481 102.569C71.9129 102.646 74.5992 102.628 75.765 103.21L75.3278 108.34C73.0342 108.424 72.6225 108.371 70.405 107.931L70.2086 108.278C68.8527 108.266 66.6479 108.175 65.3744 108.339L62.0102 108.06L62.0291 107.893L64.0692 107.504C65.5074 105.637 64.9562 105.368 64.8612 102.36C66.5908 102.428 68.6119 102.279 70.3669 102.201Z" fill="#42302F"/>
<path d="M70.481 102.569C71.9129 102.646 74.5992 102.628 75.765 103.21L75.3278 108.34C73.0342 108.424 72.6225 108.371 70.405 107.931L70.481 102.569Z" fill="#5C443F"/>
<path d="M54.1854 102.619C57.1505 102.377 62.1368 101.731 64.8612 102.36C64.9562 105.368 65.5074 105.637 64.0692 107.504L62.0291 107.893L62.0102 108.06L60.0396 108.618C59.3173 110.004 59.5138 110.674 59.5835 112.302C58.5381 109.961 59.8243 109.678 58.1706 107.724L54.724 107.603L54.5845 104.545L54.1854 102.619Z" fill="#331F1A"/>
<path d="M64.8612 102.36C64.9562 105.368 65.5074 105.637 64.0692 107.504L62.0291 107.893C59.8052 107.647 59.6469 107.386 58.9626 105.554C60.0397 102.327 62.0481 102.691 64.8612 102.36Z" fill="#252A33"/>
<path d="M76.5316 102.585C76.0881 100.44 75.8854 99.8786 76.4619 97.6781C77.7037 96.96 103.452 97.16 107.121 97.1891C108.052 98.3184 107.805 100.26 107.906 102.037L113.273 102.094L113.482 102.6C113.526 104.219 113.627 106.113 113.57 107.707L108.312 107.679L107.837 107.689L103.395 107.875L103.281 108.344L102.673 108.182C99.3593 107.357 86.9159 108.81 80.9856 107.851L81.2074 107.281C81.2327 106.046 81.1314 104.777 81.0553 103.539C79.4017 102.155 79.1546 102.624 76.5316 102.585Z" fill="#42302F"/>
<path d="M81.2074 107.281C84.4893 108.145 95.8113 109.212 97.541 104.905C98.6941 102.024 100.265 102.678 102.99 102.54C103.097 104.064 103.199 106.432 103.395 107.875L103.281 108.344L102.673 108.182C99.3593 107.357 86.9159 108.81 80.9856 107.851L81.2074 107.281Z" fill="#252A33"/>
<path d="M108.312 107.679C108.324 106.132 108.413 105.11 108.584 103.572C110.111 102.264 111.024 102.697 113.482 102.6C113.526 104.219 113.627 106.113 113.57 107.707L108.312 107.679Z" fill="#FBE99F"/>
<path d="M102.99 102.54C105.391 102.679 106.012 102.276 107.551 103.564C107.748 105.154 107.837 106.089 107.837 107.689L103.395 107.875C103.199 106.432 103.097 104.064 102.99 102.54Z" fill="#020205"/>
<path d="M53.932 91.8113C59.3744 91.8081 65.0386 91.8904 70.462 91.793C70.5064 93.8479 70.538 94.4464 70.1135 96.5102C67.2561 97.344 57.8538 96.9891 54.6036 96.7177C53.9003 95.7832 54.0207 93.2456 53.932 91.8113Z" fill="#10111B"/>
<path d="M42.9014 102.536L41.9891 102.023C41.7737 100.184 41.5773 99.6344 42.2235 97.9192C43.9659 96.7032 46.2784 97.1828 48.572 97.3017C48.7494 99.7616 48.3376 100.577 49.7061 102.057L51.2773 102.28L51.2646 102.611L48.7873 102.802C47.216 102.636 44.5614 102.604 42.9014 102.536Z" fill="#553431"/>
<path d="M48.572 97.3017C52.063 97.2239 51.6384 96.674 53.9446 98.3652L54.4958 99.9741C53.4441 101.716 53.4568 101.77 51.2773 102.28L49.7061 102.057C48.3376 100.577 48.7494 99.7616 48.572 97.3017Z" fill="#10111B"/>
<path d="M107.906 102.037C108.109 100.747 108.362 99.4831 108.61 98.202C110.504 96.8126 110.542 97.3396 113.532 97.5079L113.273 102.094L107.906 102.037Z" fill="#020205"/>
<path d="M70.6584 98.3665C71.2856 97.3605 72.5021 96.8866 73.6489 97.2042C74.7893 97.5212 75.5877 98.5531 75.6067 99.7381C75.6257 100.924 74.859 101.98 73.7249 102.331C72.5908 102.684 71.3617 102.248 70.7027 101.261C70.1199 100.388 70.1072 99.2566 70.6584 98.3665Z" fill="#201314"/>
<path d="M119.19 102.595C120.831 102.648 122.814 102.652 124.417 102.826C124.348 105.757 123.834 105.921 125.228 107.818C126.787 108.075 128.079 108.241 129.657 108.39L135.169 108.63L135.106 112.335L135.226 124.252C135.144 125.878 135.087 128.356 134.871 129.89C133.534 129.752 131.235 129.899 129.815 129.944C129.739 131.122 129.638 133.801 129.461 134.837L124.278 135.005C122.795 135.73 120.952 135.642 119.444 135.022L113.868 134.863C113.501 133.738 113.558 131.183 113.532 129.885C112.107 129.749 110.079 129.751 108.597 129.703C108.483 126.473 109.085 125.621 105.917 124.67C105.252 124.622 104.491 124.463 103.82 124.349C102.451 121.74 103.078 115.481 103.218 112.266L103.281 108.344L103.395 107.875L107.837 107.689L108.312 107.679L113.57 107.707L113.963 107.863C115.668 107.911 116.523 107.855 118.221 107.67C119.577 105.94 119.114 105.217 119.19 102.595Z" fill="#AB6735"/>
<path d="M108.312 107.679L113.57 107.707L113.963 107.863C113.507 110.736 112.645 114.553 114.046 117.063C115.858 118.804 116.656 119.05 118.931 120.075C118.874 122.585 119.209 121.896 118.094 123.669C115.674 124.449 115.167 124.145 113.862 125.877C113.868 127.206 113.881 128.534 113.9 129.863L113.532 129.885C112.107 129.749 110.079 129.751 108.597 129.703C108.483 126.473 109.085 125.621 105.917 124.67C105.252 124.622 104.491 124.463 103.82 124.349C102.451 121.74 103.078 115.481 103.218 112.266L103.281 108.344L103.395 107.875L107.837 107.689L108.312 107.679Z" fill="#F4B639"/>
<path d="M103.218 112.266L108.591 112.405C108.318 115.816 108.679 121.332 107.837 123.868C107.133 124.208 106.677 124.493 105.917 124.67C105.252 124.622 104.491 124.463 103.82 124.349C102.451 121.74 103.078 115.481 103.218 112.266Z" fill="#FCD85D"/>
<path d="M103.281 108.344C105.999 108.33 106.639 107.805 108.267 109.224L108.591 112.405L103.218 112.266L103.281 108.344Z" fill="#FDEB93"/>
<path d="M129.657 108.39L135.169 108.63L135.106 112.335L135.226 124.252C135.144 125.878 135.087 128.356 134.871 129.89C133.534 129.752 131.235 129.899 129.815 129.944L129.549 129.756C129.841 127.577 130.1 120.764 129.302 118.833C129.346 116.978 129.423 116.364 129.004 114.53L127.287 113.581L128.985 113.234C130.176 111.623 129.701 110.81 129.657 108.39Z" fill="#F4B639"/>
<path d="M113.9 129.863C116.599 129.795 117.004 129.327 118.911 130.519C119.387 132.402 119.387 133.124 119.444 135.022L113.868 134.863C113.501 133.738 113.558 131.183 113.532 129.885L113.9 129.863Z" fill="#F0C07C"/>
<path d="M124.278 135.005C124.259 133.124 124.126 132.2 124.734 130.397C126.692 129.285 126.933 129.705 129.549 129.756L129.815 129.944C129.739 131.122 129.638 133.801 129.461 134.837L124.278 135.005Z" fill="#F0C07C"/>
<path d="M129.302 118.833C127.585 118.828 126.451 119.04 125.083 118.089C123.809 115.881 123.891 116.707 124.094 114.634C125.57 113.229 124.785 113.584 127.287 113.581L129.004 114.53C129.423 116.364 129.346 116.978 129.302 118.833Z" fill="#F0C07C"/>
<path d="M51.2646 102.611L54.1854 102.619L54.5845 104.545L54.724 107.603L53.7165 111.221C51.9488 111.857 50.6754 112.255 48.8824 112.753L48.7113 118.03L49.0725 118.444C51.0302 119.146 52.1136 119.281 54.122 119.603C54.046 121.99 54.4516 122.359 53.2161 123.964C48.61 124.47 37.288 124.567 32.4538 124.288C25.7886 123.94 17.5711 124.165 10.7918 124.173V118.634L16.5003 118.649L16.3229 113.432L21.9935 113.513L26.7896 113.61L27.0873 113.495L31.8709 113.365L32.232 113.465L38.1179 113.359L38.1052 108.424C40.139 108.475 41.3618 108.23 43.3322 107.912L43.1296 107.307C43.2246 105.671 43.0408 104.167 42.9014 102.536C44.5614 102.604 47.216 102.636 48.7873 102.802L51.2646 102.611Z" fill="#020205"/>
<path d="M27.0873 113.495L31.8709 113.365L32.232 113.465L38.1179 113.359C40.3988 113.421 41.0387 113.07 42.7874 114.122C43.3069 116.069 43.1612 116.778 43.0472 118.753C38.156 119.703 21.797 118.908 16.5003 118.649L16.3229 113.432L21.9935 113.513L26.7896 113.61L27.0873 113.495Z" fill="#10111B"/>
<path d="M38.1179 113.359C40.3988 113.421 41.0387 113.07 42.7874 114.122C43.3069 116.069 43.1612 116.778 43.0472 118.753C40.2531 118.335 35.7674 118.551 32.8212 118.599L32.232 113.465L38.1179 113.359Z" fill="#252A33"/>
<path d="M27.0873 113.495L31.8709 113.365L32.232 113.465L32.8212 118.599C31.0219 118.629 29.9639 118.585 28.1708 118.408C26.6122 116.654 27.0811 116.456 26.7896 113.61L27.0873 113.495Z" fill="#2D323C"/>
<path d="M51.2646 102.611L54.1854 102.619L54.5845 104.545L54.724 107.603L53.7165 111.221C51.9488 111.857 50.6754 112.255 48.8824 112.753L48.8001 108.139L48.7873 102.802L51.2646 102.611Z" fill="#5C443F"/>
<path d="M48.8001 108.139C53.1527 108.083 53.159 108.547 54.5845 104.545L54.724 107.603L53.7165 111.221C51.9488 111.857 50.6754 112.255 48.8824 112.753L48.8001 108.139Z" fill="#42302F"/>
<path d="M42.9014 102.536C44.5614 102.604 47.216 102.636 48.7873 102.802L48.8001 108.139L48.8824 112.753L48.7113 118.03C47.9636 114.671 48.9395 112.741 47.9004 109.387C46.0884 107.705 46.3354 108.218 43.3322 107.912L43.1296 107.307C43.2246 105.671 43.0408 104.167 42.9014 102.536Z" fill="#10111B"/>
<path d="M76.5316 102.585C79.1546 102.624 79.4017 102.155 81.0553 103.539C81.1314 104.777 81.2327 106.046 81.2074 107.281L80.9856 107.851C86.9159 108.81 99.3593 107.357 102.673 108.182L103.281 108.344L103.218 112.266C103.078 115.481 102.451 121.74 103.82 124.349C104.491 124.463 105.252 124.622 105.917 124.67C109.085 125.621 108.483 126.473 108.597 129.703L108.16 130.384L107.824 130.338C106.196 129.573 104.922 129.777 103.097 129.804L102.66 130.084C100.886 130.076 100.373 130.089 98.6624 129.667C95.8557 126.425 98.3456 120.204 97.2748 114.229L97.1735 113.683C91.8642 113.086 85.6488 111.991 81.3024 115.009C80.6308 116.153 80.0417 117.197 79.4334 118.373C77.8875 118.679 77.7418 118.704 76.1768 118.582L75.4546 118.494L75.4356 118.993L75.7206 124.182L70.3606 124.118L68.65 124.085C68.4156 123.386 66.2487 119.614 65.7418 119.007L65.2477 117.905C65.2667 116.712 65.3617 115.464 65.4314 114.267C67.0343 112.968 67.8073 113.426 70.3163 113.382L70.2086 108.278L70.405 107.931C72.6225 108.371 73.0342 108.424 75.3278 108.34L75.765 103.21L76.5316 102.585Z" fill="#020205"/>
<path d="M70.3163 113.382C70.462 115.845 70.0692 116.396 71.3553 118.089C73.199 118.358 73.6679 118.258 75.5243 117.996L75.4546 118.494L75.4356 118.993L75.7206 124.182L70.3606 124.118L68.65 124.085C68.4156 123.386 66.2487 119.614 65.7418 119.007L65.2477 117.905C65.2667 116.712 65.3617 115.464 65.4314 114.267C67.0343 112.968 67.8073 113.426 70.3163 113.382Z" fill="#252A33"/>
<path d="M70.3606 124.118C70.2972 122.493 70.3542 121.632 70.5126 120.011C72.1219 118.661 72.8949 119.102 75.4356 118.993L75.7206 124.182L70.3606 124.118Z" fill="#020205"/>
<path d="M70.405 107.931C72.6225 108.371 73.0342 108.424 75.3278 108.34L75.5243 117.996C73.6679 118.258 73.199 118.358 71.3553 118.089C70.0692 116.396 70.462 115.845 70.3163 113.382L70.2086 108.278L70.405 107.931Z" fill="#331F1A"/>
<path d="M102.673 108.182L103.281 108.344L103.218 112.266C103.078 115.481 102.451 121.74 103.82 124.349C104.491 124.463 105.252 124.622 105.917 124.67C109.085 125.621 108.483 126.473 108.597 129.703L108.16 130.384L107.824 130.338C106.196 129.573 104.922 129.777 103.097 129.804C102.324 125.869 102.641 112.774 102.673 108.182Z" fill="#C58453"/>
<path d="M76.5316 102.585C79.1546 102.624 79.4017 102.155 81.0553 103.539C81.1314 104.777 81.2327 106.046 81.2074 107.281L80.9856 107.851C78.4577 107.719 78.5084 107.33 76.5886 108.391C75.3785 110.662 76.1135 115.609 76.1768 118.582L75.4546 118.494L75.5243 117.996L75.3278 108.34L75.765 103.21L76.5316 102.585Z" fill="#10111B"/>
<path d="M140.675 124.203L140.447 129.441L140.174 129.66C140.719 132.298 141.093 132.086 140.333 134.305C138.692 135.022 138.166 134.86 136.309 134.791C134.447 136.864 136.778 137.617 134.713 140.52C133.224 140.536 131.735 140.54 130.246 140.53C128.897 142.799 130.873 143.716 129.03 145.459C125.665 145.738 116.878 146.181 113.894 145.275C113.235 143.599 113.406 142.999 113.532 141.192L112.899 140.53L109.332 140.553C108.02 139.119 107.621 137.529 108.477 135.707C110.301 135.254 111.461 135.381 113.311 135.445L113.393 135.053L113.868 134.863L119.444 135.022C120.952 135.642 122.795 135.73 124.278 135.005L129.461 134.837C129.638 133.801 129.739 131.122 129.815 129.944C131.235 129.899 133.534 129.752 134.871 129.89C135.087 128.356 135.144 125.878 135.226 124.252L140.675 124.203Z" fill="#020205"/>
<path d="M124.278 135.005L129.461 134.837L129.828 135.007L129.575 139.65C126.73 140.711 117.708 140.309 114.4 140.061C113.165 138.992 113.494 137.557 113.311 135.445L113.393 135.053L113.868 134.863L119.444 135.022C120.952 135.642 122.795 135.73 124.278 135.005Z" fill="#C58453"/>
<path d="M140.675 124.203L140.447 129.441L140.174 129.66C138.413 129.704 136.62 129.562 135.087 130.304L134.871 129.89C135.087 128.356 135.144 125.878 135.226 124.252L140.675 124.203Z" fill="#C58453"/>
<path d="M129.815 129.944C131.235 129.899 133.534 129.752 134.871 129.89L135.087 130.304C135.106 132.648 135.505 132.885 134.333 134.57C132.609 134.842 131.577 134.934 129.828 135.007L129.461 134.837C129.638 133.801 129.739 131.122 129.815 129.944Z" fill="#C58453"/>
<path d="M69.6827 129.703C78.8189 129.536 88.2212 129.767 97.3827 129.889L97.598 140.032C93.974 140.109 85.085 140.926 82.1262 138.909C81.3595 138.386 81.5749 137.442 81.4988 136.257C78.1155 133.461 61.9784 135.518 55.4589 134.796C54.1031 133.79 54.1031 133.705 53.5392 132.056L54.2868 130.806C56.4727 129.552 59.2604 129.774 61.8264 129.736L69.6827 129.703Z" fill="#252A33"/>
<path d="M10.7918 124.173C17.5711 124.165 25.7886 123.94 32.4538 124.288L32.3714 128.615C29.5647 130.674 29.2289 128.217 26.9037 130.885L27.1571 133.969C24.6672 136.382 21.2332 132.815 21.6134 137.742C21.8034 140.116 19.3831 139.815 17.4761 139.992C14.8847 137.503 18.6102 134.462 11.6282 134.584C11.3431 134.588 11.0516 134.596 10.7665 134.608L10.7918 124.173Z" fill="#252A33"/>
<path d="M135.72 107.697L135.784 103.575C137.013 102.43 138.907 102.288 140.415 103.041C140.84 104.894 140.776 105.492 140.706 107.405C142.48 108.147 144.141 107.9 146.098 107.839L146.282 110.544C145.623 116.112 146.884 126.556 144.464 129.059C142.81 129.371 142.132 129.408 140.447 129.441L140.675 124.203L135.226 124.252L135.106 112.335L135.169 108.63L140.706 108.116L135.72 107.697Z" fill="#020205"/>
<path d="M140.706 108.116L140.561 110.211L140.675 124.203L135.226 124.252L135.106 112.335L135.169 108.63L140.706 108.116Z" fill="#FCD85D"/>
<path d="M140.706 108.116L140.561 110.211L139.858 112.006C138.014 112.665 137.051 112.453 135.106 112.335L135.169 108.63L140.706 108.116Z" fill="#FBE99F"/>
<path d="M65.7418 119.007C66.2487 119.614 68.4156 123.386 68.65 124.085L70.3606 124.118C70.3099 125.848 70.4747 128.307 69.6827 129.703L61.8264 129.736C59.4251 129.326 57.461 129.906 55.1231 128.78C54.027 126.748 54.4389 126.756 54.5466 124.086C54.6289 123.044 54.5339 120.806 54.5212 119.663C57.6637 118.878 62.3902 119.037 65.7418 119.007Z" fill="#020205"/>
<path d="M65.7418 119.007C66.2487 119.614 68.4156 123.386 68.65 124.085C64.253 124.258 59.0133 124.107 54.5466 124.086C54.6289 123.044 54.5339 120.806 54.5212 119.663C57.6637 118.878 62.3902 119.037 65.7418 119.007Z" fill="#42302F"/>
<path d="M76.1768 118.582C77.7418 118.704 77.8875 118.679 79.4334 118.373C80.0417 117.197 80.6308 116.153 81.3024 115.009C85.6488 111.991 91.8642 113.086 97.1735 113.683C95.5896 113.812 93.5622 113.744 91.9339 113.742C91.3827 117.249 91.6234 120.323 91.7628 123.847L75.7206 124.182L75.4356 118.993L75.4546 118.494L76.1768 118.582Z" fill="#10111B"/>
<path d="M91.9339 113.742C93.5622 113.744 95.5896 113.812 97.1735 113.683C96.5336 117.626 98.0289 121.681 94.6963 125.228C92.0036 123.301 92.0923 116.713 91.9339 113.742Z" fill="#191D27"/>
<path d="M108.597 129.703C110.079 129.751 112.107 129.749 113.532 129.885C113.558 131.183 113.501 133.738 113.868 134.863L113.393 135.053C112.018 134.979 110.637 134.897 109.262 134.808C107.729 133.194 108.236 133.284 108.16 130.384L108.597 129.703Z" fill="#C58453"/>
<path d="M103.097 129.804C104.922 129.777 106.196 129.573 107.824 130.338C107.729 133.499 108.141 133.875 105.233 135.358L103.839 134.867C102.274 132.722 102.755 133.189 102.66 130.084L103.097 129.804Z" fill="#020205"/>
<path d="M37.9468 129.939C41.8877 129.737 44.9478 129.718 48.876 129.797L48.8253 139.978C46.8739 140.12 45.2329 140.512 43.649 139.545C43.9151 136.568 43.763 136.458 41.6025 134.594C40.6522 134.513 40.1961 134.458 39.2457 134.541L38.6058 134.601C37.6617 132.857 37.8581 131.88 37.9468 129.939Z" fill="#252A33"/>
<path d="M10.6461 5.32448C10.7792 2.99878 10.4434 2.05799 11.5775 0.325104C18.8762 -0.253791 31.5605 0.115042 39.2774 0.1239L127.23 0.146674C130.861 0.146674 142.328 -0.0829634 145.439 0.341559C147.207 3.87377 144.616 3.14811 147.441 5.53139C148.614 5.56492 149.779 5.58385 150.951 5.58828C151.876 7.20539 151.522 8.53591 151.376 10.4586L151.363 10.8584L151.458 16.2064C150.21 16.2627 147.34 16.3165 146.257 16.5594C143.811 16.9175 143.196 16.7948 140.783 16.4987C140.738 14.5685 140.973 12.6236 139.889 11.1767C134.871 10.4985 126.179 10.7743 120.692 10.7825L85.7375 10.8844L40.1454 10.785C34.9945 10.7737 21.0812 10.4358 16.8425 11.264C14.9418 14.1142 17.286 14.5153 15.0811 16.1185L11.9323 16.1495C10.3737 17.9292 10.7221 22.759 10.7221 25.2486C10.7095 56.3761 10.7728 87.5053 10.7918 118.634V124.173L10.7665 134.608L10.8299 140.511L10.7158 145.587L10.2597 146.176L10.3104 151.537L10.7855 156.437C10.7412 159.035 11.1974 159.444 9.86684 161.183C8.46664 161.356 7.09809 161.513 5.70422 161.751C5.76125 154.02 3.34731 158.269 0.667288 155.775C-0.0613234 150.058 -0.245036 13.8902 0.375868 11.9397C2.14354 10.3814 2.18791 10.8553 5.04534 10.5662C5.23541 8.87312 5.34942 7.19719 5.47614 5.49909C7.10443 5.172 8.96079 5.29791 10.6461 5.32448Z" fill="#52656C"/>
<path d="M5.70422 161.751C5.76125 154.02 3.34731 158.269 0.667288 155.775C-0.0613234 150.058 -0.245036 13.8902 0.375868 11.9397C2.14354 10.3814 2.18791 10.8553 5.04534 10.5662L5.12138 105.311C5.12772 116.257 4.35475 140.807 5.38114 150.53C6.97141 151.726 7.99781 151.382 10.3104 151.537L10.7855 156.437C10.7412 159.035 11.1974 159.444 9.86684 161.183C8.46664 161.356 7.09809 161.513 5.70422 161.751Z" fill="#020205"/>
<path d="M10.6461 5.32448C10.7792 2.99878 10.4434 2.05799 11.5775 0.325104C18.8762 -0.253791 31.5605 0.115042 39.2774 0.1239L127.23 0.146674C130.861 0.146674 142.328 -0.0829634 145.439 0.341559C147.207 3.87377 144.616 3.14811 147.441 5.53139C148.614 5.56492 149.779 5.58385 150.951 5.58828C151.876 7.20539 151.522 8.53591 151.376 10.4586L151.363 10.8584C149.108 11.0103 147.378 11.5114 145.997 9.72216C146.016 8.24993 145.952 7.61538 145.743 6.15581C145.433 5.91223 145.053 5.61614 144.609 5.2688C136.709 5.1992 125.621 5.26562 118.063 5.26689L10.6461 5.32448Z" fill="#020205"/>
<path d="M5.04534 10.5662C5.23541 8.87312 5.34942 7.19719 5.47614 5.49909C5.78659 7.96398 5.46354 9.1901 6.88909 10.6984L10.8109 11.2191L6.35681 11.6063C5.1847 13.0962 5.74858 128.554 5.74225 140.714L10.8299 140.511L10.7158 145.587L10.2597 146.176L10.3104 151.537C7.99781 151.382 6.97141 151.726 5.38114 150.53C4.35475 140.807 5.12772 116.257 5.12138 105.311L5.04534 10.5662Z" fill="#191D27"/>
<path d="M10.8299 140.511L10.7158 145.587L10.2597 146.176C8.97352 146.188 7.95338 146.098 6.66089 145.992C5.22901 144.195 5.76126 143.619 5.74225 140.714L10.8299 140.511Z" fill="#48515C"/>
<path d="M145.997 9.72216C147.378 11.5114 149.108 11.0103 151.363 10.8584L151.458 16.2064C150.21 16.2627 147.34 16.3165 146.257 16.5594C143.811 16.9175 143.196 16.7948 140.783 16.4987C142.132 16.2368 143.482 15.9875 144.831 15.7515C146.377 13.7883 145.857 12.79 145.997 9.72216Z" fill="#474957"/>
<path d="M5.47614 5.49909C8.39692 5.83694 9.01781 5.37065 10.6968 7.00294C10.7475 8.40178 10.8172 9.8215 10.8109 11.2191L6.88909 10.6984C5.46354 9.1901 5.78659 7.96398 5.47614 5.49909Z" fill="#020205"/>
<path d="M106.132 64.4976L107.976 64.2357L107.799 68.7435L108.134 68.6549L108.724 70.0974L108.103 70.2847L108.046 73.0621L108.489 75.0284C109.541 75.3637 109.883 75.5239 111.017 75.5542L113.564 75.8471L114.065 75.8705L114.267 81.1976L114.419 86.2976L119.912 86.3185L124.062 86.4931L124.379 91.8195L113.685 91.7284L70.462 91.793C65.0386 91.8904 59.3744 91.8081 53.932 91.8113L37.9532 91.8398L37.9405 86.1793L37.9786 81.321L37.9849 76.2343L37.3957 75.3891L37.8202 75.0588C39.6385 75.4492 40.817 75.9654 42.4136 75.1898C43.6427 73.424 43.1929 70.5997 43.1042 68.2892C44.7452 71.1103 45.5435 70.5491 48.7811 70.3555L48.7937 65.1372C50.7197 64.8905 52.0566 64.5571 53.9194 65.079L54.5022 65.1164L54.6479 64.8032L59.5644 64.6248L59.6405 69.2686C61.858 69.857 62.3586 69.7367 64.5317 69.4622L64.5127 68.188L65.1336 64.7317L65.8178 64.5653C68.0227 64.7096 68.9605 64.3357 70.2403 65.565L70.4493 66.3741L70.6268 69.597C74.5803 69.5394 83.9064 70.539 86.2633 70.0619L86.4978 68.9598L86.7829 68.853L87.0426 69.9696L91.9465 69.8469L91.9909 69.3028C94.4175 69.7817 95.2918 69.8513 97.7691 69.9019L97.674 64.7444L102.578 64.8741L106.132 64.4976Z" fill="#553431"/>
<path d="M119.912 86.3185L124.062 86.4931L124.379 91.8195L113.685 91.7284L70.462 91.793C65.0386 91.8904 59.3744 91.8081 53.932 91.8113L37.9532 91.8398L37.9405 86.1793L114.419 86.2976L119.912 86.3185Z" fill="#925C41"/>
<path d="M54.6479 64.8032L59.5644 64.6248L59.6405 69.2686V69.9557C60.0523 72.6698 59.4631 73.1741 59.5328 75.3239L54.179 75.4486C52.3924 83.7986 50.5804 80.6409 43.0852 81.2691L37.9786 81.321L37.9849 76.2343L37.3957 75.3891L37.8202 75.0588C39.6385 75.4492 40.817 75.9654 42.4136 75.1898C43.6427 73.424 43.1929 70.5997 43.1042 68.2892C44.7452 71.1103 45.5435 70.5491 48.7811 70.3555L48.7937 65.1372C50.7197 64.8905 52.0566 64.5571 53.9194 65.079L54.5022 65.1164L54.6479 64.8032Z" fill="#252A33"/>
<path d="M54.6479 64.8032L59.5644 64.6248L59.6405 69.2686V69.9557C60.0523 72.6698 59.4631 73.1741 59.5328 75.3239L54.179 75.4486C54.5085 73.4784 54.2551 72.0631 54.0397 70.1056C53.8496 68.9415 53.9257 66.3741 53.9194 65.079L54.5022 65.1164L54.6479 64.8032Z" fill="#4E3F30"/>
<path d="M54.6479 64.8032L59.5644 64.6248L59.6405 69.2686V69.9557C57.9045 70.3505 56.8338 70.8142 55.2118 70.1974C54.065 68.152 54.4895 67.809 54.5022 65.1164L54.6479 64.8032Z" fill="#D0B37D"/>
<path d="M48.7937 65.1372C50.7197 64.8905 52.0566 64.5571 53.9194 65.079C53.9257 66.3741 53.8496 68.9415 54.0397 70.1056C53.989 73.2551 54.3438 73.827 51.6828 75.5966L50.2509 75.2992C48.4642 73.2405 49.0155 73.6378 48.7811 70.3555L48.7937 65.1372Z" fill="#10111B"/>
<path d="M37.9849 76.2343C40.5952 76.2147 41.0387 75.7415 42.7873 77.041C43.0028 78.7011 43.0852 79.5957 43.0852 81.2691L37.9786 81.321L37.9849 76.2343Z" fill="#42302F"/>
<path d="M106.132 64.4976L107.976 64.2357L107.799 68.7435L108.134 68.6549L108.724 70.0974L108.103 70.2847L108.046 73.0621L107.653 75.0088C106.069 75.8085 105.397 75.6877 103.604 75.7269C103.402 77.4807 103.243 78.6562 103.288 80.4517L97.5474 80.6554L91.8262 80.9243L91.9339 75.5947L92.3013 75.4403C92.0352 74.1433 92.0923 71.7651 92.0669 70.3467L91.9465 69.8469L91.9909 69.3028C94.4175 69.7817 95.2918 69.8513 97.7691 69.9019L97.674 64.7444L102.578 64.8741L106.132 64.4976Z" fill="#2A3621"/>
<path d="M92.3013 75.4403L97.6424 75.4334L97.5474 80.6554L91.8262 80.9243L91.9339 75.5947L92.3013 75.4403Z" fill="#952C2F"/>
<path d="M102.92 75.1227L103.604 75.7269C103.402 77.4807 103.243 78.6562 103.288 80.4517L97.5474 80.6554L97.6424 75.4334L102.92 75.1227Z" fill="#844D33"/>
<path d="M92.0669 70.3467C94.6899 70.4232 95.824 69.962 97.5283 71.3127C97.7121 73.0399 97.7628 73.7055 97.6424 75.4334L92.3013 75.4403C92.0352 74.1433 92.0923 71.7651 92.0669 70.3467Z" fill="#2B6239"/>
<path d="M102.92 75.1227C102.844 73.3348 102.806 72.8888 103.186 71.1483C105.138 69.9051 105.391 70.3359 108.103 70.2847L108.046 73.0621L107.653 75.0088C106.069 75.8085 105.397 75.6877 103.604 75.7269L102.92 75.1227Z" fill="#448152"/>
<path d="M97.674 64.7444L102.578 64.8741L102.825 65.3017C102.73 68.0867 103.186 67.9507 101.786 69.7861C100.075 69.9841 99.4797 70.0632 97.7691 69.9019L97.674 64.7444Z" fill="#2B6239"/>
<path d="M106.132 64.4976L107.976 64.2357L107.799 68.7435C106.55 69.8583 105.689 70.0101 104.206 69.5805C103.18 67.8742 103.154 67.2326 102.825 65.3017L102.578 64.8741L106.132 64.4976Z" fill="#0A2927"/>
<path d="M65.8178 64.5653C68.0227 64.7096 68.9605 64.3357 70.2403 65.565L70.4493 66.3741L70.6268 69.597L70.424 70.2714L70.4494 75.5402L64.8042 75.5561L59.5328 75.3239C59.4631 73.1741 60.0523 72.6698 59.6405 69.9557V69.2686C61.858 69.857 62.3586 69.7367 64.5317 69.4622L64.5127 68.188L65.1336 64.7317L65.8178 64.5653Z" fill="#796247"/>
<path d="M65.8178 64.5653C68.0227 64.7096 68.9605 64.3357 70.2403 65.565L70.4493 66.3741L70.6268 69.597L70.424 70.2714C67.1294 70.5054 66.179 71.1729 64.5127 68.188L65.1336 64.7317L65.8178 64.5653Z" fill="#F0C07C"/>
<path d="M59.6405 69.2686C61.858 69.857 62.3586 69.7367 64.5317 69.4622C64.6268 71.4272 64.7788 73.6119 64.8042 75.5561L59.5328 75.3239C59.4631 73.1741 60.0523 72.6698 59.6405 69.9557V69.2686Z" fill="#6D4C41"/>
<path d="M86.4978 68.9598L86.7829 68.853L87.0426 69.9696L91.9465 69.8469L92.0669 70.3467C92.0923 71.7651 92.0352 74.1433 92.3013 75.4403L91.9339 75.5947L91.8262 80.9243C90.2739 80.9812 88.4809 81.0945 86.9477 81.0825C86.4788 80.9477 82.8294 80.6763 82.1388 80.6187C81.9424 78.6878 81.6636 77.3915 81.2581 75.5264L81.5939 75.3872C83.4249 75.5112 83.7544 75.5226 85.5347 75.1227C86.7702 73.3468 86.295 72.6261 86.2633 70.0619L86.4978 68.9598Z" fill="#42302F"/>
<path d="M87.0426 69.9696L91.9465 69.8469L92.0669 70.3467C92.0923 71.7651 92.0352 74.1433 92.3013 75.4403L91.9339 75.5947L86.7892 75.3847L87.0426 69.9696Z" fill="#5C443F"/>
<path d="M86.7892 75.3847L91.9339 75.5947L91.8262 80.9243C90.2739 80.9812 88.4809 81.0945 86.9477 81.0825C86.7006 79.2066 86.7766 77.2839 86.7892 75.3847Z" fill="#412117"/>
<path d="M70.6268 69.597C74.5803 69.5394 83.9064 70.539 86.2633 70.0619C86.295 72.6261 86.7702 73.3468 85.5347 75.1227C83.7544 75.5226 83.4249 75.5112 81.5939 75.3872L81.2581 75.5264L76.2529 75.515L76.1958 70.5725L75.5622 70.3252L70.424 70.2714L70.6268 69.597Z" fill="#10111B"/>
<path d="M76.1958 70.5725C78.8378 70.6541 79.1736 70.1759 80.7449 71.6127C80.954 72.6446 81.2581 74.4673 81.5939 75.3872L81.2581 75.5264L76.2529 75.515L76.1958 70.5725Z" fill="#252A33"/>
<path d="M103.604 75.7269C105.397 75.6877 106.069 75.8085 107.653 75.0088L108.046 73.0621L108.489 75.0284C109.541 75.3637 109.883 75.5239 111.017 75.5542L113.564 75.8471C113.526 78.1912 113.925 79.2813 112.797 80.9522L111.866 81.2261C109.009 80.9439 106.151 80.6858 103.288 80.4517C103.243 78.6562 103.402 77.4807 103.604 75.7269Z" fill="#952C2F"/>
<path d="M111.017 75.5542L113.564 75.8471C113.526 78.1912 113.925 79.2813 112.797 80.9522L111.866 81.2261C109.319 80.5124 108.749 80.4916 108.02 78.0007C108.977 76.0787 108.692 76.6487 111.017 75.5542Z" fill="#912A36"/>
<path d="M64.8042 75.5561L70.4494 75.5402L70.2973 76.1837L70.3352 80.9559C68.935 80.7655 66.7746 80.6934 65.3047 80.5953C62.2382 80.775 60.971 81.3551 59.2857 78.5657L59.7863 77.0846C61.8391 75.4061 61.706 75.9072 64.8042 75.5561Z" fill="#D0B37D"/>
<path d="M70.2973 76.1837L70.3352 80.9559C68.935 80.7655 66.7746 80.6934 65.3047 80.5953C65.292 78.1696 64.8358 77.7882 66.103 76.297L70.2973 76.1837Z" fill="#F0C07C"/>
<path d="M59.5328 75.3239L64.8042 75.5561C61.706 75.9072 61.8391 75.4061 59.7863 77.0846L59.2857 78.5657C60.971 81.3551 62.2382 80.775 65.3047 80.5953C66.7746 80.6934 68.935 80.7655 70.3352 80.9559C67.5855 81.4671 57.5877 82.2263 55.3322 80.16C54.1981 79.1231 54.3628 77.1536 54.179 75.4486L59.5328 75.3239Z" fill="#937055"/>
<path d="M76.2529 75.515L81.2581 75.5264C81.6636 77.3915 81.9424 78.6878 82.1388 80.6187C80.4788 81.3741 78.7365 81.5639 77.0258 81.0034C75.6953 78.4752 76.1579 78.7523 76.2529 75.515Z" fill="#5C443F"/>
<path d="M70.424 70.2714L75.5622 70.3252C75.5305 72.8356 75.9614 73.3461 74.7386 75.141C72.9266 75.4738 72.2867 75.532 70.4494 75.5402L70.424 70.2714Z" fill="#F0C07C"/>
<path d="M71.3047 76.55C72.3881 75.5225 74.1051 75.5744 75.1251 76.6645C76.1452 77.7552 76.0882 79.4679 74.9858 80.4808C73.896 81.4848 72.2044 81.4235 71.1906 80.3428C70.1769 79.2622 70.2276 77.568 71.3047 76.55Z" fill="#331F1A"/>
<path d="M92.4344 37.7274L93.1884 38.0842L97.674 38.2904L97.6931 43.0703L98.0353 43.241L102.705 43.2462C102.711 44.8626 102.781 46.6733 102.584 48.2601C105.34 48.4075 111.22 49.013 113.431 47.8457L113.735 46.4595L114.388 48.4448C114.103 51.0097 113.913 57.1827 113.615 59.0168L113.64 59.4938L108.616 59.6355L107.976 64.2357L106.132 64.4976L102.578 64.8741L97.674 64.7444L97.7691 69.9019C95.2918 69.8513 94.4175 69.7817 91.9909 69.3028L91.9465 69.8469L87.0426 69.9696L86.7829 68.853L86.4978 68.9598L86.2633 70.0619C83.9064 70.539 74.5803 69.5394 70.6268 69.597L70.4493 66.3741L70.2403 65.565C68.9605 64.3357 68.0227 64.7096 65.8178 64.5653L65.1336 64.7317L64.5127 68.188L64.5317 69.4622C62.3586 69.7367 61.858 69.857 59.6405 69.2686L59.5644 64.6248L54.6479 64.8032L54.5022 65.1164L53.9194 65.079C52.0566 64.5571 50.7197 64.8905 48.7937 65.1372L48.7811 70.3555C45.5435 70.5491 44.7452 71.1103 43.1042 68.2892L43.1865 63.5138C42.9014 59.5988 43.2183 52.9906 43.307 48.8599C40.2278 49.0155 37.1613 48.8826 34.0757 48.7966C37.4337 48.3575 39.5372 48.3347 42.9078 48.31C43.0092 46.3437 43.2373 45.1435 43.5921 43.2455L48.0398 43.3233L48.7367 43.095C52.4241 43.2171 55.9088 43.367 59.6025 43.2132L64.7091 43.2335C69.9868 43.2702 76.0311 43.448 81.2328 43.088L81.6319 43.2708L86.2697 43.3309L86.6561 43.1411C86.3774 40.6737 85.934 40.5288 86.9477 38.6492C89.0068 37.9722 90.3182 37.9247 92.4344 37.7274Z" fill="#343C46"/>
<path d="M43.5921 43.2455L48.0398 43.3233L48.2615 43.8206C48.648 45.5706 48.6796 45.9799 49.5033 47.5395C52.3797 49.068 55.8961 48.2525 59.4885 48.095L59.7039 48.7979L59.6595 54.0181C56.7514 54.471 56.2826 53.9984 54.7684 55.7174L54.4642 59.5578C54.4072 61.4735 54.2615 62.9115 54.6479 64.8032L54.5022 65.1164L53.9194 65.079C52.0566 64.5571 50.7197 64.8905 48.7937 65.1372L48.7811 70.3555C45.5435 70.5491 44.7452 71.1103 43.1042 68.2892L43.1865 63.5138C42.9014 59.5988 43.2183 52.9906 43.307 48.8599C40.2278 49.0155 37.1613 48.8826 34.0757 48.7966C37.4337 48.3575 39.5372 48.3347 42.9078 48.31C43.0092 46.3437 43.2373 45.1435 43.5921 43.2455Z" fill="#252A33"/>
<path d="M48.7113 53.9889C51.7905 53.9712 56.7324 53.7878 59.6595 54.0181C56.7514 54.471 56.2826 53.9984 54.7684 55.7174L54.4642 59.5578C54.4072 61.4735 54.2615 62.9115 54.6479 64.8032L54.5022 65.1164L53.9194 65.079C52.0566 64.5571 50.7197 64.8905 48.7937 65.1372L48.8317 59.1256L48.7113 53.9889Z" fill="#252A33"/>
<path d="M43.1865 63.5138L44.1242 55.8806C44.8529 56.9144 45.5499 57.8388 46.3292 58.8365L48.8317 59.1256L48.7937 65.1372L48.7811 70.3555C45.5435 70.5491 44.7452 71.1103 43.1042 68.2892L43.1865 63.5138Z" fill="#42302F"/>
<path d="M48.7113 53.9889C48.6416 52.1523 48.3881 51.104 49.3575 49.578C51.9678 48.1456 56.3523 48.7479 59.7039 48.7979L59.6595 54.0181C56.7324 53.7878 51.7905 53.9712 48.7113 53.9889Z" fill="#020205"/>
<path d="M43.5921 43.2455L48.0398 43.3233L48.2615 43.8206C48.2235 46.7891 48.6923 46.6481 47.2985 48.7498C45.5118 49.1762 44.6818 48.7801 42.9078 48.31C43.0092 46.3437 43.2373 45.1435 43.5921 43.2455Z" fill="#10111B"/>
<path d="M92.4344 37.7274L93.1884 38.0842L97.674 38.2904L97.6931 43.0703L98.0353 43.241L102.705 43.2462C102.711 44.8626 102.781 46.6733 102.584 48.2601L101.818 48.8965L97.6171 48.732C93.5622 48.4859 90.5907 48.6384 86.5612 48.8358L86.3078 49.0117L81.5875 48.5422L81.2138 47.8033C81.1187 45.873 81.3088 45.1334 81.6319 43.2708L86.2697 43.3309L86.6561 43.1411C86.3774 40.6737 85.934 40.5288 86.9477 38.6492C89.0068 37.9722 90.3182 37.9247 92.4344 37.7274Z" fill="#42302F"/>
<path d="M92.4344 37.7274L93.1884 38.0842C91.6805 39.9385 91.9528 40.5402 91.9022 43.2948L86.6561 43.1411C86.3774 40.6737 85.934 40.5288 86.9477 38.6492C89.0068 37.9722 90.3182 37.9247 92.4344 37.7274Z" fill="#77584E"/>
<path d="M102.705 43.2462C102.711 44.8626 102.781 46.6733 102.584 48.2601L101.818 48.8965L97.6171 48.732C97.4967 46.2355 97.4397 45.7186 98.0353 43.241L102.705 43.2462Z" fill="#020205"/>
<path d="M81.6319 43.2708L86.2697 43.3309C86.3204 44.8379 86.3141 47.4515 86.5612 48.8358L86.3078 49.0117L81.5875 48.5422L81.2138 47.8033C81.1187 45.873 81.3088 45.1334 81.6319 43.2708Z" fill="#020205"/>
<path d="M93.1884 38.0842L97.674 38.2904L97.6931 43.0703L91.9022 43.2948C91.9528 40.5402 91.6805 39.9385 93.1884 38.0842Z" fill="#925C41"/>
<path d="M81.2328 43.088L81.6319 43.2708C81.3088 45.1334 81.1187 45.873 81.2138 47.8033C79.2244 48.5606 78.6415 48.5657 76.5697 48.746L64.6838 48.7706L59.7039 48.7979L59.4885 48.095C55.8961 48.2525 52.3797 49.068 49.5033 47.5395C48.6796 45.9799 48.648 45.5706 48.2615 43.8206L48.0398 43.3233L48.7367 43.095C52.4241 43.2171 55.9088 43.367 59.6025 43.2132L64.7091 43.2335C69.9868 43.2702 76.0311 43.448 81.2328 43.088Z" fill="#42302F"/>
<path d="M59.4885 48.095C59.6152 45.1278 59.14 45.6263 60.7176 43.6555C62.669 43.0868 61.8327 43.0203 63.8792 44.1091C65.0639 45.7496 64.7788 46.7043 64.6838 48.7706L59.7039 48.7979L59.4885 48.095Z" fill="#020205"/>
<path d="M86.7449 64.4641C86.5041 62.5724 86.219 61.9093 87.1821 60.291C89.3996 58.975 94.4998 59.5488 97.3826 59.6362C97.465 61.3399 97.5663 63.0425 97.674 64.7444L97.7691 69.9019C95.2918 69.8513 94.4175 69.7817 91.9909 69.3028L91.9465 69.8469L87.0426 69.9696L86.7829 68.853C86.8526 67.6484 86.7639 65.7313 86.7449 64.4641Z" fill="#131821"/>
<path d="M86.7449 64.4641C89.2221 64.6482 90.1598 64.256 91.7374 65.6029C91.8895 66.9752 91.9972 67.9261 91.9909 69.3028L91.9465 69.8469L87.0426 69.9696L86.7829 68.853C86.8526 67.6484 86.7639 65.7313 86.7449 64.4641Z" fill="#448152"/>
<path d="M54.4642 59.5578C59.1907 59.54 69.7524 57.6426 70.4747 62.9811L69.689 64.0889C68.4029 64.2832 67.1103 64.4419 65.8178 64.5653L65.1336 64.7317L64.5127 68.188L64.5317 69.4622C62.3586 69.7367 61.858 69.857 59.6405 69.2686L59.5644 64.6248L54.6479 64.8032C54.2615 62.9115 54.4072 61.4735 54.4642 59.5578Z" fill="#020205"/>
<path d="M59.5644 64.6248L65.1336 64.7317L64.5127 68.188L64.5317 69.4622C62.3586 69.7367 61.858 69.857 59.6405 69.2686L59.5644 64.6248Z" fill="#693922"/>
<path d="M113.735 46.4595L114.388 48.4448C114.103 51.0097 113.913 57.1827 113.615 59.0168C104.561 59.3875 112.797 55.2093 103.275 53.9453C102.527 52.9159 102.673 50.4466 102.622 49.0313L101.818 48.8965L102.584 48.2601C105.34 48.4075 111.22 49.013 113.431 47.8457L113.735 46.4595Z" fill="#020205"/>
<path d="M113.735 46.4595L114.388 48.4448C114.103 51.0097 113.913 57.1827 113.615 59.0168C104.561 59.3875 112.797 55.2093 103.275 53.9453C107.209 53.8731 111.429 54.6988 113.817 51.1868C111.48 48.0842 106.189 48.9175 102.622 49.0313L101.818 48.8965L102.584 48.2601C105.34 48.4075 111.22 49.013 113.431 47.8457L113.735 46.4595Z" fill="#131821"/>
<path d="M70.4493 66.3741C72.6161 63.5005 82.4302 63.9972 85.6424 65.4024C86.4154 65.7383 86.4914 68.107 86.4978 68.9598L86.2633 70.0619C83.9064 70.539 74.5803 69.5394 70.6268 69.597L70.4493 66.3741Z" fill="#020205"/>
<path d="M64.6838 48.7706L76.5697 48.746L76.4176 53.9718C72.9456 53.9718 68.1812 54.7886 65.6278 53.448C64.2847 51.4842 64.7281 51.5841 64.6838 48.7706Z" fill="#040713"/>
<path d="M86.5612 48.8358C90.5907 48.6384 93.5622 48.4859 97.6171 48.732L97.6234 52.146C95.4819 55.2967 90.1916 55.2764 87.1694 53.1886C86.0353 52.4034 86.3584 50.3764 86.3078 49.0117L86.5612 48.8358Z" fill="#020205"/>
<path d="M97.3826 59.6362L102.071 59.6039L108.616 59.6355L107.976 64.2357L106.132 64.4976L102.578 64.8741L97.674 64.7444C97.5663 63.0425 97.465 61.3399 97.3826 59.6362Z" fill="#10111B"/>
<path d="M102.071 59.6039L108.616 59.6355L107.976 64.2357L106.132 64.4976L104.251 64.1794C102.407 62.518 102.857 62.413 102.071 59.6039Z" fill="#020205"/>
<path d="M81.2138 47.8033L81.5875 48.5422C81.3278 51.1495 81.7079 52.1321 80.2507 53.7777C78.8695 53.896 77.7988 54.0054 76.4176 53.9718L76.5697 48.746C78.6415 48.5657 79.2244 48.5606 81.2138 47.8033Z" fill="#252A33"/>
<path d="M63.4103 21.7606L65.2666 21.6613C64.9055 27.5654 64.6585 33.4758 64.5191 39.3894L64.7091 43.2335L59.6025 43.2132C55.9088 43.367 52.4241 43.2171 48.7367 43.095L48.0398 43.3233L43.5921 43.2455C43.2373 45.1435 43.0092 46.3437 42.9078 48.31C39.5372 48.3347 37.4337 48.3575 34.0757 48.7966L32.4665 48.7478C32.3081 43.1234 32.3714 37.8386 32.4728 32.2104L33.0177 32.3692L38.0736 32.2914L37.9723 26.5866L37.8898 24.1698L38.004 21.6296L48.6416 21.7518C52.7599 21.7012 59.5202 21.4373 63.4103 21.7606Z" fill="#6D4C41"/>
<path d="M63.4103 21.7606L65.2666 21.6613C64.9055 27.5654 64.6585 33.4758 64.5191 39.3894L64.7091 43.2335L59.6025 43.2132L59.7355 38.2525C59.8179 35.1207 60.6796 28.2164 57.537 26.8859C54.5466 28.1423 53.7989 31.6524 50.8718 32.9532L49.7314 32.4388C48.5213 30.7142 48.7937 29.1932 48.8064 27.0118L48.9901 26.6012L48.6416 21.7518C52.7599 21.7012 59.5202 21.4373 63.4103 21.7606Z" fill="#553431"/>
<path d="M48.6416 21.7518C52.7599 21.7012 59.5202 21.4373 63.4103 21.7606C58.9183 21.8726 54.5656 21.1203 53.6089 26.5468C51.8919 27.0693 50.7705 26.7941 48.9901 26.6012L48.6416 21.7518Z" fill="#331F1A"/>
<path d="M32.4728 32.2104L33.0177 32.3692L32.9163 38.8093C32.891 41.4488 32.4728 41.1381 33.7907 42.8463C36.1856 43.9529 40.4432 43.2683 43.2436 43.0532L43.5921 43.2455C43.2373 45.1435 43.0092 46.3437 42.9078 48.31C39.5372 48.3347 37.4337 48.3575 34.0757 48.7966L32.4665 48.7478C32.3081 43.1234 32.3714 37.8386 32.4728 32.2104Z" fill="#42302F"/>
<path d="M38.004 21.6296L48.6416 21.7518L48.9901 26.6012L48.8064 27.0118C46.8993 26.5854 40.2658 26.6246 37.9723 26.5866L37.8898 24.1698L38.004 21.6296Z" fill="#5C443F"/>
<path d="M48.7303 37.9684C52.6078 38.2113 55.8707 38.2537 59.7355 38.2525L59.6025 43.2132C55.9088 43.367 52.4241 43.2171 48.7367 43.095L48.7303 37.9684Z" fill="#925C41"/>
<path d="M33.3851 38.6453C37.2816 38.6991 39.1507 38.6333 43.0598 38.186L43.2436 43.0532C40.4432 43.2683 36.1856 43.9529 33.7907 42.8463C32.4728 41.1381 32.891 41.4488 32.9163 38.8093L33.3851 38.6453Z" fill="#925C41"/>
<path d="M33.0177 32.3692L38.0736 32.2914C38.2257 35.3548 38.7958 35.7111 37.3829 37.6869C35.9067 37.9874 34.8233 38.2145 33.3851 38.6453L32.9163 38.8093L33.0177 32.3692Z" fill="#5C443F"/>
<path d="M43.0598 38.186C45.0682 37.8349 46.9436 37.2263 48.7303 37.9684L48.7367 43.095L48.0398 43.3233L43.5921 43.2455L43.2436 43.0532L43.0598 38.186Z" fill="#553431"/>
<path d="M81.0808 21.6607L92.0669 21.6771L91.8705 25.3897C91.8578 28.734 91.5981 34.6905 92.4344 37.7274C90.3182 37.9247 89.0068 37.9722 86.9477 38.6492C85.934 40.5288 86.3774 40.6737 86.6561 43.1411L86.2697 43.3309L81.6319 43.2708L81.2328 43.088C76.0311 43.448 69.9868 43.2702 64.7091 43.2335L64.5191 39.3894C64.6585 33.4758 64.9055 27.5654 65.2666 21.6613L81.0808 21.6607Z" fill="#6D4C41"/>
<path d="M81.0808 21.6607L92.0669 21.6771L91.8705 25.3897C91.8578 28.734 91.5981 34.6905 92.4344 37.7274C90.3182 37.9247 89.0068 37.9722 86.9477 38.6492C85.934 40.5288 86.3774 40.6737 86.6561 43.1411L86.2697 43.3309L81.6319 43.2708L81.2328 43.088L81.1504 38.2645C81.1948 32.7299 81.1758 27.1947 81.0808 21.6607Z" fill="#553431"/>
<path d="M64.5191 39.3894C66.5022 37.1852 77.6975 38.1836 81.1504 38.2645L81.2328 43.088C76.0311 43.448 69.9868 43.2702 64.7091 43.2335L64.5191 39.3894Z" fill="#925C41"/>
<path d="M96.9201 21.7158L103.63 21.6923C106.937 21.7296 110.244 21.7385 113.545 21.7202C113.545 23.2873 113.463 25.6206 113.596 27.1182C113.539 29.7602 113.513 35.9078 113.095 38.2297L113.482 38.8675L113.545 43.1196L113.97 43.2709L113.735 46.4595L113.431 47.8457C111.22 49.013 105.34 48.4075 102.584 48.2601C102.781 46.6733 102.711 44.8626 102.705 43.2462L98.0353 43.241L97.6931 43.0703L97.674 38.2904L93.1884 38.0842L92.4344 37.7274C91.5981 34.6905 91.8578 28.734 91.8705 25.3897L92.0669 21.6771L96.9201 21.7158Z" fill="#553431"/>
<path d="M108.438 38.2398L113.095 38.2297L113.482 38.8675L113.545 43.1196L113.97 43.2709L113.735 46.4595L113.431 47.8457C111.22 49.013 105.34 48.4075 102.584 48.2601C102.781 46.6733 102.711 44.8626 102.705 43.2462L103.193 43.1279C103.186 41.946 103.275 40.7269 103.332 39.5425C104.751 38.0406 105.834 38.4682 108.438 38.2398Z" fill="#42302F"/>
<path d="M108.438 38.2398L113.095 38.2297L113.482 38.8675L113.545 43.1196C109.699 43.4119 107 43.2917 103.193 43.1279C103.186 41.946 103.275 40.7269 103.332 39.5425C104.751 38.0406 105.834 38.4682 108.438 38.2398Z" fill="#925C41"/>
<path d="M92.0669 21.6771L96.9201 21.7158L97.37 24.2622C97.408 28.9396 97.5093 33.6156 97.674 38.2904L93.1884 38.0842L92.4344 37.7274C91.5981 34.6905 91.8578 28.734 91.8705 25.3897L92.0669 21.6771Z" fill="#6D4C41"/>
<path d="M92.0669 21.6771L96.9201 21.7158L97.37 24.2622C94.918 25.1922 94.4808 25.2246 91.8705 25.3897L92.0669 21.6771Z" fill="#77584E"/>
<path d="M102.705 43.2462C102.458 39.6032 101.818 27.282 106.234 26.5753C109.066 29.5406 108.464 34.2097 108.438 38.2398C105.834 38.4682 104.751 38.0406 103.332 39.5425C103.275 40.7269 103.186 41.946 103.193 43.1279L102.705 43.2462Z" fill="#6D4C41"/>
<path d="M103.63 21.6923C106.937 21.7296 110.244 21.7385 113.545 21.7202C113.545 23.2873 113.463 25.6206 113.596 27.1182L110.117 26.9587C106.246 24.3692 111.226 22.6268 103.63 21.6923Z" fill="#42302F"/>
<path d="M38.004 21.6296C37.9153 19.5298 37.6681 18.3588 38.5551 16.464C40.8043 15.9831 50.6944 16.2622 53.5455 16.2824L83.9952 16.4045C92.314 16.4209 116.77 15.632 123.847 16.4646C125.051 18.1507 124.626 18.4954 124.62 20.9344L124.348 21.5671C121.053 21.7385 116.903 21.6822 113.545 21.7202C110.244 21.7385 106.937 21.7296 103.63 21.6923L96.9201 21.7158L92.0669 21.6771L81.0808 21.6607L65.2666 21.6613L63.4103 21.7606C59.5202 21.4373 52.7599 21.7012 48.6416 21.7518L38.004 21.6296Z" fill="#020205"/>
<path d="M113.97 43.2709C115.382 43.3322 117.809 43.3486 119.095 43.6283C119.171 46.7126 118.658 46.4589 120.255 48.3594C122.96 49.4786 126.546 48.5024 129.948 48.7839C130.05 50.8616 130.373 52.1074 129.232 53.7795C125.564 54.4122 126.28 53.3335 124.696 55.5061C124.012 60.6807 124.354 69.5255 124.405 75.0113C123.144 75.253 120.546 75.3505 119.159 75.446C117.461 75.6067 115.763 75.7478 114.065 75.8705L113.564 75.8471L111.017 75.5542C109.883 75.5239 109.541 75.3637 108.489 75.0284L108.046 73.0621L108.103 70.2847L108.724 70.0974L108.134 68.6549L107.799 68.7435L107.976 64.2357L108.616 59.6355L113.64 59.4938L113.615 59.0168C113.913 57.1827 114.103 51.0097 114.388 48.4448L113.735 46.4595L113.97 43.2709Z" fill="#020205"/>
<path d="M113.64 59.4938C114.172 61.9403 114.305 64.4173 114.464 66.91C115.763 66.6247 116.124 66.2754 117.201 65.546C118.721 66.8189 118.62 68.7151 119.127 71.092L119.159 75.446C117.461 75.6067 115.763 75.7478 114.065 75.8705L113.564 75.8471L111.017 75.5542C109.883 75.5239 109.541 75.3637 108.489 75.0284L108.046 73.0621L108.103 70.2847L108.724 70.0974L108.134 68.6549L107.799 68.7435L107.976 64.2357L108.616 59.6355L113.64 59.4938Z" fill="#42302F"/>
<path d="M108.616 59.6355L113.64 59.4938L113.596 63.908C110.966 64.466 109.921 64.1731 108.458 65.8554L108.134 68.6549L107.799 68.7435L107.976 64.2357L108.616 59.6355Z" fill="#2B6239"/>
<path d="M108.134 68.6549L108.458 65.8554C109.921 64.1731 110.966 64.466 113.596 63.908C113.545 66.4393 113.976 67.6572 112.753 69.4673C111.106 69.9007 110.434 69.9639 108.724 70.0974L108.134 68.6549Z" fill="#4A8F56"/>
<path d="M114.388 48.4448C115.275 48.5638 118.652 48.8295 118.709 49.2736C119.399 54.7823 119.203 65.8725 119.127 71.092C118.62 68.7151 118.721 66.8189 117.201 65.546C116.124 66.2754 115.763 66.6247 114.464 66.91C114.305 64.4173 114.172 61.9403 113.64 59.4938L113.615 59.0168C113.913 57.1827 114.103 51.0097 114.388 48.4448Z" fill="#252A33"/>
<path d="M124.405 75.0113L124.848 75.3878C127.889 75.5099 127.528 75 129.34 76.6342C132.033 83.7707 127.788 92.0492 130.329 96.9448C133.794 97.3769 134.105 96.4963 135.644 98.3361C135.625 100.07 135.739 100.349 134.833 101.728C132.755 102.154 132.026 102.09 129.98 102.021L129.543 97.4029C129.289 99.523 129.568 100.593 128.345 101.873L127.344 102.08L124.417 102.826C122.814 102.652 120.831 102.648 119.19 102.595C119.114 105.217 119.577 105.94 118.221 107.67C116.523 107.855 115.668 107.911 113.963 107.863L113.57 107.707C113.627 106.113 113.526 104.219 113.482 102.6L113.273 102.094L113.532 97.5079L114.008 97.6098L114.052 97.1226C113.368 95.1417 113.589 93.8131 113.685 91.7284L124.379 91.8195L124.062 86.4931L119.912 86.3185L114.419 86.2976L114.267 81.1976L114.065 75.8705C115.763 75.7478 117.461 75.6067 119.159 75.446C120.546 75.3505 123.144 75.253 124.405 75.0113Z" fill="#020205"/>
<path d="M124.405 75.0113L124.848 75.3878C124.791 78.2544 124.791 89.3578 124.379 91.8195L124.062 86.4931L119.912 86.3185L114.419 86.2976L114.267 81.1976L114.065 75.8705C115.763 75.7478 117.461 75.6067 119.159 75.446C120.546 75.3505 123.144 75.253 124.405 75.0113Z" fill="#5C443F"/>
<path d="M124.405 75.0113L124.848 75.3878C124.791 78.2544 124.791 89.3578 124.379 91.8195L124.062 86.4931C124.215 82.9603 125.393 76.4963 121.566 75.5011C120.812 75.8706 120.286 76.2109 119.577 76.65C119.146 79.4375 119.627 79.4521 117.968 80.9661L114.267 81.1976L114.065 75.8705C115.763 75.7478 117.461 75.6067 119.159 75.446C120.546 75.3505 123.144 75.253 124.405 75.0113Z" fill="#331F1A"/>
<path d="M119.577 76.65C119.589 79.8753 119.703 83.0994 119.912 86.3185L114.419 86.2976L114.267 81.1976L117.968 80.9661C119.627 79.4521 119.146 79.4375 119.577 76.65Z" fill="#553431"/>
<path d="M114.052 97.1226C118.113 97.0878 125.836 96.8221 129.543 97.4029C129.289 99.523 129.568 100.593 128.345 101.873L127.344 102.08L124.417 102.826C122.814 102.652 120.831 102.648 119.19 102.595C119.114 105.217 119.577 105.94 118.221 107.67C116.523 107.855 115.668 107.911 113.963 107.863L113.57 107.707C113.627 106.113 113.526 104.219 113.482 102.6L113.273 102.094L113.532 97.5079L114.008 97.6098L114.052 97.1226Z" fill="#FCD85D"/>
<path d="M113.532 97.5079L114.008 97.6098C113.83 100.577 113.387 100.381 114.616 102.611L116.016 103.189L119.19 102.595C119.114 105.217 119.577 105.94 118.221 107.67C116.523 107.855 115.668 107.911 113.963 107.863L113.57 107.707C113.627 106.113 113.526 104.219 113.482 102.6L113.273 102.094L113.532 97.5079Z" fill="#F4B639"/>
<path d="M114.008 97.6098C117.264 97.7173 116.96 97.1821 119.032 98.8605C119.197 101.383 118.335 102.026 116.016 103.189L114.616 102.611C113.387 100.381 113.83 100.577 114.008 97.6098Z" fill="#FBE99F"/>
<path d="M129.543 97.4029C129.289 99.523 129.568 100.593 128.345 101.873L127.344 102.08C125.387 101.835 124.759 101.44 124.671 99.5306C126.698 97.2669 125.97 97.9293 129.543 97.4029Z" fill="#FBE99F"/>
<path d="M124.348 21.5671L124.62 20.9344L124.956 21.0457C126.318 21.4873 126.844 21.5967 128.25 21.7941C131.444 24.5709 129.733 27.9026 129.79 32.1244C129.91 37.244 129.682 43.994 129.948 48.7839C126.546 48.5024 122.96 49.4786 120.255 48.3594C118.658 46.4589 119.171 46.7126 119.095 43.6283L119.323 43.2898L119 38.105C117.828 37.9994 115.116 38.3132 113.824 38.4246L113.482 38.8675L113.095 38.2297C113.513 35.9078 113.539 29.7602 113.596 27.1182C113.463 25.6206 113.545 23.2873 113.545 21.7202C116.903 21.6822 121.053 21.7385 124.348 21.5671Z" fill="#6D4C41"/>
<path d="M129.118 32.4085L129.79 32.1244C129.91 37.244 129.682 43.994 129.948 48.7839C126.546 48.5024 122.96 49.4786 120.255 48.3594C118.658 46.4589 119.171 46.7126 119.095 43.6283L119.323 43.2898L119 38.105C122.301 38.2923 126.09 38.4119 129.34 38.7219L129.118 32.4085Z" fill="#42302F"/>
<path d="M119 38.105C122.301 38.2923 126.09 38.4119 129.34 38.7219C129.391 41.4696 129.822 41.1166 128.472 42.9336C125.76 44.0693 122.409 43.1683 119.323 43.2898L119 38.105Z" fill="#925C41"/>
<path d="M124.348 21.5671L124.62 20.9344L124.956 21.0457C126.318 21.4873 126.844 21.5967 128.25 21.7941C131.444 24.5709 129.733 27.9026 129.79 32.1244L129.118 32.4085L124.417 32.4224C124.892 29.8354 124.474 24.4027 124.348 21.5671Z" fill="#040713"/>
<path d="M113.545 21.7202C116.903 21.6822 121.053 21.7385 124.348 21.5671C124.474 24.4027 124.892 29.8354 124.417 32.4224C124.075 30.7231 124.005 29.39 123.879 27.678C122.212 26.3513 121.763 26.7878 119.222 26.6961C119.235 23.9895 119.425 23.4378 117.207 22.0232L115.535 22.4806C113.59 24.471 114.16 23.9611 113.596 27.1182C113.463 25.6206 113.545 23.2873 113.545 21.7202Z" fill="#553431"/>
<path d="M113.596 27.1182C114.16 23.9611 113.59 24.471 115.535 22.4806L117.207 22.0232C119.425 23.4378 119.235 23.9895 119.222 26.6961C116.092 26.953 116.244 26.4196 114.369 28.1316C113.127 30.8913 114.198 34.893 113.824 38.4246L113.482 38.8675L113.095 38.2297C113.513 35.9078 113.539 29.7602 113.596 27.1182Z" fill="#5C443F"/>
<path d="M34.0757 48.7966C37.1613 48.8826 40.2278 49.0155 43.307 48.8599C43.2183 52.9906 42.9014 59.5988 43.1865 63.5138L43.1042 68.2892C43.1929 70.5997 43.6427 73.424 42.4136 75.1898C40.817 75.9654 39.6385 75.4492 37.8202 75.0588C38.0039 70.2954 39.0494 57.2162 36.6418 54.063C35.3936 53.8289 34.5953 53.7264 33.3282 53.6125C32.1941 52.1352 32.4602 50.7015 32.4665 48.7478L34.0757 48.7966Z" fill="#020205"/>
<path d="M32.4981 86.4241C32.4791 83.1773 31.5477 79.1421 32.8845 76.4146C34.7853 75.0209 34.5889 75.4713 37.3957 75.3891L37.9849 76.2343L37.9786 81.321L37.9405 86.1793L37.9532 91.8398L37.9723 102.52L32.4538 102.655C32.3271 101.444 32.3714 98.2595 32.3524 96.9043L32.5361 91.7253L32.4981 86.4241Z" fill="#020205"/>
<path d="M37.9723 102.52C38.0103 104.963 37.6364 105.526 38.7325 107.433C40.3418 108.098 41.3809 107.667 43.1296 107.307L43.3322 107.912C41.3618 108.23 40.139 108.475 38.1052 108.424L38.1179 113.359L32.232 113.465L31.8709 113.365L27.0873 113.495L26.7326 108.056C28.7283 107.952 29.8435 108.001 31.7379 107.24C32.7072 105.28 32.3017 105.292 32.0483 102.74L32.4538 102.655L37.9723 102.52Z" fill="#252A33"/>
<path d="M32.5932 108.224C35.1338 107.846 35.6279 107.981 38.1052 108.424L38.1179 113.359L32.232 113.465L31.8709 113.365C32.4791 111.987 32.4791 109.802 32.5932 108.224Z" fill="#10111B"/>
<path d="M26.7326 108.056C28.7664 108.205 30.5594 108.412 32.5932 108.224C32.4791 109.802 32.4791 111.987 31.8709 113.365L27.0873 113.495L26.7326 108.056Z" fill="#020205"/>
<path d="M129.79 32.1244C131.374 32.2763 134.333 32.2775 135.346 33.0918C135.549 36.0818 135.86 46.2773 134.928 48.5695C132.673 48.8946 132.223 48.9124 129.948 48.7839C129.682 43.994 129.91 37.244 129.79 32.1244Z" fill="#020205"/>
<path d="M32.4728 32.2104C32.3714 37.8386 32.3081 43.1234 32.4665 48.7478C30.3377 48.6865 29.7041 48.584 27.6386 48.1652C26.7199 45.11 27.0937 36.4203 27.4232 33.0545C28.6523 32.1498 30.6734 32.3395 32.4728 32.2104Z" fill="#020205"/>
<path d="M31.8772 96.9992L32.3524 96.9043C32.3714 98.2595 32.3271 101.444 32.4538 102.655L32.0483 102.74C32.3017 105.292 32.7072 105.28 31.7379 107.24C29.8435 108.001 28.7283 107.952 26.7326 108.056L27.0873 113.495L26.7896 113.61L21.9935 113.513L21.7337 108.315C25.966 110.86 23.0008 110.433 25.3641 112.538C27.8604 109.343 22.4306 107.742 28.5953 104.55L28.6397 103.949L27.0557 103.663C26.3778 102.097 26.6819 99.3306 26.7326 97.4959L27.1824 97.599C28.7283 97.4497 30.3313 97.208 31.8772 96.9992Z" fill="#42302F"/>
<path d="M31.8772 96.9992L32.3524 96.9043C32.3714 98.2595 32.3271 101.444 32.4538 102.655L32.0483 102.74C30.6291 102.746 29.5964 102.641 28.1835 102.505C26.834 100.895 27.2838 100.137 27.1824 97.599C28.7283 97.4497 30.3313 97.208 31.8772 96.9992Z" fill="#10111B"/>
<path d="M27.2205 91.5387L27.3472 91.786L32.5361 91.7253L32.3524 96.9043L31.8772 96.9992C30.3313 97.208 28.7283 97.4497 27.1824 97.599L26.7326 97.4959L23.4127 97.2985C21.4676 96.0813 22.0378 96.7791 21.2142 94.6995L21.9871 92.9502C24.173 91.2799 24.0019 91.7949 27.2205 91.5387Z" fill="#252A33"/>
<path d="M27.3472 91.786L32.5361 91.7253L32.3524 96.9043L31.8772 96.9992C30.2616 96.9347 29.5331 96.8695 27.9491 96.564C26.8594 94.9228 27.2965 94.1111 27.3472 91.786Z" fill="#2C2C2E"/>
<path d="M32.7516 21.5816L38.004 21.6296L37.8898 24.1698L37.9723 26.5866L38.0736 32.2914L33.0177 32.3692L32.4728 32.2104C32.4031 28.2379 32.3841 25.5782 32.7516 21.5816Z" fill="#10111B"/>
<path d="M32.7516 21.5816L38.004 21.6296L37.8898 24.1698C37.0092 26.4803 37.6048 25.7616 35.7737 27.0991L34.4685 26.8062C32.5615 24.4679 33.1317 25.0183 32.7516 21.5816Z" fill="#040713"/>
<path d="M16.3229 113.432C16.2279 111.459 16.0252 110.672 16.8489 108.867C19.0221 107.738 18.9079 108.16 21.7337 108.315L21.9935 113.513L16.3229 113.432Z" fill="#2C2C2E"/>
<path d="M27.2205 91.5387C27.1445 89.8779 27.2395 89.0668 27.4232 87.4111C29.0705 86.0629 29.9258 86.514 32.4981 86.4241L32.5361 91.7253L27.3472 91.786L27.2205 91.5387Z" fill="#131821"/>
</svg>
