<svg width="168" height="196" viewBox="0 0 168 196" fill="none" xmlns="http://www.w3.org/2000/svg">
<path d="M49.3828 19.4872C48.9426 1.17727 60.5519 15.2497 69.9177 8.08142C69.9212 4.79013 69.7229 3.84042 70.8245 0.815552C75.5316 -0.560223 109.975 0.171327 116.523 0.394115C118.732 2.39576 118.179 5.41256 118.512 9.21489C123.893 11.9136 127.52 7.48083 129.895 14.2621C126.742 20.9549 120.389 16.7335 117.902 27.8924C113.233 29.7091 104.815 28.9695 99.4992 28.8421C98.8378 32.0851 98.5704 33.5826 97.3375 36.7097C94.5996 38.2462 92.3008 38.1613 89.1447 38.4564C87.6099 41.2757 87.6917 42.7526 87.6871 45.9314C82.1411 51.3277 81.1202 42.7353 78.9182 54.2928L78.5817 57.4704C75.9936 59.387 73.1475 58.8749 69.7333 58.8393C69.5167 67.6302 67.2041 111.027 71.7948 116.959C76.5848 117.994 76.3901 117.135 78.9436 120.193L79.4598 127.286C83.8926 127.618 85.6049 126.954 88.6101 129.29C88.973 132.008 89.2035 134.208 89.3705 136.946L89.1182 137.732L89.2657 147.136L78.9712 146.957L79.1418 156.294L69.587 155.969L68.808 156.337C70.0548 160.913 69.9131 161.988 69.7403 166.654L69.6492 175.883L69.6227 185.965L68.9924 186.177L59.5886 186.182C57.1987 186.187 54.7236 186.024 52.3292 185.905C49.5003 182.875 50.4855 181.979 50.3115 176.583C48.5381 176.169 41.0126 176.019 38.8256 175.939C35.8665 175.879 34.0689 176.134 31.4832 174.703C30.6766 171.797 30.2894 169.699 29.7836 166.725C27.4375 166.56 25.4844 166.275 23.1556 165.936C20.4869 162.678 21.1795 161.16 20.5883 156.199L20.1343 146.78C17.7261 146.397 13.768 146.477 11.1972 146.434C10.5347 139.592 9.94236 134.111 10.0622 127.179C7.36815 127.26 4.42869 127.119 1.71505 127.046C-0.824585 123.543 -0.0548715 77.0195 0.923419 70.2623C4.03113 68.3434 5.91165 69.1323 10.1544 69.2138L10.0702 67.4912C9.83634 62.815 8.85459 55.5169 10.8515 51.6181C14.5065 48.5634 14.6183 49.4282 20.1458 48.6461L20.2715 39.2603C20.2876 35.9127 19.8532 33.2542 21.7279 30.6634C29.7985 29.7596 31.0534 28.0337 31.3138 20.7804C33.8868 18.9935 36.6109 19.5229 39.9179 19.609L49.3828 19.4872Z" fill="#5C7376"/>
<path d="M49.3828 19.4872C48.9426 1.17727 60.5519 15.2497 69.9177 8.08142C69.9212 4.79013 69.7229 3.84042 70.8245 0.815552C75.5316 -0.560223 109.975 0.171327 116.523 0.394115C118.732 2.39576 118.179 5.41256 118.512 9.21489C114.246 8.72797 113.102 8.51091 108.794 9.14827L109.26 10.5448C102.427 10.5356 84.6923 10.1118 78.9101 11.3463C75.0649 17.4155 80.1892 16.3717 75.4118 19.5826L69.7725 19.6676C63.4315 19.377 56.8543 19.6699 50.4913 19.8353L49.3828 19.4872Z" fill="#293238"/>
<path d="M108.794 9.14827L109.26 10.5448C102.427 10.5356 84.6923 10.1118 78.9101 11.3463C75.0649 17.4155 80.1892 16.3717 75.4118 19.5826L69.7725 19.6676C69.6458 16.2844 69.2781 14.5699 70.6851 11.4888C76.4477 7.30056 98.1141 9.76266 108.794 9.14827Z" fill="#526774"/>
<path d="M69.0593 58.605L69.7333 58.8393C69.5167 67.6302 67.2041 111.027 71.7948 116.959C76.5848 117.994 76.3901 117.135 78.9436 120.193L79.4598 127.286L79.0668 128.029L71.252 127.201C68.2757 124.328 69.3128 123.219 69.1077 117.661C68.9867 114.349 69.0616 112.533 68.0233 109.304C64.8603 107.346 63.6285 107.998 59.4399 107.878C59.4019 96.7006 58.5873 69.8213 59.9355 59.9635C62.6952 58.2203 65.3351 58.7555 69.0593 58.605Z" fill="#363C43"/>
<path d="M10.0622 127.179C7.36815 127.26 4.42869 127.119 1.71505 127.046C-0.824585 123.543 -0.0548715 77.0195 0.923419 70.2623C4.03113 68.3434 5.91165 69.1323 10.1544 69.2138C9.9942 87.3447 10.7282 109.666 10.0622 127.179Z" fill="#363C43"/>
<path d="M49.3828 19.4872L50.4913 19.8353L50.0316 20.8103L50.5754 28.2508C53.493 30.4488 57.866 28.4069 61.1223 32.5216C61.2675 36.1528 61.3147 34.9183 58.646 38.5587C54.6407 39.2397 54.0669 39.3293 50.1018 38.5265C48.5739 35.5534 50.4406 24.6551 40.713 30.1284C40.3282 32.741 39.8718 35.342 39.3441 37.9294C35.6256 40.1435 33.4387 38.6977 29.7421 40.0264L29.545 39.1983L20.2715 39.2603C20.2876 35.9127 19.8532 33.2542 21.7279 30.6634C29.7985 29.7596 31.0534 28.0337 31.3138 20.7804C33.8868 18.9935 36.6109 19.5229 39.9179 19.609L49.3828 19.4872Z" fill="#434B4E"/>
<path d="M20.2715 39.2603C20.2876 35.9127 19.8532 33.2542 21.7279 30.6634C29.7985 29.7596 31.0534 28.0337 31.3138 20.7804C33.8868 18.9935 36.6109 19.5229 39.9179 19.609L39.714 29.0213C34.9815 29.2532 33.2865 28.4529 30.2617 30.961C29.8354 34.041 29.6591 36.0908 29.545 39.1983L20.2715 39.2603Z" fill="#15191A"/>
<path d="M49.3828 19.4872L50.4913 19.8353L50.0316 20.8103C48.9323 25.4912 49.6674 26.2135 46.5309 28.5711L39.714 29.0213L39.9179 19.609L49.3828 19.4872Z" fill="#363C43"/>
<path d="M39.9052 117.208C45.5526 117.306 45.1182 116.408 48.9553 119.161C51.1953 123.844 49.5556 131.228 49.6467 136.951C45.9859 137.055 35.7904 137.699 32.9558 136.109C25.2493 131.784 34.3731 126.991 21.6576 127.429L20.4903 127.474C20.2265 124.036 19.9476 122.373 20.7312 118.923C24.1927 116.465 25.3242 117.359 30.4933 117.296L39.9052 117.208Z" fill="#434B4E"/>
<path d="M39.9052 117.208L39.7831 123.649C37.747 127.18 38.9408 126.04 35.1982 127.894L32.5387 126.816C29.771 122.909 30.6823 122.964 30.4933 117.296L39.9052 117.208Z" fill="#5C7376"/>
<path d="M108.794 9.14827C113.102 8.51091 114.246 8.72797 118.512 9.21489C123.893 11.9136 127.52 7.48083 129.895 14.2621C126.742 20.9549 120.389 16.7335 117.902 27.8924C113.233 29.7091 104.815 28.9695 99.4992 28.8421L98.688 28.6928L98.6027 19.5734C102.197 19.6618 105.066 19.9524 108.507 18.7925C110.592 15.1659 109.809 15.585 109.26 10.5448L108.794 9.14827Z" fill="#363C43"/>
<path d="M20.4996 67.8771C22.9621 67.8139 25.3669 67.6118 27.8201 67.4281C30.4185 64.6857 29.6834 63.8968 30.1673 59.402C30.7481 63.9427 30.0382 65.3196 32.7588 67.822L39.9295 68.1964C40.1173 71.9711 40.6588 74.0727 38.7 77.2216C36.1937 77.4318 35.8308 77.3215 33.3292 76.8679C26.4373 80.8746 34.5979 90.0445 25.0385 88.9099C20.3395 83.7697 20.6736 83.594 20.9836 76.5888C19.5582 74.8295 19.4603 72.3466 20.7416 70.4805L11.2099 68.9692C13.6285 67.7014 17.5844 67.9563 20.4996 67.8771Z" fill="#434B4E"/>
<path d="M20.7416 70.4805C21.9919 68.6603 24.2722 67.8438 26.4005 68.4536C28.5276 69.0645 30.0232 70.9651 30.1108 73.17C30.1984 75.3738 28.8583 77.3869 26.7853 78.1632C24.7135 78.9395 22.3755 78.3045 20.9836 76.5888C19.5582 74.8295 19.4603 72.3466 20.7416 70.4805Z" fill="#3E4449"/>
<path d="M20.3982 146.163C23.6235 146.682 25.8681 147.11 29.053 147.895C32.5399 166.092 39.3891 148.904 39.5273 166.469L38.8947 166.769L30.3413 166.495L29.7836 166.725C27.4375 166.56 25.4844 166.275 23.1556 165.936C20.4869 162.678 21.1795 161.16 20.5883 156.199L20.1343 146.78L20.3982 146.163Z" fill="#434B4E"/>
<path d="M20.5883 156.199C25.6019 156.604 26.2541 155.773 29.3065 158.443C29.6084 161.132 29.9541 163.817 30.3413 166.495L29.7836 166.725C27.4375 166.56 25.4844 166.275 23.1556 165.936C20.4869 162.678 21.1795 161.16 20.5883 156.199Z" fill="#293238"/>
<path d="M89.1447 38.4564C87.6099 41.2757 87.6917 42.7526 87.6871 45.9314C82.1411 51.3277 81.1202 42.7353 78.9182 54.2928L78.5817 57.4704C75.9936 59.387 73.1475 58.8749 69.7333 58.8393L69.0593 58.605C70.4478 51.0704 68.3679 47.3989 69.9915 41.5306C73.0934 38.4024 73.0957 39.3763 78.7004 38.8514L79.068 39.6312C82.4292 38.9583 85.7317 38.7561 89.1447 38.4564Z" fill="#434B4E"/>
<path d="M89.1447 38.4564C87.6099 41.2757 87.6917 42.7526 87.6871 45.9314C82.1411 51.3277 81.1202 42.7353 78.9182 54.2928L79.068 39.6312C82.4292 38.9583 85.7317 38.7561 89.1447 38.4564Z" fill="#15191A"/>
<path d="M79.4598 127.286C83.8926 127.618 85.6049 126.954 88.6101 129.29C88.973 132.008 89.2035 134.208 89.3705 136.946L89.1182 137.732L89.2657 147.136L78.9712 146.957L78.9689 137.191L79.0668 128.029L79.4598 127.286Z" fill="#4D5C63"/>
<path d="M79.4598 127.286C83.8926 127.618 85.6049 126.954 88.6101 129.29C88.973 132.008 89.2035 134.208 89.3705 136.946L89.1182 137.732C86.7376 137.315 81.6502 137.285 78.9689 137.191L79.0668 128.029L79.4598 127.286Z" fill="#293238"/>
<path d="M50.2874 175.895C56.7413 175.972 63.1953 175.968 69.6492 175.883L69.6227 185.965L68.9924 186.177L59.5886 186.182C57.1987 186.187 54.7236 186.024 52.3292 185.905C49.5003 182.875 50.4855 181.979 50.3115 176.583L50.2874 175.895Z" fill="#434B4E"/>
<path d="M50.3115 176.583C54.7409 176.922 56.2193 176.251 59.2245 178.593C59.5782 181.656 59.6911 183.106 59.5886 186.182C57.1987 186.187 54.7236 186.024 52.3292 185.905C49.5003 182.875 50.4855 181.979 50.3115 176.583Z" fill="#15191A"/>
<path d="M20.1458 48.6461L20.3924 49.3616L20.3083 58.5166L20.4996 67.8771C17.5844 67.9563 13.6285 67.7014 11.2099 68.9692L10.1544 69.2138L10.0702 67.4912C9.83634 62.815 8.85459 55.5169 10.8515 51.6181C14.5065 48.5634 14.6183 49.4282 20.1458 48.6461Z" fill="#293238"/>
<path d="M20.3083 58.5166L20.4996 67.8771C17.5844 67.9563 13.6285 67.7014 11.2099 68.9692L10.1544 69.2138L10.0702 67.4912L11.12 60.2862C14.3107 57.6323 15.0136 58.5832 20.3083 58.5166Z" fill="#3E4449"/>
<path d="M98.688 28.6928L99.4992 28.8421C98.8378 32.0851 98.5704 33.5826 97.3375 36.7097C94.5996 38.2462 92.3008 38.1613 89.1447 38.4564C85.7317 38.7561 82.4292 38.9583 79.068 39.6312L78.7004 38.8514C78.773 35.4935 78.9136 33.7997 79.4344 30.4832C82.9097 28.0474 83.5539 28.8697 88.6135 28.6906L89.3475 28.9455L98.688 28.6928Z" fill="#363C43"/>
<path d="M98.688 28.6928L99.4992 28.8421C98.8378 32.0851 98.5704 33.5826 97.3375 36.7097C94.5996 38.2462 92.3008 38.1613 89.1447 38.4564L89.3475 28.9455L98.688 28.6928Z" fill="#15191A"/>
<path d="M39.5273 166.469C44.9327 166.44 45.7796 165.466 49.2226 168.068C49.6098 170.672 49.9647 173.281 50.2874 175.895L50.3115 176.583C48.5381 176.169 41.0126 176.019 38.8256 175.939C35.8665 175.879 34.0689 176.134 31.4832 174.703C30.6766 171.797 30.2894 169.699 29.7836 166.725L30.3413 166.495L38.8947 166.769L39.5273 166.469Z" fill="#363C43"/>
<path d="M30.3413 166.495L38.8947 166.769L38.8256 175.939C35.8665 175.879 34.0689 176.134 31.4832 174.703C30.6766 171.797 30.2894 169.699 29.7836 166.725L30.3413 166.495Z" fill="#15191A"/>
<path d="M10.0622 127.179L10.7317 127.507C11.0324 132.474 10.2189 132.907 12.7517 136.18C15.7937 136.49 17.4702 136.585 20.5261 136.511L20.3982 146.163L20.1343 146.78C17.7261 146.397 13.768 146.477 11.1972 146.434C10.5347 139.592 9.94236 134.111 10.0622 127.179Z" fill="#293238"/>
<path d="M68.808 156.337C70.0548 160.913 69.9131 161.988 69.7403 166.654C63.3796 166.956 61.6512 167.892 58.7255 162.061L59.8098 159.085C63.5283 156.139 63.3393 157.005 68.808 156.337Z" fill="#434B4E"/>
<path d="M20.2715 39.2603L29.545 39.1983L29.7421 40.0264C29.7502 44.9656 30.6028 45.5983 28.2832 48.9493C24.9647 49.589 23.7882 49.4925 20.3924 49.3616L20.1458 48.6461L20.2715 39.2603Z" fill="#434B4E"/>
<path d="M30.4933 117.296C30.5152 111.735 29.6211 112.066 32.2955 108.275L35.2754 107.135C41.0126 109.945 40.1138 111.108 39.9052 117.208L30.4933 117.296Z" fill="#434B4E"/>
<path d="M88.6135 28.6906L89.6863 21.2902C92.4334 18.9004 94.1053 19.7146 98.6027 19.5734L98.688 28.6928L89.3475 28.9455L88.6135 28.6906Z" fill="#4D5C63"/>
<path d="M59.4399 107.878C63.6285 107.998 64.8603 107.346 68.0233 109.304C69.0616 112.533 68.9867 114.349 69.1077 117.661C66.008 117.523 64.1931 117.318 61.128 116.822C58.6725 113.328 59.524 113.003 59.4399 107.878Z" fill="#434B4E"/>
<path d="M30.1673 59.402C33.4283 58.4706 34.5172 57.9584 37.8288 58.4809C40.5252 61.8986 40.0136 63.1469 39.9295 68.1964L32.7588 67.822C30.0382 65.3196 30.7481 63.9427 30.1673 59.402Z" fill="#363C43"/>
<path d="M10.7317 127.507L20.4903 127.474L20.5261 136.511C17.4702 136.585 15.7937 136.49 12.7517 136.18C10.2189 132.907 11.0324 132.474 10.7317 127.507Z" fill="#4D5C63"/>
<path d="M78.9712 146.957L79.1418 156.294L69.587 155.969L70.0986 149.187C72.985 146.299 73.6004 147.256 78.9712 146.957Z" fill="#434B4E"/>
<path d="M40.5909 148.075C41.8665 146.629 43.823 145.979 45.7139 146.374C47.6037 146.769 49.1339 148.149 49.7181 149.983C50.3035 151.818 49.8518 153.824 48.537 155.233C46.5424 157.371 43.1951 157.516 41.0219 155.558C38.8498 153.601 38.6573 150.267 40.5909 148.075Z" fill="#434B4E"/>
<path d="M98.0093 147.219L98.8089 146.928C104.348 147.188 113.062 146.335 117.118 148.391C119.23 151.09 118.913 152.773 119.058 156.252C125.847 156.581 142.119 158.597 146.514 153.239C153.507 144.714 157.041 147.221 167.69 147.292C167.808 152.428 168.916 161.028 166.067 164.558C162.057 166.836 160.798 165.748 157.203 166.632C157.214 172.182 158.164 171.917 155.348 175.246C151.116 177.43 143.976 176.851 138.963 176.852C138.482 182.359 139.382 182.17 136.456 185.794C130.786 187.81 122.305 183.206 119.165 187.477C117.367 189.924 119.77 192.766 116.528 195.516C110.423 195.723 74.9324 196.529 70.7807 195.45C69.0592 190.514 69.8451 189.394 68.9924 186.177L69.6227 185.965L69.6492 175.883L69.7403 166.654C69.9131 161.988 70.0548 160.913 68.808 156.337L69.587 155.969L79.1418 156.294L78.9712 146.957L89.2657 147.136L98.0093 147.219Z" fill="#5C7376"/>
<path d="M119.058 156.252C125.847 156.581 142.119 158.597 146.514 153.239C153.507 144.714 157.041 147.221 167.69 147.292C167.808 152.428 168.916 161.028 166.067 164.558C162.057 166.836 160.798 165.748 157.203 166.632C157.214 172.182 158.164 171.917 155.348 175.246C151.116 177.43 143.976 176.851 138.963 176.852L138.983 176.025L138.127 166.588L118.558 166.61L118.37 156.45L119.058 156.252Z" fill="#293238"/>
<path d="M138.127 166.588L138.671 166.322L147.97 166.723L149.07 166.487L156.552 166.502L157.203 166.632C157.214 172.182 158.164 171.917 155.348 175.246C151.116 177.43 143.976 176.851 138.963 176.852L138.983 176.025L138.127 166.588Z" fill="#293238"/>
<path d="M138.127 166.588L138.671 166.322L147.97 166.723C147.657 171.174 148.393 172.601 145.943 175.375C143.575 175.645 141.37 175.92 138.983 176.025L138.127 166.588Z" fill="#363C43"/>
<path d="M147.854 156.687C153.11 156.705 152.73 155.94 156.729 158.238C158.01 161.654 157.365 162.923 156.552 166.502L149.07 166.487C147.962 163.968 148.017 159.603 147.854 156.687Z" fill="#526774"/>
<path d="M138.671 166.322C138.844 163.893 139.054 161.467 139.3 159.045C142.084 156.656 143.613 157.222 147.854 156.687C148.017 159.603 147.962 163.968 149.07 166.487L147.97 166.723L138.671 166.322Z" fill="#4D5C63"/>
<path d="M118.639 175.872C124.497 175.958 133.38 176.345 138.983 176.025L138.963 176.852C138.482 182.359 139.382 182.17 136.456 185.794C130.786 187.81 122.305 183.206 119.165 187.477C117.367 189.924 119.77 192.766 116.528 195.516C110.423 195.723 74.9324 196.529 70.7807 195.45C69.0592 190.514 69.8451 189.394 68.9924 186.177L69.6227 185.965C82.6043 186.312 96.3915 185.785 109.007 186.266C109.017 182.614 109.015 181.271 109.687 177.593C112.808 175.196 113.957 176.005 118.639 175.872Z" fill="#363C43"/>
<path d="M109.007 186.266C109.017 182.614 109.015 181.271 109.687 177.593C112.808 175.196 113.957 176.005 118.639 175.872C118.737 180.424 119.573 182.193 117.523 185.571C114.202 186.663 112.422 186.402 109.007 186.266Z" fill="#4D5C63"/>
<path d="M69.587 155.969L79.1418 156.294C81.8704 156.34 86.5659 156.272 89.1067 156.642C89.51 163.596 89.4351 169.041 89.2715 175.952L69.6492 175.883L69.7403 166.654C69.9131 161.988 70.0548 160.913 68.808 156.337L69.587 155.969Z" fill="#434B4E"/>
<path d="M69.587 155.969L79.1418 156.294C79.1625 161.421 79.9852 162.029 77.7532 165.844C74.4439 166.832 73.1291 166.695 69.7403 166.654C69.9131 161.988 70.0548 160.913 68.808 156.337L69.587 155.969Z" fill="#5C7376"/>
<path d="M80.2272 166.57L80.4911 159.472C83.3315 156.422 83.8004 157.322 89.1067 156.642L88.3001 163.296C85.6591 166.508 85.4712 165.597 80.2272 166.57Z" fill="#363C43"/>
<path d="M98.0093 147.219L98.8089 146.928C104.348 147.188 113.062 146.335 117.118 148.391C119.23 151.09 118.913 152.773 119.058 156.252L118.37 156.45C111.257 156.209 106.118 156.022 98.9703 156.553C98.8827 152.922 98.5474 150.735 98.0093 147.219Z" fill="#293238"/>
<path d="M98.9703 156.553C106.118 156.022 111.257 156.209 118.37 156.45L118.558 166.61C114.965 166.739 113.654 166.944 110.144 165.747C109.923 163.672 109.665 162.135 109.281 160.084C104.869 155.039 104.636 159.317 98.9703 156.553Z" fill="#4D5C63"/>
<path d="M89.3705 136.946C94.4648 137.237 94.731 136.409 98.1014 138.981C98.7398 142.401 98.847 143.452 98.8089 146.928L98.0093 147.219L89.2657 147.136L89.1182 137.732L89.3705 136.946Z" fill="#15191A"/>
</svg>
