<svg width="168" height="184" viewBox="0 0 168 184" fill="none" xmlns="http://www.w3.org/2000/svg">
<path d="M10.5351 0.0507193L108.612 0.0608508C113.105 0.0595826 142.998 -0.231401 145.923 0.470501C146.401 2.45003 146.462 3.01179 146.525 5.04965C148.934 5.24558 149.833 4.9146 151.585 6.1396C151.921 8.09314 151.946 8.91104 151.98 10.8475L156.277 10.7067L157.089 10.7504C158.394 13.7356 156.602 14.5421 158.278 16.3917L161.768 16.5337C163.822 19.0186 161.333 19.1352 163.503 21.6873L166.769 21.5662C168.636 23.6066 167.799 41.9689 167.797 46.1201L167.794 146.259C167.8 154.576 168.221 165.58 167.842 173.661C167.772 174.951 167.663 176.245 167.518 177.525C165.371 179.434 163.847 177.139 162.48 179.098C162.241 179.44 162.77 183.695 161.356 183.714C116.302 184.303 71.1457 183.581 26.0697 183.999C23.9788 184.018 23.0232 183.733 22.051 182.896C21.8353 180.207 22.3195 179.668 20.7464 178.299L17.0069 178.324C14.4846 175.756 18.533 172.09 12.0827 172.22C10.6753 172.249 10.9532 168.478 10.9627 167.44L10.9494 162.513C9.25261 162.377 7.55643 162.231 5.86089 162.075C5.60072 160.77 5.48396 158.487 5.3653 157.083C3.26744 157.002 2.56245 157.033 0.498223 156.35C-0.47773 152.377 0.246942 12.153 0.443021 11.6426C2.44823 10.2686 2.39175 10.7416 5.31073 10.746L5.37736 5.36286L9.26974 4.92664C10.7635 3.44104 10.3199 2.66621 10.5351 0.0507193Z" fill="#5E616B"/>
<path d="M10.5351 0.0507193L108.612 0.0608508C113.105 0.0595826 142.998 -0.231401 145.923 0.470501C146.401 2.45003 146.462 3.01179 146.525 5.04965C140.04 5.04014 126.565 4.67174 120.638 5.2538C123.826 5.40154 126.811 5.52835 130.013 5.52898C129.764 8.40127 130.249 8.15528 128.651 9.91733C125.93 10.961 122.839 10.1773 119.755 10.3117C112.511 10.365 100.136 10.1132 93.3128 10.7397C91.2009 10.7574 88.7503 10.635 86.6086 10.5818L86.6892 16.0404L86.5788 21.6905L86.693 26.8714L86.759 27.1954L86.7222 32.5265L86.5991 43.2212C89.9439 43.1299 94.2049 42.4762 96.8479 43.88C97.8067 45.4416 97.5783 46.3204 97.5104 48.1738L97.4913 48.7717C100.471 48.8282 100.586 48.3311 102.566 49.7818C103.858 52.2679 102.971 56.5415 103.001 59.6097C107.876 59.5539 119.682 59.1361 123.995 59.7327C124.881 61.0547 124.632 63.0488 124.637 64.7633L124.648 70.4121L120.006 70.4406C119.336 72.7226 119.253 73.1177 119.147 75.5436C117.344 75.3698 114.303 75.5562 112.4 75.619L108.278 75.5607L102.938 75.5981C103.293 73.8881 103.118 72.1704 103.05 70.4108C102.664 68.5366 102.845 66.6407 102.91 64.7132C99.4528 64.7937 95.8504 64.7525 92.3787 64.7646C83.3692 64.7804 73.9491 64.9231 64.9809 64.7005L64.9923 81.1543L64.9815 108.107C52.923 108.229 40.8632 108.246 28.804 108.158C26.314 108.145 12.907 107.924 11.037 108.263L11.063 113.666C11.1068 119.503 11.5751 134.94 10.8936 140.236C11.0148 142.258 11.2242 144.456 11.0776 146.458C10.6194 149.364 11.1303 149.558 9.38333 150.914L5.42685 151.071L5.6039 151.58L5.3653 157.083C3.26744 157.002 2.56245 157.033 0.498223 156.35C-0.47773 152.377 0.246942 12.153 0.443021 11.6426C2.44823 10.2686 2.39175 10.7416 5.31073 10.746L5.37736 5.36286L9.26974 4.92664C10.7635 3.44104 10.3199 2.66621 10.5351 0.0507193Z" fill="#373F4B"/>
<path d="M59.2521 10.7809L59.8175 10.8506C59.8404 13.5042 59.3974 13.5219 60.6856 15.2757C65.6637 17.1107 70.0174 15.6961 75.7354 15.9688L86.6892 16.0404L86.5788 21.6905L86.693 26.8714L86.759 27.1954L86.7222 32.5265L86.5991 43.2212C89.9439 43.1299 94.2049 42.4762 96.8479 43.88C97.8067 45.4416 97.5783 46.3204 97.5104 48.1738L97.4913 48.7717C100.471 48.8282 100.586 48.3311 102.566 49.7818C103.858 52.2679 102.971 56.5415 103.001 59.6097C107.876 59.5539 119.682 59.1361 123.995 59.7327C124.881 61.0547 124.632 63.0488 124.637 64.7633L124.648 70.4121L120.006 70.4406C119.336 72.7226 119.253 73.1177 119.147 75.5436C117.344 75.3698 114.303 75.5562 112.4 75.619L108.278 75.5607L102.938 75.5981C103.293 73.8881 103.118 72.1704 103.05 70.4108C102.664 68.5366 102.845 66.6407 102.91 64.7132C99.4528 64.7937 95.8504 64.7525 92.3787 64.7646C83.3692 64.7804 73.9491 64.9231 64.9809 64.7005L64.9923 81.1543L61.7104 81.1968C56.0279 78.1806 62.6261 68.5074 59.2166 60.5043C57.1117 58.9864 57.0807 59.5127 53.9193 59.5013C53.3266 61.139 52.996 66.6249 52.7828 68.7769C51.513 69.2866 50.5834 69.6556 49.4691 68.9334C49.4317 63.4793 49.386 58.5058 49.0141 53.0694C48.9938 49.7767 48.9126 46.4847 48.7698 43.1946C50.7477 43.263 51.5606 43.4 53.4973 42.8579C54.5437 41.0984 54.1382 40.321 54.1109 37.9877L54.1547 32.7865C56.0095 32.6051 57.3656 32.6407 58.997 31.7657C59.7084 29.9757 59.6868 28.6271 59.8093 26.7331L59.4038 26.7046L59.2413 21.5745L54.2493 21.5992L54.1465 16.119C56.6955 15.854 57.5458 16.242 59.1132 14.7957L59.2521 10.7809Z" fill="#02020A"/>
<path d="M59.2521 10.7809L59.8175 10.8506C59.8404 13.5042 59.3974 13.5219 60.6856 15.2757C65.6637 17.1107 70.0174 15.6961 75.7354 15.9688L86.6892 16.0404L86.5788 21.6905L86.693 26.8714L86.759 27.1954L86.7222 32.5265L86.5991 43.2212C89.9439 43.1299 94.2049 42.4762 96.8479 43.88C97.8067 45.4416 97.5783 46.3204 97.5104 48.1738L97.4913 48.7717L97.4114 53.9095L92.1439 53.9951L86.4868 53.9919L81.72 53.964L81.3405 48.6848L80.7263 48.8332L75.8852 48.9499L75.8427 42.5516L72.7759 43.043C70.5092 41.6931 72.3983 40.2196 70.5885 37.5223C70.263 35.0957 70.4775 29.8553 70.5124 27.2036C68.9063 27.2449 66.5584 27.3849 65.0254 27.2607C63.9593 26.626 61.2059 26.7636 59.8093 26.7331L59.4038 26.7046L59.2413 21.5745L54.2493 21.5992L54.1465 16.119C56.6955 15.854 57.5458 16.242 59.1132 14.7957L59.2521 10.7809Z" fill="#030612"/>
<path d="M59.2521 10.7809L59.8175 10.8506C59.8404 13.5042 59.3974 13.5219 60.6856 15.2757C65.6637 17.1107 70.0174 15.6961 75.7354 15.9688C78.4831 16.4824 79.077 16.0936 80.6755 17.7327C80.6317 19.0204 80.645 20.2017 80.3677 21.4642L76.4462 21.6543C72.2454 21.686 69.0573 21.6803 64.8509 21.3405C63.5018 21.5567 61.4591 21.5979 60.0383 21.6753L59.8093 26.7331L59.4038 26.7046L59.2413 21.5745L54.2493 21.5992L54.1465 16.119C56.6955 15.854 57.5458 16.242 59.1132 14.7957L59.2521 10.7809Z" fill="#272C37"/>
<path d="M64.453 16.5508C66.2075 16.5565 69.1843 16.6523 70.8474 16.5172L70.6939 21.0717C69.1995 21.0717 66.1447 20.9423 64.8509 21.3405C63.5018 21.5567 61.4591 21.5979 60.0383 21.6753L59.8772 21.111C61.0524 21.1642 62.2999 21.064 63.4834 20.9987C64.7569 19.5797 64.3432 18.8924 64.453 16.5508Z" fill="#2F3644"/>
<path d="M54.1465 16.119C57.0908 16.5007 57.5204 16.0189 59.1595 17.7017L59.2413 21.5745L54.2493 21.5992L54.1465 16.119Z" fill="#02020A"/>
<path d="M70.8474 16.5172C74.0463 16.5775 73.8616 16.0721 76.0857 17.6084L76.5217 19.082C74.7468 21.7463 73.7943 21.2435 70.6939 21.0717L70.8474 16.5172Z" fill="#444853"/>
<path d="M59.8772 21.111C59.801 19.742 59.8822 18.8251 59.9793 17.4543C61.6806 16.0727 61.6793 16.5515 64.453 16.5508C64.3432 18.8924 64.7569 19.5797 63.4834 20.9987C62.2999 21.064 61.0524 21.1642 59.8772 21.111Z" fill="#444853"/>
<path d="M70.5124 27.2036C73.1236 26.9386 72.9383 26.5753 75.0831 27.5137C76.0413 29.3474 75.8446 30.3574 75.8306 32.4314L75.8459 37.4779L75.8427 42.5516L72.7759 43.043C70.5092 41.6931 72.3983 40.2196 70.5885 37.5223C70.263 35.0957 70.4775 29.8553 70.5124 27.2036Z" fill="#0A0E1B"/>
<path d="M75.7354 15.9688L86.6892 16.0404L86.5788 21.6905L86.693 26.8714L81.5023 26.9411L81.2682 21.9289L80.3677 21.4642C80.645 20.2017 80.6317 19.0204 80.6755 17.7327C79.077 16.0936 78.4831 16.4824 75.7354 15.9688Z" fill="#141922"/>
<path d="M81.2682 21.9289C82.8806 21.8357 85.0089 21.6474 86.5788 21.6905L86.693 26.8714L81.5023 26.9411L81.2682 21.9289Z" fill="#444853"/>
<path d="M86.4868 53.9919C86.7533 50.6549 86.2 50.8204 87.9831 48.688C90.3075 47.4985 94.7164 48.0533 97.5104 48.1738L97.4913 48.7717L97.4114 53.9095L92.1439 53.9951L86.4868 53.9919Z" fill="#0A0E1B"/>
<path d="M92.1439 53.9951C92.0291 52.2318 92.0836 51.5615 92.281 49.8007C94.1339 48.3196 94.5273 48.8383 97.4913 48.7717L97.4114 53.9095L92.1439 53.9951Z" fill="#444853"/>
<path d="M75.8459 37.4779L80.824 37.4576L80.8303 43.5503L80.7263 48.8332L75.8852 48.9499L75.8427 42.5516L75.8459 37.4779Z" fill="#444853"/>
<path d="M80.824 37.4576L80.8303 43.5503C79.1481 43.497 78.8315 43.471 77.2305 42.9676C75.8941 40.9513 76.0546 41.8155 76.4055 39.7269C78.2007 37.5762 77.634 38.2128 80.824 37.4576Z" fill="#6A7582"/>
<path d="M75.8306 32.4314C78.7604 32.5208 78.7781 32.0358 80.6977 33.4941C82.7251 38.5355 81.4471 43.1051 81.3405 48.6848L80.7263 48.8332L80.8303 43.5503L80.824 37.4576L75.8459 37.4779L75.8306 32.4314Z" fill="#2F3644"/>
<path d="M60.0383 21.6753C61.4591 21.5979 63.5018 21.5567 64.8509 21.3405C64.8591 24.1798 64.3546 24.6217 65.7278 26.4554C67.3288 26.6628 68.9241 26.912 70.5124 27.2036C68.9063 27.2449 66.5584 27.3849 65.0254 27.2607C63.9593 26.626 61.2059 26.7636 59.8093 26.7331L60.0383 21.6753Z" fill="#141922"/>
<path d="M80.3677 21.4642L81.2682 21.9289L81.5023 26.9411C79.5568 27.1491 79.1709 27.1834 77.2482 26.8651C75.9753 24.8589 76.4436 24.4677 76.4462 21.6543L80.3677 21.4642Z" fill="#0A0E1B"/>
<path d="M108.252 64.729L124.637 64.7633L124.648 70.4121L120.006 70.4406C119.336 72.7226 119.253 73.1177 119.147 75.5436C117.344 75.3698 114.303 75.5562 112.4 75.619L108.278 75.5607L102.938 75.5981C103.293 73.8881 103.118 72.1704 103.05 70.4108L104.795 70.1021C105.397 69.9638 107.359 69.9734 108.092 69.9594L108.252 64.729Z" fill="#444853"/>
<path d="M104.795 70.1021C105.397 69.9638 107.359 69.9734 108.092 69.9594C112.197 70.752 115.987 70.1819 120.006 70.4406C119.336 72.7226 119.253 73.1177 119.147 75.5436C117.344 75.3698 114.303 75.5562 112.4 75.619L108.278 75.5607L102.938 75.5981C103.293 73.8881 103.118 72.1704 103.05 70.4108L104.795 70.1021Z" fill="#222733"/>
<path d="M103.05 70.4108L104.795 70.1021C108.756 71.1983 108.251 71.3632 108.278 75.5607L102.938 75.5981C103.293 73.8881 103.118 72.1704 103.05 70.4108Z" fill="#141922"/>
<path d="M118.431 65.327C120.242 65.2965 121.296 65.3251 123.096 65.5077C124.582 67.129 124.165 67.1905 124.574 69.7742C123.088 69.8243 121.602 69.8611 120.115 69.8859C118.384 68.4053 118.885 68.2291 118.431 65.327Z" fill="#5E616B"/>
<path d="M75.8852 48.9499L80.7263 48.8332L81.3405 48.6848L81.72 53.964L86.4868 53.9919L92.1439 53.9951L92.248 59.604C85.0571 59.5444 77.8663 59.5641 70.6761 59.663L70.6812 59.0803C70.5562 57.5414 70.6133 55.5758 70.6095 53.9957L70.2884 53.7865L70.0809 49.0165C72.7473 48.6018 73.2194 48.6366 75.8852 48.9499Z" fill="#373F4B"/>
<path d="M75.8852 48.9499L80.7263 48.8332L81.3405 48.6848L81.72 53.964L76.0863 54.0129L70.6095 53.9957L70.2884 53.7865L70.0809 49.0165C72.7473 48.6018 73.2194 48.6366 75.8852 48.9499Z" fill="#141922"/>
<path d="M70.6095 53.9957L76.0863 54.0129C75.8611 56.4508 76.2349 57.2865 74.882 58.838C73.2385 59.0289 72.3336 59.1025 70.6812 59.0803C70.5562 57.5414 70.6133 55.5758 70.6095 53.9957Z" fill="#545B69"/>
<path d="M65.0076 54.1232C63.1724 54.0382 61.0283 54.2063 59.6354 53.2152C59.5827 49.2327 59.0789 41.184 59.4964 37.8108C59.7699 40.3286 59.4209 41.3945 60.8271 43.0183C62.5239 43.1819 63.3431 43.2307 65.0425 43.147C65.0418 44.6789 64.96 47.4174 65.0583 48.8497L65.0076 54.1232Z" fill="#141922"/>
<path d="M65.0583 48.8497L70.0809 49.0165L70.2884 53.7865L70.6095 53.9957C70.6133 55.5758 70.5562 57.5414 70.6812 59.0803L70.6761 59.663C68.6791 59.7663 67.6575 59.9553 65.7253 59.3726C64.6008 57.5421 65.0171 56.5763 65.0076 54.1232L65.0583 48.8497Z" fill="#141922"/>
<path d="M65.0583 48.8497L70.0809 49.0165L70.2884 53.7865C67.9196 54.2443 67.3681 54.2164 65.0076 54.1232L65.0583 48.8497Z" fill="#2F3644"/>
<path d="M70.5124 27.2036C70.4775 29.8553 70.263 35.0957 70.5885 37.5223C68.662 37.6884 67.6194 37.9705 65.8668 37.1862C64.1979 34.9619 64.9118 30.3916 65.0254 27.2607C66.5584 27.3849 68.9063 27.2449 70.5124 27.2036Z" fill="#444853"/>
<path d="M97.4114 53.9095C97.4558 56.712 97.9444 57.2275 96.688 59.2038C94.9943 59.4581 93.9606 59.5418 92.248 59.604L92.1439 53.9951L97.4114 53.9095Z" fill="#141922"/>
<path d="M102.91 64.7132L108.252 64.729L108.092 69.9594C107.359 69.9734 105.397 69.9638 104.795 70.1021L103.05 70.4108C102.664 68.5366 102.845 66.6407 102.91 64.7132Z" fill="#222733"/>
<path d="M59.4964 37.8108C62.3805 37.8457 62.8571 37.3486 64.7823 38.7277C65.0793 40.5569 65.0755 41.2879 65.0425 43.147C63.3431 43.2307 62.5239 43.1819 60.8271 43.0183C59.4209 41.3945 59.7699 40.3286 59.4964 37.8108Z" fill="#444853"/>
<path d="M5.3653 157.083C3.26744 157.002 2.56245 157.033 0.498223 156.35C-0.47773 152.377 0.246942 12.153 0.443021 11.6426C2.44823 10.2686 2.39175 10.7416 5.31073 10.746C5.20031 19.7065 5.19841 28.6683 5.30375 37.6288L5.32152 58.9356L10.3612 59.0314C10.2533 75.2753 10.2685 91.5193 10.4062 107.763L10.7521 107.738L11.037 108.263L11.063 113.666C11.1068 119.503 11.5751 134.94 10.8936 140.236C11.0148 142.258 11.2242 144.456 11.0776 146.458C10.6194 149.364 11.1303 149.558 9.38333 150.914L5.42685 151.071L5.6039 151.58L5.3653 157.083Z" fill="#02020A"/>
<path d="M5.32152 58.9356L10.3612 59.0314C10.2533 75.2753 10.2685 91.5193 10.4062 107.763L10.7521 107.738L11.037 108.263L11.063 113.666C11.1068 119.503 11.5751 134.94 10.8936 140.236C11.0148 142.258 11.2242 144.456 11.0776 146.458C10.6194 149.364 11.1303 149.558 9.38333 150.914L5.42685 151.071L5.28344 146.571L5.29804 140.902L5.32152 58.9356Z" fill="#828F9B"/>
<path d="M10.4062 107.763L10.7521 107.738L11.037 108.263L11.063 113.666C11.1068 119.503 11.5751 134.94 10.8936 140.236C11.0148 142.258 11.2242 144.456 11.0776 146.458C10.6194 149.364 11.1303 149.558 9.38333 150.914L5.42685 151.071L5.28344 146.571L5.29804 140.902C7.1389 140.868 8.73545 141.083 10.1803 140.087C11.0275 134.42 10.4608 114.302 10.4062 107.763Z" fill="#545B69"/>
<path d="M10.8936 140.236C11.0148 142.258 11.2242 144.456 11.0776 146.458C10.6194 149.364 11.1303 149.558 9.38333 150.914L5.42685 151.071L5.28344 146.571C7.77155 146.521 8.75575 146.873 10.3523 145.539C10.6594 143.643 10.7629 142.132 10.8936 140.236Z" fill="#2F3644"/>
<path d="M10.5351 0.0507193L108.612 0.0608508C113.105 0.0595826 142.998 -0.231401 145.923 0.470501C146.401 2.45003 146.462 3.01179 146.525 5.04965C140.04 5.04014 126.565 4.67174 120.638 5.2538C123.826 5.40154 126.811 5.52835 130.013 5.52898C129.764 8.40127 130.249 8.15528 128.651 9.91733C125.93 10.961 122.839 10.1773 119.755 10.3117C112.511 10.365 100.136 10.1132 93.3128 10.7397C91.2009 10.7574 88.7503 10.635 86.6086 10.5818C80.4286 8.99981 47.4683 10.7771 38.9614 10.3567C36.0558 10.2128 29.8872 10.7866 27.2303 9.83489C26.6998 7.66008 26.8083 8.47546 27.5578 5.91513L27.7945 5.29883C21.8366 5.19802 17.4581 6.37927 12.0612 4.79729C10.3218 3.06505 10.8568 3.1259 10.5351 0.0507193Z" fill="#04050C"/>
<path d="M27.7945 5.29883C58.7419 5.11749 89.6901 5.10226 120.638 5.2538C123.826 5.40154 126.811 5.52835 130.013 5.52898C129.764 8.40127 130.249 8.15528 128.651 9.91733C125.93 10.961 122.839 10.1773 119.755 10.3117C112.511 10.365 100.136 10.1132 93.3128 10.7397C91.2009 10.7574 88.7503 10.635 86.6086 10.5818C80.4286 8.99981 47.4683 10.7771 38.9614 10.3567C36.0558 10.2128 29.8872 10.7866 27.2303 9.83489C26.6998 7.66008 26.8083 8.47546 27.5578 5.91513L27.7945 5.29883Z" fill="#8E9DA9"/>
<path d="M27.7945 5.29883C58.7419 5.11749 89.6901 5.10226 120.638 5.2538C123.826 5.40154 126.811 5.52835 130.013 5.52898C129.764 8.40127 130.249 8.15528 128.651 9.91733C125.93 10.961 122.839 10.1773 119.755 10.3117C119.703 8.43108 119.728 8.0018 119.107 6.23912C114.714 5.54863 95.1993 5.83207 89.9236 5.83397L27.5578 5.91513L27.7945 5.29883Z" fill="#778492"/>
<path d="M5.37736 5.36286L9.26974 4.92664C10.7635 3.44104 10.3199 2.66621 10.5351 0.0507193C10.8568 3.1259 10.3218 3.06505 12.0612 4.79729C17.4581 6.37927 21.8366 5.19802 27.7945 5.29883L27.5578 5.91513C26.8083 8.47546 26.6998 7.66008 27.2303 9.83489C29.8872 10.7866 36.0558 10.2128 38.9614 10.3567C47.4683 10.7771 80.4286 8.99981 86.6086 10.5818L86.6892 16.0404L75.7354 15.9688C70.0174 15.6961 65.6637 17.1107 60.6856 15.2757C59.3974 13.5219 59.8404 13.5042 59.8175 10.8506L59.2521 10.7809C50.8423 10.8589 42.4331 10.8804 34.0233 10.8462C29.6042 10.8081 20.7439 10.4328 16.6897 11.0967C15.8692 12.8961 16.0475 13.9245 16.0665 15.8984C13.7942 15.7012 13.0949 16.0277 11.4913 14.8363C11.2604 12.8371 11.485 11.4593 11.6874 9.47981C9.30339 11.2622 8.77035 11.0085 5.31073 10.746L5.37736 5.36286Z" fill="#6A7582"/>
<path d="M59.8175 10.8506C66.9309 10.7409 80.2389 11.1911 86.6086 10.5818L86.6892 16.0404L75.7354 15.9688C70.0174 15.6961 65.6637 17.1107 60.6856 15.2757C59.3974 13.5219 59.8404 13.5042 59.8175 10.8506Z" fill="#02020A"/>
<path d="M5.37736 5.36286C7.99682 5.61267 9.18027 5.24431 10.8929 6.67601L11.6874 9.47981C9.30339 11.2622 8.77035 11.0085 5.31073 10.746L5.37736 5.36286Z" fill="#02020A"/>
<path d="M11.6874 9.47981C11.485 11.4593 11.2604 12.8371 11.4913 14.8363C13.0949 16.0277 13.7942 15.7012 16.0665 15.8984L21.709 16.4291C19.9735 16.54 17.6377 16.7835 15.9599 16.6047C13.9617 16.3752 12.5143 15.9409 10.8587 16.9154C10.4005 20.6259 10.7388 24.512 10.8162 28.2485C11.3162 52.2318 10.8282 76.2245 10.9672 100.211C10.9812 102.724 11.0313 105.237 10.7521 107.738L10.4062 107.763C10.2685 91.5193 10.2533 75.2753 10.3612 59.0314L5.32152 58.9356L5.30375 37.6288C5.19841 28.6683 5.20031 19.7065 5.31073 10.746C8.77035 11.0085 9.30339 11.2622 11.6874 9.47981Z" fill="#6A7582"/>
<path d="M5.30375 37.6288C7.59959 37.708 8.63074 37.3346 10.2501 38.4677C10.8155 44.1602 10.4418 53.0833 10.3612 59.0314L5.32152 58.9356L5.30375 37.6288Z" fill="#8E9DA9"/>
<path d="M43.3983 37.5553L48.9875 37.4215C50.3036 37.599 52.8919 38.0276 54.1109 37.9877C54.1382 40.321 54.5437 41.0984 53.4973 42.8579C51.5606 43.4 50.7477 43.263 48.7698 43.1946C47.1384 49.6271 51.5302 53.959 43.444 53.848L43.4706 70.3652C41.3188 70.4216 39.8365 70.6417 37.8478 69.8396C37.8751 59.1716 37.8478 48.5035 37.7672 37.8361C39.3282 37.6351 41.7414 37.6187 43.3983 37.5553Z" fill="#02020A"/>
<path d="M43.3983 37.5553L48.9875 37.4215C50.3036 37.599 52.8919 38.0276 54.1109 37.9877C54.1382 40.321 54.5437 41.0984 53.4973 42.8579C51.5606 43.4 50.7477 43.263 48.7698 43.1946C47.1384 49.6271 51.5302 53.959 43.444 53.848L43.4084 38.1944C41.8011 38.2255 39.4297 37.9655 37.7672 37.8361C39.3282 37.6351 41.7414 37.6187 43.3983 37.5553Z" fill="#2F3644"/>
<path d="M43.3983 37.5553L48.9875 37.4215C50.3036 37.599 52.8919 38.0276 54.1109 37.9877C54.1382 40.321 54.5437 41.0984 53.4973 42.8579C51.5606 43.4 50.7477 43.263 48.7698 43.1946C49.0205 41.3298 49.0827 40.886 48.8644 39.0256C46.9981 37.6497 46.2906 38.1798 43.4084 38.1944C41.8011 38.2255 39.4297 37.9655 37.7672 37.8361C39.3282 37.6351 41.7414 37.6187 43.3983 37.5553Z" fill="#141922"/>
<path d="M32.5181 81.0257L37.4487 81.2374L37.8078 83.631L38.2399 81.8911C40.2978 80.6224 40.5916 81.072 43.4122 81.0422L43.4846 87.112L43.3932 91.7888C40.7839 92.0703 39.7775 91.6696 38.285 93.185L37.9017 97.449C36.0888 97.6405 34.6947 97.8352 32.8557 97.7629L31.3359 96.846L26.6586 97.2087L26.9676 91.9853L26.9594 86.457C26.8921 84.5821 26.7861 83.7597 27.2881 81.8968C29.0636 80.7289 30.089 81.1106 32.5181 81.0257Z" fill="#141922"/>
<path d="M37.8078 83.631L38.2399 81.8911C40.2978 80.6224 40.5916 81.072 43.4122 81.0422L43.4846 87.112L43.3932 91.7888C40.7839 92.0703 39.7775 91.6696 38.285 93.185L37.9017 97.449L37.4582 93.1774C36.0564 91.596 35.6091 91.9974 33.0696 91.5675C34.4116 91.5079 35.4542 91.3639 36.7862 91.1845C38.0255 89.6209 37.606 88.7269 37.6815 86.3333L37.8078 83.631Z" fill="#030612"/>
<path d="M43.3932 91.7888L39.8847 91.4299C38.1606 90.0584 38.6943 90.7869 37.9664 88.557L38.6042 87.3395C40.9635 86.2559 40.4882 86.644 43.4846 87.112L43.3932 91.7888Z" fill="#02020A"/>
<path d="M32.5181 81.0257L37.4487 81.2374L37.8078 83.631L37.6815 86.3333L32.5543 86.3346L26.9594 86.457C26.8921 84.5821 26.7861 83.7597 27.2881 81.8968C29.0636 80.7289 30.089 81.1106 32.5181 81.0257Z" fill="#02020A"/>
<path d="M32.5181 81.0257L37.4487 81.2374L37.8078 83.631L37.6815 86.3333L32.5543 86.3346L32.5181 81.0257Z" fill="#272C37"/>
<path d="M26.9594 86.457L32.5543 86.3346C32.5092 88.9754 32.9763 89.8999 31.6539 91.693C29.6328 92.0601 29.0293 92.0513 26.9676 91.9853L26.9594 86.457Z" fill="#2F3644"/>
<path d="M37.9017 97.449C35.741 97.34 34.2682 97.5409 32.685 96.1885C32.152 94.4366 32.6241 93.3682 33.0696 91.5675C35.6091 91.9974 36.0564 91.596 37.4582 93.1774L37.9017 97.449Z" fill="#02020A"/>
<path d="M43.444 53.848C51.5302 53.959 47.1384 49.6271 48.7698 43.1946C48.9126 46.4847 48.9938 49.7767 49.0141 53.0694C49.386 58.5058 49.4317 63.4793 49.4691 68.9334C50.5834 69.6556 51.513 69.2866 52.7828 68.7769C52.996 66.6249 53.3266 61.139 53.9193 59.5013C54.1737 62.7882 55.4143 72.2217 53.0709 74.5151C50.8023 76.7356 49.0357 75.2494 48.7127 79.4348C48.6702 80.0092 48.6353 80.585 48.608 81.1607L43.4122 81.0422L43.4706 70.3652L43.444 53.848Z" fill="#0A0E1B"/>
<path d="M43.444 53.848C51.5302 53.959 47.1384 49.6271 48.7698 43.1946C48.9126 46.4847 48.9938 49.7767 49.0141 53.0694C48.4475 58.4088 49.1169 66.1589 48.4843 70.3297L43.4706 70.3652L43.444 53.848Z" fill="#272C37"/>
<path d="M43.4706 70.3652L48.4843 70.3297C48.4982 72.8228 48.2704 79.0493 48.608 81.1607L43.4122 81.0422L43.4706 70.3652Z" fill="#02020A"/>
<path d="M48.7083 21.5852L54.2493 21.5992L59.2413 21.5745L59.4038 26.7046L59.8093 26.7331C59.6868 28.6271 59.7084 29.9757 58.997 31.7657C57.3656 32.6407 56.0095 32.6051 54.1547 32.7865L54.1109 37.9877C52.8919 38.0276 50.3036 37.599 48.9875 37.4215L43.3983 37.5553L43.451 26.9728L47.3554 26.5404C48.9526 24.9983 48.4741 24.3567 48.7083 21.5852Z" fill="#222733"/>
<path d="M43.451 26.9728C45.2417 27.1275 47.1314 27.3425 48.9183 27.3247L49.1042 31.8937L48.9875 37.4215L43.3983 37.5553L43.451 26.9728Z" fill="#02020A"/>
<path d="M49.1042 31.8937C50.8176 32.1936 52.305 32.5607 54.036 32.4238L54.1547 32.7865L54.1109 37.9877C52.8919 38.0276 50.3036 37.599 48.9875 37.4215L49.1042 31.8937Z" fill="#272C37"/>
<path d="M54.2493 21.5992L59.2413 21.5745L59.4038 26.7046C57.5617 26.8936 56.0565 26.7699 54.2207 26.6824L54.2493 21.5992Z" fill="#444853"/>
<path d="M48.7083 21.5852L54.2493 21.5992L54.2207 26.6824C52.9319 26.6717 51.5898 26.6013 50.2966 26.5537C48.7026 24.9185 49.122 24.3599 48.7083 21.5852Z" fill="#02020A"/>
<path d="M48.9183 27.3247C51.4426 27.2924 52.1209 26.8397 53.9301 28.026C54.3501 29.8788 54.2137 30.5692 54.036 32.4238C52.305 32.5607 50.8176 32.1936 49.1042 31.8937L48.9183 27.3247Z" fill="#373F4B"/>
<path d="M37.8478 69.8396C39.8365 70.6417 41.3188 70.4216 43.4706 70.3652L43.4122 81.0422C40.5916 81.072 40.2978 80.6224 38.2399 81.8911L37.8078 83.631L37.4487 81.2374L32.5181 81.0257L32.5594 70.0145C34.0753 69.6671 36.2373 69.8136 37.8478 69.8396Z" fill="#222733"/>
<path d="M32.5594 70.0145C35.5786 70.4108 35.59 69.9024 37.3871 71.6226C38.5331 74.0447 37.856 78.4913 37.4487 81.2374L32.5181 81.0257L32.5594 70.0145Z" fill="#02020A"/>
<path d="M20.8574 90.6049C22.9781 92.3999 23.6685 92.0443 26.9676 91.9853L26.6586 97.2087L31.3359 96.846L32.8557 97.7629C32.6691 100.297 33.0632 100.958 31.7217 102.691L29.4513 103.33C26.0729 102.63 23.6666 103.147 21.5624 101.669C21.0948 100.298 21.0795 99.8184 21.2033 98.3772C19.7774 97.1547 18.1396 97.317 16.1623 97.1801C18.297 96.9804 19.2234 97.2429 20.8149 96.1681L21.2997 92.4405L21.2953 92.1228L20.8574 90.6049Z" fill="#030612"/>
<path d="M20.8574 90.6049C22.9781 92.3999 23.6685 92.0443 26.9676 91.9853L26.6586 97.2087C25.2746 97.2252 24.1032 97.156 22.7218 97.0736C21.3695 95.6444 21.6532 94.7301 21.2997 92.4405L21.2953 92.1228L20.8574 90.6049Z" fill="#2F3644"/>
<path d="M31.3359 96.846L32.8557 97.7629C32.6691 100.297 33.0632 100.958 31.7217 102.691L29.4513 103.33C27.6587 101.418 28.0369 102.313 27.7507 99.9814C28.6822 98.1287 29.5604 97.8295 31.3359 96.846Z" fill="#02020A"/>
<path d="M16.1966 21.5694L21.6817 21.5256C21.6164 24.6585 21.9159 24.9229 20.1607 26.9487C17.9791 27.6297 18.8288 27.7064 16.9498 26.7952C15.6141 24.4277 16.076 24.7105 16.1966 21.5694Z" fill="#141922"/>
<path d="M26.9594 86.457L26.9676 91.9853C23.6685 92.0443 22.9781 92.3999 20.8574 90.6049L21.5364 87.5006C23.3938 86.0042 23.9738 86.5318 26.9594 86.457Z" fill="#02020A"/>
<path d="M21.709 16.4291L21.6817 21.5256L16.1966 21.5694L15.9599 16.6047C17.6377 16.7835 19.9735 16.54 21.709 16.4291Z" fill="#778492"/>
<path d="M21.2953 92.1228L21.2997 92.4405L20.8149 96.1681C19.2234 97.2429 18.297 96.9804 16.1623 97.1801C16.1236 95.4472 16.1846 94.6787 16.4092 92.9585C18.2621 91.6067 18.4588 92.0988 21.2953 92.1228Z" fill="#02020A"/>
<path d="M92.3787 64.7646C95.8504 64.7525 99.4528 64.7937 102.91 64.7132C102.845 66.6407 102.664 68.5366 103.05 70.4108C103.118 72.1704 103.293 73.8881 102.938 75.5981L108.278 75.5607L112.4 75.619C115.304 75.8396 117.114 75.7383 119.537 77.2942L118.577 77.0729L120.118 78.6352C116.362 81.5437 110.785 80.5247 106.638 81.129C104.655 81.3122 104.294 80.9743 103.19 82.1549C103.349 84.9086 103.692 84.1953 102.443 86.3333C101.026 86.4436 99.6101 86.5692 98.1957 86.7087C96.9272 89.4351 97.6614 104.14 97.7559 108.083C104.85 109.158 143.478 107.411 145.844 109.084C146.34 111.019 146.295 111.445 146.201 113.453L140.621 113.546L135.488 113.573L129.893 113.532C130.012 115.341 130.101 117.645 130.295 119.403L129.772 119.288L124.581 118.888L124.665 124.447L124.555 124.902L124.548 129.788L124.663 135.204L124.583 139.731L124.652 140.368C122.85 140.562 121.261 140.441 119.457 140.368L118.897 140.445L114.456 140.806L108.133 140.833L108.279 140.184L103.271 140.156L103.471 135.18L98.0872 135.163L98.0186 140.11L97.433 140.339C94.2741 141.199 84.6053 140.874 80.7516 140.833L60.3626 140.755L59.9305 140.902L59.8347 145.982L16.5685 145.847L16.2918 145.542C14.786 145.861 12.5479 146.422 11.0776 146.458C11.2242 144.456 11.0148 142.258 10.8936 140.236C11.5751 134.94 11.1068 119.503 11.063 113.666L11.037 108.263C12.907 107.924 26.314 108.145 28.804 108.158C40.8632 108.246 52.923 108.229 64.9815 108.107L64.9923 81.1543L64.9809 64.7005C73.9491 64.9231 83.3692 64.7804 92.3787 64.7646Z" fill="#02020A"/>
<path d="M11.063 113.666C17.3718 113.602 26.9467 113.209 33.0036 113.6C36.6466 113.538 40.2902 113.517 43.9338 113.536C42.9103 115.349 43.265 116.844 43.4097 118.982L43.4611 124.357L43.4662 129.633L43.3456 135.146L43.5239 135.541C44.6249 135.098 47.3078 135.024 48.6163 134.931L49.0731 139.365L49.2324 135.084L54.0487 134.997L54.3076 135.434C56.7761 135.177 57.2107 134.718 59.1791 135.664C59.8784 137.584 59.7978 139.142 60.3626 140.755L59.9305 140.902L59.8347 145.982L16.5685 145.847L16.2918 145.542C14.786 145.861 12.5479 146.422 11.0776 146.458C11.2242 144.456 11.0148 142.258 10.8936 140.236C11.5751 134.94 11.1068 119.503 11.063 113.666Z" fill="#272C37"/>
<path d="M38.2444 124.336L43.4611 124.357L43.4662 129.633L43.3456 135.146L43.5239 135.541C44.6249 135.098 47.3078 135.024 48.6163 134.931L49.0731 139.365L49.2324 135.084L54.0487 134.997L54.3076 135.434C56.7761 135.177 57.2107 134.718 59.1791 135.664C59.8784 137.584 59.7978 139.142 60.3626 140.755L59.9305 140.902L59.8347 145.982L16.5685 145.847L16.2918 145.542L16.1852 140.892L16.868 140.768C17.9499 140.347 20.1169 140.313 21.3632 140.231C21.6525 139.271 21.8067 136.298 21.8962 135.147L26.9315 135.171C27.0444 137.68 26.6484 138.39 27.8947 140.198C29.7768 140.641 30.2686 140.569 32.2116 140.449C32.4997 139.324 32.6215 136.484 32.7129 135.198L32.6158 129.99L32.671 129.567C34.3691 129.612 36.2918 129.712 37.9684 129.667C38.4811 127.828 38.3009 126.25 38.2444 124.336Z" fill="#778492"/>
<path d="M38.2444 124.336L43.4611 124.357L43.4662 129.633L43.3456 135.146L43.5239 135.541L43.3094 140.673L38.4449 140.706L32.1095 140.872L32.2116 140.449C32.4997 139.324 32.6215 136.484 32.7129 135.198L32.6158 129.99L32.671 129.567C34.3691 129.612 36.2918 129.712 37.9684 129.667C38.4811 127.828 38.3009 126.25 38.2444 124.336Z" fill="#444853"/>
<path d="M38.2444 124.336L43.4611 124.357L43.4662 129.633L43.3456 135.146L38.1086 135.284C37.6079 133.262 37.8395 131.74 37.9684 129.667C38.4811 127.828 38.3009 126.25 38.2444 124.336Z" fill="#141922"/>
<path d="M38.1086 135.284C38.2514 133.611 38.3973 132.366 38.6803 130.712C40.4457 129.409 40.9552 129.8 43.4662 129.633L43.3456 135.146L38.1086 135.284Z" fill="#02020A"/>
<path d="M38.1086 135.284L43.3456 135.146L43.5239 135.541L43.3094 140.673L38.4449 140.706L38.2983 140.43L38.1086 135.284Z" fill="#141922"/>
<path d="M32.7129 135.198C35.2277 135.237 35.736 134.783 37.3465 136.088C37.5565 137.251 37.87 139.424 38.2983 140.43L38.4449 140.706L32.1095 140.872L32.2116 140.449C32.4997 139.324 32.6215 136.484 32.7129 135.198Z" fill="#5F6A7A"/>
<path d="M54.0487 134.997L54.3076 135.434C56.7761 135.177 57.2107 134.718 59.1791 135.664C59.8784 137.584 59.7978 139.142 60.3626 140.755L59.9305 140.902C58.0008 140.539 51.7846 140.77 49.1594 140.684L49.2705 140.306L49.0731 139.365L49.2324 135.084L54.0487 134.997Z" fill="#444853"/>
<path d="M54.0487 134.997L54.3076 135.434C54.2245 137.986 54.6807 138.464 53.3152 140.049C51.8836 140.181 50.7071 140.29 49.2705 140.306L49.0731 139.365L49.2324 135.084L54.0487 134.997Z" fill="#141922"/>
<path d="M21.8962 135.147L26.9315 135.171C27.0444 137.68 26.6484 138.39 27.8947 140.198C29.7768 140.641 30.2686 140.569 32.2116 140.449L32.1095 140.872C27.0292 140.998 21.9463 140.963 16.868 140.768C17.9499 140.347 20.1169 140.313 21.3632 140.231C21.6525 139.271 21.8067 136.298 21.8962 135.147Z" fill="#5E616B"/>
<path d="M43.5239 135.541C44.6249 135.098 47.3078 135.024 48.6163 134.931L49.0731 139.365L49.2705 140.306L49.1594 140.684L43.3094 140.673L43.5239 135.541Z" fill="#5F6A7A"/>
<path d="M33.0036 113.6C36.6466 113.538 40.2902 113.517 43.9338 113.536C42.9103 115.349 43.265 116.844 43.4097 118.982L43.4611 124.357L38.2444 124.336C38.3009 126.25 38.4811 127.828 37.9684 129.667C36.2918 129.712 34.3691 129.612 32.671 129.567L32.6869 124.278C32.7275 122.718 32.5797 120.764 32.508 119.17C32.2795 116.619 32.2878 116.295 33.0981 113.874L33.0036 113.6Z" fill="#272C37"/>
<path d="M32.508 119.17C32.2795 116.619 32.2878 116.295 33.0981 113.874C36.1757 114.067 35.9555 113.53 37.6346 115.231C38.5242 118.593 37.1682 120.639 37.6035 124.242L32.6869 124.278C32.7275 122.718 32.5797 120.764 32.508 119.17Z" fill="#373F4B"/>
<path d="M38.2444 124.336C38.1454 122.393 38.0667 121.798 38.4982 119.914C40.5377 118.559 40.5167 119.019 43.4097 118.982L43.4611 124.357L38.2444 124.336Z" fill="#02020A"/>
<path d="M32.6869 124.278L37.6035 124.242L37.9684 129.667C36.2918 129.712 34.3691 129.612 32.671 129.567L32.6869 124.278Z" fill="#4C545F"/>
<path d="M27.0063 129.434C29.0693 129.346 30.1855 129.123 32.1025 129.896L32.6158 129.99L32.7129 135.198C32.6215 136.484 32.4997 139.324 32.2116 140.449C30.2686 140.569 29.7768 140.641 27.8947 140.198C26.6484 138.39 27.0444 137.68 26.9315 135.171L27.0063 129.434Z" fill="#141922"/>
<path d="M27.5089 135.293C27.5019 133.749 27.5787 132.456 27.6771 130.925C29.3326 129.503 29.3472 129.978 32.1025 129.896C32.2129 131.735 32.1672 132.367 31.9394 134.199C30.24 135.514 29.9767 135.117 27.5089 135.293Z" fill="#02020A"/>
<path d="M27.8839 119.663C28.9544 118.654 30.629 118.665 31.6875 119.685L32.508 119.17C32.5797 120.764 32.7275 122.718 32.6869 124.278L32.671 129.567L32.6158 129.99L32.1025 129.896C30.1855 129.123 29.0693 129.346 27.0063 129.434L26.8851 124.214C26.842 122.697 27.0032 120.706 27.0799 119.15L27.8839 119.663Z" fill="#222733"/>
<path d="M27.8839 119.663C28.9544 118.654 30.629 118.665 31.6875 119.685C32.4984 120.467 32.751 121.663 32.3265 122.706C31.9013 123.748 30.8841 124.427 29.7571 124.421C28.6308 124.414 27.6212 123.722 27.2088 122.675C26.7963 121.627 27.0641 120.434 27.8839 119.663Z" fill="#0A0E1B"/>
<path d="M21.9013 124.341L26.8851 124.214L27.0063 129.434L26.9315 135.171L21.8962 135.147L21.7547 129.837C21.6951 128.217 21.8423 126.008 21.9013 124.341Z" fill="#444853"/>
<path d="M21.9013 124.341L26.8851 124.214L27.0063 129.434L21.7547 129.837C21.6951 128.217 21.8423 126.008 21.9013 124.341Z" fill="#545B69"/>
<path d="M21.4241 120.139C21.5828 116.826 21.2686 116.637 23.0981 114.582C25.1997 113.927 24.3647 113.863 26.2423 114.727C27.4854 116.827 27.0977 116.408 27.0799 119.15C27.0032 120.706 26.842 122.697 26.8851 124.214L21.9013 124.341L21.4013 123.46C22.0802 122.46 22.0898 121.149 21.4241 120.139Z" fill="#2F3644"/>
<path d="M10.8936 140.236L15.9193 140.298L16.1852 140.892L16.2918 145.542C14.786 145.861 12.5479 146.422 11.0776 146.458C11.2242 144.456 11.0148 142.258 10.8936 140.236Z" fill="#141922"/>
<path d="M21.4013 123.46C20.662 124.549 19.2964 125.027 18.0387 124.636C16.7804 124.246 15.9269 123.078 15.9358 121.762C15.9447 120.446 16.8147 119.291 18.0781 118.918C19.3409 118.544 20.7001 119.04 21.4241 120.139C22.0898 121.149 22.0802 122.46 21.4013 123.46Z" fill="#02020A"/>
<path d="M16.13 135.076L21.2147 135.174C21.1443 137.035 20.9939 138.392 21.3632 140.231C20.1169 140.313 17.9499 140.347 16.868 140.768L16.1852 140.892L15.9193 140.298C16.0614 138.743 16.0716 136.679 16.13 135.076Z" fill="#141922"/>
<path d="M16.13 135.076C16.1592 131.968 15.6858 132.256 17.1377 130.015L18.7996 129.402C20.8448 130.518 20.1886 129.858 21.2953 131.885L21.2147 135.174L16.13 135.076Z" fill="#0A0E1B"/>
<path d="M64.9809 64.7005C73.9491 64.9231 83.3692 64.7804 92.3787 64.7646L92.3533 81.167C92.2721 84.1167 92.7784 84.1978 91.2771 86.0188C86.4443 87.7625 81.5962 86.4005 75.8408 86.5134L75.8465 81.1861L71.0181 81.4467L70.3322 82.8701L70.0695 81.7548C68.6741 80.7175 66.8694 81.0814 64.9923 81.1543L64.9809 64.7005Z" fill="#222733"/>
<path d="M71.0181 81.4467C70.5219 78.4679 69.2452 70.6626 73.5799 70.4216C76.8231 73.261 75.9671 77.175 75.8465 81.1861L71.0181 81.4467Z" fill="#4C545F"/>
<path d="M70.2497 124.338L70.7085 124.195L75.8865 124.385L86.6512 124.479L87.1696 124.284L87.6176 124.324C89.8747 124.329 90.2472 123.958 91.9396 125.051C92.4288 126.863 92.3216 127.902 92.2797 129.739C89.8544 129.977 88.9546 129.621 87.3898 130.963C87.2058 132.303 87.0376 133.772 86.8009 135.091C90.0695 135.032 94.4886 134.421 96.9621 135.995C97.7883 137.748 97.577 138.412 97.433 140.339C94.2741 141.199 84.6053 140.874 80.7516 140.833L60.3626 140.755C59.7978 139.142 59.8784 137.584 59.1791 135.664C57.2107 134.718 56.7761 135.177 54.3076 135.434L54.0487 134.997C54.0551 133.188 53.8799 132.008 54.6966 130.412L56.6549 129.962L59.6424 130.251L64.8724 130.103L64.8305 129.644L64.908 124.379L70.2497 124.338Z" fill="#02020A"/>
<path d="M70.2497 124.338L70.7085 124.195L75.8865 124.385L86.6512 124.479L87.1696 124.284L87.6176 124.324C89.8747 124.329 90.2472 123.958 91.9396 125.051C92.4288 126.863 92.3216 127.902 92.2797 129.739C89.8544 129.977 88.9546 129.621 87.3898 130.963C87.2058 132.303 87.0376 133.772 86.8009 135.091L70.6843 135.106L65.0082 135.182L64.8724 130.103L64.8305 129.644L64.908 124.379L70.2497 124.338Z" fill="#141922"/>
<path d="M87.1696 124.284L87.6176 124.324C89.8747 124.329 90.2472 123.958 91.9396 125.051C92.4288 126.863 92.3216 127.902 92.2797 129.739C89.8544 129.977 88.9546 129.621 87.3898 130.963C87.2058 132.303 87.0376 133.772 86.8009 135.091L70.6843 135.106L70.619 134.595C70.4483 132.798 70.4388 132.474 70.7694 130.702C72.5506 129.459 73.505 129.807 75.9652 129.627C78.4127 130.008 83.3127 130.544 85.462 129.36C87.0465 127.257 86.5465 127.609 86.6512 124.479L87.1696 124.284Z" fill="#2F3644"/>
<path d="M70.619 134.595C70.4483 132.798 70.4388 132.474 70.7694 130.702C72.5506 129.459 73.505 129.807 75.9652 129.627C75.7862 132.348 76.2152 132.659 74.8547 134.522C72.9764 134.858 72.5284 134.789 70.619 134.595Z" fill="#545B69"/>
<path d="M87.6176 124.324C89.8747 124.329 90.2472 123.958 91.9396 125.051C92.4288 126.863 92.3216 127.902 92.2797 129.739C90.3766 129.578 89.1551 129.657 87.5294 128.675C86.7597 127.144 87.24 126.069 87.6176 124.324Z" fill="#444853"/>
<path d="M70.2497 124.338L70.7085 124.195L71.1101 128.33C73.2378 129.826 73.7049 128.806 75.9652 129.627C73.505 129.807 72.5506 129.459 70.7694 130.702C70.4388 132.474 70.4483 132.798 70.619 134.595L70.6843 135.106L65.0082 135.182L64.8724 130.103L64.8305 129.644L64.908 124.379L70.2497 124.338Z" fill="#222733"/>
<path d="M64.908 124.379L70.2497 124.338C70.2954 127.067 70.725 127.205 69.558 129.249C67.8269 130.048 66.7006 129.797 64.8305 129.644L64.908 124.379Z" fill="#444853"/>
<path d="M54.0487 134.997C54.0551 133.188 53.8799 132.008 54.6966 130.412L56.6549 129.962L59.6424 130.251L64.8724 130.103L65.0082 135.182C65.0818 137.268 64.7582 138.407 65.7551 139.93C74.5901 141.18 88.7065 139.424 97.433 140.339C94.2741 141.199 84.6053 140.874 80.7516 140.833L60.3626 140.755C59.7978 139.142 59.8784 137.584 59.1791 135.664C57.2107 134.718 56.7761 135.177 54.3076 135.434L54.0487 134.997Z" fill="#141922"/>
<path d="M64.8724 130.103L65.0082 135.182C63.6077 135.122 62.2244 135.007 60.8271 134.9C59.4387 133.407 59.8467 132.722 59.6424 130.251L64.8724 130.103Z" fill="#030612"/>
<path d="M75.7024 91.8242C81.2878 91.8889 86.8739 91.8566 92.458 91.7266C92.2543 101.094 92.2435 110.465 92.4263 119.833C93.6192 119.66 102.475 118.746 102.682 118.621L107.109 118.64C108.826 120.524 108.184 126.764 108.083 129.722L108.383 130.364C108.351 131.761 108.235 133.837 108.401 135.165L103.471 135.18L98.0872 135.163L98.0186 140.11L97.433 140.339C97.577 138.412 97.7883 137.748 96.9621 135.995C94.4886 134.421 90.0695 135.032 86.8009 135.091C87.0376 133.772 87.2058 132.303 87.3898 130.963C88.9546 129.621 89.8544 129.977 92.2797 129.739C92.3216 127.902 92.4288 126.863 91.9396 125.051C90.2472 123.958 89.8747 124.329 87.6176 124.324L87.1696 124.284C86.3523 120.938 86.6949 101.603 86.733 97.3266C82.9256 96.5873 79.5054 97.9321 76.7565 96.5644C75.3636 94.6134 75.8167 94.6591 75.7024 91.8242Z" fill="#141922"/>
<path d="M107.109 118.64C108.826 120.524 108.184 126.764 108.083 129.722L108.383 130.364C108.351 131.761 108.235 133.837 108.401 135.165L103.471 135.18L98.0872 135.163C97.999 133.07 97.8093 131.535 99.0504 130.095C100.629 130.042 101.035 130.147 102.379 129.425C103.412 127.422 103.194 122.065 103.325 119.423L107.109 118.64Z" fill="#0A0E1B"/>
<path d="M107.109 118.64C108.826 120.524 108.184 126.764 108.083 129.722C106.274 129.702 105.881 129.764 104.308 128.912C102.99 126.831 103.464 122.381 103.325 119.423L107.109 118.64Z" fill="#02020A"/>
<path d="M75.8643 97.4718C78.9216 97.5156 83.8508 97.7368 86.733 97.3266C86.6949 101.603 86.3523 120.938 87.1696 124.284L86.6512 124.479L75.8865 124.385L70.7085 124.195C70.612 122.6 70.6729 120.188 70.6666 118.526C72.3812 118.638 72.7962 118.64 74.4885 118.358C75.8465 116.469 75.4613 115.417 75.679 112.698L75.8643 97.4718Z" fill="#272C37"/>
<path d="M70.6666 118.526C72.3812 118.638 72.7962 118.64 74.4885 118.358C75.8465 116.469 75.4613 115.417 75.679 112.698L75.8865 124.385L70.7085 124.195C70.612 122.6 70.6729 120.188 70.6666 118.526Z" fill="#444853"/>
<path d="M43.9338 113.536C47.0337 113.507 51.2002 113.596 54.208 113.398L54.1319 118.806C56.8586 118.549 56.8694 118.073 58.7032 119.256C60.6259 123.398 60.0536 124.635 58.8301 129.081C57.8726 129.678 57.7965 129.825 56.6549 129.962L54.6966 130.412C53.8799 132.008 54.0551 133.188 54.0487 134.997L49.2324 135.084L49.0731 139.365L48.6163 134.931C47.3078 135.024 44.6249 135.098 43.5239 135.541L43.3456 135.146L43.4662 129.633L43.4611 124.357L43.4097 118.982C43.265 116.844 42.9103 115.349 43.9338 113.536Z" fill="#2F3644"/>
<path d="M54.1319 118.806C56.8586 118.549 56.8694 118.073 58.7032 119.256C60.6259 123.398 60.0536 124.635 58.8301 129.081C57.8726 129.678 57.7965 129.825 56.6549 129.962L54.6966 130.412C53.8799 132.008 54.0551 133.188 54.0487 134.997L49.2324 135.084L49.1506 129.584L49.0605 124.269C48.9183 122.328 48.8377 121.782 49.2242 119.887C50.9857 118.66 51.7205 119 54.1319 118.806Z" fill="#02020A"/>
<path d="M49.0605 124.269C52.2079 124.424 51.7186 123.923 53.8387 125.567L54.3495 127.199C52.8063 130.052 52.2574 129.645 49.1506 129.584L49.0605 124.269Z" fill="#141922"/>
<path d="M43.4611 124.357C46.5444 124.407 46.3858 123.887 48.2812 125.458C49.3854 128.251 48.3009 131.393 48.6163 134.931C47.3078 135.024 44.6249 135.098 43.5239 135.541L43.3456 135.146L43.4662 129.633L43.4611 124.357Z" fill="#4C545F"/>
<path d="M113.839 124.304L119.003 124.42L119.116 124.916C120.939 124.23 122.714 124.085 124.555 124.902L124.548 129.788L124.663 135.204L124.583 139.731L124.652 140.368C122.85 140.562 121.261 140.441 119.457 140.368L118.897 140.445L114.456 140.806L108.133 140.833L108.279 140.184L103.271 140.156L103.471 135.18L108.401 135.165C108.78 132.51 108.583 131.201 111.177 130.098C112.561 130.468 112.681 130.785 113.684 131.907L114.018 129.471C113.853 128.121 113.874 125.746 113.839 124.304Z" fill="#4C545F"/>
<path d="M108.401 135.165C108.78 132.51 108.583 131.201 111.177 130.098C112.561 130.468 112.681 130.785 113.684 131.907L113.994 135.015L119.053 135.065L118.897 140.445L114.456 140.806L108.133 140.833L108.279 140.184L103.271 140.156L103.471 135.18L108.401 135.165Z" fill="#5F6A7A"/>
<path d="M108.401 135.165C108.78 132.51 108.583 131.201 111.177 130.098C112.561 130.468 112.681 130.785 113.684 131.907L113.994 135.015L113.765 135.479C111.334 135.163 111.143 134.707 109.321 135.703C109.021 136.789 108.501 139.557 108.279 140.184L103.271 140.156L103.471 135.18L108.401 135.165Z" fill="#444853"/>
<path d="M103.471 135.18L108.401 135.165C108.337 136.651 108.179 138.753 108.279 140.184L103.271 140.156L103.471 135.18Z" fill="#141922"/>
<path d="M113.994 135.015L119.053 135.065L118.897 140.445L114.456 140.806C113.601 139.305 113.797 137.299 113.765 135.479L113.994 135.015Z" fill="#0A0E1B"/>
<path d="M113.839 124.304L119.003 124.42L119.116 124.916L119.196 129.39L119.053 135.065L113.994 135.015L113.684 131.907L114.018 129.471C113.853 128.121 113.874 125.746 113.839 124.304Z" fill="#02020A"/>
<path d="M113.839 124.304L119.003 124.42L119.116 124.916L119.196 129.39L114.018 129.471C113.853 128.121 113.874 125.746 113.839 124.304Z" fill="#141922"/>
<path d="M119.457 140.368C119.443 137.404 119.104 136.836 121.211 134.964L122.63 135.075C124.627 137 124.036 136.496 124.583 139.731L124.652 140.368C122.85 140.562 121.261 140.441 119.457 140.368Z" fill="#6A7582"/>
<path d="M102.682 118.621C102.754 116.67 102.753 116.116 103.296 114.252C105.256 113.071 105.698 113.504 108.368 113.494L113.813 113.513L113.816 119.19L113.839 124.304C113.874 125.746 113.853 128.121 114.018 129.471L113.684 131.907C112.681 130.785 112.561 130.468 111.177 130.098C108.583 131.201 108.78 132.51 108.401 135.165C108.235 133.837 108.351 131.761 108.383 130.364L108.083 129.722C108.184 126.764 108.826 120.524 107.109 118.64L102.682 118.621Z" fill="#373F4B"/>
<path d="M102.682 118.621C102.754 116.67 102.753 116.116 103.296 114.252C105.256 113.071 105.698 113.504 108.368 113.494C108.218 118.735 109.336 125.66 108.383 130.364L108.083 129.722C108.184 126.764 108.826 120.524 107.109 118.64L102.682 118.621Z" fill="#222733"/>
<path d="M92.3787 64.7646C95.8504 64.7525 99.4528 64.7937 102.91 64.7132C102.845 66.6407 102.664 68.5366 103.05 70.4108C103.118 72.1704 103.293 73.8881 102.938 75.5981C102.737 74.096 102.552 72.592 102.384 71.0855C100.971 70.3183 100.781 70.2929 99.1704 70.3576C95.8529 72.8881 98.987 77.4337 97.1423 80.9324C95.1269 81.2152 94.3896 81.2368 92.3533 81.167L92.3787 64.7646Z" fill="#0A0E1B"/>
<path d="M113.813 113.513L119 113.503L124.551 113.548C124.564 115.154 124.643 117.331 124.581 118.888L124.665 124.447L124.555 124.902C122.714 124.085 120.939 124.23 119.116 124.916L119.003 124.42L113.839 124.304L113.816 119.19L113.813 113.513Z" fill="#373F4B"/>
<path d="M113.813 113.513L119 113.503L119.165 119.273L119.003 124.42L113.839 124.304L113.816 119.19L113.813 113.513Z" fill="#222733"/>
<path d="M113.816 119.19L119.165 119.273L119.003 124.42L113.839 124.304L113.816 119.19Z" fill="#02020A"/>
<path d="M70.6824 107.298C70.5587 104.61 69.9793 100.246 71.1983 98.0716C73.1947 96.8891 73.1071 97.3266 75.8643 97.4718L75.679 112.698C75.4613 115.417 75.8465 116.469 74.4885 118.358C72.7962 118.64 72.3812 118.638 70.6666 118.526L70.6824 107.298Z" fill="#4C545F"/>
<path d="M54.208 113.398C57.028 113.288 56.8179 112.876 58.9793 114.044C60.6989 118.414 59.7756 118.707 64.4745 118.982L64.908 124.379L64.8305 129.644L64.8724 130.103L59.6424 130.251L56.6549 129.962C57.7965 129.825 57.8726 129.678 58.8301 129.081C60.0536 124.635 60.6259 123.398 58.7032 119.256C56.8694 118.073 56.8586 118.549 54.1319 118.806L54.208 113.398Z" fill="#222733"/>
<path d="M54.208 113.398C57.028 113.288 56.8179 112.876 58.9793 114.044C60.6989 118.414 59.7756 118.707 64.4745 118.982C61.2948 119.498 60.0041 119.427 59.4926 123.159C58.8257 128.02 60.3721 129.865 64.8305 129.644L64.8724 130.103L59.6424 130.251L56.6549 129.962C57.7965 129.825 57.8726 129.678 58.8301 129.081C60.0536 124.635 60.6259 123.398 58.7032 119.256C56.8694 118.073 56.8586 118.549 54.1319 118.806L54.208 113.398Z" fill="#0A0E1B"/>
<path d="M70.086 107.503C69.9064 102.107 69.1322 97.681 71.1114 92.8165C72.8063 91.3955 72.9059 91.8819 75.7024 91.8242C75.8167 94.6591 75.3636 94.6134 76.7565 96.5644C79.5054 97.9321 82.9256 96.5873 86.733 97.3266C83.8508 97.7368 78.9216 97.5156 75.8643 97.4718C73.1071 97.3266 73.1947 96.8891 71.1983 98.0716C69.9793 100.246 70.5587 104.61 70.6824 107.298L70.086 107.503Z" fill="#222733"/>
<path d="M70.086 107.503L70.6824 107.298L70.6666 118.526C70.6729 120.188 70.612 122.6 70.7085 124.195L70.2497 124.338L64.908 124.379L64.4745 118.982C67.5928 119.064 67.6036 119.6 69.5948 118.112C70.5505 115.96 70.0219 110.506 70.086 107.503Z" fill="#141922"/>
<path d="M124.551 113.548L129.893 113.532C130.012 115.341 130.101 117.645 130.295 119.403L129.772 119.288L124.581 118.888C124.643 117.331 124.564 115.154 124.551 113.548Z" fill="#222733"/>
<path d="M75.8465 81.1861L75.8408 86.5134L71.9027 86.5038C70.2763 85.3073 70.7364 85.3524 70.3322 82.8701L71.0181 81.4467L75.8465 81.1861Z" fill="#444853"/>
<path d="M130.013 5.52898C133.038 5.55118 143.947 5.43389 146.34 5.81306L146.281 10.8139L146.292 15.8705L146.728 16.0309C145.838 20.1986 146.161 41.4103 146.175 46.7586L146.203 107.756L115.147 107.749C110.809 107.745 101.773 107.503 97.7559 108.083C97.6614 104.14 96.9272 89.4351 98.1957 86.7087C99.6101 86.5692 101.026 86.4436 102.443 86.3333C103.692 84.1953 103.349 84.9086 103.19 82.1549C104.294 80.9743 104.655 81.3122 106.638 81.129C110.785 80.5247 116.362 81.5437 120.118 78.6352L118.577 77.0729L119.537 77.2942C117.114 75.7383 115.304 75.8396 112.4 75.619C114.303 75.5562 117.344 75.3698 119.147 75.5436C119.253 73.1177 119.336 72.7226 120.006 70.4406L124.648 70.4121L124.637 64.7633C124.632 63.0488 124.881 61.0547 123.995 59.7327C119.682 59.1361 107.876 59.5539 103.001 59.6097C102.971 56.5415 103.858 52.2679 102.566 49.7818C100.586 48.3311 100.471 48.8282 97.4913 48.7717L97.5104 48.1738C97.5783 46.3204 97.8067 45.4416 96.8479 43.88C94.2049 42.4762 89.9439 43.1299 86.5991 43.2212L86.7222 32.5265L86.759 27.1954L86.693 26.8714L86.5788 21.6905L86.6892 16.0404L86.6086 10.5818C88.7503 10.635 91.2009 10.7574 93.3128 10.7397C100.136 10.1132 112.511 10.365 119.755 10.3117C122.839 10.1773 125.93 10.961 128.651 9.91733C130.249 8.15528 129.764 8.40127 130.013 5.52898Z" fill="#373F4B"/>
<path d="M112.4 75.619C114.303 75.5562 117.344 75.3698 119.147 75.5436C122.027 75.7122 122.324 75.212 123.992 76.742L125.334 80.767C127.412 81.7561 127.297 81.3237 130.019 80.9052L130.276 81.1556L135.545 81.1119C138.45 81.1379 138.349 80.6801 140.405 82.0369C141.751 84.6074 140.817 88.7707 140.837 91.9302L119.148 91.986C118.773 90.0736 118.966 83.5099 118.982 81.2228C114.857 81.3065 110.762 81.2051 106.638 81.129C110.785 80.5247 116.362 81.5437 120.118 78.6352L118.577 77.0729L119.537 77.2942C117.114 75.7383 115.304 75.8396 112.4 75.619Z" fill="#02020A"/>
<path d="M112.4 75.619C114.303 75.5562 117.344 75.3698 119.147 75.5436C122.027 75.7122 122.324 75.212 123.992 76.742L125.334 80.767C127.412 81.7561 127.297 81.3237 130.019 80.9052L130.276 81.1556C130.144 82.7801 129.893 85.0094 129.943 86.5857C122.73 86.5363 125.759 84.5688 121.59 80.2787C119.059 82.2767 119.58 88.9292 119.148 91.986C118.773 90.0736 118.966 83.5099 118.982 81.2228C114.857 81.3065 110.762 81.2051 106.638 81.129C110.785 80.5247 116.362 81.5437 120.118 78.6352L118.577 77.0729L119.537 77.2942C117.114 75.7383 115.304 75.8396 112.4 75.619Z" fill="#0A0E1B"/>
<path d="M130.276 81.1556L135.545 81.1119C135.411 83.9119 135.854 84.1572 134.497 86.1158C132.701 86.4214 131.763 86.5179 129.943 86.5857C129.893 85.0094 130.144 82.7801 130.276 81.1556Z" fill="#2F3644"/>
<path d="M130.013 5.52898C133.038 5.55118 143.947 5.43389 146.34 5.81306L146.281 10.8139L146.292 15.8705C144.533 16.048 144.073 16.0506 142.317 15.8483C140.937 14.3171 141.313 14.279 141.016 11.9831C140.738 11.6889 140.461 11.3947 140.183 11.1005C128.722 10.3738 103.817 11.2083 93.3128 10.7397C100.136 10.1132 112.511 10.365 119.755 10.3117C122.839 10.1773 125.93 10.961 128.651 9.91733C130.249 8.15528 129.764 8.40127 130.013 5.52898Z" fill="#5F6A7A"/>
<path d="M130.261 64.788C130.388 66.6744 130.532 68.4003 130.49 70.2987C130.382 73.4227 129.969 78.0171 130.019 80.9052C127.297 81.3237 127.412 81.7561 125.334 80.767L123.992 76.742C122.324 75.212 122.027 75.7122 119.147 75.5436C119.253 73.1177 119.336 72.7226 120.006 70.4406L124.648 70.4121L124.637 64.7633L130.261 64.788Z" fill="#222733"/>
<path d="M124.637 64.7633L130.261 64.788C130.04 66.6991 129.812 68.4269 129.767 70.3589L124.648 70.4121L124.637 64.7633Z" fill="#02020A"/>
<path d="M124.648 70.4121L129.767 70.3589C129.858 73.0733 130.253 72.9712 129.161 75.0972C127.068 76.2201 127.959 76.1383 125.833 75.5011C124.126 73.325 124.664 73.7822 124.648 70.4121Z" fill="#545B69"/>
<path d="M86.6892 16.0404C89.8931 16.0556 89.8036 15.5211 91.8755 17.0942C93.0805 19.5619 92.2283 24.0454 92.2841 27.144L86.759 27.1954L86.693 26.8714L86.5788 21.6905L86.6892 16.0404Z" fill="#02020A"/>
<path d="M130.49 70.2987C133.569 70.4204 133.338 69.8972 135.157 71.5318C136.227 74.2278 135.368 77.8966 135.545 81.1119L130.276 81.1556L130.019 80.9052C129.969 78.0171 130.382 73.4227 130.49 70.2987Z" fill="#0A0E1B"/>
<path d="M86.759 27.1954L92.2841 27.144C92.2251 29.9497 92.7029 30.3048 91.3367 32.1582C89.5555 32.4169 88.5231 32.4834 86.7222 32.5265L86.759 27.1954Z" fill="#141922"/>
<path d="M136.257 21.875C137.399 20.9981 138.992 21.0121 140.117 21.9093C141.16 22.7418 141.561 24.1431 141.115 25.4004C140.668 26.6571 139.473 27.4928 138.137 27.4807C136.802 27.4693 135.622 26.6127 135.198 25.3478C134.774 24.0828 135.199 22.6885 136.257 21.875Z" fill="#222733"/>
<path d="M136.257 21.875C136.111 19.1778 135.708 19.1752 136.743 17.0378L138.196 16.2984C139.973 17.0175 139.372 16.5318 140.445 18.167C140.411 19.3432 140.445 20.8225 140.117 21.9093C138.992 21.0121 137.399 20.9981 136.257 21.875Z" fill="#828F9B"/>
<path d="M146.525 5.04965C148.934 5.24558 149.833 4.9146 151.585 6.1396C151.921 8.09314 151.946 8.91104 151.98 10.8475C151.017 30.7226 151.489 56.1426 151.757 76.3209C152.075 100.207 150.893 127.988 151.829 151.424L151.813 156.878C151.739 158.481 151.707 160.816 151.487 162.338L146.668 162.57L146.385 162.805C143.756 161.522 24.4306 162.194 10.9494 162.513C9.25261 162.377 7.55643 162.231 5.86089 162.075C5.60072 160.77 5.48396 158.487 5.3653 157.083L5.6039 151.58L5.42685 151.071L9.38333 150.914C11.1303 149.558 10.6194 149.364 11.0776 146.458C12.5479 146.422 14.786 145.861 16.2918 145.542L16.5685 145.847L59.8347 145.982L59.9305 140.902L60.3626 140.755L80.7516 140.833C84.6053 140.874 94.2741 141.199 97.433 140.339L98.0186 140.11L98.0872 135.163L103.471 135.18L103.271 140.156L108.279 140.184L108.133 140.833L114.456 140.806L118.897 140.445L119.457 140.368C121.261 140.441 122.85 140.562 124.652 140.368L124.583 139.731L124.663 135.204L124.548 129.788L124.555 124.902L124.665 124.447L124.581 118.888L129.772 119.288L130.295 119.403C130.101 117.645 130.012 115.341 129.893 113.532L135.488 113.573L140.621 113.546L146.201 113.453C146.295 111.445 146.34 111.019 145.844 109.084C143.478 107.411 104.85 109.158 97.7559 108.083C101.773 107.503 110.809 107.745 115.147 107.749L146.203 107.756L146.175 46.7586C146.161 41.4103 145.838 20.1986 146.728 16.0309L146.292 15.8705L146.281 10.8139L146.34 5.81306C143.947 5.43389 133.038 5.55118 130.013 5.52898C126.811 5.52835 123.826 5.40154 120.638 5.2538C126.565 4.67174 140.04 5.04014 146.525 5.04965Z" fill="#272C37"/>
<path d="M98.0872 135.163L103.471 135.18L103.271 140.156L108.279 140.184L108.133 140.833C105.273 140.76 100.196 140.187 98.0574 141.555C97.1912 143.619 97.5199 143.356 97.8118 145.839L97.2515 146.115C104.585 147.756 136.496 144.056 140.964 148.285C141.166 150.109 141.331 149.403 140.348 150.941C137.607 152.261 29.0458 152.093 16.8198 151.376L16.2651 150.743C15.9256 148.657 16.1769 147.862 16.5685 145.847L59.8347 145.982L59.9305 140.902L60.3626 140.755L80.7516 140.833C84.6053 140.874 94.2741 141.199 97.433 140.339L98.0186 140.11L98.0872 135.163Z" fill="#141922"/>
<path d="M98.0872 135.163L103.471 135.18L103.271 140.156L108.279 140.184L108.133 140.833C105.273 140.76 100.196 140.187 98.0574 141.555C97.1912 143.619 97.5199 143.356 97.8118 145.839L97.2515 146.115C93.0906 145.795 85.6041 146.001 81.1908 145.979L80.7516 140.833C84.6053 140.874 94.2741 141.199 97.433 140.339L98.0186 140.11L98.0872 135.163Z" fill="#444853"/>
<path d="M98.0872 135.163L103.471 135.18L103.271 140.156L98.0186 140.11L98.0872 135.163Z" fill="#272C37"/>
<path d="M60.3626 140.755L80.7516 140.833L81.1908 145.979L59.8347 145.982L59.9305 140.902L60.3626 140.755Z" fill="#545B69"/>
<path d="M5.6039 151.58C14.1248 151.641 8.4334 153.481 12.5517 156.477C20.3587 157.46 144.255 156.723 146.114 156L147.234 152.613C148.915 151.102 148.987 151.591 151.829 151.424L151.813 156.878C151.739 158.481 151.707 160.816 151.487 162.338L146.668 162.57L146.385 162.805C143.756 161.522 24.4306 162.194 10.9494 162.513C9.25261 162.377 7.55643 162.231 5.86089 162.075C5.60072 160.77 5.48396 158.487 5.3653 157.083L5.6039 151.58Z" fill="#141922"/>
<path d="M146.668 162.57C146.552 159.533 146.036 158.36 148.556 156.477L149.773 156.747C151.711 158.911 151.121 158.829 151.487 162.338L146.668 162.57Z" fill="#02020A"/>
<path d="M5.86089 162.075C6.13121 159.501 5.77777 158.487 7.18396 156.756C8.73546 156.55 9.78438 156.423 11.3479 156.389C11.1163 159.201 11.5796 159.684 10.0788 161.405C8.67073 161.615 7.26454 161.838 5.86089 162.075Z" fill="#030612"/>
<path d="M135.488 113.573L140.621 113.546L146.201 113.453C146.371 117.301 147.137 137.482 145.559 139.904C143.653 140.166 143.057 140.186 141.136 140.082C139.552 140.016 137.587 140.132 135.97 140.178C135.382 138.807 135.435 136.994 135.356 135.452C134.26 135.218 131.428 135.08 130.175 134.982L129.888 140.64C128.179 140.66 126.366 140.488 124.652 140.368L124.583 139.731L124.663 135.204L124.548 129.788L124.555 124.902L124.665 124.447L124.581 118.888L129.772 119.288L130.295 119.403C130.101 117.645 130.012 115.341 129.893 113.532L135.488 113.573Z" fill="#2F3644"/>
<path d="M124.581 118.888L129.772 119.288L130.295 119.403C130.289 120.699 130.349 122.928 130.149 124.128C129.673 128.359 130.223 129.759 130.127 133.44L130.175 134.982L129.888 140.64C128.179 140.66 126.366 140.488 124.652 140.368L124.583 139.731L124.663 135.204L124.548 129.788L124.555 124.902L124.665 124.447L124.581 118.888Z" fill="#141922"/>
<path d="M129.828 133.38L130.127 133.44L130.175 134.982L129.888 140.64C128.179 140.66 126.366 140.488 124.652 140.368L124.583 139.731L124.663 135.204C126.505 135.266 127.507 135.421 129.254 134.724L129.828 133.38Z" fill="#141922"/>
<path d="M124.581 118.888L129.772 119.288C129.717 122.125 130.193 122.235 128.805 124.105C127.251 124.308 126.231 124.41 124.665 124.447L124.581 118.888Z" fill="#02020A"/>
<path d="M124.548 129.788C126.926 129.84 127.957 129.406 129.471 130.637L129.828 133.38L129.254 134.724C127.507 135.421 126.505 135.266 124.663 135.204L124.548 129.788Z" fill="#02020A"/>
<path d="M135.488 113.573L140.621 113.546C140.664 115.189 140.649 117.442 140.815 119.022L135.541 118.829L135.486 123.904L135.391 124.288L130.149 124.128C130.349 122.928 130.289 120.699 130.295 119.403C130.101 117.645 130.012 115.341 129.893 113.532L135.488 113.573Z" fill="#444853"/>
<path d="M135.488 113.573L140.621 113.546C140.664 115.189 140.649 117.442 140.815 119.022L135.541 118.829L135.488 113.573Z" fill="#272C37"/>
<path d="M130.149 124.128L135.391 124.288L135.849 130.351C134.816 131.475 134.778 133.191 135.76 134.36L135.356 135.452C134.26 135.218 131.428 135.08 130.175 134.982L130.127 133.44C130.223 129.759 129.673 128.359 130.149 124.128Z" fill="#4C545F"/>
<path d="M135.849 130.351C136.409 129.741 137.193 129.385 138.021 129.367C138.849 129.348 139.65 129.667 140.237 130.251L141.081 129.787C141.245 133.486 141.229 136.408 141.136 140.082C139.552 140.016 137.587 140.132 135.97 140.178C135.382 138.807 135.435 136.994 135.356 135.452L135.76 134.36C134.778 133.191 134.816 131.475 135.849 130.351Z" fill="#141922"/>
<path d="M135.849 130.351C136.409 129.741 137.193 129.385 138.021 129.367C138.849 129.348 139.65 129.667 140.237 130.251C141.03 131.04 141.327 132.201 141.007 133.273C140.688 134.345 139.805 135.156 138.709 135.383C137.612 135.61 136.479 135.217 135.76 134.36C134.778 133.191 134.816 131.475 135.849 130.351Z" fill="#02020A"/>
<path d="M135.541 118.829L140.815 119.022C141.766 123.751 140.204 126.162 141.081 129.787L140.237 130.251C139.65 129.667 138.849 129.348 138.021 129.367C137.193 129.385 136.409 129.741 135.849 130.351L135.391 124.288L135.486 123.904L135.541 118.829Z" fill="#222733"/>
<path d="M135.541 118.829L140.815 119.022C140.617 121.907 141.055 122.091 139.646 124.16C137.701 124.45 137.408 124.366 135.486 123.904L135.541 118.829Z" fill="#02020A"/>
<path d="M130.175 134.982C131.428 135.08 134.26 135.218 135.356 135.452C135.435 136.994 135.382 138.807 135.97 140.178L136.091 140.583L139.922 140.745C141.242 142.238 140.847 141.548 141.079 143.984L140.425 145.423C136.464 146.433 104.135 145.828 97.8118 145.839C97.5199 143.356 97.1912 143.619 98.0574 141.555C100.196 140.187 105.273 140.76 108.133 140.833L114.456 140.806L118.897 140.445L119.457 140.368C121.261 140.441 122.85 140.562 124.652 140.368C126.366 140.488 128.179 140.66 129.888 140.64L130.175 134.982Z" fill="#778492"/>
<path d="M130.175 134.982C131.428 135.08 134.26 135.218 135.356 135.452C135.435 136.994 135.382 138.807 135.97 140.178L136.091 140.583L129.888 140.64L130.175 134.982Z" fill="#6A7582"/>
<path d="M146.281 10.8139L151.277 11.2755C151.57 13.8174 151.914 13.4902 150.955 15.5148C149.108 16.1679 148.702 16.1032 146.728 16.0309L146.292 15.8705L146.281 10.8139Z" fill="#444853"/>
<path d="M146.34 5.81306C148.911 5.97157 149.577 5.5214 151.075 6.95564C151.157 8.39495 151.225 9.83487 151.277 11.2755L146.281 10.8139L146.34 5.81306Z" fill="#02020A"/>
<path d="M156.277 10.7067C159.518 17.0169 155.625 99.5908 157.206 112.33C157.452 114.31 157.32 153.98 156.774 155.996C155.248 157.197 154.143 156.797 151.813 156.878L151.829 151.424C150.893 127.988 152.075 100.207 151.757 76.3209C151.489 56.1426 151.017 30.7226 151.98 10.8475L156.277 10.7067Z" fill="#02020A"/>
<path d="M10.9494 162.513C24.4306 162.194 143.756 161.522 146.385 162.805C146.272 164.984 146.627 165.974 145.487 167.414C132.069 168.364 110.7 167.571 96.4221 167.568C67.9354 167.685 39.4488 167.643 10.9627 167.44L10.9494 162.513Z" fill="#02020A"/>
</svg>
