<svg width="168" height="180" viewBox="0 0 168 180" fill="none" xmlns="http://www.w3.org/2000/svg">
<path d="M21.6482 178.863L142.999 179.253C142.999 179.253 43.4652 179.627 21.6482 178.863Z" fill="#010101"/>
<path d="M5.4481 10.6491C5.3561 8.67246 5.12307 7.65798 5.95723 5.87105C8.20823 5.86304 10.0607 5.47805 11.4223 3.53588C11.3916 2.0557 11.2627 1.78221 12.0784 0.65252C14.4583 -0.356443 18.4389 0.0802828 21.1622 0.17699L107.608 0.221938C112.331 0.22009 137.675 -0.363236 141.109 0.645111L141.526 0.577991C141.668 3.47121 141.158 3.49707 142.716 5.04747L147.071 5.49282L147.145 10.2814L147.464 10.5321C149.905 10.6873 150.297 10.2759 151.886 11.6051C152.07 13.3471 152.119 14.3129 152.088 16.0648C154.419 16.1177 154.983 15.7438 156.738 16.8477V17.1908C156.756 18.5693 156.799 18.9629 157.099 20.2959C159.945 22.3477 160.246 19.7803 162.497 22.0058C162.503 24.5541 162.025 25.0062 163.368 26.5382C165.392 26.7051 166.49 26.3953 167.698 27.5311C168.201 37.3879 167.925 48.9478 167.919 58.9069L167.913 148.058C167.919 153.493 168.207 162.477 167.655 167.481C165.067 169.298 164.582 167.25 162.528 168.914C162.503 170.406 162.466 171.51 162.313 172.994C159.393 174.506 159.774 172.358 157.455 174.167L157.241 178.067C153.297 181.559 142.999 179.253 142.999 179.253L21.6482 178.863L21.3586 175.298C19.9785 173.376 19.6595 173.824 16.8197 172.991C15.3906 171.352 15.8874 171.189 15.8261 168.399C14.4031 168.406 13.1948 168.328 11.778 168.236C10.2875 166.692 10.6985 166.027 10.4163 163.441L8.74792 163.333L5.79159 163.445L5.21505 159.066C3.70007 157.635 2.72491 157.945 0.296031 157.588C0.283764 144.885 -0.593408 14.3912 0.731432 11.5472C2.58989 10.2303 2.70642 10.6861 5.4481 10.6491Z" fill="#373F4B"/>
<path d="M146.66 10.5697L147.145 10.2814L147.464 10.5321C149.905 10.6873 150.297 10.2759 151.886 11.6051C152.07 13.3471 152.119 14.3129 152.088 16.0648C154.419 16.1177 154.983 15.7438 156.738 16.8477V17.1908C156.756 18.5693 156.799 18.9629 157.099 20.2959C159.945 22.3477 160.246 19.7803 162.497 22.0058C162.503 24.5541 162.025 25.0062 163.368 26.5382C165.392 26.7051 166.49 26.3953 167.698 27.5311C168.201 37.3879 167.925 48.9478 167.919 58.9069L167.913 148.058C167.919 153.493 168.207 162.477 167.655 167.481C165.067 169.298 164.582 167.25 162.528 168.914C162.503 170.406 162.466 171.51 162.313 172.994C159.393 174.506 159.774 172.358 157.455 174.167L157.241 178.067C153.297 181.559 142.999 179.253 142.999 179.253L21.6482 178.863L21.3586 175.298C19.9785 173.376 19.6595 173.824 16.8197 172.991C15.3906 171.352 15.8874 171.189 15.8261 168.399C14.4031 168.406 13.1948 168.328 11.778 168.236C10.2875 166.692 10.6985 166.027 10.4163 163.441L8.74792 163.333L5.79159 163.445L5.21505 159.066C3.70007 157.635 2.72491 157.945 0.296031 157.588C2.87824 157.411 3.30139 157.813 5.08011 156.521C6.38655 154.31 5.72417 150.06 5.55243 147.3L10.864 147.473C10.8088 146.057 10.9255 144.134 10.9623 142.675L10.8886 142.066L10.95 131.337L10.8333 126.512C18.9051 126.429 34.6867 127.617 41.5379 124.313C41.9979 123.179 42.1573 122.66 42.4579 121.476C46.7759 119.857 51.3576 122.409 54.547 120.649C56.2889 118.485 55.7676 118.619 56.105 115.356C56.246 117.1 56.4851 119.285 56.5465 120.993L56.8838 121.067C58.9876 120.932 61.024 120.495 62.7046 121.533L63.0542 122.794L63.3793 124.382C66.9183 124.805 69.8133 124.012 71.3528 124.209L72.8188 125.668L73.1009 124.696C74.6281 123.489 77.4986 123.649 79.6637 123.456L79.811 122.411L82.9329 122.84C82.89 123.604 82.7428 125.502 82.8164 126.156L84.3621 127.237L88.3734 127.137C91.5505 127.105 96.3163 127.188 99.3585 126.975L101.628 125.824L101.346 124.515C98.5121 123.043 98.0889 125.068 95.1141 123.411L94.6908 121.568L95.0772 120.985C97.684 120.894 104.026 120.581 106.277 121.166C115.024 123.432 113.527 126.995 123.15 126.432C128.928 125.865 135.681 125.907 141.551 125.809L141.582 54.5791C141.557 44.9434 140.981 25.4836 141.827 17.1052C143.354 15.9139 144.127 16.2816 146.396 16.1529L146.531 15.6595L146.66 10.5697Z" fill="#101622"/>
<path d="M152.088 16.0648C154.419 16.1177 154.983 15.7438 156.738 16.8477V17.1908C156.756 18.5693 156.799 18.9629 157.099 20.2959C159.945 22.3477 160.246 19.7803 162.497 22.0058C162.503 24.5541 162.025 25.0062 163.368 26.5382C165.392 26.7051 166.49 26.3953 167.698 27.5311C168.201 37.3879 167.925 48.9478 167.919 58.9069L167.913 148.058C167.919 153.493 168.207 162.477 167.655 167.481C165.067 169.298 164.582 167.25 162.528 168.914C162.503 170.406 162.466 171.51 162.313 172.994C159.393 174.506 159.774 172.358 157.455 174.167L157.241 178.067C153.297 181.559 142.999 179.253 142.999 179.253L21.6482 178.863L21.3586 175.298C19.9785 173.376 19.6595 173.824 16.8197 172.991C15.3906 171.352 15.8874 171.189 15.8261 168.399C53.8662 167.697 92.2129 168.799 130.284 168.42C147.408 168.249 138.233 167.444 142.41 163.247L145.581 163.341C147.887 161.331 145.219 160.284 147.335 157.945L150.935 157.838C152.88 155.462 151.96 117.244 151.96 111.368L152.088 16.0648Z" fill="#848188"/>
<path d="M10.8333 126.512C18.9051 126.429 34.6867 127.617 41.5379 124.313C41.9979 123.179 42.1573 122.66 42.4579 121.476C46.7759 119.857 51.3576 122.409 54.547 120.649C56.2889 118.485 55.7676 118.619 56.105 115.356C56.246 117.1 56.4851 119.285 56.5465 120.993L56.8838 121.067C58.9876 120.932 61.024 120.495 62.7046 121.533L63.0542 122.794L63.3793 124.382C66.9183 124.805 69.8133 124.012 71.3528 124.209L72.8188 125.668L73.1009 124.696C74.6281 123.489 77.4986 123.649 79.6637 123.456L79.811 122.411L82.9329 122.84C82.89 123.604 82.7428 125.502 82.8164 126.156L84.3621 127.237L88.3734 127.137C91.5505 127.105 96.3163 127.188 99.3585 126.975L101.628 125.824L101.346 124.515C98.5121 123.043 98.0889 125.068 95.1141 123.411L94.6908 121.568L95.0772 120.985C97.684 120.894 104.026 120.581 106.277 121.166C115.024 123.432 113.527 126.995 123.15 126.432C128.149 126.601 137.871 125.437 141.097 127.412C141.956 129.012 141.741 129.888 141.667 131.719C141.698 134.623 142.029 138.312 140.858 140.863C137.846 143.062 139.343 140.223 136.804 142.913C136.73 144.623 136.81 145.449 136.141 147.046C133.522 147.708 100.984 147.322 95.4085 147.314L43.7151 147.373C35.4348 147.357 24.646 147.632 16.5313 147.062C14.5993 145.018 16.9117 144.939 14.4705 142.39C13.299 142.452 12.1276 142.548 10.9623 142.675L10.8886 142.066L10.95 131.337L10.8333 126.512Z" fill="#101622"/>
<path d="M95.0772 120.985C97.684 120.894 104.026 120.581 106.277 121.166C115.024 123.432 113.527 126.995 123.15 126.432C128.149 126.601 137.871 125.437 141.097 127.412C141.956 129.012 141.741 129.888 141.667 131.719C137.227 131.546 120.856 131.776 118.115 131.419C114.662 132.778 115.349 133.38 115.606 137.041C113.588 136.898 112.03 136.591 110.178 137.315L109.687 139.92C106.062 140.64 92.4767 142.934 89.6737 140.708L89.3731 137.359C87.4594 136.089 88.312 136.432 85.5642 136.484C84.043 135.186 84.3007 134.594 83.6812 132.342L81.2217 131.973L81.1971 131.447L83.7855 131.266L84.3621 127.237L88.3734 127.137C91.5505 127.105 96.3163 127.188 99.3585 126.975L101.628 125.824L101.346 124.515C98.5121 123.043 98.0889 125.068 95.1141 123.411L94.6908 121.568L95.0772 120.985Z" fill="#070912"/>
<path d="M99.3585 126.975L101.628 125.824C106.449 127.898 109.276 127.041 114.931 130.711L115.208 131.538C110.644 133.42 101.272 130.21 99.4137 131.871L99.5118 136.168C98.1624 137.422 90.8881 137.231 90.0785 136.452C88.8334 135.259 90.2747 134.012 88.1034 132.069C86.0548 131.927 85.6869 131.922 83.6812 132.342L81.2217 131.973L81.1971 131.447L83.7855 131.266L84.3621 127.237L88.3734 127.137C91.5505 127.105 96.3163 127.188 99.3585 126.975Z" fill="#19191B"/>
<path d="M88.3734 127.137C91.5505 127.105 96.3163 127.188 99.3585 126.975C98.8617 129.413 99.2726 129.207 97.7822 130.803C92.63 132.357 89.226 131.184 83.7855 131.266L84.3621 127.237L88.3734 127.137Z" fill="#1D201A"/>
<path d="M10.8333 126.512C18.9051 126.429 34.6867 127.617 41.5379 124.313C41.9979 123.179 42.1573 122.66 42.4579 121.476C46.7759 119.857 51.3576 122.409 54.547 120.649C56.2889 118.485 55.7676 118.619 56.105 115.356C56.246 117.1 56.4851 119.285 56.5465 120.993L56.154 123.131L54.0318 124.524C53.0136 125.198 52.8479 125.5 52.1978 126.547L52.5413 126.988L52.7191 131.407L47.4259 132.165L47.0211 132.546C44.1384 132 43.2367 131.919 40.7219 130.444C39.3726 132.017 40.0903 131.544 37.6798 131.999C35.3061 131.326 14.5749 131.368 10.95 131.337L10.8333 126.512Z" fill="#070912"/>
<path d="M50.5417 126.45L52.1978 126.547L52.5413 126.988L52.7191 131.407L47.4259 132.165C47.0518 131.401 46.7942 130.418 46.5366 129.584C48.6833 128.92 49.131 128.135 50.5417 126.45Z" fill="#3D3C30"/>
<path d="M40.7219 130.444C41.5806 129.076 42.5069 127.184 43.8317 126.491C45.408 129.556 45.6411 127.904 46.5366 129.584C46.7942 130.418 47.0518 131.401 47.4259 132.165L47.0211 132.546C44.1384 132 43.2367 131.919 40.7219 130.444Z" fill="#2C2A29"/>
<path d="M43.8317 126.491C45.9049 126.44 48.5238 126.305 50.5417 126.45C49.131 128.135 48.6833 128.92 46.5366 129.584C45.6411 127.904 45.408 129.556 43.8317 126.491Z" fill="#323329"/>
<path d="M56.5465 120.993L56.8838 121.067C58.9876 120.932 61.024 120.495 62.7046 121.533L63.0542 122.794L63.3793 124.382C66.9183 124.805 69.8133 124.012 71.3528 124.209L72.8188 125.668L72.8862 126.398C70.5125 126.504 70.2549 126.088 68.7645 127.38C68.6541 128.841 68.5744 129.957 68.599 131.433L68.4517 131.897C68.4333 133.098 68.3107 135.729 68.5069 136.793C67.0594 136.387 65.0537 136.647 63.4897 136.738C61.4963 136.891 59.9875 136.677 58.0247 136.468L57.6383 136.423L57.4359 133.191C56.1478 131.78 55.4118 132.031 53.2222 131.543L52.7191 131.407L52.5413 126.988L52.1978 126.547C52.8479 125.5 53.0136 125.198 54.0318 124.524L56.154 123.131L56.5465 120.993Z" fill="#1D201A"/>
<path d="M63.3793 124.382C66.9183 124.805 69.8133 124.012 71.3528 124.209L72.8188 125.668L72.8862 126.398C70.5125 126.504 70.2549 126.088 68.7645 127.38C68.6541 128.841 68.5744 129.957 68.599 131.433L68.4517 131.897C65.6732 131.554 64.7837 131.815 62.9744 129.986L63.0051 127.72L62.1464 127.045L63.3793 124.382Z" fill="#3D3C30"/>
<path d="M56.8838 121.067C58.9876 120.932 61.024 120.495 62.7046 121.533L63.0542 122.794L63.3793 124.382L62.1464 127.045C59.5028 126.548 59.5151 126.52 58.1228 124.456C56.6139 122.685 56.9759 123.566 56.8838 121.067Z" fill="#504A38"/>
<path d="M58.1228 124.456L63.0542 122.794L63.3793 124.382L62.1464 127.045C59.5028 126.548 59.5151 126.52 58.1228 124.456Z" fill="#3D3C30"/>
<path d="M58.0247 136.468C58.0615 133.445 57.5401 133.495 59.0796 131.708C61.7722 131.162 63.0172 133.116 63.3484 135.554C63.4036 135.948 63.4468 136.343 63.4897 136.738C61.4963 136.891 59.9875 136.677 58.0247 136.468Z" fill="#19191B"/>
<path d="M52.5413 126.988C55.283 127.169 54.2526 126.804 56.4791 128.289L57.1537 129.673L56.4912 131.146C55.0131 131.654 54.8169 131.587 53.2222 131.543L52.7191 131.407L52.5413 126.988Z" fill="#1C1C1A"/>
<path d="M72.8188 125.668L73.1009 124.696C74.6281 123.489 77.4986 123.649 79.6637 123.456L79.811 122.411L82.9329 122.84C82.89 123.604 82.7428 125.502 82.8164 126.156L84.3621 127.237L83.7855 131.266L81.1971 131.447L73.5547 131.501L68.599 131.433C68.5744 129.957 68.6541 128.841 68.7645 127.38C70.2549 126.088 70.5125 126.504 72.8862 126.398L72.8188 125.668Z" fill="#4A4334"/>
<path d="M72.8188 125.668L73.1009 124.696C74.6281 123.489 77.4986 123.649 79.6637 123.456L79.811 122.411L82.9329 122.84C82.89 123.604 82.7428 125.502 82.8164 126.156C79.1853 126.536 76.4927 126.462 72.8862 126.398L72.8188 125.668Z" fill="#19191B"/>
<path d="M40.7219 130.444C43.2367 131.919 44.1384 132 47.0211 132.546C46.6899 134.337 46.5182 134.776 47.1254 136.463C47.6223 139.794 47.6223 139.536 45.1136 141.513C43.384 141.56 44.0219 141.659 42.3536 140.308L42.2309 137.886C40.3541 135.855 40.2007 137.714 37.275 136.056C36.7353 134.381 37.1462 133.695 37.6798 131.999C40.0903 131.544 39.3726 132.017 40.7219 130.444Z" fill="#1B202C"/>
<path d="M68.599 131.433L73.5547 131.501L81.1971 131.447L81.2217 131.973L79.5288 132.581L79.357 133.181C78.8909 134.774 78.8358 135.547 77.5784 136.589C75.9162 136.829 75.0452 136.914 73.3646 136.93L68.5069 136.793C68.3107 135.729 68.4333 133.098 68.4517 131.897L68.599 131.433Z" fill="#2C2A29"/>
<path d="M68.599 131.433L73.5547 131.501L73.3646 136.93L68.5069 136.793C68.3107 135.729 68.4333 133.098 68.4517 131.897L68.599 131.433Z" fill="#3D3C30"/>
<path d="M52.7191 131.407L53.2222 131.543C55.4118 132.031 56.1478 131.78 57.4359 133.191L57.6383 136.423C54.9519 136.668 49.9775 136.483 47.1254 136.463C46.5182 134.776 46.6899 134.337 47.0211 132.546L47.4259 132.165L52.7191 131.407Z" fill="#323329"/>
<path d="M115.606 137.041C115.349 133.38 114.662 132.778 118.115 131.419C118.25 134.211 118.759 134.778 117.569 136.774C117.017 136.861 116.128 137.037 115.606 137.041Z" fill="#222835"/>
<path d="M130.719 132.051C132.32 132.031 133.909 132.065 135.509 132.134C136.957 133.576 136.755 134.519 137.006 136.515C135.436 136.539 133.884 136.505 132.314 136.437C130.977 135.102 131.057 133.863 130.719 132.051Z" fill="#222835"/>
<path d="M147.464 10.5321C149.905 10.6873 150.297 10.2759 151.886 11.6051C152.07 13.3471 152.119 14.3129 152.088 16.0648L151.96 111.368C151.96 117.244 152.88 155.462 150.935 157.838L147.335 157.945C145.219 160.284 147.887 161.331 145.581 163.341L142.41 163.247C138.233 167.444 147.408 168.249 130.284 168.42C92.2129 168.799 53.8662 167.697 15.8261 168.399C14.4031 168.406 13.1948 168.328 11.778 168.236C10.2875 166.692 10.6985 166.027 10.4163 163.441C15.7709 162.695 29.418 163.214 35.6251 163.137C58.5031 162.849 81.5528 163.699 104.48 163.09C115.52 162.797 130.222 163.89 140.815 162.763C142.594 160.988 140.502 160.125 142.22 157.452C143.827 157.379 144.501 157.349 146.071 157.034C147.55 150.467 147.083 129.731 147.096 121.923L147.077 49.3322C147.071 38.8865 146.507 20.1246 147.464 10.5321Z" fill="#010101"/>
<path d="M141.551 125.809L141.582 54.5791C141.557 44.9434 140.981 25.4836 141.827 17.1052C143.354 15.9139 144.127 16.2816 146.396 16.1529L146.507 102.667C146.519 111.616 147.12 138.941 146.2 146.339C144.213 148.308 142.839 146.217 141.575 147.975C141.048 148.705 142.33 152.186 140.03 152.274C128.775 152.702 116.017 152.539 104.83 152.54L22.2663 152.586C19.1382 152.565 14.3786 152.699 11.4529 151.956C10.9254 150.008 10.9131 149.501 10.864 147.473C10.8088 146.057 10.9255 144.134 10.9623 142.675C12.1276 142.548 13.299 142.452 14.4705 142.39C16.9117 144.939 14.5993 145.018 16.5313 147.062C24.646 147.632 35.4348 147.357 43.7151 147.373L95.4085 147.314C100.984 147.322 133.522 147.708 136.141 147.046C136.81 145.449 136.73 144.623 136.804 142.913C139.343 140.223 137.846 143.062 140.858 140.863C142.029 138.312 141.698 134.623 141.667 131.719C141.741 129.888 141.956 129.012 141.097 127.412C137.871 125.437 128.149 126.601 123.15 126.432C128.928 125.865 135.681 125.907 141.551 125.809Z" fill="#2A303B"/>
<path d="M5.79159 163.445C6.07373 160.439 5.61372 160.1 7.17163 158.09C9.17729 157.375 8.36762 157.334 10.2077 158.172C11.3792 160.398 11.1277 162.015 8.74792 163.333L5.79159 163.445Z" fill="#010101"/>
<path d="M5.4481 10.6491C5.3561 8.67246 5.12307 7.65798 5.95723 5.87105C8.20823 5.86304 10.0607 5.47805 11.4223 3.53588C11.3916 2.0557 11.2627 1.78221 12.0784 0.65252C14.4583 -0.356443 18.4389 0.0802828 21.1622 0.17699L107.608 0.221938C112.331 0.22009 137.675 -0.363236 141.109 0.645111L141.526 0.577991C141.668 3.47121 141.158 3.49707 142.716 5.04747L147.071 5.49282L147.145 10.2814L146.66 10.5697L146.531 15.6595L141.563 15.7592C139.073 15.6139 138.589 16.0457 137.055 14.6751L136.055 11.3039C133.332 10.343 26.2162 9.89825 16.2615 10.8315C14.219 13.0206 16.3719 14.0604 14.6484 15.7235C14.3233 16.0364 11.0236 15.2609 11.0113 16.6672C10.8211 52.279 9.93176 89.1394 10.7291 124.67C10.7414 125.285 10.7781 125.899 10.8333 126.512L10.95 131.337L10.8886 142.066L10.9623 142.675C10.9255 144.134 10.8088 146.057 10.864 147.473L5.55243 147.3C5.72417 150.06 6.38655 154.31 5.08011 156.521C3.30139 157.813 2.87824 157.411 0.296031 157.588C0.283764 144.885 -0.593408 14.3912 0.731432 11.5472C2.58989 10.2303 2.70642 10.6861 5.4481 10.6491Z" fill="#546974"/>
<path d="M0.296031 157.588C0.283764 144.885 -0.593408 14.3912 0.731432 11.5472C2.58989 10.2303 2.70642 10.6861 5.4481 10.6491L5.45431 142.357L5.55243 147.3C5.72417 150.06 6.38655 154.31 5.08011 156.521C3.30139 157.813 2.87824 157.411 0.296031 157.588Z" fill="#010101"/>
<path d="M5.4481 10.6491C5.3561 8.67246 5.12307 7.65798 5.95723 5.87105C8.20823 5.86304 10.0607 5.47805 11.4223 3.53588C11.3916 2.0557 11.2627 1.78221 12.0784 0.65252C14.4583 -0.356443 18.4389 0.0802828 21.1622 0.17699L107.608 0.221938C112.331 0.22009 137.675 -0.363236 141.109 0.645111C141.011 2.93407 141.361 3.61104 140.269 5.3296C133.939 6.12913 113.478 5.52608 106.216 5.50452L36.5757 5.42384C32.2332 5.42199 14.2436 5.07766 11.1891 6.02257C10.4715 9.24349 11.5141 9.6297 9.70476 10.7859L5.4481 10.6491Z" fill="#010101"/>
<path d="M5.45431 142.357C6.78528 142.326 9.72932 142.344 10.8886 142.066L10.9623 142.675C10.9255 144.134 10.8088 146.057 10.864 147.473L5.55243 147.3L5.45431 142.357Z" fill="#373F4B"/>
<path d="M141.594 10.5142L146.66 10.5697L146.531 15.6595L141.563 15.7592L141.594 10.5142Z" fill="#474C54"/>
<path d="M147.071 5.49282L147.145 10.2814L146.66 10.5697L141.594 10.5142C141.533 8.93857 141.569 8.22282 141.741 6.65394C143.281 5.33576 144.655 5.68808 147.071 5.49282Z" fill="#010101"/>
<path d="M76.6398 47.8471C74.947 36.5224 91.532 28.3719 101.616 31.5515C104.701 35.0164 104.351 37.1865 109.031 39.0707C111.533 40.0766 111.724 41.4317 112.141 43.9695C114.275 45.2754 117.489 46.7026 118.605 48.6251L118.532 51.9809C121.212 53.984 121.01 51.3575 122.5 53.8183C122.5 55.7131 122.138 56.5113 123.089 57.7377L125.457 57.8726C127.303 60.4308 126.082 73.105 126.187 76.767C126.229 78.1769 124.727 79.0886 123.702 79.7538C122.868 83.3874 123.193 88.508 123.255 92.3394C124.671 93.9144 126.53 95.5437 126.886 97.5037C126.26 99.3067 126.683 98.9401 125.365 99.8598C122.163 100.051 119.66 100.271 116.44 99.9491C115.735 98.8163 116.14 97.9632 115.704 97.1181C114.95 95.6601 101.616 85.6949 100.082 82.4394C99.4381 81.0677 99.7878 78.8687 99.1928 77.4439C98.4691 75.6878 95.5495 74.433 94.6295 72.826C93.2679 70.4409 93.7892 64.2467 94.4149 61.5943C95.936 55.1759 99.5608 52.4736 99.2726 45.3099C96.8621 45.2489 93.6297 44.928 91.5136 45.8366C89.8024 47.6555 89.3241 49.9919 88.312 52.2119C88.3182 52.2002 85.3249 52.8667 85.3188 52.8784C84.1596 56.3377 85.7788 59.3861 84.5276 62.9279L83.1844 64.2504C81.4731 62.0397 81.7123 54.5396 82.6078 51.9587C81.7675 52.295 81.9945 52.0813 81.4118 52.6967C80.915 52.8876 79.2528 53.2369 78.6394 53.3804C76.4743 52.6116 77.2103 53.2184 75.9836 50.9048L75.7444 47.8372L76.6398 47.8471Z" fill="#010101"/>
<path d="M111.509 47.6722L113.65 48.083C115.287 50.6085 113.134 50.744 115.79 52.6123C119.004 54.8698 116.508 55.3189 118.311 57.9374L120.562 58.3389C123.065 62.3717 123.776 67.9247 123.132 72.5839C121.323 74.8772 121.102 72.1552 120.513 75.779C119.697 80.8312 122.562 87.1252 118.869 90.959C118.973 91.5122 118.986 91.9828 118.98 92.5427L117.906 92.4675L117.649 91.5239C115.931 90.1429 112.969 89.9888 111.693 88.6436C110.896 87.8021 111.399 88.1563 110.141 87.5052C111.57 87.5256 111.675 87.525 113.073 87.2367L112.233 85.0186L113.012 83.4589C113.576 77.6928 115.091 74.9209 108.798 73.4561C108.859 69.4948 108.215 69.1794 111.822 67.8323C111.19 65.5563 111.73 59.8696 112.018 57.4261L110.239 57.4803L109.743 56.5804C109.878 54.0019 110.534 50.2211 109.344 48.2789L111.509 47.6722Z" fill="#504A38"/>
<path d="M108.798 73.4561C108.859 69.4948 108.215 69.1794 111.822 67.8323C113.956 68.5881 114.085 68.2068 114.968 69.8422L114.938 70.4416C114.864 72.1392 114.698 72.9689 115.735 74.3616C115.974 77.601 115.545 87.7941 116.275 89.2688C117.771 90.5032 117.471 89.8829 117.649 91.5239C115.931 90.1429 112.969 89.9888 111.693 88.6436C110.896 87.8021 111.399 88.1563 110.141 87.5052C111.57 87.5256 111.675 87.525 113.073 87.2367L112.233 85.0186L113.012 83.4589C113.576 77.6928 115.091 74.9209 108.798 73.4561Z" fill="#1C1C1A"/>
<path d="M112.018 57.4261L113.662 57.2376C114.263 58.6679 116.066 71.8374 115.735 74.3616C114.698 72.9689 114.864 72.1392 114.938 70.4416L114.968 69.8422C114.085 68.2068 113.956 68.5881 111.822 67.8323C111.19 65.5563 111.73 59.8696 112.018 57.4261Z" fill="#3D3C30"/>
<path d="M96.8867 61.2217C97.0339 60.2811 97.2179 59.7717 97.4816 58.8711C98.3342 58.4917 104.455 51.7511 104.928 50.9898L105.897 53.0046L109.743 56.5804L110.239 57.4803L112.018 57.4261C111.73 59.8696 111.19 65.5563 111.822 67.8323C108.215 69.1794 108.859 69.4948 108.798 73.4561C115.091 74.9209 113.576 77.6928 113.012 83.4589L112.233 85.0186L113.073 87.2367C111.675 87.525 111.57 87.5256 110.141 87.5052C106.688 85.6025 104.836 78.5299 102.934 76.0235C100.205 72.4189 97.4878 74.9881 97.1872 68.0935C97.3713 65.029 97.3467 64.2535 96.8867 61.2217Z" fill="#323329"/>
<path d="M96.8867 61.2217C97.0339 60.2811 97.2179 59.7717 97.4816 58.8711C98.3342 58.4917 104.455 51.7511 104.928 50.9898L105.897 53.0046L109.743 56.5804L110.239 57.4803L112.018 57.4261C111.73 59.8696 111.19 65.5563 111.822 67.8323C108.215 69.1794 108.859 69.4948 108.798 73.4561C107.651 65.4392 104.21 71.6212 104.842 63.8981V57.6632L102.597 57.7685C99.8246 61.2266 100.591 60.7893 96.8867 61.2217Z" fill="#1D201A"/>
<path d="M104.842 57.6632L107.817 58.0334C109.693 60.663 109.736 64.9495 107.89 67.6377L106.749 67.8834C104.817 66.5283 105.48 66.9182 104.842 63.8981V57.6632Z" fill="#19191B"/>
<path d="M105.897 53.0046L109.743 56.5804L110.239 57.4803C108.093 57.3984 107.939 57.7273 106.277 56.6524L105.897 53.0046Z" fill="#323329"/>
<path d="M97.1872 68.0935C106.167 69.5459 102.658 75.1661 106.437 78.8952L109.62 79.3781C110.344 80.6236 110.325 80.679 110.178 82.1604C111.435 82.9889 111.558 83.0204 113.012 83.4589L112.233 85.0186L113.073 87.2367C111.675 87.525 111.57 87.5256 110.141 87.5052C106.688 85.6025 104.836 78.5299 102.934 76.0235C100.205 72.4189 97.4878 74.9881 97.1872 68.0935Z" fill="#19191B"/>
<path d="M89.8454 35.8381L89.8822 34.4208C91.4586 33.8411 99.383 33.8608 100.223 34.616C103.032 37.1439 106.805 42.2682 109.896 44.7229C111.429 45.9345 111.086 45.7934 111.509 47.6722L109.344 48.2789C110.534 50.2211 109.878 54.0019 109.743 56.5804L105.897 53.0046L104.928 50.9898C105.148 48.0374 102.879 44.4186 101.223 42.0003L100.211 40.0834C97.4877 38.9038 93.2924 39.1459 90.1827 39.0399L89.8454 35.8381Z" fill="#504A38"/>
<path d="M101.223 42.0003C107.792 40.9303 104.572 46.6608 109.344 48.2789C110.534 50.2211 109.878 54.0019 109.743 56.5804L105.897 53.0046L104.928 50.9898C105.148 48.0374 102.879 44.4186 101.223 42.0003Z" fill="#3D3C30"/>
<path d="M82.4545 41.4644L84.5583 42.1844C84.4663 44.7487 84.7853 49.4351 83.945 51.3803L82.6078 51.9587C81.7675 52.295 81.9945 52.0813 81.4118 52.6967C80.915 52.8876 79.2528 53.2369 78.6394 53.3804C76.4743 52.6116 77.2103 53.2184 75.9836 50.9048L75.7444 47.8372L76.6398 47.8471L78.161 47.637C80.596 45.4873 77.8605 45.8107 79.8048 42.3748C81.0131 42.2331 81.4731 42.2042 82.4545 41.4644Z" fill="#504A38"/>
<path d="M82.4545 41.4644L83.2089 39.6688C85.3617 37.9712 87.1467 36.2373 89.8454 35.8381L90.1827 39.0399C88.6677 43.0006 88.1219 41.5383 84.5583 42.1844L82.4545 41.4644Z" fill="#504A38"/>
<path d="M81.4118 52.6967C81.9945 52.0813 81.7675 52.295 82.6078 51.9587C81.7123 54.5396 81.4731 62.0397 83.1844 64.2504L82.2766 64.9274C82.1294 68.0128 82.1417 72.037 81.9332 74.9745C91.0598 77.7113 88.2936 71.1401 93.4825 83.6406C94.4884 83.8661 95.5006 84.0817 96.5126 84.288C97.5307 87.1098 96.1874 87.7603 97.3773 89.392L99.8921 89.6421C101.53 91.997 100.137 93.1839 101.99 94.9382L104.652 95.1415C106.277 97.5758 105.29 111.445 105.308 115.407C98.3587 115.376 99.4996 115.26 93.4519 110.38C92.0719 109.266 91.7897 107.604 91.6425 105.875C90.3238 105.214 89.9619 105.324 88.4408 105.32C86.613 102.682 88.8089 102.054 86.9688 100.223L85.8402 100.394C84.7914 103.428 85.1227 107.861 85.8525 110.972C87.6803 113.1 88.7782 110.374 88.9499 114.802C91.6364 116.352 92.8877 114.518 94.8872 116.012C95.0344 117.849 95.1202 119.108 95.0772 120.985L94.6908 121.568L95.1141 123.411C98.0889 125.068 98.5121 123.043 101.346 124.515L101.628 125.824L99.3585 126.975C96.3163 127.188 91.5505 127.105 88.3734 127.137L84.3621 127.237L82.8164 126.156C82.7428 125.502 82.89 123.604 82.9329 122.84L79.811 122.411L79.6637 123.456C77.4986 123.649 74.6281 123.489 73.1009 124.696L72.8188 125.668L71.3528 124.209C73.7326 119.042 74.4073 121.806 75.033 116.032L75.3212 115.363C80.547 113.996 79.0688 103.962 78.9216 99.2808L78.9767 89.464L77.3023 88.6275C76.8975 87.2502 76.7993 86.6423 76.5969 85.2169L78.7805 84.24C79.0933 80.7296 78.9277 74.5261 78.9277 70.8038L79.0687 64.1285L78.94 63.815C78.7253 56.5643 81.4854 58.0334 81.4118 52.6967Z" fill="#010101"/>
<path d="M78.9767 89.464L83.2825 88.4434C81.5099 98.0156 82.2827 108.307 81.2891 117.942C81.1419 119.386 80.1361 121.164 79.811 122.411L79.6637 123.456C77.4986 123.649 74.6281 123.489 73.1009 124.696L72.8188 125.668L71.3528 124.209C73.7326 119.042 74.4073 121.806 75.033 116.032L75.3212 115.363C80.547 113.996 79.0688 103.962 78.9216 99.2808L78.9767 89.464Z" fill="#1C1C1A"/>
<path d="M88.1892 121.581C90.7591 121.063 91.8448 120.919 94.47 121.492L94.6908 121.568L95.1141 123.411C98.0889 125.068 98.5121 123.043 101.346 124.515L101.628 125.824L99.3585 126.975C96.3163 127.188 91.5505 127.105 88.3734 127.137L88.1831 122.932L88.1892 121.581Z" fill="#3D3C30"/>
<path d="M88.1892 121.581C90.7591 121.063 91.8448 120.919 94.47 121.492C94.3228 122.532 94.2063 122.623 93.7402 123.533L91.9368 123.994C89.8269 123.386 89.4834 123.329 88.1892 121.581Z" fill="#504A38"/>
<path d="M98.5857 97.3639C101.867 99.8549 101.229 99.2407 101.965 103.642C102.333 105.803 102.266 108.011 101.493 110.066L100.45 111.061L99.1008 110.742C98.3709 109.451 98.4384 109.215 98.3341 107.686L96.6413 107.556C96.6965 107.097 96.7701 106.182 96.8928 105.782C98.3403 103.824 97.7761 100.656 98.5857 97.3639Z" fill="#2C2A29"/>
<path d="M96.077 93.6699C98.0826 94.7984 98.8065 94.653 98.5857 97.3639C97.7761 100.656 98.3403 103.824 96.8928 105.782L95.0956 105.267C93.9671 103.464 94.3535 102.984 94.3105 100.577C94.5681 96.8508 94.0836 96.3839 96.077 93.6699Z" fill="#323329"/>
<path d="M76.5969 85.2169L78.7805 84.24L83.9633 84.6028L84.1105 87.7122L83.2825 88.4434L78.9767 89.464L77.3023 88.6275C76.8975 87.2502 76.7993 86.6423 76.5969 85.2169Z" fill="#2C2A29"/>
<path d="M81.4118 52.6967C81.9945 52.0813 81.7675 52.295 82.6078 51.9587C81.7123 54.5396 81.4731 62.0397 83.1844 64.2504L82.2766 64.9274C82.1294 68.0128 82.1417 72.037 81.9332 74.9745C81.3198 71.4918 82.5219 66.0257 80.8291 63.8643L79.0687 64.1285L78.94 63.815C78.7253 56.5643 81.4854 58.0334 81.4118 52.6967Z" fill="#2C2A29"/>
<path d="M92.4951 89.0205C95.617 90.3609 95.9911 89.8891 96.077 93.6699C94.0836 96.3839 94.5681 96.8508 94.3105 100.577L92.5686 100.026C92.2067 95.2961 94.2247 93.4432 90.7716 89.4123L92.4951 89.0205Z" fill="#1D201A"/>
<path d="M83.8835 81.4545L85.2943 81.2586C85.6684 83.2846 85.2759 82.9735 86.5087 83.8926L89.2075 84.0028C91.5443 84.0872 91.1947 83.6881 92.4705 84.9151C92.5318 86.4002 92.5503 87.5354 92.4951 89.0205L90.7716 89.4123L89.3608 89.0421L88.0973 88.6053C87.993 87.4652 87.9808 86.5696 87.9747 85.4245C86.6376 84.2301 86.1897 84.644 83.9633 84.6028L83.8835 81.4545Z" fill="#2C2A29"/>
<path d="M89.3608 89.0421L90.7716 89.4123C94.2247 93.4432 92.2067 95.2961 92.5686 100.026C91.5075 99.821 91.4462 99.6855 90.4955 99.1786C89.1522 96.8046 89.4099 91.9803 89.3608 89.0421Z" fill="#19191B"/>
<path d="M82.9329 122.84L88.1831 122.932L88.3734 127.137L84.3621 127.237L82.8164 126.156C82.7428 125.502 82.89 123.604 82.9329 122.84Z" fill="#323329"/>
<path d="M83.8835 81.4545L83.6812 79.946C85.1839 78.788 84.4909 79.1163 86.7726 79.0276C89.594 80.6852 89.1707 80.6606 89.2075 84.0028L86.5087 83.8926C85.2759 82.9735 85.6684 83.2846 85.2943 81.2586L83.8835 81.4545Z" fill="#504A38"/>
<path d="M51.4373 58.0587L63.3546 58.2515C66.1331 59.5173 66.1332 59.2019 65.3972 62.4278C66.4031 63.2624 66.7527 63.2433 68.0039 63.5063C70.5984 63.7238 70.7701 63.7226 72.1746 61.8038L73.4383 63.5833L73.4075 64.0792L75.1924 66.2893C75.6831 65.4738 76.1676 64.7383 76.689 63.948L78.94 63.815L79.0687 64.1285L78.9277 70.8038C78.9277 74.5261 79.0933 80.7296 78.7805 84.24L76.5969 85.2169C76.7993 86.6423 76.8975 87.2502 77.3023 88.6275L78.9767 89.464L78.9216 99.2808C79.0688 103.962 80.547 113.996 75.3212 115.363L75.033 116.032C74.4073 121.806 73.7326 119.042 71.3528 124.209C69.8133 124.012 66.9183 124.805 63.3793 124.382L63.0542 122.794L62.7046 121.533C61.024 120.495 58.9876 120.932 56.8838 121.067L56.5465 120.993C56.4851 119.285 56.246 117.1 56.105 115.356C58.9755 115.399 64.4096 115.842 66.5318 114.604C66.5073 113.042 66.446 112.668 66.8263 111.175L69.3594 110.665C70.6782 106.912 69.8439 95.2486 69.5434 90.9079C68.7338 89.7844 67.3354 90.9294 67.225 88.6805C66.9306 82.7161 68.4639 75.8473 66.8017 70.1484C66.6116 69.5059 64.5079 69.1616 63.778 68.9682C60.6683 64.5239 56.3809 59.0294 51.4005 65.4202C50.6093 63.0998 50.6584 60.3827 51.4373 58.0587Z" fill="#010101"/>
<path d="M68.0039 63.5063C70.5984 63.7238 70.7701 63.7226 72.1746 61.8038L73.4383 63.5833L73.4075 64.0792L75.1924 66.2893C75.6831 65.4738 76.1676 64.7383 76.689 63.948L78.94 63.815L79.0687 64.1285L78.9277 70.8038C78.9277 74.5261 79.0933 80.7296 78.7805 84.24L76.5969 85.2169C76.7993 86.6423 76.8975 87.2502 77.3023 88.6275L78.9767 89.464L78.9216 99.2808C78.7621 101.291 78.8173 104.084 77.75 105.557C75.7076 103.97 77.1121 93.4254 76.2166 89.4887L73.2726 88.6121C73.1009 87.8354 72.8249 86.9903 72.5979 86.2185L70.3223 85.2212C69.071 79.7323 71.5797 67.334 68.0039 63.5063Z" fill="#504A38"/>
<path d="M73.4075 64.0792L75.1924 66.2893C75.6831 65.4738 76.1676 64.7383 76.689 63.948L78.94 63.815L79.0687 64.1285L78.9277 70.8038C78.9277 74.5261 79.0933 80.7296 78.7805 84.24L76.5969 85.2169C74.99 82.0792 76.5846 73.0502 75.6155 68.0855C74.5605 68.0202 73.8123 67.9333 72.7696 67.7806C72.2789 65.9893 72.6286 66.075 73.4075 64.0792Z" fill="#323329"/>
<path d="M76.5969 85.2169C76.3884 81.6498 75.5237 73.8183 77.0202 70.8352L78.9277 70.8038C78.9277 74.5261 79.0933 80.7296 78.7805 84.24L76.5969 85.2169Z" fill="#1D201A"/>
<path d="M73.2726 88.6121L76.2166 89.4887C77.1121 93.4254 75.7076 103.97 77.75 105.557C78.8173 104.084 78.7621 101.291 78.9216 99.2808C79.0688 103.962 80.547 113.996 75.3212 115.363L75.033 116.032C74.4257 117.675 74.3705 118.258 73.1377 119.403L72.1931 119.209C71.1505 117.055 71.1872 114.294 71.0462 111.865C71.4816 111.463 72.0091 110.974 72.6286 110.399C73.9902 104.273 72.2606 94.3247 73.2726 88.6121Z" fill="#323329"/>
<path d="M63.0542 122.794C70.4144 125.016 67.4703 117.623 70.0157 114.065C70.4267 113.493 70.7947 112.506 71.0462 111.865C71.1872 114.294 71.1505 117.055 72.1931 119.209L73.1377 119.403C74.3705 118.258 74.4257 117.675 75.033 116.032C74.4073 121.806 73.7326 119.042 71.3528 124.209C69.8133 124.012 66.9183 124.805 63.3793 124.382L63.0542 122.794Z" fill="#1D201A"/>
<path d="M31.3561 73.3791C32.1412 66.6804 41.2188 58.0372 46.236 53.1876C48.2662 51.23 49.4132 51.3224 52.0015 51.1579L51.1673 53.8806C48.5913 54.6641 49.1249 54.0949 47.7081 55.9902L47.8062 57.0214C49.4377 58.0464 49.0084 57.71 51.3146 57.6244L51.4373 58.0587C50.6584 60.3827 50.6093 63.0998 51.4005 65.4202C52.3021 66.941 52.4309 67.2909 53.9581 68.1261L52.0568 68.959L51.885 73.3422C52.2101 77.0873 52.7375 81.2605 52.3511 84.9625C50.1799 85.5551 48.3091 87.7621 46.6469 89.4025L45.5798 89.9581C45.727 91.1001 45.9171 92.2365 46.144 93.365L45.9415 94.406C43.666 95.5049 43.9482 94.9511 42.9055 96.8613V100.024L42.3044 100.154C40.6423 100.097 40.0903 100.029 38.4649 99.667L37.6798 98.3033L37.9129 95.2838C38.1091 91.53 38.8942 90.4083 35.3122 88.967C34.2572 86.2358 34.8829 87.132 32.227 85.4744C31.2886 82.4838 32.0369 77.8585 31.4419 73.9348L31.3561 73.3791Z" fill="#504A38"/>
<path d="M31.3561 73.3791C32.1412 66.6804 41.2188 58.0372 46.236 53.1876C48.2662 51.23 49.4132 51.3224 52.0015 51.1579L51.1673 53.8806C48.5913 54.6641 49.1249 54.0949 47.7081 55.9902L47.8062 57.0214C49.4377 58.0464 49.0084 57.71 51.3146 57.6244L51.4373 58.0587C50.6584 60.3827 50.6093 63.0998 51.4005 65.4202C52.3021 66.941 52.4309 67.2909 53.9581 68.1261L52.0568 68.959L48.6587 68.4489C49.1985 66.8012 49.4683 65.4695 49.1555 63.7601L48.1374 64.0798C47.9779 65.1239 47.9289 65.9616 47.4627 66.9071C46.512 65.4325 47.015 65.924 45.4509 65.1381L44.3592 68.3159L42.7214 68.0041C41.3107 66.6268 41.7033 66.2696 41.4089 63.8932C40.6852 66.7698 41.2188 67.3494 37.9374 67.6192C36.177 69.5096 36.2261 69.7529 36.3243 72.8001L36.3427 73.28C34.8522 74.4589 33.1594 73.8399 31.3561 73.3791Z" fill="#010101"/>
<path d="M44.261 57.9423C44.5738 57.7193 46.2851 57.1581 46.2851 57.1581C48.0209 53.7955 47.5547 53.766 51.1673 53.8806C48.5913 54.6641 49.1249 54.0949 47.7081 55.9902L47.8062 57.0214C49.4377 58.0464 49.0084 57.71 51.3146 57.6244L51.4373 58.0587C50.6584 60.3827 50.6093 63.0998 51.4005 65.4202C52.3021 66.941 52.4309 67.2909 53.9581 68.1261L52.0568 68.959L48.6587 68.4489C49.1985 66.8012 49.4683 65.4695 49.1555 63.7601L48.1374 64.0798C47.9779 65.1239 47.9289 65.9616 47.4627 66.9071C46.512 65.4325 47.015 65.924 45.4509 65.1381L44.3592 68.3159L42.7214 68.0041C41.3107 66.6268 41.7033 66.2696 41.4089 63.8932L43.1632 63.1663C44.5616 61.1564 44.1077 60.8226 44.261 57.9423Z" fill="#1C1C1A"/>
<path d="M44.261 57.9423L46.3955 58.48C47.5056 60.7726 47.6221 62.2627 46.7818 64.6754L45.4509 65.1381L44.3592 68.3159L42.7214 68.0041C41.3107 66.6268 41.7033 66.2696 41.4089 63.8932L43.1632 63.1663C44.5616 61.1564 44.1077 60.8226 44.261 57.9423Z" fill="#504A38"/>
<path d="M44.0341 77.0836L43.6293 75.9946C44.9173 71.7708 47.8063 75.0312 47.6039 69.2096L48.6587 68.4489L52.0568 68.959L51.885 73.3422C52.2101 77.0873 52.7375 81.2605 52.3511 84.9625C50.1799 85.5551 48.3091 87.7621 46.6469 89.4025L44.6658 88.7587L44.0954 87.5884C44.1015 84.0866 44.0831 80.5854 44.0341 77.0836Z" fill="#2C2A29"/>
<path d="M44.0341 77.0836C45.5797 77.6158 46.2053 77.4532 46.7818 78.8102C47.7509 81.0973 47.1437 86.9521 46.6469 89.4025L44.6658 88.7587L44.0954 87.5884C44.1015 84.0866 44.0831 80.5854 44.0341 77.0836Z" fill="#504A38"/>
<path d="M45.4509 65.1381C47.015 65.924 46.512 65.4325 47.4627 66.9071C47.9289 65.9616 47.9779 65.1239 48.1374 64.0798L49.1555 63.7601C49.4683 65.4695 49.1985 66.8012 48.6587 68.4489L47.6039 69.2096C47.8063 75.0312 44.9173 71.7708 43.6293 75.9946L44.0341 77.0836C44.0831 80.5854 44.1015 84.0866 44.0954 87.5884L42.654 85.7257L41.593 85.8754C37.1216 83.6881 41.2249 69.4659 44.3592 68.3159L45.4509 65.1381Z" fill="#1D201A"/>
<path d="M41.593 85.8754L42.654 85.7257L44.0954 87.5884L44.6658 88.7587L46.6469 89.4025L45.5798 89.9581C45.727 91.1001 45.9171 92.2365 46.144 93.365L45.9415 94.406C43.666 95.5049 43.9482 94.9511 42.9055 96.8613V100.024L42.3044 100.154C42.329 96.8945 42.605 88.5376 41.593 85.8754Z" fill="#2C2A29"/>
<path d="M53.9581 68.1261L55.4976 68.7329C56.3072 71.4703 55.1603 71.684 56.3502 73.3693L58.3619 73.9384C59.8708 77.9577 57.6259 91.2208 55.1173 94.7103L52.4615 95.1119C51.0569 97.3928 53.038 97.8604 51.3697 100.037L48.7569 100.215C47.9044 101.553 48.0945 102.205 48.1313 103.883C46.2115 106.725 41.8751 109.457 38.4649 110.33C32.0063 111.984 28.7739 104.306 34.1223 101.627C34.2511 99.5685 34.3738 97.763 34.3186 95.6946C31.6137 93.3946 29.5099 96.7682 29.3749 91.4807C29.2891 87.9648 28.6512 76.244 30.2828 73.7155L31.3561 73.3791L31.4419 73.9348C32.0369 77.8585 31.2886 82.4838 32.227 85.4744C34.8829 87.132 34.2572 86.2358 35.3122 88.967C38.8942 90.4083 38.1091 91.53 37.9129 95.2838L37.6798 98.3033L38.4649 99.667C40.0903 100.029 40.6423 100.097 42.3044 100.154L42.9055 100.024V96.8613C43.9482 94.9511 43.666 95.5049 45.9415 94.406L46.144 93.365C45.9171 92.2365 45.727 91.1001 45.5798 89.9581L46.6469 89.4025C48.3091 87.7621 50.1799 85.5551 52.3511 84.9625C52.7375 81.2605 52.2101 77.0873 51.885 73.3422L52.0568 68.959L53.9581 68.1261Z" fill="#010101"/>
<path d="M52.3511 84.9625C51.6703 87.7257 50.9834 90.8771 49.4929 93.288C48.1252 93.4186 47.5118 93.4463 46.144 93.365C45.9171 92.2365 45.727 91.1001 45.5798 89.9581L46.6469 89.4025C48.3091 87.7621 50.1799 85.5551 52.3511 84.9625Z" fill="#19191B"/>
<path d="M51.885 73.3422C55.8841 75.2178 55.056 79.7649 54.3813 83.6683C53.4613 84.9157 53.9704 84.5369 52.3511 84.9625C52.7375 81.2605 52.2101 77.0873 51.885 73.3422Z" fill="#1C1C1A"/>
<path d="M42.3044 100.154C41.6972 101.103 41.4457 102.156 41.1022 103.24C39.3542 104.606 39.6732 104.836 37.7779 104.794C36.6616 102.629 37.1094 100.751 37.6798 98.3033L38.4649 99.667C40.0903 100.029 40.6423 100.097 42.3044 100.154Z" fill="#19191B"/>
<path d="M35.3122 88.967C38.8942 90.4083 38.1091 91.53 37.9129 95.2838L35.7968 94.3314C34.6131 92.2137 35.1221 91.8528 35.3122 88.967Z" fill="#1C1C1A"/>
<path d="M42.9055 100.024V96.8613C43.9482 94.9511 43.666 95.5049 45.9415 94.406C45.7514 96.2132 45.8007 98.6667 44.6782 99.8598L42.9055 100.024Z" fill="#19191B"/>
<path d="M53.1179 51.0847C52.3267 50.9824 52.6332 51.1037 51.9156 50.6602C51.1428 50.1773 51.2103 49.5176 51.0079 48.6651L51.7501 47.7837C67.1084 45.4602 64.7225 54.385 72.5611 54.2612C74.4809 52.2877 72.1441 50.8734 73.9228 48.0584L75.7444 47.8372L75.9836 50.9048C77.2103 53.2184 76.4743 52.6116 78.6394 53.3804C79.2528 53.2369 80.915 52.8876 81.4118 52.6967C81.4854 58.0334 78.7253 56.5643 78.94 63.815L76.689 63.948C76.1676 64.7383 75.6831 65.4738 75.1924 66.2893L73.4075 64.0792L73.4383 63.5833L72.1746 61.8038C70.7701 63.7226 70.5984 63.7238 68.0039 63.5063C66.7527 63.2433 66.4031 63.2624 65.3972 62.4278C66.1332 59.2019 66.1331 59.5173 63.3546 58.2515L51.4373 58.0587L51.3146 57.6244C49.0084 57.71 49.4377 58.0464 47.8062 57.0214L47.7081 55.9902C49.1249 54.0949 48.5913 54.6641 51.1673 53.8806L52.0015 51.1579L53.1179 51.0847Z" fill="#010101"/>
<path d="M53.1179 51.0847C57.9757 50.7533 60.2818 49.865 64.0784 53.2011L64.4403 53.5196C64.7899 53.827 64.6489 53.7198 64.9556 53.9157L62.6555 55.5843L63.3546 58.2515L51.4373 58.0587L51.3146 57.6244C49.0084 57.71 49.4377 58.0464 47.8062 57.0214L47.7081 55.9902C49.1249 54.0949 48.5913 54.6641 51.1673 53.8806L52.0015 51.1579L53.1179 51.0847Z" fill="#504A38"/>
<path d="M51.3146 57.6244L51.8359 56.26C53.7005 55.2227 60.061 55.5745 62.6555 55.5843L63.3546 58.2515L51.4373 58.0587L51.3146 57.6244Z" fill="#1D201A"/>
<path d="M75.9836 50.9048C77.2103 53.2184 76.4743 52.6116 78.6394 53.3804C79.2528 53.2369 80.915 52.8876 81.4118 52.6967C81.4854 58.0334 78.7253 56.5643 78.94 63.815L76.689 63.948C76.1676 64.7383 75.6831 65.4738 75.1924 66.2893L73.4075 64.0792L73.4383 63.5833C74.0884 63.3425 74.806 62.9717 75.4439 62.6686C76.4497 60.1197 76.0388 53.9834 75.9836 50.9048Z" fill="#3D3C30"/>
<path d="M64.9556 53.9157C67.4887 54.7479 69.2 58.756 71.9846 60.4862L72.1746 61.8038C70.7701 63.7226 70.5984 63.7238 68.0039 63.5063C66.7527 63.2433 66.4031 63.2624 65.3972 62.4278C66.1332 59.2019 66.1331 59.5173 63.3546 58.2515L62.6555 55.5843L64.9556 53.9157Z" fill="#504A38"/>
</svg>
