<svg width="168" height="162" viewBox="0 0 168 162" fill="none" xmlns="http://www.w3.org/2000/svg">
<path d="M30.7611 0.376696C55.8131 -0.457462 81.277 0.40283 106.37 0.0761858C114.081 -0.0236972 122.626 -0.0839956 130.282 0.535099C134.4 0.674575 134.331 -0.0227929 136.912 2.09365C138.554 5.38259 137.772 12.0981 137.615 16.071L137.726 23.4641L160.543 23.563C163.9 23.8519 165.198 23.3777 167.551 25.1441C167.845 29.853 168.492 49.7234 167.343 53.7826C164.6 54.8552 163.644 54.7266 160.798 54.7032C160.5 60.5045 161.425 60.8446 155.395 63.1176C152.948 64.0391 153.402 67.1696 152.617 69.3175L151.837 69.3671C148.847 69.0269 148.159 69.4534 146.08 67.7545L145.617 61.9955C141.979 62.1773 141.124 61.5834 138.611 63.465C138.255 65.4888 137.921 67.3307 137.455 69.3329L137.385 69.9583C138.596 73.3381 138.399 73.9959 137.877 77.4882L138.587 77.8193L138.094 79.5687C138.173 83.3345 138.735 82.5435 136.796 84.9659C130.278 87.2704 127.177 82.4634 121.987 87.5737C120.866 93.2103 120.551 92.5777 114.708 92.6398C111.221 92.7883 110.271 92.2079 107.882 94.0022C107.574 95.5679 107.24 97.1607 106.986 98.7327L107.118 100.403L99.7701 100.945L99.7531 107.607C97.8496 107.789 93.3743 108.058 91.805 108.683L91.5353 107.818L90.7274 108.107C87.8672 107.835 80.7673 108.511 76.8931 108.483L76.4793 109.166C74.0527 108.975 72.3982 109.059 70.2456 107.932C69.1725 105.471 68.9522 104.43 68.3636 101.796L68.2794 100.95C66.1386 100.849 64.6552 100.671 62.5331 100.36C60.5552 97.7329 61.2468 97.1417 61.1509 93.0996L53.45 92.6263L48.8404 92.4508C44.796 89.1736 48.8789 90.3236 45.7034 86.2635C42.3219 84.9669 35.4156 85.5796 30.5103 85.0001L30.4082 77.7914L31.1257 77.5143C30.7271 75.1045 30.7925 74.2812 30.9251 71.8309C33.2505 69.8062 33.7745 70.3623 37.3244 69.9484L37.3979 69.3635C39.1849 66.8313 38.7666 57.7293 38.8159 54.1462L37.8081 54.3207C37.4686 42.8 38.2972 31.218 37.4534 19.7684C37.0467 14.2451 35.3717 18.0496 32.7686 15.9152C29.7758 13.4613 30.6671 4.31623 30.7611 0.376696Z" fill="#705A3B"/>
<path d="M30.7611 0.376696C55.8131 -0.457462 81.277 0.40283 106.37 0.0761858C114.081 -0.0236972 122.626 -0.0839956 130.282 0.535099C134.4 0.674575 134.331 -0.0227929 136.912 2.09365C138.554 5.38259 137.772 12.0981 137.615 16.071L137.726 23.4641L160.543 23.563C163.9 23.8519 165.198 23.3777 167.551 25.1441C167.845 29.853 168.492 49.7234 167.343 53.7826C164.6 54.8552 163.644 54.7266 160.798 54.7032C160.5 60.5045 161.425 60.8446 155.395 63.1176C152.948 64.0391 153.402 67.1696 152.617 69.3175L151.837 69.3671C148.847 69.0269 148.159 69.4534 146.08 67.7545L145.617 61.9955C141.979 62.1773 141.124 61.5834 138.611 63.465C138.255 65.4888 137.921 67.3307 137.455 69.3329C134.782 69.2933 133.2 69.4769 130.79 68.2081C128.768 64.6906 129.52 59.9916 129.476 55.3709L129.465 54.7112C128.871 43.2301 129.419 27.5044 129.509 15.7083L114.78 16.0484C93.1692 16.457 68.7918 16.5028 47.2388 15.9917C44.4906 16.0628 41.2936 15.747 39.1724 17.1886C38.1019 28.9856 39.3014 42.2655 38.8159 54.1462L37.8081 54.3207C37.4686 42.8 38.2972 31.218 37.4534 19.7684C37.0467 14.2451 35.3717 18.0496 32.7686 15.9152C29.7758 13.4613 30.6671 4.31623 30.7611 0.376696Z" fill="#493019"/>
<path d="M160.543 23.563C163.9 23.8519 165.198 23.3777 167.551 25.1441C167.845 29.853 168.492 49.7234 167.343 53.7826C164.6 54.8552 163.644 54.7266 160.798 54.7032C160.5 60.5045 161.425 60.8446 155.395 63.1176C152.948 64.0391 153.402 67.1696 152.617 69.3175L151.837 69.3671C148.847 69.0269 148.159 69.4534 146.08 67.7545L145.617 61.9955C141.979 62.1773 141.124 61.5834 138.611 63.465C138.255 65.4888 137.921 67.3307 137.455 69.3329C134.782 69.2933 133.2 69.4769 130.79 68.2081C128.768 64.6906 129.52 59.9916 129.476 55.3709C132.148 54.7923 134.083 54.3144 136.721 53.5352C138.263 50.3533 136.813 45.0154 137.839 40.1112C140.111 37.6475 139.82 38.4591 144.173 38.11C145.998 35.2962 145.395 35.234 145.526 31.3323C142.745 31.4241 140.816 31.7201 138.264 30.5206C136.838 27.4324 137.432 27.3433 137.726 23.4641L160.543 23.563Z" fill="#6C5326"/>
<path d="M145.526 31.3323C148.05 31.3467 151.061 30.9562 152.899 32.3581C153.347 37.0805 153.811 49.358 152.71 53.716C148.326 56.7386 148.571 52.3951 145.608 56.1591C145.399 58.5653 145.437 59.5821 145.617 61.9955C141.979 62.1773 141.124 61.5834 138.611 63.465C138.255 65.4888 137.921 67.3307 137.455 69.3329C134.782 69.2933 133.2 69.4769 130.79 68.2081C128.768 64.6906 129.52 59.9916 129.476 55.3709C132.148 54.7923 134.083 54.3144 136.721 53.5352C138.263 50.3533 136.813 45.0154 137.839 40.1112C140.111 37.6475 139.82 38.4591 144.173 38.11C145.998 35.2962 145.395 35.234 145.526 31.3323Z" fill="#15191A"/>
<path d="M160.543 23.563C163.9 23.8519 165.198 23.3777 167.551 25.1441C167.845 29.853 168.492 49.7234 167.343 53.7826C164.6 54.8552 163.644 54.7266 160.798 54.7032L160.565 54.1731C160.735 44.1038 160.568 33.6629 160.543 23.563Z" fill="#312518"/>
<path d="M160.565 54.1731L160.798 54.7032C160.5 60.5045 161.425 60.8446 155.395 63.1176C152.948 64.0391 153.402 67.1696 152.617 69.3175C152.636 66.7422 152.639 64.0904 152.757 61.5285C153.076 54.5223 154.99 55.0423 160.565 54.1731Z" fill="#4E3C28"/>
<path d="M30.7611 0.376696C55.8131 -0.457462 81.277 0.40283 106.37 0.0761858C114.081 -0.0236972 122.626 -0.0839956 130.282 0.535099C130.265 3.05647 130.592 5.98271 129.372 8.00376C122.27 8.79023 109.339 8.37179 101.824 8.34389C86.4223 8.24401 71.0196 8.27281 55.6178 8.42849C50.4402 11.0281 41.4369 6.54067 37.68 11.5474L38.1109 14.3234C40.6558 15.7443 44.2603 15.747 47.2388 15.9917C44.4906 16.0628 41.2936 15.747 39.1724 17.1886C38.1019 28.9856 39.3014 42.2655 38.8159 54.1462L37.8081 54.3207C37.4686 42.8 38.2972 31.218 37.4534 19.7684C37.0467 14.2451 35.3717 18.0496 32.7686 15.9152C29.7758 13.4613 30.6671 4.31623 30.7611 0.376696Z" fill="#725B25"/>
<path d="M30.7611 0.376696C55.8131 -0.457462 81.277 0.40283 106.37 0.0761858C114.081 -0.0236972 122.626 -0.0839956 130.282 0.535099C108.316 2.2943 63.7881 -0.456566 39.5056 1.31433C39.1572 1.69857 38.8096 2.08373 38.4612 2.46797C38.1817 4.69239 37.6711 6.21402 38.789 8.02182C44.0257 8.83888 50.2468 8.51577 55.6178 8.42849C50.4402 11.0281 41.4369 6.54067 37.68 11.5474L38.1109 14.3234C40.6558 15.7443 44.2603 15.747 47.2388 15.9917C44.4906 16.0628 41.2936 15.747 39.1724 17.1886C38.1019 28.9856 39.3014 42.2655 38.8159 54.1462L37.8081 54.3207C37.4686 42.8 38.2972 31.218 37.4534 19.7684C37.0467 14.2451 35.3717 18.0496 32.7686 15.9152C29.7758 13.4613 30.6671 4.31623 30.7611 0.376696Z" fill="#4E3C28"/>
<path d="M137.615 16.071L137.726 23.4641C137.432 27.3433 136.838 27.4324 138.264 30.5206C140.816 31.7201 142.745 31.4241 145.526 31.3323C145.395 35.234 145.998 35.2962 144.173 38.11C139.82 38.4591 140.111 37.6475 137.839 40.1112C136.813 45.0154 138.263 50.3533 136.721 53.5352C134.083 54.3144 132.148 54.7923 129.476 55.3709L129.465 54.7112C130.65 50.4262 130.091 24.6231 130.653 17.1976C132.638 15.8829 134.895 16.2293 137.615 16.071Z" fill="#312518"/>
<path d="M114.78 16.0484L129.509 15.7083C129.419 27.5044 128.871 43.2301 129.465 54.7112L129.476 55.3709C129.52 59.9916 128.768 64.6906 130.79 68.2081C133.2 69.4769 134.782 69.2933 137.455 69.3329L137.385 69.9583C138.596 73.3381 138.399 73.9959 137.877 77.4882L138.587 77.8193L138.094 79.5687C138.173 83.3345 138.735 82.5435 136.796 84.9659C130.278 87.2704 127.177 82.4634 121.987 87.5737C120.866 93.2103 120.551 92.5777 114.708 92.6398L114.992 85.2638L114.791 84.8084C111.701 85.118 109.729 85.3124 106.601 85.2611C107.066 81.6203 107.342 71.8533 108.653 69.5263C110.654 69.4867 111.896 69.3904 113.881 69.1304C116.155 64.444 114.805 24.4224 114.78 16.0484Z" fill="#694920"/>
<path d="M137.877 77.4882L138.587 77.8193L138.094 79.5687C138.173 83.3345 138.735 82.5435 136.796 84.9659C130.278 87.2704 127.177 82.4634 121.987 87.5737C120.866 93.2103 120.551 92.5777 114.708 92.6398L114.992 85.2638L114.791 84.8084C114.618 82.1584 114.38 80.9247 115.296 78.3629C117.987 76.9132 119.177 77.4846 122.586 77.535C126.033 78.5482 126.468 78.4781 129.869 77.5503L137.877 77.4882Z" fill="#312518"/>
<path d="M114.992 85.2638C123.153 83.8645 129.467 86.1421 136.342 83.5379C136.998 83.2887 137.75 80.5324 138.094 79.5687C138.173 83.3345 138.735 82.5435 136.796 84.9659C130.278 87.2704 127.177 82.4634 121.987 87.5737C120.866 93.2103 120.551 92.5777 114.708 92.6398L114.992 85.2638Z" fill="#271F17"/>
<path d="M129.465 54.7112L129.476 55.3709C129.52 59.9916 128.768 64.6906 130.79 68.2081C133.2 69.4769 134.782 69.2933 137.455 69.3329L137.385 69.9583C138.596 73.3381 138.399 73.9959 137.877 77.4882L129.869 77.5503C126.468 78.4781 126.033 78.5482 122.586 77.535C123.217 69.5606 121.608 63.4829 123.657 56.0574C125.889 53.9436 125.414 54.6185 129.465 54.7112Z" fill="#312518"/>
<path d="M129.869 77.5503C129.598 74.741 129.519 74.0543 129.95 71.281C132.778 69.3409 133.291 70.0248 137.385 69.9583C138.596 73.3381 138.399 73.9959 137.877 77.4882L129.869 77.5503Z" fill="#705A3B"/>
<path d="M38.8159 54.1462L45.802 54.8975C45.4625 60.0986 43.5608 72.4185 46.833 76.1798C48.156 77.7006 51.5931 77.4855 53.6516 77.5152C53.7546 81.0282 53.1544 82.0297 54.9334 84.4098C56.6336 84.7266 58.2424 85.0496 59.9658 85.2458L61.0614 85.6966L61.3605 92.4599L61.1509 93.0996L53.45 92.6263L48.8404 92.4508C44.796 89.1736 48.8789 90.3236 45.7034 86.2635C42.3219 84.9669 35.4156 85.5796 30.5103 85.0001L30.4082 77.7914L31.1257 77.5143C30.7271 75.1045 30.7925 74.2812 30.9251 71.8309C33.2505 69.8062 33.7745 70.3623 37.3244 69.9484L37.3979 69.3635C39.1849 66.8313 38.7666 57.7293 38.8159 54.1462Z" fill="#312518"/>
<path d="M30.5103 85.0001C38.3286 84.2668 45.0737 82.566 51.9917 85.6984C53.8863 88.5527 53.2709 88.6427 53.45 92.6263L48.8404 92.4508C44.796 89.1736 48.8789 90.3236 45.7034 86.2635C42.3219 84.9669 35.4156 85.5796 30.5103 85.0001Z" fill="#15191A"/>
<path d="M37.3244 69.9484C38.7505 71.8353 38.7935 72.1467 39.0855 74.5106C36.8604 78.1522 35.1495 77.6727 31.1257 77.5143C30.7271 75.1045 30.7925 74.2812 30.9251 71.8309C33.2505 69.8062 33.7745 70.3623 37.3244 69.9484Z" fill="#705A3B"/>
<path d="M45.802 54.8975C45.9256 47.3892 44.7557 29.2176 47.3319 23.7421C49.7819 22.3617 50.0551 22.9025 53.1965 23.1275C53.339 31.3656 55.0311 46.9735 52.3231 53.644C49.6941 55.5238 49.7075 54.8777 45.802 54.8975Z" fill="#7E682E"/>
<path d="M53.6516 77.5152C53.6489 73.1671 52.4781 64.5916 53.6086 61.7481C55.4807 61.5771 58.3669 62 60.3197 62.2259C62.0601 65.0496 61.6463 82.4554 59.9658 85.2458C58.2424 85.0496 56.6336 84.7266 54.9334 84.4098C53.1544 82.0297 53.7546 81.0282 53.6516 77.5152Z" fill="#7E682E"/>
<path d="M106.601 85.2611C109.729 85.3124 111.701 85.118 114.791 84.8084L114.992 85.2638L114.708 92.6398C111.221 92.7883 110.271 92.2079 107.882 94.0022C107.574 95.5679 107.24 97.1607 106.986 98.7327L106.702 92.458L106.601 85.2611Z" fill="#312518"/>
<path d="M61.3605 92.4599L68.5231 92.9593C68.541 95.3574 68.3341 97.9255 69.1797 100.099L69.2666 100.589L68.2794 100.95C66.1386 100.849 64.6552 100.671 62.5331 100.36C60.5552 97.7329 61.2468 97.1417 61.1509 93.0996L61.3605 92.4599Z" fill="#4E3C28"/>
<path d="M69.2666 100.589L74.0679 100.533L75.9329 101.42C76.8018 104.331 76.7704 105.536 76.8931 108.483L76.4793 109.166C74.0527 108.975 72.3982 109.059 70.2456 107.932C69.1725 105.471 68.9522 104.43 68.3636 101.796L68.2794 100.95L69.2666 100.589Z" fill="#493019"/>
<path d="M106.702 92.458L106.986 98.7327L107.118 100.403L99.7701 100.945L99.2246 100.708C99.4279 99.9232 100.025 94.9119 100.227 93.6863C102.566 91.9793 103.326 92.5534 106.702 92.458Z" fill="#4E3C28"/>
<path d="M91.5353 107.818C91.6455 105.831 91.839 104.026 92.054 102.048C94.6248 99.9807 95.0664 100.726 99.2246 100.708L99.7701 100.945L99.7531 107.607C97.8496 107.789 93.3743 108.058 91.805 108.683L91.5353 107.818Z" fill="#493019"/>
<path d="M69.1797 100.099C69.3812 95.63 68.6906 96.2311 70.9237 93.0943C74.075 92.1242 72.7269 92.0648 76.0018 93.537C77.7262 96.2815 77.4261 95.0055 77.023 98.3646C75.8272 99.7243 75.8146 99.9735 74.0679 100.533L69.2666 100.589L69.1797 100.099Z" fill="#7E682E"/>
<path d="M61.0614 85.6966C64.6579 85.9288 65.3879 85.3511 67.8566 87.2489C68.2481 89.4787 68.4281 90.6998 68.5231 92.9593L61.3605 92.4599L61.0614 85.6966Z" fill="#725B25"/>
<path d="M84.68 31.4088C87.4999 31.3323 88.1914 31.3171 90.9361 31.9164C95.7535 39.9025 86.8979 62.0981 94.6517 69.2339C96.6878 69.4058 97.6543 69.2573 99.2156 70.4316C99.5283 73.2958 99.7092 74.1372 99.101 77.0149C95.4731 77.9345 74.3411 77.5494 68.7856 77.5467C68.9728 73.5999 68.3932 73.2742 70.1892 70.3074C73.5806 68.4591 79.7829 69.4139 84.2169 69.5489C83.9688 62.2898 84.2053 54.1083 84.2617 46.7764C79.9172 46.7872 72.1841 47.6655 69.349 45.6408C68.4891 42.9503 68.4255 42.6146 69.2782 39.934C72.9867 37.9129 77.7593 40.2237 83.6436 38.5563C84.887 36.5712 84.5484 34.0877 84.68 31.4088Z" fill="#493019"/>
<path d="M68.3636 101.796C68.9522 104.43 69.1725 105.471 70.2456 107.932C72.3982 109.059 74.0527 108.975 76.4793 109.166L76.8931 108.483C80.7673 108.511 87.8672 107.835 90.7274 108.107L91.5353 107.818L91.805 108.683C93.3743 108.058 97.8496 107.789 99.7531 107.607L100.098 108.276C99.436 116.075 99.5749 123.393 99.6331 131.195C99.7065 135.244 98.9881 135.964 100.997 138.474C103.356 138.78 104.354 138.852 106.729 138.78C110.733 138.699 110.478 138.123 113.603 139.779C114.854 142.38 114.712 143.657 114.772 146.474C117.363 146.519 118.635 146.357 120.984 147.599C123.155 150.919 122.273 157.362 122.264 161.852C96.8329 162.203 70.5636 161.825 45.0701 161.771C45.7939 156.759 44.7342 152.692 46.6055 148.283C49.4271 145.961 48.947 146.681 53.3479 146.474C54.1532 143.666 52.9869 142.875 55.152 139.896C59.0441 137.206 63.7388 138.339 68.6834 138.699L68.8071 131.42C69.1009 121.008 68.1137 111.255 68.3636 101.796Z" fill="#6C5326"/>
<path d="M114.772 146.474C117.363 146.519 118.635 146.357 120.984 147.599C123.155 150.919 122.273 157.362 122.264 161.852C96.8329 162.203 70.5636 161.825 45.0701 161.771C45.7939 156.759 44.7342 152.692 46.6055 148.283C49.4271 145.961 48.947 146.681 53.3479 146.474L53.8612 146.726C53.7089 149.372 53.2494 151.396 54.5859 153.556C60.8087 154.231 109.65 154.528 114.291 153.529C115.219 150.847 114.739 149.561 114.274 146.762L114.772 146.474Z" fill="#312518"/>
<path d="M68.8071 131.42L76.5742 131.015C76.9755 136.729 76.7624 140.913 76.508 146.591L60.9055 146.483L53.8612 146.726L53.3479 146.474C54.1532 143.666 52.9869 142.875 55.152 139.896C59.0441 137.206 63.7388 138.339 68.6834 138.699L68.8071 131.42Z" fill="#7E682E"/>
<path d="M53.3479 146.474C54.1532 143.666 52.9869 142.875 55.152 139.896C59.0441 137.206 63.7388 138.339 68.6834 138.699C64.9105 139.257 63.2927 138.735 61.2629 141.039L60.9055 146.483L53.8612 146.726L53.3479 146.474Z" fill="#271F17"/>
<path d="M99.7531 107.607L100.098 108.276C99.436 116.075 99.5749 123.393 99.6331 131.195C95.5744 131.24 95.6666 131.852 92.5852 130.106C90.7363 126.533 91.6294 119.893 91.7369 115.282L91.805 108.683C93.3743 108.058 97.8496 107.789 99.7531 107.607Z" fill="#271F17"/>
<path d="M68.3636 101.796C68.9522 104.43 69.1725 105.471 70.2456 107.932C72.3982 109.059 74.0527 108.975 76.4793 109.166L76.5742 131.015L68.8071 131.42C69.1009 121.008 68.1137 111.255 68.3636 101.796Z" fill="#271F17"/>
<path d="M106.729 138.78C110.733 138.699 110.478 138.123 113.603 139.779C114.854 142.38 114.712 143.657 114.772 146.474L114.274 146.762C112.312 146.744 110.463 146.6 108.514 146.465C106.276 144.045 106.999 142.992 106.729 138.78Z" fill="#271F17"/>
<path d="M90.7274 108.107L91.5353 107.818L91.805 108.683L91.7369 115.282C87.9165 115.856 86.459 116.427 83.6248 113.952L83.6212 112.066C85.9144 108.52 85.6376 109.261 90.7274 108.107Z" fill="#694920"/>
<path d="M77.3213 115.975C79.868 115.913 81.3352 115.582 83.4358 116.946C85.4755 120.486 84.5976 126.56 84.5018 131.159C81.9936 131.303 80.4789 131.681 78.3738 130.403C76.4175 126.974 77.2532 120.477 77.3213 115.975Z" fill="#7E682E"/>
<path d="M7.5581 23.8879C12.6246 23.4956 28.39 21.6995 31.4984 26.9744L31.2995 29.7522C28.4393 31.8983 25.7529 31.6104 22.1779 31.4232C22.779 35.5391 22.1403 35.1927 24.3618 38.1478C29.8313 39.1493 32.0761 38.1199 31.4204 45.7974C31.0568 50.0581 29.5071 51.8398 33.3392 54.318L37.8081 54.3207L38.8159 54.1462C38.7666 57.7293 39.1849 66.8313 37.3979 69.3635L37.3244 69.9484C33.7745 70.3623 33.2505 69.8062 30.9251 71.8309C30.7925 74.2812 30.7271 75.1045 31.1257 77.5143L30.4082 77.7914C16.8544 77.3514 30.9403 70.5486 15.4579 69.4544L15.4489 61.848C13.3358 61.9731 11.6303 61.9226 9.52879 61.8677C7.09231 59.4606 7.67814 58.5428 6.94002 54.4107C4.14792 54.8858 3.21632 55.3051 0.618591 54.1947C-0.506492 47.5799 0.138468 32.71 0.708176 25.6939C2.85891 23.7808 4.17658 24.2632 7.5581 23.8879Z" fill="#15191A"/>
<path d="M6.94002 54.4107C4.14792 54.8858 3.21632 55.3051 0.618591 54.1947C-0.506492 47.5799 0.138468 32.71 0.708176 25.6939C2.85891 23.7808 4.17658 24.2632 7.5581 23.8879L7.5796 31.6382C7.56258 38.3016 7.77219 46.5811 7.4524 53.1104L6.94002 54.4107Z" fill="#271F17"/>
<path d="M7.5581 23.8879C12.6246 23.4956 28.39 21.6995 31.4984 26.9744L31.2995 29.7522C28.4393 31.8983 25.7529 31.6104 22.1779 31.4232L15.4525 31.3198L7.5796 31.6382L7.5581 23.8879Z" fill="#725B25"/>
<path d="M7.5796 31.6382L15.4525 31.3198L15.5851 54.1435C11.8605 54.8166 10.2911 55.4392 7.4524 53.1104C7.77219 46.5811 7.56258 38.3016 7.5796 31.6382Z" fill="#705A3B"/>
<path d="M7.4524 53.1104C10.2911 55.4392 11.8605 54.8166 15.5851 54.1435C17.3972 54.1804 21.4452 54.0418 22.8784 54.7338L22.5703 62.0063C22.3839 64.3567 22.2738 65.9044 21.8017 68.236C19.5551 69.4345 17.9991 69.3023 15.4579 69.4544L15.4489 61.848C13.3358 61.9731 11.6303 61.9226 9.52879 61.8677C7.09231 59.4606 7.67814 58.5428 6.94002 54.4107L7.4524 53.1104Z" fill="#705A3B"/>
<path d="M7.4524 53.1104C10.2911 55.4392 11.8605 54.8166 15.5851 54.1435C17.3972 54.1804 21.4452 54.0418 22.8784 54.7338C19.04 54.9821 17.9866 54.318 15.7015 56.4588L15.4489 61.848C13.3358 61.9731 11.6303 61.9226 9.52879 61.8677C7.09231 59.4606 7.67814 58.5428 6.94002 54.4107L7.4524 53.1104Z" fill="#4E3C28"/>
<path d="M22.5703 62.0063C37.1121 63.0906 24.9843 70.194 37.3979 69.3635L37.3244 69.9484C33.7745 70.3623 33.2505 69.8062 30.9251 71.8309C30.7925 74.2812 30.7271 75.1045 31.1257 77.5143L30.4082 77.7914C16.8544 77.3514 30.9403 70.5486 15.4579 69.4544C17.9991 69.3023 19.5551 69.4345 21.8017 68.236C22.2738 65.9044 22.3839 64.3567 22.5703 62.0063Z" fill="#694920"/>
<path d="M137.455 69.3329C137.921 67.3307 138.255 65.4888 138.611 63.465C141.124 61.5834 141.979 62.1773 145.617 61.9955L146.08 67.7545C148.159 69.4534 148.847 69.0269 151.837 69.3671C138.824 71.5303 151.772 77.283 138.587 77.8193L137.877 77.4882C138.399 73.9959 138.596 73.3381 137.385 69.9583L137.455 69.3329Z" fill="#694920"/>
<path d="M107.118 100.403C107.09 103.544 107.089 103.973 105.662 106.749C103.44 108.452 102.937 108.353 100.098 108.276L99.7531 107.607L99.7701 100.945L107.118 100.403Z" fill="#15191A"/>
</svg>
