<svg width="168" height="181" viewBox="0 0 168 181" fill="none" xmlns="http://www.w3.org/2000/svg">
<path d="M5.99787 51.1382C4.85324 50.0906 4.6035 49.8586 3.76591 48.5607C3.8096 44.7492 9.01252 42.8865 11.8585 38.991C12.1815 37.1516 11.4022 37.7251 10.0345 35.2655C10.6885 33.4406 35.0311 9.53381 38.2173 6.69781C39.927 6.95403 40.2963 7.77127 41.7974 9.1263C43.6083 7.24197 45.6306 4.69479 48.0486 3.97912C51.9903 4.45873 49.8864 6.57477 52.87 4.69911C55.1758 3.24831 55.6326 0.854868 58.0275 0.329007C59.6068 0.812187 59.865 1.38159 60.9143 2.67292C62.21 1.39854 62.9297 0.392441 64.6752 0.0765415C67.045 2.66409 68.2863 3.03005 70.887 0.10317C72.3758 0.435209 73.0973 1.52072 74.1846 2.69035C75.9241 1.27424 76.3139 0.424831 78.1979 0.308066C79.135 1.1454 79.8312 1.74963 80.6768 2.69299C82.1453 1.40894 82.788 0.348687 84.402 0.212951C85.6508 1.41474 86.0299 1.8466 87.8051 2.17595C88.7037 1.36369 89.4056 0.742563 90.3663 0C94.8946 1.11869 94.9896 8.34928 100.155 4.0248C103.011 4.40074 104.758 6.98943 106.813 9.23877C108.173 8.04399 108.832 7.06137 110.403 6.71558C115.175 11.0184 128.267 23.7994 132.293 28.6191C131.738 30.2299 130.741 31.0124 129.532 32.2438C133.406 35.8174 135.737 36.5275 134.319 42.026C134.74 44.4377 137.333 46.3434 139.216 48.1866C138.541 49.0623 136.941 50.6406 137.259 51.5514C138.646 55.5134 139.729 54.7637 136.121 58.0059C137.838 59.7294 138.189 59.5024 138.551 61.4818C136.907 65.2506 136.484 64.6536 139.191 67.889C138.441 68.6901 136.886 70.2297 136.41 71.1147C138.108 72.879 138.594 72.7719 138.872 74.7447C137.981 75.8762 137.457 76.485 136.433 77.4984C137.98 79.6592 138.356 79.4188 138.327 81.5785C137.072 83.9421 134.698 84.4437 133.115 87.4829C134.938 89.2579 135.065 88.8224 135.474 90.9111C132.249 97.9409 126.956 92.8287 132.294 100.425C133.566 102.228 116.423 112.819 117.616 117.817L119.529 119.789L116.708 123.096L116.458 123.219L113.618 126.161C112.326 127.488 111.602 128.024 110.138 129.129L106.878 126.158L103.704 129.363L103.553 129.738C102.635 130.562 101.65 131.332 100.689 132.107C98.9121 131.708 92.9174 125.2 91.3477 123.545C91.0616 121.949 91.9325 122.131 93.3829 120.05C92.9985 118.428 92.6809 118.157 91.5119 117.054L91.1771 116.743C91.3969 115.253 92.4218 114.626 93.6233 113.317C92.5368 112.101 92.0136 111.605 91.2836 110.096C92.1889 107.966 107.176 93.6117 109.901 90.9227C104.275 83.8516 111.024 86.725 112.624 80.6024C112.868 79.6607 111.649 78.5271 111.004 77.4645C111.334 75.78 112.859 74.7733 114.191 73.6261L116.553 70.9777L113.451 67.9552L111.995 66.2952C111.694 63.9201 112.156 65.4911 113.424 62.8133C112.487 60.7228 108.484 57.2188 106.568 54.9019L109.877 51.6106C104.069 45.6269 96.4064 37.5094 90.2809 32.1051L88.26 34.2434C85.3585 35.1525 85.4667 33.2847 83.5607 31.2744C80.389 27.9391 80.2443 29.4664 77.7629 31.251C75.8348 30.8069 76.0027 30.4503 74.3565 28.8136L70.933 25.4623L70.2115 26.2539C68.7419 27.8864 66.8889 30.3063 64.9421 31.0823C62.7784 30.722 63.1182 30.4535 61.2299 28.6054C59.6187 30.294 56.6665 33.9185 54.2834 34.1751C52.7773 34.3349 52.1438 32.661 51.9071 32.8121C44.139 37.7512 36.0778 48.0164 29.2278 54.3573C26.1224 57.2322 26.4001 57.5727 26.3409 58.3784C27.7287 59.9136 28.2921 59.9489 28.3025 61.5886C25.8649 65.2895 20.0974 68.2843 19.7368 71.4586C22.9659 75.6073 19.447 77.323 16.1034 80.4289C17.0945 81.7106 17.6911 82.4699 18.5086 83.9082C17.7284 86.1837 17.0053 86.0147 16.1626 87.6974L15.651 87.593L15.484 87.1503C14.4495 88.3208 13.9263 89.0057 12.5978 89.8946C7.12925 87.2508 11.8469 85.9513 12.1029 83.8505L9.3237 80.4019L8.99938 80.556L5.94106 77.4099L2.90341 80.5873L2.56082 80.448C1.16681 79.1574 0.443421 78.7259 0.143167 77.0657C1.42095 76.1352 1.59422 76.1092 2.07769 74.6847C1.45839 72.1852 1.87114 73.0444 0 71.2057C0.120128 69.7838 1.42636 68.7571 2.48795 67.6274C1.3206 66.377 0.662965 65.8433 0.165788 64.168L1.65523 63.1548C3.51095 59.2672 0.899182 60.6617 0.288039 57.9843C1.34894 55.6752 4.34326 53.4948 5.99787 51.1382Z" fill="#A2AFB4"/>
<path d="M22.7299 54.6795C23.5761 53.3779 28.3461 48.8312 29.682 47.4359C35.5465 41.3121 42.7013 35.0536 48.1717 28.6402C49.9544 30.4057 49.753 30.7973 51.7956 31.1582C54.003 30.5134 56.1601 27.2953 58.1071 25.4861L61.2299 28.6054C59.6187 30.294 56.6665 33.9185 54.2834 34.1751C52.7773 34.3349 52.1438 32.661 51.9071 32.8121C44.139 37.7512 36.0778 48.0164 29.2278 54.3573C26.1224 57.2322 26.4001 57.5727 26.3409 58.3784C27.7287 59.9136 28.2921 59.9489 28.3025 61.5886C25.8649 65.2895 20.0974 68.2843 19.7368 71.4586C22.9659 75.6073 19.447 77.323 16.1034 80.4289C17.0945 81.7106 17.6911 82.4699 18.5086 83.9082C17.7284 86.1837 17.0053 86.0147 16.1626 87.6974L15.651 87.593L15.484 87.1503C14.4495 88.3208 13.9263 89.0057 12.5978 89.8946C7.12925 87.2508 11.8469 85.9513 12.1029 83.8505L9.3237 80.4019L12.3556 76.9543C11.3566 76.0499 10.9988 75.6013 10.1672 74.5374C10.3467 72.7081 11.1404 72.4394 12.6169 70.8076C17.5613 66.5209 13.3982 67.4722 13.1783 64.6095C14.9982 61.9651 20.114 57.3884 22.7299 54.6795Z" fill="#485A66"/>
<path d="M12.6169 70.8076C17.5613 66.5209 13.3982 67.4722 13.1783 64.6095C14.9982 61.9651 20.114 57.3884 22.7299 54.6795C24.4061 56.6092 24.7228 56.3001 24.7657 58.3035C22.8795 62.8043 16.3269 64.7376 16.647 68.6565C17.7829 70.2964 18.0534 70.1092 18.0293 71.8648C17.1374 73.4421 15.6977 74.35 14.2483 75.4579L13.1467 77.17C13.6201 78.9788 14.262 79.1245 15.7648 80.6119L16.1034 80.4289C17.0945 81.7106 17.6911 82.4699 18.5086 83.9082C17.7284 86.1837 17.0053 86.0147 16.1626 87.6974L15.651 87.593L15.484 87.1503C14.4495 88.3208 13.9263 89.0057 12.5978 89.8946C7.12925 87.2508 11.8469 85.9513 12.1029 83.8505L9.3237 80.4019L12.3556 76.9543C11.3566 76.0499 10.9988 75.6013 10.1672 74.5374C10.3467 72.7081 11.1404 72.4394 12.6169 70.8076Z" fill="#E6DBCE"/>
<path d="M15.7648 80.6119L16.1034 80.4289C17.0945 81.7106 17.6911 82.4699 18.5086 83.9082C17.7284 86.1837 17.0053 86.0147 16.1626 87.6974L15.651 87.593L15.484 87.1503C14.4742 86.1348 14.0287 85.5872 13.1704 84.4395C13.4157 82.5841 14.2746 82.2414 15.7648 80.6119Z" fill="#48565E"/>
<path d="M70.933 25.4623L71.2154 25.1515L74.3995 22.131C75.5968 20.7888 76.2045 19.7848 77.9183 19.4221C80.2912 21.9899 81.7721 22.0936 84.7329 19.914C86.4533 20.8725 89.1644 24.0669 90.6376 25.6448C92.3219 27.3348 92.32 27.9409 94.2197 28.2274C95.5085 27.2577 95.8908 26.8949 96.9782 25.7013C102.631 31.264 114.466 42.2646 119.111 47.9235C119.107 49.3778 117.756 50.438 116.666 51.4459L113.297 48.1495C112.533 48.9741 110.674 50.8485 110.216 51.729L109.877 51.6106C104.069 45.6269 96.4064 37.5094 90.2809 32.1051L88.26 34.2434C85.3585 35.1525 85.4667 33.2847 83.5607 31.2744C80.389 27.9391 80.2443 29.4664 77.7629 31.251C75.8348 30.8069 76.0027 30.4503 74.3565 28.8136L70.933 25.4623Z" fill="#E6DBCE"/>
<path d="M90.1594 31.771C91.3546 30.9511 92.5416 30.1152 93.7212 29.2645C95.6758 29.925 110.567 45.3922 113.297 48.1495C112.533 48.9741 110.674 50.8485 110.216 51.729L109.877 51.6106C104.069 45.6269 96.4064 37.5094 90.2809 32.1051L90.1594 31.771Z" fill="#485A66"/>
<path d="M74.3565 28.8136L77.0957 26.686C78.8434 26.9727 79.0784 27.595 80.6095 28.8736L83.9748 25.4565L90.1594 31.771L90.2809 32.1051L88.26 34.2434C85.3585 35.1525 85.4667 33.2847 83.5607 31.2744C80.389 27.9391 80.2443 29.4664 77.7629 31.251C75.8348 30.8069 76.0027 30.4503 74.3565 28.8136Z" fill="#48565E"/>
<path d="M70.933 25.4623L71.2154 25.1515L74.3995 22.131L77.8145 25.6031C78.6482 26.5499 79.903 27.8867 80.6095 28.8736C79.0784 27.595 78.8434 26.9727 77.0957 26.686L74.3565 28.8136L70.933 25.4623Z" fill="#5D6A71"/>
<path d="M77.8145 25.6031C79.5389 23.921 79.5051 23.363 81.4479 23.0694C82.5524 23.9751 83.0297 24.3909 83.9748 25.4565L80.6095 28.8736C79.903 27.8867 78.6482 26.5499 77.8145 25.6031Z" fill="#B6C3C7"/>
<path d="M93.6233 113.317C92.5368 112.101 92.0136 111.605 91.2836 110.096C92.1889 107.966 107.176 93.6117 109.901 90.9227C110.796 92.0526 111.578 93.1449 112.676 94.0749L113.238 93.7777C115.042 95.5493 115.293 95.2224 115.663 97.2715C112.912 104.288 102.288 107.986 101.05 113.589C101.705 114.846 101.909 114.971 102.943 115.981C102.954 117.801 102.394 118.475 100.929 119.571C101.388 121.207 102.375 121.893 103.612 123.034L106.878 126.158L103.704 129.363L103.553 129.738C102.635 130.562 101.65 131.332 100.689 132.107C98.9121 131.708 92.9174 125.2 91.3477 123.545C91.0616 121.949 91.9325 122.131 93.3829 120.05C92.9985 118.428 92.6809 118.157 91.5119 117.054L91.1771 116.743C91.3969 115.253 92.4218 114.626 93.6233 113.317Z" fill="#48565E"/>
<path d="M112.676 94.0749L113.238 93.7777C115.042 95.5493 115.293 95.2224 115.663 97.2715C112.912 104.288 102.288 107.986 101.05 113.589C101.705 114.846 101.909 114.971 102.943 115.981C102.954 117.801 102.394 118.475 100.929 119.571C101.388 121.207 102.375 121.893 103.612 123.034C102.667 124.27 102.39 124.922 100.909 125.3C98.8473 124.651 96.2351 121.605 94.03 119.826C95.1803 118.69 95.6029 118.209 96.5527 116.902C96.2747 115.063 95.4456 114.764 93.9365 113.167C98.7573 108.099 108.965 98.7496 112.676 94.0749Z" fill="#E6DBCE"/>
<path d="M103.704 129.363C101.324 127.483 95.9867 122.156 94.03 119.826C96.2351 121.605 98.8473 124.651 100.909 125.3C102.39 124.922 102.667 124.27 103.612 123.034L106.878 126.158L103.704 129.363Z" fill="#B6C3C7"/>
<path d="M22.0967 54.4939C20.8572 53.0779 20.0542 52.6634 19.805 51.0565C25.1672 44.8982 41.723 28.339 47.8624 22.9813C50.3603 22.8927 50.6308 25.7695 52.1104 24.8309C54.186 23.5149 56.2097 19.8976 58.5302 19.2746C59.5556 20.276 59.9125 20.6401 61.0904 21.4367C62.5527 21.3091 63.1958 20.5076 64.3471 19.5298L65.4797 19.5136C66.4581 20.7113 66.3935 20.852 66.4922 22.4705C65.8847 23.9914 65.2044 24.5354 64.0858 25.7205L61.2299 28.6054L58.1071 25.4861C56.1601 27.2953 54.003 30.5134 51.7956 31.1582C49.753 30.7973 49.9544 30.4057 48.1717 28.6402C42.7013 35.0536 35.5465 41.3121 29.682 47.4359C28.3461 48.8312 23.5761 53.3779 22.7299 54.6795C20.114 57.3884 14.9982 61.9651 13.1783 64.6095C13.3982 67.4722 17.5613 66.5209 12.6169 70.8076C11.4692 69.7159 11.0617 69.3924 10.2682 68.0345C10.4736 64.4385 18.7412 58.1274 22.0967 54.4939Z" fill="#E6DBCE"/>
<path d="M22.0967 54.4939C25.2637 51.1857 45.5045 30.4444 48.1717 28.6402C42.7013 35.0536 35.5465 41.3121 29.682 47.4359C28.3461 48.8312 23.5761 53.3779 22.7299 54.6795C20.114 57.3884 14.9982 61.9651 13.1783 64.6095C13.3982 67.4722 17.5613 66.5209 12.6169 70.8076C11.4692 69.7159 11.0617 69.3924 10.2682 68.0345C10.4736 64.4385 18.7412 58.1274 22.0967 54.4939Z" fill="#B6C3C7"/>
<path d="M58.1071 25.4861C59.9142 23.8943 59.6324 23.6053 61.5921 23.4349C62.615 24.2819 63.1755 24.7581 64.0858 25.7205L61.2299 28.6054L58.1071 25.4861Z" fill="#B6C3C7"/>
<path d="M5.99787 51.1382C4.85324 50.0906 4.6035 49.8586 3.76591 48.5607C3.8096 44.7492 9.01252 42.8865 11.8585 38.991C12.1815 37.1516 11.4022 37.7251 10.0345 35.2655C10.6885 33.4406 35.0311 9.53381 38.2173 6.69781C39.927 6.95403 40.2963 7.77127 41.7974 9.1263L41.861 9.47106C38.923 11.3087 15.345 35.1328 12.5449 38.511C14.4216 40.4973 14.6115 40.0402 14.7985 42.2249C13.8776 44.436 11.0743 46.1886 9.25435 48.1688L6.29658 51.2542L5.99787 51.1382Z" fill="#485A66"/>
<path d="M126.53 100.253C125.32 99.0145 124.811 98.5208 123.843 97.0215C124.182 95.2331 124.781 95.1323 126.235 93.6207L132.707 87.3112L133.115 87.4829C134.938 89.2579 135.065 88.8224 135.474 90.9111C132.249 97.9409 126.956 92.8287 132.294 100.425C133.566 102.228 116.423 112.819 117.616 117.817L119.529 119.789L116.708 123.096L116.458 123.219C115.789 122.27 114.332 120.806 113.487 119.902C112.19 118.598 111.864 118.242 110.825 116.703C111.26 114.835 124.36 102.394 126.53 100.253Z" fill="#485A66"/>
<path d="M126.53 100.253C125.32 99.0145 124.811 98.5208 123.843 97.0215C124.182 95.2331 124.781 95.1323 126.235 93.6207C127.885 95.3141 128.475 95.3716 128.965 97.3428C128.158 98.8015 127.706 99.1251 126.53 100.253Z" fill="#7C8A92"/>
<path d="M106.813 9.23877C108.173 8.04399 108.832 7.06137 110.403 6.71558C115.175 11.0184 128.267 23.7994 132.293 28.6191C131.738 30.2299 130.741 31.0124 129.532 32.2438C122.25 24.2938 114.673 16.6189 106.813 9.23877Z" fill="#485A66"/>
<path d="M80.6768 2.69299C82.1453 1.40894 82.788 0.348687 84.402 0.212951C85.6508 1.41474 86.0299 1.8466 87.8051 2.17595C88.7037 1.36369 89.4056 0.742563 90.3663 0C94.8946 1.11869 94.9896 8.34928 100.155 4.0248C103.011 4.40074 104.758 6.98943 106.813 9.23877L103.492 12.541C101.7 10.774 99.58 7.60742 97.2303 6.87145C96.4009 6.61288 95.5175 7.40995 94.5728 7.96346L94.1078 8.54761C91.7821 8.11677 91.4365 5.18777 87.9255 3.7325C85.8625 3.82242 86.1189 4.2458 84.1842 6.10525C82.7499 4.61944 82.257 4.2182 80.5847 3.02654L80.6768 2.69299Z" fill="#485A66"/>
<path d="M116.553 70.9777L116.87 71.2029L119.777 74.3348L114.968 79.0607L113.554 80.7788C114.521 81.8589 115.611 83.1682 116.684 84.111C114.673 86.0157 111.664 88.2608 110.952 90.6353C111.463 92.4456 111.725 92.2507 113.238 93.7777L112.676 94.0749C111.578 93.1449 110.796 92.0526 109.901 90.9227C104.275 83.8516 111.024 86.725 112.624 80.6024C112.868 79.6607 111.649 78.5271 111.004 77.4645C111.334 75.78 112.859 74.7733 114.191 73.6261L116.553 70.9777Z" fill="#485A66"/>
<path d="M116.553 70.9777L116.87 71.2029L119.777 74.3348L114.968 79.0607L116.453 76.6152C116.186 75.0795 115.534 74.9223 114.191 73.6261L116.553 70.9777Z" fill="#5D6A71"/>
<path d="M135.656 71.4328L135.934 71.0036L136.41 71.1147C138.108 72.879 138.594 72.7719 138.872 74.7447C137.981 75.8762 137.457 76.485 136.433 77.4984C137.98 79.6592 138.356 79.4188 138.327 81.5785C137.072 83.9421 134.698 84.4437 133.115 87.4829L132.707 87.3112L129.731 83.9889C130.076 81.8326 131.658 82.9195 131.941 79.7825C131.302 78.5282 131.151 78.2412 130.854 76.8732C131.571 74.9293 134.064 72.9286 135.656 71.4328Z" fill="#7C8A92"/>
<path d="M136.107 77.5987L136.433 77.4984C137.98 79.6592 138.356 79.4188 138.327 81.5785C137.072 83.9421 134.698 84.4437 133.115 87.4829L132.707 87.3112L129.731 83.9889C131.49 82.5005 134.403 79.3382 136.107 77.5987Z" fill="#48565E"/>
<path d="M135.656 71.4328L135.934 71.0036L136.41 71.1147C138.108 72.879 138.594 72.7719 138.872 74.7447C137.981 75.8762 137.457 76.485 136.433 77.4984L136.107 77.5987L133.866 75.2681C133.697 73.5727 134.462 73.1813 135.656 71.4328Z" fill="#5D6A71"/>
<path d="M106.568 54.9019L109.877 51.6106L110.216 51.729C112.296 53.7992 118.317 58.8177 118.828 61.5243C118.966 62.2549 117.401 63.8074 116.775 64.4739L116.451 64.7128L113.451 67.9552L111.995 66.2952C111.694 63.9201 112.156 65.4911 113.424 62.8133C112.487 60.7228 108.484 57.2188 106.568 54.9019Z" fill="#485A66"/>
<path d="M113.451 67.9552L111.995 66.2952C111.694 63.9201 112.156 65.4911 113.424 62.8133C112.487 60.7228 108.484 57.2188 106.568 54.9019C109.347 57.1757 114.179 61.9184 116.451 64.7128L113.451 67.9552Z" fill="#14212A"/>
<path d="M41.7974 9.1263C43.6083 7.24197 45.6306 4.69479 48.0486 3.97912C51.9903 4.45873 49.8864 6.57477 52.87 4.69911C55.1758 3.24831 55.6326 0.854868 58.0275 0.329007C59.6068 0.812187 59.865 1.38159 60.9143 2.67292L60.7856 2.99282C58.5219 5.21518 56.9239 6.84867 54.839 9.2801C53.6534 8.0122 53.1565 7.18149 51.491 6.87054C49.2329 7.53314 46.9442 10.5513 45.0876 12.4813L41.861 9.47106L41.7974 9.1263Z" fill="#485A66"/>
<path d="M126.349 35.3717L129.532 32.2438C133.406 35.8174 135.737 36.5275 134.319 42.026C134.74 44.4377 137.333 46.3434 139.216 48.1866C137.917 49.1003 137.067 50.0824 135.976 51.2197C133.918 49.0347 132.224 47.2738 129.989 45.232C131.231 44.0177 131.979 43.5719 132.199 41.8919C131.405 39.5558 128.373 37.2954 126.349 35.3717Z" fill="#485A66"/>
<path d="M5.99787 51.1382L6.29658 51.2542C8.12922 53.3774 8.32222 52.8815 8.31616 55.0762C6.63682 58.6917 3.14215 58.1601 4.0158 62.1553L5.97148 64.3011C5.01906 65.3232 3.91687 66.5743 2.92475 67.5241L2.48795 67.6274C1.3206 66.377 0.662965 65.8433 0.165788 64.168L1.65523 63.1548C3.51095 59.2672 0.899182 60.6617 0.288039 57.9843C1.34894 55.6752 4.34326 53.4948 5.99787 51.1382Z" fill="#48565E"/>
<path d="M103.492 12.541L106.813 9.23877C114.673 16.6189 122.25 24.2938 129.532 32.2438L126.349 35.3717C125.527 34.5965 124.771 33.7203 124.009 32.8832C123.942 29.8746 125.26 31.4345 125.503 29.1016C123.031 25.3479 114.878 17.3557 111.171 14.3671C109.972 13.4054 108.264 14.4046 106.856 14.9438C104.99 14.5839 105.112 14.1667 103.492 12.541Z" fill="#7C8A92"/>
<path d="M60.7856 2.99282L60.9143 2.67292C62.21 1.39854 62.9297 0.392441 64.6752 0.0765415C67.045 2.66409 68.2863 3.03005 70.887 0.10317C72.3758 0.435209 73.0973 1.52072 74.1846 2.69035L74.2872 3.02834L72.2333 5.01208C70.2499 5.37904 70.4112 4.95507 68.1683 3.71783C66.1354 3.78457 66.3686 4.23033 64.446 6.07154C62.9718 4.58377 62.5672 4.16444 60.7856 2.99282Z" fill="#485A66"/>
<path d="M2.48795 67.6274L2.92475 67.5241C7.71075 73.1961 2.75133 71.0155 3.79024 75.2935L5.94106 77.4099L2.90341 80.5873L2.56082 80.448C1.16681 79.1574 0.443421 78.7259 0.143167 77.0657C1.42095 76.1352 1.59422 76.1092 2.07769 74.6847C1.45839 72.1852 1.87114 73.0444 0 71.2057C0.120128 69.7838 1.42636 68.7571 2.48795 67.6274Z" fill="#485A66"/>
<path d="M6.29658 51.2542L9.25435 48.1688C10.9913 49.9304 11.3648 49.7175 11.6968 51.7216C10.3746 55.8922 4.00336 56.6555 8.29399 60.882C8.09449 62.7968 7.70304 62.5768 5.97148 64.3011L4.0158 62.1553C3.14215 58.1601 6.63682 58.6917 8.31616 55.0762C8.32222 52.8815 8.12922 53.3774 6.29658 51.2542Z" fill="#7C8A92"/>
<path d="M113.238 93.7777C111.725 92.2507 111.463 92.4456 110.952 90.6353C111.664 88.2608 114.673 86.0157 116.684 84.111C118.492 85.8632 118.655 85.4484 118.987 87.4749C118.22 89.7109 115.061 91.9889 113.238 93.7777Z" fill="#B6C3C7"/>
<path d="M114.968 79.0607L119.777 74.3348C120.751 75.3532 121.982 76.1191 121.972 77.5537C121.959 79.8887 119.013 82.5846 116.98 83.4035L113.554 80.7788L114.968 79.0607Z" fill="#B6C3C7"/>
<path d="M113.554 80.7788C115.676 78.9314 115.124 78.859 117.535 78.4861L118.542 78.975C119.162 81.4417 118.628 81.554 116.98 83.4035L113.554 80.7788Z" fill="#E6DBCE"/>
<path d="M120.173 61.0819C118.323 59.1661 115.131 57.1021 114.346 54.9045C114.598 52.9144 114.903 53.2116 116.666 51.4459C118.481 53.2898 121.455 55.3024 122.285 57.5149C122.176 59.5036 121.851 59.2168 120.173 61.0819Z" fill="#E6DBCE"/>
<path d="M12.5449 38.511C15.345 35.1328 38.923 11.3087 41.861 9.47106L45.0876 12.4813C44.3458 13.1994 43.4978 13.9405 42.7259 14.6437C40.2602 14.6506 39.4716 12.8978 38.9095 13.3015C32.2538 18.0749 18.3109 33.6619 12.5449 38.511Z" fill="#7C8A92"/>
<path d="M54.839 9.2801C56.9239 6.84867 58.5219 5.21518 60.7856 2.99282C62.5672 4.16444 62.9718 4.58377 64.446 6.07154C59.0153 12.2739 61.505 4.12927 54.839 9.2801Z" fill="#7C8A92"/>
<path d="M135.965 64.7272C134.864 63.5294 134.392 63.0427 133.523 61.6351C133.936 59.692 134.487 59.6873 136.121 58.0059C137.838 59.7294 138.189 59.5024 138.551 61.4818C136.907 65.2506 136.484 64.6536 139.191 67.889C138.095 67.015 136.953 65.7529 135.965 64.7272Z" fill="#48565E"/>
<path d="M135.976 51.2197C137.067 50.0824 137.917 49.1003 139.216 48.1866C138.541 49.0623 136.941 50.6406 137.259 51.5514C138.646 55.5134 139.729 54.7637 136.121 58.0059L132.839 54.6902C134.074 53.6208 134.95 52.4743 135.976 51.2197Z" fill="#48565E"/>
<path d="M84.1842 6.10525C86.1189 4.2458 85.8625 3.82242 87.9255 3.7325C91.4365 5.18777 91.7821 8.11677 94.1078 8.54761L94.5728 7.96346L93.9359 9.10538C91.8497 8.90614 92.7604 7.74883 90.0344 6.33295C88.1813 6.74649 88.7345 6.61517 87.2897 8.32571C85.527 7.91763 85.5997 7.53436 84.1842 6.10525Z" fill="#7C8A92"/>
<path d="M116.451 64.7128L116.775 64.4739L117.083 64.7207L119.953 67.7547L117.118 70.9343L116.87 71.2029L116.553 70.9777L113.451 67.9552L116.451 64.7128Z" fill="#5D6A71"/>
<path d="M132.839 54.6902C131.723 53.659 130.959 53.1848 130.626 51.7349L132.174 50.0359C132.381 47.1959 132.104 48.6439 130.158 45.5071L129.989 45.232C132.224 47.2738 133.918 49.0347 135.976 51.2197C134.95 52.4743 134.074 53.6208 132.839 54.6902Z" fill="#7C8A92"/>
<path d="M74.1846 2.69035C75.9241 1.27424 76.3139 0.424831 78.1979 0.308066C79.135 1.1454 79.8312 1.74963 80.6768 2.69299L80.5847 3.02654C79.498 4.20568 79.1754 4.58258 77.8477 5.46773C75.909 5.08911 75.984 4.63204 74.2872 3.02834L74.1846 2.69035Z" fill="#485A66"/>
<path d="M61.2299 28.6054L64.0858 25.7205L64.3926 25.8903C66.1914 27.4667 65.8951 27.7558 67.7896 27.832L70.2115 26.2539C68.7419 27.8864 66.8889 30.3063 64.9421 31.0823C62.7784 30.722 63.1182 30.4535 61.2299 28.6054Z" fill="#48565E"/>
<path d="M90.6376 25.6448C92.2634 24.0315 92.2135 23.5562 94.1276 23.0895C95.524 23.8764 95.9587 24.5157 96.9782 25.7013C95.8908 26.8949 95.5085 27.2577 94.2197 28.2274C92.32 27.9409 92.3219 27.3348 90.6376 25.6448Z" fill="#B6C3C7"/>
<path d="M113.618 126.161C112.445 125.068 111.8 124.552 110.934 123.155C111.246 121.44 111.948 121.32 113.487 119.902C114.332 120.806 115.789 122.27 116.458 123.219L113.618 126.161Z" fill="#5D6A71"/>
<path d="M71.2154 25.1515C69.3588 23.335 69.3139 23.8222 68.7387 21.6291L69.1995 20.3492C70.9871 19.5585 70.1973 19.6587 72.1973 20.0378L74.3995 22.131L71.2154 25.1515Z" fill="#E6DBCE"/>
<path d="M64.3926 25.8903C65.9928 24.1906 66.0021 23.6299 67.9381 23.0559C69.4183 23.8201 69.7795 24.3025 70.933 25.4623L70.2115 26.2539L67.7896 27.832C65.8951 27.7558 66.1914 27.4667 64.3926 25.8903Z" fill="#485A66"/>
<path d="M135.934 71.0036L133.706 68.3305C133.783 66.4695 134.41 66.4266 135.965 64.7272C136.953 65.7529 138.095 67.015 139.191 67.889C138.441 68.6901 136.886 70.2297 136.41 71.1147L135.934 71.0036Z" fill="#485A66"/>
<path d="M117.083 64.7207C118.738 62.9697 118.281 62.9384 120.332 62.3886C121.84 62.9143 121.338 62.4967 122.138 64.0552C121.925 66.2142 121.725 65.7939 119.953 67.7547L117.083 64.7207Z" fill="#E6DBCE"/>
<path d="M117.118 70.9343L119.953 67.7547C121.943 69.6745 122.472 69.8228 121.822 72.5471L120.774 73.1568C118.575 72.8832 119.072 72.7643 117.118 70.9343Z" fill="#E6DBCE"/>
<path d="M116.708 123.096L119.529 119.789C120.388 120.563 122.606 122.673 123.498 123.169C124.79 121.943 125.437 120.88 126.94 120.596C138.228 130.382 154.439 147.675 165.604 158.806L162.607 161.792L162.051 161.997L159.248 165.49C160.411 166.804 160.846 167.261 162.211 168.388L155.512 175.278C154.17 176.846 153.928 176.989 152.156 177.983L152.274 178.352C151.329 179.35 150.802 179.777 149.717 180.625C147.956 180.426 147.896 179.868 146.342 178.458C141.43 173.514 109.02 142.144 107.622 138.867L109.134 136.3C109.005 134.489 108.484 134.514 106.993 132.886L110.236 129.535L110.138 129.129C111.602 128.024 112.326 127.488 113.618 126.161L116.458 123.219L116.708 123.096Z" fill="#B07D4E"/>
<path d="M116.708 123.096L119.529 119.789C120.388 120.563 122.606 122.673 123.498 123.169C124.79 121.943 125.437 120.88 126.94 120.596C138.228 130.382 154.439 147.675 165.604 158.806L162.607 161.792L162.051 161.997L159.248 165.49C157.734 163.536 151.159 157.471 149.044 155.434C146.857 152.862 142.162 148.613 139.508 145.939L142.773 142.947C136.381 136.432 129.912 129.993 123.363 123.634L122.807 123.823L120.236 125.291C118.315 125.15 118.494 124.736 116.708 123.096Z" fill="#593720"/>
<path d="M139.508 145.939L142.773 142.947L162.051 161.997L159.248 165.49C157.734 163.536 151.159 157.471 149.044 155.434C146.857 152.862 142.162 148.613 139.508 145.939Z" fill="#A6784C"/>
<path d="M106.993 132.886L110.236 129.535C111.069 130.825 111.68 131.817 112.67 133.011L110.199 136.089L113.416 133.309C117.772 138.012 110.409 136.082 116.211 141.426L133.429 158.611C135.772 160.95 140.473 165.902 142.917 167.834L144.696 169.863C146.326 171.557 147.977 173.32 149.642 174.971C150.839 174.134 151.385 173.74 152.71 173.133C154.168 173.764 154.365 174.108 155.512 175.278C154.17 176.846 153.928 176.989 152.156 177.983L152.274 178.352C151.329 179.35 150.802 179.777 149.717 180.625C147.956 180.426 147.896 179.868 146.342 178.458C141.43 173.514 109.02 142.144 107.622 138.867L109.134 136.3C109.005 134.489 108.484 134.514 106.993 132.886Z" fill="#593720"/>
<path d="M110.199 136.089L113.416 133.309C117.772 138.012 110.409 136.082 116.211 141.426L133.429 158.611C135.772 160.95 140.473 165.902 142.917 167.834L144.696 169.863L144.451 170.313C132.985 159.131 121.538 147.438 110.199 136.089Z" fill="#A6784C"/>
<path d="M144.451 170.313L144.696 169.863C146.326 171.557 147.977 173.32 149.642 174.971C150.839 174.134 151.385 173.74 152.71 173.133C154.168 173.764 154.365 174.108 155.512 175.278C154.17 176.846 153.928 176.989 152.156 177.983L149.442 175.3C147.449 173.642 146.19 172.218 144.451 170.313Z" fill="#71472D"/>
<path d="M146.342 178.458C147.128 177.634 148.628 175.961 149.442 175.3L152.156 177.983L152.274 178.352C151.329 179.35 150.802 179.777 149.717 180.625C147.956 180.426 147.896 179.868 146.342 178.458Z" fill="#432616"/>
<path d="M110.138 129.129C111.602 128.024 112.326 127.488 113.618 126.161L116.458 123.219L116.708 123.096C118.494 124.736 118.315 125.15 120.236 125.291L122.807 123.823L123.363 123.634C129.912 129.993 136.381 136.432 142.773 142.947L139.508 145.939C136.839 143.128 133.732 139.751 130.824 137.166C128.502 135.105 127.914 138.333 126.034 138.685C120.999 135.902 120.727 133.686 122.071 128.575C121.375 127.286 121.788 127.714 120.249 127.081C118.202 128.153 115.158 131.539 113.416 133.309L110.199 136.089L112.67 133.011C111.68 131.817 111.069 130.825 110.236 129.535L110.138 129.129Z" fill="#895D36"/>
<path d="M110.138 129.129C111.602 128.024 112.326 127.488 113.618 126.161L116.458 123.219L116.708 123.096C118.494 124.736 118.315 125.15 120.236 125.291L122.807 123.823C121.835 124.988 114.347 131.502 112.67 133.011C111.68 131.817 111.069 130.825 110.236 129.535L110.138 129.129Z" fill="#71472D"/>
<path d="M116.211 141.426C117.91 139.994 117.82 139.622 119.727 139.259C124.89 143.747 130.405 149.886 135.396 154.722C137.29 156.557 144.168 163.151 145.409 164.935C144.959 166.726 144.723 166.414 142.917 167.834C140.473 165.902 135.772 160.95 133.429 158.611L116.211 141.426Z" fill="#C8955D"/>
<path d="M149.044 155.434C151.159 157.471 157.734 163.536 159.248 165.49C160.411 166.804 160.846 167.261 162.211 168.388L155.512 175.278C154.365 174.108 154.168 173.764 152.71 173.133C151.385 173.74 150.839 174.134 149.642 174.971C153.981 170.05 150.74 172.64 149.716 168.452C150.427 167.103 150.832 166.75 151.859 165.649C151.656 161.356 147.767 162.436 146.65 159.295C147.064 157.013 147.239 157.43 149.044 155.434Z" fill="#895D36"/>
<path d="M2.56082 80.448L2.90341 80.5873L5.94106 77.4099L8.99938 80.556L9.3237 80.4019L12.1029 83.8505C11.8469 85.9513 7.12925 87.2508 12.5978 89.8946C13.9263 89.0057 14.4495 88.3208 15.484 87.1503L15.651 87.593L16.1626 87.6974C17.5929 89.0235 18.0255 88.9731 18.3871 90.6368C17.6537 91.7129 16.8918 92.7696 16.1035 93.8061C17.3012 94.9043 18.1843 95.427 18.4371 96.9753C17.7697 99.2935 14.723 101.591 12.7555 103.464C10.1661 100.752 4.91066 97.0751 3.88244 93.75C3.55628 92.6962 5.05832 91.4228 5.91934 90.4058C1.2985 85.8639 -1.61677 86.0736 2.56082 80.448Z" fill="#B6C3C7"/>
<path d="M5.91934 90.4058L6.23703 90.2976C7.90942 92.4955 9.72996 95.3293 12.3021 96.0792C14.3993 95.6435 13.9863 95.4985 15.7612 93.6982L16.1035 93.8061C17.3012 94.9043 18.1843 95.427 18.4371 96.9753C17.7697 99.2935 14.723 101.591 12.7555 103.464C10.1661 100.752 4.91066 97.0751 3.88244 93.75C3.55628 92.6962 5.05832 91.4228 5.91934 90.4058Z" fill="#485A66"/>
<path d="M2.56082 80.448L2.90341 80.5873L5.94106 77.4099L8.99938 80.556L5.91042 83.7605C7.599 85.4927 8.28277 85.5853 8.62643 87.5502C7.71503 88.7874 7.34517 89.2349 6.23703 90.2976L5.91934 90.4058C1.2985 85.8639 -1.61677 86.0736 2.56082 80.448Z" fill="#48565E"/>
<path d="M2.90341 80.5873L5.94106 77.4099L8.99938 80.556L5.91042 83.7605L2.90341 80.5873Z" fill="#7C8A92"/>
<path d="M15.7612 93.6982L13.5545 91.1709C13.5579 89.2516 13.9791 89.4611 15.651 87.593L16.1626 87.6974C17.5929 89.0235 18.0255 88.9731 18.3871 90.6368C17.6537 91.7129 16.8918 92.7696 16.1035 93.8061L15.7612 93.6982Z" fill="#48565E"/>
<path d="M159.248 165.49L162.051 161.997L162.607 161.792L165.604 158.806C167.252 160.542 167.606 160.341 167.936 162.312C167.05 163.502 166.464 164.201 165.456 165.284L168 168.296C167.846 169.944 157.498 180.142 155.778 181C154.079 180.168 153.605 179.62 152.274 178.352L152.156 177.983C153.928 176.989 154.17 176.846 155.512 175.278L162.211 168.388C160.846 167.261 160.411 166.804 159.248 165.49Z" fill="#593720"/>
<path d="M162.607 161.792L165.604 158.806C167.252 160.542 167.606 160.341 167.936 162.312C167.05 163.502 166.464 164.201 165.456 165.284C164.419 164.119 163.56 163.018 162.607 161.792Z" fill="#382114"/>
<path d="M159.248 165.49L162.051 161.997C163.496 163.73 164.319 164.043 164.383 165.899C163.694 166.716 162.957 167.628 162.211 168.388C160.846 167.261 160.411 166.804 159.248 165.49Z" fill="#71472D"/>
<path d="M103.553 129.738L103.704 129.363L106.878 126.158L110.138 129.129L110.236 129.535L106.993 132.886C105.694 131.515 105.017 130.919 103.553 129.738Z" fill="#33424E"/>
</svg>
