<svg width="167" height="176" viewBox="0 0 167 176" fill="none" xmlns="http://www.w3.org/2000/svg">
<path d="M10.4046 0.166188L104.993 0.186202C109.852 0.182566 136.393 -0.430191 139.88 0.5874C140.384 2.64622 140.329 3.1341 140.244 5.19292L140.208 9.62084L140.214 10.513C140.165 11.8833 140.019 14.0494 140.062 15.3464L141.264 15.3228L145.006 15.6137C145.115 14.2009 145.024 12.0639 145.012 10.5906C144.787 8.72692 145.054 7.05838 145.243 5.18926L145.722 10.2197L150.484 10.2857C152.877 10.4276 153.411 10.0318 154.997 11.3063C155.07 12.4845 155.142 13.4039 155.3 14.5736C157.59 16.2864 158.829 14.4864 160.602 15.9537C160.615 17.8053 160.548 18.5319 161.034 20.3592C163.894 21.3083 164.483 20.0701 165.911 21.521C166.84 29.0945 166.239 52.0124 166.214 61.1368L166.154 139.816C166.154 145.977 165.747 165.232 166.421 170.689C158.616 169.852 162.516 172.749 159.776 175.64C150.672 176.24 138.744 175.907 129.482 175.913L76.041 175.919L40.3409 175.968C34.8504 175.974 29.0077 176.065 23.5111 175.84C20.3954 175.707 22.2418 174.034 19.7152 170.78L18.0511 171.337C13.8483 169.749 16.9153 168.295 14.8139 165.14C13.6478 164.992 12.4756 164.882 11.3034 164.81C10.198 162.759 10.5684 163.017 10.6535 160.396C10.7324 158.619 10.6899 158.066 10.4227 156.305C8.74032 155.076 8.10877 155.494 5.66115 155.433C5.46072 154.133 5.33311 151.666 5.21771 150.268C4.30061 150.236 0.680847 150.23 0.559376 149.114C-0.278768 141.454 0.0734523 132.955 0.0734523 125.15L0.0795992 42.145C0.0795992 37.9643 -0.236254 13.6136 0.407539 10.9827C1.82874 10.0633 3.4807 10.3791 5.27239 10.4457C5.24809 8.54569 4.93223 6.78083 6.32307 5.53354C7.34342 5.44626 8.24241 5.28444 9.24454 5.12505C10.4532 3.59896 10.1738 2.40804 10.4046 0.166188Z" fill="#373F4B"/>
<path d="M5.32102 139.867L10.6778 140.02L10.6961 144.853C9.38418 144.616 7.34951 144.549 5.95868 144.456L5.32706 144.254L5.32102 139.867Z" fill="#2F3644"/>
<path d="M145.243 5.18926L145.722 10.2197L150.484 10.2857C152.877 10.4276 153.411 10.0318 154.997 11.3063C155.07 12.4845 155.142 13.4039 155.3 14.5736C157.59 16.2864 158.829 14.4864 160.602 15.9537C160.615 17.8053 160.548 18.5319 161.034 20.3592C163.894 21.3083 164.483 20.0701 165.911 21.521C166.84 29.0945 166.239 52.0124 166.214 61.1368L166.154 139.816C166.154 145.977 165.747 165.232 166.421 170.689C158.616 169.852 162.516 172.749 159.776 175.64C150.672 176.24 138.744 175.907 129.482 175.913L76.041 175.919L40.3409 175.968C34.8504 175.974 29.0077 176.065 23.5111 175.84C20.3954 175.707 22.2418 174.034 19.7152 170.78L18.0511 171.337C13.8483 169.749 16.9153 168.295 14.8139 165.14C13.6478 164.992 12.4756 164.882 11.3034 164.81C10.198 162.759 10.5684 163.017 10.6535 160.396C10.7324 158.619 10.6899 158.066 10.4227 156.305C8.74032 155.076 8.10877 155.494 5.66115 155.433C5.46072 154.133 5.33311 151.666 5.21771 150.268L5.32706 144.254L5.95868 144.456C7.34951 144.549 9.38418 144.616 10.6961 144.853C12.5485 145.193 12.8948 145.288 14.7351 144.962C15.9437 143.271 15.5853 142.323 15.7311 139.945C16.0712 142.533 15.6582 142.765 17.1037 144.373C18.458 144.546 19.855 144.706 21.2033 144.904C25.1025 145.423 37.9783 145.64 41.3005 143.646C42.3087 141.966 42.1994 142.714 41.7378 140.862C40.262 139.288 39.9948 139.788 37.1584 139.551C35.9255 138.18 36.2959 136.903 36.1623 134.646L36.3749 134.248L36.3688 129.337C37.8508 129.359 40.3469 129.242 41.6163 129.767L41.7561 129.381L46.5359 129.305L46.6331 128.862C48.9349 129.404 49.4633 129.406 51.7773 129.414C51.5708 131.234 51.3461 132.723 51.413 134.568L52.0263 134.709L51.9049 139.14L51.7287 139.514C51.8441 142.674 51.2915 142.674 52.9556 144.49C57.6565 146.11 62.2967 144.778 67.7689 144.887L67.6474 138.643C70.089 138.598 70.4048 138.163 72.0932 139.348L72.5912 142.069L73.1196 140.133C75.2028 139.413 76.0471 139.663 78.1789 139.96L78.1729 144.592L78.6647 144.591C80.3714 144.832 81.2946 145.031 83.0499 144.897C88.1577 144.966 93.7818 146.195 98.1243 144.343C99.3269 142.384 98.8775 142.415 98.7439 139.665C98.6345 138.239 98.7681 136.134 98.8166 134.651L98.7621 134.259L103.341 133.963C104.896 133.987 107.696 133.957 109.123 134.143C111 134.473 111.771 134.803 113.508 134.063C114.486 132.584 114.085 131.124 113.921 129.257L114.043 128.866C116.418 129.302 117.025 129.349 119.442 129.271L119.199 133.787C116.788 135.654 116.782 133.459 114.104 135.171C114.219 136.586 114.256 137.356 114.177 138.771C110.909 141.301 110.745 138.691 108.935 141.017C108.966 142.628 108.838 143.345 109.615 144.729C111.359 145.088 127.696 145.093 129.688 144.826C131.346 144.541 133.448 144.591 135.161 144.565C136.545 145.403 137.803 145.588 139.303 145.022C140.615 142.819 140.177 143.126 140.123 140.161C139.114 108.084 140.797 75.1345 140.129 42.9565C139.947 34.197 140.129 25.2817 139.983 16.5295C139.971 15.8131 140.663 15.6755 141.264 15.3228L145.006 15.6137C145.115 14.2009 145.024 12.0639 145.012 10.5906C144.787 8.72692 145.054 7.05838 145.243 5.18926Z" fill="#5E616B"/>
<path d="M145.243 5.18926L145.722 10.2197L150.484 10.2857L150.454 17.7931C148.893 18.224 147.204 18.804 145.619 18.8367C146.069 41.4952 145.662 65.3071 145.637 88.1008C145.613 108.331 146.075 130.099 145.558 150.151L145.066 155.339C142.285 155.422 142.339 154.942 140.7 156.39L139.855 159.73C137.79 160.74 21.2943 160.379 10.6535 160.396C10.7324 158.619 10.6899 158.066 10.4227 156.305C8.74032 155.076 8.10877 155.494 5.66115 155.433C5.46072 154.133 5.33311 151.666 5.21771 150.268L5.32706 144.254L5.95868 144.456C7.34951 144.549 9.38418 144.616 10.6961 144.853C12.5485 145.193 12.8948 145.288 14.7351 144.962C15.9437 143.271 15.5853 142.323 15.7311 139.945C16.0712 142.533 15.6582 142.765 17.1037 144.373C18.458 144.546 19.855 144.706 21.2033 144.904C25.1025 145.423 37.9783 145.64 41.3005 143.646C42.3087 141.966 42.1994 142.714 41.7378 140.862C40.262 139.288 39.9948 139.788 37.1584 139.551C35.9255 138.18 36.2959 136.903 36.1623 134.646L36.3749 134.248L36.3688 129.337C37.8508 129.359 40.3469 129.242 41.6163 129.767L41.7561 129.381L46.5359 129.305L46.6331 128.862C48.9349 129.404 49.4633 129.406 51.7773 129.414C51.5708 131.234 51.3461 132.723 51.413 134.568L52.0263 134.709L51.9049 139.14L51.7287 139.514C51.8441 142.674 51.2915 142.674 52.9556 144.49C57.6565 146.11 62.2967 144.778 67.7689 144.887L67.6474 138.643C70.089 138.598 70.4048 138.163 72.0932 139.348L72.5912 142.069L73.1196 140.133C75.2028 139.413 76.0471 139.663 78.1789 139.96L78.1729 144.592L78.6647 144.591C80.3714 144.832 81.2946 145.031 83.0499 144.897C88.1577 144.966 93.7818 146.195 98.1243 144.343C99.3269 142.384 98.8775 142.415 98.7439 139.665C98.6345 138.239 98.7681 136.134 98.8166 134.651L98.7621 134.259L103.341 133.963C104.896 133.987 107.696 133.957 109.123 134.143C111 134.473 111.771 134.803 113.508 134.063C114.486 132.584 114.085 131.124 113.921 129.257L114.043 128.866C116.418 129.302 117.025 129.349 119.442 129.271L119.199 133.787C116.788 135.654 116.782 133.459 114.104 135.171C114.219 136.586 114.256 137.356 114.177 138.771C110.909 141.301 110.745 138.691 108.935 141.017C108.966 142.628 108.838 143.345 109.615 144.729C111.359 145.088 127.696 145.093 129.688 144.826C131.346 144.541 133.448 144.591 135.161 144.565C136.545 145.403 137.803 145.588 139.303 145.022C140.615 142.819 140.177 143.126 140.123 140.161C139.114 108.084 140.797 75.1345 140.129 42.9565C139.947 34.197 140.129 25.2817 139.983 16.5295C139.971 15.8131 140.663 15.6755 141.264 15.3228L145.006 15.6137C145.115 14.2009 145.024 12.0639 145.012 10.5906C144.787 8.72692 145.054 7.05838 145.243 5.18926Z" fill="#222733"/>
<path d="M5.32706 144.254L5.95868 144.456C7.73214 145.137 8.38212 145.184 10.2285 145.429C10.7447 147.006 10.7022 147.262 10.7387 148.949C10.9937 149.185 11.2488 149.421 11.4978 149.656C53.8302 150.273 96.2415 149.631 138.586 149.995C139.102 149.999 139.77 149.909 140.068 149.878C142.412 149.827 143.014 149.38 144.581 150.53C144.836 152.262 144.951 153.614 145.066 155.339C142.285 155.422 142.339 154.942 140.7 156.39L139.855 159.73C137.79 160.74 21.2943 160.379 10.6535 160.396C10.7324 158.619 10.6899 158.066 10.4227 156.305C8.74032 155.076 8.10877 155.494 5.66115 155.433C5.46072 154.133 5.33311 151.666 5.21771 150.268L5.32706 144.254Z" fill="#030612"/>
<path d="M5.32706 144.254L5.95868 144.456C7.73214 145.137 8.38212 145.184 10.2285 145.429C10.7447 147.006 10.7022 147.262 10.7387 148.949C10.9937 149.185 11.2488 149.421 11.4978 149.656C53.8302 150.273 96.2415 149.631 138.586 149.995C139.102 149.999 139.77 149.909 140.068 149.878C139.977 151.538 140.196 154.1 139.291 155.01C104.441 155.653 69.3784 154.695 34.5103 154.966C27.1006 155.024 18.9197 154.816 11.5161 154.372C10.7387 153.012 10.7932 152.483 10.5989 150.89C9.26272 149.485 8.19991 149.46 6.39607 150.253C5.91019 152.242 5.83121 153.434 5.66115 155.433C5.46072 154.133 5.33311 151.666 5.21771 150.268L5.32706 144.254Z" fill="#0A0E1B"/>
<path d="M145.243 5.18926L145.722 10.2197L150.484 10.2857L150.454 17.7931C148.893 18.224 147.204 18.804 145.619 18.8367C146.069 41.4952 145.662 65.3071 145.637 88.1008C145.613 108.331 146.075 130.099 145.558 150.151L145.066 155.339C144.951 153.614 144.836 152.262 144.581 150.53C143.014 149.38 142.412 149.827 140.068 149.878C140.56 143.146 141.246 146.995 144.848 143.837C145.595 130.94 145.158 113.698 145.182 100.455L145.006 15.6137C145.115 14.2009 145.024 12.0639 145.012 10.5906C144.787 8.72692 145.054 7.05838 145.243 5.18926Z" fill="#141922"/>
<path d="M145.722 10.2197L150.484 10.2857L150.454 17.7931C148.893 18.224 147.204 18.804 145.619 18.8367L145.722 10.2197Z" fill="#02020A"/>
<path d="M98.8166 134.651C102.03 134.477 108.559 133.324 109.312 137.473C106.888 140.733 102.467 139.813 98.7439 139.665C98.6345 138.239 98.7681 136.134 98.8166 134.651Z" fill="#02020A"/>
<path d="M46.6331 128.862C48.9349 129.404 49.4633 129.406 51.7773 129.414C51.5708 131.234 51.3461 132.723 51.413 134.568L52.0263 134.709C48.5705 134.71 45.1146 134.686 41.6527 134.637L41.6163 129.767L41.7561 129.381L46.5359 129.305L46.6331 128.862Z" fill="#2F3644"/>
<path d="M46.6331 128.862C48.9349 129.404 49.4633 129.406 51.7773 129.414C51.5708 131.234 51.3461 132.723 51.413 134.568C50.1861 134.383 48.9532 134.173 47.7324 133.974C46.3841 132.457 46.7606 131.717 46.5359 129.305L46.6331 128.862Z" fill="#6A7582"/>
<path d="M41.6527 134.637C45.1146 134.686 48.5705 134.71 52.0263 134.709L51.9049 139.14L51.7287 139.514C49.0624 139.804 45.0783 140.608 42.8129 139.514C41.167 137.525 41.6953 137.839 41.6527 134.637Z" fill="#02020A"/>
<path d="M67.6474 138.643C70.089 138.598 70.4048 138.163 72.0932 139.348L72.5912 142.069L72.743 144.882L67.7689 144.887L67.6474 138.643Z" fill="#444853"/>
<path d="M36.3688 129.337C37.8508 129.359 40.3469 129.242 41.6163 129.767L41.6527 134.637C39.278 134.748 38.7253 134.821 36.3749 134.248L36.3688 129.337Z" fill="#030612"/>
<path d="M73.1196 140.133C75.2028 139.413 76.0471 139.663 78.1789 139.96L78.1729 144.592C77.031 144.927 74.0792 144.863 72.743 144.882L72.5912 142.069L73.1196 140.133Z" fill="#030612"/>
<path d="M150.454 17.7931L150.448 103.671C150.46 116.03 151.128 137.444 150.223 149.229C149.081 150.222 147.393 149.999 145.558 150.151C146.075 130.099 145.613 108.331 145.637 88.1008C145.662 65.3071 146.069 41.4952 145.619 18.8367C147.204 18.804 148.893 18.224 150.454 17.7931Z" fill="#02020A"/>
<path d="M5.21771 150.268C4.30061 150.236 0.680847 150.23 0.559376 149.114C-0.278768 141.454 0.0734523 132.955 0.0734523 125.15L0.0795992 42.145C0.0795992 37.9643 -0.236254 13.6136 0.407539 10.9827C1.82874 10.0633 3.4807 10.3791 5.27239 10.4457L5.35133 15.4543C6.65106 10.9306 10.7142 10.6706 14.5952 12.0657L15.4213 14.8652L15.7978 11.3773C17.5713 9.77482 51.1517 10.5621 57.0673 10.5645C57.1948 12.9852 56.7697 13.644 58.0877 15.124C59.1688 15.2688 60.2498 15.4252 61.337 15.5277L61.1609 15.8228L58.3853 16.0877C56.8548 18.0344 57.699 18.481 57.0613 21.092L57.3771 22.6744L57.1949 25.0611C55.5004 26.2593 54.9233 25.9242 52.5911 26.1187C51.674 27.4472 52.0263 39.005 52.0324 41.519C49.3297 41.5287 49.2325 41.0844 47.374 42.3499C45.2301 45.7651 49.3175 49.3978 45.2239 51.767L41.8168 51.7173L41.6649 52.2318L31.3703 51.7937C31.4188 55.1282 32.1295 65.346 30.2831 67.3339C29.0198 67.5066 28.2911 67.5478 27.0096 67.5811C25.6673 69.3975 26.1288 69.6976 26.0559 72.3988C28.8194 72.5606 29.3235 72.1152 31.1577 73.5C31.4918 75.2825 31.4979 75.9364 31.4918 77.7577L36.3869 77.6679L36.6481 82.7838C39.0411 82.9596 39.8185 82.5778 41.3491 83.8747C41.5191 84.9081 41.8045 87.0451 42.0839 87.9499L42.8067 88.0699L46.5966 88.0063L51.9959 88.0038L52.0931 93.047L52.1295 98.427C49.5422 98.4185 43.8938 98.2089 41.6223 98.801L41.1608 98.8143C41.0575 101.697 41.5555 101.646 40.0432 103.359L37.456 103.642C35.4456 106.41 36.3142 124.483 36.3688 129.337L36.3749 134.248L36.1623 134.646C36.2959 136.903 35.9255 138.18 37.1584 139.551C39.9948 139.788 40.262 139.288 41.7378 140.862C42.1994 142.714 42.3087 141.966 41.3005 143.646C37.9783 145.64 25.1025 145.423 21.2033 144.904C19.855 144.706 18.458 144.546 17.1037 144.373C15.6582 142.765 16.0712 142.533 15.7311 139.945C15.5853 142.323 15.9437 143.271 14.7351 144.962C12.8948 145.288 12.5485 145.193 10.6961 144.853L10.6778 140.02L5.32102 139.867L5.32706 144.254L5.21771 150.268Z" fill="#373F4B"/>
<path d="M5.21771 150.268C4.30061 150.236 0.680847 150.23 0.559376 149.114C-0.278768 141.454 0.0734523 132.955 0.0734523 125.15L0.0795992 42.145C0.0795992 37.9643 -0.236254 13.6136 0.407539 10.9827C1.82874 10.0633 3.4807 10.3791 5.27239 10.4457L5.35133 15.4543C5.32096 28.3199 4.92007 43.5317 5.33914 56.2089L5.80684 56.1828C5.78254 64.4865 5.27843 132.132 6.49313 134.095L9.85793 134.862L10.6293 135.03L10.6778 140.02L5.32102 139.867L5.32706 144.254L5.21771 150.268Z" fill="#02020A"/>
<path d="M5.80684 56.1828C5.78254 64.4865 5.27843 132.132 6.49313 134.095L9.85793 134.862L10.6293 135.03L10.6778 140.02L5.32102 139.867C5.06593 112.334 5.01117 83.7244 5.33914 56.2089L5.80684 56.1828Z" fill="#5F6A7A"/>
<path d="M31.3703 93.5767C30.1859 93.4864 28.6737 93.4997 27.4529 93.473C23.4808 95.993 28.6312 122.075 25.0357 128.559C23.2136 129.707 24.0579 129.498 21.8228 129.272C20.6567 127.71 20.6141 78.037 21.3369 72.9709C22.7216 72.0533 24.3007 72.3467 26.0559 72.3988C28.8194 72.5606 29.3235 72.1152 31.1577 73.5C31.4918 75.2825 31.4979 75.9364 31.4918 77.7577L36.3869 77.6679L36.6481 82.7838C39.0411 82.9596 39.8185 82.5778 41.3491 83.8747C41.5191 84.9081 41.8045 87.0451 42.0839 87.9499L42.8067 88.0699L46.5966 88.0063L51.9959 88.0038L52.0931 93.047L52.1295 98.427C49.5422 98.4185 43.8938 98.2089 41.6223 98.801L41.1608 98.8143L41.1183 98.5095L36.5511 98.5713C36.3628 96.5191 36.2169 95.5124 35.7736 93.5021C34.5224 93.6027 32.6761 93.5621 31.3703 93.5767Z" fill="#030612"/>
<path d="M46.5966 88.0063L51.9959 88.0038L52.0931 93.047L52.1295 98.427C49.5422 98.4185 43.8938 98.2089 41.6223 98.801L41.1608 98.8143L41.1183 98.5095L36.5511 98.5713C36.7758 96.9113 36.8486 94.487 36.9458 92.7494C38.5492 92.8045 39.6181 93.036 40.9543 92.2251C41.4766 90.5348 41.8532 89.5736 42.8067 88.0699L46.5966 88.0063Z" fill="#5F6A7A"/>
<path d="M46.5966 88.0063L51.9959 88.0038L52.0931 93.047C50.1374 93.0724 49.4938 93.0803 47.5138 92.7354C46.2505 90.8893 46.6817 90.6548 46.5966 88.0063Z" fill="#444853"/>
<path d="M36.9458 92.7494C39.4238 93.273 39.7153 92.9088 41.2215 94.4082C41.3369 96.1882 41.3491 96.7452 41.1183 98.5095L36.5511 98.5713C36.7758 96.9113 36.8486 94.487 36.9458 92.7494Z" fill="#8E9DA9"/>
<path d="M26.5723 82.671C28.0967 82.4389 29.9309 82.5383 31.4918 82.5589L36.2839 82.8474L36.6481 82.7838C39.0411 82.9596 39.8185 82.5778 41.3491 83.8747C41.5191 84.9081 41.8045 87.0451 42.0839 87.9499L42.8067 88.0699C41.8532 89.5736 41.4766 90.5348 40.9543 92.2251C39.6181 93.036 38.5492 92.8045 36.9458 92.7494C36.8486 94.487 36.7758 96.9113 36.5511 98.5713C36.3628 96.5191 36.2169 95.5124 35.7736 93.5021L35.4821 92.7051C34.3949 93.55 32.8462 93.4506 31.8806 92.4742C30.9088 91.4978 30.8237 89.9529 31.6801 88.8772L26.1714 87.9626C26.4022 86.5541 26.4812 84.1686 26.5723 82.671Z" fill="#5E616B"/>
<path d="M36.6481 82.7838C39.0411 82.9596 39.8185 82.5778 41.3491 83.8747C41.5191 84.9081 41.8045 87.0451 42.0839 87.9499C40.1707 88.1184 39.0959 88.3621 37.2496 87.8099C36.0591 86.042 36.4175 85.2553 36.2839 82.8474L36.6481 82.7838Z" fill="#444853"/>
<path d="M31.6801 88.8772C32.336 88.0584 33.3989 87.6875 34.4192 87.9233C35.4456 88.159 36.2352 88.959 36.466 89.9808C36.6907 91.0021 36.3081 92.0621 35.4821 92.7051C34.3949 93.55 32.8462 93.4506 31.8806 92.4742C30.9088 91.4978 30.8237 89.9529 31.6801 88.8772Z" fill="#828F9B"/>
<path d="M26.5723 82.671C29.4207 83.0456 29.2932 82.5923 31.2246 84.1462L31.6194 85.3929C29.8945 88.0584 29.2993 87.7038 26.1714 87.9626C26.4022 86.5541 26.4812 84.1686 26.5723 82.671Z" fill="#828F9B"/>
<path d="M26.0559 72.3988C28.8194 72.5606 29.3235 72.1152 31.1577 73.5C31.4918 75.2825 31.4979 75.9364 31.4918 77.7577L36.3869 77.6679L36.6481 82.7838L36.2839 82.8474L31.4918 82.5589C29.9309 82.5383 28.0967 82.4389 26.5723 82.671C26.4812 84.1686 26.4022 86.5541 26.1714 87.9626C25.7038 83.6147 25.9891 76.9498 26.0559 72.3988Z" fill="#545B69"/>
<path d="M31.4918 77.7577L36.3869 77.6679L36.6481 82.7838L36.2839 82.8474L31.4918 82.5589V77.7577Z" fill="#444853"/>
<path d="M56.545 20.8016L57.0613 21.092L57.3771 22.6744L57.1949 25.0611C55.5004 26.2593 54.9233 25.9242 52.5911 26.1187C51.674 27.4472 52.0263 39.005 52.0324 41.519C49.3297 41.5287 49.2325 41.0844 47.374 42.3499C45.2301 45.7651 49.3175 49.3978 45.2239 51.767L41.8168 51.7173L41.6649 52.2318L31.3703 51.7937L31.261 46.7705L31.3582 41.8892L31.5525 41.5559C33.3199 41.5613 34.0912 41.728 35.6157 40.8474C36.964 38.7376 36.3628 34.4939 36.2839 31.6636L36.8851 31.9587L36.8912 31.2072C38.0938 31.166 39.2902 31.1048 40.4927 31.023C43.08 28.9605 40.0676 29.766 42.0658 26.5023C43.7117 25.4956 44.2462 25.5332 46.1533 25.6738C47.1615 23.8592 46.7424 23.0798 46.6573 20.7253L56.545 20.8016Z" fill="#5F6A7A"/>
<path d="M31.261 46.7705C32.6033 46.802 35.1663 46.756 36.3324 47.1251L37.2738 47.0984C39.4178 46.9778 39.7821 46.5911 41.3855 47.5669C41.841 49.2669 41.7985 49.9924 41.8168 51.7173L41.6649 52.2318L31.3703 51.7937L31.261 46.7705Z" fill="#444853"/>
<path d="M37.2738 47.0984C39.4178 46.9778 39.7821 46.5911 41.3855 47.5669C41.841 49.2669 41.7985 49.9924 41.8168 51.7173C39.9279 51.7166 39.1081 51.7087 37.2071 51.4172C35.9984 49.7426 36.3992 49.51 36.3324 47.1251L37.2738 47.0984Z" fill="#828F9B"/>
<path d="M36.2839 31.6636L36.8851 31.9587C36.8547 36.7673 37.371 42.6601 37.2738 47.0984L36.3324 47.1251C35.1663 46.756 32.6033 46.802 31.261 46.7705L31.3582 41.8892L31.5525 41.5559C33.3199 41.5613 34.0912 41.728 35.6157 40.8474C36.964 38.7376 36.3628 34.4939 36.2839 31.6636Z" fill="#545B69"/>
<path d="M5.80684 56.1828L10.1434 56.6924L10.3803 109.87C10.3803 114.223 10.5382 131.193 9.85793 134.862L6.49313 134.095C5.27843 132.132 5.78254 64.4865 5.80684 56.1828Z" fill="#828F9B"/>
<path d="M5.35133 15.4543C6.65106 10.9306 10.7142 10.6706 14.5952 12.0657L15.4213 14.8652C17.055 16.0016 18.9621 15.741 21.0575 15.7707L21.021 20.7707L15.7553 20.772C15.5914 18.5731 15.9254 17.1004 14.7047 15.7761C13.2288 15.8549 12.1173 15.7083 11.0362 16.6101C10.0158 21.6665 10.9269 46.3281 10.8236 53.2997C10.4167 80.3504 11.267 107.996 10.6293 135.03L9.85793 134.862C10.5382 131.193 10.3803 114.223 10.3803 109.87L10.1434 56.6924L5.80684 56.1828L5.33914 56.2089C4.92007 43.5317 5.32096 28.3199 5.35133 15.4543Z" fill="#6A7582"/>
<path d="M5.80684 56.1828C5.7704 51.8112 5.10239 38.7589 7.8051 35.8928C11.4614 37.6104 10.2466 52.5675 10.1434 56.6924L5.80684 56.1828Z" fill="#8E9DA9"/>
<path d="M21.0575 15.7707L21.021 20.7707L15.7553 20.772L16.2776 17.1016C17.881 15.6083 18.3365 16.0513 21.0575 15.7707Z" fill="#8E9DA9"/>
<path d="M35.7736 93.5021C36.2169 95.5124 36.3628 96.5191 36.5511 98.5713L41.1183 98.5095L41.1608 98.8143C41.0575 101.697 41.5555 101.646 40.0432 103.359L37.456 103.642C35.4456 106.41 36.3142 124.483 36.3688 129.337L31.3521 129.442L31.3703 93.5767C32.6761 93.5621 34.5224 93.6027 35.7736 93.5021Z" fill="#02020A"/>
<path d="M31.3703 51.7937C29.5239 51.8852 28.37 52.1894 26.9245 51.1506C25.1632 47.6287 24.4647 45.0389 27.2586 41.7207C28.9895 41.1722 29.6151 41.4504 31.3582 41.8892L31.261 46.7705L31.3703 51.7937Z" fill="#02020A"/>
<path d="M36.8912 31.2072C36.5815 29.126 36.1319 27.7678 37.1887 26.1405C38.7435 26.3423 39.5635 26.629 40.9057 25.929C42.418 23.5374 42.0111 24.3968 42.0233 21.344C43.4931 20.378 44.8292 20.6592 46.6573 20.7253C46.7424 23.0798 47.1615 23.8592 46.1533 25.6738C44.2462 25.5332 43.7117 25.4956 42.0658 26.5023C40.0676 29.766 43.08 28.9605 40.4927 31.023C39.2902 31.1048 38.0938 31.166 36.8912 31.2072Z" fill="#02020A"/>
<path d="M46.6573 20.7253C46.6634 19.5392 46.3111 17.2416 47.3315 16.6215C50.7387 14.5482 52.9434 14.9537 56.2352 16.5543C57.0551 17.9658 56.9459 19.0082 56.545 20.8016L46.6573 20.7253Z" fill="#0A0E1B"/>
<path d="M31.5525 41.5559C31.346 38.5837 30.5625 33.8158 32.2328 31.5394C33.9516 30.8569 34.48 31.1824 36.2839 31.6636C36.3628 34.4939 36.964 38.7376 35.6157 40.8474C34.0912 41.728 33.3199 41.5613 31.5525 41.5559Z" fill="#0A0E1B"/>
<path d="M31.3521 129.442L36.3688 129.337L36.3749 134.248L36.1623 134.646C34.5954 134.712 33.8726 134.648 32.3117 134.471C30.8844 132.715 31.3947 132.293 31.3521 129.442Z" fill="#272C37"/>
<path d="M15.7553 20.772L21.021 20.7707C21.0696 23.338 21.2761 23.9908 19.8913 25.6829C17.9296 26.4187 18.7617 26.4241 16.7696 25.6241C15.2876 23.5229 15.7675 23.829 15.7553 20.772Z" fill="#222733"/>
<path d="M15.7311 139.945C18.0755 140.053 19.0593 139.694 20.7538 140.843C21.1364 142.548 21.1608 143.151 21.2033 144.904C19.855 144.706 18.458 144.546 17.1037 144.373C15.6582 142.765 16.0712 142.533 15.7311 139.945Z" fill="#141922"/>
<path d="M16.6057 134.603C17.8507 133.688 19.5877 133.875 20.602 135.034C21.6162 136.193 21.5738 137.936 20.4988 139.042C19.7214 139.842 18.5552 140.139 17.4923 139.808C16.4234 139.477 15.6338 138.576 15.4455 137.476C15.2572 136.377 15.7068 135.266 16.6057 134.603Z" fill="#828F9B"/>
<path d="M93.2898 88.1299L98.8531 88.0657L98.8228 93.0427C100.475 93.047 102.534 92.9845 104.143 93.1651C95.2576 94.5888 101.811 97.6828 93.6542 98.3519L88.4613 98.3949L88.3884 102.602L88.7104 103.296L103.639 103.289C105.236 103.334 107.672 103.33 109.196 103.466C111.358 103.574 112.822 103.234 114.249 104.356C114.772 110.451 114.322 122.436 114.043 128.866L113.921 129.257C114.085 131.124 114.486 132.584 113.508 134.063C111.771 134.803 111 134.473 109.123 134.143C107.696 133.957 104.896 133.987 103.341 133.963L98.7621 134.259L98.8166 134.651C98.7681 136.134 98.6345 138.239 98.7439 139.665C98.8775 142.415 99.3269 142.384 98.1243 144.343C93.7818 146.195 88.1577 144.966 83.0499 144.897C81.2946 145.031 80.3714 144.832 78.6647 144.591L78.1729 144.592L78.1789 139.96C76.0471 139.663 75.2028 139.413 73.1196 140.133L72.5912 142.069L72.0932 139.348C70.4048 138.163 70.089 138.598 67.6474 138.643L67.7689 144.887C62.2967 144.778 57.6565 146.11 52.9556 144.49C51.2915 142.674 51.8441 142.674 51.7287 139.514L51.9049 139.14L52.0263 134.709L51.413 134.568C51.3461 132.723 51.5708 131.234 51.7773 129.414C49.4633 129.406 48.9349 129.404 46.6331 128.862L46.5359 129.305L41.7561 129.381L41.6163 129.767C40.3469 129.242 37.8508 129.359 36.3688 129.337C36.3142 124.483 35.4456 106.41 37.456 103.642L40.0432 103.359C41.5555 101.646 41.0575 101.697 41.1608 98.8143L41.6223 98.801C43.8938 98.2089 49.5422 98.4185 52.1295 98.427L52.0931 93.047L51.9959 88.0038L83.6025 88.1111L88.8561 88.139L93.2898 88.1299Z" fill="#2F3644"/>
<path d="M78.0938 108.799L83.0983 108.416L83.0194 113.553L78.3793 114.074L78.0209 113.665L78.0938 108.799Z" fill="#6A7582"/>
<path d="M78.3793 114.074L83.0194 113.553C83.1165 114.975 83.2138 117.405 83.4506 118.727L83.1045 119.243C82.0112 119.08 79.5879 119.022 78.3793 118.956L78.1545 114.57L78.3793 114.074Z" fill="#545B69"/>
<path d="M83.4506 118.727C84.7746 113.781 81.6954 94.2833 86.0805 92.9524C89.3238 95.3737 86.7242 98.7543 88.3884 102.602L88.7104 103.296L103.639 103.289C105.236 103.334 107.672 103.33 109.196 103.466C111.358 103.574 112.822 103.234 114.249 104.356C114.772 110.451 114.322 122.436 114.043 128.866L113.921 129.257C114.085 131.124 114.486 132.584 113.508 134.063C111.771 134.803 111 134.473 109.123 134.143C107.696 133.957 104.896 133.987 103.341 133.963L98.7621 134.259L98.8166 134.651C98.7681 136.134 98.6345 138.239 98.7439 139.665C98.8775 142.415 99.3269 142.384 98.1243 144.343C93.7818 146.195 88.1577 144.966 83.0499 144.897C81.2946 145.031 80.3714 144.832 78.6647 144.591L78.1729 144.592L78.1789 139.96C76.0471 139.663 75.2028 139.413 73.1196 140.133L72.5912 142.069L72.0932 139.348C70.4048 138.163 70.089 138.598 67.6474 138.643L67.7688 134.246L67.8357 129.247L67.9511 124.547L67.8782 123.946L67.8296 119.029L67.8174 113.833C70.6901 113.738 75.2878 113.45 78.0209 113.665L78.3793 114.074L78.1545 114.57L78.3793 118.956C79.5879 119.022 82.0112 119.08 83.1045 119.243L83.4506 118.727Z" fill="#02020A"/>
<path d="M88.7104 103.296L103.639 103.289C105.236 103.334 107.672 103.33 109.196 103.466C111.358 103.574 112.822 103.234 114.249 104.356C114.772 110.451 114.322 122.436 114.043 128.866L113.921 129.257C114.085 131.124 114.486 132.584 113.508 134.063C111.771 134.803 111 134.473 109.123 134.143C107.696 133.957 104.896 133.987 103.341 133.963L98.7621 134.259L98.8166 134.651C98.7681 136.134 98.6345 138.239 98.7439 139.665L88.4188 139.606L88.3277 108.602C91.7349 108.649 107.071 109.318 108.88 108.024C109.427 106.09 109.47 106.873 108.814 105.054C105.169 101.899 93.3627 105.396 88.7104 103.296Z" fill="#2F3644"/>
<path d="M93.4476 113.64C95.2697 113.65 97.1525 113.382 98.5008 114.398C99.2357 118.69 98.8653 129.411 98.7621 134.259C96.114 134.382 95.9135 134.796 93.8364 133.766C93.1501 129.964 93.4659 118.289 93.4476 113.64Z" fill="#5E616B"/>
<path d="M109.178 129.32L113.921 129.257C114.085 131.124 114.486 132.584 113.508 134.063C111.771 134.803 111 134.473 109.123 134.143L109.178 129.32Z" fill="#0A0E1B"/>
<path d="M103.341 133.963C103.408 131.714 103.013 131.791 104.277 130.365C106.36 130.182 106.779 130.098 108.71 129.474L109.178 129.32L109.123 134.143C107.696 133.957 104.896 133.987 103.341 133.963Z" fill="#272C37"/>
<path d="M104.356 119.559C105.558 118.416 107.459 118.459 108.607 119.657C109.755 120.854 109.712 122.752 108.516 123.899C107.313 125.048 105.406 125.007 104.258 123.807C103.111 122.607 103.153 120.704 104.356 119.559Z" fill="#5E616B"/>
<path d="M67.8174 113.833C70.6901 113.738 75.2878 113.45 78.0209 113.665L78.3793 114.074L78.1545 114.57L78.3793 118.956C79.5879 119.022 82.0112 119.08 83.1045 119.243L83.0316 123.949L83.074 129.072L83.0559 134.097C81.8109 134.107 79.6122 134.192 78.4582 134.029L77.8084 134.187L77.7719 134.613C78.2578 137.011 78.2639 137.531 78.1789 139.96C76.0471 139.663 75.2028 139.413 73.1196 140.133L72.5912 142.069L72.0932 139.348C70.4048 138.163 70.089 138.598 67.6474 138.643L67.7688 134.246L67.8357 129.247L67.9511 124.547L67.8782 123.946L67.8296 119.029L67.8174 113.833Z" fill="#828F9B"/>
<path d="M73.0953 129.291L77.7962 129.296L78.2517 129.421C78.859 131.571 78.8833 131.838 78.4582 134.029L77.8084 134.187L77.7719 134.613C78.2578 137.011 78.2639 137.531 78.1789 139.96C76.0471 139.663 75.2028 139.413 73.1196 140.133L72.5912 142.069L72.0932 139.348C70.4048 138.163 70.089 138.598 67.6474 138.643L67.7688 134.246L67.8357 129.247L72.652 129.36L73.0953 129.291Z" fill="#373F4B"/>
<path d="M73.0953 129.291L77.7962 129.296L78.2517 129.421C78.859 131.571 78.8833 131.838 78.4582 134.029L77.8084 134.187L72.6763 134.18L72.652 129.36L73.0953 129.291Z" fill="#778492"/>
<path d="M77.7719 134.613C78.2578 137.011 78.2639 137.531 78.1789 139.96C76.0471 139.663 75.2028 139.413 73.1196 140.133C72.7248 138.292 72.4455 137.517 72.8403 135.624C74.8263 134.271 74.9477 134.718 77.7719 134.613Z" fill="#0A0E1B"/>
<path d="M67.8357 129.247L72.652 129.36L72.6763 134.18L67.7688 134.246L67.8357 129.247Z" fill="#828F9B"/>
<path d="M78.5494 123.937L83.0316 123.949L83.074 129.072L83.0559 134.097C81.8109 134.107 79.6122 134.192 78.4582 134.029C78.8833 131.838 78.859 131.571 78.2517 129.421L77.7962 129.296L73.0953 129.291L72.652 129.36L67.8357 129.247L67.9511 124.547L67.8782 123.946C70.8481 123.91 75.7313 123.702 78.5494 123.937Z" fill="#444853"/>
<path d="M67.9511 124.547L72.567 124.494C74.6685 124.362 76.2597 123.967 77.8934 125.106C78.5372 126.641 78.1302 127.63 77.7962 129.296L73.0953 129.291L72.652 129.36L67.8357 129.247L67.9511 124.547Z" fill="#02020A"/>
<path d="M67.9511 124.547L72.567 124.494C72.6521 125.763 72.7188 128.184 73.0953 129.291L72.652 129.36L67.8357 129.247L67.9511 124.547Z" fill="#272C37"/>
<path d="M78.2517 129.421C79.7397 129.308 81.6225 129.104 83.074 129.072L83.0559 134.097C81.8109 134.107 79.6122 134.192 78.4582 134.029C78.8833 131.838 78.859 131.571 78.2517 129.421Z" fill="#5F6A7A"/>
<path d="M67.8174 113.833C70.6901 113.738 75.2878 113.45 78.0209 113.665L78.3793 114.074L78.1545 114.57L78.3793 118.956L72.7066 119.027L67.8296 119.029L67.8174 113.833Z" fill="#2F3644"/>
<path d="M72.7066 119.027C72.6216 117.15 72.415 116.357 73.241 114.67C75.4396 113.753 75.4214 114.181 78.1545 114.57L78.3793 118.956L72.7066 119.027Z" fill="#02020A"/>
<path d="M78.3793 118.956C79.5879 119.022 82.0112 119.08 83.1045 119.243L83.0316 123.949L78.5494 123.937C78.7195 121.783 78.6222 121.026 78.3793 118.956Z" fill="#6A7582"/>
<path d="M83.0559 134.097L83.1105 139.893L83.0499 144.897C81.2946 145.031 80.3714 144.832 78.6647 144.591L78.1729 144.592L78.1789 139.96C78.2639 137.531 78.2578 137.011 77.7719 134.613L77.8084 134.187L78.4582 134.029C79.6122 134.192 81.8109 134.107 83.0559 134.097Z" fill="#4C545F"/>
<path d="M78.6647 144.591L78.9684 141.631C80.1709 140.049 80.6932 140.413 83.1105 139.893L83.0499 144.897C81.2946 145.031 80.3714 144.832 78.6647 144.591Z" fill="#5E616B"/>
<path d="M93.2898 88.1299L98.8531 88.0657L98.8228 93.0427C100.475 93.047 102.534 92.9845 104.143 93.1651C95.2576 94.5888 101.811 97.6828 93.6542 98.3519L88.4613 98.3949L88.3884 102.602C86.7242 98.7543 89.3238 95.3737 86.0805 92.9524C81.6954 94.2833 84.7746 113.781 83.4506 118.727C83.2138 117.405 83.1165 114.975 83.0194 113.553L83.0983 108.416L78.0938 108.799L78.0209 113.665C75.2878 113.45 70.6901 113.738 67.8174 113.833L67.7688 108.694C67.8417 106.912 67.6777 105.228 67.5501 103.451C66.0804 99.7543 68.9531 95.1779 65.5155 92.7476C63.9607 92.9658 64.2826 92.6985 63.2197 93.5633L62.8918 99.1798C62.8493 100.503 62.8797 102.25 62.5274 103.481L62.0233 103.3C62.3148 100.883 62.655 101.061 61.7986 99.0786C59.7458 97.8179 54.8869 98.3652 52.1295 98.427L52.0931 93.047L51.9959 88.0038L83.6025 88.1111L88.8561 88.139L93.2898 88.1299Z" fill="#0A0E1B"/>
<path d="M67.781 93.1166C70.3562 92.8221 80.5719 92.6797 83.0559 93.1088V98.4713L83.0377 103.289L83.0983 108.416L78.0938 108.799L78.0209 113.665C75.2878 113.45 70.6901 113.738 67.8174 113.833L67.7688 108.694C67.8417 106.912 67.6777 105.228 67.5501 103.451C67.7445 101.914 67.7629 99.9277 67.8297 98.3428L67.781 93.1166Z" fill="#272C37"/>
<path d="M78.2761 103.125L83.0377 103.289L83.0983 108.416L78.0938 108.799L78.0209 113.665C75.2878 113.45 70.6901 113.738 67.8174 113.833L67.7688 108.694C67.8417 106.912 67.6777 105.228 67.5501 103.451L77.8085 103.288L78.2761 103.125Z" fill="#272C37"/>
<path d="M72.8524 108.683L77.8145 108.693L78.0938 108.799L78.0209 113.665C75.2878 113.45 70.6901 113.738 67.8174 113.833L67.7688 108.694L72.8524 108.683Z" fill="#828F9B"/>
<path d="M78.2761 103.125L83.0377 103.289L83.0983 108.416L78.0938 108.799L77.8145 108.693C78.3915 106.347 78.3489 106.053 77.7841 103.751L77.8085 103.288L78.2761 103.125Z" fill="#545B69"/>
<path d="M77.7841 103.751C78.3489 106.053 78.3915 106.347 77.8145 108.693L72.8524 108.683C72.7066 106.994 72.7553 106.429 72.9375 104.739C74.7595 103.457 75.1482 103.877 77.7841 103.751Z" fill="#02020A"/>
<path d="M67.8297 98.3428L72.9192 98.5428C75.9074 98.8943 76.6969 98.4052 78.2092 100.113L78.2761 103.125L77.8085 103.288L67.5501 103.451C67.7445 101.914 67.7629 99.9277 67.8297 98.3428Z" fill="#8E9DA9"/>
<path d="M78.3793 98.3203L83.0559 98.4713L83.0377 103.289L78.2761 103.125L78.2092 100.113C76.6969 98.4052 75.9074 98.8943 72.9192 98.5428L78.3793 98.3203Z" fill="#828F9B"/>
<path d="M67.781 93.1166C70.6659 93.4954 71.2794 93.0415 72.9071 94.6834C72.9192 95.9604 72.9557 97.2682 72.9192 98.5428L67.8297 98.3428L67.781 93.1166Z" fill="#545B69"/>
<path d="M78.3793 98.3203L78.4339 94.6464C79.8308 93.1076 80.5293 93.4888 83.0559 93.1088V98.4713L78.3793 98.3203Z" fill="#5F6A7A"/>
<path d="M52.0931 93.047C54.9173 93.0434 59.5453 92.5518 61.5799 93.8561C62.8432 95.3985 62.7157 97.1046 62.8918 99.1798C62.8493 100.503 62.8797 102.25 62.5274 103.481L62.0233 103.3C62.3148 100.883 62.655 101.061 61.7986 99.0786C59.7458 97.8179 54.8869 98.3652 52.1295 98.427L52.0931 93.047Z" fill="#4C545F"/>
<path d="M98.8228 93.0427C100.475 93.047 102.534 92.9845 104.143 93.1651C95.2576 94.5888 101.811 97.6828 93.6542 98.3519L88.4613 98.3949C88.4127 95.7682 87.9998 95.6434 89.1052 93.644C91.243 92.4664 95.9682 93.0409 98.8228 93.0427Z" fill="#4C545F"/>
<path d="M62.8918 99.1798L63.2197 93.5633C64.2826 92.6985 63.9607 92.9658 65.5155 92.7476C68.9531 95.1779 66.0804 99.7543 67.5501 103.451C67.6777 105.228 67.8417 106.912 67.7688 108.694L67.8174 113.833L67.8296 119.029L67.8782 123.946L67.9511 124.547L67.8357 129.247L67.7688 134.246L67.6474 138.643L67.7689 144.887C62.2967 144.778 57.6565 146.11 52.9556 144.49C51.2915 142.674 51.8441 142.674 51.7287 139.514L51.9049 139.14L52.0263 134.709L56.7454 134.572L62.2116 134.652C62.2966 136.131 62.3572 138.214 62.5698 139.628C63.244 136.192 62.8371 112.845 62.8007 108.618C56.1745 108.684 49.1292 108.877 42.5394 108.579C41.349 107.357 41.7013 107.303 41.5494 105.274C44.5376 102.277 57.6079 104.716 62.5274 103.481C62.8797 102.25 62.8493 100.503 62.8918 99.1798Z" fill="#030612"/>
<path d="M62.2116 134.652C62.2966 136.131 62.3572 138.214 62.5698 139.628L56.8729 139.695C54.5406 139.746 54.146 139.662 51.9049 139.14L52.0263 134.709L56.7454 134.572L62.2116 134.652Z" fill="#444853"/>
<path d="M52.0263 134.709L56.7454 134.572L56.8729 139.695C54.5406 139.746 54.146 139.662 51.9049 139.14L52.0263 134.709Z" fill="#272C37"/>
<path d="M52.4939 113.986C56.0955 113.745 58.6829 113.655 62.2966 113.682C62.2723 120.459 62.3998 127.931 62.2116 134.652L56.7454 134.572L52.0263 134.709L51.413 134.568C51.3461 132.723 51.5708 131.234 51.7773 129.414C52.245 126.886 52.075 117.532 52.075 114.462L52.4939 113.986Z" fill="#545B69"/>
<path d="M41.7377 113.736C45.394 113.756 48.9349 113.121 52.4939 113.986L52.075 114.462C52.075 117.532 52.245 126.886 51.7773 129.414C49.4633 129.406 48.9349 129.404 46.6331 128.862L46.5359 129.305L41.7561 129.381C41.3673 125.953 41.6831 117.539 41.7377 113.736Z" fill="#5E616B"/>
<path d="M46.6331 128.862C46.8578 124.138 45.7342 118.59 47.5016 114.821C49.5788 113.738 49.3115 114.145 52.075 114.462C52.075 117.532 52.245 126.886 51.7773 129.414C49.4633 129.406 48.9349 129.404 46.6331 128.862Z" fill="#8E9DA9"/>
<path d="M52.1295 98.427C54.8869 98.3652 59.7458 97.8179 61.7986 99.0786C62.655 101.061 62.3148 100.883 62.0233 103.3C55.7493 103.34 48.8012 103.533 42.6001 103.105C41.4097 101.945 41.7681 100.898 41.6223 98.801C43.8938 98.2089 49.5422 98.4185 52.1295 98.427Z" fill="#8E9DA9"/>
<path d="M31.3703 51.7937L41.6649 52.2318L41.6345 56.6501L41.6832 57.0986C45.1268 57.1477 48.6312 57.2343 52.0688 57.2325C61.7804 56.9155 73.3868 56.8622 83.0862 57.2307L83.475 57.1337C86.3235 57.1416 90.666 57.0174 93.393 57.2216L93.3747 62.0726L98.6163 62.0847C98.7803 64.029 99.3389 66.0399 97.7294 67.4017L93.5023 67.303C93.472 74.1982 93.5266 81.251 93.2898 88.1299L88.8561 88.139L83.6025 88.1111L51.9959 88.0038L46.5966 88.0063L42.8067 88.0699L42.0839 87.9499C41.8045 87.0451 41.5191 84.9081 41.3491 83.8747C39.8185 82.5778 39.0411 82.9596 36.6481 82.7838L36.3869 77.6679L31.4918 77.7577C31.4979 75.9364 31.4918 75.2825 31.1577 73.5C29.3235 72.1152 28.8194 72.5606 26.0559 72.3988C26.1288 69.6976 25.6673 69.3975 27.0096 67.5811C28.2911 67.5478 29.0198 67.5066 30.2831 67.3339C32.1295 65.346 31.4188 55.1282 31.3703 51.7937Z" fill="#5E616B"/>
<path d="M52.0688 57.2325C61.7804 56.9155 73.3868 56.8622 83.0862 57.2307L83.475 57.1337C86.3235 57.1416 90.666 57.0174 93.393 57.2216L93.3747 62.0726L98.6163 62.0847C98.7803 64.029 99.3389 66.0399 97.7294 67.4017L93.5023 67.303C84.8415 67.1217 76.1807 67.1108 67.5198 67.2714C63.4688 67.3083 55.5854 67.6072 51.9352 66.9708L52.0506 62.0198L52.0688 57.2325Z" fill="#0A0E1B"/>
<path d="M52.0688 57.2325C61.7804 56.9155 73.3868 56.8622 83.0862 57.2307L82.9648 62.0301L52.0506 62.0198L52.0688 57.2325Z" fill="#8E9DA9"/>
<path d="M83.475 57.1337C86.3235 57.1416 90.666 57.0174 93.393 57.2216L93.3747 62.0726L82.9648 62.0301L83.0862 57.2307L83.475 57.1337Z" fill="#6A7582"/>
<path d="M31.3703 51.7937L41.6649 52.2318L41.6345 56.6501L41.6832 57.0986C45.1268 57.1477 48.6312 57.2343 52.0688 57.2325L52.0506 62.0198L51.9352 66.9708L51.911 67.4381L46.5966 67.5005C43.7846 67.6381 43.7724 67.166 42.0111 68.6175C40.8814 71.037 41.2883 74.6637 41.3673 77.4358L36.3869 77.6679L31.4918 77.7577C31.4979 75.9364 31.4918 75.2825 31.1577 73.5C29.3235 72.1152 28.8194 72.5606 26.0559 72.3988C26.1288 69.6976 25.6673 69.3975 27.0096 67.5811C28.2911 67.5478 29.0198 67.5066 30.2831 67.3339C32.1295 65.346 31.4188 55.1282 31.3703 51.7937Z" fill="#444853"/>
<path d="M31.3703 51.7937L41.6649 52.2318L41.6345 56.6501L41.6832 57.0986C39.685 56.9719 38.2334 56.6161 36.6361 57.661C35.9983 62.4429 36.3505 72.4818 36.3869 77.6679L31.4918 77.7577C31.4979 75.9364 31.4918 75.2825 31.1577 73.5C29.3235 72.1152 28.8194 72.5606 26.0559 72.3988C26.1288 69.6976 25.6673 69.3975 27.0096 67.5811C28.2911 67.5478 29.0198 67.5066 30.2831 67.3339C32.1295 65.346 31.4188 55.1282 31.3703 51.7937Z" fill="#02020A"/>
<path d="M41.6832 57.0986C45.1268 57.1477 48.6312 57.2343 52.0688 57.2325L52.0506 62.0198L41.5798 62.1762L41.6832 57.0986Z" fill="#02020A"/>
<path d="M41.5798 62.1762L52.0506 62.0198L51.9352 66.9708C47.9692 66.138 45.7161 67.9084 42.5214 66.6556C41.1609 64.8289 41.6163 64.9453 41.5798 62.1762Z" fill="#373F4B"/>
<path d="M51.9352 66.9708C55.5854 67.6072 63.4688 67.3083 67.5198 67.2714C76.1807 67.1108 84.8415 67.1217 93.5023 67.303C93.472 74.1982 93.5266 81.251 93.2898 88.1299L88.8561 88.139L88.5768 83.068L88.4067 72.4618C76.5208 72.4473 63.8454 72.6649 52.0506 72.3842L51.911 67.4381L51.9352 66.9708Z" fill="#373F4B"/>
<path d="M41.3673 77.4358C41.7438 80.465 41.2883 81.5789 43.1772 83.1456C47.8416 84.0953 48.7831 80.6583 51.917 84.4232C51.9595 85.5953 52.0263 86.8396 51.9959 88.0038L46.5966 88.0063L42.8067 88.0699L42.0839 87.9499C41.8045 87.0451 41.5191 84.9081 41.3491 83.8747C39.8185 82.5778 39.0411 82.9596 36.6481 82.7838L36.3869 77.6679L41.3673 77.4358Z" fill="#0A0E1B"/>
<path d="M46.9003 82.5262C47.4894 78.9128 46.2201 75.9388 47.3983 73.1697C49.2447 71.8097 49.1839 72.2952 52.0506 72.3842C52.1053 75.3867 52.6944 79.7219 51.3461 81.9601C49.8945 82.885 48.6859 82.6025 46.9003 82.5262Z" fill="#8E9DA9"/>
<path d="M46.5966 67.5005L51.911 67.4381L52.0506 72.3842C49.1839 72.2952 49.2447 71.8097 47.3983 73.1697C46.2201 75.9388 47.4894 78.9128 46.9003 82.5262C46.2869 78.4625 46.548 71.8079 46.5966 67.5005Z" fill="#778492"/>
<path d="M83.6025 88.1111C83.6268 86.4069 83.6875 85.5499 83.9365 83.8656C85.6311 82.651 86.1231 83.0826 88.5768 83.068L88.8561 88.139L83.6025 88.1111Z" fill="#444853"/>
<path d="M57.7962 73.4503C58.7922 72.3169 60.5232 72.209 61.6528 73.2103C62.7825 74.2121 62.8858 75.94 61.8776 77.0643C60.8754 78.1801 59.1566 78.2788 58.033 77.2843C56.9094 76.2897 56.8001 74.5763 57.7962 73.4503Z" fill="#778492"/>
<path d="M10.4046 0.166188L104.993 0.186202C109.852 0.182566 136.393 -0.430191 139.88 0.5874C140.384 2.64622 140.329 3.1341 140.244 5.19292L140.208 9.62084L135.246 10.5451C122.145 10.193 107.046 10.536 93.7392 10.4627C93.5085 13.587 94.049 13.3191 92.312 15.0973C89.2145 16.1943 86.2567 15.1967 82.6976 15.4804C77.0735 15.0931 66.9125 15.3483 61.337 15.5277C60.2498 15.4252 59.1688 15.2688 58.0877 15.124C56.7697 13.644 57.1948 12.9852 57.0673 10.5645C51.1517 10.5621 17.5713 9.77482 15.7978 11.3773L15.4213 14.8652L14.5952 12.0657C10.7142 10.6706 6.65106 10.9306 5.35133 15.4543L5.27239 10.4457C5.24809 8.54569 4.93223 6.78083 6.32307 5.53354C7.34342 5.44626 8.24241 5.28444 9.24454 5.12505C10.4532 3.59896 10.1738 2.40804 10.4046 0.166188Z" fill="#5F6A7A"/>
<path d="M10.4046 0.166188L104.993 0.186202C109.852 0.182566 136.393 -0.430191 139.88 0.5874C140.384 2.64622 140.329 3.1341 140.244 5.19292L54.48 5.03837C40.8571 5.04928 25.0235 5.58807 11.7164 5.09836C10.3985 3.94259 10.6718 2.36986 10.4046 0.166188Z" fill="#02020A"/>
<path d="M57.0673 10.5645L93.7392 10.4627C93.5085 13.587 94.049 13.3191 92.312 15.0973C89.2145 16.1943 86.2567 15.1967 82.6976 15.4804C77.0735 15.0931 66.9125 15.3483 61.337 15.5277C60.2498 15.4252 59.1688 15.2688 58.0877 15.124C56.7697 13.644 57.1948 12.9852 57.0673 10.5645Z" fill="#0A0E1B"/>
<path d="M6.32307 5.53354C9.28087 5.77718 8.71614 5.28199 10.5746 6.96323C10.933 8.93478 11.0908 8.13418 9.84574 9.9433C8.27878 10.9148 7.16125 10.5948 5.27239 10.4457C5.24809 8.54569 4.93223 6.78083 6.32307 5.53354Z" fill="#02020A"/>
<path d="M114.681 10.096L27.1614 9.88815C25.807 8.63843 26.2261 9.16328 26.1107 6.70506C28.0542 4.93716 47.5502 5.71598 51.7227 5.68023C72.7492 5.50083 93.7756 5.50748 114.802 5.70142L114.681 10.096Z" fill="#8E9DA9"/>
<path d="M114.802 5.70142C117.972 5.65961 122.85 5.02806 125.012 7.6287C123.42 10.753 117.809 10.056 114.681 10.096L114.802 5.70142Z" fill="#778492"/>
<path d="M52.0324 41.519C52.0263 39.005 51.674 27.4472 52.5911 26.1187C56.053 26.5648 58.944 26.2272 62.3998 25.9696V31.0867L67.6839 31.123L78.9684 31.1L83.2016 30.9782L83.7787 31.0678L88.5281 31.1236C91.3827 31.2254 91.3159 30.746 93.1015 32.2073C94.2372 34.5988 93.5266 38.5261 93.5023 41.3656L93.3627 46.4427C93.3566 49.1275 93.1318 54.7312 93.812 57.0816L93.393 57.2216C90.666 57.0174 86.3235 57.1416 83.475 57.1337L83.0862 57.2307C73.3868 56.8622 61.7804 56.9155 52.0688 57.2325C48.6312 57.2343 45.1268 57.1477 41.6832 57.0986L41.6345 56.6501L41.6649 52.2318L41.8168 51.7173L45.2239 51.767C49.3175 49.3978 45.2301 45.7651 47.374 42.3499C49.2325 41.0844 49.3297 41.5287 52.0324 41.519Z" fill="#5E616B"/>
<path d="M78.9684 31.1L83.2016 30.9782C83.2077 33.0836 83.311 34.0964 82.6247 36.1419C79.0535 36.7358 66.706 36.4164 62.9647 36.0825C62.1873 34.9552 62.4059 32.5879 62.3998 31.0867L67.6839 31.123L78.9684 31.1Z" fill="#8E9DA9"/>
<path d="M52.0324 41.519C52.0385 46.5699 52.0992 51.7257 52.0324 56.7652L41.6345 56.6501L41.6649 52.2318L41.8168 51.7173L45.2239 51.767C49.3175 49.3978 45.2301 45.7651 47.374 42.3499C49.2325 41.0844 49.3297 41.5287 52.0324 41.519Z" fill="#8E9DA9"/>
<path d="M52.0324 41.519C52.0263 39.005 51.674 27.4472 52.5911 26.1187C56.053 26.5648 58.944 26.2272 62.3998 25.9696V31.0867L61.9201 31.1121L56.9762 31.0618C56.6118 35.1073 56.7697 37.4177 57.0005 41.4238L52.0324 41.519Z" fill="#828F9B"/>
<path d="M87.605 52.0415C87.8965 50.6524 88.0484 49.3505 88.2306 47.9481C90.083 46.2959 90.3563 46.7827 93.3627 46.4427C93.3566 49.1275 93.1318 54.7312 93.812 57.0816L93.393 57.2216C90.666 57.0174 86.3235 57.1416 83.475 57.1337C83.4143 55.9416 83.5358 54.2742 83.5843 53.0409C83.9062 52.2966 84.5561 51.7451 85.3457 51.5487C86.1352 51.353 86.9673 51.5348 87.605 52.0415Z" fill="#444853"/>
<path d="M83.5843 53.0409C83.9062 52.2966 84.5561 51.7451 85.3457 51.5487C86.1352 51.353 86.9673 51.5348 87.605 52.0415C88.6618 52.8833 88.8986 54.3894 88.1516 55.5131C87.4045 56.6367 85.9227 57.0052 84.7323 56.3622C83.548 55.7191 83.0438 54.2779 83.5843 53.0409Z" fill="#373F4B"/>
<path d="M88.5281 31.1236C91.3827 31.2254 91.3159 30.746 93.1015 32.2073C94.2372 34.5988 93.5266 38.5261 93.5023 41.3656C91.8685 41.405 91 41.3511 89.3723 41.1765C88.0361 39.391 88.4977 39.0813 88.4248 36.3691L88.5281 31.1236Z" fill="#2F3644"/>
<path d="M57.0005 41.4238C56.7697 37.4177 56.6118 35.1073 56.9762 31.0618C57.1341 32.574 57.3952 34.4952 57.4255 35.9758C57.4559 44.3632 60.2194 39.4995 62.6549 43.8383C62.1083 45.7093 61.8775 45.8771 60.3591 47.1287C57.2373 47.4208 56.9155 43.7123 57.0005 41.4238Z" fill="#778492"/>
<path d="M83.7787 31.0678L88.5281 31.1236L88.4248 36.3691C86.9611 36.397 86.0198 36.3394 84.5621 36.2073C83.2928 34.6012 83.7726 33.5715 83.7787 31.0678Z" fill="#444853"/>
<path d="M56.9762 31.0618L61.9201 31.1121C61.9201 33.4237 62.3027 34.2691 61.2702 36.0376C59.5089 36.377 59.2415 36.2564 57.4255 35.9758C57.3952 34.4952 57.1341 32.574 56.9762 31.0618Z" fill="#444853"/>
<path d="M124.738 72.4399C126.542 72.4096 128.164 72.1296 129.567 73.0878C130.144 77.1551 130.144 126.821 129.354 129.174C127.338 129.635 128.176 129.674 126.178 128.984C121.058 123.391 128.929 98.2676 122.37 93.4336C120.815 93.3918 120.924 93.1615 119.74 93.7876C119.029 104.389 119.43 118.413 119.442 129.271C117.025 129.349 116.418 129.302 114.043 128.866C114.322 122.436 114.772 110.451 114.249 104.356C112.822 103.234 111.358 103.574 109.196 103.466C107.672 103.33 105.236 103.334 103.639 103.289L88.7104 103.296L88.3884 102.602L88.4613 98.3949L93.6542 98.3519C101.811 97.6828 95.2576 94.5888 104.143 93.1651L104.161 88.0759L109.044 88.0178C109.038 86.6111 109.129 85.4935 109.239 84.0904C110.848 82.6668 111.261 83.1455 113.994 83.0207L114.049 82.4928L119.345 82.7213V77.5376C119.315 75.7194 119.248 75.0624 119.722 73.2739C121.513 72.1103 122.303 72.5036 124.738 72.4399Z" fill="#030612"/>
<path d="M104.161 88.0759L109.044 88.0178C109.154 90.3924 108.729 91.1699 110.034 92.5639C111.097 92.6863 113.174 92.7724 113.94 93.3385C113.982 94.7755 113.976 97.1028 114.207 98.4458L109.257 98.4464L109.196 103.466C107.672 103.33 105.236 103.334 103.639 103.289L88.7104 103.296L88.3884 102.602L88.4613 98.3949L93.6542 98.3519C101.811 97.6828 95.2576 94.5888 104.143 93.1651L104.161 88.0759Z" fill="#5F6A7A"/>
<path d="M93.6542 98.3519L103.961 98.3864L103.639 103.289L88.7104 103.296L88.3884 102.602L88.4613 98.3949L93.6542 98.3519Z" fill="#8E9DA9"/>
<path d="M104.161 88.0759L109.044 88.0178C109.154 90.3924 108.729 91.1699 110.034 92.5639C111.097 92.6863 113.174 92.7724 113.94 93.3385L109.403 93.4736C107.745 92.7639 107.398 92.5372 105.625 92.693C103.833 94.4372 104.07 95.7567 103.961 98.3864L93.6542 98.3519C101.811 97.6828 95.2576 94.5888 104.143 93.1651L104.161 88.0759Z" fill="#545B69"/>
<path d="M109.403 93.4736L113.94 93.3385C113.982 94.7755 113.976 97.1028 114.207 98.4458L109.257 98.4464C109.148 97.0573 109.33 94.9294 109.403 93.4736Z" fill="#6A7582"/>
<path d="M114.049 82.4928L119.345 82.7213L119.485 83.0813C119.606 85.8553 119.114 85.8372 120.602 87.3923L124.587 87.9123L119.157 88.8772C119.752 89.6736 119.861 90.7318 119.442 91.6318C119.023 92.5312 118.137 93.1275 117.147 93.1839C114.918 93.6948 115.488 93.213 114.48 94.7494L114.207 98.4458C113.976 97.1028 113.982 94.7755 113.94 93.3385C113.174 92.7724 111.097 92.6863 110.034 92.5639C108.729 91.1699 109.154 90.3924 109.044 88.0178C109.038 86.6111 109.129 85.4935 109.239 84.0904C110.848 82.6668 111.261 83.1455 113.994 83.0207L114.049 82.4928Z" fill="#444853"/>
<path d="M109.044 88.0178C109.038 86.6111 109.129 85.4935 109.239 84.0904C110.848 82.6668 111.261 83.1455 113.994 83.0207C114.098 85.5365 114.505 85.6989 113.472 87.6111C111.583 88.1432 110.97 88.0681 109.044 88.0178Z" fill="#2F3644"/>
<path d="M117.147 93.1839C115.853 93.2572 114.693 92.4093 114.371 91.1608C114.049 89.9123 114.662 88.6111 115.822 88.0553C116.989 87.4996 118.386 87.8439 119.157 88.8772C119.752 89.6736 119.861 90.7318 119.442 91.6318C119.023 92.5312 118.137 93.1275 117.147 93.1839Z" fill="#778492"/>
<path d="M124.738 72.4399C124.805 76.2788 125.145 84.4808 124.587 87.9123L120.602 87.3923C119.114 85.8372 119.606 85.8553 119.485 83.0813L119.345 82.7213V77.5376C119.315 75.7194 119.248 75.0624 119.722 73.2739C121.513 72.1103 122.303 72.5036 124.738 72.4399Z" fill="#444853"/>
<path d="M119.485 83.0813C121.155 82.6904 122.145 82.2231 123.633 82.9419C124.599 84.5407 124.477 86.0069 124.587 87.9123L120.602 87.3923C119.114 85.8372 119.606 85.8553 119.485 83.0813Z" fill="#6A7582"/>
<path d="M93.5023 41.3656C96.4358 41.3407 96.3508 40.8722 98.4036 42.2274C101.465 47.9826 95.9985 52.3633 99.5576 56.3834C101.161 56.5889 102.764 56.8228 104.362 57.0852L109.014 57.2112L109.057 56.7361L109.233 52.1688L109.512 51.9391L114.517 51.83L119.406 51.7893C119.369 55.2142 118.877 64.421 120.202 67.155C122.655 68.7732 122.485 66.3308 124.574 68.4157C124.823 70.0963 124.805 70.7363 124.738 72.4399C122.303 72.5036 121.513 72.1103 119.722 73.2739C119.248 75.0624 119.315 75.7194 119.345 77.5376V82.7213L114.049 82.4928L113.994 83.0207C111.261 83.1455 110.848 82.6668 109.239 84.0904C109.129 85.4935 109.038 86.6111 109.044 88.0178L104.161 88.0759L104.143 93.1651C102.534 92.9845 100.475 93.047 98.8228 93.0427L98.8531 88.0657L93.2898 88.1299C93.5266 81.251 93.472 74.1982 93.5023 67.303L97.7294 67.4017C99.3389 66.0399 98.7803 64.029 98.6163 62.0847L93.3747 62.0726L93.393 57.2216L93.812 57.0816C93.1318 54.7312 93.3566 49.1275 93.3627 46.4427L93.5023 41.3656Z" fill="#2F3644"/>
<path d="M114.517 51.83L119.406 51.7893C119.369 55.2142 118.877 64.421 120.202 67.155C122.655 68.7732 122.485 66.3308 124.574 68.4157C124.823 70.0963 124.805 70.7363 124.738 72.4399C122.303 72.5036 121.513 72.1103 119.722 73.2739C119.248 75.0624 119.315 75.7194 119.345 77.5376C116.782 77.5625 116.995 77.9395 115.057 76.7959C111.96 71.4055 115.92 64.9683 114.134 57.8034C112.816 56.7864 110.988 56.9433 109.057 56.7361L109.233 52.1688L109.512 51.9391L114.517 51.83Z" fill="#02020A"/>
<path d="M93.5023 67.303L97.7294 67.4017L98.4401 67.5423C99.0474 70.5266 98.847 79.617 98.7742 83.0637L98.8652 87.3032L98.8531 88.0657L93.2898 88.1299C93.5266 81.251 93.472 74.1982 93.5023 67.303Z" fill="#5E616B"/>
<path d="M108.953 82.5692L114.049 82.4928L113.994 83.0207C111.261 83.1455 110.848 82.6668 109.239 84.0904C109.129 85.4935 109.038 86.6111 109.044 88.0178L104.161 88.0759L104.143 93.1651C102.534 92.9845 100.475 93.047 98.8228 93.0427L98.8531 88.0657L98.8652 87.3032L98.7742 83.0637L99.2236 83.1341C100.195 82.8347 102.479 82.7456 103.59 82.665L108.953 82.5692Z" fill="#141922"/>
<path d="M98.8531 88.0657L104.161 88.0759L104.143 93.1651C102.534 92.9845 100.475 93.047 98.8228 93.0427L98.8531 88.0657Z" fill="#2F3644"/>
<path d="M98.7742 83.0637L99.2236 83.1341C102.424 83.4468 102.443 82.9214 104.477 84.6481L104.605 85.9177C102.783 87.5814 102.509 87.4681 99.7459 87.3481C99.4483 87.3354 99.1567 87.3202 98.8652 87.3032L98.7742 83.0637Z" fill="#0A0E1B"/>
<path d="M98.4401 67.5423C100.985 67.3175 100.681 66.9781 102.752 67.9339C104.678 71.2182 103.451 78.2043 103.59 82.665C102.479 82.7456 100.195 82.8347 99.2236 83.1341L98.7742 83.0637C98.847 79.617 99.0474 70.5266 98.4401 67.5423Z" fill="#373F4B"/>
<path d="M104.362 57.0852L109.014 57.2112C109.804 65.2926 101.349 63.5162 98.7073 59.6222L99.1447 58.2125C101.295 56.7652 101.349 57.2319 104.362 57.0852Z" fill="#030612"/>
<path d="M93.812 57.0816C96.1746 57.0979 96.533 56.6919 98.1911 57.8549C98.4158 59.3968 98.5252 60.5283 98.6163 62.0847L93.3747 62.0726L93.393 57.2216L93.812 57.0816Z" fill="#5E616B"/>
<path d="M108.953 82.5692C109.111 79.4795 108.607 79.8861 110.241 77.8788L111.863 77.3261C114.778 78.8043 114.304 79.3818 114.049 82.4928L108.953 82.5692Z" fill="#02020A"/>
<path d="M61.337 15.5277C66.9125 15.3483 77.0735 15.0931 82.6976 15.4804C85.8315 16.0743 90.2834 16.1483 93.4841 15.7974L93.5389 20.6549C93.3992 22.6998 93.1866 23.6775 94.0429 25.589C95.3548 25.8036 95.5491 25.7345 96.8852 25.5466C99.26 27.0314 98.8106 27.5248 98.671 30.326L99.333 31.1782C101.064 31.1255 101.647 31.0291 103.341 31.4775C105.17 35.317 101.398 39.1929 105.704 41.922C106.664 41.8868 107.52 41.8456 108.48 41.7644C109.397 43.6105 109.251 44.6796 109.245 46.699L109.512 51.9391L109.233 52.1688L109.057 56.7361L109.014 57.2112L104.362 57.0852C102.764 56.8228 101.161 56.5889 99.5576 56.3834C95.9985 52.3633 101.465 47.9826 98.4036 42.2274C96.3508 40.8722 96.4358 41.3407 93.5023 41.3656C93.5266 38.5261 94.2372 34.5988 93.1015 32.2073C91.3159 30.746 91.3827 31.2254 88.5281 31.1236L83.7787 31.0678L83.2016 30.9782L78.9684 31.1L67.6839 31.123L62.3998 31.0867V25.9696C58.944 26.2272 56.053 26.5648 52.5911 26.1187C54.9233 25.9242 55.5004 26.2593 57.1949 25.0611L57.3771 22.6744L57.0613 21.092C57.699 18.481 56.8548 18.0344 58.3853 16.0877L61.1609 15.8228L61.337 15.5277Z" fill="#5E616B"/>
<path d="M57.0613 21.092C57.699 18.481 56.8548 18.0344 58.3853 16.0877L61.1609 15.8228C63.0194 15.9204 64.8354 16.0501 66.6939 15.9931C70.1679 15.9422 80.0981 15.4651 83.0255 16.4173C83.5661 17.7518 83.4386 18.2313 83.39 19.7083L84.2038 20.7362C86.7364 20.7586 87.0887 20.2816 88.5221 21.6489C88.8683 23.7962 88.9776 22.9095 87.9754 25.0126C86.3052 26.1278 81.4283 25.712 78.9867 25.8623C78.4401 28.1702 78.6222 28.7799 78.9684 31.1L67.6839 31.123L62.3998 31.0867V25.9696C58.944 26.2272 56.053 26.5648 52.5911 26.1187C54.9233 25.9242 55.5004 26.2593 57.1949 25.0611L57.3771 22.6744L57.0613 21.092Z" fill="#778492"/>
<path d="M62.3998 25.9696C63.9486 25.6635 74.8142 26.198 78.9867 25.8623C78.4401 28.1702 78.6222 28.7799 78.9684 31.1L67.6839 31.123L62.3998 31.0867V25.9696Z" fill="#5F6A7A"/>
<path d="M62.3998 25.9696C64.9993 26.2708 66.1229 25.903 67.6899 27.3969C67.7446 28.7715 67.8053 29.7545 67.6839 31.123L62.3998 31.0867V25.9696Z" fill="#4C545F"/>
<path d="M57.0613 21.092C57.699 18.481 56.8548 18.0344 58.3853 16.0877L61.1609 15.8228C63.0194 15.9204 64.8354 16.0501 66.6939 15.9931C67.0887 18.4459 67.4106 18.1283 66.5785 20.1507C63.0134 22.2253 59.1263 18.338 57.3771 22.6744L57.0613 21.092Z" fill="#6A7582"/>
<path d="M83.2016 30.9782C83.2502 28.1133 82.8007 28.3654 84.1916 26.3811C86.1958 25.6114 85.3516 25.6035 87.3437 26.4139C88.856 28.3812 88.3763 28.166 88.5281 31.1236L83.7787 31.0678L83.2016 30.9782Z" fill="#2F3644"/>
<path d="M109.057 56.7361C106.05 56.8349 105.947 57.0458 104.216 55.467C103.718 53.4864 103.609 54.2397 104.495 52.6051C106.743 51.4815 106.336 51.8754 109.233 52.1688L109.057 56.7361Z" fill="#8E9DA9"/>
<path d="M93.5389 20.6549C96.2112 20.6743 101.313 20.381 103.457 21.3174C103.712 22.2895 103.779 22.3392 103.852 23.3368L104.016 25.258C106.166 26.335 106.366 25.9102 109.111 25.8029C111.856 25.8526 112.203 25.409 114.158 26.6751C114.608 28.6175 114.577 29.0642 114.492 31.0673C117.31 31.0727 117.116 30.6248 119.048 31.9691C120.262 34.3728 119.357 38.454 119.424 41.4638L119.406 51.7893L114.517 51.83L109.512 51.9391L109.245 46.699C109.251 44.6796 109.397 43.6105 108.48 41.7644C107.52 41.8456 106.664 41.8868 105.704 41.922C101.398 39.1929 105.17 35.317 103.341 31.4775C101.647 31.0291 101.064 31.1255 99.333 31.1782L98.671 30.326C98.8106 27.5248 99.26 27.0314 96.8852 25.5466C95.5491 25.7345 95.3548 25.8036 94.0429 25.589C93.1866 23.6775 93.3992 22.6998 93.5389 20.6549Z" fill="#444853"/>
<path d="M114.492 31.0673C117.31 31.0727 117.116 30.6248 119.048 31.9691C120.262 34.3728 119.357 38.454 119.424 41.4638C116.77 41.5462 116.266 41.7825 114.741 40.3522C113.672 38.074 114.31 33.7576 114.492 31.0673Z" fill="#0A0E1B"/>
<path d="M109.111 25.8029C111.856 25.8526 112.203 25.409 114.158 26.6751C114.608 28.6175 114.577 29.0642 114.492 31.0673C112.555 31.2291 111.699 31.4369 109.816 30.8721C108.656 29.0617 109.093 28.2902 109.111 25.8029Z" fill="#02020A"/>
<path d="M109.245 46.699C111.796 46.8505 112.591 46.4323 114.25 47.7875C114.462 49.3954 114.529 50.2093 114.517 51.83L109.512 51.9391L109.245 46.699Z" fill="#5F6A7A"/>
<path d="M93.4841 15.7974C97.2557 15.3343 100.292 14.3494 103.378 16.2228C104.696 18.341 104.003 18.6301 104.58 20.8671C104.362 21.7174 104.192 22.5314 103.852 23.3368C103.779 22.3392 103.712 22.2895 103.457 21.3174C101.313 20.381 96.2112 20.6743 93.5389 20.6549L93.4841 15.7974Z" fill="#030612"/>
<path d="M119.424 41.4638C121.07 41.5056 123.02 41.0431 124.064 42.6468C125.777 45.2808 125.862 49.4694 123.141 51.65C121.841 51.7367 120.712 51.8293 119.406 51.7893L119.424 41.4638Z" fill="#0A0E1B"/>
<path d="M140.208 9.62084L140.214 10.513C140.165 11.8833 140.019 14.0494 140.062 15.3464C138.191 15.5791 137.754 15.6755 135.92 15.3228C134.79 13.6318 135.221 12.9258 135.246 10.5451L140.208 9.62084Z" fill="#5E616B"/>
<path d="M140.123 140.161C140.177 143.126 140.615 142.819 139.303 145.022C137.803 145.588 136.545 145.403 135.161 144.565L135.154 140.052L140.123 140.161Z" fill="#2F3644"/>
<path d="M104.58 20.8671C106.913 20.7768 107.168 20.3574 108.796 21.461C109.233 23.2332 109.154 24.0289 109.111 25.8029C106.366 25.9102 106.166 26.335 104.016 25.258L103.852 23.3368C104.192 22.5314 104.362 21.7174 104.58 20.8671Z" fill="#02020A"/>
<path d="M129.688 144.826C129.743 143.495 129.864 142.396 130.01 141.072C131.474 139.808 132.798 140.189 135.154 140.052L135.161 144.565C133.448 144.591 131.346 144.541 129.688 144.826Z" fill="#141922"/>
<path d="M131.601 134.267C133.047 133.822 134.596 134.56 135.154 135.963C135.713 137.366 135.094 138.962 133.739 139.628C132.761 140.109 131.595 140.001 130.721 139.349C129.846 138.696 129.415 137.611 129.603 136.538C129.785 135.466 130.563 134.588 131.601 134.267Z" fill="#828F9B"/>
<path d="M130.654 21.1041C131.711 20.2362 133.235 20.2362 134.298 21.1035C135.233 21.8714 135.586 23.1447 135.179 24.2841C134.772 25.4241 133.691 26.1848 132.476 26.1848C131.261 26.1854 130.18 25.4248 129.773 24.2854C129.36 23.1459 129.713 21.8726 130.654 21.1041Z" fill="#141922"/>
<path d="M130.654 21.1041C130.484 19.2059 130.113 17.8671 131.079 16.3174L132.409 15.5513C134.177 16.3016 133.606 15.801 134.584 17.4265C134.559 18.6259 134.644 20.0077 134.298 21.1035C133.235 20.2362 131.711 20.2362 130.654 21.1041Z" fill="#828F9B"/>
<path d="M140.214 10.513L145.012 10.5906C145.024 12.0639 145.115 14.2009 145.006 15.6137L141.264 15.3228L140.062 15.3464C140.019 14.0494 140.165 11.8833 140.214 10.513Z" fill="#444853"/>
<path d="M140.244 5.19292L145.243 5.18926C145.054 7.05838 144.787 8.72692 145.012 10.5906L140.214 10.513L140.208 9.62084L140.244 5.19292Z" fill="#02020A"/>
</svg>
