<svg width="168" height="162" viewBox="0 0 168 162" fill="none" xmlns="http://www.w3.org/2000/svg">
<path d="M66.1499 37.0594L102.449 37.0499C102.376 39.1704 102.186 42.0585 102.337 44.1085L103.056 44.1464L109.304 44.4561C112.963 44.4415 114.092 43.7539 116.512 45.5853C116.87 48.0741 116.946 49.1473 116.919 51.6602C121.007 51.9356 121.249 51.2479 123.785 53.4029L123.957 55.89C124.377 59.7506 124.026 63.372 126.027 65.9702C128.461 66.5364 129.093 66.5166 131.603 66.471C131.673 73.1501 131.951 81.0151 131.734 87.5969L131.753 95.6099L124.407 95.7682C124.407 99.7424 124.978 106.453 123.363 109.561C121.679 110.8 120.728 110.504 118.498 110.449C117.611 112.748 117.308 114.336 116.989 116.743C114.775 118.541 113.399 117.945 109.966 118.075L109.458 117.781C105.898 117.827 105.578 117.247 103.058 118.898C102.223 121.944 103.147 124.152 100.143 124.962L99.9805 125.48L101.799 126.483C102.512 129.139 102.446 129.973 102.436 132.665L94.4118 132.501C87.9852 132.553 80.7265 132.891 74.4287 132.044C72.5645 131.794 72.2416 125.584 67.7514 124.786C65.9842 127.241 66.3045 129.846 66.1937 133.007L65.2714 124.303C65.28 122.67 65.6896 119.559 65.8622 117.812L59.3566 117.683C58.8191 116.281 58.747 112.579 58.6465 110.898C56.194 110.867 53.6144 110.623 51.1577 110.443C49.3552 110.099 45.9711 110.323 44.0106 110.379C43.9067 106.245 45.0531 101.078 43.3022 97.603C40.6934 95.7716 40.8866 96.3913 37.0508 96.4007L36.727 95.9507C37.5952 90.8172 35.6348 69.2705 37.8228 67.1405C49.2754 66.1612 41.4259 58.8685 44.6212 52.9089C47.296 51.0096 47.2248 51.6507 51.1602 51.5974C51.4513 49.6438 51.782 47.6963 52.1512 45.7556C54.4792 44.0766 55.3087 44.6963 58.7169 44.7092C62.3304 44.6145 63.7103 45.0973 66.2315 43.2875L66.1499 37.0594Z" fill="#7E682E"/>
<path d="M103.056 44.1464L109.304 44.4561C112.963 44.4415 114.092 43.7539 116.512 45.5853C116.87 48.0741 116.946 49.1473 116.919 51.6602C121.007 51.9356 121.249 51.2479 123.785 53.4029L123.957 55.89C124.377 59.7506 124.026 63.372 126.027 65.9702C128.461 66.5364 129.093 66.5166 131.603 66.471C131.673 73.1501 131.951 81.0151 131.734 87.5969L131.753 95.6099L124.407 95.7682C124.407 99.7424 124.978 106.453 123.363 109.561C121.679 110.8 120.728 110.504 118.498 110.449C117.611 112.748 117.308 114.336 116.989 116.743C114.775 118.541 113.399 117.945 109.966 118.075L109.458 117.781C105.898 117.827 105.578 117.247 103.058 118.898C102.223 121.944 103.147 124.152 100.143 124.962L99.9805 125.48L101.799 126.483C102.512 129.139 102.446 129.973 102.436 132.665L94.4118 132.501C87.9852 132.553 80.7265 132.891 74.4287 132.044C72.5645 131.794 72.2416 125.584 67.7514 124.786C65.9842 127.241 66.3045 129.846 66.1937 133.007L65.2714 124.303C65.28 122.67 65.6896 119.559 65.8622 117.812L59.3566 117.683C58.8191 116.281 58.747 112.579 58.6465 110.898L58.8388 110.34C63.882 111.225 68.4074 109.224 72.8925 111.008C74.0466 115.608 74.84 117.657 80.3616 118.139C83.6873 118.429 92.2865 118.522 94.787 116.557L94.7922 111.827C98.987 107.776 103.002 114.728 102.422 104.539C102.285 102.13 109.619 104.059 109.973 101.616C110.449 98.3354 108.991 97.9068 111.404 95.516C113.801 95.5651 114.658 95.7338 116.913 94.9059C117.873 89.6692 117.181 73.4212 116.805 67.7895C114.031 65.2946 113.243 68.1216 109.79 66.0699C108.368 60.7575 110.276 58.8677 109.209 54.3409C106.738 51.8788 106.635 52.575 102.456 51.8874L102.296 44.5594L102.337 44.1085L103.056 44.1464Z" fill="#694920"/>
<path d="M65.8622 117.812C66.2341 120.45 66.0391 122.985 67.6037 124.442C75.825 125.465 91.4801 125.172 100.143 124.962L99.9805 125.48L101.799 126.483C102.512 129.139 102.446 129.973 102.436 132.665L94.4118 132.501C87.9852 132.553 80.7265 132.891 74.4287 132.044C72.5645 131.794 72.2416 125.584 67.7514 124.786C65.9842 127.241 66.3045 129.846 66.1937 133.007L65.2714 124.303C65.28 122.67 65.6896 119.559 65.8622 117.812Z" fill="#522A17"/>
<path d="M99.9805 125.48L101.799 126.483C102.512 129.139 102.446 129.973 102.436 132.665L94.4118 132.501C100.27 129.255 94.38 128.902 99.9805 125.48Z" fill="#30180F"/>
<path d="M123.957 55.89C124.377 59.7506 124.026 63.372 126.027 65.9702C128.461 66.5364 129.093 66.5166 131.603 66.471C131.673 73.1501 131.951 81.0151 131.734 87.5969L131.753 95.6099L124.407 95.7682L124.687 89.1976C124.99 84.3989 125.365 75.3403 124.218 70.7912L123.599 66.5131C123.665 62.9709 123.784 59.4288 123.957 55.89Z" fill="#522A17"/>
<path d="M131.734 87.5969L131.753 95.6099L124.407 95.7682L124.687 89.1976C128.084 88.9187 128.622 88.7363 131.734 87.5969Z" fill="#522A17"/>
<path d="M124.218 70.7912C125.365 75.3403 124.99 84.3989 124.687 89.1976L124.407 95.7682C124.407 99.7424 124.978 106.453 123.363 109.561C121.679 110.8 120.728 110.504 118.498 110.449L117.876 110.201C117.729 107.479 117.358 102.871 117.681 100.285C118.226 95.9291 120.711 96.0841 123.275 94.2037C124.555 86.0822 123.142 78.966 124.125 71.465L124.218 70.7912Z" fill="#613214"/>
<path d="M103.056 44.1464L109.304 44.4561C112.963 44.4415 114.092 43.7539 116.512 45.5853C116.87 48.0741 116.946 49.1473 116.919 51.6602L109.361 51.7996C107.499 51.6998 104.423 51.8547 102.456 51.8874L102.296 44.5594L102.337 44.1085L103.056 44.1464Z" fill="#493019"/>
<path d="M103.056 44.1464L109.304 44.4561L109.361 51.7996C107.499 51.6998 104.423 51.8547 102.456 51.8874L102.296 44.5594L102.337 44.1085L103.056 44.1464Z" fill="#694920"/>
<path d="M116.919 51.6602C121.007 51.9356 121.249 51.2479 123.785 53.4029L123.957 55.89C123.784 59.4288 123.665 62.9709 123.599 66.5131C121.028 66.6534 120.055 66.9814 117.973 65.5261C116.303 62.1009 116.926 55.9477 116.919 51.6602Z" fill="#613214"/>
<path d="M117.876 110.201L118.498 110.449C117.611 112.748 117.308 114.336 116.989 116.743C114.775 118.541 113.399 117.945 109.966 118.075L109.458 117.781L109.765 112.628C111.504 110.603 114.215 111.026 117.876 110.201Z" fill="#493019"/>
<path d="M36.727 95.9507C37.5952 90.8172 35.6348 69.2705 37.8228 67.1405C39.9438 67.323 41.9368 67.6354 44.0218 67.2852C43.899 74.3111 43.1485 89.3095 44.9827 95.3164C49.2823 97.6942 52.4423 92.3508 51.812 102.984L51.1577 110.443C49.3552 110.099 45.9711 110.323 44.0106 110.379C43.9067 106.245 45.0531 101.078 43.3022 97.603C40.6934 95.7716 40.8866 96.3913 37.0508 96.4007L36.727 95.9507Z" fill="#613214"/>
<path d="M66.1499 37.0594L102.449 37.0499C102.376 39.1704 102.186 42.0585 102.337 44.1085L102.296 44.5594C98.3473 43.8993 72.2004 44.6024 66.2624 44.7031L66.2315 43.2875L66.1499 37.0594Z" fill="#694920"/>
<path d="M51.1602 51.5974L51.6222 51.8349C51.1809 57.0079 50.84 61.915 51.0967 67.125C49.1689 67.1173 45.8045 66.9969 44.0218 67.2852C41.9368 67.6354 39.9438 67.323 37.8228 67.1405C49.2754 66.1612 41.4259 58.8685 44.6212 52.9089C47.296 51.0096 47.2248 51.6507 51.1602 51.5974Z" fill="#613214"/>
<path d="M66.2315 43.2875L66.2624 44.7031C65.9979 48.5233 66.6059 48.7729 64.6712 51.3469C62.4677 51.6241 61.2398 51.7609 59.0235 51.7342L58.4129 51.4519L51.6222 51.8349L51.1602 51.5974C51.4513 49.6438 51.782 47.6963 52.1512 45.7556C54.4792 44.0766 55.3087 44.6963 58.7169 44.7092C62.3304 44.6145 63.7103 45.0973 66.2315 43.2875Z" fill="#694920"/>
<path d="M51.1602 51.5974C51.4513 49.6438 51.782 47.6963 52.1512 45.7556C54.4792 44.0766 55.3087 44.6963 58.7169 44.7092L58.4129 51.4519L51.6222 51.8349L51.1602 51.5974Z" fill="#493019"/>
<path d="M58.4129 51.4519L59.0235 51.7342C57.519 65.2774 52.5986 54.4149 51.0967 67.125C50.84 61.915 51.1809 57.0079 51.6222 51.8349L58.4129 51.4519Z" fill="#694920"/>
<path d="M51.812 102.984C55.623 103.257 56.1992 102.65 58.7384 104.595C59.0071 106.94 58.9642 107.975 58.8388 110.34L58.6465 110.898C56.194 110.867 53.6144 110.623 51.1577 110.443L51.812 102.984Z" fill="#694920"/>
<path d="M0 81.083C0.129665 78.602 -0.218975 75.8902 1.06136 74.3007C6.94095 73.8712 23.1689 73.5821 28.8226 74.5434C29.5268 77.1062 29.4237 78.4927 29.4263 81.0908C29.507 83.8266 29.7131 85.1889 28.7015 87.8C22.3462 88.4927 7.45361 88.4936 1.1524 87.8473C-0.187192 85.8223 0.170025 83.8499 0 81.083Z" fill="#725B25"/>
<path d="M0 81.083C0.129665 78.602 -0.218975 75.8902 1.06136 74.3007C6.94095 73.8712 23.1689 73.5821 28.8226 74.5434C29.5268 77.1062 29.4237 78.4927 29.4263 81.0908C19.7993 80.8154 9.6665 81.0288 0 81.083Z" fill="#493019"/>
<path d="M73.6808 0.18541C78.633 0.0348062 83.0373 -0.244042 87.9749 0.442712C87.9663 7.05294 87.6322 17.0737 88.0212 23.4042C88.0917 25.6581 88.3785 26.6573 87.257 28.4801C83.9999 30.4044 77.9597 29.4973 73.7787 29.3906L73.6808 0.18541Z" fill="#613214"/>
<path d="M88.0212 23.4042L81.6505 23.4972C80.5144 21.5592 80.2216 2.80081 81.714 0.894594L87.9749 0.442712C87.9663 7.05294 87.6322 17.0737 88.0212 23.4042Z" fill="#7E682E"/>
<path d="M161.496 73.7456C165.533 74.0855 165.317 73.3695 167.449 75.6535L167.923 81.1562C167.958 83.6123 168.327 85.923 167.072 87.8782C162.709 88.7638 143.612 88.8215 139.424 87.9316L139.388 81.9703C139.234 79.3265 138.948 78.058 139.892 75.5718C143.892 72.4194 154.752 73.9659 161.496 73.7456Z" fill="#725B25"/>
<path d="M161.496 73.7456C165.533 74.0855 165.317 73.3695 167.449 75.6535L167.923 81.1562L161.715 80.8851C157.455 80.8386 143.168 80.2543 140.251 81.8189L139.388 81.9703C139.234 79.3265 138.948 78.058 139.892 75.5718C143.892 72.4194 154.752 73.9659 161.496 73.7456Z" fill="#493019"/>
<path d="M161.496 73.7456C165.533 74.0855 165.317 73.3695 167.449 75.6535L167.923 81.1562L161.715 80.8851L161.496 73.7456Z" fill="#312518"/>
<path d="M140.251 81.8189C143.168 80.2543 157.455 80.8386 161.715 80.8851L167.923 81.1562C167.958 83.6123 168.327 85.923 167.072 87.8782C162.709 88.7638 143.612 88.8215 139.424 87.9316C144.667 87.2397 158.916 88.7285 161.401 86.7758L161.23 82.5409C158.004 80.4823 144.612 81.6373 140.251 81.8189Z" fill="#694920"/>
<path d="M80.9008 161.978C78.1778 162.051 77.1843 161.946 74.4991 161.598C73.3923 158.319 73.7821 144.753 74.1093 140.834C75.9779 139.757 78.268 140.12 80.7205 140.063C83.0596 140.23 85.9792 139.982 87.5009 141.19C87.8246 144.992 88.6653 158.694 87.4038 161.561C85.124 161.774 83.2116 161.95 80.9008 161.978Z" fill="#725B25"/>
<path d="M80.9008 161.978C78.1778 162.051 77.1843 161.946 74.4991 161.598C73.3923 158.319 73.7821 144.753 74.1093 140.834C75.9779 139.757 78.268 140.12 80.7205 140.063C80.7514 147.091 80.6063 155.029 80.9008 161.978Z" fill="#493019"/>
<path d="M133.078 95.7415C142.11 95.3637 143.263 93.9549 148.043 102.233C150.437 102.989 151.512 102.963 153.974 103.074L153.957 110.446C150.189 110.664 143.674 111.775 140.791 110.125C138.649 107.188 139.353 107.52 139.308 103.137C136.73 103.28 135.79 103.245 133.225 102.943C131.18 100.38 131.885 99.6839 131.753 95.6099L133.078 95.7415Z" fill="#694920"/>
<path d="M139.308 103.137L141.444 103.159L145.94 103.483L153.974 103.074L153.957 110.446C150.189 110.664 143.674 111.775 140.791 110.125C138.649 107.188 139.353 107.52 139.308 103.137Z" fill="#522A17"/>
<path d="M153.974 103.074L153.957 110.446L147.757 110.045C145.542 107.825 146.25 107.53 145.94 103.483L153.974 103.074Z" fill="#725B25"/>
<path d="M133.078 95.7415C142.11 95.3637 143.263 93.9549 148.043 102.233C150.437 102.989 151.512 102.963 153.974 103.074L145.94 103.483L141.444 103.159C141.15 101.473 140.699 99.7046 140.311 98.029C137.561 95.8207 137.079 96.3827 133.078 95.7415Z" fill="#493019"/>
<path d="M138.709 59.3272L139.766 53.3675C142.087 51.2419 142.688 51.9425 146.69 51.7144C149.918 51.7506 151.036 51.2427 153.557 52.6705C154.475 55.2772 154.331 56.3848 154.366 59.106C150.685 59.4778 149.45 58.8969 147.278 61.0123L146.724 66.2662L139.408 66.3015L131.603 66.471C131.599 64.2249 131.7 62.9322 131.966 60.6998C134.459 58.8169 134.911 59.4563 138.709 59.3272Z" fill="#522A17"/>
<path d="M138.709 59.3272L139.252 59.5114L139.408 66.3015L131.603 66.471C131.599 64.2249 131.7 62.9322 131.966 60.6998C134.459 58.8169 134.911 59.4563 138.709 59.3272Z" fill="#613214"/>
<path d="M146.69 51.7144C149.918 51.7506 151.036 51.2427 153.557 52.6705C154.475 55.2772 154.331 56.3848 154.366 59.106C151.813 58.9365 150.532 58.822 147.97 58.3143C146.193 55.6585 146.792 55.4821 146.69 51.7144Z" fill="#7E682E"/>
<path d="M139.252 59.5114C142.856 59.415 143.291 58.8014 145.89 60.3763C146.533 62.8144 146.577 63.7369 146.724 66.2662L139.408 66.3015L139.252 59.5114Z" fill="#725B25"/>
<path d="M109.458 117.781L109.966 118.075C109.791 120.453 109.437 123.82 109.514 126.12C109.657 130.331 109.046 135.774 111.009 138.894C113.185 140.152 114.524 139.939 117.047 139.998L109.713 140.563L109.171 139.818L102.785 139.784C102.581 138.161 102.515 134.449 102.436 132.665C102.446 129.973 102.512 129.139 101.799 126.483L99.9805 125.48L100.143 124.962C103.147 124.152 102.223 121.944 103.058 118.898C105.578 117.247 105.898 117.827 109.458 117.781Z" fill="#694920"/>
<path d="M109.458 117.781L109.966 118.075C109.791 120.453 109.437 123.82 109.514 126.12C106.227 126.015 105.656 125.417 103.318 126.958C102.874 129.442 102.925 130.186 103.054 132.718C102.984 134.823 102.984 137.764 102.785 139.784C102.581 138.161 102.515 134.449 102.436 132.665C102.446 129.973 102.512 129.139 101.799 126.483L99.9805 125.48L100.143 124.962C103.147 124.152 102.223 121.944 103.058 118.898C105.578 117.247 105.898 117.827 109.458 117.781Z" fill="#522A17"/>
<path d="M103.054 132.718C106.532 133.125 106.92 132.545 109.018 134.59C109.073 136.307 109.163 138.107 109.171 139.818L102.785 139.784C102.984 137.764 102.984 134.823 103.054 132.718Z" fill="#725B25"/>
<path d="M110.039 22.3776L109.973 22.9989C110.374 31.3381 112.198 34.7504 103.57 38.2736C102.582 40.5981 102.871 41.6343 103.056 44.1464L102.337 44.1085C102.186 42.0585 102.376 39.1704 102.449 37.0499C102.834 33.462 102.424 27.2907 102.842 22.4731L110.039 22.3776Z" fill="#613214"/>
<path d="M110.039 22.3776L109.973 22.9989C109.605 27.4258 110.221 28.8338 106.279 31.2219L104.575 30.4327C102.635 28.2615 102.931 25.4275 102.842 22.4731L110.039 22.3776Z" fill="#7E682E"/>
<path d="M58.7298 22.4783C62.4652 22.4662 62.922 21.8819 65.7703 23.4671C66.7098 25.9946 66.3826 28.0842 66.2684 30.8045L66.1499 37.0594C63.7043 37.0861 62.3046 37.0412 59.8761 36.7736C58.1261 34.7563 58.6551 34.4397 58.4773 31.3088L58.7298 22.4783Z" fill="#7E682E"/>
<path d="M58.4773 31.3088L66.2684 30.8045L66.1499 37.0594C63.7043 37.0861 62.3046 37.0412 59.8761 36.7736C58.1261 34.7563 58.6551 34.4397 58.4773 31.3088Z" fill="#613214"/>
<path d="M65.2714 124.303L66.1937 133.007C66.1267 134.959 66.1241 137.947 65.8803 139.79C63.572 139.912 61.0122 140.109 58.7255 140.121C58.5503 136.257 58.6774 131.377 58.6645 127.425C61.208 124.808 61.2535 125.444 65.2714 124.303Z" fill="#613214"/>
<path d="M59.1969 132.658C62.7769 132.808 63.1719 132.158 65.2294 134.151L65.8803 139.79C62.594 139.35 61.3712 139.823 59.4743 137.87C59.3558 136.134 59.2639 134.397 59.1969 132.658Z" fill="#725B25"/>
<path d="M22.372 103.328C22.2981 100.675 22.0594 99.5824 23.1268 97.1357C26.5024 94.5014 32.1579 95.6581 36.727 95.9507L37.0508 96.4007C36.8644 100.582 37.56 100.055 35.3196 102.604C31.5937 104.176 26.6655 103.123 22.372 103.328Z" fill="#694920"/>
<path d="M28.7934 59.1895C33.2527 59.2687 32.7684 58.5794 35.919 60.73L36.7863 62.8858C35.4682 65.6758 36.2848 64.8316 33.8246 66.2825L29.0528 66.4348C26.3942 66.5218 25.6566 66.7498 23.3578 65.4985C21.7219 62.8591 21.9083 63.9873 22.4038 61.2627C25.0117 58.7162 24.2964 59.4838 28.7934 59.1895Z" fill="#694920"/>
<path d="M29.0528 66.4348C26.3942 66.5218 25.6566 66.7498 23.3578 65.4985C21.7219 62.8591 21.9083 63.9873 22.4038 61.2627C25.0117 58.7162 24.2964 59.4838 28.7934 59.1895L29.0528 66.4348Z" fill="#764425"/>
<path d="M29.568 29.5524C33.5747 29.6789 33.8615 28.9869 36.3518 31.0257L37.7292 37.2022C37.3926 38.3932 37.1409 39.5155 36.6317 40.636C36.5768 39.2461 36.4548 39.0077 36.1423 37.685C34.4154 37.1764 32.6782 36.7005 30.9325 36.259C28.9746 33.8795 29.6573 33.4371 29.568 29.5524Z" fill="#7E682E"/>
<path d="M44.0106 110.379C45.9711 110.323 49.3552 110.099 51.1577 110.443C53.6144 110.623 56.194 110.867 58.6465 110.898C58.747 112.579 58.8191 116.281 59.3566 117.683L58.6216 117.89C46.774 116.308 55.9029 112.323 44.0106 110.379Z" fill="#522A17"/>
<path d="M139.424 132.393C142.998 132.615 144.176 132.04 146.552 133.932C146.942 136.632 146.921 137.319 146.703 140.044C143.325 139.994 142.195 140.572 139.781 138.938C139.047 136.269 139.273 135.117 139.424 132.393Z" fill="#6C5326"/>
<path d="M15.9007 52.3598C17.6293 50.9054 20.2055 51.1188 21.6721 52.8383C23.1397 54.5578 22.949 57.1413 21.2462 58.6267C19.5219 60.131 16.9046 59.9374 15.419 58.1964C13.9334 56.4545 14.1498 53.8332 15.9007 52.3598Z" fill="#7E682E"/>
<path d="M14.6238 110.546C14.6625 108.122 14.7767 107.005 15.1657 104.611C17.7161 102.733 18.5069 103.403 22.372 103.328C22.4767 105.861 22.5875 106.786 21.9727 109.301C19.1286 111.12 18.5842 110.479 14.6238 110.546Z" fill="#7E682E"/>
<path d="M131.728 125.233C135.869 125.259 136.288 124.54 138.984 126.547C139.435 129.096 139.508 129.81 139.424 132.393C135.602 132.318 134.954 132.951 132.285 131.156C131.792 128.633 131.738 127.809 131.728 125.233Z" fill="#7E682E"/>
<path d="M36.4557 125.041C36.5373 121.349 35.9559 120.9 37.6364 118.212C40.1233 117.425 41.4706 117.604 44.0175 117.688C43.9033 121.521 44.5164 121.904 42.7088 124.606C40.0649 125.053 39.1435 125.084 36.4557 125.041Z" fill="#7E682E"/>
<path d="M51.7425 14.7596C55.3018 14.9283 55.6925 14.3715 58.2206 16.0781C58.8801 18.9275 58.8199 19.6357 58.7298 22.4783C55.4718 22.4155 54.5968 22.9309 52.1134 21.4283C51.3294 18.8302 51.5922 17.4464 51.7425 14.7596Z" fill="#997547"/>
<path d="M124.521 117.785C127.032 117.676 128.171 117.501 130.63 118.288C132.198 120.855 131.709 121.82 131.861 125.164C129.261 125.354 128.539 125.386 125.968 125.013C124.073 122.336 124.699 121.682 124.521 117.785Z" fill="#7E682E"/>
<path d="M21.7821 22.5101C25.6557 22.5317 26.5093 21.8423 29.0639 23.6986C29.4031 25.9964 29.5268 27.2313 29.568 29.5524C25.459 29.4534 25.0744 30.1367 22.2921 28.1521C21.8061 25.7244 21.7709 24.9921 21.7821 22.5101Z" fill="#725B25"/>
<path d="M131.967 29.7142C134.556 29.6204 135.515 29.5429 138.114 30.0016C139.864 32.6265 139.212 32.9104 139.137 36.74C136.549 36.8244 135.441 36.9449 132.845 36.3364C131.282 33.7357 131.885 33.3063 131.967 29.7142Z" fill="#997547"/>
<path d="M36.4557 125.041C36.3767 129.18 37.1057 129.691 35.0345 132.244C32.8663 132.495 31.5173 132.605 29.3361 132.61C29.3172 129.836 29.2932 129.027 29.8797 126.238C32.2472 124.598 33.1377 125.144 36.4557 125.041Z" fill="#7E682E"/>
<path d="M139.4 22.4C142.159 22.3699 142.984 22.381 145.679 22.9163C147.218 25.2829 146.581 26.2167 146.451 29.5541C144.135 29.6221 142.877 29.5661 140.57 29.3415C138.677 26.8621 139.381 26.3157 139.4 22.4Z" fill="#7E682E"/>
<path d="M37.7292 37.2022C40.3208 37.0025 41.6638 36.5765 43.7393 38.0189C45.1759 41.0327 44.2399 42.0525 41.7651 44.2109C38.751 44.9527 39.9575 45.0809 37.2208 43.7969C36.4557 42.2487 36.4986 42.3649 36.6317 40.636C37.1409 39.5155 37.3926 38.3932 37.7292 37.2022Z" fill="#7E682E"/>
<path d="M59.3566 117.683L65.8622 117.812C65.6896 119.559 65.28 122.67 65.2714 124.303C61.2535 125.444 61.208 124.808 58.6645 127.425L58.6216 117.89L59.3566 117.683Z" fill="#30180F"/>
<path d="M125.37 37.7969C126.887 36.3003 129.314 36.2779 130.859 37.7461C132.403 39.2134 132.509 41.6437 131.098 43.2418C130.142 44.3245 128.672 44.7986 127.264 44.4776C125.856 44.1566 124.735 43.0912 124.341 41.6996C123.947 40.308 124.341 38.8115 125.37 37.7969Z" fill="#7E682E"/>
<path d="M110.039 22.3776C110.209 18.64 109.608 18.0359 111.427 15.4739C113.823 15.0204 114.618 14.9007 117.05 14.9136C116.962 18.7932 117.647 19.5393 115.716 21.9714C113.512 22.2554 112.26 22.369 110.039 22.3776Z" fill="#997547"/>
<path d="M29.3361 132.61C29.2812 134.976 29.1747 136.238 28.82 138.577C26.6192 140.302 25.9914 139.761 22.7223 139.941C22.2707 137.333 22.0105 136.485 22.5729 133.853C25.0211 132.112 25.8463 132.701 29.3361 132.61Z" fill="#725B25"/>
<path d="M117.047 139.998C116.989 144.13 117.614 143.749 115.691 146.752L113.622 147.704C110.738 146.597 111.717 147.369 109.962 144.746L109.713 140.563L117.047 139.998Z" fill="#7E682E"/>
<path d="M51.6317 147.302C51.5681 144.766 51.4514 143.754 52.1177 141.268C54.5882 139.724 55.4581 140.229 58.7255 140.121C58.7667 142.488 58.6757 143.605 58.3751 145.956C56.2155 147.721 54.9755 147.152 51.6317 147.302Z" fill="#997547"/>
</svg>
