<svg width="168" height="173" viewBox="0 0 168 173" fill="none" xmlns="http://www.w3.org/2000/svg">
<path d="M30.8493 0.218953L114.95 0.216576C118.933 0.214196 144.402 -0.0607214 146.778 0.580113C147.445 2.34434 147.361 3.17203 147.373 5.00945L147.945 4.92853C149.665 4.96601 150.826 4.75121 152.321 5.66635C152.827 7.25921 152.714 8.72416 152.66 10.3688C154.625 10.3634 155.845 10.0451 157.494 11.1608C157.744 12.5114 157.798 13.7521 157.768 15.123C159.542 15.142 160.668 14.851 162.15 15.9173C162.811 17.888 162.763 19.1774 164.645 20.1794L167.735 20.1318L167.854 149.722C167.883 155.228 168.294 161.017 167.592 166.484C166.074 167.966 163.591 166.544 162.692 168.222C162.108 169.311 163.4 171.845 161.847 172.53C160.251 173.232 46.6323 172.928 35.4514 172.791C34.0642 172.774 32.7068 172.625 31.3375 172.428C29.9979 170.608 31.3315 168.959 29.6942 167.46L26.2888 167.448C24.9314 165.734 26.3126 164.062 24.7051 162.651C22.0677 162.346 17.9418 163.297 15.7806 162.106C15.6437 160.741 15.5307 159.373 15.4533 158.003C13.56 156.833 11.8394 158.174 10.3272 156.508C10.226 154.752 10.4641 153.65 9.30911 152.257C8.16601 152.131 7.08841 151.953 5.96914 151.662C4.35571 149.347 4.963 145.258 5.03445 142.496L0.182233 142.199C0.128651 135.824 -0.31188 129.177 0.408507 122.844C1.81951 121.861 3.41507 122.064 5.1178 121.952C5.16543 120.255 5.31429 118.555 5.42145 116.861L10.3093 116.674C9.9164 110.236 10.2558 103.548 10.2558 97.0825L10.22 27.6154C10.22 21.971 9.87477 16.1279 10.488 10.5264C11.8514 10.4759 13.0956 10.361 14.4292 10.0516C15.5247 8.48614 15.1972 7.1265 15.2032 5.25636C16.6678 4.98443 18.7277 5.04576 20.2638 5.0291C20.365 2.63594 20.0018 2.49012 21.1271 0.756242C23.6573 -0.462949 27.6998 0.138626 30.8493 0.218953Z" fill="#162C5B"/>
<path d="M20.3769 35.3256C22.0379 35.4321 23.4787 35.4636 25.1219 35.1423C26.1995 33.2091 25.5446 28.7638 25.5863 26.3861C27.0271 25.0675 28.8131 26.0999 30.4444 24.9295C30.5515 23.6401 30.6409 22.3482 30.7123 21.0559C32.1174 20.0414 33.0938 20.3395 34.7727 20.3544C36.1658 19.0656 35.2371 17.4376 36.3266 15.7692C44.6199 14.5137 54.3779 15.5067 62.8141 15.5466C81.0739 15.6329 99.411 15.8108 117.659 15.189C117.063 17.118 117.135 18.4676 117.373 20.4347L116.909 20.4847L117.248 25.1175C119.147 25.4977 120.183 25.3614 121.463 26.8686L121.951 29.7592C123.779 30.8374 125.982 29.8675 127.137 31.3783C127.107 33.0984 126.631 34.6324 127.845 35.9141L131.019 36.2127C132.823 38.8784 132.858 87.1504 132.263 93.1946C132.382 99.8904 133.507 110.434 132.049 116.688C130.382 116.7 128.697 116.465 127.351 117.567L127.417 118.213C127.5 119.026 127.494 119.822 127.47 120.638L126.369 121.947C124.97 121.914 123.678 121.785 122.35 122.332C122.005 123.619 121.987 124.728 122.035 126.055C121.064 127.114 119.457 126.974 118.04 127.023C114.313 127.149 110.544 127.02 106.811 126.98L66.2613 127.003L61.5758 126.979C55.3543 127.015 47.7039 128.026 41.7205 126.703C40.6906 125.572 40.9942 124.722 40.8692 123.282C40.631 120.586 37.4637 122.58 35.5288 120.921C35.624 119.757 35.6419 118.795 35.4335 117.644C33.7129 116.659 32.814 116.817 30.8612 116.8L25.6993 116.683C25.741 118.204 26.1578 120.717 25.0743 121.916C24.985 122.018 24.8659 122.095 24.7587 122.185C23.3358 122.162 21.895 121.942 20.478 121.789L20.4066 112.38L20.3769 35.3256Z" fill="#244171"/>
<path d="M20.3769 35.3256C22.0379 35.4321 23.4787 35.4636 25.1219 35.1423C26.1995 33.2091 25.5446 28.7638 25.5863 26.3861C27.0271 25.0675 28.8131 26.0999 30.4444 24.9295C30.5515 23.6401 30.6409 22.3482 30.7123 21.0559C32.1174 20.0414 33.0938 20.3395 34.7727 20.3544C36.1658 19.0656 35.2371 17.4376 36.3266 15.7692C44.6199 14.5137 54.3779 15.5067 62.8141 15.5466C81.0739 15.6329 99.411 15.8108 117.659 15.189C117.063 17.118 117.135 18.4676 117.373 20.4347L116.909 20.4847L117.248 25.1175C108.794 25.0544 53.3836 23.7841 50.6866 25.7982C50.2044 27.3887 50.2044 28.8673 50.1985 30.5066C48.5969 30.5667 47.7039 30.3525 46.4001 31.4068C45.9416 33.3531 46.0309 34.5985 44.4413 35.8713L40.8156 35.8802C39.3391 35.8135 37.3447 35.4208 36.0706 36.2628C33.8201 45.0595 37.303 56.1977 34.6596 65.2342C33.6772 65.7596 33.058 65.6328 32.0102 65.4757C29.6109 68.1569 31.528 109.272 30.8612 116.8L25.6993 116.683C25.741 118.204 26.1578 120.717 25.0743 121.916C24.985 122.018 24.8659 122.095 24.7587 122.185C23.3358 122.162 21.895 121.942 20.478 121.789L20.4066 112.38L20.3769 35.3256Z" fill="#162C5B"/>
<path d="M20.3769 35.3256C22.0379 35.4321 23.4787 35.4636 25.1219 35.1423C26.1995 33.2091 25.5446 28.7638 25.5863 26.3861C27.0271 25.0675 28.8131 26.0999 30.4444 24.9295C30.5515 23.6401 30.6409 22.3482 30.7123 21.0559C32.1174 20.0414 33.0938 20.3395 34.7727 20.3544C36.1658 19.0656 35.2371 17.4376 36.3266 15.7692C44.6199 14.5137 54.3779 15.5067 62.8141 15.5466C81.0739 15.6329 99.411 15.8108 117.659 15.189C117.063 17.118 117.135 18.4676 117.373 20.4347L116.909 20.4847L67.9045 20.3472C59.5218 20.3407 50.395 19.6356 42.1016 20.7179C40.7144 22.2269 41.2859 23.9697 39.9226 25.5238C38.1484 25.3418 37.7316 25.1193 36.2135 26.1849C36.0289 27.4809 35.9395 28.753 35.886 30.0615C33.8796 31.267 32.1114 29.8794 30.6706 31.7263C30.623 33.174 30.8909 34.6907 30.0157 35.8641L26.4435 36.2276C24.6694 39.4407 25.7053 107.206 25.6993 116.683C25.741 118.204 26.1578 120.717 25.0743 121.916C24.985 122.018 24.8659 122.095 24.7587 122.185C23.3358 122.162 21.895 121.942 20.478 121.789L20.4066 112.38L20.3769 35.3256Z" fill="#09182F"/>
<path d="M51.4905 30.6214L51.8655 26.8597C58.5395 25.7083 114.301 24.9241 117.23 26.3819C117.635 27.807 117.552 27.9783 117.058 29.3885C111.515 34.3801 80.157 27.6594 77.216 31.7591C76.8885 32.2089 76.8528 35.1132 76.7754 35.8397C73.882 35.7201 70.024 36.6965 67.3806 35.4678C66.053 33.8601 66.297 32.9283 66.1839 30.885C64.7193 30.8433 63.2786 30.7761 61.814 30.9457L61.6116 31.5692C61.552 31.4931 61.5044 31.4068 61.4329 31.3396C59.8612 29.8693 53.6754 30.594 51.4905 30.6214Z" fill="#294875"/>
<path d="M66.1839 30.885C69.4644 30.5262 73.2211 29.4563 76.0252 31.6067C76.567 33.0419 76.6623 34.3296 76.7754 35.8397C73.882 35.7201 70.024 36.6965 67.3806 35.4678C66.053 33.8601 66.297 32.9283 66.1839 30.885Z" fill="#4A79AC"/>
<path d="M50.1985 30.5066L51.4905 30.6214C53.6754 30.594 59.8612 29.8693 61.4329 31.3396C61.5044 31.4068 61.552 31.4931 61.6116 31.5692C61.4568 33.3138 61.5044 34.2147 60.4982 35.6986C58.6229 35.5362 58.0095 35.3232 56.3366 36.321C56.152 37.6194 56.0865 38.8749 56.0746 40.1857C54.229 41.2365 52.7168 40.1357 50.9902 41.3459L50.8117 45.1594C49.3888 46.4161 46.8168 45.1565 46.0131 46.5583C45.0069 48.3273 46.6977 49.9386 44.2091 51.2857C42.8933 51.0692 42.0956 51.1322 41.1013 50.1671C40.2143 45.598 40.7084 40.532 40.8156 35.8802L44.4413 35.8713C46.0309 34.5985 45.9416 33.3531 46.4001 31.4068C47.7039 30.3525 48.5969 30.5667 50.1985 30.5066Z" fill="#4A79AC"/>
<path d="M127.137 106.442C127.417 104.661 127.292 102.999 128.602 101.715C130.179 101.914 130.28 101.933 131.4 103.052C133.061 107.43 131.435 112.178 132.049 116.688C130.382 116.7 128.697 116.465 127.351 117.567L127.417 118.213C127.5 119.026 127.494 119.822 127.47 120.638L126.369 121.947C124.97 121.914 123.678 121.785 122.35 122.332C122.005 123.619 121.987 124.728 122.035 126.055C121.064 127.114 119.457 126.974 118.04 127.023C114.313 127.149 110.544 127.02 106.811 126.98C106.746 125.43 107.097 123.722 107.27 122.171C110.306 122.214 113.325 122.271 116.361 122.041C117.909 120.502 116.742 118.805 117.986 116.997L121.422 116.937C123.118 115.854 121.916 113.473 123.321 111.647C124.303 111.355 125.006 111.29 126.03 111.351L126.357 111.374C127.333 109.869 127.131 108.174 127.137 106.442Z" fill="#4A79AC"/>
<path d="M67.3092 122.129C80.6155 122.409 93.9516 122.204 107.27 122.171C107.097 123.722 106.746 125.43 106.811 126.98L66.2613 127.003C66.2077 125.325 66.3804 123.805 66.6364 122.158L67.3092 122.129Z" fill="#3C6497"/>
<path d="M67.3092 122.129C74.9239 119.746 102.852 123.958 106.698 120.79C106.764 119.434 106.835 118.379 107.371 117.123C110.128 116.09 113.575 117.477 116.575 116.907C117.974 115.25 116.932 113.637 118.165 111.786C119.302 111.656 120.445 111.518 121.582 111.369C122.44 110.158 122.571 109.349 122.588 107.87C122.594 107.714 122.588 107.559 122.588 107.403C123.862 106.291 125.476 106.553 127.137 106.442C127.131 108.174 127.333 109.869 126.357 111.374L126.03 111.351C125.006 111.29 124.303 111.355 123.321 111.647C121.916 113.473 123.118 115.854 121.422 116.937L117.986 116.997C116.742 118.805 117.909 120.502 116.361 122.041C113.325 122.271 110.306 122.214 107.27 122.171C93.9516 122.204 80.6155 122.409 67.3092 122.129Z" fill="#274D84"/>
<path d="M127.06 102.076C127.834 97.4907 125.738 89.5918 128.756 86.0824L131.84 86.0402C131.947 88.3934 131.918 90.8687 132.263 93.1946C132.382 99.8904 133.507 110.434 132.049 116.688C131.435 112.178 133.061 107.43 131.4 103.052C130.28 101.933 130.179 101.914 128.602 101.715C127.292 102.999 127.417 104.661 127.137 106.442L127.06 102.076Z" fill="#3C6497"/>
<path d="M127.06 102.076C126.554 96.3465 125.678 87.5652 127.935 82.2963C129.191 81.2622 129.262 81.2527 130.894 81.2533C131.971 82.7943 131.739 84.1968 131.84 86.0402L128.756 86.0824C125.738 89.5918 127.834 97.4907 127.06 102.076Z" fill="#274D84"/>
<path d="M61.5758 126.979C61.4567 125.279 61.2246 123.829 62.1772 122.309C63.8501 121.589 64.8503 121.933 66.6364 122.158C66.3804 123.805 66.2077 125.325 66.2613 127.003L61.5758 126.979Z" fill="#294875"/>
<path d="M35.8264 56.0644C37.3863 56.0156 38.6484 55.8537 40.0535 56.6635C41.6669 59.1037 40.9108 63.3319 40.8037 66.2261C39.1664 66.3225 37.9161 66.5361 36.4635 65.6299C34.9989 63.1046 35.7371 58.9924 35.8264 56.0644Z" fill="#4A79AC"/>
<path d="M152.66 10.3688C154.625 10.3634 155.845 10.0451 157.494 11.1608C157.744 12.5114 157.798 13.7521 157.768 15.123C159.542 15.142 160.668 14.851 162.15 15.9173C162.811 17.888 162.763 19.1774 164.645 20.1794L167.735 20.1318L167.854 149.722C167.883 155.228 168.294 161.017 167.592 166.484C166.074 167.966 163.591 166.544 162.692 168.222C162.108 169.311 163.4 171.845 161.847 172.53C160.251 173.232 46.6323 172.928 35.4514 172.791C34.0642 172.774 32.7068 172.625 31.3375 172.428C29.9979 170.608 31.3315 168.959 29.6942 167.46L26.2888 167.448C24.9314 165.734 26.3126 164.062 24.7051 162.651C22.0677 162.346 17.9418 163.297 15.7806 162.106C15.6437 160.741 15.5307 159.373 15.4533 158.003C13.56 156.833 11.8394 158.174 10.3272 156.508C10.226 154.752 10.4641 153.65 9.30911 152.257C8.16601 152.131 7.08841 151.953 5.96914 151.662C4.35571 149.347 4.963 145.258 5.03445 142.496L5.49888 142.469C8.67216 142.026 11.8811 141.946 15.0723 142.231L19.8172 142.639L20.3352 142.412L20.4007 142.065C22.1749 142.359 23.4609 142.466 25.2529 142.025L25.6815 142.065C27.5271 142.055 28.9739 141.616 30.379 142.879L30.7659 146.697L30.5457 147.164L30.6707 152.589C30.6766 154.492 30.3671 155.769 31.4447 157.37C32.7724 157.607 34.0345 157.76 35.38 157.792L35.255 162.98L35.642 163.13C40.2084 161.848 46.3883 162.599 51.175 162.632C52.8301 162.623 54.5149 162.483 56.17 162.405L56.1581 157.321L112.015 157.39C112.039 159.438 111.652 160.79 112.95 162.42C114.265 162.586 115.563 162.739 116.885 162.813C116.962 164.348 116.927 165.984 117.189 167.496L137.211 167.478L137.472 162.806C137.669 159.38 137.83 156.039 137.592 152.607C137.502 150.665 137.526 149.127 138.038 147.229L142.604 147.196L147.308 147.149C147.635 145.577 147.623 143.814 147.742 142.206L152.642 142.291L152.684 137.625L152.636 15.1616L152.66 10.3688Z" fill="#848188"/>
<path d="M152.66 10.3688C154.625 10.3634 155.845 10.0451 157.494 11.1608C157.744 12.5114 157.798 13.7521 157.768 15.123L157.673 109.361C157.679 117.515 158.828 140.219 157.292 146.694C155.869 147.44 154.565 147.366 152.999 147.389C152.696 145.75 152.732 143.959 152.642 142.291L152.684 137.625L152.636 15.1616L152.66 10.3688Z" fill="#010101"/>
<path d="M142.604 147.196L147.308 147.149C147.165 148.903 146.962 150.676 146.98 152.436C147.087 154.118 147.117 155.869 147.344 157.537C145.391 157.599 144.379 157.269 142.896 158.6C142.277 160.494 142.313 161.688 140.562 162.725L137.472 162.806C137.669 159.38 137.83 156.039 137.592 152.607C137.502 150.665 137.526 149.127 138.038 147.229L142.604 147.196Z" fill="#010101"/>
<path d="M142.604 147.196L147.308 147.149C147.165 148.903 146.962 150.676 146.98 152.436L137.592 152.607C137.502 150.665 137.526 149.127 138.038 147.229L142.604 147.196Z" fill="#1B202C"/>
<path d="M25.6815 142.065C27.5271 142.055 28.9739 141.616 30.379 142.879L30.7659 146.697L30.5457 147.164L30.6707 152.589C27.3903 152.56 23.5263 152.114 20.3352 152.866L20.0613 152.661C20.7579 149.282 19.7279 146.064 19.8172 142.639L20.3352 142.412L20.4007 142.065C22.1749 142.359 23.4609 142.466 25.2529 142.025L25.6815 142.065Z" fill="#101622"/>
<path d="M25.6815 142.065C27.5271 142.055 28.9739 141.616 30.379 142.879L30.7659 146.697L30.5457 147.164C27.8011 147.329 24.2705 147.97 21.6867 146.921C20.1864 145.377 20.4781 144.512 20.3352 142.412L20.4007 142.065C22.1749 142.359 23.4609 142.466 25.2529 142.025L25.6815 142.065Z" fill="#373F4B"/>
<path d="M15.0723 142.231L19.8172 142.639C19.7279 146.064 20.7579 149.282 20.0613 152.661C18.1324 152.554 17.2989 152.746 15.745 151.555C15.7628 150.451 15.733 149.418 15.5902 148.324C12.6372 145.573 9.70803 148.264 6.52285 147.139C5.33808 145.433 5.55247 144.514 5.49888 142.469C8.67216 142.026 11.8811 141.946 15.0723 142.231Z" fill="#010101"/>
<path d="M35.642 163.13C40.2084 161.848 46.3883 162.599 51.175 162.632C51.0916 164.146 50.8951 165.621 50.6748 167.121C47.7694 168.531 39.7141 167.514 36.2491 167.335C35.4871 166.115 35.7015 164.562 35.642 163.13Z" fill="#010101"/>
<path d="M20.3352 152.866C23.5263 152.114 27.3903 152.56 30.6707 152.589C30.6766 154.492 30.3671 155.769 31.4447 157.37C32.7724 157.607 34.0345 157.76 35.38 157.792L35.255 162.98C33.4153 162.743 32.1829 162.917 30.7302 161.698C30.9624 160.445 31.1588 159.694 30.5873 158.519C27.4259 155.473 25.0921 158.494 21.6152 157.411C20.2459 155.795 20.4721 154.942 20.3352 152.866Z" fill="#010101"/>
<path d="M152.642 142.291C152.732 143.959 152.696 145.75 152.999 147.389L152.708 147.573C152.654 149.335 152.886 150.726 151.94 152.247C150.481 152.674 149.153 152.666 147.659 152.654C147.576 154.261 147.594 155.951 147.344 157.537C147.117 155.869 147.087 154.118 146.98 152.436C146.962 150.676 147.165 148.903 147.308 147.149C147.635 145.577 147.623 143.814 147.742 142.206L152.642 142.291Z" fill="#101622"/>
<path d="M147.659 152.654C147.653 150.871 147.51 149.247 148.356 147.623C150.07 146.99 150.945 147.279 152.708 147.573C152.654 149.335 152.886 150.726 151.94 152.247C150.481 152.674 149.153 152.666 147.659 152.654Z" fill="#010101"/>
<path d="M30.8493 0.218953L114.95 0.216576C118.933 0.214196 144.402 -0.0607214 146.778 0.580113C147.445 2.34434 147.361 3.17203 147.373 5.00945L147.945 4.92853C149.665 4.96601 150.826 4.75121 152.321 5.66635C152.827 7.25921 152.714 8.72416 152.66 10.3688L152.636 15.1616C149.862 15.286 145.153 16.0976 143.009 14.0424C140.509 11.6391 144.14 10.4693 138.062 10.3194C119.57 9.86241 100.983 10.2884 82.4849 10.2867C63.5226 10.2843 44.4473 9.86717 25.497 10.4901C25.1755 11.7998 25.1636 12.9101 25.2112 14.2537C23.8776 15.6157 21.2044 14.5464 20.5793 15.8994C19.4422 18.3521 20.3114 28.9654 20.3411 32.0994L20.3769 35.3256L20.4066 112.38L20.478 121.789L20.3233 122.071C20.4364 125.36 21.8236 133.877 19.6684 136.414C19.0254 137.173 17.7334 137.091 16.763 137.104C16.4475 137.108 16.1319 137.096 15.8105 137.087L15.2211 136.97L15.0723 142.231C11.8811 141.946 8.67216 142.026 5.49888 142.469L5.03445 142.496L0.182233 142.199C0.128651 135.824 -0.31188 129.177 0.408507 122.844C1.81951 121.861 3.41507 122.064 5.1178 121.952C5.16543 120.255 5.31429 118.555 5.42145 116.861L10.3093 116.674C9.9164 110.236 10.2558 103.548 10.2558 97.0825L10.22 27.6154C10.22 21.971 9.87477 16.1279 10.488 10.5264C11.8514 10.4759 13.0956 10.361 14.4292 10.0516C15.5247 8.48614 15.1972 7.1265 15.2032 5.25636C16.6678 4.98443 18.7277 5.04576 20.2638 5.0291C20.365 2.63594 20.0018 2.49012 21.1271 0.756242C23.6573 -0.462949 27.6998 0.138626 30.8493 0.218953Z" fill="#546974"/>
<path d="M15.2032 5.25636L19.9958 5.7562C20.6388 7.01287 20.9663 7.759 20.746 9.17812C17.3465 12.368 15.6199 8.33262 15.4056 15.0224C15.1674 22.4976 15.4473 30.0294 15.5604 37.5075C16.9357 55.2765 15.8342 74.2624 15.8045 92.1558C15.7985 98.4463 15.096 105.591 16.1022 111.774C17.5667 112.182 18.8884 112.325 20.4066 112.38L20.478 121.789L20.3233 122.071C20.4364 125.36 21.8236 133.877 19.6684 136.414C19.0254 137.173 17.7334 137.091 16.763 137.104C16.4475 137.108 16.1319 137.096 15.8105 137.087L15.2211 136.97L15.0723 142.231C11.8811 141.946 8.67216 142.026 5.49888 142.469L5.03445 142.496L0.182233 142.199C0.128651 135.824 -0.31188 129.177 0.408507 122.844C1.81951 121.861 3.41507 122.064 5.1178 121.952C5.16543 120.255 5.31429 118.555 5.42145 116.861L10.3093 116.674C9.9164 110.236 10.2558 103.548 10.2558 97.0825L10.22 27.6154C10.22 21.971 9.87477 16.1279 10.488 10.5264C11.8514 10.4759 13.0956 10.361 14.4292 10.0516C15.5247 8.48614 15.1972 7.1265 15.2032 5.25636Z" fill="#373F4B"/>
<path d="M15.2032 5.25636L19.9958 5.7562C20.6388 7.01287 20.9663 7.759 20.746 9.17812C17.3465 12.368 15.6199 8.33262 15.4056 15.0224C15.1674 22.4976 15.4473 30.0294 15.5604 37.5075C14.8341 45.1618 15.2747 53.1583 15.2925 60.8435C15.364 73.1265 15.3282 85.41 15.1853 97.6924C15.1675 103.183 16.0189 109.257 15.1675 114.675C14.9294 116.193 14.8698 116.509 13.6374 117.418C13.0539 117.336 12.6789 117.24 12.1907 116.884C11.3394 116.262 10.7559 114.719 10.619 113.722C9.58899 106.266 10.7023 97.3342 10.7201 89.7078L10.7618 39.3658C10.7678 29.827 11.1965 20.0307 10.488 10.5264C11.8514 10.4759 13.0956 10.361 14.4292 10.0516C15.5247 8.48614 15.1972 7.1265 15.2032 5.25636Z" fill="#010101"/>
<path d="M5.42145 116.861C5.54648 118.548 5.75485 120.276 5.78462 121.963L10.3332 121.948C10.3272 125.227 10.1664 128.584 10.4284 131.851C10.5236 131.88 10.613 131.909 10.7023 131.936C12.3634 132.429 14.2506 132.056 15.1258 133.557L15.2211 136.97L15.0723 142.231C11.8811 141.946 8.67216 142.026 5.49888 142.469L5.03445 142.496L0.182233 142.199C0.128651 135.824 -0.31188 129.177 0.408507 122.844C1.81951 121.861 3.41507 122.064 5.1178 121.952C5.16543 120.255 5.31429 118.555 5.42145 116.861Z" fill="#162C5B"/>
<path d="M0.182233 142.199C0.128651 135.824 -0.31188 129.177 0.408507 122.844C1.81951 121.861 3.41507 122.064 5.1178 121.952C5.09398 125.254 5.62383 139.95 4.43311 141.565L0.182233 142.199Z" fill="#010101"/>
<path d="M5.42145 116.861C5.54648 118.548 5.75485 120.276 5.78462 121.963L5.49883 137.26C8.69592 137.234 12.0597 137.424 15.2211 136.97L15.0723 142.231C11.8811 141.946 8.67216 142.026 5.49888 142.469L5.03445 142.496L0.182233 142.199L4.43311 141.565C5.62383 139.95 5.09398 125.254 5.1178 121.952C5.16543 120.255 5.31429 118.555 5.42145 116.861Z" fill="#09182F"/>
<path d="M10.8392 121.785C13.9529 121.708 17.2691 121.384 20.3233 122.071C20.4364 125.36 21.8236 133.877 19.6684 136.414C19.0254 137.173 17.7334 137.091 16.763 137.104C16.4475 137.108 16.1319 137.096 15.8105 137.087L15.2211 136.97L15.1258 133.557C14.2506 132.056 12.3634 132.429 10.7023 131.936C10.613 131.909 10.5236 131.88 10.4284 131.851C10.8868 128.585 10.744 125.088 10.8392 121.785Z" fill="#4B5861"/>
<path d="M10.3093 116.674L10.3332 121.948L5.78462 121.963C5.75485 120.276 5.54648 118.548 5.42145 116.861L10.3093 116.674Z" fill="#010101"/>
<path d="M30.8493 0.218953L114.95 0.216576C118.933 0.214196 144.402 -0.0607214 146.778 0.580113C147.445 2.34434 147.361 3.17203 147.373 5.00945C132.198 5.44619 114.962 5.05109 99.6551 5.05585L20.2638 5.0291C20.365 2.63594 20.0018 2.49012 21.1271 0.756242C23.6573 -0.462949 27.6998 0.138626 30.8493 0.218953Z" fill="#010101"/>
<path d="M147.945 4.92853C149.665 4.96601 150.826 4.75121 152.321 5.66635C152.827 7.25921 152.714 8.72416 152.66 10.3688C151.094 10.4569 149.719 10.5794 148.207 10.0713C147.183 8.45876 147.439 6.88911 147.373 5.00945L147.945 4.92853Z" fill="#010101"/>
<path d="M20.3769 35.3256L20.3411 32.0994C20.3114 28.9654 19.4422 18.3521 20.5793 15.8994C21.2044 14.5464 23.8776 15.6157 25.2112 14.2537C25.1636 12.9101 25.1755 11.7998 25.497 10.4901C44.4473 9.86717 63.5226 10.2843 82.4849 10.2867C100.983 10.2884 119.57 9.86241 138.062 10.3194C144.14 10.4693 140.509 11.6391 143.009 14.0424C145.153 16.0976 149.862 15.286 152.636 15.1616L152.684 137.625L152.642 142.291L147.742 142.206C147.623 143.814 147.635 145.577 147.308 147.149L142.604 147.196L138.038 147.229L137.532 147.061C135.996 147.257 134.906 147.422 133.4 146.887C132.662 145.893 132.102 144.934 131.888 143.697C131.578 141.946 131.858 138.97 132.894 137.567C132.352 136.104 132.09 134.991 132.132 133.426C133.216 132.009 134.537 132.067 136.222 131.661C138.58 128.706 136.18 125.401 137.371 122.32C139.217 121.056 140.36 121.29 142.569 121.209C142.206 112.854 142.533 104.333 142.527 95.9585L142.497 45.7616L142.592 40.679L142.545 36.4222L139.122 36.1949C137.371 34.8365 137.228 33.1669 136.538 31.0927C134.924 30.3977 134.055 30.6309 132.346 30.8177C132.477 29.0291 132.632 27.5898 131.894 25.891C130.804 25.9196 129.727 25.9475 128.798 25.2823C127.173 24.119 126.935 22.9313 126.75 21.1153C124.755 19.8741 119.796 20.4585 117.373 20.4347C117.135 18.4676 117.063 17.118 117.659 15.189C99.411 15.8108 81.0739 15.6329 62.8141 15.5466C54.3779 15.5067 44.6199 14.5137 36.3266 15.7692C35.2371 17.4376 36.1658 19.0656 34.7727 20.3544C33.0938 20.3395 32.1174 20.0414 30.7123 21.0559C30.6409 22.3482 30.5515 23.6401 30.4444 24.9295C28.8131 26.0999 27.0271 25.0675 25.5863 26.3861C25.5446 28.7638 26.1995 33.2091 25.1219 35.1423C23.4787 35.4636 22.0379 35.4321 20.3769 35.3256Z" fill="#373F4B"/>
<path d="M142.592 40.679C144.176 40.7777 145.605 40.5778 146.909 41.5084C147.82 48.51 147.26 56.0251 147.242 63.0909L147.165 100.122C147.153 107.442 146.867 114.888 147.421 122.185L144.778 121.755C144.164 121.42 143.253 121.351 142.569 121.209C142.206 112.854 142.533 104.333 142.527 95.9585L142.497 45.7616L142.592 40.679Z" fill="#09182F"/>
<path d="M117.659 15.189C121.886 15.0867 127.726 14.2548 131.721 15.4859C132.579 16.764 132.305 18.1677 132.227 19.6385L132.864 20.4251C134.305 20.4085 135.686 20.4186 137.115 20.5846C138.086 22.3262 137.318 24.2344 138.568 25.6768C140.348 25.7827 141.164 25.55 142.491 26.8311L142.783 30.0014L142.545 36.4222L139.122 36.1949C137.371 34.8365 137.228 33.1669 136.538 31.0927C134.924 30.3977 134.055 30.6309 132.346 30.8177C132.477 29.0291 132.632 27.5898 131.894 25.891C130.804 25.9196 129.727 25.9475 128.798 25.2823C127.173 24.119 126.935 22.9313 126.75 21.1153C124.755 19.8741 119.796 20.4585 117.373 20.4347C117.135 18.4676 117.063 17.118 117.659 15.189Z" fill="#09182F"/>
<path d="M142.783 30.0014C142.979 30.074 143.176 30.1507 143.372 30.2197C144.426 30.5881 145.557 30.6101 146.659 30.6827C148.195 32.8658 148.29 114.557 147.421 122.185C146.867 114.888 147.153 107.442 147.165 100.122L147.242 63.0909C147.26 56.0251 147.82 48.51 146.909 41.5084C145.605 40.5778 144.176 40.7777 142.592 40.679L142.545 36.4222L142.783 30.0014Z" fill="#222835"/>
<path d="M132.894 137.567C132.352 136.104 132.09 134.991 132.132 133.426C133.216 132.009 134.537 132.067 136.222 131.661C138.58 128.706 136.18 125.401 137.371 122.32C139.217 121.056 140.36 121.29 142.569 121.209C143.253 121.351 144.164 121.42 144.778 121.755L142.914 122.318C141.467 125.361 143.622 129.506 141.789 132.112C140.431 132.18 139.092 132.272 137.74 132.432C136.824 134.178 137.532 136.741 135.716 137.268C134.871 137.513 133.775 137.504 132.894 137.567Z" fill="#09182F"/>
<path d="M137.532 147.061C137.449 145.387 137.21 144.059 138.234 142.621C138.776 142.654 139.33 142.692 139.872 142.688C143.587 142.653 141.866 138.954 143.623 137.252C144.986 137.208 146.022 136.961 147.23 137.675L147.272 142.193L147.742 142.206C147.623 143.814 147.635 145.577 147.308 147.149L142.604 147.196L138.038 147.229L137.532 147.061Z" fill="#4B5861"/>
<path d="M147.272 142.193L147.742 142.206C147.623 143.814 147.635 145.577 147.308 147.149L142.604 147.196C142.598 145.878 142.67 144.589 142.777 143.276C144.248 142.116 145.432 142.328 147.272 142.193Z" fill="#2A303B"/>
<path d="M147.742 142.206C147.82 140.976 147.957 139.756 148.088 138.531C149.618 137.394 150.809 137.677 152.684 137.625L152.642 142.291L147.742 142.206Z" fill="#222835"/>
<path d="M56.1641 147.228C74.65 147.151 93.1419 147.198 111.634 147.369C112.187 148.767 112.265 149.933 112.271 151.428L112.134 152.629L112.015 157.39L56.1581 157.321L56.2116 152.482L56.0926 152.066L56.1641 147.228Z" fill="#101622"/>
<path d="M56.2116 152.482L92.3739 152.469C98.905 152.47 105.633 152.155 112.134 152.629L112.015 157.39L56.1581 157.321L56.2116 152.482Z" fill="#010101"/>
<path d="M62.7546 142.395L106.889 142.402L112.086 142.448C112.05 143.872 112.301 146.118 111.634 147.369C93.1419 147.198 74.65 147.151 56.1641 147.228C56.1045 145.625 56.2176 143.97 56.2533 142.364L62.7546 142.395Z" fill="#373F4B"/>
<path d="M62.7546 142.395L61.2722 141.748C60.8852 140.218 60.7364 140.042 61.3735 138.627C62.8678 137.708 64.4634 137.557 66.178 137.445C70.4467 137.169 74.8048 137.738 79.0855 137.711C87.8134 137.657 97.2261 136.582 105.853 137.679C106.924 138.599 106.877 138.663 106.996 140.054C107.061 140.854 106.99 141.61 106.889 142.402L62.7546 142.395Z" fill="#09182F"/>
<path d="M20.478 121.789C21.895 121.942 23.3358 122.162 24.7587 122.185L25.4612 122.356C25.6101 125.11 25.0505 129.045 26.3722 131.459C27.6998 132.308 28.7238 132.321 30.2539 132.378L30.5873 132.624L30.635 136.892C28.7477 137.155 27.5271 137.048 26.0447 138.283C25.7351 139.586 25.6518 140.728 25.6815 142.065L25.2529 142.025C23.4609 142.466 22.1749 142.359 20.4007 142.065L20.3352 142.412L19.8172 142.639L15.0723 142.231L15.2211 136.97L15.8105 137.087C16.1319 137.096 16.4475 137.108 16.763 137.104C17.7334 137.091 19.0254 137.173 19.6684 136.414C21.8236 133.877 20.4364 125.36 20.3233 122.071L20.478 121.789Z" fill="#373F4B"/>
<path d="M15.2211 136.97L15.8105 137.087C17.4239 137.532 18.7813 137.529 20.4305 137.459L20.4007 142.065L20.3352 142.412L19.8172 142.639L15.0723 142.231L15.2211 136.97Z" fill="#2A303B"/>
<path d="M20.4305 137.459C22.2761 137.559 23.6454 137.256 25.0684 138.508C25.1458 139.679 25.241 140.851 25.2529 142.025C23.4609 142.466 22.1749 142.359 20.4007 142.065L20.4305 137.459Z" fill="#4B5861"/>
<path d="M131.65 162.598C133.489 162.551 134.978 162.22 136.627 163.109C137.103 164.586 137.145 165.943 137.211 167.478L117.189 167.496C117.308 166.383 117.242 164.152 118.022 163.452C120.374 161.347 128.477 162.57 131.65 162.598Z" fill="#010101"/>
<path d="M112.271 151.428C113.408 152.269 114.283 152.436 115.67 152.592C117.046 154.582 115.718 156.909 118.528 157.434C120.183 157.743 121.737 157.722 122.886 159.114L123.005 160.788C125.327 162.296 129.143 161.834 131.828 161.859L131.65 162.598C128.477 162.57 120.374 161.347 118.022 163.452C117.242 164.152 117.308 166.383 117.189 167.496C116.927 165.984 116.962 164.348 116.885 162.813C115.563 162.739 114.265 162.586 112.95 162.42C111.652 160.79 112.039 159.438 112.015 157.39L112.134 152.629L112.271 151.428Z" fill="#0F2146"/>
<path d="M112.015 157.39C113.997 157.497 115.081 157.272 116.694 158.479C116.932 159.969 116.968 161.309 116.885 162.813C115.563 162.739 114.265 162.586 112.95 162.42C111.652 160.79 112.039 159.438 112.015 157.39Z" fill="#010101"/>
<path d="M56.2533 142.364C56.3605 140.682 56.2116 138.731 57.2594 137.344C65.9338 136.541 74.8524 136.983 83.5685 136.973C92.7251 136.963 102.162 136.51 111.277 137.28C112.33 138.94 112.211 140.487 112.086 142.448L106.889 142.402C106.99 141.61 107.061 140.854 106.996 140.054C106.877 138.663 106.924 138.599 105.853 137.679C97.2261 136.582 87.8134 137.657 79.0855 137.711C74.8048 137.738 70.4467 137.169 66.178 137.445C64.4634 137.557 62.8678 137.708 61.3735 138.627C60.7364 140.042 60.8852 140.218 61.2722 141.748L62.7546 142.395L56.2533 142.364Z" fill="#0F2146"/>
<path d="M30.7659 146.697L31.2243 143.282C32.6413 141.955 33.9094 142.252 35.8146 142.119C35.892 147.028 35.761 151.91 35.5764 156.817L35.38 157.792C34.0345 157.76 32.7724 157.607 31.4447 157.37C30.3671 155.769 30.6766 154.492 30.6707 152.589L30.5457 147.164L30.7659 146.697Z" fill="#09182F"/>
<path d="M132.346 30.8177C134.055 30.6309 134.924 30.3977 136.538 31.0927C137.228 33.1669 137.371 34.8365 139.122 36.1949L142.545 36.4222L142.592 40.679L142.497 45.7616C132.93 44.042 139.27 34.6771 135.782 32.2262C134.49 31.3194 133.704 32.6599 132.346 30.8177Z" fill="#0F2146"/>
<path d="M35.38 157.792L35.5764 156.817C36.9398 158.19 38.3984 157.858 40.2798 157.917C40.5655 159.816 40.4167 160.606 41.8991 161.932C44.7331 162.844 47.7039 161.839 50.6093 161.886L51.2285 158.004L56.1581 157.321L56.17 162.405C54.5149 162.483 52.8301 162.623 51.175 162.632C46.3883 162.599 40.2084 161.848 35.642 163.13L35.255 162.98L35.38 157.792Z" fill="#09182F"/>
<path d="M56.1581 157.321L56.17 162.405L50.6093 161.886L51.2285 158.004L56.1581 157.321Z" fill="#010101"/>
<path d="M30.635 136.892C32.3913 137.076 34.1297 137.266 35.8919 137.33C35.8622 138.919 35.7669 140.531 35.8146 142.119C33.9094 142.252 32.6413 141.955 31.2243 143.282L30.7659 146.697L30.379 142.879C28.9739 141.616 27.5271 142.055 25.6815 142.065C25.6518 140.728 25.7351 139.586 26.0447 138.283C27.5271 137.048 28.7477 137.155 30.635 136.892Z" fill="#2A303B"/>
<path d="M25.4612 122.356C27.3068 122.1 28.1642 121.729 29.8609 122.562C31.272 125.109 31.0279 129.62 30.2539 132.378C28.7238 132.321 27.6998 132.308 26.3722 131.459C25.0505 129.045 25.6101 125.11 25.4612 122.356Z" fill="#09182F"/>
<path d="M40.2798 157.917C42.9291 157.793 46.549 158.648 49.0316 157.683C50.8653 156.971 51.0261 155.743 51.7048 154.086L51.2285 158.004L50.6093 161.886C47.7039 161.839 44.7331 162.844 41.8991 161.932C40.4167 160.606 40.5655 159.816 40.2798 157.917Z" fill="#0F2146"/>
<path d="M131.828 161.859C133.079 157.138 133.263 159.383 136.359 156.931C137.472 156.052 137.389 153.958 137.592 152.607C137.83 156.039 137.669 159.38 137.472 162.806L137.211 167.478C137.145 165.943 137.103 164.586 136.627 163.109C134.978 162.22 133.489 162.551 131.65 162.598L131.828 161.859Z" fill="#09182F"/>
<path d="M51.7048 154.086C51.6036 153.216 51.7048 153.234 52.2347 152.518L56.0926 152.066L56.2116 152.482L56.1581 157.321L51.2285 158.004L51.7048 154.086Z" fill="#0F2146"/>
<path d="M30.5873 132.624C32.2602 132.376 33.0938 132.142 34.7191 132.74C35.7253 134.191 35.755 135.633 35.8919 137.33C34.1297 137.266 32.3913 137.076 30.635 136.892L30.5873 132.624Z" fill="#09182F"/>
</svg>
