<svg width="168" height="179" viewBox="0 0 168 179" fill="none" xmlns="http://www.w3.org/2000/svg">
<path d="M21.3814 0.234236L146.776 0.241611L146.843 5.16964C148.265 5.20888 150.501 4.97217 151.775 5.56326L152.388 10.4325C154.428 10.6072 155.684 10.3098 157.173 11.7753C157.253 13.1782 157.314 14.583 157.345 15.9884C158.95 15.9988 160.476 15.6763 161.805 16.6169C161.817 16.7714 161.823 16.9259 161.836 17.0804C161.94 18.4319 162.075 19.3013 162.828 20.4345C164.109 20.8244 167.056 20.8244 167.515 21.9655C168.183 23.6057 168.202 168.309 167.313 172.096C165.941 172.402 164.697 172.464 163.294 172.451C161.811 174.291 163.257 176.326 161.438 177.78C150.507 178.699 139.111 178.013 128.137 177.982L67.7625 177.951C61.1699 177.951 26.3809 178.847 22.0553 177.743C20.8483 175.94 22.0799 174.125 20.7074 172.617L16.6145 172.5C15.2789 170.685 16.7188 169.073 15.0522 167.207C13.8575 167.05 12.822 167.06 11.615 167.168C10.506 165.535 10.7878 163.882 10.8736 161.952L10.7021 157.353C9.46446 157.312 8.2636 157.183 7.03208 157.026C5.82507 155.585 5.95986 154.776 5.80669 152.956C4.57517 151.176 2.41229 152.226 0.543564 150.929C-0.565416 131.013 0.365912 110.551 0.365912 90.5834C0.365912 64.2448 -0.338718 37.6958 0.543564 11.3798C2.16721 9.89349 4.09722 11.0616 5.82502 9.59733C5.81889 8.45009 5.86792 7.32551 5.94757 6.18133C7.40579 4.89613 8.50251 5.16965 10.408 5.0513L10.6469 4.76186C10.6285 2.85675 10.4693 2.4214 11.4006 0.863956C14.0045 -0.492373 18.1586 0.126318 21.3814 0.234236Z" fill="#373F4B"/>
<path d="M26.7241 89.0934L31.8033 89.2031L31.7666 90.9917C31.5277 92.1782 31.3867 93.5658 30.9885 94.6965C29.5854 94.6977 28.1945 94.4322 26.8099 94.2244L26.7241 89.0934Z" fill="#474C54"/>
<path d="M151.775 5.56326L152.388 10.4325C154.428 10.6072 155.684 10.3098 157.173 11.7753C157.253 13.1782 157.314 14.583 157.345 15.9884C158.95 15.9988 160.476 15.6763 161.805 16.6169C161.817 16.7714 161.823 16.9259 161.836 17.0804C161.94 18.4319 162.075 19.3013 162.828 20.4345C164.109 20.8244 167.056 20.8244 167.515 21.9655C168.183 23.6057 168.202 168.309 167.313 172.096C165.941 172.402 164.697 172.464 163.294 172.451C161.811 174.291 163.257 176.326 161.438 177.78C150.507 178.699 139.111 178.013 128.137 177.982L67.7625 177.951C61.1699 177.951 26.3809 178.847 22.0553 177.743C20.8483 175.94 22.0799 174.125 20.7074 172.617L16.6145 172.5C15.2789 170.685 16.7188 169.073 15.0522 167.207C13.8575 167.05 12.822 167.06 11.615 167.168C10.506 165.535 10.7878 163.882 10.8736 161.952L10.7021 157.353L10.6898 153.629C9.51957 151.63 8.00006 152.323 6.46219 150.965C5.50639 150.125 5.95367 147.642 5.97205 146.409L6.00267 141.045L6.54188 141.355C8.13489 141.411 9.43374 141.095 10.9471 140.684L11.2841 140.571C11.3822 139.551 11.468 139.2 12.1481 138.377L14.4824 138.503L14.8929 137.521C13.7717 136.672 12.197 135.635 11.4066 134.481C10.4876 133.148 10.5979 132.66 10.8553 131.173C11.8846 130.171 11.9826 129.895 13.4592 129.704C15.2177 130.644 15.7935 131.339 16.7003 133.083L16.5288 127.715C16.2531 125.301 16.2837 122.779 16.1918 120.347C20.3888 120.404 24.837 120.745 29.0094 120.353C30.9088 119.443 32.7101 119.511 34.7688 119.496C36.2944 118.299 36.178 117.289 36.6007 115.434C37.3544 113.888 37.1277 112.046 37.1154 110.359C40.3014 109.541 43.9775 109.98 47.2493 110.074C50.0371 109.922 54.6568 109.058 56.9299 110.978C57.898 111.797 58.3637 113.483 58.7803 114.649C59.8525 115.379 60.9431 115.353 62.2053 115.451L63.1182 116.106L63.2285 119.696L63.4736 120.331L68.3752 120.497C70.2746 120.425 71.4998 120.765 72.9519 119.454C73.2583 117.99 73.5647 116.635 74.1284 115.24C75.5376 114.791 76.3708 114.894 77.7862 115.276C78.9074 116.489 79.2015 117.076 79.128 118.826C79.0483 120.845 78.1293 123.268 79.1096 125.113C80.531 125.712 81.4808 125.6 82.988 125.413C84.532 123.805 84.0969 121.973 85.7266 120.494C86.952 120.475 88.1774 120.44 89.4028 120.445L89.4947 125.936C89.556 127.87 89.2435 129.095 90.475 130.629C91.8903 130.843 93.2261 130.945 94.6598 130.929L99.8064 130.722L100.327 130.446C100.266 129.942 100.192 129.437 100.192 128.929C100.18 127.128 100.137 126.709 101.314 125.434C100.805 124.986 100.382 124.647 100.088 124.021C99.5675 122.91 99.6961 122.821 100.156 121.664C102.343 120.285 103.182 120.412 105.713 120.335C107.128 120.472 108.678 120.495 110.057 120.825L110.167 120.484V115.428L110.725 114.986L110.216 114.74C110.216 113.516 110.112 112.3 110.02 111.08C108.776 109.908 107.876 109.921 106.27 109.601L105.756 108.287L105.357 108.173L105.339 104.123L105.468 100.676C106.773 99.2965 108.543 99.5246 110.394 99.3045L110.915 99.6527C112.501 99.6938 113.947 99.4406 115.491 99.1561C115.363 97.606 115.136 96.4073 115.957 95.0031C117.495 94.4709 119.002 94.3397 120.608 94.1833L120.669 89.0971L125.944 88.891L131.029 88.9573L131.581 89.1462L131.422 88.5992C131.422 86.9632 131.599 85.3291 131.74 83.6993L136.458 83.5828L136.538 78.6707L136.011 78.5604C136.605 77.0373 136.409 74.9788 136.446 73.3472L136.501 68.1727C139.932 67.7153 143.173 67.7729 146.616 67.917C147.37 51.0126 145.397 33.5844 147.045 16.8143C148.209 15.8418 150.329 16.0429 151.849 15.9135L151.702 10.6606C151.585 8.97988 151.726 7.24825 151.775 5.56326Z" fill="#848188"/>
<path d="M47.2493 110.074C50.0371 109.922 54.6568 109.058 56.9299 110.978C57.898 111.797 58.3637 113.483 58.7803 114.649C59.8525 115.379 60.9431 115.353 62.2053 115.451L63.1182 116.106L63.2285 119.696L63.4736 120.331L68.3752 120.497C70.2746 120.425 71.4998 120.765 72.9519 119.454C73.2583 117.99 73.5647 116.635 74.1284 115.24C75.5376 114.791 76.3708 114.894 77.7862 115.276C78.9074 116.489 79.2015 117.076 79.128 118.826C79.0483 120.845 78.1293 123.268 79.1096 125.113C80.531 125.712 81.4808 125.6 82.988 125.413C84.532 123.805 84.0969 121.973 85.7266 120.494C86.952 120.475 88.1774 120.44 89.4028 120.445L89.4947 125.936C89.556 127.87 89.2435 129.095 90.475 130.629C91.8903 130.843 93.2261 130.945 94.6598 130.929L99.8064 130.722L100.327 130.446C100.266 129.942 100.192 129.437 100.192 128.929C100.18 127.128 100.137 126.709 101.314 125.434C100.805 124.986 100.382 124.647 100.088 124.021C99.5675 122.91 99.6961 122.821 100.156 121.664C102.343 120.285 103.182 120.412 105.713 120.335C107.128 120.472 108.678 120.495 110.057 120.825C110.124 122.548 109.842 123.738 110.945 125.118C112.397 125.259 113.764 125.303 115.216 125.217L115.657 125.272C117.048 125.503 118.23 125.47 119.621 125.318C120.859 123.764 120.601 122.847 120.669 120.897L121.116 120.825C121.19 122.637 121.036 123.572 122.103 125.096C125.27 126.308 127.843 123.627 130.668 126.405L130.938 129.133C132.855 129.976 135.012 128.363 136.017 130.195L136.023 132.556C137.426 133.578 138.707 133.517 140.398 133.27C142.254 132.998 144.57 132.145 146.304 132.932C146.58 134.387 146.659 134.562 146.028 135.882L145.434 136.22C143.902 137.104 142.223 138.062 141.764 139.902C141.249 141.944 141.292 144.356 141.274 146.46C113.01 146.602 84.7403 146.594 56.4766 146.438C43.6713 146.429 29.7937 147.753 17.1293 146.408C15.9223 144.839 16.97 142.665 15.3709 141.646C14.4028 141.027 12.4666 141.194 11.2841 140.571C11.3822 139.551 11.468 139.2 12.1481 138.377L14.4824 138.503L14.8929 137.521C13.7717 136.672 12.197 135.635 11.4066 134.481C10.4876 133.148 10.5979 132.66 10.8553 131.173C11.8846 130.171 11.9826 129.895 13.4592 129.704C15.2177 130.644 15.7935 131.339 16.7003 133.083L16.5288 127.715C16.2531 125.301 16.2837 122.779 16.1918 120.347C20.3888 120.404 24.837 120.745 29.0094 120.353C30.9088 119.443 32.7101 119.511 34.7688 119.496C36.2944 118.299 36.178 117.289 36.6007 115.434C37.3544 113.888 37.1277 112.046 37.1154 110.359C40.3014 109.541 43.9775 109.98 47.2493 110.074Z" fill="#101622"/>
<path d="M47.2493 110.074C50.0371 109.922 54.6568 109.058 56.9299 110.978C57.898 111.797 58.3637 113.483 58.7803 114.649C59.8525 115.379 60.9431 115.353 62.2053 115.451L63.1182 116.106L63.2285 119.696C63.1183 119.744 63.0141 119.794 62.9099 119.84C61.5068 120.45 60.2631 120.624 58.7681 120.8C57.702 122.117 57.8184 123.798 57.7081 125.424L52.586 125.532L49.4429 125.645L49.4613 125.803L53.0822 126.201C52.7636 127.569 52.1142 129.309 52.4818 130.685C52.8249 132.577 53.2784 133.579 52.5248 135.378C48.7689 137.611 42.0905 137.104 37.9302 136.279C37.5259 136.199 37.2564 136.035 36.901 135.831C35.1487 135.939 33.4209 135.73 31.6747 135.572L31.644 136.306C30.3941 136.4 29.1933 136.366 27.9434 136.298C25.3823 133.995 27.0243 129.897 26.7792 126.653L26.7302 126.003C26.4667 127.725 26.6322 129.477 25.2781 130.62L21.3752 130.68L19.4146 132.947L16.7003 133.083L16.5288 127.715C16.2531 125.301 16.2837 122.779 16.1918 120.347C20.3888 120.404 24.837 120.745 29.0094 120.353C30.9088 119.443 32.7101 119.511 34.7688 119.496C36.2944 118.299 36.178 117.289 36.6007 115.434C37.3544 113.888 37.1277 112.046 37.1154 110.359C40.3014 109.541 43.9775 109.98 47.2493 110.074Z" fill="#010101"/>
<path d="M29.0094 120.353C31.6011 120.329 35.0629 119.951 37.1583 121.734L37.4523 123.295C34.0886 126.056 30.8475 125.851 26.7302 126.003C26.4667 127.725 26.6322 129.477 25.2781 130.62L21.3752 130.68L19.4146 132.947L16.7003 133.083L16.5288 127.715C16.2531 125.301 16.2837 122.779 16.1918 120.347C20.3888 120.404 24.837 120.745 29.0094 120.353Z" fill="#222835"/>
<path d="M47.2493 110.074C50.0371 109.922 54.6568 109.058 56.9299 110.978C57.898 111.797 58.3637 113.483 58.7803 114.649C59.8525 115.379 60.9431 115.353 62.2053 115.451L63.1182 116.106L63.2285 119.696C63.1183 119.744 63.0141 119.794 62.9099 119.84C61.5068 120.45 60.2631 120.624 58.7681 120.8C57.702 122.117 57.8184 123.798 57.7081 125.424L52.586 125.532C52.7453 124.3 52.8066 123.073 52.874 121.833C51.6915 120.298 49.8901 120.316 48.0398 119.876C46.9308 118.24 47.3475 117.083 47.4578 115.14L47.7212 110.714L47.2493 110.074Z" fill="#222835"/>
<path d="M47.7212 110.714C49.8289 110.616 50.9317 110.271 52.7637 111.367C53.989 114.758 51.2748 117.54 54.2158 120.637L54.8898 120.68C55.6067 120.728 56.2867 120.837 56.9913 120.974C57.8 122.434 57.6958 123.807 57.7081 125.424L52.586 125.532C52.7453 124.3 52.8066 123.073 52.874 121.833C51.6915 120.298 49.8901 120.316 48.0398 119.876C46.9308 118.24 47.3475 117.083 47.4578 115.14L47.7212 110.714Z" fill="#2A303B"/>
<path d="M36.9745 125.812L42.452 125.739L42.7706 127.196C44.4433 126.716 46.1159 126.354 47.8192 126.006L49.4613 125.803L53.0822 126.201C52.7636 127.569 52.1142 129.309 52.4818 130.685C52.8249 132.577 53.2784 133.579 52.5248 135.378C48.7689 137.611 42.0905 137.104 37.9302 136.279C37.5259 136.199 37.2564 136.035 36.901 135.831L37.1828 130.947C37.3115 129.235 37.1093 127.52 36.9745 125.812Z" fill="#070912"/>
<path d="M36.9745 125.812L42.452 125.739L42.7706 127.196L42.6174 130.927L37.1828 130.947C37.3115 129.235 37.1093 127.52 36.9745 125.812Z" fill="#71353A"/>
<path d="M42.7706 127.196C44.4433 126.716 46.1159 126.354 47.8192 126.006C47.7151 127.92 48.0214 129.243 46.7347 130.73C45.3561 130.828 43.996 130.917 42.6174 130.927L42.7706 127.196Z" fill="#574244"/>
<path d="M42.6235 120.829C42.5316 119.305 42.5562 117.891 42.7278 116.374C44.2595 115.062 45.4726 115.301 47.4578 115.14C47.3475 117.083 46.9308 118.24 48.0398 119.876C49.8901 120.316 51.6915 120.298 52.874 121.833C52.8066 123.073 52.7453 124.3 52.586 125.532L49.4429 125.645L49.4613 125.803L47.8192 126.006C46.1159 126.354 44.4433 126.716 42.7706 127.196L42.452 125.739L42.6235 120.829Z" fill="#474C54"/>
<path d="M42.6235 120.829C43.8612 120.917 45.7912 120.676 46.5877 121.714C47.1575 122.449 47.3719 123.717 47.5986 124.622C48.2113 125.018 48.7505 125.395 49.4429 125.645L49.4613 125.803L47.8192 126.006C46.1159 126.354 44.4433 126.716 42.7706 127.196L42.452 125.739L42.6235 120.829Z" fill="#5F3138"/>
<path d="M31.6747 135.572C31.6379 134.726 31.5031 133.669 31.6502 132.836C32.0055 130.783 34.4931 131.181 35.9085 130.06C36.9133 129.26 36.8152 127.049 36.9745 125.812C37.1093 127.52 37.3115 129.235 37.1828 130.947L36.901 135.831C35.1487 135.939 33.4209 135.73 31.6747 135.572Z" fill="#4B242B"/>
<path d="M68.3752 120.497C70.2746 120.425 71.4998 120.765 72.9519 119.454C73.2583 117.99 73.5647 116.635 74.1284 115.24C75.5376 114.791 76.3708 114.894 77.7862 115.276C78.9074 116.489 79.2015 117.076 79.128 118.826C79.0483 120.845 78.1293 123.268 79.1096 125.113C80.531 125.712 81.4808 125.6 82.988 125.413C84.532 123.805 84.0969 121.973 85.7266 120.494C86.952 120.475 88.1774 120.44 89.4028 120.445L89.4947 125.936C89.556 127.87 89.2435 129.095 90.475 130.629C91.8903 130.843 93.2261 130.945 94.6598 130.929L99.8064 130.722L100.327 130.446L101.093 130.745C99.9719 132.314 101.007 134.551 99.6656 136.147C98.2441 136.32 96.8288 136.416 95.3951 136.492C95.1623 137.348 94.9356 138.213 94.6415 139.052C94.0962 140.625 93.5875 141.287 92.1355 141.993C90.9775 141.849 90.3771 141.122 89.5745 140.354C89.5377 139.008 89.4703 137.941 89.0169 136.667C87.6322 136.418 86.3211 136.401 84.918 136.401C83.6865 134.686 84.7586 133.313 84.0908 131.484C84.0295 131.311 83.95 131.144 83.8826 130.974C80.5372 130.819 77.149 130.88 73.7976 130.842C72.1065 130.788 70.8382 131 69.3739 130.089C69.0063 128.474 68.7734 126.86 68.5467 125.221L68.3752 120.497Z" fill="#070912"/>
<path d="M63.2285 119.696L63.4736 120.331L68.3752 120.497L68.5467 125.221L68.4242 125.984L68.5038 130.914C68.5161 132.852 68.7979 133.896 67.7195 135.538C66.2981 136.182 64.9257 136.748 63.3633 136.946C61.5498 137.176 59.9812 136.876 58.5598 135.705C57.9655 135.217 57.9532 132.272 57.8675 131.395C56.4889 130.499 54.1422 130.767 52.4818 130.685C52.1142 129.309 52.7636 127.569 53.0822 126.201L49.4613 125.803L49.4429 125.645L52.586 125.532L57.7081 125.424C57.8184 123.798 57.702 122.117 58.7681 120.8C60.2631 120.624 61.5068 120.45 62.9099 119.84C63.0141 119.794 63.1183 119.744 63.2285 119.696Z" fill="#010101"/>
<path d="M63.2285 119.696L63.4736 120.331L68.3752 120.497L68.5467 125.221L68.4242 125.984L63.5288 126.003L63.3266 130.825C63.3143 129.225 63.394 127.976 62.5791 126.538C60.0241 124.868 56.0109 125.895 53.0822 126.201L49.4613 125.803L49.4429 125.645L52.586 125.532L57.7081 125.424C57.8184 123.798 57.702 122.117 58.7681 120.8C60.2631 120.624 61.5068 120.45 62.9099 119.84C63.0141 119.794 63.1183 119.744 63.2285 119.696Z" fill="#101622"/>
<path d="M63.4736 120.331L68.3752 120.497L68.5467 125.221L68.4242 125.984L63.5288 126.003C63.2102 124.21 63.4369 122.156 63.4736 120.331Z" fill="#26222C"/>
<path d="M63.5288 126.003L68.4242 125.984L68.5038 130.914L63.3266 130.825L63.5288 126.003Z" fill="#4B242B"/>
<path d="M105.713 120.335C107.128 120.472 108.678 120.495 110.057 120.825C110.124 122.548 109.842 123.738 110.945 125.118C112.397 125.259 113.764 125.303 115.216 125.217L115.093 125.866L115.075 130.721L115.124 131.209C115.148 132.775 115.381 134.232 114.389 135.541C111.295 136.941 109.328 137.1 106.062 136.167C104.647 134.882 105.186 133.056 104.843 131.19L101.093 130.745L100.327 130.446C100.266 129.942 100.192 129.437 100.192 128.929C100.18 127.128 100.137 126.709 101.314 125.434C100.805 124.986 100.382 124.647 100.088 124.021C99.5675 122.91 99.6961 122.821 100.156 121.664C102.343 120.285 103.182 120.412 105.713 120.335Z" fill="#010101"/>
<path d="M105.713 120.335C107.128 120.472 108.678 120.495 110.057 120.825C110.124 122.548 109.842 123.738 110.945 125.118C112.397 125.259 113.764 125.303 115.216 125.217L115.093 125.866L115.075 130.721L110.026 130.744L109.512 130.802C109.475 129.353 109.42 127.904 109.346 126.457C107.943 125.106 107.006 125.402 105.106 125.289L101.314 125.434C100.805 124.986 100.382 124.647 100.088 124.021C99.5675 122.91 99.6961 122.821 100.156 121.664C102.343 120.285 103.182 120.412 105.713 120.335Z" fill="#37373F"/>
<path d="M110.026 130.744C109.983 129.275 110.002 127.979 110.32 126.542C111.95 125.508 113.194 125.834 115.093 125.866L115.075 130.721L110.026 130.744Z" fill="#474C54"/>
<path d="M105.106 125.289C107.006 125.402 107.943 125.106 109.346 126.457C109.42 127.904 109.475 129.353 109.512 130.802C108.207 130.91 107.128 130.868 105.848 130.608C104.788 128.882 105.112 127.293 105.106 125.289Z" fill="#1B202C"/>
<path d="M115.093 125.866C116.827 125.923 118.917 125.744 120.522 126.426L120.932 126.475C120.957 128.089 120.644 129.271 121.704 130.545L123.536 130.678L125.552 131.218C126.44 132.822 126.085 134.45 125.889 136.185C122.476 136.275 119.057 136.228 115.651 136.238L115.737 135.737L115.124 131.209L115.075 130.721L115.093 125.866Z" fill="#4B242B"/>
<path d="M115.093 125.866C116.827 125.923 118.917 125.744 120.522 126.426L120.43 130.848L115.075 130.721L115.093 125.866Z" fill="#71353A"/>
<path d="M120.43 130.848C120.424 132.714 120.785 133.887 119.56 135.369C118.285 135.51 117.017 135.647 115.737 135.737L115.124 131.209L115.075 130.721L120.43 130.848Z" fill="#5F3138"/>
<path d="M115.651 136.238C119.057 136.228 122.476 136.275 125.889 136.185C125.969 137.479 125.913 138.791 125.907 140.086C125.049 141.013 124.706 141.362 123.493 141.789C120.589 142.809 119.002 141.919 116.374 140.658C115.148 139.055 115.541 138.211 115.651 136.238Z" fill="#070912"/>
<path d="M31.644 136.306C33.5863 136.368 34.7197 136.12 36.3311 137.251C36.5027 138.575 36.6007 139.802 36.5272 141.136C34.6339 141.083 33.2003 141.345 31.5766 140.297C31.3989 138.905 31.4725 137.695 31.644 136.306Z" fill="#070912"/>
<path d="M120.932 126.475C122.409 125.857 123.236 125.652 124.811 126.02C125.883 127.079 125.944 127.188 126.177 128.675L125.356 130.201L123.536 130.678L121.704 130.545C120.644 129.271 120.957 128.089 120.932 126.475Z" fill="#070912"/>
<path d="M73.7976 130.842C77.149 130.88 80.5372 130.819 83.8826 130.974C83.6926 131.528 83.3617 131.923 83.0309 132.397C80.3044 133.015 76.8427 133.83 74.251 132.408L73.7976 130.842Z" fill="#1B202C"/>
<path d="M151.775 5.56326L152.388 10.4325L152.351 95.8438C152.351 109.843 151.53 124.318 152.425 138.25C152.149 139.221 152.008 140.624 151.107 141.167C150.348 141.624 149.086 141.712 148.216 141.845C146.341 144.572 147.009 148.523 147.119 151.706L53.0823 151.645C42.3111 151.643 21.1915 152.789 11.5477 151.461C10.5735 149.743 10.7879 148.554 10.7695 146.598L5.97205 146.409L6.00267 141.045L6.54188 141.355C8.13489 141.411 9.43374 141.095 10.9471 140.684L11.2841 140.571C12.4666 141.194 14.4028 141.027 15.3709 141.646C16.97 142.665 15.9223 144.839 17.1293 146.408C29.7937 147.753 43.6713 146.429 56.4766 146.438C84.7403 146.594 113.01 146.602 141.274 146.46C141.292 144.356 141.249 141.944 141.764 139.902C142.223 138.062 143.902 137.104 145.434 136.22L146.028 135.882C146.659 134.562 146.58 134.387 146.304 132.932C144.57 132.145 142.254 132.998 140.398 133.27C138.707 133.517 137.426 133.578 136.023 132.556L136.017 130.195C135.012 128.363 132.855 129.976 130.938 129.133L130.668 126.405C127.843 123.627 125.27 126.308 122.103 125.096C121.036 123.572 121.19 122.637 121.116 120.825L120.669 120.897C120.601 122.847 120.859 123.764 119.621 125.318C118.23 125.47 117.048 125.503 115.657 125.272L115.216 125.217C113.764 125.303 112.397 125.259 110.945 125.118C109.842 123.738 110.124 122.548 110.057 120.825L110.167 120.484V115.428L110.725 114.986L110.216 114.74C110.216 113.516 110.112 112.3 110.02 111.08C108.776 109.908 107.876 109.921 106.27 109.601L105.756 108.287L105.357 108.173L105.339 104.123L105.468 100.676C106.773 99.2965 108.543 99.5246 110.394 99.3045L110.915 99.6527C112.501 99.6938 113.947 99.4406 115.491 99.1561C115.363 97.606 115.136 96.4073 115.957 95.0031C117.495 94.4709 119.002 94.3397 120.608 94.1833L120.669 89.0971L125.944 88.891L131.029 88.9573L131.581 89.1462L131.422 88.5992C131.422 86.9632 131.599 85.3291 131.74 83.6993L136.458 83.5828L136.538 78.6707L136.011 78.5604C136.605 77.0373 136.409 74.9788 136.446 73.3472L136.501 68.1727C139.932 67.7153 143.173 67.7729 146.616 67.917C147.37 51.0126 145.397 33.5844 147.045 16.8143C148.209 15.8418 150.329 16.0429 151.849 15.9135L151.702 10.6606C151.585 8.97988 151.726 7.24825 151.775 5.56326Z" fill="#222835"/>
<path d="M125.944 88.891L131.029 88.9573L131.581 89.1462C133.505 89.1719 134.608 88.8849 136.194 90.0235C136.354 91.5546 136.384 93.017 136.335 94.5555C136.403 95.9044 136.09 97.9003 137.212 98.7698C139.05 100.194 141.298 99.9526 142.462 102.115C142.021 103.211 141.935 104.297 140.71 104.697C137.787 105.65 133.934 104.072 131.385 105.889C131.127 107.827 131.232 108.255 129.712 109.613C126.918 110.575 123.781 110.096 120.877 109.914L120.626 109.848C118.751 109.967 117.44 109.655 116.037 110.992C115.498 112.673 115.461 114.056 113.923 115.012L110.725 114.986L110.216 114.74C110.216 113.516 110.112 112.3 110.02 111.08C108.776 109.908 107.876 109.921 106.27 109.601L105.756 108.287L105.357 108.173L105.339 104.123L105.468 100.676C106.773 99.2965 108.543 99.5246 110.394 99.3045L110.915 99.6527C112.501 99.6938 113.947 99.4406 115.491 99.1561C115.363 97.606 115.136 96.4073 115.957 95.0031C117.495 94.4709 119.002 94.3397 120.608 94.1833L120.669 89.0971L125.944 88.891Z" fill="#010101"/>
<path d="M110.915 99.6527C112.501 99.6938 113.947 99.4406 115.491 99.1561L115.663 99.524L124.443 99.4167C122.654 99.8839 121.643 99.8312 120.473 101.31L120.785 105.169L120.626 109.848C118.751 109.967 117.44 109.655 116.037 110.992C115.498 112.673 115.461 114.056 113.923 115.012L110.725 114.986L110.216 114.74C110.216 113.516 110.112 112.3 110.02 111.08C108.776 109.908 107.876 109.921 106.27 109.601L105.756 108.287L105.357 108.173L105.339 104.123L105.468 100.676C106.773 99.2965 108.543 99.5246 110.394 99.3045L110.915 99.6527Z" fill="#222835"/>
<path d="M105.339 104.123L105.468 100.676C106.773 99.2965 108.543 99.5246 110.394 99.3045C110.149 101.102 110.388 102.356 108.789 103.486C107.673 104.277 106.399 104.363 106.031 105.799C105.829 106.603 105.805 107.461 105.756 108.287L105.357 108.173L105.339 104.123Z" fill="#1B202C"/>
<path d="M110.915 99.6527C112.501 99.6938 113.947 99.4406 115.491 99.1561L115.663 99.524C115.473 101.218 115.412 102.465 114.376 103.895C112.955 104.57 112.894 104.835 111.343 104.294C110.369 102.569 110.743 101.597 110.915 99.6527Z" fill="#2A303B"/>
<path d="M125.944 88.891L131.029 88.9573C130.974 90.2081 131.262 92.5179 130.27 93.3574C128.695 94.691 127.243 94.0373 125.993 95.9915L125.828 99.383L124.443 99.4167L115.663 99.524L115.491 99.1561C115.363 97.606 115.136 96.4073 115.957 95.0031C117.495 94.4709 119.002 94.3397 120.608 94.1833L120.669 89.0971L125.944 88.891Z" fill="#373F4B"/>
<path d="M131.029 88.9573L131.581 89.1462C131.544 92.1936 132.01 96.1951 130.282 98.8109C128.897 99.6656 127.672 99.6994 126.097 99.8251L125.828 99.383L125.993 95.9915C127.243 94.0373 128.695 94.691 130.27 93.3574C131.262 92.5179 130.974 90.2081 131.029 88.9573Z" fill="#26222C"/>
<path d="M125.828 99.383L126.097 99.8251C126.03 101.814 126.361 103.182 125.092 104.758C123.653 104.936 122.231 105.089 120.785 105.169L120.473 101.31C121.643 99.8312 122.654 99.8839 124.443 99.4167L125.828 99.383Z" fill="#1B202C"/>
<path d="M136.458 83.5828L136.838 83.6516L136.868 84.0391C138.523 84.0397 139.724 83.7742 141.157 84.6707L141.55 85.8675L141.819 85.8884L142.567 84.3904C144.147 84.1924 145.177 84.0667 146.623 84.816C148.528 93.9761 146.837 105.441 146.776 114.874C138.964 115.462 129.406 116.325 121.692 115.051C120.558 113.536 120.846 111.724 120.877 109.914C123.781 110.096 126.918 110.575 129.712 109.613C131.232 108.255 131.127 107.827 131.385 105.889C133.934 104.072 137.787 105.65 140.71 104.697C141.935 104.297 142.021 103.211 142.462 102.115C141.298 99.9526 139.05 100.194 137.212 98.7698C136.09 97.9003 136.403 95.9044 136.335 94.5555C136.384 93.017 136.354 91.5546 136.194 90.0235C134.608 88.8849 133.505 89.1719 131.581 89.1462L131.422 88.5992C131.422 86.9632 131.599 85.3291 131.74 83.6993L136.458 83.5828Z" fill="#2A303B"/>
<path d="M136.458 83.5828L136.838 83.6516L136.868 84.0391C138.523 84.0397 139.724 83.7742 141.157 84.6707L141.55 85.8675L141.819 85.8884C141.893 88.189 142.468 91.8944 141.151 93.8075C139.589 94.7873 138.106 94.5941 136.335 94.5555C136.384 93.017 136.354 91.5546 136.194 90.0235C134.608 88.8849 133.505 89.1719 131.581 89.1462L131.422 88.5992C131.422 86.9632 131.599 85.3291 131.74 83.6993L136.458 83.5828Z" fill="#101622"/>
<path d="M136.458 83.5828L136.838 83.6516L136.868 84.0391C136.654 85.599 136.384 87.1711 136.293 88.7433C134.687 88.5753 133.033 88.6274 131.422 88.5992C131.422 86.9632 131.599 85.3291 131.74 83.6993L136.458 83.5828Z" fill="#2A303B"/>
<path d="M136.868 84.0391C138.523 84.0397 139.724 83.7742 141.157 84.6707L141.55 85.8675C141.292 87.5764 141.433 88.04 140.183 89.1867C138.817 89.1664 137.616 89.0799 136.293 88.7433C136.384 87.1711 136.654 85.599 136.868 84.0391Z" fill="#070912"/>
<path d="M120.626 109.848L120.877 109.914C120.846 111.724 120.558 113.536 121.692 115.051C129.406 116.325 138.964 115.462 146.776 114.874L146.788 120.301L141.629 120.443C136.115 120.414 126.14 119.35 121.116 120.825L120.669 120.897C120.601 122.847 120.859 123.764 119.621 125.318C118.23 125.47 117.048 125.503 115.657 125.272L115.216 125.217C113.764 125.303 112.397 125.259 110.945 125.118C109.842 123.738 110.124 122.548 110.057 120.825L110.167 120.484V115.428L110.725 114.986L113.923 115.012C115.461 114.056 115.498 112.673 116.037 110.992C117.44 109.655 118.751 109.967 120.626 109.848Z" fill="#070912"/>
<path d="M115.657 125.272C115.626 124.382 115.583 123.487 115.596 122.596C115.62 120.934 115.828 120.386 116.956 119.294C118.53 119.419 119.401 119.995 120.669 120.897C120.601 122.847 120.859 123.764 119.621 125.318C118.23 125.47 117.048 125.503 115.657 125.272Z" fill="#010101"/>
<path d="M110.167 120.484C112.011 120.497 113.414 120.126 114.897 121.307C115.02 122.61 115.142 123.91 115.216 125.217C113.764 125.303 112.397 125.259 110.945 125.118C109.842 123.738 110.124 122.548 110.057 120.825L110.167 120.484Z" fill="#2C2A29"/>
<path d="M136.501 68.1727C139.95 68.2487 143.4 68.3045 146.849 68.3401C146.923 71.8627 148.197 80.1381 145.777 82.8538C145.079 83.6423 144.3 83.5828 143.302 83.7735C142.18 82.9697 142.174 82.9329 141.929 81.5956C141.672 80.1853 141.807 78.607 141.837 77.1753L141.402 77.9828L136.538 78.6707L136.011 78.5604C136.605 77.0373 136.409 74.9788 136.446 73.3472L136.501 68.1727Z" fill="#010101"/>
<path d="M136.446 73.3472C138.425 73.3386 140.005 72.9266 141.623 74.1443C141.727 75.1506 141.862 76.1629 141.837 77.1753L141.402 77.9828L136.538 78.6707L136.011 78.5604C136.605 77.0373 136.409 74.9788 136.446 73.3472Z" fill="#71353A"/>
<path d="M146.788 120.301C146.849 122.553 147.272 125.373 145.998 127.325L144.619 128.326C143.063 127.886 142.995 127.625 142.003 126.305C141.647 124.346 141.641 122.427 141.629 120.443L146.788 120.301Z" fill="#101622"/>
<path d="M136.538 78.6707L141.402 77.9828C141.335 79.9829 141.697 81.682 140.422 83.2738C139.221 83.4314 138.039 83.5829 136.838 83.6516L136.458 83.5828L136.538 78.6707Z" fill="#37373F"/>
<path d="M6.00267 141.045L6.54188 141.355L6.88505 141.481C7.92051 141.856 10.4447 142.093 10.8062 143.091C11.1371 144.022 10.843 145.611 10.7695 146.598L5.97205 146.409L6.00267 141.045Z" fill="#1B202C"/>
<path d="M152.425 138.25C152.045 142.714 151.959 147.36 152.253 151.832C152.192 153.45 152.284 155.264 151.935 156.841C150.28 157.023 148.675 157.224 147.009 157.147C125.203 156.307 103.109 157.166 81.2662 157.153L33.3228 157.134C26.9508 157.131 20.4256 156.77 14.0842 156.971C13.2754 156.996 12.6198 157.318 11.9704 157.779C11.1677 159.248 11.3209 160.434 11.4006 162.045L10.8736 161.952L10.7021 157.353L10.6898 153.629C9.51957 151.63 8.00006 152.323 6.46219 150.965C5.50639 150.125 5.95367 147.642 5.97205 146.409L10.7695 146.598C10.7879 148.554 10.5735 149.743 11.5477 151.461C21.1915 152.789 42.3111 151.643 53.0823 151.645L147.119 151.706C147.009 148.523 146.341 144.572 148.216 141.845C149.086 141.712 150.348 141.624 151.107 141.167C152.008 140.624 152.149 139.221 152.425 138.25Z" fill="#101622"/>
<path d="M146.96 151.598C148.841 151.644 149.937 151.344 151.444 152.532L151.935 156.841C149.974 156.628 148.43 156.861 146.966 155.471C146.947 154.181 146.941 152.889 146.96 151.598Z" fill="#010101"/>
<path d="M152.388 10.4325C154.428 10.6072 155.684 10.3098 157.173 11.7753C157.253 13.1782 157.314 14.583 157.345 15.9884L157.228 109.607C157.234 121.211 158.399 140.773 156.885 151.213C155.304 151.857 153.92 151.838 152.253 151.832C151.959 147.36 152.045 142.714 152.425 138.25C151.53 124.318 152.351 109.843 152.351 95.8438L152.388 10.4325Z" fill="#010101"/>
<path d="M11.4006 162.045C11.3209 160.434 11.1677 159.248 11.9704 157.779C12.6198 157.318 13.2754 156.996 14.0842 156.971C20.4256 156.77 26.9508 157.131 33.3228 157.134L81.2662 157.153C103.109 157.166 125.203 156.307 147.009 157.147C146.959 158.787 147.199 160.707 146.114 162.03C135.931 162.528 125.625 162.229 115.424 162.23L28.2681 162.206C22.7967 162.204 16.8168 162.679 11.4006 162.045Z" fill="#010101"/>
<path d="M21.3814 0.234236L146.776 0.241611L146.843 5.16964C148.265 5.20888 150.501 4.97217 151.775 5.56326C151.726 7.24825 151.585 8.97988 151.702 10.6606L146.953 10.7697L146.727 15.6468C144.668 15.6382 143.688 15.9736 142.046 14.6725C141.794 13.4363 141.562 12.2701 141.071 11.1026C136.335 9.89715 20.2724 9.89716 16.4063 11.0616C15.4688 12.7116 16.3756 14.5965 14.9542 15.7057L11.8907 15.8516C10.8001 17.051 10.9533 18.4233 10.8675 20.0083C10.1445 33.1301 10.8369 46.691 10.8491 59.8587C10.8675 78.2372 10.3896 96.8292 10.9411 115.176L11.6212 115.382L11.5292 120.261L16.1918 120.347C16.2837 122.779 16.2531 125.301 16.5288 127.715L16.7003 133.083C15.7935 131.339 15.2177 130.644 13.4592 129.704C11.9826 129.895 11.8846 130.171 10.8553 131.173C10.5979 132.66 10.4876 133.148 11.4066 134.481C12.197 135.635 13.7717 136.672 14.8929 137.521L14.4824 138.503L12.1481 138.377C11.468 139.2 11.3822 139.551 11.2841 140.571L10.9471 140.684C9.43374 141.095 8.13489 141.411 6.54188 141.355L6.00267 141.045L5.97205 146.409C5.95367 147.642 5.50639 150.125 6.46219 150.965C8.00006 152.323 9.51957 151.63 10.6898 153.629L10.7021 157.353C9.46446 157.312 8.2636 157.183 7.03208 157.026C5.82507 155.585 5.95986 154.776 5.80669 152.956C4.57517 151.176 2.41229 152.226 0.543564 150.929C-0.565416 131.013 0.365912 110.551 0.365912 90.5834C0.365912 64.2448 -0.338718 37.6958 0.543564 11.3798C2.16721 9.89349 4.09722 11.0616 5.82502 9.59733C5.81889 8.45009 5.86792 7.32551 5.94757 6.18133C7.40579 4.89613 8.50251 5.16965 10.408 5.0513L10.6469 4.76186C10.6285 2.85675 10.4693 2.4214 11.4006 0.863956C14.0045 -0.492373 18.1586 0.126318 21.3814 0.234236Z" fill="#546974"/>
<path d="M10.408 5.0513C10.8001 6.84789 11.3086 8.29372 10.4263 10.0216C9.12741 10.6207 8.06137 10.5968 6.64604 10.5937C5.66573 11.9709 5.76991 13.5326 5.73315 15.2035C5.17559 40.4195 5.81277 65.8402 5.8434 91.0783C5.86179 107.516 4.88756 124.699 6.00267 141.045L5.97205 146.409C5.95367 147.642 5.50639 150.125 6.46219 150.965C8.00006 152.323 9.51957 151.63 10.6898 153.629L10.7021 157.353C9.46446 157.312 8.2636 157.183 7.03208 157.026C5.82507 155.585 5.95986 154.776 5.80669 152.956C4.57517 151.176 2.41229 152.226 0.543564 150.929C-0.565416 131.013 0.365912 110.551 0.365912 90.5834C0.365912 64.2448 -0.338718 37.6958 0.543564 11.3798C2.16721 9.89349 4.09722 11.0616 5.82502 9.59733C5.81889 8.45009 5.86792 7.32551 5.94757 6.18133C7.40579 4.89613 8.50251 5.16965 10.408 5.0513Z" fill="#010101"/>
<path d="M21.3814 0.234236L146.776 0.241611L146.843 5.16964L49.7982 5.21133C43.8979 5.21869 13.9003 5.662 10.6469 4.76186C10.6285 2.85675 10.4693 2.4214 11.4006 0.863956C14.0045 -0.492373 18.1586 0.126318 21.3814 0.234236Z" fill="#010101"/>
<path d="M10.9411 115.176L11.6212 115.382L11.5292 120.261L16.1918 120.347C16.2837 122.779 16.2531 125.301 16.5288 127.715L16.7003 133.083C15.7935 131.339 15.2177 130.644 13.4592 129.704C11.9826 129.895 11.8846 130.171 10.8553 131.173C10.5979 132.66 10.4876 133.148 11.4066 134.481C12.197 135.635 13.7717 136.672 14.8929 137.521L14.4824 138.503L12.1481 138.377C11.468 139.2 11.3822 139.551 11.2841 140.571L10.9471 140.684C10.6714 132.186 10.8553 123.677 10.9411 115.176Z" fill="#1B202C"/>
<path d="M11.5292 120.261L16.1918 120.347C16.2837 122.779 16.2531 125.301 16.5288 127.715C14.9358 127.898 13.7655 128.058 12.2032 127.527C10.9962 125.313 11.4802 122.764 11.5292 120.261Z" fill="#101622"/>
<path d="M146.843 5.16964C148.265 5.20888 150.501 4.97217 151.775 5.56326C151.726 7.24825 151.585 8.97988 151.702 10.6606L146.953 10.7697L146.843 5.16964Z" fill="#010101"/>
<path d="M68.4181 47.485C70.1765 47.4452 71.8921 47.2888 73.577 47.8664L73.8588 47.7928L74.0243 53.1089L78.9135 52.7251C80.9967 52.7417 81.8607 52.3909 83.4598 53.7896C85.157 58.4797 83.0247 63.5077 84.0663 68.3738C86.0637 68.3726 87.1299 68.0942 88.8209 69.2114C90.1137 71.6892 89.1701 75.5614 89.2804 78.3274C89.4213 80.8303 90.3587 86.3022 88.6064 88.2503C87.9508 88.9781 86.9276 89.1535 86.0208 89.3975C83.6619 92.147 84.3175 96.2644 84.3971 99.6662C84.3297 103.155 84.2563 106.636 84.3605 110.126C85.3592 110.121 86.6151 110.223 87.5832 110.006C89.7399 109.524 89.3968 107.157 90.6406 105.715C91.4555 104.773 93.4773 104.892 94.6721 104.755C96.3631 104.527 97.9133 104.261 99.6166 104.624C101.743 104.835 103.342 103.562 105.339 104.123L105.357 108.173L105.756 108.287L106.27 109.601C107.876 109.921 108.776 109.908 110.02 111.08C110.112 112.3 110.216 113.516 110.216 114.74L110.725 114.986L110.167 115.428V120.484L110.057 120.825C108.678 120.495 107.128 120.472 105.713 120.335C103.182 120.412 102.343 120.285 100.156 121.664C99.6961 122.821 99.5675 122.91 100.088 124.021C100.382 124.647 100.805 124.986 101.314 125.434C100.137 126.709 100.18 127.128 100.192 128.929C100.192 129.437 100.266 129.942 100.327 130.446L99.8064 130.722L94.6598 130.929C93.2261 130.945 91.8903 130.843 90.475 130.629C89.2435 129.095 89.556 127.87 89.4947 125.936L89.4028 120.445C88.1774 120.44 86.952 120.475 85.7266 120.494C84.0969 121.973 84.532 123.805 82.988 125.413C81.4808 125.6 80.531 125.712 79.1096 125.113C78.1293 123.268 79.0483 120.845 79.128 118.826C79.2015 117.076 78.9074 116.489 77.7862 115.276C76.3708 114.894 75.5376 114.791 74.1284 115.24C73.5647 116.635 73.2583 117.99 72.9519 119.454C71.4998 120.765 70.2746 120.425 68.3752 120.497L63.4736 120.331L63.2285 119.696L63.1182 116.106L62.2053 115.451C62.481 113.796 62.7997 112.191 63.2408 110.568L63.4676 110.148C63.5411 108.549 63.8657 106.907 62.8792 105.551C61.5619 105.219 60.0241 104.982 59.0377 103.98C57.0526 101.947 57.9593 96.9554 58.088 94.3096C56.3847 94.3728 54.8897 94.5328 53.2783 93.8589C52.3164 92.2003 52.5492 90.9617 52.5309 89.064C51.1339 89.1001 49.9514 89.059 48.5974 88.7114C47.4455 86.8749 47.8069 85.2243 47.8069 83.0837C47.7702 81.2902 47.6599 79.8517 47.0533 78.1311L47.5619 78.0588C47.7518 74.8237 47.5925 71.5028 47.5864 68.2585L52.7147 68.1696C52.8127 70.0729 52.5248 71.5469 53.7318 73.0713C55.2267 73.4251 56.5502 73.427 58.0758 73.3938L61.2005 73.2626C65.0176 70.9074 61.7152 66.9335 63.4736 63.6395C65.2688 62.5714 66.1143 62.8375 68.1607 62.9233C68.6631 57.8285 68.4365 52.6031 68.4181 47.485Z" fill="#1B202C"/>
<path d="M47.5864 68.2585L52.7147 68.1696C52.8127 70.0729 52.5248 71.5469 53.7318 73.0713C55.2267 73.4251 56.5502 73.427 58.0758 73.3938C57.941 75.2168 57.653 76.6805 58.6823 78.2949C59.7668 78.4071 60.7471 78.4304 61.8254 78.358C62.9099 79.374 63.5042 80.2301 63.6451 81.7752C63.8718 84.2782 62.4687 86.0288 63.6451 88.487C65.1768 89.4092 66.6412 89.2338 68.3506 89.1701L68.5284 93.9688C66.7087 94.1251 65.373 93.9841 63.8352 95.0252C63.3389 96.5882 63.3571 98.088 63.3387 99.7061C61.8805 99.8741 60.7042 99.9392 59.2644 99.6172C58.0942 97.8979 58.2657 96.3637 58.088 94.3096C56.3847 94.3728 54.8897 94.5328 53.2783 93.8589C52.3164 92.2003 52.5492 90.9617 52.5309 89.064C51.1339 89.1001 49.9514 89.059 48.5974 88.7114C47.4455 86.8749 47.8069 85.2243 47.8069 83.0837C47.7702 81.2902 47.6599 79.8517 47.0533 78.1311L47.5619 78.0588C47.7518 74.8237 47.5925 71.5028 47.5864 68.2585Z" fill="#373F4B"/>
<path d="M47.0533 78.1311L47.5619 78.0588C49.4367 78.401 51.3116 78.2059 52.586 79.6451C52.635 81.2816 52.6595 82.9194 52.6595 84.5565L52.5309 89.064C51.1339 89.1001 49.9514 89.059 48.5974 88.7114C47.4455 86.8749 47.8069 85.2243 47.8069 83.0837C47.7702 81.2902 47.6599 79.8517 47.0533 78.1311Z" fill="#2A303B"/>
<path d="M52.5309 89.064L58.4495 88.7139C58.2657 90.5577 57.9654 92.4578 58.088 94.3096C56.3847 94.3728 54.8897 94.5328 53.2783 93.8589C52.3164 92.2003 52.5492 90.9617 52.5309 89.064Z" fill="#4B242B"/>
<path d="M52.6595 84.5565C54.7733 85.1814 56.8687 85.4702 57.9532 87.5752C58.1431 87.9474 58.2963 88.3245 58.4495 88.7139L52.5309 89.064L52.6595 84.5565Z" fill="#5F3138"/>
<path d="M68.4181 47.485C70.1765 47.4452 71.8921 47.2888 73.577 47.8664L73.8588 47.7928L74.0243 53.1089L78.9135 52.7251C80.9967 52.7417 81.8607 52.3909 83.4598 53.7896C85.157 58.4797 83.0247 63.5077 84.0663 68.3738C86.0637 68.3726 87.1299 68.0942 88.8209 69.2114C90.1137 71.6892 89.1701 75.5614 89.2804 78.3274C88.1531 78.431 86.5967 78.7364 85.5613 78.1955C84.6055 77.6964 84.1215 75.0758 83.7662 73.996C82.1976 72.8444 80.721 73.2387 78.8155 73.2571L78.8339 67.8317C77.0265 67.7784 75.1393 68.142 73.3441 68.3658L72.6395 67.9826C71.5428 68.7926 70.0234 68.681 69.0615 67.7196C68.0995 66.7587 67.983 65.238 68.7918 64.1429L68.1607 62.9233C68.6631 57.8285 68.4365 52.6031 68.4181 47.485Z" fill="#373F4B"/>
<path d="M68.4181 47.485C70.1765 47.4452 71.8921 47.2888 73.577 47.8664L73.8588 47.7928L74.0243 53.1089C74.0917 54.9938 73.7178 56.0608 75.1087 57.4355C76.04 57.6593 78.0067 57.8267 78.503 58.6122C78.987 59.3847 78.9319 60.3321 78.9503 61.2132L78.8339 67.8317C77.0265 67.7784 75.1393 68.142 73.3441 68.3658L72.6395 67.9826C71.5428 68.7926 70.0234 68.681 69.0615 67.7196C68.0995 66.7587 67.983 65.238 68.7918 64.1429L68.1607 62.9233C68.6631 57.8285 68.4365 52.6031 68.4181 47.485Z" fill="#070912"/>
<path d="M68.1607 62.9233C69.8027 63.0159 71.2671 63.1122 72.8785 62.6854C73.4544 62.5328 73.5708 61.9834 73.8649 61.4904L78.9503 61.2132L78.8339 67.8317C77.0265 67.7784 75.1393 68.142 73.3441 68.3658L72.6395 67.9826C71.5428 68.7926 70.0234 68.681 69.0615 67.7196C68.0995 66.7587 67.983 65.238 68.7918 64.1429L68.1607 62.9233Z" fill="#2A303B"/>
<path d="M68.7918 64.1429C69.4351 63.274 70.5257 62.8608 71.5796 63.0876C72.6334 63.3139 73.4605 64.1374 73.6872 65.1927C73.9139 66.2479 73.5034 67.3394 72.6395 67.9826C71.5428 68.7926 70.0234 68.681 69.0615 67.7196C68.0995 66.7587 67.983 65.238 68.7918 64.1429Z" fill="#5F3138"/>
<path d="M73.577 47.8664L73.8588 47.7928L74.0243 53.1089C74.0917 54.9938 73.7178 56.0608 75.1087 57.4355C76.04 57.6593 78.0067 57.8267 78.503 58.6122C78.987 59.3847 78.9319 60.3321 78.9503 61.2132L73.8649 61.4904C73.3012 57.0498 73.5648 52.348 73.577 47.8664Z" fill="#222835"/>
<path d="M58.0758 73.3938L61.2005 73.2626C65.0176 70.9074 61.7152 66.9335 63.4736 63.6395C65.2688 62.5714 66.1143 62.8375 68.1607 62.9233L68.7918 64.1429C67.983 65.238 68.0995 66.7587 69.0615 67.7196C70.0234 68.681 71.5428 68.7926 72.6395 67.9826L73.3441 68.3658C73.4054 71.8646 73.3994 75.3645 73.3075 78.8627L73.1849 84.1494C73.1603 85.8325 73.0439 87.5543 73.3196 89.219L68.3506 89.1701C66.6412 89.2338 65.1768 89.4092 63.6451 88.487C62.4687 86.0288 63.8718 84.2782 63.6451 81.7752C63.5042 80.2301 62.9099 79.374 61.8254 78.358C60.7471 78.4304 59.7668 78.4071 58.6823 78.2949C57.653 76.6805 57.941 75.2168 58.0758 73.3938Z" fill="#010101"/>
<path d="M68.4119 78.5671L73.3075 78.8627L73.1849 84.1494C73.1603 85.8325 73.0439 87.5543 73.3196 89.219L68.3506 89.1701L68.4119 78.5671Z" fill="#101622"/>
<path d="M63.2284 73.3123C65.0788 73.3748 66.537 73.1105 68.1055 74.1676C68.3874 75.673 68.4548 77.0373 68.4119 78.5671C66.5922 78.5162 65.1155 78.7768 63.5532 77.7749C63.1917 76.2542 63.1978 74.858 63.2284 73.3123Z" fill="#2A303B"/>
<path d="M73.3441 68.3658C75.1393 68.142 77.0265 67.7784 78.8339 67.8317L78.8155 73.2571C78.9626 77.1476 80.2615 86.2262 78.0803 89.2951C76.8856 89.771 76.7875 89.8679 75.6295 89.3497C74.9556 89.0511 74.6002 88.6207 74.1162 88.0829C73.6444 86.6714 73.6504 85.4904 73.7117 84.0127L73.1849 84.1494L73.3075 78.8627C73.3994 75.3645 73.4054 71.8646 73.3441 68.3658Z" fill="#373F4B"/>
<path d="M73.3441 68.3658C75.1393 68.142 77.0265 67.7784 78.8339 67.8317L78.8155 73.2571C76.7569 73.3546 75.8195 73.0149 74.3122 74.492C73.1236 77.3181 73.9139 80.9751 73.7117 84.0127L73.1849 84.1494L73.3075 78.8627C73.3994 75.3645 73.4054 71.8646 73.3441 68.3658Z" fill="#1B202C"/>
<path d="M58.088 94.3096C58.2657 96.3637 58.0942 97.8979 59.2644 99.6172C60.7042 99.9392 61.8805 99.8741 63.3387 99.7061C64.9869 99.635 66.7087 99.4639 68.3568 99.5063L68.4181 103.35L68.4854 110.096L63.4676 110.148C63.5411 108.549 63.8657 106.907 62.8792 105.551C61.5619 105.219 60.0241 104.982 59.0377 103.98C57.0526 101.947 57.9593 96.9554 58.088 94.3096Z" fill="#373F4B"/>
<path d="M84.3971 99.6662C84.3297 103.155 84.2563 106.636 84.3605 110.126C82.6817 110.163 80.9905 110.448 79.5936 109.387C78.8828 108.059 78.3804 106.877 78.2946 105.354C78.2027 103.833 78.6991 100.936 79.7101 99.8165L84.3971 99.6662Z" fill="#070912"/>
<path d="M68.5284 93.9688L68.8347 94.187L68.8224 94.6199C70.4828 94.7075 71.7879 94.4512 73.099 95.5249C73.2216 96.7942 73.3318 98.0561 73.387 99.3296C71.7082 99.4081 70.0356 99.5075 68.3568 99.5063C66.7087 99.4639 64.9869 99.635 63.3387 99.7061C63.3571 98.088 63.3389 96.5882 63.8352 95.0252C65.373 93.9841 66.7087 94.1251 68.5284 93.9688Z" fill="#222835"/>
<path d="M68.8224 94.6199C70.4828 94.7075 71.7879 94.4512 73.099 95.5249C73.2216 96.7942 73.3318 98.0561 73.387 99.3296C71.9594 99.1297 70.5441 98.9011 69.1288 98.6264C68.1975 97.1578 68.608 96.2632 68.8224 94.6199Z" fill="#2A303B"/>
<path d="M99.6166 104.624C101.743 104.835 103.342 103.562 105.339 104.123L105.357 108.173L104.916 109.578L101.473 110.038L100.425 109.781C99.2183 108.159 99.0958 106.807 98.8997 104.875L99.6166 104.624Z" fill="#070912"/>
<path d="M62.2053 115.451C62.481 113.796 62.7997 112.191 63.2408 110.568C63.2715 111.733 62.9773 113.712 63.8657 114.553C65.2565 115.871 67.8054 115.279 68.3017 117.468C68.5039 118.367 68.3875 119.572 68.3752 120.497L63.4736 120.331L63.2285 119.696L63.1182 116.106L62.2053 115.451Z" fill="#070912"/>
<path d="M89.4947 125.936C91.1306 126.266 92.8892 125.611 94.5496 125.577L94.6598 130.929C93.2261 130.945 91.8903 130.843 90.475 130.629C89.2435 129.095 89.556 127.87 89.4947 125.936Z" fill="#2B1B25"/>
<path d="M68.4181 103.35C70.4645 105.261 72.5231 104.615 74.1468 107.576L73.9936 108.747C72.1984 109.864 70.5625 110.053 68.4854 110.096L68.4181 103.35Z" fill="#2A303B"/>
<path d="M105.357 108.173L105.756 108.287L106.27 109.601C107.876 109.921 108.776 109.908 110.02 111.08C110.112 112.3 110.216 113.516 110.216 114.74C108.629 114.896 106.999 114.837 105.4 114.845C105.321 113.089 105.088 111.327 104.916 109.578L105.357 108.173Z" fill="#070912"/>
<path d="M68.3506 89.1701L73.3196 89.219C73.4912 91.1058 73.9139 92.1568 72.9091 93.8019C71.4999 94.2342 70.2991 94.2409 68.8347 94.187L68.5284 93.9688L68.3506 89.1701Z" fill="#070912"/>
<path d="M94.5496 125.577C96.4551 125.766 98.0358 125.561 99.5247 126.816C99.7085 128.136 99.831 129.387 99.8064 130.722L94.6598 130.929L94.5496 125.577Z" fill="#4B242B"/>
<path d="M89.4028 120.445C89.4089 118.499 89.1333 117.335 90.1872 115.669C91.7066 115.303 92.981 115.355 94.525 115.456C94.4882 117.445 94.7762 118.549 93.5876 120.18C92.1722 120.375 90.8365 120.472 89.4028 120.445Z" fill="#070912"/>
<path d="M94.7088 109.479C96.3999 109.67 98.1828 109.76 99.8309 110.178C99.8248 111.257 99.9351 112.689 99.4449 113.669C98.8935 114.77 98.2379 114.852 97.1657 115.27L95.7627 114.558C94.5679 112.727 94.7762 111.637 94.7088 109.479Z" fill="#070912"/>
<path d="M104.916 109.578C105.088 111.327 105.321 113.089 105.4 114.845C104.451 114.889 103.336 115.019 102.392 114.881C100.964 114.671 100.603 114.308 99.7575 113.259C99.9413 111.731 100.401 111.112 101.473 110.038L104.916 109.578Z" fill="#2A303B"/>
<path d="M105.713 120.335C105.596 119.039 105.59 117.766 105.603 116.466C107.024 115.267 108.36 115.537 110.167 115.428V120.484L110.057 120.825C108.678 120.495 107.128 120.472 105.713 120.335Z" fill="#2A303B"/>
<path d="M94.7088 109.479C94.7395 108.314 94.8743 107.153 94.9907 105.994C96.2406 104.821 97.2638 105.016 98.8997 104.875C99.0958 106.807 99.2183 108.159 100.425 109.781L99.8309 110.178C98.1828 109.76 96.3999 109.67 94.7088 109.479Z" fill="#070912"/>
<path d="M73.8956 94.0913C75.2741 94.0447 76.5484 94.1324 77.9148 94.3139C79.1524 95.9719 78.7848 97.5821 78.8277 99.6221C77.3389 99.6871 76.0522 99.7036 74.6001 99.3345C73.4972 97.6201 73.8711 96.1013 73.8956 94.0913Z" fill="#070912"/>
<path d="M31.736 78.3544C33.525 78.1723 35.3938 78.2017 37.189 78.1379L42.6297 78.144L47.0533 78.1311C47.6599 79.8517 47.7702 81.2902 47.8069 83.0837C47.8069 85.2243 47.4455 86.8749 48.5974 88.7114C49.9514 89.059 51.1339 89.1001 52.5309 89.064C52.5492 90.9617 52.3164 92.2003 53.2783 93.8589C54.8897 94.5328 56.3847 94.3728 58.088 94.3096C57.9593 96.9554 57.0526 101.947 59.0377 103.98C60.0241 104.982 61.5619 105.219 62.8792 105.551C63.8657 106.907 63.5411 108.549 63.4676 110.148L63.2408 110.568C62.7997 112.191 62.481 113.796 62.2053 115.451C60.9431 115.353 59.8525 115.379 58.7803 114.649C58.3637 113.483 57.898 111.797 56.9299 110.978C54.6568 109.058 50.0371 109.922 47.2493 110.074C43.9775 109.98 40.3014 109.541 37.1154 110.359L36.7845 110.189L31.932 109.985L31.5582 106.429C30.3696 104.813 28.7644 105.046 26.8405 104.738L26.6812 99.6129L26.6383 94.4911L26.8099 94.2244C28.1945 94.4322 29.5854 94.6977 30.9885 94.6965C31.3867 93.5658 31.5277 92.1782 31.7666 90.9917L31.8033 89.2031L26.7241 89.0934L26.8282 83.917C28.023 83.9483 29.3464 84.0777 30.4922 83.7147C31.3928 83.4302 31.5031 82.6901 31.9137 81.8862L31.736 78.3544Z" fill="#070912"/>
<path d="M32.0668 89.0536L36.7049 89.0965C36.7846 90.9065 36.7601 92.8178 37.0296 94.604L42.1702 94.672C42.3417 96.262 42.4336 97.915 42.7522 99.4799L47.6232 99.6485L48.0153 99.5001C49.5838 99.5344 51.5995 99.2131 52.8984 100.102C53.2538 101.751 53.548 102.551 53.0394 104.199C51.2381 104.968 49.302 104.571 47.7825 105.68L47.2493 110.074C43.9775 109.98 40.3014 109.541 37.1154 110.359L36.7845 110.189L31.932 109.985L31.5582 106.429C30.3696 104.813 28.7644 105.046 26.8405 104.738L26.6812 99.6129L26.6383 94.4911L26.8099 94.2244C28.1945 94.4322 29.5854 94.6977 30.9885 94.6965C31.3867 93.5658 31.5277 92.1782 31.7666 90.9917L31.8033 89.2031L32.0668 89.0536Z" fill="#1B202C"/>
<path d="M32.0668 89.0536L36.7049 89.0965C36.7846 90.9065 36.7601 92.8178 37.0296 94.604L36.6498 94.715L37.2195 99.4253L36.4476 99.5491L36.7784 104.892C36.8152 106.64 36.95 108.449 36.7845 110.189L31.932 109.985L31.5582 106.429C30.3696 104.813 28.7644 105.046 26.8405 104.738L26.6812 99.6129L26.6383 94.4911L26.8099 94.2244C28.1945 94.4322 29.5854 94.6977 30.9885 94.6965C31.3867 93.5658 31.5277 92.1782 31.7666 90.9917L31.8033 89.2031L32.0668 89.0536Z" fill="#1B202C"/>
<path d="M32.0668 89.0536L36.7049 89.0965C36.7846 90.9065 36.7601 92.8178 37.0296 94.604L36.6498 94.715L37.2195 99.4253L36.4476 99.5491L32.6918 99.8459C31.35 98.229 32.4528 96.3306 30.9885 94.6965C31.3867 93.5658 31.5277 92.1782 31.7666 90.9917L31.8033 89.2031L32.0668 89.0536Z" fill="#37373F"/>
<path d="M32.0668 89.0536L36.7049 89.0965C36.7846 90.9065 36.7601 92.8178 37.0296 94.604L36.6498 94.715L33.4024 94.5469C31.8952 93.5027 32.0791 92.6871 31.7666 90.9917L31.8033 89.2031L32.0668 89.0536Z" fill="#2A303B"/>
<path d="M26.8099 94.2244C28.1945 94.4322 29.5854 94.6977 30.9885 94.6965C32.4528 96.3306 31.35 98.229 32.6918 99.8459L32.2506 100.08C30.5595 99.364 28.4948 99.6061 26.6812 99.6129L26.6383 94.4911L26.8099 94.2244Z" fill="#26222C"/>
<path d="M26.6812 99.6129C28.4948 99.6061 30.5595 99.364 32.2506 100.08C32.0177 102.003 32.2506 103.017 30.8169 104.374L26.8405 104.738L26.6812 99.6129Z" fill="#010101"/>
<path d="M31.932 109.985C32.079 108.557 32.2629 107.151 32.5018 105.735C34.0152 104.67 34.9771 104.902 36.7784 104.892C36.8152 106.64 36.95 108.449 36.7845 110.189L31.932 109.985Z" fill="#070912"/>
<path d="M37.0296 94.604L42.1702 94.672C42.3417 96.262 42.4336 97.915 42.7522 99.4799C42.7889 101.571 43.0157 102.338 41.8638 104.13C40.2524 104.813 40.2218 104.866 38.5736 104.31C36.999 102.569 37.3176 101.719 37.2195 99.4253L36.6498 94.715L37.0296 94.604Z" fill="#373F4B"/>
<path d="M37.0296 94.604L42.1702 94.672C42.3417 96.262 42.4336 97.915 42.7522 99.4799L37.2195 99.4253L36.6498 94.715L37.0296 94.604Z" fill="#2A303B"/>
<path d="M42.7522 99.4799L47.6232 99.6485C47.6293 101.782 47.9172 102.632 46.6428 104.393C44.0817 105.801 39.6581 105.143 36.7784 104.892L36.4476 99.5491L37.2195 99.4253C37.3176 101.719 36.999 102.569 38.5736 104.31C40.2218 104.866 40.2524 104.813 41.8638 104.13C43.0157 102.338 42.7889 101.571 42.7522 99.4799Z" fill="#2A303B"/>
<path d="M31.736 78.3544C33.5066 78.5113 35.308 78.7548 37.0848 78.7707L37.1644 83.5234C38.7758 83.5847 40.6139 83.475 42.1763 83.8324L37.0664 84.0483L37.0848 88.9137L36.7049 89.0965L32.0668 89.0536L31.8033 89.2031L26.7241 89.0934L26.8282 83.917C28.023 83.9483 29.3464 84.0777 30.4922 83.7147C31.3928 83.4302 31.5031 82.6901 31.9137 81.8862L31.736 78.3544Z" fill="#26222C"/>
<path d="M32.0668 89.0536C31.7176 87.5942 31.6195 86.5856 31.9258 85.1103C33.6353 83.9581 35.0322 84.1684 37.0664 84.0483L37.0848 88.9137L36.7049 89.0965L32.0668 89.0536Z" fill="#010101"/>
<path d="M31.736 78.3544C33.5066 78.5113 35.308 78.7548 37.0848 78.7707L37.1644 83.5234C35.5285 83.6405 34.1683 83.7227 32.5569 83.2744L31.9137 81.8862L31.736 78.3544Z" fill="#37373F"/>
<path d="M31.736 78.3544C33.525 78.1723 35.3938 78.2017 37.189 78.1379L42.6297 78.144L47.0533 78.1311C47.6599 79.8517 47.7702 81.2902 47.8069 83.0837C46.7776 83.1015 45.5339 83.2284 44.5352 82.9586C43.224 82.603 42.2927 80.2123 41.6126 79.0564C39.9706 78.3169 38.8432 78.6303 37.0848 78.7707C35.308 78.7548 33.5066 78.5113 31.736 78.3544Z" fill="#101622"/>
<path d="M42.1702 94.672C44.0389 94.5813 45.4359 94.1931 47.084 95.1484C47.4884 96.5918 47.764 98.0248 48.0153 99.5001L47.6232 99.6485L42.7522 99.4799C42.4336 97.915 42.3417 96.262 42.1702 94.672Z" fill="#101622"/>
<path d="M37.0664 84.0483L42.1763 83.8324C42.0905 85.8277 42.3846 87.2355 41.1776 88.8592C39.7745 88.9929 38.4817 89.0296 37.0848 88.9137L37.0664 84.0483Z" fill="#37373F"/>
<path d="M78.8768 42.3773C79.128 44.3082 78.9441 45.8239 80.3043 47.2747C81.6093 47.3434 82.89 47.409 84.195 47.3434C86.8847 47.2643 92.6501 46.4586 94.6843 48.4011C95.3276 49.0136 95.2173 49.4508 95.3276 50.2792L94.3595 52.3143C92.6256 52.849 90.6282 52.1524 89.4763 53.4757C89.4641 58.2657 89.3232 63.1024 89.6479 67.8821C91.388 68.2285 92.9381 68.3383 94.6965 68.3321C94.623 71.2189 93.9429 75.692 96.0383 77.973C96.8287 78.8283 98.3789 79.1233 99.4695 79.4139C100.07 80.758 99.8677 81.9917 99.7513 83.4099C99.7268 86.9945 99.6104 90.6097 99.6961 94.1919L100.217 94.2992C102.453 94.5298 103.354 94.3875 105.137 95.8235L105.541 97.1542C104.873 98.2885 104.549 99.1487 103.14 99.4848C102.092 99.7343 100.725 99.627 99.6471 99.6313L99.6166 104.624C97.9133 104.261 96.3631 104.527 94.6721 104.755C93.4773 104.892 91.4555 104.773 90.6406 105.715C89.3968 107.157 89.7399 109.524 87.5832 110.006C86.6151 110.223 85.3592 110.121 84.3605 110.126C84.2563 106.636 84.3297 103.155 84.3971 99.6662C84.3175 96.2644 83.6619 92.147 86.0208 89.3975C86.9276 89.1535 87.9508 88.9781 88.6064 88.2503C90.3587 86.3022 89.4213 80.8303 89.2804 78.3274C89.1701 75.5614 90.1137 71.6892 88.8209 69.2114C87.1299 68.0942 86.0637 68.3726 84.0663 68.3738C83.0247 63.5077 85.157 58.4797 83.4598 53.7896C81.8607 52.3909 80.9967 52.7417 78.9135 52.7251C78.8278 49.2767 78.8155 45.827 78.8768 42.3773Z" fill="#010101"/>
<path d="M84.3971 99.6662C86.0514 99.7092 87.283 99.6994 88.8515 99.0439C88.6738 97.587 88.7719 96.6679 89.2743 95.2882C90.5977 94.0834 92.0804 94.4887 93.8266 94.4764C96.982 91.7012 93.2691 87.8523 94.7947 84.6246C96.5899 83.3272 97.5701 83.5252 99.7513 83.4099C99.7268 86.9945 99.6104 90.6097 99.6961 94.1919L100.217 94.2992C102.453 94.5298 103.354 94.3875 105.137 95.8235L105.541 97.1542C104.873 98.2885 104.549 99.1487 103.14 99.4848C102.092 99.7343 100.725 99.627 99.6471 99.6313L99.6166 104.624C97.9133 104.261 96.3631 104.527 94.6721 104.755C93.4773 104.892 91.4555 104.773 90.6406 105.715C89.3968 107.157 89.7399 109.524 87.5832 110.006C86.6151 110.223 85.3592 110.121 84.3605 110.126C84.2563 106.636 84.3297 103.155 84.3971 99.6662Z" fill="#373F4B"/>
<path d="M99.6961 94.1919L100.217 94.2992C102.453 94.5298 103.354 94.3875 105.137 95.8235L105.541 97.1542C104.873 98.2885 104.549 99.1487 103.14 99.4848C102.092 99.7343 100.725 99.627 99.6471 99.6313L94.8374 99.6521C94.8129 98.2578 94.8559 96.8733 94.9049 95.4802C96.3508 94.1324 97.7723 94.377 99.6961 94.1919Z" fill="#4B242B"/>
<path d="M94.8374 99.6521L99.6471 99.6313L99.6166 104.624C97.9133 104.261 96.3631 104.527 94.6721 104.755L94.8374 99.6521Z" fill="#2A303B"/>
<path d="M78.8768 42.3773C79.128 44.3082 78.9441 45.8239 80.3043 47.2747C81.6093 47.3434 82.89 47.409 84.195 47.3434C84.3114 54.2483 84.8628 61.5168 84.0663 68.3738C83.0247 63.5077 85.157 58.4797 83.4598 53.7896C81.8607 52.3909 80.9967 52.7417 78.9135 52.7251C78.8278 49.2767 78.8155 45.827 78.8768 42.3773Z" fill="#222835"/>
<path d="M99.8432 56.4563L100.456 57.8482L105.167 57.9346L105.296 58.3921L105.161 62.8093C106.773 62.7394 108.433 62.5641 110.032 62.8057L110.216 63.3446L110.296 68.2855L110.204 78.5886C108.592 78.5764 106.901 78.3347 105.517 79.2649C105.535 81.151 105.553 82.1738 104.065 83.57C103.158 84.4229 101.902 84.4726 100.719 84.5897C99.5919 87.2564 100.174 91.3916 100.217 94.2992L99.6961 94.1919C99.6104 90.6097 99.7268 86.9945 99.7513 83.4099C99.8677 81.9917 100.07 80.758 99.4695 79.4139C98.3789 79.1233 96.8287 78.8283 96.0383 77.973C93.9429 75.692 94.623 71.2189 94.6965 68.3321C94.7823 65.2503 93.9 61.873 95.0519 58.9488C96.5652 57.4809 97.5149 57.6526 99.5674 57.373L99.8432 56.4563Z" fill="#1B202C"/>
<path d="M105.161 62.8093C106.773 62.7394 108.433 62.5641 110.032 62.8057L110.216 63.3446L110.296 68.2855C108.347 68.3315 107.042 68.0427 105.425 69.1764C105.247 70.5702 105.143 71.9234 105.125 73.3282C103.795 73.3135 102.508 73.2074 101.191 73.0547C99.9902 71.5874 100.278 69.9135 100.174 68.055L100.352 62.7627L105.161 62.8093Z" fill="#373F4B"/>
<path d="M99.5674 57.373C99.8493 60.7485 100.86 65.1118 98.6484 67.9526C97.2821 68.3536 96.118 68.3812 94.6965 68.3321C94.7823 65.2503 93.9 61.873 95.0519 58.9488C96.5652 57.4809 97.5149 57.6526 99.5674 57.373Z" fill="#070912"/>
<path d="M105.125 73.3282C105.198 74.595 105.137 75.8275 105.063 77.0937C104.218 78.3501 104.095 78.6272 102.723 79.2024L101.203 78.3237C99.0712 74.8415 99.7697 71.902 100.174 68.055C100.278 69.9135 99.9902 71.5874 101.191 73.0547C102.508 73.2074 103.795 73.3135 105.125 73.3282Z" fill="#2A303B"/>
<path d="M100.456 57.8482L105.167 57.9346L105.296 58.3921L105.161 62.8093L100.352 62.7627L100.456 57.8482Z" fill="#2A303B"/>
<path d="M78.3192 26.4012C79.1831 28.0194 79.0545 29.6204 79.0422 31.3955L78.9074 36.4927L78.8768 42.3773C78.8155 45.827 78.8278 49.2767 78.9135 52.7251L74.0243 53.1089L73.8588 47.7928L73.577 47.8664C71.8921 47.2888 70.1765 47.4452 68.4181 47.485L67.6767 47.4513C65.7406 47.3238 64.6377 47.561 63.1734 46.2213L63.5103 43.603C61.8683 41.3104 59.4482 42.3761 57.414 40.4753C57.1812 38.843 57.5305 38.6364 58.3393 37.2555C61.1209 36.1672 65.3852 36.6688 68.3874 36.6485C68.4732 33.7347 67.6215 30.0673 68.8714 27.3896C70.5318 26.1578 71.3223 26.4251 73.3503 26.4153L73.9997 26.5839L78.3192 26.4012Z" fill="#010101"/>
<path d="M73.8834 37.0948C75.6541 36.63 77.0755 36.4535 78.9074 36.4927L78.8768 42.3773C78.8155 45.827 78.8278 49.2767 78.9135 52.7251L74.0243 53.1089L73.8588 47.7928V42.9482L73.8834 37.0948Z" fill="#474C54"/>
<path d="M68.4181 43.1524C68.3629 41.3626 68.3384 39.7039 68.657 37.9282C70.299 36.7619 71.5918 37.0667 73.5769 37.0274L73.8834 37.0948L73.8588 42.9482V47.7928L73.577 47.8664C71.8921 47.2888 70.1765 47.4452 68.4181 47.485L67.6767 47.4513C68.6264 46.2832 68.3936 44.594 68.4181 43.1524Z" fill="#5F3138"/>
<path d="M73.8588 42.9482V47.7928L73.577 47.8664C71.8921 47.2888 70.1765 47.4452 68.4181 47.485L67.6767 47.4513C68.6264 46.2832 68.3936 44.594 68.4181 43.1524L73.8588 42.9482Z" fill="#4B242B"/>
<path d="M78.3192 26.4012C79.1831 28.0194 79.0545 29.6204 79.0422 31.3955L78.9074 36.4927C77.0755 36.4535 75.6541 36.63 73.8834 37.0948L73.5769 37.0274C74.0855 33.774 73.479 29.7418 73.3503 26.4153L73.9997 26.5839L78.3192 26.4012Z" fill="#4B242B"/>
<path d="M78.3192 26.4012C79.1831 28.0194 79.0545 29.6204 79.0422 31.3955C77.7188 31.4513 76.3953 31.4053 75.0719 31.3734C73.6995 29.9104 74.0732 28.5301 73.9997 26.5839L78.3192 26.4012Z" fill="#71353A"/>
<path d="M100.1 42.0131C105.217 42.048 110.333 42.0309 115.449 41.9616L120.687 41.9058L120.577 47.1073C120.565 48.9646 120.877 50.4368 119.848 52.0231C118.359 52.4094 117.054 52.4094 115.534 52.3818L115.136 52.2089C114.983 54.404 115.283 55.764 113.819 57.4545L111.16 58.1812L110.51 59.5743L110.712 63.0981L110.216 63.3446L110.032 62.8057C108.433 62.5641 106.773 62.7394 105.161 62.8093L105.296 58.3921L105.167 57.9346L100.456 57.8482L99.8432 56.4563C99.6104 51.6619 99.9289 46.8093 100.1 42.0131Z" fill="#010101"/>
<path d="M111.405 51.9427C112.63 52.0206 113.929 52.0114 115.136 52.2089C114.983 54.404 115.283 55.764 113.819 57.4545L111.16 58.1812L110.51 59.5743L110.712 63.0981L110.216 63.3446L110.032 62.8057C108.433 62.5641 106.773 62.7394 105.161 62.8093L105.296 58.3921L105.167 57.9346L105.186 52.494C107.422 52.5994 109.23 52.5069 111.405 51.9427Z" fill="#37373F"/>
<path d="M105.296 58.3921C107.012 58.0837 107.808 57.8163 109.487 58.4129C110.296 59.9348 110.13 61.1489 110.032 62.8057C108.433 62.5641 106.773 62.7394 105.161 62.8093L105.296 58.3921Z" fill="#474C54"/>
<path d="M120.577 47.1073C120.565 48.9646 120.877 50.4368 119.848 52.0231C118.359 52.4094 117.054 52.4094 115.534 52.3818L115.136 52.2089C113.929 52.0114 112.63 52.0206 111.405 51.9427L111.472 47.4899L115.62 47.4231L120.577 47.1073Z" fill="#1C1C1A"/>
<path d="M115.62 47.4231C115.54 48.9112 115.669 50.82 115.136 52.2089C113.929 52.0114 112.63 52.0206 111.405 51.9427L111.472 47.4899L115.62 47.4231Z" fill="#474C54"/>
<path d="M105.186 52.494C105.112 50.9439 105.057 49.6256 105.517 48.1153C107.477 46.9141 109.205 47.3979 111.472 47.4899L111.405 51.9427C109.23 52.5069 107.422 52.5994 105.186 52.494Z" fill="#5F3138"/>
<path d="M115.449 41.9616L120.687 41.9058L120.577 47.1073L115.62 47.4231L115.449 41.9616Z" fill="#5F3138"/>
<path d="M120.687 41.9058L121.055 41.758L126.06 42.0198V52.44C124.302 52.6129 122.488 52.5952 121.116 53.8589L120.853 54.9374C122.66 56.7493 125.276 57.8389 126.293 60.2566C126.214 61.467 126.379 61.8656 125.509 62.751C123.794 62.8859 122.243 62.6437 120.92 63.7965L120.963 64.333C121.061 65.8365 121.092 66.7869 120.228 68.1053L116.251 68.4388C115.332 69.6504 114.805 70.3139 115.001 71.9425C115.246 74.0168 116.282 75.6178 115.43 77.6817C113.684 78.9111 112.305 78.71 110.204 78.5886L110.296 68.2855L110.216 63.3446L110.712 63.0981L110.51 59.5743L111.16 58.1812L113.819 57.4545C115.283 55.764 114.983 54.404 115.136 52.2089L115.534 52.3818C117.054 52.4094 118.359 52.4094 119.848 52.0231C120.877 50.4368 120.565 48.9646 120.577 47.1073L120.687 41.9058Z" fill="#070912"/>
<path d="M121.055 41.758L126.06 42.0198V52.44C124.425 52.3915 123.138 52.4829 121.741 51.5007C120.381 49.0339 121.324 44.6687 121.055 41.758Z" fill="#010101"/>
<path d="M115.136 52.2089L115.534 52.3818C115.492 55.3937 115.001 59.2413 115.853 62.1201C114.144 62.4482 112.434 62.8075 110.712 63.0981L110.51 59.5743L111.16 58.1812L113.819 57.4545C115.283 55.764 114.983 54.404 115.136 52.2089Z" fill="#2B1B25"/>
<path d="M110.51 59.5743C111.846 59.7454 113.182 59.9292 114.511 60.1255C114.965 60.7816 115.455 61.4291 115.853 62.1201C114.144 62.4482 112.434 62.8075 110.712 63.0981L110.51 59.5743Z" fill="#26222C"/>
<path d="M37.0786 52.6988C38.3653 52.5811 39.6458 52.3947 40.9325 52.2261C42.4581 50.6067 42.2008 48.6721 42.4458 46.4929C42.4275 48.5716 42.0843 50.1223 43.1443 51.9366C44.768 52.3769 46.2446 52.418 47.9111 52.4259L47.5741 53.163C47.5679 56.4134 47.5251 59.6674 47.5618 62.9166L47.5864 68.2585C47.5925 71.5028 47.7518 74.8237 47.5619 78.0588L47.0533 78.1311L42.6297 78.144L37.189 78.1379L37.1093 73.7636L36.5578 73.2712L37.0541 73.0928C37.3115 70.2808 37.0664 67.4093 36.95 64.5918L36.4476 63.0662C37.2196 59.7686 37.0051 56.0798 37.0786 52.6988Z" fill="#2A303B"/>
<path d="M42.7583 68.4186L47.5864 68.2585C47.5925 71.5028 47.7518 74.8237 47.5619 78.0588L47.0533 78.1311L42.6297 78.144L37.189 78.1379L37.1093 73.7636L36.5578 73.2712L37.0541 73.0928L42.5255 73.2669C42.9053 71.7548 42.7461 69.9779 42.7583 68.4186Z" fill="#2A303B"/>
<path d="M37.1093 73.7636C39.125 73.652 40.4852 73.2522 42.2682 74.259C42.6848 75.6098 42.691 76.7387 42.6297 78.144L37.189 78.1379L37.1093 73.7636Z" fill="#4B242B"/>
<path d="M42.7583 68.4186C42.7645 63.6573 41.4226 58.1756 43.1994 53.6737C44.8292 52.6479 45.687 53.0097 47.5741 53.163C47.5679 56.4134 47.5251 59.6674 47.5618 62.9166L47.5864 68.2585L42.7583 68.4186Z" fill="#373F4B"/>
<path d="M36.95 64.5918L37.5994 62.9927C38.9044 62.6493 39.7989 62.6395 41.1224 62.8786C43.1872 65.5477 41.9557 70.0814 42.5255 73.2669L37.0541 73.0928C37.3115 70.2808 37.0664 67.4093 36.95 64.5918Z" fill="#070912"/>
<path d="M100.217 94.2992C100.174 91.3916 99.5919 87.2564 100.719 84.5897C101.902 84.4726 103.158 84.4229 104.065 83.57C105.553 82.1738 105.535 81.151 105.517 79.2649C106.901 78.3347 108.592 78.5764 110.204 78.5886C110.124 81.5803 109.383 85.8933 110.982 88.4201C112.471 89.354 113.862 89.1081 115.54 89.0143L115.577 94.1085C117.311 93.9724 118.886 93.8461 120.608 94.1833C119.002 94.3397 117.495 94.4709 115.957 95.0031C115.136 96.4073 115.363 97.606 115.491 99.1561C113.947 99.4406 112.501 99.6938 110.915 99.6527L110.394 99.3045C108.543 99.5246 106.773 99.2965 105.468 100.676L105.339 104.123C103.342 103.562 101.743 104.835 99.6166 104.624L99.6471 99.6313C100.725 99.627 102.092 99.7343 103.14 99.4848C104.549 99.1487 104.873 98.2885 105.541 97.1542L105.137 95.8235C103.354 94.3875 102.453 94.5298 100.217 94.2992Z" fill="#010101"/>
<path d="M115.577 94.1085C117.311 93.9724 118.886 93.8461 120.608 94.1833C119.002 94.3397 117.495 94.4709 115.957 95.0031C115.136 96.4073 115.363 97.606 115.491 99.1561C113.947 99.4406 112.501 99.6938 110.915 99.6527L110.394 99.3045C110.253 98.0101 110.278 96.7795 110.339 95.4802C111.772 94.1232 113.653 94.3329 115.577 94.1085Z" fill="#1B202C"/>
<path d="M36.4476 63.0662C34.8484 63.0264 33.5862 62.9718 32.0851 62.3157C30.9149 57.8427 31.2948 36.6399 32.1465 32.1448C32.8082 31.753 33.4944 31.2986 34.2725 31.2201C37.1828 30.9258 36.4108 34.6968 37.8139 36.3309C38.7942 37.4677 41.0979 36.7337 42.6664 38.0061L42.5194 41.8629C42.5255 43.3731 42.6603 45.0023 42.4458 46.4929C42.2008 48.6721 42.4581 50.6067 40.9325 52.2261C39.6458 52.3947 38.3653 52.5811 37.0786 52.6988C37.0051 56.0798 37.2196 59.7686 36.4476 63.0662Z" fill="#010101"/>
<path d="M42.6664 38.0061L42.5194 41.8629C42.5255 43.3731 42.6603 45.0023 42.4458 46.4929C42.2008 48.6721 42.4581 50.6067 40.9325 52.2261C39.6458 52.3947 38.3653 52.5811 37.0786 52.6988C36.907 49.0983 36.7171 45.559 37.0235 41.9585L42.0476 41.858L42.6664 38.0061Z" fill="#4B242B"/>
<path d="M37.0235 41.9585L42.0476 41.858C41.9618 44.1849 42.213 45.2353 40.8222 47.1484L39.6275 47.5868C38.5062 47.0153 37.63 46.7418 37.2563 45.3972C36.9745 44.3861 37.0541 43.0162 37.0235 41.9585Z" fill="#71353A"/>
<path d="M21.6142 83.722L26.8282 83.917L26.7241 89.0934L26.8099 94.2244L26.6383 94.4911L26.6812 99.6129L26.8405 104.738C23.2072 104.601 19.6658 105.185 15.9713 104.933L16.0693 101.509C17.2518 99.6975 19.1879 99.4498 21.1486 98.6233C21.1547 98.3933 21.1608 98.1634 21.1547 97.934C21.0873 95.1736 18.2015 94.4359 16.4124 92.7748C15.1748 90.446 16.2776 86.5132 16.6514 83.9888L21.265 84.0556L21.6142 83.722Z" fill="#010101"/>
<path d="M15.9713 104.933L19.5678 104.67C21.0873 103.665 21.3568 102.259 22.0737 100.62C23.6667 99.3793 24.6961 99.6668 26.6812 99.6129L26.8405 104.738C23.2072 104.601 19.6658 105.185 15.9713 104.933Z" fill="#4B242B"/>
<path d="M21.6142 83.722L26.8282 83.917L26.7241 89.0934L21.4671 88.956L21.265 84.0556L21.6142 83.722Z" fill="#5F3138"/>
<path d="M21.4671 88.956L26.7241 89.0934L26.8099 94.2244L26.6383 94.4911C25.4191 94.1478 23.9976 94.0699 22.7355 93.8835C21.265 92.4946 21.6142 90.9206 21.4671 88.956Z" fill="#1B202C"/>
<path d="M78.3192 26.4012C76.7507 26.2767 74.8758 26.5907 73.8465 25.289C73.3625 24.6782 73.2461 23.8952 73.099 23.1484C74.4163 21.4481 78.1659 21.3144 78.5887 20.6705C79.8876 18.6955 78.1109 16.5335 81.0764 15.0367C82.3508 15.3685 83.2147 15.5199 84.0786 16.5556C85.451 24.6058 84.2685 38.7032 84.195 47.3434C82.89 47.409 81.6093 47.3434 80.3043 47.2747C78.9441 45.8239 79.128 44.3082 78.8768 42.3773L78.9074 36.4927L79.0422 31.3955C79.0545 29.6204 79.1831 28.0194 78.3192 26.4012Z" fill="#010101"/>
<path d="M125.938 73.2283L131.011 73.2988V73.6894C132.69 73.2749 134.706 73.4073 136.446 73.3472C136.409 74.9788 136.605 77.0373 136.011 78.5604L136.538 78.6707L136.458 83.5828L131.74 83.6993C131.599 85.3291 131.422 86.9632 131.422 88.5992L131.581 89.1462L131.029 88.9573L125.944 88.891L126.018 83.5767L125.938 73.2283Z" fill="#4B242B"/>
<path d="M131.066 83.4069L131.74 83.6993C131.599 85.3291 131.422 86.9632 131.422 88.5992L131.581 89.1462L131.029 88.9573L125.944 88.891L126.018 83.5767L131.066 83.4069Z" fill="#474C54"/>
<path d="M136.446 73.3472C136.409 74.9788 136.605 77.0373 136.011 78.5604L131.434 78.6787C131.078 77.0826 131.109 75.3247 131.011 73.6894C132.69 73.2749 134.706 73.4073 136.446 73.3472Z" fill="#010101"/>
<path d="M136.011 78.5604L136.538 78.6707L136.458 83.5828L131.74 83.6993L131.066 83.4069L131.121 78.9129L131.434 78.6787L136.011 78.5604Z" fill="#5F3138"/>
<path d="M131.011 73.6894C131.109 75.3247 131.078 77.0826 131.434 78.6787L131.121 78.9129C130.343 78.9037 129.485 78.9338 128.72 78.7854C127.212 78.4929 126.943 77.74 126.201 76.5351L126.538 75.1972C128.137 73.7292 128.897 73.915 131.011 73.6894Z" fill="#5F3138"/>
<path d="M115.54 89.0143C115.485 87.1779 115.295 85.5726 116.423 84.0819L119.419 83.9305C122.109 80.8898 119.744 77.6124 120.859 74.2449C122.666 72.956 123.751 73.254 125.938 73.2283L126.018 83.5767L125.944 88.891L120.669 89.0971L120.608 94.1833C118.886 93.8461 117.311 93.9724 115.577 94.1085L115.54 89.0143Z" fill="#010101"/>
<path d="M115.54 89.0143L120.669 89.0971L120.608 94.1833C118.886 93.8461 117.311 93.9724 115.577 94.1085L115.54 89.0143Z" fill="#070912"/>
<path d="M16.2592 83.6607C16.0632 83.6981 15.8672 83.749 15.665 83.7735C13.9739 83.9765 13.1284 84.0532 11.7743 83.0224C11.0697 81.3632 10.7511 79.8732 10.6653 78.0699C10.506 74.4638 11.4251 69.9969 13.9188 67.2824C17.1109 68.7454 15.1258 69.6369 16.5227 72.1816C17.117 73.2663 19.335 73.4827 20.4869 73.7954C21.7858 75.3369 21.4182 76.6136 21.4611 78.591L21.6142 83.722L21.265 84.0556L16.6514 83.9888L16.2592 83.6607Z" fill="#010101"/>
<path d="M16.2592 83.6607C16.1122 82.2443 16.1245 81.0039 16.3022 79.5899C17.9687 78.3378 19.4085 78.6585 21.4611 78.591L21.6142 83.722L21.265 84.0556L16.6514 83.9888L16.2592 83.6607Z" fill="#5F3138"/>
<path d="M11.6212 115.382C19.9293 115.391 28.2987 115.184 36.6007 115.434C36.178 117.289 36.2944 118.299 34.7688 119.496C32.7101 119.511 30.9088 119.443 29.0094 120.353C24.837 120.745 20.3888 120.404 16.1918 120.347L11.5292 120.261L11.6212 115.382Z" fill="#070912"/>
<path d="M36.5578 73.2712L37.1093 73.7636L37.189 78.1379C35.3938 78.2017 33.525 78.1723 31.736 78.3544L31.9137 81.8862C31.5031 82.6901 31.3928 83.4302 30.4922 83.7147C29.3464 84.0777 28.023 83.9483 26.8282 83.917L21.6142 83.722L21.4611 78.591L25.0391 78.5217C26.8037 77.3941 26.4238 75.6509 27.882 74.0076C30.3022 72.6893 33.862 73.2136 36.5578 73.2712Z" fill="#070912"/>
<path d="M120.853 36.7429C120.718 34.7176 120.387 33.9113 121.49 32.1631C124.345 30.8473 127.997 31.7462 131.066 31.7014C131.195 34.5919 131.998 38.8981 130.49 41.3631C129.106 42.3472 127.678 42.0854 126.06 42.0198L121.055 41.758L120.718 38.7737L120.853 36.7429Z" fill="#010101"/>
<path d="M120.853 36.7429C122.801 36.8005 124.143 36.5252 125.766 37.6442C126.109 39.1398 126.097 40.5022 126.06 42.0198L121.055 41.758L120.718 38.7737L120.853 36.7429Z" fill="#5F3138"/>
<path d="M52.7147 68.1696C52.6473 66.7366 52.7269 65.4852 52.9843 64.0737C54.6569 62.9099 56.0049 63.0644 58.0145 62.8909L58.0758 73.3938C56.5502 73.427 55.2267 73.4251 53.7318 73.0713C52.5248 71.5469 52.8127 70.0729 52.7147 68.1696Z" fill="#070912"/>
<path d="M42.5194 41.8629C44.6148 41.9647 45.5093 41.7446 47.2065 43.0439C48.4564 45.8785 47.3719 49.3675 47.9111 52.4259C46.2446 52.418 44.768 52.3769 43.1443 51.9366C42.0843 50.1223 42.4275 48.5716 42.4458 46.4929C42.6603 45.0023 42.5255 43.3731 42.5194 41.8629Z" fill="#010101"/>
<path d="M47.9111 52.4259L52.7023 52.3456C52.4879 55.1698 53.2048 59.7864 51.8018 62.1692C50.4354 63.092 49.1426 62.9326 47.5618 62.9166C47.5251 59.6674 47.5679 56.4134 47.5741 53.163L47.9111 52.4259Z" fill="#010101"/>
<path d="M52.7023 52.3456C52.9351 55.0613 52.1448 59.508 53.3764 61.8056C54.9449 62.8994 56.1274 62.7443 58.0145 62.8909C56.0049 63.0644 54.6569 62.9099 52.9843 64.0737C52.7269 65.4852 52.6473 66.7366 52.7147 68.1696L47.5864 68.2585L47.5618 62.9166C49.1426 62.9326 50.4354 63.092 51.8018 62.1692C53.2048 59.7864 52.4879 55.1698 52.7023 52.3456Z" fill="#1B202C"/>
<path d="M115.449 41.9616C115.4 41.2178 115.32 40.4354 115.375 39.6916C115.498 37.9637 116.049 37.7424 117.33 36.7196C119.008 36.5577 119.168 36.4848 120.571 37.3843L120.718 38.7737L121.055 41.758L120.687 41.9058L115.449 41.9616Z" fill="#010101"/>
<path d="M125.938 73.2283C126.03 71.0675 125.754 70.1643 127.157 68.4664C128.769 67.9109 128.775 67.8876 130.337 68.5596C131.464 70.4322 131.17 71.1606 131.011 73.2988L125.938 73.2283Z" fill="#010101"/>
<path d="M146.953 10.7697L151.702 10.6606L151.849 15.9135C150.115 15.5039 148.491 15.5794 146.727 15.6468L146.953 10.7697Z" fill="#4B5861"/>
</svg>
