<svg width="168" height="198" viewBox="0 0 168 198" fill="none" xmlns="http://www.w3.org/2000/svg">
<path d="M5.52518 67.7828L7.34933 67.8148C8.62892 63.4526 6.79676 63.5702 9.27051 61.2315C12.2479 60.8725 13.8452 61.2822 15.5029 59.5259C15.6551 56.1585 15.0767 55.4692 16.867 53.2961C18.8443 53.2382 20.3606 53.1759 22.3262 52.963C24.9806 49.2242 21.6811 48.7139 24.5036 45.9379L29.961 45.709C32.8058 42.159 28.7482 40.8935 32.4721 38.4389L37.3956 38.3828C40.4068 34.6129 36.9596 33.8042 39.5855 30.7877L44.63 30.6505C47.0032 28.1292 45.4131 27.5156 45.9238 24.2782C46.2682 22.0971 53.3638 23.8917 53.6423 21.7934C54.0472 18.7457 52.5407 17.8907 54.6985 15.5484C58.249 15.487 59.0347 16.1665 61.0075 14.2285L61.1641 8.8163C64.4894 5.71074 66.0333 9.65703 68.9324 6.1881C68.9955 3.16715 68.4634 2.46357 70.0731 0.501553C76.1018 0.0215132 92.7765 -0.414882 98.4964 0.703726C100.384 5.03388 97.699 5.33668 100.455 7.77785L105.569 7.90965C108.208 11.4098 104.82 12.2069 107.72 15.3667L113.097 15.5921C116.138 18.9515 112.275 19.8225 115.681 23.0572L120.668 23.1934C123.57 26.4264 119.724 28.0829 123.23 30.7147C126.668 30.7387 127.518 30.0743 129.49 31.917L129.625 36.9338C132.971 39.9049 134.533 35.9621 137.219 39.4979C137.236 42.8857 136.591 43.7621 138.368 45.8159C141.723 45.896 142.647 45.2566 144.52 47.0921L144.607 52.0902C148.319 54.9963 149.31 51.4018 152.526 54.5991C152.55 57.4571 152.045 58.8339 153.414 60.8574L158.911 61.1647C162.329 65.5839 155.991 67.2636 164.147 68.7705C166.557 68.9976 165.587 68.5256 167.266 69.9559C168.44 77.7612 167.867 97.2425 167.811 106.198L114.23 106.177L114.164 198L53.2881 197.987L53.4154 106.255H0.199496C0.248437 96.448 -0.443859 78.8762 0.49848 69.9684C1.88752 68.0473 2.68125 68.4303 5.52518 67.7828Z" fill="#C88859"/>
<path d="M5.52518 67.7828C7.70439 72.4175 8.85761 69.5917 8.3771 71.4281L7.07171 70.8207L8.40201 71.4602C10.0375 67.0214 8.16176 66.6322 10.7307 63.2942C13.5043 62.7972 19.1352 61.4622 21.5378 62.1061C22.0468 65.0095 22.1865 63.8811 21.2032 66.4754C19.2118 66.7658 17.2168 67.0303 15.2191 67.269C13.7749 69.2176 14.3025 73.0936 14.3479 75.8082C10.3027 76.1519 10.0811 75.4439 7.87613 77.6865L7.73463 82.8315L8.70635 83.1361C11.4604 84.1247 11.811 84.1461 14.7145 83.7667C14.8818 86.0618 14.9646 89.1655 15.5857 91.3048C30.3801 91.2371 46.3447 90.8817 61.044 91.3306L61.0466 99.1359L61.0537 166.774L60.9363 174.697L68.9341 174.992C77.5122 174.991 86.6161 175.318 95.2039 174.841C99.9192 174.581 99.3933 172.868 99.8542 169.022C102.087 166.982 103.057 167.516 106.613 167.094L106.507 166.304C106.428 142.864 105.712 114.669 106.766 91.5461C106.95 88.3542 106.513 86.679 108.04 84.285C116.663 83.0907 142.733 83.5351 152.65 83.4754L159.84 83.8522L159.976 76.6231L160.624 76.5295C160.484 73.6119 160.147 72.1771 161.384 69.54L164.147 68.7705C166.557 68.9976 165.587 68.5256 167.266 69.9559C168.44 77.7612 167.867 97.2425 167.811 106.198L114.23 106.177L114.164 198L53.2881 197.987L53.4154 106.255H0.199496C0.248437 96.448 -0.443859 78.8762 0.49848 69.9684C1.88752 68.0473 2.68125 68.4303 5.52518 67.7828Z" fill="#5B301F"/>
<path d="M106.613 167.094L107.119 167.115C107.007 174.943 107.034 182.771 107.2 190.597C92.1323 190.316 75.964 189.832 60.9195 190.613L60.9363 174.697L68.9341 174.992C77.5122 174.991 86.6161 175.318 95.2039 174.841C99.9192 174.581 99.3933 172.868 99.8542 169.022C102.087 166.982 103.057 167.516 106.613 167.094Z" fill="#8F543A"/>
<path d="M159.84 83.8522C159.917 86.4634 160.402 89.1379 158.98 91.0883C147.967 93.4841 114.307 88.5608 107.928 92.1143C107.305 94.9972 107.289 95.7258 107.335 98.6844L107.339 144.477C107.329 150.203 107.622 161.695 107.119 167.115L106.613 167.094L106.507 166.304C106.428 142.864 105.712 114.669 106.766 91.5461C106.95 88.3542 106.513 86.679 108.04 84.285C116.663 83.0907 142.733 83.5351 152.65 83.4754L159.84 83.8522Z" fill="#8F543A"/>
<path d="M159.976 76.6231L160.624 76.5295C160.892 84.1087 160.617 91.2904 160.717 98.7662C145.774 99.1376 121.818 99.7834 107.335 98.6844C107.289 95.7258 107.305 94.9972 107.928 92.1143C114.307 88.5608 147.967 93.4841 158.98 91.0883C160.402 89.1379 159.917 86.4634 159.84 83.8522L159.976 76.6231Z" fill="#75412C"/>
<path d="M7.46764 91.2887L15.5857 91.3048C30.3801 91.2371 46.3447 90.8817 61.044 91.3306L61.0466 99.1359C48.451 97.8998 19.1913 100.775 8.70985 98.4483C6.94352 95.5369 7.54951 95.2189 7.46764 91.2887Z" fill="#75412C"/>
<path d="M7.73463 82.8315L8.70635 83.1361C11.4604 84.1247 11.811 84.1461 14.7145 83.7667C14.8818 86.0618 14.9646 89.1655 15.5857 91.3048L7.46764 91.2887L7.73463 82.8315Z" fill="#A76C49"/>
<path d="M5.52518 67.7828L7.34933 67.8148C8.62892 63.4526 6.79676 63.5702 9.27051 61.2315C12.2479 60.8725 13.8452 61.2822 15.5029 59.5259C15.6551 56.1585 15.0767 55.4692 16.867 53.2961C18.8443 53.2382 20.3606 53.1759 22.3262 52.963C24.9806 49.2242 21.6811 48.7139 24.5036 45.9379L29.961 45.709C32.8058 42.159 28.7482 40.8935 32.4721 38.4389L37.3956 38.3828C40.4068 34.6129 36.9596 33.8042 39.5855 30.7877L44.63 30.6505C47.0032 28.1292 45.4131 27.5156 45.9238 24.2782C46.2682 22.0971 53.3638 23.8917 53.6423 21.7934C54.0472 18.7457 52.5407 17.8907 54.6985 15.5484C58.249 15.487 59.0347 16.1665 61.0075 14.2285L61.1641 8.8163C64.4894 5.71074 66.0333 9.65703 68.9324 6.1881C68.9955 3.16715 68.4634 2.46357 70.0731 0.501553C76.1018 0.0215132 92.7765 -0.414882 98.4964 0.703726C100.384 5.03388 97.699 5.33668 100.455 7.77785L105.569 7.90965C108.208 11.4098 104.82 12.2069 107.72 15.3667L113.097 15.5921C116.138 18.9515 112.275 19.8225 115.681 23.0572L120.668 23.1934C123.57 26.4264 119.724 28.0829 123.23 30.7147C126.668 30.7387 127.518 30.0743 129.49 31.917L129.625 36.9338C132.971 39.9049 134.533 35.9621 137.219 39.4979C137.236 42.8857 136.591 43.7621 138.368 45.8159C141.723 45.896 142.647 45.2566 144.52 47.0921L144.607 52.0902C148.319 54.9963 149.31 51.4018 152.526 54.5991C152.55 57.4571 152.045 58.8339 153.414 60.8574L158.911 61.1647C162.329 65.5839 155.991 67.2636 164.147 68.7705L161.384 69.54C160.147 72.1771 160.484 73.6119 160.624 76.5295L159.976 76.6231C158.492 76.2027 154.424 75.9399 152.696 75.7814C152.569 73.4658 152.319 71.0647 152.113 68.7473C150.551 68.3742 146.674 68.2762 144.897 68.1809C144.836 65.8698 144.693 64.4973 144.364 62.2076C141.653 60.2562 141.251 60.9028 137.27 60.7345C137.414 57.7411 137.218 56.993 136.629 54.1351L136.032 53.623C134.337 53.2943 131.513 53.1581 129.7 53.0093C129.657 50.7276 129.522 49.3267 129.222 47.0627C126.534 45.0882 126.136 45.7455 122.135 45.5799C122.171 43.2652 121.854 40.5853 121.65 38.2501C119.92 37.8146 116.454 37.9491 114.531 37.9482C114.487 35.6121 114.359 34.2807 114.033 31.966C111.425 30.0805 110.966 30.6888 107.154 30.4769L106.701 30.0512L106.59 23.0839L100.898 22.3313C98.8256 20.1912 99.3417 19.077 98.8781 15.536L92.0174 15.3213L91.673 14.8627C91.7024 12.1481 91.9525 11.115 90.6159 8.75217C87.1562 6.61916 80.9469 7.61932 76.4426 7.8197C76.2059 9.81289 75.898 14.3693 75.0162 15.8904C73.4082 14.6347 71.1213 14.7558 69.6549 16.1736C68.1876 17.5924 67.9891 19.8759 69.1877 21.5271C66.7416 21.8272 63.2525 21.9439 61.3251 23.197C61.1907 25.583 61.0065 28.1212 60.9211 30.4947L53.7206 30.7245C51.8893 44.9074 45.3534 32.0265 45.8642 45.5184C42.4125 45.7731 41.2584 45.2414 38.927 47.0725C38.4394 49.7087 38.5186 50.5539 38.6609 53.2471L38.8718 53.5651C38.2908 57.1818 38.7579 58.3851 36.609 60.6543C34.307 60.8797 33.0603 60.9616 30.7521 60.8823C28.1306 60.7977 25.7325 60.3569 23.6387 61.6892C23.3023 66.1218 23.9439 64.8491 21.6277 68.4178C19.5668 69.5996 19.1877 69.3538 16.6828 69.0056C15.0571 71.5278 15.5492 72.4042 15.6088 75.8152L14.3479 75.8082C14.3025 73.0936 13.7749 69.2176 15.2191 67.269C17.2168 67.0303 19.2118 66.7658 21.2032 66.4754C22.1865 63.8811 22.0468 65.0095 21.5378 62.1061C19.1352 61.4622 13.5043 62.7972 10.7307 63.2942C8.16176 66.6322 10.0375 67.0214 8.40201 71.4602L7.07171 70.8207L8.3771 71.4281C8.85761 69.5917 7.70439 72.4175 5.52518 67.7828Z" fill="#613520"/>
<path d="M38.6609 53.2471L38.8718 53.5651C38.2908 57.1818 38.7579 58.3851 36.609 60.6543C34.307 60.8797 33.0603 60.9616 30.7521 60.8823C30.6577 58.2559 30.559 57.2968 31.1632 54.6811C33.7873 52.9381 35.1105 53.4546 38.6609 53.2471Z" fill="#E4AA77"/>
<path d="M61.044 91.3306C63.9635 91.3769 66.6081 90.9912 68.7669 92.6789C69.1593 99.6274 69.5918 162.847 68.3958 166.101C65.858 167.139 64.3301 166.962 61.6419 166.951L61.0537 166.774L61.0466 99.1359L61.044 91.3306Z" fill="#E4AA77"/>
<path d="M106.507 166.304C103.822 166.665 102.17 167.23 99.8535 165.983C98.209 159.396 98.9049 101.421 99.6007 92.6575C102.488 90.8861 102.791 91.5292 106.766 91.5461C105.712 114.669 106.428 142.864 106.507 166.304Z" fill="#E4AA77"/>
<path d="M14.7145 83.7667C20.7209 83.5155 56.5298 83.1351 60.5038 84.5975C61.2255 87.6256 61.1623 88.3114 61.044 91.3306C46.3447 90.8817 30.3801 91.2371 15.5857 91.3048C14.9646 89.1655 14.8818 86.0618 14.7145 83.7667Z" fill="#8F543A"/>
<path d="M15.6088 75.8152C15.5492 72.4042 15.0571 71.5278 16.6828 69.0056C19.1877 69.3538 19.5668 69.5996 21.6277 68.4178C23.9439 64.8491 23.3023 66.1218 23.6387 61.6892C25.7325 60.3569 28.1306 60.7977 30.7521 60.8823C30.8918 63.7109 31.3829 65.9454 29.9156 68.2102C25.7956 68.2209 27.1179 67.707 23.6974 69.7403C22.344 71.9223 22.424 72.3079 22.7195 74.8889C20.6702 76.4421 18.3637 75.8241 15.6088 75.8152Z" fill="#E4AA77"/>
<path d="M76.4426 7.8197C80.9469 7.61932 87.1562 6.61916 90.6159 8.75217C91.9525 11.115 91.7024 12.1481 91.673 14.8627C88.402 15.6981 81.4418 16.4995 78.3585 14.7753C76.1303 12.0144 76.8145 12.035 76.4426 7.8197Z" fill="#E4AA77"/>
<path d="M61.0537 166.774L61.6419 166.951L67.9784 168.177C69.4965 170.631 68.9341 171.69 68.9341 174.992L60.9363 174.697L61.0537 166.774Z" fill="#A76C49"/>
<path d="M137.27 60.7345C141.251 60.9028 141.653 60.2562 144.364 62.2076C144.693 64.4973 144.836 65.8698 144.897 68.1809C142.241 68.5683 140.822 69.0128 138.254 68.229C136.461 65.4521 137.172 64.7289 137.27 60.7345Z" fill="#E4AA77"/>
<path d="M45.8642 45.5184C45.8971 49.5208 46.5991 50.3286 44.7669 53.0921C42.2673 53.5374 41.4132 53.5847 38.8718 53.5651L38.6609 53.2471C38.5186 50.5539 38.4394 49.7087 38.927 47.0725C41.2584 45.2414 42.4125 45.7731 45.8642 45.5184Z" fill="#E4AA77"/>
<path d="M14.3479 75.8082L15.6088 75.8152C15.5465 79.7615 16.2067 80.1694 14.3256 82.8502C12.0023 83.1414 11.0386 83.2483 8.70635 83.1361L7.73463 82.8315L7.87613 77.6865C10.0811 75.4439 10.3027 76.1519 14.3479 75.8082Z" fill="#E4AA77"/>
<path d="M107.154 30.4769C110.966 30.6888 111.425 30.0805 114.033 31.966C114.359 34.2807 114.487 35.6121 114.531 37.9482C111.935 38.3873 110.866 38.7114 108.23 38.0906C106.437 35.0679 107.108 34.5933 107.154 30.4769Z" fill="#E4AA77"/>
<path d="M122.135 45.5799C126.136 45.7455 126.534 45.0882 129.222 47.0627C129.522 49.3267 129.657 50.7276 129.7 53.0093C127.003 53.2899 125.693 53.6435 123.099 52.8107C121.512 50.6492 122.013 48.4191 122.135 45.5799Z" fill="#E4AA77"/>
<path d="M60.9211 30.4947C60.9772 34.4597 61.657 35.1712 59.8978 38.006C57.3057 38.7328 56.5609 38.6232 53.9056 38.6001C54.1619 36.2774 53.8567 33.1229 53.7206 30.7245L60.9211 30.4947Z" fill="#E4AA77"/>
<path d="M152.696 75.7814C154.424 75.9399 158.492 76.2027 159.976 76.6231L159.84 83.8522L152.65 83.4754L152.696 75.7814Z" fill="#E4AA77"/>
<path d="M69.1877 21.5271C67.9891 19.8759 68.1876 17.5924 69.6549 16.1736C71.1213 14.7558 73.4082 14.6347 75.0162 15.8904C76.2771 16.8745 76.8492 18.5044 76.4808 20.0621C76.1124 21.6198 74.872 22.8203 73.3041 23.1347C71.7362 23.45 70.1283 22.8221 69.1877 21.5271Z" fill="#E4AA77"/>
<path d="M136.032 53.623L136.629 54.1351C136.459 58.0956 137.063 57.8595 135.169 60.73C132.352 61.78 133.528 61.8103 130.781 60.6258C129.04 57.6761 129.281 58.9781 129.742 55.7461C131.954 53.3147 131.802 54.0674 136.032 53.623Z" fill="#E4AA77"/>
<path d="M106.701 30.0512C105.439 30.272 103.217 30.3977 101.877 30.517C99.3239 29.1642 100.105 30.0005 98.9297 27.3758C100.183 22.7161 102.414 23.5176 106.59 23.0839L106.701 30.0512Z" fill="#E4AA77"/>
<path d="M61.3251 23.197C65.3872 23.5648 66.5219 22.8996 68.8586 25.1207C68.9404 26.9732 68.9992 28.8266 69.0348 30.6799C65.5154 30.5526 64.3444 31.1725 62.1091 29.3146C61.8377 27.2769 61.576 25.2374 61.3251 23.197Z" fill="#E4AA77"/>
<path d="M114.355 45.8765L114.564 40.2318C116.889 38.0124 117.639 38.6687 121.65 38.2501C121.411 40.3448 121.263 42.4084 121.099 44.5094C118.628 46.4242 118.201 45.766 114.355 45.8765Z" fill="#E4AA77"/>
<path d="M92.0174 15.3213L98.8781 15.536C98.7312 20.0478 99.2793 21.2252 94.9155 23.1756L93.1661 22.383C91.3259 18.9684 91.9133 19.672 92.0174 15.3213Z" fill="#E4AA77"/>
<path d="M152.113 68.7473C151.808 70.7227 151.521 72.6999 151.25 74.6797C148.914 76.4396 148.13 75.8705 144.712 76.0156C144.633 73.7606 144.71 72.4567 144.909 70.2062C147.088 68.538 148.918 68.9851 152.113 68.7473Z" fill="#E4AA77"/>
<path d="M53.9056 38.6001L52.8903 44.4443C50.599 46.3573 50.0028 45.757 46.4577 45.961C46.6019 44.0658 46.7691 42.1732 46.9596 40.2824C49.2447 38.2278 50.1879 38.8557 53.9056 38.6001Z" fill="#E4AA77"/>
</svg>
