<svg width="145" height="150" viewBox="0 0 145 150" fill="none" xmlns="http://www.w3.org/2000/svg">
<path d="M38.7425 11.5359C38.5976 10.2235 38.6647 8.81479 38.6854 7.48639C41.8649 3.56838 46.0001 6.8357 51.0644 5.96958C55.2405 5.25535 51.5896 3.76119 53.93 0.358767C57.4764 -0.290461 86.0268 0.101676 90.7237 0.296664C92.0313 2.47293 91.5755 2.78331 91.6259 5.71469C96.116 5.62487 101.474 4.82813 105.245 6.42746C106.701 8.53873 106.188 8.60665 106.184 11.6994C109.408 11.6461 111.942 11.0743 114.487 12.4662C115.264 14.484 115.099 15.2034 114.931 17.2898C121.506 16.948 121.512 22.9883 126.295 24.175C126.774 25.5815 126.719 25.5304 126.521 27.0312C135.407 34.3216 130.833 35.3433 135.053 41.1024C136.195 41.4369 137.096 41.7268 138.214 42.1357C139.521 44.6596 138.995 50.0002 138.982 53.2069C141.762 53.2186 142.347 52.7293 144.207 54.0446C144.477 59.4392 144.71 88.5932 143.902 92.9034C141.833 93.6336 141.156 93.473 139.045 93.2802C139.145 96.8126 139.764 101.129 138.442 104.453C137.268 105.384 136.536 105.442 135.059 105.505C132.016 108.945 133.558 112.924 132.885 117.087C131.863 117.204 130.458 117.096 129.818 117.899C126.245 122.392 122.46 127.159 119.154 131.822C118.021 131.978 116.881 132.167 115.742 132.273C115.54 134.525 115.827 135.376 114.178 136.995C111.739 137.447 109.361 137.106 106.917 136.858C106.867 136.981 106.816 137.103 106.769 137.228C106.156 138.847 106.079 140.234 106.036 141.932L105.398 142.825C101.997 143.199 94.7355 142.149 92.1781 143.662C92.0904 145.336 92.146 146.865 91.2906 148.357C84.2328 149.939 61.1653 149.659 54.082 148.47C53.0199 146.455 53.976 144.395 52.1426 143.077C47.6845 142.342 41.8598 144.97 38.7781 141.304L38.8423 137.293C35.3568 136.968 32.5408 137.664 29.5662 135.452C29.183 134.179 28.8668 133.296 28.021 132.259L24.6124 131.973C24.5808 131.609 24.5438 131.247 24.5013 130.884C24.0016 126.636 22.1578 128.254 19.676 126.052C18.8539 125.322 18.9791 123.44 18.8628 122.338L18.3155 122.21L16.2728 121.692C12.2655 113.192 11.5324 116.652 11.8539 105.858C9.99087 105.983 8.02042 106.356 6.41595 105.199C4.76589 102.662 5.53625 96.9134 5.60908 93.3868C3.58597 93.4978 2.40633 93.695 0.459707 93.0027C-0.232924 86.6009 -0.0435131 60.4208 0.377237 53.632C1.82196 52.6921 4.07896 53.0536 5.9521 53.1128L11.3541 53.1639L11.6522 52.7556C13.6721 52.8842 15.5687 53.0653 17.5906 52.9309C18.0564 48.9362 16.894 45.7551 18.0809 42.3526C20.039 40.4751 19.5803 41.0469 22.9202 40.7935C23.2326 38.7443 23.5099 36.6892 23.7519 34.6306C25.5494 33.048 25.6152 33.5191 28.4846 33.1868L28.6453 28.7035L28.7252 28.1704C25.9748 28.036 26.7183 28.4494 24.7131 26.9472L24.1137 23.3191C23.9487 19.9356 23.3343 19.8341 24.9609 17.8156L28.4365 17.4695L29.2181 17.2307C29.1181 15.1311 29.0925 14.7696 29.6586 12.7547C32.0424 11.1159 35.433 11.6213 38.7425 11.5359Z" fill="#EEBB76"/>
<path d="M38.7425 11.5359C38.5976 10.2235 38.6647 8.81479 38.6854 7.48639C41.8649 3.56838 46.0001 6.8357 51.0644 5.96958C55.2405 5.25535 51.5896 3.76119 53.93 0.358767C57.4764 -0.290461 86.0268 0.101676 90.7237 0.296664C92.0313 2.47293 91.5755 2.78331 91.6259 5.71469C96.116 5.62487 101.474 4.82813 105.245 6.42746C106.701 8.53873 106.188 8.60665 106.184 11.6994C109.408 11.6461 111.942 11.0743 114.487 12.4662C115.264 14.484 115.099 15.2034 114.931 17.2898C121.506 16.948 121.512 22.9883 126.295 24.175C126.774 25.5815 126.719 25.5304 126.521 27.0312C135.407 34.3216 130.833 35.3433 135.053 41.1024C136.195 41.4369 137.096 41.7268 138.214 42.1357C139.521 44.6596 138.995 50.0002 138.982 53.2069C141.762 53.2186 142.347 52.7293 144.207 54.0446C144.477 59.4392 144.71 88.5932 143.902 92.9034C141.833 93.6336 141.156 93.473 139.045 93.2802C139.145 96.8126 139.764 101.129 138.442 104.453C137.268 105.384 136.536 105.442 135.059 105.505C132.016 108.945 133.558 112.924 132.885 117.087C131.863 117.204 130.458 117.096 129.818 117.899C126.245 122.392 122.46 127.159 119.154 131.822C118.021 131.978 116.881 132.167 115.742 132.273C115.54 134.525 115.827 135.376 114.178 136.995C111.739 137.447 109.361 137.106 106.917 136.858L106.016 136.167L105.077 136.318C105.043 133.256 105.214 130.25 105.44 127.2C106.159 125.628 106.53 123.87 106.99 122.207L106.414 121.596L103.478 121.581C101.895 119.979 102.221 118.26 102.017 116.058L111.481 115.892L111.593 115.353C112.714 109.225 115.421 112.869 117.043 106.428L116.994 105.978C118.474 105.968 119.431 105.946 120.75 105.238C122.384 102.205 121.586 97.2858 121.577 93.8374L121.965 93.6278C121.374 90.0523 121.454 57.0015 121.812 52.6636C122.3 49.6811 122.213 44.1083 121.799 41.1623C119.872 41.217 119.343 41.1893 117.449 40.8417C115.854 38.7231 116.297 37.1026 116.14 34.0858C109.427 33.6739 113.442 32.9188 110.644 29.0716C106.748 27.4934 107.901 28.5399 103.583 28.5202C101.799 26.3001 102.351 26.5594 102.091 23.1869L91.6412 23.2147L53.6999 23.2292L53.5509 17.7587L53.3778 17.1971C53.4545 15.0726 53.7642 13.3221 52.461 11.6381L39.4719 11.6622L38.7425 11.5359Z" fill="#F7DD88"/>
<path d="M127.834 112.989L128.019 113.275C128.642 114.256 129.024 115.147 129.359 116.257L132.885 117.087C131.863 117.204 130.458 117.096 129.818 117.899C126.245 122.392 122.46 127.159 119.154 131.822C118.021 131.978 116.881 132.167 115.742 132.273C115.54 134.525 115.827 135.376 114.178 136.995C111.739 137.447 109.361 137.106 106.917 136.858L106.016 136.167L105.077 136.318C105.043 133.256 105.214 130.25 105.44 127.2C106.159 125.628 106.53 123.87 106.99 122.207C108.617 121.67 110.766 121.884 112.482 121.857C113.438 121.822 114.602 121.873 115.463 121.418C116.893 120.663 116.992 118.477 117.377 116.993C118.764 115.642 119.717 115.893 121.61 115.727L122.125 116.291C123.264 116.299 124.655 116.422 125.742 116.061C127.118 115.604 127.319 114.226 127.834 112.989Z" fill="#786456"/>
<path d="M106.99 122.207C108.617 121.67 110.766 121.884 112.482 121.857L112.575 126.07L114.316 126.531L116.777 127.007C117.625 128.283 117.281 129.687 117.153 131.141L115.742 132.273C115.54 134.525 115.827 135.376 114.178 136.995C111.739 137.447 109.361 137.106 106.917 136.858L106.016 136.167L105.077 136.318C105.043 133.256 105.214 130.25 105.44 127.2C106.159 125.628 106.53 123.87 106.99 122.207Z" fill="#8C583A"/>
<path d="M106.99 122.207C108.617 121.67 110.766 121.884 112.482 121.857L112.575 126.07L114.316 126.531L113.015 127.462C112.739 129.427 112.871 129.977 111.327 131.346C109.749 131.644 108.479 131.588 106.893 131.369C105.723 133.042 106.025 134.157 106.016 136.167L105.077 136.318C105.043 133.256 105.214 130.25 105.44 127.2C106.159 125.628 106.53 123.87 106.99 122.207Z" fill="#EEBB76"/>
<path d="M106.99 122.207C108.617 121.67 110.766 121.884 112.482 121.857L112.575 126.07C110.254 127.094 107.934 127.091 105.44 127.2C106.159 125.628 106.53 123.87 106.99 122.207Z" fill="#F9D198"/>
<path d="M121.61 115.727L122.125 116.291C122.049 117.117 122.07 119.87 121.522 120.313C119.064 122.302 117.316 121.769 116.921 125.342C116.864 125.896 116.816 126.451 116.777 127.007L114.316 126.531L112.575 126.07L112.482 121.857C113.438 121.822 114.602 121.873 115.463 121.418C116.893 120.663 116.992 118.477 117.377 116.993C118.764 115.642 119.717 115.893 121.61 115.727Z" fill="#F5C756"/>
<path d="M38.7425 11.5359C38.5976 10.2235 38.6647 8.81479 38.6854 7.48639C41.8649 3.56838 46.0001 6.8357 51.0644 5.96958C55.2405 5.25535 51.5896 3.76119 53.93 0.358767C57.4764 -0.290461 86.0268 0.101676 90.7237 0.296664C92.0313 2.47293 91.5755 2.78331 91.6259 5.71469C86.5944 5.70666 56.624 5.38901 53.9278 6.20401C53.3617 8.50151 53.2938 9.07916 53.1974 11.4497L52.461 11.6381L39.4719 11.6622L38.7425 11.5359Z" fill="#786456"/>
<path d="M91.6259 5.71469L91.5068 11.698C79.202 11.687 65.3809 11.9726 53.1974 11.4497C53.2938 9.07916 53.3617 8.50151 53.9278 6.20401C56.624 5.38901 86.5944 5.70666 91.6259 5.71469Z" fill="#FEF5C8"/>
<path d="M53.5509 17.7587C61.0543 17.3139 83.5615 16.9802 90.6375 17.6718C92.0101 19.3711 91.769 20.6017 91.6412 23.2147L53.6999 23.2292L53.5509 17.7587Z" fill="#9E7E53"/>
<path d="M138.982 53.2069C141.762 53.2186 142.347 52.7293 144.207 54.0446C144.477 59.4392 144.71 88.5932 143.902 92.9034C141.833 93.6336 141.156 93.473 139.045 93.2802L138.982 53.2069Z" fill="#786456"/>
<path d="M121.812 52.6636C122.949 52.8827 126.45 53.2325 126.412 54.1396C126.084 62.0289 127.836 86.2497 126.578 92.5316C124.991 93.5584 123.859 93.4671 121.965 93.6278C121.374 90.0523 121.454 57.0015 121.812 52.6636Z" fill="#9E7E53"/>
<path d="M126.521 27.0312C135.407 34.3216 130.833 35.3433 135.053 41.1024C136.195 41.4369 137.096 41.7268 138.214 42.1357C139.521 44.6596 138.995 50.0002 138.982 53.2069C136.799 53.3873 135.751 53.6028 133.616 52.909C132.648 51.1066 133.277 45.0321 133.174 42.1927C131.972 40.914 130.684 41.3522 128.393 41.2711C125.814 38.5822 128.71 36.6388 126.294 33.3197L124.053 33.1269C122.184 31.762 122.718 31.6269 122.144 28.6144C123.993 27.7344 124.534 27.5132 126.521 27.0312Z" fill="#8C583A"/>
<path d="M133.105 105.414C133.17 101.982 132.047 97.1661 133.703 94.1157C135.669 92.8245 136.734 93.1933 139.045 93.2802C139.145 96.8126 139.764 101.129 138.442 104.453C137.268 105.384 136.536 105.442 135.059 105.505C132.016 108.945 133.558 112.924 132.885 117.087L129.359 116.257C129.024 115.147 128.642 114.256 128.019 113.275L127.834 112.989C127.256 110.562 127.314 108.008 127.252 105.523L133.105 105.414Z" fill="#8C583A"/>
<path d="M91.6259 5.71469C96.116 5.62487 101.474 4.82813 105.245 6.42746C106.701 8.53873 106.188 8.60665 106.184 11.6994L91.5068 11.698L91.6259 5.71469Z" fill="#786456"/>
<path d="M114.931 17.2898C121.506 16.948 121.512 22.9883 126.295 24.175C126.774 25.5815 126.719 25.5304 126.521 27.0312C124.534 27.5132 123.993 27.7344 122.144 28.6144C120.463 28.391 120.329 28.4304 118.956 27.5095C119.012 25.8094 119.101 25.6319 118.346 24.1728C115.903 22.5399 117.008 22.8539 114.188 22.8671C113.031 21.2392 113.436 20.2022 113.388 17.8551L114.931 17.2898Z" fill="#786456"/>
<path d="M121.61 115.727C122.011 112.865 121.577 110.086 122.348 107.24C123.964 105.475 124.924 105.778 127.252 105.523C127.314 108.008 127.256 110.562 127.834 112.989C127.319 114.226 127.118 115.604 125.742 116.061C124.655 116.422 123.264 116.299 122.125 116.291L121.61 115.727Z" fill="#F9D198"/>
<path d="M106.184 11.6994C109.408 11.6461 111.942 11.0743 114.487 12.4662C115.264 14.484 115.099 15.2034 114.931 17.2898L113.388 17.8551C110.975 17.7674 109.329 17.7989 106.985 17.1599C105.641 14.9734 106.14 14.7338 106.184 11.6994Z" fill="#8C583A"/>
<path d="M102.017 116.058L111.481 115.892C111.863 117.88 112.299 118.647 111.404 120.505C109.744 120.93 108.097 121.281 106.414 121.596L103.478 121.581C101.895 119.979 102.221 118.26 102.017 116.058Z" fill="#FDEEAD"/>
<path d="M111.593 115.353C112.714 109.225 115.421 112.869 117.043 106.428L117.352 113.131L116.568 115.248C114.572 116.075 113.692 115.702 111.593 115.353Z" fill="#F9D198"/>
<path d="M117.043 106.428L120.32 106.679C121.595 108.189 121.661 108.188 121.588 110.152C120.172 112.189 119.592 112.312 117.352 113.131L117.043 106.428Z" fill="#FDEEAD"/>
<path d="M33.6074 111.257L33.8976 116.008C34.0665 118.231 33.8049 119.226 35.3139 120.923C37.4683 121.478 39.6114 121.664 41.8203 121.864C41.9927 124.207 41.7553 124.878 43.3777 126.659C46.6297 127.782 50.1856 126.841 53.5589 126.98L91.5499 127.024L91.5828 121.992L102.028 121.897C101.738 119.976 101.936 117.993 102.017 116.058C102.221 118.26 101.895 119.979 103.478 121.581L106.414 121.596L106.99 122.207C106.53 123.87 106.159 125.628 105.44 127.2C105.214 130.25 105.043 133.256 105.077 136.318L106.016 136.167L106.917 136.858C106.867 136.981 106.816 137.103 106.769 137.228C106.156 138.847 106.079 140.234 106.036 141.932L105.398 142.825C101.997 143.199 94.7355 142.149 92.1781 143.662C92.0904 145.336 92.146 146.865 91.2906 148.357C84.2328 149.939 61.1653 149.659 54.082 148.47C53.0199 146.455 53.976 144.395 52.1426 143.077C47.6845 142.342 41.8598 144.97 38.7781 141.304L38.8423 137.293C35.3568 136.968 32.5408 137.664 29.5662 135.452C29.183 134.179 28.8668 133.296 28.021 132.259L24.6124 131.973L27.5807 131.568C29.169 129.996 28.7886 129.161 28.8549 126.982L28.1808 121.882L28.5611 121.423C27.8784 119.853 27.6627 118.183 27.3686 116.507L28.6045 115.951L31.6964 115.885C33.3522 114.57 33.1935 113.289 33.6074 111.257Z" fill="#F7DD88"/>
<path d="M53.3544 136.437C66.1551 136.259 78.9581 136.248 91.7588 136.403L105.077 136.318L106.016 136.167L106.917 136.858C106.867 136.981 106.816 137.103 106.769 137.228C106.156 138.847 106.079 140.234 106.036 141.932L105.398 142.825C101.997 143.199 94.7355 142.149 92.1781 143.662C92.0904 145.336 92.146 146.865 91.2906 148.357C84.2328 149.939 61.1653 149.659 54.082 148.47C53.0199 146.455 53.976 144.395 52.1426 143.077C47.6845 142.342 41.8598 144.97 38.7781 141.304L38.8423 137.293L39.0314 136.505L53.3544 136.437Z" fill="#786456"/>
<path d="M53.3544 136.437C66.1551 136.259 78.9581 136.248 91.7588 136.403C91.8457 138.331 92.1299 140.225 90.9874 141.904C81.3978 143.511 64.421 142.473 54.3617 142.064C53.0929 140.29 53.4289 138.588 53.3544 136.437Z" fill="#F5C756"/>
<path d="M53.5589 126.98L91.5499 127.024C91.5747 128.602 91.6113 129.752 90.7698 131.152C86.9691 132.934 59.9717 132.204 54.5268 131.897C53.22 130.563 53.6203 128.807 53.5589 126.98Z" fill="#FDEEAD"/>
<path d="M28.8549 126.982L30.7697 126.702C33.4136 126.73 36.3281 126.986 38.9182 126.479L38.7764 131.195L39.0314 136.505L38.8423 137.293C35.3568 136.968 32.5408 137.664 29.5662 135.452C29.183 134.179 28.8668 133.296 28.021 132.259L24.6124 131.973L27.5807 131.568C29.169 129.996 28.7886 129.161 28.8549 126.982Z" fill="#8C583A"/>
<path d="M30.7697 126.702C33.4136 126.73 36.3281 126.986 38.9182 126.479L38.7764 131.195C37.1964 131.268 35.6024 131.371 34.0208 131.363C32.1362 131.354 31.8458 131.236 30.5831 129.917L30.7697 126.702Z" fill="#EEBB76"/>
<path d="M28.1808 121.882L28.5611 121.423C31.5582 121.775 35.6996 121.188 38.2563 122.766C38.8195 124.09 38.9116 125.046 38.9182 126.479C36.3281 126.986 33.4136 126.73 30.7697 126.702L28.8549 126.982L28.1808 121.882Z" fill="#F5C756"/>
<path d="M91.5828 121.992L102.028 121.897C101.98 123.468 102.359 125.025 101.071 126.122C99.8466 127.163 97.8714 127.613 96.3089 127.351C94.9137 127.117 93.6894 126.46 92.4739 125.769C92.0693 124.505 91.7727 123.307 91.5828 121.992Z" fill="#FDEEAD"/>
<path d="M11.6522 52.7556C13.6721 52.8842 15.5687 53.0653 17.5906 52.9309C17.5048 56.9767 17.1346 62.2531 18.2879 66.0506C18.3265 73.1789 17.9775 86.0657 18.483 92.7559L18.495 93.2532C18.3784 97.3983 18.3594 101.546 18.4379 105.691L17.9626 105.759L11.8539 105.858C9.99087 105.983 8.02042 106.356 6.41595 105.199C4.76589 102.662 5.53625 96.9134 5.60908 93.3868C3.58597 93.4978 2.40633 93.695 0.459707 93.0027C-0.232924 86.6009 -0.0435131 60.4208 0.377237 53.632C1.82196 52.6921 4.07896 53.0536 5.9521 53.1128L11.3541 53.1639L11.6522 52.7556Z" fill="#F7DD88"/>
<path d="M5.60908 93.3868C3.58597 93.4978 2.40633 93.695 0.459707 93.0027C-0.232924 86.6009 -0.0435131 60.4208 0.377237 53.632C1.82196 52.6921 4.07896 53.0536 5.9521 53.1128C5.95378 66.1528 5.71506 80.2248 5.96488 93.1926L5.60908 93.3868Z" fill="#786456"/>
<path d="M5.9521 53.1128L11.3541 53.1639C12.1352 57.3981 12.3133 90.3634 10.7545 92.7916L9.89882 93.1086L5.96488 93.1926C5.71506 80.2248 5.95378 66.1528 5.9521 53.1128Z" fill="#FEF5C8"/>
<path d="M5.60908 93.3868L5.96488 93.1926L9.89882 93.1086L11.4279 93.9024C12.4812 97.5699 11.9282 102.056 11.8539 105.858C9.99087 105.983 8.02042 106.356 6.41595 105.199C4.76589 102.662 5.53625 96.9134 5.60908 93.3868Z" fill="#786456"/>
<path d="M29.2181 17.2307C29.1181 15.1311 29.0925 14.7696 29.6586 12.7547C32.0424 11.1159 35.433 11.6213 38.7425 11.5359L39.4719 11.6622L52.461 11.6381C53.7642 13.3221 53.4545 15.0726 53.3778 17.1971L53.5509 17.7587L53.6999 23.2292C53.5261 26.501 54.0812 26.3323 52.3434 28.3143C49.9366 28.9832 47.0775 28.7445 44.5435 28.6729C42.8349 28.012 43.4215 28.4129 42.4171 26.3009L41.6574 28.0595C40.3718 28.3202 39.4127 28.5173 38.1092 28.6524L34.5126 28.2785L32.7413 27.9857L28.6453 28.7035L28.7252 28.1704C25.9748 28.036 26.7183 28.4494 24.7131 26.9472L24.1137 23.3191C23.9487 19.9356 23.3343 19.8341 24.9609 17.8156L28.4365 17.4695L29.2181 17.2307Z" fill="#F7DD88"/>
<path d="M28.4365 17.4695L29.3953 18.026C33.2342 17.8485 36.5075 17.0693 39.2198 20.3184C38.7873 23.6368 35.9419 23.2468 33.1058 23.2914C33.0442 24.5942 33.0293 26.8062 32.7413 27.9857L28.6453 28.7035L28.7252 28.1704C25.9748 28.036 26.7183 28.4494 24.7131 26.9472L24.1137 23.3191C23.9487 19.9356 23.3343 19.8341 24.9609 17.8156L28.4365 17.4695Z" fill="#FEF5C8"/>
<path d="M28.4365 17.4695L29.3953 18.026C29.2956 20.8792 29.7848 21.2568 28.3497 23.0671C26.8241 23.2183 25.6733 23.3432 24.1137 23.3191C23.9487 19.9356 23.3343 19.8341 24.9609 17.8156L28.4365 17.4695Z" fill="#655B55"/>
<path d="M28.7252 28.1704C28.9406 26.2812 28.855 24.703 30.0877 23.387L33.1058 23.2914C33.0442 24.5942 33.0293 26.8062 32.7413 27.9857L28.6453 28.7035L28.7252 28.1704Z" fill="#FDEEAD"/>
<path d="M39.4719 11.6622L52.461 11.6381C53.7642 13.3221 53.4545 15.0726 53.3778 17.1971C49.499 17.5111 44.0358 18.4232 40.6581 16.9363C38.9437 15.0055 39.5266 14.9865 39.4719 11.6622Z" fill="#FEF5C8"/>
<path d="M41.9423 23.0109C45.8649 23.1285 49.7758 23.2782 53.6999 23.2292C53.5261 26.501 54.0812 26.3323 52.3434 28.3143C49.9366 28.9832 47.0775 28.7445 44.5435 28.6729C42.8349 28.012 43.4215 28.4129 42.4171 26.3009L41.9423 23.0109Z" fill="#9E7E53"/>
<path d="M29.2181 17.2307C29.1181 15.1311 29.0925 14.7696 29.6586 12.7547C32.0424 11.1159 35.433 11.6213 38.7425 11.5359C38.8948 14.8543 39.3973 14.5593 37.9519 16.978C35.6655 18.1472 31.92 17.4629 29.2181 17.2307Z" fill="#786456"/>
<path d="M38.1092 28.6524L38.3716 24.6351C39.6523 22.9438 39.2622 23.4528 41.9423 23.0109L42.4171 26.3009L41.6574 28.0595C40.3718 28.3202 39.4127 28.5173 38.1092 28.6524Z" fill="#F9D198"/>
<path d="M18.495 93.2532L23.178 93.4358L23.2722 94.0229C23.7878 97.3939 22.5158 102.088 24.1411 105.009C25.6366 106.068 26.8307 105.915 28.575 105.868L28.4251 106.436C28.6816 108.524 28.4185 109.488 30.0172 110.924L33.6074 111.257C33.1935 113.289 33.3522 114.57 31.6964 115.885L28.6045 115.951L27.3686 116.507C27.6627 118.183 27.8784 119.853 28.5611 121.423L28.1808 121.882L28.8549 126.982C28.7886 129.161 29.169 129.996 27.5807 131.568L24.6124 131.973C24.5808 131.609 24.5438 131.247 24.5013 130.884C24.0016 126.636 22.1578 128.254 19.676 126.052C18.8539 125.322 18.9791 123.44 18.8628 122.338L18.3155 122.21L16.2728 121.692C12.2655 113.192 11.5324 116.652 11.8539 105.858L17.9626 105.759L18.4379 105.691C18.3594 101.546 18.3784 97.3983 18.495 93.2532Z" fill="#F5C756"/>
<path d="M11.8539 105.858L17.9626 105.759C18.5205 109.184 18.5132 112.593 18.5489 116.053L18.3155 122.21L16.2728 121.692C12.2655 113.192 11.5324 116.652 11.8539 105.858Z" fill="#786456"/>
<path d="M23.5794 121.583L28.1808 121.882L28.8549 126.982C28.7886 129.161 29.169 129.996 27.5807 131.568L24.6124 131.973C24.5808 131.609 24.5438 131.247 24.5013 130.884C24.0016 126.636 22.1578 128.254 19.676 126.052C18.8539 125.322 18.9791 123.44 18.8628 122.338C20.3841 121.934 22.0193 121.803 23.5794 121.583Z" fill="#786456"/>
<path d="M23.2284 113.287C23.3576 111.376 23.5237 109.484 23.7529 107.582C25.3538 106.203 26.3528 106.515 28.4251 106.436C28.6816 108.524 28.4185 109.488 30.0172 110.924L33.6074 111.257C33.1935 113.289 33.3522 114.57 31.6964 115.885L28.6045 115.951L27.3686 116.507C26.067 116.344 25.1149 116.005 23.9236 115.464L23.2284 113.287Z" fill="#FDEEAD"/>
<path d="M23.2284 113.287C25.2094 112.938 26.0082 112.429 27.7661 113.494L28.6045 115.951L27.3686 116.507C26.067 116.344 25.1149 116.005 23.9236 115.464L23.2284 113.287Z" fill="#F7DD88"/>
<path d="M18.495 93.2532L23.178 93.4358C22.7633 97.0324 23.7543 101.976 22.1677 105.12C20.7992 105.905 19.9849 105.839 18.4379 105.691C18.3594 101.546 18.3784 97.3983 18.495 93.2532Z" fill="#F9D198"/>
<path d="M18.5489 116.053C20.7112 116.184 21.7581 115.872 23.3806 117.37L23.5794 121.583C22.0193 121.803 20.3841 121.934 18.8628 122.338L18.3155 122.21L18.5489 116.053Z" fill="#9F7F6F"/>
<path d="M42.4171 26.3009C43.4215 28.4129 42.8349 28.012 44.5435 28.6729L43.0059 29.3447C41.9847 32.5251 40.7363 33.1547 37.6847 34.6693L36.6597 37.3998C32.9754 38.3601 33.1288 39.319 30.0794 42.3439C29.1703 45.9939 29.098 50.9153 27.5665 53.0952C25.7851 53.3537 25.2974 53.4114 23.5072 53.2734C20.5162 53.207 20.7959 52.7221 18.8666 54.1768C17.3747 57.6771 18.6183 61.7879 18.2879 66.0506C17.1346 62.2531 17.5048 56.9767 17.5906 52.9309C18.0564 48.9362 16.894 45.7551 18.0809 42.3526C20.039 40.4751 19.5803 41.0469 22.9202 40.7935C23.2326 38.7443 23.5099 36.6892 23.7519 34.6306C25.5494 33.048 25.6152 33.5191 28.4846 33.1868L28.6453 28.7035L32.7413 27.9857L34.5126 28.2785L38.1092 28.6524C39.4127 28.5173 40.3718 28.3202 41.6574 28.0595L42.4171 26.3009Z" fill="#9E7E53"/>
<path d="M22.9202 40.7935C23.2326 38.7443 23.5099 36.6892 23.7519 34.6306C25.5494 33.048 25.6152 33.5191 28.4846 33.1868C28.4935 35.5084 28.4109 38.6406 28.734 40.8687C25.6195 40.9702 25.9267 40.4532 23.9933 42.0788C22.6461 45.1329 23.6075 49.6475 23.5072 53.2734C20.5162 53.207 20.7959 52.7221 18.8666 54.1768C17.3747 57.6771 18.6183 61.7879 18.2879 66.0506C17.1346 62.2531 17.5048 56.9767 17.5906 52.9309C18.0564 48.9362 16.894 45.7551 18.0809 42.3526C20.039 40.4751 19.5803 41.0469 22.9202 40.7935Z" fill="#F5C756"/>
<path d="M42.4171 26.3009C43.4215 28.4129 42.8349 28.012 44.5435 28.6729L43.0059 29.3447C41.9847 32.5251 40.7363 33.1547 37.6847 34.6693L36.6597 37.3998C34.8676 37.1267 34.5226 37.2093 33.216 36.0766L33.1703 33.6359C36.0999 32.4127 35.0137 31.0945 34.5126 28.2785L38.1092 28.6524C39.4127 28.5173 40.3718 28.3202 41.6574 28.0595L42.4171 26.3009Z" fill="#9E7E53"/>
<path d="M32.7413 27.9857L34.5126 28.2785C35.0137 31.0945 36.0999 32.4127 33.1703 33.6359L30.4463 33.6951C28.7124 35.5434 29.1519 37.7226 28.734 40.8687C28.4109 38.6406 28.4935 35.5084 28.4846 33.1868L28.6453 28.7035L32.7413 27.9857Z" fill="#F9D198"/>
<path d="M18.2879 66.0506C18.6183 61.7879 17.3747 57.6771 18.8666 54.1768C20.7959 52.7221 20.5162 53.207 23.5072 53.2734L23.4555 57.3689C22.2667 69.0017 23.8425 80.9975 22.6863 91.7773C21.213 92.9574 20.6906 92.6025 18.483 92.7559C17.9775 86.0657 18.3265 73.1789 18.2879 66.0506Z" fill="#9E7E53"/>
<path d="M18.483 92.7559C20.6906 92.6025 21.213 92.9574 22.6863 91.7773C23.8425 80.9975 22.2667 69.0017 23.4555 57.3689C23.7377 63.7852 22.9525 84.5817 24.3079 91.7977C24.3685 92.1205 26.2843 92.7559 26.9174 92.9779C29.7065 96.6352 28.7928 101.17 28.575 105.868C26.8307 105.915 25.6366 106.068 24.1411 105.009C22.5158 102.088 23.7878 97.3939 23.2722 94.0229L23.178 93.4358L18.495 93.2532L18.483 92.7559Z" fill="#D4A650"/>
<path d="M116.14 34.0858C116.297 37.1026 115.854 38.7231 117.449 40.8417C119.343 41.1893 119.872 41.217 121.799 41.1623C120.881 45.5761 122.531 49.6271 120.301 52.7754C118.144 53.5524 119.011 53.5341 116.957 53.047C115.447 49.1706 117.106 45.4082 115.793 42.0021C113.861 41.8115 113.491 41.9138 111.987 40.8198L111.767 38.6764C114.33 37.1932 114.566 36.6396 116.14 34.0858Z" fill="#9E7E53"/>
<path d="M102.091 23.1869C102.351 26.5594 101.799 26.3001 103.583 28.5202C107.901 28.5399 106.748 27.4934 110.644 29.0716C113.442 32.9188 109.427 33.6739 116.14 34.0858C114.566 36.6396 114.33 37.1932 111.767 38.6764C105.343 36.1978 110.461 37.5525 106.745 33.7009C104.935 33.6651 103.627 33.8967 102.296 32.8056C102.068 31.2333 101.866 29.9713 101.117 28.5458L102.091 23.1869Z" fill="#9E7E53"/>
<path d="M116.994 105.978C116.241 102.652 115.807 96.8557 117.318 93.7899C119.082 93.0903 119.78 93.4292 121.577 93.8374C121.586 97.2858 122.384 102.205 120.75 105.238C119.431 105.946 118.474 105.968 116.994 105.978Z" fill="#D4A650"/>
<path d="M41.8203 121.864C45.1447 121.775 50.0045 120.976 52.8935 122.6C53.8928 123.982 53.6349 125.363 53.5589 126.98C50.1856 126.841 46.6297 127.782 43.3777 126.659C41.7553 124.878 41.9927 124.207 41.8203 121.864Z" fill="#FDEEAD"/>
<path d="M91.6412 23.2147L102.091 23.1869L101.117 28.5458C98.4367 28.6641 95.0985 29.0614 92.6573 28.1514C91.0649 25.9737 91.5652 26.4754 91.6412 23.2147Z" fill="#9E7E53"/>
<path d="M33.8976 116.008C36.5284 115.994 39.0686 115.542 41.3813 116.853C42.0044 118.614 41.9328 120.044 41.8203 121.864C39.6114 121.664 37.4683 121.478 35.3139 120.923C33.8049 119.226 34.0665 118.231 33.8976 116.008Z" fill="#FDEEAD"/>
<path d="M69.565 33.2642C71.9697 33.0028 73.1282 32.7859 75.5329 33.1861L76.1202 33.3227C79.0567 33.2233 78.8346 32.7705 80.9449 34.0778C81.8945 36.3044 81.5169 38.9627 81.3803 41.4252C88.4717 41.388 87.7222 46.7008 85.3906 51.8545C83.8003 52.8864 83.1312 52.8141 81.2773 53.0157C84.5987 53.4736 84.0743 52.8557 85.7171 54.9195C85.7719 57.2754 85.8866 59.6306 86.0604 61.9814L91.5119 61.9529C94.7084 62.0391 94.2665 61.5067 96.135 63.228C97.3257 65.6037 96.8071 70.3863 95.6756 72.6955C98.4944 72.1799 98.482 71.7469 100.866 72.5487C101.887 74.2963 101.679 75.5312 101.635 77.5242C101.814 82.7027 101.866 87.8848 101.792 93.0663C103.982 93.1035 104.673 92.7237 106.253 94.3253C107.564 99.7265 106.771 105.786 106.702 111.339C102.426 111.475 96.8283 112.268 92.7508 111.081C92.6032 110.542 92.4367 110.014 92.2825 109.477C92.0612 108.709 91.8764 107.898 91.4301 107.219C90.4133 105.671 89.0108 105.019 87.2555 104.682C87.0948 104.652 86.9333 104.629 86.7719 104.602C85.2868 101.763 86.1839 96.4139 86.2861 93.213C84.1364 93.2247 83.0808 93.5899 81.3489 92.2513C81.5125 90.5424 81.6937 89.2702 80.8763 87.6752C76.8163 84.535 69.0149 85.7056 64.0828 85.8641C64.1274 87.703 64.0828 89.5192 64.009 91.3566C62.3991 93.1743 61.4896 93.0692 59.1646 93.5811L58.8081 93.2919L53.7284 93.2539L53.605 92.7091L48.3434 93.4562L47.9833 93.3248L43.2301 93.1933L42.9379 92.6375C43.618 87.9724 42.1651 83.7156 43.7005 79.683C45.6107 78.0756 45.122 78.5736 48.2601 78.6393L48.3339 78.0317C46.2521 78.0894 45.358 78.2947 43.6662 77.0028C42.6472 74.6885 42.6691 75.6254 43.4032 73.4674C45.7524 71.6636 45.1279 72.2084 48.6312 72.1405C50.3347 72.0945 52.5136 71.871 54.2536 71.7388C54.1389 68.8067 54.2514 65.7045 54.3055 62.7578C54.1331 59.9856 53.5998 56.1537 54.5714 53.6809C56.594 52.1831 56.1105 52.6673 59.3099 52.9865C61.4582 53.2201 61.768 53.1697 63.8775 52.6761C62.1157 52.5702 61.6401 52.6585 60.0952 51.9041C58.1163 48.3688 58.0068 44.3216 61.1186 41.4114L62.9294 41.561L63.9864 42.8814L64.5357 41.3836C64.3509 38.7327 64.1296 37.1757 64.657 34.5532C66.3728 32.9232 65.787 33.4001 68.7943 33.4117L69.565 33.2642Z" fill="#F7DD88"/>
<path d="M101.792 93.0663C103.982 93.1035 104.673 92.7237 106.253 94.3253C107.564 99.7265 106.771 105.786 106.702 111.339C102.426 111.475 96.8283 112.268 92.7508 111.081C92.6032 110.542 92.4367 110.014 92.2825 109.477C92.0612 108.709 91.8764 107.898 91.4301 107.219C90.4133 105.671 89.0108 105.019 87.2555 104.682C87.0948 104.652 86.9333 104.629 86.7719 104.602C85.2868 101.763 86.1839 96.4139 86.2861 93.213C88.5345 93.2225 89.3687 92.9216 91.1934 94.3128C92.6105 97.8321 91.1357 101.782 91.9261 105.494C92.6602 102.059 91.9728 98.6391 92.6354 95.1439C93.9393 93.4372 94.5791 93.6534 96.6186 93.3649L101.792 93.0663Z" fill="#9E7E53"/>
<path d="M96.6186 93.3649L101.792 93.0663L101.714 105.434L91.9261 105.494C92.6602 102.059 91.9728 98.6391 92.6354 95.1439C93.9393 93.4372 94.5791 93.6534 96.6186 93.3649Z" fill="#FDEEAD"/>
<path d="M58.914 79.1966L86.3526 79.1535L86.2861 93.213C84.1364 93.2247 83.0808 93.5899 81.3489 92.2513C81.5125 90.5424 81.6937 89.2702 80.8763 87.6752C76.8163 84.535 69.0149 85.7056 64.0828 85.8641C64.1274 87.703 64.0828 89.5192 64.009 91.3566C62.3991 93.1743 61.4896 93.0692 59.1646 93.5811L58.8081 93.2919L58.914 79.1966Z" fill="#9E7E53"/>
<path d="M63.8775 52.6761C62.1157 52.5702 61.6401 52.6585 60.0952 51.9041C58.1163 48.3688 58.0068 44.3216 61.1186 41.4114L62.9294 41.561L63.9864 42.8814L64.5357 41.3836L68.982 41.461L69.1369 52.2744C67.5481 53.1157 66.7322 53.1318 64.9491 53.1091C63.4641 56.8482 65.3144 58.95 63.3852 61.7733L60.0572 61.9566C58.99 63.3719 59.2785 62.7606 59.4195 64.9398C59.2866 68.0253 59.7672 69.4318 58.1295 71.584C56.8702 71.76 55.5882 71.9623 54.3237 72.047L54.2536 71.7388C54.1389 68.8067 54.2514 65.7045 54.3055 62.7578C54.1331 59.9856 53.5998 56.1537 54.5714 53.6809C56.594 52.1831 56.1105 52.6673 59.3099 52.9865C61.4582 53.2201 61.768 53.1697 63.8775 52.6761Z" fill="#FDEEAD"/>
<path d="M63.8775 52.6761C62.1157 52.5702 61.6401 52.6585 60.0952 51.9041C58.1163 48.3688 58.0068 44.3216 61.1186 41.4114L62.9294 41.561L63.9864 42.8814L63.8775 52.6761Z" fill="#9E7E53"/>
<path d="M54.3055 62.7578C54.1331 59.9856 53.5998 56.1537 54.5714 53.6809C56.594 52.1831 56.1105 52.6673 59.3099 52.9865C59.3932 55.6703 59.9345 59.4941 58.4377 61.506C56.6905 62.3707 56.2368 62.4218 54.3055 62.7578Z" fill="#9E7E53"/>
<path d="M54.2536 71.7388L54.3237 72.047C53.6057 78.2231 53.1521 86.5243 53.605 92.7091L48.3434 93.4562L47.9833 93.3248L43.2301 93.1933L42.9379 92.6375C43.618 87.9724 42.1651 83.7156 43.7005 79.683C45.6107 78.0756 45.122 78.5736 48.2601 78.6393L48.3339 78.0317C46.2521 78.0894 45.358 78.2947 43.6662 77.0028C42.6472 74.6885 42.6691 75.6254 43.4032 73.4674C45.7524 71.6636 45.1279 72.2084 48.6312 72.1405C50.3347 72.0945 52.5136 71.871 54.2536 71.7388Z" fill="#FDEEAD"/>
<path d="M42.9379 92.6375C43.618 87.9724 42.1651 83.7156 43.7005 79.683C45.6107 78.0756 45.122 78.5736 48.2601 78.6393C48.3361 82.2842 48.6794 90.1239 47.9833 93.3248L43.2301 93.1933L42.9379 92.6375Z" fill="#9E7E53"/>
<path d="M48.3339 78.0317C46.2521 78.0894 45.358 78.2947 43.6662 77.0028C42.6472 74.6885 42.6691 75.6254 43.4032 73.4674C45.7524 71.6636 45.1279 72.2084 48.6312 72.1405L48.3339 78.0317Z" fill="#F9D198"/>
<path d="M101.635 77.5242C101.814 82.7027 101.866 87.8848 101.792 93.0663L96.6186 93.3649C96.5288 89.2665 95.2212 81.8993 97.4309 78.8329C98.1584 77.8229 100.121 77.8046 101.635 77.5242Z" fill="#9E7E53"/>
<path d="M76.1808 61.98C75.977 64.8719 75.2663 68.6439 76.8214 70.9005C78.4533 71.9499 79.3489 71.9542 81.2452 72.2763C77.6622 72.8007 73.183 72.7715 69.6906 71.7461L69.5942 61.9478L76.1808 61.98Z" fill="#F5C756"/>
<path d="M69.1369 52.2744L69.5694 53.0624L69.5942 61.9478C67.6139 61.9989 66.2245 61.8317 64.5408 62.8183L63.3991 64.6141L61.8834 63.1221C60.0513 63.5924 60.7219 63.1842 59.4195 64.9398C59.2785 62.7606 58.99 63.3719 60.0572 61.9566L63.3852 61.7733C65.3144 58.95 63.4641 56.8482 64.9491 53.1091C66.7322 53.1318 67.5481 53.1157 69.1369 52.2744Z" fill="#F9D198"/>
<path d="M69.5694 53.0624C73.1048 53.0989 73.2027 52.5497 75.8002 54.1403C76.7484 56.3728 76.3211 59.4772 76.1808 61.98L69.5942 61.9478L69.5694 53.0624Z" fill="#9E7E53"/>
<path d="M81.3803 41.4252C88.4717 41.388 87.7222 46.7008 85.3906 51.8545C83.8003 52.8864 83.1312 52.8141 81.2773 53.0157L81.3803 41.4252Z" fill="#9E7E53"/>
<path d="M69.565 33.2642C71.9697 33.0028 73.1282 32.7859 75.5329 33.1861C75.7214 35.8677 75.9171 37.088 75.2918 39.7207C73.5935 41.7327 74.4379 41.2587 72.1625 41.813L70.4729 40.7351C68.9594 38.7655 69.4525 35.8392 69.565 33.2642Z" fill="#FDEEAD"/>
<path d="M91.5119 61.9529C94.7084 62.0391 94.2665 61.5067 96.135 63.228C97.3257 65.6037 96.8071 70.3863 95.6756 72.6955C93.8063 72.4428 93.4776 72.5246 92.0422 71.4219C90.6814 68.9097 91.3234 64.9442 91.5119 61.9529Z" fill="#9E7E53"/>
<path d="M64.5408 62.8183C66.2245 61.8317 67.6139 61.9989 69.5942 61.9478L69.6906 71.7461C67.6782 71.7768 66.9813 71.8944 65.1113 70.9866C63.6599 69.0338 64.3458 65.4247 64.5408 62.8183Z" fill="#9E7E53"/>
<path d="M76.1808 61.98C79.4913 62.1874 79.2554 61.6075 81.0465 63.4413C81.8398 65.9746 81.4015 69.5384 81.2452 72.2763C79.3489 71.9542 78.4533 71.9499 76.8214 70.9005C75.2663 68.6439 75.977 64.8719 76.1808 61.98Z" fill="#9E7E53"/>
<path d="M76.1202 33.3227C79.0567 33.2233 78.8346 32.7705 80.9449 34.0778C81.8945 36.3044 81.5169 38.9627 81.3803 41.4252C79.4489 41.6114 78.828 41.81 76.9836 41.1353C75.568 38.6055 76.1012 36.5191 76.1202 33.3227Z" fill="#9E7E53"/>
<path d="M64.5357 41.3836C64.3509 38.7327 64.1296 37.1757 64.657 34.5532C66.3728 32.9232 65.787 33.4001 68.7943 33.4117L68.982 41.461L64.5357 41.3836Z" fill="#9E7E53"/>
<path d="M48.3434 93.4562L53.605 92.7091L53.7284 93.2539L58.8081 93.2919L59.1646 93.5811C59.1536 97.1281 59.925 101.873 58.2266 105.003C56.8877 106.049 55.7029 105.934 54.0849 105.96C53.9315 109.182 54.4611 108.883 52.781 110.952C49.0841 112.338 43.1373 111.582 38.7271 111.518C38.7689 107.011 37.4973 97.3545 39.5069 93.4869C39.9306 92.6704 41.729 92.7639 42.9379 92.6375L43.2301 93.1933L47.9833 93.3248L48.3434 93.4562Z" fill="#9E7E53"/>
<path d="M53.7284 93.2539L58.8081 93.2919L59.1646 93.5811C59.1536 97.1281 59.925 101.873 58.2266 105.003C56.8877 106.049 55.7029 105.934 54.0849 105.96L53.575 105.177L53.7284 93.2539Z" fill="#9E7E53"/>
<path d="M48.3434 93.4562L53.605 92.7091L53.7284 93.2539L53.575 105.177L48.3938 105.354L48.3434 93.4562Z" fill="#F9D198"/>
<path d="M43.2301 93.1933L47.9833 93.3248L48.3434 93.4562L48.3938 105.354C46.7802 105.348 45.396 105.499 43.9978 104.57C42.2557 101.468 43.1162 96.7184 43.2301 93.1933Z" fill="#FDEEAD"/>
<path d="M86.0604 61.9814C86.1466 59.0895 85.9033 55.9865 87.552 53.6787L89.1839 52.5183C92.65 54.8552 91.6083 58.0474 91.5119 61.9529L86.0604 61.9814Z" fill="#9E7E53"/>
<path d="M49.5552 61.4468C50.7897 61.6389 51.7123 61.8916 52.8394 62.4357C54.3347 65.0603 53.5473 69.0594 53.3588 71.9922C51.9074 71.7754 51.0264 71.5424 49.8664 70.6237C48.5896 67.9822 49.3354 64.3059 49.5552 61.4468Z" fill="#9E7E53"/>
<path d="M11.7831 41.2799C11.7302 39.1336 11.7312 36.9858 11.7861 34.8395C13.2886 32.585 12.7964 33.2598 15.9714 32.3579L17.3795 33.5359L21.4142 33.1678C23.1688 34.9636 22.4963 37.3699 22.9202 40.7935C19.5803 41.0469 20.039 40.4751 18.0809 42.3526C16.894 45.7551 18.0564 48.9362 17.5906 52.9309C15.5687 53.0653 13.6721 52.8842 11.6522 52.7556L11.3541 53.1639L5.9521 53.1128C6.06613 49.5672 5.06509 45.5192 6.39798 42.4753C8.4709 40.7862 8.44906 41.3536 11.7831 41.2799Z" fill="#FEF5C8"/>
<path d="M5.9521 53.1128C6.06613 49.5672 5.06509 45.5192 6.39798 42.4753C8.4709 40.7862 8.44906 41.3536 11.7831 41.2799L11.6522 52.7556L11.3541 53.1639L5.9521 53.1128Z" fill="#786456"/>
<path d="M11.7831 41.2799C11.7302 39.1336 11.7312 36.9858 11.7861 34.8395C13.2886 32.585 12.7964 33.2598 15.9714 32.3579L17.3795 33.5359C17.3292 36.7732 17.8712 38.6457 16.2499 40.9965C14.2819 41.35 13.7827 41.369 11.7831 41.2799Z" fill="#8C583A"/>
<path d="M19.2316 27.4255L19.4552 24.6584C21.091 22.9488 21.0035 23.4994 24.1137 23.3191L24.7131 26.9472C26.7183 28.4494 25.9748 28.036 28.7252 28.1704L28.6453 28.7035L28.4846 33.1868C25.6152 33.5191 25.5494 33.048 23.7519 34.6306C23.5099 36.6892 23.2326 38.7443 22.9202 40.7935C22.4963 37.3699 23.1688 34.9636 21.4142 33.1678L21.2132 31.4129L19.2316 27.4255Z" fill="#FDEEAD"/>
<path d="M19.2316 27.4255L19.4552 24.6584C21.091 22.9488 21.0035 23.4994 24.1137 23.3191L24.7131 26.9472C23.6155 28.361 23.4045 28.456 21.7361 29.1264L21.2132 31.4129L19.2316 27.4255Z" fill="#786456"/>
<path d="M15.9714 32.3579C15.7936 28.5429 16.1953 28.7393 19.2316 27.4255L21.2132 31.4129L21.4142 33.1678L17.3795 33.5359L15.9714 32.3579Z" fill="#655B55"/>
</svg>
