<svg width="168" height="165" viewBox="0 0 168 165" fill="none" xmlns="http://www.w3.org/2000/svg">
<path d="M11.035 10.23C11.3216 5.70414 10.6528 3.66001 12.957 0.474738C17.7468 0.261983 39.0699 -0.876747 41.9777 1.38498C42.5728 7.67815 41.3354 8.10245 44.7802 11.0157L45.6777 10.9335C48.4512 10.7026 49.1213 10.4294 51.5622 11.4642C52.0932 13.2122 52.3689 13.8263 52.5843 15.6709L53.2846 19.9514C55.5997 21.4117 55.4666 21.3416 58.2195 21.4286L62.2655 22.0125C64.1741 24.9487 63.5149 27.0291 63.1738 30.6193C66.1505 31.1911 69.1127 31.8379 72.0567 32.5583C74.8327 36.7711 72.9893 39.1005 75.943 41.6439C80.6566 41.7587 84.1547 41.7624 88.8525 41.4577C98.0233 35.3954 87.9659 32.823 104.15 30.8526C103.983 27.3664 103.968 26.496 104.602 23.075C108.246 20.6368 108.728 21.4927 113.945 21.4226L114.415 21.1651C114.495 17.7574 114.668 16.1291 115.227 12.7637C118.449 10.311 120.116 11.0568 124.843 10.7788C124.886 6.72076 124.168 3.50768 126.086 0.636708C131.602 0.234167 151.101 -0.587828 155.369 1.09486C155.997 4.5086 156.412 7.43154 156.841 10.8586C162.419 10.9009 161.868 9.9822 165.294 12.8604C168.874 21.2231 168.867 21.3645 165.482 29.882C161.856 32.6647 162.469 31.7919 157.001 31.9104L156.315 32.3383C156.032 37.4565 156.852 38.3293 154.312 41.7962C150.496 42.3221 149.37 42.287 145.514 42.021C145.436 46.7222 146.214 48.0652 143.981 51.5164C140.505 52.3445 139.115 52.2284 135.615 52.1583L135.58 53.7177C135.268 58.6727 136.152 59.1055 133.338 61.9462C130.731 62.0732 128.123 62.1795 125.514 62.2629L124.997 62.767C124.754 68.104 125.641 68.5936 122.959 72.0847C119.83 72.4389 117.778 72.5875 114.63 72.6178L114.353 82.1047L117.643 82.141L122.866 82.7756C125.602 86.39 124.639 86.9255 124.724 92.5103C127.669 92.8258 130.606 93.2151 133.533 93.6744C135.034 96.0812 135.025 96.1743 134.82 99.0863L135.317 102.911C139.028 102.869 141.884 102.319 144.673 104.461C144.47 111.985 146.504 114.721 154.568 114.159C156.638 117.184 156.152 119.817 156.114 123.603L164.884 123.832C167.616 127.297 166.995 149.79 165.533 154.255C161.82 154.868 160.328 155.007 156.567 155.014L156.158 155.87L155.771 163.442C152.139 165.657 131.453 164.69 125.98 164.331C124.079 161.88 124.797 158.716 124.756 154.931C121.208 155.004 119.853 155.157 116.377 154.155C114.173 150.823 114.878 149.618 114.692 145.093L114.271 144.658L115.148 136.683C111.158 133.191 110.507 134.1 104.364 133.079L103.65 124.532L94.6837 123.693L94.3608 124.338C89.8613 123.241 82.0717 121.86 77.8734 123.84C74.2508 127.673 73.8916 128.584 71.6576 133.363C69.0123 134.799 66.9017 134.35 63.827 134.22C63.3251 138.088 62.9791 140.41 63.0771 144.389C58.2231 144.664 56.8152 143.896 53.443 146.392C52.791 149.624 52.7475 150.39 52.8575 153.689C49.2882 155.877 46.3344 153.602 42.8001 156.067C42.5739 158.828 42.3478 161.015 41.9099 163.75C36.6194 165.985 22.5922 164.534 16.3654 164.568C7.62643 164.616 14.5476 159.528 10.0202 154.801C6.55004 154.926 5.57152 155.159 2.32268 154.162C0.0910622 148.952 1.2583 130.356 1.41434 123.838C4.99218 123.708 8.4199 123.406 11.9808 123.109C11.6591 119.204 11.1535 117.675 12.992 114.245C16.565 114.581 17.107 114.684 20.224 112.982C23.4994 108.601 22.6345 110.348 22.7966 104.386C26.0128 102.405 28.8614 102.891 32.7525 102.929C32.4755 99.362 32.3895 98.4662 32.9967 94.957C36.1742 92.5321 37.7151 93.3504 42.4626 93.2078C42.2606 89.5994 41.9898 87.7233 42.88 84.1331C46.5933 81.6115 47.2223 82.483 52.5564 82.3561C53.0415 79.8031 53.0087 75.9783 53.097 73.2681L52.5274 72.752C38.2245 72.6323 46.0163 71.5226 41.9051 63.2493C37.7975 60.5838 39.2138 61.3188 33.7781 61.3853C31.9057 58.8347 32.5202 56.3143 32.675 52.9622C30.2898 52.2175 26.3515 51.8585 23.7401 51.5116C21.0379 48.2066 21.9476 47.5067 21.7262 42.2108L12.9013 41.8071C10.5644 37.9618 11.3857 36.7626 11.2696 31.555L4.79375 31.6058C-0.337156 27.3833 -1.10287 21.176 1.32832 15.272C3.62283 9.70294 5.47956 11.0085 10.7774 10.7583L11.035 10.23Z" fill="#D0100F"/>
<path d="M1.41434 123.838C4.99218 123.708 8.4199 123.406 11.9808 123.109L12.5288 124.552C12.0002 132.484 11.832 136.785 12.2832 144.812C21.3185 146.059 34.0491 145.809 43.1509 144.96C48.5709 145.027 48.7814 144.077 52.0399 146.817L52.8575 153.689C49.2882 155.877 46.3344 153.602 42.8001 156.067C42.5739 158.828 42.3478 161.015 41.9099 163.75C36.6194 165.985 22.5922 164.534 16.3654 164.568C7.62643 164.616 14.5476 159.528 10.0202 154.801C6.55004 154.926 5.57152 155.159 2.32268 154.162C0.0910622 148.952 1.2583 130.356 1.41434 123.838Z" fill="#620201"/>
<path d="M1.41434 123.838C4.99218 123.708 8.4199 123.406 11.9808 123.109L12.5288 124.552C12.0002 132.484 11.832 136.785 12.2832 144.812C21.3185 146.059 34.0491 145.809 43.1509 144.96C42.9163 148.271 42.8594 149.554 41.9571 152.733C36.2456 157.244 20.3448 154.955 12.0957 154.719C11.0978 145.682 12.6013 133.606 9.5121 126.005C8.74041 124.107 3.97374 124.151 1.41434 123.838Z" fill="#8A212E"/>
<path d="M115.517 134.119C121.064 134.289 120.902 133.347 124.293 136.207L124.612 142.296C129.786 146.944 148.188 145.25 156.348 145.161L156.567 155.014L156.158 155.87L155.771 163.442C152.139 165.657 131.453 164.69 125.98 164.331C124.079 161.88 124.797 158.716 124.756 154.931C121.208 155.004 119.853 155.157 116.377 154.155C114.173 150.823 114.878 149.618 114.692 145.093L114.271 144.658L115.148 136.683L115.517 134.119Z" fill="#A00C12"/>
<path d="M124.756 154.931C130.667 154.871 151.784 154.185 156.158 155.87L155.771 163.442C152.139 165.657 131.453 164.69 125.98 164.331C124.079 161.88 124.797 158.716 124.756 154.931Z" fill="#620201"/>
<path d="M114.692 145.093C120.006 145.192 119.994 144.373 123.875 146.805C124.737 150.353 124.748 151.266 124.756 154.931C121.208 155.004 119.853 155.157 116.377 154.155C114.173 150.823 114.878 149.618 114.692 145.093Z" fill="#470E1A"/>
<path d="M73.4272 112.61L75.2728 113.768C80.8065 113.895 88.105 112.989 92.0529 115.794C93.8322 119.026 93.9398 120.051 94.6837 123.693L94.3608 124.338C89.8613 123.241 82.0717 121.86 77.8734 123.84C74.2508 127.673 73.8916 128.584 71.6576 133.363C69.0123 134.799 66.9017 134.35 63.827 134.22L63.3322 133.717L53.3075 134.591C54.0163 130.689 53.5688 127.608 53.2833 123.667C67.0407 124.235 58.3296 117.25 73.4272 112.61Z" fill="#470E1A"/>
<path d="M73.4272 112.61L75.2728 113.768C70.9487 118.648 73.6012 120.277 72.4824 121.967C68.0107 128.72 62.3911 119.612 63.1822 131.783C63.2233 132.428 63.2729 133.073 63.3322 133.717L53.3075 134.591C54.0163 130.689 53.5688 127.608 53.2833 123.667C67.0407 124.235 58.3296 117.25 73.4272 112.61Z" fill="#A00C12"/>
<path d="M11.035 10.23C11.3216 5.70414 10.6528 3.66001 12.957 0.474738C17.7468 0.261983 39.0699 -0.876747 41.9777 1.38498C42.5728 7.67815 41.3354 8.10245 44.7802 11.0157L45.6777 10.9335C48.4512 10.7026 49.1213 10.4294 51.5622 11.4642C52.0932 13.2122 52.3689 13.8263 52.5843 15.6709C52.2359 19.5042 52.9036 18.2905 50.4893 20.6767L44.392 20.3213C41.881 17.8178 42.6211 16.2016 42.2703 11.7882C38.1699 8.24752 19.8756 11.0726 12.0159 10.3303L11.035 10.23Z" fill="#6C1203"/>
<path d="M124.843 10.7788C124.886 6.72076 124.168 3.50768 126.086 0.636708C131.602 0.234167 151.101 -0.587828 155.369 1.09486C155.997 4.5086 156.412 7.43154 156.841 10.8586L156.406 11.1729C144.858 9.69812 136.365 10.3207 124.843 10.7788Z" fill="#6C1203"/>
<path d="M73.4272 112.61C72.7268 108.162 72.0289 108.551 73.9085 105.117C80.1667 102.5 84.6892 101.778 91.3344 103.488L93.3484 105.358C93.5951 112.915 92.9093 116.225 102.73 115.714C104.487 118.962 104.354 120.353 104.532 123.997L103.65 124.532L94.6837 123.693C93.9398 120.051 93.8322 119.026 92.0529 115.794C88.105 112.989 80.8065 113.895 75.2728 113.768L73.4272 112.61Z" fill="#A00C12"/>
<path d="M156.114 123.603L164.884 123.832C167.616 127.297 166.995 149.79 165.533 154.255C161.82 154.868 160.328 155.007 156.567 155.014L156.348 145.161L156.114 123.603Z" fill="#620201"/>
<path d="M53.2833 123.667C53.5688 127.608 54.0163 130.689 53.3075 134.591L63.3322 133.717L63.827 134.22C63.3251 138.088 62.9791 140.41 63.0771 144.389C58.2231 144.664 56.8152 143.896 53.443 146.392C52.791 149.624 52.7475 150.39 52.8575 153.689L52.0399 146.817C48.7814 144.077 48.5709 145.027 43.1509 144.96C34.0491 145.809 21.3185 146.059 12.2832 144.812C19.5296 143.968 36.8878 145.377 42.2413 143.325C43.0747 140.447 43.4013 138.615 43.8814 135.654C48.3144 132.187 48.0859 134.148 51.9903 132.288L53.2833 123.667Z" fill="#A00C12"/>
<path d="M63.3322 133.717L63.827 134.22C63.3251 138.088 62.9791 140.41 63.0771 144.389C59.6686 144.254 57.8918 144.154 54.5449 143.54C52.2311 139.896 53.0994 139.795 53.3075 134.591L63.3322 133.717Z" fill="#620201"/>
<path d="M11.9808 123.109C11.6591 119.204 11.1535 117.675 12.992 114.245C16.565 114.581 17.107 114.684 20.224 112.982C23.4994 108.601 22.6345 110.348 22.7966 104.386C26.0128 102.405 28.8614 102.891 32.7525 102.929L33.4163 103.707C33.4272 107.583 33.9171 110.108 31.6238 113.07C25.6765 112.747 26.4808 111.971 22.4784 114.856C20.7186 117.92 20.854 118.646 20.8999 122.223C17.7696 124.237 16.2094 124.12 12.5288 124.552L11.9808 123.109Z" fill="#6C1203"/>
<path d="M135.317 102.911C139.028 102.869 141.884 102.319 144.673 104.461C144.47 111.985 146.504 114.721 154.568 114.159C156.638 117.184 156.152 119.817 156.114 123.603C152.403 123.696 149.854 124.106 146.573 122.277C146.733 118.748 146.668 118.337 144.944 115.259C140.606 112.329 142.133 113.143 136.506 112.862C134.448 109.74 135.116 106.818 135.317 102.911Z" fill="#620201"/>
<path d="M156.841 10.8586C162.419 10.9009 161.868 9.9822 165.294 12.8604C168.874 21.2231 168.867 21.3645 165.482 29.882C161.856 32.6647 162.469 31.7919 157.001 31.9104L156.406 11.1729L156.841 10.8586Z" fill="#620201"/>
<path d="M11.2696 31.555L4.79375 31.6058C-0.337156 27.3833 -1.10287 21.176 1.32832 15.272C3.62283 9.70294 5.47956 11.0085 10.7774 10.7583C11.1003 17.6861 11.2648 24.6199 11.2696 31.555Z" fill="#620201"/>
<path d="M32.9919 52.3711C37.7962 52.249 37.968 51.5249 41.7188 53.4602C42.0272 59.0801 41.1902 57.6791 44.1379 61.8955C47.2754 63.1164 48.052 62.9882 51.4472 62.9121C53.9993 65.9233 53.1528 68.8897 52.5274 72.752C38.2245 72.6323 46.0163 71.5226 41.9051 63.2493C37.7975 60.5838 39.2138 61.3188 33.7781 61.3853C31.9057 58.8347 32.5202 56.3143 32.675 52.9622L32.9919 52.3711Z" fill="#470E1A"/>
<path d="M76.1643 42.553C82.3064 42.6001 87.6356 41.5931 92.2924 44.3263C93.2322 47.4584 93.248 48.6346 93.5238 51.9274C87.7615 51.9528 80.4303 53.5158 75.505 51.1973C73.0375 47.4161 73.8915 47.9999 74.2931 42.4901L76.1643 42.553Z" fill="#620201"/>
<path d="M104.15 30.8526L104.493 31.555C103.16 48.2296 95.1832 37.986 93.9531 47.7654C93.7886 49.1507 93.6447 50.5385 93.5238 51.9274C93.248 48.6346 93.2322 47.4584 92.2924 44.3263C87.6356 41.5931 82.3064 42.6001 76.1643 42.553L75.943 41.6439C80.6566 41.7587 84.1547 41.7624 88.8525 41.4577C98.0233 35.3954 87.9659 32.823 104.15 30.8526Z" fill="#6C1203"/>
<path d="M113.583 86.2026C113.573 80.0787 102.502 85.1376 103.53 76.1234C105.64 72.9816 107.43 70.1578 111.345 71.6144C114.801 76.6432 113.779 75.3727 114.353 82.1047L117.643 82.141L113.583 86.2026Z" fill="#6C1203"/>
<path d="M52.5564 82.3561L53.1151 82.9037C53.091 87.8382 53.9582 88.5369 51.4847 91.895C47.527 92.9431 46.5219 92.9975 42.4626 93.2078C42.2606 89.5994 41.9898 87.7233 42.88 84.1331C46.5933 81.6115 47.2223 82.483 52.5564 82.3561Z" fill="#620201"/>
<path d="M63.1738 30.6193C66.1505 31.1911 69.1127 31.8379 72.0567 32.5583C74.8327 36.7711 72.9893 39.1005 75.943 41.6439L76.1643 42.553L74.2931 42.4901C72.1981 41.9389 68.5163 41.5968 66.2375 41.3054C62.8919 37.8941 63.781 36.9548 62.8847 31.1694L63.1738 30.6193Z" fill="#620201"/>
<path d="M11.2696 31.555C17.0936 31.5622 16.3848 30.739 20.8807 33.2824C22.943 36.915 22.7288 35.3519 21.91 39.1344C18.6841 42.2495 18.5208 41.7104 12.9013 41.8071C10.5644 37.9618 11.3857 36.7626 11.2696 31.555Z" fill="#620201"/>
<path d="M104.15 30.8526C103.983 27.3664 103.968 26.496 104.602 23.075C108.246 20.6368 108.728 21.4927 113.945 21.4226C114.614 26.7463 115.518 26.7958 113.467 30.7427C109.594 31.908 108.39 31.7242 104.493 31.555L104.15 30.8526Z" fill="#620201"/>
<path d="M145.514 42.021C145.354 38.5614 145.054 36.9101 146.423 33.6378C150.731 31.312 150.687 32.1642 156.315 32.3383C156.032 37.4565 156.852 38.3293 154.312 41.7962C150.496 42.3221 149.37 42.287 145.514 42.021Z" fill="#6C1203"/>
<path d="M21.7262 42.2108C27.099 42.3813 28.0836 41.5109 31.8489 44.0531C32.6061 47.3713 32.7524 48.9682 32.9919 52.3711L32.675 52.9622C30.2898 52.2175 26.3515 51.8585 23.7401 51.5116C21.0379 48.2066 21.9476 47.5067 21.7262 42.2108Z" fill="#620201"/>
<path d="M103.65 124.532L104.532 123.997C110.322 124.622 110.584 123.621 113.753 126.894C114.165 128.64 114.98 132.623 115.517 134.119L115.148 136.683C111.158 133.191 110.507 134.1 104.364 133.079L103.65 124.532Z" fill="#8A212E"/>
<path d="M32.7525 102.929C32.4755 99.362 32.3895 98.4662 32.9967 94.957C36.1742 92.5321 37.7151 93.3504 42.4626 93.2078C42.5122 98.9775 43.5477 99.3897 40.7028 102.901C38.3031 103.206 35.8185 103.567 33.4163 103.707L32.7525 102.929Z" fill="#470E1A"/>
<path d="M117.643 82.141L122.866 82.7756C125.602 86.39 124.639 86.9255 124.724 92.5103L124.506 93.1002L117.317 92.9962C114.13 90.6922 114.888 90.5544 113.583 86.2026L117.643 82.141Z" fill="#470E1A"/>
<path d="M114.415 21.1651C114.495 17.7574 114.668 16.1291 115.227 12.7637C118.449 10.311 120.116 11.0568 124.843 10.7788C124.763 15.4268 125.487 16.5522 123.38 20.1533C119.939 21.4056 117.999 21.1893 114.415 21.1651Z" fill="#620201"/>
<path d="M58.2195 21.4286L62.2655 22.0125C64.1741 24.9487 63.5149 27.0291 63.1738 30.6193L62.8847 31.1694C57.1612 31.6735 56.831 31.9866 53.1008 28.0941C52.3146 24.1231 52.046 25.7151 54.1893 22.1418L58.2195 21.4286Z" fill="#620201"/>
<path d="M53.097 73.2681C56.947 72.6939 58.5678 72.0122 61.8904 73.881C63.9962 77.1618 63.6926 75.6435 62.9621 79.5698C59.6503 83.1141 59.1399 82.6595 53.1151 82.9037L52.5564 82.3561C53.0415 79.8031 53.0087 75.9783 53.097 73.2681Z" fill="#8A212E"/>
<path d="M135.615 52.1583C135.477 48.5632 135.3 47.2287 136.223 43.6929C139.628 41.4638 140.899 42.1891 145.514 42.021C145.436 46.7222 146.214 48.0652 143.981 51.5164C140.505 52.3445 139.115 52.2284 135.615 52.1583Z" fill="#620201"/>
<path d="M114.63 72.6178C114.566 69.0747 114.422 67.7631 115.437 64.2926C119.15 61.9764 119.864 62.8093 124.997 62.767C124.754 68.104 125.641 68.5936 122.959 72.0847C119.83 72.4389 117.778 72.5875 114.63 72.6178Z" fill="#620201"/>
<path d="M124.724 92.5103C127.669 92.8258 130.606 93.2151 133.533 93.6744C135.034 96.0812 135.025 96.1743 134.82 99.0863C134.288 102.414 133.197 103.001 130.259 103.826C124.573 101.961 124.997 97.921 124.506 93.1002L124.724 92.5103Z" fill="#620201"/>
<path d="M125.514 62.2629C125.193 56.3747 124.953 55.7715 129.103 52.1148C132.393 51.9661 132.822 51.9576 135.58 53.7177C135.268 58.6727 136.152 59.1055 133.338 61.9462C130.731 62.0732 128.123 62.1795 125.514 62.2629Z" fill="#6C1203"/>
<path d="M94.2398 133.372C97.3386 133.244 101.351 132.947 104.364 133.079C110.507 134.1 111.158 133.191 115.148 136.683L114.271 144.658C95.9018 144.494 113.699 136.114 94.2398 133.372Z" fill="#620201"/>
<path d="M94.6837 123.693L103.65 124.532L104.364 133.079C101.351 132.947 97.3386 133.244 94.2398 133.372L94.3608 124.338L94.6837 123.693Z" fill="#470E1A"/>
</svg>
