<svg width="168" height="218" viewBox="0 0 168 218" fill="none" xmlns="http://www.w3.org/2000/svg">
<path d="M30.0098 98.9388C33.3882 99.3358 36.4546 99.7663 39.0184 97.6163C42.8612 76.7679 35.8354 33.5235 41.1537 11.4657C41.2449 11.0825 46.4257 12.2204 49.432 9.39296C49.32 5.97112 49.075 5.20596 50.3124 2.12689C56.3205 -1.39766 62.2027 -0.151239 68.421 3.02247C69.6665 3.65721 69.7035 7.693 69.8976 9.31794L69.8433 10.6567C73.6977 10.8125 75.5198 10.2493 78.4476 12.0427C79.5429 22.486 78.9062 39.377 78.8069 50.328C83.2783 50.1976 93.8004 49.1763 96.9708 51.2248C96.8796 55.3737 97.4331 56.1838 99.6896 59.4452C106.473 60.6686 120.788 60.1977 128.304 60.118C128.666 65.0125 127.835 66.4574 130.588 69.3322L138.945 69.9589L147.904 69.9842L148.15 79.9381C152.841 80.102 154.146 79.2907 157.225 81.7281C157.759 85.1477 157.642 86.1632 157.355 89.6312C161.127 89.4039 164.058 88.7241 167.108 90.6468C168.673 100.883 167.702 154.251 167.707 168.785C167.699 173.828 168.504 173.864 166.19 177.459C163.919 177.83 162.16 178.17 159.92 178.698C156.542 184.584 158.861 198.176 157.564 206.047L156.215 207.833C153.245 208.164 151.256 208.334 148.269 208.355C148.342 212.157 148.462 213.286 147.38 217.085C141.253 218.148 55.335 218.42 50.1958 217.169C48.4304 214.76 48.9387 211.443 48.956 208.226C45.5707 208.357 43.5973 208.84 40.8429 207.005C38.1404 202.324 39.3316 194.321 39.5049 188.298C36.0745 188.379 34.8486 188.302 31.4564 187.788C28.9168 184.645 29.7186 183.488 29.4656 178.702C29.5592 169.246 29.7325 170.74 21.223 167.46C18.8175 163.971 19.6632 163.736 19.6355 158.639C19.4356 155.204 19.7371 151.943 17.7279 149.395L13.3351 149.325C5.09711 143.546 13.2566 136.688 7.49574 128.941C5.02781 128.52 4.64535 128.467 2.12658 128.603L1.54078 128.64C-0.63021 124.836 0.138115 124.451 0.108075 119.433L0.170492 89.8447C10.5772 90.1079 18.2548 87.802 27.87 91.1246C30.4986 94.1402 29.6805 94.0617 30.0098 98.9388Z" fill="#ECAD7E"/>
<path d="M157.64 168.74L167.707 168.785C167.699 173.828 168.504 173.864 166.19 177.459C163.919 177.83 162.16 178.17 159.92 178.698C156.542 184.584 158.861 198.176 157.564 206.047L156.215 207.833C153.245 208.164 151.256 208.334 148.269 208.355C148.342 212.157 148.462 213.286 147.38 217.085C141.253 218.148 55.335 218.42 50.1958 217.169C48.4304 214.76 48.9387 211.443 48.956 208.226C45.5707 208.357 43.5973 208.84 40.8429 207.005C38.1404 202.324 39.3316 194.321 39.5049 188.298L39.7441 178.085C42.9561 178.149 46.8879 177.889 49.7094 179.113L49.9024 178.324L54.8683 178.175L55.7002 178.315C60.9815 178.095 64.3068 177.121 68.6083 179.263C70.0722 181.85 69.8226 182.9 69.8931 185.987L69.6227 187.428C72.7873 189.375 112.018 188.531 118.992 188.437L128.392 188.546C131.185 188.579 134.838 188.193 137.692 187.978C141.985 187.634 143.27 186.721 146.242 188.662C146.975 192.192 147.157 194.57 147.445 198.102C148.477 193.729 147.915 176.454 147.701 171.164L148.215 169.503C150.631 168.976 155.007 168.889 157.64 168.74Z" fill="#572E1F"/>
<path d="M55.7002 178.315C60.9815 178.095 64.3068 177.121 68.6083 179.263C70.0722 181.85 69.8226 182.9 69.8931 185.987L69.6227 187.428C72.7873 189.375 112.018 188.531 118.992 188.437L128.392 188.546C131.185 188.579 134.838 188.193 137.692 187.978C141.985 187.634 143.27 186.721 146.242 188.662C146.975 192.192 147.157 194.57 147.445 198.102C117.323 197.851 87.1998 197.828 57.0785 198.032C57.2241 192.799 57.9763 182.613 55.7002 178.315Z" fill="#BE7F61"/>
<path d="M48.956 208.226C70.2673 207.818 91.5844 207.693 112.899 207.854C121.808 207.865 139.847 207.436 148.269 208.355C148.342 212.157 148.462 213.286 147.38 217.085C141.253 218.148 55.335 218.42 50.1958 217.169C48.4304 214.76 48.9387 211.443 48.956 208.226Z" fill="#928A87"/>
<path d="M54.8683 178.175L55.7002 178.315C57.9763 182.613 57.2241 192.799 57.0785 198.032C54.13 198.107 53.5523 198.329 51.0254 197.042C48.4466 192.759 49.5049 184.532 49.7094 179.113L49.9024 178.324L54.8683 178.175Z" fill="#C47155"/>
<path d="M157.64 168.74L167.707 168.785C167.699 173.828 168.504 173.864 166.19 177.459C163.919 177.83 162.16 178.17 159.92 178.698C156.542 184.584 158.861 198.176 157.564 206.047C156.631 197.435 157.409 177.891 157.64 168.74Z" fill="#90837F"/>
<path d="M0.170492 89.8447C10.5772 90.1079 18.2548 87.802 27.87 91.1246C30.4986 94.1402 29.6805 94.0617 30.0098 98.9388L29.7175 99.6336C29.8065 103.854 29.0716 105.173 31.1918 108.054C42.4535 111.624 39.7648 118.968 39.4667 129.498L39.6932 138.824L30.0468 138.79L28.926 139.157L29.3385 140.083C29.3767 145.587 29.1941 153.233 29.6147 158.554L19.6355 158.639C19.4356 155.204 19.7371 151.943 17.7279 149.395L13.3351 149.325C5.09711 143.546 13.2566 136.688 7.49574 128.941C5.02781 128.52 4.64535 128.467 2.12658 128.603L1.54078 128.64C-0.63021 124.836 0.138115 124.451 0.108075 119.433L0.170492 89.8447Z" fill="#ECAD7E"/>
<path d="M0.108075 119.433L9.7337 119.381C10.0202 122.653 10.3403 125.307 10.1728 128.612C13.0405 128.667 17.2704 128.489 19.8434 129.376L19.9706 138.712L28.926 139.157L29.3385 140.083C29.3767 145.587 29.1941 153.233 29.6147 158.554L19.6355 158.639C19.4356 155.204 19.7371 151.943 17.7279 149.395L13.3351 149.325C5.09711 143.546 13.2566 136.688 7.49574 128.941C5.02781 128.52 4.64535 128.467 2.12658 128.603L1.54078 128.64C-0.63021 124.836 0.138115 124.451 0.108075 119.433Z" fill="#928A87"/>
<path d="M19.9706 138.712L28.926 139.157L29.3385 140.083C29.3767 145.587 29.1941 153.233 29.6147 158.554L19.6355 158.639C20.346 154.363 19.9983 143.523 19.9706 138.712Z" fill="#572E1F"/>
<path d="M10.1728 128.612C13.0405 128.667 17.2704 128.489 19.8434 129.376L19.9706 138.712C16.985 138.599 15.1121 138.462 12.1601 138.023C9.6009 134.465 10.4362 133.812 10.1728 128.612Z" fill="#5D2E1F"/>
<path d="M0.170492 89.8447C10.5772 90.1079 18.2548 87.802 27.87 91.1246C30.4986 94.1402 29.6805 94.0617 30.0098 98.9388L29.7175 99.6336L9.89895 99.6509C9.09711 105.174 9.22302 113.706 9.7337 119.381L0.108075 119.433L0.170492 89.8447Z" fill="#572E1F"/>
<path d="M9.7337 119.381C9.22302 113.706 9.09711 105.174 9.89895 99.6509C10.2144 105.467 9.65168 114.159 11.6655 118.888C17.0948 120.308 16.9873 118.956 19.5535 122.337L20.0249 128.747L19.8434 129.376C17.2704 128.489 13.0405 128.667 10.1728 128.612C10.3403 125.307 10.0202 122.653 9.7337 119.381Z" fill="#A86D4C"/>
<path d="M20.0249 128.747C25.2808 128.85 25.7984 127.997 29.4934 130.454C30.1566 134.022 30.1381 135.148 30.0468 138.79L28.926 139.157L19.9706 138.712L19.8434 129.376L20.0249 128.747Z" fill="#BE7F61"/>
<path d="M30.0098 98.9388C33.3882 99.3358 36.4546 99.7663 39.0184 97.6163C42.8612 76.7679 35.8354 33.5235 41.1537 11.4657C41.2449 11.0825 46.4257 12.2204 49.432 9.39296C49.32 5.97112 49.075 5.20596 50.3124 2.12689C56.3205 -1.39766 62.2027 -0.151239 68.421 3.02247C69.6665 3.65721 69.7035 7.693 69.8976 9.31794L69.8433 10.6567L68.8532 15.5084L67.4978 20.2182L49.6307 21.9666L49.6204 40.1802C49.6596 64.9652 48.5262 104.013 50.0306 127.682C46.4731 130.158 44.2975 129.621 39.4667 129.498C39.7648 118.968 42.4535 111.624 31.1918 108.054C29.0716 105.173 29.8065 103.854 29.7175 99.6336L30.0098 98.9388Z" fill="#5D2E1F"/>
<path d="M69.8976 9.31794L69.8433 10.6567L68.8532 15.5084L67.4978 20.2182L49.6307 21.9666C49.276 15.9931 48.0062 13.3549 53.6654 10.7824C58.4395 11.3468 65.9808 12.3266 69.8976 9.31794Z" fill="#ECAD7E"/>
<path d="M69.8433 10.6567C73.6977 10.8125 75.5198 10.2493 78.4476 12.0427C79.5429 22.486 78.9062 39.377 78.8069 50.328C83.2783 50.1976 93.8004 49.1763 96.9708 51.2248C96.8796 55.3737 97.4331 56.1838 99.6896 59.4452C106.473 60.6686 120.788 60.1977 128.304 60.118C127.633 65.9657 128.601 65.7049 125.373 69.4557C119.599 71.3172 114.397 68.4389 108.55 70.7852C108.375 78.5302 109.196 82.469 105.046 88.8672L103.351 89.772C98.3354 86.4229 98.9086 79.5885 98.6463 74.0604L98.585 60.0811L78.815 60.3743L78.8057 89.0103L69.2136 89.6659C68.8531 66.4435 70.3066 38.1525 68.8532 15.5084L69.8433 10.6567Z" fill="#5D2E1F"/>
<path d="M157.355 89.6312C161.127 89.4039 164.058 88.7241 167.108 90.6468C168.673 100.883 167.702 154.251 167.707 168.785L157.64 168.74L157.501 158.605L157.555 148.311C157.732 129.094 157.638 109.874 157.275 90.6584L157.355 89.6312Z" fill="#572E1F"/>
<path d="M138.945 69.9589L147.904 69.9842L148.15 79.9381C152.841 80.102 154.146 79.2907 157.225 81.7281C157.759 85.1477 157.642 86.1632 157.355 89.6312L157.275 90.6584C152.885 90.7334 151.817 89.9567 148.89 92.1852C147.246 96.4218 147.593 97.824 144.377 99.8402L137.885 100.222L137.574 99.4709L128.12 99.8714C128.55 89.285 125.958 80.8822 129.52 72.2301C133.113 69.3841 133.402 70.297 138.945 69.9589Z" fill="#663C2F"/>
<path d="M147.904 69.9842L148.15 79.9381C152.841 80.102 154.146 79.2907 157.225 81.7281C157.759 85.1477 157.642 86.1632 157.355 89.6312L157.275 90.6584C152.885 90.7334 151.817 89.9567 148.89 92.1852C147.246 96.4218 147.593 97.824 144.377 99.8402L137.885 100.222L137.574 99.4709L138.412 87.8817C136.813 85.8505 136.98 82.9468 138.803 81.113C140.625 79.2792 143.531 79.0899 145.576 80.6721L147.904 69.9842Z" fill="#BE7F61"/>
<path d="M148.15 79.9381C152.841 80.102 154.146 79.2907 157.225 81.7281C157.759 85.1477 157.642 86.1632 157.355 89.6312C154.137 89.8355 153.048 89.7178 149.841 89.2989C147.297 85.9543 148.213 85.1396 148.15 79.9381Z" fill="#572E1F"/>
<path d="M138.412 87.8817C136.813 85.8505 136.98 82.9468 138.803 81.113C140.625 79.2792 143.531 79.0899 145.576 80.6721C147.143 81.8839 147.87 83.8897 147.442 85.8216C147.016 87.7547 145.512 89.2677 143.58 89.7085C141.648 90.1483 139.635 89.4374 138.412 87.8817Z" fill="#ECAD7E"/>
<path d="M49.6307 21.9666L67.4978 20.2182C68.4649 27.5142 68.2823 33.4774 68.2338 40.7977L49.6204 40.1802L49.6307 21.9666Z" fill="#E8B283"/>
<path d="M19.6355 158.639L29.6147 158.554L29.9982 168.076C32.4107 168.157 37.3385 168.161 39.4667 168.715L39.7441 178.085L39.5049 188.298C36.0745 188.379 34.8486 188.302 31.4564 187.788C28.9168 184.645 29.7186 183.488 29.4656 178.702C29.5592 169.246 29.7325 170.74 21.223 167.46C18.8175 163.971 19.6632 163.736 19.6355 158.639Z" fill="#928A87"/>
<path d="M29.4656 178.702L30.6303 178.175L39.7441 178.085L39.5049 188.298C36.0745 188.379 34.8486 188.302 31.4564 187.788C28.9168 184.645 29.7186 183.488 29.4656 178.702Z" fill="#AD9F9C"/>
<path d="M29.9982 168.076C32.4107 168.157 37.3385 168.161 39.4667 168.715L39.7441 178.085L30.6303 178.175L29.9982 168.076Z" fill="#572E1F"/>
<path d="M30.0468 138.79L39.6932 138.824L39.7187 147.485L39.61 158.407L39.677 168.075L39.4667 168.715C37.3385 168.161 32.4107 168.157 29.9982 168.076L29.6147 158.554C29.1941 153.233 29.3767 145.587 29.3385 140.083L28.926 139.157L30.0468 138.79Z" fill="#7E4A35"/>
<path d="M39.7187 147.485L39.61 158.407C36.6545 158.473 34.9168 158.361 31.9717 158.073C29.5673 154.696 30.4489 154.097 30.4593 149.026L39.7187 147.485Z" fill="#BE7F61"/>
<path d="M30.0468 138.79L39.6932 138.824L39.7187 147.485L30.4593 149.026C30.5749 144.748 30.3992 144.057 29.3385 140.083L28.926 139.157L30.0468 138.79Z" fill="#C47155"/>
<path d="M147.848 168.681L148.215 169.503L147.701 171.164C147.915 176.454 148.477 193.729 147.445 198.102C147.157 194.57 146.975 192.192 146.242 188.662C143.27 186.721 141.985 187.634 137.692 187.978L137.801 178.321C137.654 175.649 137.048 171.481 136.725 168.705L147.848 168.681Z" fill="#C47155"/>
<path d="M147.848 168.681L148.215 169.503L147.701 171.164C145.688 179.026 146.525 178.449 137.801 178.321C137.654 175.649 137.048 171.481 136.725 168.705L147.848 168.681Z" fill="#BE7F61"/>
<path d="M128.392 188.546C128.977 182.059 127.057 177.025 128.726 171.284C131.684 168.082 131.055 169.074 136.725 168.705C137.048 171.481 137.654 175.649 137.801 178.321L137.692 187.978C134.838 188.193 131.185 188.579 128.392 188.546Z" fill="#D79C71"/>
<path d="M69.8931 185.987C73.7717 187.901 103.063 187.575 108.772 187.059C111.591 183.152 107.881 182.342 111.854 178.552C114.759 178.791 115.07 178.684 117.477 180.166C117.763 181.952 118.348 187.215 118.992 188.437C112.018 188.531 72.7873 189.375 69.6227 187.428L69.8931 185.987Z" fill="#D79C71"/>
<path d="M108.55 70.7852L109.09 79.8331L108.781 89.4558C108.962 94.8984 110.282 98.2349 104.598 99.7548C94.741 96.9411 98.2153 82.9607 98.6463 74.0604C98.9086 79.5885 98.3354 86.4229 103.351 89.772L105.046 88.8672C109.196 82.469 108.375 78.5302 108.55 70.7852Z" fill="#9E6145"/>
<path d="M148.646 158.802L157.501 158.605L157.64 168.74C155.007 168.889 150.631 168.976 148.215 169.503L147.848 168.681L148.646 158.802Z" fill="#A86D4C"/>
<path d="M69.2136 89.6659L78.8057 89.0103L78.6184 99.2932L69.3418 99.2908L69.2136 89.6659Z" fill="#985938"/>
<path d="M69.3418 99.2908L78.6184 99.2932L78.4996 105.597C76.3979 108.959 77.5984 107.858 73.7116 109.589L70.8901 108.379C68.3586 104.231 69.1916 104.94 69.3418 99.2908Z" fill="#CB8A58"/>
<path d="M157.555 148.311L157.501 158.605L148.646 158.802C148.684 155.048 148.668 153.127 149.352 149.339C152.57 147.109 152.824 147.974 157.555 148.311Z" fill="#D79C71"/>
<path d="M50.0306 127.682C49.3327 132.512 49.7867 136.08 46.711 138.732C44.391 138.778 42.0086 138.862 39.6932 138.824L39.4667 129.498C44.2975 129.621 46.4731 130.158 50.0306 127.682Z" fill="#C47155"/>
<path d="M39.677 168.075C44.1184 169.219 44.8312 169.131 49.2876 168.759C49.3211 171.707 49.1514 175.574 49.9024 178.324L49.7094 179.113C46.8879 177.889 42.9561 178.149 39.7441 178.085L39.4667 168.715L39.677 168.075Z" fill="#BE7F61"/>
<path d="M137.574 99.4709L137.885 100.222C137.814 105.388 138.539 104.405 136.119 108.394C132.376 110.124 133.986 110.038 130.101 108.732C127.207 104.908 128.124 105.673 128.12 99.8714L137.574 99.4709Z" fill="#9E6145"/>
<path d="M109.09 79.8331C114.38 80.184 113.626 79.3242 117.114 82.1748C118.372 85.6693 118.432 84.1886 116.787 87.697C113.04 89.9555 113.617 89.2631 108.781 89.4558L109.09 79.8331Z" fill="#CB8A58"/>
<path d="M49.2876 168.759C54.0444 169.245 52.7746 168.436 55.2553 171.13C55.2252 173.771 55.2472 175.567 54.8683 178.175L49.9024 178.324C49.1514 175.574 49.3211 171.707 49.2876 168.759Z" fill="#D79C71"/>
</svg>
