<svg width="168" height="174" viewBox="0 0 168 174" fill="none" xmlns="http://www.w3.org/2000/svg">
<path d="M10.7171 0.0449356L108.275 0.0813117C113.313 0.0751462 143.46 -0.234361 146.135 0.396368C147.001 2.09557 146.768 3.54754 146.694 5.43911L146.565 10.8327L152.23 11.234L153.273 10.6588L157.483 10.5472C157.704 13.0214 157.342 13.7613 158.649 15.4814C161.374 15.8107 160.81 15.3162 162.326 17.0037L162.565 20.7067C164.946 22.6581 165.198 20.2597 167.413 22.2542C168.604 48.6979 167.616 83.142 167.604 110.124L167.591 146.823C167.591 152.475 167.843 162.207 167.309 167.521C165.093 169.55 164.296 166.908 162.491 169.408C162.405 171.638 162.817 172.368 161.589 173.603C155.832 174.17 147.387 173.911 141.453 173.909L106.372 173.882C79.6875 173.856 52.9905 173.84 26.3057 174C24.7898 174.009 22.6601 173.898 21.3836 173.027C21.267 171.739 21.1197 170.454 20.954 169.172C18.3641 167.536 17.6154 169.516 15.8049 167.674L15.7312 163.413C13.4727 163.339 13.0369 163.696 11.3492 162.608C11.0178 160.953 10.803 159.5 10.5759 157.842C8.8391 157.944 8.14564 157.9 6.41494 157.713C5.01564 156.023 5.44521 155.559 5.24268 152.877C3.59176 152.867 1.83037 152.631 0.179451 152.457C1.56647 152.243 4.00296 152.202 5.48204 152.13L5.42068 142.348L6.88128 142.122L9.2994 141.757C10.7723 140.504 10.3427 140.542 10.6005 138.157C10.4102 134.014 10.4655 130.255 10.5268 126.117L10.4286 121.532L10.5391 111.631C11.4597 101.371 15.4427 109.155 15.3998 100.886L15.4796 100.476L15.9031 100.359L20.9111 100.539L21.2855 100.395L20.9663 94.3687C20.862 83.811 20.6594 73.1348 20.997 62.5918L20.8865 57.9949L15.5655 58.0343C14.2153 58.0621 11.4597 58.0386 10.2384 58.2372C10.7048 54.3418 10.4593 46.5 10.4348 42.2908L10.4532 38.0705L10.4961 15.6985C12.2636 15.8033 12.9327 15.8841 14.6695 15.5659C15.7619 13.9814 15.4121 13.4863 15.5042 11.2784C14.2215 11.2051 13.2333 11.0497 11.9629 10.8567C10.6373 8.93062 11.1406 8.25057 11.1344 5.40582L10.7171 0.0449356Z" fill="#9D9699"/>
<path d="M10.7171 0.0449356L108.275 0.0813117C113.313 0.0751462 143.46 -0.234361 146.135 0.396368C147.001 2.09557 146.768 3.54754 146.694 5.43911L141.269 5.40335L141.465 10.8906L141.569 13.5147L141.809 15.347C143.601 16.5074 144.491 16.127 146.909 16.2102C149.419 20.0162 146.946 37.1728 146.725 42.5947L146.719 58.1225L146.786 63.5006L141.753 63.5043C141.852 61.6054 142.024 60.7928 141.41 58.9739C139.335 57.8204 139.029 58.3155 136.212 58.5115L136.242 62.2003L136.273 89.7705L136.347 94.9446L130.737 94.96L130.983 94.2923C130.94 92.6226 131.087 91.8242 130.154 90.453C127.22 89.1207 123.244 89.6891 119.764 89.7538L110.091 89.9123C107.452 90.1411 106.998 89.7156 105.323 91.1164C105.274 92.4926 105.218 93.5376 105.317 94.9094C102.561 94.9501 101.855 94.4858 99.9158 95.7652C99.4064 97.6555 99.4678 98.3054 99.4985 100.228C96.7122 100.271 96.0493 99.7993 94.11 101.104C93.662 102.912 93.7725 103.378 93.9689 105.246C91.3053 105.382 91.2562 104.959 89.4028 106.271C89.4089 107.625 89.3843 108.224 89.2063 109.565C85.573 112.164 84.3273 107.871 82.3511 115.58C80.5775 116.281 75.0415 116.366 73.4152 115.336C73.0469 113.701 73.09 113.185 73.1329 111.5L72.3288 110.53L68.7816 110.405C65.6823 106.74 70.4938 104.657 62.8284 105.541C62.9757 103.562 63.2028 102.452 62.4295 100.585C60.5331 99.4719 60.5208 99.8936 57.9186 100.02C57.7652 98.2443 57.7652 97.7271 57.2128 96.0581C54.2424 93.8181 45.816 95.0851 40.8693 94.833C36.2173 95.0851 30.5465 94.9964 25.8147 95.0475C23.8938 95.0407 22.7584 95.169 20.9663 94.3687C20.862 83.811 20.6594 73.1348 20.997 62.5918L20.8865 57.9949L15.5655 58.0343C14.2153 58.0621 11.4597 58.0386 10.2384 58.2372C10.7048 54.3418 10.4593 46.5 10.4348 42.2908L10.4532 38.0705L10.4961 15.6985C12.2636 15.8033 12.9327 15.8841 14.6695 15.5659C15.7619 13.9814 15.4121 13.4863 15.5042 11.2784C14.2215 11.2051 13.2333 11.0497 11.9629 10.8567C10.6373 8.93062 11.1406 8.25057 11.1344 5.40582L10.7171 0.0449356Z" fill="#CB8B5F"/>
<path d="M99.5046 21.3781C102.168 21.3245 102.53 20.8898 104.543 22.0132C105.194 23.7715 105.004 24.8277 104.93 26.6958L104.875 31.7793L104.893 38.5625L104.985 42.3173L104.893 48.5956C102.579 49.111 102.193 49.2054 99.7624 49.005L99.4248 46.1115C99.4064 49.7362 99.437 53.3609 99.5107 56.985C98.3201 56.874 97.3749 56.7451 96.1905 56.5454C94.3922 54.3647 94.6623 50.854 94.4537 47.7972C94.245 44.0825 94.5089 41.1348 94.0731 37.1784C94.38 33.722 94.4353 30.0418 94.5581 26.5589L94.9324 26.4535C94.601 25.3148 94.6072 22.819 94.5581 21.5273L99.5046 21.3781Z" fill="#582C1C"/>
<path d="M94.9324 26.4535L99.5292 26.3974C99.5292 32.5197 99.7378 40.1045 99.4248 46.1115C99.4064 49.7362 99.437 53.3609 99.5107 56.985C98.3201 56.874 97.3749 56.7451 96.1905 56.5454C94.3922 54.3647 94.6623 50.854 94.4537 47.7972C94.245 44.0825 94.5089 41.1348 94.0731 37.1784C94.38 33.722 94.4353 30.0418 94.5581 26.5589L94.9324 26.4535Z" fill="#D79868"/>
<path d="M94.5581 21.5273L99.5046 21.3781L99.5292 26.3974L94.9324 26.4535C94.601 25.3148 94.6072 22.819 94.5581 21.5273Z" fill="#EBAF7E"/>
<path d="M10.7171 0.0449356L108.275 0.0813117C113.313 0.0751462 143.46 -0.234361 146.135 0.396368C147.001 2.09557 146.768 3.54754 146.694 5.43911L141.269 5.40335L141.465 10.8906L141.569 13.5147L141.809 15.347C143.601 16.5074 144.491 16.127 146.909 16.2102C149.419 20.0162 146.946 37.1728 146.725 42.5947L146.719 58.1225L146.786 63.5006L141.753 63.5043C141.852 61.6054 142.024 60.7928 141.41 58.9739C139.335 57.8204 139.029 58.3155 136.212 58.5115L135.745 58.4338L135.825 57.9073L132.32 58.0411C123.759 57.6891 113.08 57.9708 104.372 57.948C101.733 57.8364 101.346 58.26 99.5107 56.985C99.437 53.3609 99.4064 49.7362 99.4248 46.1115L99.7624 49.005C102.193 49.2054 102.579 49.111 104.893 48.5956L104.985 42.3173L104.893 38.5625L104.875 31.7793L104.93 26.6958C105.004 24.8277 105.194 23.7715 104.543 22.0132C102.53 20.8898 102.168 21.3245 99.5046 21.3781L94.5581 21.5273C84.2659 21.2289 73.1267 21.4706 62.7732 21.5125L57.618 21.367C54.801 21.4139 54.5923 20.9564 52.5977 22.2746C52.1865 24.1982 52.2049 24.6828 52.2663 26.6582L52.2111 31.8878L52.2785 36.9231C41.6242 36.9133 30.2213 36.552 19.6406 37.8097C16.081 38.2333 14.8843 38.9411 11.0976 38.1531L10.4532 38.0705L10.4961 15.6985C12.2636 15.8033 12.9327 15.8841 14.6695 15.5659C15.7619 13.9814 15.4121 13.4863 15.5042 11.2784C14.2215 11.2051 13.2333 11.0497 11.9629 10.8567C10.6373 8.93062 11.1406 8.25057 11.1344 5.40582L10.7171 0.0449356Z" fill="#A46540"/>
<path d="M10.7171 0.0449356L108.275 0.0813117C113.313 0.0751462 143.46 -0.234361 146.135 0.396368C147.001 2.09557 146.768 3.54754 146.694 5.43911L141.269 5.40335L141.465 10.8906L140.79 10.9554C135.819 9.97012 19.8309 10.0614 16.0258 10.951L15.5042 11.2784C14.2215 11.2051 13.2333 11.0497 11.9629 10.8567C10.6373 8.93062 11.1406 8.25057 11.1344 5.40582L10.7171 0.0449356Z" fill="#59321E"/>
<path d="M11.1344 5.40582L141.269 5.40335L141.465 10.8906L140.79 10.9554C135.819 9.97012 19.8309 10.0614 16.0258 10.951L15.5042 11.2784C14.2215 11.2051 13.2333 11.0497 11.9629 10.8567C10.6373 8.93062 11.1406 8.25057 11.1344 5.40582Z" fill="#EBAF7E"/>
<path d="M104.985 42.3173C110.951 42.3783 121.353 43.0707 126.478 40.8185C129.614 39.4393 132.701 38.9386 136.175 39.4584C136.868 40.5873 136.819 40.71 136.88 42.0762C138.36 43.1355 144.478 42.6379 146.725 42.5947L146.719 58.1225L146.786 63.5006L141.753 63.5043C141.852 61.6054 142.024 60.7928 141.41 58.9739C139.335 57.8204 139.029 58.3155 136.212 58.5115L135.745 58.4338L135.825 57.9073L132.32 58.0411C123.759 57.6891 113.08 57.9708 104.372 57.948C101.733 57.8364 101.346 58.26 99.5107 56.985C99.437 53.3609 99.4064 49.7362 99.4248 46.1115L99.7624 49.005C102.193 49.2054 102.579 49.111 104.893 48.5956L104.985 42.3173Z" fill="#9E613D"/>
<path d="M99.4248 46.1115L99.7624 49.005C102.193 49.2054 102.579 49.111 104.893 48.5956C104.961 50.9107 104.555 51.0112 105.844 52.4349C114.13 54.9596 133.186 49.6345 136.279 54.7161L136.156 57.739L135.825 57.9073L132.32 58.0411C123.759 57.6891 113.08 57.9708 104.372 57.948C101.733 57.8364 101.346 58.26 99.5107 56.985C99.437 53.3609 99.4064 49.7362 99.4248 46.1115Z" fill="#582C1C"/>
<path d="M99.4248 46.1115L99.7624 49.005C100.29 55.71 102.383 50.899 104.451 54.9664L104.372 57.948C101.733 57.8364 101.346 58.26 99.5107 56.985C99.437 53.3609 99.4064 49.7362 99.4248 46.1115Z" fill="#8E5334"/>
<path d="M135.825 57.9073L136.156 57.739L146.719 58.1225L146.786 63.5006L141.753 63.5043C141.852 61.6054 142.024 60.7928 141.41 58.9739C139.335 57.8204 139.029 58.3155 136.212 58.5115L135.745 58.4338L135.825 57.9073Z" fill="#814A32"/>
<path d="M146.909 16.2102C149.419 20.0162 146.946 37.1728 146.725 42.5947C144.478 42.6379 138.36 43.1355 136.88 42.0762C136.819 40.71 136.868 40.5873 136.175 39.4584C132.701 38.9386 129.614 39.4393 126.478 40.8185C121.353 43.0707 110.951 42.3783 104.985 42.3173L104.893 38.5625L104.875 31.7793L104.93 26.6958C113.412 27.0867 128.466 25.9997 135.395 26.9616C139.194 27.0448 142.993 27.0541 146.786 26.9893C146.682 23.5317 146.412 19.5914 146.909 16.2102Z" fill="#9E613D"/>
<path d="M104.93 26.6958C113.412 27.0867 128.466 25.9997 135.395 26.9616C139.194 27.0448 142.993 27.0541 146.786 26.9893L146.89 29.3735L146.639 32.0912L104.875 31.7793L104.93 26.6958Z" fill="#814A32"/>
<path d="M135.395 26.9616C139.194 27.0448 142.993 27.0541 146.786 26.9893L146.89 29.3735C144.092 29.4715 139.728 29.8747 137.144 29.1824C136.027 28.8809 136.052 28.252 135.395 26.9616Z" fill="#8E5334"/>
<path d="M146.909 16.2102C149.419 20.0162 146.946 37.1728 146.725 42.5947C144.478 42.6379 138.36 43.1355 136.88 42.0762C136.819 40.71 136.868 40.5873 136.175 39.4584C132.701 38.9386 129.614 39.4393 126.478 40.8185C121.353 43.0707 110.951 42.3783 104.985 42.3173L104.893 38.5625C114.848 39.1452 118.223 37.7271 127.601 37.0674C132.996 36.6876 140.176 37.1457 146 36.9096C146.835 35.5655 146.577 33.9057 146.639 32.0912L146.89 29.3735L146.786 26.9893C146.682 23.5317 146.412 19.5914 146.909 16.2102Z" fill="#B57A54"/>
<path d="M57.618 21.367C57.6118 19.8281 57.36 17.365 58.1456 16.2108C62.2883 15.6362 95.6074 15.6282 98.9399 16.3569C99.7807 18.1307 99.5721 19.4391 99.5046 21.3781L94.5581 21.5273C84.2659 21.2289 73.1267 21.4706 62.7732 21.5125L57.618 21.367Z" fill="#582C1C"/>
<path d="M11.0669 31.8902C24.7837 31.9821 38.5004 31.9809 52.2111 31.8878L52.2785 36.9231C41.6242 36.9133 30.2213 36.552 19.6406 37.8097C16.081 38.2333 14.8843 38.9411 11.0976 38.1531C11.1774 36.0544 11.1099 33.989 11.0669 31.8902Z" fill="#9E613D"/>
<path d="M41.5751 26.509C45.4416 26.8173 48.4121 26.7415 52.2663 26.6582L52.2111 31.8878C38.5004 31.9809 24.7837 31.9821 11.0669 31.8902C10.9564 29.8328 10.9871 29.3932 11.3676 27.3679C13.6445 25.6779 34.4927 27.0713 40.1083 26.5559L41.5751 26.509Z" fill="#814A32"/>
<path d="M16.0258 10.951C19.8309 10.0614 135.819 9.97012 140.79 10.9554C136.923 11.5164 128.466 10.3974 125.876 11.7193C125.864 13.162 125.809 13.9863 125.625 15.4167C123.79 16.3243 124.44 16.0487 121.949 15.8329C119.481 13.9894 121.427 14.8538 119.936 11.4172C115.241 10.4664 90.3663 11.2353 83.3576 11.115C72.1141 10.9214 58.606 11.2445 47.1171 11.0417C45.3005 11.0096 43.4408 11.3265 42.1766 12.7101C42.6 13.7175 42.9069 14.2471 43.1033 15.3242C41.299 16.331 39.9794 15.9334 37.9603 15.6849C35.8981 13.3574 38.3531 14.2699 37.0336 11.4628C31.688 10.6409 22.2735 11.2038 16.0258 10.951Z" fill="#C5865B"/>
<path d="M40.1083 26.5559C37.9296 26.4486 34.1552 26.435 32.2834 25.681C32.8909 22.2092 38.4329 22.2672 41.0044 24.3634L41.5751 26.509L40.1083 26.5559Z" fill="#B57A54"/>
<path d="M11.0976 38.1531C14.8843 38.9411 16.081 38.2333 19.6406 37.8097C30.2213 36.552 41.6242 36.9133 52.2785 36.9231L52.2111 39.967L52.432 50.6838C53.4263 53.6729 54.6843 53.0372 57.6793 52.7881L57.6425 57.8179L52.2233 57.9875C43.2997 57.9418 34.3701 57.9653 25.4404 58.0577L21.7212 58.0208L20.8865 57.9949L15.5655 58.0343C14.2153 58.0621 11.4597 58.0386 10.2384 58.2372C10.7048 54.3418 10.4593 46.5 10.4348 42.2908L10.4532 38.0705L11.0976 38.1531Z" fill="#9E613D"/>
<path d="M52.432 50.6838C53.4263 53.6729 54.6843 53.0372 57.6793 52.7881L57.6425 57.8179L52.2233 57.9875C43.2997 57.9418 34.3701 57.9653 25.4404 58.0577L21.7212 58.0208L20.8865 57.9949C20.862 56.1945 20.8313 55.6884 21.2547 53.9491C23.6237 52.1852 26.4469 52.8103 29.7671 52.8775C36.0271 51.8183 46.8962 53.1988 51.7323 52.0964L52.432 50.6838Z" fill="#582C1C"/>
<path d="M52.432 50.6838C53.4263 53.6729 54.6843 53.0372 57.6793 52.7881L57.6425 57.8179L52.2233 57.9875C52.2908 55.9288 52.3215 55.4072 51.8919 53.3313C48.5778 52.7209 34.0386 52.9491 29.7671 52.8775C36.0271 51.8183 46.8962 53.1988 51.7323 52.0964L52.432 50.6838Z" fill="#814A32"/>
<path d="M11.0976 38.1531C14.8843 38.9411 16.081 38.2333 19.6406 37.8097C30.2213 36.552 41.6242 36.9133 52.2785 36.9231L52.2111 39.967C44.2817 39.9738 28.288 39.3831 21.1381 40.0237C20.5121 40.9214 20.5305 40.8487 20.3341 41.9252C18.3456 42.7353 12.8651 42.3475 10.4348 42.2908L10.4532 38.0705L11.0976 38.1531Z" fill="#B57A54"/>
<path d="M52.2663 26.6582C52.2049 24.6828 52.1865 24.1982 52.5977 22.2746C54.5923 20.9564 54.801 21.4139 57.618 21.367L62.7732 21.5125C73.1267 21.4706 84.2659 21.2289 94.5581 21.5273C94.6072 22.819 94.601 25.3148 94.9324 26.4535L94.5581 26.5589C91.5754 26.2901 87.1074 26.4375 84.0142 26.4449L73.2004 26.4646C73.2065 29.0566 73.6055 29.466 72.5253 31.455C63.3072 31.3878 72.8322 36.7881 63.3747 37.446L62.6689 37.5539L62.675 47.6172C62.7118 50.6382 63.2703 54.906 61.9386 57.1767C60.4472 58.1361 59.4468 57.8876 57.6425 57.8179L57.6793 52.7881C54.6843 53.0372 53.4263 53.6729 52.432 50.6838L52.2111 39.967L52.2785 36.9231L52.2111 31.8878L52.2663 26.6582Z" fill="#D79868"/>
<path d="M52.2663 26.6582C52.2049 24.6828 52.1865 24.1982 52.5977 22.2746C54.5923 20.9564 54.801 21.4139 57.618 21.367L57.6731 26.3876L57.6793 52.7881C54.6843 53.0372 53.4263 53.6729 52.432 50.6838L52.2111 39.967L52.2785 36.9231L52.2111 31.8878L52.2663 26.6582Z" fill="#582C1C"/>
<path d="M62.5707 26.3888L73.2004 26.4646C73.2065 29.0566 73.6055 29.466 72.5253 31.455C63.3072 31.3878 72.8322 36.7881 63.3747 37.446L62.6689 37.5539L62.5707 26.3888Z" fill="#C5865B"/>
<path d="M57.618 21.367L62.7732 21.5125C62.6197 24.1926 63.0555 24.3986 61.7115 26.1792C60.1096 26.3617 59.2749 26.4233 57.6731 26.3876L57.618 21.367Z" fill="#EFBF7A"/>
<path d="M84.0142 26.4449C87.1074 26.4375 91.5754 26.2901 94.5581 26.5589C94.4353 30.0418 94.38 33.722 94.0731 37.1784C94.5089 41.1348 94.245 44.0825 94.4537 47.7972C93.1648 47.849 91.5385 47.7892 90.2252 47.7805C88.4822 45.9962 90.4094 45.117 88.562 42.6034C81.2649 43.4252 85.5854 40.3228 83.4128 37.4293C80.068 35.7005 77.7972 36.4212 74.3173 37.5341C72.6173 39.2389 73.1513 38.8967 73.0224 42.0072C69.0087 40.9769 68.3766 42.6034 64.6452 41.9535C63.0372 40.1606 63.5404 40.4381 63.3747 37.446C72.8322 36.7881 63.3072 31.3878 72.5253 31.455C73.6055 29.466 73.2065 29.0566 73.2004 26.4646L84.0142 26.4449Z" fill="#582C1C"/>
<path d="M84.0142 26.4449C87.1074 26.4375 91.5754 26.2901 94.5581 26.5589C94.4353 30.0418 94.38 33.722 94.0731 37.1784C86.8496 37.4047 90.7836 36.8806 88.5864 32.5882C86.4445 31.1313 87.445 31.4741 84.7262 31.418C83.7012 30.0301 83.9958 28.2915 84.0142 26.4449Z" fill="#C5865B"/>
<path d="M26.1093 63.3551C30.9147 63.1689 32.5534 63.6048 36.8372 63.685C40.5809 63.3422 43.6065 63.3089 47.3441 63.2836C47.4055 65.2467 47.7063 66.6099 46.6139 68.1432C45.1593 68.4669 44.8893 68.401 43.3795 68.298L42.1582 69.282C42.0846 70.6483 41.9925 72.0133 41.8759 73.3759C38.2672 75.8544 35.8368 71.5417 36.9845 78.7824C39.0405 80.3336 40.0162 78.4667 41.9679 80.0118C41.9986 81.4927 42.0293 82.3362 42.2319 83.8005C45.3557 85.4676 45.638 84.06 47.6939 86.554C47.7799 88.0793 47.4976 89.2403 45.8651 89.9826C43.0726 89.5781 41.5567 90.104 38.3469 89.5035C36.4137 87.9683 36.9906 88.3907 36.4812 85.2993C35.4134 84.0983 34.3332 84.4799 32.2343 84.3609C30.9823 82.9872 31.3321 82.3997 31.1112 80.1801C29.3068 78.431 30.0739 78.9137 27.2324 78.664C26.0049 76.9666 26.3057 76.249 26.0479 73.9104L26.1093 63.3551Z" fill="#582C1C"/>
<path d="M26.1093 63.3551C30.9147 63.1689 32.5534 63.6048 36.8372 63.685C36.7942 65.8534 37.144 66.5427 36.1252 68.1537C33.0934 68.1457 34.014 67.7382 31.6941 69.3307C29.8407 73.1774 32.4491 72.2606 30.1783 73.7742C28.7054 73.8802 27.527 73.9123 26.0479 73.9104L26.1093 63.3551Z" fill="#CB8B5F"/>
<path d="M136.242 62.2003L136.273 89.7705L136.347 94.9446L130.737 94.96L130.983 94.2923C130.94 92.6226 131.087 91.8242 130.154 90.453C127.22 89.1207 123.244 89.6891 119.764 89.7538C120.482 88.7483 120.199 86.2716 120.445 85.3116C120.862 83.6482 125.398 85.1556 125.729 83.4848C126.128 81.4804 125.036 80.8244 126.643 79.2541C128.331 79.2584 129.025 79.3749 130.596 78.7584L131.375 76.4186C131.007 74.4364 130.694 74.1996 128.552 74.2088C124.937 74.2249 125.925 72.4949 125.484 69.2734C123.943 68.0286 123.385 68.0841 121.476 68.0958L120.911 68.1038C119.948 66.6093 120.242 65.0365 120.291 63.1689C124.526 62.8773 133.708 63.931 135.524 62.8903L136.242 62.2003Z" fill="#CB8B5F"/>
<path d="M136.273 89.7705L136.347 94.9446L130.737 94.96L130.983 94.2923L131.535 90.8569C132.996 89.4499 133.744 89.9031 136.273 89.7705Z" fill="#A2714E"/>
<path d="M20.8865 57.9949L21.7212 58.0208L21.5984 58.5756C21.4327 61.1947 21.0215 61.0794 22.1262 62.9753C23.5193 63.2879 24.1699 63.4291 25.5815 63.5426L26.1093 63.3551L26.0479 73.9104C26.3057 76.249 26.0049 76.9666 27.2324 78.664C30.0739 78.9137 29.3068 78.431 31.1112 80.1801C31.3321 82.3997 30.9823 82.9872 32.2343 84.3609C34.3332 84.4799 35.4134 84.0983 36.4812 85.2993C36.9906 88.3907 36.4137 87.9683 38.3469 89.5035C41.5567 90.104 43.0726 89.5781 45.8651 89.9826C42.0354 92.307 30.9147 88.3722 27.349 91.7885C26.9316 93.3674 26.7904 92.9414 27.2937 94.1856C30.5832 94.2115 38.0708 94.053 40.8693 94.833C36.2173 95.0851 30.5465 94.9964 25.8147 95.0475C23.8938 95.0407 22.7584 95.169 20.9663 94.3687C20.862 83.811 20.6594 73.1348 20.997 62.5918L20.8865 57.9949Z" fill="#D79868"/>
<path d="M26.2995 89.2674C26.2013 85.3055 25.3667 77.3668 26.0479 73.9104C26.3057 76.249 26.0049 76.9666 27.2324 78.664C30.0739 78.9137 29.3068 78.431 31.1112 80.1801C31.3321 82.3997 30.9823 82.9872 32.2343 84.3609C34.3332 84.4799 35.4134 84.0983 36.4812 85.2993L35.1434 88.4203C32.6148 89.9234 29.4664 89.3328 26.2995 89.2674Z" fill="#C5865B"/>
<path d="M20.997 62.5918C22.2367 70.0132 20.6041 80.2683 21.9236 88.9098C25.9496 91.4124 26.2014 89.6065 25.8147 95.0475C23.8938 95.0407 22.7584 95.169 20.9663 94.3687C20.862 83.811 20.6594 73.1348 20.997 62.5918Z" fill="#A2714E"/>
<path d="M110.091 89.9123C109.969 88.0855 109.6 86.4652 110.496 84.988C112.534 84.9528 113.393 85.1082 115.013 83.7955C115.179 82.4607 115.32 81.1222 115.425 79.7812C116.836 78.664 117.045 79.0716 119.224 79.1702L120.193 78.2152C120.445 76.4395 120.623 75.9056 120.034 74.2372C118.444 73.7865 118.101 73.8365 116.48 73.8476L115.983 73.8537C114.958 72.5793 115.351 71.6039 115.339 69.5891C113.86 67.8504 113 68.7462 110.018 67.7018C109.318 65.8213 109.465 66.5809 110.122 64.1542C112.006 63.1381 117.573 63.3453 120.291 63.1689C120.242 65.0365 119.948 66.6093 120.911 68.1038L121.476 68.0958C123.385 68.0841 123.943 68.0286 125.484 69.2734C125.925 72.4949 124.937 74.2249 128.552 74.2088C130.694 74.1996 131.007 74.4364 131.375 76.4186L130.596 78.7584C129.025 79.3749 128.331 79.2584 126.643 79.2541C125.036 80.8244 126.128 81.4804 125.729 83.4848C125.398 85.1556 120.862 83.6482 120.445 85.3116C120.199 86.2716 120.482 88.7483 119.764 89.7538L110.091 89.9123Z" fill="#582C1C"/>
<path d="M21.7212 58.0208L25.4404 58.0577C31.3137 59.4579 55.4944 57.0916 58.066 60.7317L57.0779 60.0215L57.5136 61.2724C53.6901 63.3237 51.8182 62.9168 47.3441 63.2836C43.6065 63.3089 40.5809 63.3422 36.8372 63.685C32.5534 63.6048 30.9147 63.1689 26.1093 63.3551L25.5815 63.5426C24.1699 63.4291 23.5193 63.2879 22.1262 62.9753C21.0215 61.0794 21.4327 61.1947 21.5984 58.5756L21.7212 58.0208Z" fill="#D79868"/>
<path d="M21.5984 58.5756C24.1637 58.6539 24.3172 58.2322 26.0602 59.4838C26.3793 61.3273 26.1584 61.7398 25.5815 63.5426C24.1699 63.4291 23.5193 63.2879 22.1262 62.9753C21.0215 61.0794 21.4327 61.1947 21.5984 58.5756Z" fill="#EFBF7A"/>
<path d="M135.825 57.9073L135.745 58.4338L136.212 58.5115L136.242 62.2003L135.524 62.8903C133.708 63.931 124.526 62.8773 120.291 63.1689C113.909 61.8884 106.728 64.5155 100.929 62.4279C99.4003 60.9808 99.7869 61.7268 99.4985 59.6145C99.7562 59.3013 100.02 58.9881 100.278 58.6749C107.182 58.2175 126.594 59.498 132.32 58.0411L135.825 57.9073Z" fill="#D79868"/>
<path d="M135.745 58.4338L136.212 58.5115L136.242 62.2003L135.524 62.8903C132.916 63.0586 132.351 63.119 131.185 60.9426L131.602 59.6632C133.376 58.1934 133.045 58.6373 135.745 58.4338Z" fill="#EFBF7A"/>
<path d="M62.6689 37.5539L63.3747 37.446C63.5404 40.4381 63.0372 40.1606 64.6452 41.9535C68.3766 42.6034 69.0087 40.9769 73.0224 42.0072C68.8737 42.7076 68.1249 42.4813 67.3516 47.0542C65.9216 47.9562 64.4425 47.6739 62.675 47.6172L62.6689 37.5539Z" fill="#713F28"/>
<path d="M68.0328 78.8212C67.9898 77.0431 67.7873 75.8378 68.5299 74.2471C73.1635 74.4616 73.2003 72.3037 74.348 69.0348C76.6003 68.1266 81.4059 68.6007 84.0388 68.6981L84.898 74.1151C86.0027 73.2631 87.5738 73.3814 88.5373 74.3901C89.507 75.3994 89.5684 76.9771 88.6785 78.0573C88.6417 80.8262 89.0712 81.687 87.8929 83.7986C86.3708 84.1988 85.6774 84.3356 84.1124 84.5058L84.008 87.8721C81.5777 90.9222 76.9931 90.9463 73.8263 88.7014C72.8873 88.0362 73.1451 85.7734 73.1083 84.5884C71.574 84.5175 70.5552 84.3991 69.0331 84.171C67.6645 82.3134 68.131 81.6241 68.0328 78.8212Z" fill="#764530"/>
<path d="M68.0328 78.8212C67.9898 77.0431 67.7873 75.8378 68.5299 74.2471C73.1635 74.4616 73.2003 72.3037 74.348 69.0348C76.6003 68.1266 81.4059 68.6007 84.0388 68.6981C83.6644 71.7174 84.1553 71.821 82.4798 73.7014C79.5953 74.6484 74.9924 72.5941 73.0715 74.7021C73.0592 77.0542 73.4642 77.1171 72.2122 78.6572C70.3527 79.0598 69.9415 78.9945 68.0328 78.8212Z" fill="#582C1C"/>
<path d="M73.1083 84.5884C77.3982 84.7943 79.8164 84.9164 84.1124 84.5058L84.008 87.8721C81.5777 90.9222 76.9931 90.9463 73.8263 88.7014C72.8873 88.0362 73.1451 85.7734 73.1083 84.5884Z" fill="#8E5334"/>
<path d="M84.898 74.1151C86.0027 73.2631 87.5738 73.3814 88.5373 74.3901C89.507 75.3994 89.5684 76.9771 88.6785 78.0573C88.0096 78.8736 86.9294 79.2306 85.9045 78.9766C84.8857 78.7226 84.094 77.9014 83.8792 76.8649C83.6644 75.8279 84.0633 74.7594 84.898 74.1151Z" fill="#713F28"/>
<path d="M110.091 89.9123L119.764 89.7538C123.244 89.6891 127.22 89.1207 130.154 90.453C131.087 91.8242 130.94 92.6226 130.983 94.2923L130.737 94.96L136.347 94.9446L136.359 100.395C138.317 100.477 138.906 100.48 140.833 100.167C142.06 98.3855 141.618 98.1876 141.618 95.563L146.7 95.5149L146.651 101.004L146.626 105.369C146.731 110.589 146.933 116.116 146.804 121.309L146.706 126.091L146.694 132.796L146.596 138.091L146.694 142.378C146.577 143.787 146.461 146.206 146.215 147.507C105.574 147.244 63.0984 146.923 22.4575 147.441C17.2041 148.783 10.8889 146.025 9.70439 151.582C8.01051 152.36 7.33548 152.193 5.48204 152.13L5.42068 142.348L6.88128 142.122L9.2994 141.757C10.7723 140.504 10.3427 140.542 10.6005 138.157C10.4102 134.014 10.4655 130.255 10.5268 126.117L10.4286 121.532L10.5391 111.631C11.4597 101.371 15.4427 109.155 15.3998 100.886L15.4796 100.476L15.9031 100.359L20.9111 100.539L21.2855 100.395L20.9663 94.3687C22.7584 95.169 23.8938 95.0407 25.8147 95.0475C30.5465 94.9964 36.2173 95.0851 40.8693 94.833C45.816 95.0851 54.2424 93.8181 57.2128 96.0581C57.7652 97.7271 57.7652 98.2443 57.9186 100.02C60.5208 99.8936 60.5331 99.4719 62.4295 100.585C63.2028 102.452 62.9757 103.562 62.8284 105.541C70.4938 104.657 65.6823 106.74 68.7816 110.405L72.3288 110.53L73.1329 111.5C73.09 113.185 73.0469 113.701 73.4152 115.336C75.0415 116.366 80.5775 116.281 82.3511 115.58C84.3273 107.871 85.573 112.164 89.2063 109.565C89.3843 108.224 89.4089 107.625 89.4028 106.271C91.2562 104.959 91.3053 105.382 93.9689 105.246C93.7725 103.378 93.662 102.912 94.11 101.104C96.0493 99.7993 96.7122 100.271 99.4985 100.228C99.4678 98.3054 99.4064 97.6555 99.9158 95.7652C101.855 94.4858 102.561 94.9501 105.317 94.9094C105.218 93.5376 105.274 92.4926 105.323 91.1164C106.998 89.7156 107.452 90.1411 110.091 89.9123Z" fill="#582C1C"/>
<path d="M135.543 126.314L146.706 126.091L146.694 132.796L146.596 138.091L146.694 142.378C146.577 143.787 146.461 146.206 146.215 147.507C105.574 147.244 63.0984 146.923 22.4575 147.441C17.2041 148.783 10.8889 146.025 9.70439 151.582C8.01051 152.36 7.33548 152.193 5.48204 152.13L5.42068 142.348L6.88128 142.122L9.2994 141.757C10.7723 140.504 10.3427 140.542 10.6005 138.157C10.4102 134.014 10.4655 130.255 10.5268 126.117L10.8337 126.402C24.6302 126.546 38.5372 126.039 52.2785 126.334C52.2049 128.893 51.5727 135.062 53.5366 136.288C57.403 138.7 57.8389 135.841 57.667 142.364C71.6108 142.278 85.5608 142.31 99.5046 142.463C99.3266 136.498 99.2775 138.568 103.629 136.285C105.642 135.229 104.948 128.279 104.881 126.192C115.099 126.307 125.318 126.348 135.543 126.314Z" fill="#CB8B5F"/>
<path d="M10.5268 126.117L10.8337 126.402C24.6302 126.546 38.5372 126.039 52.2785 126.334C52.2049 128.893 51.5727 135.062 53.5366 136.288C57.403 138.7 57.8389 135.841 57.667 142.364C43.7784 142.539 29.8898 142.492 16.0074 142.222L15.6208 138.591C14.5467 137.798 12.0918 138.117 10.6005 138.157C10.4102 134.014 10.4655 130.255 10.5268 126.117Z" fill="#A46540"/>
<path d="M10.5268 126.117L10.8337 126.402C10.7784 128.39 10.4655 129.953 11.5272 131.521C13.1658 132.397 13.8163 132.244 15.6514 132.136C15.6943 134.861 15.2218 135.008 16.5781 136.704C18.094 136.985 19.3399 137.19 20.8619 137.364C19.0637 137.547 16.8605 137.483 15.6208 138.591C14.5467 137.798 12.0918 138.117 10.6005 138.157C10.4102 134.014 10.4655 130.255 10.5268 126.117Z" fill="#A2714E"/>
<path d="M15.6514 132.136C18.4684 132.02 18.8182 131.499 20.6594 132.804C20.9233 134.706 20.9294 135.441 20.8619 137.364C19.3399 137.19 18.094 136.985 16.5781 136.704C15.2218 135.008 15.6943 134.861 15.6514 132.136Z" fill="#B57A54"/>
<path d="M36.5426 132.67C34.591 130.844 24.2927 132.924 21.5862 130.863L22.2735 130.108C26.1768 129.247 31.0743 129.564 35.1126 129.72C36.8065 129.785 37.0152 130.659 37.899 131.939L36.5426 132.67Z" fill="#B57A54"/>
<path d="M37.899 131.939C40.7835 131.967 40.5932 131.482 42.373 132.954C42.7413 134.844 42.8333 134.043 41.6611 136.041C39.6174 137.197 40.4828 137.042 38.347 136.841C36.4874 135.401 36.7145 135.162 36.5426 132.67L37.899 131.939Z" fill="#CB8B5F"/>
<path d="M135.543 126.314L146.706 126.091L146.694 132.796L146.596 138.091C144.435 137.793 143.785 137.309 142.116 138.139C141.643 139.551 141.44 140.409 141.14 141.868L141.109 142.339L99.5046 142.463C99.3266 136.498 99.2775 138.568 103.629 136.285C105.642 135.229 104.948 128.279 104.881 126.192C115.099 126.307 125.318 126.348 135.543 126.314Z" fill="#A46540"/>
<path d="M135.543 126.314L146.706 126.091L146.694 132.796C143.134 132.796 140.121 132.624 136.586 132.39L136.353 131.825L136.181 131.115C136.273 129.013 136.027 128.292 135.543 126.314Z" fill="#92593B"/>
<path d="M136.586 132.39C140.121 132.624 143.134 132.796 146.694 132.796L146.596 138.091C144.435 137.793 143.785 137.309 142.116 138.139C141.643 139.551 141.44 140.409 141.14 141.868L141.097 138.483C140.023 136.853 139.084 136.999 136.856 136.228C135.923 134.566 136.297 134.579 136.586 132.39Z" fill="#A2714E"/>
<path d="M136.353 131.825C132.548 132.072 124.723 132.144 121.194 131.177C125.238 130.761 132.314 130.136 136.181 131.115L136.353 131.825Z" fill="#B57A54"/>
<path d="M5.42068 142.348L6.88128 142.122C9.17661 142.46 9.15816 142.055 10.5022 143.517L10.9012 147.469C14.6326 147.455 18.7629 147.352 22.4575 147.441C17.2041 148.783 10.8889 146.025 9.70439 151.582C8.01051 152.36 7.33548 152.193 5.48204 152.13L5.42068 142.348Z" fill="#8E5334"/>
<path d="M146.596 138.091L146.694 142.378C146.577 143.787 146.461 146.206 146.215 147.507L145.687 143.307C144.098 142.106 143.417 142.474 141.109 142.339L141.14 141.868C141.44 140.409 141.643 139.551 142.116 138.139C143.785 137.309 144.435 137.793 146.596 138.091Z" fill="#C5865B"/>
<path d="M10.6005 138.157C12.0918 138.117 14.5467 137.798 15.6208 138.591L16.0074 142.222C13.5402 142.201 13.0616 141.751 11.3861 142.972C11.0976 144.675 11.0116 145.766 10.9012 147.469L10.5022 143.517C9.15816 142.055 9.17661 142.46 6.88128 142.122L9.2994 141.757C10.7723 140.504 10.3427 140.542 10.6005 138.157Z" fill="#C5865B"/>
<path d="M141.618 95.563L146.7 95.5149L146.651 101.004L146.626 105.369C146.731 110.589 146.933 116.116 146.804 121.309L146.706 126.091L135.543 126.314C125.318 126.348 115.099 126.307 104.881 126.192L104.918 121.396L104.912 105.45C112.595 105.418 128.939 106.015 135.555 105.177C136.518 103.614 136.248 102.452 136.359 100.395C138.317 100.477 138.906 100.48 140.833 100.167C142.06 98.3855 141.618 98.1876 141.618 95.563Z" fill="#A46540"/>
<path d="M104.918 121.396L146.804 121.309L146.706 126.091L135.543 126.314C125.318 126.348 115.099 126.307 104.881 126.192L104.918 121.396Z" fill="#814A32"/>
<path d="M146.626 105.369C143.681 105.534 142.84 105.898 141.367 103.214L141.803 102.008C143.938 100.529 143.582 101.007 146.651 101.004L146.626 105.369Z" fill="#C5865B"/>
<path d="M126.766 111.211C130.817 111.005 140.422 109.843 142.901 113.019C142.717 114.495 142.938 113.941 141.717 115.122C138.145 115.206 127.705 116.105 125.539 113.747C125.582 111.977 125.324 112.667 126.766 111.211Z" fill="#B57A54"/>
<path d="M15.9031 100.359L20.9111 100.539C20.9909 102.505 20.7024 103.658 21.6414 105.095C27.3122 105.935 45.6196 105.457 52.2601 105.416L52.2908 115.973L52.2785 126.334C38.5372 126.039 24.6302 126.546 10.8337 126.402L10.5268 126.117L10.4286 121.532L10.5391 111.631C11.4597 101.371 15.4427 109.155 15.3998 100.886L15.4796 100.476L15.9031 100.359Z" fill="#9E613D"/>
<path d="M10.4286 121.532C15.0991 121.086 14.3626 120.9 15.8908 116.551C20.2851 115.028 46.0922 115.887 52.2908 115.973L52.2785 126.334C38.5372 126.039 24.6302 126.546 10.8337 126.402L10.5268 126.117L10.4286 121.532Z" fill="#814A32"/>
<path d="M25.6858 111.091L29.583 110.792C31.639 111.839 31.0007 111.336 31.9336 114.019C27.9075 114.208 27.3551 114.869 25.6858 111.091Z" fill="#C5865B"/>
<path d="M110.091 89.9123L119.764 89.7538C123.244 89.6891 127.22 89.1207 130.154 90.453C131.087 91.8242 130.94 92.6226 130.983 94.2923L130.737 94.96L136.347 94.9446L136.359 100.395L99.9036 100.316C99.9098 103.809 100.143 124.728 99.6029 127.126L99.3513 126.464L94.5581 126.399C94.4169 123.654 94.7484 119.121 94.6379 115.762C94.4968 112.09 94.3678 108.915 93.9689 105.246C93.7725 103.378 93.662 102.912 94.11 101.104C96.0493 99.7993 96.7122 100.271 99.4985 100.228C99.4678 98.3054 99.4064 97.6555 99.9158 95.7652C101.855 94.4858 102.561 94.9501 105.317 94.9094C105.218 93.5376 105.274 92.4926 105.323 91.1164C106.998 89.7156 107.452 90.1411 110.091 89.9123Z" fill="#764530"/>
<path d="M93.9689 105.246C93.7725 103.378 93.662 102.912 94.11 101.104C96.0493 99.7993 96.7122 100.271 99.4985 100.228L99.3513 126.464L94.5581 126.399C94.4169 123.654 94.7484 119.121 94.6379 115.762C94.4968 112.09 94.3678 108.915 93.9689 105.246Z" fill="#D79868"/>
<path d="M110.091 89.9123L119.764 89.7538C123.244 89.6891 127.22 89.1207 130.154 90.453C131.087 91.8242 130.94 92.6226 130.983 94.2923L130.737 94.96L105.317 94.9094C105.218 93.5376 105.274 92.4926 105.323 91.1164C106.998 89.7156 107.452 90.1411 110.091 89.9123Z" fill="#D79868"/>
<path d="M62.8284 105.541C70.4938 104.657 65.6823 106.74 68.7816 110.405L72.3288 110.53L73.1329 111.5C73.09 113.185 73.0469 113.701 73.4152 115.336C75.0415 116.366 80.5775 116.281 82.3511 115.58C84.3273 107.871 85.573 112.164 89.2063 109.565C89.3843 108.224 89.4089 107.625 89.4028 106.271C91.2562 104.959 91.3053 105.382 93.9689 105.246C94.3678 108.915 94.4968 112.09 94.6379 115.762C92.7599 115.743 91.1765 115.539 89.5869 116.555C89.636 121.249 88.5129 120.735 84.7569 121.285C83.7688 121.43 83.4128 125.218 81.9399 126.606C79.4543 127.18 76.5146 126.596 73.9369 126.258C71.9362 123.98 74.2561 123.977 72.5376 121.208C71.0095 121.176 70.1686 121.146 68.665 120.903C67.1859 118.462 67.5358 119.464 67.5358 116.583C66.118 115.615 64.4426 115.838 62.6383 115.812L62.8284 105.541Z" fill="#582C1C"/>
<path d="M62.6383 115.812C64.4426 115.838 66.118 115.615 67.5358 116.583C67.5358 119.464 67.1859 118.462 68.665 120.903C70.1686 121.146 71.0095 121.176 72.5376 121.208C74.2561 123.977 71.9362 123.98 73.9369 126.258C76.5146 126.596 79.4543 127.18 81.9399 126.606C83.4128 125.218 83.7688 121.43 84.7569 121.285C88.5129 120.735 89.636 121.249 89.5869 116.555C91.1765 115.539 92.7599 115.743 94.6379 115.762C94.7484 119.121 94.4169 123.654 94.5581 126.399C94.5519 128.62 94.9017 129.414 93.9443 131.162C90.1086 131.766 67.3209 131.541 62.6075 131.362L62.4786 126.427L62.6383 115.812Z" fill="#CB8B5F"/>
<path d="M94.5581 126.399L99.3513 126.464L99.6029 127.126L99.4679 131.78C99.5047 133.68 99.7317 135.093 98.8971 136.76C88.3471 137.277 68.8981 137.314 58.4587 136.695C57.6486 135.47 57.8879 133.309 57.8265 131.572L62.6197 131.834L62.6075 131.362C67.3209 131.541 90.1086 131.766 93.9443 131.162C94.9017 129.414 94.5519 128.62 94.5581 126.399Z" fill="#713F28"/>
<path d="M94.5581 126.399L99.3513 126.464L99.6029 127.126L99.4679 131.78C87.8623 131.917 74.1394 132.281 62.6197 131.834L62.6075 131.362C67.3209 131.541 90.1086 131.766 93.9443 131.162C94.9017 129.414 94.5519 128.62 94.5581 126.399Z" fill="#A2714E"/>
<path d="M20.9663 94.3687C22.7584 95.169 23.8938 95.0407 25.8147 95.0475C30.5465 94.9964 36.2173 95.0851 40.8693 94.833C45.816 95.0851 54.2424 93.8181 57.2128 96.0581C57.7652 97.7271 57.7652 98.2443 57.9186 100.02L57.6854 101.096C53.9601 98.7474 27.5209 100.271 21.2855 100.395L20.9663 94.3687Z" fill="#764530"/>
<path d="M57.9186 100.02C60.5208 99.8936 60.5331 99.4719 62.4295 100.585C63.2028 102.452 62.9757 103.562 62.8284 105.541L62.6383 115.812L62.4786 126.427L57.6854 126.432V101.096L57.9186 100.02Z" fill="#D79868"/>
<path d="M57.6854 126.432L62.4786 126.427L62.6075 131.362L62.6197 131.834L57.8265 131.572L57.6854 126.432Z" fill="#A46540"/>
<path d="M152.156 142.321L152.248 152.878C152.187 154.234 152.144 156.787 151.997 158.042C148.959 158.019 148.928 157.478 147.179 159.019C146.878 160.574 146.798 161.425 146.056 162.864C135.892 163.921 119.819 162.941 109.177 163.233C78.9694 164.06 45.7608 162.101 15.7312 163.413C13.4727 163.339 13.0369 163.696 11.3492 162.608C11.0178 160.953 10.803 159.5 10.5759 157.842C8.8391 157.944 8.14564 157.9 6.41494 157.713C5.01564 156.023 5.44521 155.559 5.24268 152.877C3.59176 152.867 1.83037 152.631 0.179451 152.457C1.56647 152.243 4.00296 152.202 5.48204 152.13C7.33548 152.193 8.01051 152.36 9.70439 151.582C10.8889 146.025 17.2041 148.783 22.4575 147.441C63.0984 146.923 105.574 147.244 146.215 147.507C146.461 146.206 146.577 143.787 146.694 142.378L152.156 142.321Z" fill="#814A32"/>
<path d="M10.895 157.616C35.8307 158.494 63.2151 157.826 88.3962 157.874C105.887 157.907 129.485 158.606 146.362 157.696C147.749 155.037 145.749 155.384 147.59 153.083C149.388 152.652 149.603 152.671 151.352 153.28C152.248 154.789 152.015 156.224 151.997 158.042C148.959 158.019 148.928 157.478 147.179 159.019C146.878 160.574 146.798 161.425 146.056 162.864C135.892 163.921 119.819 162.941 109.177 163.233C78.9694 164.06 45.7608 162.101 15.7312 163.413C13.4727 163.339 13.0369 163.696 11.3492 162.608C11.0178 160.953 10.803 159.5 10.5759 157.842L10.895 157.616Z" fill="#582C1C"/>
<path d="M5.24268 152.877C8.02899 152.827 8.61197 152.346 10.6434 153.565C11.1282 155.312 11.03 155.792 10.895 157.616L10.5759 157.842C8.8391 157.944 8.14564 157.9 6.41494 157.713C5.01564 156.023 5.44521 155.559 5.24268 152.877Z" fill="#582C1C"/>
<path d="M141.269 5.40335L146.694 5.43911L146.565 10.8327L152.23 11.234C151.475 24.4004 152.168 40.9553 152.162 54.3745L152.156 142.321L146.694 142.378L146.596 138.091L146.694 132.796L146.706 126.091L146.804 121.309C146.933 116.116 146.731 110.589 146.626 105.369L146.651 101.004L146.7 95.5149L141.618 95.563C141.618 98.1876 142.06 98.3855 140.833 100.167C138.906 100.48 138.317 100.477 136.359 100.395L136.347 94.9446L136.273 89.7705L136.242 62.2003L136.212 58.5115C139.029 58.3155 139.335 57.8204 141.41 58.9739C142.024 60.7928 141.852 61.6054 141.753 63.5043L146.786 63.5006L146.719 58.1225L146.725 42.5947C146.946 37.1728 149.419 20.0162 146.909 16.2102C144.491 16.127 143.601 16.5074 141.809 15.347L141.569 13.5147L141.465 10.8906L141.269 5.40335Z" fill="#CB8B5F"/>
<path d="M136.212 58.5115C139.029 58.3155 139.335 57.8204 141.41 58.9739C142.024 60.7928 141.852 61.6054 141.753 63.5043L146.786 63.5006L146.798 68.9078L146.786 73.7859L146.798 89.3574L141.766 89.4376L141.618 95.563C141.618 98.1876 142.06 98.3855 140.833 100.167C138.906 100.48 138.317 100.477 136.359 100.395L136.347 94.9446L136.273 89.7705L136.242 62.2003L136.212 58.5115Z" fill="#582C1C"/>
<path d="M141.735 73.871L146.786 73.7859L146.798 89.3574L141.766 89.4376C141.631 84.2493 141.625 79.0592 141.735 73.871Z" fill="#A46540"/>
<path d="M141.753 63.5043L146.786 63.5006L146.798 68.9078L146.786 73.7859L141.735 73.871L141.723 69.0619L141.753 63.5043Z" fill="#92593B"/>
<path d="M141.723 69.0619L146.798 68.9078L146.786 73.7859L141.735 73.871L141.723 69.0619Z" fill="#B57A54"/>
<path d="M141.269 5.40335L146.694 5.43911L146.565 10.8327C144.969 13.3938 144.841 13.6343 141.569 13.5147L141.465 10.8906L141.269 5.40335Z" fill="#EFBF7A"/>
<path d="M141.766 89.4376L146.798 89.3574L146.7 95.5149L141.618 95.563L141.766 89.4376Z" fill="#814A32"/>
<path d="M153.273 10.6588L157.483 10.5472C155.667 28.1688 158.901 148.655 156.379 152.526C154.654 152.826 153.997 152.874 152.248 152.878L152.156 142.321L152.162 54.3745C152.168 40.9553 151.475 24.4004 152.23 11.234L153.273 10.6588Z" fill="#582C1C"/>
<path d="M0.179451 152.457C-0.329941 110.525 0.437172 68.4361 0.148721 26.4905C0.111897 21.568 0.0444357 16.3526 0.504729 11.4726C2.16179 10.3228 3.1805 10.7044 5.51266 10.6267L5.66609 10.9609L10.625 10.9412L10.4961 15.6985L10.4532 38.0705L10.4348 42.2908C10.4593 46.5 10.7048 54.3418 10.2384 58.2372C11.4597 58.0386 14.2153 58.0621 15.5655 58.0343L20.8865 57.9949L20.997 62.5918C20.6594 73.1348 20.862 83.811 20.9663 94.3687L21.2855 100.395L20.9111 100.539L15.9031 100.359L15.4796 100.476L15.3998 100.886C15.4427 109.155 11.4597 101.371 10.5391 111.631L10.4286 121.532L10.5268 126.117C10.4655 130.255 10.4102 134.014 10.6005 138.157C10.3427 140.542 10.7723 140.504 9.2994 141.757L6.88128 142.122L5.42068 142.348L5.48204 152.13C4.00296 152.202 1.56647 152.243 0.179451 152.457Z" fill="#EBAF7E"/>
<path d="M0.179451 152.457C-0.329941 110.525 0.437172 68.4361 0.148721 26.4905C0.111897 21.568 0.0444357 16.3526 0.504729 11.4726C2.16179 10.3228 3.1805 10.7044 5.51266 10.6267L5.66609 10.9609C5.32854 21.0187 5.35313 31.5314 5.45746 41.6107C5.78887 75.1441 5.02176 108.833 5.42068 142.348L5.48204 152.13C4.00296 152.202 1.56647 152.243 0.179451 152.457Z" fill="#582C1C"/>
<path d="M20.8865 57.9949L20.997 62.5918C20.6594 73.1348 20.862 83.811 20.9663 94.3687L21.2855 100.395L20.9111 100.539L15.9031 100.359C15.989 97.7388 15.498 92.3051 15.3937 89.2612L15.4366 73.6989L15.4304 69.2604L15.3937 63.5278L15.5655 58.0343L20.8865 57.9949Z" fill="#582C1C"/>
<path d="M10.533 80.8799C10.6864 78.8835 10.8091 77.1331 11.1467 75.1528C12.7792 73.5257 12.6012 74.0208 15.4366 73.6989L15.3937 89.2612C15.498 92.3051 15.989 97.7388 15.9031 100.359L15.4796 100.476L15.3998 100.886C10.5391 100.524 11.6806 100.813 10.5452 96.2911C10.2874 91.6066 10.49 85.6637 10.533 80.8799Z" fill="#A2714E"/>
<path d="M15.4796 100.476C14.9518 94.0512 15.0315 97.7795 11.1037 92.5739C10.2445 91.4333 10.4961 91.8748 10.7293 90.3938C12.3127 89.2113 13.4482 89.3457 15.3937 89.2612C15.498 92.3051 15.989 97.7388 15.9031 100.359L15.4796 100.476Z" fill="#814A32"/>
<path d="M10.2384 58.2372C11.4597 58.0386 14.2153 58.0621 15.5655 58.0343L15.3937 63.5278L15.4304 69.2604L10.5023 68.9602L10.4102 60.0887L10.2384 58.2372Z" fill="#9E613D"/>
<path d="M10.2384 58.2372C11.4597 58.0386 14.2153 58.0621 15.5655 58.0343L15.3937 63.5278C11.3124 63.6529 11.5026 63.91 10.4102 60.0887L10.2384 58.2372Z" fill="#814A32"/>
<path d="M10.5452 96.2911C11.6806 100.813 10.5391 100.524 15.3998 100.886C15.4427 109.155 11.4597 101.371 10.5391 111.631C10.312 107.745 10.447 100.173 10.5452 96.2911Z" fill="#C5865B"/>
<path d="M10.5023 68.9602L15.4304 69.2604L15.4366 73.6989C12.6012 74.0208 12.7792 73.5257 11.1467 75.1528C10.8091 77.1331 10.6864 78.8835 10.533 80.8799C10.3304 77.5074 10.49 72.4628 10.5023 68.9602Z" fill="#B57A54"/>
<path d="M10.5329 5.43233L10.7171 0.0449356L11.1344 5.40582C11.1406 8.25057 10.6373 8.93062 11.9629 10.8567C13.2333 11.0497 14.2215 11.2051 15.5042 11.2784C15.4121 13.4863 15.7619 13.9814 14.6695 15.5659C12.9327 15.8841 12.2636 15.8033 10.4961 15.6985L10.625 10.9412L5.66609 10.9609L5.51266 10.6267C5.3715 8.74627 5.30395 8.24133 5.65377 6.40093C7.26787 5.15119 8.1271 5.54824 10.5329 5.43233Z" fill="#D79868"/>
<path d="M10.5329 5.43233L10.625 10.9412L5.66609 10.9609L5.51266 10.6267C5.3715 8.74627 5.30395 8.24133 5.65377 6.40093C7.26787 5.15119 8.1271 5.54824 10.5329 5.43233Z" fill="#59321E"/>
<path d="M146.694 5.43911C149.437 5.47179 149.591 5.05747 151.684 6.25049C152.193 8.64269 151.794 9.60513 153.273 10.6588L152.23 11.234L146.565 10.8327L146.694 5.43911Z" fill="#59321E"/>
</svg>
