<svg width="168" height="179" viewBox="0 0 168 179" fill="none" xmlns="http://www.w3.org/2000/svg">
<path d="M10.8463 5.66399C10.7892 3.69393 10.428 1.77903 11.518 0.312421C21.3729 -0.286777 34.6944 0.157704 44.9549 0.171654L105.028 0.158982C109.376 0.155812 144.347 -0.316577 146.077 0.826655C146.495 2.88422 146.438 3.47644 146.356 5.52386C148.371 5.51181 149.619 5.26642 151.261 6.36083C151.451 17.4114 157.491 5.14088 157.085 16.5795C160.108 16.6531 160.254 16.1205 162.028 17.6778C162.212 18.989 162.415 20.2977 162.643 21.6033C165.197 22.5779 166.395 21.7625 167.656 23.0046C168.226 32.945 167.903 45.1616 167.897 55.2377L167.853 112.108L167.897 150.445C167.916 156.743 168.258 166.791 167.58 172.617C164.703 174.405 164.189 171.901 162.352 174.33L162.123 177.87C160.552 179.213 156.382 178.911 154.113 178.912C127.641 178.924 101.163 178.897 74.6843 178.877L40.7088 178.854C37.128 178.853 23.6164 179.53 21.6327 177.978C21.5123 174.836 22.0827 174.706 20.3969 173.06C18.8062 172.678 18.5654 172.665 16.9366 172.8C16.0367 171.282 16.3156 169.922 16.3853 168.094L12.8172 168.079C10.8019 166.897 11.2074 166.385 10.2188 163.521C8.43792 162.126 8.37464 162.588 5.61781 162.485L5.20584 158.439C3.65948 156.768 3.1461 157.261 0.211818 156.922L0.230892 62.1966C0.230892 46.4012 -0.364883 27.3689 0.357598 11.9565C1.78355 10.8393 3.74819 11.0733 5.69382 11.0149C5.51003 9.06769 5.42768 8.56043 5.77624 6.64934C7.54442 5.30574 8.22887 5.75276 10.8463 5.66399Z" fill="#F0C07C"/>
<path d="M70.5395 43.2702C71.5472 43.3386 74.2343 43.4464 75.0899 43.6005L75.5144 49.0732L70.774 49.0421C70.9515 46.5978 70.9641 46.2104 70.4825 43.7641L70.5395 43.2702Z" fill="#693922"/>
<path d="M146.356 5.52386C148.371 5.51181 149.619 5.26642 151.261 6.36083C151.451 17.4114 157.491 5.14088 157.085 16.5795C160.108 16.6531 160.254 16.1205 162.028 17.6778C162.212 18.989 162.415 20.2977 162.643 21.6033C165.197 22.5779 166.395 21.7625 167.656 23.0046C168.226 32.945 167.903 45.1616 167.897 55.2377L167.853 112.108L167.897 150.445C167.916 156.743 168.258 166.791 167.58 172.617C164.703 174.405 164.189 171.901 162.352 174.33L162.123 177.87C160.552 179.213 156.382 178.911 154.113 178.912C127.641 178.924 101.163 178.897 74.6843 178.877L40.7088 178.854C37.128 178.853 23.6164 179.53 21.6327 177.978C21.5123 174.836 22.0827 174.706 20.3969 173.06C18.8062 172.678 18.5654 172.665 16.9366 172.8C16.0367 171.282 16.3156 169.922 16.3853 168.094L12.8172 168.079C10.8019 166.897 11.2074 166.385 10.2188 163.521C8.43792 162.126 8.37464 162.588 5.61781 162.485C5.78258 161.046 5.93454 159.605 6.06763 158.163C7.77243 156.827 8.07659 157.302 10.7003 157.318L10.9032 151.56L102.525 151.66C116.049 151.671 130.619 151.837 144.213 151.503C146.381 151.45 145.703 148.684 147.084 147.141C147.889 146.241 150.291 146.492 151.749 146.442L151.628 58.3972C151.647 44.2606 152.23 25.4775 151.451 11.8893C149.949 10.8995 148.561 11.2229 146.482 11.1557L146.356 5.52386Z" fill="#9E9B9E"/>
<path d="M10.9032 151.56L102.525 151.66C116.049 151.671 130.619 151.837 144.213 151.503C146.381 151.45 145.703 148.684 147.084 147.141C147.889 146.241 150.291 146.492 151.749 146.442L151.647 157.215C151.571 159.101 151.869 161.23 150.9 162.421C149.36 162.419 148.187 162.324 146.691 162.717C145.475 165.841 147.154 166.107 145.335 167.721C137.939 168.475 122.59 167.994 114.744 167.973L49.6255 167.933C41.1269 167.932 24.2121 167.428 16.3853 168.094L12.8172 168.079C10.8019 166.897 11.2074 166.385 10.2188 163.521C8.43792 162.126 8.37464 162.588 5.61781 162.485C5.78258 161.046 5.93454 159.605 6.06763 158.163C7.77243 156.827 8.07659 157.302 10.7003 157.318L10.9032 151.56Z" fill="#925C41"/>
<path d="M10.7003 157.318C10.7637 158.859 10.6053 161.235 11.5052 162.306C22.2664 162.47 144.011 163.056 146.438 161.615C146.375 160.057 146.419 159.666 146.704 158.129C148.821 156.789 148.726 157.241 151.647 157.215C151.571 159.101 151.869 161.23 150.9 162.421C149.36 162.419 148.187 162.324 146.691 162.717C145.475 165.841 147.154 166.107 145.335 167.721C137.939 168.475 122.59 167.994 114.744 167.973L49.6255 167.933C41.1269 167.932 24.2121 167.428 16.3853 168.094L12.8172 168.079C10.8019 166.897 11.2074 166.385 10.2188 163.521C8.43792 162.126 8.37464 162.588 5.61781 162.485C5.78258 161.046 5.93454 159.605 6.06763 158.163C7.77243 156.827 8.07659 157.302 10.7003 157.318Z" fill="#572E1C"/>
<path d="M146.356 5.52386C148.371 5.51181 149.619 5.26642 151.261 6.36083C151.451 17.4114 157.491 5.14088 157.085 16.5795L157.028 111.849C157.034 121.294 157.731 148.364 156.8 156.389C154.956 157.636 154.233 157.191 151.647 157.215L151.749 146.442L151.628 58.3972C151.647 44.2606 152.23 25.4775 151.451 11.8893C149.949 10.8995 148.561 11.2229 146.482 11.1557L146.356 5.52386Z" fill="#572E1C"/>
<path d="M10.8463 5.66399C10.7892 3.69393 10.428 1.77903 11.518 0.312421C21.3729 -0.286777 34.6944 0.157704 44.9549 0.171654L105.028 0.158982C109.376 0.155812 144.347 -0.316577 146.077 0.826655C146.495 2.88422 146.438 3.47644 146.356 5.52386L145.836 5.72422C145.861 8.29412 146.191 13.3857 145.329 15.5663C142.997 16.3025 143.814 16.3583 141.774 15.8846C140.981 14.21 140.95 13.4656 140.709 11.6629C140.335 11.4302 140.012 11.0929 139.593 10.9648C137.16 10.2211 18.9836 10.7714 16.9239 11.1887C16.1951 12.888 16.2268 13.4891 16.0557 15.3152C13.4446 17.2168 13.1975 14.6944 11.1124 16.9251C10.1491 23.6761 10.6941 44.0513 10.7067 51.6913L10.7131 119.228C10.7258 122.697 11.03 139.353 10.2188 141.325L5.68746 141.346L5.70012 146.462L10.523 146.484C10.6688 148.175 10.7954 149.867 10.9032 151.56L10.7003 157.318C8.07659 157.302 7.77243 156.827 6.06763 158.163C5.93454 159.605 5.78258 161.046 5.61781 162.485L5.20584 158.439C3.65948 156.768 3.1461 157.261 0.211818 156.922L0.230892 62.1966C0.230892 46.4012 -0.364883 27.3689 0.357598 11.9565C1.78355 10.8393 3.74819 11.0733 5.69382 11.0149C5.51003 9.06769 5.42768 8.56043 5.77624 6.64934C7.54442 5.30574 8.22887 5.75276 10.8463 5.66399Z" fill="#F6D9A5"/>
<path d="M0.211818 156.922L0.230892 62.1966C0.230892 46.4012 -0.364883 27.3689 0.357598 11.9565C1.78355 10.8393 3.74819 11.0733 5.69382 11.0149L5.87122 11.2926C4.43893 53.5922 6.54303 98.7413 5.68746 141.346L5.70012 146.462L10.523 146.484C10.6688 148.175 10.7954 149.867 10.9032 151.56L10.7003 157.318C8.07659 157.302 7.77243 156.827 6.06763 158.163C5.93454 159.605 5.78258 161.046 5.61781 162.485L5.20584 158.439C3.65948 156.768 3.1461 157.261 0.211818 156.922Z" fill="#572E1C"/>
<path d="M5.70012 146.462L10.523 146.484C10.6688 148.175 10.7954 149.867 10.9032 151.56L10.7003 157.318C8.07659 157.302 7.77243 156.827 6.06763 158.163C5.93454 159.605 5.78258 161.046 5.61781 162.485L5.20584 158.439C3.65948 156.768 3.1461 157.261 0.211818 156.922C2.04971 156.818 3.19672 156.93 4.78111 156.014C6.34648 153.857 5.74448 149.486 5.70012 146.462Z" fill="#844D33"/>
<path d="M10.8463 5.66399C10.7892 3.69393 10.428 1.77903 11.518 0.312421C21.3729 -0.286777 34.6944 0.157704 44.9549 0.171654L105.028 0.158982C109.376 0.155812 144.347 -0.316577 146.077 0.826655C146.495 2.88422 146.438 3.47644 146.356 5.52386L145.836 5.72422L10.8463 5.66399Z" fill="#572E1C"/>
<path d="M5.69382 11.0149C5.51003 9.06769 5.42768 8.56043 5.77624 6.64934C7.54442 5.30574 8.22887 5.75276 10.8463 5.66399C10.8146 8.60482 11.3151 8.95862 9.9145 10.9439C8.22237 11.2502 7.59503 11.2869 5.87122 11.2926L5.69382 11.0149Z" fill="#4B2716"/>
<path d="M114.249 43.1827L118.977 43.2271L118.996 43.7521C118.838 45.0627 118.673 47.6155 118.008 48.5995C118.515 49.5526 119.003 50.2462 119.085 51.3134L119.123 54.4267L119.167 58.746L119.269 63.9872L119.364 65.8558L119.218 70.4801L119.098 71.4915L119.205 76.058L119.218 81.4084L117.995 81.8186L113.996 81.7825C113.597 84.6117 114.097 84.4569 112.399 85.9236C108.311 87.2843 104.724 85.8868 99.9203 86.8062C90.2746 87.0383 80.0458 86.8664 70.3493 86.8537L54.0112 86.7903C48.6686 86.8043 43.3197 86.784 37.9708 86.7288C37.9391 84.8469 37.8567 84.0442 38.351 82.1711C40.1826 80.9366 40.9748 81.3855 43.5479 81.3709C43.6239 79.1764 43.5859 76.8037 43.5986 74.5921C43.7 71.7191 43.5605 68.2285 43.5289 65.3055C44.6062 65.2554 47.9081 65.0246 48.7827 65.1615L48.9411 64.8749L48.8333 59.3192C48.6812 55.8685 48.9665 52.2423 49.1629 48.7803L49.7459 47.384L53.9541 47.5641L53.9034 48.5723L54.4104 48.9166L70.774 49.0421L75.5144 49.0732L75.0899 43.6005C80.8507 43.7527 86.472 43.9594 92.2392 43.6975L97.062 43.4477L101.898 43.7223C106.315 43.8916 109.788 43.8998 114.205 43.7413L114.249 43.1827Z" fill="#F0C07C"/>
<path d="M48.8333 59.3192L50.9755 59.5772L53.9225 59.7047L59.5691 59.6254L70.5458 59.6578L70.4001 60.1181L70.3937 65.2788L70.381 70.4192L75.4764 70.4845C75.5271 72.194 75.6729 74.3968 75.6032 76.0606L75.9961 76.1823L81.3766 76.1684C83.9877 76.6071 84.7609 76.2248 86.1552 77.8506L86.3643 81.3773L89.5584 81.3208L89.4254 81.7552L110.821 81.6353L113.996 81.7825C113.597 84.6117 114.097 84.4569 112.399 85.9236C108.311 87.2843 104.724 85.8868 99.9203 86.8062C90.2746 87.0383 80.0458 86.8664 70.3493 86.8537L54.0112 86.7903C48.6686 86.8043 43.3197 86.784 37.9708 86.7288C37.9391 84.8469 37.8567 84.0442 38.351 82.1711C40.1826 80.9366 40.9748 81.3855 43.5479 81.3709C43.6239 79.1764 43.5859 76.8037 43.5986 74.5921C43.7 71.7191 43.5605 68.2285 43.5289 65.3055C44.6062 65.2554 47.9081 65.0246 48.7827 65.1615L48.9411 64.8749L48.8333 59.3192Z" fill="#B3754D"/>
<path d="M48.8333 59.3192L50.9755 59.5772L53.9225 59.7047L59.5691 59.6254L59.6579 64.419C59.6072 65.9877 59.5945 68.7269 59.4107 70.1757L58.815 70.423L54.7463 70.5606L54.5435 71.17C53.1175 75.462 55.7477 78.1169 52.9718 81.1814C51.1593 81.5136 50.5952 81.4889 48.7383 81.4191C47.5532 81.4971 44.8407 81.388 43.5479 81.3709C43.6239 79.1764 43.5859 76.8037 43.5986 74.5921C43.7 71.7191 43.5605 68.2285 43.5289 65.3055C44.6062 65.2554 47.9081 65.0246 48.7827 65.1615L48.9411 64.8749L48.8333 59.3192Z" fill="#572E1C"/>
<path d="M48.8333 59.3192L50.9755 59.5772L53.9225 59.7047L59.5691 59.6254L59.6579 64.419C59.6072 65.9877 59.5945 68.7269 59.4107 70.1757L58.815 70.423L54.7463 70.5606C54.4991 69.1169 54.4928 66.8272 54.4357 65.2978C52.0211 65.3372 51.305 65.275 48.9411 64.8749L48.8333 59.3192Z" fill="#331F1A"/>
<path d="M54.4357 65.2978L59.6579 64.419C59.6072 65.9877 59.5945 68.7269 59.4107 70.1757L58.815 70.423L54.7463 70.5606C54.4991 69.1169 54.4928 66.8272 54.4357 65.2978Z" fill="#412117"/>
<path d="M43.5289 65.3055C44.6062 65.2554 47.9081 65.0246 48.7827 65.1615C48.9221 70.6951 48.8524 75.883 48.7383 81.4191C47.5532 81.4971 44.8407 81.388 43.5479 81.3709C43.6239 79.1764 43.5859 76.8037 43.5986 74.5921C43.7 71.7191 43.5605 68.2285 43.5289 65.3055Z" fill="#844D33"/>
<path d="M81.3766 76.1684C83.9877 76.6071 84.7609 76.2248 86.1552 77.8506L86.3643 81.3773L89.5584 81.3208L89.4254 81.7552C81.795 82.0805 73.1253 81.6588 65.4188 81.4591L65.273 76.1126C66.851 76.1335 68.9614 75.994 70.343 76.5729L70.4952 76.1956L75.6032 76.0606L75.9961 76.1823L81.3766 76.1684Z" fill="#AB6735"/>
<path d="M81.3766 76.1684C83.9877 76.6071 84.7609 76.2248 86.1552 77.8506L86.3643 81.3773C83.5884 81.4654 78.9431 82.0101 76.7376 80.7159C75.5081 78.7224 75.9263 78.9038 75.9961 76.1823L81.3766 76.1684Z" fill="#693922"/>
<path d="M65.273 76.1126C66.851 76.1335 68.9614 75.994 70.343 76.5729C70.2543 79.4985 70.7677 79.4567 69.215 81.0533L65.4188 81.4591L65.273 76.1126Z" fill="#693922"/>
<path d="M59.5691 59.6254L70.5458 59.6578L70.4001 60.1181L70.3937 65.2788L70.381 70.4192C66.9524 70.5365 62.6872 70.8865 59.4107 70.1757C59.5945 68.7269 59.6072 65.9877 59.6579 64.419L59.5691 59.6254Z" fill="#CB974A"/>
<path d="M64.1259 59.9101C66.1983 60.0065 68.3277 60.1441 70.4001 60.1181L70.3937 65.2788L65.4948 65.3657C65.292 63.8877 64.5378 61.4294 64.1259 59.9101Z" fill="#FBE99F"/>
<path d="M65.4948 65.3657C63.5746 65.4532 62.4781 65.7341 60.9128 64.6967C59.6706 62.6595 59.772 63.459 60.0698 61.5492C61.7239 59.7808 61.2233 60.3058 64.1259 59.9101C64.5378 61.4294 65.292 63.8877 65.4948 65.3657Z" fill="#FDEB93"/>
<path d="M59.4107 70.1757C62.6872 70.8865 66.9524 70.5365 70.381 70.4192L75.4764 70.4845C75.5271 72.194 75.6729 74.3968 75.6032 76.0606L70.4952 76.1956L70.343 76.5729C68.9614 75.994 66.851 76.1335 65.273 76.1126L64.7787 76.001L59.6643 75.9547L54.6259 75.5597L54.5435 71.17L54.7463 70.5606L58.815 70.423L59.4107 70.1757Z" fill="#AB6735"/>
<path d="M70.381 70.4192L75.4764 70.4845C75.5271 72.194 75.6729 74.3968 75.6032 76.0606L70.4952 76.1956L70.381 70.4192Z" fill="#FBE99F"/>
<path d="M54.7463 70.5606L58.815 70.423C59.8544 72.1934 59.6389 73.8439 59.6643 75.9547L54.6259 75.5597L54.5435 71.17L54.7463 70.5606Z" fill="#F6D9A5"/>
<path d="M54.6259 75.5597L59.6643 75.9547L64.7787 76.001C64.8231 77.5031 64.7659 78.3819 64.6455 79.8828C62.0725 82.7234 58.6312 82.8933 55.6779 80.7331C54.2013 79.6558 54.6449 77.1969 54.6259 75.5597Z" fill="#FAC24D"/>
<path d="M102.747 64.8629C105.244 65.5458 105.713 65.4804 108.248 65.3257L108.476 70.7014L113.527 71.1009L114.154 71.014L114.173 70.463L119.218 70.4801L119.098 71.4915L119.205 76.058L119.218 81.4084L117.995 81.8186L113.996 81.7825L110.821 81.6353L89.4254 81.7552L89.5584 81.3208L91.333 80.974C92.5625 78.9018 92.0428 78.2088 91.9477 75.3428L91.8844 70.8605L96.289 70.0838L97.5628 70.7135C99.1282 70.806 101.08 70.7071 102.684 70.6722L102.576 65.1406L102.747 64.8629Z" fill="#952C2F"/>
<path d="M114.173 70.463L119.218 70.4801L119.098 71.4915L119.205 76.058L119.218 81.4084L117.995 81.8186L113.996 81.7825L110.821 81.6353L109.351 80.9708C108.21 78.9228 108.704 78.8657 109.021 76.0289C110.453 75.9896 111.436 75.8824 112.862 75.7087C114.009 74.0328 113.571 73.4958 113.527 71.1009L114.154 71.014L114.173 70.463Z" fill="#572E1C"/>
<path d="M114.154 71.014L114.186 76.0219C113.983 78.9291 113.451 79.0807 114.776 80.9315C116.493 81.2238 117.482 81.3234 119.218 81.4084L117.995 81.8186L113.996 81.7825L110.821 81.6353L109.351 80.9708C108.21 78.9228 108.704 78.8657 109.021 76.0289C110.453 75.9896 111.436 75.8824 112.862 75.7087C114.009 74.0328 113.571 73.4958 113.527 71.1009L114.154 71.014Z" fill="#693922"/>
<path d="M114.173 70.463L119.218 70.4801L119.098 71.4915C118.603 74.3429 119.098 74.327 117.38 75.904L114.186 76.0219L114.154 71.014L114.173 70.463Z" fill="#4B2716"/>
<path d="M102.747 64.8629C105.244 65.5458 105.713 65.4804 108.248 65.3257L108.476 70.7014L113.527 71.1009C113.571 73.4958 114.009 74.0328 112.862 75.7087C111.436 75.8824 110.453 75.9896 109.021 76.0289L102.836 76.0339C102.715 74.963 102.715 71.8871 102.684 70.6722L102.576 65.1406L102.747 64.8629Z" fill="#E05D54"/>
<path d="M102.747 64.8629C105.244 65.5458 105.713 65.4804 108.248 65.3257L108.476 70.7014L102.684 70.6722L102.576 65.1406L102.747 64.8629Z" fill="#6D4C41"/>
<path d="M96.289 70.0838L97.5628 70.7135C99.1282 70.806 101.08 70.7071 102.684 70.6722C102.715 71.8871 102.715 74.963 102.836 76.0339C99.6668 76.1043 95.6235 76.4093 92.6322 75.6186L91.9477 75.3428L91.8844 70.8605L96.289 70.0838Z" fill="#D24548"/>
<path d="M96.289 70.0838L97.5628 70.7135C97.2206 73.2117 97.5881 74.0696 96.0924 75.4741L92.6322 75.6186L91.9477 75.3428L91.8844 70.8605L96.289 70.0838Z" fill="#E05D54"/>
<path d="M86.789 64.8946L86.8714 65.2902C86.8143 67.8081 86.377 68.3002 87.5368 70.1422C89.2099 70.437 90.0085 70.5321 91.7069 70.5841L91.8844 70.8605L91.9477 75.3428C92.0428 78.2088 92.5625 78.9018 91.333 80.974L89.5584 81.3208L86.3643 81.3773L86.1552 77.8506C84.7609 76.2248 83.9877 76.6071 81.3766 76.1684L75.9961 76.1823L75.6032 76.0606C75.6729 74.3968 75.5271 72.194 75.4764 70.4845L75.8757 70.3939C76.37 68.8829 77.0798 67.1772 77.6629 65.6732C80.6669 65.5958 83.9117 65.6669 86.789 64.8946Z" fill="#572E1C"/>
<path d="M75.8757 70.3939C78.5311 70.5372 79.0001 70.1295 80.895 71.3995C81.4337 73.2516 81.3576 74.2826 81.3766 76.1684L75.9961 76.1823L75.6032 76.0606C75.6729 74.3968 75.5271 72.194 75.4764 70.4845L75.8757 70.3939Z" fill="#CB974A"/>
<path d="M92.0301 59.1917C94.2292 59.5202 95.2939 59.6673 97.5501 59.6844L102.55 59.7592L102.791 62.5561L102.747 64.8629L102.576 65.1406L102.684 70.6722C101.08 70.7071 99.1282 70.806 97.5628 70.7135L96.289 70.0838L91.8844 70.8605L91.7069 70.5841C90.0085 70.5321 89.2099 70.437 87.5368 70.1422C86.377 68.3002 86.8143 67.8081 86.8714 65.2902L86.789 64.8946L86.7192 59.7288L91.84 59.5975L92.0301 59.1917Z" fill="#2A3621"/>
<path d="M86.7192 59.7288L91.84 59.5975L91.9921 64.9104C93.1899 65.0556 94.7679 65.2985 95.934 65.36L96.289 70.0838L91.8844 70.8605L91.7069 70.5841C90.0085 70.5321 89.2099 70.437 87.5368 70.1422C86.377 68.3002 86.8143 67.8081 86.8714 65.2902L86.789 64.8946L86.7192 59.7288Z" fill="#A2845D"/>
<path d="M86.7192 59.7288L91.84 59.5975L91.9921 64.9104L91.8273 65.2484L86.8714 65.2902L86.789 64.8946L86.7192 59.7288Z" fill="#448152"/>
<path d="M91.9921 64.9104C93.1899 65.0556 94.7679 65.2985 95.934 65.36L96.289 70.0838L91.8844 70.8605L91.7069 70.5841L91.8273 65.2484L91.9921 64.9104Z" fill="#796247"/>
<path d="M97.6325 65.1881L102.576 65.1406L102.684 70.6722C101.08 70.7071 99.1282 70.806 97.5628 70.7135L96.289 70.0838L95.934 65.36L97.6325 65.1881Z" fill="#828158"/>
<path d="M97.5501 59.6844L102.55 59.7592L102.791 62.5561L102.747 64.8629L102.576 65.1406L97.6325 65.1881L97.5501 59.6844Z" fill="#529856"/>
<path d="M71.0782 59.7263L86.7192 59.7288L86.789 64.8946C83.9117 65.6669 80.6669 65.5958 77.6629 65.6732C77.0798 67.1772 76.37 68.8829 75.8757 70.3939L75.4764 70.4845L70.381 70.4192L70.3937 65.2788L70.4001 60.1181L70.5458 59.6578L71.0782 59.7263Z" fill="#331F1A"/>
<path d="M70.5458 59.6578L71.0782 59.7263C71.1289 62.7907 70.6092 63.4261 72.0542 65.5382C74.1329 66.0492 75.5651 65.8324 77.6629 65.6732C77.0798 67.1772 76.37 68.8829 75.8757 70.3939L75.4764 70.4845L70.381 70.4192L70.3937 65.2788L70.4001 60.1181L70.5458 59.6578Z" fill="#412117"/>
<path d="M113.533 54.6277L114.002 54.3119L119.123 54.4267L119.167 58.746L119.269 63.9872L119.364 65.8558L119.218 70.4801L114.173 70.463L114.154 71.014L113.527 71.1009L108.476 70.7014L108.248 65.3257L112.703 65.4931L113.603 65.2687L113.489 59.5671L113.533 54.6277Z" fill="#529856"/>
<path d="M108.248 65.3257L112.703 65.4931L113.958 66.6319L114.173 70.463L114.154 71.014L113.527 71.1009L108.476 70.7014L108.248 65.3257Z" fill="#4A8F56"/>
<path d="M113.533 54.6277L114.002 54.3119L119.123 54.4267L119.167 58.746C117.735 58.8797 114.649 59.0269 113.489 59.5671L113.533 54.6277Z" fill="#285630"/>
<path d="M119.364 65.8558L119.218 70.4801L114.173 70.463L113.958 66.6319L119.364 65.8558Z" fill="#448152"/>
<path d="M113.603 65.2687L114.383 63.7234C116.284 62.7096 116.626 63.329 119.269 63.9872L119.364 65.8558L113.958 66.6319L112.703 65.4931L113.603 65.2687Z" fill="#56A155"/>
<path d="M114.249 43.1827L118.977 43.2271L118.996 43.7521C118.838 45.0627 118.673 47.6155 118.008 48.5995C118.515 49.5526 119.003 50.2462 119.085 51.3134L119.123 54.4267L114.002 54.3119L113.533 54.6277L113.09 54.4894C113.571 52.6639 113.717 51.2512 112.868 49.6971C110.948 48.6167 105.478 48.9958 102.88 48.928C102.728 47.6148 102.17 45.1115 101.898 43.7223C106.315 43.8916 109.788 43.8998 114.205 43.7413L114.249 43.1827Z" fill="#4B2716"/>
<path d="M114.173 48.817L118.008 48.5995C118.515 49.5526 119.003 50.2462 119.085 51.3134L119.123 54.4267L114.002 54.3119L114.173 48.817Z" fill="#331F1A"/>
<path d="M114.249 43.1827L118.977 43.2271L118.996 43.7521C118.838 45.0627 118.673 47.6155 118.008 48.5995L114.173 48.817C114.579 46.755 114.947 45.7513 114.205 43.7413L114.249 43.1827Z" fill="#572E1C"/>
<path d="M75.0899 43.6005C80.8507 43.7527 86.472 43.9594 92.2392 43.6975L92.0871 49.0694L75.5144 49.0732L75.0899 43.6005Z" fill="#4B2716"/>
<path d="M102.886 54.5972C103.114 57.5539 102.614 57.8101 104.205 59.5487C105.345 59.5861 106.803 59.6749 107.912 59.5994C109.313 59.6914 112.374 60.0896 113.489 59.5671L113.603 65.2687L112.703 65.4931L108.248 65.3257C105.713 65.4804 105.244 65.5458 102.747 64.8629L102.791 62.5561L102.55 59.7592L102.886 54.5972Z" fill="#367642"/>
<path d="M102.791 62.5561C103.926 60.1936 103.222 60.9145 105.364 59.7079C107.361 60.269 106.619 59.8461 108.121 61.5276C108.191 62.8345 108.273 64.0164 108.248 65.3257C105.713 65.4804 105.244 65.5458 102.747 64.8629L102.791 62.5561Z" fill="#2A3621"/>
<path d="M49.7459 47.384L53.9541 47.5641L53.9034 48.5723L54.4104 48.9166C53.5422 51.652 53.8781 56.6586 53.9225 59.7047L50.9755 59.5772L48.8333 59.3192C48.6812 55.8685 48.9665 52.2423 49.1629 48.7803L49.7459 47.384Z" fill="#572E1C"/>
<path d="M49.7459 47.384L53.9541 47.5641L53.9034 48.5723C48.5608 49.6584 50.703 54.932 50.9755 59.5772L48.8333 59.3192C48.6812 55.8685 48.9665 52.2423 49.1629 48.7803L49.7459 47.384Z" fill="#412117"/>
<path d="M92.2392 43.6975L97.062 43.4477L101.898 43.7223C102.17 45.1115 102.728 47.6148 102.88 48.928L102.278 48.9343C99.838 49.3458 94.7616 49.1119 92.0871 49.0694L92.2392 43.6975Z" fill="#572E1C"/>
<path d="M97.062 43.4477L101.898 43.7223C102.17 45.1115 102.728 47.6148 102.88 48.928L102.278 48.9343C100.833 48.7397 99.3816 48.5621 97.9303 48.4017C96.6438 46.8178 97.1001 45.9377 97.062 43.4477Z" fill="#412117"/>
<path d="M59.5691 59.6254C59.6389 56.7296 59.1637 56.9731 60.6466 55.1451C63.8027 53.721 67.751 52.9601 70.2607 56.0987L70.5458 59.6578L59.5691 59.6254Z" fill="#412117"/>
<path d="M107.912 59.5994C108.039 58.169 108.216 56.8862 108.413 55.464C110.187 54.0963 110.346 54.5624 113.09 54.4894L113.533 54.6277L113.489 59.5671C112.374 60.0896 109.313 59.6914 107.912 59.5994Z" fill="#2A3621"/>
<path d="M86.7192 59.7288C86.77 56.6954 86.2945 57.0346 87.7839 54.9555C90.0464 54.0526 89.1655 54.0348 91.1492 54.778C92.5688 56.696 92.1188 56.282 92.0301 59.1917L91.84 59.5975L86.7192 59.7288Z" fill="#312717"/>
<path d="M97.5501 59.6844C97.4867 57.8133 97.3853 57.0688 97.9493 55.2592C99.7365 54.2269 100.567 54.6067 102.886 54.5972L102.55 59.7592L97.5501 59.6844Z" fill="#312717"/>
<path d="M113.996 81.7825L117.995 81.8186C118.496 83.6447 118.863 85.0587 119.218 86.9311C121.177 86.9419 122.311 86.7561 124.206 86.479L124.472 86.9495C124.18 90.2099 124.726 90.1123 122.951 92.1242C120.473 92.8419 117.57 91.8122 113.514 92.5084L113.654 97.3863L114.18 97.7585L113.926 98.3362C113.945 100.741 113.495 101.297 114.744 102.804L116.468 102.898L119.313 103.255L124.238 103.209L129.986 102.855L134.175 102.958L135.766 102.763L135.74 103.251L135.341 108.404L135.43 111.452C135.506 115.938 135.506 120.425 135.442 124.911C135.651 126.307 135.861 125.856 135.36 126.79C133.978 126.047 131.779 126.358 130.087 126.416C129.789 128.733 130.201 128.663 128.75 130.028C127.33 130.08 125.968 130.142 124.542 130.117C124.288 132.641 124.63 133.57 123.287 135.349C121.62 135.526 121.031 135.591 119.364 135.429L113.54 135.735L113.628 140.756L108.223 140.657L107.944 140.763L103.102 141.165C102.747 139.448 102.912 137.567 102.962 135.791C101.061 135.82 99.8569 136.069 98.3106 135.046C96.7832 132.525 97.4994 128.167 97.6262 124.869L97.6135 108.487C91.8907 108.61 87.1565 107.368 82.1498 109.082C80.7112 110.864 81.1993 110.864 81.1612 113.731L75.8377 113.523L75.5018 113.386C74.0695 113.432 72.7259 113.426 71.2936 113.414C69.9628 111.817 70.4255 111.293 70.3938 108.748L70.0325 107.631C71.0338 106.481 70.9959 104.761 69.9438 103.657C69.3227 103.002 68.4355 102.667 67.5419 102.747C66.6419 102.827 65.8244 103.313 65.3301 104.068L60.0572 103.1L60.0002 102.662L59.6009 102.506C58.0609 102.697 55.9695 102.711 54.3788 102.773L53.8274 102.783L48.7257 103.297L48.7574 97.5505L48.8461 92.4361C50.1707 92.2003 52.4838 92.0868 53.9034 91.9701L54.0112 86.7903L70.3493 86.8537C80.0458 86.8664 90.2746 87.0383 99.9203 86.8062C104.724 85.8868 108.311 87.2843 112.399 85.9236C114.097 84.4569 113.597 84.6117 113.996 81.7825Z" fill="#693922"/>
<path d="M129.986 102.855L134.175 102.958L135.766 102.763L135.74 103.251L135.341 108.404L135.43 111.452C135.506 115.938 135.506 120.425 135.442 124.911C135.651 126.307 135.861 125.856 135.36 126.79C133.978 126.047 131.779 126.358 130.087 126.416C129.789 128.733 130.201 128.663 128.75 130.028C127.33 130.08 125.968 130.142 124.542 130.117C124.288 132.641 124.63 133.57 123.287 135.349C121.62 135.526 121.031 135.591 119.364 135.429L113.54 135.735L108.457 135.549V134.527C108.73 132.269 108.375 129.352 108.185 127.039L108.204 125.135C108.451 122.778 108.305 115.908 108.311 113.226L108.273 108.426L113.324 108.317L113.914 108.544C115.675 108.617 116.506 108.573 118.261 108.392C119.732 106.636 119.224 106.135 119.313 103.255L124.238 103.209L129.986 102.855Z" fill="#AB6735"/>
<path d="M129.986 102.855L134.175 102.958L135.766 102.763L135.74 103.251L135.341 108.404L135.43 111.452C135.506 115.938 135.506 120.425 135.442 124.911C135.651 126.307 135.861 125.856 135.36 126.79C133.978 126.047 131.779 126.358 130.087 126.416C130.138 124.207 130.322 122.638 129.548 120.564C127.457 118.829 128.11 119.332 125.182 118.872C124.022 117.679 124.421 117.895 124.447 115.577C125.771 113.396 125.873 114.332 129.276 113.186C130.163 111.076 129.777 111.113 129.504 108.527C127.691 108.561 126.988 108.496 125.195 108.228C123.851 106.29 124.314 106.014 124.238 103.209L129.986 102.855Z" fill="#F4B639"/>
<path d="M129.986 102.855L134.175 102.958L134.397 103.398C131.754 103.523 131.329 103.038 129.878 104.525C129.891 105.766 129.872 107.127 129.929 108.355L129.504 108.527C127.691 108.561 126.988 108.496 125.195 108.228C123.851 106.29 124.314 106.014 124.238 103.209L129.986 102.855Z" fill="#FCD85D"/>
<path d="M134.397 103.398C134.973 105.171 135.335 105.741 134.878 107.556C132.781 108.779 132.73 108.351 129.929 108.355C129.872 107.127 129.891 105.766 129.878 104.525C131.329 103.038 131.754 103.523 134.397 103.398Z" fill="#FDEB93"/>
<path d="M108.273 108.426L113.324 108.317L113.914 108.544C113.546 114.525 112.139 117.536 118.255 120.227C119.028 121.899 118.939 122.238 118.737 124.093L118.394 124.161C116.829 124.479 116.151 124.74 114.668 125.317C113.343 127.373 113.755 127.351 113.559 130.115C113.324 127.539 113.533 127.041 111.474 125.586C109.712 125.751 109.534 125.886 108.185 127.039L108.204 125.135C108.451 122.778 108.305 115.908 108.311 113.226L108.273 108.426Z" fill="#F4B639"/>
<path d="M108.185 127.039C109.534 125.886 109.712 125.751 111.474 125.586C113.533 127.041 113.324 127.539 113.559 130.115C116.392 130.122 117.038 129.617 118.927 130.96C119.237 132.77 119.32 133.594 119.364 135.429L113.54 135.735L108.457 135.549V134.527C108.73 132.269 108.375 129.352 108.185 127.039Z" fill="#FAC24D"/>
<path d="M76.0405 103.392L81.0535 102.673C85.2109 104.151 102.158 102.449 107.304 103.638C107.506 105.218 107.665 106.545 107.76 108.147L108.273 108.426L108.311 113.226C108.305 115.908 108.451 122.778 108.204 125.135L108.185 127.039C108.375 129.352 108.73 132.269 108.457 134.527V135.549L113.54 135.735L113.628 140.756L108.223 140.657L107.944 140.763L103.102 141.165C102.747 139.448 102.912 137.567 102.962 135.791C101.061 135.82 99.8569 136.069 98.3106 135.046C96.7832 132.525 97.4994 128.167 97.6262 124.869L97.6135 108.487C91.8907 108.61 87.1565 107.368 82.1498 109.082C80.7112 110.864 81.1993 110.864 81.1612 113.731L75.8377 113.523L76.0405 103.392Z" fill="#331F1A"/>
<path d="M102.76 129.438C104.376 130.087 105.529 130.221 107.24 130.379C108.343 131.508 108.261 132.865 108.457 134.527V135.549L113.54 135.735L113.628 140.756L108.223 140.657L107.944 140.763L103.102 141.165C102.747 139.448 102.912 137.567 102.962 135.791C103.26 133.405 103.007 131.815 102.76 129.438Z" fill="#7D442C"/>
<path d="M108.457 135.549L113.54 135.735L113.628 140.756L108.223 140.657C108.299 138.779 108.153 137.578 107.975 135.732L108.457 135.549Z" fill="#693922"/>
<path d="M103.102 141.165L103.564 136.592C105.016 135.272 105.497 135.744 107.975 135.732C108.153 137.578 108.299 138.779 108.223 140.657L107.944 140.763L103.102 141.165Z" fill="#412117"/>
<path d="M103.368 113.805L108.311 113.226C108.305 115.908 108.451 122.778 108.204 125.135C105.947 125.12 105.694 125.478 103.957 124.396C102.728 121.972 103.368 116.952 103.368 113.805Z" fill="#FCD85D"/>
<path d="M102.728 110.304L103.368 113.805C103.368 116.952 102.728 121.972 103.957 124.396C105.694 125.478 105.947 125.12 108.204 125.135L108.185 127.039C108.375 129.352 108.73 132.269 108.457 134.527C108.261 132.865 108.343 131.508 107.24 130.379C105.529 130.221 104.376 130.087 102.76 129.438L102.728 110.304Z" fill="#F0C07C"/>
<path d="M107.76 108.147L108.273 108.426L108.311 113.226L103.368 113.805L102.728 110.304L102.931 109.297C104.521 107.981 105.339 108.351 107.76 108.147Z" fill="#FBE99F"/>
<path d="M76.1482 97.6824C76.1038 95.8658 76.2243 94.9394 76.4398 93.1615C78.2586 91.4818 108.742 92.6048 113.514 92.5084L113.654 97.3863L114.18 97.7585L113.926 98.3362C113.945 100.741 113.495 101.297 114.744 102.804L116.468 102.898L119.313 103.255C119.224 106.135 119.732 106.636 118.261 108.392C116.506 108.573 115.675 108.617 113.914 108.544L113.324 108.317L108.273 108.426L107.76 108.147C107.665 106.545 107.506 105.218 107.304 103.638C102.158 102.449 85.2109 104.151 81.0535 102.673L76.0405 103.392L76.1482 97.6824Z" fill="#844D33"/>
<path d="M113.654 97.3863L114.18 97.7585L113.926 98.3362C113.945 100.741 113.495 101.297 114.744 102.804L116.468 102.898L119.313 103.255C119.224 106.135 119.732 106.636 118.261 108.392C116.506 108.573 115.675 108.617 113.914 108.544L113.324 108.317L108.273 108.426L107.76 108.147C107.665 106.545 107.506 105.218 107.304 103.638C102.158 102.449 85.2109 104.151 81.0535 102.673C87.3467 102.536 93.6715 103.184 99.9394 102.596C104.395 102.179 101.492 101.49 103.957 98.7147C106.733 97.2766 110.453 97.4846 113.654 97.3863Z" fill="#693922"/>
<path d="M113.565 98.3691L113.926 98.3362C113.945 100.741 113.495 101.297 114.744 102.804L116.468 102.898L119.313 103.255C119.224 106.135 119.732 106.636 118.261 108.392C116.506 108.573 115.675 108.617 113.914 108.544L113.324 108.317L108.273 108.426C108.178 105.915 108.292 105.494 108.894 103.116L108.875 102.822C110.105 102.816 111.353 102.709 112.583 102.623C113.914 101.034 113.495 100.808 113.565 98.3691Z" fill="#FAC24D"/>
<path d="M108.894 103.116C111.588 103.17 111.689 102.718 113.464 104.038C113.73 105.906 113.603 106.438 113.324 108.317L108.273 108.426C108.178 105.915 108.292 105.494 108.894 103.116Z" fill="#FBE99F"/>
<path d="M108.875 102.822C108.66 101.329 108.837 100.694 109.046 99.182C110.865 97.8276 110.745 98.2994 113.565 98.3691C113.495 100.808 113.914 101.034 112.583 102.623C111.353 102.709 110.105 102.816 108.875 102.822Z" fill="#412117"/>
<path d="M76.1482 97.6824C79.0761 97.8124 79.3677 97.2931 81.0345 98.839C81.0915 100.188 81.1676 101.323 81.0535 102.673L76.0405 103.392L76.1482 97.6824Z" fill="#412117"/>
<path d="M53.9034 91.9701L53.9668 96.7935L54.7971 92.9523C58.0419 92.2808 66.6039 92.4266 69.9945 92.8907C70.286 94.7505 70.4444 96.0478 70.5902 97.9386L70.4444 102.895L69.9438 103.657C69.3227 103.002 68.4355 102.667 67.5419 102.747C66.6419 102.827 65.8244 103.313 65.3301 104.068L60.0572 103.1L60.0002 102.662L59.6009 102.506C58.0609 102.697 55.9695 102.711 54.3788 102.773L53.8274 102.783L48.7257 103.297L48.7574 97.5505L48.8461 92.4361C50.1707 92.2003 52.4838 92.0868 53.9034 91.9701Z" fill="#925C41"/>
<path d="M65.1526 97.671C66.718 97.7103 69.1199 97.6932 70.5902 97.9386L70.4444 102.895L69.9438 103.657C69.3227 103.002 68.4355 102.667 67.5419 102.747C66.6419 102.827 65.8244 103.313 65.3301 104.068L60.0572 103.1L60.0002 102.662C61.6733 102.649 62.7 102.575 64.3667 102.377C65.6343 100.689 65.1716 100.214 65.1526 97.671Z" fill="#693922"/>
<path d="M53.9034 91.9701L53.9668 96.7935L53.3203 97.7611L48.7574 97.5505L48.8461 92.4361C50.1707 92.2003 52.4838 92.0868 53.9034 91.9701Z" fill="#412117"/>
<path d="M59.3031 97.6209L65.1526 97.671C65.1716 100.214 65.6343 100.689 64.3667 102.377C62.7 102.575 61.6733 102.649 60.0002 102.662L59.6009 102.506C59.4298 101.189 59.3791 99.0184 59.3031 97.6209Z" fill="#412117"/>
<path d="M54.3344 97.761L59.3031 97.6209C59.3791 99.0184 59.4298 101.189 59.6009 102.506C58.0609 102.697 55.9695 102.711 54.3788 102.773L54.3344 97.761Z" fill="#693922"/>
<path d="M54.0112 86.7903L70.3493 86.8537L70.3241 90.4305C67.1616 93.4557 58.4284 91.8705 53.9034 91.9701L54.0112 86.7903Z" fill="#331F1A"/>
<path d="M70.4444 102.895C71.807 102.967 73.0301 103.013 74.3927 103.013L75.4637 103.135C75.4257 106.156 75.2483 110.474 75.5018 113.386C74.0695 113.432 72.7259 113.426 71.2936 113.414C69.9628 111.817 70.4255 111.293 70.3938 108.748L70.0325 107.631C71.0338 106.481 70.9959 104.761 69.9438 103.657L70.4444 102.895Z" fill="#844D33"/>
<path d="M70.4444 102.895C71.807 102.967 73.0301 103.013 74.3927 103.013C74.5257 105.639 75.0961 106.802 73.8476 108.538C72.5674 108.678 71.6803 108.73 70.3938 108.748L70.0325 107.631C71.0338 106.481 70.9959 104.761 69.9438 103.657L70.4444 102.895Z" fill="#7D442C"/>
<path d="M113.996 81.7825L117.995 81.8186C118.496 83.6447 118.863 85.0587 119.218 86.9311C115.39 86.5488 104.673 86.8981 99.9203 86.8062C104.724 85.8868 108.311 87.2843 112.399 85.9236C114.097 84.4569 113.597 84.6117 113.996 81.7825Z" fill="#925C41"/>
<path d="M71.1859 97.7084L75.5968 97.6539L75.4637 103.135L74.3927 103.013C73.0301 103.013 71.807 102.967 70.4444 102.895L70.5902 97.9386L71.1859 97.7084Z" fill="#925C41"/>
<path d="M71.1859 97.7084C70.888 94.552 70.4191 94.8475 71.7056 92.5097L73.2329 91.9593C76.2876 93.7106 75.8186 94.2971 75.5968 97.6539L71.1859 97.7084Z" fill="#412117"/>
<path d="M146.482 11.1557C148.561 11.2229 149.949 10.8995 151.451 11.8893C152.23 25.4775 151.647 44.2606 151.628 58.3972L151.749 146.442C150.291 146.492 147.889 146.241 147.084 147.141C145.703 148.684 146.381 151.45 144.213 151.503C130.619 151.837 116.049 151.671 102.525 151.66L10.9032 151.56C10.7954 149.867 10.6688 148.175 10.523 146.484L10.9222 146.336C28.9589 147.068 50.1706 146.116 68.4671 146.401C77.3017 146.54 98.8366 146.991 106.841 146.215C107.836 145.117 107.551 144.186 107.652 142.393C106.321 141.16 105.244 141.433 103.102 141.165L107.944 140.763L108.223 140.657L113.628 140.756L113.54 135.735L119.364 135.429C121.031 135.591 121.62 135.526 123.287 135.349C124.63 133.57 124.288 132.641 124.542 130.117C125.968 130.142 127.33 130.08 128.75 130.028C130.201 128.663 129.789 128.733 130.087 126.416C131.779 126.358 133.978 126.047 135.36 126.79C135.861 125.856 135.651 126.307 135.442 124.911C135.506 120.425 135.506 115.938 135.43 111.452L135.341 108.404L140.924 108.453L146.254 108.497C145.684 78.4726 145.639 41.2836 146.482 11.1557Z" fill="#D19263"/>
<path d="M135.341 108.404L140.924 108.453L146.254 108.497L146.273 135.533L141.152 135.869C139.555 135.963 137.477 135.743 135.842 135.628L134.923 135.883L133.826 135.689L134.46 135.34C135.664 133.414 135.24 132.86 135.284 130.199L135.36 126.79C135.861 125.856 135.651 126.307 135.442 124.911C135.506 120.425 135.506 115.938 135.43 111.452L135.341 108.404Z" fill="#4B2716"/>
<path d="M135.43 111.452C138.244 112.375 138.763 114.291 140.778 116.379L140.81 124.873L135.442 124.911C135.506 120.425 135.506 115.938 135.43 111.452Z" fill="#FCD85D"/>
<path d="M135.442 124.911L140.81 124.873L140.785 130.087C140.734 132.929 141.241 133.315 139.809 135.036L135.842 135.628L134.923 135.883L133.826 135.689L134.46 135.34C135.664 133.414 135.24 132.86 135.284 130.199L135.36 126.79C135.861 125.856 135.651 126.307 135.442 124.911Z" fill="#A3633B"/>
<path d="M135.442 124.911L140.81 124.873L140.785 130.087L135.284 130.199L135.36 126.79C135.861 125.856 135.651 126.307 135.442 124.911Z" fill="#F4B639"/>
<path d="M135.341 108.404L140.924 108.453L140.778 116.379C138.763 114.291 138.244 112.375 135.43 111.452L135.341 108.404Z" fill="#FDEB93"/>
<path d="M130.087 126.416C131.779 126.358 133.978 126.047 135.36 126.79L135.284 130.199C135.24 132.86 135.664 133.414 134.46 135.34L133.826 135.689L134.923 135.883L135.075 140.491L129.941 140.822L113.628 140.756L113.54 135.735L119.364 135.429C121.031 135.591 121.62 135.526 123.287 135.349C124.63 133.57 124.288 132.641 124.542 130.117C125.968 130.142 127.33 130.08 128.75 130.028C130.201 128.663 129.789 128.733 130.087 126.416Z" fill="#F0C07C"/>
<path d="M130.087 126.416C131.779 126.358 133.978 126.047 135.36 126.79L135.284 130.199C135.24 132.86 135.664 133.414 134.46 135.34L133.826 135.689L130.043 135.519C128.122 135.767 127.698 135.846 125.79 135.543C124.447 133.873 124.783 132.608 124.542 130.117C125.968 130.142 127.33 130.08 128.75 130.028C130.201 128.663 129.789 128.733 130.087 126.416Z" fill="#FAC24D"/>
<path d="M130.043 135.519L133.826 135.689L134.923 135.883L135.075 140.491L129.941 140.822L130.043 135.519Z" fill="#693922"/>
<path d="M107.944 140.763L108.223 140.657L113.628 140.756L129.941 140.822L135.075 140.491L135.721 140.935L135.664 141.232C135.303 142.79 134.916 144.344 134.511 145.891C132.039 146.53 110.282 146.85 108.685 145.826C108.463 144.135 108.216 142.447 107.944 140.763Z" fill="#572E1C"/>
<path d="M134.923 135.883L135.842 135.628C137.477 135.743 139.555 135.963 141.152 135.869L146.273 135.533C146.222 139.077 146.083 143.02 146.127 146.527C142.984 146.651 138.478 147.37 136.146 145.838C135.258 144.235 135.544 143.095 135.664 141.232L135.721 140.935L135.075 140.491L134.923 135.883Z" fill="#F0C07C"/>
<path d="M134.923 135.883L135.842 135.628C137.477 135.743 139.555 135.963 141.152 135.869C140.874 138.712 141.33 138.971 139.815 140.799C138.174 140.96 137.369 141.017 135.721 140.935L135.075 140.491L134.923 135.883Z" fill="#412117"/>
<path d="M45.3541 22.0465C51.4064 21.6096 64.4554 21.1512 70.305 21.8874C83.0498 22.3769 97.3917 21.1144 110.346 21.5881C114.167 21.7276 121.157 21.2653 124.605 22.011L124.231 22.5538C122.095 22.0776 116.233 22.2811 113.768 22.2963C113.445 24.7781 113.793 25.8605 112.329 27.2935L108.273 27.4406L110.872 28.1824C112.145 30.6781 111.569 31.8436 113.628 33.8244L113.724 38.5641C113.73 39.8906 113.825 41.7877 113.647 43.0451L114.249 43.1827L114.205 43.7413C109.788 43.8998 106.315 43.8916 101.898 43.7223L97.062 43.4477L92.2392 43.6975C86.472 43.9594 80.8507 43.7527 75.0899 43.6005C74.2343 43.4464 71.5472 43.3386 70.5395 43.2702L70.4825 43.7641C70.9641 46.2104 70.9515 46.5978 70.774 49.0421L54.4104 48.9166L53.9034 48.5723L53.9541 47.5641L49.7459 47.384L49.4228 43.7755L43.2563 43.9569C41.0825 44.0139 40.7784 43.9848 38.7123 43.331L38.1039 43.0108L38.0278 38.5375L38.1166 33.0318L42.1726 32.607C43.6239 30.9362 43.1486 30.8113 43.2881 28.0436C43.1803 25.8725 42.8317 24.255 43.8837 22.4371L45.3541 22.0465Z" fill="#844D33"/>
<path d="M97.4234 22.2748C100.522 22.3433 104.743 21.4962 107.259 22.6711C108.774 24.6411 108.273 24.3863 108.273 27.4406L110.872 28.1824C112.145 30.6781 111.569 31.8436 113.628 33.8244L113.724 38.5641C113.73 39.8906 113.825 41.7877 113.647 43.0451C109.547 43.293 107.247 43.397 103.083 43.1218C101.663 41.4523 100.998 41.4751 98.7859 41.1067L98.2916 41.0275C97.4614 39.9134 97.4741 24.8593 97.4234 22.2748Z" fill="#B3754D"/>
<path d="M103.083 43.1218C102.234 40.6153 101.955 41.1232 102.728 39.1316C105.149 37.9211 110.656 38.4899 113.724 38.5641C113.73 39.8906 113.825 41.7877 113.647 43.0451C109.547 43.293 107.247 43.397 103.083 43.1218Z" fill="#D19263"/>
<path d="M53.7386 22.1733L69.9945 22.2469C70.4064 24.087 70.793 24.8941 70.1085 26.6258L69.2149 27.4292C67.7763 28.9357 68.1565 28.1583 67.9791 30.5431C69.2149 32.4776 68.5495 31.9222 70.4191 32.9005L70.4508 38.6871C65.7927 38.4905 58.8911 38.8152 54.0619 38.8887C54.1189 33.4237 53.8781 27.6606 53.7386 22.1733Z" fill="#B3754D"/>
<path d="M70.4191 32.9005C67.32 32.827 67.4912 33.3159 65.3301 31.8239C64.2971 29.5558 64.3224 30.4486 64.9308 28.3974C66.8194 26.9574 66.3567 27.4 69.2149 27.4292C67.7763 28.9357 68.1565 28.1583 67.9791 30.5431C69.2149 32.4776 68.5495 31.9222 70.4191 32.9005Z" fill="#A3633B"/>
<path d="M38.0278 38.5375C41.4881 38.3301 45.1829 38.6307 48.6622 38.8209L49.4418 40.8011C51.3811 40.1391 51.6726 40.1258 53.6056 41.3686L54.0619 38.8887C58.8911 38.8152 65.7927 38.4905 70.4508 38.6871L70.5395 43.2702L70.4825 43.7641C70.9641 46.2104 70.9515 46.5978 70.774 49.0421L54.4104 48.9166L53.9034 48.5723L53.9541 47.5641L49.7459 47.384L49.4228 43.7755L43.2563 43.9569C41.0825 44.0139 40.7784 43.9848 38.7123 43.331L38.1039 43.0108L38.0278 38.5375Z" fill="#4B2716"/>
<path d="M54.0619 38.8887C58.8911 38.8152 65.7927 38.4905 70.4508 38.6871L70.5395 43.2702C65.818 43.2454 60.0825 43.4426 55.4181 42.9468C54.2267 42.8206 54.3217 42.4801 53.6056 41.3686L54.0619 38.8887Z" fill="#D19263"/>
<path d="M38.0278 38.5375C41.4881 38.3301 45.1829 38.6307 48.6622 38.8209L49.4418 40.8011C47.6483 44.8167 42.9268 43.4617 38.7123 43.331L38.1039 43.0108L38.0278 38.5375Z" fill="#D19263"/>
<path d="M49.4418 40.8011C51.3811 40.1391 51.6726 40.1258 53.6056 41.3686C54.3217 42.4801 54.2267 42.8206 55.4181 42.9468C60.0825 43.4426 65.818 43.2454 70.5395 43.2702L70.4825 43.7641C65.2794 43.9607 59.2523 43.7387 53.9795 43.6614L53.9541 47.5641L49.7459 47.384L49.4228 43.7755L43.2563 43.9569C41.0825 44.0139 40.7784 43.9848 38.7123 43.331C42.9268 43.4617 47.6483 44.8167 49.4418 40.8011Z" fill="#844D33"/>
<path d="M49.4228 43.7755L53.9795 43.6614L53.9541 47.5641L49.7459 47.384L49.4228 43.7755Z" fill="#572E1C"/>
<path d="M43.2881 28.0436C43.1803 25.8725 42.8317 24.255 43.8837 22.4371L45.3541 22.0465C46.78 22.1378 50.3544 22.2076 51.4128 22.7427L52.9085 24.9525C49.6003 27.6111 49.1629 26.8287 48.808 30.6775C48.5545 33.3875 48.8334 36.3176 48.6622 38.8209C45.1829 38.6307 41.4881 38.3301 38.0278 38.5375L38.1166 33.0318L42.1726 32.607C43.6239 30.9362 43.1486 30.8113 43.2881 28.0436Z" fill="#B3754D"/>
<path d="M81.0979 22.2894L92.0365 22.1581C92.0112 26.9904 91.7639 34.0476 92.0491 38.7011C91.8653 41.8055 92.404 41.4098 90.6422 42.9886C88.0818 43.8738 84.0259 43.2841 81.193 43.073L81.2753 38.689L81.1295 38.2661L81.0979 22.2894Z" fill="#B3754D"/>
<path d="M81.2753 38.689L92.0491 38.7011C91.8653 41.8055 92.404 41.4098 90.6422 42.9886C88.0818 43.8738 84.0259 43.2841 81.193 43.073L81.2753 38.689Z" fill="#D19263"/>
<path d="M81.1295 38.2661L81.2753 38.689L81.193 43.073C77.663 43.0723 77.1496 43.5371 74.8934 40.7903L75.3054 39.3801C77.777 37.7322 77.6122 38.2864 81.1295 38.2661Z" fill="#AB6735"/>
<path d="M59.6009 102.506L60.0002 102.662L60.0572 103.1L65.3301 104.068C65.8244 103.313 66.6419 102.827 67.5419 102.747C68.4355 102.667 69.3227 103.002 69.9438 103.657C70.9959 104.761 71.0338 106.481 70.0325 107.631L70.3938 108.748C70.4255 111.293 69.9628 111.817 71.2936 113.414C72.7259 113.426 74.0695 113.432 75.5018 113.386L75.8377 113.523L81.1612 113.731C81.1993 110.864 80.7112 110.864 82.1498 109.082C87.1565 107.368 91.8907 108.61 97.6135 108.487L97.6262 124.869C95.5158 124.718 92.7906 124.708 90.6739 124.745C71.5916 125.072 52.5282 124.815 33.4458 124.836C29.7574 124.84 26.164 124.981 22.5072 124.467C21.227 122.683 21.6707 121.822 21.6263 119.238L26.9752 119.215C27.0703 117.291 26.9182 116.375 27.9956 114.794C30.2264 113.412 33.6677 114.519 37.4449 114.053L38.0469 113.976L37.9708 108.394C40.6453 108.504 41.1143 108.028 42.743 109.478C43.6303 112.288 43.2247 112.72 45.1576 114.061L48.8461 114.028C48.9285 110.812 48.77 106.584 48.7257 103.297L53.8274 102.783L54.3788 102.773C55.9695 102.711 58.0609 102.697 59.6009 102.506Z" fill="#937055"/>
<path d="M59.6009 102.506L60.0002 102.662L60.0572 103.1L65.3301 104.068C65.8244 103.313 66.6419 102.827 67.5419 102.747C68.4355 102.667 69.3227 103.002 69.9438 103.657C70.9959 104.761 71.0338 106.481 70.0325 107.631L70.3938 108.748C70.4255 111.293 69.9628 111.817 71.2936 113.414C72.7259 113.426 74.0695 113.432 75.5018 113.386L75.8377 113.523L81.1612 113.731C78.3157 114.13 77.796 113.671 76.2496 115.321L75.825 119.233L70.7233 119.195C67.32 119.276 63.4858 119.191 60.0445 119.183L56.261 119.231C51.7804 116.422 57.18 114.239 48.8461 114.028C48.9285 110.812 48.77 106.584 48.7257 103.297L53.8274 102.783L54.3788 102.773C55.9695 102.711 58.0609 102.697 59.6009 102.506Z" fill="#693922"/>
<path d="M48.7257 103.297L53.8274 102.783C53.8274 105.812 53.5422 110.753 55.266 113.106C56.8124 113.693 57.2877 113.844 58.9165 114.11L59.5882 114.764C59.3474 116.772 59.0749 117.429 60.0445 119.183L56.261 119.231C51.7804 116.422 57.18 114.239 48.8461 114.028C48.9285 110.812 48.77 106.584 48.7257 103.297Z" fill="#844D33"/>
<path d="M65.4822 114.293C66.1223 113.578 67.0729 113.225 68.0235 113.352C68.9741 113.48 69.8044 114.069 70.2353 114.927C70.698 115.857 70.6345 116.965 70.0578 117.832L70.7233 119.195C67.32 119.276 63.4858 119.191 60.0445 119.183C59.0749 117.429 59.3474 116.772 59.5882 114.764L60.7417 114.514L64.7216 114.023L65.4822 114.293Z" fill="#7D442C"/>
<path d="M65.4822 114.293C66.1223 113.578 67.0729 113.225 68.0235 113.352C68.9741 113.48 69.8044 114.069 70.2353 114.927C70.698 115.857 70.6345 116.965 70.0578 117.832C69.4557 118.736 68.4038 119.229 67.3201 119.11C66.2427 118.99 65.3237 118.277 64.9371 117.263C64.5442 116.249 64.7597 115.102 65.4822 114.293Z" fill="#925C41"/>
<path d="M59.6009 102.506L60.0002 102.662L60.0572 103.1C59.753 105.031 59.5122 106.422 59.4869 108.405C57.63 108.411 57.1356 108.369 55.3231 107.985C53.9795 105.962 54.4421 105.648 54.3788 102.773C55.9695 102.711 58.0609 102.697 59.6009 102.506Z" fill="#572E1C"/>
<path d="M65.3301 104.068C65.8244 103.313 66.6419 102.827 67.5419 102.747C68.4355 102.667 69.3227 103.002 69.9438 103.657C70.9959 104.761 71.0338 106.481 70.0325 107.631C69.4621 108.287 68.6383 108.66 67.77 108.65C66.9018 108.64 66.0842 108.251 65.5265 107.583C64.6963 106.582 64.6139 105.155 65.3301 104.068Z" fill="#572E1C"/>
<path d="M70.2353 114.927C72.4915 114.816 73.385 114.4 75.1976 115.299L75.825 119.233L70.7233 119.195L70.0578 117.832C70.6345 116.965 70.698 115.857 70.2353 114.927Z" fill="#412117"/>
<path d="M60.7417 114.514C59.3284 112.755 59.7023 113.603 59.4805 111.183C60.7417 109.183 60.0191 109.786 62.1866 108.893C64.2083 109.625 63.5365 109.091 64.7026 110.914L64.7216 114.023L60.7417 114.514Z" fill="#572E1C"/>
<path d="M60.0572 103.1L65.3301 104.068C64.6139 105.155 64.6963 106.582 65.5265 107.583L59.4869 108.405C59.5122 106.422 59.753 105.031 60.0572 103.1Z" fill="#BC7D53"/>
<path d="M48.8461 114.028C57.18 114.239 51.7804 116.422 56.261 119.231L60.0445 119.183C63.4858 119.191 67.32 119.276 70.7233 119.195C70.6092 120.893 70.7233 122.915 69.7474 124.155C66.7307 124.393 56.5716 124.957 54.3281 123.901C54.0936 122.391 54.0366 121.418 53.9732 119.89C52.4902 118.859 51.8501 118.926 50.0946 118.903L49.5369 118.898C48.4595 117.412 48.8651 116.213 48.8461 114.028Z" fill="#331F1A"/>
<path d="M37.9899 16.5795L129.941 16.5364L129.929 27.114C128.211 27.218 127.121 27.4608 125.568 26.7431C124.763 24.9962 124.789 23.9081 124.605 22.011C121.157 21.2653 114.167 21.7276 110.346 21.5881C97.3917 21.1144 83.0498 22.3769 70.305 21.8874C64.4554 21.1512 51.4064 21.6096 45.3541 22.0465L43.8837 22.4371C42.8317 24.255 43.1803 25.8725 43.2881 28.0436L38.0532 27.9034L37.9899 16.5795Z" fill="#572E1C"/>
<path d="M124.605 22.011C124.789 23.9081 124.763 24.9962 125.568 26.7431C127.121 27.4608 128.211 27.218 129.929 27.114C129.998 29.7758 129.51 30.6395 130.911 32.2836C132.419 32.4535 133.693 32.5879 135.189 32.8809C135.163 37.0524 135.493 42.0014 135.1 46.095C134.764 49.6141 132.045 49.1601 129.251 48.7974L128.896 48.4816C126.734 48.3764 126.132 48.2882 124.06 47.8158L121.614 48.7314L119.548 49.1778L119.085 51.3134C119.003 50.2462 118.515 49.5526 118.008 48.5995C118.673 47.6155 118.838 45.0627 118.996 43.7521L118.977 43.2271L114.249 43.1827L113.647 43.0451C113.825 41.7877 113.73 39.8906 113.724 38.5641L113.628 33.8244C111.569 31.8436 112.145 30.6781 110.872 28.1824L108.273 27.4406L112.329 27.2935C113.793 25.8605 113.445 24.7781 113.768 22.2963C116.233 22.2811 122.095 22.0776 124.231 22.5538L124.605 22.011Z" fill="#B3754D"/>
<path d="M135.189 32.8809C135.163 37.0524 135.493 42.0014 135.1 46.095C134.764 49.6141 132.045 49.1601 129.251 48.7974L128.896 48.4816C130.201 46.4526 129.764 46.1476 129.859 43.3456L129.96 38.8456L129.948 33.0749C131.456 33.0578 133.769 33.1066 135.189 32.8809Z" fill="#572E1C"/>
<path d="M118.977 43.2271C122.438 43.2936 126.449 43.4718 129.859 43.3456C129.764 46.1476 130.201 46.4526 128.896 48.4816C126.734 48.3764 126.132 48.2882 124.06 47.8158L121.614 48.7314L119.548 49.1778L119.085 51.3134C119.003 50.2462 118.515 49.5526 118.008 48.5995C118.673 47.6155 118.838 45.0627 118.996 43.7521L118.977 43.2271Z" fill="#693922"/>
<path d="M118.996 43.7521C121.455 43.9461 122.229 43.5162 123.534 44.9384L124.06 47.8158L121.614 48.7314L119.548 49.1778L119.085 51.3134C119.003 50.2462 118.515 49.5526 118.008 48.5995C118.673 47.6155 118.838 45.0627 118.996 43.7521Z" fill="#412117"/>
<path d="M113.527 33.0787C116.398 32.9678 116.652 32.4954 118.806 33.6912C119.396 35.6505 119.206 36.5826 119.079 38.604L118.977 43.2271L114.249 43.1827L113.647 43.0451C113.825 41.7877 113.73 39.8906 113.724 38.5641L113.628 33.8244L113.527 33.0787Z" fill="#A3633B"/>
<path d="M119.079 38.604C122.165 38.6687 127.007 38.6231 129.96 38.8456L129.859 43.3456C126.449 43.4718 122.438 43.2936 118.977 43.2271L119.079 38.604Z" fill="#D19263"/>
<path d="M124.605 22.011C124.789 23.9081 124.763 24.9962 125.568 26.7431C127.121 27.4608 128.211 27.218 129.929 27.114C129.998 29.7758 129.51 30.6395 130.911 32.2836C132.419 32.4535 133.693 32.5879 135.189 32.8809C133.769 33.1066 131.456 33.0578 129.948 33.0749C128.072 33.0109 127.184 33.113 125.435 32.3667C123.648 30.1176 124.212 25.7292 124.231 22.5538L124.605 22.011Z" fill="#844D33"/>
<path d="M113.768 22.2963C113.964 25.2537 114.11 30.1702 113.527 33.0787L113.628 33.8244C111.569 31.8436 112.145 30.6781 110.872 28.1824L108.273 27.4406L112.329 27.2935C113.793 25.8605 113.445 24.7781 113.768 22.2963Z" fill="#A3633B"/>
<path d="M43.2563 43.9569L49.4228 43.7755L49.7459 47.384L49.1629 48.7803C48.9665 52.2423 48.6812 55.8685 48.8333 59.3192L48.9411 64.8749L48.7827 65.1615C47.9081 65.0246 44.6062 65.2554 43.5289 65.3055C43.5605 68.2285 43.7 71.7191 43.5986 74.5921C43.5859 76.8037 43.6239 79.1764 43.5479 81.3709C40.9748 81.3855 40.1826 80.9366 38.351 82.1711C37.8567 84.0442 37.9391 84.8469 37.9708 86.7288C38.0088 89.4452 38.5285 89.9658 37.1216 91.6239C35.9935 91.7425 33.3824 91.9384 32.4001 92.1476L28.7307 92.0665C26.9499 90.5225 27.4822 90.3342 27.0766 87.2824C28.5976 87.0211 29.7384 86.8157 31.2213 86.4086C32.9642 84.5591 32.7107 85.2965 33.1797 83.2281C32.4191 81.4045 32.267 80.8561 31.8868 78.9164C33.712 73.3601 34.2063 77.3338 37.749 75.1247C38.6743 71.7876 38.085 53.8833 38.0152 49.3313L38.2243 48.9362L42.5846 48.4613C43.4021 47.3631 43.2183 45.4273 43.2563 43.9569Z" fill="#331F1A"/>
<path d="M49.1629 48.7803C48.9665 52.2423 48.6812 55.8685 48.8333 59.3192L48.9411 64.8749L48.7827 65.1615C47.9081 65.0246 44.6062 65.2554 43.5289 65.3055C43.5859 59.5265 42.4895 55.0918 44.3654 49.8728C46.1716 48.4233 46.3174 48.9033 49.1629 48.7803Z" fill="#693922"/>
<path d="M43.2563 43.9569L49.4228 43.7755L49.7459 47.384L49.1629 48.7803C46.3174 48.9033 46.1716 48.4233 44.3654 49.8728C42.4895 55.0918 43.5859 59.5265 43.5289 65.3055C43.5605 68.2285 43.7 71.7191 43.5986 74.5921C41.5325 69.1841 44.0422 54.1293 42.5846 48.4613C43.4021 47.3631 43.2183 45.4273 43.2563 43.9569Z" fill="#412117"/>
<path d="M124.06 47.8158C126.132 48.2882 126.734 48.3764 128.896 48.4816L129.251 48.7974C129.314 51.9715 129.39 54.7126 129.143 57.8976C129.212 63.3937 129.048 71.7723 129.453 77.0389C127.134 76.4176 127.273 76.0213 125.473 76.8887C124.123 79.6063 125.372 83.2091 124.472 86.9495L124.206 86.479C122.311 86.7561 121.177 86.9419 119.218 86.9311C118.863 85.0587 118.496 83.6447 117.995 81.8186L119.218 81.4084L119.205 76.058L119.098 71.4915L119.218 70.4801L119.364 65.8558L119.269 63.9872L119.167 58.746L119.123 54.4267L119.085 51.3134L119.548 49.1778L121.614 48.7314L124.06 47.8158Z" fill="#693922"/>
<path d="M124.212 66.6516C132.115 64.5515 126.158 61.9893 129.143 57.8976C129.212 63.3937 129.048 71.7723 129.453 77.0389C127.134 76.4176 127.273 76.0213 125.473 76.8887C124.123 79.6063 125.372 83.2091 124.472 86.9495L124.206 86.479C122.311 86.7561 121.177 86.9419 119.218 86.9311C118.863 85.0587 118.496 83.6447 117.995 81.8186L119.218 81.4084L119.205 76.058L124.193 75.9813L124.142 71.1554C124.307 70.1003 124.225 67.8145 124.212 66.6516Z" fill="#572E1C"/>
<path d="M119.205 76.058L124.193 75.9813L124.206 86.479C122.311 86.7561 121.177 86.9419 119.218 86.9311C118.863 85.0587 118.496 83.6447 117.995 81.8186L119.218 81.4084L119.205 76.058Z" fill="#AB6735"/>
<path d="M124.06 47.8158C126.132 48.2882 126.734 48.3764 128.896 48.4816L129.251 48.7974C129.314 51.9715 129.39 54.7126 129.143 57.8976C126.158 61.9893 132.115 64.5515 124.212 66.6516C123.94 62.2778 125.245 52.3076 123.566 49.0662L121.614 48.7314L124.06 47.8158Z" fill="#412117"/>
<path d="M119.269 63.9872C120.435 65.2471 121.183 65.5439 122.748 66.2483C124.041 67.7796 123.94 69.1143 124.142 71.1554L124.193 75.9813L119.205 76.058L119.098 71.4915L119.218 70.4801L119.364 65.8558L119.269 63.9872Z" fill="#7D442C"/>
<path d="M124.472 86.9495C125.372 83.2091 124.123 79.6063 125.473 76.8887C127.273 76.0213 127.134 76.4176 129.453 77.0389C130.024 83.9205 129.897 90.8947 129.884 97.8042L129.986 102.855L124.238 103.209L119.313 103.255L116.468 102.898L114.744 102.804C113.495 101.297 113.945 100.741 113.926 98.3362L114.18 97.7585L113.654 97.3863L113.514 92.5084C117.57 91.8122 120.473 92.8419 122.951 92.1242C124.726 90.1123 124.18 90.2099 124.472 86.9495Z" fill="#331F1A"/>
<path d="M114.18 97.7585L129.884 97.8042L129.986 102.855L124.238 103.209L119.313 103.255L116.468 102.898L114.744 102.804C113.495 101.297 113.945 100.741 113.926 98.3362L114.18 97.7585Z" fill="#FDEB93"/>
<path d="M113.926 98.3362C115.878 98.3482 118.191 98.0394 119.573 99.1472C119.11 101.097 118.223 101.321 116.468 102.898L114.744 102.804C113.495 101.297 113.945 100.741 113.926 98.3362Z" fill="#FBE99F"/>
<path d="M16.2014 113.962C16.0937 112.004 15.8528 111.062 16.7147 109.311C19.1737 107.515 23.6607 108.259 27.0069 108.391L32.4128 108.398L37.9708 108.394L38.0469 113.976L37.4449 114.053C33.6677 114.519 30.2264 113.412 27.9956 114.794C26.9182 116.375 27.0703 117.291 26.9752 119.215L21.6263 119.238C19.7631 119.296 19.028 119.373 17.1774 118.926C15.9289 117.104 16.3218 116.473 16.2014 113.962Z" fill="#7D442C"/>
<path d="M32.4128 108.398L37.9708 108.394L38.0469 113.976C34.4789 113.319 30.7017 114.577 27.9386 113.095C26.614 111.019 27.0449 111.25 27.0069 108.391L32.4128 108.398Z" fill="#331F1A"/>
<path d="M16.2014 113.962C19.2054 113.882 23.7114 113.192 25.9739 114.35C27.1844 116.282 26.8105 116.623 26.9752 119.215L21.6263 119.238C19.7631 119.296 19.028 119.373 17.1774 118.926C15.9289 117.104 16.3218 116.473 16.2014 113.962Z" fill="#412117"/>
<path d="M37.9708 86.7288C43.3197 86.784 48.6686 86.8043 54.0112 86.7903L53.9034 91.9701C52.4838 92.0868 50.1707 92.2003 48.8461 92.4361L48.7574 97.5505L43.25 97.7218L37.9392 97.8067L37.673 97.7249L33.3001 97.7148L32.6093 97.5322C32.4952 95.9654 32.698 94.0733 32.8121 92.4805L32.4001 92.1476C33.3824 91.9384 35.9935 91.7425 37.1216 91.6239C38.5285 89.9658 38.0088 89.4452 37.9708 86.7288Z" fill="#693922"/>
<path d="M38.0786 92.5217C40.5122 92.1178 40.8861 92.1907 43.2627 92.5826L43.25 97.7218L37.9392 97.8067L37.673 97.7249L38.0786 92.5217Z" fill="#572E1C"/>
<path d="M43.2627 92.5826L48.8461 92.4361L48.7574 97.5505L43.25 97.7218L43.2627 92.5826Z" fill="#844D33"/>
<path d="M32.8121 92.4805L38.0786 92.5217L37.673 97.7249L33.3001 97.7148L32.6093 97.5322C32.4952 95.9654 32.698 94.0733 32.8121 92.4805Z" fill="#F6D9A5"/>
<path d="M43.25 97.7218L48.7574 97.5505L48.7257 103.297C48.77 106.584 48.9285 110.812 48.8461 114.028L45.1576 114.061C43.2247 112.72 43.6303 112.288 42.743 109.478C41.1143 108.028 40.6453 108.504 37.9708 108.394C37.9835 106.164 37.6159 105.411 38.6173 103.709C40.4235 103.215 41.4565 103.099 43.2753 102.879L43.25 97.7218Z" fill="#331F1A"/>
<path d="M32.6093 97.5322L33.3001 97.7148L37.673 97.7249L37.9392 97.8067L43.25 97.7218L43.2753 102.879C41.4565 103.099 40.4235 103.215 38.6173 103.709C37.6159 105.411 37.9835 106.164 37.9708 108.394L32.4128 108.398L27.0069 108.391L27.2477 103.062C28.8194 102.889 30.1059 102.711 31.6586 102.433C32.8754 100.684 32.4889 99.974 32.6093 97.5322Z" fill="#844D33"/>
<path d="M27.2477 103.062C29.694 103.394 30.9235 103.071 32.2861 104.532C32.3368 105.816 32.4001 107.114 32.4128 108.398L27.0069 108.391L27.2477 103.062Z" fill="#4B2716"/>
<path d="M37.9392 97.8067L43.25 97.7218L43.2753 102.879C41.3614 102.493 40.0178 102.652 38.0849 102.736L37.9392 97.8067Z" fill="#925C41"/>
<path d="M33.3001 97.7148L37.673 97.7249L37.9392 97.8067L38.0849 102.736C36.228 102.862 35.5246 102.995 33.7121 102.434C32.6981 100.642 33.148 100.096 33.3001 97.7148Z" fill="#412117"/>
<path d="M32.5332 32.8441C34.4535 33.0014 36.2026 33.229 38.1166 33.0318L38.0278 38.5375L38.1039 43.0108L38.7123 43.331C40.7784 43.9848 41.0825 44.0139 43.2563 43.9569C43.2183 45.4273 43.4021 47.3631 42.5846 48.4613L38.2243 48.9362L38.0152 49.3313L34.8274 48.8113L32.9071 49.4334C32.1403 45.835 32.4888 36.9352 32.5332 32.8441Z" fill="#693922"/>
<path d="M38.1039 43.0108L38.7123 43.331C40.7784 43.9848 41.0825 44.0139 43.2563 43.9569C43.2183 45.4273 43.4021 47.3631 42.5846 48.4613L38.2243 48.9362L37.8441 43.9816L38.1039 43.0108Z" fill="#693922"/>
<path d="M37.2928 43.8205L37.8441 43.9816L38.2243 48.9362L38.0152 49.3313L34.8274 48.8113C35.252 46.0436 34.9796 45.1286 37.2928 43.8205Z" fill="#4B2716"/>
<path d="M32.9071 49.4334C32.9958 47.308 32.8311 45.2352 33.8324 43.4426C35.7337 42.9164 35.0873 43.052 37.2928 43.8205C34.9796 45.1286 35.252 46.0436 34.8274 48.8113L32.9071 49.4334Z" fill="#572E1C"/>
<path d="M21.9749 92.2478L25.7711 91.7824C27.3238 90.2632 26.8548 89.9696 27.0766 87.2824C27.4822 90.3342 26.9499 90.5225 28.7307 92.0665L32.4001 92.1476L32.8121 92.4805C32.698 94.0733 32.4952 95.9654 32.6093 97.5322L26.8675 97.8061C25.074 97.8111 24.624 97.794 22.8748 97.3933C21.6707 95.5323 22.0636 94.7625 21.9749 92.2478Z" fill="#7D442C"/>
<path d="M21.9749 92.2478C24.8078 92.4564 25.1563 91.9923 26.9562 93.4716C27.0513 95.2501 27.0513 96.0364 26.8675 97.8061C25.074 97.8111 24.624 97.794 22.8748 97.3933C21.6707 95.5323 22.0636 94.7625 21.9749 92.2478Z" fill="#412117"/>
<path d="M38.0532 27.9034L43.2881 28.0436C43.1486 30.8113 43.6239 30.9362 42.1726 32.607L38.1166 33.0318C36.2026 33.229 34.4535 33.0014 32.5332 32.8441L37.0836 32.302C38.4398 30.6077 37.9835 30.5919 38.0532 27.9034Z" fill="#844D33"/>
<path d="M129.884 97.8042C132.483 97.8289 133.566 97.3508 135.303 98.6551C135.556 100.198 135.683 101.203 135.766 102.763L134.175 102.958L129.986 102.855L129.884 97.8042Z" fill="#412117"/>
<path d="M135.74 103.251C138.732 103.297 138.922 102.771 140.747 104.279C140.931 105.97 140.994 106.757 140.924 108.453L135.341 108.404L135.74 103.251Z" fill="#4B2716"/>
<path d="M5.68746 141.346L10.2188 141.325C11.0997 143.183 10.9222 144.278 10.9222 146.336L10.523 146.484L5.70012 146.462L5.68746 141.346Z" fill="#E6AD7F"/>
</svg>
