<svg width="168" height="153" viewBox="0 0 168 153" fill="none" xmlns="http://www.w3.org/2000/svg">
<path d="M29.2425 0.0318339L138.762 0L138.983 14.2978C144.805 14.2281 156.598 12.6785 160.299 15.9412C160.815 18.258 160.789 18.8823 160.729 21.267C163.599 21.3323 165.626 20.8241 167.523 22.2688C168.138 29.4263 168.22 42.6776 167.404 49.7869C165.749 51.119 163.152 50.7827 160.646 50.732C160.697 55.0989 161.48 61.0224 159.543 64.3823C157.638 65.6404 156.229 65.3273 153.899 65.268C153.899 69.3348 154.554 69.192 152.632 71.9921C149.13 73.7757 143.629 72.4513 139.139 72.7824C138.994 76.7838 139.649 76.9102 137.678 79.6045C132.674 81.6426 129.286 76.7417 123.818 81.1181C123.194 83.2611 123.349 83.6042 123.606 85.8814C121.419 88.1001 121.141 87.4542 117.369 87.8688L116.99 88.1775C116.629 92.0009 117.292 92.1454 115.159 94.273C113.411 94.34 111.635 94.432 109.889 94.4449C109.735 97.7111 110.258 98.952 108.602 101.223C106.044 101.775 105.405 101.69 102.777 101.51C101.654 105.881 101.692 118.886 102.27 123.49L102.72 123.765C106.518 124 106.625 123.353 108.917 125.364C109.052 127.54 109.143 129.223 109.074 131.422C113.02 131.344 113.376 130.69 116.233 132.419C116.899 134.876 116.834 135.89 116.844 138.387C119.346 138.304 120.591 138.002 122.728 139.253C124.745 142.652 123.877 148.582 123.768 153L43.6993 152.932C43.8465 148.636 42.7715 143.294 44.5204 139.77C47.4174 137.802 47.0844 138.454 51.2432 138.449C51.238 136.161 51.349 135.024 51.6623 132.755C54.2478 130.905 54.5344 131.515 58.3145 131.35C58.1725 128.84 57.9814 127.605 58.6536 125.117C61.1194 123.438 61.9164 123.956 65.2937 123.773L65.7955 123.564C65.885 117.996 66.9239 105.235 64.1964 101.357C62.6971 101.281 61.1969 101.236 59.6967 101.221C57.718 98.6588 58.367 98.5461 58.1923 94.6273L57.6698 94.5533C55.9063 94.4209 54.4681 94.205 52.7184 93.9384C50.8739 91.6664 51.4842 90.2905 51.349 86.7698C48.8272 86.9263 47.4622 87.1516 44.9869 86.4197C43.2526 83.8338 43.7992 83.3479 43.5805 79.7455C35.5255 79.7352 31.2023 81.3287 27.7819 74.0981C26.892 72.2165 20.7278 72.4014 18.4126 72.2587C17.7077 72.3292 16.013 72.2157 15.2195 72.1873C13.5386 69.5833 14.1824 69.0252 14.2409 65.3033L14.3459 58.322L14.3898 50.6658L7.29868 50.6366C4.48857 50.5703 2.58475 51.0192 0.520847 49.7104C-0.149621 43.0258 -0.198685 29.0075 0.525145 22.3479C2.00723 20.9987 5.14441 21.0675 7.32106 20.8671C7.24963 16.8364 6.59981 17.367 8.65856 14.9161C14.994 12.7585 22.3158 14.3262 29.3174 14.278L29.2425 0.0318339Z" fill="#FED793"/>
<path d="M29.2425 0.0318339L138.762 0L138.983 14.2978C144.805 14.2281 156.598 12.6785 160.299 15.9412C160.815 18.258 160.789 18.8823 160.729 21.267C163.599 21.3323 165.626 20.8241 167.523 22.2688C168.138 29.4263 168.22 42.6776 167.404 49.7869C165.749 51.119 163.152 50.7827 160.646 50.732C160.697 55.0989 161.48 61.0224 159.543 64.3823C157.638 65.6404 156.229 65.3273 153.899 65.268C153.899 69.3348 154.554 69.192 152.632 71.9921C149.13 73.7757 143.629 72.4513 139.139 72.7824L138.877 72.3782L139.11 65.342L139.047 58.408C136.702 58.2128 134.354 58.0331 132.006 57.868C133.965 57.5679 137.01 57.6186 139.075 57.5859L138.934 50.6193L131.574 50.7733L131.459 13.4782L130.407 13.8799C100.713 12.7593 66.7319 14.4621 36.424 14.1525C36.4886 20.6151 37.6582 46.7477 35.0779 50.916L29.1022 50.566L21.8476 50.6718L14.3898 50.6658L7.29868 50.6366C4.48857 50.5703 2.58475 51.0192 0.520847 49.7104C-0.149621 43.0258 -0.198685 29.0075 0.525145 22.3479C2.00723 20.9987 5.14441 21.0675 7.32106 20.8671C7.24963 16.8364 6.59981 17.367 8.65856 14.9161C14.994 12.7585 22.3158 14.3262 29.3174 14.278L29.2425 0.0318339Z" fill="#9B7749"/>
<path d="M36.424 14.1525C36.4679 11.5614 36.1348 9.1277 37.5937 7.1773C43.3034 6.35087 128.305 5.77209 130.824 7.29509C131.492 7.69841 131.456 9.07439 131.537 9.79246C131.676 11.036 131.576 12.239 131.459 13.4782L130.407 13.8799C100.713 12.7593 66.7319 14.4621 36.424 14.1525Z" fill="#FEF2BA"/>
<path d="M138.934 50.6193C138.724 46.8346 137.839 40.3367 139.456 37.246C142.101 35.2285 142.144 35.9268 146.262 35.9062C146.726 41.1417 146.809 45.4836 146.876 50.7071L153.841 50.603L160.646 50.732C160.697 55.0989 161.48 61.0224 159.543 64.3823C157.638 65.6404 156.229 65.3273 153.899 65.268C153.899 69.3348 154.554 69.192 152.632 71.9921C149.13 73.7757 143.629 72.4513 139.139 72.7824L138.877 72.3782L139.11 65.342L139.047 58.408C136.702 58.2128 134.354 58.0331 132.006 57.868C133.965 57.5679 137.01 57.6186 139.075 57.5859L138.934 50.6193Z" fill="#ECB67B"/>
<path d="M139.11 65.342L145.957 65.1699L153.899 65.268C153.899 69.3348 154.554 69.192 152.632 71.9921C149.13 73.7757 143.629 72.4513 139.139 72.7824L138.877 72.3782L139.11 65.342Z" fill="#9B7749"/>
<path d="M138.934 50.6193C138.724 46.8346 137.839 40.3367 139.456 37.246C142.101 35.2285 142.144 35.9268 146.262 35.9062C146.104 40.998 145.951 45.4827 146.18 50.5909L138.934 50.6193Z" fill="#EFD8C3"/>
<path d="M153.841 50.603L160.646 50.732C160.697 55.0989 161.48 61.0224 159.543 64.3823C157.638 65.6404 156.229 65.3273 153.899 65.268L153.768 58.2318L153.841 50.603Z" fill="#9B7749"/>
<path d="M138.934 50.6193L146.18 50.5909C146.074 54.5502 146.754 55.0026 144.785 57.5438C142.227 57.8448 141.622 57.9024 139.075 57.5859L138.934 50.6193Z" fill="#9B7749"/>
<path d="M153.841 50.603L153.768 58.2318C151.522 58.1587 150.427 58.0064 148.211 57.6152C146.338 55.0258 146.982 54.5631 146.876 50.7071L153.841 50.603Z" fill="#FEE9B0"/>
<path d="M139.047 58.408C142.37 58.5224 143.596 57.9678 145.882 59.6413C146.252 62.1016 146.201 62.6838 145.957 65.1699L139.11 65.342L139.047 58.408Z" fill="#FEE9B0"/>
<path d="M153.71 28.5251C149.918 28.5758 142.289 29.201 139.237 27.3298C138.687 24.9511 138.854 24.4987 139.38 22.0917C142.979 20.6074 156.222 21.2154 160.729 21.267C163.599 21.3323 165.626 20.8241 167.523 22.2688C168.138 29.4263 168.22 42.6776 167.404 49.7869C165.749 51.119 163.152 50.7827 160.646 50.732L153.841 50.603L153.71 28.5251Z" fill="#FED793"/>
<path d="M160.729 21.267C163.599 21.3323 165.626 20.8241 167.523 22.2688C168.138 29.4263 168.22 42.6776 167.404 49.7869C165.749 51.119 163.152 50.7827 160.646 50.732L160.729 21.267Z" fill="#997547"/>
<path d="M7.29868 50.6366C4.48857 50.5703 2.58475 51.0192 0.520847 49.7104C-0.149621 43.0258 -0.198685 29.0075 0.525145 22.3479C2.00723 20.9987 5.14441 21.0675 7.32106 20.8671L8.90299 21.3134C10.6622 23.7549 12.48 26.1541 14.3537 28.5096L14.3382 35.5734L14.3898 50.6658L7.29868 50.6366Z" fill="#9B7749"/>
<path d="M7.24015 35.9887L14.3382 35.5734L14.3898 50.6658L7.29868 50.6366L7.24015 35.9887Z" fill="#FED793"/>
<path d="M7.32106 20.8671L8.90299 21.3134C10.6622 23.7549 12.48 26.1541 14.3537 28.5096L14.3382 35.5734L7.24015 35.9887L7.32106 20.8671Z" fill="#FEF2BA"/>
<path d="M8.90299 21.3134C16.2592 21.1337 23.7221 20.2333 30.1919 23.8959L29.857 26.6925C23.7135 29.2311 21.1565 28.6627 14.3537 28.5096C12.48 26.1541 10.6622 23.7549 8.90299 21.3134Z" fill="#FEE9B0"/>
<path d="M21.8476 50.6718C21.5859 45.96 19.9153 36.9175 25.8265 35.5261C30.6308 38.8868 29.3036 45.2841 29.1022 50.566L21.8476 50.6718Z" fill="#E6D1CC"/>
<path d="M78.9776 109.134L79.6034 109.115C82.8817 109.724 84.0591 109.983 87.4329 109.934L87.5552 124.23C89.6707 124.232 93.2855 124.039 95.1377 124.695C97.2008 125.012 97.8411 124.771 99.9334 124.399L102.27 123.49L102.72 123.765C106.518 124 106.625 123.353 108.917 125.364C109.052 127.54 109.143 129.223 109.074 131.422C113.02 131.344 113.376 130.69 116.233 132.419C116.899 134.876 116.834 135.89 116.844 138.387C119.346 138.304 120.591 138.002 122.728 139.253C124.745 142.652 123.877 148.582 123.768 153L43.6993 152.932C43.8465 148.636 42.7715 143.294 44.5204 139.77C47.4174 137.802 47.0844 138.454 51.2432 138.449C51.238 136.161 51.349 135.024 51.6623 132.755C54.2478 130.905 54.5344 131.515 58.3145 131.35C58.1725 128.84 57.9814 127.605 58.6536 125.117C61.1194 123.438 61.9164 123.956 65.2937 123.773L65.7955 123.564C68.0522 123.656 70.7367 123.845 72.9546 123.788L73.6492 123.725L73.7869 117.581C73.6251 115.008 73.3462 112.938 73.9599 110.407C76.004 108.683 75.8586 109.213 78.9776 109.134Z" fill="#997547"/>
<path d="M78.9776 109.134L79.6034 109.115C82.8817 109.724 84.0591 109.983 87.4329 109.934L87.5552 124.23C89.6707 124.232 93.2855 124.039 95.1377 124.695C97.2008 125.012 97.8411 124.771 99.9334 124.399L102.27 123.49L102.72 123.765C106.518 124 106.625 123.353 108.917 125.364C109.052 127.54 109.143 129.223 109.074 131.422L109.206 138.398C107.331 138.525 104.265 138.33 102.295 138.268C93.7098 138.228 81.3454 137.83 73.0433 138.207L66.1449 138.331L65.3996 138.014C62.1918 138.692 61.5945 138.809 58.231 138.651L51.2432 138.449C51.238 136.161 51.349 135.024 51.6623 132.755C54.2478 130.905 54.5344 131.515 58.3145 131.35C58.1725 128.84 57.9814 127.605 58.6536 125.117C61.1194 123.438 61.9164 123.956 65.2937 123.773L65.7955 123.564C68.0522 123.656 70.7367 123.845 72.9546 123.788L73.6492 123.725L73.7869 117.581C73.6251 115.008 73.3462 112.938 73.9599 110.407C76.004 108.683 75.8586 109.213 78.9776 109.134Z" fill="#FED793"/>
<path d="M65.2937 123.773L65.7955 123.564C68.0522 123.656 70.7367 123.845 72.9546 123.788L73.6492 123.725L73.4349 130.839C75.3955 130.696 77.5326 130.397 79.4286 130.761C75.6399 131.643 75.3232 131.018 73.4073 133.435L73.0433 138.207L66.1449 138.331L65.3996 138.014C62.1918 138.692 61.5945 138.809 58.231 138.651L51.2432 138.449C51.238 136.161 51.349 135.024 51.6623 132.755C54.2478 130.905 54.5344 131.515 58.3145 131.35C58.1725 128.84 57.9814 127.605 58.6536 125.117C61.1194 123.438 61.9164 123.956 65.2937 123.773Z" fill="#FED793"/>
<path d="M73.4349 130.839C75.3955 130.696 77.5326 130.397 79.4286 130.761C75.6399 131.643 75.3232 131.018 73.4073 133.435L73.0433 138.207L66.1449 138.331L65.3996 138.014C65.0837 134.984 65.0045 134.478 65.9418 131.46C69.2296 131.514 70.253 131.363 73.4349 130.839Z" fill="#FEF2BA"/>
<path d="M65.2937 123.773L65.7955 123.564C68.0522 123.656 70.7367 123.845 72.9546 123.788L73.6492 123.725L73.4349 130.839C70.253 131.363 69.2296 131.514 65.9418 131.46L65.9014 130.853C65.8618 128.383 65.5743 126.215 65.2937 123.773Z" fill="#FED793"/>
<path d="M65.2937 123.773C65.5743 126.215 65.8618 128.383 65.9014 130.853C63.0431 131.184 61.2064 131.436 58.3145 131.35C58.1725 128.84 57.9814 127.605 58.6536 125.117C61.1194 123.438 61.9164 123.956 65.2937 123.773Z" fill="#997547"/>
<path d="M58.3145 131.35L58.231 138.651L51.2432 138.449C51.238 136.161 51.349 135.024 51.6623 132.755C54.2478 130.905 54.5344 131.515 58.3145 131.35Z" fill="#997547"/>
<path d="M73.7869 117.581C73.6251 115.008 73.3462 112.938 73.9599 110.407C76.004 108.683 75.8586 109.213 78.9776 109.134C81.5278 111.965 80.8401 125.788 79.9347 129.602L79.4286 130.761C77.5326 130.397 75.3955 130.696 73.4349 130.839L73.6492 123.725L73.7869 117.581Z" fill="#FEE9B0"/>
<path d="M73.7869 117.581C77.561 119.055 77.1134 118.263 79.2823 121.135C79.6146 124.047 79.7712 126.683 79.9347 129.602L79.4286 130.761C77.5326 130.397 75.3955 130.696 73.4349 130.839L73.6492 123.725L73.7869 117.581Z" fill="#FEF2BA"/>
<path d="M102.136 130.914C104.742 131.267 106.399 131.558 109.074 131.422L109.206 138.398C107.331 138.525 104.265 138.33 102.295 138.268L102.06 131.548L102.136 130.914Z" fill="#F49A5C"/>
<path d="M102.72 123.765C106.518 124 106.625 123.353 108.917 125.364C109.052 127.54 109.143 129.223 109.074 131.422C106.399 131.558 104.742 131.267 102.136 130.914C102.083 127.798 102.232 126.784 102.72 123.765Z" fill="#997547"/>
<path d="M102.27 123.49L102.72 123.765C102.232 126.784 102.083 127.798 102.136 130.914L102.06 131.548C99.4841 131.589 98.6381 131.657 96.1499 131.056C94.5774 128.628 95.1403 128.018 95.1377 124.695C97.2008 125.012 97.8411 124.771 99.9334 124.399L102.27 123.49Z" fill="#ECB67B"/>
<path d="M109.074 131.422C113.02 131.344 113.376 130.69 116.233 132.419C116.899 134.876 116.834 135.89 116.844 138.387C116.935 141.225 117.376 143.336 115.838 145.577C110.988 146.184 56.8574 146.809 51.3542 145.732L51.2432 138.449L58.231 138.651C61.5945 138.809 62.1918 138.692 65.3996 138.014L66.1449 138.331L73.0433 138.207C81.3454 137.83 93.7098 138.228 102.295 138.268C104.265 138.33 107.331 138.525 109.206 138.398L109.074 131.422Z" fill="#F9C67C"/>
<path d="M65.3996 138.014L66.1449 138.331C66.0141 142.628 66.7371 142.33 64.5019 144.961C60.3577 146.575 56.3676 144.913 51.3542 145.732L51.2432 138.449L58.231 138.651C61.5945 138.809 62.1918 138.692 65.3996 138.014Z" fill="#FEE9B0"/>
<path d="M109.074 131.422C113.02 131.344 113.376 130.69 116.233 132.419C116.899 134.876 116.834 135.89 116.844 138.387L109.206 138.398L109.074 131.422Z" fill="#997547"/>
<path d="M43.5607 21.1019L58.0382 21.4931C58.1673 30.9459 59.4816 73.8238 56.9047 79.0627L53.9078 80.4396L51.269 78.4857L51.4936 72.9105L43.6933 72.7884C43.4411 68.885 43.5917 62.179 43.559 58.0839L43.6787 57.5859C43.3946 45.5662 43.547 33.1595 43.5607 21.1019Z" fill="#FEF2BA"/>
<path d="M43.6787 57.5859C48.1232 57.7029 48.2971 56.9711 51.281 59.1373C53.178 62.5987 52.4051 69.309 51.4936 72.9105L43.6933 72.7884C43.4411 68.885 43.5917 62.179 43.559 58.0839L43.6787 57.5859Z" fill="#FED793"/>
<path d="M14.3898 50.6658L21.8476 50.6718L29.1022 50.566L28.591 57.0614C30.7978 57.291 33.848 57.7046 35.9945 57.7441C38.401 57.696 41.3152 57.4415 43.559 58.0839C43.5917 62.179 43.4411 68.885 43.6933 72.7884L43.5805 79.7455C35.5255 79.7352 31.2023 81.3287 27.7819 74.0981C26.892 72.2165 20.7278 72.4014 18.4126 72.2587C17.7077 72.3292 16.013 72.2157 15.2195 72.1873C13.5386 69.5833 14.1824 69.0252 14.2409 65.3033L14.3459 58.322L14.3898 50.6658Z" fill="#9B7749"/>
<path d="M14.3898 50.6658L21.8476 50.6718L29.1022 50.566L28.591 57.0614L26.4677 57.6925L28.399 58.3083C29.536 60.7067 29.1978 62.5453 29.0893 65.2284L29.0351 72.2002C24.6198 71.5638 22.9053 71.8184 18.4126 72.2587C17.7077 72.3292 16.013 72.2157 15.2195 72.1873C13.5386 69.5833 14.1824 69.0252 14.2409 65.3033L14.3459 58.322L14.3898 50.6658Z" fill="#997547"/>
<path d="M14.3898 50.6658L21.8476 50.6718L29.1022 50.566L28.591 57.0614L26.4677 57.6925L22.1428 58.7366L21.3157 58.949C19.6744 58.4201 16.2127 58.4063 14.3459 58.322L14.3898 50.6658Z" fill="#FEE9B0"/>
<path d="M21.8476 50.6718L29.1022 50.566L28.591 57.0614L26.4677 57.6925L22.1428 58.7366L21.8476 50.6718Z" fill="#9B7749"/>
<path d="M26.4677 57.6925L28.399 58.3083C29.536 60.7067 29.1978 62.5453 29.0893 65.2284L21.2993 65.2413L21.3157 58.949L22.1428 58.7366L26.4677 57.6925Z" fill="#FEE9B0"/>
<path d="M14.3459 58.322C16.2127 58.4063 19.6744 58.4201 21.3157 58.949L21.2993 65.2413L14.2409 65.3033L14.3459 58.322Z" fill="#ECB67B"/>
<path d="M29.0893 65.2284C33.7344 65.3247 33.2696 64.568 36.2553 66.9294C37.1719 69.6762 37.2305 68.5049 35.893 71.3144C32.7765 73.0447 33.1801 72.4375 29.0351 72.2002L29.0893 65.2284Z" fill="#FED793"/>
<path d="M132.006 57.868C134.354 58.0331 136.702 58.2128 139.047 58.408L139.11 65.342L138.877 72.3782L139.139 72.7824C138.994 76.7838 139.649 76.9102 137.678 79.6045C132.674 81.6426 129.286 76.7417 123.818 81.1181C123.194 83.2611 123.349 83.6042 123.606 85.8814C121.419 88.1001 121.141 87.4542 117.369 87.8688L117.014 79.6208L117.354 72.6173C120.985 72.5081 120.726 73.0387 123.499 71.3574C125.019 68.2616 124.356 61.6604 124.428 57.6246L132.006 57.868Z" fill="#9B7749"/>
<path d="M139.11 65.342L138.877 72.3782C137.118 72.3747 135.246 72.2432 133.482 72.152C131.111 70.4321 131.797 71.3669 130.848 68.6511L131.856 66.7153C134.912 64.8216 134.966 65.4529 139.11 65.342Z" fill="#F9C67C"/>
<path d="M95.4312 94.4656L102.101 94.3151L102.357 101.222L102.777 101.51C101.654 105.881 101.692 118.886 102.27 123.49L99.9334 124.399C97.8411 124.771 97.2008 125.012 95.1377 124.695C93.2855 124.039 89.6707 124.232 87.5552 124.23L87.4329 109.934C87.4261 107.818 87.4381 105.703 87.4691 103.587C89.224 101.436 90.4978 101.905 93.8639 100.893L95.1506 95.3135L95.4312 94.4656Z" fill="#9B7749"/>
<path d="M95.1506 95.3135C95.1687 97.177 95.2884 99.9487 95.13 101.722C94.9484 107.776 94.1858 117.668 95.9752 123.185C97.3996 124.431 98.0382 124.281 99.9334 124.399C97.8411 124.771 97.2008 125.012 95.1377 124.695C93.2855 124.039 89.6707 124.232 87.5552 124.23L87.4329 109.934C87.4261 107.818 87.4381 105.703 87.4691 103.587C89.224 101.436 90.4978 101.905 93.8639 100.893L95.1506 95.3135Z" fill="#F0A366"/>
<path d="M95.4312 94.4656L102.101 94.3151L102.357 101.222L95.13 101.722C95.2884 99.9487 95.1687 97.177 95.1506 95.3135L95.4312 94.4656Z" fill="#F49A5C"/>
<path d="M130.407 13.8799L131.459 13.4782L131.574 50.7733L138.934 50.6193L139.075 57.5859C137.01 57.6186 133.965 57.5679 132.006 57.868L124.428 57.6246L124.455 52.9937C124.476 43.5943 123.8 25.1196 124.953 15.2885C125.037 14.5782 129.152 14.1103 130.407 13.8799Z" fill="#F0A366"/>
<path d="M131.574 50.7733L138.934 50.6193L139.075 57.5859C137.01 57.6186 133.965 57.5679 132.006 57.868C131.789 55.7533 131.7 52.949 131.574 50.7733Z" fill="#FEF2BA"/>
<path d="M58.1923 94.6273C60.8122 94.3899 63.3546 94.0596 65.9737 94.3383C66.064 97.8633 65.4297 99.038 67.2698 101.287C69.3733 101.538 71.4743 101.814 73.5709 102.114L74.1217 102.064L80.5897 102.255L79.6034 109.115L78.9776 109.134C75.8586 109.213 76.004 108.683 73.9599 110.407C73.3462 112.938 73.6251 115.008 73.7869 117.581L73.6492 123.725L72.9546 123.788C70.7367 123.845 68.0522 123.656 65.7955 123.564C65.885 117.996 66.9239 105.235 64.1964 101.357C62.6971 101.281 61.1969 101.236 59.6967 101.221C57.718 98.6588 58.367 98.5461 58.1923 94.6273Z" fill="#997547"/>
<path d="M73.5709 102.114L74.1217 102.064L80.5897 102.255L79.6034 109.115L78.9776 109.134C75.8586 109.213 76.004 108.683 73.9599 110.407C73.3462 112.938 73.6251 115.008 73.7869 117.581L73.6492 123.725L72.9546 123.788C72.9452 116.863 72.7369 108.888 73.5709 102.114Z" fill="#ECB67B"/>
<path d="M43.6933 72.7884L51.4936 72.9105L51.269 78.4857L53.9078 80.4396L58.1028 80.0947L58.2964 86.774L51.349 86.7698C48.8272 86.9263 47.4622 87.1516 44.9869 86.4197C43.2526 83.8338 43.7992 83.3479 43.5805 79.7455L43.6933 72.7884Z" fill="#997547"/>
<path d="M51.269 78.4857L53.9078 80.4396L58.1028 80.0947L58.2964 86.774L51.349 86.7698L51.269 78.4857Z" fill="#F9C67C"/>
<path d="M95.4312 94.4656C99.2096 93.3502 100.52 93.8567 102.04 90.2879C103.626 86.5668 106.105 87.4577 109.848 87.4259L109.889 94.4449C109.735 97.7111 110.258 98.952 108.602 101.223C106.044 101.775 105.405 101.69 102.777 101.51L102.357 101.222L102.101 94.3151L95.4312 94.4656Z" fill="#F0A366"/>
<path d="M102.101 94.3151L109.889 94.4449C109.735 97.7111 110.258 98.952 108.602 101.223C106.044 101.775 105.405 101.69 102.777 101.51L102.357 101.222L102.101 94.3151Z" fill="#997547"/>
<path d="M124.455 52.9937L124.428 57.6246C124.356 61.6604 125.019 68.2616 123.499 71.3574C120.726 73.0387 120.985 72.5081 117.354 72.6173C116.384 51.7356 120.001 64.2146 124.455 52.9937Z" fill="#F9C67C"/>
<path d="M117.014 79.6208L117.369 87.8688L116.99 88.1775C116.629 92.0009 117.292 92.1454 115.159 94.273C113.411 94.34 111.635 94.432 109.889 94.4449L109.848 87.4259C109.715 84.7213 109.397 83.0074 110.354 80.4757C112.889 78.8864 113.539 79.5082 117.014 79.6208Z" fill="#ECB67B"/>
<path d="M109.848 87.4259C112.136 87.5187 114.89 87.4457 116.99 88.1775C116.629 92.0009 117.292 92.1454 115.159 94.273C113.411 94.34 111.635 94.432 109.889 94.4449L109.848 87.4259Z" fill="#9B7749"/>
<path d="M58.2964 86.774C62.4389 86.934 62.8382 86.1806 65.014 88.3925C65.2318 89.7572 65.5975 92.6149 65.9229 93.8197L65.9737 94.3383C63.3546 94.0596 60.8122 94.3899 58.1923 94.6273L57.6698 94.5533C55.9063 94.4209 54.4681 94.205 52.7184 93.9384C50.8739 91.6664 51.4842 90.2905 51.349 86.7698L58.2964 86.774Z" fill="#F9C67C"/>
<path d="M51.349 86.7698L58.2964 86.774C58.2431 89.0314 58.361 92.5358 57.6698 94.5533C55.9063 94.4209 54.4681 94.205 52.7184 93.9384C50.8739 91.6664 51.4842 90.2905 51.349 86.7698Z" fill="#997547"/>
<path d="M80.5897 102.255C85.5016 100.912 89.1672 99.3037 93.8639 100.893C90.4978 101.905 89.224 101.436 87.4691 103.587C87.4381 105.703 87.4261 107.818 87.4329 109.934C84.0591 109.983 82.8817 109.724 79.6034 109.115L80.5897 102.255Z" fill="#F9C67C"/>
<path d="M58.1028 80.0947C61.6445 80.1007 62.7212 79.4446 65.0519 81.2255C65.4504 83.139 65.743 84.6835 65.9952 86.6218L65.9229 93.8197C65.5975 92.6149 65.2318 89.7572 65.014 88.3925C62.8382 86.1806 62.4389 86.934 58.2964 86.774L58.1028 80.0947Z" fill="#FEE9B0"/>
<path d="M65.9737 94.3383L72.9322 94.463C73.0923 96.4667 73.1397 100.585 74.1217 102.064L73.5709 102.114C71.4743 101.814 69.3733 101.538 67.2698 101.287C65.4297 99.038 66.064 97.8633 65.9737 94.3383Z" fill="#ECB67B"/>
<path d="M65.9952 86.6218C69.6169 87.1077 69.9999 86.5693 72.4365 88.5309C73.1964 91.0584 73.0648 91.8048 72.9322 94.463L65.9737 94.3383L65.9229 93.8197L65.9952 86.6218Z" fill="#FEF2BA"/>
<path d="M29.1022 50.566L35.0779 50.916C36.3233 53.2207 36.0445 55.1505 35.9945 57.7441C33.848 57.7046 30.7978 57.291 28.591 57.0614L29.1022 50.566Z" fill="#EFD8C3"/>
<path d="M80.6955 27.4175C82.7009 27.4553 84.5763 27.6359 86.5697 27.8053C89.86 31.6751 85.1986 60.5649 88.8496 65.2027C91.3852 65.4821 92.9163 65.4107 94.8993 67.0739C95.5044 69.7914 95.4699 68.6915 94.1961 71.827C90.0933 72.8082 81.5623 72.4358 76.9559 72.392C74.1665 72.4805 73.0734 72.0669 72.0432 69.5592C73.7791 64.6617 76.1262 66.6861 80.2428 64.0469C80.7859 59.5363 80.3375 54.2691 80.6577 50.106C81.4332 40.0297 75.2096 44.6761 71.6412 38.8971C73.4039 34.6136 77.2528 36.3697 80.1774 34.2869C80.8789 33.7881 80.6697 28.8708 80.6955 27.4175Z" fill="#997547"/>
<path d="M7.29868 50.6366L14.3898 50.6658L14.3459 58.322L14.2409 65.3033C11.7105 65.4013 10.5133 65.7151 8.37367 64.4175C6.51547 61.2184 7.31159 54.8581 7.29868 50.6366Z" fill="#997547"/>
</svg>
