<svg width="154" height="113" viewBox="0 0 154 113" fill="none" xmlns="http://www.w3.org/2000/svg">
<path d="M111.462 5.63025C111.769 2.31829 111.186 2.4331 113.055 0.635142C115.999 -0.577019 120.291 0.316111 123.653 0.329175C123.635 3.2891 123.381 9.53281 124.033 12.1283L129.029 12.0706L129.21 6.10741C133.981 6.0139 144.176 4.95369 147.298 7.60422L147.549 10.5896C149.492 12.1854 149.85 11.7069 152.861 11.9915L152.792 29.7091C149.635 29.9106 149.262 29.3619 147.447 31.0506L147.072 33.6983L147.351 41.0662C148.621 41.1322 151.274 40.8799 151.949 41.9855C153.625 44.7302 154.882 50.8522 151.6 52.8639L147.925 52.9506C146.713 54.3223 146.908 56.7308 146.684 58.9413L141.114 58.944L141.026 64.496C142.77 64.5393 145.562 64.5269 147.212 64.6761C144.52 64.8941 143.45 64.538 141.446 65.8815C140.948 67.8884 141.064 68.7534 141.156 70.7604L141.157 82.3381C141.096 85.6102 141.633 85.5112 140.023 87.6791C134.831 89.6517 129.705 88.205 123.64 88.2813C123.713 91.1698 124.242 97.4554 123.151 99.7353C121.128 100.239 120.466 100.207 118.368 100.21C116.461 102.985 118.784 104.09 116.756 105.632C112.936 105.834 98.2226 106.197 94.7652 105.356C94.3128 103.038 94.3272 102.42 94.3726 100.13C74.8215 98.792 88.304 106.22 76.633 105.761C76.5389 109.011 77.1102 109.241 75.4382 111.175C70.1664 113.086 64.9847 111.728 58.8955 111.827C58.6804 108.862 59.1747 107.732 57.5171 105.984L47.4617 105.864L46.8808 100.086C41.728 100.145 35.5309 99.7738 30.3045 99.5923L29.8755 99.3544L23.7732 99.6109C23.8626 97.8611 23.7808 95.8211 23.7554 94.0458C23.5113 91.8944 23.7361 90.5448 23.9699 88.4312C25.5511 88.1933 27.9615 88.1218 29.6239 88.018C29.6919 86.5521 29.7916 85.0711 29.8782 83.6046C31.6644 81.8314 32.0817 82.4034 35.3404 82.1745C35.3521 77.4998 35.0359 63.1573 35.7811 59.3744L37.4916 58.1272C38.639 58.3307 40.122 58.3644 41.3196 58.4318L47.6955 58.6738C49.2252 58.7199 51.5936 58.7116 53.0401 58.8629L59.2214 58.8581L59.0963 54.7616C58.9698 49.8971 59.11 44.4833 59.1334 39.5728C60.6837 40.7306 60.9127 40.952 62.8246 40.9713C64.6094 39.0338 64.1872 38.5773 64.784 35.5465L64.7977 32.9166L64.7455 29.4987L70.4284 29.3612L70.4524 24.0746L70.8278 23.9488L74.62 23.7838C79.2036 20.6176 74.9143 17.3263 77.0187 13.2023C79.1342 11.6746 79.1252 12.2005 82.2967 12.1854C82.2293 9.92541 82.219 9.27015 82.5696 7.02116C84.6479 5.63298 85.2048 6.11153 88.1555 6.02627C88.1755 4.16299 88.4017 2.17732 88.568 0.311298C91.9856 0.227416 96.7899 -0.457385 99.3453 1.21888C100.396 2.94533 100.093 4.19944 99.9943 6.26073L99.973 11.4793L105.956 11.5412C106.042 10.1269 106.136 8.71256 106.237 7.29825C107.957 5.63093 108.144 6.15415 111.179 5.89494L111.462 5.63025Z" fill="#648D3F"/>
<path d="M111.462 5.63025C111.769 2.31829 111.186 2.4331 113.055 0.635142C115.999 -0.577019 120.291 0.316111 123.653 0.329175C123.635 3.2891 123.381 9.53281 124.033 12.1283L129.029 12.0706L129.21 6.10741C133.981 6.0139 144.176 4.95369 147.298 7.60422L147.549 10.5896C149.492 12.1854 149.85 11.7069 152.861 11.9915L152.792 29.7091C149.635 29.9106 149.262 29.3619 147.447 31.0506L147.072 33.6983L147.351 41.0662C147.409 43.0278 147.645 44.8244 146.976 46.6292L146.75 47.1689L136.389 47.2789L136.431 52.8055L110.748 52.8482L105.44 52.9485L100.115 52.7973L94.6462 52.8997L94.3987 48.7008C94.4537 44.3836 94.4434 40.0665 94.3678 35.75L94.462 29.3289C94.3327 24.8509 93.8185 15.4479 94.9384 11.4532L99.973 11.4793L105.956 11.5412C106.042 10.1269 106.136 8.71256 106.237 7.29825C107.957 5.63093 108.144 6.15415 111.179 5.89494L111.462 5.63025Z" fill="#84AD4F"/>
<path d="M129.21 6.10741C133.981 6.0139 144.176 4.95369 147.298 7.60422L147.549 10.5896C149.492 12.1854 149.85 11.7069 152.861 11.9915L152.792 29.7091C149.635 29.9106 149.262 29.3619 147.447 31.0506L147.072 33.6983L147.351 41.0662C147.409 43.0278 147.645 44.8244 146.976 46.6292L146.75 47.1689L136.389 47.2789L129.106 47.1475L129.189 42.6103C126.498 38.2801 124.749 44.0473 123.766 35.5883C125.848 35.6797 126.935 35.8956 128.889 35.1462C130.105 32.8443 129.609 32.4427 129.49 29.434L123.489 29.3584C123.926 24.9071 123.811 22.2346 123.639 17.8102C123.485 16.4818 123.497 13.6951 123.457 12.241L124.033 12.1283L129.029 12.0706L129.21 6.10741Z" fill="#7BA44B"/>
<path d="M129.21 6.10741C133.981 6.0139 144.176 4.95369 147.298 7.60422L147.549 10.5896C149.492 12.1854 149.85 11.7069 152.861 11.9915L152.792 29.7091C150.774 29.6314 149.428 29.7805 147.675 28.8159C146.467 26.2162 147.019 25.64 147.234 22.3728C146.732 19.6528 146.812 14.8523 146.768 11.9398C140.947 11.9515 135.125 12.0526 129.306 12.2437L129.029 12.0706L129.21 6.10741Z" fill="#203F1D"/>
<path d="M152.861 11.9915L152.792 29.7091C150.774 29.6314 149.428 29.7805 147.675 28.8159C146.467 26.2162 147.019 25.64 147.234 22.3728C147.819 18.9797 146.759 16.7058 147.664 13.6084C149.553 11.7788 149.595 12.338 152.861 11.9915Z" fill="#141C1B"/>
<path d="M124.033 12.1283L129.029 12.0706L129.306 12.2437L129.366 16.9155C131.306 17.0805 133.192 17.1953 135.106 17.5522L135.146 23.3455C131.83 23.7409 131.12 23.1894 129.408 25.0892C129.422 26.5213 129.408 28.0094 129.49 29.434L123.489 29.3584C123.926 24.9071 123.811 22.2346 123.639 17.8102C123.485 16.4818 123.497 13.6951 123.457 12.241L124.033 12.1283Z" fill="#6A953F"/>
<path d="M124.033 12.1283L129.029 12.0706L129.306 12.2437L129.366 16.9155L129.405 17.8678L123.639 17.8102C123.485 16.4818 123.497 13.6951 123.457 12.241L124.033 12.1283Z" fill="#203F1D"/>
<path d="M129.366 16.9155C131.306 17.0805 133.192 17.1953 135.106 17.5522L135.146 23.3455L131.38 22.9268C129.341 21.3337 129.944 21.2478 129.405 17.8678L129.366 16.9155Z" fill="#7BA44B"/>
<path d="M135.106 17.5522C137.123 17.3686 139.127 16.9045 140.821 17.788C141.675 20.6744 141.955 20.1629 141.373 22.8272C137.768 25.2549 138.063 22.2139 135.379 25.7809L135.381 26.2587C135.379 27.5713 135.482 28.0986 134.909 29.2943C132.674 29.9337 131.738 29.7001 129.49 29.434C129.408 28.0094 129.422 26.5213 129.408 25.0892C131.12 23.1894 131.83 23.7409 135.146 23.3455L135.106 17.5522Z" fill="#557C37"/>
<path d="M141.018 35.0816C140.989 32.1519 140.584 32.4524 141.827 30.114C144.204 28.8056 143.213 28.9087 145.548 29.511C147.259 31.298 146.753 30.779 147.072 33.6983L147.351 41.0662C147.409 43.0278 147.645 44.8244 146.976 46.6292L146.648 41.2462L141.121 41.1933L141.18 35.4708L141.018 35.0816Z" fill="#203F1D"/>
<path d="M141.18 35.4708C144.025 35.1572 143.993 34.6897 146.098 35.8097C146.663 37.9576 146.61 39.0784 146.648 41.2462L141.121 41.1933L141.18 35.4708Z" fill="#14191C"/>
<path d="M141.121 41.1933C137.53 41.2579 136.373 41.8272 134.61 38.5867C135.62 34.9344 137.745 35.4996 141.018 35.0816L141.18 35.4708L141.121 41.1933Z" fill="#385F2A"/>
<path d="M105.969 35.6138C105.817 33.4288 105.567 32.2606 106.253 30.1684C108.456 28.8435 109.192 29.3021 112.153 29.223L112.368 29.7978C114.818 29.674 115.237 29.2093 116.901 30.4132C117.168 32.2084 117.273 33.1703 117.303 34.9827C117.586 33.8619 117.695 30.5699 117.773 29.2546L123.489 29.3584L129.49 29.434C129.609 32.4427 130.105 32.8443 128.889 35.1462C126.935 35.8956 125.848 35.6797 123.766 35.5883C124.749 44.0473 126.498 38.2801 129.189 42.6103L129.106 47.1475L136.389 47.2789L136.431 52.8055L110.748 52.8482L105.44 52.9485L100.115 52.7973L94.6462 52.8997L94.3987 48.7008C94.4537 44.3836 94.4434 40.0665 94.3678 35.75C94.5348 37.5624 94.4001 38.296 95.5001 39.6195C99.5832 41.4037 100.561 41.9407 104.73 40.3724C106.531 38.5194 105.973 38.989 105.969 35.6138Z" fill="#557C37"/>
<path d="M123.489 29.3584L129.49 29.434C129.609 32.4427 130.105 32.8443 128.889 35.1462C126.935 35.8956 125.848 35.6797 123.766 35.5883C123.289 38.2361 123.607 39.1731 122.001 40.8198C120.353 40.9126 118.706 41.0295 117.061 41.1711L116.641 41.0624C117.339 38.6367 117.284 37.9375 117.278 35.5084L117.303 34.9827C117.586 33.8619 117.695 30.5699 117.773 29.2546L123.489 29.3584Z" fill="#466E2F"/>
<path d="M123.766 35.5883C124.749 44.0473 126.498 38.2801 129.189 42.6103L129.106 47.1475L117.008 47.0561C116.857 45.5841 117.021 42.7614 117.061 41.1711C118.706 41.0295 120.353 40.9126 122.001 40.8198C123.607 39.1731 123.289 38.2361 123.766 35.5883Z" fill="#6A953F"/>
<path d="M100.413 46.2271C103.213 44.2861 103.01 47.1271 105.83 44.4209C105.901 45.5519 106.571 46.5592 107.587 47.0604C108.604 47.561 109.81 47.4798 110.75 46.8466L110.748 52.8482L105.44 52.9485L100.115 52.7973L99.8911 49.8189L100.413 46.2271Z" fill="#557C37"/>
<path d="M100.413 46.2271C102.37 46.7703 103.137 46.9648 104.937 47.8834C105.7 49.6985 105.491 50.9746 105.44 52.9485L100.115 52.7973L99.8911 49.8189L100.413 46.2271Z" fill="#2B5121"/>
<path d="M105.83 44.4209C105.735 42.8925 106.749 41.516 108.237 41.1537C109.724 40.7913 111.258 41.5469 111.876 42.9482C112.495 44.3487 112.021 45.9913 110.75 46.8466C109.81 47.4798 108.604 47.561 107.587 47.0604C106.571 46.5592 105.901 45.5519 105.83 44.4209Z" fill="#385F2A"/>
<path d="M117.278 35.5084C117.284 37.9375 117.339 38.6367 116.641 41.0624L112.283 41.0072C112.179 39.1817 112.245 38.4021 112.442 36.58C114.135 35.2269 114.723 35.6507 117.278 35.5084Z" fill="#385F2A"/>
<path d="M112.368 29.7978C114.818 29.674 115.237 29.2093 116.901 30.4132C117.168 32.2084 117.273 33.1703 117.303 34.9827C115.329 35.1422 114.941 35.1724 113.007 34.784C111.938 32.9922 112.349 32.1767 112.368 29.7978Z" fill="#648D3F"/>
<path d="M94.3987 48.7008C96.1972 49.1793 98.0562 49.801 99.8911 49.8189L100.115 52.7973L94.6462 52.8997L94.3987 48.7008Z" fill="#557C37"/>
<path d="M99.973 11.4793L105.956 11.5412L110.425 12.1311L106.026 12.3139L105.965 17.0533C105.998 20.1376 106.545 21.158 105.179 23.3692C103.243 23.9955 102.475 23.946 100.482 23.9887C99.2483 27.1287 98.6777 32.9998 101.606 35.4695C103.519 35.7232 104.056 35.7953 105.969 35.6138C105.973 38.989 106.531 38.5194 104.73 40.3724C100.561 41.9407 99.5832 41.4037 95.5001 39.6195C94.4001 38.296 94.5348 37.5624 94.3678 35.75L94.462 29.3289C94.3327 24.8509 93.8185 15.4479 94.9384 11.4532L99.973 11.4793Z" fill="#7BA44B"/>
<path d="M100.35 17.8123C102.504 17.8054 103.98 17.9636 105.965 17.0533C105.998 20.1376 106.545 21.158 105.179 23.3692C103.243 23.9955 102.475 23.946 100.482 23.9887C100.57 22.3818 100.403 19.5264 100.35 17.8123Z" fill="#466E2F"/>
<path d="M100.35 17.8123C100.059 15.6582 99.9791 15.2512 100.377 13.1281C102.6 11.6739 102.81 12.2232 106.026 12.3139L105.965 17.0533C103.98 17.9636 102.504 17.8054 100.35 17.8123Z" fill="#203F1D"/>
<path d="M111.462 5.63025C111.769 2.31829 111.186 2.4331 113.055 0.635142C115.999 -0.577019 120.291 0.316111 123.653 0.329175C123.635 3.2891 123.381 9.53281 124.033 12.1283L123.457 12.241C121.421 12.2581 120.577 12.4199 118.698 11.5934C117.938 9.92404 117.781 9.03915 117.363 7.27557C115.402 5.45699 114.762 5.98571 111.462 5.63025Z" fill="#243D23"/>
<path d="M112.153 29.223C112.08 25.8162 110.894 18.0403 115.7 18.096C118.783 20.8669 117.869 25.3356 117.773 29.2546C117.695 30.5699 117.586 33.8619 117.303 34.9827C117.273 33.1703 117.168 32.2084 116.901 30.4132C115.237 29.2093 114.818 29.674 112.368 29.7978L112.153 29.223Z" fill="#648D3F"/>
<path d="M111.179 5.89494C111.594 7.9803 112.08 9.40362 111.373 11.434L110.425 12.1311L105.956 11.5412C106.042 10.1269 106.136 8.71256 106.237 7.29825C107.957 5.63093 108.144 6.15415 111.179 5.89494Z" fill="#203F1D"/>
<path d="M88.568 0.311298C91.9856 0.227416 96.7899 -0.457385 99.3453 1.21888C100.396 2.94533 100.093 4.19944 99.9943 6.26073L99.973 11.4793L94.9384 11.4532C93.8185 15.4479 94.3327 24.8509 94.462 29.3289L94.3678 35.75C94.4434 40.0665 94.4537 44.3836 94.3987 48.7008L94.6462 52.8997C92.8457 52.9451 89.8564 52.9394 88.1844 53.1497L87.9864 58.1854L87.4233 58.6804L82.2973 59.073L82.3001 64.5976L82.0911 64.9503C82.1199 67.946 82.6177 68.287 81.2826 70.4397C79.2806 70.9423 78.7306 70.8708 76.6536 70.778L70.2874 70.5683L64.7063 70.6955L64.5296 69.9502C64.7269 67.0982 64.6973 63.5222 64.7558 60.6084C63.4729 60.7108 60.5854 59.3889 59.2214 58.8581L59.0963 54.7616C58.9698 49.8971 59.11 44.4833 59.1334 39.5728C60.6837 40.7306 60.9127 40.952 62.8246 40.9713C64.6094 39.0338 64.1872 38.5773 64.784 35.5465L64.7977 32.9166L64.7455 29.4987L70.4284 29.3612L70.4524 24.0746L70.8278 23.9488L74.62 23.7838C79.2036 20.6176 74.9143 17.3263 77.0187 13.2023C79.1342 11.6746 79.1252 12.2005 82.2967 12.1854C82.2293 9.92541 82.219 9.27015 82.5696 7.02116C84.6479 5.63298 85.2048 6.11153 88.1555 6.02627C88.1755 4.16299 88.4017 2.17732 88.568 0.311298Z" fill="#84AD4F"/>
<path d="M64.784 35.5465L64.7413 40.9705C68.0338 41.075 68.2304 40.5607 70.6057 42.0967C72.1753 45.9085 68.4029 50.9469 72.0989 53.044L76.1456 53.011C78.8385 56.1029 73.4939 59.7675 82.2973 59.073L82.3001 64.5976L82.0911 64.9503C82.1199 67.946 82.6177 68.287 81.2826 70.4397C79.2806 70.9423 78.7306 70.8708 76.6536 70.778L70.2874 70.5683L64.7063 70.6955L64.5296 69.9502C64.7269 67.0982 64.6973 63.5222 64.7558 60.6084C63.4729 60.7108 60.5854 59.3889 59.2214 58.8581L59.0963 54.7616C58.9698 49.8971 59.11 44.4833 59.1334 39.5728C60.6837 40.7306 60.9127 40.952 62.8246 40.9713C64.6094 39.0338 64.1872 38.5773 64.784 35.5465Z" fill="#466E2F"/>
<path d="M64.784 35.5465L64.7413 40.9705L64.8781 56.239L64.7558 60.6084C63.4729 60.7108 60.5854 59.3889 59.2214 58.8581L59.0963 54.7616C58.9698 49.8971 59.11 44.4833 59.1334 39.5728C60.6837 40.7306 60.9127 40.952 62.8246 40.9713C64.6094 39.0338 64.1872 38.5773 64.784 35.5465Z" fill="#7BA44B"/>
<path d="M59.0963 54.7616C60.9587 55.401 62.9683 56.2858 64.8781 56.239L64.7558 60.6084C63.4729 60.7108 60.5854 59.3889 59.2214 58.8581L59.0963 54.7616Z" fill="#7BA44B"/>
<path d="M76.4288 64.4507L82.0911 64.9503C82.1199 67.946 82.6177 68.287 81.2826 70.4397C79.2806 70.9423 78.7306 70.8708 76.6536 70.778L76.4288 64.4507Z" fill="#2B5121"/>
<path d="M70.2874 70.5683C71.8411 69.0075 71.7998 67.6573 72.477 65.2784C74.1621 64.0628 74.0755 64.4493 76.4288 64.4507L76.6536 70.778L70.2874 70.5683Z" fill="#486E37"/>
<path d="M64.7977 32.9166C69.3304 35.4447 71.2939 35.0032 76.5615 35.3236L76.818 38.4444C77.6959 41.8726 79.1706 41.2008 82.5985 41.383C80.2589 41.5577 78.1132 41.4325 76.4316 43.0538L75.9565 44.257C77.7351 46.1059 79.812 46.5851 82.2705 46.6222C84.2526 46.6346 86.2353 46.6009 88.216 46.5198L88.1844 53.1497L87.9864 58.1854L87.4233 58.6804L82.2973 59.073C73.4939 59.7675 78.8385 56.1029 76.1456 53.011L72.0989 53.044C68.4029 50.9469 72.1753 45.9085 70.6057 42.0967C68.2304 40.5607 68.0338 41.075 64.7413 40.9705L64.784 35.5465L64.7977 32.9166Z" fill="#648D3F"/>
<path d="M76.5615 35.3236L76.818 38.4444C76.2301 40.6921 76.7382 40.1373 75.1466 41.0779C72.5293 41.0724 73.4987 41.3852 71.419 40.0108C70.475 37.988 70.5039 38.8172 71.0835 36.903C73.4306 35.0948 73.135 35.6433 76.5615 35.3236Z" fill="#7BA44B"/>
<path d="M88.568 0.311298C91.9856 0.227416 96.7899 -0.457385 99.3453 1.21888C100.396 2.94533 100.093 4.19944 99.9943 6.26073L99.973 11.4793L94.9384 11.4532C93.8185 15.4479 94.3327 24.8509 94.462 29.3289L88.2545 29.0667C88.2862 25.5458 88.9001 14.1089 87.5051 11.8249L82.573 12.3027L82.2967 12.1854C82.2293 9.92541 82.219 9.27015 82.5696 7.02116C84.6479 5.63298 85.2048 6.11153 88.1555 6.02627C88.1755 4.16299 88.4017 2.17732 88.568 0.311298Z" fill="#648D3F"/>
<path d="M88.568 0.311298C91.9856 0.227416 96.7899 -0.457385 99.3453 1.21888C100.396 2.94533 100.093 4.19944 99.9943 6.26073L99.973 11.4793L94.9384 11.4532L94.1044 10.5584C95.0401 9.23761 94.7905 7.41765 93.5338 6.39732C92.4359 5.50625 90.8718 5.48011 89.7443 6.33406C88.9482 5.70563 88.7379 1.6871 88.568 0.311298Z" fill="#243D23"/>
<path d="M93.5338 6.39732L99.9943 6.26073L99.973 11.4793L94.9384 11.4532L94.1044 10.5584C95.0401 9.23761 94.7905 7.41765 93.5338 6.39732Z" fill="#385F2A"/>
<path d="M82.2967 12.1854C82.2293 9.92541 82.219 9.27015 82.5696 7.02116C84.6479 5.63298 85.2048 6.11153 88.1555 6.02627C88.1267 8.22989 88.4841 10.1706 87.5051 11.8249L82.573 12.3027L82.2967 12.1854Z" fill="#203F1D"/>
<path d="M89.7443 6.33406C90.8718 5.48011 92.4359 5.50625 93.5338 6.39732C94.7905 7.41765 95.0401 9.23761 94.1044 10.5584C93.4046 11.5457 92.1911 12.0298 91.0038 11.7954C89.8165 11.5616 88.8781 10.652 88.6058 9.47281C88.3343 8.29365 88.7797 7.06493 89.7443 6.33406Z" fill="#84AD4F"/>
<path d="M70.8278 23.9488L74.62 23.7838C79.2036 20.6176 74.9143 17.3263 77.0187 13.2023C79.1342 11.6746 79.1252 12.2005 82.2967 12.1854L82.573 12.3027L82.5875 27.72C82.8694 32.8409 82.4121 36.9201 82.5985 41.383C79.1706 41.2008 77.6959 41.8726 76.818 38.4444L76.5615 35.3236C71.2939 35.0032 69.3304 35.4447 64.7977 32.9166L64.7455 29.4987L70.4284 29.3612L70.4524 24.0746L70.8278 23.9488Z" fill="#203F1D"/>
<path d="M70.4284 29.3612L75.8761 29.6449C77.7819 32.6874 75.1735 33.2594 77.4828 35.5152C79.5391 35.7545 79.9434 35.8742 81.7989 35.0168C82.626 33.4182 82.2341 30.0481 82.5875 27.72C82.8694 32.8409 82.4121 36.9201 82.5985 41.383C79.1706 41.2008 77.6959 41.8726 76.818 38.4444L76.5615 35.3236C71.2939 35.0032 69.3304 35.4447 64.7977 32.9166L64.7455 29.4987L70.4284 29.3612Z" fill="#557C37"/>
<path d="M88.2545 29.0667L94.462 29.3289L94.3678 35.75C94.4434 40.0665 94.4537 44.3836 94.3987 48.7008L94.6462 52.8997C92.8457 52.9451 89.8564 52.9394 88.1844 53.1497L88.216 46.5198L88.2545 29.0667Z" fill="#466E2F"/>
<path d="M41.3196 58.4318L47.6955 58.6738C49.2252 58.7199 51.5936 58.7116 53.0401 58.8629L59.2214 58.8581C60.5854 59.3889 63.4729 60.7108 64.7558 60.6084C64.6973 63.5222 64.7269 67.0982 64.5296 69.9502L64.7063 70.6955L64.8644 76.231L56.5505 76.2014L53.1212 76.2997L53.1927 82.2904L53.0635 87.7819L56.4013 87.8747C60.309 87.7689 62.96 87.0029 65.1944 90.6174C64.8885 92.5749 65.1222 91.8791 63.2962 93.4955C61.0199 94.0504 60.3283 93.9981 58.0733 93.961L57.6058 99.6457C55.1562 99.2277 49.7628 99.4167 47.0589 99.4339L46.8808 100.086C41.728 100.145 35.5309 99.7738 30.3045 99.5923L29.8755 99.3544L23.7732 99.6109C23.8626 97.8611 23.7808 95.8211 23.7554 94.0458C23.5113 91.8944 23.7361 90.5448 23.9699 88.4312C25.5511 88.1933 27.9615 88.1218 29.6239 88.018C29.6919 86.5521 29.7916 85.0711 29.8782 83.6046C31.6644 81.8314 32.0817 82.4034 35.3404 82.1745C35.3521 77.4998 35.0359 63.1573 35.7811 59.3744L37.4916 58.1272C38.639 58.3307 40.122 58.3644 41.3196 58.4318Z" fill="#486E37"/>
<path d="M41.3196 58.4318L47.6955 58.6738C49.2252 58.7199 51.5936 58.7116 53.0401 58.8629L59.2214 58.8581C60.5854 59.3889 63.4729 60.7108 64.7558 60.6084C64.6973 63.5222 64.7269 67.0982 64.5296 69.9502L64.7063 70.6955L64.8644 76.231L56.5505 76.2014L53.1212 76.2997L53.1927 82.2904L47.6136 82.2609L41.4206 82.3365C41.4983 76.2722 42.3412 65.6591 40.7964 59.7915C40.5393 58.8145 38.7745 58.5535 37.4916 58.1272C38.639 58.3307 40.122 58.3644 41.3196 58.4318Z" fill="#648D3F"/>
<path d="M53.0401 58.8629L59.2214 58.8581C60.5854 59.3889 63.4729 60.7108 64.7558 60.6084C64.6973 63.5222 64.7269 67.0982 64.5296 69.9502L64.7063 70.6955L64.8644 76.231L56.5505 76.2014L53.1212 76.2997C53.0484 73.6141 53.1762 72.7624 51.8575 70.4061L52.7547 70.6839L52.961 64.7407L53.0401 58.8629Z" fill="#729D41"/>
<path d="M52.7547 70.6839C55.6581 70.6997 62.1426 71.0228 64.5296 69.9502L64.7063 70.6955L64.8644 76.231L56.5505 76.2014L53.1212 76.2997C53.0484 73.6141 53.1762 72.7624 51.8575 70.4061L52.7547 70.6839Z" fill="#648D3F"/>
<path d="M51.8575 70.4061L52.7547 70.6839C55.4917 71.5069 55.8182 71.0484 56.9114 72.9956L56.5505 76.2014L53.1212 76.2997C53.0484 73.6141 53.1762 72.7624 51.8575 70.4061Z" fill="#557C37"/>
<path d="M47.648 81.819C48.8285 78.5112 47.4205 76.1714 48.3121 72.0289C49.692 70.3148 48.9652 70.8503 51.8575 70.4061C53.1762 72.7624 53.0484 73.6141 53.1212 76.2997L53.1927 82.2904L47.6136 82.2609L47.648 81.819Z" fill="#466E2F"/>
<path d="M47.6955 58.6738C49.2252 58.7199 51.5936 58.7116 53.0401 58.8629L52.961 64.7407C51.597 64.6307 49.3578 64.8419 47.923 64.9306L47.6955 58.6738Z" fill="#2B5121"/>
<path d="M35.7811 59.3744L37.4916 58.1272C38.7745 58.5535 40.5393 58.8145 40.7964 59.7915C42.3412 65.6591 41.4983 76.2722 41.4206 82.3365L36.0959 82.4025C36.1166 76.1616 36.4652 65.2303 35.7811 59.3744Z" fill="#203F1D"/>
<path d="M29.9682 94.1809C34.7278 94.0214 42.7984 93.7106 47.4878 94.108C47.4156 95.5663 47.373 98.1028 47.0589 99.4339L46.8808 100.086C41.728 100.145 35.5309 99.7738 30.3045 99.5923L29.8755 99.3544L29.7166 94.5667L29.9682 94.1809Z" fill="#141C1B"/>
<path d="M47.6136 82.2609L53.1927 82.2904L53.0635 87.7819C49.1654 87.7083 45.2968 87.5025 41.4433 88.0896L41.4206 82.3365L47.6136 82.2609Z" fill="#385F2A"/>
<path d="M47.4878 94.108C50.8105 94.2112 54.7059 94.0311 58.0733 93.961L57.6058 99.6457C55.1562 99.2277 49.7628 99.4167 47.0589 99.4339C47.373 98.1028 47.4156 95.5663 47.4878 94.108Z" fill="#648D3F"/>
<path d="M23.7554 94.0458C23.5113 91.8944 23.7361 90.5448 23.9699 88.4312C24.2868 91.2495 23.8585 92.5235 25.5236 94.0334L29.7166 94.5667L29.8755 99.3544L23.7732 99.6109C23.8626 97.8611 23.7808 95.8211 23.7554 94.0458Z" fill="#486E37"/>
<path d="M36.0959 82.4025L41.4206 82.3365L41.4433 88.0896C39.9274 89.1966 38.749 89.0662 37.1478 88.4412C35.757 86.5236 36.0423 84.7574 36.0959 82.4025Z" fill="#557C37"/>
<path d="M29.6239 88.018C29.6919 86.5521 29.7916 85.0711 29.8782 83.6046C31.6644 81.8314 32.0817 82.4034 35.3404 82.1745C35.3555 85.2196 35.845 85.4602 34.5003 87.6899C32.5038 88.2805 31.6444 88.1349 29.6239 88.018Z" fill="#243D23"/>
<path d="M23.9699 88.4312C26.922 88.6368 27.8721 88.1403 29.6527 89.7774L29.9682 94.1809L29.7166 94.5667L25.5236 94.0334C23.8585 92.5235 24.2868 91.2495 23.9699 88.4312Z" fill="#203F1D"/>
<path d="M147.351 41.0662C148.621 41.1322 151.274 40.8799 151.949 41.9855C153.625 44.7302 154.882 50.8522 151.6 52.8639L147.925 52.9506C146.713 54.3223 146.908 56.7308 146.684 58.9413L141.114 58.944L141.026 64.496C142.77 64.5393 145.562 64.5269 147.212 64.6761C144.52 64.8941 143.45 64.538 141.446 65.8815C140.948 67.8884 141.064 68.7534 141.156 70.7604L141.157 82.3381L126.552 82.2368C129.546 81.7782 132.068 82.2594 134.944 81.1862C136.33 72.7416 128.196 79.0039 123.662 76.6566C122.547 74.8868 123.015 72.9073 123.177 70.6886L112.137 70.6783L111.92 65.1132C106.044 64.4339 88.7166 65.3298 85.6592 64.6746L82.3001 64.5976L82.2973 59.073L87.4233 58.6804L87.9864 58.1854L88.1844 53.1497C89.8564 52.9394 92.8457 52.9451 94.6462 52.8997L100.115 52.7973L105.44 52.9485L110.748 52.8482L136.431 52.8055L136.389 47.2789L146.75 47.1689L146.976 46.6292C147.645 44.8244 147.409 43.0278 147.351 41.0662Z" fill="#6A953F"/>
<path d="M94.6462 52.8997L100.115 52.7973L99.9496 58.8018C103.376 58.676 108.317 58.2139 111.463 59.1566C112.424 60.5984 112.142 59.8214 112.279 61.5946L112.351 63.7618C114.546 65.2531 118.001 64.7753 120.889 64.7368L122.535 64.7395C123.829 66.915 123.282 67.6764 123.177 70.6886L112.137 70.6783L111.92 65.1132C106.044 64.4339 88.7166 65.3298 85.6592 64.6746L82.3001 64.5976L82.2973 59.073L87.4233 58.6804L87.9864 58.1854L88.1844 53.1497C89.8564 52.9394 92.8457 52.9451 94.6462 52.8997Z" fill="#466E2F"/>
<path d="M94.6462 52.8997L100.115 52.7973L99.9496 58.8018C95.2732 58.8279 92.6751 58.8537 87.9864 58.1854L88.1844 53.1497C89.8564 52.9394 92.8457 52.9451 94.6462 52.8997Z" fill="#2B5121"/>
<path d="M87.4233 58.6804C88.2634 60.543 88.2958 60.7894 88.2319 62.8342L87.4625 64.2045L85.6592 64.6746L82.3001 64.5976L82.2973 59.073L87.4233 58.6804Z" fill="#2B5121"/>
<path d="M147.351 41.0662C148.621 41.1322 151.274 40.8799 151.949 41.9855C153.625 44.7302 154.882 50.8522 151.6 52.8639L147.925 52.9506C146.713 54.3223 146.908 56.7308 146.684 58.9413L141.114 58.944C137.579 58.9041 134.043 58.8379 130.508 58.7457C132.842 58.2383 135.674 58.138 138.1 57.9743C135.379 56.3359 136.09 55.5599 136.431 52.8055L136.389 47.2789L146.75 47.1689L146.976 46.6292C147.645 44.8244 147.409 43.0278 147.351 41.0662Z" fill="#648D3F"/>
<path d="M147.351 41.0662C148.621 41.1322 151.274 40.8799 151.949 41.9855C153.625 44.7302 154.882 50.8522 151.6 52.8639L147.925 52.9506C146.713 54.3223 146.908 56.7308 146.684 58.9413C146.295 56.6703 146.467 55.2481 146.605 52.9902C146.816 51.3621 146.744 48.8768 146.75 47.1689L146.976 46.6292C147.645 44.8244 147.409 43.0278 147.351 41.0662Z" fill="#141C1B"/>
<path d="M146.605 52.9902C146.467 55.2481 146.295 56.6703 146.684 58.9413L141.114 58.944C141.079 56.6868 141.057 56.1153 141.512 53.8951C143.401 52.628 143.998 53.0555 146.605 52.9902Z" fill="#14191C"/>
<path d="M112.279 61.5946C115.758 65.8884 119.299 61.8115 123.903 64.2207C126.809 67.8194 124.156 74.7087 135.196 70.7848L141.156 70.7604L141.157 82.3381L126.552 82.2368C129.546 81.7782 132.068 82.2594 134.944 81.1862C136.33 72.7416 128.196 79.0039 123.662 76.6566C122.547 74.8868 123.015 72.9073 123.177 70.6886C123.282 67.6764 123.829 66.915 122.535 64.7395L120.889 64.7368C118.001 64.7753 114.546 65.2531 112.351 63.7618L112.279 61.5946Z" fill="#648D3F"/>
<path d="M130.508 58.7457C134.043 58.8379 137.579 58.9041 141.114 58.944L141.026 64.496C142.77 64.5393 145.562 64.5269 147.212 64.6761C144.52 64.8941 143.45 64.538 141.446 65.8815C140.948 67.8884 141.064 68.7534 141.156 70.7604L135.196 70.7848L134.962 66.6619C133.388 64.82 132.398 65.3501 129.283 65.0441C129.307 62.6562 128.998 60.2432 130.508 58.7457Z" fill="#182D19"/>
<path d="M141.026 64.496C142.77 64.5393 145.562 64.5269 147.212 64.6761C144.52 64.8941 143.45 64.538 141.446 65.8815C140.948 67.8884 141.064 68.7534 141.156 70.7604L135.196 70.7848L134.962 66.6619C133.388 64.82 132.398 65.3501 129.283 65.0441C132.084 64.5732 137.967 64.5785 141.026 64.496Z" fill="#557C37"/>
<path d="M94.4812 82.1948C94.3217 80.042 93.9484 78.5418 94.9975 76.7335C97.0387 76.9879 97.2614 77.1385 98.9644 76.1924C100.798 74.1675 101.105 73.6402 101.415 70.8886C103.619 69.9384 109.414 70.5497 112.137 70.6783L123.177 70.6886C123.015 72.9073 122.547 74.8868 123.662 76.6566C128.196 79.0039 136.33 72.7416 134.944 81.1862C132.068 82.2594 129.546 81.7782 126.552 82.2368L118.038 82.3419L118.25 76.4778C115.979 76.1629 114.328 75.6224 112.424 76.6978C109.896 80.5323 114.035 83.5898 109.921 87.7372C108.374 87.9235 106.825 88.0823 105.273 88.215C102.541 88.0562 102.528 88.4611 100.489 87.1431L100.258 85.0832L100.113 83.2405C98.2274 81.7754 97.3323 82.2745 94.4812 82.1948Z" fill="#84AD4F"/>
<path d="M126.552 82.2368L141.157 82.3381C141.096 85.6102 141.633 85.5112 140.023 87.6791C134.831 89.6517 129.705 88.205 123.64 88.2813C123.713 91.1698 124.242 97.4554 123.151 99.7353C121.128 100.239 120.466 100.207 118.368 100.21C116.461 102.985 118.784 104.09 116.756 105.632C112.936 105.834 98.2226 106.197 94.7652 105.356C94.3128 103.038 94.3272 102.42 94.3726 100.13C102.113 100.187 109.854 100.036 117.587 99.676L117.661 88.3953L118.038 82.3419L126.552 82.2368Z" fill="#14191C"/>
<path d="M76.5897 94.0457C81.5672 94.0003 91.1269 92.6665 94.1897 95.4676C94.6544 97.456 94.5362 98.079 94.3726 100.13C74.8215 98.792 88.304 106.22 76.633 105.761L76.5491 99.2278L76.5897 94.0457Z" fill="#14191C"/>
<path d="M99.4442 87.6425C97.2346 88.0551 93.3104 88.2455 91.0279 88.2572C88.6814 86.9873 89.637 86.7755 88.0166 83.39C82.9642 80.2121 78.1091 85.276 76.0603 79.9893C76.3552 77.8731 76.006 77.8888 77.1575 76.5289C82.9449 76.4883 87.6275 75.2404 89.1957 81.535C91.1159 82.7843 91.7883 82.2821 94.4812 82.1948C97.3323 82.2745 98.2274 81.7754 100.113 83.2405L100.258 85.0832C100.022 85.7316 99.4717 87.0368 99.4442 87.6425Z" fill="#466E2F"/>
<path d="M47.0589 99.4339C49.7628 99.4167 55.1562 99.2277 57.6058 99.6457C60.7243 99.786 61.7686 99.2675 63.8111 100.821C64.0689 102.837 64.1122 103.752 64.071 105.783C61.6469 105.869 61.1519 105.464 59.4922 106.747C59.2207 108.532 59.0495 110.029 58.8955 111.827C58.6804 108.862 59.1747 107.732 57.5171 105.984L47.4617 105.864L46.8808 100.086L47.0589 99.4339Z" fill="#14191C"/>
<path d="M47.0589 99.4339C49.7628 99.4167 55.1562 99.2277 57.6058 99.6457C60.7243 99.786 61.7686 99.2675 63.8111 100.821C64.0689 102.837 64.1122 103.752 64.071 105.783C61.6469 105.869 61.1519 105.464 59.4922 106.747C59.2207 108.532 59.0495 110.029 58.8955 111.827C58.6804 108.862 59.1747 107.732 57.5171 105.984C58.0795 105.663 58.3654 105.175 58.8089 104.635C58.9402 102.146 59.2248 102.953 58.0925 101.188C55.2978 99.8354 53.3556 98.7305 50.2577 99.909C46.9742 101.158 47.6508 102.906 47.4617 105.864L46.8808 100.086L47.0589 99.4339Z" fill="#557C37"/>
<path d="M64.071 105.783L76.633 105.761C76.5389 109.011 77.1102 109.241 75.4382 111.175C70.1664 113.086 64.9847 111.728 58.8955 111.827C59.0495 110.029 59.2207 108.532 59.4922 106.747C61.1519 105.464 61.6469 105.869 64.071 105.783Z" fill="#14191C"/>
<path d="M56.5505 76.2014L64.8644 76.231C64.9572 79.2177 65.4426 79.5975 64.2223 81.8795C62.201 82.6874 60.3193 82.4261 58.1565 82.3189L53.1927 82.2904L53.1212 76.2997L56.5505 76.2014Z" fill="#2B5121"/>
<path d="M70.2874 70.5683L76.6536 70.778C76.5567 73.8266 77.0682 73.8453 75.5317 75.7972C72.7383 77.1057 68.1101 76.4283 64.8644 76.231L64.7063 70.6955L70.2874 70.5683Z" fill="#2B5121"/>
<path d="M99.4442 87.6425C99.4717 87.0368 100.022 85.7316 100.258 85.0832L100.489 87.1431C102.528 88.4611 102.541 88.0562 105.273 88.215C106.88 90.4179 106.297 92.6356 104.347 94.206C102.081 94.2493 102.974 94.4136 100.707 92.9402C99.786 91.0859 99.7165 89.6639 99.4442 87.6425Z" fill="#466E2F"/>
<path d="M112.254 82.413C112.234 80.6666 112.3 79.5707 112.471 77.8311C114.143 76.3845 115.631 76.7349 118.25 76.4778L118.038 82.3419L112.254 82.413Z" fill="#466E2F"/>
<path d="M118.038 82.3419L117.661 88.3953C116.877 88.09 114.258 87.7767 113.276 87.631C111.828 86.1383 112.331 85.0649 112.254 82.413L118.038 82.3419Z" fill="#203F1D"/>
<path d="M76.5491 99.2278C73.1446 99.4719 72.3039 99.969 70.5892 96.798L71.1028 95.3122C73.4231 93.5363 73.0553 94.1055 76.5897 94.0457L76.5491 99.2278Z" fill="#466E2F"/>
<path d="M53.1927 82.2904L58.1565 82.3189C57.6305 84.8408 57.5219 85.5061 56.4013 87.8747L53.0635 87.7819L53.1927 82.2904Z" fill="#557C37"/>
<path d="M76.8792 83.5741C77.9077 82.3103 79.7598 82.1055 81.0399 83.1134C82.32 84.1221 82.5545 85.9709 81.5665 87.2669C80.9134 88.1236 79.8492 88.5623 78.7822 88.4138C77.7152 88.2653 76.8111 87.5529 76.4165 86.5498C76.0219 85.5473 76.1992 84.4101 76.8792 83.5741Z" fill="#7BA44B"/>
<path d="M6.40764 99.6776C6.21789 97.7263 6.1897 97.3626 6.55201 95.4422C9.51445 92.7711 18.9834 94.0176 23.7554 94.0458C23.7808 95.8211 23.8626 97.8611 23.7732 99.6109L23.5051 105.875L23.6419 106.244C23.6419 108.718 24.1231 109.984 22.8767 111.582L21.9005 111.598C16.4032 112.118 6.45439 111.809 0.633327 111.801C0.258639 108.445 -0.706614 103.758 0.887698 100.994C3.25407 99.3634 3.0932 99.8756 6.40764 99.6776Z" fill="#14191C"/>
<path d="M6.40764 99.6776C6.21789 97.7263 6.1897 97.3626 6.55201 95.4422C9.51445 92.7711 18.9834 94.0176 23.7554 94.0458C23.7808 95.8211 23.8626 97.8611 23.7732 99.6109L23.5051 105.875L18.5695 105.69C18.6754 103.717 18.727 103.249 18.2856 101.336C15.8924 99.6301 13.183 100.179 9.79774 100.116L6.52799 100.07L6.40764 99.6776Z" fill="#243D23"/>
<path d="M23.7732 99.6109L23.5051 105.875L18.5695 105.69C18.6754 103.717 18.727 103.249 18.2856 101.336C15.8924 99.6301 13.183 100.179 9.79774 100.116C12.8956 99.6253 20.3454 99.6666 23.7732 99.6109Z" fill="#466E2F"/>
<path d="M6.52799 100.07L9.79774 100.116C13.183 100.179 15.8924 99.6301 18.2856 101.336C18.727 103.249 18.6754 103.717 18.5695 105.69L15.638 105.802C12.7409 105.607 9.70354 106.35 7.26429 105.266C5.90373 103.024 6.39118 103.183 6.52799 100.07Z" fill="#648D3F"/>
<path d="M0.633327 111.801C0.258639 108.445 -0.706614 103.758 0.887698 100.994C3.25407 99.3634 3.0932 99.8756 6.40764 99.6776L6.52799 100.07C6.39118 103.183 5.90373 103.024 7.26429 105.266C9.70354 106.35 12.7409 105.607 15.638 105.802C11.8368 106.239 9.86233 106.394 6.04946 106.291C3.26371 106.328 2.73708 105.796 1.17989 107.31L0.633327 111.801Z" fill="#243D23"/>
<path d="M0.633327 111.801L1.17989 107.31C2.73708 105.796 3.26371 106.328 6.04946 106.291L6.08517 109.567C9.46767 112.76 16.7944 110.152 21.9005 111.598C16.4032 112.118 6.45439 111.809 0.633327 111.801Z" fill="#141C1B"/>
<path d="M53.1645 29.6968C56.327 29.892 56.6199 29.3826 58.7374 30.9784C59.7638 33.2377 59.1224 36.9333 59.1334 39.5728C59.11 44.4833 58.9698 49.8971 59.0963 54.7616L59.2214 58.8581L53.0401 58.8629C51.5936 58.7116 49.2252 58.7199 47.6955 58.6738L41.3196 58.4318C41.3169 56.4867 41.0638 55.1872 42.159 53.6588C44.8966 52.0582 49.5668 52.8152 53.1006 52.9513L53.1645 29.6968Z" fill="#203F1D"/>
<path d="M58.8309 17.9203L70.5425 17.7725L70.8278 23.9488L70.4524 24.0746L70.4284 29.3612L64.7455 29.4987L64.7977 32.9166L64.784 35.5465C64.1872 38.5773 64.6094 39.0338 62.8246 40.9713C60.9127 40.952 60.6837 40.7306 59.1334 39.5728C59.1224 36.9333 59.7638 33.2377 58.7374 30.9784C56.6199 29.3826 56.327 29.892 53.1645 29.6968C55.3088 29.6191 56.1854 29.7772 58.0135 28.6565C59.3445 26.479 58.6591 21.3168 58.8309 17.9203Z" fill="#557C37"/>
<path d="M53.1645 29.6968C55.3088 29.6191 56.1854 29.7772 58.0135 28.6565C59.3445 26.479 58.6591 21.3168 58.8309 17.9203L59.2751 23.8031C59.3321 26.891 58.7849 27.4321 60.3187 29.3696C62.1227 29.547 62.9394 29.6067 64.7455 29.4987L64.7977 32.9166L64.784 35.5465C64.1872 38.5773 64.6094 39.0338 62.8246 40.9713C60.9127 40.952 60.6837 40.7306 59.1334 39.5728C59.1224 36.9333 59.7638 33.2377 58.7374 30.9784C56.6199 29.3826 56.327 29.892 53.1645 29.6968Z" fill="#84AD4F"/>
<path d="M58.8309 17.9203L70.5425 17.7725C70.2235 21.0287 70.7679 20.9221 68.9887 22.9573C66.2799 24.2286 62.3695 23.8478 59.2751 23.8031L58.8309 17.9203Z" fill="#243D23"/>
<path d="M64.7455 29.4987C64.7991 27.7957 64.9091 26.6069 65.1229 24.9162C67.0864 23.4758 67.4157 24.0196 70.4524 24.0746L70.4284 29.3612L64.7455 29.4987Z" fill="#84AD4F"/>
<path d="M141.156 70.7604C141.064 68.7534 140.948 67.8884 141.446 65.8815C143.45 64.538 144.52 64.8941 147.212 64.6761C147.214 68.4336 147.433 79.2607 146.849 82.3946L141.157 82.3381L141.156 70.7604Z" fill="#14191C"/>
<path d="M141.156 70.7604C141.064 68.7534 140.948 67.8884 141.446 65.8815C143.45 64.538 144.52 64.8941 147.212 64.6761C147.214 68.4336 147.433 79.2607 146.849 82.3946C146.011 78.1943 147.399 74.2897 145.939 71.2706C143.904 69.9326 144.192 70.4118 141.156 70.7604Z" fill="#182D19"/>
<path d="M29.8755 99.3544L30.3045 99.5923C29.0161 105.941 30.5409 105.674 23.6419 106.244L23.5051 105.875L23.7732 99.6109L29.8755 99.3544Z" fill="#141C1B"/>
</svg>
