<svg width="123" height="168" viewBox="0 0 123 168" fill="none" xmlns="http://www.w3.org/2000/svg">
<path d="M7.67552 0.0612463C19.395 0.120713 112.072 -0.420815 114.685 0.894651C115.531 3.39674 115.451 4.1608 115.468 6.82147C117.596 6.71605 120.909 6.44032 122.923 6.67188L123 29.8566L115.191 29.9043C115.301 34.2552 116.225 41.0281 114.261 44.1915C112.143 45.8331 110.054 45.6512 107.289 45.8611L107.348 52.9574C102.702 53.452 102.703 52.6528 100.036 55.2658C98.6171 59.8699 100.261 63.0838 99.3493 68.178C97.0076 68.2763 94.4119 68.4456 92.0945 68.4637C91.9342 72.4623 92.5907 72.847 90.6227 75.5329C88.3215 75.8032 86.8084 75.9222 84.4928 75.9537L84.563 80.4128L84.1964 80.2704L83.8803 84.1582L76.4426 83.6645C69.6749 83.0284 53.6872 82.8797 47.0285 83.7051C45.5244 85.4521 45.8306 87.9389 45.7433 90.4328C43.0557 90.7094 41.9766 90.9374 39.2656 90.3067C37.3607 87.6875 38.0515 87.4343 38.0812 83.4384L38.292 78.7667C34.8073 72.2317 31.2064 81.1074 30.195 68.5925L23.303 68.2438C23.3552 63.6748 23.7002 56.9002 22.7545 52.6231C20.0236 52.8294 19.3923 52.9241 16.738 52.3294C14.9223 49.8859 15.5024 48.7326 15.3411 45.1781C12.0645 45.2448 11.2205 45.2673 7.94027 44.6168C7.10265 39.5685 8.78959 35.7239 7.06751 31.554C4.18446 29.2853 4.4187 30.0007 0.0369415 29.734L0 7.18819L5.61839 6.70523C7.89258 4.42209 7.21258 4.09324 7.67552 0.0612463Z" fill="#B35E2D"/>
<path d="M38.0381 7.33054C53.5917 6.98005 69.1517 6.99988 84.7045 7.38821L91.945 7.35665L92.0854 22.0574L85.0764 22.6215C84.926 24.2739 84.7441 28.1149 84.1199 29.4331L76.5777 29.9692C68.9859 29.9034 53.9763 29.3646 46.9943 30.2845C45.5983 32.3352 45.7523 34.6625 45.5713 37.2376C44.6084 36.9709 44.3959 36.7195 43.5141 36.1834C43.225 33.4146 43.3034 32.8776 42.1172 30.4323L38.6522 29.2466L38.5902 22.6647L38.1813 22.2503C38.5379 19.7878 38.1128 10.3201 38.0381 7.33054Z" fill="#764425"/>
<path d="M38.5902 22.6647C53.562 22.6972 70.2424 23.0945 85.0764 22.6215C84.926 24.2739 84.7441 28.1149 84.1199 29.4331L76.5777 29.9692C68.9859 29.9034 53.9763 29.3646 46.9943 30.2845C45.5983 32.3352 45.7523 34.6625 45.5713 37.2376C44.6084 36.9709 44.3959 36.7195 43.5141 36.1834C43.225 33.4146 43.3034 32.8776 42.1172 30.4323L38.6522 29.2466L38.5902 22.6647Z" fill="#522A17"/>
<path d="M84.7045 7.38821L91.945 7.35665L92.0854 22.0574C89.6726 21.9836 87.946 22.1881 85.869 21.0321C83.3877 17.4731 84.4658 12.1068 84.7045 7.38821Z" fill="#613214"/>
<path d="M7.67552 0.0612463C19.395 0.120713 112.072 -0.420815 114.685 0.894651C115.531 3.39674 115.451 4.1608 115.468 6.82147C109.431 7.7522 98.4316 7.38819 91.945 7.35665L84.7045 7.38821C69.1517 6.99988 53.5917 6.98005 38.0381 7.33054C38.1128 10.3201 38.5379 19.7878 38.1813 22.2503C35.4892 22.1403 34.3813 22.3007 31.9621 21.069C29.6636 17.7443 30.6192 11.8365 30.7399 7.30081C24.6739 7.18097 14.1883 9.01541 9.2022 6.29708C7.7269 5.49248 7.88178 2.10743 7.67552 0.0612463Z" fill="#522A17"/>
<path d="M30.195 68.5925C34.574 68.4141 34.4129 67.7365 37.6517 69.6034C38.3452 71.7946 38.4614 72.5488 38.7235 74.8364C43.4808 76.9907 60.5287 76.0185 66.3614 75.2878C68.2168 75.0554 69.4336 70.9594 69.9145 69.3682C72.5022 67.7843 71.4403 68.2321 75.2627 68.5186L76.8452 69.5548L76.9911 74.4373C81.4287 78.0206 81.1 73.6399 84.0073 77.1034L84.1964 80.2704L83.8803 84.1582L76.4426 83.6645C69.6749 83.0284 53.6872 82.8797 47.0285 83.7051C45.5244 85.4521 45.8306 87.9389 45.7433 90.4328C43.0557 90.7094 41.9766 90.9374 39.2656 90.3067C37.3607 87.6875 38.0515 87.4343 38.0812 83.4384L38.292 78.7667C34.8073 72.2317 31.2064 81.1074 30.195 68.5925Z" fill="#522A17"/>
<path d="M45.5713 37.2376C45.7523 34.6625 45.5983 32.3352 46.9943 30.2845C53.9763 29.3646 68.9859 29.9034 76.5777 29.9692L76.6165 37.3204C74.3297 37.2952 71.0395 37.133 68.8617 37.4727L69.3247 44.5825L69.6453 45.2547L69.4859 51.7392L63.5172 52.0834C62.0851 52.2681 61.2583 52.0401 59.856 51.8041C55.8435 43.2779 54.1565 47.7874 52.5199 37.8484C51.0915 37.4385 47.2384 37.3331 45.5713 37.2376Z" fill="#DDD4CE"/>
<path d="M63.5172 52.0834C63.7234 45.4565 63.3073 46.3359 69.3247 44.5825L69.6453 45.2547L69.4859 51.7392L63.5172 52.0834Z" fill="#613214"/>
<path d="M123 29.8566C120.192 29.6115 118.247 29.6484 115.694 28.4347C115.4 25.0425 114.57 9.52447 116.119 7.52334L122.923 6.67188L123 29.8566Z" fill="#522A17"/>
<path d="M0 7.18819C1.90942 7.32064 6.19933 7.30618 7.48098 8.32341C7.79982 15.5729 7.91154 21.197 7.65665 28.4383C4.51872 29.479 3.30097 29.4826 0.0369415 29.734L0 7.18819Z" fill="#613214"/>
<path d="M107.021 45.3853C107.204 40.8677 106.408 33.4344 108.192 30.2989C111.273 28.7591 111.126 29.4024 115.191 29.9043C115.301 34.2552 116.225 41.0281 114.261 44.1915C112.143 45.8331 110.054 45.6512 107.289 45.8611L107.021 45.3853Z" fill="#613214"/>
<path d="M52.5199 37.8484C54.1565 47.7874 55.8435 43.2779 59.856 51.8041C61.2583 52.0401 62.0851 52.2681 63.5172 52.0834L69.4859 51.7392C65.1284 53.4376 64.9474 52.9042 64.2674 58.0318C62.113 56.9119 63.1027 57.0713 60.2539 57.9633L59.3074 59.5266L59.5496 60.4402C57.1638 60.5592 57.7654 60.852 55.8668 59.8879C53.7809 53.5394 52.3164 51.695 51.8823 45.1249C51.8615 42.8211 52.2561 40.1676 52.5199 37.8484Z" fill="#613214"/>
<path d="M22.7545 52.6231L23.2896 52.0555C25.7358 52.305 29.1187 51.9041 30.0833 54.4702C32.8718 61.8836 31.9972 67.6924 23.303 68.2438C23.3552 63.6748 23.7002 56.9002 22.7545 52.6231Z" fill="#613214"/>
<path d="M7.94027 44.6168C7.9826 40.7515 7.25398 28.8942 12.7463 28.9447C16.4228 34.1092 15.5096 38.8936 15.3411 45.1781C12.0645 45.2448 11.2205 45.2673 7.94027 44.6168Z" fill="#522A17"/>
<path d="M92.271 53.343C95.5495 53.0204 95.7485 52.4447 98.2659 53.8692C100.17 57.5723 98.672 63.282 99.3493 68.178C94.6289 67.4978 94.8722 68.3582 92.5754 65.5192C91.5 60.7772 92.6367 58.0985 92.271 53.343Z" fill="#613214"/>
<path d="M59.5496 60.4402L59.3074 59.5266L60.2539 57.9633C63.1027 57.0713 62.113 56.9119 64.2674 58.0318C68.7806 60.6294 71.1863 63.3874 67.6746 68.5528C64.4646 69.2556 65.8148 69.2827 62.3562 67.9609C59.8479 63.1847 63.0794 63.9262 59.5496 60.4402Z" fill="#522A17"/>
<path d="M15.3411 45.1781C19.1501 44.8123 19.8445 44.1284 22.868 45.4907C23.8714 48.0667 23.5291 49.3083 23.2896 52.0555L22.7545 52.6231C20.0236 52.8294 19.3923 52.9241 16.738 52.3294C14.9223 49.8859 15.5024 48.7326 15.3411 45.1781Z" fill="#522A17"/>
<path d="M84.4928 75.9537C83.9461 73.0966 83.4651 71.9902 84.4378 69.2583C87.5514 67.6545 88.0712 68.3069 92.0945 68.4637C91.9342 72.4623 92.5907 72.847 90.6227 75.5329C88.3215 75.8032 86.8084 75.9222 84.4928 75.9537Z" fill="#522A17"/>
<path d="M107.348 52.9574L101.724 52.378C99.1539 50.1561 99.9195 51.2905 98.8225 48.0739L99.8051 46.1782C103.307 44.5095 102.669 45.0781 107.021 45.3853L107.289 45.8611L107.348 52.9574Z" fill="#522A17"/>
<path d="M76.5777 29.9692L84.1199 29.4331C83.9101 32.3289 83.9507 33.8426 82.9743 36.6204C80.6173 37.8602 79.2978 37.4979 76.6165 37.3204L76.5777 29.9692Z" fill="#613214"/>
<path d="M68.8617 37.4727C73.3245 37.861 73.0417 37.1439 76.0626 39.4874L77.0272 41.9939C74.9196 45.8863 73.9685 45.4142 69.6453 45.2547L69.3247 44.5825L68.8617 37.4727Z" fill="#522A17"/>
<path d="M38.6522 29.2466L42.1172 30.4323C43.3034 32.8776 43.225 33.4146 43.5141 36.1834C44.3959 36.7195 44.6084 36.9709 45.5713 37.2376C47.2384 37.3331 51.0915 37.4385 52.5199 37.8484C50.2737 38.2773 48.3876 38.107 46.108 38.0449C43.9347 37.8656 42.3748 37.6502 40.2258 37.2772C38.0425 34.4931 38.7963 33.6146 38.6522 29.2466Z" fill="#764425"/>
<path d="M52.5199 37.8484C52.2561 40.1676 51.8615 42.8211 51.8823 45.1249L47.7446 44.6348C45.6217 42.3012 46.3197 42.0543 46.108 38.0449C48.3876 38.107 50.2737 38.2773 52.5199 37.8484Z" fill="#522A17"/>
<path d="M38.0812 83.4384C38.0515 87.4343 37.3607 87.6875 39.2656 90.3067C41.9766 90.9374 43.0557 90.7094 45.7433 90.4328C45.8306 87.9389 45.5244 85.4521 47.0285 83.7051C53.6872 82.8797 69.6749 83.0284 76.4426 83.6645L83.8803 84.1582C83.9325 86.281 83.8029 89.1948 84.5604 91.0752L92.0531 91.0788C96.4366 91.0275 96.0737 90.3148 98.9225 92.4547C100.785 96.1542 99.444 101.931 99.7268 106.488C102.265 106.33 105.215 105.724 107.107 107.053C107.433 112.161 107.806 132.133 107.052 136.857C104.293 137.863 102.749 137.699 99.8421 137.751L99.7862 152.941C97.5238 152.981 94.293 153.139 92.1188 152.967C91.8882 157.397 92.6214 157.082 90.3085 159.907C86.6878 161.416 81.4927 160.192 77.1245 160.334L77.1686 167.853C68.5654 167.894 55.1778 168.338 46.9835 167.449C45.4821 165.807 45.6677 162.898 45.4849 160.461C40.5681 160.569 35.6486 160.511 30.7354 160.288L30.4553 153.103C28.201 153.22 25.5556 152.966 23.2724 152.822L23.4418 137.595C20.6794 137.421 18.8962 137.222 16.1834 136.815C14.8765 134.215 15.5564 111.042 15.6609 107.386C17.9684 105.862 19.7247 106.449 22.9608 106.446C23.1815 104.911 23.2472 101.522 23.3337 99.8231C23.2103 96.9516 22.9248 94.9514 23.7453 92.1871C26.4726 90.4635 26.1736 91.0392 29.9393 91.1248C30.3563 89.2273 30.5409 87.237 30.7705 85.3034C33.1753 83.0653 33.9391 83.7663 38.0812 83.4384Z" fill="#D56E28"/>
<path d="M38.1606 152.62L45.0155 152.907L45.936 153.348C50.7492 153.255 73.1093 152.531 76.6724 152.954C76.7129 154.745 76.6615 158.808 77.1245 160.334L77.1686 167.853C68.5654 167.894 55.1778 168.338 46.9835 167.449C45.4821 165.807 45.6677 162.898 45.4849 160.461C40.5681 160.569 35.6486 160.511 30.7354 160.288L30.4553 153.103L38.1606 152.62Z" fill="#E6874D"/>
<path d="M45.4849 160.461C53.6152 160.41 68.3249 159.904 75.9158 160.817C77.0875 163.487 76.9839 164.969 77.1686 167.853C68.5654 167.894 55.1778 168.338 46.9835 167.449C45.4821 165.807 45.6677 162.898 45.4849 160.461Z" fill="#613214"/>
<path d="M38.1606 152.62L45.0155 152.907L45.936 153.348L45.8136 157.943C41.657 161.813 36.4151 159.529 30.7354 160.288L30.4553 153.103L38.1606 152.62Z" fill="#522A17"/>
<path d="M38.0812 83.4384C38.0515 87.4343 37.3607 87.6875 39.2656 90.3067C41.9766 90.9374 43.0557 90.7094 45.7433 90.4328L45.9612 91.1536C45.9549 94.3207 46.5394 95.7857 44.9966 97.958C41.9271 98.0625 41.2192 98.2527 38.6433 99.9303C37.6994 102.117 37.7336 102.307 37.5688 104.721C34.4849 106.462 34.3579 105.854 30.3148 105.873L29.9338 106.282L23.4039 106.666L22.9608 106.446C23.1815 104.911 23.2472 101.522 23.3337 99.8231C23.2103 96.9516 22.9248 94.9514 23.7453 92.1871C26.4726 90.4635 26.1736 91.0392 29.9393 91.1248C30.3563 89.2273 30.5409 87.237 30.7705 85.3034C33.1753 83.0653 33.9391 83.7663 38.0812 83.4384Z" fill="#F49A5C"/>
<path d="M23.3337 99.8231C23.2103 96.9516 22.9248 94.9514 23.7453 92.1871C26.4726 90.4635 26.1736 91.0392 29.9393 91.1248L30.6273 91.2879L30.5822 99.0275L30.3148 105.873L29.9338 106.282L23.4039 106.666L22.9608 106.446C23.1815 104.911 23.2472 101.522 23.3337 99.8231Z" fill="#6C1203"/>
<path d="M23.3337 99.8231C23.2103 96.9516 22.9248 94.9514 23.7453 92.1871C26.4726 90.4635 26.1736 91.0392 29.9393 91.1248C29.6294 95.4028 30.3328 96.2362 28.091 98.9013L23.3337 99.8231Z" fill="#613214"/>
<path d="M38.0812 83.4384C38.0515 87.4343 37.3607 87.6875 39.2656 90.3067C41.9766 90.9374 43.0557 90.7094 45.7433 90.4328L45.9612 91.1536L38.0776 91.2212L30.6273 91.2879L29.9393 91.1248C30.3563 89.2273 30.5409 87.237 30.7705 85.3034C33.1753 83.0653 33.9391 83.7663 38.0812 83.4384Z" fill="#764425"/>
<path d="M30.6273 91.2879L38.0776 91.2212C38.074 94.9145 38.719 96.2533 36.9888 98.9374C34.285 99.4149 33.2734 99.2519 30.5822 99.0275L30.6273 91.2879Z" fill="#D56E28"/>
<path d="M99.7268 106.488C102.265 106.33 105.215 105.724 107.107 107.053C107.433 112.161 107.806 132.133 107.052 136.857C104.293 137.863 102.749 137.699 99.8421 137.751L99.4701 137.245C99.8096 127.079 99.7772 116.904 99.371 106.741L99.7268 106.488Z" fill="#613214"/>
<path d="M23.4418 137.595C20.6794 137.421 18.8962 137.222 16.1834 136.815C14.8765 134.215 15.5564 111.042 15.6609 107.386C17.9684 105.862 19.7247 106.449 22.9608 106.446L23.4039 106.666C23.3147 112.79 22.7069 131.982 23.5778 137.172L23.4418 137.595Z" fill="#613214"/>
<path d="M45.7433 90.4328C45.8306 87.9389 45.5244 85.4521 47.0285 83.7051C53.6872 82.8797 69.6749 83.0284 76.4426 83.6645L76.8092 90.2724C66.5236 90.4517 56.2406 90.7455 45.9612 91.1536L45.7433 90.4328Z" fill="#F0A366"/>
<path d="M92.5763 106.326L99.371 106.741C99.7772 116.904 99.8096 127.079 99.4701 137.245C97.567 137.227 94.5831 137.505 92.5908 137.622C91.8586 127.535 92.1341 116.418 92.5763 106.326Z" fill="#E6874D"/>
<path d="M23.4039 106.666L29.9338 106.282C29.9761 113.277 29.4628 131.62 30.7363 137.442L30.6858 137.796C28.6719 137.126 25.7818 137.23 23.5778 137.172C22.7069 131.982 23.3147 112.79 23.4039 106.666Z" fill="#F0A366"/>
<path d="M92.0531 91.0788C96.4366 91.0275 96.0737 90.3148 98.9225 92.4547C100.785 96.1542 99.444 101.931 99.7268 106.488L99.371 106.741L92.5763 106.326L92.0485 105.726L91.9782 99.1564L91.8377 91.9105L92.0531 91.0788Z" fill="#6C1203"/>
<path d="M84.5838 152.457L92.1188 152.967C91.8882 157.397 92.6214 157.082 90.3085 159.907C86.6878 161.416 81.4927 160.192 77.1245 160.334C76.6615 158.808 76.7129 154.745 76.6724 152.954L77.2605 152.7L84.5838 152.457Z" fill="#613214"/>
<path d="M23.5778 137.172C25.7818 137.23 28.6719 137.126 30.6858 137.796L30.7399 144.257C30.6661 148.405 31.3974 149.41 29.3727 152.099C27.266 152.402 25.3917 152.632 23.2724 152.822L23.4418 137.595L23.5778 137.172Z" fill="#613214"/>
<path d="M92.5908 137.622C94.5831 137.505 97.567 137.227 99.4701 137.245L99.8421 137.751L99.7862 152.941C97.7246 152.669 95.662 152.407 93.5977 152.157C91.6531 150.016 92.2854 148.458 92.1224 144.877L92.1287 137.854L92.5908 137.622Z" fill="#613214"/>
<path d="M92.1224 144.877C92.2854 148.458 91.6531 150.016 93.5977 152.157C95.662 152.407 97.7246 152.669 99.7862 152.941C97.5238 152.981 94.293 153.139 92.1188 152.967L84.5838 152.457C84.4928 149.78 84.7135 147.316 84.9062 144.657L92.1224 144.877Z" fill="#B35E2D"/>
<path d="M30.7399 144.257L37.3797 144.771L37.7859 145.199L38.1606 152.62L30.4553 153.103C28.201 153.22 25.5556 152.966 23.2724 152.822C25.3917 152.632 27.266 152.402 29.3727 152.099C31.3974 149.41 30.6661 148.405 30.7399 144.257Z" fill="#B35E2D"/>
<path d="M84.6549 137.219C84.7549 139.197 85.0485 142.818 84.9062 144.657C84.7135 147.316 84.4928 149.78 84.5838 152.457L77.2605 152.7C76.3039 139.839 82.5564 150.228 84.6549 137.219Z" fill="#F49A5C"/>
<path d="M84.5604 91.0752L92.0531 91.0788L91.8377 91.9105L91.9782 99.1564L87.3363 98.8698L84.4334 100.147L84.0993 98.9987C84.4821 95.6767 84.3316 94.5919 84.0092 91.3077L84.5604 91.0752Z" fill="#E6874D"/>
<path d="M87.3363 98.8698C87.6353 94.09 87.0642 93.2566 91.8377 91.9105L91.9782 99.1564L87.3363 98.8698Z" fill="#F0A366"/>
<path d="M37.7859 145.199C40.6221 145.068 43.0854 144.599 45.2578 146.418C46.2161 149.011 45.6478 150.184 45.0155 152.907L38.1606 152.62L37.7859 145.199Z" fill="#F0A366"/>
<path d="M76.4426 83.6645L83.8803 84.1582C83.9325 86.281 83.8029 89.1948 84.5604 91.0752L84.0092 91.3077L77.183 90.9842L76.8092 90.2724L76.4426 83.6645Z" fill="#A94506"/>
<path d="M84.6549 137.219C86.6823 137.294 90.3427 137.266 92.1287 137.854L92.1224 144.877L84.9062 144.657C85.0485 142.818 84.7549 139.197 84.6549 137.219Z" fill="#F0A366"/>
<path d="M77.183 90.9842L84.0092 91.3077C84.3316 94.5919 84.4821 95.6767 84.0993 98.9987C81.5945 98.7518 80.5569 98.5572 78.1206 97.9229C76.4408 95.3541 77.0929 94.5784 77.183 90.9842Z" fill="#F49A5C"/>
<path d="M30.7363 137.442C34.9605 137.745 35.2019 137.044 37.8741 139.26C38.1146 141.883 38.0804 142.232 37.3797 144.771L30.7399 144.257L30.6858 137.796L30.7363 137.442Z" fill="#F49A5C"/>
<path d="M87.3363 98.8698L91.9782 99.1564L92.0485 105.726L86.3959 105.623C84.2586 103.697 84.8621 103.588 84.4334 100.147L87.3363 98.8698Z" fill="#F49A5C"/>
<path d="M68.5528 115.164L69.5786 121.773C71.3313 121.858 74.5602 121.521 75.5312 122.931C78.6745 127.496 78.3133 133.683 74.0442 137.148L69.4561 137.32C69.357 139.258 69.7146 142.742 68.1799 143.941C63.6774 147.457 59.1858 145.905 54.2691 144.477C53.0207 142.606 53.3387 143.425 53.4648 140.884C54.0052 139.81 54.2528 138.77 54.6077 137.614C57.2566 137.186 65.7535 137.255 68.8491 137.21C68.8572 131.85 68.867 127.601 68.3834 122.232L68.5528 115.164Z" fill="#6C1203"/>
<path d="M69.5786 121.773C71.3313 121.858 74.5602 121.521 75.5312 122.931C78.6745 127.496 78.3133 133.683 74.0442 137.148L69.4561 137.32C70.0028 132.844 69.6732 126.425 69.5786 121.773Z" fill="#522A17"/>
<path d="M53.4846 106.379C53.2684 102.216 52.6263 102.407 54.3817 99.3257C57.9195 97.339 64.1701 98.7203 68.8302 98.5446C68.7798 102.677 69.4642 102.942 67.5053 105.771C64.0719 107.679 57.6826 106.658 53.4846 106.379Z" fill="#6C1203"/>
<path d="M53.4648 140.884L53.0666 139.077C51.0518 137.115 50.3024 137.689 46.8745 137.377L46.027 135.783C46.008 132.016 45.6064 129.931 49.5666 128.815C54.6698 130.626 53.961 132.912 54.6077 137.614C54.2528 138.77 54.0052 139.81 53.4648 140.884Z" fill="#6C1203"/>
<path d="M46.0279 114.436C45.9198 111.597 45.9271 110.66 46.3504 107.858C49.0371 105.845 49.4163 106.523 53.4846 106.379C53.6548 109.085 53.8908 110.561 53.1576 113.233C50.6267 115.006 49.6378 114.383 46.0279 114.436Z" fill="#6C1203"/>
<path d="M68.9707 106.46C71.6511 106.403 72.6049 106.46 75.2528 106.871C77.183 109.528 76.4462 110.266 76.4093 114.336C73.619 114.391 72.6958 114.37 69.9515 113.902C68.1781 111.091 68.8761 110.449 68.9707 106.46Z" fill="#6C1203"/>
<path d="M68.3834 122.232C64.053 122.299 63.5864 122.59 61.3681 119.223C61.3645 116.282 61.0276 117.44 62.8577 114.866C65.3913 113.928 65.9472 114.27 68.5528 115.164L68.3834 122.232Z" fill="#620201"/>
<path d="M84.1964 80.2704L84.563 80.4128L85.4493 83.0239C89.7608 84.2366 90.2265 83.5041 91.972 86.3945L92.0531 91.0788L84.5604 91.0752C83.8029 89.1948 83.9325 86.281 83.8803 84.1582L84.1964 80.2704Z" fill="#613214"/>
</svg>
