<svg width="168" height="190" viewBox="0 0 168 190" fill="none" xmlns="http://www.w3.org/2000/svg">
<path d="M58.3409 0.174351C66.8873 0.0999837 77.8049 -0.282973 86.1466 0.398304C87.7075 2.16945 87.3493 3.27642 87.7076 6.01435L88.7567 7.45895L89.422 7.43417C91.7846 7.36408 92.0661 7.25893 94.2155 8.03595C94.9661 10.3576 94.7784 11.1961 94.6505 13.6289L95.4864 14.6983C97.4652 14.7436 99.1198 14.8128 101.09 14.994C103.504 19.2116 100.203 19.2244 103.205 21.9923L108.11 22.0658C111.812 25.9851 105.014 30.1326 115.633 29.5316C117.85 29.406 115.471 34.1912 118.098 36.4179L122.763 36.5282C125.604 40.0149 122.217 40.6184 124.972 43.8316L130.081 44.1009C132.819 48.074 129.194 48.3868 132.197 51.0615C135.532 51.1564 136.453 50.5221 138.287 52.3617C138.321 55.6715 137.681 56.4827 139.464 58.341L144.692 58.4453C148.189 62.2773 141.792 66.0316 152.309 66.3641C153.094 69.2739 153.025 69.968 152.966 72.8982C155.209 73.029 158.254 73.1068 160.403 73.4188C160.455 75.4259 160.361 78.7143 160.992 80.4854C165.052 80.3931 164.753 79.7375 167.474 81.6668C168.233 83.5465 168.08 106.261 167.585 108.486C164.131 110.886 163.397 108.078 160.506 110.464C160.557 112.919 160.753 114.155 159.926 116.492C156.267 117.302 154.544 116.309 152.744 118.161L152.676 123.017C149.503 126.085 148.198 122.295 145.733 125.439L145.69 130.302C142.79 133.095 141.178 129.425 138.474 132.744C138.449 135.786 139.037 136.898 137.434 138.709C134.969 138.645 133.758 138.45 131.378 139.23C129.612 143.165 132.418 143.256 129.749 145.586C126.38 145.625 125.595 144.968 123.753 146.812C123.676 150.23 124.341 151.357 122.465 153.19L117.688 153.256C112.485 158.925 123.966 160.887 102.165 160.266L102.173 175.056C98.4716 175.464 89.7546 175.099 87.682 176.37L87.426 176.932L87.4091 190L58.3324 189.973L58.2812 124.188L0 124.143L0.0256131 65.6008C19.2167 65.3256 39.2351 65.5871 58.4774 65.5948C58.0424 44.1906 58.3409 21.6529 58.3409 0.174351Z" fill="#C88859"/>
<path d="M160.992 80.4854C165.052 80.3931 164.753 79.7375 167.474 81.6668C168.233 83.5465 168.08 106.261 167.585 108.486C164.131 110.886 163.397 108.078 160.506 110.464C160.557 112.919 160.753 114.155 159.926 116.492C156.267 117.302 154.544 116.309 152.744 118.161L152.676 123.017C149.503 126.085 148.198 122.295 145.733 125.439L145.69 130.302C142.79 133.095 141.178 129.425 138.474 132.744C138.449 135.786 139.037 136.898 137.434 138.709C134.969 138.645 133.758 138.45 131.378 139.23C129.612 143.165 132.418 143.256 129.749 145.586C126.38 145.625 125.595 144.968 123.753 146.812C123.676 150.23 124.341 151.357 122.465 153.19L117.688 153.256C112.485 158.925 123.966 160.887 102.165 160.266L102.173 175.056C98.4716 175.464 89.7546 175.099 87.682 176.37L87.426 176.932C86.701 175.347 86.5475 175.621 84.9014 174.435L82.6581 174.921C80.6879 176.459 80.3382 179.123 79.6047 181.707C76.5 183.015 69.3012 182.698 65.6165 182.735C65.8041 160.767 65.7956 138.796 65.5823 116.828C46.0671 117.057 27.1746 116.762 7.4632 117.2L7.58262 101.816L14.5938 102.037C33.6996 102.415 53.5559 102.107 72.7129 102.066C72.7726 109.021 71.9452 156.551 73.3697 160.156C75.7493 160.962 76.517 160.643 79.0161 160.136C80.7561 158.06 80.1846 158.133 80.0993 154.854C82.334 152.388 82.7179 154.521 86.9741 152.85C87.3664 150.437 87.3408 149.36 87.2982 146.905C90.5137 144.352 90.5905 147.054 94.3349 145.249C94.804 142.881 94.7102 141.92 94.659 139.539C96.6378 137.977 97.6358 138.584 100.732 138.63C103.001 136.414 101.064 135.25 102.352 132.262C103.035 130.69 105.508 131.983 109.005 130.397C108.366 119.918 113.091 126.803 116.793 123.047L116.716 118.201C118.968 114.713 119.821 118.351 123.787 115.784L124.085 110.806C126.09 109.01 126.422 109.635 129.791 109.626C131.634 107.835 131.028 106.527 131.173 103.223C133.527 100.907 134.022 103.335 138.022 101.591C138.108 99.1893 137.988 97.6703 138.867 95.4196C144.189 92.9347 153.955 96.6437 159.823 94.5058L160.438 94.2844L160.454 87.5289L160.506 80.7281L160.992 80.4854Z" fill="#8F543A"/>
<path d="M160.992 80.4854C165.052 80.3931 164.753 79.7375 167.474 81.6668C168.233 83.5465 168.08 106.261 167.585 108.486C164.131 110.886 163.397 108.078 160.506 110.464C160.557 112.919 160.753 114.155 159.926 116.492C156.267 117.302 154.544 116.309 152.744 118.161L152.676 123.017C149.503 126.085 148.198 122.295 145.733 125.439L145.69 130.302C142.79 133.095 141.178 129.425 138.474 132.744C138.449 135.786 139.037 136.898 137.434 138.709C134.969 138.645 133.758 138.45 131.378 139.23C129.612 143.165 132.418 143.256 129.749 145.586C126.38 145.625 125.595 144.968 123.753 146.812C123.676 150.23 124.341 151.357 122.465 153.19L117.688 153.256C112.485 158.925 123.966 160.887 102.165 160.266L102.173 175.056C99.3331 174.591 91.187 174.587 87.4597 174.305C87.4768 170.812 86.965 170.792 88.4577 168.114C90.4706 167.95 92.2106 167.785 94.2065 167.496C95.2215 165.501 94.8973 164.086 94.7779 161.823C97.857 158.992 98.9488 162.17 101.857 159.336C101.61 156.879 101.201 155.61 102.437 153.541C104.868 153.107 106.011 153.135 108.433 153.153C109.781 151.436 109.414 149.566 109.585 146.973C111.606 145.121 111.947 145.714 115.265 145.618C118.174 142.87 114.916 141.878 117.679 138.861L123.061 138.828L124.119 137.678C123.991 133.91 123.411 132.781 126.891 130.835L128.571 131.505C131.113 129.797 130.226 126.106 132.52 124.216C135.002 124.169 135.625 124.301 137.885 123.413C138.499 121.051 138.372 120.214 138.32 117.801C141.084 115.43 141.843 118.056 145.511 116.197C145.749 114.135 145.852 112.552 145.92 110.474C149.153 108.115 149.741 111.25 152.709 108.526L152.888 103.275C154.671 101.343 156.061 102.443 159.917 101.824C161 100.012 160.523 96.6163 160.438 94.2844L160.454 87.5289L160.506 80.7281L160.992 80.4854Z" fill="#5B301F"/>
<path d="M58.3409 0.174351C66.8873 0.0999837 77.8049 -0.282973 86.1466 0.398304C87.7075 2.16945 87.3493 3.27642 87.7076 6.01435C80.9267 6.66742 69.0453 4.54494 65.0024 7.29911C64.3371 9.94472 64.4309 8.87793 65.2667 11.9091L65.8553 14.6658C65.4971 31.7951 65.4289 48.9288 65.6592 66.059C65.6336 68.1267 65.9406 71.0835 64.7721 72.5726C54.7757 74.6514 13.9712 71.4066 8.15413 73.5556C7.25854 76.0208 7.48886 77.2039 7.64239 79.758L7.74473 80.5085C7.71915 84.9142 7.5571 90.1567 7.75327 94.488L7.71058 95.2222L7.58262 101.816L7.4632 117.2C27.1746 116.762 46.0671 117.057 65.5823 116.828C65.7956 138.796 65.8041 160.767 65.6165 182.735C69.3012 182.698 76.5 183.015 79.6047 181.707C80.3382 179.123 80.6879 176.459 82.6581 174.921L84.9014 174.435C86.5475 175.621 86.701 175.347 87.426 176.932L87.4091 190L58.3324 189.973L58.2812 124.188L0 124.143L0.0256131 65.6008C19.2167 65.3256 39.2351 65.5871 58.4774 65.5948C58.0424 44.1906 58.3409 21.6529 58.3409 0.174351Z" fill="#5B301F"/>
<path d="M65.2667 11.9091C65.4203 9.86437 65.4116 9.97465 66.4777 8.20863C71.0665 6.42124 75.3568 6.82812 80.1929 7.52478L80.3805 14.6718L73.1306 14.8068C73.4035 23.6352 74.3589 66.4334 72.056 72.0708C65.5992 73.8967 65.2324 70.38 65.1727 78.8135C59.9271 83.0798 17.1612 79.2392 7.64239 79.758C7.48886 77.2039 7.25854 76.0208 8.15413 73.5556C13.9712 71.4066 54.7757 74.6514 64.7721 72.5726C65.9406 71.0835 65.6336 68.1267 65.6592 66.059C65.4289 48.9288 65.4971 31.7951 65.8553 14.6658L65.2667 11.9091Z" fill="#A76C49"/>
<path d="M65.8553 14.6658C68.7894 14.7649 70.1119 14.3152 72.304 15.6931C72.5769 23.4 73.0119 58.8657 72.0225 65.3648C69.4978 66.3341 68.2947 66.1453 65.6592 66.059C65.4289 48.9288 65.4971 31.7951 65.8553 14.6658Z" fill="#8F543A"/>
<path d="M73.1306 14.8068C72.6529 12.2493 72.5423 11.7842 72.8921 9.22065C75.5532 7.3247 76.4229 7.86756 80.1929 7.52478L80.3805 14.6718L73.1306 14.8068Z" fill="#E4AA77"/>
<path d="M87.7076 6.01435L88.7567 7.45895L89.422 7.43417C91.7846 7.36408 92.0661 7.25893 94.2155 8.03595C94.9661 10.3576 94.7784 11.1961 94.6505 13.6289L95.4864 14.6983C97.4652 14.7436 99.1198 14.8128 101.09 14.994C103.504 19.2116 100.203 19.2244 103.205 21.9923L108.11 22.0658C111.812 25.9851 105.014 30.1326 115.633 29.5316C117.85 29.406 115.471 34.1912 118.098 36.4179L122.763 36.5282C125.604 40.0149 122.217 40.6184 124.972 43.8316L130.081 44.1009C132.819 48.074 129.194 48.3868 132.197 51.0615C135.532 51.1564 136.453 50.5221 138.287 52.3617C138.321 55.6715 137.681 56.4827 139.464 58.341L144.692 58.4453C148.189 62.2773 141.792 66.0316 152.309 66.3641C153.094 69.2739 153.025 69.968 152.966 72.8982C150.271 73.6659 148.599 73.2136 145.827 72.8367L138.253 73.0068V65.9718L132.931 65.3529C130.849 63.2766 131.378 62.073 130.943 58.5264C127.77 58.517 126.815 58.3615 123.762 57.7905L123.847 51.2324L118.456 50.5212C116.426 48.4304 116.947 47.2593 116.52 43.7666L109.867 43.8589C109.407 42.2716 109.338 38.3933 109.245 36.5683L103.939 35.9768C101.884 33.8945 102.447 32.991 102.063 29.4427L94.8213 29.2136C94.8128 26.9091 94.6081 24.3336 94.4801 22.0085L89.1152 21.352C87.1705 19.3484 87.6481 18.0969 87.2302 14.7521L80.3805 14.6718L80.1929 7.52478C75.3568 6.82812 71.0665 6.42124 66.4777 8.20863C65.4116 9.97465 65.4203 9.86437 65.2667 11.9091C64.4309 8.87793 64.3371 9.94472 65.0024 7.29911C69.0453 4.54494 80.9267 6.66742 87.7076 6.01435Z" fill="#613520"/>
<path d="M152.966 72.8982C155.209 73.029 158.254 73.1068 160.403 73.4188C160.455 75.4259 160.361 78.7143 160.992 80.4854L160.506 80.7281L153.426 80.3349L152.821 80.5007C151.507 80.0904 147.388 79.869 145.81 79.7425L145.827 72.8367C148.599 73.2136 150.271 73.6659 152.966 72.8982Z" fill="#75412C"/>
<path d="M160.403 73.4188C160.455 75.4259 160.361 78.7143 160.992 80.4854L160.506 80.7281L153.426 80.3349C153.299 78.6125 153.307 76.9243 153.298 75.1993C155.448 73.3324 157.06 73.7812 160.403 73.4188Z" fill="#613520"/>
<path d="M7.74473 80.5085C11.4038 80.6068 12.9045 79.6408 14.6615 83.5378C16.3503 87.2596 15.5144 91.9234 12.1027 94.3784L7.75327 94.488C7.5571 90.1567 7.71915 84.9142 7.74473 80.5085Z" fill="#E4AA77"/>
<path d="M152.821 80.5007L153.426 80.3349L160.506 80.7281L160.454 87.5289L152.941 87.499L152.821 80.5007Z" fill="#8F543A"/>
<path d="M138.253 73.0068L145.827 72.8367L145.81 79.7425C143.149 80.1862 142.236 80.4537 139.507 79.8981C137.715 77.3115 138.338 76.7739 138.253 73.0068Z" fill="#E4AA77"/>
<path d="M152.941 87.499L160.454 87.5289L160.438 94.2844L159.823 94.5058C157.665 94.5887 156.514 94.4674 154.365 94.2289C152.395 91.9064 153.068 91.3439 152.941 87.499Z" fill="#E4AA77"/>
<path d="M94.8213 29.2136L102.063 29.4427L101.482 34.58C99.6827 36.8785 100.621 36.1357 97.7806 37.2854L96.0065 36.4255C94.1898 33.0798 94.7872 33.509 94.8213 29.2136Z" fill="#E4AA77"/>
<path d="M109.483 44.0085C105.124 43.9726 103.7 44.6086 101.789 40.497L102.463 38.7216C105.38 36.3555 104.92 37.0632 109.245 36.5683C109.338 38.3933 109.407 42.2716 109.867 43.8589L109.483 44.0085Z" fill="#E4AA77"/>
<path d="M123.547 58.2136C119.522 58.7111 118.43 59.4762 116.289 55.7475L117.082 53.3532C119.82 50.9743 119.539 51.694 123.847 51.2324L123.762 57.7905L123.547 58.2136Z" fill="#E4AA77"/>
<path d="M109.867 43.8589L116.52 43.7666C116.375 48.6398 116.981 49.0604 112.656 51.553L110.703 50.8606C108.852 47.6901 109.448 48.1996 109.483 44.0085L109.867 43.8589Z" fill="#E4AA77"/>
<path d="M123.762 57.7905C126.815 58.3615 127.77 58.517 130.943 58.5264C130.602 62.9295 131.173 63.7886 127.13 65.9196L125.458 65.3058C123.215 62.2226 123.897 62.6004 123.547 58.2136L123.762 57.7905Z" fill="#E4AA77"/>
<path d="M7.71058 95.2222C11.0712 95.2932 12.189 94.6844 14.347 96.4265C14.5773 98.6362 14.6621 99.8192 14.5938 102.037L7.58262 101.816L7.71058 95.2222Z" fill="#A76C49"/>
<path d="M152.821 80.5007L152.941 87.499C148.659 87.7264 147.686 88.353 145.417 84.4508L146.142 82.342C148.829 80.1067 148.616 80.805 152.821 80.5007Z" fill="#E4AA77"/>
<path d="M138.253 65.9718V73.0068C134.108 73.1453 133.22 73.717 131.019 69.9534L131.548 68.0796C134.294 65.5905 133.775 66.3513 138.253 65.9718Z" fill="#E4AA77"/>
<path d="M87.6817 29.6615C87.6902 27.4099 87.7926 26.008 88.0485 23.7702C90.2661 21.9272 91.1793 22.3974 94.4801 22.0085C94.301 24.0284 94.0702 26.0431 93.7887 28.051C91.5114 29.8734 91.0252 29.3503 87.6817 29.6615Z" fill="#E4AA77"/>
<path d="M80.3805 14.6718L87.2302 14.7521C87.1022 19.1979 87.7506 20.1322 83.6224 22.1794L81.8738 21.511C79.8012 18.6619 80.4829 18.8919 80.3805 14.6718Z" fill="#E4AA77"/>
</svg>
