<svg width="168" height="190" viewBox="0 0 168 190" fill="none" xmlns="http://www.w3.org/2000/svg">
<path d="M15.2455 65.9085C18.9963 65.9103 19.1242 66.493 21.9203 64.8448C21.5537 61.0537 21.0934 62.0252 22.7984 59.1765C27.3165 57.9512 27.7512 59.7216 29.5073 57.2865C29.5499 54.384 28.9873 53.1041 30.5388 51.4396C33.5821 51.2311 35.0484 51.7489 36.7363 50.0264C36.7107 46.9291 36.0714 45.8363 37.7252 44.1419L43.0019 43.9941C45.7895 40.2705 42.0046 38.8581 45.4826 36.6896L50.2138 36.6699C52.9588 33.5632 49.7961 32.3807 52.2598 29.6662C55.5674 29.4722 56.8375 30.078 58.5339 28.1829C58.5766 25.1112 58.0566 24.2781 59.5399 22.0823C61.7308 22.0669 62.9924 22.0609 65.1577 21.7721C67.4508 18.2638 64.2371 17.8204 67.1269 14.958L71.9775 14.905C75.1146 11.6232 71.628 11.4113 74.373 7.54498C77.6294 7.56122 78.5416 8.20289 80.4682 6.49147C80.5875 3.17543 79.9737 2.49529 81.8065 0.653142C87.0577 -0.460181 103.63 0.180644 109.665 0.209695L109.546 65.548L167.932 65.5847L168 124.223L109.478 124.217L109.555 189.991L80.6642 190C80.255 186.7 80.4169 179.06 80.3914 175.436C75.0464 175.501 71.2018 175.585 65.8568 175.008L65.8653 160.461C43.7948 160.912 55.4651 159.142 50.2479 153.306L45.0479 153.207C43.3259 151.38 43.9567 150.531 43.9311 147.313C41.672 143.955 39.8307 147.315 36.9067 144.981L36.5402 139.769L34.6818 138.241C32.849 138.145 32.0306 138.174 30.1978 138.357C28.7315 136.264 29.0896 134.242 29.0981 131.573C26.4043 131.53 24.8698 131.821 22.7386 130.271C22.875 121.282 19.2435 126.152 14.9897 123.331C14.8277 121.464 14.7425 119.75 14.6657 117.878C12.7903 116.61 10.9234 116.973 8.32339 116.836C6.69517 115.184 7.32597 113.924 7.33449 110.895C5.09249 108.08 4.68326 110.858 0.787455 108.886C-0.116166 105.451 -0.542323 83.1048 1.1882 80.8466L6.03018 80.498C8.93712 78.6088 6.96796 78.7771 8.32339 73.7146C10.932 71.9015 9.67881 72.3202 13.3189 72.5073C15.2284 70.4601 14.7937 69.1913 15.2455 65.9085Z" fill="#C88859"/>
<path d="M15.2455 65.9085C18.9963 65.9103 19.1242 66.493 21.9203 64.8448C21.5537 61.0537 21.0934 62.0252 22.7984 59.1765C27.3165 57.9512 27.7512 59.7216 29.5073 57.2865C29.5499 54.384 28.9873 53.1041 30.5388 51.4396C33.5821 51.2311 35.0484 51.7489 36.7363 50.0264C36.7107 46.9291 36.0714 45.8363 37.7252 44.1419L43.0019 43.9941C45.7895 40.2705 42.0046 38.8581 45.4826 36.6896L50.2138 36.6699C52.9588 33.5632 49.7961 32.3807 52.2598 29.6662C55.5674 29.4722 56.8375 30.078 58.5339 28.1829C58.5766 25.1112 58.0566 24.2781 59.5399 22.0823C61.7308 22.0669 62.9924 22.0609 65.1577 21.7721C67.4508 18.2638 64.2371 17.8204 67.1269 14.958L71.9775 14.905C75.1146 11.6232 71.628 11.4113 74.373 7.54498C77.6294 7.56122 78.5416 8.20289 80.4682 6.49147C80.5875 3.17543 79.9737 2.49529 81.8065 0.653142C87.0577 -0.460181 103.63 0.180644 109.665 0.209695L109.546 65.548L167.932 65.5847L168 124.223L109.478 124.217L109.555 189.991L80.6642 190C81.099 186.047 80.6298 178.219 81.3288 175.47C83.4174 174.233 84.0141 174.45 86.4692 174.761C88.0634 176.662 87.1512 177.932 87.7565 181.517C90.6549 182.927 98.8131 182.453 102.496 182.446C102.342 160.71 102.368 138.973 102.572 117.238C114.064 116.851 125.564 116.734 137.063 116.888C143.662 116.966 153.772 117.47 159.859 116.729C161.078 114.654 160.651 112.092 160.566 109.544L151.308 109.819C155.579 106.798 150.473 100.494 154.386 95.0634L154.36 94.5687C152.493 91.8644 152.911 84.3694 152.843 80.5492L152.365 80.1869C152.92 78.1824 152.792 77.6732 152.698 75.5559C147.464 71.218 132.503 74.2888 123.518 73.1336C117.823 72.7517 108.582 73.0191 102.615 72.9952L102.504 65.9786L95.0025 66.0051C94.8746 48.9327 94.8832 31.8595 95.0281 14.7871L94.8831 14.3445C92.1467 14.7675 90.7146 14.9606 87.9185 15.0375L87.4752 14.9392C84.0994 14.8546 83.2384 14.2309 80.8429 15.8142C80.2547 18.2741 80.2377 19.1217 80.1609 21.661C76.3248 21.7388 76.1288 21.1492 73.2815 22.8786C72.5654 25.5991 72.6933 26.498 72.8297 29.2125C68.7804 29.5098 68.3031 28.7947 66.1293 31.0187L65.6945 36.2385C63.9213 36.3307 60.2557 36.423 58.6445 36.6409C58.7383 39.4614 59.1134 41.0762 57.6216 43.4037C53.2655 43.6925 54.1094 42.7475 51.5093 45.0314C51.0149 47.1393 50.9382 47.7468 50.8785 49.9111C50.3841 50.2802 49.5317 50.9774 49.0202 51.2012L43.8456 51.1713L43.6666 58.2118L36.5996 58.4716C36.2416 61.8116 36.719 62.9539 34.8606 65.1447C32.9937 65.3942 31.1267 65.6693 29.2598 65.9701L29.1149 72.4261L28.7142 72.8961L21.9797 73.278L17.5895 72.9969C15.2537 70.9531 15.8592 69.868 15.2455 65.9085Z" fill="#613520"/>
<path d="M87.5009 7.4493C89.5383 7.20322 93.1698 7.19126 95.3522 7.1229C99.0007 7.22885 99.5548 6.66835 102.266 8.31313C103.22 26.0998 102.317 47.7374 102.504 65.9786L95.0025 66.0051C94.8746 48.9327 94.8832 31.8595 95.0281 14.7871L94.8831 14.3445C92.1467 14.7675 90.7146 14.9606 87.9185 15.0375L87.4752 14.9392L87.5009 7.4493Z" fill="#8F543A"/>
<path d="M87.5009 7.4493C89.5383 7.20322 93.1698 7.19126 95.3522 7.1229C99.5719 7.89787 99.2309 7.15628 101.788 9.71871L102.394 11.9522C100.169 15.6288 99.1967 15.1229 95.0281 14.7871L94.8831 14.3445C92.1467 14.7675 90.7146 14.9606 87.9185 15.0375L87.4752 14.9392L87.5009 7.4493Z" fill="#A76C49"/>
<path d="M87.5009 7.4493C91.3967 7.79107 92.4708 7.15036 94.7299 9.27448C94.8492 11.126 94.9513 12.4921 94.8831 14.3445C92.1467 14.7675 90.7146 14.9606 87.9185 15.0375L87.4752 14.9392L87.5009 7.4493Z" fill="#E4AA77"/>
<path d="M154.386 95.0634L160.439 95.0558L160.566 109.544L151.308 109.819C155.579 106.798 150.473 100.494 154.386 95.0634Z" fill="#A76C49"/>
<path d="M152.843 80.5492C156.184 79.9221 155.495 79.5915 158.453 80.5536C161.317 85.1889 160.942 89.0466 158.521 93.7972C156.611 94.5415 156.44 94.5012 154.36 94.5687C152.493 91.8644 152.911 84.3694 152.843 80.5492Z" fill="#E4AA77"/>
<path d="M123.518 73.1336C135.836 72.9285 148.163 72.891 160.481 73.0226C160.472 80.1725 160.627 87.9658 160.439 95.0558L154.386 95.0634L154.36 94.5687C156.44 94.5012 156.611 94.5415 158.521 93.7972C160.942 89.0466 161.317 85.1889 158.453 80.5536C155.495 79.5915 156.184 79.9221 152.843 80.5492L152.365 80.1869C152.92 78.1824 152.792 77.6732 152.698 75.5559C147.464 71.218 132.503 74.2888 123.518 73.1336Z" fill="#C88859"/>
<path d="M15.2455 65.9085C15.8592 69.868 15.2537 70.9531 17.5895 72.9969L21.9797 73.278L22.2016 74.3581C21.6816 78.3039 22.4062 78.0339 20.0449 79.8914L14.8107 80.3442L14.9301 86.7781C12.3556 87.9085 10.2585 87.7804 7.44532 87.9102L7.7266 94.2945L7.89715 94.9422L14.3162 94.9704C17.9136 94.8251 25.6541 94.1416 28.7145 95.1951C30.6155 99.1913 27.8279 99.334 30.4621 102.084C33.889 102.079 34.588 101.411 36.5231 103.252C36.634 106.216 36.1054 107.905 37.7081 109.627C40.1888 109.494 41.8256 109.172 44.1187 110.099C44.7069 112.494 44.6046 112.9 44.4852 115.405L45.3804 116.5C48.8073 116.573 49.5318 115.918 51.3988 117.806C51.4073 121.059 50.802 121.851 52.4558 123.962C54.587 123.946 55.9595 123.764 57.9629 124.552C59.2245 129.392 57.1871 129.356 59.8895 131.3C63.0692 131.323 63.9813 130.698 65.7459 132.417L65.9591 137.608C69.3178 140.636 69.4968 136.459 73.4182 140.208C73.367 142.266 73.1453 143.366 74.3047 145.119C77.0156 146.023 77.9618 145.853 80.7153 145.708C80.4255 150.707 80.3147 155.715 80.4084 160.723C85.0715 160.87 90.9024 161.768 94.5084 159.172C95.0539 157.023 95.088 156.612 95.0454 154.393C94.8834 139.506 94.8663 124.617 94.9857 109.728C113.757 109.51 132.537 109.54 151.308 109.819L160.566 109.544C160.651 112.092 161.078 114.654 159.859 116.729C153.772 117.47 143.662 116.966 137.063 116.888C125.564 116.734 114.064 116.851 102.572 117.238C102.368 138.973 102.342 160.71 102.496 182.446C98.8131 182.453 90.6549 182.927 87.7565 181.517C87.1512 177.932 88.0634 176.662 86.4692 174.761C84.0141 174.45 83.4174 174.233 81.3288 175.47C80.6298 178.219 81.099 186.047 80.6642 190C80.255 186.7 80.4169 179.06 80.3914 175.436C75.0464 175.501 71.2018 175.585 65.8568 175.008L65.8653 160.461C43.7948 160.912 55.4651 159.142 50.2479 153.306L45.0479 153.207C43.3259 151.38 43.9567 150.531 43.9311 147.313C41.672 143.955 39.8307 147.315 36.9067 144.981L36.5402 139.769L34.6818 138.241C32.849 138.145 32.0306 138.174 30.1978 138.357C28.7315 136.264 29.0896 134.242 29.0981 131.573C26.4043 131.53 24.8698 131.821 22.7386 130.271C22.875 121.282 19.2435 126.152 14.9897 123.331C14.8277 121.464 14.7425 119.75 14.6657 117.878C12.7903 116.61 10.9234 116.973 8.32339 116.836C6.69517 115.184 7.32597 113.924 7.33449 110.895C5.09249 108.08 4.68326 110.858 0.787455 108.886C-0.116166 105.451 -0.542323 83.1048 1.1882 80.8466L6.03018 80.498C8.93712 78.6088 6.96796 78.7771 8.32339 73.7146C10.932 71.9015 9.67881 72.3202 13.3189 72.5073C15.2284 70.4601 14.7937 69.1913 15.2455 65.9085Z" fill="#8F543A"/>
<path d="M15.2455 65.9085C15.8592 69.868 15.2537 70.9531 17.5895 72.9969L21.9797 73.278L22.2016 74.3581C21.6816 78.3039 22.4062 78.0339 20.0449 79.8914L14.8107 80.3442L14.9301 86.7781C12.3556 87.9085 10.2585 87.7804 7.44532 87.9102L7.7266 94.2945L7.89715 94.9422C7.83748 98.4103 7.19812 99.2374 8.85192 101.669C11.3582 102.27 12.4152 102.157 14.913 102.084C14.6828 104.965 14.214 106.741 15.6632 109.161C20.258 109.533 18.4337 108.147 21.7498 110.415C22.5171 114.627 21.2894 115.19 23.5826 116.869C26.8816 116.741 27.3761 116.088 29.3027 117.793C29.4732 121.35 28.8167 122.256 30.8201 124.142C32.7552 123.969 33.8379 123.896 35.773 123.947C37.1114 126.003 36.8045 125.054 36.7277 127.569C34.6989 132.717 34.7756 132.041 29.0981 131.573C26.4043 131.53 24.8698 131.821 22.7386 130.271C22.875 121.282 19.2435 126.152 14.9897 123.331C14.8277 121.464 14.7425 119.75 14.6657 117.878C12.7903 116.61 10.9234 116.973 8.32339 116.836C6.69517 115.184 7.32597 113.924 7.33449 110.895C5.09249 108.08 4.68326 110.858 0.787455 108.886C-0.116166 105.451 -0.542323 83.1048 1.1882 80.8466L6.03018 80.498C8.93712 78.6088 6.96796 78.7771 8.32339 73.7146C10.932 71.9015 9.67881 72.3202 13.3189 72.5073C15.2284 70.4601 14.7937 69.1913 15.2455 65.9085Z" fill="#5F3421"/>
<path d="M29.0981 131.573C34.7756 132.041 34.6989 132.717 36.7277 127.569L37.3763 130.6C39.1495 131.652 39.9507 131.33 42.1245 131.125L43.6334 131.979C44.6223 136.344 43.0197 136.848 45.3896 138.89C47.9896 138.868 49.5496 138.363 51.3313 139.611C51.3398 142.034 51.2887 142.961 51.7831 145.371C55.892 146.569 56.8553 144.936 58.8927 146.938C58.7563 149.347 58.5177 150.539 59.2337 152.867C61.4502 153.565 62.4219 153.359 64.7321 153.231L65.883 154.107C65.9426 156 65.9597 157.893 65.9342 159.787C69.4634 161.685 70.2903 158.74 73.1631 161.377L73.4871 166.578C77.1612 169.366 83.6741 166.255 80.1364 174.355C76.3429 174.487 69.3604 174.518 65.8568 175.008L65.8653 160.461C43.7948 160.912 55.4651 159.142 50.2479 153.306L45.0479 153.207C43.3259 151.38 43.9567 150.531 43.9311 147.313C41.672 143.955 39.8307 147.315 36.9067 144.981L36.5402 139.769L34.6818 138.241C32.849 138.145 32.0306 138.174 30.1978 138.357C28.7315 136.264 29.0896 134.242 29.0981 131.573Z" fill="#5B301F"/>
<path d="M95.0025 66.0051L102.504 65.9786L102.615 72.9952C108.582 73.0191 117.823 72.7517 123.518 73.1336C132.503 74.2888 147.464 71.218 152.698 75.5559C152.792 77.6732 152.92 78.1824 152.365 80.1869C140.755 79.3197 124.924 80.5194 112.981 80.1401C107.287 79.9589 101.353 80.8279 95.6759 79.765C94.4654 77.9177 94.8831 75.3946 94.9513 73.0227L95.0025 66.0051Z" fill="#E4AA77"/>
<path d="M95.0025 66.0051L102.504 65.9786L102.615 72.9952L94.9513 73.0227L95.0025 66.0051Z" fill="#A76C49"/>
<path d="M58.6445 36.6409C61.8669 36.9758 64.7063 36.8845 67.0761 39.0087C66.5732 43.8661 61.4669 42.0846 58.2787 46.7976C58.4747 48.4117 58.6878 49.3729 57.9632 50.9169C53.8629 52.6283 54.4852 51.6431 51.0326 52.2446C50.3421 52.184 49.6766 51.6165 49.0202 51.2012C49.5317 50.9774 50.3841 50.2802 50.8785 49.9111C50.9382 47.7468 51.0149 47.1393 51.5093 45.0314C54.1094 42.7475 53.2655 43.6925 57.6216 43.4037C59.1134 41.0762 58.7383 39.4614 58.6445 36.6409Z" fill="#E4AA77"/>
<path d="M80.1609 21.661C80.2377 19.1217 80.2547 18.2741 80.8429 15.8142C83.2384 14.2309 84.0994 14.8546 87.4752 14.9392L87.9185 15.0375C87.91 18.7748 88.5158 18.856 86.7938 21.4782C84.279 22.1618 82.7013 21.8755 80.1609 21.661Z" fill="#E4AA77"/>
<path d="M43.8456 51.1713L49.0202 51.2012C49.6766 51.6165 50.3421 52.184 51.0326 52.2446L51.2802 56.0109C49.9929 58.6297 50.8028 57.8923 48.3221 58.9177C43.625 57.4942 44.3145 55.3905 43.8456 51.1713Z" fill="#E4AA77"/>
<path d="M36.5996 58.4716L43.6666 58.2118C43.8542 61.0648 44.3326 62.7199 42.7214 64.9697L40.7266 65.9616C36.2852 64.1263 36.8127 63.1966 36.5996 58.4716Z" fill="#E4AA77"/>
<path d="M65.6945 36.2385L66.1293 31.0187C68.3031 28.7947 68.7804 29.5098 72.8297 29.2125C72.6933 32.9805 73.3331 33.7966 71.4747 36.2736C68.9173 36.7264 68.286 36.5819 65.6945 36.2385Z" fill="#E4AA77"/>
<path d="M28.7142 72.8961C29.3621 75.3927 29.8401 76.4138 28.8597 78.8618C26.6604 80.604 27.7003 80.2639 24.9724 80.1964C22.1166 78.2765 22.5085 77.9271 22.2016 74.3581L21.9797 73.278L28.7142 72.8961Z" fill="#E4AA77"/>
<path d="M29.2598 65.9701C33.9058 66.4092 33.6075 65.6095 36.3524 68.2061L36.9406 70.3183C34.5963 74.1248 33.2408 73.1704 29.1149 72.4261L29.2598 65.9701Z" fill="#E4AA77"/>
<path d="M14.8107 80.3442C19.0475 80.7911 18.783 80.0759 21.4257 82.429C22.2014 85.3973 22.3463 84.2071 20.9227 86.8832C18.7062 87.6692 17.2829 87.9914 14.9301 86.7781L14.8107 80.3442Z" fill="#E4AA77"/>
<path d="M7.44532 87.9102C12.0657 88.5314 11.7763 87.736 14.5554 90.4018L14.8708 92.1183C12.4839 94.873 11.5371 94.4287 7.7266 94.2945L7.44532 87.9102Z" fill="#E4AA77"/>
<path d="M74.467 23.3256C75.4218 22.3387 76.8454 21.9619 78.1667 22.3464C79.488 22.73 80.4855 23.8126 80.7753 25.1609C81.0566 26.5083 80.5706 27.9027 79.5221 28.7871C77.9962 30.0619 75.7456 29.9192 74.3987 28.4632C73.0518 27.0073 73.086 24.7482 74.467 23.3256Z" fill="#E4AA77"/>
</svg>
