<svg width="168" height="178" viewBox="0 0 168 178" fill="none" xmlns="http://www.w3.org/2000/svg">
<path d="M21.351 0.218428L102.705 0.275633C114.076 0.269545 130.496 -0.240629 141.469 0.298763L141.495 5.03033L141.839 5.19713C141.512 6.91211 141.328 8.43715 141.36 10.1929L141.221 10.7274L141.394 15.6228L141.804 15.5893L146.347 15.9247L146.448 10.5892L151.724 10.493C153.619 10.4736 154.687 10.2532 156.366 11.1749C156.402 12.3681 156.473 13.5602 156.577 14.7498C159.244 17.1448 161.302 14.1555 162.945 18.6302L162.751 20.1023L167.192 21.5621C168.705 28.5286 167.629 37.8889 167.63 45.125L167.639 145.224C167.642 153.423 168.331 162.358 167.389 170.467C165.476 171.843 163.787 170.534 162.067 172.141L161.899 175.916C160.693 176.969 158.206 176.713 156.57 176.756C131.461 177.438 106.146 176.774 81.0187 176.756L39.7008 176.725C34.6261 176.719 29.4193 177.091 24.3691 176.914C23.4956 176.884 22.6325 176.695 21.792 176.47C20.957 174.655 21.9767 172.817 20.6316 171.386L16.5271 171.319C15.0229 169.414 16.6433 167.672 14.6486 165.848C13.5518 165.935 12.592 165.98 11.5026 165.811C10.5728 164.355 10.8909 162.72 10.9869 161.065C11.0523 159.386 10.8462 157.791 10.6297 156.131C9.20747 156.175 7.89354 156.082 6.4854 155.884C5.27179 154.235 5.61126 153.003 5.5978 150.991C3.92051 150.895 2.41146 150.75 0.77883 150.297C-0.133216 149.032 -0.221313 21.1062 0.394671 11.268C2.10621 10.2672 3.64159 10.5442 5.60638 10.5144C5.54154 9.06238 5.61925 7.73703 5.82417 6.29783C7.4672 5.09181 8.64285 5.52951 10.6456 5.62083L10.8872 5.46684C10.7006 2.82527 10.3214 2.97748 11.3209 0.871651C13.4814 -0.488398 18.4546 0.125282 21.351 0.218428Z" fill="#F3C481"/>
<path d="M51.914 88.3957L52.3446 89.3284L52.7991 89.5171L52.979 92.776C54.1039 93.6392 54.4226 93.4073 55.7983 93.3099L55.7433 93.8395L56.7495 94.8513L56.8957 97.6348C56.3427 98.3848 55.6772 99.1598 55.216 99.9634C53.3044 100.604 53.3766 100.74 52.4162 102.533C51.3396 102.344 50.2905 101.326 49.425 100.666L47.8878 100.908L46.3371 99.9196L46.1041 98.0853L44.4604 97.6579C42.9881 96.2547 41.4454 94.9585 40.559 93.0956C41.3108 91.4878 40.674 90.0717 40.3431 88.3616L40.8655 88.5096C44.5748 88.6277 48.212 88.7512 51.914 88.3957Z" fill="#1B4F3A"/>
<path d="M55.7433 93.8395L56.7495 94.8513L56.8957 97.6348C56.3427 98.3848 55.6772 99.1598 55.216 99.9634C53.3044 100.604 53.3766 100.74 52.4162 102.533C51.3396 102.344 50.2905 101.326 49.425 100.666C50.2544 98.4834 51.3225 97.9721 53.3155 96.7387C53.2977 95.9655 53.5442 95.2605 53.7528 94.5245L55.7433 93.8395Z" fill="#426549"/>
<path d="M51.914 88.3957L52.3446 89.3284C52.3361 90.174 52.0804 90.8942 51.8259 91.6906C50.9347 92.2981 50.0269 92.7334 48.9142 92.6135C46.906 92.3967 44.554 91.1974 43.3502 89.5847C42.8755 88.9485 41.6374 88.7653 40.8655 88.5096C44.5748 88.6277 48.212 88.7512 51.914 88.3957Z" fill="#4C9E5A"/>
<path d="M46.1041 98.0853C46.4901 97.3639 47.1684 96.9346 47.8028 96.4415C49.8661 96.0665 51.3036 96.293 53.3155 96.7387C51.3225 97.9721 50.2544 98.4834 49.425 100.666L47.8878 100.908L46.3371 99.9196L46.1041 98.0853Z" fill="#1F3E28"/>
<path d="M51.6479 77.8355C53.5589 77.5945 55.531 77.5439 57.4554 77.4112L57.7668 78.3073C58.5956 80.1556 58.3387 81.3702 57.9625 83.2617L57.7007 84.4884C57.7123 87.5598 57.609 89.578 56.062 92.3176C55.865 92.6658 55.8124 92.9136 55.7983 93.3099C54.4226 93.4073 54.1039 93.6392 52.979 92.776L52.7991 89.5171L52.3446 89.3284L51.914 88.3957L52.171 82.6122C52.8151 80.5447 52.4835 79.7398 51.6479 77.8355Z" fill="#498D56"/>
<path d="M57.7668 78.3073C58.5956 80.1556 58.3387 81.3702 57.9625 83.2617L57.7007 84.4884C57.7123 87.5598 57.609 89.578 56.062 92.3176C55.865 92.6658 55.8124 92.9136 55.7983 93.3099C54.4226 93.4073 54.1039 93.6392 52.979 92.776L52.7991 89.5171L54.2929 89.1969C56.2809 87.3559 55.6448 84.1859 56.8731 81.7757C57.4542 80.6372 57.5851 79.5621 57.7668 78.3073Z" fill="#1F3E28"/>
<path d="M98.2785 66.6009L101.175 67.9871C100.319 69.2187 99.1618 70.5093 98.9643 72.0234L98.4015 72.1299L94.0792 73.8529L93.7036 73.7439C94.2083 71.1607 94.8989 70.6232 96.5737 68.6787C97.5677 67.928 97.791 67.7965 98.2785 66.6009Z" fill="#1A4131"/>
<path d="M146.448 10.5892L151.724 10.493C153.619 10.4736 154.687 10.2532 156.366 11.1749C156.402 12.3681 156.473 13.5602 156.577 14.7498C159.244 17.1448 161.302 14.1555 162.945 18.6302L162.751 20.1023L167.192 21.5621C168.705 28.5286 167.629 37.8889 167.63 45.125L167.639 145.224C167.642 153.423 168.331 162.358 167.389 170.467C165.476 171.843 163.787 170.534 162.067 172.141L161.899 175.916C160.693 176.969 158.206 176.713 156.57 176.756C131.461 177.438 106.146 176.774 81.0187 176.756L39.7008 176.725C34.6261 176.719 29.4193 177.091 24.3691 176.914C23.4956 176.884 22.6325 176.695 21.792 176.47C20.957 174.655 21.9767 172.817 20.6316 171.386L16.5271 171.319C15.0229 169.414 16.6433 167.672 14.6486 165.848C13.5518 165.935 12.592 165.98 11.5026 165.811C10.5728 164.355 10.8909 162.72 10.9869 161.065C11.0523 159.386 10.8462 157.791 10.6297 156.131C9.20747 156.175 7.89354 156.082 6.4854 155.884C5.27179 154.235 5.61126 153.003 5.5978 150.991L5.76112 150.6L5.6706 140.209L10.919 140.29C10.971 142.04 10.7385 144.225 11.6714 145.752C20.1459 147.301 42.2314 146.159 52.1373 146.149C79.4027 146.121 106.733 146.602 133.987 146.17C136.201 146.135 138.73 146.266 140.81 145.483C141.282 143.627 141.201 142.034 142.605 140.585C143.938 140.267 145.28 139.986 146.629 139.742C145.42 126.411 146.4 112.155 146.399 98.7495L146.347 15.9247L146.448 10.5892Z" fill="#A4A1A6"/>
<path d="M146.629 139.742L147.211 139.073C148.83 141.166 148.195 147.784 148.152 150.585L146.697 151.234C146.103 153.089 146.615 154.613 145.193 156.002C143.995 156.096 142.828 156.167 141.626 156.138L141.338 155.696C124.139 157.325 103.169 155.953 85.5472 155.973L36.4227 156.034C27.9708 156.033 19.347 156.375 10.9123 155.926L10.6297 156.131C9.20747 156.175 7.89354 156.082 6.4854 155.884C5.27179 154.235 5.61126 153.003 5.5978 150.991L5.76112 150.6L5.6706 140.209L10.919 140.29C10.971 142.04 10.7385 144.225 11.6714 145.752C20.1459 147.301 42.2314 146.159 52.1373 146.149C79.4027 146.121 106.733 146.602 133.987 146.17C136.201 146.135 138.73 146.266 140.81 145.483C141.282 143.627 141.201 142.034 142.605 140.585C143.938 140.267 145.28 139.986 146.629 139.742Z" fill="#9A5A38"/>
<path d="M146.629 139.742L147.211 139.073C148.83 141.166 148.195 147.784 148.152 150.585L146.697 151.234C146.103 153.089 146.615 154.613 145.193 156.002C143.995 156.096 142.828 156.167 141.626 156.138L141.338 155.696C141.208 153.916 140.735 152.028 141.761 150.46C143.161 150.54 144.082 150.546 145.392 150.019C146.913 148.138 146.504 142.343 146.629 139.742Z" fill="#572C1A"/>
<path d="M5.76112 150.6C7.75344 150.59 8.94257 150.313 10.6645 151.36C11.0217 152.954 11.0071 154.317 10.9123 155.926L10.6297 156.131C9.20747 156.175 7.89354 156.082 6.4854 155.884C5.27179 154.235 5.61126 153.003 5.5978 150.991L5.76112 150.6Z" fill="#572C1A"/>
<path d="M146.448 10.5892L151.724 10.493L151.665 107.414C151.658 120.474 152.306 133.78 151.917 146.791C151.87 148.402 151.65 149.449 150.578 150.668L148.152 150.585C148.195 147.784 148.83 141.166 147.211 139.073L146.629 139.742C145.42 126.411 146.4 112.155 146.399 98.7495L146.347 15.9247L146.448 10.5892Z" fill="#5F2F17"/>
<path d="M141.338 155.696L141.626 156.138C141.491 157.763 141.702 159.585 140.661 160.861C126.083 162.011 110.806 161.156 96.1357 161.152L10.9869 161.065C11.0523 159.386 10.8462 157.791 10.6297 156.131L10.9123 155.926C19.347 156.375 27.9708 156.033 36.4227 156.034L85.5472 155.973C103.169 155.953 124.139 157.325 141.338 155.696Z" fill="#572C1A"/>
<path d="M146.347 15.9247L146.399 98.7495C146.4 112.155 145.42 126.411 146.629 139.742C145.28 139.986 143.938 140.267 142.605 140.585C141.201 142.034 141.282 143.627 140.81 145.483C138.73 146.266 136.201 146.135 133.987 146.17C106.733 146.602 79.4027 146.121 52.1373 146.149C42.2314 146.159 20.1459 147.301 11.6714 145.752C10.7385 144.225 10.971 142.04 10.919 140.29C10.8272 139.118 10.9698 137.851 11.0077 136.671L11.1833 129.333L10.9313 125.275L11.1007 119.382L11.5111 119.501C13.2453 118.597 15.0425 118.661 16.921 118.291C18.7084 117.94 19.3862 117.762 20.3894 116.247C21.0739 117.398 21.0977 117.791 22.441 118.145C23.5402 118.435 24.6542 118.252 25.7491 118.453L26.1754 118.474C28.4387 119.036 30.417 118.966 32.7298 118.823C32.865 117.571 33.0687 116.389 33.3721 115.166L34.8793 114.397L35.6874 114.712L36.252 115.035C39.2481 114.136 37.6772 112.17 40.8104 109.852C41.6399 109.087 42.0307 108.246 42.6088 107.3C43.9154 105.166 44.7522 105.024 47.0014 104.442L47.7086 104.059L47.8878 100.908L49.425 100.666C50.2905 101.326 51.3396 102.344 52.4162 102.533C53.3766 100.74 53.3044 100.604 55.216 99.9634C55.6772 99.1598 56.3427 98.3848 56.8957 97.6348L56.7495 94.8513L55.7433 93.8395L55.7983 93.3099C55.8124 92.9136 55.865 92.6658 56.062 92.3176C57.609 89.578 57.7123 87.5598 57.7007 84.4884L58.1735 84.2425C58.3106 85.7754 58.0677 86.7843 59.3021 87.8326L61.9716 88.1485L61.9417 88.4871L62.4114 88.8675L62.9222 88.9095C64.5652 88.4024 66.6224 88.5485 68.3437 88.4889C68.523 90.5344 68.2586 91.8037 69.6717 93.3476C71.1948 93.442 72.7198 93.5084 74.2448 93.5467L73.8839 97.6305C75.185 98.9175 76.5931 98.9772 78.3162 99.2061L78.7145 100.623C79.6479 99.653 80.8053 99.6664 82.0819 99.5008C83.2374 99.3321 83.7775 98.7787 84.6107 98.0385C85.5099 97.493 86.4188 96.9639 87.3364 96.4501L87.8148 94.0569L87.4747 93.5541C89.8566 93.3179 92.3212 93.3337 94.7166 93.2357C96.5137 93.3312 98.3917 93.5571 100.184 93.3787C99.9521 92.3608 99.5588 91.3344 99.2389 90.3378L99.8904 88.9357L101.639 88.3318L103.834 88.6411L104.515 88.4645L109.125 90.6197C110.64 91.5755 111.066 93.5011 111.508 95.1546C111.871 95.0413 112.003 95.0121 112.381 94.827C114.8 93.6423 116.934 91.7976 117.714 89.2876C119.412 88.8992 120.781 87.1952 122.377 87.2268C123.322 87.9665 123.519 88.1254 124.758 88.3123C125.431 87.7315 125.962 86.9547 126.52 86.2631C128.032 88.1242 128.525 89.0222 128.518 91.5006C129.861 92.4948 130.26 92.6871 130.492 94.4447C130.698 96.0087 130.47 97.7742 130.371 99.3504L130.102 103.377C131.498 104.909 133.267 104.22 135.189 104.663L135.586 104.882L135.91 108.205C138.774 110.14 138.056 111.198 139.022 114.281C140.075 113.669 140.754 113.56 141.076 112.285C142.582 106.306 141.453 95.5527 141.449 89.1396L141.381 33.8769C141.366 28.3746 140.356 20.8213 141.804 15.5893L146.347 15.9247Z" fill="#D29362"/>
<path d="M95.896 119.372L99.1521 119.741L99.2181 124.353L94.8653 124.665C94.015 124.32 93.2363 123.84 92.4374 123.39C93.0436 121.814 94.7044 120.547 95.896 119.372Z" fill="#9E643F"/>
<path d="M126.52 86.2631C128.032 88.1242 128.525 89.0222 128.518 91.5006C129.861 92.4948 130.26 92.6871 130.492 94.4447C130.698 96.0087 130.47 97.7742 130.371 99.3504L130.102 103.377C131.498 104.909 133.267 104.22 135.189 104.663L135.586 104.882L135.91 108.205C138.774 110.14 138.056 111.198 139.022 114.281L141.222 114.004C142.134 120.842 140.522 127.985 141.616 134.729L140.496 132.821C137.859 131.691 134.432 132.47 131.539 131.893L131.047 131.791L130.757 130.433C129.347 129.4 128.068 129.724 126.357 129.721L125.347 130.271C124.469 130.672 123.107 131.225 122.152 131.15C120.853 131.047 120.557 130.388 119.746 129.472L119.555 129.936C117.999 129.826 116.381 129.57 114.861 129.989L110.943 129.947C109.273 128.734 109.279 126.408 108.912 124.435L106.416 123.73L105.994 121.305C104.789 119.918 104.309 120.062 102.555 119.84L99.1521 119.741L95.896 119.372L93.3183 118.1C91.504 118.705 90.68 119.161 88.7745 118.806C87.8741 118.862 86.8183 118.661 86.214 119.36C85.5484 120.13 85.2279 121.129 84.8639 122.063L83.1016 122.541L83.605 119.573C83.9237 117.95 83.6791 116.738 83.328 115.164L83.3426 114.619C82.9622 111.148 82.5609 107.678 82.1382 104.212L82.0819 99.5008C83.2374 99.3321 83.7775 98.7787 84.6107 98.0385C85.5099 97.493 86.4188 96.9639 87.3364 96.4501L87.8148 94.0569L87.4747 93.5541C89.8566 93.3179 92.3212 93.3337 94.7166 93.2357C96.5137 93.3312 98.3917 93.5571 100.184 93.3787C99.9521 92.3608 99.5588 91.3344 99.2389 90.3378L99.8904 88.9357L101.639 88.3318L103.834 88.6411L104.515 88.4645L109.125 90.6197C110.64 91.5755 111.066 93.5011 111.508 95.1546C111.871 95.0413 112.003 95.0121 112.381 94.827C114.8 93.6423 116.934 91.7976 117.714 89.2876C119.412 88.8992 120.781 87.1952 122.377 87.2268C123.322 87.9665 123.519 88.1254 124.758 88.3123C125.431 87.7315 125.962 86.9547 126.52 86.2631Z" fill="#426549"/>
<path d="M126.52 86.2631C128.032 88.1242 128.525 89.0222 128.518 91.5006C129.861 92.4948 130.26 92.6871 130.492 94.4447C130.698 96.0087 130.47 97.7742 130.371 99.3504L130.102 103.377C131.498 104.909 133.267 104.22 135.189 104.663L135.586 104.882L135.91 108.205C138.774 110.14 138.056 111.198 139.022 114.281L141.222 114.004C142.134 120.842 140.522 127.985 141.616 134.729L140.496 132.821C137.859 131.691 134.432 132.47 131.539 131.893L131.047 131.791L130.757 130.433C129.347 129.4 128.068 129.724 126.357 129.721L125.347 130.271C122.833 127.704 116.452 122.942 115.273 119.864C114.794 118.611 115.253 116.52 114.772 114.999L111.463 114.034L110.77 111.332L112.28 108.901C112.29 107.265 112.254 106.041 113.01 104.535C114.782 103.284 118.255 103.978 120.521 103.515L121.022 103.409C120.936 102.439 120.927 101.37 120.443 100.501C119.26 98.3763 114.377 99.6609 112.219 99.0046C111.165 97.5106 111.402 96.9152 111.508 95.1546C111.871 95.0413 112.003 95.0121 112.381 94.827C114.8 93.6423 116.934 91.7976 117.714 89.2876C119.412 88.8992 120.781 87.1952 122.377 87.2268C123.322 87.9665 123.519 88.1254 124.758 88.3123C125.431 87.7315 125.962 86.9547 126.52 86.2631Z" fill="#445E48"/>
<path d="M135.91 108.205C138.774 110.14 138.056 111.198 139.022 114.281L141.222 114.004C142.134 120.842 140.522 127.985 141.616 134.729L140.496 132.821C137.859 131.691 134.432 132.47 131.539 131.893L131.047 131.791L130.757 130.433C129.347 129.4 128.068 129.724 126.357 129.721L125.347 130.271C122.833 127.704 116.452 122.942 115.273 119.864C114.794 118.611 115.253 116.52 114.772 114.999L111.463 114.034L112.101 114.053C114.631 114.141 118.371 115.553 120.6 114.702L121.037 114.266C126.539 113.458 129.754 113.513 135.127 115.095L135.915 114.382L135.91 108.205Z" fill="#1E3C2E"/>
<path d="M141.222 114.004C142.134 120.842 140.522 127.985 141.616 134.729L140.496 132.821C137.859 131.691 134.432 132.47 131.539 131.893L131.047 131.791L130.757 130.433C129.347 129.4 128.068 129.724 126.357 129.721C126.309 129.427 126.258 129.135 126.203 128.843C125.726 126.318 125.185 125.877 123.177 124.53C127.514 124.373 131.856 124.103 136.184 124.527C137.004 125.703 137.831 126.679 138.878 127.658L139.71 127.519L140.271 126.552L139.911 125.524C140.986 123.389 141.127 121.914 141.049 119.541C140.933 117.697 141.109 115.846 141.222 114.004Z" fill="#AE6F44"/>
<path d="M131.08 116.469C131.455 117.678 131.455 118.585 132.637 119.259C134.664 120.412 138.725 119.704 141.049 119.541C141.127 121.914 140.986 123.389 139.911 125.524L140.271 126.552L139.71 127.519L138.878 127.658C137.831 126.679 137.004 125.703 136.184 124.527C131.856 124.103 127.514 124.373 123.177 124.53C122.414 122.557 121.127 120.845 119.955 119.092C123.282 118.759 127.761 119.858 130.763 118.32L131.08 116.469Z" fill="#572C1A"/>
<path d="M119.955 119.092C119.142 118.959 118.593 118.678 117.861 118.329L117.842 117.308L118.883 116.472C122.504 115.741 127.507 115.285 131.08 116.469L130.763 118.32C127.761 119.858 123.282 118.759 119.955 119.092Z" fill="#F6CF98"/>
<path d="M126.52 86.2631C128.032 88.1242 128.525 89.0222 128.518 91.5006C127.364 93.7519 127.399 96.268 126.077 98.4031L125.992 103.7L121.41 103.706L121.022 103.409C120.936 102.439 120.927 101.37 120.443 100.501C119.26 98.3763 114.377 99.6609 112.219 99.0046C111.165 97.5106 111.402 96.9152 111.508 95.1546C111.871 95.0413 112.003 95.0121 112.381 94.827C114.8 93.6423 116.934 91.7976 117.714 89.2876C119.412 88.8992 120.781 87.1952 122.377 87.2268C123.322 87.9665 123.519 88.1254 124.758 88.3123C125.431 87.7315 125.962 86.9547 126.52 86.2631Z" fill="#EFBC84"/>
<path d="M126.52 86.2631C128.032 88.1242 128.525 89.0222 128.518 91.5006C127.364 93.7519 127.399 96.268 126.077 98.4031C126.157 95.3055 126.872 90.6458 124.758 88.3123C125.431 87.7315 125.962 86.9547 126.52 86.2631Z" fill="#1F3E28"/>
<path d="M128.518 91.5006C129.861 92.4948 130.26 92.6871 130.492 94.4447C130.698 96.0087 130.47 97.7742 130.371 99.3504L130.102 103.377C131.498 104.909 133.267 104.22 135.189 104.663C135.148 105.899 135.454 107.718 134.449 108.568C132.842 109.929 130.52 109.862 128.574 109.565C127.014 109.328 126.312 109.224 125.307 107.953L125.992 103.7L126.077 98.4031C127.399 96.268 127.364 93.7519 128.518 91.5006Z" fill="#0E2F2A"/>
<path d="M112.28 108.901C115.251 109.136 118.265 110.099 120.688 111.875L121.037 114.266L120.6 114.702C118.371 115.553 114.631 114.141 112.101 114.053L111.463 114.034L110.77 111.332L112.28 108.901Z" fill="#0E2F2A"/>
<path d="M121.41 103.706L125.992 103.7L125.307 107.953C123.716 107.418 122.584 107.844 121.282 106.616L121.41 103.706Z" fill="#1E3C2E"/>
<path d="M94.7166 93.2357C96.5137 93.3312 98.3917 93.5571 100.184 93.3787C99.5766 96.4562 100.615 101.126 99.2866 103.713L99.0328 104.463C96.8478 105.389 95.4311 106.196 93.818 107.945L92.8546 107.117C92.0551 107.106 91.0819 107.173 90.3466 106.832C89.2272 106.312 89.07 104.744 88.7213 103.628C87.5958 104.109 86.3601 104.304 85.9454 105.563C85.6047 106.597 85.7736 107.958 85.8139 109.038L85.617 109.882C85.4182 111.276 85.2053 112.65 84.8951 114.025C84.3721 114.268 83.9164 114.526 83.3426 114.619C82.9622 111.148 82.5609 107.678 82.1382 104.212L82.0819 99.5008C83.2374 99.3321 83.7775 98.7787 84.6107 98.0385C85.5099 97.493 86.4188 96.9639 87.3364 96.4501L87.8148 94.0569L87.4747 93.5541C89.8566 93.3179 92.3212 93.3337 94.7166 93.2357Z" fill="#1B4F3A"/>
<path d="M95.3956 98.9291C96.9897 99.0588 97.9752 98.8476 99.168 100.016C99.2145 101.248 99.2775 102.48 99.2866 103.713L99.0328 104.463C96.8478 105.389 95.4311 106.196 93.818 107.945L92.8546 107.117C92.0551 107.106 91.0819 107.173 90.3466 106.832C89.2272 106.312 89.07 104.744 88.7213 103.628L89.6866 103.082L90.6469 100.035C92.1542 98.6071 93.3599 98.9937 95.3956 98.9291Z" fill="#FBDEAB"/>
<path d="M89.6866 103.082C92.9531 103.133 95.8501 104.654 99.0328 104.463C96.8478 105.389 95.4311 106.196 93.818 107.945L92.8546 107.117C92.0551 107.106 91.0819 107.173 90.3466 106.832C89.2272 106.312 89.07 104.744 88.7213 103.628L89.6866 103.082Z" fill="#1F3E28"/>
<path d="M94.7166 93.2357C96.5137 93.3312 98.3917 93.5571 100.184 93.3787C99.5766 96.4562 100.615 101.126 99.2866 103.713C99.2775 102.48 99.2145 101.248 99.168 100.016C97.9752 98.8476 96.9897 99.0588 95.3956 98.9291C95.3736 96.8185 95.5626 96.0897 94.3649 94.2974C92.4258 93.2819 89.9172 93.8499 87.8148 94.0569L87.4747 93.5541C89.8566 93.3179 92.3212 93.3337 94.7166 93.2357Z" fill="#1C542F"/>
<path d="M103.834 88.6411L104.515 88.4645L109.125 90.6197C110.64 91.5755 111.066 93.5011 111.508 95.1546C111.402 96.9152 111.165 97.5106 112.219 99.0046C114.377 99.6609 119.26 98.3763 120.443 100.501C120.927 101.37 120.936 102.439 121.022 103.409L120.521 103.515C118.255 103.978 114.782 103.284 113.01 104.535C112.254 106.041 112.29 107.265 112.28 108.901L110.77 111.332C110.899 110.785 110.842 110.118 110.856 109.551L109.195 108.548C108.321 104.956 109.383 101.211 108.545 97.6287C108.009 95.3402 106.952 95.0614 105.08 93.9893L103.584 94.1482C102.656 93.6015 101.254 93.5437 100.184 93.3787C99.9521 92.3608 99.5588 91.3344 99.2389 90.3378L99.8904 88.9357L101.639 88.3318L103.834 88.6411Z" fill="#1A4131"/>
<path d="M101.639 88.3318L103.834 88.6411L104.311 92.8722L105.08 93.9893L103.584 94.1482C102.656 93.6015 101.254 93.5437 100.184 93.3787C99.9521 92.3608 99.5588 91.3344 99.2389 90.3378L99.8904 88.9357L101.639 88.3318Z" fill="#2A5243"/>
<path d="M103.834 88.6411L104.515 88.4645L109.125 90.6197C107.465 92.289 106.809 92.7169 104.311 92.8722L103.834 88.6411Z" fill="#0E2F2A"/>
<path d="M94.6744 116.944C97.7934 114.985 97.4337 114.567 101.348 114.536C102.85 114.567 104.369 114.67 105.858 114.451C106.723 114.525 108.167 114.416 108.721 115.065C109.46 115.93 109.485 117.33 109.864 118.392C111.384 122.668 114.246 125.688 116.929 129.195L119.746 129.472L119.555 129.936C117.999 129.826 116.381 129.57 114.861 129.989L110.943 129.947C109.273 128.734 109.279 126.408 108.912 124.435L106.416 123.73L105.994 121.305C104.789 119.918 104.309 120.062 102.555 119.84L99.1521 119.741L95.896 119.372L93.3183 118.1L94.6744 116.944Z" fill="#1E3C2E"/>
<path d="M100.184 93.3787C101.254 93.5437 102.656 93.6015 103.584 94.1482C103.443 98.699 104.372 105.04 101.149 108.611C98.8541 109.971 96.2251 109.54 93.7489 108.882C93.6669 108.86 93.5886 108.829 93.5085 108.802L93.818 107.945C95.4311 106.196 96.8478 105.389 99.0328 104.463L99.2866 103.713C100.615 101.126 99.5766 96.4562 100.184 93.3787Z" fill="#1A4131"/>
<path d="M85.617 109.882L89.9753 109.908C89.8322 111.356 89.4884 113.014 89.8879 114.427L89.2174 114.74C88.8632 116.165 88.6063 117.337 88.7745 118.806C87.8741 118.862 86.8183 118.661 86.214 119.36C85.5484 120.13 85.2279 121.129 84.8639 122.063L83.1016 122.541L83.605 119.573C83.9237 117.95 83.6791 116.738 83.328 115.164L83.3426 114.619C83.9164 114.526 84.3721 114.268 84.8951 114.025C85.2053 112.65 85.4182 111.276 85.617 109.882Z" fill="#1A4131"/>
<path d="M88.7213 103.628C89.07 104.744 89.2272 106.312 90.3466 106.832C91.0819 107.173 92.0551 107.106 92.8546 107.117L93.818 107.945L93.5085 108.802C91.0445 109.576 88.3384 109.298 85.8139 109.038C85.7736 107.958 85.6047 106.597 85.9454 105.563C86.3601 104.304 87.5958 104.109 88.7213 103.628Z" fill="#FBDEAB"/>
<path d="M88.7745 118.806C88.6063 117.337 88.8632 116.165 89.2174 114.74C91.1608 114.863 92.3836 114.712 94.0444 115.761L94.6744 116.944L93.3183 118.1C91.504 118.705 90.68 119.161 88.7745 118.806Z" fill="#445E48"/>
<path d="M89.9753 109.908C91.8832 109.913 92.7598 109.626 94.308 110.793C94.3092 111.42 94.5044 111.885 94.0382 112.346C92.8668 113.502 91.5731 114.31 89.8879 114.427C89.4884 113.014 89.8322 111.356 89.9753 109.908Z" fill="#1E3C2E"/>
<path d="M101.348 114.536C101.638 112.628 101.59 111.868 102.943 110.404L104.153 110.446C105.391 111.808 105.462 112.701 105.858 114.451C104.369 114.67 102.85 114.567 101.348 114.536Z" fill="#2A5243"/>
<path d="M57.7007 84.4884L58.1735 84.2425C58.3106 85.7754 58.0677 86.7843 59.3021 87.8326L61.9716 88.1485L61.9417 88.4871L62.4114 88.8675L62.9222 88.9095C64.5652 88.4024 66.6224 88.5485 68.3437 88.4889C68.523 90.5344 68.2586 91.8037 69.6717 93.3476C71.1948 93.442 72.7198 93.5084 74.2448 93.5467L73.8839 97.6305C75.185 98.9175 76.5931 98.9772 78.3162 99.2061L78.7145 100.623C79.6479 99.653 80.8053 99.6664 82.0819 99.5008L82.1382 104.212C82.5609 107.678 82.9622 111.148 83.3426 114.619L83.328 115.164C83.6791 116.738 83.9237 117.95 83.605 119.573L83.1016 122.541C81.1833 123.082 81.1466 124.187 79.2675 124.443L78.709 124.976L78.3884 124.875L77.8453 123.645C74.7935 122.706 72.5877 123.196 69.8075 124.578C68.9945 125.63 69.1493 126.671 69.1597 127.949C68.9915 127.322 68.7046 125.55 68.203 125.262C66.9673 124.553 65.7978 124.292 64.4105 124.019C62.8421 124.862 62.7876 125.574 62.1221 127.156C60.4203 125.711 60.8987 123.288 58.7999 121.99C57.3404 122.317 57.0278 122.395 56.1513 123.713C53.7876 127.269 54.0568 129.355 49.6348 131.088C48.6341 130.938 47.563 130.847 46.5959 130.56L45.4489 130.299C44.5932 128.693 43.7741 128.05 42.2834 127.087C42.4907 124.785 42.358 122.377 42.3555 120.061L40.8422 118.864C41.4093 117.265 41.8173 115.907 43.2064 114.833C43.6193 114.514 43.6609 114.017 43.8285 113.532L42.5287 113.34L40.8104 109.852C41.6399 109.087 42.0307 108.246 42.6088 107.3C43.9154 105.166 44.7522 105.024 47.0014 104.442L47.7086 104.059L47.8878 100.908L49.425 100.666C50.2905 101.326 51.3396 102.344 52.4162 102.533C53.3766 100.74 53.3044 100.604 55.216 99.9634C55.6772 99.1598 56.3427 98.3848 56.8957 97.6348L56.7495 94.8513L55.7433 93.8395L55.7983 93.3099C55.8124 92.9136 55.865 92.6658 56.062 92.3176C57.609 89.578 57.7123 87.5598 57.7007 84.4884Z" fill="#AE6F44"/>
<path d="M57.7007 84.4884L58.1735 84.2425C58.3106 85.7754 58.0677 86.7843 59.3021 87.8326L61.9716 88.1485L61.9417 88.4871L62.4114 88.8675L62.9222 88.9095C64.5652 88.4024 66.6224 88.5485 68.3437 88.4889C68.523 90.5344 68.2586 91.8037 69.6717 93.3476C71.1948 93.442 72.7198 93.5084 74.2448 93.5467L73.8839 97.6305C74.0968 98.4262 74.2595 99.4502 74.6008 100.186C74.4595 100.257 74.3163 100.323 74.1775 100.398C73.5695 100.729 73.1608 101.093 72.6506 101.55L71.6683 101.345L71.215 100.03L69.8056 100.052C67.4286 99.5823 66.574 97.6141 64.1431 97.6226L63.6482 99.4544L59.296 99.3906C58.4029 98.9875 57.6499 98.2508 56.8957 97.6348L56.7495 94.8513L55.7433 93.8395L55.7983 93.3099C55.8124 92.9136 55.865 92.6658 56.062 92.3176C57.609 89.578 57.7123 87.5598 57.7007 84.4884Z" fill="#1A4131"/>
<path d="M68.3437 88.4889C68.523 90.5344 68.2586 91.8037 69.6717 93.3476C71.1948 93.442 72.7198 93.5084 74.2448 93.5467L73.8839 97.6305C74.0968 98.4262 74.2595 99.4502 74.6008 100.186C74.4595 100.257 74.3163 100.323 74.1775 100.398C73.5695 100.729 73.1608 101.093 72.6506 101.55L71.6683 101.345L71.215 100.03L69.8056 100.052C69.2117 99.67 68.4929 99.2621 68.0054 98.7507C66.8774 97.5666 67.2756 95.5241 67.2946 94.0197C68.0623 92.4758 68.1027 90.2014 68.3437 88.4889Z" fill="#498D56"/>
<path d="M62.9222 88.9095C64.5652 88.4024 66.6224 88.5485 68.3437 88.4889C68.1027 90.2014 68.0623 92.4758 67.2946 94.0197L63.9449 93.3111C62.7894 91.867 63.0292 90.7049 62.9222 88.9095Z" fill="#51A25B"/>
<path d="M57.7007 84.4884L58.1735 84.2425C58.3106 85.7754 58.0677 86.7843 59.3021 87.8326L61.9716 88.1485L61.9417 88.4871L60.2606 88.9071C59.8954 90.4553 59.7401 93.2861 58.3356 94.1659C57.8622 94.4617 57.2713 94.6547 56.7495 94.8513L55.7433 93.8395L55.7983 93.3099C55.8124 92.9136 55.865 92.6658 56.062 92.3176C57.609 89.578 57.7123 87.5598 57.7007 84.4884Z" fill="#445E48"/>
<path d="M62.4114 88.8675L62.9222 88.9095C63.0292 90.7049 62.7894 91.867 63.9449 93.3111L67.2946 94.0197C67.2756 95.5241 66.8774 97.5666 68.0054 98.7507C68.4929 99.2621 69.2117 99.67 69.8056 100.052C67.4286 99.5823 66.574 97.6141 64.1431 97.6226C62.0487 95.6021 62.4677 91.6236 62.4114 88.8675Z" fill="#326D3E"/>
<path d="M55.216 99.9634C56.4896 101.417 56.6211 101.84 56.4749 103.832C56.4522 104.137 56.4094 104.441 56.3721 104.744C55.6949 106.083 54.8624 106.453 53.5577 107.133L53.1124 109.2L53.0708 109.628L53.0916 112.839C51.6418 113.713 51.2748 113.825 49.5816 113.888C47.5936 114.704 46.5225 114.936 45.5933 117.081C45.2403 117.895 44.9479 118.741 44.6507 119.575L42.3555 120.061L40.8422 118.864C41.4093 117.265 41.8173 115.907 43.2064 114.833C43.6193 114.514 43.6609 114.017 43.8285 113.532L42.5287 113.34L40.8104 109.852C41.6399 109.087 42.0307 108.246 42.6088 107.3C43.9154 105.166 44.7522 105.024 47.0014 104.442L47.7086 104.059L47.8878 100.908L49.425 100.666C50.2905 101.326 51.3396 102.344 52.4162 102.533C53.3766 100.74 53.3044 100.604 55.216 99.9634Z" fill="#1E3C2E"/>
<path d="M40.8104 109.852C41.6399 109.087 42.0307 108.246 42.6088 107.3C43.9154 105.166 44.7522 105.024 47.0014 104.442L48.204 108.221L47.9245 109.153C47.7924 109.218 47.6572 109.277 47.5287 109.347C46.1646 110.096 45.9511 112.255 43.8285 113.532L42.5287 113.34L40.8104 109.852Z" fill="#426549"/>
<path d="M47.8878 100.908L49.425 100.666C50.2905 101.326 51.3396 102.344 52.4162 102.533C51.1989 104.611 49.2207 106.048 48.204 108.221L47.0014 104.442L47.7086 104.059L47.8878 100.908Z" fill="#445E48"/>
<path d="M49.5816 113.888C49.7235 113.482 49.7798 113.28 49.9504 112.912C50.6484 111.402 51.4877 110.217 53.0708 109.628L53.0916 112.839C51.6418 113.713 51.2748 113.825 49.5816 113.888Z" fill="#9AA082"/>
<path d="M73.8839 97.6305C75.185 98.9175 76.5931 98.9772 78.3162 99.2061L78.7145 100.623C79.6479 99.653 80.8053 99.6664 82.0819 99.5008L82.1382 104.212C82.5609 107.678 82.9622 111.148 83.3426 114.619L83.328 115.164C79.678 115.269 76.1185 115.261 72.4727 115.015C72.6324 114.804 72.7914 114.592 72.9357 114.369C73.0042 114.263 73.0703 114.156 73.1394 114.05C74.3836 112.143 74.3788 109.537 74.5941 107.312C74.7329 104.967 74.6032 102.54 74.6008 100.186C74.2595 99.4502 74.0968 98.4262 73.8839 97.6305Z" fill="#51A25B"/>
<path d="M82.1382 104.212C82.5609 107.678 82.9622 111.148 83.3426 114.619L83.328 115.164C79.678 115.269 76.1185 115.261 72.4727 115.015C72.6324 114.804 72.7914 114.592 72.9357 114.369C73.0042 114.263 73.0703 114.156 73.1394 114.05C74.3836 112.143 74.3788 109.537 74.5941 107.312C74.6008 108.795 74.2576 111.658 75.4719 112.712C75.8823 113.068 76.3539 113.339 76.8304 113.596C77.9731 113.3 79.0075 112.966 80.0903 112.495C81.8471 110.487 81.792 106.796 82.1382 104.212Z" fill="#426549"/>
<path d="M78.7145 100.623C79.6479 99.653 80.8053 99.6664 82.0819 99.5008L82.1382 104.212C81.792 106.796 81.8471 110.487 80.0903 112.495C79.0075 112.966 77.9731 113.3 76.8304 113.596C77.2287 113.317 77.5822 113.045 77.9107 112.684C80.0688 110.304 78.9127 103.689 78.7145 100.623Z" fill="#407F4A"/>
<path d="M64.1431 97.6226C66.574 97.6141 67.4286 99.5823 69.8056 100.052L71.215 100.03L71.6683 101.345L72.6506 101.55C73.1608 101.093 73.5695 100.729 74.1775 100.398C74.3163 100.323 74.4595 100.257 74.6008 100.186C74.6032 102.54 74.7329 104.967 74.5941 107.312C74.3788 109.537 74.3836 112.143 73.1394 114.05C73.0703 114.156 73.0042 114.263 72.9357 114.369C72.7914 114.592 72.6324 114.804 72.4727 115.015L71.4096 115.234C70.8493 115.032 71.0077 115.112 70.3935 114.769C68.7609 113.859 68.4636 111.919 68.014 110.259L67.9932 109.187C68.0251 108.208 68.1761 106.948 67.9853 105.99C67.5742 103.922 65.3537 104.198 64.0612 102.958C63.3002 102.228 63.628 100.478 63.6482 99.4544L64.1431 97.6226Z" fill="#1A4131"/>
<path d="M71.6683 101.345L72.6506 101.55C73.1608 101.093 73.5695 100.729 74.1775 100.398C74.3163 100.323 74.4595 100.257 74.6008 100.186C74.6032 102.54 74.7329 104.967 74.5941 107.312C74.3788 109.537 74.3836 112.143 73.1394 114.05C73.0703 114.156 73.0042 114.263 72.9357 114.369C72.7914 114.592 72.6324 114.804 72.4727 115.015L71.4096 115.234C71.7142 110.609 71.6677 105.978 71.6683 101.345Z" fill="#205B2C"/>
<path d="M56.8957 97.6348C57.6499 98.2508 58.4029 98.9875 59.296 99.3906L63.6482 99.4544C63.628 100.478 63.3002 102.228 64.0612 102.958C65.3537 104.198 67.5742 103.922 67.9853 105.99C68.1761 106.948 68.0251 108.208 67.9932 109.187C63.0898 109.222 57.9931 109.55 53.1124 109.2L53.5577 107.133C54.8624 106.453 55.6949 106.083 56.3721 104.744C56.4094 104.441 56.4522 104.137 56.4749 103.832C56.6211 101.84 56.4896 101.417 55.216 99.9634C55.6772 99.1598 56.3427 98.3848 56.8957 97.6348Z" fill="#EFBC84"/>
<path d="M56.8957 97.6348C57.6499 98.2508 58.4029 98.9875 59.296 99.3906C59.2293 100.818 59.567 102.977 58.2549 103.888C57.7148 104.263 56.9844 104.503 56.3721 104.744C56.4094 104.441 56.4522 104.137 56.4749 103.832C56.6211 101.84 56.4896 101.417 55.216 99.9634C55.6772 99.1598 56.3427 98.3848 56.8957 97.6348Z" fill="#1F3E28"/>
<path d="M68.014 110.259C68.4636 111.919 68.7609 113.859 70.3935 114.769C71.0077 115.112 70.8493 115.032 71.4096 115.234L72.4727 115.015C76.1185 115.261 79.678 115.269 83.328 115.164C83.6791 116.738 83.9237 117.95 83.605 119.573L83.1016 122.541C81.1833 123.082 81.1466 124.187 79.2675 124.443L78.8264 123.318C77.0139 122.332 74.9788 121.771 73.025 121.118C72.598 120.61 72.2005 120.164 71.6805 119.746L71.2358 119.393L69.1505 119.027C67.5919 117.732 67.8561 116.766 67.5962 114.807C68.058 113.414 67.9565 111.722 68.014 110.259Z" fill="#3D3C30"/>
<path d="M71.2358 119.393C75.2767 118.967 79.569 119.087 83.605 119.573L83.1016 122.541C81.1833 123.082 81.1466 124.187 79.2675 124.443L78.8264 123.318C77.0139 122.332 74.9788 121.771 73.025 121.118C72.598 120.61 72.2005 120.164 71.6805 119.746L71.2358 119.393Z" fill="#9E643F"/>
<path d="M67.9932 109.187L68.014 110.259C67.9565 111.722 68.058 113.414 67.5962 114.807C63.1332 114.219 58.0812 114.642 53.5295 114.508L53.0916 112.839L53.0708 109.628L53.1124 109.2C57.9931 109.55 63.0898 109.222 67.9932 109.187Z" fill="#572C1A"/>
<path d="M49.5816 113.888C51.2748 113.825 51.6418 113.713 53.0916 112.839L53.5295 114.508C53.0555 116.579 53.1747 117.494 51.4895 118.865C49.34 119.092 46.6888 118.949 44.6507 119.575C44.9479 118.741 45.2403 117.895 45.5933 117.081C46.5225 114.936 47.5936 114.704 49.5816 113.888Z" fill="#572C1A"/>
<path d="M88.7745 118.806C90.68 119.161 91.504 118.705 93.3183 118.1L95.896 119.372C94.7044 120.547 93.0436 121.814 92.4374 123.39C93.2363 123.84 94.015 124.32 94.8653 124.665L99.2181 124.353L100.927 125.208C100.568 126.526 100.604 127.531 99.3612 128.27C98.9802 128.497 99.1215 128.421 98.6547 128.568C97.2747 129.937 97.3274 130.658 97.0062 132.51L97.9238 134.985C98.7067 135.346 99.4928 135.699 100.283 136.044L100.155 139.258C101.158 140.252 101.921 139.949 101.945 141.262L101.476 141.455C89.4541 141.413 77.4311 141.461 65.41 141.6C59.7615 141.629 52.1587 142.449 46.7268 141.073C46.8087 140.864 46.9078 140.661 46.9714 140.447C47.7342 137.893 47.6767 132.971 46.5959 130.56C47.563 130.847 48.6341 130.938 49.6348 131.088C54.0568 129.355 53.7876 127.269 56.1513 123.713C57.0278 122.395 57.3404 122.317 58.7999 121.99C60.8987 123.288 60.4203 125.711 62.1221 127.156C62.7876 125.574 62.8421 124.862 64.4105 124.019C65.7978 124.292 66.9673 124.553 68.203 125.262C68.7046 125.55 68.9915 127.322 69.1597 127.949C69.1493 126.671 68.9945 125.63 69.8075 124.578C72.5877 123.196 74.7935 122.706 77.8453 123.645L78.3884 124.875L78.709 124.976L79.2675 124.443C81.1466 124.187 81.1833 123.082 83.1016 122.541L84.8639 122.063C85.2279 121.129 85.5484 120.13 86.214 119.36C86.8183 118.661 87.8741 118.862 88.7745 118.806Z" fill="#9A5A38"/>
<path d="M88.7745 118.806C90.68 119.161 91.504 118.705 93.3183 118.1L95.896 119.372C94.7044 120.547 93.0436 121.814 92.4374 123.39C91.6973 124.425 90.7509 124.464 90.1588 125.414C88.6057 127.907 86.5565 129.766 83.5689 130.358C81.94 130.68 80.7943 130.207 79.4809 129.298C78.5102 127.856 78.6674 126.635 78.709 124.976L79.2675 124.443C81.1466 124.187 81.1833 123.082 83.1016 122.541L84.8639 122.063C85.2279 121.129 85.5484 120.13 86.214 119.36C86.8183 118.661 87.8741 118.862 88.7745 118.806Z" fill="#1E3C2E"/>
<path d="M94.8653 124.665L99.2181 124.353L100.927 125.208C100.568 126.526 100.604 127.531 99.3612 128.27C98.9802 128.497 99.1215 128.421 98.6547 128.568C97.2747 129.937 97.3274 130.658 97.0062 132.51L97.9238 134.985C98.7067 135.346 99.4928 135.699 100.283 136.044L100.155 139.258C101.158 140.252 101.921 139.949 101.945 141.262L101.476 141.455C99.2371 140.879 96.89 140.808 94.5918 140.629C94.6218 135.763 93.8327 129.95 94.8928 125.253L94.8653 124.665Z" fill="#0E2F2A"/>
<path d="M69.1597 127.949C69.1493 126.671 68.9945 125.63 69.8075 124.578C72.5877 123.196 74.7935 122.706 77.8453 123.645L78.3884 124.875L77.9762 129.759C74.8522 130.269 71.8011 129.668 68.8563 130.956C68.7248 129.813 68.8783 129.262 69.3591 128.224L69.1597 127.949Z" fill="#C88758"/>
<path d="M40.8104 109.852L42.5287 113.34L43.8285 113.532C43.6609 114.017 43.6193 114.514 43.2064 114.833C41.8173 115.907 41.4093 117.265 40.8422 118.864L42.3555 120.061C42.358 122.377 42.4907 124.785 42.2834 127.087C43.7741 128.05 44.5932 128.693 45.4489 130.299L46.5959 130.56C47.6767 132.971 47.7342 137.893 46.9714 140.447C46.9078 140.661 46.8087 140.864 46.7268 141.073L43.2266 141.097C43.1367 141.121 43.0474 141.146 42.9569 141.167C39.2335 142.047 18.5585 142.649 15.6101 140.796C15.5263 139.767 15.4897 138.749 15.4719 137.717C13.9506 136.46 12.9493 136.744 11.0077 136.671L11.1833 129.333L10.9313 125.275L11.1007 119.382L11.5111 119.501C13.2453 118.597 15.0425 118.661 16.921 118.291C18.7084 117.94 19.3862 117.762 20.3894 116.247C21.0739 117.398 21.0977 117.791 22.441 118.145C23.5402 118.435 24.6542 118.252 25.7491 118.453L26.1754 118.474C28.4387 119.036 30.417 118.966 32.7298 118.823C32.865 117.571 33.0687 116.389 33.3721 115.166L34.8793 114.397L35.6874 114.712L36.252 115.035C39.2481 114.136 37.6772 112.17 40.8104 109.852Z" fill="#9A5A38"/>
<path d="M40.8104 109.852L42.5287 113.34L43.8285 113.532C43.6609 114.017 43.6193 114.514 43.2064 114.833C41.8173 115.907 41.4093 117.265 40.8422 118.864L42.3555 120.061C42.358 122.377 42.4907 124.785 42.2834 127.087L40.3792 127.013C40.9511 127.974 40.9939 127.974 40.8171 129.068L39.535 128.974C37.9244 128.054 37.0766 127.491 36.2905 125.714L35.5185 129.41C34.9607 129.595 34.3092 129.624 33.7251 129.704C32.6986 128.247 33.0082 126.404 32.9525 124.643C33.0883 122.693 32.8883 120.765 32.7298 118.823C32.865 117.571 33.0687 116.389 33.3721 115.166L34.8793 114.397L35.6874 114.712L36.252 115.035C39.2481 114.136 37.6772 112.17 40.8104 109.852Z" fill="#445E48"/>
<path d="M32.7298 118.823C32.865 117.571 33.0687 116.389 33.3721 115.166L34.8793 114.397L35.6874 114.712L36.252 115.035C36.189 118.601 36.1235 122.149 36.2905 125.714L35.5185 129.41C34.9607 129.595 34.3092 129.624 33.7251 129.704C32.6986 128.247 33.0082 126.404 32.9525 124.643C33.0883 122.693 32.8883 120.765 32.7298 118.823Z" fill="#1E3C2E"/>
<path d="M40.8422 118.864L42.3555 120.061C42.358 122.377 42.4907 124.785 42.2834 127.087L40.3792 127.013C39.324 125.688 38.5557 124.76 38.6927 122.936C38.8291 121.123 39.6084 120.095 40.8422 118.864Z" fill="#1E3C2E"/>
<path d="M20.3894 116.247C21.0739 117.398 21.0977 117.791 22.441 118.145C23.5402 118.435 24.6542 118.252 25.7491 118.453L26.1754 118.474C28.4387 119.036 30.417 118.966 32.7298 118.823C32.8883 120.765 33.0883 122.693 32.9525 124.643L32.3983 124.579C26.9297 124.365 21.5014 124.399 16.031 124.521L15.2431 124.509C13.7463 125.05 12.5211 125.238 10.9313 125.275L11.1007 119.382L11.5111 119.501C13.2453 118.597 15.0425 118.661 16.921 118.291C18.7084 117.94 19.3862 117.762 20.3894 116.247Z" fill="#5F2A0E"/>
<path d="M20.3894 116.247C21.0739 117.398 21.0977 117.791 22.441 118.145C23.5402 118.435 24.6542 118.252 25.7491 118.453C24.8579 119.123 19.8492 120.785 18.6711 120.744C17.0843 121.174 15.9184 121.106 15.0229 122.542L15.2431 124.509C13.7463 125.05 12.5211 125.238 10.9313 125.275L11.1007 119.382L11.5111 119.501C13.2453 118.597 15.0425 118.661 16.921 118.291C18.7084 117.94 19.3862 117.762 20.3894 116.247Z" fill="#0E2F2A"/>
<path d="M11.1007 119.382L11.5111 119.501C13.6209 121.168 16.127 120.831 18.6711 120.744C17.0843 121.174 15.9184 121.106 15.0229 122.542L15.2431 124.509C13.7463 125.05 12.5211 125.238 10.9313 125.275L11.1007 119.382Z" fill="#323329"/>
<path d="M16.031 124.521C21.5014 124.399 26.9297 124.365 32.3983 124.579C32.1995 126.474 32.3102 127.518 31.1608 129.071C29.6536 129.412 28.3134 129.48 26.7707 129.449C24.6346 130.672 23.0172 131.941 21.2751 133.674C19.7459 133.986 18.4368 133.909 17.0532 133.1C16.4855 132.767 15.9888 132.286 15.5233 131.827C15.5845 130.943 15.6022 130.043 15.7735 129.173L16.031 124.521Z" fill="#AE6F44"/>
<path d="M36.2905 125.714C37.0766 127.491 37.9244 128.054 39.535 128.974L40.8171 129.068C40.9939 127.974 40.9511 127.974 40.3792 127.013L42.2834 127.087C43.7741 128.05 44.5932 128.693 45.4489 130.299L46.5959 130.56C47.6767 132.971 47.7342 137.893 46.9714 140.447C46.9078 140.661 46.8087 140.864 46.7268 141.073L43.2266 141.097C42.6883 139.332 42.2919 137.95 40.9138 136.633C39.6445 135.419 38.4297 134.149 37.1904 132.904C36.8399 131.412 36.6557 130.485 35.5185 129.41L36.2905 125.714Z" fill="#0E2F2A"/>
<path d="M15.2431 124.509L16.031 124.521L15.7735 129.173L11.1833 129.333L10.9313 125.275C12.5211 125.238 13.7463 125.05 15.2431 124.509Z" fill="#693712"/>
<path d="M99.1521 119.741L102.555 119.84C104.309 120.062 104.789 119.918 105.994 121.305L106.416 123.73L108.912 124.435C109.279 126.408 109.273 128.734 110.943 129.947L114.861 129.989C116.381 129.57 117.999 129.826 119.555 129.936L119.746 129.472C120.557 130.388 120.853 131.047 122.152 131.15C123.107 131.225 124.469 130.672 125.347 130.271L126.357 129.721C128.068 129.724 129.347 129.4 130.757 130.433L131.047 131.791L131.539 131.893C134.432 132.47 137.859 131.691 140.496 132.821L141.616 134.729C139.476 135.143 138.31 135.039 136.777 136.628C136.384 138.003 136.111 139.267 136.003 140.694C128.649 143.852 113.17 140.375 104.513 141.685L101.945 141.262C101.921 139.949 101.158 140.252 100.155 139.258L100.283 136.044C99.4928 135.699 98.7067 135.346 97.9238 134.985L97.0062 132.51C97.3274 130.658 97.2747 129.937 98.6547 128.568C99.1215 128.421 98.9802 128.497 99.3612 128.27C100.604 127.531 100.568 126.526 100.927 125.208L99.2181 124.353L99.1521 119.741Z" fill="#9A5A38"/>
<path d="M99.1521 119.741L102.555 119.84C104.309 120.062 104.789 119.918 105.994 121.305L106.416 123.73C105.883 125.266 105.3 126.452 105.823 128.075L104.859 128.189C103.296 128.186 103.039 127.955 101.867 129.066C101.574 131.672 101.803 133.758 100.283 136.044C99.4928 135.699 98.7067 135.346 97.9238 134.985L97.0062 132.51C97.3274 130.658 97.2747 129.937 98.6547 128.568C99.1215 128.421 98.9802 128.497 99.3612 128.27C100.604 127.531 100.568 126.526 100.927 125.208L99.2181 124.353L99.1521 119.741Z" fill="#445E48"/>
<path d="M99.1521 119.741L102.555 119.84C102.322 121.842 102.26 123.593 100.927 125.208L99.2181 124.353L99.1521 119.741Z" fill="#0E2F2A"/>
<path d="M119.746 129.472C120.557 130.388 120.853 131.047 122.152 131.15C123.107 131.225 124.469 130.672 125.347 130.271L126.357 129.721C128.068 129.724 129.347 129.4 130.757 130.433L131.047 131.791C130.949 132.703 131.116 133.712 130.344 134.287C128.533 135.638 123.588 134.945 121.297 134.849L119.555 129.936L119.746 129.472Z" fill="#0E2F2A"/>
<path d="M100.283 136.044C101.803 133.758 101.574 131.672 101.867 129.066C103.039 127.955 103.296 128.186 104.859 128.189C104.815 132.689 104.7 137.189 104.513 141.685L101.945 141.262C101.921 139.949 101.158 140.252 100.155 139.258L100.283 136.044Z" fill="#1E3C2E"/>
<path d="M114.861 129.989C116.381 129.57 117.999 129.826 119.555 129.936L121.297 134.849C119.49 134.899 117.811 134.943 116.025 134.578C114.865 133.01 115.023 131.906 114.861 129.989Z" fill="#0E2F2A"/>
<path d="M106.416 123.73L108.912 124.435C108.295 125.521 107.775 126.594 107.304 127.75L105.823 128.075C105.3 126.452 105.883 125.266 106.416 123.73Z" fill="#1F3E28"/>
<path d="M21.351 0.218428L102.705 0.275633C114.076 0.269545 130.496 -0.240629 141.469 0.298763L141.495 5.03033L141.839 5.19713C141.512 6.91211 141.328 8.43715 141.36 10.1929L141.221 10.7274L137.09 10.5351L47.3128 10.4121C40.3363 10.423 21.5993 9.39234 16.379 10.9953C15.9502 12.398 15.9423 13.565 15.9759 15.0237C14.4748 16.511 13.3903 15.3305 12.0182 16.1238C10.2651 17.1381 10.8701 27.7859 10.8652 29.9081L10.8591 90.9916C10.9037 99.3485 10.2559 107.752 10.9808 116.088L11.1007 119.382L10.9313 125.275L11.1833 129.333L11.0077 136.671C10.9698 137.851 10.8272 139.118 10.919 140.29L5.6706 140.209L5.76112 150.6L5.5978 150.991C3.92051 150.895 2.41146 150.75 0.77883 150.297C-0.133216 149.032 -0.221313 21.1062 0.394671 11.268C2.10621 10.2672 3.64159 10.5442 5.60638 10.5144C5.54154 9.06238 5.61925 7.73703 5.82417 6.29783C7.4672 5.09181 8.64285 5.52951 10.6456 5.62083L10.8872 5.46684C10.7006 2.82527 10.3214 2.97748 11.3209 0.871651C13.4814 -0.488398 18.4546 0.125282 21.351 0.218428Z" fill="#FBDEAB"/>
<path d="M5.5978 150.991C3.92051 150.895 2.41146 150.75 0.77883 150.297C-0.133216 149.032 -0.221313 21.1062 0.394671 11.268C2.10621 10.2672 3.64159 10.5442 5.60638 10.5144L5.62843 68.5435C5.6321 78.087 5.19836 87.8411 5.67548 97.3499C5.43814 111.635 5.43631 125.923 5.6706 140.209L5.76112 150.6L5.5978 150.991Z" fill="#572C1A"/>
<path d="M21.351 0.218428L102.705 0.275633C114.076 0.269545 130.496 -0.240629 141.469 0.298763L141.495 5.03033C129.626 5.95569 111.25 5.24521 98.8939 5.34018C69.6154 5.56666 40.1785 5.06199 10.8872 5.46684C10.7006 2.82527 10.3214 2.97748 11.3209 0.871651C13.4814 -0.488398 18.4546 0.125282 21.351 0.218428Z" fill="#572C1A"/>
<path d="M5.67548 97.3499C6.34346 104.81 4.06978 130.512 7.62132 135.273L8.97196 135.759C11.809 132.376 9.86078 129.026 10.9313 125.275L11.1833 129.333L11.0077 136.671C10.9698 137.851 10.8272 139.118 10.919 140.29L5.6706 140.209C5.43631 125.923 5.43814 111.635 5.67548 97.3499Z" fill="#E0A775"/>
<path d="M5.60638 10.5144C5.54154 9.06238 5.61925 7.73703 5.82417 6.29783C7.4672 5.09181 8.64285 5.52951 10.6456 5.62083C10.771 7.48983 11.0842 8.49858 10.1825 10.1709C8.58233 10.7213 7.25491 10.6282 5.60638 10.5144Z" fill="#572C1A"/>
<path d="M78.7628 26.2645C80.7001 26.2645 81.9412 26.6815 83.3793 25.179C85.7343 22.717 87.282 19.4703 90.3178 17.7231C91.8526 17.6135 93.2656 17.5313 94.7429 17.0595L95.4029 15.3335C99.0358 13.9096 105.527 14.8617 109.538 14.922L109.56 35.976L110.85 37.0066L111.068 38.2456C111.291 38.8593 111.713 40.5584 112.243 40.8068C112.924 41.1258 113.54 41.4089 114.282 41.5678C113.099 42.1114 112.776 42.6959 112.159 43.813L110.179 44.795C108.504 44.1253 108.418 43.8203 107.439 42.2776C106.984 41.5854 106.949 41.6889 106.222 41.4137L104.487 42.9357L103.774 42.6392C103.576 40.6673 103.528 38.679 103.441 36.6992L102.971 36.7619C102.333 36.9799 100.629 37.361 100.363 37.9089C98.5073 41.7315 99.1643 45.3989 94.7998 47.3903C93.6578 48.5324 93.7446 50.5414 93.5727 52.0816C91.4244 51.8753 89.5128 52.0488 87.381 52.3367L87.4092 54.4377L86.6641 55.1238L84.5856 55.0209C83.1609 56.3858 83.2417 57.3678 82.8581 59.2679L83.186 60.2413L85.2628 61.1692C85.4047 63.1873 85.6371 65.2109 85.3374 67.223L84.0045 67.6698L83.7677 68.6671L85.1802 70.5483L82.0654 70.7443L81.1753 70.5611C80.237 69.7964 79.7232 69.1505 79.1176 68.1082L74.2931 67.7168L73.4006 66.3451L73.6325 63.0326L74.0729 58.7425C75.6407 57.4622 76.8886 57.8348 78.8809 57.8134C77.2299 57.7842 75.8028 57.6753 74.1904 57.2443C72.8312 54.2959 74.5867 50.651 73.2337 47.7093C73.0049 47.2113 71.4609 46.9209 70.8982 46.7377L70.6021 45.3642C70.1348 43.9287 69.7445 43.9104 68.5015 43.1232L68.1688 41.5525C68.4104 41.6865 68.8771 41.6341 69.156 41.642L70.7954 39.1563L71.5686 37.277C73.5291 34.1898 68.7688 33.0184 68.5633 30.1102L70.2571 30.3458C71.3074 31.9756 71.4744 32.4614 73.3682 33.1676L74.2429 32.7104C75.9196 32.6288 76.7308 32.7098 78.1774 31.785C78.6674 29.9696 78.6888 28.1304 78.7628 26.2645Z" fill="#1C542F"/>
<path d="M82.7939 35.6606C82.6465 31.7412 83.8368 30.3909 86.5271 27.5113C89.6009 24.2214 97.7739 18.8305 102.504 18.6192L103.264 19.1689C104.071 24.9531 103.182 30.8846 103.441 36.6992L102.971 36.7619C102.333 36.9799 100.629 37.361 100.363 37.9089C98.5073 41.7315 99.1643 45.3989 94.7998 47.3903C93.6578 48.5324 93.7446 50.5414 93.5727 52.0816C91.4244 51.8753 89.5128 52.0488 87.381 52.3367L87.4092 54.4377L86.6641 55.1238L84.5856 55.0209L85.1735 53.7394C84.177 50.5164 84.2712 46.9982 82.7951 43.9366C81.4843 41.6798 82.0305 38.6802 82.1822 36.1714L82.7939 35.6606Z" fill="#91DC5E"/>
<path d="M82.7939 35.6606C85.5876 36.4594 86.8189 34.4851 89.0956 33.3564C89.1972 33.3059 89.3006 33.2577 89.4027 33.2078L88.0563 36.2804L90.119 37.3105L91.5174 37.9936C91.8122 40.8915 90.7644 44.4413 93.2252 46.4443C93.725 46.8509 94.2248 47.106 94.7998 47.3903C93.6578 48.5324 93.7446 50.5414 93.5727 52.0816C91.4244 51.8753 89.5128 52.0488 87.381 52.3367L87.4092 54.4377L86.6641 55.1238L84.5856 55.0209L85.1735 53.7394C84.177 50.5164 84.2712 46.9982 82.7951 43.9366C81.4843 41.6798 82.0305 38.6802 82.1822 36.1714L82.7939 35.6606Z" fill="#4C9E5A"/>
<path d="M90.119 37.3105L91.5174 37.9936C91.8122 40.8915 90.7644 44.4413 93.2252 46.4443C93.725 46.8509 94.2248 47.106 94.7998 47.3903C93.6578 48.5324 93.7446 50.5414 93.5727 52.0816C91.4244 51.8753 89.5128 52.0488 87.381 52.3367C86.54 51.3444 86.061 50.3637 86.0029 49.0535C85.9528 47.9358 86.2158 47.8871 86.9351 47.0962L88.2001 47.2624C90.7473 43.8909 90.4977 41.4186 90.119 37.3105Z" fill="#64B35D"/>
<path d="M84.511 43.9415C84.8101 42.4791 84.7489 41.3114 85.9467 40.3319C87.0147 41.46 87.4263 43.7886 87.3823 45.321C87.3633 45.9675 87.1994 46.5155 86.9351 47.0962C86.2158 47.8871 85.9528 47.9358 86.0029 49.0535C86.061 50.3637 86.54 51.3444 87.381 52.3367L87.4092 54.4377L86.6641 55.1238L84.5856 55.0209L85.1735 53.7394C84.177 50.5164 84.2712 46.9982 82.7951 43.9366L84.511 43.9415Z" fill="#407F4A"/>
<path d="M82.7939 35.6606C85.5876 36.4594 86.8189 34.4851 89.0956 33.3564C89.1972 33.3059 89.3006 33.2577 89.4027 33.2078L88.0563 36.2804C86.3534 36.8655 85.612 38.648 84.8088 40.2412C84.2253 41.3997 84.4156 42.6904 84.511 43.9415L82.7951 43.9366C81.4843 41.6798 82.0305 38.6802 82.1822 36.1714L82.7939 35.6606Z" fill="#76C15A"/>
<path d="M93.8351 28.8525L94.0951 26.2955C95.2983 25.691 96.1345 25.6216 97.4729 25.6045C98.6682 26.3923 99.0499 26.606 99.2928 28.1304C99.7112 30.7556 98.7373 33.6406 99.7362 36.155C100.853 36.5355 101.792 36.7181 102.971 36.7619C102.333 36.9799 100.629 37.361 100.363 37.9089C98.5073 41.7315 99.1643 45.3989 94.7998 47.3903C94.2248 47.106 93.725 46.8509 93.2252 46.4443C90.7644 44.4413 91.8122 40.8915 91.5174 37.9936L90.119 37.3105L88.0563 36.2804L89.4027 33.2078C91.2507 32.5418 91.6758 30.2412 93.8351 28.8525Z" fill="#7CCA53"/>
<path d="M93.8351 28.8525C94.6138 30.2984 95.028 31.267 94.9949 32.9229C93.9018 34.7115 92.1101 36.018 91.5174 37.9936L90.119 37.3105L88.0563 36.2804L89.4027 33.2078C91.2507 32.5418 91.6758 30.2412 93.8351 28.8525Z" fill="#51A25B"/>
<path d="M78.8809 57.8134C78.8949 54.2307 77.907 39.7852 79.5758 37.1449C80.0933 36.3255 81.2598 36.3662 82.1822 36.1714C82.0305 38.6802 81.4843 41.6798 82.7951 43.9366C84.2712 46.9982 84.177 50.5164 85.1735 53.7394L84.5856 55.0209C83.1609 56.3858 83.2417 57.3678 82.8581 59.2679L83.186 60.2413L85.2628 61.1692C85.4047 63.1873 85.6371 65.2109 85.3374 67.223L84.0045 67.6698L83.7677 68.6671L85.1802 70.5483L82.0654 70.7443L81.1753 70.5611C80.237 69.7964 79.7232 69.1505 79.1176 68.1082L74.2931 67.7168L73.4006 66.3451L73.6325 63.0326L74.0729 58.7425C75.6407 57.4622 76.8886 57.8348 78.8809 57.8134Z" fill="#498D56"/>
<path d="M82.8581 59.2679L83.186 60.2413L85.2628 61.1692C85.4047 63.1873 85.6371 65.2109 85.3374 67.223L84.0045 67.6698L83.7677 68.6671L85.1802 70.5483L82.0654 70.7443L81.1753 70.5611C80.237 69.7964 79.7232 69.1505 79.1176 68.1082L74.2931 67.7168C75.5862 67.6114 76.8684 67.4531 78.1554 67.29C79.837 65.5105 79.558 63.4722 79.6076 61.1259C80.6787 59.6301 81.0359 59.7324 82.8581 59.2679Z" fill="#1B4F3A"/>
<path d="M83.186 60.2413L85.2628 61.1692C85.4047 63.1873 85.6371 65.2109 85.3374 67.223L84.0045 67.6698L83.7677 68.6671L85.1802 70.5483L82.0654 70.7443C83.0747 67.8476 82.5572 63.4941 83.186 60.2413Z" fill="#1A4131"/>
<path d="M68.5633 30.1102L70.2571 30.3458C71.3074 31.9756 71.4744 32.4614 73.3682 33.1676L73.3645 40.7332L70.7954 39.1563L71.5686 37.277C73.5291 34.1898 68.7688 33.0184 68.5633 30.1102Z" fill="#FBDEAB"/>
<path d="M70.7954 39.1563L73.3645 40.7332L73.6227 42.5997C72.8201 43.3107 72.0506 43.8167 71.1128 44.336L70.6021 45.3642C70.1348 43.9287 69.7445 43.9104 68.5015 43.1232L68.1688 41.5525C68.4104 41.6865 68.8771 41.6341 69.156 41.642L70.7954 39.1563Z" fill="#1C542F"/>
<path d="M111.068 38.2456C111.291 38.8593 111.713 40.5584 112.243 40.8068C112.924 41.1258 113.54 41.4089 114.282 41.5678C113.099 42.1114 112.776 42.6959 112.159 43.813L110.179 44.795C108.504 44.1253 108.418 43.8203 107.439 42.2776L109.529 40.4957C109.905 40.5736 110.354 40.4719 110.736 40.4348L111.068 38.2456Z" fill="#1E3C2E"/>
<path d="M109.56 35.976L110.85 37.0066L111.068 38.2456L110.736 40.4348C110.354 40.4719 109.905 40.5736 109.529 40.4957L109.56 35.976Z" fill="#9AA082"/>
<path d="M48.8292 59.3385C47.232 58.2682 47.0583 58.0308 46.2894 56.2702C46.5298 56.1186 46.8039 55.9348 47.0657 55.8301C48.8433 55.122 51.1335 56.5168 52.8071 57.2321C53.7632 59.19 53.9002 59.1558 55.931 60.0191C57.5949 62.1091 60.1169 62.9901 62.6824 63.4284L63.5253 64.9522C64.6967 65.2657 65.851 65.5032 67.0481 65.6956L67.3693 66.4188C68.7431 65.6548 69.6674 65.0107 71.3294 65.3936C72.0365 65.5561 72.7669 65.9975 73.4006 66.3451L74.2931 67.7168L79.1176 68.1082C79.7232 69.1505 80.237 69.7964 81.1753 70.5611L82.0654 70.7443L85.1802 70.5483L83.7677 68.6671L84.0045 67.6698L85.3374 67.223C86.7419 66.9691 88.024 66.5698 89.3679 66.095L90.0053 67.1092L93.7654 67.8404L96.5737 68.6787C94.8989 70.6232 94.2083 71.1607 93.7036 73.7439L94.0792 73.8529L98.4015 72.1299C98.7887 73.3317 99.1062 74.626 99.7601 75.7127L99.4396 78.2617C99.5809 80.1526 99.2682 81.503 100.657 82.8807L104.263 83.4523L104.837 83.5948L104.57 88.0244L104.515 88.4645L103.834 88.6411L101.639 88.3318L99.8904 88.9357L99.2389 90.3378C99.5588 91.3344 99.9521 92.3608 100.184 93.3787C98.3917 93.5571 96.5137 93.3312 94.7166 93.2357C92.3212 93.3337 89.8566 93.3179 87.4747 93.5541L87.8148 94.0569L87.3364 96.4501C86.4188 96.9639 85.5099 97.493 84.6107 98.0385C83.7775 98.7787 83.2374 99.3321 82.0819 99.5008C80.8053 99.6664 79.6479 99.653 78.7145 100.623L78.3162 99.2061C76.5931 98.9772 75.185 98.9175 73.8839 97.6305L74.2448 93.5467C72.7198 93.5084 71.1948 93.442 69.6717 93.3476C68.2586 91.8037 68.523 90.5344 68.3437 88.4889C66.6224 88.5485 64.5652 88.4024 62.9222 88.9095L62.4114 88.8675L61.9417 88.4871L61.9716 88.1485L59.3021 87.8326C58.0677 86.7843 58.3106 85.7754 58.1735 84.2425L57.7007 84.4884L57.9625 83.2617C58.3387 81.3702 58.5956 80.1556 57.7668 78.3073L57.4554 77.4112L57.5943 72.206C57.256 70.9318 56.9673 69.8134 56.974 68.4899C58.1827 68.552 59.3799 68.6549 60.5843 68.773L59.2991 67.3168C56.5122 66.6167 53.3772 64.8262 51.6137 62.5426C51.1555 61.9484 50.1229 61.8334 49.3969 61.6099L48.8292 59.3385Z" fill="#426549"/>
<path d="M57.5943 72.206C57.256 70.9318 56.9673 69.8134 56.974 68.4899C58.1827 68.552 59.3799 68.6549 60.5843 68.773L62.5019 68.5989C63.4489 69.9145 62.7589 72.0501 64.3175 72.3661C68.9297 73.3018 73.3988 72.6894 77.48 75.7936L77.633 76.8626C76.0175 77.2261 74.2246 77.4806 72.718 78.1667C72.8171 78.2282 72.9149 78.2915 73.0146 78.3512C74.2625 79.0957 75.2957 79.2766 76.7246 79.43C76.9944 80.3602 76.9778 80.359 76.5839 81.2472C77.1063 81.6771 77.6391 82.203 78.2208 82.5446L78.5695 83.0505L78.4086 88.7208C76.4414 89.7205 76.1398 92.2177 74.2448 93.5467C72.7198 93.5084 71.1948 93.442 69.6717 93.3476C68.2586 91.8037 68.523 90.5344 68.3437 88.4889C66.6224 88.5485 64.5652 88.4024 62.9222 88.9095L62.4114 88.8675L61.9417 88.4871L61.9716 88.1485L59.3021 87.8326C58.0677 86.7843 58.3106 85.7754 58.1735 84.2425L57.7007 84.4884L57.9625 83.2617C58.3387 81.3702 58.5956 80.1556 57.7668 78.3073L57.4554 77.4112L57.5943 72.206Z" fill="#0E2F2A"/>
<path d="M67.6207 88.0182C67.7492 86.9979 67.7516 86.0074 67.7645 84.9792C67.7963 82.2895 67.4855 79.3837 69.5139 77.4118C70.8162 77.4423 71.5704 77.5342 72.718 78.1667C72.8171 78.2282 72.9149 78.2915 73.0146 78.3512C74.2625 79.0957 75.2957 79.2766 76.7246 79.43C76.9944 80.3602 76.9778 80.359 76.5839 81.2472C77.1063 81.6771 77.6391 82.203 78.2208 82.5446L78.5695 83.0505L78.4086 88.7208C76.4414 89.7205 76.1398 92.2177 74.2448 93.5467C72.7198 93.5084 71.1948 93.442 69.6717 93.3476C68.2586 91.8037 68.523 90.5344 68.3437 88.4889C66.6224 88.5485 64.5652 88.4024 62.9222 88.9095L62.4114 88.8675L61.9417 88.4871L61.9716 88.1485L62.7093 87.4344L62.9363 87.5324L67.6207 88.0182Z" fill="#205B2C"/>
<path d="M74.2448 93.5467C74.0331 89.5908 73.2055 84.1956 74.4357 80.4655L75.4578 80.1252L76.5839 81.2472C77.1063 81.6771 77.6391 82.203 78.2208 82.5446L78.5695 83.0505L78.4086 88.7208C76.4414 89.7205 76.1398 92.2177 74.2448 93.5467Z" fill="#76C15A"/>
<path d="M57.9625 83.2617C58.6868 83.1649 61.5092 83.0316 61.8523 82.5397C62.9081 81.0244 62.3503 79.1651 63.7712 77.5275L64.6729 77.6925C65.818 79.5225 65.5581 80.4138 65.5122 82.5342C65.9716 84.441 66.2065 86.576 67.6207 88.0182L62.9363 87.5324L62.7093 87.4344L61.9716 88.1485L59.3021 87.8326C58.0677 86.7843 58.3106 85.7754 58.1735 84.2425L57.7007 84.4884L57.9625 83.2617Z" fill="#2A5243"/>
<path d="M58.1735 84.2425C59.7156 83.6775 60.2007 83.4079 61.7918 83.6849C62.6445 84.9463 62.6769 85.9423 62.7093 87.4344L61.9716 88.1485L59.3021 87.8326C58.0677 86.7843 58.3106 85.7754 58.1735 84.2425Z" fill="#426549"/>
<path d="M62.9363 87.5324C62.9399 86.9681 62.9325 86.3806 63.0157 85.8223C63.3063 83.873 64.038 83.6197 65.5122 82.5342C65.9716 84.441 66.2065 86.576 67.6207 88.0182L62.9363 87.5324Z" fill="#1B4F3A"/>
<path d="M85.3374 67.223C86.7419 66.9691 88.024 66.5698 89.3679 66.095L90.0053 67.1092L93.7654 67.8404L96.5737 68.6787C94.8989 70.6232 94.2083 71.1607 93.7036 73.7439L94.0792 73.8529L98.4015 72.1299C98.7887 73.3317 99.1062 74.626 99.7601 75.7127L99.4396 78.2617C99.5809 80.1526 99.2682 81.503 100.657 82.8807L104.263 83.4523L104.837 83.5948L104.57 88.0244L104.515 88.4645L103.834 88.6411L101.639 88.3318C101.491 88.2959 101.338 88.274 101.193 88.224C99.5967 87.6786 99.5319 86.5134 99.0113 85.0833L99.0755 84.1786C96.5113 83.4468 95.2304 81.7702 93.0356 80.5222C88.6142 78.0097 82.3902 76.4938 79.2741 72.22C78.9842 70.7918 79.0289 69.5498 79.1176 68.1082C79.7232 69.1505 80.237 69.7964 81.1753 70.5611L82.0654 70.7443L85.1802 70.5483L83.7677 68.6671L84.0045 67.6698L85.3374 67.223Z" fill="#1A4131"/>
<path d="M85.3374 67.223C86.7419 66.9691 88.024 66.5698 89.3679 66.095L90.0053 67.1092L93.7654 67.8404L96.5737 68.6787C94.8989 70.6232 94.2083 71.1607 93.7036 73.7439C92.8637 73.6452 91.9052 73.5874 91.0947 73.3524C89.7361 72.9585 88.454 69.044 87.7303 67.7016L86.6415 67.9603L85.1802 70.5483L83.7677 68.6671L84.0045 67.6698L85.3374 67.223Z" fill="#426549"/>
<path d="M98.4015 72.1299C98.7887 73.3317 99.1062 74.626 99.7601 75.7127L99.4396 78.2617C98.0956 78.2039 96.7511 78.1344 95.4078 78.0547C94.04 76.6709 94.2713 75.748 94.0792 73.8529L98.4015 72.1299Z" fill="#64B35D"/>
<path d="M104.263 83.4523L104.837 83.5948L104.57 88.0244L104.515 88.4645L103.834 88.6411L101.639 88.3318C101.491 88.2959 101.338 88.274 101.193 88.224C99.5967 87.6786 99.5319 86.5134 99.0113 85.0833C100.61 83.6118 102.191 83.6149 104.263 83.4523Z" fill="#1F3E28"/>
<path d="M78.2208 82.5446L83.8106 82.6639C83.8516 84.2662 83.5414 86.176 84.4596 87.4989C86.206 87.6998 87.9891 87.8125 89.6664 88.3561C91.5694 88.571 92.4557 88.417 93.9214 89.6925L94.7166 93.2357C92.3212 93.3337 89.8566 93.3179 87.4747 93.5541L87.8148 94.0569L87.3364 96.4501C86.4188 96.9639 85.5099 97.493 84.6107 98.0385C83.7775 98.7787 83.2374 99.3321 82.0819 99.5008C80.8053 99.6664 79.6479 99.653 78.7145 100.623L78.3162 99.2061C76.5931 98.9772 75.185 98.9175 73.8839 97.6305L74.2448 93.5467C76.1398 92.2177 76.4414 89.7205 78.4086 88.7208L78.5695 83.0505L78.2208 82.5446Z" fill="#498D56"/>
<path d="M89.6664 88.3561C91.5694 88.571 92.4557 88.417 93.9214 89.6925L94.7166 93.2357C92.3212 93.3337 89.8566 93.3179 87.4747 93.5541L87.8148 94.0569L87.3364 96.4501C86.4188 96.9639 85.5099 97.493 84.6107 98.0385C84.6076 96.5737 84.4718 95.3895 84.0436 93.9869L84.1495 88.4852L89.6664 88.3561Z" fill="#4C8358"/>
<path d="M84.0436 93.9869L84.1495 88.4852C84.3672 90.3006 84.2308 91.8104 85.3986 93.2618L87.4747 93.5541L87.8148 94.0569L87.3364 96.4501C86.4188 96.9639 85.5099 97.493 84.6107 98.0385C84.6076 96.5737 84.4718 95.3895 84.0436 93.9869Z" fill="#407F4A"/>
<path d="M78.2208 82.5446L83.8106 82.6639C83.8516 84.2662 83.5414 86.176 84.4596 87.4989C86.206 87.6998 87.9891 87.8125 89.6664 88.3561L84.1495 88.4852L84.0436 93.9869C82.496 94.0082 81.2745 94.0362 79.8241 93.3836C78.1126 90.1673 79.8829 86.8043 78.6968 83.3865C78.6576 83.2733 78.6124 83.1625 78.5695 83.0505L78.2208 82.5446Z" fill="#205B2C"/>
<path d="M74.2448 93.5467C76.1398 92.2177 76.4414 89.7205 78.4086 88.7208C78.5077 92.2397 78.5328 95.6891 78.3162 99.2061C76.5931 98.9772 75.185 98.9175 73.8839 97.6305L74.2448 93.5467Z" fill="#68B84D"/>
<path d="M89.4841 84.2303C89.6315 84.2675 89.7771 84.3149 89.927 84.3417C90.7833 84.4976 91.5896 84.3691 92.4429 84.2669C94.7362 86.0543 97.1004 88.3464 99.2389 90.3378C99.5588 91.3344 99.9521 92.3608 100.184 93.3787C98.3917 93.5571 96.5137 93.3312 94.7166 93.2357L93.9214 89.6925C92.4557 88.417 91.5694 88.571 89.6664 88.3561C87.9891 87.8125 86.206 87.6998 84.4596 87.4989C85.9161 85.9307 87.8949 85.6981 89.4841 84.2303Z" fill="#1A4131"/>
<path d="M67.3693 66.4188C68.7431 65.6548 69.6674 65.0107 71.3294 65.3936C72.0365 65.5561 72.7669 65.9975 73.4006 66.3451L74.2931 67.7168L79.1176 68.1082C79.0289 69.5498 78.9842 70.7918 79.2741 72.22C78.482 72.2833 76.6096 72.6839 75.927 72.4891C73.7285 71.8627 69.3518 67.9158 67.3693 66.4188Z" fill="#0E2F2A"/>
<path d="M72.718 78.1667C74.2246 77.4806 76.0175 77.2261 77.633 76.8626L78.3487 78.3147C80.0865 78.434 81.724 78.4304 83.3004 79.2431C84.0846 80.4022 84.1751 81.0981 84.2124 82.4819L83.8106 82.6639L78.2208 82.5446C77.6391 82.203 77.1063 81.6771 76.5839 81.2472C76.9778 80.359 76.9944 80.3602 76.7246 79.43C75.2957 79.2766 74.2625 79.0957 73.0146 78.3512C72.9149 78.2915 72.8171 78.2282 72.718 78.1667Z" fill="#1A4131"/>
<path d="M84.2124 82.4819C85.9423 82.3979 87.1449 82.1038 88.7268 82.8831L89.4841 84.2303C87.8949 85.6981 85.9161 85.9307 84.4596 87.4989C83.5414 86.176 83.8516 84.2662 83.8106 82.6639L84.2124 82.4819Z" fill="#1E3C2E"/>
<path d="M46.8668 30.145L48.2976 31.3352L48.8445 32.7786C51.4448 33.8245 54.5204 32.9375 57.2731 33.3771C58.0175 34.6854 57.9699 35.0689 59.452 35.4537C61.9741 36.1081 62.2255 35.6387 63.7755 37.898C64.9904 38.4696 65.5445 38.9086 66.3691 39.9533C66.8279 40.5334 67.3215 40.6947 67.8525 41.1611C67.9785 41.2719 68.0635 41.4216 68.1688 41.5525L68.5015 43.1232C69.7445 43.9104 70.1348 43.9287 70.6021 45.3642L70.8982 46.7377C71.4609 46.9209 73.0049 47.2113 73.2337 47.7093C74.5867 50.651 72.8312 54.2959 74.1904 57.2443C75.8028 57.6753 77.2299 57.7842 78.8809 57.8134C76.8886 57.8348 75.6407 57.4622 74.0729 58.7425L73.6325 63.0326L73.4006 66.3451C72.7669 65.9975 72.0365 65.5561 71.3294 65.3936C69.6674 65.0107 68.7431 65.6548 67.3693 66.4188L67.0481 65.6956C65.851 65.5032 64.6967 65.2657 63.5253 64.9522L62.6824 63.4284C60.1169 62.9901 57.5949 62.1091 55.931 60.0191C53.9002 59.1558 53.7632 59.19 52.8071 57.2321L52.5483 55.7491C52.3318 55.673 51.9746 55.5567 51.7513 55.4495C46.4069 52.8768 47.5605 46.5733 45.6257 41.6256C47.396 41.6049 49.1657 41.5593 50.9341 41.488C49.7107 41.1167 48.6408 40.6339 47.5085 40.0446C46.1542 37.1029 46.7886 33.3582 46.8668 30.145Z" fill="#407F4A"/>
<path d="M50.9341 41.488L51.7947 41.7182C52.1923 44.7159 51.6265 50.2297 53.1814 52.5918C54.4366 52.7288 56.0209 52.5584 56.81 53.583C57.6077 54.6173 57.6622 55.6133 57.7649 56.8711C59.43 57.6637 61.0914 57.6157 62.8934 57.6637L62.8372 61.7725L62.6824 63.4284C60.1169 62.9901 57.5949 62.1091 55.931 60.0191C53.9002 59.1558 53.7632 59.19 52.8071 57.2321L52.5483 55.7491C52.3318 55.673 51.9746 55.5567 51.7513 55.4495C46.4069 52.8768 47.5605 46.5733 45.6257 41.6256C47.396 41.6049 49.1657 41.5593 50.9341 41.488Z" fill="#0E2F2A"/>
<path d="M52.5483 55.7491C52.9533 54.369 52.8707 53.933 54.0922 53.0971C55.3481 53.6962 55.5194 53.7717 56.0418 55.153C56.5317 56.448 56.2583 58.6895 55.931 60.0191C53.9002 59.1558 53.7632 59.19 52.8071 57.2321L52.5483 55.7491Z" fill="#1F3E28"/>
<path d="M62.8934 57.6637C63.0188 57.707 63.1442 57.752 63.2709 57.7922C66.3098 58.7578 70.903 57.4275 73.3357 59.3684C73.7542 60.5056 73.8233 61.101 73.7114 62.307L73.6325 63.0326L73.4006 66.3451C72.7669 65.9975 72.0365 65.5561 71.3294 65.3936C69.6674 65.0107 68.7431 65.6548 67.3693 66.4188L67.0481 65.6956C65.851 65.5032 64.6967 65.2657 63.5253 64.9522L62.6824 63.4284L62.8372 61.7725L62.8934 57.6637Z" fill="#426549"/>
<path d="M62.8372 61.7725C66.5019 62.307 70.0191 62.3454 73.7114 62.307L73.6325 63.0326L73.4006 66.3451C72.7669 65.9975 72.0365 65.5561 71.3294 65.3936C69.6674 65.0107 68.7431 65.6548 67.3693 66.4188L67.0481 65.6956C65.851 65.5032 64.6967 65.2657 63.5253 64.9522L62.6824 63.4284L62.8372 61.7725Z" fill="#1A4131"/>
<path d="M57.2731 33.3771C58.0175 34.6854 57.9699 35.0689 59.452 35.4537C61.9741 36.1081 62.2255 35.6387 63.7755 37.898C64.3793 38.925 64.8013 39.8942 65.1989 41.0156L64.6496 41.7516C59.997 42.6745 61.1024 39.9008 57.9815 38.2693C56.7342 37.6166 52.2223 37.6952 50.4967 37.42C49.8501 36.351 49.9743 36.0265 50.033 34.8113C51.8559 33.2437 54.8807 33.5542 57.2731 33.3771Z" fill="#91DC5E"/>
<path d="M56.9459 47.3599C58.2537 47.6168 59.5658 47.8561 60.8803 48.0783C62.4022 49.1735 62.9931 49.8517 63.666 51.5618C63.9235 52.215 63.7193 52.282 63.4532 52.8932L61.7569 53.3584C59.7695 52.4707 56.7734 51.6769 55.4398 49.9534C56.0026 49.1278 56.462 48.2329 56.9459 47.3599Z" fill="#64B35D"/>
<path d="M102.971 36.7619L103.441 36.6992C103.528 38.679 103.576 40.6673 103.774 42.6392L104.487 42.9357L106.222 41.4137C106.949 41.6889 106.984 41.5854 107.439 42.2776C108.418 43.8203 108.504 44.1253 110.179 44.795L110.191 46.493L110.728 47.8615C110.443 48.9786 110.365 50.6748 109.366 51.2732C108.245 51.9441 107.174 51.9794 106.175 52.8981L106.42 54.6496C110.336 56.7956 116.841 54.6295 121.216 55.1622L127.847 55.0922L127.065 57.906C124.25 58.2883 123.828 58.6013 121.74 60.5092L121.047 61.6538L123.892 61.8078L123.826 62.1913C121.724 63.2738 119.629 63.6762 117.323 64.1255L110.32 64.2497C108.285 64.1535 105.969 63.7681 104.143 64.8323L103.988 66.8694C103.197 67.3619 102.537 67.7234 101.646 68.0272L101.175 67.9871L98.2785 66.6009C97.791 67.7965 97.5677 67.928 96.5737 68.6787L93.7654 67.8404L90.0053 67.1092L89.3679 66.095C88.024 66.5698 86.7419 66.9691 85.3374 67.223C85.6371 65.2109 85.4047 63.1873 85.2628 61.1692L83.186 60.2413L82.8581 59.2679C83.2417 57.3678 83.1609 56.3858 84.5856 55.0209L86.6641 55.1238L87.4092 54.4377L87.381 52.3367C89.5128 52.0488 91.4244 51.8753 93.5727 52.0816C93.7446 50.5414 93.6578 48.5324 94.7998 47.3903C99.1643 45.3989 98.5073 41.7315 100.363 37.9089C100.629 37.361 102.333 36.9799 102.971 36.7619Z" fill="#445E48"/>
<path d="M102.971 36.7619L103.441 36.6992C103.528 38.679 103.576 40.6673 103.774 42.6392L104.487 42.9357L106.222 41.4137C106.949 41.6889 106.984 41.5854 107.439 42.2776C108.418 43.8203 108.504 44.1253 110.179 44.795L110.191 46.493L110.728 47.8615C110.443 48.9786 110.365 50.6748 109.366 51.2732C108.245 51.9441 107.174 51.9794 106.175 52.8981L106.42 54.6496C110.336 56.7956 116.841 54.6295 121.216 55.1622C117.091 55.8276 108.034 54.3574 104.859 56.2611L104.696 56.669L100.087 56.9131L98.8199 54.1784L98.9171 53.2475L98.3109 52.5468L95.8604 52.4421L94.6621 51.7943L93.5727 52.0816C93.7446 50.5414 93.6578 48.5324 94.7998 47.3903C99.1643 45.3989 98.5073 41.7315 100.363 37.9089C100.629 37.361 102.333 36.9799 102.971 36.7619Z" fill="#205B2C"/>
<path d="M94.6621 51.7943L95.2928 50.7259L97.8864 51.3724C99.0346 49.5984 97.3769 49.0298 99.5233 47.8463C101.206 47.8494 102.709 47.741 104.221 48.6049C104.667 49.9856 104.161 50.4489 103.533 51.6696C103.146 52.4086 102.743 53.1398 102.322 53.8612L102.636 54.7458L103.89 55.0532L104.696 56.669L100.087 56.9131L98.8199 54.1784L98.9171 53.2475L98.3109 52.5468L95.8604 52.4421L94.6621 51.7943Z" fill="#1A4131"/>
<path d="M110.191 46.493L110.728 47.8615C110.443 48.9786 110.365 50.6748 109.366 51.2732C108.245 51.9441 107.174 51.9794 106.175 52.8981C105.257 51.7712 105.131 51.4857 104.89 50.0538C106.019 48.4003 108.432 47.5632 110.191 46.493Z" fill="#2A5243"/>
<path d="M94.6621 51.7943L95.8604 52.4421L98.3109 52.5468L98.9171 53.2475L98.8199 54.1784C98.7171 54.2551 98.6125 54.3311 98.5103 54.4097C97.3793 55.2821 96.7658 56.09 96.0703 57.3228L94.029 57.4598L93.5079 62.0878L94.3991 62.7496C94.3 64.3093 94.4303 66.4273 93.7654 67.8404L90.0053 67.1092L89.3679 66.095C88.024 66.5698 86.7419 66.9691 85.3374 67.223C85.6371 65.2109 85.4047 63.1873 85.2628 61.1692L83.186 60.2413L82.8581 59.2679C83.2417 57.3678 83.1609 56.3858 84.5856 55.0209L86.6641 55.1238L87.4092 54.4377L87.381 52.3367C89.5128 52.0488 91.4244 51.8753 93.5727 52.0816L94.6621 51.7943Z" fill="#1C542F"/>
<path d="M85.2628 61.1692C85.9901 60.1543 86.4348 60.2353 87.5444 59.7471C89.3379 58.9569 89.27 58.6628 89.9215 56.848C91.2476 56.9849 92.7793 56.9953 94.029 57.4598L93.5079 62.0878L94.3991 62.7496C94.3 64.3093 94.4303 66.4273 93.7654 67.8404L90.0053 67.1092L89.3679 66.095C88.024 66.5698 86.7419 66.9691 85.3374 67.223C85.6371 65.2109 85.4047 63.1873 85.2628 61.1692Z" fill="#EFBC84"/>
<path d="M89.3679 66.095C90.2732 65.0917 90.705 63.5898 91.4911 62.4367L93.5079 62.0878L94.3991 62.7496C94.3 64.3093 94.4303 66.4273 93.7654 67.8404L90.0053 67.1092L89.3679 66.095Z" fill="#1E3C2E"/>
<path d="M95.8604 52.4421L98.3109 52.5468L98.9171 53.2475L98.8199 54.1784C98.7171 54.2551 98.6125 54.3311 98.5103 54.4097C97.3793 55.2821 96.7658 56.09 96.0703 57.3228L94.029 57.4598C92.7793 56.9953 91.2476 56.9849 89.9215 56.848L89.8878 56.4284C90.5821 56.3359 91.3094 56.2373 91.9688 55.9944C93.5617 55.4075 94.2333 54.1729 94.9209 52.7288L95.8604 52.4421Z" fill="#FBDEAB"/>
<path d="M89.8878 56.4284C89.4272 55.206 89.2468 54.6174 89.6156 53.3468C91.3724 52.3928 92.9396 52.7099 94.9209 52.7288C94.2333 54.1729 93.5617 55.4075 91.9688 55.9944C91.3094 56.2373 90.5821 56.3359 89.8878 56.4284Z" fill="#1A4131"/>
<path d="M98.2785 66.6009C98.2871 65.2566 98.314 64.492 99.0407 63.3389C106.595 59.4043 113.446 59.5705 121.74 60.5092L121.047 61.6538L123.892 61.8078L123.826 62.1913C121.724 63.2738 119.629 63.6762 117.323 64.1255L110.32 64.2497C108.285 64.1535 105.969 63.7681 104.143 64.8323L103.988 66.8694C103.197 67.3619 102.537 67.7234 101.646 68.0272L101.175 67.9871L98.2785 66.6009Z" fill="#1F3E28"/>
<path d="M121.047 61.6538L123.892 61.8078L123.826 62.1913C121.724 63.2738 119.629 63.6762 117.323 64.1255L110.32 64.2497C108.285 64.1535 105.969 63.7681 104.143 64.8323C104.232 64.2247 104.528 63.5952 104.734 63.0138C108.127 60.6425 116.813 61.6416 121.047 61.6538Z" fill="#1C542F"/>
<path d="M94.029 57.4598L96.0703 57.3228C96.7658 56.09 97.3793 55.2821 98.5103 54.4097C98.6125 54.3311 98.7171 54.2551 98.8199 54.1784L100.087 56.9131C98.6327 59.2162 96.4728 59.9205 94.9637 62.1883C94.7924 62.4464 94.6224 62.5658 94.3991 62.7496L93.5079 62.0878L94.029 57.4598Z" fill="#1F3E28"/>
<path d="M41.7598 61.0565C41.9775 59.5327 41.9561 58.5848 42.9128 57.3045L44.8299 57.2966C45.8068 58.5672 46.0111 59.2022 47.6933 59.3416C48.1637 59.3805 48.3863 59.3592 48.8292 59.3385L49.3969 61.6099C50.1229 61.8334 51.1555 61.9484 51.6137 62.5426C53.3772 64.8262 56.5122 66.6167 59.2991 67.3168L60.5843 68.773C59.3799 68.6549 58.1827 68.552 56.974 68.4899C56.9673 69.8134 57.256 70.9318 57.5943 72.206L57.4554 77.4112C55.531 77.5439 53.5589 77.5945 51.6479 77.8355C52.4835 79.7398 52.8151 80.5447 52.171 82.6122L51.914 88.3957C48.212 88.7512 44.5748 88.6277 40.8655 88.5096L40.3431 88.3616C39.8139 86.6338 38.3226 86.0458 37.7103 84.2486L37.5286 83.9168C36.6343 83.6575 36.2208 83.3367 35.5265 82.7528C35.0145 79.1372 31.8716 73.8443 29.2242 71.3318C28.7782 70.9081 28.7446 69.1651 28.6596 68.4875L28.7807 64.3872C31.1462 62.8963 36.6288 63.6129 39.6916 62.6942L39.5882 61.9034C39.8916 61.9186 40.1956 61.9247 40.4978 61.9533C40.6679 61.9697 40.8367 61.9971 41.0055 62.0184C37.7072 61.3189 34.9007 62.2693 31.6489 61.9119L31.1608 61.8547L32.7415 60.7077C35.6978 60.0095 38.7912 60.6639 41.7598 61.0565Z" fill="#7CCA53"/>
<path d="M41.7598 61.0565C41.9775 59.5327 41.9561 58.5848 42.9128 57.3045L44.8299 57.2966C45.8068 58.5672 46.0111 59.2022 47.6933 59.3416C48.1637 59.3805 48.3863 59.3592 48.8292 59.3385L49.3969 61.6099C50.1229 61.8334 51.1555 61.9484 51.6137 62.5426C53.3772 64.8262 56.5122 66.6167 59.2991 67.3168L60.5843 68.773C59.3799 68.6549 58.1827 68.552 56.974 68.4899C56.9673 69.8134 57.256 70.9318 57.5943 72.206C50.9598 72.6505 55.3352 68.8175 52.0871 67.5646C50.3499 66.8949 48.3429 67.987 46.6607 66.6051L46.8461 65.3114L46.0386 64.4354C45.3951 65.6506 44.7632 66.8614 44.1858 68.1094C38.9618 67.998 33.8645 67.9962 28.6596 68.4875L28.7807 64.3872C31.1462 62.8963 36.6288 63.6129 39.6916 62.6942L39.5882 61.9034C39.8916 61.9186 40.1956 61.9247 40.4978 61.9533C40.6679 61.9697 40.8367 61.9971 41.0055 62.0184C37.7072 61.3189 34.9007 62.2693 31.6489 61.9119L31.1608 61.8547L32.7415 60.7077C35.6978 60.0095 38.7912 60.6639 41.7598 61.0565Z" fill="#1B4F3A"/>
<path d="M28.7807 64.3872C34.4812 64.4372 40.3577 64.7891 46.0386 64.4354C45.3951 65.6506 44.7632 66.8614 44.1858 68.1094C38.9618 67.998 33.8645 67.9962 28.6596 68.4875L28.7807 64.3872Z" fill="#91DC5E"/>
<path d="M41.7598 61.0565C41.9775 59.5327 41.9561 58.5848 42.9128 57.3045L44.8299 57.2966C45.8068 58.5672 46.0111 59.2022 47.6933 59.3416C48.1637 59.3805 48.3863 59.3592 48.8292 59.3385L49.3969 61.6099C50.4845 62.1719 50.8178 62.4166 51.3806 63.5003L50.6197 64.0889C47.6976 63.6896 44.6653 61.9016 41.7598 61.0565Z" fill="#0E2F2A"/>
<path d="M46.0386 64.4354L46.8461 65.3114L46.6607 66.6051C48.3429 67.987 50.3499 66.8949 52.0871 67.5646C55.3352 68.8175 50.9598 72.6505 57.5943 72.206L57.4554 77.4112C55.531 77.5439 53.5589 77.5945 51.6479 77.8355C50.8325 77.4818 50.1755 76.8218 49.5033 76.2538L49.2005 75.2414C45.4085 71.7378 41.6454 72.5037 36.8056 72.5755C40.685 72.3278 41.6796 70.891 44.1858 68.1094C44.7632 66.8614 45.3951 65.6506 46.0386 64.4354Z" fill="#76C15A"/>
<path d="M46.3671 68.0236C47.3208 68.0254 48.2194 68.1721 49.1565 68.3237C50.0349 70.0107 49.4458 70.9416 49.0323 72.7315L47.1042 72.0192C45.9132 70.5605 46.257 69.833 46.3671 68.0236Z" fill="#7CCA53"/>
<path d="M36.8056 72.5755C41.6454 72.5037 45.4085 71.7378 49.2005 75.2414L49.5033 76.2538L47.5673 79.2583C44.3039 77.5798 40.882 76.2393 37.5403 74.7252L36.8056 72.5755Z" fill="#498D56"/>
<path d="M47.5673 79.2583L49.5033 76.2538C50.1755 76.8218 50.8325 77.4818 51.6479 77.8355C52.4835 79.7398 52.8151 80.5447 52.171 82.6122C50.6393 82.6651 49.1932 82.9227 47.8774 82.0119C47.7544 81.0963 47.6511 80.1782 47.5673 79.2583Z" fill="#498D56"/>
<path d="M28.1445 83.221L37.5286 83.9168L37.7103 84.2486C38.3226 86.0458 39.8139 86.6338 40.3431 88.3616C40.674 90.0717 41.3108 91.4878 40.559 93.0956C41.4454 94.9585 42.9881 96.2547 44.4604 97.6579L46.1041 98.0853L46.3371 99.9196L47.8878 100.908L47.7086 104.059L47.0014 104.442C44.7522 105.024 43.9154 105.166 42.6088 107.3C42.0307 108.246 41.6399 109.087 40.8104 109.852C37.6772 112.17 39.2481 114.136 36.252 115.035L35.6874 114.712L34.8793 114.397L33.3721 115.166C33.0687 116.389 32.865 117.571 32.7298 118.823C30.417 118.966 28.4387 119.036 26.1754 118.474L25.7491 118.453C24.6542 118.252 23.5402 118.435 22.441 118.145C21.0977 117.791 21.0739 117.398 20.3894 116.247L20.7362 115.543C20.6457 115.244 20.5019 114.807 20.4377 114.48C20.0554 112.524 21.1711 111.442 22.2312 109.992C23.4381 108.018 25.4194 107.23 25.5454 104.893L25.4383 100.84C25.9234 100.793 26.3333 100.757 26.7663 100.511C29.2217 99.116 27.3671 90.4638 28.1959 87.5477C28.6388 86.1383 28.3109 84.6632 28.1445 83.221Z" fill="#1E3C2E"/>
<path d="M40.559 93.0956C41.4454 94.9585 42.9881 96.2547 44.4604 97.6579L46.1041 98.0853L46.3371 99.9196L47.8878 100.908L47.7086 104.059L47.0014 104.442C44.7522 105.024 43.9154 105.166 42.6088 107.3C42.0307 108.246 41.6399 109.087 40.8104 109.852C37.6772 112.17 39.2481 114.136 36.252 115.035L35.6874 114.712L34.8793 114.397L32.1414 113.32C32.3677 110.611 31.5939 106.323 33.3966 104.107C34.004 103.36 34.6524 103.571 35.5596 103.521C37.7464 101.421 36.353 97.3462 36.8668 94.5664C38.1697 93.1327 38.7031 93.2965 40.559 93.0956Z" fill="#F3C481"/>
<path d="M35.6874 114.712C35.9168 108.692 41.6111 105.417 44.4708 100.765C44.792 100.243 45.7462 100.115 46.3371 99.9196L47.8878 100.908L47.7086 104.059L47.0014 104.442C44.7522 105.024 43.9154 105.166 42.6088 107.3C42.0307 108.246 41.6399 109.087 40.8104 109.852C37.6772 112.17 39.2481 114.136 36.252 115.035L35.6874 114.712Z" fill="#1F3E28"/>
<path d="M28.1959 87.5477L32.5726 88.095C32.6613 90.5009 32.8705 93.1279 32.5341 95.5126C31.9132 99.9172 28.4418 109.442 25.3546 112.634C24.1501 113.879 22.4545 115.236 20.7362 115.543C20.6457 115.244 20.5019 114.807 20.4377 114.48C20.0554 112.524 21.1711 111.442 22.2312 109.992C23.4381 108.018 25.4194 107.23 25.5454 104.893L25.4383 100.84C25.9234 100.793 26.3333 100.757 26.7663 100.511C29.2217 99.116 27.3671 90.4638 28.1959 87.5477Z" fill="#445E48"/>
<path d="M28.1445 83.221L37.5286 83.9168L37.7103 84.2486L37.6088 84.6321C37.2032 86.2156 37.3402 88.47 36.2991 89.6346C34.7882 89.4678 33.8382 88.8992 32.5726 88.095L28.1959 87.5477C28.6388 86.1383 28.3109 84.6632 28.1445 83.221Z" fill="#0E2F2A"/>
<path d="M26.1754 118.474C26.1687 117.589 26.3589 116.88 26.6012 116.042C28.4136 114.982 30.02 113.602 32.1414 113.32L34.8793 114.397L33.3721 115.166C33.0687 116.389 32.865 117.571 32.7298 118.823C30.417 118.966 28.4387 119.036 26.1754 118.474Z" fill="#EFBC84"/>
<path d="M117.323 64.1255C119.249 64.0865 121.92 63.6707 123.505 64.8335C123.764 65.6456 124.029 66.431 124.196 67.2687C123.96 69.0853 124.072 71.5954 122.558 72.7436C121.975 73.1861 121.302 73.4151 120.617 73.6562L120.447 78.2818C119.637 78.526 118.605 78.5929 118.158 79.3332C117.603 80.25 117.651 81.6241 117.589 82.6804C116.345 84.3582 116.154 84.6413 116.018 86.7069C116.461 87.6865 116.764 88.6909 117.714 89.2876C116.934 91.7976 114.8 93.6423 112.381 94.827C112.003 95.0121 111.871 95.0413 111.508 95.1546C111.066 93.5011 110.64 91.5755 109.125 90.6197L104.515 88.4645L104.57 88.0244L104.837 83.5948L104.263 83.4523L100.657 82.8807C99.2682 81.503 99.5809 80.1526 99.4396 78.2617L99.7601 75.7127C99.1062 74.626 98.7887 73.3317 98.4015 72.1299L98.9643 72.0234C99.1618 70.5093 100.319 69.2187 101.175 67.9871L101.646 68.0272C102.537 67.7234 103.197 67.3619 103.988 66.8694L104.143 64.8323C105.969 63.7681 108.285 64.1535 110.32 64.2497L117.323 64.1255Z" fill="#76C15A"/>
<path d="M98.4015 72.1299L98.9643 72.0234C100.968 73.0991 103.172 72.8051 105.372 72.7247L105.356 73.353C105.305 74.7654 105.128 76.2837 105.229 77.6876C105.267 79.64 105.518 81.7392 104.837 83.5948L104.263 83.4523L100.657 82.8807C99.2682 81.503 99.5809 80.1526 99.4396 78.2617L99.7601 75.7127C99.1062 74.626 98.7887 73.3317 98.4015 72.1299Z" fill="#51A25B"/>
<path d="M99.4396 78.2617C101.396 78.2185 102.554 77.9402 104.275 78.9137C104.708 80.5081 104.794 81.9608 104.837 83.5948L104.263 83.4523L100.657 82.8807C99.2682 81.503 99.5809 80.1526 99.4396 78.2617Z" fill="#498D56"/>
<path d="M98.4015 72.1299L98.9643 72.0234C100.968 73.0991 103.172 72.8051 105.372 72.7247L105.356 73.353C104.928 74.1615 104.676 75.2067 103.773 75.485C102.836 75.7741 101.893 75.6487 100.93 75.6086C100.199 75.5775 100.508 75.5636 99.7601 75.7127C99.1062 74.626 98.7887 73.3317 98.4015 72.1299Z" fill="#68B84D"/>
<path d="M104.57 88.0244C106.633 88.0548 108.676 88.0335 110.737 87.9422C112.7 86.9024 112.717 85.7925 113.864 84.1196C114.689 82.9154 116.207 82.9708 117.589 82.6804C116.345 84.3582 116.154 84.6413 116.018 86.7069C116.461 87.6865 116.764 88.6909 117.714 89.2876C116.934 91.7976 114.8 93.6423 112.381 94.827C112.003 95.0121 111.871 95.0413 111.508 95.1546C111.066 93.5011 110.64 91.5755 109.125 90.6197L104.515 88.4645L104.57 88.0244Z" fill="#426549"/>
<path d="M117.323 64.1255C119.249 64.0865 121.92 63.6707 123.505 64.8335C123.764 65.6456 124.029 66.431 124.196 67.2687C122.838 67.5317 121.416 67.5907 120.039 67.7021C117.378 67.917 112.432 68.7468 110.271 66.9192L110.163 64.8463L110.32 64.2497L117.323 64.1255Z" fill="#91DC5E"/>
<path d="M105.372 72.7247C108.36 72.5652 111.825 72.0221 114.676 73.0492L115.384 74.0854C114.329 75.5605 110.979 77.3089 109.149 77.5896C108.632 77.6693 108.157 77.6529 107.638 77.6559C106.834 77.6602 106.032 77.6907 105.229 77.6876C105.128 76.2837 105.305 74.7654 105.356 73.353L105.372 72.7247Z" fill="#498D56"/>
<path d="M104.143 64.8323C105.969 63.7681 108.285 64.1535 110.32 64.2497L110.163 64.8463C109.021 66.8151 108.321 66.6508 106.14 67.2224C104.738 67.5895 103.095 68.0516 101.646 68.0272C102.537 67.7234 103.197 67.3619 103.988 66.8694L104.143 64.8323Z" fill="#498D56"/>
<path d="M46.6155 28.2279L47.1898 28.4166L46.8668 30.145C46.7886 33.3582 46.1542 37.1029 47.5085 40.0446C48.6408 40.6339 49.7107 41.1167 50.9341 41.488C49.1657 41.5593 47.396 41.6049 45.6257 41.6256C47.5605 46.5733 46.4069 52.8768 51.7513 55.4495C51.9746 55.5567 52.3318 55.673 52.5483 55.7491L52.8071 57.2321C51.1335 56.5168 48.8433 55.122 47.0657 55.8301C46.8039 55.9348 46.5298 56.1186 46.2894 56.2702C47.0583 58.0308 47.232 58.2682 48.8292 59.3385C48.3863 59.3592 48.1637 59.3805 47.6933 59.3416C46.0111 59.2022 45.8068 58.5672 44.8299 57.2966L42.9128 57.3045C41.9561 58.5848 41.9775 59.5327 41.7598 61.0565C38.7912 60.6639 35.6978 60.0095 32.7415 60.7077L31.7303 58.5519L31.263 57.6011L27.5371 57.0896C33.2779 56.3731 30.4867 55.2474 34.3747 52.3794C35.1136 51.8345 35.7009 51.286 36.3328 50.6212L36.5517 51.7968C37.4626 52.1688 38.3746 52.5358 39.2891 52.8987C39.4139 49.2556 40.5676 40.6686 38.6279 37.6813L38.9545 37.0651C40.4477 37.0462 41.7634 36.9696 43.2107 36.5873C44.565 34.7274 44.2732 31.9464 44.5124 29.6335C45.244 29.2555 45.9353 28.6954 46.6155 28.2279Z" fill="#1A4131"/>
<path d="M44.8299 57.2966C45.1804 53.9708 44.6898 51.5661 43.5955 48.4642C42.7538 46.079 41.846 43.6377 42.9911 41.1983C44.3772 40.8933 44.3876 40.9249 45.6257 41.6256C47.5605 46.5733 46.4069 52.8768 51.7513 55.4495C51.9746 55.5567 52.3318 55.673 52.5483 55.7491L52.8071 57.2321C51.1335 56.5168 48.8433 55.122 47.0657 55.8301C46.8039 55.9348 46.5298 56.1186 46.2894 56.2702C47.0583 58.0308 47.232 58.2682 48.8292 59.3385C48.3863 59.3592 48.1637 59.3805 47.6933 59.3416C46.0111 59.2022 45.8068 58.5672 44.8299 57.2966Z" fill="#445E48"/>
<path d="M36.3328 50.6212L36.5517 51.7968C37.4626 52.1688 38.3746 52.5358 39.2891 52.8987L36.416 52.8092L35.7284 53.4698C37.5372 55.3229 39.3564 56.7177 41.5347 58.1197L41.2288 59.3069C39.1447 59.6734 37.3984 58.1179 34.5264 58.4302C33.6217 58.5282 32.6405 58.5891 31.7303 58.5519L31.263 57.6011L27.5371 57.0896C33.2779 56.3731 30.4867 55.2474 34.3747 52.3794C35.1136 51.8345 35.7009 51.286 36.3328 50.6212Z" fill="#2A5243"/>
<path d="M38.7007 20.856C39.932 23.5767 43.6823 25.5455 46.3347 27.0383L46.6155 28.2279C45.9353 28.6954 45.244 29.2555 44.5124 29.6335C44.2732 31.9464 44.565 34.7274 43.2107 36.5873C41.7634 36.9696 40.4477 37.0462 38.9545 37.0651L38.6279 37.6813L37.4087 37.6398C36.5163 35.3197 34.2003 32.1345 31.8942 31.0746C31.5578 30.7422 31.43 30.1589 31.2599 29.7206C31.3841 28.864 31.4104 28.0184 31.4489 27.1552C29.8041 25.6636 28.0632 25.9668 25.8818 25.7762C25.2334 26.3978 24.5318 26.933 23.8265 27.4882L22.6943 27.2215L21.455 25.1084L21.8532 23.4592C24.0351 22.8894 26.5975 22.9789 28.859 22.8614C31.8166 22.2233 34.8922 22.9679 37.9366 22.3779L38.7007 20.856Z" fill="#426549"/>
<path d="M38.7007 20.856C39.932 23.5767 43.6823 25.5455 46.3347 27.0383L46.6155 28.2279C45.9353 28.6954 45.244 29.2555 44.5124 29.6335C42.065 29.1234 41.8319 28.2193 40.3278 26.4118C37.0533 22.4747 33.4908 23.3167 28.859 22.8614C31.8166 22.2233 34.8922 22.9679 37.9366 22.3779L38.7007 20.856Z" fill="#1F3E28"/>
<path d="M31.8942 31.0746L32.167 29.5569C33.4944 29.1709 34.0529 29.0692 35.3577 29.7985C37.0227 30.7282 38.3153 32.3043 39.4653 33.7813C39.5044 35.011 39.3582 35.9029 38.9545 37.0651L38.6279 37.6813L37.4087 37.6398C36.5163 35.3197 34.2003 32.1345 31.8942 31.0746Z" fill="#1E3C2E"/>
<path d="M120.53 21.3789C122.267 21.2297 123.279 20.957 124.886 21.7162C124.989 22.9514 124.795 23.4774 124.184 24.5465C126.531 28.0239 125.305 32.8425 125.605 36.8125C124.246 38.4629 124.12 39.9654 123.848 42.014C123.763 41.9933 123.676 41.9756 123.591 41.9519C121.472 41.3601 121.158 40.9535 120.091 39.1174C118.905 42.5552 117.123 45.7612 114.398 48.2036C112.988 48.4246 112.082 48.2919 110.728 47.8615L110.191 46.493L110.179 44.795L112.159 43.813C112.776 42.6959 113.099 42.1114 114.282 41.5678C114.519 40.4165 114.702 39.0571 115.401 38.0891C118.196 34.2221 117.516 29.1149 117.749 24.5385C118.435 24.3766 119.079 24.0668 119.729 23.7995L120.53 21.3789Z" fill="#445E48"/>
<path d="M124.184 24.5465C126.531 28.0239 125.305 32.8425 125.605 36.8125C124.246 38.4629 124.12 39.9654 123.848 42.014C123.763 41.9933 123.676 41.9756 123.591 41.9519C121.472 41.3601 121.158 40.9535 120.091 39.1174L120.114 37.6745C122.682 35.0731 122.025 31.3272 122.414 27.9618C122.632 26.0898 122.772 25.705 124.184 24.5465Z" fill="#1E3C2E"/>
<path d="M31.1608 61.8547L31.6489 61.9119C34.9007 62.2693 37.7072 61.3189 41.0055 62.0184C40.8367 61.9971 40.6679 61.9697 40.4978 61.9533C40.1956 61.9247 39.8916 61.9186 39.5882 61.9034L39.6916 62.6942C36.6288 63.6129 31.1462 62.8963 28.7807 64.3872L28.6596 68.4875C28.7446 69.1651 28.7782 70.9081 29.2242 71.3318C31.8716 73.8443 35.0145 79.1372 35.5265 82.7528C36.2208 83.3367 36.6343 83.6575 37.5286 83.9168L28.1445 83.221C28.3121 77.796 24.8487 77.1811 22.8906 72.7819L22.7512 72.4605C21.3014 69.1791 21.8281 65.1063 21.9394 61.5917C25.0297 61.557 28.0779 61.6757 31.1608 61.8547Z" fill="#1C542F"/>
<path d="M120.617 73.6562L125.931 73.1886L127.937 74.0421C128.343 77.6906 130.406 78.3213 131.679 82.0057C131.725 82.1385 131.827 82.2444 131.9 82.3631L131.153 85.5843L130.885 84.5767C130.05 83.6501 129.073 82.3674 127.908 81.8682C126.745 81.3702 126.469 81.5431 125.366 82.0557C125.167 83.9692 125.665 84.5969 126.52 86.2631C125.962 86.9547 125.431 87.7315 124.758 88.3123C123.519 88.1254 123.322 87.9665 122.377 87.2268C120.781 87.1952 119.412 88.8992 117.714 89.2876C116.764 88.6909 116.461 87.6865 116.018 86.7069C116.154 84.6413 116.345 84.3582 117.589 82.6804C117.651 81.6241 117.603 80.25 118.158 79.3332C118.605 78.5929 119.637 78.526 120.447 78.2818L120.617 73.6562Z" fill="#1A4131"/>
<path d="M120.447 78.2818C120.524 80.7724 120.607 82.6725 121.66 84.9548C122.012 85.7195 122.331 86.3703 122.377 87.2268C120.781 87.1952 119.412 88.8992 117.714 89.2876C116.764 88.6909 116.461 87.6865 116.018 86.7069C116.154 84.6413 116.345 84.3582 117.589 82.6804C117.651 81.6241 117.603 80.25 118.158 79.3332C118.605 78.5929 119.637 78.526 120.447 78.2818Z" fill="#1C542F"/>
<path d="M120.091 39.1174C121.158 40.9535 121.472 41.3601 123.591 41.9519C123.676 41.9756 123.763 41.9933 123.848 42.014C123.002 42.137 121.977 42.0585 121.393 42.7172C119.823 44.4888 120.611 50.0842 120.723 52.425L121.263 52.5005C124.396 52.9212 127.836 51.991 130.778 53.0357L131.731 54.8931L127.847 55.0922L121.216 55.1622C116.841 54.6295 110.336 56.7956 106.42 54.6496L106.175 52.8981C107.174 51.9794 108.245 51.9441 109.366 51.2732C110.365 50.6748 110.443 48.9786 110.728 47.8615C112.082 48.2919 112.988 48.4246 114.398 48.2036C117.123 45.7612 118.905 42.5552 120.091 39.1174Z" fill="#1A4131"/>
<path d="M65.9244 21.3759C65.5666 20.0353 65.4552 19.1057 65.7018 17.7353C67.0824 16.7387 67.6763 17.1271 69.2509 17.37C70.18 18.1328 70.952 18.5236 72.0787 18.9382L73.0049 20.2003C74.4907 21.5414 78.019 24.0217 78.4772 25.7793L78.7628 26.2645C78.6888 28.1304 78.6674 29.9696 78.1774 31.785C76.7308 32.7098 75.9196 32.6288 74.2429 32.7104L73.3682 33.1676C71.4744 32.4614 71.3074 31.9756 70.2571 30.3458L68.5633 30.1102C68.3553 29.1903 68.0758 28.2833 67.8213 27.375C66.1367 26.284 65.2057 25.4389 64.1584 23.7118C65.5109 24.3559 66.0443 24.9288 67.5546 24.429C67.5093 22.7451 67.0328 22.5886 65.9244 21.3759Z" fill="#2A5243"/>
<path d="M65.9244 21.3759C65.5666 20.0353 65.4552 19.1057 65.7018 17.7353C67.0824 16.7387 67.6763 17.1271 69.2509 17.37C70.18 18.1328 70.952 18.5236 72.0787 18.9382L73.0049 20.2003L72.8966 20.5394C72.5987 21.5037 72.4543 22.177 72.5326 23.1822L70.8504 25.5223L69.8546 25.5863C68.5358 23.3673 68.3296 22.468 65.9244 21.3759Z" fill="#445E48"/>
<path d="M74.2429 32.7104C73.8123 31.9677 73.2911 29.0704 72.4751 29.0144C71.5979 28.9542 71.3747 28.9925 70.651 28.4793C71.0915 26.7814 71.9393 26.0374 73.189 24.9124C75.4076 24.6244 74.9109 26.329 77.006 26.8264L78.4772 25.7793L78.7628 26.2645C78.6888 28.1304 78.6674 29.9696 78.1774 31.785C76.7308 32.7098 75.9196 32.6288 74.2429 32.7104Z" fill="#426549"/>
<path d="M129.076 58.0418L131.966 57.934L132.088 59.5991C132.05 59.7738 132.009 59.9473 131.972 60.122C131.281 63.3943 132.913 70.8984 130.074 72.8556C129.656 73.1442 129.149 73.3433 128.69 73.5594C128.18 73.8005 128.397 73.6714 127.937 74.0421L125.931 73.1886L120.617 73.6562C121.302 73.4151 121.975 73.1861 122.558 72.7436C124.072 71.5954 123.96 69.0853 124.196 67.2687C124.029 66.431 123.764 65.6456 123.505 64.8335C121.92 63.6707 119.249 64.0865 117.323 64.1255C119.629 63.6762 121.724 63.2738 123.826 62.1913L123.892 61.8078L121.047 61.6538L121.74 60.5092C123.828 58.6013 124.25 58.2883 127.065 57.906L129.076 58.0418Z" fill="#1B4F3A"/>
<path d="M123.826 62.1913L125.611 62.7228C126.928 65.6858 126.133 69.9815 125.931 73.1886L120.617 73.6562C121.302 73.4151 121.975 73.1861 122.558 72.7436C124.072 71.5954 123.96 69.0853 124.196 67.2687C124.029 66.431 123.764 65.6456 123.505 64.8335C121.92 63.6707 119.249 64.0865 117.323 64.1255C119.629 63.6762 121.724 63.2738 123.826 62.1913Z" fill="#205B2C"/>
<path d="M127.065 57.906L129.076 58.0418C128.552 59.0219 127.679 61.4906 126.652 61.7853C125.732 62.0495 124.828 61.9113 123.892 61.8078L121.047 61.6538L121.74 60.5092C123.828 58.6013 124.25 58.2883 127.065 57.906Z" fill="#1A4131"/>
<path d="M116.989 23.3629C117.799 20.6094 121.039 17.5666 123.589 16.164C125.927 14.8776 129.702 13.3866 132.396 14.2956C133.588 14.6974 133.837 15.2349 134.533 16.2096C134.803 17.7712 134.746 18.7544 134.262 20.2648C132.979 21.2571 130.2 22.9801 129.609 24.4546C128.209 24.9416 126.989 25.0256 126.293 26.4575C124.809 29.5118 127.211 33.6376 125.605 36.8125C125.305 32.8425 126.531 28.0239 124.184 24.5465C124.795 23.4774 124.989 22.9514 124.886 21.7162C123.279 20.957 122.267 21.2297 120.53 21.3789L119.729 23.7995C119.079 24.0668 118.435 24.3766 117.749 24.5385L116.989 23.3629Z" fill="#1F3E28"/>
<path d="M120.53 21.3789C122.953 19.5221 125.903 16.6905 129.299 17.236C129.491 17.2671 129.681 17.3127 129.872 17.3511C130.595 18.5754 130.484 18.663 130.28 19.9999L127.694 22.9556C128.182 23.5175 128.593 23.7032 129.276 23.9875L129.609 24.4546C128.209 24.9416 126.989 25.0256 126.293 26.4575C124.809 29.5118 127.211 33.6376 125.605 36.8125C125.305 32.8425 126.531 28.0239 124.184 24.5465C124.795 23.4774 124.989 22.9514 124.886 21.7162C123.279 20.957 122.267 21.2297 120.53 21.3789Z" fill="#2A5243"/>
<path d="M126.52 86.2631C125.665 84.5969 125.167 83.9692 125.366 82.0557C126.469 81.5431 126.745 81.3702 127.908 81.8682C129.073 82.3674 130.05 83.6501 130.885 84.5767L131.153 85.5843L131.419 87.558C132.468 88.1163 133.44 88.4694 134.59 88.7689L134.823 89.1044C134.811 92.1416 135.477 96.5974 134.214 99.2779C132.78 100.133 131.931 99.6554 130.371 99.3504C130.47 97.7742 130.698 96.0087 130.492 94.4447C130.26 92.6871 129.861 92.4948 128.518 91.5006C128.525 89.0222 128.032 88.1242 126.52 86.2631Z" fill="#426549"/>
<path d="M15.9771 31.1202C15.8261 28.9 15.4187 26.5025 16.1662 24.3614C17.7291 23.1706 18.5267 23.4202 20.434 23.4336L21.8532 23.4592L21.455 25.1084L22.6943 27.2215L23.8265 27.4882C24.5318 26.933 25.2334 26.3978 25.8818 25.7762C28.0632 25.9668 29.8041 25.6636 31.4489 27.1552C31.4104 28.0184 31.3841 28.864 31.2599 29.7206C28.1665 29.2433 21.2531 31.2937 15.9771 31.1202Z" fill="#0E2F2A"/>
<path d="M25.8818 25.7762C25.2989 27.4413 25.1343 28.3216 23.4821 29.2221C22.4452 29.7876 21.0347 30.0171 19.9031 29.6299C18.6992 29.2184 17.5455 28.3715 17.0017 27.2142C16.6029 26.3649 16.8537 26.1348 17.1479 25.2527C18.9304 24.4734 19.5997 24.7601 21.455 25.1084L22.6943 27.2215L23.8265 27.4882C24.5318 26.933 25.2334 26.3978 25.8818 25.7762Z" fill="#2A5243"/>
<path d="M48.2976 31.3352C51.7073 31.0837 54.8796 31.7674 58.3467 31.2974C61.2431 31.1379 62.7172 31.6487 64.8845 33.5743C67.335 35.7519 68.2746 36.8313 71.5686 37.277L70.7954 39.1563L69.156 41.642C68.8771 41.6341 68.4104 41.6865 68.1688 41.5525C68.0635 41.4216 67.9785 41.2719 67.8525 41.1611C67.3215 40.6947 66.8279 40.5334 66.3691 39.9533C65.5445 38.9086 64.9904 38.4696 63.7755 37.898C62.2255 35.6387 61.9741 36.1081 59.452 35.4537C57.9699 35.0689 58.0175 34.6854 57.2731 33.3771C54.5204 32.9375 51.4448 33.8245 48.8445 32.7786L48.2976 31.3352Z" fill="#1C542F"/>
<path d="M135.463 87.8332L137.139 88.3312C138.632 92.5246 137.842 98.7209 137.487 103.12C136.888 103.958 136.873 104.086 135.903 104.393L135.586 104.882L135.189 104.663C133.267 104.22 131.498 104.909 130.102 103.377L130.371 99.3504C131.931 99.6554 132.78 100.133 134.214 99.2779C135.477 96.5974 134.811 92.1416 134.823 89.1044L134.59 88.7689L135.463 87.8332Z" fill="#1F3E28"/>
<path d="M134.823 89.1044C136.17 93.898 133.81 99.9306 135.903 104.393L135.586 104.882L135.189 104.663C133.267 104.22 131.498 104.909 130.102 103.377L130.371 99.3504C131.931 99.6554 132.78 100.133 134.214 99.2779C135.477 96.5974 134.811 92.1416 134.823 89.1044Z" fill="#1A4131"/>
<path d="M130.309 51.9264C132.477 51.8863 134.246 51.7754 136.31 51.0729C136.989 52.2984 137.248 53.9221 138.048 54.9881C137.561 57.2357 135.743 58.2768 134.004 59.5814L132.088 59.5991L131.966 57.934L129.076 58.0418L127.065 57.906L127.847 55.0922L131.731 54.8931L130.778 53.0357C127.836 51.991 124.396 52.9212 121.263 52.5005L120.723 52.425C123.791 51.8272 127.183 52.0062 130.309 51.9264Z" fill="#2A5243"/>
<path d="M131.731 54.8931C132.476 55.6955 132.382 55.8599 132.312 56.9526C132.273 57.5553 132.3 57.3453 131.966 57.934L129.076 58.0418L127.065 57.906L127.847 55.0922L131.731 54.8931Z" fill="#2A5243"/>
<path d="M27.5371 57.0896C27.5016 54.8913 26.9437 51.4509 27.6423 49.4523C28.0894 48.1732 28.3929 48.1239 29.5325 47.5297C30.7124 47.643 31.5248 47.7787 32.4992 48.4892C33.7128 49.3737 34.984 49.9734 36.3328 50.6212C35.7009 51.286 35.1136 51.8345 34.3747 52.3794C30.4867 55.2474 33.2779 56.3731 27.5371 57.0896Z" fill="#1E3C2E"/>
<path d="M10.9808 116.088C16.8709 114.163 16.327 109.979 21.3778 109.017L22.2312 109.992C21.1711 111.442 20.0554 112.524 20.4377 114.48C20.5019 114.807 20.6457 115.244 20.7362 115.543L20.3894 116.247C19.3862 117.762 18.7084 117.94 16.921 118.291C15.0425 118.661 13.2453 118.597 11.5111 119.501L11.1007 119.382L10.9808 116.088Z" fill="#1E3C2E"/>
<path d="M25.1563 100.321C25.0267 95.7938 23.7556 87.8588 25.8935 83.8736L28.1445 83.221C28.3109 84.6632 28.6388 86.1383 28.1959 87.5477C27.3671 90.4638 29.2217 99.116 26.7663 100.511C26.3333 100.757 25.9234 100.793 25.4383 100.84L25.1563 100.321Z" fill="#1E3C2E"/>
<path d="M110.85 37.0066L113.644 36.6877C117.058 33.5536 113.881 27.8936 115.393 23.8889L116.989 23.3629L117.749 24.5385C117.516 29.1149 118.196 34.2221 115.401 38.0891C114.702 39.0571 114.519 40.4165 114.282 41.5678C113.54 41.4089 112.924 41.1258 112.243 40.8068C111.713 40.5584 111.291 38.8593 111.068 38.2456L110.85 37.0066Z" fill="#1E3C2E"/>
<path d="M20.434 23.4336L21.0133 21.3046C21.2629 21.1275 21.581 20.8754 21.8758 20.7457C25.4273 19.1884 35.0292 19.8119 38.7007 20.856L37.9366 22.3779C34.8922 22.9679 31.8166 22.2233 28.859 22.8614C26.5975 22.9789 24.0351 22.8894 21.8532 23.4592L20.434 23.4336Z" fill="#1E3C2E"/>
<path d="M130.309 51.9264C130.752 50.0331 130.757 48.6895 132.598 47.5827C133.974 46.7559 134.703 46.9356 136.152 47.2686C137.213 48.0953 138.288 48.9105 138.381 50.3497C138.477 51.8376 138.202 53.5014 138.048 54.9881C137.248 53.9221 136.989 52.2984 136.31 51.0729C134.246 51.7754 132.477 51.8863 130.309 51.9264Z" fill="#1E3C2E"/>
<path d="M64.1584 23.7118L63.2018 23.1285C63.1296 22.8162 63.0574 22.504 63.0011 22.1886C62.5271 19.5306 62.9522 17.8503 64.509 15.666C65.8639 14.961 66.1545 14.8721 67.6764 14.9458C68.8013 15.8413 68.8551 15.9844 69.2509 17.37C67.6763 17.1271 67.0824 16.7387 65.7018 17.7353C65.4552 19.1057 65.5666 20.0353 65.9244 21.3759C67.0328 22.5886 67.5093 22.7451 67.5546 24.429C66.0443 24.9288 65.5109 24.3559 64.1584 23.7118Z" fill="#1F3E28"/>
<path d="M47.1898 28.4166C50.2722 28.4263 54.6814 27.9283 57.4199 29.3249L58.3467 31.2974C54.8796 31.7674 51.7073 31.0837 48.2976 31.3352L46.8668 30.145L47.1898 28.4166Z" fill="#205B2C"/>
<path d="M137.09 10.5351L141.221 10.7274L141.394 15.6228C140.153 16.0325 139.302 16.0605 138.009 15.8876C136.855 14.1129 137.144 12.6232 137.09 10.5351Z" fill="#F6CF98"/>
<path d="M131.9 82.3631C133.171 82.9494 134.423 83.1881 134.996 84.5573C135.408 85.5405 135.397 86.7788 135.463 87.8332L134.59 88.7689C133.44 88.4694 132.468 88.1163 131.419 87.558L131.153 85.5843L131.9 82.3631Z" fill="#1F3E28"/>
<path d="M21.4121 103.566L25.5454 104.893C25.4194 107.23 23.4381 108.018 22.2312 109.992L21.3778 109.017L21.4121 103.566Z" fill="#1E3C2E"/>
<path d="M25.1563 100.321L25.4383 100.84L25.5454 104.893L21.4121 103.566C21.455 102.438 21.5804 101.926 22.1303 100.939L25.1563 100.321Z" fill="#1F3E28"/>
<path d="M141.839 5.19713C143.683 5.33533 145.022 5.08876 146.462 6.31426C146.545 7.75772 146.541 9.14639 146.448 10.5892L146.347 15.9247L141.804 15.5893L141.394 15.6228L141.221 10.7274L141.36 10.1929C141.328 8.43715 141.512 6.91211 141.839 5.19713Z" fill="#EFBC84"/>
<path d="M141.839 5.19713C143.683 5.33533 145.022 5.08876 146.462 6.31426C146.545 7.75772 146.541 9.14639 146.448 10.5892C144.721 10.6166 143.067 10.4121 141.36 10.1929C141.328 8.43715 141.512 6.91211 141.839 5.19713Z" fill="#572C1A"/>
</svg>
