<svg width="168" height="180" viewBox="0 0 168 180" fill="none" xmlns="http://www.w3.org/2000/svg">
<path d="M10.802 5.60417C10.6606 3.70685 10.2793 2.0703 11.1865 0.508812C14.1142 -0.421722 132.519 0.148184 145.366 0.464298C145.916 0.478291 145.992 1.4845 146.155 2.1727C146.367 3.07143 146.291 4.65329 146.262 5.67732L151.594 5.72693C151.826 8.18715 151.46 8.96313 152.8 10.5984L154.367 10.898C158.024 11.5308 157.138 13.0211 156.972 16.6058C158.926 16.5002 160.217 16.1752 161.802 17.2025C162.189 18.6959 162.111 18.9478 162.005 20.5143L163.133 21.8195C165.104 21.9353 166.321 21.6395 167.65 22.6597C168.058 33.7956 167.972 45.6248 167.813 56.8185C167.265 95.5263 168.601 134.703 167.643 173.352C165.348 175.101 164.335 172.848 162.546 175.075L162.404 178.617C159.97 180.26 149.83 179.237 146.24 179.318C132.968 179.724 117.891 179.342 104.417 179.342L21.4631 179.312L21.6014 176.286C20.4626 174.135 20.0027 174.582 17.0337 173.46C15.8074 171.507 16.2515 171.282 16.2578 168.556C14.8894 168.535 13.5217 168.493 12.1546 168.432C10.3903 166.822 11.2074 166.341 10.2387 163.318L10.1169 162.948C8.47951 163.049 7.91745 163.004 6.28705 162.799C4.77147 160.971 5.3126 160.699 5.29293 157.666C3.39164 157.664 2.03151 157.906 0.503249 156.887C-0.461034 151.816 0.174629 13.0955 0.641544 11.5722C2.44133 10.5335 2.80356 10.9781 5.20983 11.1562C5.21808 9.28496 5.28596 8.48227 5.57842 6.63329C7.5368 5.25561 7.95993 5.71738 10.802 5.60417Z" fill="#A4A1A6"/>
<path d="M10.802 5.60417C10.6606 3.70685 10.2793 2.0703 11.1865 0.508812C14.1142 -0.421722 132.519 0.148184 145.366 0.464298C145.916 0.478291 145.992 1.4845 146.155 2.1727C146.367 3.07143 146.291 4.65329 146.262 5.67732L146.39 11.1219L146.141 14.7378C144.462 16.0716 144.078 15.6855 141.62 15.9005C143.692 17.8608 146.017 15.5417 146.27 19.0533C146.526 22.5967 146.406 26.233 146.359 29.7885L146.183 33.213L146.439 33.7587C147.526 36.3124 146.742 57.9252 146.335 61.5335L146.161 61.9959L146.284 64.6488L146.093 65.4878C146.178 68.8811 146.694 69.1107 145.337 71.7674C142.857 73.2055 139.413 72.8939 136.734 71.943L136.538 72.9391C137.141 74.4401 137.17 74.6793 138.219 75.868C140.676 76.8749 143.559 76.4157 146.247 76.2211C146.252 79.0985 146.171 82.4187 146.281 85.2523L146.192 92.4637C142.824 93.1761 142.145 93.975 140.137 91.065C135.78 88.8402 76.1893 91.6407 66.1252 90.6688C65.6703 90.6243 62.086 93.9769 61.4256 94.6097C58.3386 94.646 42.9945 95.1249 39.4298 93.8649C38.8735 93.6677 39.9989 92.0929 37.9168 90.581C32.4299 90.4176 18.5112 89.1416 15.0411 92.395C14.4194 92.9776 12.2231 92.8574 11.1357 92.9128L10.9435 99.3152L11.1053 106.085L11.1586 108.736C10.9105 113.633 11.4421 122.883 11.0152 126.781L11.0767 130.333L11.1535 138.559C11.118 140.623 10.7056 141.662 11.7067 143.042C12.7135 143.055 13.2927 143.1 14.3033 142.969C15.9394 144.848 15.4401 143.962 16.006 146.632C13.9823 146.652 12.6024 146.533 10.6758 147.194L10.1619 146.912L5.47375 146.804L5.46358 157.139L5.29293 157.666C3.39164 157.664 2.03151 157.906 0.503249 156.887C-0.461034 151.816 0.174629 13.0955 0.641544 11.5722C2.44133 10.5335 2.80356 10.9781 5.20983 11.1562C5.21808 9.28496 5.28596 8.48227 5.57842 6.63329C7.5368 5.25561 7.95993 5.71738 10.802 5.60417Z" fill="#A9643B"/>
<path d="M10.802 5.60417C10.6606 3.70685 10.2793 2.0703 11.1865 0.508812C14.1142 -0.421722 132.519 0.148184 145.366 0.464298C145.916 0.478291 145.992 1.4845 146.155 2.1727C146.367 3.07143 146.291 4.65329 146.262 5.67732L146.39 11.1219L146.141 14.7378C144.462 16.0716 144.078 15.6855 141.62 15.9005L140.726 11.3388C135.77 10.5348 121.027 10.7937 115.385 10.7854L66.3403 10.8153L33.9106 10.8693C28.9369 10.8693 20.7957 10.5074 16.2191 11.1829C16.1221 13.7322 16.5522 14.096 15.2301 15.8146C13.4855 16.0035 12.7782 16.0493 11.0298 15.9488C10.2818 20.8349 10.2799 41.7792 10.4468 47.8948C10.8915 64.217 9.84156 83.5642 10.4772 99.4538L10.9435 99.3152L11.1053 106.085L11.1586 108.736C10.9105 113.633 11.4421 122.883 11.0152 126.781L11.0767 130.333L11.1535 138.559C11.118 140.623 10.7056 141.662 11.7067 143.042C12.7135 143.055 13.2927 143.1 14.3033 142.969C15.9394 144.848 15.4401 143.962 16.006 146.632C13.9823 146.652 12.6024 146.533 10.6758 147.194L10.1619 146.912L5.47375 146.804L5.46358 157.139L5.29293 157.666C3.39164 157.664 2.03151 157.906 0.503249 156.887C-0.461034 151.816 0.174629 13.0955 0.641544 11.5722C2.44133 10.5335 2.80356 10.9781 5.20983 11.1562C5.21808 9.28496 5.28596 8.48227 5.57842 6.63329C7.5368 5.25561 7.95993 5.71738 10.802 5.60417Z" fill="#EFBC84"/>
<path d="M5.20983 11.1562L6.10815 11.1657C4.74927 13.5573 5.17875 130.727 5.47375 146.804L5.46358 157.139L5.29293 157.666C3.39164 157.664 2.03151 157.906 0.503249 156.887C-0.461034 151.816 0.174629 13.0955 0.641544 11.5722C2.44133 10.5335 2.80356 10.9781 5.20983 11.1562Z" fill="#572C1A"/>
<path d="M10.802 5.60417C10.6606 3.70685 10.2793 2.0703 11.1865 0.508812C14.1142 -0.421722 132.519 0.148184 145.366 0.464298C145.916 0.478291 145.992 1.4845 146.155 2.1727C146.367 3.07143 146.291 4.65329 146.262 5.67732C103.147 5.8904 56.5344 6.43739 13.6149 5.52466L10.7976 6.12128L10.802 5.60417Z" fill="#572C1A"/>
<path d="M10.9435 99.3152L11.1053 106.085L11.1586 108.736C10.9105 113.633 11.4421 122.883 11.0152 126.781L11.0767 130.333L11.1535 138.559C11.118 140.623 10.7056 141.662 11.7067 143.042C12.7135 143.055 13.2927 143.1 14.3033 142.969C15.9394 144.848 15.4401 143.962 16.006 146.632C13.9823 146.652 12.6024 146.533 10.6758 147.194L10.1619 146.912C11.7213 140.179 10.318 108.544 10.4772 99.4538L10.9435 99.3152Z" fill="#D29362"/>
<path d="M5.20983 11.1562C5.21808 9.28496 5.28596 8.48227 5.57842 6.63329C7.5368 5.25561 7.95993 5.71738 10.802 5.60417L10.7976 6.12128L10.8376 11.2338L6.10815 11.1657L5.20983 11.1562Z" fill="#5F2F17"/>
<path d="M10.7976 6.12128L13.6149 5.52466C15.3183 6.667 15.3944 7.03718 16.1278 8.98666C15.7351 11.1308 16.1684 10.384 14.4974 11.7878C12.7826 11.7725 12.4838 11.7191 10.8376 11.2338L10.7976 6.12128Z" fill="#F6CF98"/>
<path d="M16.2191 11.1829C20.7957 10.5074 28.9369 10.8693 33.9106 10.8693L66.3403 10.8153L115.385 10.7854C121.027 10.7937 135.77 10.5348 140.726 11.3388L141.62 15.9005C143.692 17.8608 146.017 15.5417 146.27 19.0533C146.526 22.5967 146.406 26.233 146.359 29.7885L146.183 33.213C144.985 33.4693 140.243 33.3809 138.736 33.3809C138.387 32.4421 138.042 31.932 137.533 31.0905C134.005 29.3922 127.59 29.8718 124.535 32.6698C119.751 33.047 65.5308 33.4171 63.8763 32.7569C63.4455 32.2354 62.4977 31.1439 61.9769 30.8914C59.3213 29.6015 43.7488 29.5971 41.5798 30.2802C41.3863 31.5268 41.4529 31.5656 40.7125 32.6488C34.2468 33.5062 18.3444 32.9242 11.2252 32.8065L11.0241 29.9176C11.5018 27.0402 11.1706 18.9662 11.0298 15.9488C12.7782 16.0493 13.4855 16.0035 15.2301 15.8146C16.5522 14.096 16.1221 13.7322 16.2191 11.1829Z" fill="#A9643B"/>
<path d="M11.0241 29.9176C15.5911 30.0429 18.6394 30.712 21.7847 27.6718C24.1383 25.3966 37.7677 27.9688 40.8394 26.2744L41.2353 23.4217C42.7826 22.4008 51.3787 22.3977 53.0256 23.208C53.2793 24.4146 53.4563 25.076 53.8395 26.2502C56.6156 27.7843 66.3542 25.1422 70.2868 27.1019L70.8083 29.3115C74.8177 31.9892 96.3992 27.7105 100.87 27.3823C106.451 26.9734 134.238 26.5345 137.625 27.9058L138.429 29.8585L138.736 33.3809C138.387 32.4421 138.042 31.932 137.533 31.0905C134.005 29.3922 127.59 29.8718 124.535 32.6698C119.751 33.047 65.5308 33.4171 63.8763 32.7569C63.4455 32.2354 62.4977 31.1439 61.9769 30.8914C59.3213 29.6015 43.7488 29.5971 41.5798 30.2802C41.3863 31.5268 41.4529 31.5656 40.7125 32.6488C34.2468 33.5062 18.3444 32.9242 11.2252 32.8065L11.0241 29.9176Z" fill="#83472D"/>
<path d="M16.2191 11.1829C20.7957 10.5074 28.9369 10.8693 33.9106 10.8693L66.3403 10.8153L115.385 10.7854C121.027 10.7937 135.77 10.5348 140.726 11.3388C137.02 11.8654 129.526 10.7835 127.094 12.1045L127.016 15.2142C125.42 16.139 125.877 15.8343 123.61 15.5576C122.744 14.5762 122.306 13.902 121.575 12.8125C115.458 9.30023 53.0091 12.5078 41.64 11.7604C40.0407 11.6549 41.156 14.1959 38.935 15.8108C36.5725 15.9831 36.948 16.3387 35.3741 15.3C35.3906 13.8829 35.5942 12.9015 34.7955 11.7821C29.8422 10.8611 22.1964 11.763 16.2191 11.1829Z" fill="#C08052"/>
<path d="M138.429 29.8585L146.359 29.7885L146.183 33.213C144.985 33.4693 140.243 33.3809 138.736 33.3809L138.429 29.8585Z" fill="#693712"/>
<path d="M102.217 72.4588C103.809 69.3181 134.546 69.4414 136.734 71.943L136.538 72.9391C137.141 74.4401 137.17 74.6793 138.219 75.868C140.676 76.8749 143.559 76.4157 146.247 76.2211C146.252 79.0985 146.171 82.4187 146.281 85.2523L146.192 92.4637C142.824 93.1761 142.145 93.975 140.137 91.065C135.78 88.8402 76.1893 91.6407 66.1252 90.6688C65.6703 90.6243 62.086 93.9769 61.4256 94.6097C58.3386 94.646 42.9945 95.1249 39.4298 93.8649C38.8735 93.6677 39.9989 92.0929 37.9168 90.581C32.4299 90.4176 18.5112 89.1416 15.0411 92.395C14.4194 92.9776 12.2231 92.8574 11.1357 92.9128C11.2873 87.5655 11.1712 81.6351 11.1839 76.2389C21.6432 76.9741 22.4901 72.0264 28.3805 71.328C32.3575 70.8567 48.1547 70.6194 51.9078 71.2624C52.1101 71.992 52.669 73.6076 53.2489 73.6362C68.1413 74.3651 83.3935 73.1935 98.2308 73.9459C98.6457 74.3498 98.9996 74.6939 99.2927 74.9789C100.546 74.2315 101.188 73.4841 102.217 72.4588Z" fill="#A9643B"/>
<path d="M102.217 72.4588C103.809 69.3181 134.546 69.4414 136.734 71.943L136.538 72.9391C133.839 73.1102 127.955 72.8729 126.378 74.1316L125.876 76.2999C124.038 77.0396 122.646 76.7191 120.812 75.9221C112.228 72.1917 108.519 72.4232 101.173 76.8119C99.4311 76.0232 99.9024 76.5486 99.2927 74.9789C100.546 74.2315 101.188 73.4841 102.217 72.4588Z" fill="#C88758"/>
<path d="M82.7591 76.2923C86.5097 76.3616 93.2539 74.83 96.4126 76.8876C97.6693 77.7062 97.6484 79.8643 97.9123 81.2706C93.1207 81.1892 87.9497 82.4823 83.3776 80.8718C82.0898 79.2162 82.5732 78.3353 82.7591 76.2923Z" fill="#C88758"/>
<path d="M30.0471 76.3012C32.6932 76.3591 37.7195 75.1741 39.7984 77.0568C40.6447 77.8233 40.5527 79.6735 40.6935 80.8095C37.8711 81.0232 34.4847 81.6605 31.7904 80.6638C30.2507 79.2156 30.3719 78.327 30.0471 76.3012Z" fill="#C08052"/>
<path d="M49.1786 88.2347C50.1315 87.079 51.838 86.9142 52.9926 87.8677C54.1478 88.8205 54.3147 90.5314 53.3669 91.6909C52.4159 92.8543 50.7037 93.0222 49.5453 92.0668C48.3875 91.1109 48.2232 89.3942 49.1786 88.2347Z" fill="#83472D"/>
<path d="M11.0298 15.9488C11.1706 18.9662 11.5018 27.0402 11.0241 29.9176L11.2252 32.8065C18.3444 32.9242 34.2468 33.5062 40.7125 32.6488C41.4529 31.5656 41.3863 31.5268 41.5798 30.2802C43.7488 29.5971 59.3213 29.6015 61.9769 30.8914C62.4977 31.1439 63.4455 32.2354 63.8763 32.7569C65.5308 33.4171 119.751 33.047 124.535 32.6698C127.59 29.8718 134.005 29.3922 137.533 31.0905C138.042 31.932 138.387 32.4421 138.736 33.3809C140.243 33.3809 144.985 33.4693 146.183 33.213L146.439 33.7587C147.526 36.3124 146.742 57.9252 146.335 61.5335C146.095 55.8886 146.149 50.6368 146.22 44.9836C143.26 45.0059 141.954 45.481 139.601 44.2197C139.084 43.0367 138.97 42.0495 137.996 41.769C133.972 40.6102 126.962 41.1921 122.798 41.3734C120.983 42.5749 120.154 43.361 118.524 44.9251C117.7 45.7138 107.984 45.1763 107.78 45.3048C103.288 48.1295 105.066 48.8056 98.539 48.805L97.5025 48.2332C97.2151 45.7278 96.9442 46.519 98.147 44.9524C101.75 43.7993 104.471 44.8348 106.494 43.4444L105.996 42.0998C104.438 41.4237 95.1755 41.0109 94.0837 41.874C88.4077 46.3613 70.1067 45.6063 63.0237 44.726C62.2414 43.7331 62.2751 42.9813 62.1025 41.7239C59.7184 40.4696 26.785 40.9523 21.3083 41.9516C18.3844 42.4859 18.2441 44.518 11.1897 44.5543C11.1364 49.0727 11.3115 58.0079 10.9169 62.1632L10.9955 65.622C11.0152 67.4913 10.7538 69.727 11.7466 71.1333C14.59 71.3909 22.1806 71.798 24.7524 70.7689L25.1654 68.4804C27.6224 67.6885 49.4241 67.8151 52.6881 68.1267C54.807 70.1665 51.524 70.2416 55.0404 70.6627C62.4502 71.5512 98.7548 68.3354 102.217 72.4588C101.188 73.4841 100.546 74.2315 99.2927 74.9789C98.9996 74.6939 98.6457 74.3498 98.2308 73.9459C83.3935 73.1935 68.1413 74.3651 53.2489 73.6362C52.669 73.6076 52.1101 71.992 51.9078 71.2624C48.1547 70.6194 32.3575 70.8567 28.3805 71.328C22.4901 72.0264 21.6432 76.9741 11.1839 76.2389C11.1712 81.6351 11.2873 87.5655 11.1357 92.9128L10.9435 99.3152L10.4772 99.4538C9.84156 83.5642 10.8915 64.217 10.4468 47.8948C10.2799 41.7792 10.2818 20.8349 11.0298 15.9488Z" fill="#C08052"/>
<path d="M11.2252 32.8065C18.3444 32.9242 34.2468 33.5062 40.7125 32.6488C41.4529 31.5656 41.3863 31.5268 41.5798 30.2802C43.7488 29.5971 59.3213 29.6015 61.9769 30.8914C62.4977 31.1439 63.4455 32.2354 63.8763 32.7569C65.5308 33.4171 119.751 33.047 124.535 32.6698C127.59 29.8718 134.005 29.3922 137.533 31.0905C138.042 31.932 138.387 32.4421 138.736 33.3809C140.243 33.3809 144.985 33.4693 146.183 33.213L146.439 33.7587C146.358 35.7183 146.452 36.121 145.666 37.858C143.555 39.2923 100.141 37.9483 92.7026 38.4654C91.6634 39.9035 91.4909 40.0562 89.9963 41.0109C86.4183 41.528 68.3164 41.3575 65.0385 40.5777C64.8203 40.1242 64.5912 39.588 64.2683 39.202C62.9469 37.6214 30.0858 37.6621 25.5384 38.1131C19.0809 38.7529 19.839 41.6635 11.1674 40.8023L11.2252 32.8065Z" fill="#9A5A38"/>
<path d="M10.9169 62.1632C15.7402 62.3375 17.1359 63.1898 20.1848 59.0567C26.6626 57.999 34.4885 59.5675 39.2528 58.429C40.0344 57.3343 40.0452 56.919 40.3421 55.6374C42.3778 54.8137 50.0173 54.9046 51.68 55.9376C56.2661 58.7864 56.1271 59.8702 62.3049 59.7748C69.7717 59.6597 77.6186 60.3415 85.1584 59.4759C85.5555 59.1337 89.8872 55.3817 89.9145 55.3734C95.2434 53.8463 101.283 55.7169 106.739 54.8881C109.699 54.4384 112.439 53.1479 115.383 53.8024C116.275 55.4453 116.139 56.2187 116.185 58.0817C118.821 60.3613 133.076 57.7414 137.197 58.7934C137.705 58.9225 138.212 61.024 138.352 61.5914C140.648 62.8164 143.602 61.5373 146.161 61.9959L146.284 64.6488L146.093 65.4878C146.178 68.8811 146.694 69.1107 145.337 71.7674C142.857 73.2055 139.413 72.8939 136.734 71.943C134.546 69.4414 103.809 69.3181 102.217 72.4588C98.7548 68.3354 62.4502 71.5512 55.0404 70.6627C51.524 70.2416 54.807 70.1665 52.6881 68.1267C49.4241 67.8151 27.6224 67.6885 25.1654 68.4804L24.7524 70.7689C22.1806 71.798 14.59 71.3909 11.7466 71.1333C10.7538 69.727 11.0152 67.4913 10.9955 65.622L10.9169 62.1632Z" fill="#83472D"/>
<path d="M10.9955 65.622C18.3894 65.6652 34.6198 66.2956 40.9885 64.4657C47.5038 57.4832 54.7017 64.4205 60.8598 64.9491C70.2457 65.7549 81.34 65.5864 90.8204 65.2601C91.5721 64.4867 92.0131 64.0033 92.6938 63.17C97.9948 62.3419 106.541 62.7732 112.047 63.1739L112.556 64.549C115.519 65.7072 141.579 65.4623 146.093 65.4878C146.178 68.8811 146.694 69.1107 145.337 71.7674C142.857 73.2055 139.413 72.8939 136.734 71.943C134.546 69.4414 103.809 69.3181 102.217 72.4588C98.7548 68.3354 62.4502 71.5512 55.0404 70.6627C51.524 70.2416 54.807 70.1665 52.6881 68.1267C49.4241 67.8151 27.6224 67.6885 25.1654 68.4804L24.7524 70.7689C22.1806 71.798 14.59 71.3909 11.7466 71.1333C10.7538 69.727 11.0152 67.4913 10.9955 65.622Z" fill="#9A5A38"/>
<path d="M112.047 63.1739C112.762 60.6704 112.231 61.0317 113.994 59.9243L115.273 60.3804C115.718 62.3076 115.802 61.4992 114.795 63.4283L112.556 64.549L112.047 63.1739Z" fill="#9A5A38"/>
<path d="M29.9456 44.5556C31.5106 44.5492 33.0503 44.6001 34.6116 44.712C35.9305 46.0019 35.8772 47.0189 36.2147 48.7878C34.576 48.6975 32.9406 48.562 31.3095 48.3826C29.9671 47.101 30.1429 46.3416 29.9456 44.5556Z" fill="#C08052"/>
<path d="M11.1357 92.9128C12.2231 92.8574 14.4194 92.9776 15.0411 92.395C18.5112 89.1416 32.4299 90.4176 37.9168 90.581C39.9989 92.0929 38.8735 93.6677 39.4298 93.8649C42.9945 95.1249 58.3386 94.646 61.4256 94.6097C62.086 93.9769 65.6703 90.6243 66.1252 90.6688C76.1893 91.6407 135.78 88.8402 140.137 91.065C142.145 93.975 142.824 93.1761 146.192 92.4637L146.194 99.7681L146.465 100.966C146.999 104.068 146.924 110.869 146.32 113.976C146.158 118.297 146.098 122.029 146.189 126.353L146.198 130.453L146.15 138.568C143.336 138.609 137.632 138.465 135.176 139.241L136.039 135.816C131.967 133.24 105.65 135.138 99.3936 135.083C98.5968 135.076 98.4217 137.263 97.092 138.394C91.1344 138.468 53.4722 138.811 50.6091 137.767L50.2615 135.556C47.9707 133.978 26.2788 134.6 22.7896 135.295C22.6259 136.326 22.7255 137.23 22.0359 137.631C19.6861 138.999 13.8643 138.608 11.1535 138.559L11.0767 130.333L11.0152 126.781C11.4421 122.883 10.9105 113.633 11.1586 108.736L11.1053 106.085L10.9435 99.3152L11.1357 92.9128Z" fill="#9A5A38"/>
<path d="M11.0767 130.333C21.6413 131.056 25.5099 126.222 37.16 127.925L37.434 128.552C37.7582 129.286 37.8895 129.508 38.3577 130.184C44.3331 130.78 105.305 130.982 106.803 129.779C107.433 129.272 107.972 128.637 108.495 128.024C113.459 127.758 128.006 127.486 132.538 128.064L133.699 129.986C137.257 130.763 142.437 130.492 146.198 130.453L146.15 138.568C143.336 138.609 137.632 138.465 135.176 139.241L136.039 135.816C131.967 133.24 105.65 135.138 99.3936 135.083C98.5968 135.076 98.4217 137.263 97.092 138.394C91.1344 138.468 53.4722 138.811 50.6091 137.767L50.2615 135.556C47.9707 133.978 26.2788 134.6 22.7896 135.295C22.6259 136.326 22.7255 137.23 22.0359 137.631C19.6861 138.999 13.8643 138.608 11.1535 138.559L11.0767 130.333Z" fill="#9A5A38"/>
<path d="M11.1357 92.9128C12.2231 92.8574 14.4194 92.9776 15.0411 92.395C18.5112 89.1416 32.4299 90.4176 37.9168 90.581C39.9989 92.0929 38.8735 93.6677 39.4298 93.8649C42.9945 95.1249 58.3386 94.646 61.4256 94.6097C62.086 93.9769 65.6703 90.6243 66.1252 90.6688C76.1893 91.6407 135.78 88.8402 140.137 91.065C142.145 93.975 142.824 93.1761 146.192 92.4637L146.194 99.7681C144.162 99.9602 143.805 100.078 142.267 99.2249C138.342 97.0502 122.752 97.809 117.948 98.0024C117.431 98.7243 116.902 99.4386 116.362 100.144C105.942 101.176 94.0336 100.468 83.5089 100.259C82.9811 100.249 80.139 97.0585 76.8478 97.0591C73.0306 97.0598 73.5109 98.8789 71.1858 98.9775C60.9105 99.4138 50.5387 99.0837 40.2501 99.0436C38.2759 99.0353 37.4365 97.0432 36.0973 95.3698C32.1273 93.8675 22.9495 94.8775 18.3856 95.0003C16.287 95.0569 16.8161 97.0146 15.4668 98.5519C14.5748 99.5683 12.6044 99.2598 10.9435 99.3152L11.1357 92.9128Z" fill="#83472D"/>
<path d="M11.0152 126.781C13.5553 126.83 16.6531 127.206 18.7307 125.911C22.1216 120.518 32.6716 123.618 38.4383 122.755C42.1488 122.2 39.518 121.875 41.7435 120.34L43.4405 120.957L44.7055 122.471C47.7074 122.714 53.7818 122.392 55.6577 123.243L56.4431 125.878C58.1978 126.355 57.545 126.429 59.15 125.908C60.0661 123.784 59.8295 123.414 61.5417 122.189C63.816 122.28 63.3155 121.928 64.9034 123.056L65.1324 125.815C68.0354 127.257 87.2081 126.48 91.5652 126.413C92.3969 125.847 93.0414 125.417 93.9277 124.912L97.394 125.675C98.4198 124.636 98.4503 124.532 99.1005 123.204C104.619 122.243 128.428 122.647 134.476 123.188L134.808 123.653C137.966 127.995 141.457 126.911 146.189 126.353L146.198 130.453C142.437 130.492 137.257 130.763 133.699 129.986L132.538 128.064C128.006 127.486 113.459 127.758 108.495 128.024C107.972 128.637 107.433 129.272 106.803 129.779C105.305 130.982 44.3331 130.78 38.3577 130.184C37.8895 129.508 37.7582 129.286 37.434 128.552L37.16 127.925C25.5099 126.222 21.6413 131.056 11.0767 130.333L11.0152 126.781Z" fill="#83472D"/>
<path d="M43.4405 120.957L44.7055 122.471C44.1719 125.095 44.6573 124.891 42.9856 126.251L41.5494 126.072L40.7056 124.616C41.2702 121.208 41.2201 124.69 43.4405 120.957Z" fill="#9A5A38"/>
<path d="M102.878 108.57C102.915 107.523 103.043 107.333 103.377 106.359C103.813 106.25 109.005 105.061 108.929 105.117C110.496 103.981 109.268 103.953 111.901 103.573C118.184 103.985 134.289 103.081 138.829 104.739C138.114 105.258 137.745 105.476 136.973 105.906C133.143 106.364 114.82 105.943 113.175 107.105C109.414 109.764 109.767 109.256 103.401 108.622L102.878 108.57Z" fill="#C88758"/>
<path d="M146.465 100.966C146.999 104.068 146.924 110.869 146.32 113.976L146.041 110.115C144.078 107.522 144.081 110.373 139.058 108.531C138.424 107.018 138.297 106.873 136.973 105.906C137.745 105.476 138.114 105.258 138.829 104.739C134.289 103.081 118.184 103.985 111.901 103.573C116.844 102.525 134.268 102.801 139.545 103.385L141.468 105.949C143.678 106.81 142.706 106.698 145.29 106.084C146.629 104.635 146.264 103.371 146.465 100.966Z" fill="#C08052"/>
<path d="M90.0159 113.112L90.3776 110.271C92.8073 107.822 98.5201 108.842 102.878 108.57C103.086 111.002 103.413 110.482 102.392 112.219C99.0453 113.863 93.941 113.22 90.0159 113.112Z" fill="#C08052"/>
<path d="M11.1053 106.085C13.6416 106.024 16.0092 105.647 18.0633 107.023L17.9948 107.965C15.9755 109.204 13.5953 108.818 11.1586 108.736L11.1053 106.085Z" fill="#C08052"/>
<path d="M36.2718 106.111C45.1331 106.182 53.9886 106.016 62.8365 105.993C66.3378 105.984 68.9045 104.993 70.4163 105.135L71.4706 106.906L70.8451 108.524C63.4715 109.2 43.5439 109.047 35.9451 108.752L35.4934 106.962L36.2718 106.111Z" fill="#C88758"/>
<path d="M35.4934 106.962C32.7204 104.833 23.1905 107.617 19.9158 104.916L20.1036 103.779C24.361 102.293 30.7602 102.165 35.1641 103.348C35.999 103.572 36.0783 105.265 36.2718 106.111L35.4934 106.962Z" fill="#C08052"/>
<path d="M70.4163 105.135C71.7396 103.533 71.5125 103.202 73.7228 103.159C76.8922 103.096 84.019 102.189 86.4196 104.084C85.4927 108.18 75.5327 105.27 71.4706 106.906L70.4163 105.135Z" fill="#C08052"/>
<path d="M25.5105 113.071C25.6888 110.837 25.3284 110.755 26.5763 109.2C29.1336 107.982 32.997 108.571 35.9451 108.752C35.907 110.629 36.0142 110.915 35.1191 112.479C32.7001 113.733 28.5493 113.129 25.5105 113.071Z" fill="#C08052"/>
<path d="M127.213 115.646C128.709 115.684 130.589 115.567 132.002 116.067C133.455 116.581 133.502 117.529 134.057 118.863C132.32 119.362 130.843 119.838 129.008 119.589C127.523 118.337 127.601 117.491 127.213 115.646Z" fill="#C08052"/>
<path d="M146.262 5.67732L151.594 5.72693C151.826 8.18715 151.46 8.96313 152.8 10.5984L154.367 10.898L152.243 11.3527C151.218 13.1712 151.722 81.1815 151.83 88.1971C151.154 96.7309 152.524 143.98 150.438 146.674L146.718 146.869C145 149.125 147.214 149.479 145.432 151.781C135.715 153.084 12.6208 152.548 11.1427 151.683C11.0374 151.621 10.9517 151.529 10.856 151.453C10.7709 150.014 10.6758 148.639 10.6758 147.194C12.6024 146.533 13.9823 146.652 16.006 146.632C15.4401 143.962 15.9394 144.848 14.3033 142.969C13.2927 143.1 12.7135 143.055 11.7067 143.042C10.7056 141.662 11.118 140.623 11.1535 138.559C13.8643 138.608 19.6861 138.999 22.0359 137.631C22.7255 137.23 22.6259 136.326 22.7896 135.295C26.2788 134.6 47.9707 133.978 50.2615 135.556L50.6091 137.767C53.4722 138.811 91.1344 138.468 97.092 138.394C98.4217 137.263 98.5968 135.076 99.3936 135.083C105.65 135.138 131.967 133.24 136.039 135.816L135.176 139.241C137.632 138.465 143.336 138.609 146.15 138.568L146.198 130.453L146.189 126.353C146.098 122.029 146.158 118.297 146.32 113.976C146.924 110.869 146.999 104.068 146.465 100.966L146.194 99.7681L146.192 92.4637L146.281 85.2523C146.171 82.4187 146.252 79.0985 146.247 76.2211C143.559 76.4157 140.676 76.8749 138.219 75.868C137.17 74.6793 137.141 74.4401 136.538 72.9391L136.734 71.943C139.413 72.8939 142.857 73.2055 145.337 71.7674C146.694 69.1107 146.178 68.8811 146.093 65.4878L146.284 64.6488L146.161 61.9959L146.335 61.5335C146.742 57.9252 147.526 36.3124 146.439 33.7587L146.183 33.213L146.359 29.7885C146.406 26.233 146.526 22.5967 146.27 19.0533C146.017 15.5417 143.692 17.8608 141.62 15.9005C144.078 15.6855 144.462 16.0716 146.141 14.7378L146.39 11.1219L146.262 5.67732Z" fill="#C88758"/>
<path d="M22.7896 135.295C26.2788 134.6 47.9707 133.978 50.2615 135.556L50.6091 137.767C53.4722 138.811 91.1344 138.468 97.092 138.394C98.4217 137.263 98.5968 135.076 99.3936 135.083C105.65 135.138 131.967 133.24 136.039 135.816L135.176 139.241L135.795 140.996L137.111 141.425L140.235 142.073C141.141 143.807 140.407 144.717 140.766 146.748L61.4707 146.872C46.8015 146.88 30.599 147.152 16.006 146.632C15.4401 143.962 15.9394 144.848 14.3033 142.969C13.2927 143.1 12.7135 143.055 11.7067 143.042C10.7056 141.662 11.118 140.623 11.1535 138.559C13.8643 138.608 19.6861 138.999 22.0359 137.631C22.7255 137.23 22.6259 136.326 22.7896 135.295Z" fill="#A9643B"/>
<path d="M22.7896 135.295C26.2788 134.6 47.9707 133.978 50.2615 135.556L50.6091 137.767C53.4722 138.811 91.1344 138.468 97.092 138.394C98.4217 137.263 98.5968 135.076 99.3936 135.083C105.65 135.138 131.967 133.24 136.039 135.816C133.327 138.765 133.68 137.61 130.134 138.13C126.394 138.681 109.114 137.471 106.936 138.412L106.805 140.662C104.985 141.591 56.6321 141.241 51.2854 141.246C48.7485 139.862 49.9068 138.978 49.3194 138.767C45.9044 137.538 26.5623 137.835 24.2163 138.331L22.7896 135.295Z" fill="#C88758"/>
<path d="M11.1535 138.559C13.8643 138.608 19.6861 138.999 22.0359 137.631C22.7255 137.23 22.6259 136.326 22.7896 135.295L24.2163 138.331L23.6651 140.441C20.3428 142.234 14.7499 140.153 13.2578 142.281L14.3033 142.969C13.2927 143.1 12.7135 143.055 11.7067 143.042C10.7056 141.662 11.118 140.623 11.1535 138.559Z" fill="#C08052"/>
<path d="M146.284 64.6488C147.303 69.8237 147.302 80.0481 146.281 85.2523C146.171 82.4187 146.252 79.0985 146.247 76.2211C143.559 76.4157 140.676 76.8749 138.219 75.868C137.17 74.6793 137.141 74.4401 136.538 72.9391L136.734 71.943C139.413 72.8939 142.857 73.2055 145.337 71.7674C146.694 69.1107 146.178 68.8811 146.093 65.4878L146.284 64.6488Z" fill="#C08052"/>
<path d="M146.15 138.568L146.14 142.49C143.797 142.865 142.821 142.571 141.435 143.985L140.766 146.748C140.407 144.717 141.141 143.807 140.235 142.073L137.111 141.425L135.795 140.996L135.176 139.241C137.632 138.465 143.336 138.609 146.15 138.568Z" fill="#C08052"/>
<path d="M137.111 141.425C139.568 141.226 142.921 140.734 145.174 141.431L146.14 142.49C143.797 142.865 142.821 142.571 141.435 143.985L140.766 146.748C140.407 144.717 141.141 143.807 140.235 142.073L137.111 141.425Z" fill="#AE6F44"/>
<path d="M146.262 5.67732L151.594 5.72693C151.459 8.04277 151.787 9.34284 150.643 11.0105C148.832 11.298 148.228 11.2421 146.39 11.1219L146.262 5.67732Z" fill="#572C1A"/>
<path d="M10.6758 147.194C10.6758 148.639 10.7709 150.014 10.856 151.453C10.9517 151.529 11.0374 151.621 11.1427 151.683C12.6208 152.548 135.715 153.084 145.432 151.781C147.214 149.479 145 149.125 146.718 146.869L150.438 146.674C152.524 143.98 151.154 96.7309 151.83 88.1971C152.895 104.568 151.59 123.957 151.964 140.581C152.088 146.098 151.571 152.519 151.911 157.922C151.835 159.35 151.789 161.731 151.615 163.064C148.492 163.05 148.536 162.507 146.668 164.079C146.383 165.362 146.069 166.639 145.727 167.909C142.986 168.799 113.211 168.504 107.611 168.504L16.2578 168.556C14.8894 168.535 13.5217 168.493 12.1546 168.432C10.3903 166.822 11.2074 166.341 10.2387 163.318L10.1169 162.948C8.47951 163.049 7.91745 163.004 6.28705 162.799C4.77147 160.971 5.3126 160.699 5.29293 157.666L5.46358 157.139L5.47375 146.804L10.1619 146.912L10.6758 147.194Z" fill="#83472D"/>
<path d="M10.561 162.728C26.0339 163.614 47.113 162.933 63.0922 162.913C90.3979 162.878 118.646 163.32 145.847 162.738C147.201 160.399 145.094 160.417 147.124 157.803C149.045 157.571 149.321 157.405 150.952 158.249C151.613 160.036 151.537 161.176 151.615 163.064C148.492 163.05 148.536 162.507 146.668 164.079C146.383 165.362 146.069 166.639 145.727 167.909C142.986 168.799 113.211 168.504 107.611 168.504L16.2578 168.556C14.8894 168.535 13.5217 168.493 12.1546 168.432C10.3903 166.822 11.2074 166.341 10.2387 163.318L10.1169 162.948L10.561 162.728Z" fill="#572C1A"/>
<path d="M5.46358 157.139C8.37419 157.212 8.56388 156.74 10.5939 158.125C11.1034 159.937 10.8344 160.905 10.561 162.728L10.1169 162.948C8.47951 163.049 7.91745 163.004 6.28705 162.799C4.77147 160.971 5.3126 160.699 5.29293 157.666L5.46358 157.139Z" fill="#572C1A"/>
<path d="M154.367 10.898C158.024 11.5308 157.138 13.0211 156.972 16.6058L157.016 116.718C157.022 122.492 157.334 153.711 156.607 156.996C154.958 157.92 153.801 157.812 151.911 157.922C151.571 152.519 152.088 146.098 151.964 140.581C151.59 123.957 152.895 104.568 151.83 88.1971C151.722 81.1815 151.218 13.1712 152.243 11.3527L154.367 10.898Z" fill="#572C1A"/>
</svg>
