<svg width="189" height="209" viewBox="0 0 189 209" fill="none" xmlns="http://www.w3.org/2000/svg">
<path d="M12.9255 6.92999C12.8889 4.65368 12.5383 2.23643 13.897 0.497606C46.7096 -0.12095 80.7421 0.42968 113.657 0.259523C123.876 0.206211 155.469 -0.41673 163.957 0.482988C165.294 2.27658 164.943 4.56531 164.921 6.89201L165.067 13.0308L171.561 13.4727L175.908 13.2638L176.558 13.4186C177.354 15.3992 177.427 15.9294 177.734 17.9793C179.538 18.3379 180.458 18.4292 182.102 19.3647C182.204 21.1495 182.27 22.185 182.599 23.9677C185.404 25.9701 188.223 24.5811 188.333 26.8458C188.946 40.1122 188.589 56.0727 188.567 69.1595L188.735 174.749C188.742 179.059 189.414 199.242 187.537 201.815L187.076 201.903C185.382 202.238 184.951 202.336 183.402 203.058C183.015 204.742 182.789 205.687 182.182 207.303C178.53 208.993 41.9104 208.208 26.1177 208.206C23.0862 202.744 17.5566 198.978 13.5244 193.9C13.298 192.317 13.1154 190.994 12.962 189.931L12.9913 185.149L13.7217 184.469C12.5383 182.688 12.9327 181.005 13.1299 178.883L6.28545 179.112L3.59746 178.507C3.12996 178.193 1.91 177.073 1.42058 176.644C-1.32598 163.745 0.595143 35.8086 1.50823 14.2526C1.53745 13.5457 5.47461 12.7073 6.82598 12.3743C6.8552 11.0861 7.05981 9.73432 7.22051 8.44901C9.0759 7.05853 9.61642 7.52154 12.4141 7.3952L12.9255 6.92999Z" fill="#F1BD7A"/>
<path d="M73.7223 55.1854C75.1978 55.5023 77.4038 55.9018 78.7771 56.356L79.135 56.1414C81.2534 56.0596 83.8904 56.0274 85.9503 55.7981L85.8992 60.5151L86.0161 61.6718L85.8846 68.6571L86.1914 74.82C86.2279 76.5639 86.3667 78.7796 86.0673 80.4513L79.5002 80.5024L79.2738 74.9274L74.7012 75.6628L73.0138 76.396C71.3921 75.7489 69.8216 76.0826 68.032 76.2375L67.6229 76.9846C66.3227 75.8278 64.2627 76.0228 62.3708 75.9198L61.706 75.9505L62.0056 65.8944L61.7645 63.7992L67.6301 63.5421L67.9224 62.1385L68.8428 61.7003C73.2402 59.9155 73.0356 59.6102 73.7223 55.1854Z" fill="#F1BD7A"/>
<path d="M79.135 56.1414C81.2534 56.0596 83.8904 56.0274 85.9503 55.7981L85.8992 60.5151L86.0161 61.6718L85.8846 68.6571L86.1914 74.82C86.2279 76.5639 86.3667 78.7796 86.0673 80.4513L79.5002 80.5024L79.2738 74.9274C79.4199 70.1834 79.6025 60.7268 78.7771 56.356L79.135 56.1414Z" fill="#2D2F37"/>
<path d="M82.1738 74.7623C84.1461 70.1856 80.618 60.3887 84.3799 57.9904L85.8992 60.5151L86.0161 61.6718L85.8846 68.6571L86.1914 74.82L82.1738 74.7623Z" fill="#32333A"/>
<path d="M82.1738 74.7623L86.1914 74.82C86.2279 76.5639 86.3667 78.7796 86.0673 80.4513L79.5002 80.5024C79.7413 78.5079 79.8437 77.4972 80.4354 75.5182L82.1738 74.7623Z" fill="#614859"/>
<path d="M67.6301 63.5421L67.9224 62.1385C67.9151 64.482 67.5644 66.7517 68.8719 68.5052L71.4286 69.3479L73.1453 70.0271C73.8027 72.3187 73.5982 74.2014 74.7012 75.6628L73.0138 76.396C71.3921 75.7489 69.8216 76.0826 68.032 76.2375L67.6229 76.9846C66.3227 75.8278 64.2627 76.0228 62.3708 75.9198L61.706 75.9505L62.0056 65.8944L61.7645 63.7992L67.6301 63.5421Z" fill="#3C5347"/>
<path d="M71.4286 69.3479L73.1453 70.0271C73.8027 72.3187 73.5982 74.2014 74.7012 75.6628L73.0138 76.396C71.3921 75.7489 69.8216 76.0826 68.032 76.2375L67.9371 75.6481C67.4842 72.6415 67.2651 71.6878 68.7552 69.7167L71.4286 69.3479Z" fill="#2F4D31"/>
<path d="M61.7645 63.7992L67.6301 63.5421L67.338 66.9496C61.9691 70.2579 62.2759 69.0733 62.3708 75.9198L61.706 75.9505L62.0056 65.8944L61.7645 63.7992Z" fill="#3A4044"/>
<path d="M74.7012 75.6628L79.2738 74.9274L79.5002 80.5024L86.0673 80.4513L85.9065 87.0633L85.8773 92.6398L80.3257 93.3307C80.5667 91.2238 80.2746 89.114 80.0774 86.9961L73.978 87.2955C73.8173 84.1911 73.6128 81.0888 73.3717 77.9895L73.0138 76.396L74.7012 75.6628Z" fill="#202128"/>
<path d="M62.0056 65.8944L61.706 75.9505C61.7207 78.7183 61.9763 84.4423 61.6111 86.9289C61.2897 85.1463 60.9976 83.3578 60.7419 81.5642C58.7112 80.0321 58.251 80.5403 55.1758 80.3987C54.7813 76.0184 54.6352 72.2435 54.5183 67.8457L55.2123 67.8077C56.5344 67.0234 60.3109 66.2902 62.0056 65.8944Z" fill="#32333A"/>
<path d="M54.5183 67.8457L55.2123 67.8077C55.2634 70.7077 54.8251 72.5678 56.1545 74.8433C58.4044 75.5576 59.3832 75.6569 61.706 75.9505C61.7207 78.7183 61.9763 84.4423 61.6111 86.9289C61.2897 85.1463 60.9976 83.3578 60.7419 81.5642C58.7112 80.0321 58.251 80.5403 55.1758 80.3987C54.7813 76.0184 54.6352 72.2435 54.5183 67.8457Z" fill="#3A4044"/>
<path d="M151.4 98.7158L152.481 99.3307L152.416 105.275L147.828 105.467L146.345 104.604L146.177 99.1073L151.4 98.7158Z" fill="#527357"/>
<path d="M165.067 13.0308L171.561 13.4727L175.908 13.2638L176.558 13.4186C177.354 15.3992 177.427 15.9294 177.734 17.9793C179.538 18.3379 180.458 18.4292 182.102 19.3647C182.204 21.1495 182.27 22.185 182.599 23.9677C185.404 25.9701 188.223 24.5811 188.333 26.8458C188.946 40.1122 188.589 56.0727 188.567 69.1595L188.735 174.749C188.742 179.059 189.414 199.242 187.537 201.815L187.076 201.903C185.382 202.238 184.951 202.336 183.402 203.058C183.015 204.742 182.789 205.687 182.182 207.303C178.53 208.993 41.9104 208.208 26.1177 208.206C23.0862 202.744 17.5566 198.978 13.5244 193.9C13.298 192.317 13.1154 190.994 12.962 189.931L12.9913 185.149L13.7217 184.469C12.5383 182.688 12.9327 181.005 13.1299 178.883C13.9115 176.815 13.7289 174.644 13.7508 172.393C12.7282 171.321 12.7135 169.592 12.4798 168.017C11.0481 166.295 10.5806 166.708 7.82671 166.105L6.99407 165.895L7.01592 160.106C9.02471 160.211 11.092 159.473 13.0496 158.917C12.9254 151.174 12.8889 143.431 12.9473 135.687L13.5024 135.728C13.612 138.948 13.0349 139.722 14.6858 141.647C15.8399 141.72 17.1621 141.839 18.3016 141.861C26.6144 141.569 34.9417 141.518 43.2617 141.708C43.4589 143.123 43.868 146.751 44.3209 147.874C45.5627 147.804 46.7242 147.561 47.9441 147.341C49.5803 145.097 49.0397 144.926 49.1639 141.602C50.6249 141.631 53.6564 141.781 54.9785 141.69C57.2064 140.798 59.6023 141.475 62.0275 141.861L62.3708 141.455C65.1685 141.715 64.6645 141.236 66.3664 142.855C66.739 145.107 66.5126 146.03 66.1912 148.226C69.2007 148.056 70.8589 147.639 73.4082 149.08L73.1379 141.667L79.1861 141.845L79.4637 142.658L83.4741 142.341C85.7094 140.846 85.0519 141.226 86.1038 138.192C87.1995 137.779 90.5962 137.064 91.911 136.756C91.8087 133.808 91.2463 131.552 92.8606 129.495L95.534 129.207L96.7978 129.024C98.1784 126.793 97.7182 125.588 97.7839 122.631L97.8424 118.636L98.3903 118.297C106.411 116.771 100.655 111.576 110.231 111.27C109.99 107.837 110.231 103.116 110.304 99.5841L116.601 99.1949C118.558 99.3826 120.334 99.5914 122.306 99.5754L123.175 99.2971C124.461 99.3519 127.054 99.5425 128.215 99.4322C130.268 99.4213 132.364 99.1701 134.41 98.967L137.689 99.2489C139.413 99.6951 139.976 99.6542 141.05 100.944L141.261 101.041L141.941 103.247C143.256 103.477 145.359 103.734 146.345 104.604L147.828 105.467L152.416 105.275L152.481 99.3307L151.4 98.7158L146.177 99.1073L146.236 94.9826L145.688 95.374C145.732 91.8525 146.419 89.6105 148.741 87.0348C151.948 86.8259 151.985 86.8033 152.978 84.075L152.343 80.8945C155.681 79.9693 161.327 80.2453 164.972 80.2563C164.885 60.0469 164.512 38.9116 164.98 18.7811L164.6 18.4847L165.067 13.0308Z" fill="#8A868A"/>
<path d="M128.215 99.4322C130.268 99.4213 132.364 99.1701 134.41 98.967L137.689 99.2489C139.413 99.6951 139.976 99.6542 141.05 100.944L141.261 101.041L141.941 103.247C143.256 103.477 145.359 103.734 146.345 104.604L147.828 105.467L146.813 106.149L145.849 110.967C145.71 115.616 145.936 118.948 146.287 123.581C146.236 125.166 146.229 127.779 146.075 129.269C143.621 129.527 142.408 129.239 140.633 130.515L140.728 135.717C140.75 137.767 140.619 140.146 141.269 142.054C142.722 141.655 147.558 141.845 149.319 141.864C154.614 141.617 159.655 141.638 164.958 141.659L164.972 148.763C164.987 152.004 165.301 156.406 164.198 159.323C160.809 161.272 158.391 158.151 158.457 165.262C157.054 166.892 156.762 167.01 154.045 167.068C131.539 167.544 108.697 166.921 86.1622 166.985L45.4678 167.15C38.8643 167.193 26.1322 167.595 19.9817 166.683C17.0306 161.447 19.0979 161.18 12.699 159.806L13.0496 158.917C12.9254 151.174 12.8889 143.431 12.9473 135.687L13.5024 135.728C13.612 138.948 13.0349 139.722 14.6858 141.647C15.8399 141.72 17.1621 141.839 18.3016 141.861C26.6144 141.569 34.9417 141.518 43.2617 141.708C43.4589 143.123 43.868 146.751 44.3209 147.874C45.5627 147.804 46.7242 147.561 47.9441 147.341C49.5803 145.097 49.0397 144.926 49.1639 141.602C50.6249 141.631 53.6564 141.781 54.9785 141.69C57.2064 140.798 59.6023 141.475 62.0275 141.861L62.3708 141.455C65.1685 141.715 64.6645 141.236 66.3664 142.855C66.739 145.107 66.5126 146.03 66.1912 148.226C69.2007 148.056 70.8589 147.639 73.4082 149.08L73.1379 141.667L79.1861 141.845L79.4637 142.658L83.4741 142.341C85.7094 140.846 85.0519 141.226 86.1038 138.192C87.1995 137.779 90.5962 137.064 91.911 136.756C91.8087 133.808 91.2463 131.552 92.8606 129.495L95.534 129.207L96.7978 129.024C98.1784 126.793 97.7182 125.588 97.7839 122.631L97.8424 118.636L98.3903 118.297C106.411 116.771 100.655 111.576 110.231 111.27C109.99 107.837 110.231 103.116 110.304 99.5841L116.601 99.1949C118.558 99.3826 120.334 99.5914 122.306 99.5754L123.175 99.2971C124.461 99.3519 127.054 99.5425 128.215 99.4322Z" fill="#985B36"/>
<path d="M128.215 99.4322C130.268 99.4213 132.364 99.1701 134.41 98.967L137.689 99.2489C139.413 99.6951 139.976 99.6542 141.05 100.944L141.261 101.041L141.941 103.247C143.256 103.477 145.359 103.734 146.345 104.604L147.828 105.467L146.813 106.149L145.849 110.967C145.71 115.616 145.936 118.948 146.287 123.581C146.236 125.166 146.229 127.779 146.075 129.269C143.621 129.527 142.408 129.239 140.633 130.515L140.728 135.717C140.75 137.767 140.619 140.146 141.269 142.054L140.568 143.871L140.334 143.848L139.925 146.897C138.866 147.631 138.917 147.678 137.565 147.774C140.458 149.529 140.37 150.86 140.787 154.151C136.784 154.318 131.736 154.174 127.638 154.171L121.816 154.327L121.597 154.725C120.436 154.364 118.091 154.024 116.798 153.792L116.601 148.456C114.65 147.936 112.247 148.246 110.187 148.382C108.135 148.498 107.207 148.46 105.206 148.303C103.606 146.296 104.219 144.765 104.278 141.699C101.049 141.631 100.794 141.1 98.4414 142.508C97.8205 144.401 97.4552 145.811 96.4253 147.538C94.3946 148.146 94.0585 148.073 91.9329 147.796L91.911 136.756C91.8087 133.808 91.2463 131.552 92.8606 129.495L95.534 129.207L96.7978 129.024C98.1784 126.793 97.7182 125.588 97.7839 122.631L97.8424 118.636L98.3903 118.297C106.411 116.771 100.655 111.576 110.231 111.27C109.99 107.837 110.231 103.116 110.304 99.5841L116.601 99.1949C118.558 99.3826 120.334 99.5914 122.306 99.5754L123.175 99.2971C124.461 99.3519 127.054 99.5425 128.215 99.4322Z" fill="#394747"/>
<path d="M110.231 111.27L110.29 111.909L110.195 117.17C112.167 117.373 114.161 117.554 116.126 117.829C115.746 121.052 116.294 120.376 114.424 122.547L110.472 123.974L110.092 135.344C108.12 135.552 106.228 135.758 104.241 135.867L104.278 141.699C101.049 141.631 100.794 141.1 98.4414 142.508C97.8205 144.401 97.4552 145.811 96.4253 147.538C94.3946 148.146 94.0585 148.073 91.9329 147.796L91.911 136.756C91.8087 133.808 91.2463 131.552 92.8606 129.495L95.534 129.207L96.7978 129.024C98.1784 126.793 97.7182 125.588 97.7839 122.631L97.8424 118.636L98.3903 118.297C106.411 116.771 100.655 111.576 110.231 111.27Z" fill="#394747"/>
<path d="M110.231 111.27L110.29 111.909L110.195 117.17C110.063 120.015 110.516 120.515 109.135 122.471C101.473 124.516 104.278 130.574 99.7197 129.714C98.0616 127.128 98.1126 125.719 97.7839 122.631L97.8424 118.636L98.3903 118.297C106.411 116.771 100.655 111.576 110.231 111.27Z" fill="#527357"/>
<path d="M110.092 135.344L116.499 135.018C118.654 134.962 119.932 134.9 122.087 135.176L122.379 135.792C122.547 137.318 122.737 139.767 122.992 141.199C125.009 141.339 125.746 141.337 127.733 142.017L127.5 148.296L127.638 154.171L121.816 154.327L121.597 154.725C120.436 154.364 118.091 154.024 116.798 153.792L116.601 148.456C114.65 147.936 112.247 148.246 110.187 148.382C108.135 148.498 107.207 148.46 105.206 148.303C103.606 146.296 104.219 144.765 104.278 141.699L104.241 135.867C106.228 135.758 108.12 135.552 110.092 135.344Z" fill="#3A4044"/>
<path d="M121.502 148.05C123.35 148.136 125.695 148.308 127.5 148.296L127.638 154.171L121.816 154.327L121.597 154.725C120.436 154.364 118.091 154.024 116.798 153.792L116.601 148.456L121.502 148.05Z" fill="#394747"/>
<path d="M121.502 148.05L121.816 154.327L121.597 154.725C120.436 154.364 118.091 154.024 116.798 153.792L116.601 148.456L121.502 148.05Z" fill="#2D2F37"/>
<path d="M122.992 141.199C125.009 141.339 125.746 141.337 127.733 142.017L127.5 148.296C125.695 148.308 123.35 148.136 121.502 148.05C120.436 146.283 120.808 146.237 119.282 145.603L118.895 146.188C117.587 145.969 117.397 146.007 116.396 145.084L118.507 142.956C120.443 142.62 120.874 142.373 122.525 141.46L122.992 141.199Z" fill="#527357"/>
<path d="M104.241 135.867C107.952 136.459 107.55 135.811 109.844 138.012L110.304 139.556C108.61 142.489 107.514 141.975 104.278 141.699L104.241 135.867Z" fill="#1A1A1B"/>
<path d="M123.175 99.2971C124.461 99.3519 127.054 99.5425 128.215 99.4322C128.31 100.801 128.493 104.33 128.792 105.513V105.987C127.061 108.194 127.594 107.996 127.324 111.286C124.833 111.908 124.453 111.966 121.868 111.798C121.816 112.934 121.882 115.197 121.305 116.012L117.938 117.728L116.126 117.829C114.161 117.554 112.167 117.373 110.195 117.17L110.29 111.909L110.231 111.27C109.99 107.837 110.231 103.116 110.304 99.5841L116.601 99.1949C118.558 99.3826 120.334 99.5914 122.306 99.5754L123.175 99.2971Z" fill="#3A4044"/>
<path d="M116.601 99.1949C116.002 102.44 116.06 105.855 116.009 109.165L115.396 111.361C113.621 112.214 112.276 111.976 110.29 111.909L110.231 111.27C109.99 107.837 110.231 103.116 110.304 99.5841L116.601 99.1949Z" fill="#527357"/>
<path d="M116.009 109.165L116.36 109.014L116.915 111.437L120.253 111.827C121.583 113.773 121.181 113.356 121.305 116.012L117.938 117.728L116.126 117.829C114.161 117.554 112.167 117.373 110.195 117.17L110.29 111.909C112.276 111.976 113.621 112.214 115.396 111.361L116.009 109.165Z" fill="#614859"/>
<path d="M123.175 99.2971C124.461 99.3519 127.054 99.5425 128.215 99.4322C128.31 100.801 128.493 104.33 128.792 105.513V105.987C127.061 108.194 127.594 107.996 127.324 111.286C124.833 111.908 124.453 111.966 121.868 111.798C123.701 111.483 124.811 111.447 126.294 110.264C126.9 107.236 124.848 106.049 123.299 103.473C123.248 101.8 123.212 100.409 123.175 99.2971Z" fill="#32333A"/>
<path d="M116.601 99.1949C118.558 99.3826 120.334 99.5914 122.306 99.5754C122.54 102.786 123.16 103.188 121.685 105.189C120.502 105.418 119.318 105.638 118.135 105.849C116.937 107.137 116.754 107.314 116.36 109.014L116.009 109.165C116.06 105.855 116.002 102.44 116.601 99.1949Z" fill="#3C5347"/>
<path d="M118.135 105.849C120.896 106.593 120.209 105.99 121.429 107.839C120.903 110.067 121.349 109.243 119.61 110.92L116.915 111.437L116.36 109.014C116.754 107.314 116.937 107.137 118.135 105.849Z" fill="#32333A"/>
<path d="M116.126 117.829L117.938 117.728L121.619 117.802C121.824 121.746 122.065 125.373 121.86 129.329C121.882 130.589 121.846 134.158 122.087 135.176C119.932 134.9 118.654 134.962 116.499 135.018L110.092 135.344L110.472 123.974L114.424 122.547C116.294 120.376 115.746 121.052 116.126 117.829Z" fill="#202128"/>
<path d="M121.86 129.329C121.882 130.589 121.846 134.158 122.087 135.176C119.932 134.9 118.654 134.962 116.499 135.018C116.477 133.199 116.564 132.217 116.761 130.413C118.631 128.977 118.997 129.455 121.86 129.329Z" fill="#393C46"/>
<path d="M128.215 99.4322C130.268 99.4213 132.364 99.1701 134.41 98.967L137.689 99.2489C139.413 99.6951 139.976 99.6542 141.05 100.944L141.261 101.041L141.941 103.247C143.256 103.477 145.359 103.734 146.345 104.604L147.828 105.467L146.813 106.149C143.789 105.976 143.395 105.422 141.313 106.746C140.312 110.152 140.999 109.916 138.646 111.235L134.687 111.159L134.11 110.944L130.984 111.083L127.324 111.286C127.594 107.996 127.061 108.194 128.792 105.987V105.513C128.493 104.33 128.31 100.801 128.215 99.4322Z" fill="#394747"/>
<path d="M128.215 99.4322C130.268 99.4213 132.364 99.1701 134.41 98.967L134.643 102.386C133.475 106.296 132.788 105.624 128.792 105.513C128.493 104.33 128.31 100.801 128.215 99.4322Z" fill="#E3B07B"/>
<path d="M134.41 98.967L137.689 99.2489C139.413 99.6951 139.976 99.6542 141.05 100.944C140.714 103.921 141.239 102.972 139.216 104.982C136.879 105.642 137.879 105.665 135.388 104.663L134.643 102.386L134.41 98.967Z" fill="#1A1A1B"/>
<path d="M127.324 111.286C127.594 107.996 127.061 108.194 128.792 105.987L133.599 106.312C134.819 108.021 134.315 108.365 134.11 110.944L130.984 111.083L127.324 111.286Z" fill="#202128"/>
<path d="M128.917 141.473C133.898 141.831 133.942 143.69 136.024 147.991L137.565 147.774C140.458 149.529 140.37 150.86 140.787 154.151C136.784 154.318 131.736 154.174 127.638 154.171L127.5 148.296L127.733 142.017L128.142 142.07L128.917 141.473Z" fill="#614859"/>
<path d="M128.917 141.473C133.898 141.831 133.942 143.69 136.024 147.991C133.665 148.324 131.079 148.826 129.136 147.547C127.682 145.04 128.157 145.359 128.142 142.07L128.917 141.473Z" fill="#6C4433"/>
<path d="M134.987 135.383C135.893 135.633 137.595 135.492 138.617 135.457C140.546 133.483 140.005 133.681 140.633 130.515L140.728 135.717C140.75 137.767 140.619 140.146 141.269 142.054L140.568 143.871L140.334 143.848L139.925 146.897C138.866 147.631 138.917 147.678 137.565 147.774L136.024 147.991C133.942 143.69 133.898 141.831 128.917 141.473C128.347 140.345 128.084 137.269 127.901 135.866C129.757 135.184 132.562 135.658 134.644 135.844L134.987 135.383Z" fill="#1D1C25"/>
<path d="M134.987 135.383C135.893 135.633 137.595 135.492 138.617 135.457C140.546 133.483 140.005 133.681 140.633 130.515L140.728 135.717C140.75 137.767 140.619 140.146 141.269 142.054L140.568 143.871L140.334 143.848C137.127 140.485 136.061 142.359 134.644 135.844L134.987 135.383Z" fill="#44241E"/>
<path d="M127.324 111.286L130.984 111.083L134.11 110.944L134.687 111.159C134.505 112.927 134.19 115.297 134.125 117.013L128.405 116.974L128.106 116.482C126.572 116.851 122.576 117.491 121.619 117.802L117.938 117.728L121.305 116.012C121.882 115.197 121.816 112.934 121.868 111.798C124.453 111.966 124.833 111.908 127.324 111.286Z" fill="#2D2F37"/>
<path d="M134.11 110.944L134.687 111.159C134.505 112.927 134.19 115.297 134.125 117.013L128.405 116.974L128.106 116.482C127.974 112.539 127.901 112.646 130.984 111.083L134.11 110.944Z" fill="#3C5347"/>
<path d="M134.987 135.383C134.863 133.398 134.512 131.591 135.659 129.977C141.152 129.673 138.624 127.768 142.978 122.943C146.309 125.071 145.491 125.36 146.075 129.269C143.621 129.527 142.408 129.239 140.633 130.515C140.005 133.681 140.546 133.483 138.617 135.457C137.595 135.492 135.893 135.633 134.987 135.383Z" fill="#1A1A1B"/>
<path d="M138.646 111.235C140.999 109.916 140.312 110.152 141.313 106.746C143.395 105.422 143.789 105.976 146.813 106.149L145.849 110.967C142.847 111.7 142.496 111.289 140.568 113.141L140.085 114.726C139.932 113.13 139.487 112.654 138.646 111.235Z" fill="#325E39"/>
<path d="M134.125 117.013L134.768 117.953L134.161 121.308C132.364 123.593 131.393 123.552 129.077 122.477C127.704 119.845 128.164 120.365 128.405 116.974L134.125 117.013Z" fill="#325E39"/>
<path d="M134.687 111.159L138.646 111.235C139.487 112.654 139.932 113.13 140.085 114.726C138.961 118.414 138.544 117.881 134.768 117.953L134.125 117.013C134.19 115.297 134.505 112.927 134.687 111.159Z" fill="#527357"/>
<path d="M121.86 129.329C125.542 129.41 125.06 128.82 127.456 130.702L128.018 132.631C126.17 135.761 125.673 135.438 122.087 135.176C121.846 134.158 121.882 130.589 121.86 129.329Z" fill="#1A1A1B"/>
<path d="M122.379 135.792C123.84 135.838 126.557 136.012 127.901 135.866C128.084 137.269 128.347 140.345 128.917 141.473L128.142 142.07L127.733 142.017C125.746 141.337 125.009 141.339 122.992 141.199C122.737 139.767 122.547 137.318 122.379 135.792Z" fill="#3C5347"/>
<path d="M54.9785 141.69C57.2064 140.798 59.6023 141.475 62.0275 141.861L62.3708 141.455C65.1685 141.715 64.6645 141.236 66.3664 142.855C66.739 145.107 66.5126 146.03 66.1912 148.226C69.2007 148.056 70.8589 147.639 73.4082 149.08C73.4812 150.515 73.3936 152.529 74.1168 153.665L80.187 154.291C79.1863 158.551 76.8122 162.236 71.0342 161.546C67.2357 161.092 68.3242 157.083 66.593 154.279C64.4893 153.935 64.0874 153.807 62.0713 154.438C59.2298 162.61 51.2092 162.383 44.3647 159.372C42.5751 157.255 43.0865 157.993 42.9404 154.767L44.2334 154.14C43.2692 153.487 43.4225 153.272 42.8381 152.021C43.1522 149.164 42.6701 149.995 44.3064 148.322L44.3209 147.874C45.5627 147.804 46.7242 147.561 47.9441 147.341C49.5803 145.097 49.0397 144.926 49.1639 141.602C50.6249 141.631 53.6564 141.781 54.9785 141.69Z" fill="#272830"/>
<path d="M49.1639 141.602C50.6249 141.631 53.6564 141.781 54.9785 141.69L55.3364 147.731L55.3584 148.332L55.7601 148.422C55.3949 151.844 55.9792 151.712 54.0581 153.743C50.5884 154.866 48.083 153.773 44.2334 154.14C43.2692 153.487 43.4225 153.272 42.8381 152.021C43.1522 149.164 42.6701 149.995 44.3064 148.322L44.3209 147.874C45.5627 147.804 46.7242 147.561 47.9441 147.341C49.5803 145.097 49.0397 144.926 49.1639 141.602Z" fill="#614859"/>
<path d="M49.1639 141.602C50.6249 141.631 53.6564 141.781 54.9785 141.69L55.3364 147.731L55.3584 148.332C52.904 148.676 47.0383 148.387 44.3064 148.322L44.3209 147.874C45.5627 147.804 46.7242 147.561 47.9441 147.341C49.5803 145.097 49.0397 144.926 49.1639 141.602Z" fill="#3D3D46"/>
<path d="M54.9785 141.69C57.2064 140.798 59.6023 141.475 62.0275 141.861L62.3708 141.455C65.1685 141.715 64.6645 141.236 66.3664 142.855C66.739 145.107 66.5126 146.03 66.1912 148.226L55.7601 148.422L55.3584 148.332L55.3364 147.731L54.9785 141.69Z" fill="#527357"/>
<path d="M62.3708 141.455C65.1685 141.715 64.6645 141.236 66.3664 142.855C66.739 145.107 66.5126 146.03 66.1912 148.226L55.7601 148.422L55.3584 148.332L55.3364 147.731C57.053 147.666 58.7696 147.58 60.4862 147.471C62.2612 145.537 61.7207 145.124 62.0275 141.861L62.3708 141.455Z" fill="#325E39"/>
<path d="M43.2617 141.708C43.4589 143.123 43.868 146.751 44.3209 147.874L44.3064 148.322C42.6701 149.995 43.1522 149.164 42.8381 152.021C43.4225 153.272 43.2692 153.487 44.2334 154.14L42.9404 154.767C38.9521 153.697 36.0668 155.181 32.524 153.653C30.6029 151.316 31.1361 151.287 30.6029 147.834C30.3838 149.179 30.1791 150.525 29.9746 151.873C27.06 154.714 24.3865 158.698 20.2959 157.17C16.7677 153.04 17.9948 147.444 18.3016 141.861C26.6144 141.569 34.9417 141.518 43.2617 141.708Z" fill="#A56943"/>
<path d="M43.2617 141.708C43.4589 143.123 43.868 146.751 44.3209 147.874L44.3064 148.322C42.6701 149.995 43.1522 149.164 42.8381 152.021C43.4225 153.272 43.2692 153.487 44.2334 154.14L42.9404 154.767C38.9521 153.697 36.0668 155.181 32.524 153.653C30.6029 151.316 31.1361 151.287 30.6029 147.834C33.795 148.013 38.8425 148.706 41.516 147.393C43.4444 145.115 42.8673 145.229 43.2617 141.708Z" fill="#271717"/>
<path d="M164.958 141.659L164.972 148.763C164.052 149.527 162.219 150.967 161.459 151.745L162.43 153.872C160.714 156.217 155.944 155.21 153.796 154.056L149.355 153.821L148.018 153.578L147.361 152.581C145.104 154.522 144.22 154.173 140.787 154.151C140.37 150.86 140.458 149.529 137.565 147.774C138.917 147.678 138.866 147.631 139.925 146.897L140.334 143.848L140.568 143.871L141.269 142.054C142.722 141.655 147.558 141.845 149.319 141.864C154.614 141.617 159.655 141.638 164.958 141.659Z" fill="#A56943"/>
<path d="M164.958 141.659L164.972 148.763C164.052 149.527 162.219 150.967 161.459 151.745C159.706 149.973 159.005 146.165 158.303 143.629C155.739 141.656 152.898 142.068 149.319 141.864C154.614 141.617 159.655 141.638 164.958 141.659Z" fill="#915434"/>
<path d="M140.334 143.848L140.568 143.871C141.357 152.789 145.52 144.166 147.361 152.581C145.104 154.522 144.22 154.173 140.787 154.151C140.37 150.86 140.458 149.529 137.565 147.774C138.917 147.678 138.866 147.631 139.925 146.897L140.334 143.848Z" fill="#271717"/>
<path d="M91.911 136.756L91.9329 147.796L86.5566 147.59L86.4178 147.971C85.2053 151.287 86.1257 152.234 84.0511 153.64L79.3907 153.801L74.1168 153.665C73.3936 152.529 73.4812 150.515 73.4082 149.08L73.1379 141.667L79.1861 141.845L79.4637 142.658L83.4741 142.341C85.7094 140.846 85.0519 141.226 86.1038 138.192C87.1995 137.779 90.5962 137.064 91.911 136.756Z" fill="#202128"/>
<path d="M73.1379 141.667L79.1861 141.845L79.4637 142.658L79.3323 146.009C77.287 148.158 76.7464 149.093 73.4082 149.08L73.1379 141.667Z" fill="#614859"/>
<path d="M79.3323 146.009L79.3907 153.801L74.1168 153.665C73.3936 152.529 73.4812 150.515 73.4082 149.08C76.7464 149.093 77.287 148.158 79.3323 146.009Z" fill="#523640"/>
<path d="M91.9329 147.796C94.0585 148.073 94.3946 148.146 96.4253 147.538C97.4552 145.811 97.8205 144.401 98.4414 142.508C100.794 141.1 101.049 141.631 104.278 141.699C104.219 144.765 103.606 146.296 105.206 148.303C107.207 148.46 108.135 148.498 110.187 148.382L109.844 154.241L109.135 153.986C104.205 153.108 95.388 154.869 92.2104 152.315C91.0125 147.738 91.0855 148.521 86.5566 147.59L91.9329 147.796Z" fill="#272830"/>
<path d="M127.638 154.171C131.736 154.174 136.784 154.318 140.787 154.151C140.567 157.566 141.152 157.28 139.304 159.342C133.519 161.189 129.574 159.458 123.08 160.188C121.707 158.087 121.795 157.219 121.597 154.725L121.816 154.327L127.638 154.171Z" fill="#272830"/>
<path d="M110.187 148.382C112.247 148.246 114.65 147.936 116.601 148.456L116.798 153.792L115.695 159.003C114.972 159.892 113.81 160.294 112.693 160.039C111.575 159.785 110.691 158.919 110.428 157.804C110.165 156.778 109.997 155.329 109.844 154.241L110.187 148.382Z" fill="#614859"/>
<path d="M110.428 157.804C110.1 156.429 110.772 155.01 112.043 154.392C113.314 153.773 114.84 154.122 115.717 155.229C116.601 156.337 116.586 157.907 115.695 159.003C114.972 159.892 113.81 160.294 112.693 160.039C111.575 159.785 110.691 158.919 110.428 157.804Z" fill="#271717"/>
<path d="M86.5566 147.59C91.0855 148.521 91.0125 147.738 92.2104 152.315C95.388 154.869 104.205 153.108 109.135 153.986C106.162 154.254 101.451 154.145 98.3392 154.17L90.64 154.146L85.1177 154.169L80.187 154.291L74.1168 153.665L79.3907 153.801L84.0511 153.64C86.1257 152.234 85.2053 151.287 86.4178 147.971L86.5566 147.59Z" fill="#502A1F"/>
<path d="M147.361 152.581L148.018 153.578L149.355 153.821C146.937 154.625 146.703 155.121 145.213 157.157L145.14 159.231C146.294 160.204 146.258 160.211 147.646 160.777C140.604 160.482 129.26 161.089 123.08 160.188C129.574 159.458 133.519 161.189 139.304 159.342C141.152 157.28 140.567 157.566 140.787 154.151C144.22 154.173 145.104 154.522 147.361 152.581Z" fill="#44241E"/>
<path d="M149.355 153.821L153.796 154.056C153.906 157.471 154.329 156.691 152.876 159.439C150.648 160.81 150.21 160.759 147.646 160.777C146.258 160.211 146.294 160.204 145.14 159.231L145.213 157.157C146.703 155.121 146.937 154.625 149.355 153.821Z" fill="#593429"/>
<path d="M90.64 154.146L98.3392 154.17C97.4042 157.209 98.0177 156.892 95.8774 158.454L90.4136 158.99L90.64 154.146Z" fill="#C08357"/>
<path d="M85.1177 154.169L90.64 154.146L90.4136 158.99L87.3018 158.599C85.3587 156.974 85.892 157.102 85.1177 154.169Z" fill="#AF7853"/>
<path d="M165.067 13.0308L171.561 13.4727L171.401 14.3059L171.393 164.811C163.438 167.392 167.251 168.738 162.883 172.368C161.108 173.84 28.2068 173.213 13.7508 172.393C12.7282 171.321 12.7135 169.592 12.4798 168.017C11.0481 166.295 10.5806 166.708 7.82671 166.105L6.99407 165.895L7.01592 160.106C9.02471 160.211 11.092 159.473 13.0496 158.917L12.699 159.806C19.0979 161.18 17.0306 161.447 19.9817 166.683C26.1322 167.595 38.8643 167.193 45.4678 167.15L86.1622 166.985C108.697 166.921 131.539 167.544 154.045 167.068C156.762 167.01 157.054 166.892 158.457 165.262C158.391 158.151 160.809 161.272 164.198 159.323C165.301 156.406 164.987 152.004 164.972 148.763L164.958 141.659C159.655 141.638 154.614 141.617 149.319 141.864C147.558 141.845 142.722 141.655 141.269 142.054C140.619 140.146 140.75 137.767 140.728 135.717L140.633 130.515C142.408 129.239 143.621 129.527 146.075 129.269C146.229 127.779 146.236 125.166 146.287 123.581C145.936 118.948 145.71 115.616 145.849 110.967L146.813 106.149L147.828 105.467L152.416 105.275L152.481 99.3307L151.4 98.7158L146.177 99.1073L146.236 94.9826L145.688 95.374C145.732 91.8525 146.419 89.6105 148.741 87.0348C151.948 86.8259 151.985 86.8033 152.978 84.075L152.343 80.8945C155.681 79.9693 161.327 80.2453 164.972 80.2563C164.885 60.0469 164.512 38.9116 164.98 18.7811L164.6 18.4847L165.067 13.0308Z" fill="#C08357"/>
<path d="M159.202 98.9656C160.32 99.1679 164.337 99.6922 164.425 100.232C165.74 108.281 164.761 128.32 165.002 135.865L164.958 141.659C159.655 141.638 154.614 141.617 149.319 141.864C147.558 141.845 142.722 141.655 141.269 142.054C140.619 140.146 140.75 137.767 140.728 135.717L140.633 130.515C142.408 129.239 143.621 129.527 146.075 129.269C146.229 127.779 146.236 125.166 146.287 123.581C145.936 118.948 145.71 115.616 145.849 110.967L146.813 106.149L147.828 105.467L152.416 105.275L152.481 99.3307L156.886 99.6163L157.661 102.349L158.859 102.813L159.202 98.9656Z" fill="#F1BD7A"/>
<path d="M147.828 105.467L152.416 105.275L152.54 105.867L152.116 111.034L153.526 112.109C152.569 118.567 156.455 116.154 158.676 120.859C157.909 122.378 156.784 122.883 154.98 122.847C151.4 123.446 149.91 123.586 146.287 123.581C145.936 118.948 145.71 115.616 145.849 110.967L146.813 106.149L147.828 105.467Z" fill="#32333A"/>
<path d="M147.828 105.467L152.416 105.275L152.54 105.867L152.116 111.034C150.188 111.465 149.231 111.556 147.5 112.583C146.368 114.532 145.286 115.851 145.403 118.027C147.704 123.308 149.728 122.801 154.98 122.847C151.4 123.446 149.91 123.586 146.287 123.581C145.936 118.948 145.71 115.616 145.849 110.967L146.813 106.149L147.828 105.467Z" fill="#3A4044"/>
<path d="M140.728 135.717C148.588 135.71 157.208 135.527 165.002 135.865L164.958 141.659C159.655 141.638 154.614 141.617 149.319 141.864C147.558 141.845 142.722 141.655 141.269 142.054C140.619 140.146 140.75 137.767 140.728 135.717Z" fill="#582916"/>
<path d="M152.481 99.3307L156.886 99.6163L157.661 102.349L158.859 102.813L158.778 108.294C157.485 111.257 156.923 111.413 153.526 112.109L152.116 111.034L152.54 105.867L152.416 105.275L152.481 99.3307Z" fill="#272830"/>
<path d="M152.481 99.3307L156.886 99.6163L157.661 102.349L158.859 102.813L158.778 108.294C158.464 106.855 158.267 106.054 157.77 104.667C155.849 104.848 154.388 105.34 152.54 105.867L152.416 105.275L152.481 99.3307Z" fill="#32333A"/>
<path d="M148.741 87.0348C151.948 86.8259 151.985 86.8033 152.978 84.075L153.657 86.3703C155.958 87.5161 156.893 86.826 158.924 87.1831C159.041 88.7057 159.143 91.0332 159.421 92.4609C159.165 94.9293 158.53 97.6525 156.886 99.6163L152.481 99.3307L151.4 98.7158L146.177 99.1073L146.236 94.9826L145.688 95.374C145.732 91.8525 146.419 89.6105 148.741 87.0348Z" fill="#3D3D46"/>
<path d="M152.306 93.411C155.652 92.2148 155.849 91.9891 159.421 92.4609C159.165 94.9293 158.53 97.6525 156.886 99.6163L152.481 99.3307L151.4 98.7158C151.452 96.4037 151.722 95.6194 152.306 93.411Z" fill="#704F62"/>
<path d="M152.24 93.0188C152.284 91.4421 152.452 90.2927 152.657 88.7481C154.439 87.1634 156.178 87.4788 158.924 87.1831C159.041 88.7057 159.143 91.0332 159.421 92.4609C155.849 91.9891 155.652 92.2148 152.306 93.411L152.24 93.0188Z" fill="#614859"/>
<path d="M146.236 94.9826C148.267 93.17 149.078 93.5753 152.24 93.0188L152.306 93.411C151.722 95.6194 151.452 96.4037 151.4 98.7158L146.177 99.1073L146.236 94.9826Z" fill="#523640"/>
<path d="M152.343 80.8945L165.199 80.9172C165.338 85.889 166.682 95.0454 163.592 98.4179C161.846 98.7881 160.992 98.8611 159.202 98.9656L158.859 102.813L157.661 102.349L156.886 99.6163C158.53 97.6525 159.165 94.9293 159.421 92.4609C159.143 91.0332 159.041 88.7057 158.924 87.1831C156.893 86.826 155.958 87.5161 153.657 86.3703L152.978 84.075L152.343 80.8945Z" fill="#271717"/>
<path d="M13.0496 158.917L12.699 159.806C12.4361 161.773 12.2169 163.32 11.7933 165.269C10.3323 166.26 9.63827 166.092 7.82671 166.105L6.99407 165.895L7.01592 160.106C9.02471 160.211 11.092 159.473 13.0496 158.917Z" fill="#E0A577"/>
<path d="M165.067 13.0308L171.561 13.4727L171.401 14.3059C170.064 19.1156 170.341 18.5124 164.98 18.7811L164.6 18.4847L165.067 13.0308Z" fill="#E3B07B"/>
<path d="M171.393 164.811L171.371 178.133L171.919 178.467C171.196 181.505 171.576 182.15 169.699 184.039C167.631 184.277 166.915 184.353 164.782 184.219C158.727 183.828 148.179 184.217 141.707 184.246L96.3303 184.361L44.4962 184.236C34.9051 184.211 23.152 183.873 13.7217 184.469C12.5383 182.688 12.9327 181.005 13.1299 178.883C13.9115 176.815 13.7289 174.644 13.7508 172.393C28.2068 173.213 161.108 173.84 162.883 172.368C167.251 168.738 163.438 167.392 171.393 164.811Z" fill="#915434"/>
<path d="M171.371 178.133L171.919 178.467C171.196 181.505 171.576 182.15 169.699 184.039C167.631 184.277 166.915 184.353 164.782 184.219C164.651 182.059 164.593 181.532 165.038 179.348C167.295 177.776 168.23 178.263 171.371 178.133Z" fill="#502A1F"/>
<path d="M175.908 13.2638L176.558 13.4186C177.23 27.9317 177.142 174.795 175.769 177.441C174.059 178.258 173.818 178.322 171.919 178.467L171.371 178.133L171.393 164.811L171.401 14.3059L171.561 13.4727L175.908 13.2638Z" fill="#582916"/>
<path d="M13.7217 184.469C23.152 183.873 34.9051 184.211 44.4962 184.236L96.3303 184.361L141.707 184.246C148.179 184.217 158.727 183.828 164.782 184.219C164.834 187.567 165.338 187.118 163.782 189.511C159.414 191.11 29.6751 190.146 12.962 189.931L12.9913 185.149L13.7217 184.469Z" fill="#502A1F"/>
<path d="M91.8745 64.2775L98.2223 64.5433C98.2661 67.723 98.2515 70.8414 98.142 74.0188C97.952 79.5822 98.7555 80.9749 104.11 81.3568L106.097 81.1815C110.991 82.5048 110.195 86.2351 112.686 88.0141C113.109 89.1658 113.445 90.5044 114.314 91.3056L111.495 91.6795L111.334 92.2783C114.059 95.1264 114.694 95.7691 116.601 99.1949L110.304 99.5841C110.231 103.116 109.99 107.837 110.231 111.27C100.655 111.576 106.411 116.771 98.3903 118.297L97.8424 118.636L97.7839 122.631C97.7182 125.588 98.1784 126.793 96.7978 129.024L95.534 129.207L92.8606 129.495C91.2463 131.552 91.8087 133.808 91.911 136.756C90.5962 137.064 87.1995 137.779 86.1038 138.192C85.0519 141.226 85.7094 140.846 83.4741 142.341L79.4637 142.658L79.1861 141.845L73.1379 141.667C73.1964 139.851 73.16 138.312 73.1016 136.512L74.1899 135.705L73.7297 129.637C73.6348 128.104 73.4594 126.879 73.2402 125.368C66.9874 120.592 67.3161 118.496 67.1116 111.294C64.9494 111.281 64.365 111.203 62.2685 110.805C60.7126 108.635 61.2021 108.397 60.9902 105.267C59.091 105.093 58.0464 105.122 56.3298 104.192C54.9419 101.521 55.4679 96.6359 55.2561 92.9217L55.782 92.7683C55.2195 89.688 55.2561 83.7587 55.1758 80.3987C58.251 80.5403 58.7112 80.0321 60.7419 81.5642C60.9976 83.3578 61.2897 85.1463 61.6111 86.9289C61.9763 84.4423 61.7207 78.7183 61.706 75.9505L62.3708 75.9198C64.2627 76.0228 66.3227 75.8278 67.6229 76.9846L68.032 76.2375C69.8216 76.0826 71.3921 75.7489 73.0138 76.396L73.3717 77.9895C73.6128 81.0888 73.8173 84.1911 73.978 87.2955L80.0774 86.9961C80.2746 89.114 80.5667 91.2238 80.3257 93.3307L85.8773 92.6398L85.9065 87.0633L86.0673 80.4513C86.3667 78.7796 86.2279 76.5639 86.1914 74.82L85.8846 68.6571L91.7795 68.7878L91.8745 64.2775Z" fill="#394747"/>
<path d="M68.032 76.2375C69.8216 76.0826 71.3921 75.7489 73.0138 76.396L73.3717 77.9895C73.6128 81.0888 73.8173 84.1911 73.978 87.2955L80.0774 86.9961C80.2746 89.114 80.5667 91.2238 80.3257 93.3307C79.7632 95.8808 79.3981 102.298 80.5669 104.617L80.7275 105.047L79.2959 106.492L79.2666 111.106C75.6069 111.506 76.3813 110.882 74.0073 113.024C73.2915 115.385 73.2329 114.373 74.4382 116.835C76.0818 118.04 77.309 117.819 79.3909 117.861C79.442 121.506 80.1651 126.137 78.5873 128.917C76.9145 129.973 75.6801 129.723 73.7297 129.637C73.6348 128.104 73.4594 126.879 73.2402 125.368C66.9874 120.592 67.3161 118.496 67.1116 111.294C64.9494 111.281 64.365 111.203 62.2685 110.805C60.7126 108.635 61.2021 108.397 60.9902 105.267C59.091 105.093 58.0464 105.122 56.3298 104.192C54.9419 101.521 55.4679 96.6359 55.2561 92.9217L55.782 92.7683C55.2195 89.688 55.2561 83.7587 55.1758 80.3987C58.251 80.5403 58.7112 80.0321 60.7419 81.5642C60.9976 83.3578 61.2897 85.1463 61.6111 86.9289C61.9763 84.4423 61.7207 78.7183 61.706 75.9505L62.3708 75.9198C64.2627 76.0228 66.3227 75.8278 67.6229 76.9846L68.032 76.2375Z" fill="#527357"/>
<path d="M68.032 76.2375C69.8216 76.0826 71.3921 75.7489 73.0138 76.396L73.3717 77.9895C73.6128 81.0888 73.8173 84.1911 73.978 87.2955L73.5471 88.0171L73.2184 91.6342C71.4579 93.1656 71.3995 92.6719 68.4995 92.8472L68.4338 93.2314C66.4616 91.5298 67.0824 91.6313 66.761 88.1872C65.0663 86.5966 64.5841 87.1152 61.6111 86.9289C61.9763 84.4423 61.7207 78.7183 61.706 75.9505L62.3708 75.9198C64.2627 76.0228 66.3227 75.8278 67.6229 76.9846L68.032 76.2375Z" fill="#32333A"/>
<path d="M68.032 76.2375C69.8216 76.0826 71.3921 75.7489 73.0138 76.396L73.3717 77.9895C72.5755 82.7772 74.2117 83.1628 70.7712 87.446L69.157 87.5884C66.9071 84.9849 67.4914 80.3271 67.6229 76.9846L68.032 76.2375Z" fill="#325E39"/>
<path d="M68.4995 92.8472C67.8129 90.2576 67.4696 90.5395 68.1562 88.3121C69.9532 87.2364 71.3849 87.7213 73.5471 88.0171L73.2184 91.6342C71.4579 93.1656 71.3995 92.6719 68.4995 92.8472Z" fill="#1A1A1B"/>
<path d="M73.978 87.2955L80.0774 86.9961C80.2746 89.114 80.5667 91.2238 80.3257 93.3307C79.7632 95.8808 79.3981 102.298 80.5669 104.617L80.7275 105.047L79.2959 106.492C69.4857 104.912 75.2856 98.6457 71.7063 93.6031L68.4338 93.2314L68.4995 92.8472C71.3995 92.6719 71.4579 93.1656 73.2184 91.6342L73.5471 88.0171L73.978 87.2955Z" fill="#2D2F37"/>
<path d="M73.978 87.2955L80.0774 86.9961C79.3104 91.2399 80.0555 90.2276 77.5281 93.0853C75.2125 93.7089 76.2133 93.7776 73.7078 92.4996L73.2184 91.6342L73.5471 88.0171L73.978 87.2955Z" fill="#3A4044"/>
<path d="M55.782 92.7683C59.1129 92.9801 59.0837 92.4017 60.9829 94.2041C61.1217 96.0861 61.1875 97.5116 61.1802 99.4133C61.1363 101.035 61.0268 103.172 61.0852 104.734L60.9902 105.267C59.091 105.093 58.0464 105.122 56.3298 104.192C54.9419 101.521 55.4679 96.6359 55.2561 92.9217L55.782 92.7683Z" fill="#3A4044"/>
<path d="M61.0852 104.734L67.2869 105.437L67.1116 111.294C64.9494 111.281 64.365 111.203 62.2685 110.805C60.7126 108.635 61.2021 108.397 60.9902 105.267L61.0852 104.734Z" fill="#614859"/>
<path d="M61.1802 99.4133C64.4819 99.6112 64.555 99.0408 66.498 100.805L67.2869 105.437L61.0852 104.734C61.0268 103.172 61.1363 101.035 61.1802 99.4133Z" fill="#394747"/>
<path d="M104.11 81.3568L106.097 81.1815C110.991 82.5048 110.195 86.2351 112.686 88.0141C113.109 89.1658 113.445 90.5044 114.314 91.3056L111.495 91.6795L111.334 92.2783C114.059 95.1264 114.694 95.7691 116.601 99.1949L110.304 99.5841C110.231 103.116 109.99 107.837 110.231 111.27C100.655 111.576 106.411 116.771 98.3903 118.297C98.3391 116.928 98.0908 110.722 98.4341 110.095C104.088 99.6462 104.614 104.381 104.198 92.6763L104.11 81.3568Z" fill="#202128"/>
<path d="M106.097 81.1815C110.991 82.5048 110.195 86.2351 112.686 88.0141C113.109 89.1658 113.445 90.5044 114.314 91.3056L111.495 91.6795L111.334 92.2783C114.059 95.1264 114.694 95.7691 116.601 99.1949L110.304 99.5841C110.355 99.0927 110.377 98.7049 110.392 98.2046L110.399 97.5532C110.553 89.2849 105.425 93.6235 106.097 81.1815Z" fill="#502A1F"/>
<path d="M91.8745 64.2775L98.2223 64.5433C98.2661 67.723 98.2515 70.8414 98.142 74.0188C97.952 79.5822 98.7555 80.9749 104.11 81.3568L104.198 92.6763C102.196 92.9027 100.888 93.251 99.0404 92.4842C98.4925 88.7598 98.1273 88.0974 95.5195 85.5611C93.8833 85.2157 93.7227 85.2493 92.4517 84.2305C91.3559 80.4191 91.743 73.033 91.7795 68.7878L91.8745 64.2775Z" fill="#527357"/>
<path d="M85.9065 87.0633C88.3243 87.0779 89.705 86.6697 91.5239 87.7571C91.9184 91.5685 92.4296 100.878 91.3777 104.308C88.8722 104.777 88.3974 104.714 85.9138 104.479C84.6282 104.371 81.9621 104.56 80.5669 104.617C79.3981 102.298 79.7632 95.8808 80.3257 93.3307L85.8773 92.6398L85.9065 87.0633Z" fill="#527357"/>
<path d="M85.8773 92.6398L85.9138 104.479C84.6282 104.371 81.9621 104.56 80.5669 104.617C79.3981 102.298 79.7632 95.8808 80.3257 93.3307L85.8773 92.6398Z" fill="#394747"/>
<path d="M79.2666 111.106L86.0601 111.15L85.9724 117.064C83.8833 117.34 81.4581 117.719 79.3909 117.861C77.309 117.819 76.0818 118.04 74.4382 116.835C73.2329 114.373 73.2915 115.385 74.0073 113.024C76.3813 110.882 75.6069 111.506 79.2666 111.106Z" fill="#384E42"/>
<path d="M91.6919 118.377C93.6788 117.345 96.0235 117.177 97.8424 118.636L97.7839 122.631C97.7182 125.588 98.1784 126.793 96.7978 129.024L95.534 129.207L92.6343 128.222C91.4655 126.029 91.838 121.291 91.6919 118.377Z" fill="#1A1A1B"/>
<path d="M91.6919 118.377C91.838 121.291 91.4655 126.029 92.6343 128.222L95.534 129.207L92.8606 129.495C91.2463 131.552 91.8087 133.808 91.911 136.756C90.5962 137.064 87.1995 137.779 86.1038 138.192C85.7823 134.499 84.8547 132.189 87.9081 130.018C91.8672 127.202 91.4581 122.865 91.6919 118.377Z" fill="#2D2F37"/>
<path d="M80.7275 105.047C83.6275 105.246 83.949 104.754 85.6875 106.291C85.8409 107.931 85.9797 109.501 86.0601 111.15L79.2666 111.106L79.2959 106.492L80.7275 105.047Z" fill="#1A1A1B"/>
<path d="M74.1899 135.705C77.1702 136.076 77.3381 135.587 79.135 137.257C79.1861 138.834 79.2592 140.261 79.1861 141.845L73.1379 141.667C73.1964 139.851 73.16 138.312 73.1016 136.512L74.1899 135.705Z" fill="#2D2F37"/>
<path d="M86.0601 111.15C89.5955 111.443 89.3324 110.843 91.48 112.78C92.1812 115.073 92.2324 114.118 91.2682 116.364C89.5881 117.261 87.9666 117.525 85.9724 117.064L86.0601 111.15Z" fill="#1A1A1B"/>
<path d="M48.5649 92.7479L55.2561 92.9217C55.4679 96.6359 54.9419 101.521 56.3298 104.192C58.0464 105.122 59.091 105.093 60.9902 105.267C61.2021 108.397 60.7126 108.635 62.2685 110.805C64.365 111.203 64.9494 111.281 67.1116 111.294C67.3161 118.496 66.9874 120.592 73.2402 125.368C73.4594 126.879 73.6348 128.104 73.7297 129.637L74.1899 135.705L73.1016 136.512C73.16 138.312 73.1964 139.851 73.1379 141.667L73.4082 149.08C70.8589 147.639 69.2007 148.056 66.1912 148.226C66.5126 146.03 66.739 145.107 66.3664 142.855C64.6645 141.236 65.1685 141.715 62.3708 141.455L62.0275 141.861C59.6023 141.475 57.2064 140.798 54.9785 141.69C53.6564 141.781 50.6249 141.631 49.1639 141.602C49.0397 144.926 49.5803 145.097 47.9441 147.341C46.7242 147.561 45.5627 147.804 44.3209 147.874C43.868 146.751 43.4589 143.123 43.2617 141.708C34.9417 141.518 26.6144 141.569 18.3016 141.861C17.1621 141.839 15.8399 141.72 14.6858 141.647C13.0349 139.722 13.612 138.948 13.5024 135.728L12.9473 135.687C13.5171 125.546 12.7647 110.189 13.0934 98.7611C14.4229 99.0722 15.3652 99.3519 16.7239 99.4038L17.5273 99.4417C17.7976 100.999 18.2066 102.996 18.287 104.535C20.6318 105.49 21.4864 105.355 23.9993 105.329L24.401 105.001L31.1944 105.061L31.4427 104.628C33.4661 104.506 35.4385 104.143 37.1258 105.222L37.4911 105.174L42.8381 105.388L43.4516 105.204C43.3932 103.611 43.5612 100.941 43.6196 99.2818C43.6634 97.4057 43.7366 95.7786 43.8827 93.8981C45.5043 92.4441 45.9279 92.9027 48.5649 92.7479Z" fill="#202128"/>
<path d="M13.0934 98.7611C14.4229 99.0722 15.3652 99.3519 16.7239 99.4038L17.5273 99.4417C17.7976 100.999 18.2066 102.996 18.287 104.535C20.6318 105.49 21.4864 105.355 23.9993 105.329L24.401 105.001L31.1944 105.061L31.4427 104.628C33.4661 104.506 35.4385 104.143 37.1258 105.222C37.5349 106.89 38.0243 108.597 38.1777 110.298L37.6371 111.366L37.9878 117.218C40.7563 117.615 40.9462 117.164 42.597 118.751C42.7577 119.799 43.0864 122.506 43.3275 123.387L42.9038 123.592C42.9184 125.226 43.0061 128.007 42.8746 129.531C42.8381 131.283 42.9623 134.278 42.3194 135.734L43.0134 136.04L43.2617 141.708C34.9417 141.518 26.6144 141.569 18.3016 141.861C17.1621 141.839 15.8399 141.72 14.6858 141.647C13.0349 139.722 13.612 138.948 13.5024 135.728L12.9473 135.687C13.5171 125.546 12.7647 110.189 13.0934 98.7611Z" fill="#F1BD7A"/>
<path d="M31.4427 104.628C33.4661 104.506 35.4385 104.143 37.1258 105.222C37.5349 106.89 38.0243 108.597 38.1777 110.298L37.6371 111.366L37.9878 117.218L36.5998 118.187C37.2938 118.86 37.6298 119.822 37.5056 120.782C37.3814 121.741 36.8117 122.585 35.9643 123.06C35.38 123.393 34.6934 123.521 34.0214 123.423C33.0937 123.287 32.2755 122.734 31.808 121.919C31.3405 121.106 31.2674 120.123 31.618 119.251C30.3762 117.109 26.7896 117.633 24.4448 117.545L24.5909 116.991L24.5691 116.494C24.5545 112.506 24.6421 109.291 23.9993 105.329L24.401 105.001L31.1944 105.061L31.4427 104.628Z" fill="#394747"/>
<path d="M23.9993 105.329L24.401 105.001L31.1944 105.061L31.1871 110.484C31.136 113.959 31.7423 114.452 30.0549 116.728C27.659 117.099 26.9577 117.08 24.5909 116.991L24.5691 116.494C24.5545 112.506 24.6421 109.291 23.9993 105.329Z" fill="#272830"/>
<path d="M31.4427 104.628C33.4661 104.506 35.4385 104.143 37.1258 105.222C37.5349 106.89 38.0243 108.597 38.1777 110.298L37.6371 111.366C33.9847 111.449 34.0067 111.997 31.1871 110.484L31.1944 105.061L31.4427 104.628Z" fill="#527357"/>
<path d="M31.618 119.251C31.9979 118.301 32.8235 117.604 33.8242 117.391C34.825 117.177 35.8621 117.476 36.5998 118.187C37.2938 118.86 37.6298 119.822 37.5056 120.782C37.3814 121.741 36.8117 122.585 35.9643 123.06C35.38 123.393 34.6934 123.521 34.0214 123.423C33.0937 123.287 32.2755 122.734 31.808 121.919C31.3405 121.106 31.2674 120.123 31.618 119.251Z" fill="#272830"/>
<path d="M13.5024 135.728C20.7925 134.97 34.6495 135.512 42.3194 135.734L43.0134 136.04L43.2617 141.708C34.9417 141.518 26.6144 141.569 18.3016 141.861C17.1621 141.839 15.8399 141.72 14.6858 141.647C13.0349 139.722 13.612 138.948 13.5024 135.728Z" fill="#582916"/>
<path d="M37.9878 117.218C40.7563 117.615 40.9462 117.164 42.597 118.751C42.7577 119.799 43.0864 122.506 43.3275 123.387L42.9038 123.592C42.9184 125.226 43.0061 128.007 42.8746 129.531L37.4618 129.451L35.9643 123.06C36.8117 122.585 37.3814 121.741 37.5056 120.782C37.6298 119.822 37.2938 118.86 36.5998 118.187L37.9878 117.218Z" fill="#394747"/>
<path d="M37.4618 129.451C37.6371 127.819 37.7979 126.186 37.9586 124.553C39.6898 123.086 39.9892 123.613 42.9038 123.592C42.9184 125.226 43.0061 128.007 42.8746 129.531L37.4618 129.451Z" fill="#1A1A1B"/>
<path d="M24.4448 117.545C26.7896 117.633 30.3762 117.109 31.618 119.251C31.2674 120.123 31.3405 121.106 31.808 121.919C32.2755 122.734 33.0937 123.287 34.0214 123.423L24.0942 123.671C23.9043 120.994 24.0431 120.202 24.4448 117.545Z" fill="#523640"/>
<path d="M24.5691 116.494L24.5909 116.991L24.4448 117.545C24.0431 120.202 23.9043 120.994 24.0942 123.671C20.7779 123.755 20.2447 123.992 18.0752 121.708L18.3163 119.953C20.7122 117.059 20.3104 117.87 24.5691 116.494Z" fill="#271717"/>
<path d="M37.4911 105.174L42.8381 105.388C43.2691 108.643 42.7285 109.053 44.6058 110.835L47.6811 111.08C50.8879 111.032 51.7497 110.461 54.0288 112.001C54.562 113.828 54.8177 114.904 55.1756 116.775C55.2487 118.851 55.4095 121.545 55.2561 123.562C55.0296 127.066 55.6067 126.847 53.7805 129.135C49.9821 130.627 46.7679 126.8 43.8899 130.183C43.7365 131.511 43.4152 134.984 43.0134 136.04L42.3194 135.734C42.9623 134.278 42.8381 131.283 42.8746 129.531C43.0061 128.007 42.9184 125.226 42.9038 123.592L43.3275 123.387C43.0864 122.506 42.7577 119.799 42.597 118.751C40.9462 117.164 40.7563 117.615 37.9878 117.218L37.6371 111.366L38.1777 110.298C38.0243 108.597 37.5349 106.89 37.1258 105.222L37.4911 105.174Z" fill="#394747"/>
<path d="M37.4911 105.174L42.8381 105.388C43.2691 108.643 42.7285 109.053 44.6058 110.835L47.6811 111.08L48.1194 111.763L47.3596 113.696C48.3019 116.788 50.0039 119.082 49.5657 121.681C48.5284 123.069 48.5066 123.132 46.8995 123.611L43.3275 123.387C43.0864 122.506 42.7577 119.799 42.597 118.751C40.9462 117.164 40.7563 117.615 37.9878 117.218L37.6371 111.366L38.1777 110.298C38.0243 108.597 37.5349 106.89 37.1258 105.222L37.4911 105.174Z" fill="#527357"/>
<path d="M37.4911 105.174L42.8381 105.388C43.2691 108.643 42.7285 109.053 44.6058 110.835L47.6811 111.08L48.1194 111.763L47.3596 113.696C45.7526 113.835 41.1946 111.175 38.1777 110.298C38.0243 108.597 37.5349 106.89 37.1258 105.222L37.4911 105.174Z" fill="#3C5347"/>
<path d="M48.1194 111.763C49.7921 117.747 51.7863 115.276 54.8542 120.858C54.0361 124.263 50.0186 123.705 46.8995 123.611C48.5066 123.132 48.5284 123.069 49.5657 121.681C50.0039 119.082 48.3019 116.788 47.3596 113.696L48.1194 111.763Z" fill="#3C5347"/>
<path d="M60.8076 129.314C70.5959 130.35 64.5405 134.81 73.1016 136.512C73.16 138.312 73.1964 139.851 73.1379 141.667L73.4082 149.08C70.8589 147.639 69.2007 148.056 66.1912 148.226C66.5126 146.03 66.739 145.107 66.3664 142.855C64.6645 141.236 65.1685 141.715 62.3708 141.455L61.6769 140.888C60.6834 138.564 60.866 132.154 60.8076 129.314Z" fill="#394747"/>
<path d="M49.1639 141.602C49.5657 135.876 51.6842 135.939 55.3804 131.048C56.9947 128.921 57.9296 129.432 60.8076 129.314C60.866 132.154 60.6834 138.564 61.6769 140.888L62.3708 141.455L62.0275 141.861C59.6023 141.475 57.2064 140.798 54.9785 141.69C53.6564 141.781 50.6249 141.631 49.1639 141.602Z" fill="#325E39"/>
<path d="M55.1756 116.775C58.6089 116.931 58.1999 116.401 60.6323 118.101C61.6988 120.343 61.5965 119.343 60.9099 121.87C58.5797 123.932 59.0326 123.298 55.2561 123.562C55.4095 121.545 55.2487 118.851 55.1756 116.775Z" fill="#3A4044"/>
<path d="M43.6196 99.2818C47.345 99.6469 46.8192 99.0656 49.5073 101.01L50.1355 102.704C48.3458 105.991 47.0456 105.417 43.4516 105.204C43.3932 103.611 43.5612 100.941 43.6196 99.2818Z" fill="#E3B07B"/>
<path d="M12.9255 6.92999C16.0007 6.96651 21.8225 6.87595 24.6129 7.29514C22.0855 7.51788 16.3732 7.4631 14.6713 8.73673C13.5902 11.8697 17.0379 14.2292 15.7085 17.4717C15.4893 18.0026 15.5843 18.4029 15.6938 18.9418C14.7661 19.3267 13.4221 19.6312 13.3783 20.4404C12.436 36.5265 12.3193 67.2133 12.9109 82.315L13.0934 98.7611C12.7647 110.189 13.5171 125.546 12.9473 135.687C12.8889 143.431 12.9254 151.174 13.0496 158.917C11.092 159.473 9.02471 160.211 7.01592 160.106L6.99407 165.895L7.82671 166.105C10.5806 166.708 11.0481 166.295 12.4798 168.017C12.7135 169.592 12.7282 171.321 13.7508 172.393C13.7289 174.644 13.9115 176.815 13.1299 178.883L6.28545 179.112L3.59746 178.507C3.12996 178.193 1.91 177.073 1.42058 176.644C-1.32598 163.745 0.595143 35.8086 1.50823 14.2526C1.53745 13.5457 5.47461 12.7073 6.82598 12.3743C6.8552 11.0861 7.05981 9.73432 7.22051 8.44901C9.0759 7.05853 9.61642 7.52154 12.4141 7.3952L12.9255 6.92999Z" fill="#5B3021"/>
<path d="M12.9255 6.92999C16.0007 6.96651 21.8225 6.87595 24.6129 7.29514C22.0855 7.51788 16.3732 7.4631 14.6713 8.73673C13.5902 11.8697 17.0379 14.2292 15.7085 17.4717C15.4893 18.0026 15.5843 18.4029 15.6938 18.9418C14.7661 19.3267 13.4221 19.6312 13.3783 20.4404C12.436 36.5265 12.3193 67.2133 12.9109 82.315L13.0934 98.7611C12.7647 110.189 13.5171 125.546 12.9473 135.687C12.8889 143.431 12.9254 151.174 13.0496 158.917C11.092 159.473 9.02471 160.211 7.01592 160.106L7.01604 69.4808C6.96491 51.8531 6.40976 31.4816 7.11101 14.0372C8.25054 12.5627 9.38281 12.7796 11.6473 12.2779L6.82598 12.3743C6.8552 11.0861 7.05981 9.73432 7.22051 8.44901C9.0759 7.05853 9.61642 7.52154 12.4141 7.3952L12.9255 6.92999Z" fill="#FAD39D"/>
<path d="M6.82598 12.3743C6.8552 11.0861 7.05981 9.73432 7.22051 8.44901C9.0759 7.05853 9.61642 7.52154 12.4141 7.3952C12.3338 9.51159 12.6626 10.7348 11.6473 12.2779L6.82598 12.3743Z" fill="#582916"/>
<path d="M6.99407 165.895L7.82671 166.105C10.5806 166.708 11.0481 166.295 12.4798 168.017C12.7135 169.592 12.7282 171.321 13.7508 172.393C13.7289 174.644 13.9115 176.815 13.1299 178.883L6.28545 179.112L3.59746 178.507C4.67125 177.71 5.39444 176.945 6.34404 176.005C7.61506 173.087 7.12555 169.167 6.99407 165.895Z" fill="#854D30"/>
<path d="M42.8088 38.028C43.8096 34.5912 44.0068 35.0673 47.5277 34.949C50.5738 32.5493 46.7315 31.0741 52.1881 30.5089C60.888 29.607 66.2642 34.5321 72.8238 39.1723C73.6128 40.8929 74.1825 41.7882 74.2921 43.6921C72.1811 46.8871 72.7069 51.6749 73.7223 55.1854C73.0356 59.6102 73.2402 59.9155 68.8428 61.7003L67.9224 62.1385L67.6301 63.5421L61.7645 63.7992L62.0056 65.8944C60.3109 66.2902 56.5344 67.0234 55.2123 67.8077L54.5183 67.8457C54.6352 72.2435 54.7813 76.0184 55.1758 80.3987C55.2561 83.7587 55.2195 89.688 55.782 92.7683L55.2561 92.9217L48.5649 92.7479C49.2077 89.0986 50.2232 87.7972 46.5781 86.5338C45.6869 86.6003 45.088 86.3885 44.2261 86.1811C43.1742 83.9055 43.8754 79.8437 43.4006 76.3499L43.313 75.735C41.7571 75.5408 37.2574 74.8492 37.0967 72.9519C36.41 65.0421 35.0294 46.5336 37.5349 39.5221C39.9235 37.7132 39.3683 38.2587 42.8088 38.028Z" fill="#271717"/>
<path d="M42.8088 38.028C43.8096 34.5912 44.0068 35.0673 47.5277 34.949C50.5738 32.5493 46.7315 31.0741 52.1881 30.5089C60.888 29.607 66.2642 34.5321 72.8238 39.1723C73.6128 40.8929 74.1825 41.7882 74.2921 43.6921C72.1811 46.8871 72.7069 51.6749 73.7223 55.1854C73.0356 59.6102 73.2402 59.9155 68.8428 61.7003L67.9224 62.1385L67.6301 63.5421L61.7645 63.7992L61.6842 60.7371L62.1079 59.9294L62.8967 58.5287L66.5637 57.6319C67.8347 55.4111 67.2722 54.7326 67.1042 51.6873L61.9033 51.7399L61.7718 50.8431C60.194 51.1067 60.0041 51.0154 58.4044 50.7299C55.3437 51.5369 54.8323 51.5084 51.6621 51.2995L43.342 51.022L43.3787 40.9557L43.6196 40.1677C47.2866 38.9174 46.841 40.0333 48.4188 37.5065L47.6665 36.4659C44.8104 36.3497 45.6065 36.4184 42.8088 38.028Z" fill="#593429"/>
<path d="M43.6196 40.1677C49.3538 40.3291 46.5271 40.0092 51.0049 37.5861C53.5104 36.2285 58.777 35.377 61.2898 37.3028C61.5747 38.7648 61.6112 38.6998 61.2386 40.1202C60.9245 43.5219 61.5017 43.9995 58.5287 46.1911C59.471 48.6391 59.953 49.0042 61.7718 50.8431C60.194 51.1067 60.0041 51.0154 58.4044 50.7299C55.3437 51.5369 54.8323 51.5084 51.6621 51.2995L43.342 51.022L43.3787 40.9557L43.6196 40.1677Z" fill="#6C4433"/>
<path d="M43.3787 40.9557C45.9426 40.9739 47.3306 40.5204 49.1641 41.7349L49.259 42.8011C52.1152 44.8423 56.4614 47.8664 58.4044 50.7299C55.3437 51.5369 54.8323 51.5084 51.6621 51.2995L43.342 51.022L43.3787 40.9557Z" fill="#9A7066"/>
<path d="M49.259 42.8011L50.2744 40.7885C53.693 40.3269 56.3007 40.0793 59.1787 41.9518L59.9311 43.4248L58.5287 46.1911C59.471 48.6391 59.953 49.0042 61.7718 50.8431C60.194 51.1067 60.0041 51.0154 58.4044 50.7299C56.4614 47.8664 52.1152 44.8423 49.259 42.8011Z" fill="#44241E"/>
<path d="M61.2386 40.1202C64.5915 40.3452 64.5184 39.7887 66.6587 41.5509C67.9297 44.5962 66.9508 48.1863 67.1042 51.6873L61.9033 51.7399L61.7718 50.8431C59.953 49.0042 59.471 48.6391 58.5287 46.1911C61.5017 43.9995 60.9245 43.5219 61.2386 40.1202Z" fill="#9A7066"/>
<path d="M62.1079 59.9294C64.1678 59.0691 64.438 58.9946 66.6732 59.0443C68.5213 60.2828 67.9297 59.5964 68.8428 61.7003L67.9224 62.1385L67.6301 63.5421L61.7645 63.7992L61.6842 60.7371L62.1079 59.9294Z" fill="#361E19"/>
<path d="M58.4044 50.7299C60.0041 51.0154 60.194 51.1067 61.7718 50.8431L61.9033 51.7399L67.1042 51.6873C67.2722 54.7326 67.8347 55.4111 66.5637 57.6319L62.8967 58.5287L62.1079 59.9294L61.6842 60.7371C52.6775 61.0328 43.4808 62.6818 43.342 51.022L51.6621 51.2995C54.8323 51.5084 55.3437 51.5369 58.4044 50.7299Z" fill="#825954"/>
<path d="M58.4044 50.7299C60.0041 51.0154 60.194 51.1067 61.7718 50.8431L61.9033 51.7399C61.6403 53.0938 61.4065 54.4522 61.1947 55.8142C55.9791 61.2892 52.8601 56.5927 51.6621 51.2995C54.8323 51.5084 55.3437 51.5369 58.4044 50.7299Z" fill="#8B635B"/>
<path d="M48.7988 67.9961L54.5183 67.8457C54.6352 72.2435 54.7813 76.0184 55.1758 80.3987C55.2561 83.7587 55.2195 89.688 55.782 92.7683L55.2561 92.9217L48.5649 92.7479C49.2077 89.0986 50.2232 87.7972 46.5781 86.5338L48.2436 85.713C49.1713 82.7918 48.66 78.1238 48.5066 74.9178C48.5212 72.7043 48.6892 70.2308 48.7988 67.9961Z" fill="#3C5347"/>
<path d="M48.7988 67.9961L54.5183 67.8457C54.6352 72.2435 54.7813 76.0184 55.1758 80.3987C51.9179 80.4038 52.2466 80.8938 49.8725 79.3982C48.6673 76.9597 49.0983 71.6155 48.7988 67.9961Z" fill="#527357"/>
<path d="M43.8022 62.1706C43.7146 61.0314 42.4072 59.2553 42.3122 58.0927C41.9397 53.4897 39.982 44.0061 43.3787 40.9557L43.342 51.022C43.4808 62.6818 52.6775 61.0328 61.6842 60.7371L61.7645 63.7992L62.0056 65.8944C60.3109 66.2902 56.5344 67.0234 55.2123 67.8077L54.5183 67.8457C53.4664 67.4988 50.5226 67.4105 49.9894 66.919C45.8184 63.0528 49.1127 63.9175 43.8022 62.1706Z" fill="#502A1F"/>
<path d="M43.8022 62.1706C49.1127 63.9175 45.8184 63.0528 49.9894 66.919C50.5226 67.4105 53.4664 67.4988 54.5183 67.8457L48.7988 67.9961C48.6892 70.2308 48.5212 72.7043 48.5066 74.9178L45.2779 74.0488C42.0054 71.5417 42.0491 65.3824 43.8022 62.1706Z" fill="#3D3D46"/>
<path d="M12.9255 6.92999C12.8889 4.65368 12.5383 2.23643 13.897 0.497606C46.7096 -0.12095 80.7421 0.42968 113.657 0.259523C123.876 0.206211 155.469 -0.41673 163.957 0.482988C165.294 2.27658 164.943 4.56531 164.921 6.89201C118.149 6.58748 71.3848 6.72186 24.6129 7.29514C21.8225 6.87595 16.0007 6.96651 12.9255 6.92999Z" fill="#5B3021"/>
<path d="M122.51 61.0723C124.022 61.2643 127.689 61.6412 128.924 62.0874L134.037 62.2363C134.41 65.2364 133.862 65.029 135.644 66.5122C138.771 66.9241 138.5 66.4114 140.604 68.1488L141.123 80.3103C146.316 81.3707 146.097 80.663 147.025 86.2629L148.741 87.0348C146.419 89.6105 145.732 91.8525 145.688 95.374L146.236 94.9826L146.177 99.1073L146.345 104.604C145.359 103.734 143.256 103.477 141.941 103.247L141.261 101.041L141.05 100.944C139.976 99.6542 139.413 99.6951 137.689 99.2489L134.41 98.967C132.364 99.1701 130.268 99.4213 128.215 99.4322C127.054 99.5425 124.461 99.3519 123.175 99.2971L122.306 99.5754C120.334 99.5914 118.558 99.3826 116.601 99.1949C114.694 95.7691 114.059 95.1264 111.334 92.2783L111.495 91.6795L114.314 91.3056C113.445 90.5044 113.109 89.1658 112.686 88.0141L113.014 87.1656C114.526 87.4087 113.781 87.4693 115.301 86.8004C116.221 81.9703 115.512 81.86 119.903 80.1416C120.582 80.1423 122.751 79.7904 123.548 79.6823C122.028 77.1226 121.648 76.2302 119.179 74.6191L118.639 73.8363C119.158 72.3136 119.494 69.7854 119.778 68.1313L116.294 66.4421L116.309 64.1928C118.96 62.3481 119.45 62.1122 122.51 61.0723Z" fill="#44241E"/>
<path d="M127.565 75.264C131.415 73.6859 128.639 72.5816 134.388 70.9443C134.388 73.7589 134.3 77.0904 134.417 79.8539C134.965 84.056 135.44 84.9812 133.036 88.762C129.764 93.9251 118.23 96.4256 114.314 91.3056C113.445 90.5044 113.109 89.1658 112.686 88.0141L113.014 87.1656C114.526 87.4087 113.781 87.4693 115.301 86.8004C116.221 81.9703 115.512 81.86 119.903 80.1416C120.582 80.1423 122.751 79.7904 123.548 79.6823C125.432 79.1879 126.959 77.0408 127.565 75.264Z" fill="#825954"/>
<path d="M127.565 75.264C131.415 73.6859 128.639 72.5816 134.388 70.9443C134.388 73.7589 134.3 77.0904 134.417 79.8539L133.592 82.0659C129.435 83.7376 127.207 83.3133 122.832 82.5005L119.903 80.1416C120.582 80.1423 122.751 79.7904 123.548 79.6823C125.432 79.1879 126.959 77.0408 127.565 75.264Z" fill="#9A7066"/>
<path d="M119.778 68.1313C121.466 66.911 123.007 67.1417 125.162 67.095C130.304 69.3224 128.5 71.0721 134.388 70.9443C128.639 72.5816 131.415 73.6859 127.565 75.264C126.959 77.0408 125.432 79.1879 123.548 79.6823C122.028 77.1226 121.648 76.2302 119.179 74.6191L118.639 73.8363C119.158 72.3136 119.494 69.7854 119.778 68.1313Z" fill="#6C4433"/>
<path d="M119.179 74.6191C121.057 73.4193 124.914 73.2499 127.025 73.81L127.565 75.264C126.959 77.0408 125.432 79.1879 123.548 79.6823C122.028 77.1226 121.648 76.2302 119.179 74.6191Z" fill="#44241E"/>
<path d="M147.025 86.2629L148.741 87.0348C146.419 89.6105 145.732 91.8525 145.688 95.374L146.236 94.9826L146.177 99.1073L146.345 104.604C145.359 103.734 143.256 103.477 141.941 103.247L141.261 101.041L141.05 100.944C139.976 99.6542 139.413 99.6951 137.689 99.2489L139.501 98.4858C140.64 96.6776 140.29 93.8755 140.246 91.5918L140.363 90.53C142.365 87.1619 143.373 87.0962 147.025 86.2629Z" fill="#2D2F37"/>
<path d="M145.688 95.374L146.236 94.9826L146.177 99.1073L146.345 104.604C145.359 103.734 143.256 103.477 141.941 103.247L141.261 101.041C142.109 99.8171 143.993 98.7399 145.286 97.8628L145.688 95.374Z" fill="#3A4044"/>
<path d="M141.123 80.3103C146.316 81.3707 146.097 80.663 147.025 86.2629C143.373 87.0962 142.365 87.1619 140.363 90.53C140.239 88.288 140.896 82.7816 141.123 80.3103Z" fill="#271717"/>
<path d="M140.246 91.5918C140.29 93.8755 140.64 96.6776 139.501 98.4858L137.689 99.2489L134.41 98.967C134.607 93.6082 135.359 94.004 140.246 91.5918Z" fill="#E3B07B"/>
<path d="M164.921 6.89201L165.067 13.0308L164.6 18.4847C160.166 17.8427 160.612 18.4051 157.609 14.3768L157.281 13.9357C148.084 12.6796 136.221 12.9469 126.762 12.9293L80.4938 12.9615C68.1708 12.9571 30.6832 11.9843 19.748 13.6406C16.6216 16.843 20.3177 18.565 15.6938 18.9418C15.5843 18.4029 15.4893 18.0026 15.7085 17.4717C17.0379 14.2292 13.5902 11.8697 14.6713 8.73673C16.3732 7.4631 22.0855 7.51788 24.6129 7.29514C71.3848 6.72186 118.149 6.58748 164.921 6.89201Z" fill="#FAD39D"/>
<path d="M85.8918 31.9746C86.3082 27.021 86.2865 28.0734 89.9753 24.6271C91.8453 22.881 92.4222 20.0738 95.3879 19.4625C101.991 23.2045 95.9359 51.5033 99.2157 56.2735L98.2295 56.4678L91.7211 57.1922L91.6626 57.6092C91.7429 59.8147 91.8453 62.0764 91.8745 64.2775L91.7795 68.7878L85.8846 68.6571L86.0161 61.6718L85.8992 60.5151L85.9503 55.7981C85.6435 51.3375 85.6874 48.9159 85.9431 44.4582L85.87 44.0317L85.8918 31.9746Z" fill="#2D2F37"/>
<path d="M85.9431 44.4582C87.8789 44.3187 89.8511 44.1288 91.7869 44.1653L91.7211 57.1922L91.6626 57.6092C91.7429 59.8147 91.8453 62.0764 91.8745 64.2775L91.7795 68.7878L85.8846 68.6571L86.0161 61.6718L85.8992 60.5151L85.9503 55.7981C85.6435 51.3375 85.6874 48.9159 85.9431 44.4582Z" fill="#527357"/>
<path d="M86.0161 61.6718L89.6976 61.9581C91.4581 60.5917 91.0052 60.3595 91.6626 57.6092C91.7429 59.8147 91.8453 62.0764 91.8745 64.2775L91.7795 68.7878L85.8846 68.6571L86.0161 61.6718Z" fill="#325E39"/>
<path d="M85.8918 31.9746C89.3689 32.2886 88.9454 31.7248 91.3048 33.5871C92.5539 36.2395 91.9403 41.047 91.7869 44.1653C89.8511 44.1288 87.8789 44.3187 85.9431 44.4582L85.87 44.0317L85.8918 31.9746Z" fill="#704F62"/>
<path d="M31.0118 91.353C33.2471 93.2547 33.3567 92.9319 36.9141 92.9604L37.0674 93.4059C39.7117 92.8326 40.2304 92.8107 42.9331 92.9334L42.8673 99.4081C42.8454 101.049 42.7286 103.826 42.8381 105.388L37.4911 105.174L37.1258 105.222C35.4385 104.143 33.4661 104.506 31.4427 104.628L31.1944 105.061L24.401 105.001L23.9993 105.329C21.4864 105.355 20.6318 105.49 18.287 104.535C18.2066 102.996 17.7976 100.999 17.5273 99.4417C20.0255 95.1323 15.8984 94.6152 23.0423 92.6566L25.1389 92.2666L28.0753 93.6074L31.0118 91.353Z" fill="#394747"/>
<path d="M23.0423 92.6566C25.0657 94.7854 24.4302 94.8781 24.7297 98.5676L24.4961 99.2716L24.401 105.001L23.9993 105.329C21.4864 105.355 20.6318 105.49 18.287 104.535C18.2066 102.996 17.7976 100.999 17.5273 99.4417C20.0255 95.1323 15.8984 94.6152 23.0423 92.6566Z" fill="#704F62"/>
<path d="M24.4961 99.2716L24.401 105.001L23.9993 105.329C21.4864 105.355 20.6318 105.49 18.287 104.535L18.8933 100.797C20.8071 99.1277 21.4281 99.6053 24.4961 99.2716Z" fill="#202128"/>
<path d="M24.4961 99.2716C27.9293 99.3044 28.7328 98.6837 30.895 100.481C31.0849 101.852 31.2893 103.255 31.4427 104.628L31.1944 105.061L24.401 105.001L24.4961 99.2716Z" fill="#606168"/>
<path d="M37.0674 93.4059C39.7117 92.8326 40.2304 92.8107 42.9331 92.9334L42.8673 99.4081L37.082 99.2139L37.0674 93.4059Z" fill="#E3B07B"/>
<path d="M25.1389 92.2666L28.0753 93.6074C30.9095 94.1267 30.2229 93.557 31.6108 95.5157C30.8073 97.6459 31.2822 96.8762 29.025 98.45L24.7297 98.5676C24.4302 94.8781 25.0657 94.7854 23.0423 92.6566L25.1389 92.2666Z" fill="#2D2F37"/>
<path d="M37.082 99.2139L42.8673 99.4081C42.8454 101.049 42.7286 103.826 42.8381 105.388L37.4911 105.174C36.9578 103.584 37.0966 100.981 37.082 99.2139Z" fill="#0A0A0D"/>
<path d="M134.117 43.4387L134.322 43.76C136.455 43.8871 137.945 43.7585 139.567 45.1892C140.589 47.1683 140.385 48.0877 140.268 50.2574L140.904 50.4633L140.546 51.2477C140.553 56.4846 140.378 63.0236 140.604 68.1488C138.5 66.4114 138.771 66.9241 135.644 66.5122C133.862 65.029 134.41 65.2364 134.037 62.2363L128.924 62.0874L128.822 56.3159L128.931 50.5385L128.822 45.2096C129.873 43.4577 132.233 43.6753 134.117 43.4387Z" fill="#32333A"/>
<path d="M134.117 43.4387L134.322 43.76C136.455 43.8871 137.945 43.7585 139.567 45.1892C140.589 47.1683 140.385 48.0877 140.268 50.2574L134.329 50.4516L128.931 50.5385L128.822 45.2096C129.873 43.4577 132.233 43.6753 134.117 43.4387Z" fill="#614859"/>
<path d="M134.117 43.4387L134.322 43.76C134.307 45.6237 134.191 48.6997 134.329 50.4516L128.931 50.5385L128.822 45.2096C129.873 43.4577 132.233 43.6753 134.117 43.4387Z" fill="#271717"/>
<path d="M128.931 50.5385L134.329 50.4516L134.256 56.3933L134.271 56.8519L134.037 62.2363L128.924 62.0874L128.822 56.3159L128.931 50.5385Z" fill="#614859"/>
<path d="M128.822 56.3159L134.256 56.3933L134.271 56.8519L134.037 62.2363L128.924 62.0874L128.822 56.3159Z" fill="#606168"/>
<path d="M134.271 56.8519C134.446 58.8003 135.031 63.323 137.361 63.7853C140.977 60.583 138.953 55.3424 140.546 51.2477C140.553 56.4846 140.378 63.0236 140.604 68.1488C138.5 66.4114 138.771 66.9241 135.644 66.5122C133.862 65.029 134.41 65.2364 134.037 62.2363L134.271 56.8519Z" fill="#394747"/>
<path d="M99.2157 56.2735C103.788 56.0011 106.308 55.4724 109.873 58.4856L110.136 60.0652C108.288 62.4248 107.339 62.4657 104.11 63.1638C104.154 68.3715 103.986 75.5978 104.314 80.6375L104.11 81.3568C98.7555 80.9749 97.952 79.5822 98.142 74.0188C98.2515 70.8414 98.2661 67.723 98.2223 64.5433L91.8745 64.2775C91.8453 62.0764 91.7429 59.8147 91.6626 57.6092L91.7211 57.1922L98.2295 56.4678L99.2157 56.2735Z" fill="#202128"/>
<path d="M91.7211 57.1922L98.2295 56.4678C98.2222 58.9413 98.1127 62.1392 98.2223 64.5433L91.8745 64.2775C91.8453 62.0764 91.7429 59.8147 91.6626 57.6092L91.7211 57.1922Z" fill="#3C5347"/>
<path d="M104.314 80.6375C105.162 80.5484 105.892 80.249 106.696 79.9751C108.069 77.5768 106.908 74.7864 107.134 71.1846C110.1 67.1432 110.867 72.0719 114.117 66.8094L116.294 66.4421L119.778 68.1313C119.494 69.7854 119.158 72.3136 118.639 73.8363L119.179 74.6191C121.648 76.2302 122.028 77.1226 123.548 79.6823C122.751 79.7904 120.582 80.1423 119.903 80.1416C115.512 81.86 116.221 81.9703 115.301 86.8004C113.781 87.4693 114.526 87.4087 113.014 87.1656L112.686 88.0141C110.195 86.2351 110.991 82.5048 106.097 81.1815L104.11 81.3568L104.314 80.6375Z" fill="#593429"/>
<path d="M113.014 87.1656C112.824 82.9963 111.962 77.2416 113.745 73.7669C116.17 72.7781 115.622 73.1403 118.639 73.8363L119.179 74.6191C121.648 76.2302 122.028 77.1226 123.548 79.6823C122.751 79.7904 120.582 80.1423 119.903 80.1416C115.512 81.86 116.221 81.9703 115.301 86.8004C113.781 87.4693 114.526 87.4087 113.014 87.1656Z" fill="#9A7066"/>
<path d="M79.7634 41.9839L80.2673 43.7549C82.2615 44.5166 83.7662 44.2223 85.87 44.0317L85.9431 44.4582C85.6874 48.9159 85.6435 51.3375 85.9503 55.7981C83.8904 56.0274 81.2534 56.0596 79.135 56.1414L78.7771 56.356C77.4038 55.9018 75.1978 55.5023 73.7223 55.1854C72.7069 51.6749 72.1811 46.8871 74.2921 43.6921L79.2593 43.7607L79.7634 41.9839Z" fill="#523640"/>
<path d="M74.2921 43.6921L79.2593 43.7607C79.2593 45.4652 79.0035 55.2833 79.135 56.1414L78.7771 56.356C77.4038 55.9018 75.1978 55.5023 73.7223 55.1854C72.7069 51.6749 72.1811 46.8871 74.2921 43.6921Z" fill="#272830"/>
<path d="M128.822 45.2096L128.931 50.5385L128.822 56.3159L128.924 62.0874C127.689 61.6412 124.022 61.2643 122.51 61.0723C119.45 62.1122 118.96 62.3481 116.309 64.1928C116.623 60.1937 116.579 54.4295 116.674 50.2932L128.215 50.3363C128.266 48.9319 128.632 46.6753 128.822 45.2096Z" fill="#271717"/>
<path d="M128.822 45.2096L128.931 50.5385L128.822 56.3159L128.924 62.0874C127.689 61.6412 124.022 61.2643 122.51 61.0723C123.182 56.3977 123.38 57.2543 127.412 55.1847C128.741 53.2253 128.266 53.2107 128.215 50.3363C128.266 48.9319 128.632 46.6753 128.822 45.2096Z" fill="#523640"/>
<path d="M15.9861 80.5579L17.5713 81.4488C19.4121 88.2398 23.7072 85.5801 25.1389 92.2666L23.0423 92.6566C15.8984 94.6152 20.0255 95.1323 17.5273 99.4417L16.7239 99.4038C15.3652 99.3519 14.4229 99.0722 13.0934 98.7611L12.9109 82.315L15.9861 80.5579Z" fill="#272830"/>
<path d="M12.9109 82.315L15.9861 80.5579C15.7304 85.8569 15.5478 94.2881 16.7239 99.4038C15.3652 99.3519 14.4229 99.0722 13.0934 98.7611L12.9109 82.315Z" fill="#271717"/>
<path d="M134.117 43.4387C134.154 40.0457 133.584 40.424 135.374 38.4632C138.53 37.1648 143.248 38.1397 146.857 38.1521C146.988 41.5078 147.58 46.067 146.156 48.9348C144.278 50.7058 143.621 50.5539 140.904 50.4633L140.268 50.2574C140.385 48.0877 140.589 47.1683 139.567 45.1892C137.945 43.7585 136.455 43.8871 134.322 43.76L134.117 43.4387Z" fill="#271717"/>
<path d="M79.7634 41.9839C80.1506 38.87 79.5733 36.8587 80.4133 33.7112C82.539 31.7504 82.3783 32.3478 85.8918 31.9746L85.87 44.0317C83.7662 44.2223 82.2615 44.5166 80.2673 43.7549L79.7634 41.9839Z" fill="#271717"/>
<path d="M43.313 75.735L43.4006 76.3499C43.8754 79.8437 43.1742 83.9055 44.2261 86.1811C45.088 86.3885 45.6869 86.6003 46.5781 86.5338C50.2232 87.7972 49.2077 89.0986 48.5649 92.7479C45.9279 92.9027 45.5043 92.4441 43.8827 93.8981C43.7366 95.7786 43.6634 97.4057 43.6196 99.2818C43.5612 100.941 43.3932 103.611 43.4516 105.204L42.8381 105.388C42.7286 103.826 42.8454 101.049 42.8673 99.4081L42.9331 92.9334L42.8821 86.3739C42.8602 82.3705 42.977 79.7012 43.313 75.735Z" fill="#523640"/>
<path d="M36.8701 86.5083C38.3164 86.796 41.2896 86.4791 42.8821 86.3739L42.9331 92.9334C40.2304 92.8107 39.7117 92.8326 37.0674 93.4059L36.9141 92.9604L36.8701 86.5083Z" fill="#AF7853"/>
<path d="M31.0118 91.353C32.3048 86.6332 32.3558 87.1933 36.8701 86.5083L36.9141 92.9604C33.3567 92.9319 33.2471 93.2547 31.0118 91.353Z" fill="#272830"/>
<path d="M164.921 6.89201C168.004 6.8387 168.274 6.3253 170.473 7.69533C172.16 12.1647 171.152 12.2881 175.908 13.2638L171.561 13.4727L165.067 13.0308L164.921 6.89201Z" fill="#5B3021"/>
<path d="M6.28545 179.112L13.1299 178.883C12.9327 181.005 12.5383 182.688 13.7217 184.469L12.9913 185.149L8.65947 184.44C6.5192 182.441 7.08897 182.484 6.28545 179.112Z" fill="#582916"/>
</svg>
