<svg width="168" height="173" viewBox="0 0 168 173" fill="none" xmlns="http://www.w3.org/2000/svg">
<path d="M16.1487 110.286C16.1955 110.364 16.2431 110.442 16.2915 110.519C17.1632 111.898 18.7169 112.275 20.1342 111.452C20.6542 111.15 20.6195 110.649 20.7262 110.102C20.7257 113.116 20.7306 119.114 21.1814 122.13L21.0887 122.349C18.2305 121.963 11.3928 120.237 10.7415 124.467C10.51 122.826 10.7419 117.394 10.422 116.679L10.3855 116.551C10.6354 116.368 10.6637 116.277 10.8132 116.013C11.9945 116.92 13.9884 116.656 15.3643 116.419L15.3832 116.334C15.8716 114.072 15.8796 112.55 16.1487 110.286Z" fill="#5C9BCD"/>
<path d="M8.96538 4.91013L20.7297 0H147.486L147.487 4.91013C148.225 4.93982 149.507 4.95007 150.185 5.10957C148.981 5.46173 148.619 5.54981 147.52 6.16198C147.586 7.47435 147.612 8.81866 148.207 10.0155L152.528 10.0343C152.499 15.4693 152.668 22.101 152.392 27.4508C152.673 32.9393 152.606 38.3074 152.626 43.7964L152.718 62.9938L152.84 118.779C152.84 122.227 152.796 125.675 152.706 129.122C152.635 131.288 152.437 134.146 152.456 136.249C150.667 137.101 149.429 137.013 147.485 136.961L147.524 142.316C147.674 143.565 147.675 145.529 147.625 146.834C146.822 146.98 140.132 147.33 139.622 147.006L137.643 146.937L137.408 147.227C135.834 147.083 134.101 146.757 132.528 146.496C132.128 147.101 132.265 148.849 132.338 149.571C130.692 149.633 129.004 149.717 127.36 149.74L127.224 152.09C125.263 152.281 114 152.654 112.961 151.78C112.803 151.647 112.661 151.501 112.521 151.351C112.288 149.8 112.131 149.415 111.379 148.109C110.873 147.881 110.388 147.562 109.913 147.27L110.526 147.062C113.018 145.37 112.733 143.543 110.072 142.227C109.656 142.278 107.628 142.222 107.099 142.217C107.177 136.902 107.251 137.157 101.972 136.777C101.977 135.315 102.05 133.185 101.831 131.81L101.947 131.798L101.975 129.19L101.939 126.878L96.7609 126.89L94.3774 126.88L94.2221 126.842L91.6275 126.858L84.1997 126.9L81.5546 126.863L76.496 126.862C74.2251 126.949 68.8916 126.96 66.7545 126.761C65.439 126.85 62.8593 126.773 61.4554 126.77C55.1593 127.189 47.4271 128.148 41.4375 126.326C41.3197 124.988 41.316 123.58 41.2912 122.231C39.8307 121.82 37.655 121.894 36.9775 121.576C36.0674 120.696 36.6647 118.697 36.3573 117.623C35.9166 116.083 32.8877 116.798 31.3755 115.928C30.6256 115.145 31.055 112.828 30.7887 111.605L26.0283 111.617C26.3593 114.666 25.9641 118.361 25.7604 121.485C25.1846 121.956 25.0642 121.594 24.4743 121.833C24.0425 121.938 21.7725 122.082 21.1814 122.13C20.7306 119.114 20.7257 113.116 20.7262 110.102C20.6195 110.649 20.6542 111.15 20.1342 111.452C18.7169 112.275 17.1632 111.898 16.2915 110.519C16.2431 110.442 16.1955 110.364 16.1487 110.286C15.8796 112.55 15.8716 114.072 15.3832 116.334L15.3643 116.419C13.9884 116.656 11.9945 116.92 10.8132 116.013C10.6637 116.277 10.6354 116.368 10.3855 116.551C5.36999 116.754 6.30258 117.263 5.4188 121.541L4.78542 121.578C0.283993 121.751 1.08983 123.065 0 126.795L8.96538 4.91013Z" fill="#4285C9"/>
<path d="M15.829 9.80394C15.7816 4.96829 16.1222 4.90694 20.8983 4.91874C21.0692 9.75053 21.0381 10.1238 15.9847 9.97919L15.9945 78.4259C16.0032 88.9017 15.8189 99.8423 16.1487 110.286C15.8796 112.55 15.8716 114.072 15.3832 116.334L15.3643 116.419C13.9884 116.656 11.9945 116.92 10.8132 116.013C11.4588 109.089 10.9963 99.311 10.9654 92.1888L10.8851 46.8227C10.8348 37.7678 10.7247 28.7109 10.6798 19.6394C10.6726 18.1672 10.6979 12.1862 11.3861 10.7375C11.7869 9.89357 14.7845 9.85241 15.829 9.80394Z" fill="#2A4A79"/>
<path d="M20.7297 0H147.486L147.487 4.91013C146.749 4.84027 145.692 4.88294 144.939 4.90024C134.984 5.12905 125.037 5.15115 115.08 5.11078C100.888 4.92351 86.6947 4.81066 72.5011 4.77228C55.2811 4.83083 38.9722 5.23538 21.6526 4.81769L20.8893 2.91386C20.8216 1.94342 20.7684 0.972025 20.7297 0Z" fill="#2A4A79"/>
<path d="M25.8414 35.5527L25.8367 40.373L25.875 59.7571C25.8771 61.1689 25.7957 67.3038 25.9708 68.4114C25.885 70.1605 25.8036 71.7173 25.8562 73.4753C25.8534 74.0557 25.8759 74.895 25.8333 75.4529C25.9293 79.8956 25.9497 84.1757 25.8323 88.6116C25.7916 90.1459 25.9708 91.9171 25.9664 93.4876C25.959 96.0261 25.7001 98.8659 25.8723 101.386L25.9959 101.361L27.1481 101.408C28.226 101.656 30.065 101.592 31.2326 101.592C31.238 102.947 31.4203 105.289 31.0259 106.473C30.7565 108.024 30.6924 110.011 30.9 111.573L30.7887 111.605L26.0283 111.617C26.3593 114.666 25.9641 118.361 25.7604 121.485C25.1846 121.956 25.0642 121.594 24.4743 121.833C24.0425 121.938 21.7725 122.082 21.1814 122.13C20.7306 119.114 20.7257 113.116 20.7262 110.102C20.9855 104.635 21.1365 99.0578 21.0667 93.5883C20.821 74.3617 21.2334 54.9942 20.9183 35.7828L25.8414 35.5527Z" fill="#2A4A79"/>
<path d="M25.9959 101.361L27.1481 101.408C28.226 101.656 30.065 101.592 31.2326 101.592C31.238 102.947 31.4203 105.289 31.0259 106.473L25.9975 106.476C26.0339 105.126 26.1061 102.644 25.8723 101.386L25.9959 101.361Z" fill="#2D5B9F"/>
<path d="M25.9975 106.476L31.0259 106.473C30.7565 108.024 30.6924 110.011 30.9 111.573L30.7887 111.605L26.0283 111.617C25.9894 109.903 25.9791 108.19 25.9975 106.476Z" fill="#4285C9"/>
<path d="M132.243 104.026C133.107 104.01 134.045 103.974 134.904 103.993L134.95 106.434L137.329 106.483C137.336 108.148 137.311 109.927 137.416 111.58L142.061 111.602C142.054 113.171 142.266 120.104 142.91 121.16C142.361 121.481 141.84 121.779 141.317 122.142C139.191 122.345 138.898 122.951 137.472 124.568C137.09 127.519 137.001 127.452 137.488 130.34C137.342 131.144 137.181 131.946 137.007 132.745L137.326 133.173C138.355 136.266 136.095 137.857 133.196 136.987C133.096 138.608 132.919 140.582 133.025 142.173C133.086 143.571 132.326 145.879 132.528 146.496C132.128 147.101 132.265 148.849 132.338 149.571C130.692 149.633 129.004 149.717 127.36 149.74L127.224 152.09C125.263 152.281 114 152.654 112.961 151.78C112.803 151.647 112.661 151.501 112.521 151.351C112.288 149.8 112.131 149.415 111.379 148.109C110.873 147.881 110.388 147.562 109.913 147.27L110.526 147.062C113.018 145.37 112.733 143.543 110.072 142.227C109.656 142.278 107.628 142.222 107.099 142.217C107.177 136.902 107.251 137.157 101.972 136.777C101.977 135.315 102.05 133.185 101.831 131.81L101.947 131.798L101.975 129.19L101.939 126.878L105.429 126.843C106.636 126.922 108.311 127.069 109.505 127.059L111.82 127.049C114.334 126.823 117.001 127.093 119.692 126.699L120.338 126.729L120.487 126.673C122.471 125.946 121.876 124.122 122.358 122.321C123.137 121.454 125.333 121.872 126.975 121.658C126.839 120.576 127.197 117.867 127.547 116.756L130.982 116.584C133.171 115.308 132.586 108.859 132.486 106.476C132.389 105.661 132.308 104.844 132.243 104.026Z" fill="#2D5B9F"/>
<path d="M130.982 116.584C131.569 116.671 131.911 116.602 132.231 116.957C132.445 118.342 132.387 121.84 132.365 123.382C132.327 126.054 132.456 129.261 132.316 131.891C130.694 131.872 128.893 131.812 127.285 131.854C127.307 133.559 127.307 135.264 127.287 136.969L124.686 137.032L124.641 139.394C123.871 139.447 122.996 139.53 122.233 139.51L122.186 142.031C120.755 142.037 110.738 141.903 110.072 142.227C109.656 142.278 107.628 142.222 107.099 142.217C107.177 136.902 107.251 137.157 101.972 136.777C101.977 135.315 102.05 133.185 101.831 131.81L101.947 131.798L101.975 129.19L101.939 126.878L105.429 126.843C106.636 126.922 108.311 127.069 109.505 127.059L111.82 127.049C114.334 126.823 117.001 127.093 119.692 126.699L120.338 126.729L120.487 126.673C122.471 125.946 121.876 124.122 122.358 122.321C123.137 121.454 125.333 121.872 126.975 121.658C126.839 120.576 127.197 117.867 127.547 116.756L130.982 116.584Z" fill="#4679B1"/>
<path d="M126.975 121.658C127.545 122.277 127.294 128.196 127.079 129.253L125.28 129.575C125.219 130.223 125.155 131.249 125.052 131.86L122.156 131.877L122.19 134.443C117.163 134.503 112.135 134.506 107.107 134.453C107.064 133.676 106.928 132.689 106.843 131.898C105.918 131.946 105.327 131.91 104.417 131.849C103.648 131.864 102.729 131.817 101.947 131.798L101.975 129.19L101.939 126.878L105.429 126.843C106.636 126.922 108.311 127.069 109.505 127.059L111.82 127.049C114.334 126.823 117.001 127.093 119.692 126.699L120.338 126.729L120.487 126.673C122.471 125.946 121.876 124.122 122.358 122.321C123.137 121.454 125.333 121.872 126.975 121.658Z" fill="#2D5B9F"/>
<path d="M119.692 126.699L120.338 126.729C119.379 127.334 119.668 128.261 119.706 129.344L117.252 129.396L117.074 131.835L112.098 131.835L111.981 129.353L109.471 129.358L109.505 127.059L111.82 127.049C114.334 126.823 117.001 127.093 119.692 126.699Z" fill="#4679B1"/>
<path d="M101.975 129.19L104.418 129.519L104.417 131.849C103.648 131.864 102.729 131.817 101.947 131.798L101.975 129.19Z" fill="#4679B1"/>
<path d="M125.28 129.575L127.079 129.253L127.125 131.794L125.052 131.86C125.155 131.249 125.219 130.223 125.28 129.575Z" fill="#3567A8"/>
<path d="M132.593 136.598L133.196 136.987C133.096 138.608 132.919 140.582 133.025 142.173C133.086 143.571 132.326 145.879 132.528 146.496C132.128 147.101 132.265 148.849 132.338 149.571C130.692 149.633 129.004 149.717 127.36 149.74L127.224 152.09C125.263 152.281 114 152.654 112.961 151.78C112.803 151.647 112.661 151.501 112.521 151.351C112.288 149.8 112.131 149.415 111.379 148.109C110.873 147.881 110.388 147.562 109.913 147.27L110.526 147.062C112.114 147.27 115.518 147.207 117.173 147.21C120.47 147.215 123.976 147.245 127.264 147.103C127.305 145.468 127.274 143.717 127.276 142.073L132.391 142.041C132.406 140.646 132.359 137.864 132.593 136.598Z" fill="#4679B1"/>
<path d="M132.243 104.026C133.107 104.01 134.045 103.974 134.904 103.993L134.95 106.434L137.329 106.483C137.336 108.148 137.311 109.927 137.416 111.58L142.061 111.602C142.054 113.171 142.266 120.104 142.91 121.16C142.361 121.481 141.84 121.779 141.317 122.142C139.191 122.345 138.898 122.951 137.472 124.568C137.181 121.519 137.35 117.208 137.411 114.061L134.916 114.055C134.842 111.594 134.87 108.953 134.873 106.481L132.486 106.476C132.389 105.661 132.308 104.844 132.243 104.026Z" fill="#4679B1"/>
<path d="M132.593 136.598C130.878 131.623 135.859 130.374 137.007 132.745L137.326 133.173C138.355 136.266 136.095 137.857 133.196 136.987L132.593 136.598Z" fill="#2A4A79"/>
<path d="M142.533 40.5008C144.163 40.527 145.844 40.5326 147.469 40.6103C147.475 48.8748 147.939 120.381 147.119 121.528C146.611 121.661 146.357 121.646 145.845 121.65C144.859 121.414 143.912 121.299 142.91 121.16C142.266 120.104 142.054 113.171 142.061 111.602L137.416 111.58C137.311 109.927 137.336 108.148 137.329 106.483L134.95 106.434L134.904 103.993C134.045 103.974 133.107 104.01 132.243 104.026C132.197 103.139 132.206 102.082 132.19 101.181L132.168 98.4527C132.076 97.7762 132.073 96.6494 132.05 95.9345C132.202 94.4011 132.149 92.7589 132.133 91.2107C132.091 89.6836 132.313 87.282 132.056 85.8753L132.026 80.9527C132.016 76.9253 132.162 72.4651 132.283 68.4319C133.969 68.4493 135.655 68.458 137.341 68.458C138.869 68.4551 140.545 68.4169 142.056 68.5296L142.085 65.8195C141.991 63.5766 142.023 61.1467 142.014 58.8888C142.038 57.0319 142.187 55.047 142.235 53.1558L142.189 50.631L142.21 47.6638C142.178 45.6385 142.487 42.7301 142.533 40.5008Z" fill="#2A4A79"/>
<path d="M137.341 68.458C138.869 68.4551 140.545 68.4169 142.056 68.5296L142.156 82.3638C142.146 86.9818 142.014 91.6475 142.061 96.249L142.021 99.8378L142.061 111.602L137.416 111.58C137.311 109.927 137.336 108.148 137.329 106.483L134.95 106.434L134.904 103.993C134.045 103.974 133.107 104.01 132.243 104.026C132.197 103.139 132.206 102.082 132.19 101.181L132.168 98.4527C132.076 97.7762 132.073 96.6494 132.05 95.9345C132.202 94.4011 132.149 92.7589 132.133 91.2107C132.091 89.6836 132.313 87.282 132.056 85.8753L132.026 80.9527C132.016 76.9253 132.162 72.4651 132.283 68.4319C133.969 68.4493 135.655 68.458 137.341 68.458Z" fill="#3567A8"/>
<path d="M132.133 91.2107C133.903 91.2316 135.674 91.2391 137.444 91.233C137.385 92.9668 137.337 94.5247 137.387 96.2665C135.719 96.2776 133.88 96.3283 132.229 96.2285C132.216 96.8886 132.225 97.8167 132.168 98.4527C132.076 97.7762 132.073 96.6494 132.05 95.9345C132.202 94.4011 132.149 92.7589 132.133 91.2107Z" fill="#4679B1"/>
<path d="M137.454 96.2948C138.972 96.3015 140.538 96.2648 142.061 96.249L142.021 99.8378C141.835 99.9709 141.92 99.9125 141.628 99.9234C141.517 99.5301 141.427 99.2529 141.281 98.8714C140.984 98.7908 138.216 98.8342 137.474 98.7869L137.454 96.2948Z" fill="#4285C9"/>
<path d="M35.9853 19.9846C36.0324 18.9864 35.9227 16.6148 36.6839 15.8933C38.4134 14.2544 121.919 15.1369 131.182 15.6854C132.18 24.6767 138.299 15.8218 137.593 24.2147C137.433 26.1237 141.556 25.0512 142.528 25.796L142.585 26.5026C142.547 29.2763 142.469 32.1516 142.573 34.9143C142.499 35.1306 142.459 35.4684 142.235 35.5275C141.129 35.8205 138.669 35.6966 137.694 35.191C137.372 33.8874 137.651 32.2949 136.613 31.1974C135.768 30.3032 133.637 30.4515 132.428 30.4281C132.076 28.6976 132.517 26.9799 131.63 25.7969C131.178 25.4411 130.681 25.5065 130.097 25.5005C126.487 25.106 127.438 23.5722 126.823 20.5758C125.124 20.2213 123.9 20.1569 122.177 20.1914C121.011 20.259 119.354 20.2166 118.15 20.2238L111.962 20.238L110.154 20.2697L107.122 20.2671L104.404 20.2386L101.738 20.2372L100.566 20.2537C89.2179 20.4638 77.3892 20.2949 66.0206 20.2841C57.1396 20.2759 50.8712 19.671 41.8248 20.6308C40.8514 25.5803 42.1807 25.5993 36.6811 25.5185C35.6997 27.406 35.5611 28.0749 35.4755 30.2192C34.1566 30.4672 31.7726 30.2944 31.1502 30.8949L31.0988 31.643C30.8416 33.4568 30.8455 33.789 29.8018 35.3432C28.595 35.4138 27.0218 35.551 25.8414 35.5527C25.8653 32.875 25.8395 30.1972 25.7635 27.5206C26.0446 26.9035 26.356 26.2807 26.6527 25.6693C27.5688 25.576 29.0916 25.623 30.0617 25.6281C31.0413 23.7492 30.9918 22.4022 31.1412 20.3616C32.6115 20.1397 34.4735 20.0756 35.9853 19.9846Z" fill="#2A4A79"/>
<path d="M148.207 10.0155L152.528 10.0343C152.499 15.4693 152.668 22.101 152.392 27.4508C152.332 28.6859 152.03 29.9057 151.944 31.1482C151.822 32.9012 151.89 34.6629 151.748 36.4166C151.677 37.3006 151.606 39.097 150.888 39.6827C150.699 39.8367 150.27 39.9108 150.036 39.8666C147.269 39.342 147.885 27.7385 147.842 25.377C147.806 23.3811 147.597 21.3922 147.558 19.397C147.538 18.3826 147.8 16.1401 147.302 15.3417L146.241 15.1494L147.409 15.0964C149.544 13.9094 149.075 11.8279 148.207 10.0155Z" fill="#6FB4E3"/>
<path d="M142.585 26.5026C142.785 28.2054 142.793 28.4501 143.49 30.0444C144.868 30.1637 146.27 30.3042 147.651 30.3274C147.607 33.7765 147.437 37.1598 147.469 40.6103C145.844 40.5326 144.163 40.527 142.533 40.5008C140.881 40.4373 138.996 40.4855 137.327 40.4902C137.307 39.0314 137.204 36.4845 137.694 35.191C138.669 35.6966 141.129 35.8205 142.235 35.5275C142.459 35.4684 142.499 35.1306 142.573 34.9143C142.469 32.1516 142.547 29.2763 142.585 26.5026Z" fill="#4679B1"/>
<path d="M142.573 34.9143C142.526 36.7719 142.453 38.6453 142.533 40.5008C140.881 40.4373 138.996 40.4855 137.327 40.4902C137.307 39.0314 137.204 36.4845 137.694 35.191C138.669 35.6966 141.129 35.8205 142.235 35.5275C142.459 35.4684 142.499 35.1306 142.573 34.9143Z" fill="#2D5B9F"/>
<path d="M142.67 142.242C142.655 137.457 142.755 137.013 147.485 136.961L147.524 142.316C147.674 143.565 147.675 145.529 147.625 146.834C146.822 146.98 140.132 147.33 139.622 147.006L137.643 146.937C137.358 146.284 137.424 143.255 137.525 142.494C137.865 142.267 138.693 142.316 139.153 142.307C140.128 142.35 141.657 142.266 142.67 142.242Z" fill="#7FC4ED"/>
<path d="M147.524 142.316C147.674 143.565 147.675 145.529 147.625 146.834C146.822 146.98 140.132 147.33 139.622 147.006L142.747 147.002L142.735 142.302C144.235 142.236 146.004 142.299 147.524 142.316Z" fill="#4285C9"/>
<path d="M141.317 122.142C143.31 124.412 142.058 128.763 142.475 131.945L140.35 132.003C139.576 132.204 137.708 132.541 137.326 133.173L137.007 132.745C137.181 131.946 137.342 131.144 137.488 130.34C137.001 127.452 137.09 127.519 137.472 124.568C138.898 122.951 139.191 122.345 141.317 122.142Z" fill="#2A4A79"/>
<path d="M137.488 130.34C138.522 131.346 138.971 131.564 140.35 132.003C139.576 132.204 137.708 132.541 137.326 133.173L137.007 132.745C137.181 131.946 137.342 131.144 137.488 130.34Z" fill="#3567A8"/>
<path d="M25.7635 27.5206C25.8395 30.1972 25.8653 32.875 25.8414 35.5527L20.9183 35.7828C20.892 34.4656 20.9233 33.285 20.9714 31.9677C21.0303 31.6567 21.076 31.0773 21.268 30.9108C22.0802 30.2063 24.6012 30.4258 25.6595 30.4332C25.6373 29.4116 25.5797 28.5306 25.7635 27.5206Z" fill="#4679B1"/>
<path d="M133.025 142.173C134.436 142.168 138.012 142.043 139.153 142.307C138.693 142.316 137.865 142.267 137.525 142.494C137.424 143.255 137.358 146.284 137.643 146.937L137.408 147.227C135.834 147.083 134.101 146.757 132.528 146.496C132.326 145.879 133.086 143.571 133.025 142.173Z" fill="#5C9BCD"/>
<path d="M142.91 121.16C143.912 121.299 144.859 121.414 145.845 121.65C144.115 122.058 143.555 122.336 142.564 123.935C142.568 125.283 142.649 130.969 142.475 131.945C142.058 128.763 143.31 124.412 141.317 122.142C141.84 121.779 142.361 121.481 142.91 121.16Z" fill="#3567A8"/>
<path d="M48.7568 60.7414C49.7071 60.715 50.4514 60.5325 51.124 61.0712C51.2753 61.589 51.2729 61.8445 51.2998 62.3695L51.3226 65.905C52.7116 66.0956 54.8824 65.9231 56.3517 65.9353C56.3508 67.5847 56.3297 69.2782 56.3756 70.9232L56.3863 91.3455C56.3589 92.9889 56.3453 94.6318 56.2386 96.2722L53.8435 96.278L53.7883 101.375L51.2734 101.42L51.2423 103.93C49.5832 103.926 47.8453 103.894 46.1937 103.957L46.2169 106.377C44.5281 106.437 42.8384 106.464 41.1487 106.46L31.0259 106.473C31.4203 105.289 31.238 102.947 31.2326 101.592C30.065 101.592 28.226 101.656 27.1481 101.408L25.9959 101.361L25.8723 101.386C25.7001 98.8659 25.959 96.0261 25.9664 93.4876C25.9708 91.9171 25.7916 90.1459 25.8323 88.6116C25.9497 84.1757 25.9293 79.8956 25.8333 75.4529C25.8759 74.895 25.8534 74.0557 25.8562 73.4753C25.8036 71.7173 25.885 70.1605 25.9708 68.4114C27.478 68.4324 29.2887 68.4069 30.7682 68.4821L30.8803 68.4535C32.5728 68.447 34.3821 68.4725 36.0641 68.4036L36.057 70.9239L41.1364 70.9229L46.2261 70.9278L51.1969 70.8798C51.1762 69.9208 51.1864 69.3995 51.2783 68.4314C50.5106 68.3738 49.5818 68.3699 48.7997 68.3453C48.7692 67.575 48.777 66.7374 48.7682 65.9608C48.0216 65.7852 47.0168 65.8355 46.2308 65.8394L46.2159 60.7333L48.7568 60.7414Z" fill="#3567A8"/>
<path d="M25.9708 68.4114C27.478 68.4324 29.2887 68.4069 30.7682 68.4821L30.8803 68.4535C32.5728 68.447 34.3821 68.4725 36.0641 68.4036L36.057 70.9239L41.1364 70.9229L46.2261 70.9278L46.2363 76.0173L46.2194 91.2119L41.1492 91.3008C41.1654 92.9088 41.219 94.6737 41.1576 96.2682L30.9209 96.3134C30.6636 97.608 30.8174 100.027 30.8877 101.386C29.6777 101.35 28.3668 101.391 27.1481 101.408L25.9959 101.361L25.8723 101.386C25.7001 98.8659 25.959 96.0261 25.9664 93.4876C25.9708 91.9171 25.7916 90.1459 25.8323 88.6116C25.9497 84.1757 25.9293 79.8956 25.8333 75.4529C25.8759 74.895 25.8534 74.0557 25.8562 73.4753C25.8036 71.7173 25.885 70.1605 25.9708 68.4114Z" fill="#3567A8"/>
<path d="M36.057 70.9239L41.1364 70.9229L46.2261 70.9278L46.2363 76.0173L46.2194 91.2119L41.1492 91.3008C41.1654 92.9088 41.219 94.6737 41.1576 96.2682L30.9209 96.3134L30.8313 96.2666C31.0083 95.6966 30.9647 94.4879 30.97 93.8392C32.7486 93.867 34.2617 93.8791 36.0468 93.7852C36.0927 92.1298 36.0823 90.3776 36.0978 88.714C37.8311 88.7189 39.3932 88.7069 41.1313 88.6251L41.156 76.0223L36.1978 76.0411C36.1996 77.6564 36.2481 79.543 36.096 81.1287C35.9514 79.8199 36.0305 77.4251 36.0363 76.0352C36.1013 74.5366 36.0518 72.4598 36.057 70.9239Z" fill="#4285C9"/>
<path d="M41.1364 70.9229L46.2261 70.9278L46.2363 76.0173C44.559 76.0455 42.8357 76.0234 41.1544 76.022L41.1364 70.9229Z" fill="#6FB4E3"/>
<path d="M25.9708 68.4114C27.478 68.4324 29.2887 68.4069 30.7682 68.4821L30.8803 68.4535C32.5728 68.447 34.3821 68.4725 36.0641 68.4036L36.057 70.9239C36.0518 72.4598 36.1013 74.5366 36.0363 76.0352C36.0305 77.4251 35.9514 79.8199 36.096 81.1287C34.3525 81.1368 32.6089 81.1357 30.8654 81.1255C30.7952 79.4694 30.8209 77.7051 30.8172 76.0395C29.4453 76.0409 27.5136 76.245 26.1782 75.9645C26.0357 75.9346 25.9291 75.6329 25.8333 75.4529C25.8759 74.895 25.8534 74.0557 25.8562 73.4753C25.8036 71.7173 25.885 70.1605 25.9708 68.4114Z" fill="#3567A8"/>
<path d="M25.8562 73.4753L30.9752 73.4947C30.9981 74.2416 31.0584 75.2427 31.0083 75.9688C32.5929 75.9815 34.4758 75.9484 36.0363 76.0352C36.0305 77.4251 35.9514 79.8199 36.096 81.1287C34.3525 81.1368 32.6089 81.1357 30.8654 81.1255C30.7952 79.4694 30.8209 77.7051 30.8172 76.0395C29.4453 76.0409 27.5136 76.245 26.1782 75.9645C26.0357 75.9346 25.9291 75.6329 25.8333 75.4529C25.8759 74.895 25.8534 74.0557 25.8562 73.4753Z" fill="#7FC4ED"/>
<path d="M30.8803 68.4535C32.5728 68.447 34.3821 68.4725 36.0641 68.4036L36.057 70.9239L30.7723 70.9259L30.7682 68.4821L30.8803 68.4535Z" fill="#4285C9"/>
<path d="M36.096 81.1287C36.1006 82.8295 36.1185 84.5242 36.0424 86.2238L35.9616 88.5177C34.5867 88.6044 32.0563 88.3792 31.2633 89.0407C31.0157 89.5155 31.0193 89.9397 30.9657 90.477C30.9682 90.8619 30.9754 90.842 30.7557 91.1572C29.7726 91.4618 27.1178 91.31 26.016 91.2851C25.8776 89.6028 25.9769 87.7382 26.0267 86.0374L30.9017 86.1581L30.8654 81.1255C32.6089 81.1357 34.3525 81.1368 36.096 81.1287Z" fill="#4285C9"/>
<path d="M36.0424 86.2238L35.9616 88.5177C34.5867 88.6044 32.0563 88.3792 31.2633 89.0407C31.0157 89.5155 31.0193 89.9397 30.9657 90.477C30.9017 89.7551 31.0919 87.2608 31.0986 86.2454C32.7463 86.219 34.3944 86.2118 36.0424 86.2238Z" fill="#3567A8"/>
<path d="M30.8313 96.2666L30.9209 96.3134C30.6636 97.608 30.8174 100.027 30.8877 101.386C29.6777 101.35 28.3668 101.391 27.1481 101.408L25.9959 101.361L26.0158 96.2839C27.6209 96.289 29.2263 96.2832 30.8313 96.2666Z" fill="#5C9BCD"/>
<path d="M51.2783 68.4314C51.3671 69.3782 51.3623 69.9938 51.343 70.9282C51.2305 76.7512 51.2895 82.8546 51.3228 88.6935L51.3317 91.1824L48.7348 91.2727L48.7416 96.2671C48.0951 96.268 46.8081 96.2208 46.2397 96.3771L46.1972 96.2724L46.2194 91.2119L46.2363 76.0173L46.2261 70.9278L51.1969 70.8798C51.1762 69.9208 51.1864 69.3995 51.2783 68.4314Z" fill="#4285C9"/>
<path d="M46.2363 76.0173L48.7437 76.0454L48.7342 91.2534C47.9082 91.2451 47.0412 91.2508 46.2194 91.2119L46.2363 76.0173Z" fill="#5C9BCD"/>
<path d="M46.2194 91.2119L46.1972 96.2724L41.2592 96.2656C41.2123 97.5094 41.0356 100.226 41.181 101.368C37.7501 101.398 34.3188 101.404 30.8877 101.386C30.8174 100.027 30.6636 97.608 30.9209 96.3134L41.1576 96.2682C41.219 94.6737 41.1654 92.9088 41.1492 91.3008L46.2194 91.2119Z" fill="#5C9BCD"/>
<path d="M51.343 70.9282L53.7844 70.9622C53.8607 76.6698 53.9108 82.9846 53.7911 88.6897L51.3228 88.6935C51.2895 82.8546 51.2305 76.7512 51.343 70.9282Z" fill="#5C9BCD"/>
<path d="M51.3198 96.2719L53.8435 96.278L53.7883 101.375L51.2734 101.42L51.2423 103.93C49.5832 103.926 47.8453 103.894 46.1937 103.957L46.2169 106.377C44.5281 106.437 42.8384 106.464 41.1487 106.46L41.1432 103.982C42.659 103.875 44.6592 103.916 46.2111 103.904L46.2055 101.426C47.8039 101.357 49.6274 101.39 51.2431 101.383L51.3198 96.2719Z" fill="#5C9BCD"/>
<path d="M41.2592 96.2656L46.1972 96.2724L46.2397 96.3771L46.2697 98.834C44.5077 98.8769 43.0687 98.9048 41.2934 98.764C41.2814 99.4384 41.2956 100.756 41.181 101.368C41.0356 100.226 41.2123 97.5094 41.2592 96.2656Z" fill="#4285C9"/>
<path d="M107.061 98.824C112.088 98.9081 117.12 98.7752 122.155 98.9057L122.181 101.384L127.308 101.342C127.306 102.193 127.247 107.472 127.367 108.064C127.611 107.564 127.518 102.289 127.517 101.336C129.071 101.201 130.631 101.149 132.19 101.181C132.206 102.082 132.197 103.139 132.243 104.026C132.308 104.844 132.389 105.661 132.486 106.476C132.586 108.859 133.171 115.308 130.982 116.584L127.547 116.756C127.197 117.867 126.839 120.576 126.975 121.658C125.333 121.872 123.137 121.454 122.358 122.321C121.876 124.122 122.471 125.946 120.487 126.673L120.338 126.729L119.692 126.699C117.001 127.093 114.334 126.823 111.82 127.049L109.505 127.059C108.311 127.069 106.636 126.922 105.429 126.843L101.939 126.878L96.7609 126.89L94.3774 126.88C94.3675 125.354 94.3668 123.827 94.3752 122.301C93.7856 122.569 93.1422 122.465 92.4904 122.422C92.2654 122.375 92.0089 122.302 91.783 122.244C91.3657 121.409 91.6448 113.221 91.6754 111.612L94.206 111.578L94.2191 106.481L96.8154 106.472C96.9051 106.019 96.8806 104.557 96.884 104.022C97.79 104.021 98.2731 103.983 99.1719 103.861C99.4284 103.378 99.3347 102.017 99.3303 101.39L106.994 101.38L107.061 98.824Z" fill="#3567A8"/>
<path d="M127.517 101.336C129.071 101.201 130.631 101.149 132.19 101.181C132.206 102.082 132.197 103.139 132.243 104.026C132.308 104.844 132.389 105.661 132.486 106.476C132.586 108.859 133.171 115.308 130.982 116.584L127.547 116.756C127.197 117.867 126.839 120.576 126.975 121.658C125.333 121.872 123.137 121.454 122.358 122.321C121.876 124.122 122.471 125.946 120.487 126.673L120.338 126.729L119.692 126.699C117.001 127.093 114.334 126.823 111.82 127.049L109.505 127.059C108.311 127.069 106.636 126.922 105.429 126.843C105.041 126.533 102.642 126.663 101.983 126.673L101.945 122.303C102.809 122.358 103.569 122.32 104.428 122.288C103.633 122.252 102.49 122.311 101.937 121.822C102.814 121.562 105.355 121.269 106.376 121.131C106.689 120.118 107.043 119.17 107.41 118.176C109.041 116.758 110.026 116.708 112.099 116.69L112.646 116.653C113.782 116.475 115.819 116.504 117.038 116.487C117.119 114.628 117.024 112.874 118.38 111.559L122.096 111.562L122.165 108.106C122.402 108.52 122.441 108.767 122.935 108.86C124.193 109.096 125.945 108.948 127.232 108.883L127.367 108.064C127.611 107.564 127.518 102.289 127.517 101.336Z" fill="#7FC4ED"/>
<path d="M112.132 121.785L119.685 121.788L119.692 126.699C117.001 127.093 114.334 126.823 111.82 127.049C112.084 126.615 112.04 122.765 112.132 121.785Z" fill="#5C9BCD"/>
<path d="M118.38 111.559L122.096 111.562L122.199 112.48C122.158 113.554 121.974 116.032 121.162 116.369C120.072 116.821 113.682 116.721 112.715 116.658L112.646 116.653C113.782 116.475 115.819 116.504 117.038 116.487C117.119 114.628 117.024 112.874 118.38 111.559Z" fill="#5C9BCD"/>
<path d="M107.41 118.176C109.041 116.758 110.026 116.708 112.099 116.69L112.063 119.173L109.533 119.208L109.502 122.129C107.827 122.218 106.101 122.34 104.428 122.288C103.633 122.252 102.49 122.311 101.937 121.822C102.814 121.562 105.355 121.269 106.376 121.131C106.689 120.118 107.043 119.17 107.41 118.176Z" fill="#5C9BCD"/>
<path d="M122.165 108.106C122.402 108.52 122.441 108.767 122.935 108.86C124.193 109.096 125.945 108.948 127.232 108.883L126.793 110.7C124.732 111.788 122.968 111.425 122.358 111.933L122.199 112.48L122.096 111.562L122.165 108.106Z" fill="#5C9BCD"/>
<path d="M106.938 106.469L107.042 106.504C112.084 106.466 117.126 106.46 122.168 106.485L122.165 108.106L122.096 111.562L118.38 111.559C117.024 112.874 117.119 114.628 117.038 116.487C115.819 116.504 113.782 116.475 112.646 116.653L112.099 116.69C110.026 116.708 109.041 116.758 107.41 118.176C107.043 119.17 106.689 120.118 106.376 121.131C105.355 121.269 102.814 121.562 101.937 121.822C102.49 122.311 103.633 122.252 104.428 122.288C103.569 122.32 102.809 122.358 101.945 122.303L101.983 126.673C102.642 126.663 105.041 126.533 105.429 126.843L101.939 126.878L96.7609 126.89L94.3774 126.88C94.3675 125.354 94.3668 123.827 94.3752 122.301C94.4928 122.095 94.5287 122.085 94.6977 121.909C95.513 121.838 95.9732 121.884 96.7948 121.95C96.641 120.477 96.7516 118.228 96.7919 116.696L99.3051 116.636L99.289 114.075L99.3143 111.603C100.371 111.636 101.423 111.934 101.97 110.984C101.936 110.401 101.805 109.591 102.131 109.14C102.634 108.795 103.617 108.918 104.272 108.934L104.379 106.473L106.938 106.469Z" fill="#6FB4E3"/>
<path d="M107.024 111.6L118.38 111.559C117.024 112.874 117.119 114.628 117.038 116.487C115.819 116.504 113.782 116.475 112.646 116.653L112.099 116.69C110.026 116.708 109.041 116.758 107.41 118.176C107.043 119.17 106.689 120.118 106.376 121.131C105.355 121.269 102.814 121.562 101.937 121.822L101.868 116.686C102.695 116.668 103.571 116.618 104.403 116.583L104.44 114.211L106.933 114.064C107.002 113.294 107.003 112.383 107.024 111.6Z" fill="#4285C9"/>
<path d="M94.3752 122.301C94.4928 122.095 94.5287 122.085 94.6977 121.909C95.513 121.838 95.9732 121.884 96.7948 121.95C96.8965 122.903 96.9895 126.015 96.7609 126.89L94.3774 126.88C94.3675 125.354 94.3668 123.827 94.3752 122.301Z" fill="#7FC4ED"/>
<path d="M106.938 106.469L107.042 106.504L107.011 109.019L104.272 108.934L104.379 106.473L106.938 106.469Z" fill="#4285C9"/>
<path d="M99.3143 111.603C100.371 111.636 101.423 111.934 101.97 110.984C101.886 112.011 101.789 113.037 101.765 114.066L99.289 114.075L99.3143 111.603Z" fill="#4285C9"/>
<path d="M107.005 103.995C111.959 103.857 117.211 103.925 122.181 103.971L122.168 106.485C117.126 106.46 112.084 106.466 107.042 106.504L106.938 106.469C107.072 105.588 107.029 104.876 107.005 103.995Z" fill="#4285C9"/>
<path d="M122.177 20.1914C123.9 20.1569 125.124 20.2213 126.823 20.5758C127.438 23.5722 126.487 25.106 130.097 25.5005C130.681 25.5065 131.178 25.4411 131.63 25.7969C132.517 26.9799 132.076 28.6976 132.428 30.4281C133.637 30.4515 135.768 30.3032 136.613 31.1974C137.651 32.2949 137.372 33.8874 137.694 35.191C137.204 36.4845 137.307 39.0314 137.327 40.4902C135.829 40.5495 133.997 40.4942 132.475 40.4896L132.337 40.4579C128.949 40.4913 125.561 40.5063 122.173 40.5028L122.159 43.1803C120.608 43.0531 118.817 43.1145 117.242 43.1312C117.192 43.9117 117.159 44.8579 117.067 45.6208C115.382 45.621 113.697 45.6094 112.012 45.586C111.936 44.4417 112.176 41.7015 111.822 40.7643L111.331 40.5614L109.645 40.4817C109.407 39.4076 109.492 36.7406 109.505 35.5328L106.99 35.543L106.937 30.5457L107.046 21.3563L107.059 20.433L107.122 20.2671L110.154 20.2697L111.962 20.238L118.15 20.2238C119.354 20.2166 121.011 20.259 122.177 20.1914Z" fill="#7FC4ED"/>
<path d="M122.177 20.1914C123.9 20.1569 125.124 20.2213 126.823 20.5758C127.438 23.5722 126.487 25.106 130.097 25.5005C130.681 25.5065 131.178 25.4411 131.63 25.7969C132.517 26.9799 132.076 28.6976 132.428 30.4281C133.637 30.4515 135.768 30.3032 136.613 31.1974C137.651 32.2949 137.372 33.8874 137.694 35.191C137.204 36.4845 137.307 39.0314 137.327 40.4902C135.829 40.5495 133.997 40.4942 132.475 40.4896L132.337 40.4579L132.345 40.0737C132.425 35.7455 132.21 35.6303 127.901 35.5578C127.603 35.4752 127.326 35.383 127.033 35.286C126.096 33.9147 127.178 32.0511 126.671 30.9292C126.086 30.2491 123.391 30.378 122.182 30.2521C121.735 26.8967 122.182 23.6662 122.177 20.1914Z" fill="#4679B1"/>
<path d="M132.428 30.4281C130.125 30.4927 126.954 31.1865 126.99 28.0368C127.022 25.2799 127.778 25.4887 130.097 25.5005C130.681 25.5065 131.178 25.4411 131.63 25.7969C132.517 26.9799 132.076 28.6976 132.428 30.4281Z" fill="#7FC4ED"/>
<path d="M111.962 20.238L118.15 20.2238C117.429 20.9262 117.029 21.118 117.044 22.1602C117.12 24.4785 117.053 26.6948 117.06 29.0031C116.346 29.1525 116.393 29.3231 115.795 29.6207C114.314 30.3584 113.578 30.4672 111.952 30.4538C111.964 31.961 112.198 39.7858 111.724 40.4621L111.331 40.5614L109.645 40.4817C109.407 39.4076 109.492 36.7406 109.505 35.5328L106.99 35.543L106.937 30.5457L107.046 21.3563L107.059 20.433L107.122 20.2671L110.154 20.2697L111.962 20.238Z" fill="#6FB4E3"/>
<path d="M111.962 20.238L118.15 20.2238C117.429 20.9262 117.029 21.118 117.044 22.1602C117.12 24.4785 117.053 26.6948 117.06 29.0031C116.346 29.1525 116.393 29.3231 115.795 29.6207C114.314 30.3584 113.578 30.4672 111.952 30.4538L111.985 25.3154L111.962 20.238Z" fill="#4285C9"/>
<path d="M117.044 22.1602C117.12 24.4785 117.053 26.6948 117.06 29.0031C116.346 29.1525 116.393 29.3231 115.795 29.6207C114.314 30.3584 113.578 30.4672 111.952 30.4538L111.985 25.3154C112.945 25.5035 115.672 25.592 116.931 25.7205C116.935 24.5329 116.973 23.3457 117.044 22.1602Z" fill="#5C9BCD"/>
<path d="M107.122 20.2671L110.154 20.2697C108.424 20.5782 108.28 21.3783 107.046 21.3563L107.059 20.433L107.122 20.2671Z" fill="#5C9BCD"/>
<path d="M111.952 30.4538C113.578 30.4672 114.314 30.3584 115.795 29.6207C116.393 29.3231 116.346 29.1525 117.06 29.0031C117.082 30.7709 117.284 33.7436 117.258 35.2986C118.605 35.6858 120.701 35.5859 122.144 35.5674L122.173 40.5028L122.159 43.1803C120.608 43.0531 118.817 43.1145 117.242 43.1312C117.192 43.9117 117.159 44.8579 117.067 45.6208C115.382 45.621 113.697 45.6094 112.012 45.586C111.936 44.4417 112.176 41.7015 111.822 40.7643L111.331 40.5614L111.724 40.4621C112.198 39.7858 111.964 31.961 111.952 30.4538Z" fill="#4285C9"/>
<path d="M117.258 35.2986C118.605 35.6858 120.701 35.5859 122.144 35.5674L122.173 40.5028L117.1 40.4813C117.081 39.4502 116.931 36.0839 117.258 35.2986Z" fill="#3567A8"/>
<path d="M122.182 30.2521C123.391 30.378 126.086 30.2491 126.671 30.9292C127.178 32.0511 126.096 33.9147 127.033 35.286C127.326 35.383 127.603 35.4752 127.901 35.5578C125.929 35.4337 124.165 35.3959 122.192 35.3739C122.149 33.7074 122.182 31.9278 122.182 30.2521Z" fill="#4285C9"/>
<path d="M91.6833 20.4013C91.8834 22.7867 91.7292 26.5371 91.7162 29.0383C91.7014 31.8612 91.9556 36.2122 91.7269 38.914C91.5186 36.8826 91.6211 32.2904 91.5926 30.0375C86.3609 30.1259 82.4488 29.5903 77.2798 30.7419C77.0386 32.0189 76.8657 32.9196 76.7806 34.2108C76.8386 34.8053 76.8593 34.9306 76.7458 35.5295C75.6708 36.0661 68.3754 36.1966 67.2564 34.9637C66.3501 33.9655 66.2978 33.4352 66.1928 32.1699C66.0131 31.5796 66.0499 31.0099 66.049 30.3922C64.171 30.4548 61.9561 30.3526 61.8121 32.843C60.4244 28.4795 51.3498 30.5667 47.4145 30.3652L47.388 30.2755C48.5025 30.2206 49.9939 30.264 51.1376 30.2628C51.1855 29.1764 51.1369 26.6552 51.9169 25.8597C52.6848 25.0762 88.3087 25.0262 91.6179 25.0257C91.6877 23.4819 91.5362 21.9685 91.6833 20.4013Z" fill="#5C9BCD"/>
<path d="M66.2022 30.4402C69.2622 30.1603 72.986 29.7534 75.8312 31.1332C76.3146 32.2744 76.6419 32.9521 76.7806 34.2108C76.8386 34.8053 76.8593 34.9306 76.7458 35.5295C75.6708 36.0661 68.3754 36.1966 67.2564 34.9637C66.3501 33.9655 66.2978 33.4352 66.1928 32.1699C66.2234 31.5277 66.2322 31.0815 66.2022 30.4402Z" fill="#7FC4ED"/>
<path d="M47.4145 30.3652C51.3498 30.5667 60.4244 28.4795 61.8121 32.843C61.858 33.8435 61.8897 34.7007 61.8696 35.7058C59.9501 35.6895 58.8182 35.5679 56.9924 36.1884C56.8984 38.1014 56.9448 38.5727 55.8403 40.175C54.418 40.3228 52.9937 40.4516 51.568 40.5618C51.4835 42.1536 51.4483 43.9255 50.8659 45.4185C49.7938 45.4447 47.4571 45.3692 46.5859 45.8597C45.8112 47.2778 46.3646 53.0153 43.0769 51.1797C42.2112 50.6963 41.4774 48.3984 41.3257 47.2845C40.8337 43.67 40.7644 39.3455 41.4328 35.7569C41.4839 35.4832 42.9646 35.5791 43.2344 35.5925C43.8051 35.6302 44.8762 35.548 45.4832 35.5195C46.5427 33.3681 45.9888 32.7305 46.5762 30.5788C46.6288 30.3867 47.1224 30.3974 47.4145 30.3652Z" fill="#7FC4ED"/>
<path d="M122.173 40.5028C125.561 40.5063 128.949 40.4913 132.337 40.4579L132.475 40.4896C133.997 40.4942 135.829 40.5495 137.327 40.4902C138.996 40.4855 140.881 40.4373 142.533 40.5008C142.487 42.7301 142.178 45.6385 142.21 47.6638C141.471 48.3424 138.774 48.1525 137.529 48.1937C137.526 48.8273 137.557 49.9351 137.439 50.5164C135.933 50.5323 134.111 50.5004 132.632 50.5749C131.986 50.5898 130.813 50.5812 130.211 50.6567C127.776 50.5205 124.699 50.6228 122.154 50.5392C120.884 50.5409 118.241 50.4918 117.084 50.7109L115.829 50.6731C116.254 50.6259 116.384 50.5897 116.792 50.4587C117.246 49.8827 117.099 48.7425 117.092 47.9375L117.067 45.6208C117.159 44.8579 117.192 43.9117 117.242 43.1312C118.817 43.1145 120.608 43.0531 122.159 43.1803L122.173 40.5028Z" fill="#6FB4E3"/>
<path d="M137.327 40.4902C138.996 40.4855 140.881 40.4373 142.533 40.5008C142.487 42.7301 142.178 45.6385 142.21 47.6638C141.471 48.3424 138.774 48.1525 137.529 48.1937C137.526 48.8273 137.557 49.9351 137.439 50.5164C137.28 49.5853 137.337 46.6621 137.335 45.5779C135.794 45.5919 134.221 45.5694 132.677 45.5636C132.44 44.6359 132.473 41.6099 132.475 40.4896C133.997 40.4942 135.829 40.5495 137.327 40.4902Z" fill="#4679B1"/>
<path d="M132.475 40.4896C133.997 40.4942 135.829 40.5495 137.327 40.4902C137.307 42.1861 137.309 43.8822 137.335 45.5779C135.794 45.5919 134.221 45.5694 132.677 45.5636C132.44 44.6359 132.473 41.6099 132.475 40.4896Z" fill="#2D5B9F"/>
<path d="M122.173 40.5028C125.561 40.5063 128.949 40.4913 132.337 40.4579L132.475 40.4896C132.473 41.6099 132.44 44.6359 132.677 45.5636L132.57 45.5941C129.175 45.5084 125.553 45.5776 122.141 45.5841L122.159 43.1803L122.173 40.5028Z" fill="#3567A8"/>
<path d="M132.677 45.5636C134.221 45.5694 135.794 45.5919 137.335 45.5779C137.337 46.6621 137.28 49.5853 137.439 50.5164C135.933 50.5323 134.111 50.5004 132.632 50.5749C132.785 49.2148 132.652 46.9971 132.57 45.5941L132.677 45.5636Z" fill="#5C9BCD"/>
<path d="M117.092 47.9375C118.741 48.1728 120.499 48.1752 122.169 48.2155L122.154 50.5392C120.884 50.5409 118.241 50.4918 117.084 50.7109L115.829 50.6731C116.254 50.6259 116.384 50.5897 116.792 50.4587C117.246 49.8827 117.099 48.7425 117.092 47.9375Z" fill="#4679B1"/>
<path d="M36.0591 56.0338C36.7851 56.0748 38.928 56.2673 39.5352 56.019C40.1002 56.1309 40.3961 56.0732 40.7199 56.5487C41.3499 57.4737 41.5343 59.2903 41.4969 60.3866C42.0216 60.9089 43.4211 60.7444 44.2686 60.7419L46.2159 60.7333L46.2308 65.8394C47.0168 65.8355 48.0216 65.7852 48.7682 65.9608C48.777 66.7374 48.7692 67.575 48.7997 68.3453C49.5818 68.3699 50.5106 68.3738 51.2783 68.4314C51.1864 69.3995 51.1762 69.9208 51.1969 70.8798L46.2261 70.9278L41.1364 70.9229L36.057 70.9239L36.0641 68.4036C34.3821 68.4725 32.5728 68.447 30.8803 68.4535C30.7314 67.8562 30.8019 66.6366 30.814 65.9754C31.8549 65.9726 32.587 65.9421 33.624 65.8446C32.4614 65.7735 31.953 65.7545 30.788 65.8652C30.8316 64.8001 31.0478 61.596 30.8239 60.7254L30.932 60.7053C30.9212 59.8813 30.8697 59.0596 31.0598 58.2592C32.7075 58.243 34.355 58.2161 36.0023 58.1786L36.0591 56.0338Z" fill="#7FC4ED"/>
<path d="M46.2308 65.8394C47.0168 65.8355 48.0216 65.7852 48.7682 65.9608C48.777 66.7374 48.7692 67.575 48.7997 68.3453C49.5818 68.3699 50.5106 68.3738 51.2783 68.4314C51.1864 69.3995 51.1762 69.9208 51.1969 70.8798L46.2261 70.9278L41.1364 70.9229L41.1326 65.8426C42.9675 65.9042 44.3853 65.9441 46.2308 65.8394Z" fill="#4285C9"/>
<path d="M46.229 65.957C47.1319 66.0158 47.8713 65.989 48.7682 65.9608C48.777 66.7374 48.7692 67.575 48.7997 68.3453C49.5818 68.3699 50.5106 68.3738 51.2783 68.4314C51.1864 69.3995 51.1762 69.9208 51.1969 70.8798L46.2261 70.9278C46.1753 69.3729 46.2264 67.5346 46.229 65.957Z" fill="#5C9BCD"/>
<path d="M31.0598 58.2592C32.7075 58.243 34.355 58.2161 36.0023 58.1786C36.0044 59.4487 36.0846 61.9959 35.9727 63.1654C36.1495 63.9069 36.9265 65.6585 36.8553 65.8113C36.1093 65.9302 34.455 65.8599 33.624 65.8446C32.4614 65.7735 31.953 65.7545 30.788 65.8652C30.8316 64.8001 31.0478 61.596 30.8239 60.7254L30.932 60.7053C30.9212 59.8813 30.8697 59.0596 31.0598 58.2592Z" fill="#4285C9"/>
<path d="M31.0598 58.2592C32.7075 58.243 34.355 58.2161 36.0023 58.1786C36.0044 59.4487 36.0846 61.9959 35.9727 63.1654C35.8257 62.5709 35.848 61.3847 35.8373 60.7302C34.2233 60.7628 32.5357 60.8308 30.932 60.7053C30.9212 59.8813 30.8697 59.0596 31.0598 58.2592Z" fill="#5C9BCD"/>
<path d="M41.4969 60.3866C42.0216 60.9089 43.4211 60.7444 44.2686 60.7419L46.2159 60.7333L46.2308 65.8394C44.3853 65.9441 42.9675 65.9042 41.1326 65.8426C41.1701 64.047 41.554 62.3832 41.4969 60.3866Z" fill="#5C9BCD"/>
<path d="M91.6709 106.479L94.2191 106.481L94.206 111.578L91.6754 111.612C91.6448 113.221 91.3657 121.409 91.783 122.244C92.0089 122.302 92.2654 122.375 92.4904 122.422C93.1422 122.465 93.7856 122.569 94.3752 122.301C94.3668 123.827 94.3675 125.354 94.3774 126.88L94.2221 126.842L91.6275 126.858L84.1997 126.9L81.5546 126.863L76.496 126.862C74.2251 126.949 68.8916 126.96 66.7545 126.761C68.2055 126.549 74.6762 126.693 76.466 126.702L76.4848 121.964C76.6744 119.358 76.5349 114.445 76.5447 111.668L81.5957 111.58C81.5806 114.291 81.4073 119.513 81.5898 121.975C83.1951 121.995 85.042 122.061 86.6264 121.976C86.7032 120.526 86.6348 118.209 86.6332 116.699L89.1107 116.58C89.1184 114.817 89.1187 113.349 89.2961 111.584L91.5927 111.581C91.6067 109.88 91.6329 108.18 91.6709 106.479Z" fill="#5C9BCD"/>
<path d="M86.6264 121.976L86.5805 126.694C84.9247 126.756 83.229 126.727 81.5693 126.718L81.5898 121.975C83.1951 121.995 85.042 122.061 86.6264 121.976Z" fill="#7FC4ED"/>
<path d="M92.4904 122.422C93.1422 122.465 93.7856 122.569 94.3752 122.301C94.3668 123.827 94.3675 125.354 94.3774 126.88L94.2221 126.842C93.5492 126.577 92.3803 126.663 91.6174 126.67C91.6779 125.388 91.4536 123.765 91.8857 122.628L92.4904 122.422Z" fill="#6FB4E3"/>
<path d="M127.431 85.92C128.973 85.8887 130.515 85.8739 132.056 85.8753C132.313 87.282 132.091 89.6836 132.133 91.2107C132.149 92.7589 132.202 94.4011 132.05 95.9345C132.073 96.6494 132.076 97.7762 132.168 98.4527L132.19 101.181C130.631 101.149 129.071 101.201 127.517 101.336C127.518 102.289 127.611 107.564 127.367 108.064C127.247 107.472 127.306 102.193 127.308 101.342L122.181 101.384L122.155 98.9057C123.974 98.915 125.282 98.8878 127.116 98.7447C127.06 95.3889 127.005 92.0299 127.29 88.6848C118.919 88.8006 110.306 88.7012 101.915 88.7056L101.929 91.1911C100.252 91.2344 98.4606 91.1878 96.7753 91.1735C96.7389 90.38 96.7535 89.503 96.7498 88.7021L101.872 88.6887L101.946 86.1967C107.56 86.0974 113.306 86.279 118.926 86.2032C120.776 86.1782 125.883 86.338 127.296 85.9235L127.431 85.92Z" fill="#5C9BCD"/>
<path d="M127.255 91.1519L131.993 91.2231C131.983 92.7807 131.949 94.3836 132.05 95.9345C132.073 96.6494 132.076 97.7762 132.168 98.4527L132.19 101.181C130.631 101.149 129.071 101.201 127.517 101.336C127.518 102.289 127.611 107.564 127.367 108.064C127.247 107.472 127.306 102.193 127.308 101.342L127.255 91.1519Z" fill="#6FB4E3"/>
<path d="M127.431 85.92C128.973 85.8887 130.515 85.8739 132.056 85.8753C131.962 86.5101 131.989 88.2188 131.986 88.9397C130.349 88.5798 128.959 88.6649 127.303 88.6795C127.301 87.6456 127.295 86.955 127.431 85.92Z" fill="#6FB4E3"/>
<path d="M25.8367 40.373C27.6078 40.3592 29.5429 40.2686 31.2853 40.285C31.1873 43.6955 31.108 47.1064 31.0479 50.5177C29.3987 50.6514 27.6799 50.6326 26.0209 50.6419L26.0139 53.1211L30.9821 53.1706C31.0355 54.8944 30.9348 56.5502 30.9703 58.2179L31.0598 58.2592C30.8697 59.0596 30.9212 59.8813 30.932 60.7053L30.8239 60.7254C31.0478 61.596 30.8316 64.8001 30.788 65.8652C31.953 65.7545 32.4614 65.7735 33.624 65.8446C32.587 65.9421 31.8549 65.9726 30.814 65.9754C30.8019 66.6366 30.7314 67.8562 30.8803 68.4535L30.7682 68.4821C29.2887 68.4069 27.478 68.4324 25.9708 68.4114C25.7957 67.3038 25.8771 61.1689 25.875 59.7571L25.8367 40.373Z" fill="#3567A8"/>
<path d="M30.788 65.8652C31.953 65.7545 32.4614 65.7735 33.624 65.8446C32.587 65.9421 31.8549 65.9726 30.814 65.9754C30.8019 66.6366 30.7314 67.8562 30.8803 68.4535L30.7682 68.4821C29.2887 68.4069 27.478 68.4324 25.9708 68.4114C26.0351 67.771 26.0219 66.6302 26.0356 65.9511C27.404 65.9621 29.4896 66.0394 30.788 65.8652Z" fill="#5C9BCD"/>
<path d="M30.9703 58.2179L31.0598 58.2592C30.8697 59.0596 30.9212 59.8813 30.932 60.7053L30.8239 60.7254L26.0219 60.7592L26.0298 58.2545C27.6768 58.2654 29.3237 58.2532 30.9703 58.2179Z" fill="#4285C9"/>
<path d="M104.404 20.2386L107.122 20.2671L107.059 20.433L107.046 21.3563L106.937 30.5457C105.99 30.5599 105.319 30.5306 104.394 30.7889L104.292 30.8704C103.737 30.7201 102.898 30.6092 102.335 30.7639C100.758 32.5738 104.57 35.4712 99.359 35.3728C99.3509 33.7671 99.2848 32.1154 99.2403 30.5066C97.5657 30.4656 95.8923 30.3905 94.2209 30.2812L94.2341 25.1192C95.7886 25.0208 97.7434 25.0403 99.3298 25.0113C99.3575 23.7691 98.971 21.5187 99.5384 20.5494C99.6589 20.3436 100.257 20.3091 100.566 20.2537L101.738 20.2372L104.404 20.2386Z" fill="#5C9BCD"/>
<path d="M104.404 20.2386L107.122 20.2671L107.059 20.433L107.046 21.3563L106.937 30.5457C105.99 30.5599 105.319 30.5306 104.394 30.7889C104.454 29.0119 104.404 26.9037 104.405 25.1019L104.404 20.2386Z" fill="#4285C9"/>
<path d="M104.404 20.2386L107.122 20.2671L107.059 20.433C106.743 21.1933 106.853 24.1399 106.862 25.1264C106.201 25.1232 105.025 25.1554 104.405 25.1019L104.404 20.2386Z" fill="#2D5B9F"/>
<path d="M101.738 20.2372L104.404 20.2386L104.405 25.1019C103.682 25.0091 102.443 25.0919 101.677 25.1192C101.735 23.9552 101.911 21.2296 101.738 20.2372Z" fill="#4285C9"/>
<path d="M137.529 48.1937C138.774 48.1525 141.471 48.3424 142.21 47.6638L142.189 50.631L142.235 53.1558L137.428 53.1842L137.431 55.775C132.503 55.8906 127.126 55.766 122.164 55.7477L122.183 53.1523L117.079 53.1566L117.084 50.7109C118.241 50.4918 120.884 50.5409 122.154 50.5392C124.699 50.6228 127.776 50.5205 130.211 50.6567C130.813 50.5812 131.986 50.5898 132.632 50.5749C134.111 50.5004 135.933 50.5323 137.439 50.5164C137.557 49.9351 137.526 48.8273 137.529 48.1937Z" fill="#3567A8"/>
<path d="M137.529 48.1937C138.774 48.1525 141.471 48.3424 142.21 47.6638L142.189 50.631L142.235 53.1558L137.428 53.1842C137.145 53.6865 137.254 54.9395 137.263 55.5888C135.803 55.6673 133.942 55.6171 132.453 55.6185C132.399 54.0135 132.485 52.3331 132.541 50.7224C131.719 50.7511 131.027 50.7051 130.211 50.6567C130.813 50.5812 131.986 50.5898 132.632 50.5749C134.111 50.5004 135.933 50.5323 137.439 50.5164C137.557 49.9351 137.526 48.8273 137.529 48.1937Z" fill="#2D5B9F"/>
<path d="M137.529 48.1937C138.774 48.1525 141.471 48.3424 142.21 47.6638L142.189 50.631C138.973 50.6351 135.756 50.6656 132.541 50.7224C131.719 50.7511 131.027 50.7051 130.211 50.6567C130.813 50.5812 131.986 50.5898 132.632 50.5749C134.111 50.5004 135.933 50.5323 137.439 50.5164C137.557 49.9351 137.526 48.8273 137.529 48.1937Z" fill="#4679B1"/>
<path d="M137.428 53.1842L142.235 53.1558C142.187 55.047 142.038 57.0319 142.014 58.8888C142.023 61.1467 141.991 63.5766 142.085 65.8195L142.056 68.5296C140.545 68.4169 138.869 68.4551 137.341 68.458L137.336 65.9765L136.996 65.9696C136.022 65.794 133.462 65.829 132.36 65.8176L132.357 60.7283C133.112 60.5901 136.357 60.6469 137.299 60.6466C137.247 59.2552 137.383 57.2207 137.431 55.775L137.428 53.1842Z" fill="#3567A8"/>
<path d="M137.428 53.1842L142.235 53.1558C142.187 55.047 142.038 57.0319 142.014 58.8888C141.953 59.4201 141.923 60.3212 141.624 60.7015C140.374 60.9328 133.504 60.9403 132.357 60.7283C133.112 60.5901 136.357 60.6469 137.299 60.6466C137.247 59.2552 137.383 57.2207 137.431 55.775L137.428 53.1842Z" fill="#4679B1"/>
<path d="M137.336 65.9765C138.823 65.9503 140.632 65.9645 142.085 65.8195L142.056 68.5296C140.545 68.4169 138.869 68.4551 137.341 68.458L137.336 65.9765Z" fill="#4679B1"/>
<path d="M56.3756 70.9232L58.8982 70.9631C58.8644 71.7584 58.8425 72.5885 58.7918 73.3794L61.3844 73.4094C61.3412 79.3199 61.3345 85.2307 61.3647 91.1414C59.7179 91.212 58.0303 91.3048 56.3863 91.3455L56.3756 70.9232Z" fill="#5C9BCD"/>
<path d="M112.078 93.8005L122.158 93.8169L122.155 98.9057C117.12 98.7752 112.088 98.9081 107.061 98.824L106.994 101.38L99.3303 101.39L99.3105 98.7867C101.541 98.943 104.741 98.8127 106.986 98.7534L107.036 96.2848L112.061 96.2721L112.078 93.8005Z" fill="#5C9BCD"/>
<path d="M31.0259 106.473L41.1487 106.46L41.1372 111.54C38.5603 111.589 33.2452 111.799 30.9 111.573C30.6924 110.011 30.7565 108.024 31.0259 106.473Z" fill="#5C9BCD"/>
<path d="M117.089 65.8654C120.758 66.0148 124.771 65.867 128.48 65.8945C131.136 65.9142 134.44 66.1206 136.996 65.9696L137.336 65.9765L137.341 68.458C135.655 68.458 133.969 68.4493 132.283 68.4319L117.069 68.4585L117.089 65.8654Z" fill="#5C9BCD"/>
<path d="M91.6833 20.4013L94.2283 20.3946L94.2341 25.1192L94.2209 30.2812C94.2225 33.6333 94.1777 37.1342 94.2271 40.4759C93.4768 40.4763 92.6056 40.6951 91.9583 40.3742C91.6076 39.7723 91.7317 39.7171 91.7269 38.914C91.9556 36.2122 91.7014 31.8612 91.7162 29.0383C91.7292 26.5371 91.8834 22.7867 91.6833 20.4013Z" fill="#5C9BCD"/>
<path d="M69.8532 121.936C72.0634 121.972 74.2742 121.981 76.4848 121.964L76.466 126.702C74.6762 126.693 68.2055 126.549 66.7545 126.761C66.8041 125.194 66.7904 123.519 66.806 121.943C67.8217 121.952 68.8375 121.95 69.8532 121.936Z" fill="#7FC4ED"/>
<path d="M31.0988 31.643C31.1205 34.9687 31.5598 36.3315 31.2853 40.285C29.5429 40.2686 27.6078 40.3592 25.8367 40.373L25.8414 35.5527C27.0218 35.551 28.595 35.4138 29.8018 35.3432C30.8455 33.789 30.8416 33.4568 31.0988 31.643Z" fill="#4679B1"/>
<path d="M112.005 60.8551C112.96 60.6277 115.908 60.7377 117.055 60.7558L117.089 65.8654C115.424 65.9202 113.687 65.8515 112.015 65.8114C112.002 64.1593 111.998 62.5071 112.005 60.8551Z" fill="#5C9BCD"/>
<path d="M61.7771 122.522C63.9024 121.693 67.631 121.594 69.8532 121.936C68.8375 121.95 67.8217 121.952 66.806 121.943C66.7904 123.519 66.8041 125.194 66.7545 126.761C65.439 126.85 62.8593 126.773 61.4554 126.77C61.4957 125.146 61.5187 124.113 61.7771 122.522Z" fill="#5C9BCD"/>
<path d="M112.012 45.586C113.697 45.6094 115.382 45.621 117.067 45.6208L117.092 47.9375C117.099 48.7425 117.246 49.8827 116.792 50.4587C116.384 50.5897 116.254 50.6259 115.829 50.6731C115.128 50.5918 112.859 50.6477 112.042 50.6475C112.014 48.9743 112.022 47.2624 112.012 45.586Z" fill="#3567A8"/>
<path d="M104.394 30.7889C105.319 30.5306 105.99 30.5599 106.937 30.5457L106.99 35.543C107 37.179 106.989 38.8151 106.958 40.4509L104.434 40.5229C104.44 37.3644 104.511 33.924 104.394 30.7889Z" fill="#3567A8"/>
<path d="M41.1228 55.766L46.2002 55.7822L46.2159 60.7333L44.2686 60.7419C43.4211 60.7444 42.0216 60.9089 41.4969 60.3866C41.5343 59.2903 41.3499 57.4737 40.7199 56.5487C40.3961 56.0732 40.1002 56.1309 39.5352 56.019L39.4686 55.9538C39.7087 55.7246 40.6916 55.7803 41.1228 55.766Z" fill="#3567A8"/>
<path d="M109.645 40.4817L111.331 40.5614L111.822 40.7643C112.176 41.7015 111.936 44.4417 112.012 45.586L106.925 45.5496C107.081 44.1619 107.019 41.9456 107.02 40.491L109.645 40.4817Z" fill="#2D5B9F"/>
<path d="M127.51 81.6583C129.237 81.1414 130.239 80.9843 132.026 80.9527L132.056 85.8753C130.515 85.8739 128.973 85.8887 127.431 85.92L127.296 85.9235C127.228 84.4982 127.3 83.0696 127.51 81.6583Z" fill="#5C9BCD"/>
<path d="M43.2344 35.5925C43.0601 34.2363 41.6034 32.0588 42.2609 30.8776C43.0113 30.1947 46.2234 30.2607 47.388 30.2755L47.4145 30.3652C47.1224 30.3974 46.6288 30.3867 46.5762 30.5788C45.9888 32.7305 46.5427 33.3681 45.4832 35.5195C44.8762 35.548 43.8051 35.6302 43.2344 35.5925Z" fill="#5C9BCD"/>
<path d="M81.5627 103.914C82.3566 103.922 83.2622 103.954 84.0454 103.933C84.0667 106.477 84.0607 109.02 84.0275 111.563L81.5957 111.58C81.5787 109.055 81.5252 106.431 81.5627 103.914Z" fill="#5C9BCD"/>
<path d="M36.0781 53.1395L41.185 53.1424L41.1228 55.766C40.6916 55.7803 39.7087 55.7246 39.4686 55.9538L39.5352 56.019C38.928 56.2673 36.7851 56.0748 36.0591 56.0338C36.1066 55.2006 36.0753 54.0007 36.0781 53.1395Z" fill="#5C9BCD"/>
<path d="M94.2271 40.4759L96.6922 40.535C96.7871 42.3097 96.8079 43.81 96.8001 45.5763L94.2262 45.5411L94.2271 40.4759Z" fill="#5C9BCD"/>
<path d="M31.093 50.6196C32.6428 50.6276 34.5536 50.6865 36.0684 50.5528L36.0781 53.1395C34.412 53.1432 32.7456 53.1376 31.0795 53.1228C31.0155 52.7769 31.0826 51.0714 31.093 50.6196Z" fill="#5C9BCD"/>
<path d="M46.2002 55.7822L48.7158 55.7829L48.7568 60.7414L46.2159 60.7333L46.2002 55.7822Z" fill="#5C9BCD"/>
<path d="M51.2998 62.3695C51.3504 61.4973 51.2115 61.4172 51.6445 60.8216C52.1952 60.5976 53.1698 60.7215 53.7995 60.756C53.7971 62.424 53.8141 64.1352 53.7891 65.7988C53.1217 65.8101 51.9374 65.7943 51.3226 65.905L51.2998 62.3695Z" fill="#5C9BCD"/>
<path d="M96.8001 45.5763L99.3155 45.5883C99.3264 46.8748 99.411 49.2041 99.2457 50.3989L99.0175 50.6041C98.3495 50.5275 97.4927 50.5923 96.8063 50.6213L96.8001 45.5763Z" fill="#5C9BCD"/>
<path d="M94.2288 104.008L96.7435 103.916C96.7477 104.604 96.7191 105.835 96.8154 106.472L94.2191 106.481L94.2288 104.008Z" fill="#5C9BCD"/>
<path d="M99.3303 101.39C99.3347 102.017 99.4284 103.378 99.1719 103.861C98.4839 103.811 97.4752 103.85 96.7618 103.856L96.7479 101.459L99.3303 101.39Z" fill="#5C9BCD"/>
<path d="M91.6516 91.2398C92.444 91.2339 96.1879 91.1661 96.7464 91.2944L96.7843 93.8053L94.2216 93.7991L94.2266 96.2725L91.632 96.2681C91.6667 97.0523 91.6849 97.9339 91.7533 98.7074L89.1504 98.7728L89.1479 101.353L86.6403 101.379C86.6415 99.7005 86.6216 97.9772 86.6534 96.3024L89.1615 96.2864L89.1456 93.8178L91.6243 93.7794L91.6516 91.2398Z" fill="#5C9BCD"/>
<path d="M99.2795 50.7062C101.035 50.6319 102.679 50.6546 104.432 50.6773C104.431 51.8774 104.496 54.621 104.332 55.6915L101.846 55.7477L101.819 53.1484L99.3197 53.1565C99.3329 52.3447 99.3011 51.5188 99.2795 50.7062Z" fill="#5C9BCD"/>
<path d="M104.405 55.77C105.21 55.7728 106.036 55.7657 106.84 55.7874C106.925 56.6137 107.031 57.4385 107.014 58.2687L111.964 58.2673C111.951 59.0332 111.964 59.9971 111.917 60.744C110.917 60.6395 108.149 60.7227 107.02 60.7254L107.019 58.2502L104.413 58.2884L104.405 55.77Z" fill="#5C9BCD"/>
<path d="M84.0617 101.436L86.6403 101.379C86.6522 102.162 86.5618 103.188 86.5144 103.988L84.0754 103.893L84.0617 101.436Z" fill="#5C9BCD"/>
<path d="M152.583 9.93649L152.721 9.96232C154.232 10.2327 156.736 9.65231 157.582 10.3483C157.718 10.8031 157.714 10.8815 157.696 11.3579C158.236 13.6597 158.961 14.7311 161.335 15.282C163.119 15.6957 161.768 18.6859 163.154 19.9626C164.902 20.402 165.731 20.1206 167.495 20.8089C168.264 29.7669 167.952 37.421 167.854 46.3365C167.776 55.6203 167.746 64.9044 167.761 74.1884L167.686 135.131C167.687 140.084 167.663 145.044 167.717 149.996C167.773 155.132 168.209 160.3 167.631 165.424C167.398 167.486 165.486 167.32 163.943 167.357L163.103 167.373C161.895 169.628 162.739 172.105 160.939 172.385C157.693 172.89 152.866 172.645 149.589 172.6L136.511 172.485L76.1539 172.469C66.0025 172.491 55.687 173.107 45.538 172.984C42.8329 172.951 33.8841 172.776 31.6155 172.172C31.3579 170.962 31.1204 167.934 30.4997 167.297C29.1584 166.923 26.8179 167.752 26.3635 166.47C25.089 162.876 27.9644 162.23 22.0839 162.252C20.9282 160.418 20.7844 159.545 20.7107 157.345C19.1662 157.249 17.9946 157.182 16.4851 156.834C16.4182 154.985 16.4312 153.982 15.4369 152.331C14.692 152.287 12.9458 152.239 12.318 151.966C8.9416 150.498 12.5304 147.941 8.04 147.169L7.89342 147.144L5.95674 147.156C5.88646 146.544 5.85585 145.864 5.81526 145.243C5.56411 142.875 5.26737 142.566 2.95297 142.02L0.550234 141.884C0.536399 140.312 0.60204 134.786 0 133.507V126.795C1.08983 123.065 0.283993 121.751 4.78542 121.578L5.4188 121.541C6.30258 117.263 5.36999 116.754 10.3855 116.551L10.422 116.679C10.7419 117.394 10.51 122.826 10.7415 124.467C11.3928 120.237 18.2305 121.963 21.0887 122.349L21.1814 122.13C21.7725 122.082 24.0425 121.938 24.4743 121.833C25.0642 121.594 25.1846 121.956 25.7604 121.485C25.9641 118.361 26.3593 114.666 26.0283 111.617L30.7887 111.605C31.055 112.828 30.6256 115.145 31.3755 115.928C32.8877 116.798 35.9166 116.083 36.3573 117.623C36.6647 118.697 36.0674 120.696 36.9775 121.576C37.655 121.894 39.8307 121.82 41.2912 122.231C41.316 123.58 41.3197 124.988 41.4375 126.326C47.4271 128.148 55.1593 127.189 61.4554 126.77C62.8593 126.773 65.439 126.85 66.7545 126.761C68.8916 126.96 74.2251 126.949 76.496 126.862L81.5546 126.863L84.1997 126.9L91.6275 126.858L94.2221 126.842L94.3774 126.88L96.7609 126.89L101.939 126.878L101.975 129.19L101.947 131.798L101.831 131.81C102.05 133.185 101.977 135.315 101.972 136.777C107.251 137.157 107.177 136.902 107.099 142.217C107.628 142.222 109.656 142.278 110.072 142.227C112.733 143.543 113.018 145.37 110.526 147.062L109.913 147.27C110.388 147.562 110.873 147.881 111.379 148.109C112.131 149.415 112.288 149.8 112.521 151.351C112.661 151.501 112.803 151.647 112.961 151.78C114 152.654 125.263 152.281 127.224 152.09L127.36 149.74C129.004 149.717 130.692 149.633 132.338 149.571C132.265 148.849 132.128 147.101 132.528 146.496C134.101 146.757 135.834 147.083 137.408 147.227L137.643 146.937L139.622 147.006C140.132 147.33 146.822 146.98 147.625 146.834C147.675 145.529 147.674 143.565 147.524 142.316L147.485 136.961C149.429 137.013 150.667 137.101 152.456 136.249C152.437 134.146 152.635 131.288 152.706 129.122C152.796 125.675 152.84 122.227 152.84 118.779L152.718 62.9938L152.626 43.7964C152.606 38.3074 152.673 32.9393 152.392 27.4508C152.668 22.101 152.499 15.4693 152.528 10.0343L152.583 9.93649Z" fill="#A29FA4"/>
<path d="M26.0283 111.617L30.7887 111.605C31.055 112.828 30.6256 115.145 31.3755 115.928C32.8877 116.798 35.9166 116.083 36.3573 117.623C36.6647 118.697 36.0674 120.696 36.9775 121.576C37.655 121.894 39.8307 121.82 41.2912 122.231C41.316 123.58 41.3197 124.988 41.4375 126.326C47.4271 128.148 55.1593 127.189 61.4554 126.77C62.8593 126.773 65.439 126.85 66.7545 126.761C68.8916 126.96 74.2251 126.949 76.496 126.862L81.5546 126.863L84.1997 126.9L91.6275 126.858L94.2221 126.842L94.3774 126.88L96.7609 126.89L101.939 126.878L101.975 129.19L101.947 131.798L101.831 131.81C102.05 133.185 101.977 135.315 101.972 136.777C107.251 137.157 107.177 136.902 107.099 142.217C107.628 142.222 109.656 142.278 110.072 142.227C112.733 143.543 113.018 145.37 110.526 147.062L109.913 147.27C108.466 147.364 104.975 147.157 103.396 147.109C99.5444 146.974 95.6911 146.91 91.8374 146.915C75.8192 146.891 59.8009 146.964 43.7834 147.134C39.123 147.153 34.4626 147.144 29.8023 147.106C27.1904 147.071 23.4997 146.879 20.9688 147.031C20.7216 147.1 20.3089 147.231 20.0668 147.255C21.8363 149.114 21.8915 150.192 20.1895 152.091C18.137 153.053 16.7121 152.581 15.7374 150.474C15.5666 149.49 15.9314 148.702 15.5937 147.763C15.0234 147.204 15.133 147.367 14.2158 147.197C12.622 147.047 9.45556 147.045 7.89342 147.144L5.95674 147.156C5.88646 146.544 5.85585 145.864 5.81526 145.243C5.56411 142.875 5.26737 142.566 2.95297 142.02L0.550234 141.884C0.536399 140.312 0.60204 134.786 0 133.507V126.795C1.08983 123.065 0.283993 121.751 4.78542 121.578L5.4188 121.541C6.30258 117.263 5.36999 116.754 10.3855 116.551L10.422 116.679C10.7419 117.394 10.51 122.826 10.7415 124.467C11.3928 120.237 18.2305 121.963 21.0887 122.349L21.1814 122.13C21.7725 122.082 24.0425 121.938 24.4743 121.833C25.0642 121.594 25.1846 121.956 25.7604 121.485C25.9641 118.361 26.3593 114.666 26.0283 111.617Z" fill="#5C9BCD"/>
<path d="M26.0283 111.617L30.7887 111.605C31.055 112.828 30.6256 115.145 31.3755 115.928C32.8877 116.798 35.9166 116.083 36.3573 117.623C36.6647 118.697 36.0674 120.696 36.9775 121.576C37.655 121.894 39.8307 121.82 41.2912 122.231C41.316 123.58 41.3197 124.988 41.4375 126.326C47.4271 128.148 55.1593 127.189 61.4554 126.77C62.8593 126.773 65.439 126.85 66.7545 126.761C68.8916 126.96 74.2251 126.949 76.496 126.862C76.4853 129.63 76.3164 134.296 76.4981 136.91C68.1104 136.811 59.7221 136.786 51.3341 136.835C48.1612 136.855 44.426 137.139 41.3929 137.069L41.2805 139.216C41.1982 138.707 41.1736 137.701 41.1441 137.15C37.7283 136.843 34.5097 136.817 31.0913 136.761L31.1252 134.889C30.852 134.424 30.6201 133.537 30.4531 132.987C29.464 132.356 29.1737 132.192 28.068 131.775C27.5955 131.835 26.5335 131.809 26.0149 131.81C26.0344 128.886 26.1262 125.05 25.518 122.244C25.2072 121.865 25.0639 121.951 24.4743 121.833C25.0642 121.594 25.1846 121.956 25.7604 121.485C25.9641 118.361 26.3593 114.666 26.0283 111.617Z" fill="#3567A8"/>
<path d="M31.1252 134.889C32.0829 129.926 37.8663 130.058 41.0536 133.396C41.2826 134.438 41.5275 136.012 41.3929 137.069L41.2805 139.216C41.1982 138.707 41.1736 137.701 41.1441 137.15C37.7283 136.843 34.5097 136.817 31.0913 136.761L31.1252 134.889Z" fill="#2A4A79"/>
<path d="M24.4743 121.833C25.0642 121.594 25.1846 121.956 25.7604 121.485C27.3205 122.372 29.7656 120.044 31.1913 124.107C31.8152 125.862 31.7071 127.793 30.8916 129.467C30.4582 130.341 29.8323 131.251 28.8728 131.561C28.6079 131.644 28.3393 131.716 28.068 131.775C27.5955 131.835 26.5335 131.809 26.0149 131.81C26.0344 128.886 26.1262 125.05 25.518 122.244C25.2072 121.865 25.0639 121.951 24.4743 121.833Z" fill="#2A4A79"/>
<path d="M84.1997 126.9L91.6275 126.858L94.2221 126.842L94.3774 126.88L96.7609 126.89L101.939 126.878L101.975 129.19L101.947 131.798L101.831 131.81C102.05 133.185 101.977 135.315 101.972 136.777C107.251 137.157 107.177 136.902 107.099 142.217C85.726 142.069 64.3523 142.074 42.9795 142.23C41.4979 141.284 41.2953 140.988 41.2805 139.216L41.3929 137.069C44.426 137.139 48.1612 136.855 51.3341 136.835C59.7221 136.786 68.1104 136.811 76.4981 136.91C76.3164 134.296 76.4853 129.63 76.496 126.862L81.5546 126.863L84.1997 126.9Z" fill="#2A4A79"/>
<path d="M84.1997 126.9L91.6275 126.858L94.2221 126.842L94.3774 126.88L96.7609 126.89L101.939 126.878L101.975 129.19L101.947 131.798L101.831 131.81C102.05 133.185 101.977 135.315 101.972 136.777C101.521 136.893 97.5358 136.782 96.7595 136.767C92.9702 137.109 90.4653 137.152 86.6589 137.123C85.1049 136.742 82.9822 136.759 81.4152 137.071C79.775 137.06 78.1355 137.006 76.4981 136.91C76.3164 134.296 76.4853 129.63 76.496 126.862L81.5546 126.863L84.1997 126.9Z" fill="#4679B1"/>
<path d="M94.2221 126.842L94.3774 126.88L96.7609 126.89L101.939 126.878L101.975 129.19L101.947 131.798L101.831 131.81C102.05 133.185 101.977 135.315 101.972 136.777C101.521 136.893 97.5358 136.782 96.7595 136.767L96.7534 134.447L94.236 134.453L94.2123 131.97L93.2076 131.972C90.8381 131.965 91.6085 128.6 91.6275 126.858L94.2221 126.842Z" fill="#2D5B9F"/>
<path d="M96.7609 126.89L101.939 126.878L101.975 129.19L101.947 131.798L101.831 131.81L99.319 131.836L99.302 129.466C98.5448 129.379 97.5571 129.368 96.7785 129.338C96.7221 128.501 96.7453 127.725 96.7609 126.89Z" fill="#4285C9"/>
<path d="M76.496 126.862L81.5546 126.863C81.5706 128.185 81.7784 136.433 81.4152 137.071C79.775 137.06 78.1355 137.006 76.4981 136.91C76.3164 134.296 76.4853 129.63 76.496 126.862Z" fill="#4679B1"/>
<path d="M81.5546 126.863L84.1997 126.9C84.1552 128.389 84.0415 130.33 84.0863 131.787C84.8985 131.837 85.8567 131.872 86.6526 131.971C86.6573 133.652 86.6965 135.453 86.6589 137.123C85.1049 136.742 82.9822 136.759 81.4152 137.071C81.7784 136.433 81.5706 128.185 81.5546 126.863Z" fill="#2D5B9F"/>
<path d="M5.4188 121.541C6.30258 117.263 5.36999 116.754 10.3855 116.551L10.422 116.679C10.7419 117.394 10.51 122.826 10.7415 124.467C10.7239 126.347 10.3323 129.826 11.6724 131.015C12.4909 131.741 13.2337 131.681 14.2926 131.787L15.9366 131.825C15.8212 132.959 15.7757 136.129 15.8511 137.304C15.9088 138.904 16.0002 140.609 15.9856 142.201C17.2404 142.251 18.5126 142.289 19.7622 142.396L20.8637 143.261L20.9688 147.031C20.7216 147.1 20.3089 147.231 20.0668 147.255C21.8363 149.114 21.8915 150.192 20.1895 152.091C18.137 153.053 16.7121 152.581 15.7374 150.474C15.5666 149.49 15.9314 148.702 15.5937 147.763C15.0234 147.204 15.133 147.367 14.2158 147.197C12.622 147.047 9.45556 147.045 7.89342 147.144L5.95674 147.156C5.88646 146.544 5.85585 145.864 5.81526 145.243C5.56411 142.875 5.26737 142.566 2.95297 142.02L0.550234 141.884C0.536399 140.312 0.60204 134.786 0 133.507V126.795C1.08983 123.065 0.283993 121.751 4.78542 121.578L5.4188 121.541Z" fill="#5C9BCD"/>
<path d="M5.77764 137.404L10.0921 137.43C11.9476 137.417 14.018 137.449 15.8511 137.304C15.9088 138.904 16.0002 140.609 15.9856 142.201C17.2404 142.251 18.5126 142.289 19.7622 142.396L20.8637 143.261L20.9688 147.031C20.7216 147.1 20.3089 147.231 20.0668 147.255C21.8363 149.114 21.8915 150.192 20.1895 152.091C18.137 153.053 16.7121 152.581 15.7374 150.474C15.5666 149.49 15.9314 148.702 15.5937 147.763C15.0234 147.204 15.133 147.367 14.2158 147.197C12.622 147.047 9.45556 147.045 7.89342 147.144L5.95674 147.156C5.88646 146.544 5.85585 145.864 5.81526 145.243C5.56411 142.875 5.26737 142.566 2.95297 142.02C5.95233 141.079 5.76808 140.47 5.77764 137.404Z" fill="#4679B1"/>
<path d="M5.81526 145.243C6.61707 143.914 6.14479 142.55 8.24113 142.068C10.6883 141.506 13.5187 142.061 15.9982 142.281C16.0269 143.452 16.2942 146.054 15.476 146.863C15.0742 147.26 14.7513 147.173 14.2158 147.197C12.622 147.047 9.45556 147.045 7.89342 147.144L5.95674 147.156C5.88646 146.544 5.85585 145.864 5.81526 145.243Z" fill="#2A4A79"/>
<path d="M15.8442 148.315C17.491 146.908 17.9962 146.606 20.0668 147.255C21.8363 149.114 21.8915 150.192 20.1895 152.091C18.137 153.053 16.7121 152.581 15.7374 150.474C15.8302 149.958 15.8287 148.88 15.8442 148.315Z" fill="#2B3F64"/>
<path d="M0 126.795C1.08983 123.065 0.283993 121.751 4.78542 121.578C6.60923 125.826 5.89165 132.719 5.77764 137.404C5.76808 140.47 5.95233 141.079 2.95297 142.02L0.550234 141.884C0.536399 140.312 0.60204 134.786 0 133.507V126.795Z" fill="#2A4A79"/>
<path d="M14.2926 131.787L15.9366 131.825C15.8212 132.959 15.7757 136.129 15.8511 137.304C14.018 137.449 11.9476 137.417 10.0921 137.43C10.2963 135.973 10.5344 134.521 10.806 133.075C12.0995 132.263 12.7199 131.839 14.2926 131.787Z" fill="#4285C9"/>
<path d="M5.4188 121.541C6.30258 117.263 5.36999 116.754 10.3855 116.551L10.422 116.679L10.3917 122.018C8.73868 121.814 7.08042 121.655 5.4188 121.541Z" fill="#2A4A79"/>
<path d="M10.7415 124.467C11.3928 120.237 18.2305 121.963 21.0887 122.349L21.1814 122.13C21.7725 122.082 24.0425 121.938 24.4743 121.833C25.0639 121.951 25.2072 121.865 25.518 122.244C26.1262 125.05 26.0344 128.886 26.0149 131.81C26.0239 132.677 26.1055 136.11 25.8706 136.793C24.2848 136.855 22.6984 136.906 21.1117 136.945C19.438 137.089 17.6731 137.074 15.9869 137.089C16.0012 135.604 16.0915 133.235 15.9366 131.825L14.2926 131.787C13.2337 131.681 12.4909 131.741 11.6724 131.015C10.3323 129.826 10.7239 126.347 10.7415 124.467Z" fill="#7FC4ED"/>
<path d="M24.4743 121.833C25.0639 121.951 25.2072 121.865 25.518 122.244C26.1262 125.05 26.0344 128.886 26.0149 131.81C26.0239 132.677 26.1055 136.11 25.8706 136.793C24.2848 136.855 22.6984 136.906 21.1117 136.945C21.1407 133.771 20.8957 131.231 21.0599 127.873C20.9945 126.276 21.0783 123.996 21.0887 122.349L21.1814 122.13C21.7725 122.082 24.0425 121.938 24.4743 121.833Z" fill="#4285C9"/>
<path d="M21.1117 136.945C21.1407 133.771 20.8957 131.231 21.0599 127.873C21.1534 129.447 21.1347 130.892 21.1186 132.462C22.2943 132.257 24.8793 131.75 26.0149 131.81C26.0239 132.677 26.1055 136.11 25.8706 136.793C24.2848 136.855 22.6984 136.906 21.1117 136.945Z" fill="#5C9BCD"/>
<path d="M31.0913 136.761C34.5097 136.817 37.7283 136.843 41.1441 137.15C41.1736 137.701 41.1982 138.707 41.2805 139.216C41.2953 140.988 41.4979 141.284 42.9795 142.23C39.9766 142.828 33.9454 142.298 30.97 141.739C30.9851 140.079 31.0255 138.42 31.0913 136.761Z" fill="#3567A8"/>
<path d="M26.0149 131.81C26.5335 131.809 27.5955 131.835 28.068 131.775C29.1737 132.192 29.464 132.356 30.4531 132.987C30.6201 133.537 30.852 134.424 31.1252 134.889L31.0913 136.761C31.0255 138.42 30.9851 140.079 30.97 141.739C27.7013 141.531 27.6408 142.431 26.0726 139.299C25.9769 138.428 25.9209 137.663 25.8706 136.793C26.1055 136.11 26.0239 132.677 26.0149 131.81Z" fill="#4285C9"/>
<path d="M21.1117 136.945C22.6984 136.906 24.2848 136.855 25.8706 136.793C25.9209 137.663 25.9769 138.428 26.0726 139.299C25.7387 141.15 24.3763 143.99 22.1695 141.798C20.8835 140.521 21.056 138.625 21.1117 136.945Z" fill="#7FC4ED"/>
<path d="M20.9688 147.031C23.4997 146.879 27.1904 147.071 29.8023 147.106C34.4626 147.144 39.123 147.153 43.7834 147.134C59.8009 146.964 75.8192 146.891 91.8374 146.915C95.6911 146.91 99.5444 146.974 103.396 147.109C104.975 147.157 108.466 147.364 109.913 147.27C110.388 147.562 110.873 147.881 111.379 148.109C112.131 149.415 112.288 149.8 112.521 151.351C112.32 152.66 112.21 153.597 112.129 154.918C112.136 155.664 112.134 156.425 112.15 157.17L47.5003 157.186L28.8759 157.166C27.4689 157.162 22.2772 157.27 21.2602 157.101C20.7795 156.655 20.8645 156.455 20.6682 155.7C20.4553 154.614 20.3184 153.209 20.1895 152.091C21.8915 150.192 21.8363 149.114 20.0668 147.255C20.3089 147.231 20.7216 147.1 20.9688 147.031Z" fill="#3567A8"/>
<path d="M21.7926 152.354L74.5625 152.322C82.8764 152.265 91.1904 152.252 99.5043 152.282C103.092 152.316 106.683 152.376 110.27 152.449C111.988 152.484 111.981 153.577 112.129 154.918C112.136 155.664 112.134 156.425 112.15 157.17L47.5003 157.186L28.8759 157.166C27.4689 157.162 22.2772 157.27 21.2602 157.101C20.7795 156.655 20.8645 156.455 20.6682 155.7C20.8879 154.34 20.9832 153.509 21.7926 152.354Z" fill="#2B3F64"/>
<path d="M152.583 9.93649L152.721 9.96232C154.232 10.2327 156.736 9.65231 157.582 10.3483C157.718 10.8031 157.714 10.8815 157.696 11.3579C157.28 13.7283 157.343 19.0296 157.344 21.5384C157.355 27.6978 157.407 33.8571 157.5 40.016L157.529 112.336C157.55 122.681 158.925 136.825 157.252 146.842C155.668 147.125 154.492 147.25 152.883 147.387C152.589 147.669 152.576 147.677 152.487 148.063C152.4 147.971 152.312 147.881 152.221 147.794C151.054 146.671 149.256 146.921 147.681 146.94L147.625 146.834C147.675 145.529 147.674 143.565 147.524 142.316L147.485 136.961C149.429 137.013 150.667 137.101 152.456 136.249C152.437 134.146 152.635 131.288 152.706 129.122C152.796 125.675 152.84 122.227 152.84 118.779L152.718 62.9938L152.626 43.7964C152.606 38.3074 152.673 32.9393 152.392 27.4508C152.668 22.101 152.499 15.4693 152.528 10.0343L152.583 9.93649Z" fill="#2A4A79"/>
<path d="M152.456 136.249C152.453 138.965 152.33 144.723 152.684 147.2L152.883 147.387C152.589 147.669 152.576 147.677 152.487 148.063C152.4 147.971 152.312 147.881 152.221 147.794C151.054 146.671 149.256 146.921 147.681 146.94L147.625 146.834C147.675 145.529 147.674 143.565 147.524 142.316L147.485 136.961C149.429 137.013 150.667 137.101 152.456 136.249Z" fill="#4679B1"/>
<path d="M132.528 146.496C134.101 146.757 135.834 147.083 137.408 147.227C137.246 149.202 137.39 150.975 137.523 152.945L137.483 157.56C137.469 158.982 137.382 161.1 137.458 162.466L137.366 162.933L137.255 162.593C136.646 162.317 133.18 162.432 132.325 162.436C130.742 162.397 128.933 162.471 127.334 162.499C124.193 162.696 121.177 162.45 118.048 162.229C117.913 160.615 117.759 159.443 117.487 157.846C115.257 157.067 114.545 157.155 112.15 157.17C112.134 156.425 112.136 155.664 112.129 154.918C112.21 153.597 112.32 152.66 112.521 151.351C112.661 151.501 112.803 151.647 112.961 151.78C114 152.654 125.263 152.281 127.224 152.09L127.36 149.74C129.004 149.717 130.692 149.633 132.338 149.571C132.265 148.849 132.128 147.101 132.528 146.496Z" fill="#3567A8"/>
<path d="M132.528 146.496C134.101 146.757 135.834 147.083 137.408 147.227C137.246 149.202 137.39 150.975 137.523 152.945L137.483 157.56C137.469 158.982 137.382 161.1 137.458 162.466L137.366 162.933L137.255 162.593C136.646 162.317 133.18 162.432 132.325 162.436C130.742 162.397 128.933 162.471 127.334 162.499C125.752 162.495 122.25 161.117 121.977 159.383C122.926 156.734 130.325 157.252 132.572 157.312C132.537 155.765 132.567 150.829 132.338 149.571C132.265 148.849 132.128 147.101 132.528 146.496Z" fill="#4679B1"/>
<path d="M132.325 162.436C132.718 157.47 132.476 157.375 137.483 157.56C137.469 158.982 137.382 161.1 137.458 162.466L137.366 162.933L137.255 162.593C136.646 162.317 133.18 162.432 132.325 162.436Z" fill="#3567A8"/>
<path d="M112.15 157.17C114.545 157.155 115.257 157.067 117.487 157.846C117.759 159.443 117.913 160.615 118.048 162.229C121.177 162.45 124.193 162.696 127.334 162.499C128.933 162.471 130.742 162.397 132.325 162.436C133.18 162.432 136.646 162.317 137.255 162.593L137.366 162.933C137.328 164.322 137.282 165.476 137.141 166.856C132.598 168.132 122.023 167.792 117.507 166.542C117.353 165.47 117.181 164.401 116.991 163.334C115.211 162.223 114.156 162.136 112.159 162.062C112.095 160.537 112.146 158.717 112.15 157.17Z" fill="#2A4A79"/>
<path d="M147.625 146.834L147.681 146.94C147.616 148.586 147.476 150.626 147.493 152.245C147.504 153.452 147.679 155.773 146.763 156.561C145.028 158.051 142.156 156.003 142.053 160.497C142.045 160.898 142.046 161.3 142.054 161.701C140.138 162.584 139.552 162.494 137.458 162.466C137.382 161.1 137.469 158.982 137.483 157.56L137.523 152.945C137.39 150.975 137.246 149.202 137.408 147.227L137.643 146.937L139.622 147.006C140.132 147.33 146.822 146.98 147.625 146.834Z" fill="#2A4A79"/>
<path d="M147.625 146.834L147.681 146.94C147.616 148.586 147.476 150.626 147.493 152.245C146.192 152.244 138.337 152.069 137.644 152.523L137.523 152.945C137.39 150.975 137.246 149.202 137.408 147.227L137.643 146.937L139.622 147.006C140.132 147.33 146.822 146.98 147.625 146.834Z" fill="#3567A8"/>
<path d="M147.681 146.94C149.256 146.921 151.054 146.671 152.221 147.794C152.312 147.881 152.4 147.971 152.487 148.063C152.655 149.355 152.583 150.915 152.558 152.239L147.493 152.245C147.476 150.626 147.616 148.586 147.681 146.94Z" fill="#2B3F64"/>
<path d="M150.185 8.62942L152.578 8.56052C152.586 10.0491 152.654 12.0053 152.583 13.4563L152.528 13.5542L148.207 13.5353C147.612 12.3385 147.586 10.9942 147.52 9.68183C148.619 9.06966 148.981 8.98158 150.185 8.62942Z" fill="#2B3F64"/>
</svg>
