<svg width="168" height="173" viewBox="0 0 168 173" fill="none" xmlns="http://www.w3.org/2000/svg">
<path d="M11.0002 5.37636C10.9286 3.50857 10.5764 1.72226 11.5822 0.301664C21.604 -0.17003 139.31 -0.122862 141.148 0.688206C141.964 2.24908 141.675 3.68254 141.581 5.49765L146.568 5.52032C147.815 15.5043 152.468 6.83799 151.959 16.1739C154.513 16.1745 154.607 15.7806 156.522 16.8937C156.732 18.1923 156.796 18.7737 156.835 20.0889C159.437 22.4486 159.979 19.9799 162.362 21.7294C162.394 23.139 162.444 24.3783 162.556 25.7842C165.264 27.4914 165.917 25.3609 167.697 27.168C168.269 33.1101 167.813 45.082 167.816 51.4982L167.838 100.589C167.776 112.935 167.778 125.282 167.846 137.627C167.89 144.166 168.289 155.182 167.595 161.336L166.841 162.225C164.815 162.251 163.75 161.876 162.43 162.903C162.46 164.651 162.521 165.304 162.164 167.042C159.339 168.32 158.764 166.359 156.978 168.155C156.868 170.135 157.196 171.346 156.119 172.535C149.427 173.309 133.347 172.885 126.055 172.877L68.5937 172.793L40.0135 172.85C35.624 172.891 26.0609 173.295 22.0867 172.552C19.5226 168.698 24.6392 168.281 16.3422 167.007C15.7665 165.162 15.8976 164.279 15.9747 162.396C13.7751 162.33 13.0707 162.68 11.4438 161.63C11.0732 159.938 10.8808 158.574 10.6523 156.876L5.80155 156.971L5.40402 153.062C3.90941 151.522 2.90055 151.892 0.302742 151.546L0.292328 58.3463C0.289878 45.6884 -0.459859 23.3706 0.451609 11.5261C2.76336 9.28468 2.76336 11.6695 5.75932 9.51746C5.88734 8.36028 5.91059 7.53451 5.93203 6.36997C7.84746 5.12029 8.08515 5.53992 10.754 5.45048L11.0002 5.37636Z" fill="#9E9B9E"/>
<path d="M62.5466 99.3464C65.0746 98.9512 65.8587 99.6655 67.7312 98.3877L68.0032 95.5103C68.6445 98.0765 68.1729 97.9552 69.8733 99.2998L74.1776 99.9639L74.1538 104.689L73.9087 110.182C74.8992 110.14 76.5697 109.991 77.483 110.156L74.9979 110.397L68.5569 110.181L68.3138 109.827C68.3603 109.01 68.1337 105.785 68.0853 104.808L68.1998 99.8309C66.4271 99.7433 64.342 99.5069 62.5466 99.3464Z" fill="#2F7247"/>
<path d="M68.1998 99.8309L70.1936 100.127C72.6744 103.893 68.4485 109.49 73.9087 110.182C74.8992 110.14 76.5697 109.991 77.483 110.156L74.9979 110.397L68.5569 110.181L68.3138 109.827C68.3603 109.01 68.1337 105.785 68.0853 104.808L68.1998 99.8309Z" fill="#174C37"/>
<path d="M26.6949 130.411L26.9387 130.971L26.7457 135.72C25.0698 136.018 23.1017 136.419 21.4435 136.651L21.5336 131.09C23.8074 131.072 24.5209 131.151 26.6949 130.411Z" fill="#331F1A"/>
<path d="M11.0002 5.37636C10.9286 3.50857 10.5764 1.72226 11.5822 0.301664C21.604 -0.17003 139.31 -0.122862 141.148 0.688206C141.964 2.24908 141.675 3.68254 141.581 5.49765L146.568 5.52032C146.416 7.10447 146.124 9.07639 146.335 10.6103L141.597 10.7567L141.547 15.2537C138.989 15.2427 139.274 15.5986 137.248 14.4813L136.555 11.1347C133.103 9.46294 114.636 10.5135 110.121 11.0171L101.289 11.1139C97.5187 13.6151 97.7546 11.0483 92.5277 15.9386L89.0784 16.452L89.0491 21.0054C86.1854 21.0795 86.0255 20.579 84.3012 22.0437C84.167 23.2437 84.025 24.317 84.0054 25.5244L83.7076 26.0727L79.4952 26.4801C79.0909 29.6496 79.6416 29.6472 77.8095 31.3986L76.6303 32.307C76.4067 34.6459 76.1666 40.5102 75.6288 42.3357C74.7976 42.4478 72.5367 42.6604 71.9259 42.982L71.6185 49.2304C72.6053 52.6407 72.0417 50.2792 74.4251 52.5874L74.057 57.6982L74.1825 58.3084C74.1997 61.7248 74.4521 69.2235 74.1568 72.3152L74.2407 89.4224C74.2242 92.7181 74.3075 96.7269 74.1776 99.9639L69.8733 99.2998C68.1729 97.9552 68.6445 98.0765 68.0032 95.5103L67.7312 98.3877C65.8587 99.6655 65.0746 98.9512 62.5466 99.3464C64.342 99.5069 66.4271 99.7433 68.1998 99.8309L68.0853 104.808C68.1337 105.785 68.3603 109.01 68.3138 109.827L68.5569 110.181L74.9979 110.397L77.483 110.156L79.0554 110.085L79.2097 114.536L79.3653 115.09C78.2866 123.383 75.7017 120.148 68.5759 120.792L67.934 120.748C66.3689 120.566 64.4217 120.63 62.818 120.628L62.6158 125.653L58.0321 125.68L57.6426 125.686L57.7761 131.022C57.7608 133.914 58.2263 133.661 56.8052 135.58C53.9961 136.919 49.7468 135.931 46.259 136.102L36.8344 136.047L36.8981 130.969L31.7276 131.076L26.9387 130.971L26.6949 130.411C24.5209 131.151 23.8074 131.072 21.5336 131.09L17.8314 130.832C17.0381 129.894 17.4663 130.313 16.0868 129.778C15.6274 130.595 14.8023 131.14 13.8712 131.241C12.9395 131.343 12.0165 130.988 11.3929 130.288L10.8814 133.095L10.5531 136.506C10.5708 138.81 10.9892 139.241 9.84805 140.797C8.18499 141.164 7.76663 141.181 6.06007 141.162L5.57981 141.042C5.66189 144.046 6.31246 148.419 4.9085 150.613C3.43962 151.562 2.0926 151.436 0.302742 151.546L0.292328 58.3463C0.289878 45.6884 -0.459859 23.3706 0.451609 11.5261C2.76336 9.28468 2.76336 11.6695 5.75932 9.51746C5.88734 8.36028 5.91059 7.53451 5.93203 6.36997C7.84746 5.12029 8.08515 5.53992 10.754 5.45048L11.0002 5.37636Z" fill="#F0C07C"/>
<path d="M11.0002 5.37636C10.9286 3.50857 10.5764 1.72226 11.5822 0.301664C21.604 -0.17003 139.31 -0.122862 141.148 0.688206C141.964 2.24908 141.675 3.68254 141.581 5.49765L146.568 5.52032C146.416 7.10447 146.124 9.07639 146.335 10.6103L141.597 10.7567L141.547 15.2537C138.989 15.2427 139.274 15.5986 137.248 14.4813L136.555 11.1347C133.103 9.46294 114.636 10.5135 110.121 11.0171L101.289 11.1139C94.6091 10.1656 18.9407 9.99896 16.5364 11.229C15.7812 14.439 16.8262 14.4886 14.9867 15.8204C12.7969 15.9484 12.3877 15.5686 11.0811 16.8159C10.3675 28.482 10.3387 128.165 11.0958 129.893C11.1834 130.033 11.2826 130.165 11.3929 130.288L10.8814 133.095L10.5531 136.506C10.5708 138.81 10.9892 139.241 9.84805 140.797C8.18499 141.164 7.76663 141.181 6.06007 141.162L5.57981 141.042C5.66189 144.046 6.31246 148.419 4.9085 150.613C3.43962 151.562 2.0926 151.436 0.302742 151.546L0.292328 58.3463C0.289878 45.6884 -0.459859 23.3706 0.451609 11.5261C2.76336 9.28468 2.76336 11.6695 5.75932 9.51746C5.88734 8.36028 5.91059 7.53451 5.93203 6.36997C7.84746 5.12029 8.08515 5.53992 10.754 5.45048L11.0002 5.37636Z" fill="#F6D9A5"/>
<path d="M10.754 5.45048C10.8287 8.28432 11.331 8.49076 9.9963 10.3255L6.15747 11.2462C5.28092 13.4662 5.28214 112.425 5.67478 121.866C6.09867 126.811 5.00465 133.669 7.41195 136.411L10.5531 136.506C10.5708 138.81 10.9892 139.241 9.84805 140.797C8.18499 141.164 7.76663 141.181 6.06007 141.162L5.57981 141.042C5.66189 144.046 6.31246 148.419 4.9085 150.613C3.43962 151.562 2.0926 151.436 0.302742 151.546L0.292328 58.3463C0.289878 45.6884 -0.459859 23.3706 0.451609 11.5261C2.76336 9.28468 2.76336 11.6695 5.75932 9.51746C5.88734 8.36028 5.91059 7.53451 5.93203 6.36997C7.84746 5.12029 8.08515 5.53992 10.754 5.45048Z" fill="#693922"/>
<path d="M5.67478 121.866C6.09867 126.811 5.00465 133.669 7.41195 136.411L10.5531 136.506C10.5708 138.81 10.9892 139.241 9.84805 140.797C8.18499 141.164 7.76663 141.181 6.06007 141.162L5.57981 141.042C5.51549 134.566 5.45549 128.351 5.67478 121.866Z" fill="#E6AD7F"/>
<path d="M11.0002 5.37636C10.9286 3.50857 10.5764 1.72226 11.5822 0.301664C21.604 -0.17003 139.31 -0.122862 141.148 0.688206C141.964 2.24908 141.675 3.68254 141.581 5.49765L57.9801 5.52032C42.773 5.52277 26.1074 5.84805 11.0002 5.37636Z" fill="#572E1C"/>
<path d="M141.581 5.49765L146.568 5.52032C146.416 7.10447 146.124 9.07639 146.335 10.6103L141.597 10.7567L141.581 5.49765Z" fill="#693922"/>
<path d="M42.169 114.815C44.852 115.494 45.6856 115.374 48.4654 115.201L52.7018 115.2C54.1278 115.271 55.9899 115.427 57.3712 115.29L58.086 118.353L58.7133 119.783L61.0759 120.366L62.818 120.628L62.6158 125.653L58.0321 125.68L57.6426 125.686L57.7761 131.022C57.7608 133.914 58.2263 133.661 56.8052 135.58C53.9961 136.919 49.7468 135.931 46.259 136.102L36.8344 136.047L36.8981 130.969L31.7276 131.076L26.9387 130.971L26.6949 130.411C24.5209 131.151 23.8074 131.072 21.5336 131.09L17.8314 130.832C17.0381 129.894 17.4663 130.313 16.0868 129.778C16.5346 128.98 16.5805 128.019 16.2099 127.182C15.8393 126.346 15.0963 125.733 14.2051 125.528C15.3156 123.946 15.3781 122.542 15.7138 120.62L10.9243 120.526C10.9402 118.609 10.7956 116.843 11.8504 115.438C17.9097 114.671 34.5918 115.209 41.8934 115.14L42.169 114.815Z" fill="#693922"/>
<path d="M15.7138 120.62C20.1216 120.53 34.2304 119.529 36.7682 121.872C37.1308 123.365 37.0622 124.396 36.1949 125.722C36.4932 126.646 36.805 127.483 36.9857 128.435L36.8981 130.969L31.7276 131.076L26.9387 130.971L26.6949 130.411C24.5209 131.151 23.8074 131.072 21.5336 131.09L17.8314 130.832C17.0381 129.894 17.4663 130.313 16.0868 129.778C16.5346 128.98 16.5805 128.019 16.2099 127.182C15.8393 126.346 15.0963 125.733 14.2051 125.528C15.3156 123.946 15.3781 122.542 15.7138 120.62Z" fill="#B3754D"/>
<path d="M26.6949 130.411C26.5087 128.76 26.1858 127.784 27.0281 126.408C29.1622 124.962 33.3478 125.624 36.1949 125.722C36.4932 126.646 36.805 127.483 36.9857 128.435L36.8981 130.969L31.7276 131.076L26.9387 130.971L26.6949 130.411Z" fill="#412117"/>
<path d="M37.5694 125.746L57.6426 125.686L57.7761 131.022C57.7608 133.914 58.2263 133.661 56.8052 135.58C53.9961 136.919 49.7468 135.931 46.259 136.102L36.8344 136.047L36.8981 130.969L36.9857 128.435L37.3164 128.571L37.499 126.401L37.5694 125.746Z" fill="#925C41"/>
<path d="M36.8981 130.969C43.8566 131.074 50.8163 131.092 57.7761 131.022C57.7608 133.914 58.2263 133.661 56.8052 135.58C53.9961 136.919 49.7468 135.931 46.259 136.102L36.8344 136.047L36.8981 130.969Z" fill="#201314"/>
<path d="M37.499 126.401C39.7954 126.298 41.837 125.875 43.5344 127.301L43.9105 128.398C42.7191 130.169 43.3408 129.56 41.2441 130.61C39.4383 130.587 39.0603 130.73 37.657 129.754L37.3164 128.571L37.499 126.401Z" fill="#B3754D"/>
<path d="M37.5694 125.746C37.4396 124.107 37.0182 122.084 37.7955 120.799C40.4778 120.681 55.7584 120.543 57.4135 121.252L57.6426 125.686L37.5694 125.746Z" fill="#331F1A"/>
<path d="M52.7018 115.2C54.1278 115.271 55.9899 115.427 57.3712 115.29L58.086 118.353C56.415 121.444 50.9144 120.242 47.3671 120.247C47.3488 117.602 47.0467 116.961 48.4654 115.201L52.7018 115.2Z" fill="#C58453"/>
<path d="M42.169 114.815C44.852 115.494 45.6856 115.374 48.4654 115.201C47.0467 116.961 47.3488 117.602 47.3671 120.247C45.867 120.358 44.9733 120.261 43.4676 120.144C41.984 118.623 42.2903 117.626 41.8934 115.14L42.169 114.815Z" fill="#925C41"/>
<path d="M61.0759 120.366L62.818 120.628L62.6158 125.653L58.0321 125.68C57.9776 123.12 57.5629 122.835 58.6441 120.915L61.0759 120.366Z" fill="#BC7D53"/>
<path d="M53.7811 68.1227L57.5029 68.3193L58.0003 73.5361C60.0939 73.3199 61.0196 73.1888 63.1739 73.4014L64.4718 73.0246L66.0835 73.443L68.914 73.3119C71.4708 73.5073 71.8114 73.3395 74.1568 72.3152L74.2407 89.4224C74.2242 92.7181 74.3075 96.7269 74.1776 99.9639L69.8733 99.2998C68.1729 97.9552 68.6445 98.0765 68.0032 95.5103L67.7312 98.3877C65.8587 99.6655 65.0746 98.9512 62.5466 99.3464C57.5966 99.4683 53.329 99.5706 48.3931 99.2992C46.7246 98.3092 47.4394 96.82 46.7368 94.6006C47.1649 93.7265 47.2581 90.6065 47.3395 89.4536L42.392 89.265L42.2952 88.936C46.5481 88.5102 54.94 90.2267 57.6058 87.3451C57.876 85.1612 58.0438 86.0011 57.0637 84.1406L54.189 83.2665L53.2249 83.4932C52.6473 82.3648 52.6724 82.1032 52.488 80.8112L52.4335 80.4124C50.7122 78.6316 50.9205 79.1928 47.7261 78.9679C46.735 77.3078 46.4771 75.3696 46.0918 73.4681L48.3208 73.4553C47.5312 72.9891 47.236 71.9066 46.8397 70.9988L47.4847 69.4526C49.6935 67.9603 51.1042 68.1625 53.7811 68.1227Z" fill="#4A8F56"/>
<path d="M53.7811 68.1227L57.5029 68.3193L58.0003 73.5361C60.0939 73.3199 61.0196 73.1888 63.1739 73.4014C63.2315 74.5561 63.2596 76.4986 63.5193 77.5547L62.3089 78.6084C59.9714 78.9514 55.4013 79.0611 53.857 80.0522C53.4613 81.9905 53.4527 81.1837 54.189 83.2665L53.2249 83.4932C52.6473 82.3648 52.6724 82.1032 52.488 80.8112L52.4335 80.4124C50.7122 78.6316 50.9205 79.1928 47.7261 78.9679C46.735 77.3078 46.4771 75.3696 46.0918 73.4681L48.3208 73.4553C47.5312 72.9891 47.236 71.9066 46.8397 70.9988L47.4847 69.4526C49.6935 67.9603 51.1042 68.1625 53.7811 68.1227Z" fill="#56A155"/>
<path d="M53.7811 68.1227L57.5029 68.3193L58.0003 73.5361C56.9418 74.9451 56.7892 75.2489 55.1207 75.7274C53.2763 74.9494 53.8901 75.5148 52.94 73.3946L48.3208 73.4553C47.5312 72.9891 47.236 71.9066 46.8397 70.9988L47.4847 69.4526C49.6935 67.9603 51.1042 68.1625 53.7811 68.1227Z" fill="#7FCA5B"/>
<path d="M58.0003 73.5361C60.0939 73.3199 61.0196 73.1888 63.1739 73.4014C63.2315 74.5561 63.2596 76.4986 63.5193 77.5547L62.3089 78.6084C59.4036 78.3995 56.1835 79.172 53.6218 77.9376C52.4023 76.082 52.8481 76.0863 52.94 73.3946C53.8901 75.5148 53.2763 74.9494 55.1207 75.7274C56.7892 75.2489 56.9418 74.9451 58.0003 73.5361Z" fill="#77C35C"/>
<path d="M68.914 73.3119C71.4708 73.5073 71.8114 73.3395 74.1568 72.3152L74.2407 89.4224C72.329 89.5272 71.5884 89.4959 69.684 89.2846C67.7312 87.3463 68.7162 87.6551 67.7563 84.4145L66.3402 83.8013C63.6891 81.4722 64.9141 81.8269 63.6443 77.929L63.5193 77.5547C63.2596 76.4986 63.2315 74.5561 63.1739 73.4014L64.4718 73.0246L66.0835 73.443L68.914 73.3119Z" fill="#174C37"/>
<path d="M64.4718 73.0246L66.0835 73.443L66.3402 83.8013C63.6891 81.4722 64.9141 81.8269 63.6443 77.929L63.5193 77.5547C63.2596 76.4986 63.2315 74.5561 63.1739 73.4014L64.4718 73.0246Z" fill="#2B6239"/>
<path d="M47.3395 89.4536L47.8835 89.4561C47.8602 92.0994 47.3487 92.6452 48.7331 94.2159L51.563 94.3917C56.54 94.3905 62.6195 94.2361 67.477 94.6919L68.0032 95.5103L67.7312 98.3877C65.8587 99.6655 65.0746 98.9512 62.5466 99.3464C57.5966 99.4683 53.329 99.5706 48.3931 99.2992C46.7246 98.3092 47.4394 96.82 46.7368 94.6006C47.1649 93.7265 47.2581 90.6065 47.3395 89.4536Z" fill="#1E573D"/>
<path d="M47.8835 89.4561C50.1965 89.5437 50.5615 89.1241 51.9177 90.3928C51.8607 91.9273 51.7909 92.8743 51.563 94.3917L48.7331 94.2159C47.3487 92.6452 47.8602 92.0994 47.8835 89.4561Z" fill="#2F7247"/>
<path d="M35.9309 72.7459C36.9367 71.0754 36.6678 70.7017 38.5642 70.252C41.0426 69.6646 44.4986 69.4434 46.3589 71.4962L46.0918 73.4681C46.4771 75.3696 46.735 77.3078 47.7261 78.9679C50.9205 79.1928 50.7122 78.6316 52.4335 80.4124L52.488 80.8112C52.6724 82.1032 52.6473 82.3648 53.2249 83.4932L54.189 83.2665L57.0637 84.1406C58.0438 86.0011 57.876 85.1612 57.6058 87.3451C54.94 90.2267 46.5481 88.5102 42.2952 88.936C41.9062 88.0465 41.6367 85.8939 41.4658 84.8409L40.9041 84.4513C40.585 85.9331 40.5758 86.5089 39.7446 87.7347C38.2635 86.689 37.1321 81.9623 36.4307 79.8237C34.9073 79.235 34.6599 79.2534 32.9901 79.0997L32.5153 79.0586C31.6957 77.6736 31.9009 75.2465 31.8336 73.4026C32.9711 72.9143 34.6549 72.8653 35.9309 72.7459Z" fill="#7FCA5B"/>
<path d="M35.9309 72.7459C36.9367 71.0754 36.6678 70.7017 38.5642 70.252C41.0426 69.6646 44.4986 69.4434 46.3589 71.4962L46.0918 73.4681C46.4771 75.3696 46.735 77.3078 47.7261 78.9679C39.5247 76.4563 46.6847 74.0899 35.9309 72.7459Z" fill="#66AE57"/>
<path d="M68.3138 109.827L68.5569 110.181L74.9979 110.397L77.483 110.156L79.0554 110.085L79.2097 114.536L79.3653 115.09C78.2866 123.383 75.7017 120.148 68.5759 120.792L67.934 120.748C66.3689 120.566 64.4217 120.63 62.818 120.628L61.0759 120.366L58.7133 119.783L58.086 118.353L57.3712 115.29C55.9899 115.427 54.1278 115.271 52.7018 115.2L52.7863 110.091L57.4741 110.176C60.3433 109.852 65.2853 109.895 68.3138 109.827Z" fill="#B3754D"/>
<path d="M68.3138 109.827L68.5569 110.181L74.9979 110.397L77.483 110.156L79.0554 110.085L79.2097 114.536L79.3653 115.09C78.2866 123.383 75.7017 120.148 68.5759 120.792L67.934 120.748C68.3229 119.297 68.1134 116.787 68.0663 115.197C68.103 113.294 68.3241 112.453 67.2595 110.912C65.134 109.782 60.513 110.318 57.4741 110.176C60.3433 109.852 65.2853 109.895 68.3138 109.827Z" fill="#844D33"/>
<path d="M77.483 110.156L79.0554 110.085L79.2097 114.536C77.1681 115.679 77.2532 115.288 74.5929 115.293C72.5715 115.282 71.3985 115.334 69.3814 114.898C68.1808 113.165 68.5967 112.629 68.5569 110.181L74.9979 110.397L77.483 110.156Z" fill="#252A33"/>
<path d="M77.483 110.156L79.0554 110.085L79.2097 114.536C77.1681 115.679 77.2532 115.288 74.5929 115.293L74.9979 110.397L77.483 110.156Z" fill="#331F1A"/>
<path d="M68.4987 115.791C69.9694 115.731 71.3097 115.779 72.7755 115.82C74.3209 117.254 73.8499 117.274 74.1666 119.959C72.4362 120.078 71.5706 120.071 69.8395 119.954C68.3866 118.411 68.8178 118.367 68.4987 115.791Z" fill="#B3754D"/>
<path d="M68.0663 115.197C68.1134 116.787 68.3229 119.297 67.934 120.748C66.3689 120.566 64.4217 120.63 62.818 120.628L61.0759 120.366L58.7133 119.783L58.086 118.353L57.3712 115.29L68.0663 115.197Z" fill="#331F1A"/>
<path d="M47.394 26.5603C52.1798 26.6008 57.4251 26.2926 62.0951 26.8237C62.783 26.9015 62.8768 27.3855 63.4219 28.1555L62.9809 31.3489L63.0317 36.6674L57.9097 36.823C57.5225 39.4602 57.8692 40.1935 56.415 41.9308C55.0055 42.1709 53.7198 42.3921 52.2925 42.5538C52.6362 44.4412 52.8481 45.3037 52.7397 47.272C50.5247 47.1929 48.9444 47.4748 47.5337 46.2434C46.9236 41.2943 47.3199 31.8598 47.394 26.5603Z" fill="#2B6239"/>
<path d="M51.593 31.4427L62.9809 31.3489L63.0317 36.6674L57.9097 36.823C57.5225 39.4602 57.8692 40.1935 56.415 41.9308C55.0055 42.1709 53.7198 42.3921 52.2925 42.5538C51.5085 40.4998 51.6384 34.029 51.593 31.4427Z" fill="#87D45C"/>
<path d="M26.8382 67.9444C26.524 66.4699 26.6355 65.1069 26.6624 63.5962L27.425 62.9959C30.5607 62.776 44.2848 62.466 46.9775 63.2428L47.5496 65.5835L48.1536 65.6129C51.1992 65.8181 52.1664 65.2178 53.7811 68.1227C51.1042 68.1625 49.6935 67.9603 47.4847 69.4526L46.8397 70.9988C47.236 71.9066 47.5312 72.9891 48.3208 73.4553L46.0918 73.4681L46.3589 71.4962C44.4986 69.4434 41.0426 69.6646 38.5642 70.252C36.6678 70.7017 36.9367 71.0754 35.9309 72.7459C34.6549 72.8653 32.9711 72.9143 31.8336 73.4026L31.3576 73.6127L27.1641 73.4369L27.011 68.47L26.8382 67.9444Z" fill="#87D45C"/>
<path d="M48.1536 65.6129C51.1992 65.8181 52.1664 65.2178 53.7811 68.1227C51.1042 68.1625 49.6935 67.9603 47.4847 69.4526L46.8397 70.9988C47.236 71.9066 47.5312 72.9891 48.3208 73.4553L46.0918 73.4681L46.3589 71.4962C44.4986 69.4434 41.0426 69.6646 38.5642 70.252C36.6678 70.7017 36.9367 71.0754 35.9309 72.7459C34.6549 72.8653 32.9711 72.9143 31.8336 73.4026L31.3576 73.6127L27.1641 73.4369L27.011 68.47L26.8382 67.9444C31.0783 68.013 43.5461 68.4345 46.825 67.417L47.5496 65.5835L48.1536 65.6129Z" fill="#77C35C"/>
<path d="M27.011 68.47C29.7546 68.5711 29.9285 68.1018 31.6388 69.4998C31.7172 70.804 31.8054 72.0959 31.8336 73.4026L31.3576 73.6127L27.1641 73.4369L27.011 68.47Z" fill="#529856"/>
<path d="M63.0317 36.6674C63.1291 38.0225 63.2682 41.0432 63.5567 42.2108L67.9762 42.2016L68.0497 41.8904C69.1351 42.1023 71.1603 42.3437 71.9259 42.982L71.6185 49.2304L67.7 48.8886L67.4867 52.128C65.4727 52.093 63.466 52.3595 61.4563 52.3001C57.8808 52.1947 58.135 51.1772 57.5537 48.4114L57.6076 48.0132L57.1041 47.3547L52.7397 47.272C52.8481 45.3037 52.6362 44.4412 52.2925 42.5538C53.7198 42.3921 55.0055 42.1709 56.415 41.9308C57.8692 40.1935 57.5225 39.4602 57.9097 36.823L63.0317 36.6674Z" fill="#7FCA5B"/>
<path d="M68.0497 41.8904C69.1351 42.1023 71.1603 42.3437 71.9259 42.982L71.6185 49.2304L67.7 48.8886L67.3643 48.0555L63.5604 47.713C63.8685 45.7736 63.6853 44.1514 63.5567 42.2108L67.9762 42.2016L68.0497 41.8904Z" fill="#66AE57"/>
<path d="M63.5567 42.2108L67.9762 42.2016C68.1361 44.4565 68.56 46.222 67.3643 48.0555L63.5604 47.713C63.8685 45.7736 63.6853 44.1514 63.5567 42.2108Z" fill="#529856"/>
<path d="M63.0317 36.6674C63.1291 38.0225 63.2682 41.0432 63.5567 42.2108C63.6853 44.1514 63.8685 45.7736 63.5604 47.713L63.1567 44.0032C61.9598 42.3057 61.414 42.5648 59.1176 41.744C57.7222 39.9491 58.1418 39.5209 57.9097 36.823L63.0317 36.6674Z" fill="#66AE57"/>
<path d="M27.1641 73.4369L31.3576 73.6127L31.8336 73.4026C31.9009 75.2465 31.6957 77.6736 32.5153 79.0586L32.9901 79.0997C34.6599 79.2534 34.9073 79.235 36.4307 79.8237C37.1321 81.9623 38.2635 86.689 39.7446 87.7347C40.5758 86.5089 40.585 85.9331 40.9041 84.4513L41.4658 84.8409C41.6367 85.8939 41.9062 88.0465 42.2952 88.936L42.392 89.265L47.3395 89.4536C47.2581 90.6065 47.1649 93.7265 46.7368 94.6006L41.0468 94.2839C38.5709 93.9145 38.7633 94.3121 37.0463 92.9123C36.9244 91.2063 37.0267 90.7689 36.1514 89.3777L32.5447 88.7479C31.3656 86.8287 31.7343 86.8949 31.6253 84.3759C30.1386 83.4981 28.9974 83.8442 27.2198 84.0212L26.8321 78.307C26.7788 77.7648 26.965 74.7092 26.9962 73.9704L27.1641 73.4369Z" fill="#2B6239"/>
<path d="M42.392 89.265L47.3395 89.4536C47.2581 90.6065 47.1649 93.7265 46.7368 94.6006L41.0468 94.2839C40.3369 92.6612 39.5596 91.5242 39.9639 89.8972L42.392 89.265Z" fill="#174C37"/>
<path d="M27.1641 73.4369L31.3576 73.6127C31.2633 75.3831 31.6112 77.7942 30.078 78.8705L26.8321 78.307C26.7788 77.7648 26.965 74.7092 26.9962 73.9704L27.1641 73.4369Z" fill="#285630"/>
<path d="M26.8321 78.307L30.078 78.8705C30.0198 80.4504 29.9971 81.4973 30.116 83.0717C28.807 83.642 28.614 83.7014 27.2198 84.0212L26.8321 78.307Z" fill="#1E573D"/>
<path d="M21.506 57.6768C27.036 57.6217 41.1779 56.9686 46.787 58.2496C47.4075 58.3911 47.3395 59.5599 47.451 60.45C47.6483 61.8455 48.0648 64.2934 48.1536 65.6129L47.5496 65.5835L46.9775 63.2428C44.2848 62.466 30.5607 62.776 27.425 62.9959L26.6624 63.5962C26.6355 65.1069 26.524 66.4699 26.8382 67.9444L27.011 68.47C24.8603 68.8376 23.6309 68.7653 21.4625 68.7298L21.506 57.6768Z" fill="#2B6239"/>
<path d="M71.6185 49.2304C72.6053 52.6407 72.0417 50.2792 74.4251 52.5874L74.057 57.6982L74.1825 58.3084C72.5005 58.3892 68.0411 57.9059 66.1686 57.7509L63.2069 57.5818C61.3588 57.6572 60.4125 57.743 58.5442 57.4201C57.2597 55.9015 57.6407 55.243 57.4649 52.8833L57.5537 48.4114C58.135 51.1772 57.8808 52.1947 61.4563 52.3001C63.466 52.3595 65.4727 52.093 67.4867 52.128L67.7 48.8886L71.6185 49.2304Z" fill="#2F7247"/>
<path d="M71.6185 49.2304C72.6053 52.6407 72.0417 50.2792 74.4251 52.5874L74.057 57.6982C72.4374 57.6921 70.8889 57.6266 69.2742 57.5598C67.7459 56.0963 68.3774 54.4252 67.4867 52.128L67.7 48.8886L71.6185 49.2304Z" fill="#56A155"/>
<path d="M57.4649 52.8833C60.0817 52.7957 60.9975 52.3313 63.0066 53.3832C63.5432 55.1615 63.3998 55.7153 63.2069 57.5818C61.3588 57.6572 60.4125 57.743 58.5442 57.4201C57.2597 55.9015 57.6407 55.243 57.4649 52.8833Z" fill="#285630"/>
<path d="M66.1686 57.7509C68.0411 57.9059 72.5005 58.3892 74.1825 58.3084C74.1997 61.7248 74.4521 69.2235 74.1568 72.3152C71.8114 73.3395 71.4708 73.5073 68.914 73.3119C69.1449 69.3056 69.7238 65.491 67.1542 62.3649C66.0057 60.9676 66.1165 59.5581 66.1686 57.7509Z" fill="#367642"/>
<path d="M52.7863 110.091C52.6613 108.282 52.5891 107.82 52.9952 106.065C55.6144 103.549 63.8918 104.734 68.0853 104.808C68.1337 105.785 68.3603 109.01 68.3138 109.827C65.2853 109.895 60.3433 109.852 57.4741 110.176L52.7863 110.091Z" fill="#4B2716"/>
<path d="M63.4219 28.1555L63.5836 31.2215C66.3744 31.4641 66.5869 31.031 68.4944 32.462C68.7474 34.2777 68.7951 34.7053 68.6095 36.5235C68.4172 38.2926 68.1899 40.1218 68.0497 41.8904L67.9762 42.2016L63.5567 42.2108C63.2682 41.0432 63.1291 38.0225 63.0317 36.6674L62.9809 31.3489L63.4219 28.1555Z" fill="#7FCA5B"/>
<path d="M63.5836 31.2215C66.3744 31.4641 66.5869 31.031 68.4944 32.462C68.7474 34.2777 68.7951 34.7053 68.6095 36.5235C66.7125 36.6196 66.043 36.7961 64.2795 36.0512C63.2106 34.6067 63.5248 33.1205 63.5836 31.2215Z" fill="#367642"/>
<path d="M42.169 114.815C42.1801 112.924 42.0563 112.524 42.8612 110.887C45.3653 109.294 49.5974 109.954 52.7863 110.091L52.7018 115.2L48.4654 115.201C45.6856 115.374 44.852 115.494 42.169 114.815Z" fill="#693922"/>
<path d="M47.451 60.45C53.9985 60.7643 51.5845 63.0627 57.7742 63.3059C57.6131 64.9378 57.3535 66.7057 57.5029 68.3193L53.7811 68.1227C52.1664 65.2178 51.1992 65.8181 48.1536 65.6129C48.0648 64.2934 47.6483 61.8455 47.451 60.45Z" fill="#285630"/>
<path d="M57.7742 63.3059C58.9608 70.5289 61.6057 66.5018 65.2473 71.476C64.9172 72.5278 65.1481 72.2748 64.4718 73.0246L63.1739 73.4014C61.0196 73.1888 60.0939 73.3199 58.0003 73.5361L57.5029 68.3193C57.3535 66.7057 57.6131 64.9378 57.7742 63.3059Z" fill="#2B6239"/>
<path d="M68.6095 36.5235C75.9631 37.9974 72.4785 37.2965 75.6288 42.3357C74.7976 42.4478 72.5367 42.6604 71.9259 42.982C71.1603 42.3437 69.1351 42.1023 68.0497 41.8904C68.1899 40.1218 68.4172 38.2926 68.6095 36.5235Z" fill="#367642"/>
<path d="M21.4625 68.7298C23.6309 68.7653 24.8603 68.8376 27.011 68.47L27.1641 73.4369L26.9962 73.9704C25.234 73.7867 24.0076 73.6525 22.2453 73.2752C21.1293 71.5415 21.5091 71.0717 21.4625 68.7298Z" fill="#174C37"/>
<path d="M14.2051 125.528C15.0963 125.733 15.8393 126.346 16.2099 127.182C16.5805 128.019 16.5346 128.98 16.0868 129.778C15.6274 130.595 14.8023 131.14 13.8712 131.241C12.9395 131.343 12.0165 130.988 11.3929 130.288C11.2826 130.165 11.1834 130.033 11.0958 129.893C10.4146 128.8 10.5347 127.39 11.3898 126.429C12.0936 125.637 13.1723 125.292 14.2051 125.528Z" fill="#A3633B"/>
<path d="M52.7397 47.272L57.1041 47.3547L57.6076 48.0132L57.5537 48.4114L57.4649 52.8833C55.7265 52.8122 55.1807 52.7301 53.4858 52.3313C52.2687 50.289 52.7164 50.0507 52.7397 47.272Z" fill="#2B6239"/>
<path d="M10.9243 120.526L15.7138 120.62C15.3781 122.542 15.3156 123.946 14.2051 125.528C13.1723 125.292 12.0936 125.637 11.3898 126.429L10.9243 120.526Z" fill="#A3633B"/>
<path d="M110.121 11.0171C114.636 10.5135 133.103 9.46294 136.555 11.1347L137.248 14.4813C139.274 15.5986 138.989 15.2427 141.547 15.2537C141.598 24.6374 142.413 95.5636 141 99.4119L136.165 99.2992L136.129 94.4389L131.269 94.2582C131.294 91.8605 131.33 91.2976 130.739 88.9293C129.389 89.0016 127.825 88.9011 126.454 88.8558L125.695 88.6052L124.953 89.1676L120.296 89.4953L115.801 89.4665C115.764 91.3429 115.644 92.908 116.108 94.7452L115.469 96.9523L115.166 98.8765C112.796 100.086 112.193 99.1424 110.59 99.8799L109.982 100.445C109.908 102.735 110.302 103.103 109.113 104.629C107.43 104.917 106.609 104.947 104.897 104.976L100.297 104.718L99.8451 104.359C97.4372 104.849 96.8657 104.89 94.4063 104.83L89.6175 104.789L87.3063 104.601L84.3428 104.966L83.3725 104.812L79.0633 104.655L79.0554 110.085L77.483 110.156C76.5697 109.991 74.8992 110.14 73.9087 110.182L74.1538 104.689L74.1776 99.9639C74.3075 96.7269 74.2242 92.7181 74.2407 89.4224L74.1568 72.3152C74.4521 69.2235 74.1997 61.7248 74.1825 58.3084L74.057 57.6982L74.4251 52.5874C72.0417 50.2792 72.6053 52.6407 71.6185 49.2304L71.9259 42.982C72.5367 42.6604 74.7976 42.4478 75.6288 42.3357C76.1666 40.5102 76.4067 34.6459 76.6303 32.307L77.8095 31.3986C79.6416 29.6472 79.0909 29.6496 79.4952 26.4801L83.7076 26.0727L84.0054 25.5244C84.025 24.317 84.167 23.2437 84.3012 22.0437C86.0255 20.579 86.1854 21.0795 89.0491 21.0054L89.0784 16.452L92.5277 15.9386C97.7546 11.0483 97.5187 13.6151 101.289 11.1139L110.121 11.0171Z" fill="#F0C07C"/>
<path d="M74.1825 58.3084C75.8064 58.2673 78.332 57.7466 79.3298 59.2064C79.1926 61.8344 79.1729 67.9383 78.9206 70.1277L79.0707 74.2081L81.8908 73.1667C84.2957 73.3732 86.1241 73.5894 88.5425 73.3983L88.5645 72.6687L90.3501 73.5208L94.3549 73.2249C95.7772 73.277 98.8045 73.3144 100.069 73.5079L99.9205 77.0769L100.152 78.3419L105.305 78.4662C105.085 79.9671 104.603 82.8499 104.733 84.224C108.265 84.0739 111.8 83.9575 115.335 83.876L115.866 83.9759L115.823 84.5309C115.83 85.802 115.777 87.6967 115.874 88.9066L115.801 89.4665C115.764 91.3429 115.644 92.908 116.108 94.7452L115.469 96.9523L115.166 98.8765C112.796 100.086 112.193 99.1424 110.59 99.8799L109.982 100.445C109.908 102.735 110.302 103.103 109.113 104.629C107.43 104.917 106.609 104.947 104.897 104.976L100.297 104.718L99.8451 104.359C97.4372 104.849 96.8657 104.89 94.4063 104.83L89.6175 104.789L87.3063 104.601L84.3428 104.966L83.3725 104.812L79.0633 104.655L79.0554 110.085L77.483 110.156C76.5697 109.991 74.8992 110.14 73.9087 110.182L74.1538 104.689L74.1776 99.9639C74.3075 96.7269 74.2242 92.7181 74.2407 89.4224L74.1568 72.3152C74.4521 69.2235 74.1997 61.7248 74.1825 58.3084Z" fill="#4A8F56"/>
<path d="M74.1825 58.3084C75.8064 58.2673 78.332 57.7466 79.3298 59.2064C79.1926 61.8344 79.1729 67.9383 78.9206 70.1277L79.0707 74.2081L81.8908 73.1667C84.2957 73.3732 86.1241 73.5894 88.5425 73.3983C89.049 78.0656 87.8815 79.4592 87.9893 83.3271C86.4304 83.9991 86.0623 83.9924 84.3588 84.1217L84.4231 84.6785C84.8439 88.4956 83.7015 90.7713 84.7808 93.6193C85.9048 94.336 85.8528 94.3538 87.1415 94.6L84.9223 95.1225C83.5668 97.4584 85.1428 97.8302 84.2308 99.9008C83.356 102.052 83.4068 102.586 83.3725 104.812L79.0633 104.655L79.0554 110.085L77.483 110.156C76.5697 109.991 74.8992 110.14 73.9087 110.182L74.1538 104.689L74.1776 99.9639C74.3075 96.7269 74.2242 92.7181 74.2407 89.4224L74.1568 72.3152C74.4521 69.2235 74.1997 61.7248 74.1825 58.3084Z" fill="#77C35C"/>
<path d="M81.8908 73.1667C84.2957 73.3732 86.1241 73.5894 88.5425 73.3983C89.049 78.0656 87.8815 79.4592 87.9893 83.3271C86.4304 83.9991 86.0623 83.9924 84.3588 84.1217C84.1425 85.799 83.9747 87.0143 83.59 88.6891C82.2002 89.7606 80.8752 89.4659 79.0241 89.4273L79.0707 74.2081L81.8908 73.1667Z" fill="#1E573D"/>
<path d="M79.0241 89.4273C80.8752 89.4659 82.2002 89.7606 83.59 88.6891C83.9747 87.0143 84.1425 85.799 84.3588 84.1217L84.4231 84.6785C84.8439 88.4956 83.7015 90.7713 84.7808 93.6193C85.9048 94.336 85.8528 94.3538 87.1415 94.6L84.9223 95.1225C83.5668 97.4584 85.1428 97.8302 84.2308 99.9008C83.356 102.052 83.4068 102.586 83.3725 104.812L79.0633 104.655L79.0241 89.4273Z" fill="#448152"/>
<path d="M74.1538 104.689C75.9871 104.701 76.2089 104.774 77.8823 104.137C79.8529 99.7115 77.2422 78.2665 78.9206 70.1277L79.0707 74.2081L79.0241 89.4273L79.0633 104.655L79.0554 110.085L77.483 110.156C76.5697 109.991 74.8992 110.14 73.9087 110.182L74.1538 104.689Z" fill="#66AE57"/>
<path d="M94.6643 94.5106L99.7325 94.388L104.722 94.4205L104.85 99.4027C106.148 99.4756 108.186 99.5209 109.401 99.7274L109.982 100.445C109.908 102.735 110.302 103.103 109.113 104.629C107.43 104.917 106.609 104.947 104.897 104.976L100.297 104.718L99.8451 104.359C97.4372 104.849 96.8657 104.89 94.4063 104.83L89.6175 104.789L87.3063 104.601L84.3428 104.966L83.3725 104.812C83.4068 102.586 83.356 102.052 84.2308 99.9008C85.1428 97.8302 83.5668 97.4584 84.9223 95.1225L87.1415 94.6L94.6643 94.5106Z" fill="#412117"/>
<path d="M104.85 99.4027C106.148 99.4756 108.186 99.5209 109.401 99.7274L109.982 100.445C109.908 102.735 110.302 103.103 109.113 104.629C107.43 104.917 106.609 104.947 104.897 104.976L100.297 104.718L99.8451 104.359L99.8053 99.8799L100.072 99.41L104.85 99.4027Z" fill="#10111B"/>
<path d="M94.6643 94.5106L99.7325 94.388L104.722 94.4205L104.85 99.4027L100.072 99.41L99.8053 99.8799L99.2871 99.6802C97.7582 98.8747 96.0817 99.0529 94.2949 99.0272L94.6643 94.5106Z" fill="#331F1A"/>
<path d="M99.7325 94.388L104.722 94.4205L104.85 99.4027L100.072 99.41L99.7325 94.388Z" fill="#937055"/>
<path d="M87.1415 94.6L94.6643 94.5106L94.2949 99.0272C92.984 99.1356 89.7155 99.3139 88.6613 99.7004L84.2308 99.9008C85.1428 97.8302 83.5668 97.4584 84.9223 95.1225L87.1415 94.6Z" fill="#174C37"/>
<path d="M94.4063 104.83C94.4308 103.075 94.4927 102.241 94.7653 100.508C96.418 99.2459 96.7978 99.6906 99.2871 99.6802L99.8053 99.8799L99.8451 104.359C97.4372 104.849 96.8657 104.89 94.4063 104.83Z" fill="#B3754D"/>
<path d="M84.2308 99.9008L88.6613 99.7004L87.3063 104.601L84.3428 104.966L83.3725 104.812C83.4068 102.586 83.356 102.052 84.2308 99.9008Z" fill="#2A3621"/>
<path d="M104.733 84.224C108.265 84.0739 111.8 83.9575 115.335 83.876L115.866 83.9759L115.823 84.5309C115.83 85.802 115.777 87.6967 115.874 88.9066L115.801 89.4665C115.764 91.3429 115.644 92.908 116.108 94.7452L115.469 96.9523L115.166 98.8765C112.796 100.086 112.193 99.1424 110.59 99.8799L109.982 100.445L109.401 99.7274C108.186 99.5209 106.148 99.4756 104.85 99.4027L104.722 94.4205L108.617 94.2539C110.099 92.7157 109.61 92.5717 109.756 89.8059C108.628 89.2907 106.145 89.1841 104.803 89.0579L104.733 84.224Z" fill="#7D442C"/>
<path d="M104.733 84.224C108.265 84.0739 111.8 83.9575 115.335 83.876L115.209 84.4212L115.201 89.1345C113.844 89.317 111.318 89.5762 110.094 89.899L109.756 89.8059C108.628 89.2907 106.145 89.1841 104.803 89.0579L104.733 84.224Z" fill="#285630"/>
<path d="M115.201 89.1345C112.2 89.0089 111.339 89.4175 109.682 86.7436L110.025 85.5656C112.246 84.0469 112.07 84.5364 115.209 84.4212L115.201 89.1345Z" fill="#312717"/>
<path d="M115.335 83.876L115.866 83.9759L115.823 84.5309C115.83 85.802 115.777 87.6967 115.874 88.9066L115.801 89.4665C115.764 91.3429 115.644 92.908 116.108 94.7452L115.469 96.9523L115.379 94.5743L111.201 94.2031C109.738 92.7322 110.211 92.5062 110.094 89.899C111.318 89.5762 113.844 89.317 115.201 89.1345L115.209 84.4212L115.335 83.876Z" fill="#848287"/>
<path d="M109.401 99.7274C109.565 98.425 109.74 97.1239 109.926 95.824C111.48 94.4371 112.876 94.7967 115.379 94.5743L115.469 96.9523L115.166 98.8765C112.796 100.086 112.193 99.1424 110.59 99.8799L109.982 100.445L109.401 99.7274Z" fill="#252A33"/>
<path d="M94.3549 73.2249C95.7772 73.277 98.8045 73.3144 100.069 73.5079L99.9205 77.0769L100.152 78.3419C99.8746 81.1365 100.3 81.5519 98.8406 83.4282C97.1879 84.1584 96.9735 84.0996 95.1261 84.1872C94.3402 85.2151 94.4278 85.2519 94.3542 86.5016C94.2593 85.6384 93.8942 84.9027 93.5671 84.0917C91.8636 82.8793 90.1878 83.2444 87.9893 83.3271C87.8815 79.4592 89.049 78.0656 88.5425 73.3983L88.5645 72.6687L90.3501 73.5208L94.3549 73.2249Z" fill="#529856"/>
<path d="M94.3549 73.2249C95.7772 73.277 98.8045 73.3144 100.069 73.5079L99.9205 77.0769L97.7851 76.6285C96.1239 77.8708 93.8717 79.262 91.8166 79.0513C90.1125 76.8104 90.6343 76.8141 90.3501 73.5208L94.3549 73.2249Z" fill="#77C35C"/>
<path d="M100.152 78.3419L105.305 78.4662C105.085 79.9671 104.603 82.8499 104.733 84.224L104.803 89.0579C101.362 88.4484 97.6817 89.5547 94.8027 88.3614L94.3542 86.5016C94.4278 85.2519 94.3402 85.2151 95.1261 84.1872C96.9735 84.0996 97.1879 84.1584 98.8406 83.4282C100.3 81.5519 99.8746 81.1365 100.152 78.3419Z" fill="#77C35C"/>
<path d="M104.803 89.0579C106.145 89.1841 108.628 89.2907 109.756 89.8059C109.61 92.5717 110.099 92.7157 108.617 94.2539L104.722 94.4205L99.7325 94.388L99.8599 89.4016C101.471 89.3287 103.184 89.1737 104.803 89.0579Z" fill="#331F1A"/>
<path d="M94.6643 94.5106C94.6869 93.0906 94.7715 91.9212 94.8891 90.5055C96.7506 89.1057 97.071 89.5584 99.8599 89.4016L99.7325 94.388L94.6643 94.5106Z" fill="#367642"/>
<path d="M84.0054 25.5244C84.025 24.317 84.167 23.2437 84.3012 22.0437C86.0255 20.579 86.1854 21.0795 89.0491 21.0054L89.4637 21.0219L92.6624 21.1573C91.7166 23.1727 91.8043 23.9354 92.7188 26.1291L93.9089 26.3312L93.422 30.5219L94.3941 31.5725L94.4021 36.8071C95.0789 38.6204 95.338 39.5766 96.4621 41.1896C97.6902 41.4934 98.3058 41.6294 99.5603 41.7764L99.3943 42.2016L95.0887 42.2316C95.014 43.8709 95.0967 45.8587 94.4259 47.2799L94.4241 47.6291C94.4811 50.0507 94.056 50.4335 95.3148 52.0183C96.8615 52.1482 98.4111 52.2382 99.9627 52.2891C98.1692 52.5065 96.5349 52.7877 94.7335 52.6615C91.7828 52.4367 87.9262 51.7849 85.3615 52.9923C83.6905 54.7566 84.2044 54.5587 83.9171 57.5475L82.4813 57.7491C80.1842 58.2882 80.7503 57.8477 79.3298 59.2064C78.332 57.7466 75.8064 58.2673 74.1825 58.3084L74.057 57.6982L74.4251 52.5874C72.0417 50.2792 72.6053 52.6407 71.6185 49.2304L71.9259 42.982C72.5367 42.6604 74.7976 42.4478 75.6288 42.3357C76.1666 40.5102 76.4067 34.6459 76.6303 32.307L77.8095 31.3986C79.6416 29.6472 79.0909 29.6496 79.4952 26.4801L83.7076 26.0727L84.0054 25.5244Z" fill="#4A8F56"/>
<path d="M84.0054 25.5244C84.025 24.317 84.167 23.2437 84.3012 22.0437C86.0255 20.579 86.1854 21.0795 89.0491 21.0054L89.4637 21.0219L92.6624 21.1573C91.7166 23.1727 91.8043 23.9354 92.7188 26.1291L93.9089 26.3312L93.422 30.5219C90.9363 30.8503 91.1384 30.4203 89.6561 31.8752C89.5427 33.5739 89.4362 34.9534 89.1924 36.6582C88.0475 36.763 85.5048 36.9241 84.5107 37.2053L84.0439 37.1967C83.9294 34.8726 83.8626 34.105 83.334 31.8304L84.0825 31.11C84.2864 29.0303 84.0488 28.0808 83.7076 26.0727L84.0054 25.5244Z" fill="#87D45C"/>
<path d="M84.0054 25.5244C84.025 24.317 84.167 23.2437 84.3012 22.0437C86.0255 20.579 86.1854 21.0795 89.0491 21.0054L89.4637 21.0219L92.6624 21.1573C91.7166 23.1727 91.8043 23.9354 92.7188 26.1291C90.8989 26.6363 86.5033 26.8433 84.6393 26.0145L84.0054 25.5244Z" fill="#285630"/>
<path d="M89.4637 21.0219L92.6624 21.1573C91.7166 23.1727 91.8043 23.9354 92.7188 26.1291C90.8989 26.6363 86.5033 26.8433 84.6393 26.0145C86.4414 26.0752 86.8623 26.0868 88.6172 25.7027C89.8301 24.0181 89.4135 23.452 89.4637 21.0219Z" fill="#7FCA5B"/>
<path d="M75.6288 42.3357C76.1666 40.5102 76.4067 34.6459 76.6303 32.307L77.8095 31.3986C80.6517 34.0223 78.6131 49.0718 78.0563 53.0358C76.327 53.4168 76.0772 53.2772 74.4251 52.5874C72.0417 50.2792 72.6053 52.6407 71.6185 49.2304L71.9259 42.982C72.5367 42.6604 74.7976 42.4478 75.6288 42.3357Z" fill="#1E573D"/>
<path d="M93.422 30.5219L94.3941 31.5725L94.4021 36.8071C95.0789 38.6204 95.338 39.5766 96.4621 41.1896C97.6902 41.4934 98.3058 41.6294 99.5603 41.7764L99.3943 42.2016L95.0887 42.2316C95.014 43.8709 95.0967 45.8587 94.4259 47.2799L89.6058 47.2058L89.3639 46.4964C88.9902 45.4661 89.0876 43.7177 89.079 42.563L88.4028 42.3014C89.253 40.9243 89.117 38.4127 89.1924 36.6582C89.4362 34.9534 89.5427 33.5739 89.6561 31.8752C91.1384 30.4203 90.9363 30.8503 93.422 30.5219Z" fill="#77C35C"/>
<path d="M93.422 30.5219L94.3941 31.5725L94.4021 36.8071C91.8973 37.1208 91.1733 36.7232 89.8171 38.2216C89.6603 39.3769 89.4386 41.5467 89.079 42.563L88.4028 42.3014C89.253 40.9243 89.117 38.4127 89.1924 36.6582C89.4362 34.9534 89.5427 33.5739 89.6561 31.8752C91.1384 30.4203 90.9363 30.8503 93.422 30.5219Z" fill="#56A155"/>
<path d="M89.3639 46.4964C89.4472 45.2719 89.6248 44.4743 89.868 43.2687C91.5654 41.9878 92.6073 42.3749 95.0887 42.2316C95.014 43.8709 95.0967 45.8587 94.4259 47.2799L89.6058 47.2058L89.3639 46.4964Z" fill="#87D45C"/>
<path d="M84.5107 37.2053C85.5048 36.9241 88.0475 36.763 89.1924 36.6582C89.117 38.4127 89.253 40.9243 88.4028 42.3014L89.079 42.563C89.0876 43.7177 88.9902 45.4661 89.3639 46.4964L89.6058 47.2058L85.9373 47.1378C84.0979 45.7821 84.5211 45.6615 83.5968 43.099C84.2541 41.1283 84.0666 39.2954 84.0439 37.1967L84.5107 37.2053Z" fill="#66AE57"/>
<path d="M84.5107 37.2053C85.5048 36.9241 88.0475 36.763 89.1924 36.6582C89.117 38.4127 89.253 40.9243 88.4028 42.3014C87.5103 42.2769 86.4249 42.1617 85.5165 42.0882C84.2442 40.618 84.6405 39.5668 84.5107 37.2053Z" fill="#4A8F56"/>
<path d="M83.5968 43.099C82.5867 42.6132 82.4973 42.397 81.7475 41.5841C81.1239 38.3514 80.7007 35.4398 81.8633 32.2458L83.334 31.8304C83.8626 34.105 83.9294 34.8726 84.0439 37.1967C84.0666 39.2954 84.2541 41.1283 83.5968 43.099Z" fill="#7FCA5B"/>
<path d="M83.7076 26.0727C84.0488 28.0808 84.2864 29.0303 84.0825 31.11C81.9 31.3189 81.383 31.7692 79.8063 30.8264L79.4952 26.4801L83.7076 26.0727Z" fill="#367642"/>
<path d="M74.4251 52.5874C76.0772 53.2772 76.327 53.4168 78.0563 53.0358C78.5077 55.5866 79.0027 55.6338 77.8799 57.3319C76.4625 57.5304 75.4866 57.6547 74.057 57.6982L74.4251 52.5874Z" fill="#2F7247"/>
<path d="M105.889 63.1625C105.705 65.7869 105.275 65.6858 106.426 67.5015C109.114 68.8259 111.966 67.3931 116.274 68.4896L121.067 68.734L120.852 73.5496C120.713 75.9546 121.107 76.7479 119.83 78.3198C118.179 78.5894 116.858 78.7382 115.206 78.8938L115.335 83.876C111.8 83.9575 108.265 84.0739 104.733 84.224C104.603 82.8499 105.085 79.9671 105.305 78.4662L100.152 78.3419L99.9205 77.0769L100.069 73.5079C98.8045 73.3144 95.7772 73.277 94.3549 73.2249L94.4278 68.0522C98.2832 68.3499 98.8841 68.9454 100.738 65.5602C102.978 63.943 103.251 66.3468 105.889 63.1625Z" fill="#7FCA5B"/>
<path d="M116.274 68.4896L121.067 68.734L120.852 73.5496C120.713 75.9546 121.107 76.7479 119.83 78.3198C118.179 78.5894 116.858 78.7382 115.206 78.8938L115.335 83.876C111.8 83.9575 108.265 84.0739 104.733 84.224C104.603 82.8499 105.085 79.9671 105.305 78.4662C105.402 76.7571 105.34 76.6046 106.238 75.2171C107.795 74.9592 108.842 74.7074 110.287 74.0715C111.264 73.715 113.707 73.353 114.838 73.152C116.102 71.6083 115.74 71.3424 115.917 69.0777L116.274 68.4896Z" fill="#7FCA5B"/>
<path d="M105.305 78.4662C105.402 76.7571 105.34 76.6046 106.238 75.2171C107.795 74.9592 108.842 74.7074 110.287 74.0715C110.26 76.4263 110.693 76.7994 109.449 78.242C107.981 78.3695 106.778 78.4417 105.305 78.4662Z" fill="#66AE57"/>
<path d="M104.674 73.5092C105.762 70.0866 105.532 69.8735 109.499 69.5102C111.48 70.3115 110.987 69.7816 111.91 71.3811C111.458 73.2182 111.773 72.5266 110.287 74.0715C108.842 74.7074 107.795 74.9592 106.238 75.2171C105.34 76.6046 105.402 76.7571 105.305 78.4662L100.152 78.3419L99.9205 77.0769L100.069 73.5079L104.674 73.5092Z" fill="#529856"/>
<path d="M104.674 73.5092C104.742 71.0215 104.433 70.5687 106.166 68.9392C109.154 67.7692 112.715 68.5515 115.917 69.0777C115.74 71.3424 116.102 71.6083 114.838 73.152C113.707 73.353 111.264 73.715 110.287 74.0715C111.773 72.5266 111.458 73.2182 111.91 71.3811C110.987 69.7816 111.48 70.3115 109.499 69.5102C105.532 69.8735 105.762 70.0866 104.674 73.5092Z" fill="#66AE57"/>
<path d="M94.2196 16.6878C96.8394 16.4299 102.501 15.685 104.88 16.1304L104.807 32.8779L104.735 37.3223L99.9505 37.3866C99.8623 38.5836 99.7777 40.6787 99.5603 41.7764C98.3058 41.6294 97.6902 41.4934 96.4621 41.1896C95.338 39.5766 95.0789 38.6204 94.4021 36.8071L94.3941 31.5725L93.422 30.5219L93.9089 26.3312L92.7188 26.1291C91.8043 23.9354 91.7166 23.1727 92.6624 21.1573L89.4637 21.0219L89.0491 21.0054L89.0784 16.452C90.6012 16.5273 92.7476 16.6933 94.2196 16.6878Z" fill="#87D45C"/>
<path d="M99.9505 37.3866C99.8286 35.34 99.4837 33.7925 100.463 32.0736C102.693 31.6803 102.405 31.9768 104.807 32.8779L104.735 37.3223L99.9505 37.3866Z" fill="#66AE57"/>
<path d="M93.9089 26.3312C96.7187 26.3765 96.3512 25.9189 98.0878 27.3904C98.7309 29.2196 98.7193 28.4152 97.9138 30.4693C96.0945 31.7024 96.8816 31.3385 94.3941 31.5725L93.422 30.5219L93.9089 26.3312Z" fill="#77C35C"/>
<path d="M89.0784 16.452C90.6012 16.5273 92.7476 16.6933 94.2196 16.6878L94.5019 20.0381L92.6624 21.1573L89.4637 21.0219L89.0491 21.0054L89.0784 16.452Z" fill="#2B6239"/>
<path d="M94.2196 16.6878C96.8394 16.4299 102.501 15.685 104.88 16.1304C98.0143 16.9721 100.799 19.2399 94.5019 20.0381L94.2196 16.6878Z" fill="#66AE57"/>
<path d="M99.4268 62.6663C99.308 61.1336 99.251 61.035 99.8801 59.6824C105.195 57.0189 125.366 57.0893 131.247 58.0199C129.387 58.1938 127.978 58.2882 126.141 58.7421C125.561 60.1768 125.98 61.3891 126.254 62.9708L125.709 62.9922C125.717 65.7624 126.167 66.1973 124.956 68.2421C123.262 68.7003 122.829 68.7046 121.067 68.734L116.274 68.4896C111.966 67.3931 109.114 68.8259 106.426 67.5015C105.275 65.6858 105.705 65.7869 105.889 63.1625C103.251 66.3468 102.978 63.943 100.738 65.5602L99.4268 62.6663Z" fill="#367642"/>
<path d="M105.889 63.1625C108.924 62.689 122.735 62.3999 125.709 62.9922C125.717 65.7624 126.167 66.1973 124.956 68.2421C123.262 68.7003 122.829 68.7046 121.067 68.734L116.274 68.4896C111.966 67.3931 109.114 68.8259 106.426 67.5015C105.275 65.6858 105.705 65.7869 105.889 63.1625Z" fill="#87D45C"/>
<path d="M101.289 11.1139L110.121 11.0171L110.109 41.8916C108.673 41.6907 107.158 41.5927 105.707 41.4732C104.439 40.0544 104.848 39.644 104.735 37.3223L104.807 32.8779L104.88 16.1304C102.501 15.685 96.8394 16.4299 94.2196 16.6878C92.7476 16.6933 90.6012 16.5273 89.0784 16.452L92.5277 15.9386C97.7546 11.0483 97.5187 13.6151 101.289 11.1139Z" fill="#1C5830"/>
<path d="M121.21 73.4926L125.876 73.5956L125.769 78.6702C128.276 78.6635 129.121 78.2126 130.891 79.4115C131.397 81.1984 131.34 81.9819 131.352 83.786L131.201 84.3373L131.034 88.6769L130.739 88.9293C129.389 89.0016 127.825 88.9011 126.454 88.8558L125.695 88.6052L124.953 89.1676L120.296 89.4953L115.801 89.4665L115.874 88.9066C115.777 87.6967 115.83 85.802 115.823 84.5309L115.866 83.9759L115.335 83.876L115.206 78.8938C116.858 78.7382 118.179 78.5894 119.83 78.3198C121.107 76.7479 120.713 75.9546 120.852 73.5496L121.21 73.4926Z" fill="#331F1A"/>
<path d="M115.866 83.9759C118.789 83.8056 123.142 83.0944 125.317 84.7294C126.025 86.1524 125.803 87.0149 125.695 88.6052L124.953 89.1676L120.296 89.4953L115.801 89.4665L115.874 88.9066C115.777 87.6967 115.83 85.802 115.823 84.5309L115.866 83.9759Z" fill="#9DA7B1"/>
<path d="M115.823 84.5309C118.945 84.3581 118.539 83.9195 120.932 85.2139L121.544 86.7093C119.984 89.5462 118.957 89.0003 115.874 88.9066C115.777 87.6967 115.83 85.802 115.823 84.5309Z" fill="#B0BAC3"/>
<path d="M121.21 73.4926L125.876 73.5956L125.769 78.6702C122.577 78.8828 118.28 79.3447 115.206 78.8938C116.858 78.7382 118.179 78.5894 119.83 78.3198C121.107 76.7479 120.713 75.9546 120.852 73.5496L121.21 73.4926Z" fill="#174C37"/>
<path d="M126.454 88.8558C126.44 87.3268 126.507 86.3876 126.667 84.8654C128.241 83.6916 128.77 84.1872 131.201 84.3373L131.034 88.6769L130.739 88.9293C129.389 89.0016 127.825 88.9011 126.454 88.8558Z" fill="#201314"/>
<path d="M131.247 58.0199C131.293 62.3343 132.424 70.2067 130.062 73.0497C128.302 73.6145 127.682 73.5484 125.876 73.5956L121.21 73.4926L120.852 73.5496L121.067 68.734C122.829 68.7046 123.262 68.7003 124.956 68.2421C126.167 66.1973 125.717 65.7624 125.709 62.9922L126.254 62.9708C125.98 61.3891 125.561 60.1768 126.141 58.7421C127.978 58.2882 129.387 58.1938 131.247 58.0199Z" fill="#2B6239"/>
<path d="M125.709 62.9922L126.254 62.9708C126.332 68.9981 127.681 72.0757 121.21 73.4926L120.852 73.5496L121.067 68.734C122.829 68.7046 123.262 68.7003 124.956 68.2421C126.167 66.1973 125.717 65.7624 125.709 62.9922Z" fill="#529856"/>
<path d="M83.9171 57.5475L84.1836 60.3373L84.1309 63.1975C82.3061 68.5925 81.6109 67.1192 81.8908 73.1667L79.0707 74.2081L78.9206 70.1277C79.1729 67.9383 79.1926 61.8344 79.3298 59.2064C80.7503 57.8477 80.1842 58.2882 82.4813 57.7491L83.9171 57.5475Z" fill="#2B6239"/>
<path d="M83.9171 57.5475L84.1836 60.3373L84.1309 63.1975L81.807 62.8673L81.2911 61.753C81.6023 60.0402 81.6347 59.3032 82.4813 57.7491L83.9171 57.5475Z" fill="#285630"/>
<path d="M83.9171 57.5475C84.2044 54.5587 83.6905 54.7566 85.3615 52.9923C87.9262 51.7849 91.7828 52.4367 94.7335 52.6615C94.4897 55.4537 94.9362 55.5395 93.4771 57.3956C91.3492 57.8428 90.1528 57.6799 87.9942 57.5592C85.7559 57.8085 85.5875 57.4097 84.4537 58.7923L84.1836 60.3373L83.9171 57.5475Z" fill="#285630"/>
<path d="M95.0887 42.2316L99.3943 42.2016L99.6142 46.1179L99.9652 47.4766L99.9627 52.2891C98.4111 52.2382 96.8615 52.1482 95.3148 52.0183C94.056 50.4335 94.4811 50.0507 94.4241 47.6291L94.4259 47.2799C95.0967 45.8587 95.014 43.8709 95.0887 42.2316Z" fill="#285630"/>
<path d="M95.0887 42.2316L99.3943 42.2016L99.6142 46.1179C97.8519 47.7271 96.4994 46.9528 94.4241 47.6291L94.4259 47.2799C95.0967 45.8587 95.014 43.8709 95.0887 42.2316Z" fill="#529856"/>
<path d="M88.5645 72.6687C88.7293 71.4264 88.9161 70.1871 89.125 68.9515C90.9571 67.5327 91.5213 68.0602 94.4278 68.0522L94.3549 73.2249L90.3501 73.5208L88.5645 72.6687Z" fill="#2B6239"/>
<path d="M104.735 37.3223C104.848 39.644 104.439 40.0544 105.707 41.4732C107.158 41.5927 108.673 41.6907 110.109 41.8916C108.217 42.1097 106.847 42.3222 104.923 42.2206L99.3943 42.2016L99.5603 41.7764C99.7777 40.6787 99.8623 38.5836 99.9505 37.3866L104.735 37.3223Z" fill="#2F7247"/>
<path d="M94.4278 68.0522C94.4382 66.8142 94.5093 65.5026 94.5534 64.2578C96.124 62.5947 96.5527 63.0645 99.4268 62.6663L100.738 65.5602C98.8841 68.9454 98.2832 68.3499 94.4278 68.0522Z" fill="#285630"/>
<path d="M130.739 88.9293L131.034 88.6769L136.097 88.8882L136.129 94.4389L131.269 94.2582C131.294 91.8605 131.33 91.2976 130.739 88.9293Z" fill="#252A33"/>
<path d="M131.352 83.786C133.782 83.7431 134.365 83.28 135.947 84.4923C136.175 86.3515 136.196 87.0174 136.097 88.8882L131.034 88.6769L131.201 84.3373L131.352 83.786Z" fill="#844D33"/>
<path d="M99.3943 42.2016L104.923 42.2206C104.752 45.1487 105.268 45.4685 103.699 47.1102L99.9652 47.4766L99.6142 46.1179L99.3943 42.2016Z" fill="#174C37"/>
<path d="M84.1836 60.3373L84.4537 58.7923C85.5875 57.4097 85.7559 57.8085 87.9942 57.5592C87.8313 60.5694 88.3574 60.7967 86.7593 62.5328L84.1309 63.1975L84.1836 60.3373Z" fill="#828158"/>
<path d="M125.695 88.6052L126.454 88.8558C127.825 88.9011 129.389 89.0016 130.739 88.9293C131.33 91.2976 131.294 91.8605 131.269 94.2582L136.129 94.4389L136.165 99.2992L141 99.4119L140.985 99.7942C142.168 103.791 141.416 120.54 141.654 125.72L141.606 129.768C139.864 130.802 138.282 131.653 136.181 131.76L136.221 125.578L131.216 125.732L131.119 130.95L130.439 131.21C129.108 131.142 127.579 130.92 126.237 130.762L125.668 130.797L120.902 131.024L120.829 136.055L115.4 135.983L115.26 141.414L110.364 141.483L42.2052 141.502C42.3577 139.238 41.9951 138.309 43.2171 136.865L46.0593 136.642L46.259 136.102C49.7468 135.931 53.9961 136.919 56.8052 135.58C58.2263 133.661 57.7608 133.914 57.7761 131.022L57.6426 125.686L58.0321 125.68L62.6158 125.653L62.818 120.628C64.4217 120.63 66.3689 120.566 67.934 120.748L68.5759 120.792C75.7017 120.148 78.2866 123.383 79.3653 115.09L79.2097 114.536L79.0554 110.085L79.0633 104.655L83.3725 104.812L84.3428 104.966L87.3063 104.601L89.6175 104.789L94.4063 104.83C96.8657 104.89 97.4372 104.849 99.8451 104.359L100.297 104.718L104.897 104.976C106.609 104.947 107.43 104.917 109.113 104.629C110.302 103.103 109.908 102.735 109.982 100.445L110.59 99.8799C112.193 99.1424 112.796 100.086 115.166 98.8765L115.469 96.9523L116.108 94.7452C115.644 92.908 115.764 91.3429 115.801 89.4665L120.296 89.4953L124.953 89.1676L125.695 88.6052Z" fill="#A3633B"/>
<path d="M125.695 88.6052L126.454 88.8558C127.825 88.9011 129.389 89.0016 130.739 88.9293C131.33 91.2976 131.294 91.8605 131.269 94.2582L136.129 94.4389L136.165 99.2992L141 99.4119L140.985 99.7942C142.168 103.791 141.416 120.54 141.654 125.72L141.606 129.768C139.864 130.802 138.282 131.653 136.181 131.76L136.221 125.578L131.216 125.732L131.119 130.95L130.439 131.21C129.108 131.142 127.579 130.92 126.237 130.762L125.668 130.797L120.902 131.024L120.77 125.588L120.817 120.387L120.655 115.037C120.89 112.49 120.761 107.498 120.776 104.77C119.173 104.817 118.022 104.798 116.422 104.701C115.128 103.471 115.528 103.968 115.372 101.646L115.044 100.589C113.462 99.5271 112.798 99.9051 110.59 99.8799C112.193 99.1424 112.796 100.086 115.166 98.8765L115.469 96.9523L116.108 94.7452C115.644 92.908 115.764 91.3429 115.801 89.4665L120.296 89.4953L124.953 89.1676L125.695 88.6052Z" fill="#8A8FA3"/>
<path d="M136.221 125.578C136.262 117.056 135.949 108.345 136.251 99.8511L140.985 99.7942C142.168 103.791 141.416 120.54 141.654 125.72L141.606 129.768C139.864 130.802 138.282 131.653 136.181 131.76L136.221 125.578Z" fill="#252A33"/>
<path d="M136.221 125.578C136.262 117.056 135.949 108.345 136.251 99.8511C136.579 105.68 136.083 121.385 136.777 125.253C138.519 125.935 139.809 125.768 141.654 125.72L141.606 129.768C139.864 130.802 138.282 131.653 136.181 131.76L136.221 125.578Z" fill="#AB6735"/>
<path d="M120.776 104.77L125.739 104.702C125.809 113.4 125.785 122.099 125.668 130.797L120.902 131.024L120.77 125.588L120.817 120.387L120.655 115.037C120.89 112.49 120.761 107.498 120.776 104.77Z" fill="#27272A"/>
<path d="M126.387 109.763L131.125 109.781L131.216 125.732L131.119 130.95L130.439 131.21C129.108 131.142 127.579 130.92 126.237 130.762L126.387 109.763Z" fill="#EFEFF0"/>
<path d="M125.695 88.6052L126.454 88.8558C127.825 88.9011 129.389 89.0016 130.739 88.9293C131.33 91.2976 131.294 91.8605 131.269 94.2582L130.983 99.4272C130.887 97.6654 130.929 96.7753 130.234 95.1072C128.18 93.8606 125.527 94.4475 122.528 94.3243L122.473 93.9721L121.651 93.6554C120.228 91.972 120.634 92.029 120.296 89.4953L124.953 89.1676L125.695 88.6052Z" fill="#848287"/>
<path d="M124.953 89.1676C125.993 90.6133 125.995 90.8473 125.977 92.6403C124.694 94.1271 124.708 93.9525 122.473 93.9721L121.651 93.6554C120.228 91.972 120.634 92.029 120.296 89.4953L124.953 89.1676Z" fill="#474957"/>
<path d="M115.372 101.646L115.607 100.144C117.353 98.901 118.194 99.3629 120.735 99.3611L120.776 104.77C119.173 104.817 118.022 104.798 116.422 104.701C115.128 103.471 115.528 103.968 115.372 101.646Z" fill="#10111B"/>
<path d="M120.735 99.3611C123.032 99.3598 123.596 98.9966 125.41 99.9939C126.092 101.81 125.869 102.773 125.739 104.702L120.776 104.77L120.735 99.3611Z" fill="#C2C6D9"/>
<path d="M131.269 94.2582L136.129 94.4389L136.165 99.2992L130.983 99.4272L131.269 94.2582Z" fill="#343C46"/>
<path d="M115.801 89.4665L120.296 89.4953C120.634 92.029 120.228 91.972 121.651 93.6554L122.473 93.9721L122.528 94.3243C119.655 94.1828 118.886 94.1222 116.108 94.7452C115.644 92.908 115.764 91.3429 115.801 89.4665Z" fill="#343C46"/>
<path d="M126.387 109.763C126.477 106.815 125.991 106.897 127.467 104.967L129.004 104.464C131.715 106.079 131.271 106.78 131.125 109.781L126.387 109.763Z" fill="#ABAEBC"/>
<path d="M110.59 99.8799C112.798 99.9051 113.462 99.5271 115.044 100.589L115.372 101.646C115.528 103.968 115.128 103.471 116.422 104.701C118.022 104.798 119.173 104.817 120.776 104.77C120.761 107.498 120.89 112.49 120.655 115.037L120.817 120.387L115.393 120.325L111.98 120.379L112.174 120.735C109.59 120.622 107.371 120.661 104.783 120.729L104.412 120.697C104.48 119.084 104.353 116.936 104.304 115.267L104.667 115.206C104.265 113.609 104.495 111.974 104.597 110.306L104.958 109.849L104.897 104.976C106.609 104.947 107.43 104.917 109.113 104.629C110.302 103.103 109.908 102.735 109.982 100.445L110.59 99.8799Z" fill="#F0C07C"/>
<path d="M104.958 109.849C106.948 110.088 108.121 110.227 110.142 110.217C110.279 112.031 110.455 113.438 110.246 115.26C109.958 117.946 109.509 117.966 110.565 119.953L111.98 120.379L112.174 120.735C109.59 120.622 107.371 120.661 104.783 120.729L104.412 120.697C104.48 119.084 104.353 116.936 104.304 115.267L104.667 115.206C104.265 113.609 104.495 111.974 104.597 110.306L104.958 109.849Z" fill="#AB6735"/>
<path d="M104.958 109.849C106.948 110.088 108.121 110.227 110.142 110.217C109.84 112.574 110.135 113.446 108.836 115.076C107.037 115.382 106.498 115.329 104.667 115.206C104.265 113.609 104.495 111.974 104.597 110.306L104.958 109.849Z" fill="#4B2716"/>
<path d="M120.143 115.314L120.655 115.037L120.817 120.387L115.393 120.325L111.98 120.379L110.565 119.953C109.509 117.966 109.958 117.946 110.246 115.26L120.143 115.314Z" fill="#693922"/>
<path d="M120.143 115.314L120.655 115.037L120.817 120.387L115.393 120.325C115.238 118.366 114.816 117.686 115.69 116.307C117.494 116.109 118.022 116.031 119.75 115.449L120.143 115.314Z" fill="#4B2716"/>
<path d="M94.4063 104.83C96.8657 104.89 97.4372 104.849 99.8451 104.359L100.297 104.718L104.897 104.976L104.958 109.849L104.597 110.306C104.495 111.974 104.265 113.609 104.667 115.206L104.304 115.267L99.6822 115.059L94.4253 115.282L89.5843 115.674L88.9143 115.201L83.805 115.244L79.3653 115.09L79.2097 114.536L79.0554 110.085L79.0633 104.655L83.3725 104.812L84.3428 104.966L87.3063 104.601L89.6175 104.789L94.4063 104.83Z" fill="#925C41"/>
<path d="M94.4063 104.83C96.8657 104.89 97.4372 104.849 99.8451 104.359L100.297 104.718L104.897 104.976L104.958 109.849L104.597 110.306C104.495 111.974 104.265 113.609 104.667 115.206L104.304 115.267L99.6822 115.059L94.4253 115.282L94.4615 110.507L93.6872 110.122L93.6799 109.523L94.2299 109.439L94.4063 104.83Z" fill="#412117"/>
<path d="M94.4063 104.83C96.8657 104.89 97.4372 104.849 99.8451 104.359L100.297 104.718C99.9781 107.504 100.442 107.941 98.8694 109.482C97.3227 109.496 95.7759 109.482 94.2299 109.439L94.4063 104.83Z" fill="#331F1A"/>
<path d="M94.4615 110.507C95.6063 110.205 98.5778 110.179 99.8984 110.127L99.6822 115.059L94.4253 115.282L94.4615 110.507Z" fill="#B3754D"/>
<path d="M99.8984 110.127L104.597 110.306C104.495 111.974 104.265 113.609 104.667 115.206L104.304 115.267L99.6822 115.059L99.8984 110.127Z" fill="#7D442C"/>
<path d="M79.0633 104.655L83.3725 104.812L84.3428 104.966L84.6981 110.426L83.805 115.244L79.3653 115.09L79.2097 114.536L79.0554 110.085L79.0633 104.655Z" fill="#312717"/>
<path d="M79.0554 110.085L84.6981 110.426L83.805 115.244L79.3653 115.09L79.2097 114.536L79.0554 110.085Z" fill="#BC7D53"/>
<path d="M88.9143 115.201C88.8849 113.429 88.8267 112.711 89.2524 110.952C90.9093 109.856 91.4367 110.209 93.6872 110.122L94.4615 110.507L94.4253 115.282L89.5843 115.674L88.9143 115.201Z" fill="#412117"/>
<path d="M89.6175 104.789L94.4063 104.83L94.2299 109.439L93.6799 109.523C92.5993 109.553 91.4557 109.497 90.3685 109.466C89.1238 108.027 89.6015 107.184 89.6175 104.789Z" fill="#B3754D"/>
<path d="M115.393 120.325L120.817 120.387L120.77 125.588L120.902 131.024L120.829 136.055L115.4 135.983L115.208 131.199C113.61 131.211 112.829 131.127 111.245 130.908C109.835 129.039 110.336 128.624 110.29 125.74C108.776 125.541 106.494 125.513 104.893 125.443L104.783 120.729C107.371 120.661 109.59 120.622 112.174 120.735L111.98 120.379L115.393 120.325Z" fill="#BC7D53"/>
<path d="M120.77 125.588L120.902 131.024L120.829 136.055L115.4 135.983L115.208 131.199L115.261 129.901L115.663 129.997C115.67 128.687 115.797 127.785 115.961 126.483C117.581 125.161 118.223 125.626 120.77 125.588Z" fill="#A3633B"/>
<path d="M115.261 129.901L115.663 129.997C117.429 131.459 118.146 131.079 120.902 131.024L120.829 136.055L115.4 135.983L115.208 131.199L115.261 129.901Z" fill="#AB6735"/>
<path d="M115.393 120.325L120.817 120.387L120.77 125.588C118.223 125.626 117.581 125.161 115.961 126.483C115.797 127.785 115.67 128.687 115.663 129.997L115.261 129.901C115.089 126.616 116.486 123.582 114.631 121.029L112.174 120.735L111.98 120.379L115.393 120.325Z" fill="#AB6735"/>
<path d="M99.6822 115.059L104.304 115.267C104.353 116.936 104.48 119.084 104.412 120.697L100.159 120.617L99.7747 121.515C99.4782 123.126 99.2835 123.966 99.2982 125.652L94.5528 125.506C90.9112 124.257 90.0903 125.179 86.1137 124.69C84.4782 123.429 84.9713 123.759 84.5597 121.128L84.48 120.652C86.0837 120.646 87.0105 120.572 88.6031 120.375C89.9562 118.673 89.4943 118.364 89.5843 115.674L94.4253 115.282L99.6822 115.059Z" fill="#BC7D53"/>
<path d="M99.6822 115.059L104.304 115.267C104.353 116.936 104.48 119.084 104.412 120.697L100.159 120.617C98.1809 120.638 97.1641 120.728 95.2057 120.209C93.9225 118.323 94.3971 118.051 94.4253 115.282L99.6822 115.059Z" fill="#D19263"/>
<path d="M83.805 115.244L88.9143 115.201L89.5843 115.674C89.4943 118.364 89.9562 118.673 88.6031 120.375C87.0105 120.572 86.0837 120.646 84.48 120.652L84.5597 121.128C84.2601 122.475 83.8252 124.177 83.6139 125.505L78.7313 125.767C76.2144 125.494 71.3202 125.647 68.6231 125.652L68.5759 120.792C75.7017 120.148 78.2866 123.383 79.3653 115.09L83.805 115.244Z" fill="#201314"/>
<path d="M78.7313 125.767C78.7203 123.814 78.7173 123.289 79.1485 121.393C81.2532 120.099 81.5466 120.591 84.48 120.652L84.5597 121.128C84.2601 122.475 83.8252 124.177 83.6139 125.505L78.7313 125.767Z" fill="#7D442C"/>
<path d="M62.818 120.628C64.4217 120.63 66.3689 120.566 67.934 120.748L68.5759 120.792L68.6231 125.652L68.4582 131.025L62.7389 131.082L57.7761 131.022L57.6426 125.686L58.0321 125.68L62.6158 125.653L62.818 120.628Z" fill="#201314"/>
<path d="M62.818 120.628C64.4217 120.63 66.3689 120.566 67.934 120.748L68.5759 120.792L68.6231 125.652L62.6158 125.653L62.818 120.628Z" fill="#925C41"/>
<path d="M100.159 120.617L104.412 120.697L104.783 120.729L104.893 125.443C106.494 125.513 108.776 125.541 110.29 125.74C108.701 125.86 108.017 125.956 106.466 126.319C105.103 128.199 103.645 130.03 101.522 131.031L100.523 130.629C99.2552 129.012 99.398 127.682 99.2982 125.652C99.2835 123.966 99.4782 123.126 99.7747 121.515L100.159 120.617Z" fill="#B3754D"/>
<path d="M100.159 120.617L104.412 120.697L104.783 120.729L104.893 125.443C103.705 125.617 102.26 125.611 101.042 125.644C99.5138 124.251 99.9842 124.119 99.7747 121.515L100.159 120.617Z" fill="#A3633B"/>
<path d="M57.7761 131.022L62.7389 131.082L62.9521 136.591C57.876 136.798 50.9542 137.234 46.0593 136.642L46.259 136.102C49.7468 135.931 53.9961 136.919 56.8052 135.58C58.2263 133.661 57.7608 133.914 57.7761 131.022Z" fill="#844D33"/>
<path d="M83.6139 125.505C83.8252 124.177 84.2601 122.475 84.5597 121.128C84.9713 123.759 84.4782 123.429 86.1137 124.69C90.0903 125.179 90.9112 124.257 94.5528 125.506C94.5026 128.386 95.0109 128.934 93.5917 130.767C91.7001 131.023 92.407 131.203 90.9271 130.155C90.7562 128.743 90.6815 127.593 90.6165 126.172C89.4582 125.456 85.3119 125.568 83.6139 125.505Z" fill="#B3754D"/>
<path d="M68.6231 125.652C71.3202 125.647 76.2144 125.494 78.7313 125.767C69.1168 127.001 77.2232 131.355 68.4582 131.025L68.6231 125.652Z" fill="#7D442C"/>
<path d="M136.221 125.578L136.181 131.76C138.282 131.653 139.864 130.802 141.606 129.768L141.571 136.581L141.972 139.938C143.533 141.163 144.151 140.735 146.536 140.776L146.459 141.425C146.605 144.481 147.295 148.718 145.644 151.008C143.945 151.673 143.572 151.624 141.716 151.754L141.673 156.756C122.574 157.888 94.69 156.878 74.9206 156.897C56.0561 156.916 29.3098 157.727 10.95 156.768L10.6523 156.876L5.80155 156.971L5.40402 153.062C3.90941 151.522 2.90055 151.892 0.302742 151.546C2.0926 151.436 3.43962 151.562 4.9085 150.613C6.31246 148.419 5.66189 144.046 5.57981 141.042L6.06007 141.162C7.76663 141.181 8.18499 141.164 9.84805 140.797C10.9892 139.241 10.5708 138.81 10.5531 136.506L10.8814 133.095L11.3929 130.288C12.0165 130.988 12.9395 131.343 13.8712 131.241C14.8023 131.14 15.6274 130.595 16.0868 129.778C17.4663 130.313 17.0381 129.894 17.8314 130.832L21.5336 131.09L21.4435 136.651C23.1017 136.419 25.0698 136.018 26.7457 135.72L26.9387 130.971L31.7276 131.076L36.8981 130.969L36.8344 136.047L46.259 136.102L46.0593 136.642L43.2171 136.865C41.9951 138.309 42.3577 139.238 42.2052 141.502L110.364 141.483L115.26 141.414L115.4 135.983L120.829 136.055L120.902 131.024L125.668 130.797L126.237 130.762C127.579 130.92 129.108 131.142 130.439 131.21L131.119 130.95L131.216 125.732L136.221 125.578Z" fill="#844D33"/>
<path d="M16.0868 129.778C17.4663 130.313 17.0381 129.894 17.8314 130.832L21.5336 131.09L21.4435 136.651C23.1017 136.419 25.0698 136.018 26.7457 135.72L26.9387 130.971L31.7276 131.076L36.8981 130.969L36.8344 136.047L46.259 136.102L46.0593 136.642L43.2171 136.865C41.9951 138.309 42.3577 139.238 42.2052 141.502L110.364 141.483C110.214 144.312 110.711 144.706 109.212 146.328C107.787 146.437 106.467 146.544 105.033 146.573C98.5496 146.226 89.0693 146.507 82.3257 146.512L39.0212 146.561C31.4918 146.573 18.45 146.958 11.4915 145.882C10.4667 141.346 10.3191 141.905 6.06007 141.162C7.76663 141.181 8.18499 141.164 9.84805 140.797C10.9892 139.241 10.5708 138.81 10.5531 136.506L10.8814 133.095L11.3929 130.288C12.0165 130.988 12.9395 131.343 13.8712 131.241C14.8023 131.14 15.6274 130.595 16.0868 129.778Z" fill="#C58453"/>
<path d="M31.7276 131.076L36.8981 130.969L36.8344 136.047C36.7738 139.044 37.2938 138.899 35.7171 140.587C31.3668 142.16 27.3515 140.708 22.5449 141.428L21.9764 141.462C21.4104 140.158 21.4956 138.145 21.4435 136.651C23.1017 136.419 25.0698 136.018 26.7457 135.72L26.9387 130.971L31.7276 131.076Z" fill="#331F1A"/>
<path d="M31.7276 131.076L36.8981 130.969L36.8344 136.047L31.8231 136.159L26.7457 135.72L26.9387 130.971L31.7276 131.076Z" fill="#6D4C41"/>
<path d="M26.9387 130.971L31.7276 131.076L31.8231 136.159L26.7457 135.72L26.9387 130.971Z" fill="#BC7D53"/>
<path d="M16.0868 129.778C17.4663 130.313 17.0381 129.894 17.8314 130.832L21.5336 131.09L21.4435 136.651C21.4956 138.145 21.4104 140.158 21.9764 141.462L16.3453 141.615C16.2883 141.248 16.2271 140.882 16.1615 140.516C15.4669 136.637 14.7006 138.7 11.361 136.396L10.8814 133.095L11.3929 130.288C12.0165 130.988 12.9395 131.343 13.8712 131.241C14.8023 131.14 15.6274 130.595 16.0868 129.778Z" fill="#A3633B"/>
<path d="M16.0868 129.778C17.4663 130.313 17.0381 129.894 17.8314 130.832C15.0676 132.617 16.8751 138.33 16.3453 141.615C16.2883 141.248 16.2271 140.882 16.1615 140.516C15.4669 136.637 14.7006 138.7 11.361 136.396L10.8814 133.095L11.3929 130.288C12.0165 130.988 12.9395 131.343 13.8712 131.241C14.8023 131.14 15.6274 130.595 16.0868 129.778Z" fill="#B3754D"/>
<path d="M36.8344 136.047L46.259 136.102L46.0593 136.642L43.2171 136.865C41.9951 138.309 42.3577 139.238 42.2052 141.502C35.6565 141.57 29.0869 141.702 22.5449 141.428C27.3515 140.708 31.3668 142.16 35.7171 140.587C37.2938 138.899 36.7738 139.044 36.8344 136.047Z" fill="#693922"/>
<path d="M115.4 135.983L120.829 136.055L120.752 141.483L120.705 146.285C122.295 146.328 124.108 146.317 125.662 146.549C117.94 147.449 122.953 147.98 119.977 151.366C116.022 152.052 109.363 151.91 105.37 151.469C104.548 149.968 104.903 148.366 105.033 146.573C106.467 146.544 107.787 146.437 109.212 146.328C110.711 144.706 110.214 144.312 110.364 141.483L115.26 141.414L115.4 135.983Z" fill="#252A33"/>
<path d="M115.4 135.983L120.829 136.055L120.752 141.483L115.26 141.414L115.4 135.983Z" fill="#252A33"/>
<path d="M115.26 141.414L120.752 141.483L120.705 146.285C118.875 146.494 118.006 146.689 116.169 146.248C114.91 144.327 115.337 144.106 115.26 141.414Z" fill="#8A8FA3"/>
<path d="M136.221 125.578L136.181 131.76C138.282 131.653 139.864 130.802 141.606 129.768L141.571 136.581C132.969 136.64 138.948 140.93 133.288 141.444C132.563 141.502 131.837 141.544 131.109 141.568L130.73 141.448C131.378 139.911 131.23 137.773 131.256 136.033L131.119 130.95L131.216 125.732L136.221 125.578Z" fill="#A3633B"/>
<path d="M136.221 125.578L136.181 131.76C136.032 133.876 136.369 134.391 135.196 135.788C133.827 135.904 132.631 136.006 131.256 136.033L131.119 130.95L131.216 125.732L136.221 125.578Z" fill="#252A33"/>
<path d="M141.571 136.581L141.972 139.938C143.533 141.163 144.151 140.735 146.536 140.776L146.459 141.425C143.984 141.6 143.57 141.173 142.086 142.561C141.612 144.452 141.878 145.009 140.298 145.832C137.983 147.036 133.502 146.642 130.809 146.578C130.746 144.882 130.951 143.259 131.109 141.568C131.837 141.544 132.563 141.502 133.288 141.444C138.948 140.93 132.969 136.64 141.571 136.581Z" fill="#C58453"/>
<path d="M125.668 130.797L126.237 130.762C127.579 130.92 129.108 131.142 130.439 131.21L131.119 130.95L131.256 136.033L126.21 136.101L126.19 136.504C125.983 138.14 125.778 139.691 125.657 141.339L120.752 141.483L120.829 136.055L120.902 131.024L125.668 130.797Z" fill="#ABAEBC"/>
<path d="M130.439 131.21L131.119 130.95L131.256 136.033L126.21 136.101C126.113 134.396 125.909 133.603 126.654 132.059C127.977 131.709 129.095 131.469 130.439 131.21Z" fill="#9E9B9E"/>
<path d="M126.21 136.101L131.256 136.033C131.23 137.773 131.378 139.911 130.73 141.448L126.383 141.401L126.19 136.504L126.21 136.101Z" fill="#252A33"/>
<path d="M126.383 141.401L130.73 141.448L131.109 141.568C130.951 143.259 130.746 144.882 130.809 146.578C129.157 146.783 128.781 146.763 127.124 146.57C125.877 144.65 126.354 144.149 126.383 141.401Z" fill="#BC7D53"/>
<path d="M5.80155 156.971C6.13477 153.73 5.59144 154.099 7.38865 152.02L8.92921 151.498C11.6814 152.99 11.1601 153.804 10.95 156.768L10.6523 156.876L5.80155 156.971Z" fill="#572E1C"/>
<path d="M120.752 141.483L125.657 141.339C125.661 142.996 125.71 144.916 125.662 146.549C124.108 146.317 122.295 146.328 120.705 146.285L120.752 141.483Z" fill="#131821"/>
<path d="M146.568 5.52032C147.815 15.5043 152.468 6.83799 151.959 16.1739L151.899 104.91C151.897 111.142 152.854 149.388 150.801 151.635C148.634 152.185 148.21 151.899 146.933 153.377L146.561 156.45L146.331 156.821C144.897 156.589 143.152 156.715 141.673 156.756L141.716 151.754C143.572 151.624 143.945 151.673 145.644 151.008C147.295 148.718 146.605 144.481 146.459 141.425L146.536 140.776C144.151 140.735 143.533 141.163 141.972 139.938L141.571 136.581L141.606 129.768L141.654 125.72C141.416 120.54 142.168 103.791 140.985 99.7942L141 99.4119C142.413 95.5636 141.598 24.6374 141.547 15.2537L141.597 10.7567L146.335 10.6103C146.124 9.07639 146.416 7.10447 146.568 5.52032Z" fill="#572E1C"/>
<path d="M141.597 10.7567L146.335 10.6103C146.873 15.8522 146.622 25.0123 146.604 30.4429L146.52 64.0116L146.533 115.324C146.54 122.949 146.857 133.321 146.536 140.776C144.151 140.735 143.533 141.163 141.972 139.938L141.571 136.581L141.606 129.768L141.654 125.72C141.416 120.54 142.168 103.791 140.985 99.7942L141 99.4119C142.413 95.5636 141.598 24.6374 141.547 15.2537L141.597 10.7567Z" fill="#D19263"/>
<path d="M141.716 151.754C144.216 152.004 144.889 151.581 146.228 153.05L146.561 156.45L146.331 156.821C144.897 156.589 143.152 156.715 141.673 156.756L141.716 151.754Z" fill="#4B2716"/>
<path d="M10.6523 156.876L10.95 156.768C29.3098 157.727 56.0561 156.916 74.9206 156.897C94.69 156.878 122.574 157.888 141.673 156.756C143.152 156.715 144.897 156.589 146.331 156.821C142.777 157.454 141.304 157.566 141.055 161.703C136.004 163.024 118.874 162.195 112.807 162.201L50.1781 162.253C40.732 162.245 25.0435 161.758 15.9747 162.396C13.7751 162.33 13.0707 162.68 11.4438 161.63C11.0732 159.938 10.8808 158.574 10.6523 156.876Z" fill="#572E1C"/>
</svg>
