<svg width="183" height="202" viewBox="0 0 183 202" fill="none" xmlns="http://www.w3.org/2000/svg">
<path d="M6.68532 12.2804C6.70723 11.1704 6.89715 10.0778 7.05055 8.97364C9.65833 7.1041 11.8425 3.37817 13.6979 0.63447C30.4402 -0.467538 55.6852 0.18826 73.158 0.246683C100.887 0.340891 130.23 -0.333911 157.724 0.383234C159.156 2.27688 158.711 3.36209 158.893 6.20803L159.288 6.65716C162.158 6.78277 162.582 6.28472 164.328 7.76356C164.598 8.93202 165.095 11.4486 165.584 12.4119L170.661 12.6602C170.8 13.581 170.836 15.7573 171.231 16.4927C172.531 18.8713 181.026 24.0534 181.881 26.2786C182.801 28.6674 182.809 183.796 181.801 193.421C180.252 195.052 178.587 194.448 177.104 195.472C171.625 199.265 177.666 201.254 165.613 201.575C151.508 201.949 25.8236 201.949 24.3189 200.418C22.1494 198.21 20.484 195.459 18.3656 193.166L17.8323 189.426C15.9112 189.377 15.6044 189.463 13.8878 188.72L13.2011 186.389L13.4276 183.496C13.0989 181.276 12.7263 179.065 12.288 176.865C10.4838 176.889 8.18282 176.754 6.33473 176.693L1.55019 177.163C-0.64122 170.932 -0.34906 17.4173 1.42598 13.5511C3.80731 11.9715 3.44204 12.4601 6.68532 12.2804Z" fill="#F1BD7A"/>
<path d="M165.584 12.4119L170.661 12.6602C170.8 13.581 170.836 15.7573 171.231 16.4927C172.531 18.8713 181.026 24.0534 181.881 26.2786C182.801 28.6674 182.809 183.796 181.801 193.421C180.252 195.052 178.587 194.448 177.104 195.472C171.625 199.265 177.666 201.254 165.613 201.575C151.508 201.949 25.8236 201.949 24.3189 200.418C22.1494 198.21 20.484 195.459 18.3656 193.166L17.8323 189.426C15.9112 189.377 15.6044 189.463 13.8878 188.72L13.2011 186.389L13.4276 183.496C13.0989 181.276 12.7263 179.065 12.288 176.865L13.223 171.467C17.0726 172.122 49.2936 171.698 55.0789 171.7C84.2757 171.706 113.86 171.791 143.093 171.717C144.576 171.713 157.001 171.1 157.359 170.656C160.873 166.294 158.506 166.591 164.605 164.746C164.905 115.908 164.905 67.0683 164.605 18.2301V17.586L165.051 15.9238C165.329 15.0336 165.467 13.3926 165.584 12.4119Z" fill="#8A868A"/>
<path d="M13.223 171.467C17.0726 172.122 49.2936 171.698 55.0789 171.7C84.2757 171.706 113.86 171.791 143.093 171.717C144.576 171.713 157.001 171.1 157.359 170.656C160.873 166.294 158.506 166.591 164.605 164.746L164.627 177.628C164.379 180.963 164.971 181.46 163.123 183.182C161.983 183.444 159.857 183.858 158.857 184.251C158.601 187.024 159.061 186.847 157.527 188.588C152.867 189.619 133.546 189.165 127.965 189.157L52.1789 189.046C46.2986 189.037 22.8068 188.632 17.8323 189.426C15.9112 189.377 15.6044 189.463 13.8878 188.72L13.2011 186.389L13.4276 183.496C13.0989 181.276 12.7263 179.065 12.288 176.865L13.223 171.467Z" fill="#915434"/>
<path d="M13.4276 183.496C50.1264 182.93 86.9201 183.925 123.633 183.44C134.393 183.298 146.263 183.723 156.877 183.312L158.857 184.251C158.601 187.024 159.061 186.847 157.527 188.588C152.867 189.619 133.546 189.165 127.965 189.157L52.1789 189.046C46.2986 189.037 22.8068 188.632 17.8323 189.426C15.9112 189.377 15.6044 189.463 13.8878 188.72L13.2011 186.389L13.4276 183.496Z" fill="#502A1F"/>
<path d="M164.627 177.628C164.379 180.963 164.971 181.46 163.123 183.182C161.983 183.444 159.857 183.858 158.857 184.251L156.877 183.312C159.237 181.468 158.601 181.76 159.813 178.574C161.691 177.242 161.866 177.696 164.627 177.628Z" fill="#582916"/>
<path d="M165.584 12.4119L170.661 12.6602C170.026 25.9617 170.354 41.9032 170.332 55.4771L170.413 129.019C170.456 135.295 171.304 174.311 169.565 176.751C167.914 177.871 166.6 177.652 164.627 177.628L164.605 164.746C164.905 115.908 164.905 67.0683 164.605 18.2301V17.586L165.051 15.9238C165.329 15.0336 165.467 13.3926 165.584 12.4119Z" fill="#582916"/>
<path d="M151.808 136.531C154.138 136.303 156.125 136.225 158.338 135.413C159.142 131.766 158.784 115.935 158.776 111.244L158.689 49.9817C158.674 43.1666 158.199 25.2803 159.098 19.2934C160.763 17.9708 162.078 18.371 164.605 18.2301C164.905 67.0683 164.905 115.908 164.605 164.746C158.506 166.591 160.873 166.294 157.359 170.656C157.001 171.1 144.576 171.713 143.093 171.717C113.86 171.791 84.2757 171.706 55.0789 171.7C49.2936 171.698 17.0726 172.122 13.223 171.467C12.4634 166.172 11.9155 166.968 6.97023 165.522C6.74378 164.515 6.605 161.772 6.51735 160.603C9.63645 160.229 9.44657 160.767 11.302 158.988C12.8505 154.223 12.0689 148.644 11.9009 143.425L12.6387 143.284L12.3903 142.294C20.0968 142.335 34.8961 143.149 42.3396 141.423C43.3549 141.188 43.6325 139.179 44.0415 137.863L44.363 137.162C53.4062 136.406 64.2171 123.368 72.7636 124.979L76.7885 125.243L76.4597 119.021L77.5117 115.99C78.7243 116.729 78.4101 116.743 79.0822 118.39L79.2355 118.143C79.9733 122.319 80.0464 123.908 80.0902 128.051C82.771 128.11 86.3868 128.077 88.9873 128.293L89.3379 130.312L90.2363 128.565L91.8799 128.066C97.7309 126.496 104.13 122.543 110.039 125.901C109.294 125.479 116.416 131.532 116.117 131.208C117.841 131.808 119.835 132.222 120.887 133.574C123.319 136.891 127.877 137.045 129.85 142.043L132.246 142.763C136.716 142.032 137.848 142.028 142.319 142.268L152.896 142.416L158.623 142.315C158.674 140.384 158.616 139.664 158.331 137.752C156.293 136.186 154.759 136.651 151.808 136.531Z" fill="#915434"/>
<path d="M77.5117 115.99C78.7243 116.729 78.4101 116.743 79.0822 118.39L79.2355 118.143C79.9733 122.319 80.0464 123.908 80.0902 128.051C82.771 128.11 86.3868 128.077 88.9873 128.293L89.3379 130.312L90.2363 128.565L91.8799 128.066C97.7309 126.496 104.13 122.543 110.039 125.901C109.294 125.479 116.416 131.532 116.117 131.208C117.841 131.808 119.835 132.222 120.887 133.574C123.319 136.891 127.877 137.045 129.85 142.043L132.246 142.763C132.918 144.824 133.188 145.331 132.538 147.485C130.668 148.883 131.216 148.475 128.615 148.68C124.977 147.163 122.998 145.968 119.682 143.983C118.527 145.025 118.586 145.281 118.25 146.886C115.408 148.139 109.63 148.339 108.863 148.821C98.2496 155.498 104.904 154.953 90.6089 154.898C79.6811 138.954 65.2982 155.042 57.5041 144.141C55.2616 143.63 56.1965 143.613 53.9321 144.289C52.1059 148.009 53.7276 151.457 51.6823 153.775C48.8992 153.644 45.8019 149.769 43.7858 147.635C39.6222 147.543 33.2452 146.736 30.4987 150.17C21.828 160.999 20.3159 148.984 16.6782 147.095L12.7775 147.012L12.6387 143.284L12.3903 142.294C20.0968 142.335 34.8961 143.149 42.3396 141.423C43.3549 141.188 43.6325 139.179 44.0415 137.863L44.363 137.162C53.4062 136.406 64.2171 123.368 72.7636 124.979L76.7885 125.243L76.4597 119.021L77.5117 115.99Z" fill="#AD6E42"/>
<path d="M77.5117 115.99C78.7243 116.729 78.4101 116.743 79.0822 118.39L79.2355 118.143C79.9733 122.319 80.0464 123.908 80.0902 128.051C82.771 128.11 86.3868 128.077 88.9873 128.293L89.3379 130.312C88.476 131.262 80.2582 134.157 78.023 133.336C76.6132 131.294 76.8615 127.852 76.7885 125.243L76.4597 119.021L77.5117 115.99Z" fill="#2F4D31"/>
<path d="M120.887 133.574C118.447 135.023 114.451 135.854 112.253 133.715C113.487 131.675 113.348 132.235 116.117 131.208C117.841 131.808 119.835 132.222 120.887 133.574Z" fill="#C08357"/>
<path d="M98.9216 125.707C101.434 126.072 103.925 126.469 106.409 126.983L107.183 128.251C106.519 132.982 102.523 129.918 99.8932 132.556L100.01 135.248C98.8194 137.346 97.2488 136.023 95.2547 136.85C94.5534 137.14 93.991 141.294 93.5892 142.342L91.6389 142.965C88.5198 142.99 84.9332 143.563 82.5592 141.312C82.4131 139.898 82.2523 138.662 82.6906 137.274C83.5964 134.402 91.4709 136.905 94.2028 135.555L94.6557 132.053C96.2701 130.828 96.7084 130.62 98.7099 130.316C99.6522 129.169 99.0458 127.182 98.9216 125.707Z" fill="#C08357"/>
<path d="M66.0871 128.043C66.1748 127.999 66.2624 127.946 66.3501 127.909C68.3369 127.119 70.711 127.163 72.5664 128.033C72.5664 130.741 70.3603 134.367 68.6218 136.544C65.8533 136.649 63.3478 136.62 60.6159 136.103L60.8642 136.063L58.7094 133.826C60.4114 130.658 63.7277 130.484 66.0871 128.043Z" fill="#C08357"/>
<path d="M151.808 136.531C154.138 136.303 156.125 136.225 158.338 135.413C159.142 131.766 158.784 115.935 158.776 111.244L158.689 49.9817C158.674 43.1666 158.199 25.2803 159.098 19.2934C160.763 17.9708 162.078 18.371 164.605 18.2301C164.905 67.0683 164.905 115.908 164.605 164.746C158.506 166.591 160.873 166.294 157.359 170.656C157.001 171.1 144.576 171.713 143.093 171.717C113.86 171.791 84.2757 171.706 55.0789 171.7C49.2936 171.698 17.0726 172.122 13.223 171.467C12.4634 166.172 11.9155 166.968 6.97023 165.522C6.74378 164.515 6.605 161.772 6.51735 160.603C9.63645 160.229 9.44657 160.767 11.302 158.988C12.8505 154.223 12.0689 148.644 11.9009 143.425L12.6387 143.284L12.7775 147.012C12.6679 149.95 12.0177 156.452 13.1719 158.767L13.7417 159.02C16.8608 160.432 17.2261 161.275 18.4314 164.549L18.6286 165.095C23.0479 168.044 136.292 165.02 150.544 165.707C150.895 165.724 151.501 165.21 151.771 164.99C152.692 160.218 152.597 160.153 157.739 159.002C159.032 157.322 158.849 155.854 158.886 153.754C158.214 149.727 158.331 146.348 158.623 142.315C158.674 140.384 158.616 139.664 158.331 137.752C156.293 136.186 154.759 136.651 151.808 136.531Z" fill="#C08357"/>
<path d="M152.896 142.416L158.623 142.315C158.331 146.348 158.214 149.727 158.886 153.754C155.708 152.937 152.918 153.891 148.988 153.089C144.868 148.639 142.049 148.111 142.319 142.268L152.896 142.416Z" fill="#AF7853"/>
<path d="M152.896 142.416L158.623 142.315C158.331 146.348 158.214 149.727 158.886 153.754C155.708 152.937 152.918 153.891 148.988 153.089C150.522 152.877 150.705 152.885 152.092 152.236C153.429 149.812 152.954 145.361 152.896 142.416Z" fill="#A56943"/>
<path d="M6.68532 12.2804C6.70723 11.1704 6.89715 10.0778 7.05055 8.97364C9.65833 7.1041 11.8425 3.37817 13.6979 0.63447C30.4402 -0.467538 55.6852 0.18826 73.158 0.246683C100.887 0.340891 130.23 -0.333911 157.724 0.383234C159.156 2.27688 158.711 3.36209 158.893 6.20803L159.288 6.65716C162.158 6.78277 162.582 6.28472 164.328 7.76356C164.598 8.93202 165.095 11.4486 165.584 12.4119C165.467 13.3926 165.329 15.0336 165.051 15.9238L164.605 17.586C160.917 17.7342 158.842 17.8153 155.153 18.4864L150.734 12.7047C138.243 11.6991 24.5015 11.071 18.2633 12.9902C17.4379 15.983 18.2633 16.4759 15.5314 18.0234C13.749 19.0268 12.4926 19.7374 12.3319 21.9553C11.6599 30.9233 11.8352 40.0636 11.8132 49.0651L11.9155 106.518C11.9375 112.88 11.3603 138.581 11.9009 143.425C12.0689 148.644 12.8505 154.223 11.302 158.988C9.44657 160.767 9.63645 160.229 6.51735 160.603C6.605 161.772 6.74378 164.515 6.97023 165.522C11.9155 166.968 12.4634 166.172 13.223 171.467L12.288 176.865C10.4838 176.889 8.18282 176.754 6.33473 176.693L1.55019 177.163C-0.64122 170.932 -0.34906 17.4173 1.42598 13.5511C3.80731 11.9715 3.44204 12.4601 6.68532 12.2804Z" fill="#FAD39D"/>
<path d="M1.55019 177.163C-0.64122 170.932 -0.34906 17.4173 1.42598 13.5511C3.80731 11.9715 3.44204 12.4601 6.68532 12.2804C7.94172 55.4464 5.73578 99.5632 6.61964 142.815C6.73652 148.346 6.82415 155.107 6.51735 160.603C6.605 161.772 6.74378 164.515 6.97023 165.522C11.9155 166.968 12.4634 166.172 13.223 171.467L12.288 176.865C10.4838 176.889 8.18282 176.754 6.33473 176.693L1.55019 177.163Z" fill="#5B3021"/>
<path d="M6.97023 165.522C11.9155 166.968 12.4634 166.172 13.223 171.467L12.288 176.865C10.4838 176.889 8.18282 176.754 6.33473 176.693C7.49618 171.535 7.40851 170.66 6.97023 165.522Z" fill="#7F472B"/>
<path d="M6.68532 12.2804C6.70723 11.1704 6.89715 10.0778 7.05055 8.97364C9.65833 7.1041 11.8425 3.37817 13.6979 0.63447C30.4402 -0.467538 55.6852 0.18826 73.158 0.246683C100.887 0.340891 130.23 -0.333911 157.724 0.383234C159.156 2.27688 158.711 3.36209 158.893 6.20803C152.144 7.03545 133.341 6.5907 125.891 6.58267L49.8414 6.56515C44.6551 6.57318 14.8008 5.43393 12.3538 8.23313L12.2077 11.5574C10.4984 12.8741 9.53417 12.639 7.01405 12.3242L6.68532 12.2804Z" fill="#5B3021"/>
<path d="M159.288 6.65716C162.158 6.78277 162.582 6.28472 164.328 7.76356C164.598 8.93202 165.095 11.4486 165.584 12.4119C165.467 13.3926 165.329 15.0336 165.051 15.9238L164.401 13.722C163.02 13.2648 161.625 12.8427 160.223 12.4564C158.718 10.1268 159.258 9.95588 159.288 6.65716Z" fill="#6C4433"/>
<path d="M62.4202 48.3487L82.1282 48.3976C85.7805 53.181 90.5505 56.8559 94.6338 62.1505C94.5827 65.2133 93.8595 72.9967 95.9048 74.8641C97.2196 73.9943 97.7164 73.2589 98.7244 72.0583C106.409 70.7971 117.812 72.0576 122.625 78.815C129.178 85.2846 125.357 85.6103 127.958 89.8526L125.569 89.6773C123.166 92.1939 125.146 98.126 124.094 101.736C122.063 101.781 118.951 101.892 117.008 101.74C111.793 101.328 101.529 95.1654 100.324 89.8175C99.4549 87.4609 100.12 88.2065 97.7968 87.0643C91.7266 87.8925 89.6082 93.3777 86.0654 97.907C85.0136 99.2522 85.0428 102.441 84.999 104.25C84.8383 106.585 84.904 110.222 83.4942 111.888C81.1786 112.443 82.1136 112.498 79.9295 111.752C81.2443 114.008 85.2838 113.588 83.4942 118.89C81.9821 123.346 80.5139 122.713 80.0902 128.051C80.0464 123.908 79.9733 122.319 79.2355 118.143L79.0822 118.39C78.4101 116.743 78.7243 116.729 77.5117 115.99C76.9565 114.359 75.722 113.711 75.4736 112.815C74.4583 109.18 74.7724 106.983 71.5803 104.353C69.272 104.798 65.437 109.678 62.632 111.72C57.8621 115.196 57.7525 111.791 54.1732 114.287C54.0928 116.09 54.0198 116.724 53.618 118.483C50.2724 119.638 37.2409 119.061 32.8946 118.977C32.4709 87.1432 38.2197 102.591 42.4418 88.4263C56.8248 77.5077 70.3239 90.7129 79.9076 86.1872L80.3459 84.6836C79.1845 79.3875 69.0674 75.3366 65.4443 71.2141C61.5144 66.7396 62.3179 54.1662 62.4202 48.3487Z" fill="#325E39"/>
<path d="M90.4848 81.0504C92.0772 81.2191 94.5607 81.509 95.9851 80.8247C103.041 77.4362 107.3 77.3661 114.861 78.1563C116.351 78.98 116.475 79.4971 117.381 81.0241L120.127 81.8355L122.625 78.815C129.178 85.2846 125.357 85.6103 127.958 89.8526L125.569 89.6773C123.166 92.1939 125.146 98.126 124.094 101.736C122.063 101.781 118.951 101.892 117.008 101.74C111.793 101.328 101.529 95.1654 100.324 89.8175C99.4549 87.4609 100.12 88.2065 97.7968 87.0643C91.7266 87.8925 89.6082 93.3777 86.0654 97.907C85.0136 99.2522 85.0428 102.441 84.999 104.25C84.8383 106.585 84.904 110.222 83.4942 111.888C81.1786 112.443 82.1136 112.498 79.9295 111.752C79.6446 102.329 74.8747 99.0309 66.0287 99.0097C50.1702 97.9172 56.4887 101.171 45.5025 104.56L44.5017 103.83L44.8451 102.33C51.1783 98.3356 49.9949 96.3916 58.6875 92.1114L59.038 91.043C56.8978 89.5875 54.6041 89.8373 51.989 89.7905C55.2323 89.4809 59.2791 89.0588 62.2448 90.3463C67.1097 92.4619 75.9119 93.1382 80.2144 95.6599C81.8141 95.4116 82.4788 95.5941 83.5087 94.6375C84.8674 88.7615 88.0158 89.226 89.1918 81.937L90.4848 81.0504Z" fill="#5D985B"/>
<path d="M122.625 78.815C129.178 85.2846 125.357 85.6103 127.958 89.8526L125.569 89.6773C123.166 92.1939 125.146 98.126 124.094 101.736C122.063 101.781 118.951 101.892 117.008 101.74C111.793 101.328 101.529 95.1654 100.324 89.8175L101.025 87.7457C102.581 86.4932 105.649 86.8124 107.826 86.7992C110.916 88.687 114.115 92.134 116.73 92.5795L117.498 92.0193C114.291 84.9436 103.852 80.3895 103.319 78.9179C106.168 78.2994 111.749 78.268 114.861 78.1563C116.351 78.98 116.475 79.4971 117.381 81.0241L120.127 81.8355L122.625 78.815Z" fill="#81BF63"/>
<path d="M122.625 78.815C129.178 85.2846 125.357 85.6103 127.958 89.8526L125.569 89.6773C123.166 92.1939 125.146 98.126 124.094 101.736C123.736 99.7122 124.006 93.6516 123.188 92.2487C121.625 89.5722 121.018 83.8051 120.127 81.8355L122.625 78.815Z" fill="#3A6D39"/>
<path d="M38.9721 113.516C39.0744 106.558 37.8545 95.7095 45.393 92.1063C47.9496 90.883 49.0964 89.8 51.989 89.7905C54.6041 89.8373 56.8978 89.5875 59.038 91.043L58.6875 92.1114C49.9949 96.3916 51.1783 98.3356 44.8451 102.33L44.5017 103.83L45.5025 104.56C56.4887 101.171 50.1702 97.9172 66.0287 99.0097C64.429 108.268 58.8847 105.27 53.9541 109.042C46.3499 114.851 49.3083 113.755 38.9721 113.516Z" fill="#81BF63"/>
<path d="M68.0375 54.1436C76.0069 53.9741 83.1728 52.4807 86.6571 61.1149L88.7901 62.8136C88.4833 66.828 88.7536 73.8044 87.709 76.9922L86.4672 77.7283C85.2547 76.8812 85.24 76.9586 84.6118 75.6587L83.4942 75.5031C80.8791 75.3673 77.6577 75.3578 75.9119 73.4612C75.5686 72.8682 75.1303 72.0649 74.4875 71.7049C66.8103 67.4392 68.001 60.5205 68.0375 54.1436Z" fill="#81BF63"/>
<path d="M75.9119 73.4612C76.8542 73.0815 77.9206 72.5695 78.8629 72.1474C81.1493 65.8034 72.6832 66.1349 74.7577 60.8754L76.1602 60.3218C79.8783 61.6626 80.9375 66.901 84.9624 66.9602C86.5986 65.3411 86.4672 63.446 86.6571 61.1149L88.7901 62.8136C88.4833 66.828 88.7536 73.8044 87.709 76.9922L86.4672 77.7283C85.2547 76.8812 85.24 76.9586 84.6118 75.6587L83.4942 75.5031C80.8791 75.3673 77.6577 75.3578 75.9119 73.4612Z" fill="#5D985B"/>
<path d="M88.7901 62.8136C89.6885 67.8146 89.1114 74.8363 90.9887 78.9837L90.4848 81.0504L89.1918 81.937C88.0158 89.226 84.8674 88.7615 83.5087 94.6375C82.9171 87.233 87.7601 85.9623 85.9851 78.8778C84.6337 78.2848 84.378 78.1446 83.1727 77.293L83.4942 75.5031L84.6118 75.6587C85.24 76.9586 85.2547 76.8812 86.4672 77.7283L87.709 76.9922C88.7536 73.8044 88.4833 66.828 88.7901 62.8136Z" fill="#548A57"/>
<path d="M84.999 104.25C85.0428 102.441 85.0136 99.2522 86.0654 97.907C89.6082 93.3777 91.7266 87.8925 97.7968 87.0643C100.12 88.2065 99.4549 87.4609 100.324 89.8175C101.529 95.1654 111.793 101.328 117.008 101.74C118.951 101.892 122.063 101.781 124.094 101.736C125.146 98.126 123.166 92.1939 125.569 89.6773L127.958 89.8526C131.033 92.5795 129.652 102.961 129.536 107.465C121.53 107.637 110.288 108.149 103.619 102.479C99.959 99.3675 99.7472 94.9821 94.0422 94.7338C91.2883 96.3792 90.6162 98.3794 89.7324 101.374C87.3949 109.357 94.2759 110.188 94.9406 118.937C95.1744 123.437 95.4227 125.133 91.8799 128.066L90.2363 128.565L89.3379 130.312L88.9873 128.293C86.3868 128.077 82.771 128.11 80.0902 128.051C80.5139 122.713 81.9821 123.346 83.4942 118.89C85.2838 113.588 81.2443 114.008 79.9295 111.752C82.1136 112.498 81.1786 112.443 83.4942 111.888C84.904 110.222 84.8383 106.585 84.999 104.25Z" fill="#325E39"/>
<path d="M84.999 104.25C85.6126 114.43 90.8719 113.58 88.9873 128.293C86.3868 128.077 82.771 128.11 80.0902 128.051C80.5139 122.713 81.9821 123.346 83.4942 118.89C85.2838 113.588 81.2443 114.008 79.9295 111.752C82.1136 112.498 81.1786 112.443 83.4942 111.888C84.904 110.222 84.8383 106.585 84.999 104.25Z" fill="#548A57"/>
<path d="M94.9406 118.937L110.207 118.954L113.955 123.818C116.891 124.198 120.032 124.101 122.099 125.697L122.26 126.195C122.866 127.971 123.005 128.416 124.459 129.718C129.324 130.335 129.967 129.463 130.383 134.736C132.903 137.835 147.688 136.735 151.808 136.531C154.759 136.651 156.293 136.186 158.331 137.752C158.616 139.664 158.674 140.384 158.623 142.315L152.896 142.416L142.319 142.268C137.848 142.028 136.716 142.032 132.246 142.763L129.85 142.043C127.877 137.045 123.319 136.891 120.887 133.574C119.835 132.222 117.841 131.808 116.117 131.208C116.416 131.532 109.294 125.479 110.039 125.901C104.13 122.543 97.7309 126.496 91.8799 128.066C95.4227 125.133 95.1744 123.437 94.9406 118.937Z" fill="#5B3021"/>
<path d="M12.3903 142.294C12.3976 139.918 12.4634 139.362 12.9601 137.036C15.9185 136.123 36.6638 136.017 40.0824 136.739C41.5068 137.904 42.1934 137.758 44.0415 137.863C43.6325 139.179 43.3549 141.188 42.3396 141.423C34.8961 143.149 20.0968 142.335 12.3903 142.294Z" fill="#5B3021"/>
<path d="M59.6955 119.924C60.6889 121.846 60.667 122.947 62.8657 123.235C66.1528 123.665 69.535 124.435 72.7636 124.979C64.2171 123.368 53.4062 136.406 44.363 137.162L44.0415 137.863C42.1934 137.758 41.5068 137.904 40.0824 136.739C41.0905 136.316 41.7625 135.786 42.6537 135.164L42.9896 132.248C45.276 129.307 48.0153 131.543 50.8422 129.634C53.6326 127.748 55.561 125.594 58.6363 123.617L58.9357 123.428L59.6955 119.924Z" fill="#5B3021"/>
<path d="M59.6955 119.924C64.4509 118.679 71.3538 119.026 76.4597 119.021L76.7885 125.243L72.7636 124.979C69.535 124.435 66.1528 123.665 62.8657 123.235C60.667 122.947 60.6889 121.846 59.6955 119.924Z" fill="#582916"/>
<path d="M1.55019 177.163L6.33473 176.693C8.18282 176.754 10.4838 176.889 12.288 176.865C12.7263 179.065 13.0989 181.276 13.4276 183.496L13.2011 186.389C11.9374 184.26 10.4473 183.97 8.11708 183.23L7.64229 183.082C5.85264 180.713 6.26167 181.765 6.23976 178.735C4.56699 177.176 4.26022 177.594 1.55019 177.163Z" fill="#593429"/>
</svg>
