<svg width="183" height="201" viewBox="0 0 183 201" fill="none" xmlns="http://www.w3.org/2000/svg">
<path d="M12.1412 5.9355C12.3655 2.83322 11.8125 2.25702 13.5211 0.664991C20.0376 -0.426063 156.967 0.00407261 158.745 0.683973C159.687 2.50094 159.483 4.18353 159.45 6.21592L160.512 5.96032C163.419 6.41457 163.486 5.9238 165.154 7.63122L165.516 11.4959C168.802 11.7858 168.414 11.2666 170.723 12.9813C171.211 14.6311 171.497 15.4826 171.65 17.2265L175.279 17.6932C176.727 19.6942 177.357 21.6272 178.199 23.4982C178.542 24.2607 182.397 23.4822 182.558 25.9732C182.928 31.7067 182.736 38.031 182.677 43.6886L182.374 80.7859L182.414 157.575C182.417 168.713 182.787 181.362 181.843 192.455C181.687 194.3 175.755 197.288 174.325 198.569C172.565 200.144 168.849 200.394 166.276 200.407C152.827 200.477 139.293 200.097 125.818 200.156L26.595 200.34C23.408 197.637 20.492 195.029 18.2772 191.439C16.5884 188.703 16.7315 189.195 13.7979 188.285C9.09953 179.003 7.84096 185.897 5.31646 177.674L1.32952 176.807C0.24989 173.914 0.197296 169.871 0.165156 166.782C-0.176704 133.945 0.200263 100.552 0.113337 67.7546C0.0921532 60.0055 -0.383353 17.6355 0.786127 12.8754C2.84897 11.1753 2.69041 11.7238 5.97241 11.5836C5.77737 9.43212 5.72334 9.03776 6.2113 6.94548C8.33039 5.56085 9.17334 6.03409 12.1412 5.9355Z" fill="#F1BD7A"/>
<path d="M165.516 11.4959C168.802 11.7858 168.414 11.2666 170.723 12.9813C171.211 14.6311 171.497 15.4826 171.65 17.2265L175.279 17.6932C176.727 19.6942 177.357 21.6272 178.199 23.4982C178.542 24.2607 182.397 23.4822 182.558 25.9732C182.928 31.7067 182.736 38.031 182.677 43.6886L182.374 80.7859L182.414 157.575C182.417 168.713 182.787 181.362 181.843 192.455C181.687 194.3 175.755 197.288 174.325 198.569C172.565 200.144 168.849 200.394 166.276 200.407C152.827 200.477 139.293 200.097 125.818 200.156L26.595 200.34C23.408 197.637 20.492 195.029 18.2772 191.439C16.5884 188.703 16.7315 189.195 13.7979 188.285C9.09953 179.003 7.84096 185.897 5.31646 177.674L1.32952 176.807C3.20245 176.849 4.02276 177.009 5.66485 176.014C8.98264 170.676 5.21274 166.499 6.36907 160.87L6.95928 164.224C7.90159 164.786 8.04621 164.973 9.14776 165.116C12.559 166.012 11.2961 166.837 13.364 170.244C23.5044 172.098 66.8592 171.516 78.7125 171.501L128.691 171.338C137.777 171.226 147.192 171.038 156.264 170.374C159.229 170.157 158.648 168.086 160.437 165.998C161.521 164.733 163.338 165.057 165.386 164.913L165.516 11.4959Z" fill="#8A868A"/>
<path d="M6.36907 160.87L6.95928 164.224C7.90159 164.786 8.04621 164.973 9.14776 165.116C12.559 166.012 11.2961 166.837 13.364 170.244C23.5044 172.098 66.8592 171.516 78.7125 171.501L128.691 171.338C137.777 171.226 147.192 171.038 156.264 170.374C159.229 170.157 158.648 168.086 160.437 165.998C161.521 164.733 163.338 165.057 165.386 164.913L165.432 176.481L165.918 176.956C164.307 182.114 165.486 182.222 159.918 183.063C159.508 186.005 159.971 186.269 158.317 188.107C151.293 189.065 120.869 188.569 112.457 188.478C83.2261 188.163 53.0533 188.994 23.9478 188.417C20.8645 188.548 16.947 188.353 13.7979 188.285C9.09953 179.003 7.84096 185.897 5.31646 177.674L1.32952 176.807C3.20245 176.849 4.02276 177.009 5.66485 176.014C8.98264 170.676 5.21274 166.499 6.36907 160.87Z" fill="#915434"/>
<path d="M5.31646 177.674C7.42679 177.254 8.98342 176.683 10.9345 177.419C12.6745 179.861 14.6723 182.759 17.8725 182.875C25.8894 183.165 34.9691 182.752 43.0043 182.729L97.1773 182.724C104.554 182.741 114.901 182.355 122.034 182.734C133.384 182.714 147.529 183.075 158.656 182.48L159.918 183.063C159.508 186.005 159.971 186.269 158.317 188.107C151.293 189.065 120.869 188.569 112.457 188.478C83.2261 188.163 53.0533 188.994 23.9478 188.417C20.8645 188.548 16.947 188.353 13.7979 188.285C9.09953 179.003 7.84096 185.897 5.31646 177.674Z" fill="#502A1F"/>
<path d="M5.31646 177.674C7.42679 177.254 8.98342 176.683 10.9345 177.419C12.6745 179.861 14.6723 182.759 17.8725 182.875C25.8894 183.165 34.9691 182.752 43.0043 182.729L97.1773 182.724C104.554 182.741 114.901 182.355 122.034 182.734C106.482 186.15 19.8075 180.725 13.8388 184.827L14.1442 186.095C16.283 187.371 20.4708 187.345 23.9478 188.417C20.8645 188.548 16.947 188.353 13.7979 188.285C9.09953 179.003 7.84096 185.897 5.31646 177.674Z" fill="#5B3021"/>
<path d="M165.432 176.481L165.918 176.956C164.307 182.114 165.486 182.222 159.918 183.063L158.656 182.48C158.767 180.416 158.762 179.924 159.447 177.986C161.765 176.328 162.16 176.807 165.432 176.481Z" fill="#5B3021"/>
<path d="M165.516 11.4959C168.802 11.7858 168.414 11.2666 170.723 12.9813C171.211 14.6311 171.497 15.4826 171.65 17.2265C170.627 26.2763 171.319 48.353 171.331 58.4587L171.325 139.946C171.332 150.878 171.471 162.488 171.169 173.439C171.124 175.063 170.672 175.22 169.656 176.475C167.893 176.977 167.71 177.095 165.918 176.956L165.432 176.481L165.386 164.913L165.516 11.4959Z" fill="#582916"/>
<path d="M159.149 12.048C159.266 9.55698 159.119 8.01828 160.512 5.96032C163.419 6.41457 163.486 5.9238 165.154 7.63122L165.516 11.4959L165.386 164.913C163.338 165.057 161.521 164.733 160.437 165.998C158.648 168.086 159.229 170.157 156.264 170.374C147.192 171.038 137.777 171.226 128.691 171.338L78.7125 171.501C66.8592 171.516 23.5044 172.098 13.364 170.244C11.2961 166.837 12.559 166.012 9.14776 165.116L11.001 164.654C12.3969 162.432 11.9331 161.535 12.0529 158.502L12.5634 158.508L12.8834 155.429C14.4955 153.583 14.765 154.064 17.7439 153.442L18.0018 147.482L28.1378 147.5C32.308 147.467 38.818 147.236 42.7421 147.772C44.428 147.672 44.9298 147.562 46.5646 147.125L47.3111 145.364L47.6157 145.353C47.6077 143.755 47.6004 143.84 48.2819 142.387C52.9189 141.389 58.5968 138.193 62.5377 135.636C67.6934 135.587 71.8564 135.553 76.9828 135.987L77.1354 138.853C83.275 138.696 89.4153 138.58 95.5564 138.507C99.7588 136.83 95.5513 136.481 100.172 136.016C103.967 139.005 102.418 144.545 106.399 146.816C108.162 147.329 108.453 147.935 109.604 149.407L112.394 150.372C114.4 150.106 118.347 150.664 120.866 150.158C129.992 148.322 133.268 147.005 142.83 147.448L152.903 147.288C156.935 147.453 157.712 148.139 159.38 144.479L157.919 141.271C161.08 136.944 156.469 34.9178 159.985 18.1905C162.524 17.0885 164.342 16.7306 164.762 13.8694C163.426 12.4876 163.943 12.9185 161.749 12.4752L159.149 12.048Z" fill="#915434"/>
<path d="M159.149 12.048C159.266 9.55698 159.119 8.01828 160.512 5.96032C163.419 6.41457 163.486 5.9238 165.154 7.63122L165.516 11.4959L165.386 164.913C163.338 165.057 161.521 164.733 160.437 165.998C158.648 168.086 159.229 170.157 156.264 170.374C147.192 171.038 137.777 171.226 128.691 171.338L78.7125 171.501C66.8592 171.516 23.5044 172.098 13.364 170.244C11.2961 166.837 12.559 166.012 9.14776 165.116L11.001 164.654C12.3969 162.432 11.9331 161.535 12.0529 158.502L12.5634 158.508C16.6226 160.233 15.3597 160.45 18.4299 164.243C29.953 166.353 50.4083 165.424 62.6174 165.588C92.5016 165.99 122.587 165.037 152.468 165.317C156.841 152.95 159.619 164.02 159.38 144.479L157.919 141.271C161.08 136.944 156.469 34.9178 159.985 18.1905C162.524 17.0885 164.342 16.7306 164.762 13.8694C163.426 12.4876 163.943 12.9185 161.749 12.4752L159.149 12.048Z" fill="#C08357"/>
<path d="M159.149 12.048C159.266 9.55698 159.119 8.01828 160.512 5.96032C163.419 6.41457 163.486 5.9238 165.154 7.63122L165.516 11.4959L159.149 12.048Z" fill="#733F29"/>
<path d="M62.5377 135.636C67.6934 135.587 71.8564 135.553 76.9828 135.987L77.1354 138.853C83.275 138.696 89.4153 138.58 95.5564 138.507C99.7588 136.83 95.5513 136.481 100.172 136.016C103.967 139.005 102.418 144.545 106.399 146.816C105.472 147.452 104.759 148.097 103.667 148.243C101.18 147.163 100.568 147.182 97.8566 146.978C93.0143 149.343 95.0655 153.9 88.3182 153.547C82.6468 153.25 84.3086 150.48 81.4328 147.406C76.5306 147.227 77.0171 147.79 75.7454 152.296C72.8571 154.667 59.3207 153.345 54.908 153.246C53.7166 155.182 53.3952 155.736 51.7845 157.399C47.3549 157.868 47.0905 154.658 44.292 152.522C41.826 150.64 42.4528 150.808 42.7421 147.772C44.428 147.672 44.9298 147.562 46.5646 147.125L47.3111 145.364L47.6157 145.353C47.6077 143.755 47.6004 143.84 48.2819 142.387C52.9189 141.389 58.5968 138.193 62.5377 135.636Z" fill="#AD6E42"/>
<path d="M62.5377 135.636C67.6934 135.587 71.8564 135.553 76.9828 135.987C76.3444 138.111 76.2019 139.411 74.3188 140.635C70.0543 141.328 69.6401 139.621 65.7394 141.414C65.3976 142.708 64.7971 146.019 63.9322 146.381C60.8263 147.679 52.6786 147.163 49.3389 147.101C47.8634 146.211 48.3929 146.799 47.6157 145.353C47.6077 143.755 47.6004 143.84 48.2819 142.387C52.9189 141.389 58.5968 138.193 62.5377 135.636Z" fill="#C08357"/>
<path d="M77.1354 138.853C83.275 138.696 89.4153 138.58 95.5564 138.507C90.5819 143.662 82.5416 142.69 77.1354 138.853Z" fill="#915434"/>
<path d="M142.83 147.448L152.903 147.288C152.028 155.886 143.448 155.257 141.265 149.669L142.83 147.448Z" fill="#AD6E42"/>
<path d="M18.0018 147.482L28.1378 147.5C28.0472 150.989 28.6045 150.469 26.8003 152.75C24.4533 153.876 20.4846 153.491 17.7439 153.442L18.0018 147.482Z" fill="#AF7853"/>
<path d="M106.399 146.816C108.162 147.329 108.453 147.935 109.604 149.407L112.394 150.372C112.61 151.849 112.579 151.774 111.999 153.177C108.791 154.943 107.567 154.983 104.423 153.489C102.785 151.325 103.339 151.737 103.667 148.243C104.759 148.097 105.472 147.452 106.399 146.816Z" fill="#AF7853"/>
<path d="M80.7666 76.7773L82.6403 76.1653C83.1056 72.4438 82.2998 67.6932 83.3218 65.5878L85.4832 64.5866C86.2911 57.2464 86.8068 56.5454 91.8887 50.9353C105.557 35.8445 117.002 37.8265 135.66 38.1333C135.916 46.2315 135.804 49.3052 133.22 56.9755C129.131 69.1202 118.164 83.8078 104.646 85.2918C101.815 85.6029 97.6842 84.6915 95.1575 86.4734C91.9566 92.4734 93.2912 95.6794 88.3547 98.315C88.0647 97.5044 87.8295 96.8822 87.2166 96.2571L87.7221 94.6775C87.8631 95.3413 87.8835 94.9959 87.5731 95.705L86.229 96.1702L82.6957 98.3026L81.4466 97.5154C79.9455 95.7028 80.3539 93.5886 80.4386 91.167L79.9762 91.2918C79.9864 96.1534 78.0039 100.168 77.8016 106.274L77.1449 106.513C77.1201 108.397 77.0558 113.614 77.4744 115.164C80.2341 125.391 83.901 125.412 82.4196 136.278C78.7286 136.002 77.1602 131.88 76.348 128.911C76.2946 128.696 76.2413 128.482 76.188 128.267C69.4881 115.927 70.4581 116.947 70.7847 103.182C66.8759 103.208 62.9672 103.188 59.0592 103.12C51.2753 102.917 45.2263 96.9969 40.1108 91.6738C28.3174 79.399 29.8207 77.1571 30.2335 61.729C39.132 61.7625 47.9137 60.8044 56.6976 62.4863C66.1287 64.293 69.0944 72.7651 76.5817 76.9833L80.7666 76.7773Z" fill="#325E39"/>
<path d="M91.7974 63.5598C95.8639 50.4372 106.117 42.8641 120.047 43.7791C122.91 43.9675 127.01 43.4249 129.533 44.7008C131.471 51.1244 119.482 71.4608 113.738 72.6877L111.966 76.6692C109.844 77.0168 109.321 77.0877 107.34 77.9253C100.859 80.6676 89.6958 77.6851 88.9909 87.406C88.0559 88.1348 87.4014 88.6964 86.3371 89.255C85.8842 92.4041 85.8703 93.0102 86.229 96.1702L82.6957 98.3026L81.4466 97.5154C79.9455 95.7028 80.3539 93.5886 80.4386 91.167C81.0719 89.3668 81.9032 87.904 82.7841 86.2199C83.3948 83.3974 87.6694 76.2771 89.2217 73.5903C89.126 70.8715 88.7966 65.9033 90.2612 63.738L91.7974 63.5598Z" fill="#81BF63"/>
<path d="M91.7974 63.5598L93.5183 64.6318C98.8544 63.2392 110.859 48.5998 117.034 50.2159C118.348 51.9503 117.971 51.1682 118.06 53.8111C106.966 61.4098 108.293 60.4203 98.9194 70.6268L99.2759 72.4854C102.163 74.3338 110.203 73.0754 113.738 72.6877L111.966 76.6692C109.844 77.0168 109.321 77.0877 107.34 77.9253C100.859 80.6676 89.6958 77.6851 88.9909 87.406C88.0559 88.1348 87.4014 88.6964 86.3371 89.255C85.8842 92.4041 85.8703 93.0102 86.229 96.1702L82.6957 98.3026L81.4466 97.5154C79.9455 95.7028 80.3539 93.5886 80.4386 91.167C81.0719 89.3668 81.9032 87.904 82.7841 86.2199C83.3948 83.3974 87.6694 76.2771 89.2217 73.5903C89.126 70.8715 88.7966 65.9033 90.2612 63.738L91.7974 63.5598Z" fill="#548A57"/>
<path d="M82.7841 86.2199L84.2903 86.0228L84.6256 85.5357C85.7681 83.9006 86.0624 83.3901 87.9996 82.6729C89.0771 83.948 88.6987 84.154 88.652 86.1973C87.7382 87.7339 87.6161 88.0428 86.3371 89.255C85.8842 92.4041 85.8703 93.0102 86.229 96.1702L82.6957 98.3026L81.4466 97.5154C79.9455 95.7028 80.3539 93.5886 80.4386 91.167C81.0719 89.3668 81.9032 87.904 82.7841 86.2199Z" fill="#6FAA66"/>
<path d="M111.966 76.6692C107.833 76.2902 99.1598 76.7313 96.468 74.6302C97.224 73.2763 97.9114 71.7339 98.9194 70.6268L99.2759 72.4854C102.163 74.3338 110.203 73.0754 113.738 72.6877L111.966 76.6692Z" fill="#6FAA66"/>
<path d="M35.4847 67.8948C52.5806 67.6457 58.9868 64.9145 70.2098 79.9811L71.5904 80.3886C73.3888 85.8161 71.4158 92.3654 79.9762 91.2918C79.9864 96.1534 78.0039 100.168 77.8016 106.274L77.1449 106.513L77.0966 97.7717C73.7817 97.7848 58.0014 98.5911 55.8977 97.132C54.7538 96.3389 54.5033 95.1719 52.867 94.2553C49.8231 93.8427 50.8845 94.3393 48.7443 92.1265C45.097 83.6909 34.8105 84.0795 35.4847 67.8948Z" fill="#81BF63"/>
<path d="M64.5554 91.1436C58.0651 79.578 48.5362 80.5106 46.1702 74.742C48.2308 73.1996 50.0803 73.434 52.9094 73.085C56.8525 76.7335 63.5443 82.4298 68.5327 84.0568L69.7591 83.2929L70.2098 79.9811L71.5904 80.3886C73.3888 85.8161 71.4158 92.3654 79.9762 91.2918C79.9864 96.1534 78.0039 100.168 77.8016 106.274L77.1449 106.513L77.0966 97.7717C73.7817 97.7848 58.0014 98.5911 55.8977 97.132C54.7538 96.3389 54.5033 95.1719 52.867 94.2553C56.7582 93.7398 61.8767 95.3369 64.6751 93.0913L64.5554 91.1436Z" fill="#548A57"/>
<path d="M64.5554 91.1436L64.6751 93.0913C61.8767 95.3369 56.7582 93.7398 52.867 94.2553C49.8231 93.8427 50.8845 94.3393 48.7443 92.1265C53.7414 91.4737 58.5567 92.1068 64.5554 91.1436Z" fill="#5D985B"/>
<path d="M76.5817 76.9833L80.7666 76.7773C79.443 79.3194 80.478 80.1936 78.2662 82.2158C76.8133 80.8428 76.8293 78.9777 76.5817 76.9833Z" fill="#FAD39D"/>
<path d="M12.1412 5.9355C12.3655 2.83322 11.8125 2.25702 13.5211 0.664991C20.0376 -0.426063 156.967 0.00407261 158.745 0.683973C159.687 2.50094 159.483 4.18353 159.45 6.21592L160.512 5.96032C159.119 8.01828 159.266 9.55698 159.149 12.048L161.749 12.4752C159.749 15.2898 159.955 16.0018 157.262 17.0571C154.566 16.2319 153.467 13.9168 151.864 11.5083L58.6728 11.2162C51.6487 11.2257 24.0903 11.0001 18.3685 12.0721C17.1757 13.6956 17.3677 14.8385 17.2947 16.8855C12.8819 20.932 12.0813 14.4558 11.5291 26.8693C9.8315 65.0036 10.8885 104.488 12.1537 142.622L12.6774 142.359C12.9002 145.65 12.3166 145.546 14.1435 147.273L18.0018 147.482L17.7439 153.442C14.765 154.064 14.4955 153.583 12.8834 155.429L12.5634 158.508L12.0529 158.502C11.9331 161.535 12.3969 162.432 11.001 164.654L9.14776 165.116C8.04621 164.973 7.90159 164.786 6.95928 164.224L6.36907 160.87C5.21274 166.499 8.98264 170.676 5.66485 176.014C4.02276 177.009 3.20245 176.849 1.32952 176.807C0.24989 173.914 0.197296 169.871 0.165156 166.782C-0.176704 133.945 0.200263 100.552 0.113337 67.7546C0.0921532 60.0055 -0.383353 17.6355 0.786127 12.8754C2.84897 11.1753 2.69041 11.7238 5.97241 11.5836C5.77737 9.43212 5.72334 9.03776 6.2113 6.94548C8.33039 5.56085 9.17334 6.03409 12.1412 5.9355Z" fill="#FAD39D"/>
<path d="M1.32952 176.807C0.24989 173.914 0.197296 169.871 0.165156 166.782C-0.176704 133.945 0.200263 100.552 0.113337 67.7546C0.0921532 60.0055 -0.383353 17.6355 0.786127 12.8754C2.84897 11.1753 2.69041 11.7238 5.97241 11.5836C7.8614 46.3556 4.56769 87.5323 6.4428 122.848C6.35661 135.373 6.09442 148.386 6.36907 160.87C5.21274 166.499 8.98264 170.676 5.66485 176.014C4.02276 177.009 3.20245 176.849 1.32952 176.807Z" fill="#5B3021"/>
<path d="M12.1412 5.9355C12.3655 2.83322 11.8125 2.25702 13.5211 0.664991C20.0376 -0.426063 156.967 0.00407261 158.745 0.683973C159.687 2.50094 159.483 4.18353 159.45 6.21592C154.537 5.39289 123.051 5.85954 115.403 5.86465L12.1412 5.9355Z" fill="#593429"/>
<path d="M6.4428 122.848C8.14845 125.755 6.559 151.073 7.39611 157.585L8.29742 157.75L11.9893 153.785L12.0529 158.502C11.9331 161.535 12.3969 162.432 11.001 164.654L9.14776 165.116C8.04621 164.973 7.90159 164.786 6.95928 164.224L6.36907 160.87C6.09442 148.386 6.35661 135.373 6.4428 122.848Z" fill="#E0A577"/>
<path d="M12.1537 142.622L12.6774 142.359C12.9002 145.65 12.3166 145.546 14.1435 147.273L18.0018 147.482L17.7439 153.442C14.765 154.064 14.4955 153.583 12.8834 155.429L12.5634 158.508L12.0529 158.502L11.9893 153.785L12.1537 142.622Z" fill="#985B36"/>
<path d="M12.1412 5.9355C11.9352 8.97497 12.4115 9.19186 10.8935 11.2929C8.75181 11.8187 8.09223 11.7157 5.97241 11.5836C5.77737 9.43212 5.72334 9.03776 6.2113 6.94548C8.33039 5.56085 9.17334 6.03409 12.1412 5.9355Z" fill="#6C4433"/>
<path d="M97.4388 129.341C99.0736 129.369 106.733 129.555 107.394 129.004C121.004 117.663 125.073 121.7 135.312 134.256C135.772 134.82 135.619 139.885 135.597 140.926L135.588 141.353C141.083 141.113 152.962 140.329 157.919 141.271L159.38 144.479C157.712 148.139 156.935 147.453 152.903 147.288L142.83 147.448C133.268 147.005 129.992 148.322 120.866 150.158C118.347 150.664 114.4 150.106 112.394 150.372L109.604 149.407C108.453 147.935 108.162 147.329 106.399 146.816C102.418 144.545 103.967 139.005 100.172 136.016C95.5513 136.481 99.7588 136.83 95.5564 138.507C89.4153 138.58 83.275 138.696 77.1354 138.853L76.9828 135.987C71.8564 135.553 67.6934 135.587 62.5377 135.636C58.5968 138.193 52.9189 141.389 48.2819 142.387C47.6004 143.84 47.6077 143.755 47.6157 145.353L47.3111 145.364L46.5646 147.125C44.9298 147.562 44.428 147.672 42.7421 147.772C38.818 147.236 32.308 147.467 28.1378 147.5L18.0018 147.482L14.1435 147.273C12.3166 145.546 12.9002 145.65 12.6774 142.359L14.9264 141.601C22.638 139.9 41.9743 143.066 46.9612 140.202C47.3732 138.479 47.371 137.912 48.425 136.55C50.1351 136.476 51.5435 136.394 53.2579 136.209C54.1885 133.754 54.3908 132.999 56.0059 130.89C60.6904 128.104 70.513 128.897 76.348 128.911C77.1602 131.88 78.7286 136.002 82.4196 136.278C86.4211 136.01 88.5432 135.964 92.5878 136.155C97.4074 134.694 96.6805 134.05 97.4388 129.341Z" fill="#5B3021"/>
<path d="M12.6774 142.359L14.9264 141.601C20.6219 142.195 43.6763 141.248 46.6916 142.338L47.3111 145.364L46.5646 147.125C44.9298 147.562 44.428 147.672 42.7421 147.772C38.818 147.236 32.308 147.467 28.1378 147.5L18.0018 147.482L14.1435 147.273C12.3166 145.546 12.9002 145.65 12.6774 142.359Z" fill="#582916"/>
<path d="M111.186 131.599L112.705 129.823C115.921 128.838 120.202 129.198 123.651 129.276C126.12 131.915 129.244 134.79 130.099 138.26C129.646 140.448 130.13 139.695 128.226 141.045L126.122 141.034C124.395 142 124.965 141.415 124.08 143.427C120.419 146.789 116.591 145.047 112.871 143.243C111.652 141.146 111.236 140.688 109.061 139.548C108.012 139.767 108.502 139.69 107.291 139.297C106.804 135.504 108.633 135.615 111.186 131.599Z" fill="#AD6E42"/>
<path d="M111.186 131.599L112.705 129.823C115.921 128.838 120.202 129.198 123.651 129.276C123.593 130.412 123.77 133.273 122.955 133.879C119.617 136.357 115.441 135.863 111.846 134.386C111.191 133.018 111.169 133.092 111.186 131.599Z" fill="#C08357"/>
<path d="M109.061 139.548C115.834 141.152 119.164 141.003 126.122 141.034C124.395 142 124.965 141.415 124.08 143.427C120.419 146.789 116.591 145.047 112.871 143.243C111.652 141.146 111.236 140.688 109.061 139.548Z" fill="#A56943"/>
<path d="M79.9762 91.2918L80.4386 91.167C80.3539 93.5886 79.9455 95.7028 81.4466 97.5154L82.6957 98.3026C84.7126 104.59 80.5665 109.515 85.1049 112.402L85.809 115.709C86.6936 117.03 92.1882 126.95 92.3884 127.884C92.4073 130.52 92.3525 133.568 92.5878 136.155C88.5432 135.964 86.4211 136.01 82.4196 136.278C83.901 125.412 80.2341 125.391 77.4744 115.164C77.0558 113.614 77.1201 108.397 77.1449 106.513L77.8016 106.274C78.0039 100.168 79.9864 96.1534 79.9762 91.2918Z" fill="#5D985B"/>
<path d="M77.1449 106.513L77.8016 106.274C77.6672 111.618 80.3006 118.021 81.9164 123.479C82.4832 123.677 83.1823 123.968 83.755 124.044C84.942 124.247 85.7762 124.126 86.9632 124.042C89.3832 121.412 85.763 119.855 85.809 115.709C86.6936 117.03 92.1882 126.95 92.3884 127.884C92.4073 130.52 92.3525 133.568 92.5878 136.155C88.5432 135.964 86.4211 136.01 82.4196 136.278C83.901 125.412 80.2341 125.391 77.4744 115.164C77.0558 113.614 77.1201 108.397 77.1449 106.513Z" fill="#548A57"/>
<path d="M85.1049 112.402L85.809 115.709C85.763 119.855 89.3832 121.412 86.9632 124.042C85.7762 124.126 84.942 124.247 83.755 124.044C84.4402 119.901 79.6081 115.96 85.1049 112.402Z" fill="#6FAA66"/>
<path d="M86.229 96.1702L87.5731 95.705C87.8835 94.9959 87.8631 95.3413 87.7221 94.6775L87.2166 96.2571C87.8295 96.8822 88.0647 97.5044 88.3547 98.315L88.4832 98.9022C90.6856 109.171 87.8755 105.908 93.0319 118.415C92.5329 121.234 92.503 124.958 92.3884 127.884C92.1882 126.95 86.6936 117.03 85.809 115.709L85.1049 112.402C80.5665 109.515 84.7126 104.59 82.6957 98.3026L86.229 96.1702Z" fill="#325E39"/>
<path d="M93.0319 118.415C95.2459 120.418 93.9011 120.26 95.189 122.192C97.693 125.95 97.3862 125.055 97.4388 129.341C96.6805 134.05 97.4074 134.694 92.5878 136.155C92.3525 133.568 92.4073 130.52 92.3884 127.884C92.503 124.958 92.5329 121.234 93.0319 118.415Z" fill="#2F4D31"/>
</svg>
