<svg width="168" height="185" viewBox="0 0 168 185" fill="none" xmlns="http://www.w3.org/2000/svg">
<path d="M21.9385 0.139305L105.057 0.168453C118.176 0.163387 133.371 -0.213408 146.248 0.176689L146.241 5.35817L151.698 5.37908C151.795 7.10539 152.024 8.92481 151.914 10.648L157.157 10.9234C157.415 12.9233 157.194 14.4849 158.675 15.9256C160.535 16.1169 160.75 15.9807 161.996 17.3327L162.224 20.5276C164.086 21.7416 165.854 20.5745 167.515 22.0646C168.354 33.6675 167.795 45.5654 167.767 57.2L167.686 154.484C167.728 161.848 168.505 169.853 167.446 177.13C165.573 178.485 163.801 177.142 162.43 178.934C162.36 180.701 162.724 182.265 161.461 183.557C146.499 184.33 24.0091 184.14 22.4261 183.12C22.2513 181.658 22.1133 180.188 22.012 178.719C20.0846 177.605 18.0875 178.915 16.5381 177.573C16.5077 175.882 16.9059 174.171 15.7263 172.911C14.3225 172.529 13.1403 172.308 11.6827 172.345C10.8703 170.882 11.1787 169.084 11.2433 167.458C11.3047 165.693 11.1078 164.005 10.8988 162.258C9.54443 162.233 8.18813 162.162 6.83437 162.11C5.47553 160.735 5.74908 159.944 5.6731 158.08L5.46477 156.862C3.80581 156.816 2.39822 156.877 0.895652 156.072C-0.3739 152.712 -0.127598 20.2414 0.609439 11.6833C2.31779 10.6042 3.70258 10.8715 5.70031 10.8278L5.67119 5.18466L9.56341 5.00923C11.1103 3.52547 10.6076 3.30952 10.7247 0.57251C13.2638 -0.210852 19.0379 0.105108 21.9385 0.139305Z" fill="#F3C481"/>
<path d="M151.914 10.648L157.157 10.9234C157.415 12.9233 157.194 14.4849 158.675 15.9256C160.535 16.1169 160.75 15.9807 161.996 17.3327L162.224 20.5276C164.086 21.7416 165.854 20.5745 167.515 22.0646C168.354 33.6675 167.795 45.5654 167.767 57.2L167.686 154.484C167.728 161.848 168.505 169.853 167.446 177.13C165.573 178.485 163.801 177.142 162.43 178.934C162.36 180.701 162.724 182.265 161.461 183.557C146.499 184.33 24.0091 184.14 22.4261 183.12C22.2513 181.658 22.1133 180.188 22.012 178.719C20.0846 177.605 18.0875 178.915 16.5381 177.573C16.5077 175.882 16.9059 174.171 15.7263 172.911C14.3225 172.529 13.1403 172.308 11.6827 172.345C10.8703 170.882 11.1787 169.084 11.2433 167.458C11.3047 165.693 11.1078 164.005 10.8988 162.258C9.54443 162.233 8.18813 162.162 6.83437 162.11C5.47553 160.735 5.74908 159.944 5.6731 158.08L5.46477 156.862C5.97259 153.252 5.86428 149.435 5.82122 145.794L10.8481 145.891L10.8501 146.876C10.99 148.758 10.9121 149.747 11.9866 151.35C12.7515 151.781 13.5291 152.079 14.4143 152.089C41.0451 152.406 67.8026 151.771 94.4562 151.819C110.173 151.847 129.845 153.112 145.032 151.628C146.508 150.245 146.129 148.595 146.249 146.629C147.797 144.993 149.392 146.378 151.193 145.096C152.81 135.732 150.843 125.516 151.847 115.981L151.8 47.5792C151.779 35.3817 151.043 22.803 151.914 10.648Z" fill="#A4A1A6"/>
<path d="M151.847 115.981C152.597 129.307 152.069 142.885 151.753 156.23C149.312 156.434 148.198 156.199 146.284 157.793L145.801 159.401C146.508 160.669 146.799 161.526 148.332 161.922C149.334 162.18 150.71 162.067 151.747 162.07C149.994 162.141 148.198 162.301 146.446 162.225C132.416 161.317 117.718 162.16 103.624 162.156L11.1489 162.101L10.8988 162.258C9.54443 162.233 8.18813 162.162 6.83437 162.11C5.47553 160.735 5.74908 159.944 5.6731 158.08L5.46477 156.862C5.97259 153.252 5.86428 149.435 5.82122 145.794L10.8481 145.891L10.8501 146.876C10.99 148.758 10.9121 149.747 11.9866 151.35C12.7515 151.781 13.5291 152.079 14.4143 152.089C41.0451 152.406 67.8026 151.771 94.4562 151.819C110.173 151.847 129.845 153.112 145.032 151.628C146.508 150.245 146.129 148.595 146.249 146.629C147.797 144.993 149.392 146.378 151.193 145.096C152.81 135.732 150.843 125.516 151.847 115.981Z" fill="#9A5A38"/>
<path d="M5.82122 145.794L10.8481 145.891L10.8501 146.876C10.6449 148.539 10.8918 149.977 9.52161 151.049C6.61969 153.32 6.6254 153.261 5.90799 157.071L5.6731 158.08L5.46477 156.862C5.97259 153.252 5.86428 149.435 5.82122 145.794Z" fill="#8C502D"/>
<path d="M5.90799 157.071C7.9836 156.812 9.08789 156.342 10.959 157.349C11.501 159.005 11.3066 160.405 11.1489 162.101L10.8988 162.258C9.54443 162.233 8.18813 162.162 6.83437 162.11C5.47553 160.735 5.74908 159.944 5.6731 158.08L5.90799 157.071Z" fill="#572C1A"/>
<path d="M151.914 10.648L157.157 10.9234C156.709 24.8308 157.795 154.712 156.372 155.967C154.93 157.238 153.336 156.619 151.915 158.299L151.747 162.07C150.71 162.067 149.334 162.18 148.332 161.922C146.799 161.526 146.508 160.669 145.801 159.401L146.284 157.793C148.198 156.199 149.312 156.434 151.753 156.23C152.069 142.885 152.597 129.307 151.847 115.981L151.8 47.5792C151.779 35.3817 151.043 22.803 151.914 10.648Z" fill="#572C1A"/>
<path d="M10.8988 162.258L11.1489 162.101L103.624 162.156C117.718 162.16 132.416 161.317 146.446 162.225C146.323 164.103 146.505 165.593 145.469 167.198C130.51 168.477 114.639 167.461 99.5851 167.439L11.2433 167.458C11.3047 165.693 11.1078 164.005 10.8988 162.258Z" fill="#572C1A"/>
<path d="M146.241 5.35817L151.698 5.37908C151.795 7.10539 152.024 8.92481 151.914 10.648C151.043 22.803 151.779 35.3817 151.8 47.5792L151.847 115.981C150.843 125.516 152.81 135.732 151.193 145.096C149.392 146.378 147.797 144.993 146.249 146.629C146.129 148.595 146.508 150.245 145.032 151.628C129.845 153.112 110.173 151.847 94.4562 151.819C67.8026 151.771 41.0451 152.406 14.4143 152.089C13.5291 152.079 12.7515 151.781 11.9866 151.35C10.9121 149.747 10.99 148.758 10.8501 146.876L10.8481 145.891L11.2813 140.776L11.3515 131.132C12.6869 132.034 14.0648 133.139 15.5452 133.775C17.12 135.741 15.7788 136.887 18.2768 138.143C20.0212 137.805 20.9489 137.216 22.3736 136.199C24.1851 134.904 24.9715 135.059 27.1263 135.028L27.0522 129.845C30.6981 129.438 34.251 129.315 37.914 129.296L37.9716 124.332L38.2654 119.105L38.3642 114.664L38.8651 113.779C41.8037 112.864 45.7529 113.331 48.8391 113.343L54.3574 113.527C56.2196 113.606 57.5803 113.287 59.031 114.532C59.6927 116.506 59.7332 117.898 61.5068 119.056L64.9862 119.221C65.1191 120.853 65.1109 122.638 65.5389 124.214L70.2537 124.212L70.7602 124.349C70.8609 126.521 70.6292 127.707 71.8962 129.511C73.4735 129.897 74.7215 129.675 76.2842 129.384C78.0724 129.179 79.8865 129.308 81.6822 129.361L86.9168 129.572C88.6777 129.688 90.4665 129.887 92.2306 129.797L97.2904 129.78C97.5108 128.811 98.0027 127.915 98.4213 127.019C100.159 125.928 101.053 125.972 103.05 125.86C103.232 127.464 103.016 128.167 104.347 129.263C105.629 129.411 107.019 129.46 108.261 129.8C109.464 129.895 110.698 129.699 111.896 129.574L113.837 129.517L113.829 124.295L113.882 119.274L109.319 119.132L109.391 118.852L108.431 118.353L108.425 113.351C108.382 109.968 108.796 105.787 107.62 102.598L107.349 102.166C106.153 102.103 105.02 101.919 103.843 101.704C102.864 100.185 103.276 99.1513 103.424 97.4034L103.059 96.9506C102.949 93.4303 103.088 89.8637 103.115 86.3395C104.043 86.3889 105.258 86.5586 106.167 86.3832C108.558 85.9209 107.805 83.358 109.156 81.8407C110.066 80.8199 112.578 81.2157 113.892 81.2037C113.815 84.3371 113.069 88.6155 114.649 91.3303C116.067 92.2708 117.411 92.0947 119.041 92.0675C118.941 90.3487 119.129 88.6041 119.236 86.8879L120.852 87.043L124.701 86.929C126.348 86.5592 128.213 86.4674 129.897 86.2584L130.249 86.3692L135.217 86.4497L135.615 81.0827L135.496 80.8053L135.389 75.6112C135.371 73.8032 135.573 72.1693 135.873 70.3936L135.858 69.9224C139.318 69.7249 142.861 69.9282 146.329 69.9738L146.198 16.1663L145.817 16.0751C146.113 14.4412 146.114 12.682 146.229 11.0215L146.241 5.35817Z" fill="#D29362"/>
<path d="M38.3642 114.664L38.8651 113.779C41.8037 112.864 45.7529 113.331 48.8391 113.343L54.3574 113.527C56.2196 113.606 57.5803 113.287 59.031 114.532C59.6927 116.506 59.7332 117.898 61.5068 119.056L64.9862 119.221C65.1191 120.853 65.1109 122.638 65.5389 124.214L70.2537 124.212L70.7602 124.349C70.8609 126.521 70.6292 127.707 71.8962 129.511C73.4735 129.897 74.7215 129.675 76.2842 129.384C78.0724 129.179 79.8865 129.308 81.6822 129.361L86.9168 129.572C88.6777 129.688 90.4665 129.887 92.2306 129.797L97.2904 129.78C97.5108 128.811 98.0027 127.915 98.4213 127.019C100.159 125.928 101.053 125.972 103.05 125.86C103.232 127.464 103.016 128.167 104.347 129.263C105.629 129.411 107.019 129.46 108.261 129.8C109.464 129.895 110.698 129.699 111.896 129.574L113.837 129.517L119.197 129.956L124.679 130.137L128.643 129.81L130.063 130.223C130.377 132.116 130.197 133.454 131.695 134.743L132.323 134.742C133.803 134.749 135.241 134.671 136.37 135.803C136.525 135.958 136.669 136.123 136.817 136.283C139.714 137.388 143.448 136.837 146.518 136.723C146.336 138.618 146.417 139.485 145.22 141.03C143.324 140.728 142.616 140.21 140.93 141.267C140.527 143.071 140.871 145.632 139.465 146.734C125.338 147.917 110.578 146.956 96.3742 146.955C69.82 147.057 43.2651 147.011 16.7109 146.82C16.5824 144.627 16.923 142.778 15.5211 141.047C14.0952 140.877 12.7174 140.772 11.2813 140.776L11.3515 131.132C12.6869 132.034 14.0648 133.139 15.5452 133.775C17.12 135.741 15.7788 136.887 18.2768 138.143C20.0212 137.805 20.9489 137.216 22.3736 136.199C24.1851 134.904 24.9715 135.059 27.1263 135.028L27.0522 129.845C30.6981 129.438 34.251 129.315 37.914 129.296L37.9716 124.332L38.2654 119.105L38.3642 114.664Z" fill="#9A5A38"/>
<path d="M38.3642 114.664L38.8651 113.779C41.8037 112.864 45.7529 113.331 48.8391 113.343L54.3574 113.527C56.2196 113.606 57.5803 113.287 59.031 114.532C59.6927 116.506 59.7332 117.898 61.5068 119.056L64.9862 119.221C65.1191 120.853 65.1109 122.638 65.5389 124.214L65.1502 124.318L59.7186 124.502C59.5901 126.438 59.8567 127.715 58.5707 129.238C57.2125 129.351 55.8834 129.458 54.5201 129.427L50.431 129.473L50.4341 129.871C49.1297 131.676 49.3501 132.848 49.2254 135.041L43.5368 135.044L37.9108 135.052L33.2429 135.043L27.1263 135.028L27.0522 129.845C30.6981 129.438 34.251 129.315 37.914 129.296L37.9716 124.332L38.2654 119.105L38.3642 114.664Z" fill="#4B7751"/>
<path d="M43.5975 124.243C45.5826 124.256 47.0953 123.816 48.6168 125.175L49.1519 128.942L50.431 129.473L50.4341 129.871C49.1297 131.676 49.3501 132.848 49.2254 135.041L43.5368 135.044L37.9108 135.052L33.2429 135.043L27.1263 135.028L27.0522 129.845C30.6981 129.438 34.251 129.315 37.914 129.296C39.6876 129.528 41.1623 129.842 42.8871 129.194C43.8698 127.441 43.6146 126.231 43.5975 124.243Z" fill="#574244"/>
<path d="M37.9418 129.867C39.7794 129.894 41.6676 130.013 43.4981 129.894L43.5368 135.044L37.9108 135.052L37.9418 129.867Z" fill="#794568"/>
<path d="M27.1263 135.028L27.0522 129.845C28.9245 129.934 30.8798 130.149 32.7484 130.024L33.2429 135.043L27.1263 135.028Z" fill="#3D3C30"/>
<path d="M43.4981 129.894C45.5509 129.865 46.797 129.528 48.5428 130.661C48.8745 132.127 49.0886 133.544 49.2254 135.041L43.5368 135.044L43.4981 129.894Z" fill="#64645D"/>
<path d="M32.7484 130.024L37.9418 129.867L37.9108 135.052L33.2429 135.043L32.7484 130.024Z" fill="#26222C"/>
<path d="M38.3642 114.664L38.8651 113.779C41.8037 112.864 45.7529 113.331 48.8391 113.343C48.8043 114.585 49.1171 116.982 48.2059 117.875C46.6533 119.395 44.0629 118.735 43.5792 121.285C43.4101 122.178 43.557 123.334 43.5975 124.243C43.6146 126.231 43.8698 127.441 42.8871 129.194C41.1623 129.842 39.6876 129.528 37.914 129.296L37.9716 124.332L38.2654 119.105L38.3642 114.664Z" fill="#1B202C"/>
<path d="M54.3574 113.527C56.2196 113.606 57.5803 113.287 59.031 114.532C59.6927 116.506 59.7332 117.898 61.5068 119.056L64.9862 119.221C65.1191 120.853 65.1109 122.638 65.5389 124.214L65.1502 124.318L59.7186 124.502C58.054 124.551 56.5837 124.759 55.0976 123.879C53.4519 121.351 54.2859 116.568 54.3574 113.527Z" fill="#2A5243"/>
<path d="M49.1519 128.942C49.4356 126.666 49.1278 125.894 50.9527 124.407C52.6275 124.437 52.6763 124.597 53.9566 125.711C54.3922 127 54.5112 128.07 54.5201 129.427L50.431 129.473L49.1519 128.942Z" fill="#718661"/>
<path d="M59.7186 124.502L65.1502 124.318L65.5389 124.214L70.2537 124.212L70.7602 124.349C70.8609 126.521 70.6292 127.707 71.8962 129.511C73.4735 129.897 74.7215 129.675 76.2842 129.384L76.3665 129.788C76.0328 131.49 75.7371 133.083 75.753 134.831L70.3734 135.081C70.4633 136.731 70.5912 137.977 69.8985 139.532C67.9837 140.721 65.7105 141.894 63.3835 141.44C58.185 140.428 60.9856 137.948 59.2089 135.227C58.7416 135.144 58.2661 135.059 57.7924 135.023C53.4437 134.693 55.6143 137.803 53.1157 139.732C49.8231 142.275 42.6319 140.833 38.7568 140.344C37.6803 138.951 37.9931 136.804 37.9108 135.052L43.5368 135.044L49.2254 135.041C49.3501 132.848 49.1297 131.676 50.4341 129.871L50.431 129.473L54.5201 129.427C55.8834 129.458 57.2125 129.351 58.5707 129.238C59.8567 127.715 59.5901 126.438 59.7186 124.502Z" fill="#26222C"/>
<path d="M65.5389 124.214L70.2537 124.212L70.7602 124.349C70.8609 126.521 70.6292 127.707 71.8962 129.511C73.4735 129.897 74.7215 129.675 76.2842 129.384L76.3665 129.788C76.0328 131.49 75.7371 133.083 75.753 134.831L70.3734 135.081C68.7936 135.125 67.4062 135.152 65.86 134.734C64.8317 133.105 65.0843 131.691 65.033 129.8L65.1502 124.318L65.5389 124.214Z" fill="#794568"/>
<path d="M70.2537 124.212L70.7602 124.349C70.8609 126.521 70.6292 127.707 71.8962 129.511C73.4735 129.897 74.7215 129.675 76.2842 129.384L76.3665 129.788C76.0328 131.49 75.7371 133.083 75.753 134.831L70.3734 135.081L70.2537 124.212Z" fill="#26222C"/>
<path d="M59.7186 124.502L65.1502 124.318L65.033 129.8C60.1498 129.974 55.3167 130.111 50.4341 129.871L50.431 129.473L54.5201 129.427C55.8834 129.458 57.2125 129.351 58.5707 129.238C59.8567 127.715 59.5901 126.438 59.7186 124.502Z" fill="#373F4B"/>
<path d="M111.896 129.574L113.837 129.517L119.197 129.956L124.679 130.137L124.627 135.031L124.287 140.761C119.232 140.566 114.08 141.818 109.237 140.117C107.934 138.516 108.256 137.482 108.214 135.454L108.384 135.151L108.261 129.8C109.464 129.895 110.698 129.699 111.896 129.574Z" fill="#09182F"/>
<path d="M111.896 129.574L113.837 129.517L113.722 135.012C111.955 134.98 110.152 135.1 108.384 135.151L108.261 129.8C109.464 129.895 110.698 129.699 111.896 129.574Z" fill="#2A5243"/>
<path d="M113.837 129.517L119.197 129.956L119.039 135.08L113.722 135.012L113.837 129.517Z" fill="#64645D"/>
<path d="M119.197 129.956L124.679 130.137L124.627 135.031L119.039 135.08L119.197 129.956Z" fill="#794568"/>
<path d="M81.6822 129.361L86.9168 129.572C88.6777 129.688 90.4665 129.887 92.2306 129.797L97.2904 129.78L97.4626 135.035L87.593 135.024L81.9405 134.993L76.2234 135.032L75.753 134.831C75.7371 133.083 76.0328 131.49 76.3665 129.788L76.2842 129.384C78.0724 129.179 79.8865 129.308 81.6822 129.361Z" fill="#2C2A29"/>
<path d="M76.3665 129.788C78.4884 129.847 79.7123 129.474 81.3403 130.898C81.5365 132.26 81.6949 133.639 81.9405 134.993L76.2234 135.032L75.753 134.831C75.7371 133.083 76.0328 131.49 76.3665 129.788Z" fill="#5F2F17"/>
<path d="M103.05 125.86C103.232 127.464 103.016 128.167 104.347 129.263C105.629 129.411 107.019 129.46 108.261 129.8L108.384 135.151L108.214 135.454C106.591 135.138 104.801 135.162 103.146 135.053C103.149 137.121 103.439 138.494 102.384 140.3C100.762 140.809 99.3533 140.693 97.6849 140.605L97.4626 135.035L97.2904 129.78C97.5108 128.811 98.0027 127.915 98.4213 127.019C100.159 125.928 101.053 125.972 103.05 125.86Z" fill="#474C54"/>
<path d="M97.9983 135.159L103.146 135.053C103.149 137.121 103.439 138.494 102.384 140.3C100.762 140.809 99.3533 140.693 97.6849 140.605L97.9983 135.159Z" fill="#2B1B25"/>
<path d="M103.083 129.983L108.261 129.8L108.384 135.151L108.214 135.454C106.591 135.138 104.801 135.162 103.146 135.053L103.083 129.983Z" fill="#2A303B"/>
<path d="M97.9983 135.159C97.9172 133.556 97.8609 132.218 98.3421 130.656C100.006 129.623 101.152 129.937 103.083 129.983L103.146 135.053L97.9983 135.159Z" fill="#794568"/>
<path d="M128.643 129.81L130.063 130.223C130.377 132.116 130.197 133.454 131.695 134.743L132.323 134.742C133.803 134.749 135.241 134.671 136.37 135.803C136.525 135.958 136.669 136.123 136.817 136.283C136.254 138.364 136.305 139.231 134.596 140.61C132.791 140.696 130.985 140.742 129.179 140.748L124.287 140.761L124.627 135.031L124.679 130.137L128.643 129.81Z" fill="#432D27"/>
<path d="M124.627 135.031L129.65 135.089C129.4 136.97 129.067 138.847 129.179 140.748L124.287 140.761L124.627 135.031Z" fill="#5F3138"/>
<path d="M128.643 129.81L130.063 130.223C129.914 131.842 129.729 133.465 129.65 135.089L124.627 135.031L124.679 130.137L128.643 129.81Z" fill="#2A303B"/>
<path d="M81.9405 134.993L87.593 135.024C87.4043 135.938 87.2904 137.259 86.5926 137.936C85.6637 138.835 82.3363 139.29 81.0275 139.337C79.1685 139.404 77.4107 138.777 76.0613 137.578L76.2234 135.032L81.9405 134.993Z" fill="#C88758"/>
<path d="M103.115 86.3395C104.043 86.3889 105.258 86.5586 106.167 86.3832C108.558 85.9209 107.805 83.358 109.156 81.8407C110.066 80.8199 112.578 81.2157 113.892 81.2037C113.815 84.3371 113.069 88.6155 114.649 91.3303C116.067 92.2708 117.411 92.0947 119.041 92.0675C118.941 90.3487 119.129 88.6041 119.236 86.8879L120.852 87.043L124.701 86.929C126.348 86.5592 128.213 86.4674 129.897 86.2584L130.249 86.3692L135.217 86.4497L135.446 86.7467L135.514 91.3765L135.638 96.9265C137.189 96.8885 138.804 96.7365 140.33 97.0449L140.582 96.2686C140.841 93.5892 140.185 88.8244 141.668 86.753C143.124 86.9524 144.931 86.8271 145.955 87.8954C146.795 97.9258 146.338 108.37 146.27 118.447L124.573 118.56L124.067 118.607C122.571 118.887 121.069 119.213 119.558 119.393L119.21 119.168C117.451 119.198 115.634 119.146 113.882 119.274L109.319 119.132L109.391 118.852L108.431 118.353L108.425 113.351C108.382 109.968 108.796 105.787 107.62 102.598L107.349 102.166C106.153 102.103 105.02 101.919 103.843 101.704C102.864 100.185 103.276 99.1513 103.424 97.4034L103.059 96.9506C102.949 93.4303 103.088 89.8637 103.115 86.3395Z" fill="#F3C481"/>
<path d="M103.115 86.3395C104.043 86.3889 105.258 86.5586 106.167 86.3832C108.558 85.9209 107.805 83.358 109.156 81.8407C110.066 80.8199 112.578 81.2157 113.892 81.2037C113.815 84.3371 113.069 88.6155 114.649 91.3303C116.067 92.2708 117.411 92.0947 119.041 92.0675C119.37 93.9679 119.342 95.5593 119.177 97.4648C119.134 99.0911 118.999 100.768 119.069 102.39L113.669 102.285C111.925 102.575 110.107 102.237 108.361 102.05L107.349 102.166C106.153 102.103 105.02 101.919 103.843 101.704C102.864 100.185 103.276 99.1513 103.424 97.4034L103.059 96.9506C102.949 93.4303 103.088 89.8637 103.115 86.3395Z" fill="#1B202C"/>
<path d="M113.669 102.285C113.711 101.035 113.867 99.8181 114.031 98.5788C115.596 97.3274 117.216 97.5959 119.177 97.4648C119.134 99.0911 118.999 100.768 119.069 102.39L113.669 102.285Z" fill="#2A5243"/>
<path d="M103.424 97.4034C105.211 97.4807 106.605 97.2166 108.07 98.3027C108.245 99.5705 108.374 100.769 108.361 102.05L107.349 102.166C106.153 102.103 105.02 101.919 103.843 101.704C102.864 100.185 103.276 99.1513 103.424 97.4034Z" fill="#794568"/>
<path d="M129.897 86.2584L130.249 86.3692L135.217 86.4497L135.446 86.7467L135.514 91.3765L135.638 96.9265C133.743 97.0874 131.604 97.0956 129.771 97.5573L129.868 102.655C128.456 102.821 124.012 103.741 122.94 103.091L119.42 102.739L119.069 102.39C118.999 100.768 119.134 99.0911 119.177 97.4648C119.342 95.5593 119.37 93.9679 119.041 92.0675C118.941 90.3487 119.129 88.6041 119.236 86.8879L120.852 87.043L124.701 86.929C126.348 86.5592 128.213 86.4674 129.897 86.2584Z" fill="#2A5243"/>
<path d="M124.56 96.8569L128.73 97.0943L128.505 97.5459L129.771 97.5573L129.868 102.655C128.456 102.821 124.012 103.741 122.94 103.091L119.42 102.739L119.069 102.39C118.999 100.768 119.134 99.0911 119.177 97.4648L124.56 96.8569Z" fill="#4C8358"/>
<path d="M122.94 103.091L124.386 102.459C124.79 101.056 124.849 99.8194 124.874 98.3641C126.162 97.2989 126.923 97.5509 128.505 97.5459L129.771 97.5573L129.868 102.655C128.456 102.821 124.012 103.741 122.94 103.091Z" fill="#2A5243"/>
<path d="M119.236 86.8879L120.852 87.043L124.701 86.929L124.647 91.5463L124.791 91.9009L124.56 96.8569L119.177 97.4648C119.342 95.5593 119.37 93.9679 119.041 92.0675C118.941 90.3487 119.129 88.6041 119.236 86.8879Z" fill="#2A5243"/>
<path d="M119.236 86.8879L120.852 87.043L124.701 86.929L124.647 91.5463C123.336 91.9231 122.107 91.8756 120.753 91.861C119.257 90.2873 119.483 89.0087 119.236 86.8879Z" fill="#1C1C1A"/>
<path d="M135.217 86.4497L135.446 86.7467L135.514 91.3765C133.776 91.5595 132.253 91.8394 130.57 91.2252C129.655 89.4425 130.051 88.3368 130.249 86.3692L135.217 86.4497Z" fill="#718661"/>
<path d="M124.791 91.9009C127.175 91.918 127.913 91.7318 129.952 93.0674C130.36 94.4042 130.323 95.3009 129.444 96.5187C129.205 96.8506 129.044 96.9107 128.73 97.0943L124.56 96.8569L124.791 91.9009Z" fill="#498D56"/>
<path d="M108.361 102.05C110.107 102.237 111.925 102.575 113.669 102.285L119.069 102.39L119.42 102.739C119.311 103.761 119.125 104.841 119.118 105.866C120.003 107.103 120.702 108.238 121.273 109.65L120.629 113.01L119.287 113.58L119.21 119.168C117.451 119.198 115.634 119.146 113.882 119.274L109.319 119.132L109.391 118.852L108.431 118.353L108.425 113.351C108.382 109.968 108.796 105.787 107.62 102.598L107.349 102.166L108.361 102.05Z" fill="#334F4F"/>
<path d="M113.669 102.285L119.069 102.39L119.42 102.739C119.311 103.761 119.125 104.841 119.118 105.866C120.003 107.103 120.702 108.238 121.273 109.65L120.629 113.01L119.287 113.58C117.576 113.54 115.961 113.456 114.269 113.149C113.026 111.494 113.359 109.784 113.286 107.754L113.669 102.285Z" fill="#2A5243"/>
<path d="M113.669 102.285L119.069 102.39L119.42 102.739C119.311 103.761 119.125 104.841 119.118 105.866C118.78 106.721 118.801 107.327 117.889 107.68C116.553 108.198 114.695 107.868 113.286 107.754L113.669 102.285Z" fill="#4B7751"/>
<path d="M108.425 113.351C110.777 113.47 111.683 113.202 113.535 114.73C114.134 116.324 114.064 116.311 113.381 117.885C111.897 118.812 111.097 118.76 109.391 118.852L108.431 118.353L108.425 113.351Z" fill="#222835"/>
<path d="M129.868 102.655C129.925 104.509 129.859 106.45 130.205 108.275L129.576 109.187C130.491 110.338 130.392 111.994 129.348 113.029C128.304 114.064 126.648 114.148 125.505 113.223L124.573 118.56L124.067 118.607C122.571 118.887 121.069 119.213 119.558 119.393L119.21 119.168L119.287 113.58L120.629 113.01L121.273 109.65C120.702 108.238 120.003 107.103 119.118 105.866C119.125 104.841 119.311 103.761 119.42 102.739L122.94 103.091C124.012 103.741 128.456 102.821 129.868 102.655Z" fill="#334F4F"/>
<path d="M120.629 113.01C122.241 113.382 122.937 113.299 124.024 114.686L124.067 118.607C122.571 118.887 121.069 119.213 119.558 119.393L119.21 119.168L119.287 113.58L120.629 113.01Z" fill="#222835"/>
<path d="M125.505 113.223C124.646 112.527 124.259 111.401 124.511 110.324C124.763 109.248 125.608 108.41 126.687 108.168C127.765 107.925 128.888 108.322 129.576 109.187C130.491 110.338 130.392 111.994 129.348 113.029C128.304 114.064 126.648 114.148 125.505 113.223Z" fill="#1C1C1A"/>
<path d="M135.638 96.9265C137.189 96.8885 138.804 96.7365 140.33 97.0449C137.872 97.328 136.442 97.4281 134.706 99.3583L134.982 100.913C136.924 102.08 140.033 103.363 141.552 104.951L141.347 106.079C137.329 108.506 134.466 107.583 130.205 108.275C129.859 106.45 129.925 104.509 129.868 102.655L129.771 97.5573C131.604 97.0956 133.743 97.0874 135.638 96.9265Z" fill="#2A303B"/>
<path d="M124.067 118.607L124.573 118.56L125.015 119.126L146.382 119.122C147.673 124.634 146.248 131.051 146.518 136.723C143.448 136.837 139.714 137.388 136.817 136.283C136.669 136.123 136.525 135.958 136.37 135.803C135.241 134.671 133.803 134.749 132.323 134.742L131.695 134.743C130.197 133.454 130.377 132.116 130.063 130.223L128.643 129.81L124.679 130.137L119.197 129.956L113.837 129.517L113.829 124.295L113.882 119.274C115.634 119.146 117.451 119.198 119.21 119.168L119.558 119.393C121.069 119.213 122.571 118.887 124.067 118.607Z" fill="#AE6F44"/>
<path d="M124.067 118.607L124.573 118.56L125.015 119.126L124.746 124.209L124.71 129.298L128.643 129.81L124.679 130.137L119.197 129.956L113.837 129.517L113.829 124.295L113.882 119.274C115.634 119.146 117.451 119.198 119.21 119.168L119.558 119.393C121.069 119.213 122.571 118.887 124.067 118.607Z" fill="#09182F"/>
<path d="M113.829 124.295C115.685 124.255 116.829 123.936 118.437 124.958C118.865 126.235 119.235 128.675 120.523 129.239C121.529 129.681 123.087 129.511 124.176 129.496L124.71 129.298L128.643 129.81L124.679 130.137L119.197 129.956L113.837 129.517L113.829 124.295Z" fill="#6B3D59"/>
<path d="M124.067 118.607L124.573 118.56L125.015 119.126L124.746 124.209L124.71 129.298L124.176 129.496C124.234 128.509 124.413 127.288 124.271 126.313C124.006 124.487 121.715 124.482 120.434 123.47C119.343 122.607 119.635 120.714 119.558 119.393C121.069 119.213 122.571 118.887 124.067 118.607Z" fill="#432D27"/>
<path d="M125.015 119.126L146.382 119.122L146.125 124.112L140.891 124.257L124.746 124.209L125.015 119.126Z" fill="#572C1A"/>
<path d="M141.197 126.946L146.131 126.899C146.182 127.974 146.357 129.312 146.177 130.369C145.919 131.897 145.104 132.261 143.94 133.058L142.436 132.62C141.019 130.563 141.275 129.405 141.197 126.946Z" fill="#8C502D"/>
<path d="M146.125 124.112L146.131 126.899L141.197 126.946L140.891 124.257L146.125 124.112Z" fill="#83472D"/>
<path d="M135.873 70.3936L146.227 70.4595C146.267 73.7734 147.555 83.5784 145.37 85.9437C144.729 86.6384 142.614 86.6801 141.668 86.753C140.185 88.8244 140.841 93.5892 140.582 96.2686L140.33 97.0449C138.804 96.7365 137.189 96.8885 135.638 96.9265L135.514 91.3765L135.446 86.7467L135.217 86.4497L135.615 81.0827L135.496 80.8053L135.389 75.6112C135.371 73.8032 135.573 72.1693 135.873 70.3936Z" fill="#26222C"/>
<path d="M140.427 86.3711C140.25 89.737 140.139 92.909 140.582 96.2686L140.33 97.0449C138.804 96.7365 137.189 96.8885 135.638 96.9265L135.514 91.3765L135.446 86.7467C137.056 86.4642 138.792 86.475 140.427 86.3711Z" fill="#1B202C"/>
<path d="M135.615 81.0827C137.315 80.9155 139.027 80.6925 140.732 80.6089L140.427 86.3711C138.792 86.475 137.056 86.4642 135.446 86.7467L135.217 86.4497L135.615 81.0827Z" fill="#64645D"/>
<path d="M135.389 75.6112C137.457 75.6112 138.852 75.2539 140.579 76.4439C140.862 77.8947 140.853 79.1391 140.732 80.6089C139.027 80.6925 137.315 80.9155 135.615 81.0827L135.496 80.8053L135.389 75.6112Z" fill="#6B3D59"/>
<path d="M146.241 5.35817L151.698 5.37908L151.264 10.8436L146.229 11.0215L146.241 5.35817Z" fill="#572C1A"/>
<path d="M146.229 11.0215L151.264 10.8436C151.168 12.8637 151.537 14.3639 150.116 15.88L146.198 16.1663L145.817 16.0751C146.113 14.4412 146.114 12.682 146.229 11.0215Z" fill="#EFBC84"/>
<path d="M21.9385 0.139305L105.057 0.168453C118.176 0.163387 133.371 -0.213408 146.248 0.176689L146.241 5.35817L146.229 11.0215C144.497 11.6934 142.861 11.2572 141.083 10.9734C113.935 10.7157 86.7845 10.6714 59.6357 10.8404C46.0619 10.8392 30.0789 9.60683 16.9078 11.1615C15.5338 12.8131 17.0452 14.1987 16.3487 15.4817C15.3223 17.3733 12.3805 15.3411 11.4275 17.562C10.6126 19.4631 10.6468 86.8581 10.7279 94.2282C10.8077 101.44 11.9411 112.22 10.8716 119.081L11.3041 119.18L11.2939 124.219L11.3731 128.264L11.3515 131.132L11.2813 140.776L10.8481 145.891L5.82122 145.794C5.86428 149.435 5.97259 153.252 5.46477 156.862C3.80581 156.816 2.39822 156.877 0.895652 156.072C-0.3739 152.712 -0.127598 20.2414 0.609439 11.6833C2.31779 10.6042 3.70258 10.8715 5.70031 10.8278L5.67119 5.18466L9.56341 5.00923C11.1103 3.52547 10.6076 3.30952 10.7247 0.57251C13.2638 -0.210852 19.0379 0.105108 21.9385 0.139305Z" fill="#FBDEAB"/>
<path d="M5.46477 156.862C3.80581 156.816 2.39822 156.877 0.895652 156.072C-0.3739 152.712 -0.127598 20.2414 0.609439 11.6833C2.31779 10.6042 3.70258 10.8715 5.70031 10.8278C5.69651 53.5004 6.23029 96.2452 5.65598 138.909L5.82122 145.794C5.86428 149.435 5.97259 153.252 5.46477 156.862Z" fill="#572C1A"/>
<path d="M21.9385 0.139305L105.057 0.168453C118.176 0.163387 133.371 -0.213408 146.248 0.176689L146.241 5.35817L59.4869 5.47977C44.5024 5.48737 26.6584 6.00031 12.0671 5.28281C10.9463 4.14228 11.04 2.46284 10.7247 0.57251C13.2638 -0.210852 19.0379 0.105108 21.9385 0.139305Z" fill="#572C1A"/>
<path d="M10.8716 119.081L11.3041 119.18L11.2939 124.219L11.3731 128.264L11.3515 131.132L11.2813 140.776L10.8481 145.891L5.82122 145.794L5.65598 138.909C6.07832 139.478 6.38351 139.973 7.05217 140.267C8.24004 140.788 8.49142 140.502 9.62547 140.018C12.2823 135.334 10.6987 124.618 10.8716 119.081Z" fill="#EFBC84"/>
<path d="M5.67119 5.18466C7.95575 5.44493 8.86372 5.30688 10.6658 6.80077C11.2825 8.41562 11.2718 8.37824 10.5676 9.95952C8.80927 11.0431 7.73856 10.8113 5.70031 10.8278L5.67119 5.18466Z" fill="#5F2F17"/>
<path d="M91.7816 70.9123C91.3308 65.7137 91.4447 59.5266 92.0602 54.3521C92.5794 59.6995 92.0273 65.0165 92.411 70.3297L97.5937 70.3664C97.6349 73.2136 96.9181 78.6718 98.4897 80.9756C99.713 81.5804 100.791 81.4221 102.124 81.3417C103.41 82.9597 103.141 84.2972 103.115 86.3395C103.088 89.8637 102.949 93.4303 103.059 96.9506L103.424 97.4034C103.276 99.1513 102.864 100.185 103.843 101.704C105.02 101.919 106.153 102.103 107.349 102.166L107.62 102.598C108.796 105.787 108.382 109.968 108.425 113.351L108.431 118.353L109.391 118.852L109.319 119.132L113.882 119.274L113.829 124.295L113.837 129.517L111.896 129.574C110.698 129.699 109.464 129.895 108.261 129.8C107.019 129.46 105.629 129.411 104.347 129.263C103.016 128.167 103.232 127.464 103.05 125.86C101.053 125.972 100.159 125.928 98.4213 127.019C98.0027 127.915 97.5108 128.811 97.2904 129.78L92.2306 129.797C90.4665 129.887 88.6777 129.688 86.9168 129.572L81.6822 129.361C79.8865 129.308 78.0724 129.179 76.2842 129.384C74.7215 129.675 73.4735 129.897 71.8962 129.511C70.6292 127.707 70.8609 126.521 70.7602 124.349L70.2537 124.212L65.5389 124.214C65.1109 122.638 65.1191 120.853 64.9862 119.221C66.7471 119.187 68.5662 119.248 70.3151 119.048C68.8898 118.974 67.5139 118.811 66.1044 118.588C64.8 116.891 65.2261 115.424 65.235 113.318L70.1182 113.446L70.21 113.097C71.2086 111.351 71.0154 109.74 70.9287 107.814C70.7767 106.371 70.8287 105.076 70.987 103.636C72.5452 102.358 74.0288 102.692 75.9961 102.617L76.0689 97.7523C74.2662 97.7479 72.468 97.5814 70.671 97.4497L70.5614 91.7698C70.6514 88.2577 70.8191 84.7474 71.0655 81.2429L75.9936 81.2144L75.9524 75.696L81.1896 75.5504L81.4922 75.3433L81.5321 70.7058L81.7309 70.1086C83.5818 70.3638 84.9666 70.5697 86.7813 69.9079L87.3164 69.9199C88.7936 70.2948 90.267 70.7235 91.7816 70.9123Z" fill="#334F4F"/>
<path d="M75.9961 102.617L81.503 102.735L81.5246 105.564C81.6639 108.258 81.8519 110.956 81.7234 113.655C81.6195 116.951 81.6094 120.191 81.762 123.489L81.4789 124.453L81.6822 129.361C79.8865 129.308 78.0724 129.179 76.2842 129.384C74.7215 129.675 73.4735 129.897 71.8962 129.511C70.6292 127.707 70.8609 126.521 70.7602 124.349L70.2537 124.212L65.5389 124.214C65.1109 122.638 65.1191 120.853 64.9862 119.221C66.7471 119.187 68.5662 119.248 70.3151 119.048C68.8898 118.974 67.5139 118.811 66.1044 118.588C64.8 116.891 65.2261 115.424 65.235 113.318L70.1182 113.446L70.21 113.097C71.2086 111.351 71.0154 109.74 70.9287 107.814C70.7767 106.371 70.8287 105.076 70.987 103.636C72.5452 102.358 74.0288 102.692 75.9961 102.617Z" fill="#334F4F"/>
<path d="M76.0138 119.094C78.0806 118.974 79.0475 118.573 80.7761 119.781C81.1193 121.344 81.3377 122.859 81.4789 124.453L81.6822 129.361C79.8865 129.308 78.0724 129.179 76.2842 129.384C74.7215 129.675 73.4735 129.897 71.8962 129.511C70.6292 127.707 70.8609 126.521 70.7602 124.349C72.1976 124.32 73.5786 124.192 75.002 123.997C76.2013 122.354 75.9341 121.098 76.0138 119.094Z" fill="#1B202C"/>
<path d="M76.0138 119.094C75.867 117.37 75.6732 115.846 76.2329 114.166C77.2714 113.873 78.3054 113.564 79.3349 113.24C81.4656 110.755 81.2852 108.735 81.5246 105.564C81.6639 108.258 81.8519 110.956 81.7234 113.655C81.6195 116.951 81.6094 120.191 81.762 123.489L81.4789 124.453C81.3377 122.859 81.1193 121.344 80.7761 119.781C79.0475 118.573 78.0806 118.974 76.0138 119.094Z" fill="#222835"/>
<path d="M70.9287 107.814C73.2019 107.949 74.0123 107.694 75.7733 109.212C76.2716 110.81 76.1715 110.854 75.4807 112.397C73.7204 113.663 72.2552 113.55 70.1182 113.446L70.21 113.097C71.2086 111.351 71.0154 109.74 70.9287 107.814Z" fill="#2A5243"/>
<path d="M70.3151 119.048L70.2537 124.212L65.5389 124.214C65.1109 122.638 65.1191 120.853 64.9862 119.221C66.7471 119.187 68.5662 119.248 70.3151 119.048Z" fill="#222835"/>
<path d="M92.411 70.3297L97.5937 70.3664C97.6349 73.2136 96.9181 78.6718 98.4897 80.9756C99.713 81.5804 100.791 81.4221 102.124 81.3417C103.41 82.9597 103.141 84.2972 103.115 86.3395C103.088 89.8637 102.949 93.4303 103.059 96.9506C101.402 97.7144 99.8776 97.6415 98.1009 97.6288L98.004 97.2463C96.8839 97.3312 93.9541 97.3287 93.2329 98.1342C92.1672 99.3247 91.9374 100.557 91.5917 102.06C90.2278 103.04 88.755 102.858 87.1448 102.87C87.0137 100.539 86.7325 98.0316 86.9206 95.7062C87.2587 91.5323 89.4515 93.1187 91.6904 91.2992C93.3741 84.969 92.4731 76.9271 92.411 70.3297Z" fill="#1B202C"/>
<path d="M98.004 97.2463C97.8223 94.3118 97.0048 90.1024 98.2997 87.416C100.01 86.0393 100.961 86.3667 103.115 86.3395C103.088 89.8637 102.949 93.4303 103.059 96.9506C101.402 97.7144 99.8776 97.6415 98.1009 97.6288L98.004 97.2463Z" fill="#718661"/>
<path d="M103.059 96.9506L103.424 97.4034C103.276 99.1513 102.864 100.185 103.843 101.704C105.02 101.919 106.153 102.103 107.349 102.166L107.62 102.598C108.796 105.787 108.382 109.968 108.425 113.351L108.431 118.353L103.066 119.009C101.124 118.983 99.9637 119.19 98.263 118.21C96.8731 115.766 97.8761 111.26 97.9882 108.47L98.3206 107.992L97.7381 105.443L97.885 102.898L98.1009 97.6288C99.8776 97.6415 101.402 97.7144 103.059 96.9506Z" fill="#1B202C"/>
<path d="M103.059 96.9506L103.424 97.4034C103.276 99.1513 102.864 100.185 103.843 101.704C105.02 101.919 106.153 102.103 107.349 102.166L107.62 102.598C106.133 102.624 104.629 102.875 103.151 103.05C101.314 103.695 99.7257 103.259 97.885 102.898L98.1009 97.6288C99.8776 97.6415 101.402 97.7144 103.059 96.9506Z" fill="#6B3D59"/>
<path d="M103.066 119.009C103.078 117.452 103.186 115.966 103.398 114.423C105.079 113.169 106.36 113.442 108.425 113.351L108.431 118.353L103.066 119.009Z" fill="#373F4B"/>
<path d="M97.885 102.898C99.7257 103.259 101.314 103.695 103.151 103.05C103.038 105.089 103.333 106.201 101.965 107.767C100.755 107.86 99.5351 107.987 98.3206 107.992L97.7381 105.443L97.885 102.898Z" fill="#334F4F"/>
<path d="M81.1896 75.5504C81.3061 79.6901 83.0284 88.5711 80.2771 91.7431C78.7492 92.1826 77.4462 92.082 75.8885 91.9458L70.5614 91.7698C70.6514 88.2577 70.8191 84.7474 71.0655 81.2429L75.9936 81.2144L75.9524 75.696L81.1896 75.5504Z" fill="#4B7751"/>
<path d="M71.0655 81.2429L75.9936 81.2144L75.8885 91.9458L70.5614 91.7698C70.6514 88.2577 70.8191 84.7474 71.0655 81.2429Z" fill="#334F4F"/>
<path d="M98.004 97.2463L98.1009 97.6288L97.885 102.898L97.7381 105.443L98.3206 107.992L97.9882 108.47C97.4898 110.42 97.4746 112.264 95.7587 113.404L92.3547 113.636C90.7299 113.629 89.4509 113.739 88.0211 112.845C86.4742 110.289 87.1783 105.836 87.1448 102.87C88.755 102.858 90.2278 103.04 91.5917 102.06C91.9374 100.557 92.1672 99.3247 93.2329 98.1342C93.9541 97.3287 96.8839 97.3312 98.004 97.2463Z" fill="#4C8358"/>
<path d="M97.7381 105.443L98.3206 107.992L97.9882 108.47C97.4898 110.42 97.4746 112.264 95.7587 113.404L92.3547 113.636C92.297 112.523 92.1862 111.356 92.3319 110.248C92.5079 108.911 92.7656 108.889 93.8015 108.104C95.1971 107.958 96.2633 107.866 97.4886 107.151L97.7381 105.443Z" fill="#2A5243"/>
<path d="M109.319 119.132L113.882 119.274L113.829 124.295L113.837 129.517L111.896 129.574C110.698 129.699 109.464 129.895 108.261 129.8C107.019 129.46 105.629 129.411 104.347 129.263C103.016 128.167 103.232 127.464 103.05 125.86L103.334 124.65C104.651 124.006 106.553 124.009 108.01 123.836C108.209 121.8 108.097 120.807 109.319 119.132Z" fill="#4B7751"/>
<path d="M111.896 129.574C110.591 129.479 109.826 129.312 108.682 128.662C107.976 127.194 107.844 127.173 108.334 125.64C110.147 123.998 110.888 124.273 113.273 124.131L113.829 124.295L113.837 129.517L111.896 129.574Z" fill="#718661"/>
<path d="M109.319 119.132L113.882 119.274L113.829 124.295L113.273 124.131C111.542 123.459 109.824 123.716 108.01 123.836C108.209 121.8 108.097 120.807 109.319 119.132Z" fill="#445E48"/>
<path d="M86.7813 69.9079L87.3164 69.9199C88.7936 70.2948 90.267 70.7235 91.7816 70.9123C91.8228 73.9925 92.5991 78.5147 90.735 80.9357C88.988 81.3575 88.9151 81.4057 87.3163 80.6084C86.9972 78.9074 87.3246 76.8531 86.1285 75.653L81.4922 75.3433L81.5321 70.7058L81.7309 70.1086C83.5818 70.3638 84.9666 70.5697 86.7813 69.9079Z" fill="#4B7751"/>
<path d="M81.503 102.735C83.5805 102.742 84.4834 102.401 86.1215 103.747C87.4835 106.965 87.7919 108.291 86.4584 111.626C86.0227 112.717 85.9176 112.819 84.9241 113.526L81.7234 113.655C81.8519 110.956 81.6639 108.258 81.5246 105.564L81.503 102.735Z" fill="#1B202C"/>
<path d="M97.8774 123.945C99.7003 124.176 101.495 124.723 103.334 124.65L103.05 125.86C101.053 125.972 100.159 125.928 98.4213 127.019C98.0027 127.915 97.5108 128.811 97.2904 129.78L92.2306 129.797L92.0944 126.03L92.4547 124.314C94.2479 124.201 96.0962 124.163 97.8774 123.945Z" fill="#373F4B"/>
<path d="M81.762 123.489C83.5064 124.055 84.9761 124.097 86.7781 124.078L86.9168 129.572L81.6822 129.361L81.4789 124.453L81.762 123.489Z" fill="#334F4F"/>
<path d="M76.0689 97.7523C78.0667 97.6067 79.3831 97.2033 81.1744 98.1526C81.6873 99.7434 81.5866 101.097 81.503 102.735L75.9961 102.617L76.0689 97.7523Z" fill="#222835"/>
<path d="M70.5614 91.7698L75.8885 91.9458C75.8746 93.7937 76.1494 95.1299 75.1629 96.7353C73.6565 97.1197 72.2191 97.3186 70.671 97.4497L70.5614 91.7698Z" fill="#101622"/>
<path d="M86.7781 124.078C88.6036 124.164 90.324 123.93 91.8861 124.917L92.0944 126.03L92.2306 129.797C90.4665 129.887 88.6777 129.688 86.9168 129.572L86.7781 124.078Z" fill="#222835"/>
<path d="M92.4547 124.314C92.3908 122.149 92.1457 121.36 93.3057 119.483C94.9577 118.755 94.9501 118.748 96.6515 119.348C98.0293 121.032 97.8121 121.84 97.8774 123.945C96.0962 124.163 94.2479 124.201 92.4547 124.314Z" fill="#222835"/>
<path d="M54.3973 64.5864L59.6572 64.7777C59.9637 67.6274 59.1367 72.4656 60.5747 74.7701C62.2033 75.6896 63.2949 75.5351 65.1286 75.5598C66.9503 75.6674 69.5262 75.442 71.0091 76.5788L71.0655 81.2429C70.8191 84.7474 70.6514 88.2577 70.5614 91.7698L70.671 97.4497C72.468 97.5814 74.2662 97.7479 76.0689 97.7523L75.9961 102.617C74.0288 102.692 72.5452 102.358 70.987 103.636C70.8287 105.076 70.7767 106.371 70.9287 107.814C71.0154 109.74 71.2086 111.351 70.21 113.097L70.1182 113.446L65.235 113.318C65.2261 115.424 64.8 116.891 66.1044 118.588C67.5139 118.811 68.8898 118.974 70.3151 119.048C68.5662 119.248 66.7471 119.187 64.9862 119.221L61.5068 119.056C59.7332 117.898 59.6927 116.506 59.031 114.532C57.5803 113.287 56.2196 113.606 54.3574 113.527L48.8391 113.343C45.7529 113.331 41.8037 112.864 38.8651 113.779L38.3642 114.664L37.6493 113.693L38.8524 111.443L38.5972 108.116L43.7235 107.929L43.6393 102.349C42.0392 102.304 40.4809 102.496 39.1924 101.42C37.27 98.5142 37.7297 95.3686 37.838 92.0249L38.3262 90.2499L38.5776 87.2355C40.191 86.9784 41.9354 86.9892 43.5716 86.8809L43.5102 86.3559C43.6292 84.5454 43.4589 82.9805 43.1613 81.2099L43.5944 81.1137L43.6957 75.5903L43.7077 70.5095L48.5871 70.5772C48.4427 68.6749 48.62 66.649 48.6681 64.7365L49.3115 64.9189C49.3298 67.0397 48.9296 68.4646 50.2644 70.1586C51.6359 70.3347 52.9663 70.4563 54.3498 70.4689L54.3973 64.5864Z" fill="#498D56"/>
<path d="M47.4461 80.9022C48.3718 81.4778 48.6124 81.4195 48.8448 82.4733C49.1684 83.9374 49.0689 85.4092 49.0176 86.8955C49.0683 88.7757 48.7302 90.2715 49.9212 91.7793C51.4282 92.0035 52.827 92.0953 54.3498 92.0504L59.8788 92.0313L59.9225 97.4889C59.8421 100.311 59.081 105.295 61.2047 107.445C62.0494 108.301 63.3177 108.418 64.448 108.633C65.3971 110.266 65.1964 111.449 65.235 113.318C65.2261 115.424 64.8 116.891 66.1044 118.588C67.5139 118.811 68.8898 118.974 70.3151 119.048C68.5662 119.248 66.7471 119.187 64.9862 119.221L61.5068 119.056C59.7332 117.898 59.6927 116.506 59.031 114.532C57.5803 113.287 56.2196 113.606 54.3574 113.527L48.8391 113.343C45.7529 113.331 41.8037 112.864 38.8651 113.779L38.3642 114.664L37.6493 113.693L38.8524 111.443L38.5972 108.116L43.7235 107.929L43.6393 102.349C42.0392 102.304 40.4809 102.496 39.1924 101.42C37.27 98.5142 37.7297 95.3686 37.838 92.0249L38.3262 90.2499L38.5776 87.2355C40.191 86.9784 41.9354 86.9892 43.5716 86.8809L43.5102 86.3559C43.6292 84.5454 43.4589 82.9805 43.1613 81.2099L43.5944 81.1137L47.4461 80.9022Z" fill="#1B202C"/>
<path d="M48.867 102.539C50.688 102.57 52.9644 102.09 54.2491 103.41C54.5385 105.098 54.6486 106.218 54.0743 107.851C52.6408 108.365 51.4675 108.346 49.9561 108.307L49.0265 109.132L48.8391 113.343C45.7529 113.331 41.8037 112.864 38.8651 113.779L38.3642 114.664L37.6493 113.693L38.8524 111.443L38.5972 108.116L43.7235 107.929C45.3717 108.009 46.823 108.238 48.3218 107.417C49.0968 105.627 48.7258 104.672 48.4516 102.767L48.867 102.539Z" fill="#334F4F"/>
<path d="M38.3262 90.2499L38.72 91.8344C38.437 93.9229 37.9786 95.1071 38.8682 97.0481C40.4113 97.834 41.8404 97.6826 43.5209 97.6446C43.6026 99.5305 43.2607 101.074 44.5391 102.521C45.8485 102.646 47.1358 102.761 48.4516 102.767C48.7258 104.672 49.0968 105.627 48.3218 107.417C46.823 108.238 45.3717 108.009 43.7235 107.929L43.6393 102.349C42.0392 102.304 40.4809 102.496 39.1924 101.42C37.27 98.5142 37.7297 95.3686 37.838 92.0249L38.3262 90.2499Z" fill="#445E48"/>
<path d="M47.4461 80.9022C48.3718 81.4778 48.6124 81.4195 48.8448 82.4733C49.1684 83.9374 49.0689 85.4092 49.0176 86.8955C47.3967 86.5396 46.217 85.9126 44.7024 86.6884C44.3814 88.3007 44.2143 89.8795 44.0807 91.5133L43.5716 86.8809L43.5102 86.3559C43.6292 84.5454 43.4589 82.9805 43.1613 81.2099L43.5944 81.1137L47.4461 80.9022Z" fill="#222835"/>
<path d="M54.3498 92.0504L59.8788 92.0313L59.9225 97.4889C58.3642 97.4743 56.8813 97.3774 55.3388 97.1564C54.0984 95.4402 54.4036 94.1376 54.3498 92.0504Z" fill="#6B3D59"/>
<path d="M43.5209 97.6446C45.48 97.4813 46.7895 97.012 48.5149 98.055C48.9911 99.6078 48.9398 100.947 48.867 102.539L48.4516 102.767C47.1358 102.761 45.8485 102.646 44.5391 102.521C43.2607 101.074 43.6026 99.5305 43.5209 97.6446Z" fill="#334F4F"/>
<path d="M38.5776 87.2355C40.191 86.9784 41.9354 86.9892 43.5716 86.8809L44.0807 91.5133C42.2089 91.8433 40.6177 91.9389 38.72 91.8344L38.3262 90.2499L38.5776 87.2355Z" fill="#F6CF98"/>
<path d="M54.3973 64.5864L59.6572 64.7777C59.9637 67.6274 59.1367 72.4656 60.5747 74.7701C62.2033 75.6896 63.2949 75.5351 65.1286 75.5598C66.9503 75.6674 69.5262 75.442 71.0091 76.5788C70.5747 78.5647 70.7146 79.6552 69.0816 80.9312L65.0539 81.2169C63.4184 81.36 62.0121 81.4645 60.3854 81.0985C59.1994 79.4621 59.5002 77.789 59.4179 75.8037C58.0286 75.7334 56.6951 75.5826 55.3224 75.3547C54.1351 73.8532 54.434 72.3422 54.3498 70.4689L54.3973 64.5864Z" fill="#334F4F"/>
<path d="M54.3973 64.5864L59.6572 64.7777C59.3216 68.4982 59.3007 72.0775 59.4179 75.8037C58.0286 75.7334 56.6951 75.5826 55.3224 75.3547C54.1351 73.8532 54.434 72.3422 54.3498 70.4689L54.3973 64.5864Z" fill="#2A303B"/>
<path d="M60.5291 76.6573C61.4928 75.5459 63.1594 75.387 64.3162 76.2963C65.4731 77.2057 65.7124 78.863 64.8608 80.0625C64.2713 80.8921 63.2734 81.3296 62.2647 81.2011C61.2554 81.0732 60.3987 80.4 60.0358 79.4494C59.673 78.4989 59.8624 77.4261 60.5291 76.6573Z" fill="#1C1C1A"/>
<path d="M69.9415 92.0547L70.5614 91.7698L70.671 97.4497C72.468 97.5814 74.2662 97.7479 76.0689 97.7523L75.9961 102.617C74.0288 102.692 72.5452 102.358 70.987 103.636C70.8287 105.076 70.7767 106.371 70.9287 107.814C71.0154 109.74 71.2086 111.351 70.21 113.097C70.2208 110.089 70.7134 106.073 69.7269 103.241C68.5029 102.801 67.5398 102.774 66.2411 102.788L65.7428 102.797C64.869 101.47 65.2014 100.548 65.3186 99.0296C66.4438 97.2926 67.3189 97.4078 69.2653 96.8537C70.4443 95.1983 70.0289 94.0496 69.9415 92.0547Z" fill="#445E48"/>
<path d="M65.0539 81.2169L69.0816 80.9312C70.7146 79.6552 70.5747 78.5647 71.0091 76.5788L71.0655 81.2429C70.8191 84.7474 70.6514 88.2577 70.5614 91.7698L69.9415 92.0547C68.3452 92.1263 67.2625 92.2289 65.8289 91.4075C64.3099 88.6009 65.0039 84.4079 65.0539 81.2169Z" fill="#222835"/>
<path d="M47.4461 80.9022C47.8 80.6077 48.3313 80.5665 48.7739 80.4576C50.4107 80.7109 52.0247 80.9788 53.64 81.3525C54.7525 83.125 54.3878 84.6512 54.3688 86.7182L54.3498 92.0504C52.827 92.0953 51.4282 92.0035 49.9212 91.7793C48.7302 90.2715 49.0683 88.7757 49.0176 86.8955C49.0689 85.4092 49.1684 83.9374 48.8448 82.4733C48.6124 81.4195 48.3718 81.4778 47.4461 80.9022Z" fill="#334F4F"/>
<path d="M43.7077 70.5095L48.5871 70.5772C48.6941 72.2598 48.8632 73.9621 48.8708 75.6479C48.8828 77.1747 49.088 78.9694 48.7739 80.4576C48.3313 80.5665 47.8 80.6077 47.4461 80.9022L43.5944 81.1137L43.6957 75.5903L43.7077 70.5095Z" fill="#2A5243"/>
<path d="M43.7077 70.5095L48.5871 70.5772C48.6941 72.2598 48.8632 73.9621 48.8708 75.6479C47.1497 75.7049 45.4167 75.6251 43.6957 75.5903L43.7077 70.5095Z" fill="#445E48"/>
<path d="M54.3688 86.7182C56.0176 86.4408 57.543 85.9386 59.0709 86.8075C59.9846 88.4584 59.8491 90.1942 59.8788 92.0313L54.3498 92.0504L54.3688 86.7182Z" fill="#64645D"/>
<path d="M32.8801 64.9259C32.8364 56.9302 31.5605 40.5955 33.2841 33.3774L34.2345 32.8094C35.7858 32.7518 37.0085 32.3756 38.2534 33.3888C38.1622 34.884 38.1331 36.0574 38.5288 37.5089C39.8554 38.3682 40.9843 38.3537 42.5027 38.3531L43.0986 38.3493C44.0458 39.6456 43.778 41.6391 43.7995 43.1951C45.4211 43.2438 47.2555 43.1254 48.8366 43.4674L48.9265 53.5744L49.257 53.8474C49.2849 57.5255 49.416 61.2446 49.3115 64.9189L48.6681 64.7365C48.62 66.649 48.4427 68.6749 48.5871 70.5772L43.7077 70.5095L43.6134 64.7264C41.6657 64.7891 40.4702 64.513 38.8783 65.6852C38.7137 66.865 38.5295 68.0448 38.4358 69.2322L38.1641 69.2588L37.9134 66.2533C36.5387 64.874 34.7791 65.1254 32.8801 64.9259Z" fill="#2A303B"/>
<path d="M38.2502 53.5251L39.0316 54.2749C41.0287 54.5251 41.1737 54.5573 42.894 53.5346L43.3018 51.5828L43.5868 53.3167C45.0545 54.2515 46.3848 54.2565 48.1046 53.8481C48.3857 53.7809 48.6561 53.6726 48.9265 53.5744L49.257 53.8474C49.2849 57.5255 49.416 61.2446 49.3115 64.9189L48.6681 64.7365C48.62 66.649 48.4427 68.6749 48.5871 70.5772L43.7077 70.5095L43.6134 64.7264C41.6657 64.7891 40.4702 64.513 38.8783 65.6852C38.7137 66.865 38.5295 68.0448 38.4358 69.2322L38.1641 69.2588L37.9134 66.2533C36.5387 64.874 34.7791 65.1254 32.8801 64.9259C34.4827 64.8594 35.8352 64.9304 37.2264 64.0235C38.7904 61.1979 38.1768 56.7871 38.2502 53.5251Z" fill="#718661"/>
<path d="M38.2502 53.5251L39.0316 54.2749C41.0287 54.5251 41.1737 54.5573 42.894 53.5346L43.3018 51.5828L43.5868 53.3167C45.0545 54.2515 46.3848 54.2565 48.1046 53.8481C48.3857 53.7809 48.6561 53.6726 48.9265 53.5744L49.257 53.8474C49.2849 57.5255 49.416 61.2446 49.3115 64.9189L48.6681 64.7365C48.7954 62.1939 49.6129 57.6483 47.7285 55.6877C47.4227 55.3691 47.087 55.1089 46.7331 54.8493C45.4357 55.0526 45.1894 55.0278 44.3668 56.1595C42.8934 58.1866 43.5222 62.287 43.6134 64.7264C41.6657 64.7891 40.4702 64.513 38.8783 65.6852C38.7137 66.865 38.5295 68.0448 38.4358 69.2322L38.1641 69.2588L37.9134 66.2533C36.5387 64.874 34.7791 65.1254 32.8801 64.9259C34.4827 64.8594 35.8352 64.9304 37.2264 64.0235C38.7904 61.1979 38.1768 56.7871 38.2502 53.5251Z" fill="#334F4F"/>
<path d="M43.7995 43.1951C45.4211 43.2438 47.2555 43.1254 48.8366 43.4674L48.9265 53.5744C48.6561 53.6726 48.3857 53.7809 48.1046 53.8481C46.3848 54.2565 45.0545 54.2515 43.5868 53.3167L43.3018 51.5828L42.894 53.5346C41.1737 54.5573 41.0287 54.5251 39.0316 54.2749L38.2502 53.5251L38.2407 44.2488L38.3066 44.0392C39.7446 42.7663 41.9018 43.2223 43.7995 43.1951Z" fill="#6B3D59"/>
<path d="M43.412 44.0937C44.7227 43.2755 47.2884 43.5244 48.8366 43.4674L48.9265 53.5744C48.6561 53.6726 48.3857 53.7809 48.1046 53.8481C46.3848 54.2565 45.0545 54.2515 43.5868 53.3167L43.3018 51.5828L43.412 44.0937Z" fill="#26222C"/>
<path d="M43.7995 43.1951C45.4211 43.2438 47.2555 43.1254 48.8366 43.4674C47.2884 43.5244 44.7227 43.2755 43.412 44.0937L42.7041 47.0252C41.622 48.1366 41.6251 48.4082 40.0156 48.5057C38.5516 47.1239 38.6137 46.1702 38.2407 44.2488L38.3066 44.0392C39.7446 42.7663 41.9018 43.2223 43.7995 43.1951Z" fill="#794568"/>
<path d="M119.039 54.4427L118.873 59.652L119.321 59.7495L118.402 62.8114C116.917 62.8418 115.386 62.7937 113.912 62.9495C113.863 65.285 114.192 68.5685 113.522 70.7584C113.933 74.2598 113.928 77.6877 113.892 81.2037C112.578 81.2157 110.066 80.8199 109.156 81.8407C107.805 83.358 108.558 85.9209 106.167 86.3832C105.258 86.5586 104.043 86.3889 103.115 86.3395C103.141 84.2972 103.41 82.9597 102.124 81.3417C100.791 81.4221 99.713 81.5804 98.4897 80.9756C96.9181 78.6718 97.6349 73.2136 97.5937 70.3664C97.5057 66.6997 97.398 63.1071 97.8248 59.4544L102.744 59.6007L103.125 59.7552L108.266 59.6115L108.381 56.1873L108.106 54.5731L113.938 54.3578L119.039 54.4427Z" fill="#4C8358"/>
<path d="M97.8248 59.4544L102.744 59.6007L103.125 59.7552L103.14 64.779L103.118 70.2885L103.127 76.7384C104.76 76.7289 106.652 76.9309 108.191 76.3445L108.37 76.7111C109.53 76.3356 110.891 76.2083 112.098 75.9835C113.563 74.5605 113.303 72.7469 113.522 70.7584C113.933 74.2598 113.928 77.6877 113.892 81.2037C112.578 81.2157 110.066 80.8199 109.156 81.8407C107.805 83.358 108.558 85.9209 106.167 86.3832C105.258 86.5586 104.043 86.3889 103.115 86.3395C103.141 84.2972 103.41 82.9597 102.124 81.3417C100.791 81.4221 99.713 81.5804 98.4897 80.9756C96.9181 78.6718 97.6349 73.2136 97.5937 70.3664C97.5057 66.6997 97.398 63.1071 97.8248 59.4544Z" fill="#334F4F"/>
<path d="M97.8248 59.4544L102.744 59.6007L103.125 59.7552L103.14 64.779L103.118 70.2885C101.254 70.3448 100.274 70.6279 98.66 69.6419C97.3423 66.8694 98.0882 62.567 97.8248 59.4544Z" fill="#1C1C1A"/>
<path d="M103.127 76.7384C104.76 76.7289 106.652 76.9309 108.191 76.3445L108.37 76.7111C108.416 78.2316 108.411 79.2537 107.67 80.6083C106.18 81.4474 106.159 81.5677 104.512 81.184C103.046 79.6249 103.266 78.8028 103.127 76.7384Z" fill="#445E48"/>
<path d="M119.039 54.4427L118.873 59.652L119.321 59.7495L118.402 62.8114C116.917 62.8418 115.386 62.7937 113.912 62.9495L113.665 62.1294L113.737 59.8477L113.938 54.3578L119.039 54.4427Z" fill="#474C54"/>
<path d="M118.873 59.652L119.321 59.7495L118.402 62.8114C116.917 62.8418 115.386 62.7937 113.912 62.9495L113.665 62.1294L113.737 59.8477L118.873 59.652Z" fill="#09182F"/>
<path d="M108.191 76.3445C108.147 74.4402 107.812 72.4897 109.026 70.9059C110.207 70.7951 111.195 70.6899 112.296 70.2314C113.759 68.248 113.271 64.601 113.665 62.1294L113.912 62.9495C113.863 65.285 114.192 68.5685 113.522 70.7584C113.303 72.7469 113.563 74.5605 112.098 75.9835C110.891 76.2083 109.53 76.3356 108.37 76.7111L108.191 76.3445Z" fill="#2A5243"/>
<path d="M108.266 59.6115C108.336 61.6183 108.715 62.7975 107.582 64.4928C106.067 64.7398 104.674 64.8227 103.14 64.779L103.125 59.7552L108.266 59.6115Z" fill="#2A5243"/>
<path d="M108.106 54.5731L113.938 54.3578L113.737 59.8477C111.356 58.7028 109.801 58.4988 108.381 56.1873L108.106 54.5731Z" fill="#718661"/>
<path d="M81.149 20.8994C82.9353 20.7322 84.7297 20.5169 86.521 20.4251C86.6148 29.1528 87.9229 39.8748 86.2684 48.3848C84.6107 48.8306 83.2437 48.9053 81.5454 48.8756L81.7398 53.5884C79.9061 54.045 77.8438 53.8804 75.9588 53.8975L75.9049 48.3575L76.1031 38.0972L76.0189 37.7559L75.9765 27.1929C75.9334 25.7591 75.9841 24.3438 76.0531 22.9113C77.5797 20.9887 79.2178 22.2844 81.149 20.8994Z" fill="#2A303B"/>
<path d="M76.1031 38.0972L81.5961 37.7014L81.5454 48.8756L81.7398 53.5884C79.9061 54.045 77.8438 53.8804 75.9588 53.8975L75.9049 48.3575L76.1031 38.0972Z" fill="#718661"/>
<path d="M75.9765 27.1929C78.2528 27.1986 79.366 26.8509 81.2263 28.2289C82.4794 30.8532 81.7487 34.8396 81.5961 37.7014L76.1031 38.0972L76.0189 37.7559L75.9765 27.1929Z" fill="#794568"/>
<path d="M70.7419 27.3227L75.9765 27.1929L76.0189 37.7559L76.1031 38.0972L75.9049 48.3575L75.9588 53.8975L75.8594 59.6868L76.1082 62.5486L75.9543 64.7885C74.2447 64.8961 72.7447 65.1621 71.1889 64.2996L70.7907 62.1579L70.5583 62.1199C70.1271 58.2658 71.4302 53.6498 69.8801 50.1048C68.3085 48.6242 67.2885 48.8274 65.1812 48.5804L65.1046 45.238C64.0769 43.5193 62.3147 43.3015 60.4823 42.5966C59.5559 41.0211 59.7864 39.6962 59.7509 37.9015C63.1144 37.2847 66.9225 37.5963 70.3506 37.5748C70.3436 34.1272 70.4449 30.7614 70.7419 27.3227Z" fill="#6B3D59"/>
<path d="M70.7907 62.1579C71.2282 58.0676 69.8694 53.5365 71.2668 49.6672C72.8067 48.0966 73.7578 48.4614 75.9049 48.3575L75.9588 53.8975L75.8594 59.6868L76.1082 62.5486L75.9543 64.7885C74.2447 64.8961 72.7447 65.1621 71.1889 64.2996L70.7907 62.1579Z" fill="#2A303B"/>
<path d="M59.7509 37.9015C63.3133 38.1972 66.7984 38.253 70.3683 38.2124C70.4088 40.9881 71.1636 45.3235 69.5876 47.6717C68.1401 48.4671 66.7895 48.4753 65.1812 48.5804L65.1046 45.238C64.0769 43.5193 62.3147 43.3015 60.4823 42.5966C59.5559 41.0211 59.7864 39.6962 59.7509 37.9015Z" fill="#26222C"/>
<path d="M70.7419 27.3227L75.9765 27.1929L76.0189 37.7559C74.4271 37.9516 73.0499 38.3081 71.5879 37.483C70.1442 35.0721 70.9293 30.1946 70.7419 27.3227Z" fill="#26222C"/>
<path d="M11.2939 124.219L15.9878 124.356L16.4234 124.317C23.6057 124.245 30.7893 124.25 37.9716 124.332L37.914 129.296C34.251 129.315 30.6981 129.438 27.0522 129.845L27.1263 135.028C24.9715 135.059 24.1851 134.904 22.3736 136.199C20.9489 137.216 20.0212 137.805 18.2768 138.143C15.7788 136.887 17.12 135.741 15.5452 133.775C14.0648 133.139 12.6869 132.034 11.3515 131.132L11.3731 128.264L11.2939 124.219Z" fill="#AE6F44"/>
<path d="M11.2939 124.219L15.9878 124.356L16.4234 124.317C16.3861 127.311 16.754 131.001 15.5452 133.775C14.0648 133.139 12.6869 132.034 11.3515 131.132L11.3731 128.264L11.2939 124.219Z" fill="#9A5A38"/>
<path d="M11.2939 124.219L15.9878 124.356C15.8042 126.149 15.8725 127.224 14.8088 128.723C13.405 128.98 12.6914 128.777 11.3731 128.264L11.2939 124.219Z" fill="#8C502D"/>
<path d="M70.5583 62.1199L70.7907 62.1579L71.1889 64.2996C72.7447 65.1621 74.2447 64.8961 75.9543 64.7885L76.1082 62.5486C77.745 63.4162 80.2873 64.4009 80.9388 66.2552C81.2535 67.1519 81.4169 68.129 81.5847 69.0618L81.7309 70.1086L81.5321 70.7058L81.4922 75.3433L81.1896 75.5504L75.9524 75.696L75.9936 81.2144L71.0655 81.2429L71.0091 76.5788C69.5262 75.442 66.9503 75.6674 65.1286 75.5598C65.1679 72.5663 64.1795 68.6211 65.4642 65.8777C67.096 64.489 68.1876 64.7613 70.2898 64.6302L70.5583 62.1199Z" fill="#1B202C"/>
<path d="M76.1082 62.5486C77.745 63.4162 80.2873 64.4009 80.9388 66.2552C81.2535 67.1519 81.4169 68.129 81.5847 69.0618L81.7309 70.1086L81.5321 70.7058L81.4922 75.3433L81.1896 75.5504L75.9524 75.696L75.9423 70.5861L75.4655 70.4062C76.1532 68.6008 75.9752 66.6927 75.9543 64.7885L76.1082 62.5486Z" fill="#474C54"/>
<path d="M75.9423 70.5861C77.7634 70.6178 79.7294 70.5127 81.5321 70.7058L81.4922 75.3433L81.1896 75.5504L75.9524 75.696L75.9423 70.5861Z" fill="#334F4F"/>
<path d="M70.5583 62.1199L70.7907 62.1579L71.1889 64.2996C72.7447 65.1621 74.2447 64.8961 75.9543 64.7885C75.9752 66.6927 76.1532 68.6008 75.4655 70.4062C73.8306 70.4746 72.6377 70.5874 71.1231 69.8338C70.4671 68.1309 70.4101 66.4274 70.2898 64.6302L70.5583 62.1199Z" fill="#794568"/>
<path d="M124.638 69.7774C128.48 69.1549 132.127 70.5209 135.858 69.9224L135.873 70.3936C135.573 72.1693 135.371 73.8032 135.389 75.6112L135.496 80.8053L135.615 81.0827L135.217 86.4497L130.249 86.3692L129.897 86.2584C128.213 86.4674 126.348 86.5592 124.701 86.929L120.852 87.043L123.45 86.4357C126.043 83.6759 124.686 73.5954 124.638 69.7774Z" fill="#2A303B"/>
<path d="M124.638 69.7774C128.48 69.1549 132.127 70.5209 135.858 69.9224L135.873 70.3936C135.573 72.1693 135.371 73.8032 135.389 75.6112C134.492 75.6416 133.351 75.7745 132.473 75.5998C130.164 75.14 130.603 72.7304 129.387 71.1143C128.473 69.8984 126.091 69.9896 124.638 69.7774Z" fill="#EFBC84"/>
<path d="M135.496 80.8053L135.615 81.0827L135.217 86.4497L130.249 86.3692L129.897 86.2584C129.838 84.8431 129.892 83.477 130 82.0648C131.5 80.7286 133.522 80.9864 135.496 80.8053Z" fill="#6B3D59"/>
<path d="M38.4358 69.2322C38.5295 68.0448 38.7137 66.865 38.8783 65.6852C40.4702 64.513 41.6657 64.7891 43.6134 64.7264L43.7077 70.5095L43.6957 75.5903L43.5944 81.1137L43.1613 81.2099C43.4589 82.9805 43.6292 84.5454 43.5102 86.3559L43.5716 86.8809C41.9354 86.9892 40.191 86.9784 38.5776 87.2355L37.3897 86.7492L37.4024 86.3971L32.9232 86.349L32.8719 81.0104L32.7611 75.6384C34.1205 75.7676 35.4059 75.6612 36.7641 75.5478C38.211 73.964 37.9659 71.3885 38.1641 69.2588L38.4358 69.2322Z" fill="#C08052"/>
<path d="M38.4358 69.2322C38.5295 68.0448 38.7137 66.865 38.8783 65.6852C40.4702 64.513 41.6657 64.7891 43.6134 64.7264L43.7077 70.5095L43.6957 75.5903C41.9398 75.4585 40.1409 75.5529 38.3794 75.5649L38.4358 69.2322Z" fill="#2A303B"/>
<path d="M38.3794 75.5649C40.1409 75.5529 41.9398 75.4585 43.6957 75.5903L43.5944 81.1137L43.1613 81.2099L38.3648 81.1624C38.228 79.3361 38.3604 77.402 38.3794 75.5649Z" fill="#6B3D59"/>
<path d="M32.8719 81.0104C34.9538 81.1035 36.0442 80.9021 37.7924 82.0864C38.0432 83.6987 37.8336 84.8342 37.4024 86.3971L32.9232 86.349L32.8719 81.0104Z" fill="#F6CF98"/>
<path d="M38.3648 81.1624L43.1613 81.2099C43.4589 82.9805 43.6292 84.5454 43.5102 86.3559C42.1507 86.3762 40.845 86.278 39.4938 86.1299C38.2578 84.6252 38.5079 83.0667 38.3648 81.1624Z" fill="#26222C"/>
<path d="M103.165 43.2191L113.904 43.3179L113.943 48.4981L114.023 48.9591L113.938 54.3578L108.106 54.5731L108.381 56.1873L108.266 59.6115L103.125 59.7552L102.744 59.6007C103.788 54.5136 103.178 48.4367 103.165 43.2191Z" fill="#26222C"/>
<path d="M113.943 48.4981L114.023 48.9591L113.938 54.3578L108.106 54.5731C108.207 53.0602 108.297 51.5461 108.374 50.0313C109.955 48.4361 111.749 48.7349 113.943 48.4981Z" fill="#6B3D59"/>
<path d="M75.9588 53.8975C77.8438 53.8804 79.9061 54.045 81.7398 53.5884L81.9848 53.862C83.9389 53.9766 84.8608 53.6973 86.2874 55.1361C87.6988 59.9794 86.6939 64.9323 86.7813 69.9079C84.9666 70.5697 83.5818 70.3638 81.7309 70.1086L81.5847 69.0618C81.4169 68.129 81.2535 67.1519 80.9388 66.2552C80.2873 64.4009 77.745 63.4162 76.1082 62.5486L75.8594 59.6868L75.9588 53.8975Z" fill="#498D56"/>
<path d="M75.9588 53.8975C77.8438 53.8804 79.9061 54.045 81.7398 53.5884L81.9848 53.862C81.8227 55.8004 81.6188 57.7395 81.6239 59.6862L75.8594 59.6868L75.9588 53.8975Z" fill="#4B7751"/>
<path d="M75.8594 59.6868L81.6239 59.6862L81.5847 69.0618C81.4169 68.129 81.2535 67.1519 80.9388 66.2552C80.2873 64.4009 77.745 63.4162 76.1082 62.5486L75.8594 59.6868Z" fill="#2A5243"/>
<path d="M11.3041 119.18C20.284 118.894 29.2823 119.055 38.2654 119.105L37.9716 124.332C30.7893 124.25 23.6057 124.245 16.4234 124.317L15.9878 124.356L11.2939 124.219L11.3041 119.18Z" fill="#5F2F17"/>
<path d="M119.321 59.7495C121.066 59.8084 122.937 59.7292 124.657 59.9908L124.687 64.8265L124.166 64.7448C122.537 65.0925 120.773 64.9873 119.882 66.523C117.32 70.9414 122.146 78.2943 117.23 81.1941L113.892 81.2037C113.928 77.6877 113.933 74.2598 113.522 70.7584C114.192 68.5685 113.863 65.285 113.912 62.9495C115.386 62.7937 116.917 62.8418 118.402 62.8114L119.321 59.7495Z" fill="#222835"/>
<path d="M119.321 59.7495C121.066 59.8084 122.937 59.7292 124.657 59.9908L124.687 64.8265L124.166 64.7448C121.518 64.5567 120.19 64.8315 118.402 62.8114L119.321 59.7495Z" fill="#26222C"/>
<path d="M87.3221 48.6945C90.6584 48.6007 95.798 47.9243 98.2428 50.769C98.3726 50.9204 98.4745 51.0933 98.5904 51.2554C98.2485 52.7278 98.2548 52.9596 96.8776 53.7885C95.5308 54.5997 93.5811 54.3971 92.0602 54.3521C91.4447 59.5266 91.3308 65.7137 91.7816 70.9123C90.267 70.7235 88.7936 70.2948 87.3164 69.9199C87.6779 62.8633 87.0397 55.7669 87.3221 48.6945Z" fill="#1B202C"/>
<path d="M11.2635 86.561C11.361 81.9426 9.78756 75.195 12.2665 71.1915C13.7577 70.3423 14.035 70.3017 15.7548 70.3765C17.1237 71.9799 15.9618 73.3313 16.9103 74.91C17.3225 75.5965 20.1757 75.903 21.1116 76.1665C22.3482 77.9542 22.0044 79.1296 21.9866 81.2707C20.643 81.2947 18.3072 80.918 17.3802 81.9711C15.9682 83.5739 16.6235 86.0456 13.9901 86.3819C13.0903 86.4965 12.169 86.5224 11.2635 86.561Z" fill="#26222C"/>
<path d="M118.982 38.5583C119.252 40.4467 119.055 41.8861 120.494 43.2135L123.766 43.501C124.042 46.7225 124.93 50.4473 123.586 53.4763C122.094 54.8587 121.028 54.4433 119.039 54.4427L113.938 54.3578L114.023 48.9591L113.943 48.4981L113.904 43.3179L118.939 43.3408L118.982 38.5583Z" fill="#2A303B"/>
<path d="M114.023 48.9591L119.077 48.3714L119.039 54.4427L113.938 54.3578L114.023 48.9591Z" fill="#718661"/>
<path d="M113.904 43.3179L118.939 43.3408C118.994 45.012 119.106 46.7002 119.077 48.3714L114.023 48.9591L113.943 48.4981L113.904 43.3179Z" fill="#794568"/>
<path d="M21.9866 81.2707C22.0348 83.002 21.9233 84.8519 22.5084 86.4978L27.3453 86.2705L27.3764 91.911L22.1798 92.0953L22.0227 92.4424C20.3099 92.0288 18.3591 92.0833 16.595 91.975L16.1689 87.7954C14.7822 86.4535 13.1454 86.7276 11.2635 86.561C12.169 86.5224 13.0903 86.4965 13.9901 86.3819C16.6235 86.0456 15.9682 83.5739 17.3802 81.9711C18.3072 80.918 20.643 81.2947 21.9866 81.2707Z" fill="#794568"/>
<path d="M22.5084 86.4978L27.3453 86.2705L27.3764 91.911L22.1798 92.0953C21.9784 90.3526 22.0829 88.5331 22.0867 86.7783L22.5084 86.4978Z" fill="#718661"/>
<path d="M16.595 91.975C16.6482 90.2924 16.5564 88.7712 17.4138 87.2672C18.9018 86.2799 20.3948 86.6308 22.0867 86.7783C22.0829 88.5331 21.9784 90.3526 22.1798 92.0953L22.0227 92.4424C20.3099 92.0288 18.3591 92.0833 16.595 91.975Z" fill="#2C2A29"/>
<path d="M32.7813 91.9224L37.838 92.0249C37.7297 95.3686 37.27 98.5142 39.1924 101.42C40.4809 102.496 42.0392 102.304 43.6393 102.349L43.7235 107.929L38.5972 108.116L37.8716 103.924C36.3221 102.506 34.7056 102.863 32.6597 102.755L32.7921 97.6688C32.8586 95.7075 32.6781 93.9419 32.3862 92.0104L32.7813 91.9224Z" fill="#4B7751"/>
<path d="M43.6393 102.349L43.7235 107.929L38.5972 108.116L38.8973 103.871C40.1612 102.577 41.8841 102.657 43.6393 102.349Z" fill="#4C8358"/>
<path d="M32.9232 86.349L37.4024 86.3971L37.3897 86.7492L38.5776 87.2355L38.3262 90.2499L37.838 92.0249L32.7813 91.9224L32.3862 92.0104C32.6781 93.9419 32.8586 95.7075 32.7921 97.6688L27.6632 97.7005C27.3682 95.857 27.4479 93.7868 27.3764 91.911L27.3453 86.2705L32.9232 86.349Z" fill="#2A5243"/>
<path d="M37.3897 86.7492L38.5776 87.2355L38.3262 90.2499L37.838 92.0249L32.7813 91.9224L32.9289 88.043C34.1915 86.6536 35.5744 86.9316 37.3897 86.7492Z" fill="#19191B"/>
<path d="M27.6632 97.7005C27.7683 96.0046 27.8956 94.3421 28.1552 92.6601C29.6388 91.6868 30.6817 91.968 32.3862 92.0104C32.6781 93.9419 32.8586 95.7075 32.7921 97.6688L27.6632 97.7005Z" fill="#718661"/>
<path d="M21.9866 81.2707L25.4584 81.1966C27.2111 80.0954 27.2947 78.2652 27.9026 76.3337C29.628 75.2907 30.7722 75.5941 32.7611 75.6384L32.8719 81.0104L32.9232 86.349L27.3453 86.2705L22.5084 86.4978C21.9233 84.8519 22.0348 83.002 21.9866 81.2707Z" fill="#2A303B"/>
<path d="M22.1798 92.0953L27.3764 91.911C27.4479 93.7868 27.3682 95.857 27.6632 97.7005L32.7921 97.6688L32.6597 102.755L31.9449 102.926L27.6062 102.813C25.794 102.717 23.9249 102.807 22.1076 102.814L21.729 102.704C21.9234 99.2817 21.9797 95.8684 22.0227 92.4424L22.1798 92.0953Z" fill="#2A303B"/>
<path d="M27.6632 97.7005L32.7921 97.6688L32.6597 102.755L31.9449 102.926L27.6062 102.813L27.6632 97.7005Z" fill="#574244"/>
<path d="M119.077 32.5896L130.144 32.5903C130.216 35.6433 130.947 39.8691 129.554 42.5561C127.913 43.532 126.924 43.2963 125.039 43.2761L124.677 42.9943C124.722 42.0552 124.894 40.8019 124.708 39.8843C124.26 37.6678 121.497 38.3391 120.026 37.1194C119.04 36.3012 119.195 33.8314 119.077 32.5896Z" fill="#26222C"/>
<path d="M49.257 53.8474C51.0287 53.9013 52.6839 53.6251 54.1858 54.6073L54.2928 56.226C54.3327 59.0061 54.4492 61.8076 54.3973 64.5864L54.3498 70.4689C52.9663 70.4563 51.6359 70.3347 50.2644 70.1586C48.9296 68.4646 49.3298 67.0397 49.3115 64.9189C49.416 61.2446 49.2849 57.5255 49.257 53.8474Z" fill="#2C2A29"/>
<path d="M49.3115 64.9189C50.7108 65.0677 51.6758 65.0146 53.0188 64.582C54.51 62.7367 54.1465 58.5913 54.2928 56.226C54.3327 59.0061 54.4492 61.8076 54.3973 64.5864L54.3498 70.4689C52.9663 70.4563 51.6359 70.3347 50.2644 70.1586C48.9296 68.4646 49.3298 67.0397 49.3115 64.9189Z" fill="#334F4F"/>
<path d="M22.1076 102.814C23.9249 102.807 25.794 102.717 27.6062 102.813L27.6924 108.01C23.9508 108.179 20.258 108.384 16.5178 108.067C16.4817 106.575 16.5583 105.181 16.7584 103.701C18.3692 102.411 19.6996 102.757 21.729 102.704L22.1076 102.814Z" fill="#6B3D59"/>
<path d="M16.5178 108.067C16.4817 106.575 16.5583 105.181 16.7584 103.701C18.3692 102.411 19.6996 102.757 21.729 102.704L22.1076 102.814C22.0684 104.76 22.3615 105.913 21.1926 107.505C19.6381 107.724 18.0799 107.912 16.5178 108.067Z" fill="#2B1B25"/>
<path d="M86.9276 16.2099C88.0363 26.8996 86.9023 37.9421 87.3221 48.6945C87.0397 55.7669 87.6779 62.8633 87.3164 69.9199L86.7813 69.9079C86.6939 64.9323 87.6988 59.9794 86.2874 55.1361C84.8608 53.6973 83.9389 53.9766 81.9848 53.862L81.7398 53.5884L81.5454 48.8756C83.2437 48.9053 84.6107 48.8306 86.2684 48.3848C87.9229 39.8748 86.6148 29.1528 86.521 20.4251L86.9276 16.2099Z" fill="#2A5243"/>
<path d="M32.6597 102.755C34.7056 102.863 36.3221 102.506 37.8716 103.924L38.5972 108.116L38.8524 111.443L37.9868 109.067C36.2272 107.944 34.8373 108.288 32.7769 108.305L32.4654 108.011L27.6924 108.01L27.6062 102.813L31.9449 102.926L32.6597 102.755Z" fill="#2A5243"/>
<path d="M27.6062 102.813L31.9449 102.926C32.9498 104.289 32.8966 105.287 32.6617 106.977C32.6135 107.324 32.5356 107.667 32.4654 108.011L27.6924 108.01L27.6062 102.813Z" fill="#1B202C"/>
<path d="M124.677 42.9943L125.039 43.2761C124.095 48.3891 124.57 54.3141 124.799 59.5209L124.657 59.9908C122.937 59.7292 121.066 59.8084 119.321 59.7495L118.873 59.652L119.039 54.4427C121.028 54.4433 122.094 54.8587 123.586 53.4763C124.93 50.4473 124.042 46.7225 123.766 43.501L124.677 42.9943Z" fill="#474C54"/>
<path d="M113.827 37.9408L117.808 37.462C119.243 35.8871 118.938 34.6775 119.077 32.5896C119.195 33.8314 119.04 36.3012 120.026 37.1194C121.497 38.3391 124.26 37.6678 124.708 39.8843C124.894 40.8019 124.722 42.0552 124.677 42.9943L123.766 43.501L120.494 43.2135C119.055 41.8861 119.252 40.4467 118.982 38.5583C117.53 37.9643 115.409 38.0668 113.827 37.9408Z" fill="#794568"/>
<path d="M32.7769 108.305C34.8373 108.288 36.2272 107.944 37.9868 109.067L38.8524 111.443L37.6493 113.693C36.3595 113.62 35.0843 113.47 33.802 113.32C32.5654 111.842 32.8763 110.192 32.7769 108.305Z" fill="#101622"/>
<path d="M113.827 37.9408C115.409 38.0668 117.53 37.9643 118.982 38.5583L118.939 43.3408L113.904 43.3179L113.827 37.9408Z" fill="#2B1B25"/>
<path d="M141.083 10.9734C142.861 11.2572 144.497 11.6934 146.229 11.0215C146.114 12.682 146.113 14.4412 145.817 16.0751C144.552 16.077 143.32 15.9566 142.062 15.8274C140.819 14.3266 141.151 12.8758 141.083 10.9734Z" fill="#F6CF98"/>
<path d="M81.149 20.8994C81.3213 19.5518 81.5809 18.2966 81.9494 16.9889C83.5824 15.9459 85.0261 16.2365 86.9276 16.2099L86.521 20.4251C84.7297 20.5169 82.9353 20.7322 81.149 20.8994Z" fill="#26222C"/>
<path d="M124.799 59.5209C126.795 59.7957 127.308 59.659 128.687 61.2415C128.925 62.8976 128.87 62.9412 127.974 64.3642C126.779 64.8879 125.98 64.8974 124.687 64.8265L124.657 59.9908L124.799 59.5209Z" fill="#EFBC84"/>
</svg>
