<svg width="192" height="199" viewBox="0 0 192 199" fill="none" xmlns="http://www.w3.org/2000/svg">
<path d="M12.2343 6.26021C12.6894 3.92839 12.62 2.14721 13.9838 0.569781C44.2989 -0.579696 80.6733 0.362378 111.411 0.381366L144.258 0.386493C148.154 0.386493 157.706 0.17396 161.153 0.662524C162.483 2.15086 162.189 4.09563 162.17 6.12438L162.045 12.5487L168.018 12.7744L168.742 11.8185C169.951 11.9952 173.016 12.3508 173.994 12.7664C175.197 19.3507 175.303 15.5904 178.534 20.0817C181.994 24.8906 190.389 29.5251 190.572 35.0008C191.039 48.9333 190.948 62.8015 190.98 76.6865C191.222 112.902 191.062 149.12 190.5 185.331L190.229 185.446C186.725 186.963 183.921 190.629 179.302 193.721C179.014 194.687 178.355 198.2 177.249 198.175C133.691 197.194 90.0409 197.677 46.4421 197.988C39.6079 198.037 31.7999 198.126 25.1811 196.956C23.6318 196.674 17.9268 189.224 17.0269 187.595L13.7785 186.692L12.647 182.82C10.5023 179.653 8.32335 184.131 5.73822 175.894L3.59575 175.085C2.14869 174.88 2.22173 174.902 0.986512 174.115C-0.534324 165.636 0.153051 122.416 0.166199 111.118L0.183732 47.8167C0.189575 42.3672 -0.337816 16.0337 1.18521 13.2308C3.52929 11.6797 3.16623 12.18 6.44749 12.1544C6.46283 10.7844 6.60602 9.3895 6.71924 8.02167C8.59873 6.29234 9.1999 6.73271 12.2343 6.26021Z" fill="#A15F37"/>
<path d="M168.742 11.8185C169.951 11.9952 173.016 12.3508 173.994 12.7664C175.197 19.3507 175.303 15.5904 178.534 20.0817C181.994 24.8906 190.389 29.5251 190.572 35.0008C191.039 48.9333 190.948 62.8015 190.98 76.6865C191.222 112.902 191.062 149.12 190.5 185.331L190.229 185.446C186.725 186.963 183.921 190.629 179.302 193.721C179.014 194.687 178.355 198.2 177.249 198.175C133.691 197.194 90.0409 197.677 46.4421 197.988C39.6079 198.037 31.7999 198.126 25.1811 196.956C23.6318 196.674 17.9268 189.224 17.0269 187.595L13.7785 186.692L12.647 182.82C10.5023 179.653 8.32335 184.131 5.73822 175.894L3.59575 175.085L5.78787 174.631C7.03697 172.419 6.57533 171.581 6.60236 168.67L6.53149 163.174L10.4001 163.623C12.7843 164.892 12.4644 165.293 13.0444 168.127L13.8048 169.074C28.3543 169 42.8694 169.609 57.4349 169.677C78.6609 169.669 99.8854 169.489 121.108 169.138C130.658 169.043 152.807 169.64 160.872 168.402C161.432 167.467 162.004 166.538 162.587 165.616C164.462 162.691 164.796 163.17 168.134 162.429C167.121 113.124 168.888 62.3246 168.018 12.7744L168.742 11.8185Z" fill="#8A868A"/>
<path d="M168.134 162.429C168.25 165.473 168.71 170.687 167.905 173.423C166.926 174.018 167.211 174.087 166.311 174.101C162.121 175.407 162.113 175.099 161.959 179.92C159.177 181.829 82.5521 181.293 70.6097 181.449C62.7097 182.747 14.9567 180.292 12.647 182.82C10.5023 179.653 8.32335 184.131 5.73822 175.894L3.59575 175.085L5.78787 174.631C7.03697 172.419 6.57533 171.581 6.60236 168.67L6.53149 163.174L10.4001 163.623C12.7843 164.892 12.4644 165.293 13.0444 168.127L13.8048 169.074C28.3543 169 42.8694 169.609 57.4349 169.677C78.6609 169.669 99.8854 169.489 121.108 169.138C130.658 169.043 152.807 169.64 160.872 168.402C161.432 167.467 162.004 166.538 162.587 165.616C164.462 162.691 164.796 163.17 168.134 162.429Z" fill="#7F472B"/>
<path d="M5.73822 175.894C6.75942 175.855 10.5659 175.402 11.0246 176.312C14.322 182.855 14.2628 180.007 19.23 180.889C28.4361 182.522 63.7579 178.991 70.6097 181.449C62.7097 182.747 14.9567 180.292 12.647 182.82C10.5023 179.653 8.32335 184.131 5.73822 175.894Z" fill="#5B3021"/>
<path d="M6.53149 163.174L10.4001 163.623C12.7843 164.892 12.4644 165.293 13.0444 168.127L6.60236 168.67L6.53149 163.174Z" fill="#733F29"/>
<path d="M168.742 11.8185C169.951 11.9952 173.016 12.3508 173.994 12.7664C173.828 19.477 174.468 35.0147 173.831 40.4699C173.979 80.5965 174.956 126.797 173.797 166.551C173.947 169.154 174.435 172.133 173.162 174.32C171.065 175.566 171.685 175.207 169.043 175.258L166.311 174.101C167.211 174.087 166.926 174.018 167.905 173.423C168.71 170.687 168.25 165.473 168.134 162.429C167.121 113.124 168.888 62.3246 168.018 12.7744L168.742 11.8185Z" fill="#582916"/>
<path d="M173.831 40.4699C173.979 80.5965 174.956 126.797 173.797 166.551C170.867 155.082 171.643 50.9598 173.831 40.4699Z" fill="#502A1F"/>
<path d="M166.311 174.101L169.043 175.258C168.389 177.946 168.666 179.075 166.877 180.424C163.874 180.405 164.967 180.193 162.366 181.618C162.163 183.053 161.972 184.172 161.658 185.587C157.922 188.12 28.8605 186.939 13.7785 186.692L12.647 182.82C14.9567 180.292 62.7097 182.747 70.6097 181.449C82.5521 181.293 159.177 181.829 161.959 179.92C162.113 175.099 162.121 175.407 166.311 174.101Z" fill="#502A1F"/>
<path d="M12.2343 6.26021C12.6894 3.92839 12.62 2.14721 13.9838 0.569781C44.2989 -0.579696 80.6733 0.362378 111.411 0.381366L144.258 0.386493C148.154 0.386493 157.706 0.17396 161.153 0.662524C162.483 2.15086 162.189 4.09563 162.17 6.12438L162.045 12.5487C161.852 14.4869 161.586 16.3046 161.739 18.2443C159.266 17.9777 158.116 18.3268 156.497 16.2433C155.291 14.6907 155.018 13.0271 152.783 12.6094C142.947 10.7705 21.3797 11.8907 18.6463 13.4667C18.3863 13.6164 18.0977 13.929 17.8976 14.1218L17.5828 17.3811C14.975 19.4157 12.5542 16.9633 12.3154 20.3351C11.6594 29.6039 11.8654 39.6396 11.8296 48.9632L11.7624 100.943C11.4381 110.96 12.9903 156.934 11.1846 163.005L10.4001 163.623L6.53149 163.174L6.60236 168.67C6.57533 171.581 7.03697 172.419 5.78787 174.631L3.59575 175.085C2.14869 174.88 2.22173 174.902 0.986512 174.115C-0.534324 165.636 0.153051 122.416 0.166199 111.118L0.183732 47.8167C0.189575 42.3672 -0.337816 16.0337 1.18521 13.2308C3.52929 11.6797 3.16623 12.18 6.44749 12.1544C6.46283 10.7844 6.60602 9.3895 6.71924 8.02167C8.59873 6.29234 9.1999 6.73271 12.2343 6.26021Z" fill="#E0A577"/>
<path d="M3.59575 175.085C2.14869 174.88 2.22173 174.902 0.986512 174.115C-0.534324 165.636 0.153051 122.416 0.166199 111.118L0.183732 47.8167C0.189575 42.3672 -0.337816 16.0337 1.18521 13.2308C3.52929 11.6797 3.16623 12.18 6.44749 12.1544L6.38614 114.57C6.39198 128.005 5.67831 150.326 6.53149 163.174L6.60236 168.67C6.57533 171.581 7.03697 172.419 5.78787 174.631L3.59575 175.085Z" fill="#5B3021"/>
<path d="M12.2343 6.26021C12.6894 3.92839 12.62 2.14721 13.9838 0.569781C44.2989 -0.579696 80.6733 0.362378 111.411 0.381366L144.258 0.386493C148.154 0.386493 157.706 0.17396 161.153 0.662524C162.483 2.15086 162.189 4.09563 162.17 6.12438C155.634 6.23611 149.097 6.22296 142.562 6.08493C104.049 6.59979 62.0727 7.23514 23.7282 6.17914L12.2343 6.26021Z" fill="#593429"/>
<path d="M12.7266 4.5506C27.8619 2.96441 52.1186 4.28113 68.636 4.14456C89.8546 3.95469 111.073 3.90066 132.293 3.98172C138.47 3.98683 155.648 3.55377 160.421 4.34613L160.466 5.18085C155.659 6.24342 144.558 4.43083 142.562 6.08493C104.049 6.59979 62.0727 7.23514 23.7282 6.17914C21.2979 5.78917 14.2854 5.1268 12.7266 4.5506Z" fill="#582916"/>
<path d="M12.2343 6.26021C12.162 9.35664 12.6623 9.63123 11.205 11.806C9.09106 12.3472 8.56805 12.272 6.44749 12.1544C6.46283 10.7844 6.60602 9.3895 6.71924 8.02167C8.59873 6.29234 9.1999 6.73271 12.2343 6.26021Z" fill="#582916"/>
<path d="M162.045 12.5487L168.018 12.7744C168.888 62.3246 167.121 113.124 168.134 162.429C164.796 163.17 164.462 162.691 162.587 165.616C162.004 166.538 161.432 167.467 160.872 168.402C152.807 169.64 130.658 169.043 121.108 169.138C99.8854 169.489 78.6609 169.669 57.4349 169.677C42.8694 169.609 28.3543 169 13.8048 169.074L13.0444 168.127C12.4644 165.293 12.7843 164.892 10.4001 163.623L11.1846 163.005C12.9903 156.934 11.4381 110.96 11.7624 100.943C13.4476 112.049 10.6586 151.922 13.0451 158.357L16.8757 159.799C17.5017 161.309 17.5689 161.552 18.5572 162.832C22.2161 163.647 45.7146 163.598 50.4203 163.6C84.9941 163.614 119.536 163.334 154.129 163.355C156.394 160.219 158.636 159.254 162.083 157.732C162.542 122.281 162.596 86.8266 162.244 51.3739C162.183 45.398 162.565 22.079 161.739 18.2443C161.586 16.3046 161.852 14.4869 162.045 12.5487Z" fill="#C08357"/>
<path d="M62.5482 82.5573L60.9492 81.237L61.0778 80.0115C63.1297 78.3516 68.0896 78.6174 70.8412 78.5816C75.308 82.8918 74.964 83.243 78.4374 87.2757C82.6902 89.4805 81.021 94.5465 81.0342 99.3058C78.8282 101.17 76.7646 102.877 74.7193 104.933C65.9121 105.586 62.5599 101.557 56.7125 95.092C56.6044 90.8198 56.1369 86.8938 57.8455 82.9962L58.8214 82.282C61.7023 84.6664 60.4196 86.4206 60.9872 89.7178C61.1238 87.5978 61.3028 85.4807 61.5234 83.3679L62.5482 82.5573Z" fill="#7F472B"/>
<path d="M62.5482 82.5573L60.9492 81.237L61.0778 80.0115C63.1297 78.3516 68.0896 78.6174 70.8412 78.5816C75.308 82.8918 74.964 83.243 78.4374 87.2757C74.6287 89.9807 77.7164 92.7887 73.1152 94.353C72.8435 95.3447 72.6243 95.4922 72.0487 96.3569C67.8975 97.2836 68.0216 96.3547 64.1721 94.4223C60.9989 92.8303 61.63 92.9735 60.9872 89.7178C61.1238 87.5978 61.3028 85.4807 61.5234 83.3679L62.5482 82.5573Z" fill="#E3B07B"/>
<path d="M62.5482 82.5573L60.9492 81.237L61.0778 80.0115C63.1297 78.3516 68.0896 78.6174 70.8412 78.5816C75.308 82.8918 74.964 83.243 78.4374 87.2757C74.6287 89.9807 77.7164 92.7887 73.1152 94.353C73.4483 90.3722 74.3847 86.4746 71.4161 83.3716C68.7609 81.7737 65.6856 82.3492 62.5482 82.5573Z" fill="#854D30"/>
<path d="M97.8306 102.767C98.2068 100.599 98.4069 99.0671 98.5844 96.874C100.44 95.2156 100.459 95.7136 103.459 95.377C103.487 97.2494 103.641 102.091 103.359 103.74C101.932 112.049 85.3914 122.268 78.4513 114.397C75.9786 111.594 74.7339 104.218 77.6098 101.772L79.8611 101.989L80.2453 101.554C79.444 99.3607 80.2957 98.3317 81.5543 96.8156C84.4338 95.9634 83.2724 95.9502 86.0094 96.6688L86.428 96.0452C89.8999 95.9802 94.1848 95.7224 97.5282 96.3556L97.8306 102.767Z" fill="#7F472B"/>
<path d="M86.428 96.0452C89.8999 95.9802 94.1848 95.7224 97.5282 96.3556L97.8306 102.767C97.4529 103.01 96.564 103.623 96.2009 103.756L94.981 105.921L94.3419 106.353C90.7107 106.435 86.8641 106.78 83.6266 105.126C83.081 103.074 83.0605 103.917 83.658 101.923L80.2453 101.554C79.444 99.3607 80.2957 98.3317 81.5543 96.8156C84.4338 95.9634 83.2724 95.9502 86.0094 96.6688L86.428 96.0452Z" fill="#E0A577"/>
<path d="M97.5282 96.3556L97.8306 102.767C97.4529 103.01 96.564 103.623 96.2009 103.756C93.6209 102.919 88.4397 101.006 88.7976 97.9505C90.9123 96.1481 94.6085 96.4571 97.5282 96.3556Z" fill="#E3B07B"/>
<path d="M80.2453 101.554C79.444 99.3607 80.2957 98.3317 81.5543 96.8156C84.4338 95.9634 83.2724 95.9502 86.0094 96.6688C85.4178 98.6859 85.1438 100.561 83.658 101.923L80.2453 101.554Z" fill="#854D30"/>
<path d="M80.2453 101.554L83.658 101.923C83.0605 103.917 83.081 103.074 83.6266 105.126C86.8641 106.78 90.7107 106.435 94.3419 106.353L94.981 105.921L95.3952 106.604C93.5281 111.682 84.2161 110.961 80.0649 110.747C79.8822 108.194 79.9188 104.631 79.8611 101.989L80.2453 101.554Z" fill="#AF7853"/>
<path d="M108.169 32.3842C111.136 32.1512 110.701 31.6948 112.534 33.1247C113.814 36.6096 112.645 41.9101 112.521 45.9164C109.061 50.3814 107.127 52.064 102.867 55.8426C99.293 56.0339 95.1651 56.8073 92.4522 54.0913C88.7735 50.4077 88.867 43.3787 90.3959 38.81L91.8269 37.8431L93.1512 38.3105L93.4858 39.1269C99.949 35.8538 94.7583 32.2717 106.722 32.3367L108.169 32.3842Z" fill="#7F472B"/>
<path d="M106.722 32.3367L108.169 32.3842C108.394 44.0586 96.8072 52.8345 93.4858 39.1269C99.949 35.8538 94.7583 32.2717 106.722 32.3367Z" fill="#E3B07B"/>
<path d="M153.835 150.152C156.816 150.703 157.166 150.219 158.739 152.029C158.806 154.43 159.216 154.79 158.14 156.601C156.975 156.781 153.512 157.092 152.863 157.735C150.062 160.51 147.652 165.173 143.24 162.966C141.798 160.603 141.78 160.126 141.414 157.38C143.017 152.792 146.578 155.756 150.514 154.557C151.248 152.604 152.397 151.627 153.835 150.152Z" fill="#733F29"/>
<path d="M150.514 154.557C147.66 154.168 143.442 154.745 141.682 153.33C141.134 148.494 148.85 143.117 153.135 142.288C156.313 143.513 154.722 147.404 153.835 150.152C152.397 151.627 151.248 152.604 150.514 154.557Z" fill="#AF7853"/>
<path d="M26.6603 155.829C24.9539 154.691 24.8378 154.481 24.2015 152.524C25.7267 149.381 30.1614 148.358 33.2703 149.38L33.4201 150.152C34.2959 154.226 34.5961 157.851 30.5347 159.836C28.3177 159.824 27.3813 160.004 25.6055 158.594L25.027 156.819C26.0766 155.83 25.5098 155.986 26.6603 155.829Z" fill="#7F472B"/>
<path d="M26.6603 155.829C24.9539 154.691 24.8378 154.481 24.2015 152.524C25.7267 149.381 30.1614 148.358 33.2703 149.38L33.4201 150.152C31.4975 151.919 28.8356 154.566 26.6603 155.829Z" fill="#AF7853"/>
<path d="M25.287 22.1367C25.8071 22.8729 26.3301 24.0837 26.3842 24.9834C26.4711 26.4045 26.0014 27.5935 25.027 28.5874C22.7216 30.9397 18.8903 30.7067 15.8304 30.7936C14.8742 29.7237 14.3059 28.9985 13.8997 27.6117C16.3117 25.8225 19.4615 26.823 22.2475 25.9225C24.1066 25.3222 24.4711 23.7331 25.287 22.1367Z" fill="#7F472B"/>
<path d="M86.428 96.0452L85.9093 94.3173C89.6113 89.7457 99.0154 95.1024 103.459 95.377C100.459 95.7136 100.44 95.2156 98.5844 96.874C98.4069 99.0671 98.2068 100.599 97.8306 102.767L97.5282 96.3556C94.1848 95.7224 89.8999 95.9802 86.428 96.0452Z" fill="#854D30"/>
<path d="M19.2781 18.9162C20.8625 18.949 22.4162 19.1579 23.9875 19.3507C25.6741 20.7506 26.1687 20.9719 26.6603 23.2C25.7231 24.3327 25.23 24.302 23.8443 24.6884C21.726 24.7621 18.7873 25.2025 16.9494 24.0538C16.9655 21.8848 18.1276 20.7244 19.2781 18.9162Z" fill="#AF7853"/>
<path d="M143.345 47.5647C145.487 47.667 148.677 47.824 150.564 48.8237C152.536 49.8695 152.572 51.222 153.111 53.1938C150.772 53.502 147.898 54.2242 145.686 53.2427C143.962 51.8289 143.782 49.6307 143.345 47.5647Z" fill="#7F472B"/>
<path d="M124.027 23.2C125.67 23.211 127.252 23.3161 128.887 23.4914C130.467 25.2894 130.228 27.0494 130.493 29.3951C128.569 29.8223 127.159 30.1312 125.192 29.6069C123.799 27.3649 124.089 25.8079 124.027 23.2Z" fill="#7F472B"/>
<path d="M44.0338 19.1718L50.4203 19.3507C51.3092 22.1338 51.4597 22.9788 49.7504 25.1631C47.4129 25.7751 48.4122 25.7882 45.8665 24.7899C43.8212 22.2631 44.429 22.8736 44.0338 19.1718Z" fill="#7F472B"/>
<path d="M44.0338 19.1718C43.5955 16.0892 43.1755 16.6588 44.5166 14.5307C47.2464 13.5544 46.0638 13.5894 48.99 14.5534C50.8089 16.5938 50.2617 16.0337 50.4203 19.3507L44.0338 19.1718Z" fill="#AF7853"/>
<path d="M138.87 83.0203C140.569 83.273 141.871 83.8675 143.391 84.6087C144.67 86.6046 144.598 87.4021 144.735 89.7178C142.957 90.0844 141.68 90.4196 139.93 89.6681C138.478 87.9337 138.87 85.1666 138.87 83.0203Z" fill="#AF7853"/>
<path d="M106.722 32.3367C104.21 31.9774 101.686 31.7101 99.155 31.5356L99.0746 30.5402C101.869 27.9696 104.682 26.5075 107.807 29.6069L108.169 32.3842L106.722 32.3367Z" fill="#854D30"/>
<path d="M26.4295 65.0661C27.6384 65.2392 29.027 65.3707 30.1724 65.7942C32.0738 66.4982 32.5983 68.0114 33.4201 69.6567C31.4858 69.6801 29.5741 69.6567 27.642 69.5603C26.1081 67.9858 26.4748 67.2102 26.4295 65.0661Z" fill="#AF7853"/>
<path d="M103.736 156.326L106.199 156.572C108.172 156.984 107.512 156.543 108.657 158.236L108.169 159.799C105.969 161.138 106.918 160.97 104.599 160.622C103.322 158.464 103.692 159.1 103.736 156.326Z" fill="#854D30"/>
<path d="M103.736 156.326L102.335 146.834C103.588 145.343 102.878 145.749 105.2 145.522C107.29 146.735 106.956 146.108 107.441 147.889C106.211 149.52 107.997 156.016 106.199 156.572L103.736 156.326Z" fill="#AD6E42"/>
<path d="M162.17 6.12438C165.803 6.31717 165.903 5.67818 167.934 7.62805L168.742 11.8185L168.018 12.7744L162.045 12.5487L162.17 6.12438Z" fill="#5B3021"/>
</svg>
