<svg width="163" height="178" viewBox="0 0 163 178" fill="none" xmlns="http://www.w3.org/2000/svg">
<path d="M21.1599 0.196727L141.027 0.23713L141.125 5.31341L141.25 5.65582L146.153 5.57559L146.523 10.3621C149.048 10.5349 149.756 10.1183 151.368 11.4935C151.506 12.6623 151.677 13.8997 151.754 15.066L152.68 15.997C153.819 15.9162 154.96 15.8684 156.101 15.8537C158.04 18.2457 155.597 18.6629 157.511 21.1444C159.939 21.2142 160.323 20.7548 161.616 22.1116C162.345 28.5288 162.001 41.2938 162.005 48.1141L162.008 96.3242L161.836 143.903C161.852 151.083 162.341 164.871 161.69 171.48C159.794 173.656 155.58 170.64 155.979 176.441L156.015 176.911C153.322 178.414 144.436 177.937 141.073 177.896L20.7628 177.871C21.367 168.022 16.1379 177.409 15.8275 167.531L12.6162 167.5C8.52267 165.187 14.2612 162.681 5.49088 162.093L5.47744 157.026C3.66741 157.127 2.63931 157.344 1.01926 156.462C-0.202492 154.751 0.405945 137.504 0.410832 134.339L0.412052 87.1157C0.405333 64.5307 -0.562293 33.2847 0.491469 11.3226C2.06203 10.1618 3.40779 10.4319 5.63688 10.2267C5.53731 8.51709 5.5196 8.05523 5.79938 6.37192C7.45974 5.19703 8.06756 5.53943 10.3657 5.37526C10.5948 2.81477 10.2221 2.64021 11.4787 0.768235C13.7218 -0.464232 18.1544 0.142822 21.1599 0.196727Z" fill="#F3C481"/>
<path d="M146.153 5.57559L146.523 10.3621C149.048 10.5349 149.756 10.1183 151.368 11.4935C151.506 12.6623 151.677 13.8997 151.754 15.066L152.68 15.997C153.819 15.9162 154.96 15.8684 156.101 15.8537C158.04 18.2457 155.597 18.6629 157.511 21.1444C159.939 21.2142 160.323 20.7548 161.616 22.1116C162.345 28.5288 162.001 41.2938 162.005 48.1141L162.008 96.3242L161.836 143.903C161.852 151.083 162.341 164.871 161.69 171.48C159.794 173.656 155.58 170.64 155.979 176.441L156.015 176.911C153.322 178.414 144.436 177.937 141.073 177.896L20.7628 177.871C21.367 168.022 16.1379 177.409 15.8275 167.531L12.6162 167.5C8.52267 165.187 14.2612 162.681 5.49088 162.093L11.1537 161.921L11.8165 162.019C12.1458 158.907 11.2215 154.89 10.6662 151.725C10.6711 149.519 11.0205 148.921 10.0749 147.174C8.7774 146.769 7.47318 146.388 6.16224 146.03C7.94294 146.179 8.44997 146.381 9.98449 145.635C10.4946 143.974 10.599 142.993 10.822 141.308C18.1165 141.141 14.0077 143.277 16.8666 146.303C35.5607 147.477 61.774 146.546 81.0185 146.665C95.0888 146.751 121.645 147.388 134.895 146.321C136.458 144.743 134.985 143.874 136.341 141.51C137.806 141.313 138.671 141.123 140.104 140.755C141.658 138.789 141.132 138.609 141.23 135.513C141.451 132.25 141.276 129.183 141.149 125.927L141.153 125.282L141.11 120.31C141.453 113.043 141.116 102.118 141.106 94.6422L141.046 43.5591C141.037 36.5759 140.624 21.771 141.321 15.499L146.024 15.7514L145.907 10.6537C145.744 8.86318 145.973 7.35752 146.153 5.57559Z" fill="#9A5A38"/>
<path d="M151.754 15.066L152.68 15.997C153.819 15.9162 154.96 15.8684 156.101 15.8537C158.04 18.2457 155.597 18.6629 157.511 21.1444C159.939 21.2142 160.323 20.7548 161.616 22.1116C162.345 28.5288 162.001 41.2938 162.005 48.1141L162.008 96.3242L161.836 143.903C161.852 151.083 162.341 164.871 161.69 171.48C159.794 173.656 155.58 170.64 155.979 176.441L156.015 176.911C153.322 178.414 144.436 177.937 141.073 177.896L20.7628 177.871C21.367 168.022 16.1379 177.409 15.8275 167.531C45.8436 166.623 77.6019 168.06 107.743 167.47C113.445 167.359 136.823 167.896 140.61 166.835C140.928 165.53 141.266 164.23 141.622 162.934C143.307 161.587 143.594 162.049 146.267 161.968C146.475 160.617 146.435 158.545 146.46 157.116C147.822 157.037 149.184 156.952 150.545 156.86C150.804 156.595 151.164 156.401 151.321 156.066C153.055 152.367 150.391 31.1989 151.754 15.066Z" fill="#A4A1A6"/>
<path d="M141.321 15.499L146.024 15.7514L146.012 102.652C146.021 115.938 146.098 129.529 146.03 142.844C146.021 144.66 145.969 145.314 144.894 146.442C143.079 146.501 142.287 146.188 141.11 147.157L140.898 150.955C139.308 152.059 22.5197 151.595 10.6662 151.725C10.6711 149.519 11.0205 148.921 10.0749 147.174C8.7774 146.769 7.47318 146.388 6.16224 146.03C7.94294 146.179 8.44997 146.381 9.98449 145.635C10.4946 143.974 10.599 142.993 10.822 141.308C18.1165 141.141 14.0077 143.277 16.8666 146.303C35.5607 147.477 61.774 146.546 81.0185 146.665C95.0888 146.751 121.645 147.388 134.895 146.321C136.458 144.743 134.985 143.874 136.341 141.51C137.806 141.313 138.671 141.123 140.104 140.755C141.658 138.789 141.132 138.609 141.23 135.513C141.451 132.25 141.276 129.183 141.149 125.927L141.153 125.282L141.11 120.31C141.453 113.043 141.116 102.118 141.106 94.6422L141.046 43.5591C141.037 36.5759 140.624 21.771 141.321 15.499Z" fill="#D29362"/>
<path d="M146.523 10.3621C149.048 10.5349 149.756 10.1183 151.368 11.4935C151.506 12.6623 151.677 13.8997 151.754 15.066C150.391 31.1989 153.055 152.367 151.321 156.066C151.164 156.401 150.804 156.595 150.545 156.86C149.184 156.952 147.822 157.037 146.46 157.116C145.977 146.879 146.569 132.298 146.578 121.538L146.597 50.1962C146.605 37.2461 146.914 23.2075 146.523 10.3621Z" fill="#572C1A"/>
<path d="M11.8165 162.019C39.8655 162.267 67.9158 162.34 95.966 162.239C107.66 162.234 129.468 162.88 140.531 161.907C142.307 159.726 140.115 159.865 142.073 156.785C144.046 156.617 143.288 156.565 145.408 157.721C146.316 159.151 146.185 160.253 146.267 161.968C143.594 162.049 143.307 161.587 141.622 162.934C141.266 164.23 140.928 165.53 140.61 166.835C136.823 167.896 113.445 167.359 107.743 167.47C77.6019 168.06 45.8436 166.623 15.8275 167.531L12.6162 167.5C8.52267 165.187 14.2612 162.681 5.49088 162.093L11.1537 161.921L11.8165 162.019Z" fill="#572C1A"/>
<path d="M21.1599 0.196727L141.027 0.23713L141.125 5.31341L141.25 5.65582L146.153 5.57559C145.973 7.35752 145.744 8.86318 145.907 10.6537L146.024 15.7514L141.321 15.499L140.88 15.3826C136.972 15.4831 136.987 16.1827 135.77 12.1618C132.609 9.41205 116.594 10.5661 111.578 10.5741L36.8527 10.6182C32.0133 10.609 24.4128 10.2041 19.8367 10.5428C18.8385 10.6175 17.8422 10.7186 16.8495 10.8448C14.494 13.6828 18.0505 15.2981 12.8385 15.6356C11.5105 15.722 12.0352 15.5437 11.1568 16.5508C10.1458 24.3144 10.6326 44.9116 10.6436 53.4482L10.7536 120.25L10.786 125.551L10.8147 129.167L11.0737 130.098C11.0065 133.577 11.0383 137.905 10.822 141.308C10.599 142.993 10.4946 143.974 9.98449 145.635C8.44997 146.381 7.94294 146.179 6.16224 146.03C7.47318 146.388 8.7774 146.769 10.0749 147.174C11.0205 148.921 10.6711 149.519 10.6662 151.725C11.2215 154.89 12.1458 158.907 11.8165 162.019L11.1537 161.921L5.49088 162.093L5.47744 157.026C3.66741 157.127 2.63931 157.344 1.01926 156.462C-0.202492 154.751 0.405945 137.504 0.410832 134.339L0.412052 87.1157C0.405333 64.5307 -0.562293 33.2847 0.491469 11.3226C2.06203 10.1618 3.40779 10.4319 5.63688 10.2267C5.53731 8.51709 5.5196 8.05523 5.79938 6.37192C7.45974 5.19703 8.06756 5.53943 10.3657 5.37526C10.5948 2.81477 10.2221 2.64021 11.4787 0.768235C13.7218 -0.464232 18.1544 0.142822 21.1599 0.196727Z" fill="#FBDEAB"/>
<path d="M5.47744 157.026C3.66741 157.127 2.63931 157.344 1.01926 156.462C-0.202492 154.751 0.405945 137.504 0.410832 134.339L0.412052 87.1157C0.405333 64.5307 -0.562293 33.2847 0.491469 11.3226C2.06203 10.1618 3.40779 10.4319 5.63688 10.2267L5.52449 92.323C5.52937 109.882 5.20683 128.425 5.54831 145.908L6.16224 146.03C7.47318 146.388 8.7774 146.769 10.0749 147.174C11.0205 148.921 10.6711 149.519 10.6662 151.725C11.2215 154.89 12.1458 158.907 11.8165 162.019L11.1537 161.921L5.49088 162.093L5.47744 157.026Z" fill="#572C1A"/>
<path d="M5.54831 145.908L6.16224 146.03C7.47318 146.388 8.7774 146.769 10.0749 147.174C11.0205 148.921 10.6711 149.519 10.6662 151.725C11.2215 154.89 12.1458 158.907 11.8165 162.019L11.1537 161.921L5.49088 162.093L5.47744 157.026C5.72973 153.122 5.63811 149.801 5.54831 145.908Z" fill="#83472D"/>
<path d="M5.47744 157.026C8.35467 156.908 8.85009 156.372 10.789 157.674C11.2343 159.462 11.1824 160.066 11.1537 161.921L5.49088 162.093L5.47744 157.026Z" fill="#572C1A"/>
<path d="M21.1599 0.196727L141.027 0.23713L141.125 5.31341C109.513 5.81264 77.6409 5.16886 46.0164 5.4145C40.9596 5.4537 13.26 5.11617 10.6949 5.97926L10.3657 5.37526C10.5948 2.81477 10.2221 2.64021 11.4787 0.768235C13.7218 -0.464232 18.1544 0.142822 21.1599 0.196727Z" fill="#572C1A"/>
<path d="M5.63688 10.2267L6.29357 10.7774C5.26729 34.7762 6.11764 65.458 6.12986 89.9414L6.10848 120.298C6.07854 126.512 5.78043 134.656 6.37298 140.59C7.93622 141.579 7.22577 141.426 9.00098 141.301C11.6785 138.616 10.0236 132.786 10.8147 129.167L11.0737 130.098C11.0065 133.577 11.0383 137.905 10.822 141.308C10.599 142.993 10.4946 143.974 9.98449 145.635C8.44997 146.381 7.94294 146.179 6.16224 146.03L5.54831 145.908C5.20683 128.425 5.52937 109.882 5.52449 92.323L5.63688 10.2267Z" fill="#E0A775"/>
<path d="M5.63688 10.2267C5.53731 8.51709 5.5196 8.05523 5.79938 6.37192C7.45974 5.19703 8.06756 5.53943 10.3657 5.37526L10.6949 5.97926C10.6723 8.49565 11.1446 8.96242 9.80735 10.4534C8.66684 10.5692 7.42674 10.7205 6.29357 10.7774L5.63688 10.2267Z" fill="#5F2F17"/>
<path d="M141.043 10.8099L145.907 10.6537L146.024 15.7514L141.321 15.499L140.88 15.3826C140.801 14.3413 140.987 11.9609 141.043 10.8099Z" fill="#F6CF98"/>
<path d="M141.25 5.65582L146.153 5.57559C145.973 7.35752 145.744 8.86318 145.907 10.6537L141.043 10.8099L141.25 5.65582Z" fill="#5F2F17"/>
<path d="M114.64 125.284C123.478 125.236 132.316 125.235 141.153 125.282L141.149 125.927C141.276 129.183 141.451 132.25 141.23 135.513C141.132 138.609 141.658 138.789 140.104 140.755C138.671 141.123 137.806 141.313 136.341 141.51C134.985 143.874 136.458 144.743 134.895 146.321C121.645 147.388 95.0888 146.751 81.0185 146.665C61.774 146.546 35.5607 147.477 16.8666 146.303C14.0077 143.277 18.1165 141.141 10.822 141.308C11.0383 137.905 11.0065 133.577 11.0737 130.098L10.8147 129.167L10.786 125.551L17.8031 125.62L19.4225 125.699C24.2393 126.264 32.2271 124.895 34.7623 127.189L35.7806 130.175C36.2473 129.833 37.3548 130.137 37.9651 130.195C42.6957 130.643 40.7874 134.947 45.4312 135.886C48.8271 134.779 45.51 131.597 47.5925 127.515C49.2877 126.696 49.5137 126.589 51.3512 126.92C52.5644 128.054 52.6866 128.437 53.38 129.975L53.5748 130.419C61.2285 131.464 70.9873 129.575 77.746 130.912C79.1077 132.232 78.6629 132.595 78.7766 135.019L79.5817 135.752C98.1133 137.444 92.0918 131.867 95.3338 130.857C98.3319 129.923 101.855 131.972 104.688 130L105.011 127.02C106.534 126.226 107.65 126.694 109.64 126.882L110.326 125.982C111.607 125.872 113.495 125.644 114.722 125.627L114.64 125.284Z" fill="#9A5A38"/>
<path d="M10.786 125.551L17.8031 125.62L19.4225 125.699C24.2393 126.264 32.2271 124.895 34.7623 127.189L35.7806 130.175C32.747 131.196 28.0145 129.894 26.3566 131.613C26.4543 133.317 26.637 133.883 25.9528 135.375C19.3938 137.309 17.494 135.72 15.5355 130.193C15.2356 129.347 12.5447 129.505 11.5764 129.464L11.0737 130.098L10.8147 129.167L10.786 125.551Z" fill="#C08052"/>
<path d="M10.786 125.551L17.8031 125.62C14.8196 128.368 13.2295 128.091 11.5764 129.464L11.0737 130.098L10.8147 129.167L10.786 125.551Z" fill="#C88758"/>
<path d="M141.149 125.927C141.276 129.183 141.451 132.25 141.23 135.513L136.351 135.652L135.542 130.598L135.559 125.928L141.149 125.927Z" fill="#AE6F44"/>
<path d="M110.326 125.982C111.607 125.872 113.495 125.644 114.722 125.627C117.443 126.043 116.793 125.534 118.4 127.293C118.565 131.861 109.928 133.432 109.64 126.882L110.326 125.982Z" fill="#C08052"/>
<path d="M130.08 125.656L135.559 125.928L135.542 130.598L130.655 130.579C129.905 129.323 130.1 127.235 130.08 125.656Z" fill="#C88758"/>
<path d="M135.542 130.598L136.351 135.652C134.739 135.653 133.361 135.599 131.761 135.511C130.25 133.821 130.659 133.472 130.269 130.78L130.655 130.579L135.542 130.598Z" fill="#BA7948"/>
<path d="M130.269 130.78C128.652 130.78 128.363 130.874 126.931 130.229C125.66 128.243 125.798 129.078 126.168 127.084C127.784 125.462 127.323 125.945 130.08 125.656C130.1 127.235 129.905 129.323 130.655 130.579L130.269 130.78Z" fill="#C08052"/>
<path d="M82.4455 111.339C83.3306 110.499 84.1926 109.581 85.0454 108.704C86.6935 110.017 87.2054 109.695 89.5549 110.016C92.0418 110.039 96.5219 110.216 98.8475 109.994C99.3283 112.137 99.5354 112.913 99.5696 115.135C101.618 115.244 103.534 115.125 105.173 116.352L105.981 116.883L106.832 116.202L107.515 116.882L107.34 119.139C108.22 119.622 108.854 119.962 109.789 120.371C109.87 121.828 109.925 124.709 110.326 125.982L109.64 126.882C107.65 126.694 106.534 126.226 105.011 127.02L104.688 130C101.855 131.972 98.3319 129.923 95.3338 130.857C92.0918 131.867 98.1133 137.444 79.5817 135.752L78.7766 135.019C78.6629 132.595 79.1077 132.232 77.746 130.912C70.9873 129.575 61.2285 131.464 53.5748 130.419L53.38 129.975C52.6866 128.437 52.5644 128.054 51.3512 126.92C49.5137 126.589 49.2877 126.696 47.5925 127.515C45.51 131.597 48.8271 134.779 45.4312 135.886C40.7874 134.947 42.6957 130.643 37.9651 130.195C37.3548 130.137 36.2473 129.833 35.7806 130.175L34.7623 127.189C32.2271 124.895 24.2393 126.264 19.4225 125.699C24.6223 124.988 33.2039 126.042 38.1068 125.035C38.6279 123.233 38.6316 122.421 38.7672 120.588L38.0299 119.792C37.7922 118.583 37.6291 116.644 37.4776 115.36C41.4972 115.726 43.7006 115.707 47.6945 115.579C52.6946 115.9 51.4209 113.811 57.3128 112.914C57.3311 112.31 57.4838 111.553 57.581 110.94C59.6274 109.894 64.1155 110.216 66.7374 110.128L67.4173 110.209C69.1736 110.612 69.6061 110.408 70.7478 111.551L70.9347 112.114L72.2475 112.025C74.5749 113.093 79.4485 113.269 81.9562 112.551L82.4455 111.339Z" fill="#BA7948"/>
<path d="M66.7374 110.128L67.4173 110.209C67.669 111.135 68.0013 112.512 68.3067 113.375C67.7026 115.467 68.0996 115.365 66.5682 116.526L65.9976 116.447C64.4851 116.245 63.8095 116 62.4814 116.694C62.2737 117.91 62.0972 118.757 61.7759 119.948C58.5999 121.431 55.0281 121.549 52.2785 119.09L52.0434 117.859C53.8955 115.413 54.6152 115.815 57.5962 115.976L57.3128 112.914C57.3311 112.31 57.4838 111.553 57.581 110.94C59.6274 109.894 64.1155 110.216 66.7374 110.128Z" fill="#D29362"/>
<path d="M66.7374 110.128L67.4173 110.209C67.669 111.135 68.0013 112.512 68.3067 113.375C64.909 112.885 62.1161 112.311 58.8571 113.42C57.8198 114.411 57.8461 114.5 57.5962 115.976L57.3128 112.914C57.3311 112.31 57.4838 111.553 57.581 110.94C59.6274 109.894 64.1155 110.216 66.7374 110.128Z" fill="#C08052"/>
<path d="M83.6318 120.335C83.7729 122.178 84.1058 123.322 83.1113 124.795C81.0686 126.125 76.2482 125.394 73.4161 125.262C73.2604 123.478 72.9445 122.441 73.8883 120.98C76.2384 119.676 80.5738 120.271 83.6318 120.335Z" fill="#D29362"/>
<path d="M82.4455 111.339C83.3306 110.499 84.1926 109.581 85.0454 108.704C86.6935 110.017 87.2054 109.695 89.5549 110.016L89.5805 110.361L88.6184 110.416L86.7461 110.357C83.4785 116.229 78.9684 116.663 73.1272 114.842C72.2102 113.137 72.4656 112.965 70.9347 112.114L72.2475 112.025C74.5749 113.093 79.4485 113.269 81.9562 112.551L82.4455 111.339Z" fill="#5F2F17"/>
<path d="M37.4776 115.36C41.4972 115.726 43.7006 115.707 47.6945 115.579C46.5302 120.395 43.7837 120.581 38.7672 120.588L38.0299 119.792C37.7922 118.583 37.6291 116.644 37.4776 115.36Z" fill="#5F2A0E"/>
<path d="M99.5696 115.135C101.618 115.244 103.534 115.125 105.173 116.352C104.238 119.834 101.151 121.4 98.4951 118.726C98.4162 116.632 98.3912 117.368 99.5696 115.135Z" fill="#C88758"/>
<path d="M83.6318 120.335C83.5848 119.062 83.6679 118.156 83.7662 116.884C85.3227 115.549 86.0967 115.979 88.5781 115.858C88.7778 118.492 89.214 118.333 87.9898 120.012C86.3618 120.215 85.272 120.296 83.6318 120.335Z" fill="#D29362"/>
<path d="M88.616 112.664C91.4071 112.925 92.6496 112.985 95.4407 112.834C94.5262 115.494 95.1768 114.797 93.2104 115.944L88.5781 115.858L88.616 112.664Z" fill="#D29362"/>
<path d="M88.6184 110.416L89.5805 110.361C91.371 110.509 92.4816 110.612 94.28 110.982L95.4407 112.834C92.6496 112.985 91.4071 112.925 88.616 112.664L88.6184 110.416Z" fill="#C08052"/>
<path d="M62.7832 60.1116C67.1406 60.0571 67.2426 59.4556 69.9347 63.2455L72.228 63.6871C71.8321 66.2145 72.2402 67.9132 69.9427 69.2112L70.5304 70.1759C72.8309 72.4516 73.3098 73.806 73.5798 76.9141L74.2121 77.8109C75.7894 77.8562 77.1938 77.8832 78.7778 77.8476C79.5829 79.5591 79.5096 79.9781 79.4834 81.8911C78.2482 82.1606 76.3551 82.6611 75.1638 82.6917C74.1015 82.5992 73.4937 82.9306 72.4961 83.3C64.5285 83.458 58.9561 85.7196 54.4209 77.4188C53.5828 76.1827 52.8241 75.9646 51.4545 75.2455C51.9004 74.2084 51.7697 74.7615 51.65 73.4917C49.8033 73.289 49.5846 73.5597 48.2309 72.5312L47.9914 69.1879C45.5815 64.3199 44.8423 70.2697 45.0397 60.1447L62.7832 60.1116Z" fill="#91DC5E"/>
<path d="M70.5304 70.1759C72.8309 72.4516 73.3098 73.806 73.5798 76.9141L74.2121 77.8109C75.7894 77.8562 77.1938 77.8832 78.7778 77.8476C79.5829 79.5591 79.5096 79.9781 79.4834 81.8911C78.2482 82.1606 76.3551 82.6611 75.1638 82.6917C74.1015 82.5992 73.4937 82.9306 72.4961 83.3C64.5285 83.458 58.9561 85.7196 54.4209 77.4188C56.6683 78.4859 62.3043 78.9846 64.0159 76.5717L63.4503 73.8201C64.5223 72.6942 64.0269 73.0311 65.8809 72.8118L66.6598 73.2001C68.3006 73.1297 68.3929 73.1597 69.8211 72.4197L70.5304 70.1759Z" fill="#64B35D"/>
<path d="M70.5304 70.1759C72.8309 72.4516 73.3098 73.806 73.5798 76.9141C72.2432 77.9358 72.9708 77.7294 71.3446 77.6185C70.5945 76.3928 69.8773 75.1469 69.1943 73.882L66.6598 73.2001C68.3006 73.1297 68.3929 73.1597 69.8211 72.4197L70.5304 70.1759Z" fill="#76C15A"/>
<path d="M62.7832 60.1116C67.1406 60.0571 67.2426 59.4556 69.9347 63.2455L72.228 63.6871C71.8321 66.2145 72.2402 67.9132 69.9427 69.2112C66.176 64.3916 63.3605 65.2497 62.7832 60.1116Z" fill="#1C542F"/>
<path d="M63.4503 73.8201L61.6598 73.942C59.8052 73.1781 59.5125 73.0838 58.2499 71.5432C57.8406 69.4072 57.7105 70.2305 58.6256 68.4081C61.9671 66.9974 64.0935 70.1533 65.8809 72.8118C64.0269 73.0311 64.5223 72.6942 63.4503 73.8201Z" fill="#68B84D"/>
<path d="M85.2048 62.3757L86.2457 59.2755C88.8322 58.2237 89.0973 58.5667 89.4296 55.6485C95.4804 49.3771 102.909 50.9453 111.031 51.0862C111.049 54.987 111.578 61.9561 106.921 63.485L106.477 64.6746C105.827 66.0302 105.662 66.5312 105.849 68.032C102.322 70.1864 100.408 67.4482 100.197 72.6084C98.8805 73.474 98.5531 73.3741 96.9123 73.4697C94.7663 72.9153 90.5488 73.0421 88.17 73.0207C84.8267 73.5359 83.4498 73.8427 80.126 73.4856C80.429 70.5386 79.5805 67.0599 81.8132 65.1983C82.845 64.6942 82.9995 64.0106 83.5322 62.9361L83.754 62.4816L85.2048 62.3757Z" fill="#91DC5E"/>
<path d="M81.8132 65.1983C82.845 64.6942 82.9995 64.0106 83.5322 62.9361L83.754 62.4816L85.2048 62.3757L88.9049 62.7175C89.9697 62.6825 91.0906 62.7144 92.1071 62.4393C94.3515 63.3937 94.4407 63.6326 94.4419 66.2617C89.0717 68.146 92.3411 68.6152 88.5756 71.2921L88.17 73.0207C84.8267 73.5359 83.4498 73.8427 80.126 73.4856C80.429 70.5386 79.5805 67.0599 81.8132 65.1983Z" fill="#68B84D"/>
<path d="M80.126 73.4856C80.429 70.5386 79.5805 67.0599 81.8132 65.1983L82.6214 69.1573C85.0417 69.3987 87.4547 68.9374 88.5756 71.2921L88.17 73.0207C84.8267 73.5359 83.4498 73.8427 80.126 73.4856Z" fill="#51A25B"/>
<path d="M81.8132 65.1983C82.845 64.6942 82.9995 64.0106 83.5322 62.9361L83.754 62.4816L85.2048 62.3757L88.9049 62.7175C89.2213 67.2933 86.6392 68.5778 82.6214 69.1573L81.8132 65.1983Z" fill="#91DC5E"/>
<path d="M92.1071 62.4393L91.9226 61.1168C93.7186 59.7778 97.0265 58.5055 99.1823 57.5695C100.661 60.4657 97.3173 62.718 95.0631 64.0981L94.4419 66.2617C94.4407 63.6326 94.3515 63.3937 92.1071 62.4393Z" fill="#7CCA53"/>
<path d="M78.7778 77.8476C78.7008 76.4075 78.7851 75.8354 78.9568 74.3934L80.126 73.4856C83.4498 73.8427 84.8267 73.5359 88.17 73.0207C90.5488 73.0421 94.7663 72.9153 96.9123 73.4697C96.66 74.6495 96.5757 76.2047 95.8139 76.7579C92.3008 79.3086 83.3459 75.9218 82.6165 81.3502C81.4296 90.1797 82.2103 102.273 82.4455 111.339L81.9562 112.551C79.4485 113.269 74.5749 113.093 72.2475 112.025C73.2512 107.203 72.9329 88.5925 72.4961 83.3C73.4937 82.9306 74.1015 82.5992 75.1638 82.6917C76.3551 82.6611 78.2482 82.1606 79.4834 81.8911C79.5096 79.9781 79.5829 79.5591 78.7778 77.8476Z" fill="#479A55"/>
<path d="M75.1638 82.6917C76.3551 82.6611 78.2482 82.1606 79.4834 81.8911C79.4302 86.5962 79.9134 104.953 78.7106 107.43L77.3703 107.835C73.6629 104.976 75.2622 87.9487 75.1638 82.6917Z" fill="#76C15A"/>
<path d="M72.228 63.6871C72.8841 66.726 72.3233 66.3738 74.2536 68.1552C77.0105 67.4005 78.5658 62.4136 79.8138 59.8268C81.5829 56.16 86.5268 54.5686 89.2849 51.5689C90.1334 50.6029 88.8878 47.6743 90.6416 47.4617C97.4541 46.6384 108.093 47.1248 114.938 47.2124C114.996 51.6608 115.966 63.5732 113.955 66.7922C112.349 67.4678 112.209 67.3949 110.419 67.2804L109.829 65.1217C108.256 64.0387 108.906 64.3297 106.477 64.6746L106.921 63.485C111.578 61.9561 111.049 54.987 111.031 51.0862C102.909 50.9453 95.4804 49.3771 89.4296 55.6485C89.0973 58.5667 88.8322 58.2237 86.2457 59.2755L85.2048 62.3757L83.754 62.4816L83.5322 62.9361C82.9995 64.0106 82.845 64.6942 81.8132 65.1983C79.5805 67.0599 80.429 70.5386 80.126 73.4856L78.9568 74.3934C78.7851 75.8354 78.7008 76.4075 78.7778 77.8476C77.1938 77.8832 75.7894 77.8562 74.2121 77.8109L73.5798 76.9141C73.3098 73.806 72.8309 72.4516 70.5304 70.1759L69.9427 69.2112C72.2402 67.9132 71.8321 66.2145 72.228 63.6871Z" fill="#205B2C"/>
<path d="M106.477 64.6746C108.906 64.3297 108.256 64.0387 109.829 65.1217L110.419 67.2804C109.111 75.7974 108.083 70.2783 104.901 74.832L104.619 77.5402C101.929 79.1579 101.665 76.8192 99.5727 78.8976C99.0675 85.629 91.2293 78.8712 86.418 84.225C85.5701 89.4948 86.2103 99.1181 86.0313 104.825L85.0454 108.704C84.1926 109.581 83.3306 110.499 82.4455 111.339C82.2103 102.273 81.4296 90.1797 82.6165 81.3502C83.3459 75.9218 92.3008 79.3086 95.8139 76.7579C96.5757 76.2047 96.66 74.6495 96.9123 73.4697C98.5531 73.3741 98.8805 73.474 100.197 72.6084C100.408 67.4482 102.322 70.1864 105.849 68.032C105.662 66.5312 105.827 66.0302 106.477 64.6746Z" fill="#1C542F"/>
<path d="M98.8475 109.994C98.9013 109.065 99.1426 107.664 99.2752 106.708L99.6313 108.601C102.785 110.273 107.782 109.731 109.187 111.113L109.405 114.27C112.489 115.965 112.59 113.689 115.005 115.617L115.16 119.325C117.188 121.14 136.829 120.349 141.11 120.31L141.153 125.282C132.316 125.235 123.478 125.236 114.64 125.284L114.722 125.627C113.495 125.644 111.607 125.872 110.326 125.982C109.925 124.709 109.87 121.828 109.789 120.371C108.854 119.962 108.22 119.622 107.34 119.139L107.515 116.882L106.832 116.202L105.981 116.883L105.173 116.352C103.534 115.125 101.618 115.244 99.5696 115.135C99.5354 112.913 99.3283 112.137 98.8475 109.994Z" fill="#5F2A0E"/>
<path d="M109.789 120.371C111.323 120.76 112.513 121.034 114.074 121.297C114.959 122.79 114.645 123.355 114.64 125.284L114.722 125.627C113.495 125.644 111.607 125.872 110.326 125.982C109.925 124.709 109.87 121.828 109.789 120.371Z" fill="#AE6F44"/>
<path d="M41.5204 55.8378C46.6579 55.7324 57.5883 55.3055 62.2474 55.9272C63.1803 57.3373 62.8107 58.1226 62.7832 60.1116L45.0397 60.1447C44.8423 70.2697 45.5815 64.3199 47.9914 69.1879L48.2309 72.5312C49.5846 73.5597 49.8033 73.289 51.65 73.4917C51.7697 74.7615 51.9004 74.2084 51.4545 75.2455C50.909 80.6715 55.5315 81.1469 53.036 84.7377C52.0635 82.6103 45.1936 76.2403 43.3903 74.7174C40.7605 72.4963 41.4691 59.8672 41.5204 55.8378Z" fill="#205B2C"/>
<path d="M51.4545 75.2455C52.8241 75.9646 53.5828 76.1827 54.4209 77.4188C58.9561 85.7196 64.5285 83.458 72.4961 83.3C72.9329 88.5925 73.2512 107.203 72.2475 112.025L70.9347 112.114L70.7478 111.551C70.6922 110.514 69.0575 106.068 68.6201 104.801C68.3965 99.844 68.5334 93.8593 68.5193 88.8235C66.0624 88.8118 60.2706 89.0262 58.0703 88.1117C57.3665 87.8195 57.3262 86.5049 57.0959 85.4795C55.5663 84.2097 55.4588 84.6513 53.036 84.7377C55.5315 81.1469 50.909 80.6715 51.4545 75.2455Z" fill="#225131"/>
<path d="M38.0299 119.792L38.7672 120.588C38.6316 122.421 38.6279 123.233 38.1068 125.035C33.2039 126.042 24.6223 124.988 19.4225 125.699L17.8031 125.62L10.786 125.551L10.7536 120.25C15.8055 120.302 33.9241 120.713 38.0299 119.792Z" fill="#5F2F17"/>
<path d="M68.6201 104.801C69.0575 106.068 70.6922 110.514 70.7478 111.551C69.6061 110.408 69.1736 110.612 67.4173 110.209L66.7374 110.128C62.5095 109.064 58.0959 110.548 53.5651 109.275L52.6231 107.32L53.1417 106.033C58.358 104.54 63.2401 104.795 68.6201 104.801Z" fill="#572C1A"/>
<path d="M86.0313 104.825C89.2965 104.793 95.6276 104.558 98.5384 105.162C99.2299 106.077 99.1261 105.674 99.2752 106.708C99.1426 107.664 98.9013 109.065 98.8475 109.994C96.5219 110.216 92.0418 110.039 89.5549 110.016C87.2054 109.695 86.6935 110.017 85.0454 108.704L86.0313 104.825Z" fill="#5F2A0E"/>
<path d="M52.6231 107.32L53.5651 109.275C58.0959 110.548 62.5095 109.064 66.7374 110.128C64.1155 110.216 59.6274 109.894 57.581 110.94C57.4838 111.553 57.3311 112.31 57.3128 112.914C51.4209 113.811 52.6946 115.9 47.6945 115.579C43.7006 115.707 41.4972 115.726 37.4776 115.36C40.3316 114.706 42.5821 115.699 46.0293 114.767C47.7306 113.201 47.2211 113.406 47.6371 110.545C50.427 108.645 48.989 110.874 52.1582 109.483L52.6231 107.32Z" fill="#5F2A0E"/>
</svg>
