<svg width="168" height="173" viewBox="0 0 168 173" fill="none" xmlns="http://www.w3.org/2000/svg">
<path d="M10.9807 5.43359C10.9586 2.97011 10.4764 2.08924 11.7247 0.533005C19.0647 -0.750263 140.912 0.694944 140.756 0.632988C141.655 2.38981 141.407 3.5915 141.334 5.58449L141.472 10.7525L146.194 10.993C145.982 9.24598 146.226 7.43026 146.372 5.66055C147.694 15.5783 152.214 6.37212 151.804 16.277C153.719 16.1377 154.876 15.8322 156.525 16.7474C156.867 18.1497 156.767 18.4436 156.625 19.909C157.643 21.1659 157.268 21.126 158.436 21.2481C159.532 21.3616 160.63 21.4493 161.73 21.5112C163.217 24.4679 161.333 24.2636 162.753 26.4548L166.927 26.7651C168.397 28.7354 168.151 150.42 167.41 161.886C164.543 163.76 164.98 161.246 162.484 163.728C162.279 165.224 162.221 165.932 161.744 167.354C160.129 167.845 159.601 167.693 157.876 167.571C155.906 169.448 157.667 172.707 156.378 173L21.1306 171.647C21.4934 169.337 21.6837 170.108 20.8001 168.371C19.2146 168.064 18.323 168.011 16.7064 167.93C15.6263 166.388 15.9757 164.924 15.8968 162.722L12.7497 162.685C10.9464 161.6 11.2768 160.785 10.5584 158.166C8.8377 156.735 8.68535 157.224 5.8742 157.151L5.4214 153.349C3.89161 151.74 3.09611 152.201 0.254974 151.884L0.289226 58.6003C0.288615 46.0424 -0.494014 23.0405 0.518098 11.4641C2.24921 10.2182 3.04467 10.6654 5.56088 10.6397C5.52294 8.91718 5.58661 8.24672 5.83566 6.53958C7.65734 5.23055 8.06548 5.65319 10.7175 5.5072L10.9807 5.43359Z" fill="#A9643B"/>
<path d="M146.372 5.66055C147.694 15.5783 152.214 6.37212 151.804 16.277C153.719 16.1377 154.876 15.8322 156.525 16.7474C156.867 18.1497 156.767 18.4436 156.625 19.909C157.643 21.1659 157.268 21.126 158.436 21.2481C159.532 21.3616 160.63 21.4493 161.73 21.5112C163.217 24.4679 161.333 24.2636 162.753 26.4548L166.927 26.7651C168.397 28.7354 168.151 150.42 167.41 161.886C164.543 163.76 164.98 161.246 162.484 163.728C162.279 165.224 162.221 165.932 161.744 167.354C160.129 167.845 159.601 167.693 157.876 167.571C155.906 169.448 157.667 172.707 156.378 173L21.1306 171.647C21.4934 169.337 21.6837 170.108 20.8001 168.371C19.2146 168.064 18.323 168.011 16.7064 167.93C15.6263 166.388 15.9757 164.924 15.8968 162.722C25.6563 162.215 38.7617 162.601 48.717 162.601L109.48 162.642C118.999 162.666 130.791 163.023 140.172 162.468C141.497 161.525 141.129 159.916 141.815 157.55L141.924 157.184L141.61 157.039L141.465 152.083C143.16 151.968 144.179 152.075 145.586 151.148C147.052 148.78 146.418 144.555 146.314 141.466L146.423 140.31C145.015 140.315 143.759 140.452 142.467 139.953C141.491 124.876 143.76 23.4687 141.793 18.5135L141.328 15.7635C141.277 14.3974 141.424 12.1898 141.472 10.7525L146.194 10.993C145.982 9.24598 146.226 7.43026 146.372 5.66055Z" fill="#A4A1A6"/>
<path d="M146.372 5.66055C147.694 15.5783 152.214 6.37212 151.804 16.277L151.729 106.928C151.725 112.42 152.482 149.694 150.909 151.749C148.383 152.457 148.671 152.003 146.974 153.677L146.446 157.409L141.924 157.184L141.61 157.039L141.465 152.083C143.16 151.968 144.179 152.075 145.586 151.148C147.052 148.78 146.418 144.555 146.314 141.466L146.423 140.31C145.015 140.315 143.759 140.452 142.467 139.953C141.491 124.876 143.76 23.4687 141.793 18.5135L141.328 15.7635C141.277 14.3974 141.424 12.1898 141.472 10.7525L146.194 10.993C145.982 9.24598 146.226 7.43026 146.372 5.66055Z" fill="#5F2F17"/>
<path d="M141.472 10.7525L146.194 10.993C147.011 24.3121 146.45 42.7324 146.447 56.4607L146.423 140.31C145.015 140.315 143.759 140.452 142.467 139.953C141.491 124.876 143.76 23.4687 141.793 18.5135L141.328 15.7635C141.277 14.3974 141.424 12.1898 141.472 10.7525Z" fill="#D29362"/>
<path d="M141.465 152.083C143.937 152.308 144.718 151.894 146.087 153.326L146.446 157.409L141.924 157.184L141.61 157.039L141.465 152.083Z" fill="#572C1A"/>
<path d="M5.67779 141.162L9.45944 141.449L10.8148 142.208C10.9703 143.589 11.0578 144.642 11.0994 146.031C11.4341 146.248 11.7309 146.54 12.1035 146.683C14.6436 147.649 130.605 147.342 140.527 146.486C142.259 144.056 140.459 144.302 142.88 141.856L146.314 141.466C146.418 144.555 147.052 148.78 145.586 151.148C144.179 152.075 143.16 151.968 141.465 152.083L141.61 157.039L141.924 157.184L141.815 157.55C141.129 159.916 141.497 161.525 140.172 162.468C130.791 163.023 118.999 162.666 109.48 162.642L48.717 162.601C38.7617 162.601 25.6563 162.215 15.8968 162.722L12.7497 162.685C10.9464 161.6 11.2768 160.785 10.5584 158.166C8.8377 156.735 8.68535 157.224 5.8742 157.151L5.4214 153.349C3.89161 151.74 3.09611 152.201 0.254974 151.884C2.09134 151.8 3.4259 151.96 4.91409 150.966C6.42552 148.549 5.77141 144.347 5.67779 141.162Z" fill="#83472D"/>
<path d="M5.8742 157.151L6.32151 153.106C7.84458 151.885 7.29265 152.257 9.60753 152.127L10.7285 152.809C11.0608 154.474 11.07 154.988 11.0547 156.691C11.7119 157.088 130.731 157.744 141.61 157.039L141.924 157.184L141.815 157.55C141.129 159.916 141.497 161.525 140.172 162.468C130.791 163.023 118.999 162.666 109.48 162.642L48.717 162.601C38.7617 162.601 25.6563 162.215 15.8968 162.722L12.7497 162.685C10.9464 161.6 11.2768 160.785 10.5584 158.166C8.8377 156.735 8.68535 157.224 5.8742 157.151Z" fill="#572C1A"/>
<path d="M10.7175 5.5072L10.9458 9.42509L11.5032 11.1862C13.4191 11.7849 13.7416 11.8266 15.7499 11.845L15.2219 14.8091C13.3188 16.0015 13.2815 15.6157 10.7157 15.7267C8.79673 31.2676 12.6469 138.482 9.45944 141.449L5.67779 141.162C5.77141 144.347 6.42552 148.549 4.91409 150.966C3.4259 151.96 2.09134 151.8 0.254974 151.884L0.289226 58.6003C0.288615 46.0424 -0.494014 23.0405 0.518098 11.4641C2.24921 10.2182 3.04467 10.6654 5.56088 10.6397C5.52294 8.91718 5.58661 8.24672 5.83566 6.53958C7.65734 5.23055 8.06548 5.65319 10.7175 5.5072Z" fill="#572C1A"/>
<path d="M10.7175 5.5072L10.9458 9.42509L11.5032 11.1862C13.4191 11.7849 13.7416 11.8266 15.7499 11.845L15.2219 14.8091C13.3188 16.0015 13.2815 15.6157 10.7157 15.7267C8.79673 31.2676 12.6469 138.482 9.45944 141.449L5.67779 141.162C5.05486 97.9166 5.93354 54.0076 5.56088 10.6397C5.52294 8.91718 5.58661 8.24672 5.83566 6.53958C7.65734 5.23055 8.06548 5.65319 10.7175 5.5072Z" fill="#EFBC84"/>
<path d="M10.7175 5.5072L10.9458 9.42509L10.1301 10.7274C8.05632 10.9758 7.6206 10.9053 5.56088 10.6397C5.52294 8.91718 5.58661 8.24672 5.83566 6.53958C7.65734 5.23055 8.06548 5.65319 10.7175 5.5072Z" fill="#5F2F17"/>
<path d="M10.9807 5.43359C10.9586 2.97011 10.4764 2.08924 11.7247 0.533005C19.0647 -0.750263 140.912 0.694944 140.756 0.632988C141.655 2.38981 141.407 3.5915 141.334 5.58449L141.472 10.7525C141.424 12.1898 141.277 14.3974 141.328 15.7635L137.869 15.6905C135.459 13.8852 137.035 13.9632 135.152 11.039C128.164 10.4409 118.88 10.7525 111.684 10.7587L36.5723 10.7611C33.0262 10.7623 17.8696 10.1655 15.7499 11.845C13.7416 11.8266 13.4191 11.7849 11.5032 11.1862L10.9458 9.42509L10.7175 5.5072L10.9807 5.43359Z" fill="#EFBC84"/>
<path d="M10.9807 5.43359C10.9586 2.97011 10.4764 2.08924 11.7247 0.533005C19.0647 -0.750263 140.912 0.694944 140.756 0.632988C141.655 2.38981 141.407 3.5915 141.334 5.58449C99.0473 5.53665 52.9178 6.58988 10.9807 5.43359Z" fill="#572C1A"/>
<path d="M9.45944 141.449C12.6469 138.482 8.79673 31.2676 10.7157 15.7267C11.3423 27.0056 11.0663 40.9007 11.0247 52.3796L10.9611 104.65C10.9617 112.378 10.4997 130.312 11.3086 137.388C13.8065 139.593 15.2598 135.699 15.6777 141.086C17.2534 142.278 123.11 141.788 135.264 141.801C136.267 140.2 137.007 139.082 137.771 137.322C139.062 136.708 139.664 136.973 141.156 137.204C141.951 133.735 141.579 118.941 141.575 114.318L141.502 46.3344C141.495 42.8404 141.298 20.804 141.793 18.5135C143.76 23.4687 141.491 124.876 142.467 139.953C143.759 140.452 145.015 140.315 146.423 140.31L146.314 141.466L142.88 141.856C140.459 144.302 142.259 144.056 140.527 146.486C130.605 147.342 14.6436 147.649 12.1035 146.683C11.7309 146.54 11.4341 146.248 11.0994 146.031C11.0578 144.642 10.9703 143.589 10.8148 142.208L9.45944 141.449Z" fill="#C88758"/>
<path d="M74.4861 71.0661C77.5536 71.1115 80.5037 70.7195 82.3664 73.5547L83.679 74.0301L84.5675 73.7584C86.8603 73.7566 86.8854 73.3499 88.3161 74.5988C90.5269 82.491 89.9254 86.6371 84.1287 90.4304C83.4635 90.8654 84.4683 94.6158 82.7727 94.525C74.0143 95.5151 66.6114 94.2189 65.6115 83.9491C65.3796 81.5617 64.9059 76.0636 65.9688 73.8664C67.5133 73.7007 66.839 73.5327 68.0897 74.2037L70.4432 74.4129L71.287 73.9762L72.3358 73.0646L72.96 71.2593L74.4861 71.0661Z" fill="#83472D"/>
<path d="M74.4861 71.0661C77.5536 71.1115 80.5037 70.7195 82.3664 73.5547L83.679 74.0301C84.0051 75.4662 84.0088 74.892 83.1594 76.4777L83.8136 76.0373L83.3485 77.1316L81.7973 76.0495C80.0772 76.4832 80.6157 76.0777 79.7535 77.4426L79.6586 79.8778C77.5475 81.4335 72.1443 81.0808 69.3282 80.9918L68.5872 80.4808C68.6882 76.8825 70.2975 77.8198 70.4432 74.4129L71.287 73.9762L72.3358 73.0646L72.96 71.2593L74.4861 71.0661Z" fill="#F6CF98"/>
<path d="M83.679 74.0301L84.5675 73.7584C84.562 75.906 84.8948 82.1039 83.3069 83.4191C79.7486 86.3654 72.2857 88.4865 68.7176 84.5116C67.6063 81.826 68.0126 77.2573 68.0897 74.2037L70.4432 74.4129C70.2975 77.8198 68.6882 76.8825 68.5872 80.4808L69.3282 80.9918C72.1443 81.0808 77.5475 81.4335 79.6586 79.8778L79.7535 77.4426C80.6157 76.0777 80.0772 76.4832 81.7973 76.0495L83.3485 77.1316L83.8136 76.0373L83.1594 76.4777C84.0088 74.892 84.0051 75.4662 83.679 74.0301Z" fill="#D29362"/>
<path d="M116.194 114.107C119.612 111.29 123.386 105.892 127.702 109.215C128.485 110.79 128.501 113.296 127.382 114.686L125.634 114.971L125.571 115.374C127.631 115.384 128.869 115.042 130.449 115.949C130.969 118.411 131.262 118.044 130.543 120.155C128.096 120.871 126.691 120.384 125.121 121.506C125.109 122.378 125.316 124.088 124.712 124.575C121.231 127.381 118.301 126.306 115.55 123.577C114.925 121.728 115.16 120.424 115.28 118.477C115.078 116.507 115.459 115.885 116.194 114.107Z" fill="#83472D"/>
<path d="M116.194 114.107C119.612 111.29 123.386 105.892 127.702 109.215C128.485 110.79 128.501 113.296 127.382 114.686L125.634 114.971C123.161 115.607 118.7 114.938 116.194 114.107Z" fill="#BA7948"/>
<path d="M116.194 114.107C118.7 114.938 123.161 115.607 125.634 114.971L125.571 115.374C124.103 120.29 119.947 118.274 115.28 118.477C115.078 116.507 115.459 115.885 116.194 114.107Z" fill="#C88758"/>
<path d="M28.2888 28.9293C31.412 28.3196 35.2126 28.7042 36.9138 27.6387L37.3011 25.5665C39.0016 24.9961 38.2661 24.9924 40.0872 25.7156C40.759 27.4779 40.6501 26.7167 40.1673 28.8465C39.3241 29.4544 39.0206 29.6194 38.1333 30.0911L37.861 31.8148C33.6351 32.2215 29.3137 33.7857 28.2888 28.9293Z" fill="#83472D"/>
<path d="M28.2888 28.9293C31.412 28.3196 35.2126 28.7042 36.9138 27.6387L37.3011 25.5665C39.0016 24.9961 38.2661 24.9924 40.0872 25.7156C40.759 27.4779 40.6501 26.7167 40.1673 28.8465C39.3241 29.4544 39.0206 29.6194 38.1333 30.0911L37.861 31.8148C37.6144 30.5334 37.5299 30.4506 36.9951 29.3157C35.1165 28.6177 30.8233 29.0262 28.2888 28.9293Z" fill="#8C502D"/>
<path d="M31.8269 19.9157C33.4582 19.8207 35.0137 19.4943 36.423 20.4703C37.2717 22.1057 37.3445 22.2081 37 24.0079C35.726 25.2654 35.6862 25.1506 33.8792 25.1445C31.9223 25.3015 30.1716 25.366 28.2135 25.1126C28.3628 24.4814 31.21 20.5316 31.8269 19.9157Z" fill="#C08052"/>
<path d="M88.4182 129.517C89.1562 126.613 88.5321 127.275 90.6175 125.768C92.6827 125.758 91.8995 125.489 93.5492 126.82L93.8319 129.479C94.4872 130.983 94.3863 131.908 93.7138 133.257C91.6119 134.223 92.5524 134.097 90.1194 133.579C88.2842 131.849 88.8215 132.476 88.4182 129.517Z" fill="#8C502D"/>
<path d="M88.4182 129.517C89.1562 126.613 88.5321 127.275 90.6175 125.768C92.6827 125.758 91.8995 125.489 93.5492 126.82L93.8319 129.479L88.4182 129.517Z" fill="#C08052"/>
<path d="M44.8326 104.215C45.2591 106.134 45.7969 107.779 45.2952 109.689C43.0782 112.326 40.9787 112.427 38.0274 110.455L37.5783 109.265C38.6197 107.845 39.1809 108.206 41.4291 107.834C42.9289 104.925 42.0587 105.809 44.8326 104.215Z" fill="#83472D"/>
<path d="M108.066 20.4003C109.752 20.3488 111.231 20.35 112.894 20.7359C114.126 22.5553 113.8 24.0704 113.844 26.2413C112.081 26.3628 110.53 26.4652 108.785 26.0499C107.633 24.206 108.036 22.5491 108.066 20.4003Z" fill="#83472D"/>
<path d="M125.166 42.4502C127.549 42.4245 129.909 41.9202 132.257 42.5201C133.675 43.8967 133.438 44.726 133.588 46.6313C131.336 46.7901 128.965 47.1625 126.759 46.5589C125.329 45.2345 125.46 44.3199 125.166 42.4502Z" fill="#83472D"/>
<path d="M102.332 51.1288C103.88 51.0902 105.256 51.1528 106.778 51.4534C108.047 53.2832 107.675 55.0314 107.718 57.2305C106.03 57.2704 104.599 57.3636 102.986 56.7594C101.927 54.8934 102.296 53.2525 102.332 51.1288Z" fill="#C08052"/>
<path d="M41.4291 107.834C39.291 107.657 38.1914 107.771 36.9786 105.992C37.623 103.998 43.405 100.598 45.379 103.061L44.8326 104.215C42.0587 105.809 42.9289 104.925 41.4291 107.834Z" fill="#C88758"/>
<path d="M57.6161 32.5135C58.3449 31.6572 59.4886 31.2781 60.5834 31.5302C61.6781 31.7817 62.5414 32.6233 62.8248 33.7127C63.1075 34.8022 62.7624 35.9591 61.9296 36.7142C60.751 37.7821 58.9483 37.7496 57.8089 36.6405C56.6695 35.5309 56.585 33.725 57.6161 32.5135Z" fill="#83472D"/>
<path d="M24.3199 60.8454C22.3966 59.0573 22.6799 59.8259 22.4419 57.8176C23.9448 56.4453 23.2025 56.8373 25.5529 56.5797C27.8598 57.5611 27.3464 56.9845 28.4944 58.6868L28.2747 61.1944L28.1339 62.3022C26.2352 63.1665 27.0931 63.104 24.8779 62.3599L24.3199 60.8454Z" fill="#C08052"/>
<path d="M24.3199 60.8454L28.2747 61.1944L28.1339 62.3022C26.2352 63.1665 27.0931 63.104 24.8779 62.3599L24.3199 60.8454Z" fill="#8C502D"/>
<path d="M56.6579 26.9676C58.236 26.9614 59.7095 27.0252 61.2773 27.2516C62.4846 28.5404 62.443 29.5372 62.7459 31.2057C61.202 31.2327 59.6581 31.2321 58.1142 31.2038C56.6995 29.8562 56.9075 28.8704 56.6579 26.9676Z" fill="#C88758"/>
<path d="M72.96 71.2593L72.4405 69.6681C74.283 67.4224 78.8062 68.6824 81.1334 69.7264L81.238 70.2429C79.9383 70.4815 74.759 70.9508 74.4861 71.0661L72.96 71.2593Z" fill="#693712"/>
<path d="M126.073 37.7968C126.693 37.3865 127.488 37.3521 128.14 37.7079C128.793 38.0637 129.197 38.7513 129.19 39.4954C129.182 40.2401 128.767 40.9197 128.108 41.2639C127.159 41.7583 125.991 41.4215 125.449 40.4983C124.907 39.5745 125.181 38.3869 126.073 37.7968Z" fill="#C88758"/>
<path d="M22.2216 128.77C22.7154 128.264 23.4436 128.065 24.1247 128.251C24.8063 128.435 25.3344 128.976 25.5051 129.662C25.6765 130.349 25.4635 131.075 24.9495 131.559C24.1767 132.287 22.9651 132.262 22.2234 131.503C21.4812 130.744 21.4805 129.53 22.2216 128.77Z" fill="#83472D"/>
<path d="M107.517 17.3664C109.235 17.1811 110.813 16.8057 112.377 17.7062L112.688 19.5949C111.626 19.6894 110.078 19.9887 109.057 19.6685C107.998 19.3361 107.891 18.3012 107.517 17.3664Z" fill="#C08052"/>
<path d="M22.5716 96.8296C23.3457 96.4567 24.2752 96.7585 24.6851 97.5148C25.0945 98.2712 24.84 99.217 24.1069 99.6642C23.599 99.974 22.962 99.9783 22.4504 99.6752C21.9382 99.3722 21.6347 98.8116 21.6598 98.2159C21.6855 97.6209 22.0356 97.0879 22.5716 96.8296Z" fill="#C88758"/>
<path d="M71.287 73.9762C70.0663 73.8897 70.0687 73.9602 69.0339 73.2027L69.171 71.966C70.7717 70.9968 70.0692 71.1047 71.7918 71.4906L72.3358 73.0646L71.287 73.9762Z" fill="#693712"/>
<path d="M141.334 5.58449L146.372 5.66055C146.226 7.43026 145.982 9.24598 146.194 10.993L141.472 10.7525L141.334 5.58449Z" fill="#572C1A"/>
</svg>
