<svg width="168" height="179" viewBox="0 0 168 179" fill="none" xmlns="http://www.w3.org/2000/svg">
<path d="M10.6927 0.121733C21.7443 0.110951 144.296 -0.333644 145.982 0.546668C146.512 2.80136 146.456 3.40578 146.38 5.62749L151.784 5.62686C151.96 8.02932 151.588 8.98321 152.877 10.5548C154.325 10.707 155.771 10.8777 157.214 11.066C157.62 13.6676 157.235 14.4858 158.836 15.8697C161.534 16.1798 160.871 15.713 162.276 17.2092C162.421 19.1905 162.142 20.8484 163.227 22.0446L167.076 22.1131C168.498 24.4914 167.854 112.797 167.859 124.209L167.847 156.402C167.837 160.555 168.042 169.261 167.509 172.844C165.4 174.496 164.393 172.464 162.421 174.238C162.201 176.411 162.534 177.306 161.287 178.572C155.433 179.171 146.948 178.902 140.91 178.898L106.811 178.863C97.7231 178.851 24.0608 179.499 21.9491 178.075C21.4514 175.016 21.9104 174.28 20.0403 172.891L17.3086 172.991C16.0584 171.667 16.2049 171.11 16.2619 168.96C16.2708 168.631 16.2822 168.301 16.2974 167.972C8.9132 168.292 12.793 167.054 11.0236 163.63C8.34454 162.011 9.41973 162.415 6.29182 162.296C5.07464 160.849 5.30983 159.187 5.24453 157.181C3.89359 157.171 1.80093 156.952 0.387854 156.854L0.34157 59.9785C0.330793 46.7662 -0.473686 24.2986 0.42462 11.7903C1.98223 10.4362 3.0086 10.8199 5.47783 10.624C5.54059 9.20138 5.67879 8.03123 5.84805 6.61689C7.61994 5.22602 7.88176 5.67316 10.6039 5.51017C10.4245 3.71529 10.5938 1.92866 10.6927 0.121733Z" fill="#925C41"/>
<path d="M10.6927 0.121733C21.7443 0.110951 144.296 -0.333644 145.982 0.546668C146.512 2.80136 146.456 3.40578 146.38 5.62749L146.377 11.2297L146.364 16.1126L146.313 86.5801L141.707 86.5763L140.589 86.2294L140.543 81.6591L135.448 81.7904L135.422 86.8369L135.498 92.1556L130.386 92.0763L129.663 92.0281L129.428 92.3852L124.634 92.7911L123.861 92.5882L120.178 92.1981C118.65 90.4273 119.146 90.18 118.971 87.2695L118.606 87.0443L114.328 86.8154L114.038 86.5128L113.104 86.8103L107.67 86.7126L102.825 86.8192L97.867 86.8515L97.5659 86.6479L92.3105 86.8407L86.7095 86.8223L80.9862 86.7672L80.9659 92.3535C78.886 92.9148 77.8729 93.4006 75.855 92.5476C75.81 95.0502 76.269 95.8513 74.9688 97.4375C73.3414 97.6601 72.6599 97.7146 71.0193 97.6759L70.431 97.3106C60.2231 98.2778 69.7958 102.345 60.6802 103.301L59.4541 103.362L54.3116 103.088C54.2038 104.485 54.0903 107.023 53.8576 108.303L49.2203 108.449C49.2292 109.983 49.1582 112.525 49.3376 113.956L48.7708 114.675L48.677 119.213L43.4685 119.314C43.4374 122.028 43.8996 122.42 42.6108 124.256C41.3327 124.505 40.326 124.708 39.0315 124.839C32.2159 124.539 23.4344 124.737 16.4959 124.712L11.2766 124.765L11.2461 130.099L11.1301 141.266C10.9095 144.225 11.442 144.397 9.79501 145.862L5.99005 146.297L5.92982 142.077C6.82623 99.2679 5.02454 54.9142 5.99132 12.077C7.31056 10.8187 8.55565 11.0698 10.7212 10.7781L5.47783 10.624C5.54059 9.20138 5.67879 8.03123 5.84805 6.61689C7.61994 5.22602 7.88176 5.67316 10.6039 5.51017C10.4245 3.71529 10.5938 1.92866 10.6927 0.121733Z" fill="#F0C07C"/>
<path d="M70.3257 32.2119L70.6516 32.3451C70.1394 34.8046 70.192 35.3374 70.3264 37.7969L65.0082 38.038L65.0253 33.1125C67.1465 33.2203 67.4451 33.2051 69.4781 32.6032L70.3257 32.2119Z" fill="#BC7D53"/>
<path d="M10.6927 0.121733C21.7443 0.110951 144.296 -0.333644 145.982 0.546668C146.512 2.80136 146.456 3.40578 146.38 5.62749L146.377 11.2297L146.364 16.1126C143.695 15.9585 143.521 16.3948 141.76 15.0401C141.417 13.6423 141.248 12.5952 140.539 11.3216C135.131 10.343 122.258 10.6842 116.211 10.7026L74.4287 10.8117L35.7685 10.7445C31.445 10.7495 20.7262 10.5288 16.8699 11.1776C15.0378 13.6936 16.8578 14.4014 14.8425 15.9953L12.263 15.9781C9.64223 18.8778 11.3615 38.1134 11.2785 43.5406C10.9133 49.6679 10.9406 58.9942 11.3881 65.1399C10.5843 82.5464 11.991 103.159 10.893 119.167L11.2766 124.765L11.2461 130.099L11.1301 141.266C10.9095 144.225 11.442 144.397 9.79501 145.862L5.99005 146.297L5.92982 142.077C6.82623 99.2679 5.02454 54.9142 5.99132 12.077C7.31056 10.8187 8.55565 11.0698 10.7212 10.7781L5.47783 10.624C5.54059 9.20138 5.67879 8.03123 5.84805 6.61689C7.61994 5.22602 7.88176 5.67316 10.6039 5.51017C10.4245 3.71529 10.5938 1.92866 10.6927 0.121733Z" fill="#F6D9A5"/>
<path d="M10.6927 0.121733C21.7443 0.110951 144.296 -0.333644 145.982 0.546668C146.512 2.80136 146.456 3.40578 146.38 5.62749C102.355 5.44674 55.5966 6.56234 11.887 5.45561C10.6946 4.24042 10.9139 2.2185 10.6927 0.121733Z" fill="#572E1C"/>
<path d="M5.92982 142.077C7.5857 142.004 7.90077 141.968 9.47677 141.463C12.5121 137.517 9.67203 124.808 10.893 119.167L11.2766 124.765L11.2461 130.099L11.1301 141.266C10.9095 144.225 11.442 144.397 9.79501 145.862L5.99005 146.297L5.92982 142.077Z" fill="#E6AD7F"/>
<path d="M5.47783 10.624C5.54059 9.20138 5.67879 8.03123 5.84805 6.61689C7.61994 5.22602 7.88176 5.67316 10.6039 5.51017L10.7212 10.7781L5.47783 10.624Z" fill="#693922"/>
<path d="M11.3881 65.1399L16.3323 65.2287L21.2264 65.204L21.9402 65.4209L22.0886 70.4484L26.7963 70.4681C28.61 70.4484 30.8928 70.3495 32.6622 70.5118C34.2578 70.5575 36.3797 70.158 38.0039 69.9201C38.0058 72.8839 38.5212 73.5524 37.1582 75.6085C35.4706 75.9301 34.5032 76.0474 32.7884 76.1635L32.7668 87.1743L32.6521 92.1543L37.9493 92.4347C37.9531 95.4802 38.407 95.5081 37.1113 97.844L38.0844 98.2918L38.4742 98.1554C39.0232 97.9829 40.7736 97.7083 41.4361 97.5897C44.4917 97.7254 46.9742 97.2593 48.9541 98.8981C49.3649 100.572 49.3966 100.784 48.8805 102.422C48.2795 102.638 47.5188 102.97 46.9153 103.028C49.6451 104.338 49.0187 105.502 48.8095 108.457L49.2203 108.449C49.2292 109.983 49.1582 112.525 49.3376 113.956L48.7708 114.675L48.677 119.213L43.4685 119.314C43.4374 122.028 43.8996 122.42 42.6108 124.256C41.3327 124.505 40.326 124.708 39.0315 124.839C32.2159 124.539 23.4344 124.737 16.4959 124.712L11.2766 124.765L10.893 119.167C11.991 103.159 10.5843 82.5464 11.3881 65.1399Z" fill="#F0C07C"/>
<path d="M32.1931 92.3712L32.6521 92.1543L37.9493 92.4347C37.9531 95.4802 38.407 95.5081 37.1113 97.844L38.0844 98.2918L38.4742 98.1554C39.0232 97.9829 40.7736 97.7083 41.4361 97.5897C44.4917 97.7254 46.9742 97.2593 48.9541 98.8981C49.3649 100.572 49.3966 100.784 48.8805 102.422C48.2795 102.638 47.5188 102.97 46.9153 103.028C49.6451 104.338 49.0187 105.502 48.8095 108.457L43.1287 108.365L42.5214 108.383L38.3075 108.706L37.8371 109.136L37.4675 108.56L32.5138 108.487C32.3782 107.07 32.2229 105.656 32.0473 104.243C30.399 102.958 29.8842 103.361 27.4385 103.227C27.6667 101.548 27.6591 99.481 27.7085 97.759L32.1918 97.6652L32.4448 93.2249L32.1931 92.3712Z" fill="#52656C"/>
<path d="M46.9153 103.028C49.6451 104.338 49.0187 105.502 48.8095 108.457L43.1287 108.365L43.0368 103.254L46.9153 103.028Z" fill="#B0BAC3"/>
<path d="M32.1931 92.3712L32.6521 92.1543L37.9493 92.4347C37.9531 95.4802 38.407 95.5081 37.1113 97.844L32.9621 97.6005C33.0591 95.6534 32.8942 95.1359 32.4448 93.2249L32.1931 92.3712Z" fill="#48515C"/>
<path d="M32.9621 97.6005L37.1113 97.844L38.0844 98.2918C37.9151 100.982 38.324 100.539 36.9515 102.511C34.8538 103.351 35.7013 103.366 33.7703 102.567C32.4175 100.469 32.893 100.581 32.9621 97.6005Z" fill="#9E9B9E"/>
<path d="M38.3075 108.706C38.3278 107.016 38.4051 105.904 38.596 104.224C40.2227 102.851 40.4534 103.31 43.0368 103.254L43.1287 108.365L42.5214 108.383L38.3075 108.706Z" fill="#9E9B9E"/>
<path d="M32.5138 108.487C32.8536 105.069 32.2558 105.43 34.2128 103.489L35.8871 103.09C38.499 104.836 38.0267 105.549 37.4675 108.56L32.5138 108.487Z" fill="#2C2C2E"/>
<path d="M32.1918 97.6652C32.1918 100.704 32.7269 100.862 31.2219 102.73C29.9641 102.908 28.7019 103.1 27.4385 103.227C27.6667 101.548 27.6591 99.481 27.7085 97.759L32.1918 97.6652Z" fill="#2D323C"/>
<path d="M38.4742 98.1554C41.0512 98.3711 41.559 97.9144 42.9265 99.415L43.0945 102.643C40.9124 102.558 40.1605 102.936 38.7513 101.792C38.6505 100.582 38.5338 99.3668 38.4742 98.1554Z" fill="#48515C"/>
<path d="M32.7884 76.1635L32.7668 87.1743L32.6521 92.1543L32.1931 92.3712L32.4448 93.2249L32.1918 97.6652L27.7085 97.759C27.6591 99.481 27.6667 101.548 27.4385 103.227C27.2438 101.904 27.1297 99.2038 27.0296 97.7686C25.91 97.7552 23.4243 97.7926 22.8449 97.0182C20.8207 94.312 21.8439 85.1524 21.9497 81.6883L27.1278 81.2215L27.6641 81.1314C29.282 81.191 29.5539 81.1485 31.1553 80.8523C32.5037 78.9852 32.0656 78.9116 32.195 76.18L32.7884 76.1635Z" fill="#2D323C"/>
<path d="M27.1323 87.5619C28.3412 87.2726 31.3873 87.2321 32.7668 87.1743L32.6521 92.1543L32.1931 92.3712L32.4448 93.2249L32.1918 97.6652L27.7085 97.759C27.6591 99.481 27.6667 101.548 27.4385 103.227C27.2438 101.904 27.1297 99.2038 27.0296 97.7686C26.8438 94.9659 27.0727 90.4882 27.1323 87.5619Z" fill="#48515C"/>
<path d="M27.7085 97.759C27.4644 95.8138 27.3732 95.3686 27.7136 93.4513C29.5096 92.0649 29.4684 92.5108 32.1931 92.3712L32.4448 93.2249L32.1918 97.6652L27.7085 97.759Z" fill="#8A8FA3"/>
<path d="M32.7884 76.1635L32.7668 87.1743C31.3873 87.2321 28.3412 87.2726 27.1323 87.5619C27.2153 85.5856 27.2502 84.7573 27.0118 82.7519C25.3388 81.5462 24.2985 81.8722 21.9497 81.6883L27.1278 81.2215L27.6641 81.1314C29.282 81.191 29.5539 81.1485 31.1553 80.8523C32.5037 78.9852 32.0656 78.9116 32.195 76.18L32.7884 76.1635Z" fill="#343C46"/>
<path d="M10.893 119.167L43.1839 119.211L43.4685 119.314C43.4374 122.028 43.8996 122.42 42.6108 124.256C41.3327 124.505 40.326 124.708 39.0315 124.839C32.2159 124.539 23.4344 124.737 16.4959 124.712L11.2766 124.765L10.893 119.167Z" fill="#693922"/>
<path d="M32.6622 70.5118C34.2578 70.5575 36.3797 70.158 38.0039 69.9201C38.0058 72.8839 38.5212 73.5524 37.1582 75.6085C35.4706 75.9301 34.5032 76.0474 32.7884 76.1635L32.195 76.18C32.0656 78.9116 32.5037 78.9852 31.1553 80.8523C29.5539 81.1485 29.282 81.191 27.6641 81.1314L27.1278 81.2215C27.0898 79.8801 27.0334 78.5387 26.9579 77.1985C25.2811 75.5908 24.7613 76.1254 21.7519 75.9612L21.9244 70.7218L22.0886 70.4484L26.7963 70.4681C28.61 70.4484 30.8928 70.3495 32.6622 70.5118Z" fill="#48515C"/>
<path d="M26.7963 70.4681L27.0987 71.1518L27.1804 75.6092L21.7519 75.9612L21.9244 70.7218L22.0886 70.4484L26.7963 70.4681Z" fill="#2C2C2E"/>
<path d="M27.0987 71.1518C30.179 70.9958 29.8836 70.5436 32.2013 71.8393L32.7205 73.1991C31.0824 76.0937 30.3565 75.6364 27.1804 75.6092L27.0987 71.1518Z" fill="#636876"/>
<path d="M27.6641 81.1314C27.6477 79.5674 27.7123 78.5215 27.8556 76.9632C29.4113 75.7271 29.7777 76.1705 32.195 76.18C32.0656 78.9116 32.5037 78.9852 31.1553 80.8523C29.5539 81.1485 29.282 81.191 27.6641 81.1314Z" fill="#2D323C"/>
<path d="M43.1287 108.365L48.8095 108.457L49.2203 108.449C49.2292 109.983 49.1582 112.525 49.3376 113.956L48.7708 114.675L48.677 119.213L43.4685 119.314L43.1839 119.211C43.4216 118.223 43.4507 115.256 43.4926 114.092C41.7733 114.032 39.6356 113.761 37.8891 113.591L37.8371 109.136L38.3075 108.706L42.5214 108.383L43.1287 108.365Z" fill="#343C46"/>
<path d="M43.4926 114.092C45.4502 114.04 47.1251 113.754 48.7708 114.675L48.677 119.213L43.4685 119.314L43.1839 119.211C43.4216 118.223 43.4507 115.256 43.4926 114.092Z" fill="#693922"/>
<path d="M38.3075 108.706L42.5214 108.383C43.3632 110.201 43.5947 110.41 43.4057 112.317C41.8779 113.702 40.0794 113.475 37.8891 113.591L37.8371 109.136L38.3075 108.706Z" fill="#2C2C2E"/>
<path d="M16.3323 65.2287L21.2264 65.204L21.9402 65.4209L22.0886 70.4484L21.9244 70.7218C19.9293 70.6032 19.0342 70.5689 17.0354 70.0761C15.9012 68.2407 16.3184 67.6927 16.3323 65.2287Z" fill="#2D323C"/>
<path d="M49.3173 50.2945C50.4571 49.666 52.9885 49.3095 54.3743 49.045L54.4174 59.3297C54.3553 62.2668 54.8707 62.7914 53.4164 64.6573C52.2671 64.7645 51.0619 64.9053 49.9126 64.9103L49.9253 65.1596L54.2849 65.2065C56.893 65.2103 57.5561 65.131 60.1096 64.5856L60.568 64.7511C60.4583 66.7997 60.4475 68.2635 60.5097 70.307L65.2282 70.1903L65.0805 75.9878L75.9558 75.9758C78.3642 76.0982 79.2232 75.6827 80.7155 76.9829C80.8246 78.0319 80.959 79.1291 81.0154 80.1762L80.9862 86.7672L80.9659 92.3535C78.886 92.9148 77.8729 93.4006 75.855 92.5476C75.81 95.0502 76.269 95.8513 74.9688 97.4375C73.3414 97.6601 72.6599 97.7146 71.0193 97.6759L70.431 97.3106C60.2231 98.2778 69.7958 102.345 60.6802 103.301L59.4541 103.362L54.3116 103.088C54.2038 104.485 54.0903 107.023 53.8576 108.303L49.2203 108.449L48.8095 108.457C49.0187 105.502 49.6451 104.338 46.9153 103.028C47.5188 102.97 48.2795 102.638 48.8805 102.422C49.3966 100.784 49.3649 100.572 48.9541 98.8981C46.9742 97.2593 44.4917 97.7254 41.4361 97.5897C40.7736 97.7083 39.0232 97.9829 38.4742 98.1554L38.0844 98.2918L37.1113 97.844C38.407 95.5081 37.9531 95.4802 37.9493 92.4347L32.6521 92.1543L32.7668 87.1743L32.7884 76.1635C34.5032 76.0474 35.4706 75.9301 37.1582 75.6085C38.5212 73.5524 38.0058 72.8839 38.0039 69.9201C37.9715 67.6401 38.1275 66.3297 38.3887 64.0826C40.0369 64.3915 40.3964 64.6103 41.8386 63.9558C42.2456 62.4901 42.5226 61.2267 42.8301 59.7375C42.9873 58.3264 43.0165 56.3184 43.085 54.8502C45.7945 54.2362 46.3625 54.3409 49.1341 54.6098L49.3173 50.2945Z" fill="#8A8FA3"/>
<path d="M65.0805 75.9878L75.9558 75.9758C78.3642 76.0982 79.2232 75.6827 80.7155 76.9829C80.8246 78.0319 80.959 79.1291 81.0154 80.1762L80.9862 86.7672L80.9659 92.3535C78.886 92.9148 77.8729 93.4006 75.855 92.5476C75.81 95.0502 76.269 95.8513 74.9688 97.4375C73.3414 97.6601 72.6599 97.7146 71.0193 97.6759L70.431 97.3106C60.2231 98.2778 69.7958 102.345 60.6802 103.301L59.4541 103.362C59.2373 101.008 59.9049 88.9096 61.0511 87.2581L64.5308 86.8287C65.4576 84.9913 65.0678 78.5812 65.0805 75.9878Z" fill="#B0BAC3"/>
<path d="M75.9558 75.9758C78.3642 76.0982 79.2232 75.6827 80.7155 76.9829C80.8246 78.0319 80.959 79.1291 81.0154 80.1762L80.9862 86.7672L80.9659 92.3535C78.886 92.9148 77.8729 93.4006 75.855 92.5476C75.81 95.0502 76.269 95.8513 74.9688 97.4375C73.3414 97.6601 72.6599 97.7146 71.0193 97.6759L70.431 97.3106C70.327 94.1648 69.6804 90.1165 71.4472 87.7997C77.5268 84.6843 76.1498 82.2775 75.9558 75.9758Z" fill="#8A8FA3"/>
<path d="M80.9862 86.7672L80.9659 92.3535C78.886 92.9148 77.8729 93.4006 75.855 92.5476C75.8164 90.6499 75.7422 89.6701 76.1302 87.7642C78.02 86.4076 78.2045 86.8623 80.9862 86.7672Z" fill="#48515C"/>
<path d="M49.3173 50.2945C50.4571 49.666 52.9885 49.3095 54.3743 49.045L54.4174 59.3297C54.3553 62.2668 54.8707 62.7914 53.4164 64.6573C52.2671 64.7645 51.0619 64.9053 49.9126 64.9103L49.9253 65.1596C48.9648 67.2145 49.0713 67.9045 49.0866 70.0977C46.9368 70.0362 45.4585 69.7108 43.8153 70.9501C42.347 74.0122 45.3919 77.5658 41.6915 80.7287C40.2043 81.2462 38.6676 81.4174 38.194 82.71C37.3946 84.8924 37.8657 89.6295 37.9874 92.0002L37.9493 92.4347L32.6521 92.1543L32.7668 87.1743L32.7884 76.1635C34.5032 76.0474 35.4706 75.9301 37.1582 75.6085C38.5212 73.5524 38.0058 72.8839 38.0039 69.9201C37.9715 67.6401 38.1275 66.3297 38.3887 64.0826C40.0369 64.3915 40.3964 64.6103 41.8386 63.9558C42.2456 62.4901 42.5226 61.2267 42.8301 59.7375C42.9873 58.3264 43.0165 56.3184 43.085 54.8502C45.7945 54.2362 46.3625 54.3409 49.1341 54.6098L49.3173 50.2945Z" fill="#767F8C"/>
<path d="M49.3173 50.2945C50.4571 49.666 52.9885 49.3095 54.3743 49.045L54.4174 59.3297C54.3553 62.2668 54.8707 62.7914 53.4164 64.6573C52.2671 64.7645 51.0619 64.9053 49.9126 64.9103C48.8076 62.5269 49.1202 57.4029 49.1341 54.6098L49.3173 50.2945Z" fill="#693922"/>
<path d="M60.1096 64.5856L60.568 64.7511C60.4583 66.7997 60.4475 68.2635 60.5097 70.307L54.3369 70.4192L54.2849 65.2065C56.893 65.2103 57.5561 65.131 60.1096 64.5856Z" fill="#5C443F"/>
<path d="M49.9253 65.1596L54.2849 65.2065L54.3369 70.4192C52.9448 70.5061 50.5624 70.2207 49.0866 70.0977C49.0713 67.9045 48.9648 67.2145 49.9253 65.1596Z" fill="#8A8FA3"/>
<path d="M38.9852 91.4719C38.4755 89.5857 38.2473 89.2426 38.6327 87.4027L39.7935 86.5369C42.0966 86.8769 41.2192 86.5052 43.0926 88.0737C43.594 90.4058 43.6162 89.4265 42.7845 91.8594L41.9698 92.6015L38.9852 91.4719Z" fill="#9E9B9E"/>
<path d="M49.2203 108.449C49.2615 106.709 49.3338 105.702 49.5791 103.981C51.3244 102.793 51.9006 103.179 54.3116 103.088C54.2038 104.485 54.0903 107.023 53.8576 108.303L49.2203 108.449Z" fill="#52656C"/>
<path d="M37.9874 92.0002L38.9852 91.4719L41.9698 92.6015C41.7822 94.1534 41.4963 96.0586 41.4361 97.5897C40.7736 97.7083 39.0232 97.9829 38.4742 98.1554L38.0844 98.2918L37.1113 97.844C38.407 95.5081 37.9531 95.4802 37.9493 92.4347L37.9874 92.0002Z" fill="#767F8C"/>
<path d="M75.94 37.6536L76.3058 37.9853C76.0719 39.9787 75.9013 41.2586 75.9533 43.3021L81.2664 43.6325L86.1535 43.6293L86.8788 44.438C88.5315 44.6283 90.8232 44.8261 92.4087 45.0957L92.7796 48.3531C94.5007 48.7913 95.8314 49.2372 97.6122 49.2423L97.6426 54.1189L97.6477 65.105C97.6502 67.7307 97.505 73.1344 97.8055 75.5318L98.0895 76.0658L97.4746 76.1939C97.4264 78.8114 97.8917 79.346 96.5452 81.0623C95.1531 81.1961 94.0836 81.3147 92.6864 81.2963L92.5349 81.9407L92.3105 86.8407L86.7095 86.8223L80.9862 86.7672L81.0154 80.1762C80.959 79.1291 80.8246 78.0319 80.7155 76.9829C79.2232 75.6827 78.3642 76.0982 75.9558 75.9758L65.0805 75.9878L65.2282 70.1903L60.5097 70.307C60.4475 68.2635 60.4583 66.7997 60.568 64.7511L60.1096 64.5856L60.0038 60.0096C60.1781 56.5448 60.0482 52.7172 60.005 49.222L60.0608 48.5814C61.2907 48.4603 63.8854 48.5827 65.23 48.6042L65.1705 45.7832L64.9796 43.2932L65.0082 38.038L70.3264 37.7969L70.604 38.0335C72.9351 38.1134 73.6736 38.0005 75.94 37.6536Z" fill="#8A8FA3"/>
<path d="M92.3574 64.8691L92.4848 65.2109L92.3434 70.5416C90.7186 70.3235 88.7959 70.352 87.1349 70.3222L87.3714 65.3067C89.4475 65.3359 90.3661 65.1818 92.3574 64.8691Z" fill="#768184"/>
<path d="M92.4848 65.2109L97.6477 65.105C97.6502 67.7307 97.505 73.1344 97.8055 75.5318L98.0895 76.0658L97.4746 76.1939C97.4264 78.8114 97.8917 79.346 96.5452 81.0623C95.1531 81.1961 94.0836 81.3147 92.6864 81.2963L92.5349 81.9407L92.3105 86.8407L86.7095 86.8223L80.9862 86.7672L81.0154 80.1762C80.959 79.1291 80.8246 78.0319 80.7155 76.9829C79.2232 75.6827 78.3642 76.0982 75.9558 75.9758L65.0805 75.9878L65.2282 70.1903L70.192 70.1269L70.5971 70.3273C76.1086 70.4776 81.6234 70.4763 87.1349 70.3222C88.7959 70.352 90.7186 70.3235 92.3434 70.5416L92.4848 65.2109Z" fill="#636876"/>
<path d="M92.4848 65.2109L97.6477 65.105C97.6502 67.7307 97.505 73.1344 97.8055 75.5318L97.3909 75.5438C93.7565 75.6155 89.6567 76.3239 86.9694 73.4134L87.1463 72.2642C89.3138 70.5309 89.2085 71.0211 92.3434 70.5416L92.4848 65.2109Z" fill="#343C46"/>
<path d="M81.0154 80.1762C83.1042 80.1756 84.5959 80.0405 86.598 80.6684C89.1724 81.283 90.0301 81.2614 92.6864 81.2963L92.5349 81.9407L92.3105 86.8407L86.7095 86.8223L80.9862 86.7672L81.0154 80.1762Z" fill="#48515C"/>
<path d="M86.7095 86.8223C86.5948 84.9945 86.4566 84.2708 87.0639 82.5127C89.201 81.3445 89.6954 81.8297 92.5349 81.9407L92.3105 86.8407L86.7095 86.8223Z" fill="#2D323C"/>
<path d="M86.598 80.6684C86.6455 78.8488 86.4984 78.304 87.4113 76.8218C89.9604 75.3726 94.27 76.0474 97.4746 76.1939C97.4264 78.8114 97.8917 79.346 96.5452 81.0623C95.1531 81.1961 94.0836 81.3147 92.6864 81.2963C90.0301 81.2614 89.1724 81.283 86.598 80.6684Z" fill="#9E9B9E"/>
<path d="M75.94 37.6536L76.3058 37.9853C76.0719 39.9787 75.9013 41.2586 75.9533 43.3021L81.2664 43.6325C81.0807 46.38 81.5264 46.7986 80.1165 48.5852C77.2808 48.6347 77.7588 48.1704 76.1213 49.711C75.8316 53.2963 76.0148 54.9859 71.2754 54.9624C70.6541 56.8924 70.618 57.6541 70.4386 59.6081L65.1527 59.747L65.1629 60.3159L64.6563 60.1396L60.0038 60.0096C60.1781 56.5448 60.0482 52.7172 60.005 49.222L60.0608 48.5814C61.2907 48.4603 63.8854 48.5827 65.23 48.6042L65.1705 45.7832L64.9796 43.2932L65.0082 38.038L70.3264 37.7969L70.604 38.0335C72.9351 38.1134 73.6736 38.0005 75.94 37.6536Z" fill="#343C46"/>
<path d="M65.23 48.6042C65.1134 51.5902 64.9784 52.8491 64.4199 55.7825L65.1527 59.747L65.1629 60.3159L64.6563 60.1396L60.0038 60.0096C60.1781 56.5448 60.0482 52.7172 60.005 49.222L60.0608 48.5814C61.2907 48.4603 63.8854 48.5827 65.23 48.6042Z" fill="#572E1C"/>
<path d="M70.3264 37.7969L70.604 38.0335L70.4937 38.8834C69.8503 44.4843 68.9906 42.1814 65.1705 45.7832L64.9796 43.2932L65.0082 38.038L70.3264 37.7969Z" fill="#572E1C"/>
<path d="M75.94 37.6536L76.3058 37.9853C76.0719 39.9787 75.9013 41.2586 75.9533 43.3021C74.113 43.2875 73.2907 43.2323 71.4738 42.9444C70.23 41.3448 70.6079 41.1844 70.4937 38.8834L70.604 38.0335C72.9351 38.1134 73.6736 38.0005 75.94 37.6536Z" fill="#6F6F7D"/>
<path d="M64.4199 55.7825C66.6653 55.2085 67.8882 54.4189 69.5929 55.2015C70.126 56.9063 70.2192 57.8767 70.4386 59.6081L65.1527 59.747L64.4199 55.7825Z" fill="#2D323C"/>
<path d="M92.4537 53.9654L97.6426 54.1189L97.6477 65.105L92.4848 65.2109L92.3574 64.8691C90.3661 65.1818 89.4475 65.3359 87.3714 65.3067C87.4588 63.8118 87.3872 61.7182 87.384 60.1694L86.8572 60.3857C86.759 58.6365 86.7374 57.4188 86.804 55.6689C88.4034 54.1702 89.2631 54.6028 91.9244 54.3757L92.3732 54.4626L92.4537 53.9654Z" fill="#51504F"/>
<path d="M91.9244 54.3757L92.3732 54.4626L92.4765 59.5111L92.3574 64.8691C90.3661 65.1818 89.4475 65.3359 87.3714 65.3067C87.4588 63.8118 87.3872 61.7182 87.384 60.1694L86.8572 60.3857C86.759 58.6365 86.7374 57.4188 86.804 55.6689C88.4034 54.1702 89.2631 54.6028 91.9244 54.3757Z" fill="#9E9B9E"/>
<path d="M87.384 60.1694C88.7255 59.5333 90.9082 59.5917 92.4765 59.5111L92.3574 64.8691C90.3661 65.1818 89.4475 65.3359 87.3714 65.3067C87.4588 63.8118 87.3872 61.7182 87.384 60.1694Z" fill="#C2C6D9"/>
<path d="M86.8572 60.3857L87.384 60.1694C87.3872 61.7182 87.4588 63.8118 87.3714 65.3067L87.1349 70.3222C81.6234 70.4763 76.1086 70.4776 70.5971 70.3273C70.5432 67.3933 70.0728 67.6895 71.4966 65.7697C76.0997 64.0414 80.5615 65.6111 86.1542 65.0454L86.8484 64.9718L86.8572 60.3857Z" fill="#BACACE"/>
<path d="M86.8788 44.438C88.5315 44.6283 90.8232 44.8261 92.4087 45.0957L92.7796 48.3531C94.5007 48.7913 95.8314 49.2372 97.6122 49.2423L97.6426 54.1189L92.4537 53.9654L92.3732 54.4626L91.9244 54.3757C86.6239 53.6787 87.2338 52.891 86.6341 47.5787L86.8788 44.438Z" fill="#768184"/>
<path d="M92.7796 48.3531C94.5007 48.7913 95.8314 49.2372 97.6122 49.2423L97.6426 54.1189L92.4537 53.9654L92.3739 49.1091L92.7796 48.3531Z" fill="#343C46"/>
<path d="M86.8788 44.438C88.5315 44.6283 90.8232 44.8261 92.4087 45.0957L92.7796 48.3531L92.3739 49.1091C89.5984 49.1934 88.3882 49.6108 86.6341 47.5787L86.8788 44.438Z" fill="#5C443F"/>
<path d="M60.0038 60.0096L64.6563 60.1396L65.1629 60.3159C65.2079 62.8142 64.7426 63.2987 66.0834 64.7752C70.2757 66.0849 70.3403 65.4323 70.192 70.1269L65.2282 70.1903L60.5097 70.307C60.4475 68.2635 60.4583 66.7997 60.568 64.7511L60.1096 64.5856L60.0038 60.0096Z" fill="#52656C"/>
<path d="M60.0038 60.0096L64.6563 60.1396C64.6544 62.5592 65.083 62.882 63.8683 64.5139C62.7437 64.6262 61.7015 64.7575 60.568 64.7511L60.1096 64.5856L60.0038 60.0096Z" fill="#5C443F"/>
<path d="M65.1629 60.3159C68.008 60.4365 68.221 59.9379 69.8915 61.4258L70.417 63.9596C75.3904 65.4627 81.9061 64.2152 86.8484 64.9718L86.1542 65.0454C80.5615 65.6111 76.0997 64.0414 71.4966 65.7697C70.0728 67.6895 70.5432 67.3933 70.5971 70.3273L70.192 70.1269C70.3403 65.4323 70.2757 66.0849 66.0834 64.7752C64.7426 63.2987 65.2079 62.8142 65.1629 60.3159Z" fill="#9E9B9E"/>
<path d="M21.4971 37.8046C21.7614 40.4563 21.3589 41.7438 23.2442 43.337L23.1942 43.63L27.1937 43.7758C30.7305 43.668 34.2699 43.6357 37.8086 43.6775L37.8891 50.7238L38.4844 50.6731L38.2524 55.2396L43.085 54.8502C43.0165 56.3184 42.9873 58.3264 42.8301 59.7375C42.5226 61.2267 42.2456 62.4901 41.8386 63.9558C40.3964 64.6103 40.0369 64.3915 38.3887 64.0826C38.1275 66.3297 37.9715 67.6401 38.0039 69.9201C36.3797 70.158 34.2578 70.5575 32.6622 70.5118C30.8928 70.3495 28.61 70.4484 26.7963 70.4681L22.0886 70.4484L21.9402 65.4209L21.2264 65.204L16.3323 65.2287L11.3881 65.1399C10.9406 58.9942 10.9133 49.6679 11.2785 43.5406L15.9469 43.6668C16.2017 42.1192 16.4306 40.5673 16.6341 39.0121C18.3147 37.6784 19.031 38.0405 21.4971 37.8046Z" fill="#F0C07C"/>
<path d="M21.4971 37.8046C21.7614 40.4563 21.3589 41.7438 23.2442 43.337L23.1942 43.63C20.8289 46.7999 22.5558 60.0318 21.9402 65.4209L21.2264 65.204L16.3323 65.2287L11.3881 65.1399C10.9406 58.9942 10.9133 49.6679 11.2785 43.5406L15.9469 43.6668C16.2017 42.1192 16.4306 40.5673 16.6341 39.0121C18.3147 37.6784 19.031 38.0405 21.4971 37.8046Z" fill="#767F8C"/>
<path d="M11.2785 43.5406L15.9469 43.6668L16.2442 43.7575C16.3951 50.968 16.5954 58.0124 16.3323 65.2287L11.3881 65.1399C10.9406 58.9942 10.9133 49.6679 11.2785 43.5406Z" fill="#2D323C"/>
<path d="M21.4971 37.8046C21.7614 40.4563 21.3589 41.7438 23.2442 43.337L23.1942 43.63C20.8289 46.7999 22.5558 60.0318 21.9402 65.4209L21.2264 65.204C21.7304 62.9233 21.4571 51.8724 21.4958 48.4996L18.075 48.3265C16.5003 46.7586 17.0176 46.5462 16.8458 43.6389L16.2442 43.7575L15.9469 43.6668C16.2017 42.1192 16.4306 40.5673 16.6341 39.0121C18.3147 37.6784 19.031 38.0405 21.4971 37.8046Z" fill="#51504F"/>
<path d="M16.8458 43.6389C19.1591 43.6439 19.6295 43.2412 21.26 44.3651C21.5592 46.1257 21.5522 46.7079 21.4958 48.4996L18.075 48.3265C16.5003 46.7586 17.0176 46.5462 16.8458 43.6389Z" fill="#8A8FA3"/>
<path d="M23.1942 43.63L27.1937 43.7758C27.1823 49.118 26.8514 60.4155 27.427 65.2883L27.1291 65.3828C27.0378 66.8936 26.9795 69.0227 26.7963 70.4681L22.0886 70.4484L21.9402 65.4209C22.5558 60.0318 20.8289 46.7999 23.1942 43.63Z" fill="#2D323C"/>
<path d="M21.9402 65.4209C23.8028 65.2972 25.2691 65.1164 27.1291 65.3828C27.0378 66.8936 26.9795 69.0227 26.7963 70.4681L22.0886 70.4484L21.9402 65.4209Z" fill="#52656C"/>
<path d="M32.7395 59.7242L38.0286 60.0185L38.3887 64.0826C38.1275 66.3297 37.9715 67.6401 38.0039 69.9201C36.3797 70.158 34.2578 70.5575 32.6622 70.5118C30.8928 70.3495 28.61 70.4484 26.7963 70.4681C26.9795 69.0227 27.0378 66.8936 27.1291 65.3828L27.427 65.2883L32.3655 65.2667C32.633 63.8258 32.666 61.2787 32.7395 59.7242Z" fill="#474957"/>
<path d="M27.427 65.2883L32.3655 65.2667L32.7808 65.4786L32.6622 70.5118C30.8928 70.3495 28.61 70.4484 26.7963 70.4681C26.9795 69.0227 27.0378 66.8936 27.1291 65.3828L27.427 65.2883Z" fill="#2C2C2E"/>
<path d="M32.7395 59.7242L38.0286 60.0185C37.7554 62.6163 38.149 63.5042 36.6732 65.0993L32.7808 65.4786L32.3655 65.2667C32.633 63.8258 32.666 61.2787 32.7395 59.7242Z" fill="#2D323C"/>
<path d="M37.8891 50.7238L38.4844 50.6731L38.2524 55.2396L43.085 54.8502C43.0165 56.3184 42.9873 58.3264 42.8301 59.7375C42.5226 61.2267 42.2456 62.4901 41.8386 63.9558C40.3964 64.6103 40.0369 64.3915 38.3887 64.0826L38.0286 60.0185L32.7395 59.7242C34.4658 59.6234 35.146 59.584 36.8177 59.1674C38.6188 56.7249 37.9664 54.1639 37.8891 50.7238Z" fill="#636876"/>
<path d="M38.2524 55.2396L43.085 54.8502C43.0165 56.3184 42.9873 58.3264 42.8301 59.7375L39.358 59.5834C37.9519 58.1799 38.3994 57.7346 38.2524 55.2396Z" fill="#343C46"/>
<path d="M21.6987 32.7688L27.1183 32.6933L38.026 32.7948L42.8891 32.7929L49.155 32.9299L54.4231 32.8899C54.3433 34.3873 54.3154 36.9097 53.8963 38.2517L53.7911 38.6253L54.3597 38.6215L54.1702 43.0877L54.2057 43.4917L54.3743 49.045C52.9885 49.3095 50.4571 49.666 49.3173 50.2945L49.1341 54.6098C46.3625 54.3409 45.7945 54.2362 43.085 54.8502L38.2524 55.2396L38.4844 50.6731L37.8891 50.7238L37.8086 43.6775C34.2699 43.6357 30.7305 43.668 27.1937 43.7758L23.1942 43.63L23.2442 43.337C21.3589 41.7438 21.7614 40.4563 21.4971 37.8046C21.4147 36.4816 21.6188 34.1685 21.6987 32.7688Z" fill="#48515C"/>
<path d="M38.026 32.7948L42.8891 32.7929L49.155 32.9299L54.4231 32.8899C54.3433 34.3873 54.3154 36.9097 53.8963 38.2517L53.7911 38.6253L49.0859 38.735C47.7889 38.4965 44.9779 38.4553 43.5129 38.3906L38.3107 38.3424L37.8986 37.939L38.026 32.7948Z" fill="#51504F"/>
<path d="M49.155 32.9299L54.4231 32.8899C54.3433 34.3873 54.3154 36.9097 53.8963 38.2517C52.0972 38.3468 51.7206 38.3627 49.9652 37.986C48.812 36.1803 49.2083 35.371 49.155 32.9299Z" fill="#2C2C2E"/>
<path d="M21.6987 32.7688L27.1183 32.6933C27.0866 34.2224 27.1139 36.6699 26.8787 38.1033L27.0752 38.7895L27.117 42.9685L23.2442 43.337C21.3589 41.7438 21.7614 40.4563 21.4971 37.8046C21.4147 36.4816 21.6188 34.1685 21.6987 32.7688Z" fill="#8A8FA3"/>
<path d="M21.6987 32.7688L27.1183 32.6933C27.0866 34.2224 27.1139 36.6699 26.8787 38.1033C25.5062 38.0709 24.2712 37.9675 22.9032 37.854C21.5167 36.2374 21.9085 35.2987 21.6987 32.7688Z" fill="#343C46"/>
<path d="M27.1183 32.6933L38.026 32.7948L37.8986 37.939C34.2255 37.9663 30.5518 38.0215 26.8787 38.1033C27.1139 36.6699 27.0866 34.2224 27.1183 32.6933Z" fill="#B0BAC3"/>
<path d="M38.4844 50.6731C38.5072 47.0783 38.1066 45.1007 40.3457 42.3336C43.6264 45.8599 43.0976 50.1892 43.085 54.8502L38.2524 55.2396L38.4844 50.6731Z" fill="#2D323C"/>
<path d="M27.0752 38.7895C30.5423 38.4147 35.7216 37.4944 38.265 40.3884C36.9946 43.9934 30.3572 43.0972 27.117 42.9685L27.0752 38.7895Z" fill="#2D323C"/>
<path d="M48.9179 45.4426L49.3243 44.3898C51.1405 43.1346 51.661 43.557 54.2057 43.4917L54.3743 49.045C52.9885 49.3095 50.4571 49.666 49.3173 50.2945L49.1931 48.6949L48.9179 45.4426Z" fill="#553431"/>
<path d="M49.1931 48.6949C46.4379 49.0888 44.5208 49.8492 42.9696 47.2939C43.4247 45.4299 43.7481 45.2232 45.1808 43.9071C46.8088 43.4625 47.0148 43.4232 48.5737 44.0448L48.9179 45.4426L49.1931 48.6949Z" fill="#767F8C"/>
<path d="M43.5129 38.3906C44.9779 38.4553 47.7889 38.4965 49.0859 38.735L49.1874 42.9774L43.4812 43.1537L43.5129 38.3906Z" fill="#252A33"/>
<path d="M38.3107 38.3424L43.5129 38.3906L43.4812 43.1537C41.8671 43.1886 41.0069 43.1118 39.4004 42.9266C38.0622 41.3081 38.473 40.8235 38.3107 38.3424Z" fill="#636876"/>
<path d="M53.7911 38.6253L54.3597 38.6215L54.1702 43.0877L49.1874 42.9774L49.0859 38.735L53.7911 38.6253Z" fill="#6F6F7D"/>
<path d="M135.761 70.3495C137.144 70.4427 139.521 70.5239 140.803 70.7148L140.849 76.0582L140.605 81.0959L140.543 81.6591L135.448 81.7904L135.422 86.8369L135.498 92.1556L130.386 92.0763L129.663 92.0281L129.428 92.3852L124.634 92.7911L123.861 92.5882L120.178 92.1981C118.65 90.4273 119.146 90.18 118.971 87.2695L118.606 87.0443C119.213 85.4708 119.116 83.5586 119.168 81.8265C121.383 82.1297 122.386 82.3631 124.647 81.9832L124.652 76.1578C124.661 74.1936 124.681 73.2574 124.965 71.2723C126.811 69.8922 126.988 70.3501 129.765 70.2359L135.761 70.3495Z" fill="#767F8C"/>
<path d="M119.168 81.8265C121.383 82.1297 122.386 82.3631 124.647 81.9832L124.789 86.92L124.634 92.7911L123.861 92.5882L120.178 92.1981C118.65 90.4273 119.146 90.18 118.971 87.2695L118.606 87.0443C119.213 85.4708 119.116 83.5586 119.168 81.8265Z" fill="#768184"/>
<path d="M118.971 87.2695C120.95 86.8306 121.73 86.4431 123.579 87.2067C124.504 89.0669 124.326 90.2599 123.861 92.5882L120.178 92.1981C118.65 90.4273 119.146 90.18 118.971 87.2695Z" fill="#2C2C2E"/>
<path d="M129.74 86.8687L129.663 92.0281L129.428 92.3852L124.634 92.7911L124.789 86.92L129.74 86.8687Z" fill="#BACACE"/>
<path d="M124.652 76.1578C124.661 74.1936 124.681 73.2574 124.965 71.2723C126.811 69.8922 126.988 70.3501 129.765 70.2359C129.735 73.1756 130.265 73.8803 128.828 75.7519C127.173 76.0176 126.326 76.1216 124.652 76.1578Z" fill="#48515C"/>
<path d="M135.42 70.9342C136.998 70.8772 139.291 70.8588 140.803 70.7148L140.849 76.0582L135.46 76.0436L135.42 70.9342Z" fill="#51504F"/>
<path d="M130.431 86.6708L135.422 86.8369L135.498 92.1556L130.386 92.0763L130.431 86.6708Z" fill="#343C46"/>
<path d="M135.46 76.0436L140.849 76.0582L140.605 81.0959L135.449 81.0984L135.46 76.0436Z" fill="#BACACE"/>
<path d="M130.431 86.6708C130.208 84.7516 130.096 84.2886 130.542 82.4252C132.57 81.1346 132.522 81.6191 135.448 81.7904L135.422 86.8369L130.431 86.6708Z" fill="#B0BAC3"/>
<path d="M132.993 75.6352L135.46 76.0436L135.449 81.0984C133.606 81.0883 132.945 81.153 131.199 80.5999C129.657 78.8494 129.945 79.6441 129.818 77.6108C131.196 75.8527 130.493 76.4273 132.993 75.6352Z" fill="#52656C"/>
<path d="M124.647 81.9832C126.979 81.6749 127.327 81.2449 129.253 82.0663C129.976 83.7368 129.776 85.0326 129.74 86.8687L124.789 86.92L124.647 81.9832Z" fill="#48515C"/>
<path d="M132.993 75.6352C132.147 75.677 131.58 75.3999 130.78 75.1202C129.97 73.2993 129.992 74.0565 130.536 72.3111C132.534 70.4326 131.967 71.0008 135.42 70.9342L135.46 76.0436L132.993 75.6352Z" fill="#9DA7B1"/>
<path d="M59.6399 27.2154L65.1255 27.159L65.1121 32.5132L69.4781 32.6032C67.4451 33.2051 67.1465 33.2203 65.0253 33.1125L65.0082 38.038L64.9796 43.2932L65.1705 45.7832L65.23 48.6042C63.8854 48.5827 61.2907 48.4603 60.0608 48.5814L60.005 49.222C60.0482 52.7172 60.1781 56.5448 60.0038 60.0096L60.1096 64.5856C57.5561 65.131 56.893 65.2103 54.2849 65.2065L49.9253 65.1596L49.9126 64.9103C51.0619 64.9053 52.2671 64.7645 53.4164 64.6573C54.8707 62.7914 54.3553 62.2668 54.4174 59.3297L54.3743 49.045L54.2057 43.4917L54.1702 43.0877L54.3597 38.6215L53.7911 38.6253L53.8963 38.2517C54.3154 36.9097 54.3433 34.3873 54.4231 32.8899L49.155 32.9299L42.8891 32.7929C48.9731 32.1567 53.0322 33.3922 58.1349 31.8377C59.8022 30.1507 59.2976 30.1551 59.6399 27.2154Z" fill="#C58453"/>
<path d="M55.0977 59.5904C55.0393 56.3996 54.5804 50.5539 55.8261 47.9624L57.2011 47.6117C58.4849 48.126 58.5406 48.2421 59.5511 49.2277L60.005 49.222C60.0482 52.7172 60.1781 56.5448 60.0038 60.0096L60.1096 64.5856C57.5561 65.131 56.893 65.2103 54.2849 65.2065L49.9253 65.1596L49.9126 64.9103C51.0619 64.9053 52.2671 64.7645 53.4164 64.6573C54.8707 62.7914 54.3553 62.2668 54.4174 59.3297L55.0977 59.5904Z" fill="#D19263"/>
<path d="M59.5511 49.2277L60.005 49.222C60.0482 52.7172 60.1781 56.5448 60.0038 60.0096L60.1096 64.5856C57.5561 65.131 56.893 65.2103 54.2849 65.2065L49.9253 65.1596L49.9126 64.9103C51.0619 64.9053 52.2671 64.7645 53.4164 64.6573C54.8707 62.7914 54.3553 62.2668 54.4174 59.3297L55.0977 59.5904C57.1643 60.2753 57.591 60.2398 59.1156 59.0995C60.1458 56.5727 59.6621 52.116 59.5511 49.2277Z" fill="#925C41"/>
<path d="M60.0482 43.9959C60.1749 40.7848 59.1758 36.4188 60.5458 33.8007C62.4534 32.5595 62.3031 32.992 65.0253 33.1125L65.0082 38.038L64.9796 43.2932L60.0482 43.9959Z" fill="#F6D9A5"/>
<path d="M59.5099 37.8832C59.3787 40.663 59.8212 41.4888 58.4722 43.4042C56.6191 43.6167 56.06 43.6541 54.2057 43.4917L54.1702 43.0877L54.3597 38.6215C55.4951 38.1185 58.152 38.0056 59.5099 37.8832Z" fill="#7D442C"/>
<path d="M54.4231 32.8899C56.9868 32.9521 57.6423 32.498 59.321 33.8229C59.5061 35.449 59.5518 36.2482 59.5099 37.8832C58.152 38.0056 55.4951 38.1185 54.3597 38.6215L53.7911 38.6253L53.8963 38.2517C54.3154 36.9097 54.3433 34.3873 54.4231 32.8899Z" fill="#693922"/>
<path d="M59.6399 27.2154L65.1255 27.159L65.1121 32.5132L61.2 32.3419C59.567 30.847 59.9886 29.9496 59.6399 27.2154Z" fill="#7D442C"/>
<path d="M60.0482 43.9959L64.9796 43.2932L65.1705 45.7832L65.23 48.6042C63.8854 48.5827 61.2907 48.4603 60.0608 48.5814C59.9385 47.2565 60.0272 45.3703 60.0482 43.9959Z" fill="#B3754D"/>
<path d="M98.0895 76.0658C103.465 75.913 108.183 75.8724 113.556 76.0208L113.893 76.1489L119.186 76.5047C119.244 78.3439 119.343 79.9866 119.168 81.8265C119.116 83.5586 119.213 85.4708 118.606 87.0443L114.328 86.8154L114.038 86.5128L113.104 86.8103L107.67 86.7126L102.825 86.8192L97.867 86.8515L97.5659 86.6479L92.3105 86.8407L92.5349 81.9407L92.6864 81.2963C94.0836 81.3147 95.1531 81.1961 96.5452 81.0623C97.8917 79.346 97.4264 78.8114 97.4746 76.1939L98.0895 76.0658Z" fill="#52656C"/>
<path d="M98.0895 76.0658C103.465 75.913 108.183 75.8724 113.556 76.0208L113.893 76.1489C113.877 77.5702 113.748 79.1107 113.658 80.539C112.253 81.536 100.98 80.9386 98.6969 80.8416C97.8829 79.7799 98.1415 77.7015 98.0895 76.0658Z" fill="#2D323C"/>
<path d="M97.8233 81.4599L102.669 81.6565L108.377 81.6007C108.284 82.8654 108.241 85.774 107.67 86.7126L102.825 86.8192L97.867 86.8515L97.5659 86.6479C97.4131 84.7028 97.6211 83.3785 97.8233 81.4599Z" fill="#B0BAC3"/>
<path d="M97.8233 81.4599L102.669 81.6565C102.66 82.0466 102.643 82.4373 102.62 82.8267C102.443 85.3104 102.397 85.0402 100.869 86.4012L99.5185 86.2129C97.6838 84.3609 98.2347 84.6197 97.8233 81.4599Z" fill="#C2C6D9"/>
<path d="M119.168 81.8265C119.116 83.5586 119.213 85.4708 118.606 87.0443L114.328 86.8154L114.038 86.5128C113.867 84.6317 113.802 84.2537 114.246 82.4303C116.033 81.387 116.816 81.7942 119.168 81.8265Z" fill="#2D323C"/>
<path d="M108.377 81.6007C110.923 81.7485 111.493 81.3325 113.212 82.6719C113.457 84.5436 113.387 84.9349 113.104 86.8103L107.67 86.7126C108.241 85.774 108.284 82.8654 108.377 81.6007Z" fill="#767F8C"/>
<path d="M86.7273 27.159L92.5964 27.2567C94.3568 27.1939 96.0121 26.8983 97.4524 27.7482C98.1371 31.3075 97.6572 44.7608 97.6122 49.2423C95.8314 49.2372 94.5007 48.7913 92.7796 48.3531L92.4087 45.0957C90.8232 44.8261 88.5315 44.6283 86.8788 44.438L86.1535 43.6293L86.1314 43.2735C87.2547 40.4506 86.7957 30.5198 86.7273 27.159Z" fill="#572E1C"/>
<path d="M86.7273 27.159L92.5964 27.2567L92.2781 28.2974L92.3529 28.9317C92.2857 34.3626 92.1932 39.6616 92.4087 45.0957C90.8232 44.8261 88.5315 44.6283 86.8788 44.438L86.1535 43.6293L86.1314 43.2735C87.2547 40.4506 86.7957 30.5198 86.7273 27.159Z" fill="#925C41"/>
<path d="M92.3529 28.9317C91.6442 31.6062 91.8528 31.343 90.1043 32.4428C88.146 31.9741 88.8434 32.4161 87.5432 30.6498C87.3371 28.5505 87.0873 29.2298 88.1834 27.8712C90.0251 27.4507 90.3883 27.7184 92.2781 28.2974L92.3529 28.9317Z" fill="#B3754D"/>
<path d="M75.8386 27.1507L86.7273 27.159C86.7957 30.5198 87.2547 40.4506 86.1314 43.2735L86.1535 43.6293L81.2664 43.6325L75.9533 43.3021C75.9013 41.2586 76.0719 39.9787 76.3058 37.9853L75.94 37.6536C73.6736 38.0005 72.9351 38.1134 70.604 38.0335L70.3264 37.7969C70.192 35.3374 70.1394 34.8046 70.6516 32.3451L75.8582 32.1402L75.8386 27.1507Z" fill="#4B2716"/>
<path d="M75.8582 32.1402C77.9331 32.047 79.4292 31.872 81.4794 32.2982C81.2043 35.2283 81.6734 36.1587 80.0714 37.8547C78.6913 37.953 77.6859 38.0335 76.3058 37.9853L75.94 37.6536C73.6736 38.0005 72.9351 38.1134 70.604 38.0335L70.3264 37.7969C70.192 35.3374 70.1394 34.8046 70.6516 32.3451L75.8582 32.1402Z" fill="#572E1C"/>
<path d="M75.94 37.6536C75.8728 36.238 75.9356 35.1858 76.011 33.7689C77.7125 32.177 78.6 32.6172 81.4794 32.2982C81.2043 35.2283 81.6734 36.1587 80.0714 37.8547C78.6913 37.953 77.6859 38.0335 76.3058 37.9853L75.94 37.6536Z" fill="#E6AD7F"/>
<path d="M81.4794 32.2982C81.5859 35.326 80.9843 40.3313 82.0563 42.4078C83.9962 43.5716 83.6228 43.2152 86.1314 43.2735L86.1535 43.6293L81.2664 43.6325L75.9533 43.3021C75.9013 41.2586 76.0719 39.9787 76.3058 37.9853C77.6859 38.0335 78.6913 37.953 80.0714 37.8547C81.6734 36.1587 81.2043 35.2283 81.4794 32.2982Z" fill="#48515C"/>
<path d="M118.886 64.9154L119.178 59.6601C119.53 62.7647 118.992 62.5491 120.761 64.3693C123.986 65.5674 126.506 64.8951 129.828 65.3416L129.765 70.2359C126.988 70.3501 126.811 69.8922 124.965 71.2723C124.681 73.2574 124.661 74.1936 124.652 76.1578L124.647 81.9832C122.386 82.3631 121.383 82.1297 119.168 81.8265C119.343 79.9866 119.244 78.3439 119.186 76.5047C118.928 73.2352 118.963 68.3111 118.886 64.9154Z" fill="#9E9B9E"/>
<path d="M119.602 65.2959C122.08 65.3454 122.283 64.937 124.063 66.1636C125.063 68.3941 124.139 72.9004 124.024 75.9624C121.962 76.2066 121.998 76.5313 120.29 75.7151C119.004 73.4204 119.529 68.2299 119.602 65.2959Z" fill="#BACACE"/>
<path d="M86.8775 21.6215C88.5904 21.6044 90.7161 21.4991 92.3739 21.7471C92.4214 23.4151 92.4125 25.6508 92.5964 27.2567L86.7273 27.159L75.8386 27.1507C74.1015 27.0886 73.2514 27.0049 71.5397 26.7043C70.4392 24.8035 70.8944 24.8599 71.2247 22.1638L71.2126 21.6386C75.876 21.6754 82.3587 21.9088 86.8775 21.6215Z" fill="#D19263"/>
<path d="M92.3739 21.7471C92.4214 23.4151 92.4125 25.6508 92.5964 27.2567L86.7273 27.159L86.8452 23.2788C88.4377 21.5955 89.3937 22.0737 92.3739 21.7471Z" fill="#693922"/>
<path d="M71.2247 22.1638C73.6635 22.2456 74.5212 21.8232 76.1283 23.0841C76.0731 24.539 76.0021 25.7041 75.8386 27.1507C74.1015 27.0886 73.2514 27.0049 71.5397 26.7043C70.4392 24.8035 70.8944 24.8599 71.2247 22.1638Z" fill="#E6AD7F"/>
<path d="M65.0094 21.7325L69.0097 21.2733C70.5952 19.807 70.166 19.174 70.5001 16.5198C70.6725 17.8929 70.9052 20.3918 71.2126 21.6386L71.2247 22.1638C70.8944 24.8599 70.4392 24.8035 71.5397 26.7043C73.2514 27.0049 74.1015 27.0886 75.8386 27.1507L75.8582 32.1402L70.6516 32.3451L70.3257 32.2119L69.4781 32.6032L65.1121 32.5132L65.1255 27.159L65.0094 21.7325Z" fill="#D19263"/>
<path d="M65.1255 27.159L70.218 27.0892L70.3257 32.2119L69.4781 32.6032L65.1121 32.5132L65.1255 27.159Z" fill="#F6D9A5"/>
<path d="M65.0094 21.7325C67.4501 22.0186 68.3884 21.697 70.0411 23.0428C70.2161 24.6652 70.2871 25.4624 70.218 27.0892L65.1255 27.159L65.0094 21.7325Z" fill="#693922"/>
<path d="M70.5001 16.5198C74.8788 16.5401 83.7433 15.4708 86.4318 17.7775C86.8452 19.4556 86.8617 19.8882 86.8775 21.6215C82.3587 21.9088 75.876 21.6754 71.2126 21.6386C70.9052 20.3918 70.6725 17.8929 70.5001 16.5198Z" fill="#693922"/>
<path d="M113.556 76.0208C114.505 71.7143 113.158 69.5161 114.268 66.3437C116.006 64.7238 115.975 65.2185 118.886 64.9154C118.963 68.3111 118.928 73.2352 119.186 76.5047L113.893 76.1489L113.556 76.0208Z" fill="#343C46"/>
<path d="M27.1183 32.6933C27.202 29.1004 27.7472 26.7302 32.9766 26.9738C37.4257 27.1812 37.8517 28.9221 38.026 32.7948L27.1183 32.6933Z" fill="#343C46"/>
<path d="M119.178 59.6601C122.304 59.5764 126.783 58.9137 129.115 60.2963C130.249 61.8026 130.068 63.2328 130.152 65.1843L129.828 65.3416C126.506 64.8951 123.986 65.5674 120.761 64.3693C118.992 62.5491 119.53 62.7647 119.178 59.6601Z" fill="#343C46"/>
<path d="M130.152 65.1843C132.966 65.1317 133.328 64.6395 135.256 65.9264C135.706 67.7815 135.712 68.4316 135.761 70.3495L129.765 70.2359L129.828 65.3416L130.152 65.1843Z" fill="#343C46"/>
<path d="M97.5659 86.6479L97.867 86.8515L102.825 86.8192L107.67 86.7126L113.104 86.8103L114.038 86.5128L114.328 86.8154L118.606 87.0443L118.971 87.2695C119.146 90.18 118.65 90.4273 120.178 92.1981L123.861 92.5882L124.634 92.7911L129.428 92.3852L129.663 92.0281L130.386 92.0763L135.498 92.1556C135.477 93.653 135.51 96.7582 135.311 98.0869L135.827 99.1651C137.584 98.5467 137.851 98.3019 139.55 98.77C141.197 100.889 140.337 105.439 140.538 108.385L140.989 108.356L146.229 108.252L146.353 114.179C146.346 115.643 146.41 117.926 146.186 119.301L146.322 119.911C146.199 122.614 146.634 122.741 145.306 124.594C143.546 124.791 142.994 124.844 141.237 124.68L141.173 130.462L141.63 132.146L142.411 130.808C145.07 130.659 144.263 130.334 145.954 131.598C146.526 133.762 146.394 135.528 146.37 137.757L146.291 140.171C143.888 142.114 144.395 139.805 141.167 141.71C141.024 143.116 140.878 144.321 140.648 145.716C139.027 146.753 26.5782 146.755 17.3327 146.148C15.1062 143.824 17.2972 143.674 14.8286 141.302C13.6247 141.283 12.3257 141.233 11.1301 141.266L11.2461 130.099L11.2766 124.765L16.4959 124.712C23.4344 124.737 32.2159 124.539 39.0315 124.839C40.326 124.708 41.3327 124.505 42.6108 124.256C43.8996 122.42 43.4374 122.028 43.4685 119.314L48.677 119.213L48.7708 114.675L49.3376 113.956C49.1582 112.525 49.2292 109.983 49.2203 108.449L53.8576 108.303C54.0903 107.023 54.2038 104.485 54.3116 103.088L59.4541 103.362L60.6802 103.301C69.7958 102.345 60.2231 98.2778 70.431 97.3106L71.0193 97.6759C72.6599 97.7146 73.3414 97.6601 74.9688 97.4375C76.269 95.8513 75.81 95.0502 75.855 92.5476C77.8729 93.4006 78.886 92.9148 80.9659 92.3535L80.9862 86.7672L86.7095 86.8223L92.3105 86.8407L97.5659 86.6479Z" fill="#A3633B"/>
<path d="M130.591 118.964L135.401 119.183L135.479 124.064L129.994 124.217C130.446 121.956 130.307 121.398 129.996 119.207L130.591 118.964Z" fill="#8A8FA3"/>
<path d="M97.5659 86.6479L97.867 86.8515L102.825 86.8192L107.67 86.7126L113.104 86.8103L114.038 86.5128L114.328 86.8154L118.606 87.0443L118.971 87.2695C119.146 90.18 118.65 90.4273 120.178 92.1981L123.861 92.5882L124.634 92.7911L129.428 92.3852L129.663 92.0281L130.386 92.0763L135.498 92.1556C135.477 93.653 135.51 96.7582 135.311 98.0869L135.827 99.1651C137.584 98.5467 137.851 98.3019 139.55 98.77C141.197 100.889 140.337 105.439 140.538 108.385L140.989 108.356L146.229 108.252L146.353 114.179C146.346 115.643 146.41 117.926 146.186 119.301L146.322 119.911C146.199 122.614 146.634 122.741 145.306 124.594C143.546 124.791 142.994 124.844 141.237 124.68C140.011 124.264 136.913 124.162 135.479 124.064L135.401 119.183L130.591 118.964L129.996 119.207L124.585 119.165C124.594 120.792 124.665 122.758 124.558 124.35L124.622 124.761L124.023 125.009L113.946 124.858L108.368 124.761C108.321 122.561 108.344 122.032 107.639 119.843L107.577 119.208L103.026 119.145L102.609 119.277L99.2028 119.106C97.4784 117.763 97.9488 117.327 97.526 114.565L97.5222 114.154L98.3729 113.872C94.1438 112.985 90.8689 114.382 87.7479 113.166C86.1263 111.352 86.6639 111.509 86.6201 108.383L81.1067 108.389L75.9869 108.402L75.8677 108.782C73.7954 108.122 73.2476 109.056 71.2634 107.302C69.8401 104.609 70.7568 101.09 71.0193 97.6759C72.6599 97.7146 73.3414 97.6601 74.9688 97.4375C76.269 95.8513 75.81 95.0502 75.855 92.5476C77.8729 93.4006 78.886 92.9148 80.9659 92.3535L80.9862 86.7672L86.7095 86.8223L92.3105 86.8407L97.5659 86.6479Z" fill="#F0C07C"/>
<path d="M97.5659 86.6479L97.867 86.8515L97.6553 92.0757C95.7503 92.4207 94.3968 92.6953 92.4334 92.7676L92.417 97.7197L97.6413 97.7324L97.6616 102.898C93.7755 103.304 90.5487 103.25 86.6601 103.234L86.6201 108.383L81.1067 108.389L75.9869 108.402L75.8677 108.782C73.7954 108.122 73.2476 109.056 71.2634 107.302C69.8401 104.609 70.7568 101.09 71.0193 97.6759C72.6599 97.7146 73.3414 97.6601 74.9688 97.4375C76.269 95.8513 75.81 95.0502 75.855 92.5476C77.8729 93.4006 78.886 92.9148 80.9659 92.3535L80.9862 86.7672L86.7095 86.8223L92.3105 86.8407L97.5659 86.6479Z" fill="#52656C"/>
<path d="M97.5659 86.6479L97.867 86.8515L97.6553 92.0757C95.7503 92.4207 94.3968 92.6953 92.4334 92.7676L92.417 97.7197L87.0163 97.6823L86.5396 97.5795C84.4546 97.7273 82.1939 98.2467 80.9374 96.4836L80.9659 92.3535L80.9862 86.7672L86.7095 86.8223L92.3105 86.8407L97.5659 86.6479Z" fill="#768184"/>
<path d="M97.5659 86.6479L97.867 86.8515L97.6553 92.0757C94.5337 91.8721 89.9097 91.9323 86.6087 91.8416L86.7095 86.8223L92.3105 86.8407L97.5659 86.6479Z" fill="#B0BAC3"/>
<path d="M80.9862 86.7672L86.7095 86.8223L86.6087 91.8416C84.0114 92.0915 83.3699 91.6812 81.7261 93.138L80.9374 96.4836L80.9659 92.3535L80.9862 86.7672Z" fill="#767F8C"/>
<path d="M86.5396 97.5795C86.6208 95.7149 86.6746 95.1549 87.1228 93.3473C89.1369 92.2146 89.7297 92.6833 92.4334 92.7676L92.417 97.7197L87.0163 97.6823L86.5396 97.5795Z" fill="#767F8C"/>
<path d="M92.417 97.7197L97.6413 97.7324L97.6616 102.898C94.0431 102.338 89.7785 103.447 87.1571 102.001C86.3095 99.8837 86.6322 100.221 87.0163 97.6823L92.417 97.7197Z" fill="#2C2C2E"/>
<path d="M81.3292 103.354L86.6601 103.234L86.6201 108.383L81.1067 108.389L81.3292 103.354Z" fill="#2C2C2E"/>
<path d="M75.9869 108.402C75.8766 106.566 75.8493 106.048 76.1448 104.24C78.0276 102.958 78.6121 103.412 81.3292 103.354L81.1067 108.389L75.9869 108.402Z" fill="#48515C"/>
<path d="M114.038 86.5128L114.328 86.8154C113.895 89.1709 113.793 89.7867 113.845 92.2368C110.629 92.4797 106.103 91.9406 103.993 93.1209C102.449 95.3623 103.217 95.7504 102.677 97.759L100.776 97.3316L97.6413 97.7324L92.417 97.7197L92.4334 92.7676C94.3968 92.6953 95.7503 92.4207 97.6553 92.0757L97.867 86.8515L102.825 86.8192L107.67 86.7126L113.104 86.8103L114.038 86.5128Z" fill="#343C46"/>
<path d="M97.6553 92.0757L100.912 91.7059L102.384 92.4061C102.804 94.7147 102.753 95.4466 102.677 97.759L100.776 97.3316L97.6413 97.7324L92.417 97.7197L92.4334 92.7676C94.3968 92.6953 95.7503 92.4207 97.6553 92.0757Z" fill="#474957"/>
<path d="M100.912 91.7059L102.384 92.4061C102.804 94.7147 102.753 95.4466 102.677 97.759L100.776 97.3316L98.6918 97.0531C97.1443 95.7035 97.5139 96.403 97.2445 94.4566C98.8186 92.1366 98.1314 92.852 100.912 91.7059Z" fill="#343C46"/>
<path d="M97.867 86.8515L102.825 86.8192C102.941 89.781 102.431 89.7893 103.975 91.5613C106.804 92.7854 110.175 91.6799 113.845 92.2368C110.629 92.4797 106.103 91.9406 103.993 93.1209C102.449 95.3623 103.217 95.7504 102.677 97.759C102.753 95.4466 102.804 94.7147 102.384 92.4061L100.912 91.7059L97.6553 92.0757L97.867 86.8515Z" fill="#768184"/>
<path d="M113.854 113.832C113.869 115.413 113.964 117.611 113.827 119.129L124.585 119.165C124.594 120.792 124.665 122.758 124.558 124.35L124.622 124.761L124.023 125.009L113.946 124.858L108.368 124.761C108.321 122.561 108.344 122.032 107.639 119.843L107.577 119.208C109.605 119.24 110.303 119.241 112.32 118.936C113.885 117.007 113.458 116.707 113.854 113.832Z" fill="#693922"/>
<path d="M113.854 113.832C113.869 115.413 113.964 117.611 113.827 119.129C113.37 120.843 112.996 121.566 113.513 123.258C115.871 125.346 121.094 124.235 124.558 124.35L124.622 124.761L124.023 125.009L113.946 124.858L108.368 124.761C108.321 122.561 108.344 122.032 107.639 119.843L107.577 119.208C109.605 119.24 110.303 119.241 112.32 118.936C113.885 117.007 113.458 116.707 113.854 113.832Z" fill="#A3633B"/>
<path d="M86.6201 108.383L103.06 108.337C102.814 110.825 103.132 111.955 101.825 113.716C100.276 113.968 99.9337 114.004 98.3729 113.872C94.1438 112.985 90.8689 114.382 87.7479 113.166C86.1263 111.352 86.6639 111.509 86.6201 108.383Z" fill="#693922"/>
<path d="M130.386 92.0763L135.498 92.1556C135.477 93.653 135.51 96.7582 135.311 98.0869L135.827 99.1651C135.368 101.753 135.803 101.535 134.263 103.236C132.884 103.467 131.948 103.7 130.56 103.621L126.279 103.364C131.177 102.45 131.263 95.1714 129.428 92.3852L129.663 92.0281L130.386 92.0763Z" fill="#D0B37D"/>
<path d="M130.56 103.621C130.342 101.583 130.086 100.601 130.648 98.6152C132.535 97.4279 132.582 97.896 135.311 98.0869L135.827 99.1651C135.368 101.753 135.803 101.535 134.263 103.236C132.884 103.467 131.948 103.7 130.56 103.621Z" fill="#CDD9CD"/>
<path d="M135.401 119.183L146.186 119.301L146.322 119.911C146.199 122.614 146.634 122.741 145.306 124.594C143.546 124.791 142.994 124.844 141.237 124.68C140.011 124.264 136.913 124.162 135.479 124.064L135.401 119.183Z" fill="#693922"/>
<path d="M113.854 113.832C113.458 116.707 113.885 117.007 112.32 118.936C110.303 119.241 109.605 119.24 107.577 119.208L103.026 119.145C102.944 117.183 102.698 116.334 103.769 114.727C105.731 113.646 110.761 114.097 113.854 113.832Z" fill="#4B2716"/>
<path d="M146.229 108.252L146.353 114.179C144.606 114.532 144.528 115.691 141.873 115.266C140.394 113.336 140.736 111.157 140.538 108.385L140.989 108.356L146.229 108.252Z" fill="#BACACE"/>
<path d="M103.06 108.337C103.256 111.278 102.769 111.311 104.302 113.194C107.293 114.441 109.949 113.068 113.854 113.832C110.761 114.097 105.731 113.646 103.769 114.727C102.698 116.334 102.944 117.183 103.026 119.145L102.609 119.277L99.2028 119.106C97.4784 117.763 97.9488 117.327 97.526 114.565L97.5222 114.154L98.3729 113.872C99.9337 114.004 100.276 113.968 101.825 113.716C103.132 111.955 102.814 110.825 103.06 108.337Z" fill="#A3633B"/>
<path d="M124.585 119.165C124.282 115.873 123.809 116.347 125.211 113.962C127.363 112.963 126.419 113.073 128.768 113.573C130.977 115.489 130.763 115.856 130.591 118.964L129.996 119.207L124.585 119.165Z" fill="#CDD9CD"/>
<path d="M126.279 103.364L130.56 103.621C130.59 106.634 130.813 107.234 128.449 108.833C126.359 108.57 127.071 108.698 125.039 107.181C124.293 105.134 124.378 106.025 124.883 103.742L126.279 103.364Z" fill="#CDD9CD"/>
<path d="M70.431 97.3106L71.0193 97.6759C70.7568 101.09 69.8401 104.609 71.2634 107.302C73.2476 109.056 73.7954 108.122 75.8677 108.782L75.9869 108.402L81.1067 108.389L86.6201 108.383C86.6639 111.509 86.1263 111.352 87.7479 113.166C90.8689 114.382 94.1438 112.985 98.3729 113.872L97.5222 114.154L97.526 114.565C97.4607 115.886 97.2946 117.871 97.4321 119.128C97.6344 121.136 97.7047 122.081 98.2861 124.073L99.1305 124.749C97.8924 126.277 98.1206 127.721 98.0661 129.771C93.9486 130.035 84.4508 129.072 81.4776 130.589C80.9114 131.947 80.945 132.219 80.81 133.726L80.772 134.178L79.6923 135.054C77.8133 135.306 77.6929 135.63 76.1441 134.91C76.127 133.995 76.0845 133.08 76.0148 132.167C75.9184 130.725 76.1378 131.272 74.7976 130.102C68.003 129.49 73.2039 133.077 68.5405 135.552C66.7927 135.401 66.5816 135.357 65.0995 134.426L64.9106 131.177C63.4151 129.526 62.6784 130.747 59.697 129.604C59.4649 128.2 59.2925 126.88 59.1169 125.467L58.0645 124.937C55.8273 125.587 53.7049 128.499 50.7038 130.327L49.6045 130.027C48.7766 127.738 49.3021 123.104 48.942 119.651C48.7563 122.55 49.2222 122.409 47.7394 124.366C46.081 124.68 45.0033 124.836 43.3214 124.975L39.0315 124.839C40.326 124.708 41.3327 124.505 42.6108 124.256C43.8996 122.42 43.4374 122.028 43.4685 119.314L48.677 119.213L48.7708 114.675L49.3376 113.956C49.1582 112.525 49.2292 109.983 49.2203 108.449L53.8576 108.303C54.0903 107.023 54.2038 104.485 54.3116 103.088L59.4541 103.362L60.6802 103.301C69.7958 102.345 60.2231 98.2778 70.431 97.3106Z" fill="#BC7D53"/>
<path d="M70.431 97.3106L71.0193 97.6759C70.7568 101.09 69.8401 104.609 71.2634 107.302C73.2476 109.056 73.7954 108.122 75.8677 108.782L75.8855 113.386L79.7221 113.651L79.5789 113.927C77.3911 113.973 77.5014 113.601 76.0649 114.807C75.9635 116.019 75.8284 117.228 75.6611 118.432C72.3886 120.005 53.9382 119.024 48.677 119.213L48.7708 114.675L49.3376 113.956C49.1582 112.525 49.2292 109.983 49.2203 108.449L53.8576 108.303C54.0903 107.023 54.2038 104.485 54.3116 103.088L59.4541 103.362L60.6802 103.301C69.7958 102.345 60.2231 98.2778 70.431 97.3106Z" fill="#2D323C"/>
<path d="M70.431 97.3106L71.0193 97.6759C70.7568 101.09 69.8401 104.609 71.2634 107.302C73.2476 109.056 73.7954 108.122 75.8677 108.782L75.8855 113.386C73.4156 113.759 67.5624 113.628 64.8237 113.64C64.948 111.682 65.1578 111.003 64.2836 109.244C61.8289 107.574 57.3887 108.3 54.1347 108.445L53.8576 108.303C54.0903 107.023 54.2038 104.485 54.3116 103.088L59.4541 103.362L60.6802 103.301C69.7958 102.345 60.2231 98.2778 70.431 97.3106Z" fill="#768184"/>
<path d="M60.6802 103.301C69.7958 102.345 60.2231 98.2778 70.431 97.3106C70.1692 100.508 70.6985 100.491 68.9951 102.517C66.8016 103.584 63.2439 103.306 60.6802 103.301Z" fill="#9E9B9E"/>
<path d="M54.1347 108.445C57.3887 108.3 61.8289 107.574 64.2836 109.244C65.1578 111.003 64.948 111.682 64.8237 113.64L60.9705 113.547C58.5913 113.34 56.4961 113.829 54.3046 112.796C53.3993 110.679 53.7353 111.042 54.1347 108.445Z" fill="#BACACE"/>
<path d="M53.8576 108.303L54.1347 108.445C53.7353 111.042 53.3993 110.679 54.3046 112.796C56.4961 113.829 58.5913 113.34 60.9705 113.547C56.7554 113.884 53.5629 113.96 49.3376 113.956C49.1582 112.525 49.2292 109.983 49.2203 108.449L53.8576 108.303Z" fill="#9E9B9E"/>
<path d="M86.6201 108.383C86.6639 111.509 86.1263 111.352 87.7479 113.166C90.8689 114.382 94.1438 112.985 98.3729 113.872L97.5222 114.154L97.526 114.565C97.4607 115.886 97.2946 117.871 97.4321 119.128C94.0234 119.237 90.0739 119.152 86.622 119.152L86.6556 113.975C84.854 113.806 81.5105 113.917 79.5789 113.927L79.7221 113.651L75.8855 113.386L75.8677 108.782L75.9869 108.402L81.1067 108.389L86.6201 108.383Z" fill="#844D33"/>
<path d="M86.6556 113.975L97.5222 114.154L97.526 114.565C97.4607 115.886 97.2946 117.871 97.4321 119.128C94.0234 119.237 90.0739 119.152 86.622 119.152L86.6556 113.975Z" fill="#D19263"/>
<path d="M75.9869 108.402L81.1067 108.389C80.997 110.619 81.4503 112.098 79.7221 113.651L75.8855 113.386L75.8677 108.782L75.9869 108.402Z" fill="#2C2C2E"/>
<path d="M79.5789 113.927C81.5105 113.917 84.854 113.806 86.6556 113.975L86.622 119.152L81.0972 119.176C69.972 119.852 59.7692 119.28 48.942 119.651C48.7563 122.55 49.2222 122.409 47.7394 124.366C46.081 124.68 45.0033 124.836 43.3214 124.975L39.0315 124.839C40.326 124.708 41.3327 124.505 42.6108 124.256C43.8996 122.42 43.4374 122.028 43.4685 119.314L48.677 119.213C53.9382 119.024 72.3886 120.005 75.6611 118.432C75.8284 117.228 75.9635 116.019 76.0649 114.807C77.5014 113.601 77.3911 113.973 79.5789 113.927Z" fill="#925C41"/>
<path d="M81.0972 119.176L86.622 119.152C86.5029 121.949 86.9143 121.732 85.6147 123.835C83.3933 124.927 84.3202 124.872 82.147 124.165C80.5964 122.027 81.1003 122.355 81.0972 119.176Z" fill="#D19263"/>
<path d="M11.2766 124.765L16.4959 124.712C23.4344 124.737 32.2159 124.539 39.0315 124.839L43.3214 124.975C42.2272 131.301 37.356 129.791 31.703 129.596C21.4229 129.242 32.6127 136.064 21.1319 135.825C17.0373 135.556 16.3995 134.081 16.2676 130.526L11.2461 130.099L11.2766 124.765Z" fill="#BC7D53"/>
<path d="M11.2766 124.765L16.4959 124.712L16.2676 130.526L11.2461 130.099L11.2766 124.765Z" fill="#B3754D"/>
<path d="M97.526 114.565C97.9488 117.327 97.4784 117.763 99.2028 119.106L102.609 119.277L103.026 119.145L107.577 119.208L107.639 119.843C108.344 122.032 108.321 122.561 108.368 124.761L113.946 124.858C113.916 125.985 113.922 128.775 113.792 129.753L108.658 129.878C108.737 131.631 108.936 133.653 108.632 135.348L108.094 131.108C106.491 129.583 105.784 130.095 103.003 129.993L98.0661 129.771C98.1206 127.721 97.8924 126.277 99.1305 124.749L98.2861 124.073C97.7047 122.081 97.6344 121.136 97.4321 119.128C97.2946 117.871 97.4607 115.886 97.526 114.565Z" fill="#AB6735"/>
<path d="M97.526 114.565C97.9488 117.327 97.4784 117.763 99.2028 119.106L102.609 119.277C102.65 120.945 102.836 123.173 102.426 124.725L99.1305 124.749L98.2861 124.073C97.7047 122.081 97.6344 121.136 97.4321 119.128C97.2946 117.871 97.4607 115.886 97.526 114.565Z" fill="#C58453"/>
<path d="M103.026 119.145L107.577 119.208L107.639 119.843C107.765 122.504 108.192 122.455 107.04 124.371C105.135 124.727 104.33 124.713 102.426 124.725C102.836 123.173 102.65 120.945 102.609 119.277L103.026 119.145Z" fill="#B3754D"/>
<path d="M108.368 124.761L113.946 124.858C113.916 125.985 113.922 128.775 113.792 129.753L108.658 129.878C108.417 128.543 108.418 126.2 108.368 124.761Z" fill="#BC7D53"/>
<path d="M124.585 119.165L129.996 119.207C130.307 121.398 130.446 121.956 129.994 124.217L135.479 124.064C136.913 124.162 140.011 124.264 141.237 124.68L141.173 130.462L135.577 130.438L135.377 130.85C133.954 129.836 131.648 130.056 129.757 130.001L124.205 129.861L124.023 125.009L124.622 124.761L124.558 124.35C124.665 122.758 124.594 120.792 124.585 119.165Z" fill="#937055"/>
<path d="M124.585 119.165L129.996 119.207C130.307 121.398 130.446 121.956 129.994 124.217L129.819 124.687L124.622 124.761L124.558 124.35C124.665 122.758 124.594 120.792 124.585 119.165Z" fill="#51504F"/>
<path d="M135.577 130.438C135.48 128.53 135.401 127.714 135.721 125.77C137.65 124.31 138.299 124.802 141.237 124.68L141.173 130.462L135.577 130.438Z" fill="#BACACE"/>
<path d="M124.622 124.761L129.819 124.687L129.757 130.001L124.205 129.861L124.023 125.009L124.622 124.761Z" fill="#B0BAC3"/>
<path d="M113.946 124.858L124.023 125.009L124.205 129.861C121.197 129.296 116.759 128.983 113.792 129.753C113.922 128.775 113.916 125.985 113.946 124.858Z" fill="#B3754D"/>
<path d="M135.577 130.438L141.173 130.462L141.63 132.146C141.39 135.009 141.027 135.077 138.527 136.008C134.987 135.188 135.525 133.814 135.377 130.85L135.577 130.438Z" fill="#9DA7B1"/>
<path d="M103.003 129.993C105.784 130.095 106.491 129.583 108.094 131.108L108.632 135.348C106.738 135.407 105.986 135.387 104.111 135.137C102.702 133.193 103.158 132.843 103.003 129.993Z" fill="#BC7D53"/>
<path d="M43.5122 129.83C45.0122 129.892 46.2249 130.024 47.7172 130.196C49.0923 132.073 48.5984 132.491 48.632 135.342C46.9204 135.403 46.2249 135.344 44.5234 135.123C43.142 133.189 43.6118 132.679 43.5122 129.83Z" fill="#BC7D53"/>
<path d="M157.214 11.066C157.62 13.6676 157.235 14.4858 158.836 15.8697C161.534 16.1798 160.871 15.713 162.276 17.2092C162.421 19.1905 162.142 20.8484 163.227 22.0446L167.076 22.1131C168.498 24.4914 167.854 112.797 167.859 124.209L167.847 156.402C167.837 160.555 168.042 169.261 167.509 172.844C165.4 174.496 164.393 172.464 162.421 174.238C162.201 176.411 162.534 177.306 161.287 178.572C155.433 179.171 146.948 178.902 140.91 178.898L106.811 178.863C97.7231 178.851 24.0608 179.499 21.9491 178.075C21.4514 175.016 21.9104 174.28 20.0403 172.891L17.3086 172.991C16.0584 171.667 16.2049 171.11 16.2619 168.96C16.2708 168.631 16.2822 168.301 16.2974 167.972C46.0176 167.002 78.0453 168.586 107.963 167.942C119.438 167.694 134.563 168.691 145.491 167.723C146.644 166.126 146.329 164.903 146.488 162.639C148.008 162.809 150.212 162.592 151.792 162.498C151.417 155.765 152.517 159.076 156.398 156.181C158.396 151.834 156.476 26.5952 157.214 11.066Z" fill="#9E9B9E"/>
<path d="M146.377 11.2297L151.228 11.2956C152.259 37.8483 151.409 70.0184 151.385 97.0119L151.434 127.272C151.452 132.33 151.714 140.511 151.151 145.291C148.76 147.095 148.589 144.925 146.63 146.964C146.648 148.843 147.023 150.046 146.106 151.296C142.27 151.917 129.71 151.645 125.029 151.638L84.9072 151.617L36.9426 151.658C30.6634 151.663 17.5907 152.033 12.0772 151.287C10.1373 148.286 11.9802 148.563 9.49643 146.566L5.99005 146.297L9.79501 145.862C11.442 144.397 10.9095 144.225 11.1301 141.266C12.3257 141.233 13.6247 141.283 14.8286 141.302C17.2972 143.674 15.1062 143.824 17.3327 146.148C26.5782 146.755 139.027 146.753 140.648 145.716C140.878 144.321 141.024 143.116 141.167 141.71C144.395 139.805 143.888 142.114 146.291 140.171L146.37 137.757C146.394 135.528 146.526 133.762 145.954 131.598C144.263 130.334 145.07 130.659 142.411 130.808L141.63 132.146L141.173 130.462L141.237 124.68C142.994 124.844 143.546 124.791 145.306 124.594C146.634 122.741 146.199 122.614 146.322 119.911L146.186 119.301C146.41 117.926 146.346 115.643 146.353 114.179L146.229 108.252L140.989 108.356L140.538 108.385C140.337 105.439 141.197 100.889 139.55 98.77C137.851 98.3019 137.584 98.5467 135.827 99.1651L135.311 98.0869C135.51 96.7582 135.477 93.653 135.498 92.1556L135.422 86.8369L135.448 81.7904L140.543 81.6591L140.589 86.2294L141.707 86.5763L146.313 86.5801L146.364 16.1126L146.377 11.2297Z" fill="#D19263"/>
<path d="M135.448 81.7904L140.543 81.6591L140.589 86.2294L141.707 86.5763C140.327 88.5487 140.95 89.8451 141.112 92.7733C140.451 94.8187 140.637 95.6109 140.839 97.6893L140.989 108.356L140.538 108.385C140.337 105.439 141.197 100.889 139.55 98.77C137.851 98.3019 137.584 98.5467 135.827 99.1651L135.311 98.0869C135.51 96.7582 135.477 93.653 135.498 92.1556L135.422 86.8369L135.448 81.7904Z" fill="#F6D9A5"/>
<path d="M135.448 81.7904L140.543 81.6591L140.589 86.2294C138.233 86.8331 137.851 86.8845 135.422 86.8369L135.448 81.7904Z" fill="#52656C"/>
<path d="M140.839 97.6893L146.19 97.8732L146.229 108.252L140.989 108.356L140.839 97.6893Z" fill="#CDD9CD"/>
<path d="M146.322 119.911C147.232 123.114 146.723 134.213 146.37 137.757C146.394 135.528 146.526 133.762 145.954 131.598C144.263 130.334 145.07 130.659 142.411 130.808L141.63 132.146L141.173 130.462L141.237 124.68C142.994 124.844 143.546 124.791 145.306 124.594C146.634 122.741 146.199 122.614 146.322 119.911Z" fill="#B3754D"/>
<path d="M141.707 86.5763L146.313 86.5801L146.27 92.3547L141.112 92.7733C140.95 89.8451 140.327 88.5487 141.707 86.5763Z" fill="#CDD9CD"/>
<path d="M146.27 92.3547L146.19 97.8732L140.839 97.6893C140.637 95.6109 140.451 94.8187 141.112 92.7733L146.27 92.3547Z" fill="#F0C07C"/>
<path d="M151.792 162.498C149.888 162.432 148.821 162.478 146.968 161.879C146.453 160.478 146.667 160.058 146.94 158.523C148.541 156.844 148.061 157.343 150.862 157.013C153.974 154.001 149.941 15.2837 152.613 11.6825L157.214 11.066C156.476 26.5952 158.396 151.834 156.398 156.181C152.517 159.076 151.417 155.765 151.792 162.498Z" fill="#572E1C"/>
<path d="M5.24453 157.181C8.25452 157.209 8.48718 156.697 10.4892 158.145L11.8997 161.992C22.0708 162.857 38.3734 162.425 48.9636 162.432L112.68 162.428C118.573 162.407 141.739 161.884 146.488 162.639C146.329 164.903 146.644 166.126 145.491 167.723C134.563 168.691 119.438 167.694 107.963 167.942C78.0453 168.586 46.0176 167.002 16.2974 167.972C8.9132 168.292 12.793 167.054 11.0236 163.63C8.34454 162.011 9.41973 162.415 6.29182 162.296C5.07464 160.849 5.30983 159.187 5.24453 157.181Z" fill="#572E1C"/>
<path d="M5.47783 10.624L5.37386 116.124C5.38083 126.87 5.32758 137.615 5.56975 148.358C5.62744 150.909 5.76627 153.446 5.32188 155.971C3.43524 156.84 2.44502 156.744 0.387854 156.854L0.34157 59.9785C0.330793 46.7662 -0.473686 24.2986 0.42462 11.7903C1.98223 10.4362 3.0086 10.8199 5.47783 10.624Z" fill="#572E1C"/>
<path d="M146.38 5.62749L151.784 5.62686C151.526 7.59361 151.265 9.29969 151.228 11.2956L146.377 11.2297L146.38 5.62749Z" fill="#572E1C"/>
</svg>
