<svg width="204" height="230" viewBox="0 0 204 230" fill="none" xmlns="http://www.w3.org/2000/svg">
<path d="M14.2945 0H195.481L195.949 6.04951L195.757 9.02493L196.006 13.2653L195.844 19.8721L195.992 20.3218L195.965 194.771C190.556 195.908 190.17 194.964 187.636 200.334C182.98 203.618 155.264 202.569 147.914 202.577L80.2201 202.411L42.1736 202.521C38.5512 202.529 25.6241 202.88 22.7527 201.927C21.7154 200.237 20.3246 197.013 18.9594 196.905C14.6941 196.565 11.1521 196.749 6.78824 196.16L6.46393 193.63C7.15934 183.807 6.63778 166.794 6.6334 156.384L6.60639 84.1747C6.6042 62.8814 6.6502 41.8036 7.94605 20.5385C8.08995 18.1702 8.00665 15.653 7.90293 13.2773L7.36316 8.50591C9.09145 6.69788 11.2529 6.09627 13.6678 6.35448C14.1214 4.26034 14.1652 2.14434 14.2945 0Z" fill="#EEBB76"/>
<path d="M14.2945 0H195.481L195.949 6.04951L195.757 9.02493L196.006 13.2653L195.844 19.8721C184.82 19.3565 190.523 13.2408 181.328 13.1515C132.473 12.6772 83.5678 13.0455 34.7075 13.1241C18.112 13.1467 25.34 17.1653 15.1923 21.6093C12.8658 34.0433 13.624 64.2945 13.64 78.022L13.5027 159.514C13.529 165.143 14.0988 189.383 12.7781 192.853C10.3259 193.734 9.05491 193.615 6.46393 193.63C7.15934 183.807 6.63778 166.794 6.6334 156.384L6.60639 84.1747C6.6042 62.8814 6.6502 41.8036 7.94605 20.5385C8.08995 18.1702 8.00665 15.653 7.90293 13.2773L7.36316 8.50591C9.09145 6.69788 11.2529 6.09627 13.6678 6.35448C14.1214 4.26034 14.1652 2.14434 14.2945 0Z" fill="#F9D198"/>
<path d="M14.2945 0H195.481L195.949 6.04951C180.361 5.74145 20.9783 5.00656 17.3567 6.91229L13.6678 6.35448C14.1214 4.26034 14.1652 2.14434 14.2945 0Z" fill="#643926"/>
<path d="M7.36316 8.50591C9.09145 6.69788 11.2529 6.09627 13.6678 6.35448L17.3567 6.91229C10.8606 10.3526 17.5605 13.0532 7.90293 13.2773L7.36316 8.50591Z" fill="#67350F"/>
<path d="M64.5486 29.6659C67.8094 29.2084 73.4537 29.7307 75.3047 28.6761L76.0914 25.8723C79.0425 24.4475 123.443 24.9019 129.431 25.3173C130.431 26.3717 130.371 27.1115 130.62 28.6223C133.855 30.1985 139.154 28.6618 143.342 29.7712L143.432 33.7435C144.739 33.7418 148.745 33.5809 149.655 34.0684C151.336 37.8854 151.171 37.3211 155.403 38.5526C155.616 39.4051 155.834 40.074 155.847 40.9585C160.214 42.482 159.578 43.8111 163.638 47.3156C165.453 59.9458 162.673 130.079 165.156 134.075L166.643 134.343L167.281 132.7C170.544 131.722 181.1 132.118 184.977 132.148C185.102 135.088 185.616 139.408 184.503 141.966C183.316 142.436 183.274 142.529 181.952 142.532L181.927 142.87L184.12 143.68C184.912 145.941 184.665 145.32 184.032 147.955L183.487 148.506C184.082 148.923 184.454 149.59 184.496 150.316C186.498 152.745 185.211 151.524 188.734 152.288C189.554 157.408 189.269 166.124 189.253 171.577C186.004 171.64 178.955 172.019 176.144 171.195L174.788 168.821L173.098 168.68L174.715 167.776C175.616 166.139 175.502 161.178 175.73 158.734L174.743 157.678L173.879 154.489C171.51 153.014 170.578 153.657 167.295 153.874C166.405 154.113 165.462 154.443 164.558 154.418L164.447 157.774L157.794 157.608C156.278 155.791 157.595 151.952 155.797 147.441C155.041 149.237 154.907 155.885 154.474 158.882C154.823 160.773 154.445 160.287 155.669 161.334L157.894 161.678C160.87 166.332 157.371 168.674 155.867 173.382C157.096 174.796 156.502 174.369 158.793 174.667C152.744 176.486 158.744 177.778 151.388 179.225C150.512 182.394 151.196 181.805 148.931 183.33L143.878 183.319C143.013 186.926 143.747 186.363 141.29 188.114C138.65 188.551 135.659 188.08 132.964 187.794L130.655 188.543C130.249 189.89 130.089 190.63 129.86 192.019C126.839 193.58 115.294 192.838 111.256 192.716C103.266 193.017 94.0113 192.805 85.9221 192.792C83.8096 192.898 80.2778 193.098 78.2171 192.825C76.1587 192.553 76.2303 190.552 74.8533 188.396C70.6122 186.951 69.8825 188.26 65.4799 187.76C63.3645 186.089 63.9941 186.704 63.4127 183.457C52.2387 183.561 59.5332 179.746 50.6039 178.435L50.4563 174.969L48.094 174.516C46.5724 171.89 44.3738 171.891 42.3832 169.316C41.541 156.992 41.1393 50.3632 42.8464 47.2377C44.8632 43.5442 49.5163 43.9885 51.4352 37.8071C52.3191 37.988 53.1657 37.7833 54.0715 37.6533L55.2205 34.7536C59.8305 31.356 61.8283 37.6041 64.5486 29.6659Z" fill="#45464F"/>
<path d="M50.6471 120.204L54.1927 120.49C56.8385 121.651 55.9933 120.995 57.4097 123.965C55.9663 123.994 53.7099 123.855 52.5353 124.496L50.227 125.178C50.1145 123.984 49.9326 122.97 49.7281 121.788L47.9078 121.068L50.6471 120.204Z" fill="#42484E"/>
<path d="M64.5486 29.6659C67.8094 29.2084 73.4537 29.7307 75.3047 28.6761L76.0914 25.8723C79.0425 24.4475 123.443 24.9019 129.431 25.3173C130.431 26.3717 130.371 27.1115 130.62 28.6223C133.855 30.1985 139.154 28.6618 143.342 29.7712L143.432 33.7435C144.739 33.7418 148.745 33.5809 149.655 34.0684C151.336 37.8854 151.171 37.3211 155.403 38.5526C155.616 39.4051 155.834 40.074 155.847 40.9585L155.511 41.8188C156.395 49.2832 159.395 46.3335 158.766 57.233L158.694 61.0267L155.894 61.5755C154.418 67.0616 155.234 64.2286 151.2 66.4336L150.561 69.4496C147.68 69.7642 145.1 69.482 143.392 71.1669L143.2 73.671C143.385 75.1535 143.639 76.3029 143.373 77.7716L142.747 78.1915L139.799 78.347C137.916 77.884 132.331 77.9081 130.118 77.8599L129.748 78.2616C126.679 78.9948 126 78.9933 122.827 78.9356L81.5138 78.9386L81.2573 74.4714L74.9205 74.2903L65.2718 74.3187L63.8737 75.2703C63.6092 75.0636 62.2995 74.5393 61.9036 74.3699C61.027 76.235 60.8568 77.4407 59.3616 78.4442L53.4849 78.1082L53.8049 74.3735C53.951 72.6496 54.1855 72.0169 53.4148 70.5623L51.1832 70.0652C49.7266 68.7286 48.7946 68.5855 46.9297 67.9689L46.9698 60.7973L50.6763 61.8249C51.2533 59.8437 51.2738 56.8798 51.3797 54.7352C51.3688 53.4613 51.9962 52.0203 52.4272 50.7837C53.3191 49.9454 53.3703 48.3042 53.5653 48.1499C56.52 45.8175 57.2205 46.4257 56.4791 42.5338L55.1204 41.8062L55.222 40.1621C53.8151 38.2166 54.0642 38.7532 51.4352 37.8071C52.3191 37.988 53.1657 37.7833 54.0715 37.6533L55.2205 34.7536C59.8305 31.356 61.8283 37.6041 64.5486 29.6659Z" fill="#A7B4BD"/>
<path d="M54.0715 37.6533L55.2205 34.7536C59.8305 31.356 61.8283 37.6041 64.5486 29.6659L64.5588 33.9339L64.3529 37.4903L64.534 37.9766C67.2104 38.0529 72.8139 38.4625 75.1053 37.7413C75.3259 36.3447 75.3406 36.0015 75.8921 34.7146C81.8381 32.2888 89.5548 33.0259 89.779 40.9553L86.5247 41.6173C86.1091 44.8333 86.5861 47.5599 85.3319 49.716L83.4502 50.3179L82.7957 52.0702C80.5598 53.0576 78.3859 52.6403 75.9286 52.4424L76.1996 53.1793L76.448 56.5667L76.4538 58.4728C74.9958 59.6194 73.5348 59.5792 71.6429 59.8152L70.4596 60.3025L69.7086 62.3938C66.6925 63.7657 63.5545 62.2835 63.5179 65.3393C64.1447 66.9216 64.5574 67.6948 64.6903 69.4173L63.8656 70.0723C64.1804 71.2198 64.5486 72.8443 65.0862 73.8601L65.2718 74.3187L63.8737 75.2703C63.6092 75.0636 62.2995 74.5393 61.9036 74.3699C61.027 76.235 60.8568 77.4407 59.3616 78.4442L53.4849 78.1082L53.8049 74.3735C53.951 72.6496 54.1855 72.0169 53.4148 70.5623L51.1832 70.0652C49.7266 68.7286 48.7946 68.5855 46.9297 67.9689L46.9698 60.7973L50.6763 61.8249C51.2533 59.8437 51.2738 56.8798 51.3797 54.7352C51.3688 53.4613 51.9962 52.0203 52.4272 50.7837C53.3191 49.9454 53.3703 48.3042 53.5653 48.1499C56.52 45.8175 57.2205 46.4257 56.4791 42.5338L55.1204 41.8062L55.222 40.1621C53.8151 38.2166 54.0642 38.7532 51.4352 37.8071C52.3191 37.988 53.1657 37.7833 54.0715 37.6533Z" fill="#A7B4BD"/>
<path d="M46.9698 60.7973L50.6763 61.8249L50.5265 65.6051L55.9977 65.7011L56.3929 70.0533L63.8656 70.0723C64.1804 71.2198 64.5486 72.8443 65.0862 73.8601L65.2718 74.3187L63.8737 75.2703C63.6092 75.0636 62.2995 74.5393 61.9036 74.3699C61.027 76.235 60.8568 77.4407 59.3616 78.4442L53.4849 78.1082L53.8049 74.3735C53.951 72.6496 54.1855 72.0169 53.4148 70.5623L51.1832 70.0652C49.7266 68.7286 48.7946 68.5855 46.9297 67.9689L46.9698 60.7973Z" fill="#42484E"/>
<path d="M53.8049 74.3735L61.9036 74.3699C61.027 76.235 60.8568 77.4407 59.3616 78.4442L53.4849 78.1082L53.8049 74.3735Z" fill="#BFCBD3"/>
<path d="M61.1468 59.3189C63.4229 59.3674 66.6881 59.7271 68.507 58.5551L68.8101 56.7505C70.117 59.3087 69.4157 58.8901 71.6429 59.8152L70.4596 60.3025L69.7086 62.3938C66.6925 63.7657 63.5545 62.2835 63.5179 65.3393C64.1447 66.9216 64.5574 67.6948 64.6903 69.4173L63.8656 70.0723L56.3929 70.0533L55.9977 65.7011L56.2797 64.3848L57.1818 62.6001L60.2169 61.8539L60.7991 60.0308L61.1468 59.3189Z" fill="#99A1AD"/>
<path d="M63.5179 65.3393C64.1447 66.9216 64.5574 67.6948 64.6903 69.4173L63.8656 70.0723L56.3929 70.0533C56.65 68.2301 56.65 67.8285 57.5953 66.2652C59.5843 65.4954 61.3945 65.4909 63.5179 65.3393Z" fill="#F9F9EC"/>
<path d="M61.1468 59.3189C60.9086 57.72 60.8364 58.4933 61.4646 56.929C69.3806 55.2341 67.6158 51.6323 75.9286 52.4424L76.1996 53.1793L76.448 56.5667L76.4538 58.4728C74.9958 59.6194 73.5348 59.5792 71.6429 59.8152C69.4157 58.8901 70.117 59.3087 68.8101 56.7505L68.507 58.5551C66.6881 59.7271 63.4229 59.3674 61.1468 59.3189Z" fill="#D7E1EA"/>
<path d="M68.8101 56.7505C72.1572 56.2591 73.1484 56.0377 76.448 56.5667L76.4538 58.4728C74.9958 59.6194 73.5348 59.5792 71.6429 59.8152C69.4157 58.8901 70.117 59.3087 68.8101 56.7505Z" fill="#8F94A0"/>
<path d="M54.0715 37.6533L55.2205 34.7536C59.8305 31.356 61.8283 37.6041 64.5486 29.6659L64.5588 33.9339L64.3529 37.4903C61.7451 38.5829 56.8217 38.0404 54.0715 37.6533Z" fill="#211D21"/>
<path d="M54.0715 37.6533C56.8217 38.0404 61.7451 38.5829 64.3529 37.4903L64.534 37.9766C63.4069 41.169 64.122 40.6845 61.7188 42.2374L56.4791 42.5338L55.1204 41.8062L55.222 40.1621C53.8151 38.2166 54.0642 38.7532 51.4352 37.8071C52.3191 37.988 53.1657 37.7833 54.0715 37.6533Z" fill="#6F7380"/>
<path d="M75.9286 52.4424C76.0382 51.3334 76.2106 50.9376 76.5159 49.8833L78.9001 48.7917C81.9447 49.1096 81.3538 48.6089 83.4502 50.3179L82.7957 52.0702C80.5598 53.0576 78.3859 52.6403 75.9286 52.4424Z" fill="#D7E1EA"/>
<path d="M54.5229 61.163L55.7179 59.8664C58.2768 59.0361 57.8158 59.3839 60.7991 60.0308L60.2169 61.8539L57.1818 62.6001L56.2797 64.3848L54.5229 61.163Z" fill="#D7E1EA"/>
<path d="M50.5265 65.6051C51.6025 61.9975 51.341 62.4451 54.5229 61.163L56.2797 64.3848L55.9977 65.7011L50.5265 65.6051Z" fill="#BFCBD3"/>
<path d="M64.5486 29.6659C67.8094 29.2084 73.4537 29.7307 75.3047 28.6761L76.0914 25.8723C79.0425 24.4475 123.443 24.9019 129.431 25.3173C130.431 26.3717 130.371 27.1115 130.62 28.6223C133.855 30.1985 139.154 28.6618 143.342 29.7712L143.432 33.7435L137.111 34.1664L129.721 33.8127L129.463 31.0224C127.294 28.9577 82.757 30.0932 76.6233 30.2038C72.5151 30.2604 68.572 30.4985 64.5486 29.6659Z" fill="#2B2B2B"/>
<path d="M143.342 29.7712L143.432 33.7435L137.111 34.1664L129.721 33.8127C130.029 32.4189 130.19 31.9206 130.737 30.6018C134.002 29.4043 138.663 30.2624 143.342 29.7712Z" fill="#272121"/>
<path d="M76.6233 30.2038C82.757 30.0932 127.294 28.9577 129.463 31.0224L129.721 33.8127L137.111 34.1664L137.222 37.9415C135.069 38.0191 132.569 38.4076 130.857 37.2379C127.146 31.3024 124.852 36.3671 120.222 33.835C120.036 32.5858 120.088 31.9144 119.201 31.033C115.482 30.4381 94.0252 29.7708 92.2801 32.1066C96.3846 35.1762 106.315 32.6775 111.215 34.2822C107.965 34.2746 96.1253 33.871 93.714 34.9705L93.416 36.2568L92.8513 37.5827L90.4926 38.4617L89.779 40.9553C89.5548 33.0259 81.8381 32.2888 75.8921 34.7146C75.3406 36.0015 75.3259 36.3447 75.1053 37.7413C72.8139 38.4625 67.2104 38.0529 64.534 37.9766L64.3529 37.4903L64.5588 33.9339L64.5486 29.6659C68.572 30.4985 72.5151 30.2604 76.6233 30.2038Z" fill="#6F7380"/>
<path d="M64.5486 29.6659C68.572 30.4985 72.5151 30.2604 76.6233 30.2038C74.0593 35.7602 70.5355 34.0804 64.5588 33.9339L64.5486 29.6659Z" fill="#272121"/>
<path d="M111.215 34.2822C112.296 36.1746 112.776 36.4375 114.757 37.3178C115.146 38.9459 115.126 39.1731 114.875 40.8318C114.797 42.4251 114.819 44.7289 114.304 46.1589L113.023 45.721C109.744 44.4633 103.185 45.6848 98.129 44.9689C97.98 43.9905 97.8164 43.1626 97.614 42.2029L95.8923 41.7456L92.2918 41.6016C92.8229 40.3047 92.7732 39.0002 92.8513 37.5827L93.416 36.2568L93.714 34.9705C96.1253 33.871 107.965 34.2746 111.215 34.2822Z" fill="#A7B4BD"/>
<path d="M111.215 34.2822L110.865 36.5452C108.022 37.8399 95.7272 37.9246 93.416 36.2568L93.714 34.9705C96.1253 33.871 107.965 34.2746 111.215 34.2822Z" fill="#32343B"/>
<path d="M111.215 34.2822C112.296 36.1746 112.776 36.4375 114.757 37.3178C115.146 38.9459 115.126 39.1731 114.875 40.8318L112.245 40.6978L110.678 38.4934C106.236 37.4887 98.5285 38.1797 92.8513 37.5827L93.416 36.2568C95.7272 37.9246 108.022 37.8399 110.865 36.5452L111.215 34.2822Z" fill="#42484E"/>
<path d="M81.2573 74.4714L122.939 74.5115L122.827 78.9356L81.5138 78.9386L81.2573 74.4714Z" fill="#D7E1EA"/>
<path d="M95.8923 41.7456L97.614 42.2029C97.8164 43.1626 97.98 43.9905 98.129 44.9689C103.185 45.6848 109.744 44.4633 113.023 45.721L114.304 46.1589C114.603 48.4432 115.261 50.1527 114.401 51.9063C107.22 51.8857 100.038 51.9023 92.8572 51.9559L92.9405 48.0822L93.6936 48.5344C93.9529 46.3429 94.0931 46.833 96.0515 44.9231L95.8923 41.7456Z" fill="#6F7380"/>
<path d="M95.8923 41.7456L97.614 42.2029C97.8164 43.1626 97.98 43.9905 98.129 44.9689C103.185 45.6848 109.744 44.4633 113.023 45.721C111.065 48.1147 111.141 48.4724 107.488 48.833C104.602 49.1179 96.3109 49.0546 93.6936 48.5344C93.9529 46.3429 94.0931 46.833 96.0515 44.9231L95.8923 41.7456Z" fill="#BFCBD3"/>
<path d="M143.234 66.3451C144.913 65.5807 147.697 65.6713 149.667 65.5975L151.2 66.4336L150.561 69.4496C147.68 69.7642 145.1 69.482 143.392 71.1669L143.2 73.671C143.385 75.1535 143.639 76.3029 143.373 77.7716L142.747 78.1915L139.799 78.347C137.916 77.884 132.331 77.9081 130.118 77.8599L130.01 73.8375C129.286 63.5347 139.986 74.5838 143.234 66.3451Z" fill="#D7E1EA"/>
<path d="M143.2 73.671C143.385 75.1535 143.639 76.3029 143.373 77.7716L142.747 78.1915L139.799 78.347C137.916 77.884 132.331 77.9081 130.118 77.8599L130.01 73.8375L143.2 73.671Z" fill="#263447"/>
<path d="M143.234 66.3451C144.913 65.5807 147.697 65.6713 149.667 65.5975L151.2 66.4336L150.561 69.4496C147.62 69.0023 146.527 69.9358 143.729 68.6033L143.234 66.3451Z" fill="#F9F9EC"/>
<path d="M114.875 40.8318C117.735 40.8296 116.918 40.4095 118.787 42.0514C120.066 45.5546 118.759 48.2208 117.462 51.588C116.836 52.0135 116.216 52.4484 115.603 52.8925C114.635 53.5922 114.552 54.104 114.195 55.2644C110.295 55.8087 98.129 55.5497 93.6264 55.5597C92.3181 53.7362 92.1311 53.5414 90.0719 52.6658L92.8572 51.9559C100.038 51.9023 107.22 51.8857 114.401 51.9063C115.261 50.1527 114.603 48.4432 114.304 46.1589C114.819 44.7289 114.797 42.4251 114.875 40.8318Z" fill="#55575F"/>
<path d="M143.432 33.7435C144.739 33.7418 148.745 33.5809 149.655 34.0684C151.336 37.8854 151.171 37.3211 155.403 38.5526C155.616 39.4051 155.834 40.074 155.847 40.9585L155.511 41.8188L151.563 41.5737C148.957 41.3662 146.121 41.6032 143.49 41.7503L142.821 37.9949L137.222 37.9415L137.111 34.1664L143.432 33.7435Z" fill="#211D21"/>
<path d="M143.432 33.7435C144.739 33.7418 148.745 33.5809 149.655 34.0684C147.696 34.1784 146.082 34.2525 144.126 34.5668C142.991 36.1594 143.335 35.6012 143.222 37.8431L142.821 37.9949L137.222 37.9415L137.111 34.1664L143.432 33.7435Z" fill="#55575F"/>
<path d="M143.222 37.8431C145.821 37.9219 147.388 37.835 149.848 38.7177C150.626 39.8254 151.044 40.3309 151.563 41.5737C148.957 41.3662 146.121 41.6032 143.49 41.7503L142.821 37.9949L143.222 37.8431Z" fill="#6F7380"/>
<path d="M92.8513 37.5827C92.7732 39.0002 92.8229 40.3047 92.2918 41.6016L95.8923 41.7456L96.0515 44.9231C94.0931 46.833 93.9529 46.3429 93.6936 48.5344L92.9405 48.0822L92.8572 51.9559L90.0719 52.6658C89.1829 52.5679 88.4466 52.3002 87.5949 52.0396C86.3699 49.6313 86.9075 45.1843 86.5247 41.6173L89.779 40.9553L90.4926 38.4617L92.8513 37.5827Z" fill="#55575F"/>
<path d="M92.2918 41.6016L95.8923 41.7456L96.0515 44.9231C94.0931 46.833 93.9529 46.3429 93.6936 48.5344L92.9405 48.0822L92.6533 47.1002C90.8659 45.8173 90.741 45.5426 89.806 43.537L90.4488 42.1727L92.2918 41.6016Z" fill="#BFCBD3"/>
<path d="M143.49 41.7503C146.121 41.6032 148.957 41.3662 151.563 41.5737L155.511 41.8188C156.395 49.2832 159.395 46.3335 158.766 57.233C155.721 56.4108 152.422 50.0132 151.972 47.4773C149.189 41.8115 149.799 42.2545 143.49 41.7503Z" fill="#6F7380"/>
<path d="M83.4502 50.3179L85.3319 49.716C86.5861 47.5599 86.1091 44.8333 86.5247 41.6173C86.9075 45.1843 86.3699 49.6313 87.5949 52.0396C88.4466 52.3002 89.1829 52.5679 90.0719 52.6658C92.1311 53.5414 92.3181 53.7362 93.6264 55.5597L92.961 58.0304C90.175 54.8798 88.3809 54.8026 84.2318 54.7132C80.8556 56.2205 80.1441 56.3673 76.448 56.5667L76.1996 53.1793L75.9286 52.4424C78.3859 52.6403 80.5598 53.0576 82.7957 52.0702L83.4502 50.3179Z" fill="#99A1AD"/>
<path d="M76.1996 53.1793C79.2588 53.1237 81.8768 52.6881 84.2318 54.7132C80.8556 56.2205 80.1441 56.3673 76.448 56.5667L76.1996 53.1793Z" fill="#92A2AA"/>
<path d="M93.6264 55.5597C98.129 55.5497 110.295 55.8087 114.195 55.2644L113.753 57.5631C110.645 59.2675 96.1232 58.898 92.961 58.0304L93.6264 55.5597Z" fill="#99A1AD"/>
<path d="M64.6903 69.4173C68.4289 69.4643 71.8584 69.0032 74.7445 71.2608C73.9855 74.4524 67.9022 73.8097 65.0862 73.8601C64.5486 72.8443 64.1804 71.2198 63.8656 70.0723L64.6903 69.4173Z" fill="#D7E1EA"/>
<path d="M137.222 37.9415L142.821 37.9949L143.49 41.7503C149.799 42.2545 149.189 41.8115 151.972 47.4773C145.636 45.2367 141.716 43.3525 137.222 37.9415Z" fill="#99A1AD"/>
<path d="M122.939 74.5115C126.129 74.3742 126.942 73.7637 129.129 75.179L129.748 78.2616C126.679 78.9948 126 78.9933 122.827 78.9356L122.939 74.5115Z" fill="#BFCBD3"/>
<path d="M149.667 65.5975L150.692 62.8758C153.059 61.2458 152.611 61.747 155.894 61.5755C154.418 67.0616 155.234 64.2286 151.2 66.4336L149.667 65.5975Z" fill="#D7E1EA"/>
<path d="M114.034 57.8191C119.99 56.6451 121.003 60.8613 125.304 63.3209C125.936 63.6826 126.427 65.0995 126.769 65.7936C119.716 65.8039 119.879 60.1691 114.034 57.8191Z" fill="#D7E1EA"/>
<path d="M94.3612 139.484C102.7 139.415 111.844 139.334 120.135 139.594C131.045 139.937 126.429 137.195 132.501 134.813C134.325 135.196 134.59 135.142 135.92 136.34C136.04 138.275 136.196 140.171 136.11 142.112C136.109 151.889 136.541 165.867 135.937 175.335L135.908 175.866L135.211 179.561C135.408 180.792 135.697 181.447 135.346 182.531C132.259 182.623 131.524 182.08 129.598 183.631L128.812 187.071C129.81 187.203 132.197 187.409 132.964 187.794L130.655 188.543C130.249 189.89 130.089 190.63 129.86 192.019C126.839 193.58 115.294 192.838 111.256 192.716C103.266 193.017 94.0113 192.805 85.9221 192.792C83.8096 192.898 80.2778 193.098 78.2171 192.825C76.1587 192.553 76.2303 190.552 74.8533 188.396C70.6122 186.951 69.8825 188.26 65.4799 187.76C63.3645 186.089 63.9941 186.704 63.4127 183.457L64.5252 182.537L64.3017 178.266L64.3798 175.232C72.0987 175.657 68.8328 179.349 79.2872 179.029C78.7131 169.642 79.0257 158.198 79.0739 148.635L78.9454 144.465L78.7474 143.864C82.9316 143.623 90.4787 144.709 93.8812 143.133L94.367 140.93L94.863 140.139L94.3612 139.484Z" fill="#7A848E"/>
<path d="M132.387 142.538L136.11 142.112C136.109 151.889 136.541 165.867 135.937 175.335L135.908 175.866L135.211 179.561C135.408 180.792 135.697 181.447 135.346 182.531C132.259 182.623 131.524 182.08 129.598 183.631L128.812 187.071C129.81 187.203 132.197 187.409 132.964 187.794L130.655 188.543C130.249 189.89 130.089 190.63 129.86 192.019C126.839 193.58 115.294 192.838 111.256 192.716C103.266 193.017 94.0113 192.805 85.9221 192.792C83.8096 192.898 80.2778 193.098 78.2171 192.825C76.1587 192.553 76.2303 190.552 74.8533 188.396C70.6122 186.951 69.8825 188.26 65.4799 187.76C63.3645 186.089 63.9941 186.704 63.4127 183.457L64.5252 182.537L64.3017 178.266L64.3798 175.232C72.0987 175.657 68.8328 179.349 79.2872 179.029C78.7131 169.642 79.0257 158.198 79.0739 148.635L81.1521 149.071C83.2719 153.131 81.3588 165.661 82.1002 170.618L82.464 170.794L82.6751 165.706L86.3546 165.697L86.4561 167.742C86.8469 171.05 86.3735 171.692 88.1193 173.946C91.7483 175.136 93.5379 173.76 97.8776 174.905C102.306 175.162 116.79 174.516 119.012 176.042L119.263 178.267L119.919 178.474C121.779 178.56 122.428 178.744 124.118 177.913C125.958 175.452 125.289 170.205 125.191 166.909L125.1 153.137L125.071 148.643L125.565 147.804L129.004 147.24L129.354 146.967C131.435 146.961 131.983 147.064 133.647 145.77C133.711 143.693 133.922 144.531 132.387 142.538Z" fill="#45464F"/>
<path d="M64.3798 175.232C72.0987 175.657 68.8328 179.349 79.2872 179.029C79.5896 179.749 80.4713 182.26 80.9016 182.314C92.2092 183.724 108.459 182.031 119.725 182.872L119.893 183.44L120.773 187.064C123.41 187.071 126.191 187.129 128.812 187.071C129.81 187.203 132.197 187.409 132.964 187.794L130.655 188.543C130.249 189.89 130.089 190.63 129.86 192.019C126.839 193.58 115.294 192.838 111.256 192.716C103.266 193.017 94.0113 192.805 85.9221 192.792C83.8096 192.898 80.2778 193.098 78.2171 192.825C76.1587 192.553 76.2303 190.552 74.8533 188.396C70.6122 186.951 69.8825 188.26 65.4799 187.76C63.3645 186.089 63.9941 186.704 63.4127 183.457L64.5252 182.537L64.3017 178.266L64.3798 175.232Z" fill="#242328"/>
<path d="M64.3798 175.232C72.0987 175.657 68.8328 179.349 79.2872 179.029C79.5896 179.749 80.4713 182.26 80.9016 182.314C92.2092 183.724 108.459 182.031 119.725 182.872L119.893 183.44L120.773 187.064C108.902 186.931 97.0296 186.921 85.1588 187.035C75.6678 187.54 80.261 187.419 72.396 182.752C71.7415 182.364 65.8729 182.503 64.5252 182.537L64.3017 178.266L64.3798 175.232Z" fill="#6F7380"/>
<path d="M85.1588 187.035L86.3122 184.377C89.5825 182.215 114.614 183.36 119.893 183.44L120.773 187.064C108.902 186.931 97.0296 186.921 85.1588 187.035Z" fill="#86888D"/>
<path d="M85.9221 192.792C89.1427 189.718 95.6695 190.062 100.214 190.148C103.746 190.192 107.261 190.664 110.679 191.554L111.256 192.716C103.266 193.017 94.0113 192.805 85.9221 192.792Z" fill="#211D21"/>
<path d="M132.387 142.538L136.11 142.112C136.109 151.889 136.541 165.867 135.937 175.335L135.908 175.866L135.211 179.561C132.786 179.627 130.885 179.854 129.013 178.366L128.77 174.66C128.72 165.519 128.798 156.378 129.004 147.24L129.354 146.967C131.435 146.961 131.983 147.064 133.647 145.77C133.711 143.693 133.922 144.531 132.387 142.538Z" fill="#7A848E"/>
<path d="M128.77 174.66C131.544 176.119 132.438 175.511 135.937 175.335L135.908 175.866L135.211 179.561C132.786 179.627 130.885 179.854 129.013 178.366L128.77 174.66Z" fill="#61606E"/>
<path d="M82.6751 165.706L86.3546 165.697L86.4561 167.742C86.8469 171.05 86.3735 171.692 88.1193 173.946C91.7483 175.136 93.5379 173.76 97.8776 174.905C102.306 175.162 116.79 174.516 119.012 176.042L119.263 178.267L118.749 178.285C113.161 179.096 88.2034 178.85 82.5423 178.367L82.1002 170.618L82.464 170.794L82.6751 165.706Z" fill="#8F94A0"/>
<path d="M97.8776 174.905C102.306 175.162 116.79 174.516 119.012 176.042L119.263 178.267L118.749 178.285C114.368 177.535 102.087 177.971 97.1304 178.054L97.8776 174.905Z" fill="#99A1AD"/>
<path d="M82.6751 165.706L86.3546 165.697L86.4561 167.742C86.3063 172.086 86.9236 171.395 84.936 174.569L84.0141 174.694C82.4874 172.92 82.9271 173.345 82.464 170.794L82.6751 165.706Z" fill="#A7B4BD"/>
<path d="M97.1304 178.054C94.2078 178.148 90.5489 178.637 88.0865 177.27L88.172 176.351C90.9046 174.629 94.5642 174.957 97.8776 174.905L97.1304 178.054Z" fill="#D7E1EA"/>
<path d="M129.013 178.366C130.885 179.854 132.786 179.627 135.211 179.561C135.408 180.792 135.697 181.447 135.346 182.531C132.259 182.623 131.524 182.08 129.598 183.631L128.812 187.071C126.191 187.129 123.41 187.071 120.773 187.064L119.893 183.44L119.725 182.872C124.414 183.645 125.318 181.557 129.013 178.366Z" fill="#55575F"/>
<path d="M94.3612 139.484C102.7 139.415 111.844 139.334 120.135 139.594C131.045 139.937 126.429 137.195 132.501 134.813C134.325 135.196 134.59 135.142 135.92 136.34C136.04 138.275 136.196 140.171 136.11 142.112L132.387 142.538C133.922 144.531 133.711 143.693 133.647 145.77C131.983 147.064 131.435 146.961 129.354 146.967L129.004 147.24L125.565 147.804L125.071 148.643C122.262 149.215 109.763 148.914 106.2 148.892L106.185 153.438L86.4334 153.471L86.3546 165.697L82.6751 165.706L82.464 170.794L82.1002 170.618C81.3588 165.661 83.2719 153.131 81.1521 149.071L79.0739 148.635L78.9454 144.465L78.7474 143.864C82.9316 143.623 90.4787 144.709 93.8812 143.133L94.367 140.93L94.863 140.139L94.3612 139.484Z" fill="#5A5F70"/>
<path d="M94.3612 139.484C102.7 139.415 111.844 139.334 120.135 139.594C131.045 139.937 126.429 137.195 132.501 134.813C134.325 135.196 134.59 135.142 135.92 136.34C136.04 138.275 136.196 140.171 136.11 142.112L132.387 142.538C128.3 143.325 130.314 144.803 124.493 144.679C114.423 144.464 103.29 145.156 93.3305 144.47L78.9454 144.465L78.7474 143.864C82.9316 143.623 90.4787 144.709 93.8812 143.133L94.367 140.93L94.863 140.139L94.3612 139.484Z" fill="#7A848E"/>
<path d="M94.863 140.139C100.398 139.78 105.777 139.978 111.312 140.108L110.896 143.872C105.753 143.858 98.1735 143.598 93.3305 144.47L78.9454 144.465L78.7474 143.864C82.9316 143.623 90.4787 144.709 93.8812 143.133L94.367 140.93L94.863 140.139Z" fill="#99A1AD"/>
<path d="M111.312 140.108C114.523 140.048 118.345 139.544 120.914 141.251L121.295 142.494C118.47 144.874 114.573 144.109 110.896 143.872L111.312 140.108Z" fill="#8F94A0"/>
<path d="M82.6876 148.851L106.2 148.892L106.185 153.438L86.4334 153.471L86.3546 165.697L82.6751 165.706L82.6876 148.851Z" fill="#D7E1EA"/>
<path d="M106.2 148.892C109.763 148.914 122.262 149.215 125.071 148.643L125.1 153.137C118.878 153.277 112.386 153.519 106.185 153.438L106.2 148.892Z" fill="#BFCBD3"/>
<path d="M119.871 166.624L125.191 166.909C125.289 170.205 125.958 175.452 124.118 177.913C122.428 178.744 121.779 178.56 119.919 178.474C119.938 175.969 120.746 175.151 119.96 172.79L117.681 172.678C117.394 171.212 117.315 169.754 117.192 168.263C118.262 166.634 117.605 167.119 119.871 166.624Z" fill="#6F7380"/>
<path d="M119.871 166.624C121.44 168.383 121.001 167.527 121.449 169.939C119.915 172.315 120.616 171.586 117.681 172.678C117.394 171.212 117.315 169.754 117.192 168.263C118.262 166.634 117.605 167.119 119.871 166.624Z" fill="#42484E"/>
<path d="M117.771 156.778C118.722 156.143 119.997 156.317 120.743 157.183C121.491 158.047 121.476 159.333 120.71 160.182C120.122 160.833 119.211 161.085 118.372 160.831C117.532 160.578 116.915 159.862 116.787 158.995C116.658 158.128 117.042 157.264 117.771 156.778Z" fill="#55575F"/>
<path d="M51.4352 37.8071C54.0642 38.7532 53.8151 38.2166 55.222 40.1621L55.1204 41.8062L56.4791 42.5338C57.2205 46.4257 56.52 45.8175 53.5653 48.1499C53.3703 48.3042 53.3191 49.9454 52.4272 50.7837C51.9962 52.0203 51.3688 53.4613 51.3797 54.7352C51.2738 56.8798 51.2533 59.8437 50.6763 61.8249L46.9698 60.7973L46.9297 67.9689C48.7946 68.5855 49.7266 68.7286 51.1832 70.0652L53.4148 70.5623C54.1855 72.0169 53.951 72.6496 53.8049 74.3735L53.4849 78.1082C53.4966 83.8067 52.994 116.864 54.1927 120.49L50.6471 120.204L47.9078 121.068L49.7281 121.788C49.9326 122.97 50.1145 123.984 50.227 125.178L52.5353 124.496C56.3169 126.716 52.8596 126.321 55.642 128.316C58.8553 129.508 57.1563 130.026 60.1073 130.787C62.5851 131.426 66.1161 131.515 67.8751 133.34L68.5055 134.966C70.1754 135.942 73.369 135.716 75.4545 135.741L75.7474 136.78C76.6656 140.605 78.4954 139.661 82.3501 139.534L86.5839 139.48L94.3612 139.484L94.863 140.139L94.367 140.93L93.8812 143.133C90.4787 144.709 82.9316 143.623 78.7474 143.864L78.9454 144.465L79.0739 148.635C79.0257 158.198 78.7131 169.642 79.2872 179.029C68.8328 179.349 72.0987 175.657 64.3798 175.232L64.3017 178.266L64.5252 182.537L63.4127 183.457C52.2387 183.561 59.5332 179.746 50.6039 178.435L50.4563 174.969L48.094 174.516C46.5724 171.89 44.3738 171.891 42.3832 169.316C41.541 156.992 41.1393 50.3632 42.8464 47.2377C44.8632 43.5442 49.5163 43.9885 51.4352 37.8071Z" fill="#7A848E"/>
<path d="M51.4352 37.8071C54.0642 38.7532 53.8151 38.2166 55.222 40.1621L55.1204 41.8062L56.4791 42.5338C57.2205 46.4257 56.52 45.8175 53.5653 48.1499C53.3703 48.3042 53.3191 49.9454 52.4272 50.7837C51.9962 52.0203 51.3688 53.4613 51.3797 54.7352C51.2738 56.8798 51.2533 59.8437 50.6763 61.8249L46.9698 60.7973L46.9297 67.9689C48.7946 68.5855 49.7266 68.7286 51.1832 70.0652L53.4148 70.5623C54.1855 72.0169 53.951 72.6496 53.8049 74.3735L53.4849 78.1082C53.4966 83.8067 52.994 116.864 54.1927 120.49L50.6471 120.204L47.9078 121.068L49.7281 121.788C49.9326 122.97 50.1145 123.984 50.227 125.178L52.5353 124.496C56.3169 126.716 52.8596 126.321 55.642 128.316L53.577 129.085L53.0875 131.584L50.3812 130.499C50.4498 137.75 51.8874 166.031 50.0868 170.358C50.4637 172.387 50.5572 172.915 50.4563 174.969L48.094 174.516C46.5724 171.89 44.3738 171.891 42.3832 169.316C41.541 156.992 41.1393 50.3632 42.8464 47.2377C44.8632 43.5442 49.5163 43.9885 51.4352 37.8071Z" fill="#242328"/>
<path d="M47.9078 121.068L49.7281 121.788C49.9326 122.97 50.1145 123.984 50.227 125.178L52.5353 124.496C56.3169 126.716 52.8596 126.321 55.642 128.316L53.577 129.085L53.0875 131.584L50.3812 130.499C50.4498 137.75 51.8874 166.031 50.0868 170.358C49.1795 169.972 48.4629 169.493 47.6272 168.98C46.1422 164.405 46.8749 128.749 46.9296 121.398L47.9078 121.068Z" fill="#61606E"/>
<path d="M52.5353 124.496C56.3169 126.716 52.8596 126.321 55.642 128.316L53.577 129.085L53.0875 131.584L50.3812 130.499C49.6624 128.111 49.8289 127.601 50.227 125.178L52.5353 124.496Z" fill="#7A848E"/>
<path d="M51.1832 70.0652L53.4148 70.5623C54.1855 72.0169 53.951 72.6496 53.8049 74.3735L53.4849 78.1082C53.4966 83.8067 52.994 116.864 54.1927 120.49L50.6471 120.204L50.3665 116.219C49.227 110.987 49.0356 74.0719 51.1832 70.0652Z" fill="#6F7380"/>
<path d="M46.9297 67.9689C48.7946 68.5855 49.7266 68.7286 51.1832 70.0652C49.0356 74.0719 49.227 110.987 50.3665 116.219L46.7967 115.919C47.3877 101.233 46.9187 82.923 46.9297 67.9689Z" fill="#61606E"/>
<path d="M55.1204 41.8062L56.4791 42.5338C57.2205 46.4257 56.52 45.8175 53.5653 48.1499C53.3703 48.3042 53.3191 49.9454 52.4272 50.7837L47.1963 50.708C48.986 46.2211 49.4316 42.9422 55.1204 41.8062Z" fill="#6F7380"/>
<path d="M46.7945 57.0203C48.3102 55.2126 49.1328 55.2076 51.3797 54.7352C51.2738 56.8798 51.2533 59.8437 50.6763 61.8249L46.9698 60.7973L46.7945 57.0203Z" fill="#8F94A0"/>
<path d="M47.1963 50.708L52.4272 50.7837C51.9962 52.0203 51.3688 53.4613 51.3797 54.7352C49.1328 55.2076 48.3102 55.2126 46.7945 57.0203C46.8712 54.9759 47.0582 52.7654 47.1963 50.708Z" fill="#86888D"/>
<path d="M46.7967 115.919L50.3665 116.219L50.6471 120.204L47.9078 121.068L46.9296 121.398L46.7967 115.919Z" fill="#263447"/>
<path d="M65.2017 136.483L65.7349 137.584C68.3186 134.622 71.8335 136.803 74.9724 138.094L75.2281 138.934L75.7474 136.78C76.6656 140.605 78.4954 139.661 82.3501 139.534L86.5839 139.48L94.3612 139.484L94.863 140.139L94.367 140.93L93.8812 143.133C90.4787 144.709 82.9316 143.623 78.7474 143.864L78.9454 144.465L79.0739 148.635C79.0257 158.198 78.7131 169.642 79.2872 179.029C68.8328 179.349 72.0987 175.657 64.3798 175.232L64.3806 171.702C64.5961 164.948 64.2827 140.217 65.2017 136.483Z" fill="#A7B4BD"/>
<path d="M78.7474 143.864C77.4925 142.559 77.8373 143.21 77.6247 141.27L78.7036 140.474C82.3231 139.783 91.0178 139.621 94.367 140.93L93.8812 143.133C90.4787 144.709 82.9316 143.623 78.7474 143.864Z" fill="#BFCBD3"/>
<path d="M68.1557 163.646L70.9709 164.246C72.3916 166.695 71.9972 168.856 71.9994 171.631C70.965 171.382 69.9686 170.946 68.9745 170.57C67.5523 168.805 68.0585 165.81 68.1557 163.646Z" fill="#7A848E"/>
<path d="M68.4128 140.389L70.9913 141.184C72.1747 143.311 71.721 145.117 71.6341 147.522L68.8562 146.467C67.7385 144.419 68.2557 142.689 68.4128 140.389Z" fill="#5C676F"/>
<path d="M50.3812 130.499L53.0875 131.584L53.2102 132.211C55.3279 143.618 50.506 163.66 56.7881 170.911C59.2834 171.915 61.6976 171.712 64.3806 171.702L64.3798 175.232L64.3017 178.266L64.5252 182.537L63.4127 183.457C52.2387 183.561 59.5332 179.746 50.6039 178.435L50.4563 174.969C50.5572 172.915 50.4637 172.387 50.0868 170.358C51.8874 166.031 50.4498 137.75 50.3812 130.499Z" fill="#636676"/>
<path d="M50.4563 174.969C52.8377 174.934 54.1329 174.763 56.3338 175.696L56.4484 177.428C58.65 178.728 61.4974 178.298 64.3017 178.266L64.5252 182.537L63.4127 183.457C52.2387 183.561 59.5332 179.746 50.6039 178.435L50.4563 174.969Z" fill="#202230"/>
<path d="M50.4563 174.969C52.8377 174.934 54.1329 174.763 56.3338 175.696C54.6296 178.739 54.0934 178.171 50.6039 178.435L50.4563 174.969Z" fill="#0E0E10"/>
<path d="M65.2017 136.483C61.7129 136.032 61.0693 136.51 59.3819 133.33L60.2425 132.583C66.7027 132.339 62.9701 133.991 68.5055 134.966C70.1754 135.942 73.369 135.716 75.4545 135.741L75.7474 136.78L75.2281 138.934L74.9724 138.094C71.8335 136.803 68.3186 134.622 65.7349 137.584L65.2017 136.483Z" fill="#99A1AD"/>
<path d="M155.847 40.9585C160.214 42.482 159.578 43.8111 163.638 47.3156C165.453 59.9458 162.673 130.079 165.156 134.075L166.643 134.343L167.281 132.7C170.544 131.722 181.1 132.118 184.977 132.148C185.102 135.088 185.616 139.408 184.503 141.966C183.316 142.436 183.274 142.529 181.952 142.532L181.927 142.87L184.12 143.68C184.912 145.941 184.665 145.32 184.032 147.955L183.487 148.506C184.082 148.923 184.454 149.59 184.496 150.316C186.498 152.745 185.211 151.524 188.734 152.288C189.554 157.408 189.269 166.124 189.253 171.577C186.004 171.64 178.955 172.019 176.144 171.195L174.788 168.821L173.098 168.68L174.715 167.776C175.616 166.139 175.502 161.178 175.73 158.734L174.743 157.678L173.879 154.489C171.51 153.014 170.578 153.657 167.295 153.874C166.405 154.113 165.462 154.443 164.558 154.418L164.447 157.774L157.794 157.608C156.278 155.791 157.595 151.952 155.797 147.441C155.041 149.237 154.907 155.885 154.474 158.882C154.106 155.326 154.279 150.186 154.295 146.5L158.751 142.048C160.097 140.22 158.564 120.689 158.35 117.179C154.021 117.54 152.528 121.525 148.471 124.588L146.003 124.708C144.874 126.13 143.474 128.498 142.782 129.332C144.024 125.741 143.709 81.1177 142.747 78.1915L143.373 77.7716C143.639 76.3029 143.385 75.1535 143.2 73.671L143.392 71.1669C145.1 69.482 147.68 69.7642 150.561 69.4496L151.2 66.4336C155.234 64.2286 154.418 67.0616 155.894 61.5755L158.694 61.0267L158.766 57.233C159.395 46.3335 156.395 49.2832 155.511 41.8188L155.847 40.9585Z" fill="#61606E"/>
<path d="M166.643 134.343L167.281 132.7C170.544 131.722 181.1 132.118 184.977 132.148C185.102 135.088 185.616 139.408 184.503 141.966C183.316 142.436 183.274 142.529 181.952 142.532L181.927 142.87L184.12 143.68C184.912 145.941 184.665 145.32 184.032 147.955L183.487 148.506C184.082 148.923 184.454 149.59 184.496 150.316C186.498 152.745 185.211 151.524 188.734 152.288C189.554 157.408 189.269 166.124 189.253 171.577C186.004 171.64 178.955 172.019 176.144 171.195L174.788 168.821L173.098 168.68L174.715 167.776C175.616 166.139 175.502 161.178 175.73 158.734L174.743 157.678L173.879 154.489C171.51 153.014 170.578 153.657 167.295 153.874C166.405 154.113 165.462 154.443 164.558 154.418L164.447 157.774L157.794 157.608C158.595 153.922 157.021 150.24 158.64 147.733C161.71 147.617 170.514 148.024 172.228 146.815C172.624 144.665 172.963 144.882 172.161 143.387C170.958 143.154 169.759 142.904 168.562 142.639C165.738 141.989 165.6 142.115 164.361 140.164L165.07 137.569C165.96 136.82 165.982 136.793 167.028 136.288L166.643 134.343Z" fill="#55575F"/>
<path d="M180.735 148.523C181.555 147.933 182.66 147.926 183.487 148.506C184.082 148.923 184.454 149.59 184.496 150.316C186.498 152.745 185.211 151.524 188.734 152.288C189.554 157.408 189.269 166.124 189.253 171.577C186.004 171.64 178.955 172.019 176.144 171.195L174.788 168.821L173.098 168.68L174.715 167.776C175.616 166.139 175.502 161.178 175.73 158.734L174.743 157.678C179.548 154.074 172.096 151.015 178.619 148.335L180.085 151.675C179.449 150.616 179.731 149.245 180.735 148.523Z" fill="#6F7380"/>
<path d="M184.78 167.645C185.045 163.427 184.086 158.19 185.359 154.193C185.794 152.825 187.203 152.761 188.734 152.288C189.554 157.408 189.269 166.124 189.253 171.577C186.004 171.64 178.955 172.019 176.144 171.195L174.788 168.821L173.098 168.68L174.715 167.776C175.616 166.139 175.502 161.178 175.73 158.734C176.47 161.513 175.581 163.631 177.05 166.76C178.836 168.157 182.37 167.709 184.78 167.645Z" fill="#2B2B2B"/>
<path d="M180.735 148.523C181.555 147.933 182.66 147.926 183.487 148.506C184.082 148.923 184.454 149.59 184.496 150.316C184.559 151.407 183.868 152.401 182.823 152.723C181.778 153.045 180.649 152.612 180.085 151.675C179.449 150.616 179.731 149.245 180.735 148.523Z" fill="#272121"/>
<path d="M178.463 153.092C180.199 153.043 181.736 152.829 183.293 153.733C185.219 156.483 184.274 161.561 184.121 164.872C183.058 164.818 182.014 164.602 180.968 164.42C178.88 161.592 178.879 156.55 178.463 153.092Z" fill="#BFCBD3"/>
<path d="M166.643 134.343L167.281 132.7C170.544 131.722 181.1 132.118 184.977 132.148C185.102 135.088 185.616 139.408 184.503 141.966C183.316 142.436 183.274 142.529 181.952 142.532L181.497 140.176L182.768 136.816C180.305 134.96 170.139 135.703 167.028 136.288L166.643 134.343Z" fill="#281814"/>
<path d="M181.497 140.176L181.952 142.532L181.927 142.87L184.12 143.68C184.912 145.941 184.665 145.32 184.032 147.955L183.487 148.506C182.66 147.926 181.555 147.933 180.735 148.523C179.731 149.245 179.449 150.616 180.085 151.675L178.619 148.335L175.716 148.077C175.298 144.651 175.305 143.826 175.806 140.41L181.497 140.176Z" fill="#242328"/>
<path d="M180.735 148.523C180.345 146.466 180.178 145.916 180.529 143.764L181.927 142.87L184.12 143.68C184.912 145.941 184.665 145.32 184.032 147.955L183.487 148.506C182.66 147.926 181.555 147.933 180.735 148.523Z" fill="#D9B89B"/>
<path d="M175.716 148.077L178.619 148.335C172.096 151.015 179.548 154.074 174.743 157.678L173.879 154.489C171.51 153.014 170.578 153.657 167.295 153.874C166.693 153.758 165.473 153.308 164.835 153.096C164.399 151.323 164.308 151.219 164.949 149.59C167.553 148.141 171.435 149.033 175.22 148.192L175.716 148.077Z" fill="#86888D"/>
<path d="M175.806 140.41C172.48 140.534 169.963 141.21 167.563 138.751L168.112 137.524C170.524 135.803 173.832 136.327 176.876 136.434L175.806 140.41Z" fill="#7A848E"/>
<path d="M157.794 157.608C158.595 153.922 157.021 150.24 158.64 147.733C158.818 149.561 159.003 151.15 159.277 152.976C160.815 154.137 162.583 154.144 164.558 154.418L164.447 157.774L157.794 157.608Z" fill="#263447"/>
<path d="M176.876 136.434C178.278 136.507 181.497 136.602 182.768 136.816L181.497 140.176L175.806 140.41L176.876 136.434Z" fill="#BFCBD3"/>
<path d="M155.847 40.9585C160.214 42.482 159.578 43.8111 163.638 47.3156C165.453 59.9458 162.673 130.079 165.156 134.075L166.643 134.343L167.028 136.288C165.982 136.793 165.96 136.82 165.07 137.569L164.361 140.164C165.6 142.115 165.738 141.989 168.562 142.639C169.759 142.904 170.958 143.154 172.161 143.387C172.963 144.882 172.624 144.665 172.228 146.815C170.514 148.024 161.71 147.617 158.64 147.733C157.021 150.24 158.595 153.922 157.794 157.608C156.278 155.791 157.595 151.952 155.797 147.441C155.041 149.237 154.907 155.885 154.474 158.882C154.106 155.326 154.279 150.186 154.295 146.5L158.751 142.048C160.097 140.22 158.564 120.689 158.35 117.179C159.57 111.707 158.835 75.485 158.745 66.9072C158.859 65.6882 158.719 62.4098 158.694 61.0267L158.766 57.233C159.395 46.3335 156.395 49.2832 155.511 41.8188L155.847 40.9585Z" fill="#2B2B2B"/>
<path d="M158.694 61.0267C158.719 62.4098 158.859 65.6882 158.745 66.9072C155.581 72.4386 151.087 73.4643 144.978 74.7014C143.901 75.986 143.905 76.1467 143.373 77.7716C143.639 76.3029 143.385 75.1535 143.2 73.671L143.392 71.1669C145.1 69.482 147.68 69.7642 150.561 69.4496L151.2 66.4336C155.234 64.2286 154.418 67.0616 155.894 61.5755L158.694 61.0267Z" fill="#42484E"/>
<path d="M53.4849 78.1082L59.3616 78.4442C60.2608 80.1589 60.2936 81.2156 60.3783 83.0778C61.8459 84.1587 62.7202 84.0528 64.5457 84.2134C74.4472 84.2616 69.1418 88.0161 81.8498 87.6575C81.8461 101.843 81.3319 118.357 81.7358 132.244C78.9425 131.492 72.4581 132.174 70.4311 131.239C67.404 129.843 70.4231 129.691 64.9562 127.493C62.8466 122.194 61.3798 126.379 57.4097 123.965C55.9933 120.995 56.8385 121.651 54.1927 120.49C52.994 116.864 53.4966 83.8067 53.4849 78.1082Z" fill="#A7B4BD"/>
<path d="M53.4849 78.1082L59.3616 78.4442C60.2608 80.1589 60.2936 81.2156 60.3783 83.0778C61.8459 84.1587 62.7202 84.0528 64.5457 84.2134C65.0044 88.7617 65.4391 123.001 64.9562 127.493C62.8466 122.194 61.3798 126.379 57.4097 123.965C55.9933 120.995 56.8385 121.651 54.1927 120.49C52.994 116.864 53.4966 83.8067 53.4849 78.1082Z" fill="#7A848E"/>
<path d="M75.678 92.4723C76.277 91.8808 77.1558 91.6726 77.9571 91.9319C78.7584 92.1919 79.3479 92.8754 79.486 93.7058C79.6248 94.5368 79.2887 95.3745 78.6152 95.8798C77.6663 96.5919 76.3282 96.4473 75.5539 95.549C74.7788 94.65 74.8336 93.3056 75.678 92.4723Z" fill="#6F7380"/>
<path d="M146.003 124.708L148.471 124.588C152.528 121.525 154.021 117.54 158.35 117.179C158.564 120.689 160.097 140.22 158.751 142.048L154.295 146.5C154.279 150.186 154.106 155.326 154.474 158.882C154.823 160.773 154.445 160.287 155.669 161.334L157.894 161.678C160.87 166.332 157.371 168.674 155.867 173.382C157.096 174.796 156.502 174.369 158.793 174.667C152.744 176.486 158.744 177.778 151.388 179.225C150.512 182.394 151.196 181.805 148.931 183.33L143.878 183.319L144.298 181.888L143.907 178.901L143.346 178.896C143.65 176.578 143.662 176.167 143.46 173.84C143.482 172.104 143.788 170.371 144.035 168.646C142.922 165.198 143.274 147.723 143.298 142.678L139.625 143.245C139.624 138.75 139.522 135.791 139.066 131.322C141.443 131.486 144.375 131.996 146.349 130.844L146.22 130.704L146.639 130.085C146.921 127.621 146.672 127.063 146.003 124.708Z" fill="#61606E"/>
<path d="M151.065 149.185C151.997 148.577 153.406 147.273 154.295 146.5C154.279 150.186 154.106 155.326 154.474 158.882C154.823 160.773 154.445 160.287 155.669 161.334L157.894 161.678C160.87 166.332 157.371 168.674 155.867 173.382C157.096 174.796 156.502 174.369 158.793 174.667C152.744 176.486 158.744 177.778 151.388 179.225C150.512 182.394 151.196 181.805 148.931 183.33L143.878 183.319L144.298 181.888L143.907 178.901L143.346 178.896C143.65 176.578 143.662 176.167 143.46 173.84C143.482 172.104 143.788 170.371 144.035 168.646L145.642 168.157C144.532 164.402 143.425 162.371 144.604 158.187L145.601 159.474C148.212 160.511 147.216 160.471 149.664 160.099C151.73 157.106 149.055 152.314 151.065 149.185Z" fill="#55575F"/>
<path d="M151.065 149.185C151.997 148.577 153.406 147.273 154.295 146.5C154.279 150.186 154.106 155.326 154.474 158.882C154.823 160.773 154.445 160.287 155.669 161.334C153.789 161.397 153.585 161.508 152.066 160.554C150.71 157.808 151.143 152.653 151.065 149.185Z" fill="#42484E"/>
<path d="M143.907 178.901C146.944 178.568 148.526 178.197 151.388 179.225C150.512 182.394 151.196 181.805 148.931 183.33L143.878 183.319L144.298 181.888L143.907 178.901Z" fill="#272121"/>
<path d="M146.003 124.708L148.471 124.588C152.528 121.525 154.021 117.54 158.35 117.179C158.564 120.689 160.097 140.22 158.751 142.048C158.335 139.791 158.506 125.76 158.35 122.09L157.53 121.541C155.027 122.396 151.442 126.026 150.27 128.349L154.072 128.785L154.585 129.621L153.378 131.223C151.308 131.609 150.703 131.461 148.695 131.181L148.298 129.517L147.964 129.313L146.349 130.844L146.22 130.704L146.639 130.085C146.921 127.621 146.672 127.063 146.003 124.708Z" fill="#42484E"/>
<path d="M139.066 131.322C140.706 131.853 142.114 132.21 143.593 133.099C143.349 136.377 143.158 138.489 143.426 141.815L143.298 142.678L139.625 143.245C139.624 138.75 139.522 135.791 139.066 131.322Z" fill="#99A1AD"/>
<path d="M143.593 133.099C145.066 133.09 146.539 133.106 148.012 133.148L149.188 134.335C147.965 136.651 146.583 135.893 144.393 135.268C143.838 137.73 143.672 139.302 143.426 141.815C143.158 138.489 143.349 136.377 143.593 133.099Z" fill="#6F7380"/>
<path d="M135.908 175.866C136.103 177.783 135.994 179.434 137.484 180.591C137.802 180.298 138.183 179.95 138.626 179.544C139.855 167.436 137.4 142.074 139.066 131.322C139.522 135.791 139.624 138.75 139.625 143.245L143.298 142.678C143.274 147.723 142.922 165.198 144.035 168.646C143.788 170.371 143.482 172.104 143.46 173.84C143.662 176.167 143.65 176.578 143.346 178.896L143.907 178.901L144.298 181.888L143.878 183.319C143.013 186.926 143.747 186.363 141.29 188.114C138.65 188.551 135.659 188.08 132.964 187.794C132.197 187.409 129.81 187.203 128.812 187.071L129.598 183.631C131.524 182.08 132.259 182.623 135.346 182.531C135.697 181.447 135.408 180.792 135.211 179.561L135.908 175.866Z" fill="#42484E"/>
<path d="M139.625 143.245L143.298 142.678C143.274 147.723 142.922 165.198 144.035 168.646C143.788 170.371 143.482 172.104 143.46 173.84L139.833 174.665C139.153 166.298 139.605 152.046 139.625 143.245Z" fill="#99A1AD"/>
<path d="M135.346 182.531C138.343 182.819 141.45 182.863 144.298 181.888L143.878 183.319C143.013 186.926 143.747 186.363 141.29 188.114C138.65 188.551 135.659 188.08 132.964 187.794C132.197 187.409 129.81 187.203 128.812 187.071L129.598 183.631C131.524 182.08 132.259 182.623 135.346 182.531Z" fill="#2B2B2B"/>
<path d="M143.46 173.84C143.662 176.167 143.65 176.578 143.346 178.896L140.719 178.888L139.773 177.911L139.833 174.665L143.46 173.84Z" fill="#61606E"/>
<path d="M74.6912 81.0082C76.4443 85.6295 81.5729 84.136 86.2289 84.0133C85.2727 91.4864 87.0536 129.028 84.5569 131.584L81.7358 132.244C81.3319 118.357 81.8461 101.843 81.8498 87.6575C69.1418 88.0161 74.4472 84.2616 64.5457 84.2134L65.1549 82.1255C67.1301 80.6591 71.8277 81.1141 74.6912 81.0082Z" fill="#BFCBD3"/>
<path d="M86.2289 84.0133C87.7417 97.0804 86.4407 125.376 86.5839 139.48L82.3501 139.534C78.4954 139.661 76.6656 140.605 75.7474 136.78L75.4545 135.741C73.369 135.716 70.1754 135.942 68.5055 134.966L67.8751 133.34C66.1161 131.515 62.5851 131.426 60.1073 130.787C57.1563 130.026 58.8553 129.508 55.642 128.316C52.8596 126.321 56.3169 126.716 52.5353 124.496C53.7099 123.855 55.9663 123.994 57.4097 123.965C61.3798 126.379 62.8466 122.194 64.9562 127.493C70.4231 129.691 67.404 129.843 70.4311 131.239C72.4581 132.174 78.9425 131.492 81.7358 132.244L84.5569 131.584C87.0536 129.028 85.2727 91.4864 86.2289 84.0133Z" fill="#55575F"/>
<path d="M75.4545 135.741C78.5407 135.865 79.0572 135.366 81.1814 136.859L82.3501 139.534C78.4954 139.661 76.6656 140.605 75.7474 136.78L75.4545 135.741Z" fill="#8F94A0"/>
<path d="M139.799 78.347L142.747 78.1915C143.709 81.1177 144.024 125.741 142.782 129.332L140.522 128.297C138.612 124.89 139.579 85.0073 139.799 78.347Z" fill="#99A1AD"/>
<path d="M61.9036 74.3699C62.2995 74.5393 63.6092 75.0636 63.8737 75.2703C64.5669 77.9965 63.9883 77.4086 65.9211 78.8553C69.7393 79.208 72.1601 78.6107 74.6912 81.0082C71.8277 81.1141 67.1301 80.6591 65.1549 82.1255L64.5457 84.2134C62.7202 84.0528 61.8459 84.1587 60.3783 83.0778C60.2936 81.2156 60.2608 80.1589 59.3616 78.4442C60.8568 77.4407 61.027 76.235 61.9036 74.3699Z" fill="#A7B4BD"/>
<path d="M74.9205 74.2903L81.2573 74.4714L81.5138 78.9386C79.9294 78.932 78.3457 78.9115 76.7613 78.8765C74.968 77.291 75.4713 77.2231 74.9205 74.2903Z" fill="#BFCBD3"/>
<path d="M129.945 83.9389L130.245 81.8349C132.114 80.692 132.374 80.6825 134.557 80.9571C136.077 82.295 135.817 82.3541 135.885 84.5056C136.384 100.245 135.997 116.217 136.11 131.963L131.686 132.495C129.076 132.817 125.779 136.442 123.754 136.592C119.16 136.933 92.6001 137.085 89.8302 136.389C89.7264 118.892 89.7527 101.394 89.909 83.898L118.275 83.9148L129.945 83.9389Z" fill="#92A2AA"/>
<path d="M129.945 83.9389L130.245 81.8349C132.114 80.692 132.374 80.6825 134.557 80.9571C136.077 82.295 135.817 82.3541 135.885 84.5056C136.384 100.245 135.997 116.217 136.11 131.963C132.076 131.593 127.587 130.702 124.021 132.345C122.787 133.566 122.375 134.006 121.391 135.434L118.85 135.964L119.166 133.27C119.589 132.827 119.999 132.374 120.397 131.909L120.822 131.411C124.08 127.647 119.934 95.7885 122.726 89.0356C124.012 85.926 127.413 91.0366 129.945 83.9389Z" fill="#7A848E"/>
<path d="M89.909 83.898L118.275 83.9148C118.183 85.0599 118.28 87.0324 117.539 87.3566C112.768 89.4496 99.026 88.2271 93.8704 88.2746C93.7097 103.79 94.1538 120.411 93.8207 135.635L89.8302 136.389C89.7264 118.892 89.7527 101.394 89.909 83.898Z" fill="#BFCBD3"/>
<path d="M118.85 135.964L121.391 135.434C122.375 134.006 122.787 133.566 124.021 132.345C127.587 130.702 132.076 131.593 136.11 131.963L131.686 132.495C129.076 132.817 125.779 136.442 123.754 136.592C119.16 136.933 92.6001 137.085 89.8302 136.389L93.8207 135.635C101.547 135.992 111.953 135.378 118.85 135.964Z" fill="#55575F"/>
<path d="M98.0296 92.4913L99.3269 93.2281C100.575 95.4307 100.147 96.7167 99.9807 99.2063C99.1341 98.9434 98.3839 98.4548 97.6184 98.0167C96.9807 95.7097 97.435 94.772 98.0296 92.4913Z" fill="#55575F"/>
<path d="M154.474 158.882C154.907 155.885 155.041 149.237 155.797 147.441C157.595 151.952 156.278 155.791 157.794 157.608L164.447 157.774L164.558 154.418C165.462 154.443 166.405 154.113 167.295 153.874C170.578 153.657 171.51 153.014 173.879 154.489L174.743 157.678L175.73 158.734C175.502 161.178 175.616 166.139 174.715 167.776L173.098 168.68C172.594 165.607 172.789 162.837 171.125 160.863C168.202 160.663 167.601 160.54 164.851 161.515C162.882 164.819 166.761 170.095 161.039 172.27C159.569 172.828 159.664 173.843 158.793 174.667C156.502 174.369 157.096 174.796 155.867 173.382C157.371 168.674 160.87 166.332 157.894 161.678L155.669 161.334C154.445 160.287 154.823 160.773 154.474 158.882Z" fill="#202230"/>
<path d="M167.295 153.874C170.578 153.657 171.51 153.014 173.879 154.489L174.743 157.678L164.447 157.774L164.558 154.418C165.462 154.443 166.405 154.113 167.295 153.874Z" fill="#42484E"/>
<path d="M195.992 20.3218L203.279 20.5236C203.265 79.8339 204.347 142.15 203.255 201.164C197.004 202.694 196.626 204.297 192.436 209.4L192.74 209.444C155.058 209.757 117.375 209.824 79.6927 209.647C63.8342 209.637 33.1289 210.541 18.2646 209.342C15.8891 208.274 13.4143 204.833 11.6408 202.718C9.5874 202.422 8.78901 202.019 6.92997 201.24L6.62684 198.971L6.78824 196.16C11.1521 196.749 14.6941 196.565 18.9594 196.905C20.3246 197.013 21.7154 200.237 22.7527 201.927C25.6241 202.88 38.5512 202.529 42.1736 202.521L80.2201 202.411L147.914 202.577C155.264 202.569 182.98 203.618 187.636 200.334C190.17 194.964 190.556 195.908 195.965 194.771L195.992 20.3218Z" fill="#D28F4D"/>
<path d="M6.92997 201.24C8.78901 202.019 9.5874 202.422 11.6408 202.718C13.4143 204.833 15.8891 208.274 18.2646 209.342C33.1289 210.541 63.8342 209.637 79.6927 209.647C117.375 209.824 155.058 209.757 192.74 209.444L192.436 209.4C196.626 204.297 197.004 202.694 203.255 201.164C203.251 206.269 203.173 211.552 203.258 216.638C199.928 216.82 199.104 216.305 196.759 218.029C196.156 219.646 195.782 220.756 194.937 222.287C175.762 223.426 149.724 222.755 130.06 222.747L15.5283 222.674C15.9447 220.045 15.8972 218.924 14.781 216.882C12.6612 215.563 9.4004 216.111 6.78971 216.27C6.90439 211.261 6.95115 206.251 6.92997 201.24Z" fill="#8C583A"/>
<path d="M0.660344 214.913C-0.083273 211.679 0.18118 195.361 0.178258 191.319L0.164342 56.9353C0.165803 47.3401 -0.414919 24.2372 0.598241 15.5477C4.13298 10.7833 5.91099 16.4367 7.36316 8.50591L7.90293 13.2773C8.00665 15.653 8.08995 18.1702 7.94605 20.5385C6.6502 41.8036 6.6042 62.8814 6.60639 84.1747L6.6334 156.384C6.63778 166.794 7.15934 183.807 6.46393 193.63L6.78824 196.16L6.62684 198.971L6.92997 201.24C6.95115 206.251 6.90439 211.261 6.78971 216.27L4.53183 216.909L0.660344 214.913Z" fill="#6F412A"/>
<path d="M0.660344 214.913C1.78746 209.692 -0.473315 203.698 2.17756 199.701C4.13229 198.784 4.45661 198.829 6.62684 198.971L6.92997 201.24C6.95115 206.251 6.90439 211.261 6.78971 216.27L4.53183 216.909L0.660344 214.913Z" fill="#643926"/>
<path d="M203.258 216.638L203.92 216.841C203.789 218.96 203.932 221.111 202.547 222.665C198.738 224.276 198.409 222.695 196.21 224.705L195.752 228.488C195.636 228.568 194.428 229.402 194.428 229.402C136.84 229.91 79.2179 229.703 21.6248 229.578C19.6168 229.573 15.7862 229.685 14.7029 227.84C14.8293 225.509 14.8519 224.964 15.5283 222.674L130.06 222.747C149.724 222.755 175.762 223.426 194.937 222.287C195.782 220.756 196.156 219.646 196.759 218.029C199.104 216.305 199.928 216.82 203.258 216.638Z" fill="#643926"/>
<path d="M6.78971 216.27C9.4004 216.111 12.6612 215.563 14.781 216.882C15.8972 218.924 15.9447 220.045 15.5283 222.674C14.8519 224.964 14.8293 225.509 14.7029 227.84C13.6758 220.125 11.1426 225.42 8.15714 222.369C6.98328 221.169 7.19585 219.253 4.53183 216.909L6.78971 216.27Z" fill="#6F412A"/>
<path d="M195.949 6.04951C199.212 6.43738 200.294 6.05915 202.762 7.84602C203.296 9.59368 203.379 9.86367 203.286 11.6825L203.32 12.5562C200.594 13.642 198.961 13.3818 196.006 13.2653L195.757 9.02493L195.949 6.04951Z" fill="#6F412A"/>
<path d="M195.757 9.02493C198.826 10.3933 200.044 10.8567 203.286 11.6825L203.32 12.5562C200.594 13.642 198.961 13.3818 196.006 13.2653L195.757 9.02493Z" fill="#643926"/>
</svg>
