<svg width="168" height="181" viewBox="0 0 168 181" fill="none" xmlns="http://www.w3.org/2000/svg">
<path d="M9.02269 47.5655C7.24302 45.471 7.05881 45.9677 7.11631 43.8393C9.24154 39.3202 15.9036 37.2792 15.102 34.0441C13.9711 32.8479 13.4003 32.6664 13.1967 31.263C15.5492 28.1197 34.4376 9.23193 37.5149 6.9428C38.8504 7.09892 39.4396 7.97838 40.4459 8.97855C43.751 8.93029 44.0822 4.87963 47.4665 4.01202C49.0004 4.61934 49.3883 5.09687 50.5998 6.18352L50.8848 6.18658C54.1534 2.67778 55.2366 0.0336464 60.1172 2.43187C61.6572 1.96083 62.0949 1.27745 63.2113 0.107521C64.8887 1.46014 65.2132 2.25301 66.962 2.251L69.5864 0.0951446C70.6493 1.03313 71.8034 2.00287 72.7926 3.00807L75.8417 0L79.1291 3.04621L82.2378 0.127487C83.4104 1.07867 84.3802 1.84168 85.4709 2.90395C87.3599 1.14829 86.9842 0.898481 89.0315 0.76453C91.1885 1.63919 92.9418 4.41959 94.8469 6.2156C95.6817 5.46183 97.1703 4.02578 97.9971 3.39773L104.164 9.63908C105.163 8.75203 106.666 7.33834 107.683 6.58115L132.863 31.8729C131.857 33.0865 130.981 34.2375 129.741 35.2242L136.014 41.4531C135.038 42.6373 134.323 43.5624 133.157 44.5868L139.423 50.793C138.354 52.0623 137.503 53.1118 136.262 54.2387L142.556 60.4517C141.12 62.1627 140.346 62.4133 140.345 64.217L142.599 66.9494L139.568 69.6853L139.737 69.9739C140.51 71.2454 140.788 71.5531 141.82 72.616C141.899 74.0394 142.071 73.469 141.038 74.6934L139.986 76.2324C140.544 78.2171 141.376 78.2255 142.348 79.5997L136.296 85.6394C137.185 86.6039 138.659 88.1169 139.437 89.0893L130.182 98.333C131.2 99.6112 131.725 100.227 132.508 101.709C130.858 104.15 119.853 114.783 117.091 117.558C116.385 118.5 115.054 120.161 114.562 121.146L117.163 124.144L114.298 126.972L111.201 130.316L109.372 132.342L107.647 133.021L107.478 133.259C106.72 132.535 105.927 131.843 105.145 131.145C103.253 131.184 103.199 131.795 101.356 133.31L91.9358 123.805C93.7756 120.154 95.6407 122.221 92.0551 117.646L94.8362 114.309C93.6724 113.06 93.0594 112.596 92.5058 110.971C95.3026 107.263 107.038 96.0912 110.911 92.2449C109.302 90.6561 109.008 90.8443 108.441 88.9392C109 86.863 112.191 84.3603 113.985 82.5769C112.822 81.5313 112.104 81.1094 111.687 79.6219C112.109 77.438 115.135 75.1563 116.952 73.4403L117.086 73.0916C115.953 72.0241 115.57 71.5886 114.636 70.3413C114.935 68.4421 115.425 68.4798 116.971 66.7816C114.635 64.54 112.923 62.9373 110.876 60.4042L113.817 57.1694C112.074 55.387 109.283 53.5431 108.49 51.3899C108.747 49.2481 108.902 49.6936 110.666 47.7826C106.521 44.5691 100.123 37.0716 95.3905 32.9346C93.9516 32.9646 93.1479 34.054 91.7787 35.1491L85.3211 28.6614L82.0971 31.7916C80.1893 30.6689 78.4646 27.8502 75.8986 26.3209L75.2174 26.8718L75.3234 25.8342C74.8401 24.2213 73.6127 23.4232 72.2986 22.2635C71.383 23.3225 70.8877 23.7849 69.8244 24.7034C67.9444 24.4255 68.0179 23.8974 66.3555 22.2107L60.0378 28.5048C58.2291 30.3038 56.3203 33.191 54.1468 34.0601C52.1243 33.9218 52.5133 33.6874 50.6546 31.8784C47.558 34.9579 26.1641 55.4528 26.1265 57.4978C26.8607 58.4126 27.6804 59.3885 28.3711 60.3252L18.8803 69.7491L15.816 66.8342C13.1608 69.2377 11.8718 70.5082 9.5259 73.2407L6.94725 69.6398L3.74298 73.2153L3.40179 72.9206C2.26239 71.3579 1.50627 70.8601 0.00039205 69.6666L2.04691 66.982C2.02802 65.1723 1.33324 64.9305 0 63.2034L6.11789 57.1408C5.1324 56.0999 4.15716 54.9637 3.20208 53.8879L8.56942 48.4806L9.02269 47.5655Z" fill="#485A66"/>
<path d="M22.117 53.8155C20.9461 52.756 19.6964 51.9409 19.4202 50.4916C25.3463 44.1262 40.8347 28.2041 47.1046 22.9243C49.8996 23.1081 48.7896 25.2873 51.2275 24.7496C52.6426 23.344 55.5808 19.7494 57.0037 19.4508C59.805 21.2676 58.5553 21.8213 60.8943 21.6971C62.1083 20.9518 62.3482 20.813 63.2861 19.754C64.8122 20.3684 65.268 21.0254 66.3555 22.2107L60.0378 28.5048C58.2291 30.3038 56.3203 33.191 54.1468 34.0601C52.1243 33.9218 52.5133 33.6874 50.6546 31.8784L50.3582 31.2697C49.185 30.147 48.7389 29.537 47.1918 29.0428C44.5272 30.8909 25.6019 50.3159 22.117 53.8155Z" fill="#7C8A92"/>
<path d="M50.6546 31.8784C52.5067 29.8407 54.6924 26.7926 57.1365 26.2166C58.6188 26.6163 59.013 27.3303 60.0378 28.5048C58.2291 30.3038 56.3203 33.191 54.1468 34.0601C52.1243 33.9218 52.5133 33.6874 50.6546 31.8784Z" fill="#14212A"/>
<path d="M97.6685 28.8721L97.8135 28.4602C98.8 27.5687 100.281 25.9318 101.477 25.8151C103.794 27.845 115.454 39.2586 116.711 41.2827C115.986 42.6218 115.592 42.9771 114.535 44.0873C115.827 49.5478 123.8 47.9415 117.206 54.0186L114.18 57.02L113.817 57.1694C112.074 55.387 109.283 53.5431 108.49 51.3899C108.747 49.2481 108.902 49.6936 110.666 47.7826C106.521 44.5691 100.123 37.0716 95.3905 32.9346C93.9516 32.9646 93.1479 34.054 91.7787 35.1491C92.7188 34.0551 93.8697 32.6152 94.9215 31.6776L97.6685 28.8721Z" fill="#7C8A92"/>
<path d="M94.9215 31.6776L97.6685 28.8721C99.5301 29.6812 112.989 43.0604 113.348 44.8677C112.481 45.8122 111.84 46.7895 110.659 47.0405C107.927 45.1077 98.2344 34.8533 94.9215 31.6776Z" fill="#14212A"/>
<path d="M113.817 57.1694C112.074 55.387 109.283 53.5431 108.49 51.3899C108.747 49.2481 108.902 49.6936 110.666 47.7826C112.996 49.878 114.99 51.8151 117.206 54.0186L114.18 57.02L113.817 57.1694Z" fill="#14212A"/>
<path d="M9.02269 47.5655C7.24302 45.471 7.05881 45.9677 7.11631 43.8393C9.24154 39.3202 15.9036 37.2792 15.102 34.0441C13.9711 32.8479 13.4003 32.6664 13.1967 31.263C15.5492 28.1197 34.4376 9.23193 37.5149 6.9428C38.8504 7.09892 39.4396 7.97838 40.4459 8.97855C43.751 8.93029 44.0822 4.87963 47.4665 4.01202C49.0004 4.61934 49.3883 5.09687 50.5998 6.18352C47.3127 9.56247 45.8219 12.675 41.1025 10.2153C39.5897 10.5131 39.2429 11.3097 37.9646 12.5701C33.4904 17.0407 19.4527 30.3642 16.2724 34.7012C17.0062 37.2133 18.7382 36.5164 18.304 38.6389C16.8158 40.3636 10.6757 46.6781 9.02269 47.5655Z" fill="#14212A"/>
<path d="M95.4249 114.516C97.7192 112.065 112.54 96.7056 114.446 96.1109C115.721 96.7855 115.825 96.9791 116.61 98.2035C114.727 102.535 103.441 110.636 101.882 114.912C101.609 115.661 104.006 116.311 103.857 118.125L101.906 120.213C102.396 122.996 104.072 121.863 104.091 124.327L101.686 126.984C103.024 128.391 103.586 128.497 103.889 130.148C103.101 131.497 102.396 132.184 101.356 133.31L91.9358 123.805C93.7756 120.154 95.6407 122.221 92.0551 117.646C93.1745 116.688 94.512 115.643 95.4249 114.516Z" fill="#7C8A92"/>
<path d="M91.9358 123.805C93.8639 122.153 93.535 121.892 95.639 121.679C97.8772 122.461 99.5714 125.264 101.686 126.984C103.024 128.391 103.586 128.497 103.889 130.148C103.101 131.497 102.396 132.184 101.356 133.31L91.9358 123.805Z" fill="#14212A"/>
<path d="M92.0551 117.646C93.1745 116.688 94.512 115.643 95.4249 114.516C97.2739 116.295 97.8905 116.435 97.2996 119.052L96.0575 119.727C93.7178 119.579 94.2359 119.431 92.0551 117.646Z" fill="#14212A"/>
<path d="M113.985 82.5769C112.822 81.5313 112.104 81.1094 111.687 79.6219C112.109 77.438 115.135 75.1563 116.952 73.4403C118.166 74.4105 119.16 75.1756 120.262 76.2941C121.563 77.4325 122.617 78.0796 123.042 79.7006L122.827 79.9016C120.521 82.0936 120.245 83.622 122.663 85.9169C122.082 87.4898 121.528 87.8405 120.321 88.9946C118.209 91.0761 116.079 93.148 113.936 95.2064L110.911 92.2449C109.302 90.6561 109.008 90.8443 108.441 88.9392C109 86.863 112.191 84.3603 113.985 82.5769Z" fill="#7C8A92"/>
<path d="M113.985 82.5769L117.268 85.9078L120.321 88.9946C118.209 91.0761 116.079 93.148 113.936 95.2064L110.911 92.2449C109.302 90.6561 109.008 90.8443 108.441 88.9392C109 86.863 112.191 84.3603 113.985 82.5769Z" fill="#14212A"/>
<path d="M110.911 92.2449L117.268 85.9078L120.321 88.9946C118.209 91.0761 116.079 93.148 113.936 95.2064L110.911 92.2449Z" fill="#7C8A92"/>
<path d="M113.985 82.5769C112.822 81.5313 112.104 81.1094 111.687 79.6219C112.109 77.438 115.135 75.1563 116.952 73.4403C118.166 74.4105 119.16 75.1756 120.262 76.2941L113.985 82.5769Z" fill="#14212A"/>
<path d="M107.683 6.58115L132.863 31.8729C131.857 33.0865 130.981 34.2375 129.741 35.2242L126.816 38.2162L126.377 38.0582C125.44 37.091 124.975 36.4991 124.17 35.4184C124.325 33.7235 125.102 33.4317 126.469 31.9114L107.504 12.9165C106.785 12.1669 106.087 11.334 105.403 10.5451C105.387 8.85814 106.41 8.21133 107.683 6.58115Z" fill="#14212A"/>
<path d="M126.377 38.0582C125.44 37.091 124.975 36.4991 124.17 35.4184C124.325 33.7235 125.102 33.4317 126.469 31.9114C127.915 33.2844 128.105 33.9502 129.79 34.2412C130.822 33.4617 131.845 32.6736 132.863 31.8729C131.857 33.0865 130.981 34.2375 129.741 35.2242L126.816 38.2162L126.377 38.0582Z" fill="#33424E"/>
<path d="M22.117 53.8155C25.6019 50.3159 44.5272 30.8909 47.1918 29.0428C48.7389 29.537 49.185 30.147 50.3582 31.2697C46.7444 35.4356 29.3223 52.848 25.3916 56.1203C23.5982 55.6632 23.6593 55.272 22.117 53.8155Z" fill="#14212A"/>
<path d="M129.928 98.3905L130.182 98.333C131.2 99.6112 131.725 100.227 132.508 101.709C130.858 104.15 119.853 114.783 117.091 117.558C116.385 118.5 115.054 120.161 114.562 121.146C113.715 120.157 111.952 118.534 110.948 117.565L122.378 106.05C125.182 103.399 127.33 101.248 129.928 98.3905Z" fill="#15191C"/>
<path d="M94.8362 114.309C93.6724 113.06 93.0594 112.596 92.5058 110.971C95.3026 107.263 107.038 96.0912 110.911 92.2449L113.936 95.2064L94.8362 114.309Z" fill="#14212A"/>
<path d="M136.008 67.0131L136.348 67.1751L139.279 69.8421L139.568 69.6853L139.737 69.9739C140.51 71.2454 140.788 71.5531 141.82 72.616C141.899 74.0394 142.071 73.469 141.038 74.6934L139.986 76.2324C140.544 78.2171 141.376 78.2255 142.348 79.5997L136.296 85.6394L133.084 82.7803L136.141 79.6535L133.871 77.1282C133.38 74.505 134.784 76.9586 135.799 73.3621C135.249 71.0285 135.6 71.8188 133.795 70.0631C134.023 68.6354 134.922 68.0574 136.008 67.0131Z" fill="#33424E"/>
<path d="M136.141 79.6535C137.716 78.1336 137.717 77.5775 139.522 77.3866L142.348 79.5997L136.296 85.6394L133.084 82.7803L136.141 79.6535Z" fill="#14212A"/>
<path d="M139.279 69.8421L139.568 69.6853L139.737 69.9739C140.51 71.2454 140.788 71.5531 141.82 72.616C141.899 74.0394 142.071 73.469 141.038 74.6934C139.629 75.7858 139.07 75.8865 137.561 75.4013C136.246 73.2748 138.119 71.4512 139.279 69.8421Z" fill="#14212A"/>
<path d="M79.1291 3.04621L82.2378 0.127487C83.4104 1.07867 84.3802 1.84168 85.4709 2.90395C87.3599 1.14829 86.9842 0.898481 89.0315 0.76453C91.1885 1.63919 92.9418 4.41959 94.8469 6.2156C95.6817 5.46183 97.1703 4.02578 97.9971 3.39773C96.3895 5.24945 95.8494 5.18414 95.8157 7.09643L97.8147 9.291C92.0988 16.7299 91.0382 5.49217 85.6716 4.71685C84.5594 4.55399 83.4053 5.88677 82.4952 6.62442L79.1291 3.04621Z" fill="#33424E"/>
<path d="M85.4709 2.90395C87.3599 1.14829 86.9842 0.898481 89.0315 0.76453C91.1885 1.63919 92.9418 4.41959 94.8469 6.2156C93.3983 7.8031 93.6138 8.04107 91.824 8.64822C89.4985 8.09505 87.2069 4.87973 85.4709 2.90395Z" fill="#14212A"/>
<path d="M79.1291 3.04621L82.2378 0.127487C83.7404 2.02552 84.5587 2.28789 84.3778 4.14935L82.4952 6.62442L79.1291 3.04621Z" fill="#15191C"/>
<path d="M0 63.2034L6.11789 57.1408L9.25461 60.2427C8.29474 62.6448 7.15415 61.9604 6.94533 64.4787C8.65462 67.1668 9.4967 66.4137 6.94725 69.6398L3.74298 73.2153L3.40179 72.9206C2.26239 71.3579 1.50627 70.8601 0.00039205 69.6666L2.04691 66.982C2.02802 65.1723 1.33324 64.9305 0 63.2034Z" fill="#33424E"/>
<path d="M0 63.2034L6.11789 57.1408L9.25461 60.2427C6.91163 62.0154 6.07175 64.1842 3.73134 65.2473C1.63969 65.0605 1.94753 64.7916 0 63.2034Z" fill="#15191C"/>
<path d="M0.00039205 69.6666C2.06898 67.9949 1.62892 67.8291 3.89968 67.5728L5.10074 68.1937C5.71689 70.8272 5.11738 70.9853 3.40179 72.9206C2.26239 71.3579 1.50627 70.8601 0.00039205 69.6666Z" fill="#15191C"/>
<path d="M133.023 88.8475C131.962 87.8813 131.596 87.4551 130.705 86.3262C130.902 84.4882 131.556 84.3925 133.084 82.7803L136.296 85.6394C137.185 86.6039 138.659 88.1169 139.437 89.0893L130.182 98.333L129.928 98.3905L129.737 98.2362C127.838 96.669 127.472 96.4734 127.268 94.5016C129.184 92.6463 131.183 90.7632 133.023 88.8475Z" fill="#15191C"/>
<path d="M133.023 88.8475C131.962 87.8813 131.596 87.4551 130.705 86.3262C130.902 84.4882 131.556 84.3925 133.084 82.7803L136.296 85.6394C137.185 86.6039 138.659 88.1169 139.437 89.0893L136.501 86.6991C134.624 86.7734 134.801 87.2037 133.023 88.8475Z" fill="#33424E"/>
<path d="M136.169 60.2964C135.014 59.1994 134.457 58.8195 133.755 57.3669C134.321 55.512 134.589 55.7433 136.262 54.2387L142.556 60.4517C141.12 62.1627 140.346 62.4133 140.345 64.217L142.599 66.9494L139.568 69.6853L139.279 69.8421L136.348 67.1751L136.008 67.0131L133.617 64.2472C133.596 62.34 133.966 62.5619 135.495 60.6758L136.169 60.2964Z" fill="#33424E"/>
<path d="M136.169 60.2964C135.014 59.1994 134.457 58.8195 133.755 57.3669C134.321 55.512 134.589 55.7433 136.262 54.2387L142.556 60.4517C141.528 61.316 140.758 61.8977 139.66 62.6626C137.933 62.4485 137.689 61.7064 136.169 60.2964Z" fill="#14212A"/>
<path d="M136.348 67.1751C137.663 65.5056 137.468 65.2282 139.184 64.5324C140.801 65.1046 141.344 65.7887 142.599 66.9494L139.568 69.6853L139.279 69.8421L136.348 67.1751Z" fill="#15191C"/>
<path d="M72.2986 22.2635L72.4239 21.9211C74.2709 20.428 74.3217 19.8846 76.3357 19.6133C77.687 20.528 77.9116 20.9237 78.8879 22.2503L82.4863 25.749L85.3211 28.6614L82.0971 31.7916C80.1893 30.6689 78.4646 27.8502 75.8986 26.3209L75.2174 26.8718L75.3234 25.8342C74.8401 24.2213 73.6127 23.4232 72.2986 22.2635Z" fill="#15191C"/>
<path d="M72.2986 22.2635L72.4239 21.9211C74.2709 20.428 74.3217 19.8846 76.3357 19.6133C77.687 20.528 77.9116 20.9237 78.8879 22.2503C77.1078 24.2338 76.9157 23.7741 76.8693 25.8742C78.067 28.3063 80.22 29.1471 82.0971 31.7916C80.1893 30.6689 78.4646 27.8502 75.8986 26.3209L75.2174 26.8718L75.3234 25.8342C74.8401 24.2213 73.6127 23.4232 72.2986 22.2635Z" fill="#7C8A92"/>
<path d="M50.8848 6.18658C54.1534 2.67778 55.2366 0.0336464 60.1172 2.43187C61.6572 1.96083 62.0949 1.27745 63.2113 0.107521L66.069 3.60017L64.0789 5.34376C62.2412 5.71724 62.4416 5.33854 60.3275 4.13549C58.514 4.14707 58.5463 4.75119 56.8804 6.38855L53.6389 9.70176C52.1972 8.25095 51.9606 7.93216 50.8848 6.18658Z" fill="#14212A"/>
<path d="M15.816 66.8342C18.3543 64.2906 22.8213 58.4767 25.7949 58.3691C26.7021 59.0249 27.502 59.6185 28.3711 60.3252L18.8803 69.7491L15.816 66.8342Z" fill="#14212A"/>
<path d="M37.9646 12.5701C39.2429 11.3097 39.5897 10.5131 41.1025 10.2153C45.8219 12.675 47.3127 9.56247 50.5998 6.18352L50.8848 6.18658C51.9606 7.93216 52.1972 8.25095 53.6389 9.70176C52.5884 10.7818 51.9769 11.6771 50.5537 12.0126L48.9495 10.4585C43.4994 9.9114 45.1602 14.1145 41.4675 14.9778C39.4128 14.4582 39.7139 14.2472 37.9646 12.5701Z" fill="#33424E"/>
<path d="M85.3211 28.6614L88.622 25.3706L94.9215 31.6776C93.8697 32.6152 92.7188 34.0551 91.7787 35.1491L85.3211 28.6614Z" fill="#14212A"/>
<path d="M88.622 25.3706C90.3692 23.6809 90.1111 23.3482 92.0498 23.1352C94.1024 23.7717 96.2845 26.7288 97.8135 28.4602L97.6685 28.8721L94.9215 31.6776L88.622 25.3706Z" fill="#7C8A92"/>
<path d="M82.4863 25.749C81.0642 23.9984 80.4473 23.4178 79.8924 21.2207L81.0298 19.9456C84.73 20.9466 85.9954 22.6889 88.622 25.3706L85.3211 28.6614L82.4863 25.749Z" fill="#7C8A92"/>
<path d="M114.18 57.02L117.206 54.0186C117.886 54.6629 118.564 55.3112 119.233 55.9669C120.73 57.4361 123.822 60.1081 121.688 62.19C118.202 62.1315 116.449 59.4178 114.18 57.02Z" fill="#7C8A92"/>
<path d="M134.079 52.0687C132.947 50.5187 131.913 50.0037 130.767 48.0018C131.127 46.0308 131.438 46.2892 133.157 44.5868L139.423 50.793C137.86 52.0957 137.339 52.9775 135.569 53.2775L134.079 52.0687Z" fill="#14212A"/>
<path d="M97.8147 9.291L95.8157 7.09643C95.8494 5.18414 96.3895 5.24945 97.9971 3.39773L104.164 9.63908C103.296 10.6562 102.33 11.8508 101.418 12.8016L97.8147 9.291Z" fill="#14212A"/>
<path d="M3.20208 53.8879L8.56942 48.4806C9.99846 47.8703 10.3626 48.607 11.2883 49.4811C11.7616 52.1854 9.76809 55.2797 7.10025 55.8174C5.2874 56.1831 4.49559 54.9386 3.20208 53.8879Z" fill="#14212A"/>
<path d="M113.817 57.1694C116.046 59.371 118.674 61.6086 119.544 64.6409L118.567 65.7133C113.749 64.2838 114.27 62.9782 110.876 60.4042L113.817 57.1694Z" fill="#15191C"/>
<path d="M126.816 38.2162L129.741 35.2242L136.014 41.4531C134.888 42.4124 134.263 43.1313 132.832 43.4891C130.587 42.942 128.628 40.1337 126.816 38.2162Z" fill="#14212A"/>
<path d="M126.377 38.0582L126.816 38.2162C128.628 40.1337 130.587 42.942 132.832 43.4891C134.263 43.1313 134.888 42.4124 136.014 41.4531C135.038 42.6373 134.323 43.5624 133.157 44.5868C131.438 46.2892 131.127 46.0308 130.767 48.0018C131.913 50.0037 132.947 50.5187 134.079 52.0687L133.56 51.9423C131.681 50.0388 128.373 47.1878 128.099 44.6553C130.05 40.7928 128.633 41.0306 126.377 38.0582Z" fill="#33424E"/>
<path d="M135.495 60.6758C133.932 59.1039 131.219 56.5505 130.996 54.4634C131.63 52.8552 131.94 53.0385 133.56 51.9423L134.079 52.0687L135.569 53.2775C137.339 52.9775 137.86 52.0957 139.423 50.793C138.354 52.0623 137.503 53.1118 136.262 54.2387C134.589 55.7433 134.321 55.512 133.755 57.3669C134.457 58.8195 135.014 59.1994 136.169 60.2964L135.495 60.6758Z" fill="#48565E"/>
<path d="M104.164 9.63908C105.163 8.75203 106.666 7.33834 107.683 6.58115C106.41 8.21133 105.387 8.85814 105.403 10.5451C106.087 11.334 106.785 12.1669 107.504 12.9165C106.46 14.062 106.082 14.5597 104.738 15.3763C103.056 15.006 102.813 14.2431 101.418 12.8016C102.33 11.8508 103.296 10.6562 104.164 9.63908Z" fill="#33424E"/>
<path d="M122.378 106.05C129.359 98.6452 121.258 101.691 127.268 94.5016C127.472 96.4734 127.838 96.669 129.737 98.2362L129.928 98.3905C127.33 101.248 125.182 103.399 122.378 106.05Z" fill="#33424E"/>
<path d="M110.948 117.565C111.952 118.534 113.715 120.157 114.562 121.146L117.163 124.144L114.298 126.972L110.887 123.937L112.985 121.61C113.111 119.679 112.448 119.579 110.948 117.565Z" fill="#33424E"/>
<path d="M56.8804 6.38855C58.5463 4.75119 58.514 4.14707 60.3275 4.13549C62.4416 5.33854 62.2412 5.71724 64.0789 5.34376L66.069 3.60017C65.1723 5.07919 62.542 8.14264 60.7037 8.5972C58.5251 8.3917 58.8872 8.13042 56.8804 6.38855Z" fill="#33424E"/>
<path d="M107.611 126.796C108.765 125.881 109.928 125.048 110.887 123.937L114.298 126.972L111.201 130.316L107.611 126.796Z" fill="#48565E"/>
<path d="M107.647 133.021L105.447 130.456C105.498 128.531 105.988 128.647 107.611 126.796L111.201 130.316L109.372 132.342L107.647 133.021Z" fill="#15191C"/>
<path d="M66.3555 22.2107C68.0804 20.4838 68.0725 19.8671 70.0111 19.602C71.1261 20.5029 71.5111 20.8215 72.4239 21.9211L72.2986 22.2635C71.383 23.3225 70.8877 23.7849 69.8244 24.7034C67.9444 24.4255 68.0179 23.8974 66.3555 22.2107Z" fill="#7C8A92"/>
<path d="M117.086 73.0916C115.953 72.0241 115.57 71.5886 114.636 70.3413C114.935 68.4421 115.425 68.4798 116.971 66.7816C117.808 67.7092 119.502 69.4866 120.134 70.431L117.46 72.9018L117.086 73.0916Z" fill="#15191C"/>
<path d="M72.7926 3.00807L75.8417 0C77.8418 2.21799 78.5931 2.42789 77.509 5.24202L76.242 5.6819C74.1198 4.9758 74.5105 4.86925 72.7926 3.00807Z" fill="#14212A"/>
<path d="M117.46 72.9018L120.134 70.431L120.549 69.9483L122.386 71.9875C122.788 73.7342 122.817 72.9989 122.139 74.7933L121.074 75.2499C118.95 74.9433 119.331 74.7227 117.46 72.9018Z" fill="#7C8A92"/>
<path d="M120.549 69.9483C119.248 68.4821 118.498 68.1543 118.252 66.4893C119.121 65.3249 119.588 64.7666 120.609 63.7315C122.077 65.4543 122.598 65.4708 122.811 67.3329C122.004 68.3597 121.455 69.0128 120.549 69.9483Z" fill="#7C8A92"/>
<path d="M69.5864 0.0951446C70.3243 1.05679 71.0784 2.00497 71.8452 2.9436C71.6352 4.74624 70.9656 4.88537 69.4899 6.46798C68.708 5.65543 68.0196 4.83266 67.2874 3.98076C67.3163 2.27157 68.2823 1.71598 69.5864 0.0951446Z" fill="#14212A"/>
<path d="M12.5151 63.4142C15.731 60.3651 17.6257 57.0754 21.3178 55.1084C23.2987 55.07 22.9299 55.3632 24.8759 57.1541C21.5843 60.2574 19.8282 63.5455 15.9722 65.5133C13.9814 65.4335 14.3793 65.2005 12.5151 63.4142Z" fill="#7C8A92"/>
<path d="M114.562 121.146C115.054 120.161 116.385 118.5 117.091 117.558L120.209 120.561L120.566 120.518C121.62 119.589 122.761 118.214 123.907 118.091C128.399 122.105 166.664 159.985 167.615 162.082C167.017 163.073 167.061 163.079 166.172 163.779L165.528 164.991C166.008 166.564 166.892 167.315 168 168.543L155.595 181L151.967 178.028C150.959 179.215 150.409 180.185 148.955 180.543C147.142 179.228 131.195 163.326 129.213 161.15C123.25 154.601 109.774 142.712 105.106 136.655C105.921 135.189 106.459 134.537 107.478 133.259L107.647 133.021L109.372 132.342L111.201 130.316L114.298 126.972L117.163 124.144L114.562 121.146Z" fill="#593720"/>
<path d="M120.566 120.518C121.62 119.589 122.761 118.214 123.907 118.091C128.399 122.105 166.664 159.985 167.615 162.082C167.017 163.073 167.061 163.079 166.172 163.779L165.528 164.991C166.008 166.564 166.892 167.315 168 168.543L155.595 181L151.967 178.028L152.217 177.261C154.755 174.896 160.642 170.119 161.2 167.216L160.156 165.734C160.081 164.128 160.64 163.997 161.817 162.412C157.65 158.114 153.362 154.126 149.191 149.726L146.093 146.573C138.912 138.796 130.677 131.495 123.179 123.512C122.241 122.588 121.41 121.533 120.566 120.518Z" fill="#2B160B"/>
<path d="M149.191 149.726C152.83 152.687 161.791 160.864 163.999 164.612C164.977 164.7 165.339 164.32 166.172 163.779L165.528 164.991C166.008 166.564 166.892 167.315 168 168.543L155.595 181L151.967 178.028L152.217 177.261C154.755 174.896 160.642 170.119 161.2 167.216L160.156 165.734C160.081 164.128 160.64 163.997 161.817 162.412C157.65 158.114 153.362 154.126 149.191 149.726Z" fill="#2B160B"/>
<path d="M149.191 149.726C152.83 152.687 161.791 160.864 163.999 164.612C164.977 164.7 165.339 164.32 166.172 163.779L165.528 164.991C166.008 166.564 166.892 167.315 168 168.543L164.731 165.76C164.18 165.944 153.771 176.838 153.204 177.886L155.595 181L151.967 178.028L152.217 177.261C154.755 174.896 160.642 170.119 161.2 167.216L160.156 165.734C160.081 164.128 160.64 163.997 161.817 162.412C157.65 158.114 153.362 154.126 149.191 149.726Z" fill="#382114"/>
<path d="M107.478 133.259L107.647 133.021L109.372 132.342L108.829 133.774C109.746 135.691 112.54 138.703 114.241 140.019C125.974 151.681 137.131 163.318 149.355 174.455L152.217 177.261L151.967 178.028C150.959 179.215 150.409 180.185 148.955 180.543C147.142 179.228 131.195 163.326 129.213 161.15C123.25 154.601 109.774 142.712 105.106 136.655C105.921 135.189 106.459 134.537 107.478 133.259Z" fill="#2B160B"/>
<path d="M120.22 127.345C120.502 126.306 122.368 124.431 123.179 123.512C130.677 131.495 138.912 138.796 146.093 146.573C144.943 147.731 144.221 148.769 142.677 148.998C138.668 146.217 134.757 140.861 131.053 137.583C128.875 135.655 129.019 139.194 126.199 139.157C123.424 137.643 121.131 135.921 121.728 132.339C122.492 131.329 122.826 131.076 122.986 129.87C122.049 128.412 121.71 128.266 120.22 127.345Z" fill="#432616"/>
<path d="M149.355 174.455C150.635 173.084 151.476 172.725 151.561 171.214C150.215 170.148 150.013 169.831 149.593 168.166C150.321 166.981 150.682 166.582 151.621 165.549C150.681 162.099 145.222 160.845 146.443 157.448C147.779 156.453 147.954 156.339 149.59 156.061C154.076 157.433 155.415 168.649 161.817 162.412C160.64 163.997 160.081 164.128 160.156 165.734L161.2 167.216C160.642 170.119 154.755 174.896 152.217 177.261L149.355 174.455Z" fill="#432616"/>
<path d="M114.562 121.146C115.054 120.161 116.385 118.5 117.091 117.558L120.209 120.561L120.566 120.518C121.41 121.533 122.241 122.588 123.179 123.512C122.368 124.431 120.502 126.306 120.22 127.345C117.482 130.7 112.172 134.43 112.374 137.413L114.241 140.019C112.54 138.703 109.746 135.691 108.829 133.774L109.372 132.342L111.201 130.316L114.298 126.972L117.163 124.144L114.562 121.146Z" fill="#382114"/>
<path d="M114.562 121.146C115.054 120.161 116.385 118.5 117.091 117.558L120.209 120.561C119.559 121.789 118.158 123.098 117.163 124.144L114.562 121.146Z" fill="#15191C"/>
<path d="M117.303 142.352C118.502 141.436 119.22 140.737 120.672 140.311C123.997 142.398 141.621 160.89 145.01 164.55C145.229 165.086 145.188 165.314 145.251 165.915C144.052 167.066 144.193 167.31 142.735 167.553C139.665 165.186 135.745 160.815 132.895 157.917L117.303 142.352Z" fill="#71472D"/>
<path d="M2.69539 79.0006C-2.58892 73.9134 4.94987 76.3118 0.00039205 69.6666C1.50627 70.8601 2.26239 71.3579 3.40179 72.9206L3.74298 73.2153L6.94725 69.6398L9.5259 73.2407C11.8718 70.5082 13.1608 69.2377 15.816 66.8342L18.8803 69.7491L21.9394 72.8825C19.9219 75.3473 18.2056 77.0553 15.967 79.2928C17.345 80.8938 18.0498 81.1286 18.218 82.9028C17.3578 84.0151 16.8271 84.6403 15.8423 85.6427C16.6083 86.4645 18.1705 88.045 18.7433 88.9037C17.7177 90.1749 17.1873 90.937 15.8934 91.9724C16.9957 93.064 17.7354 93.5544 18.0577 95.0469C17.4585 97.3876 14.5499 99.5374 12.5905 101.402L3.24283 92.0077L5.07596 89.7014C5.53897 85.6082 2.1041 86.2506 0.867733 82.8506C1.12936 80.8211 1.28792 81.2295 2.95988 79.4266L2.69539 79.0006Z" fill="#485A66"/>
<path d="M3.24283 92.0077C4.28202 91.0977 5.73742 89.9195 6.59027 88.8853L9.15909 91.455C10.9206 93.1451 11.1345 93.9675 13.0933 94.2426C14.2616 93.4351 14.8424 92.9315 15.8934 91.9724C16.9957 93.064 17.7354 93.5544 18.0577 95.0469C17.4585 97.3876 14.5499 99.5374 12.5905 101.402L3.24283 92.0077Z" fill="#14212A"/>
<path d="M2.69539 79.0006C-2.58892 73.9134 4.94987 76.3118 0.00039205 69.6666C1.50627 70.8601 2.26239 71.3579 3.40179 72.9206L3.74298 73.2153L6.94725 69.6398L9.5259 73.2407C8.67467 74.3619 7.37048 75.3639 6.76293 76.2233C7.99271 77.6127 8.54131 77.7572 8.8021 79.353C7.09715 81.4304 6.94735 80.9172 6.95269 83.075C5.42646 81.4749 4.73085 80.7384 2.95988 79.4266L2.69539 79.0006Z" fill="#48565E"/>
<path d="M2.69539 79.0006C-2.58892 73.9134 4.94987 76.3118 0.00039205 69.6666C1.50627 70.8601 2.26239 71.3579 3.40179 72.9206L3.74298 73.2153L6.40935 76.084C5.28191 77.3335 4.32706 78.7083 2.69539 79.0006Z" fill="#14212A"/>
<path d="M3.24283 92.0077L5.07596 89.7014C5.53897 85.6082 2.1041 86.2506 0.867733 82.8506C1.12936 80.8211 1.28792 81.2295 2.95988 79.4266C4.73085 80.7384 5.42646 81.4749 6.95269 83.075L9.24179 85.5059L9.54525 85.6946L11.9799 88.4642L9.15909 91.455L6.59027 88.8853C5.73742 89.9195 4.28202 91.0977 3.24283 92.0077Z" fill="#14212A"/>
<path d="M6.59027 88.8853L9.24179 85.5059L9.54525 85.6946L11.9799 88.4642L9.15909 91.455L6.59027 88.8853Z" fill="#33424E"/>
<path d="M11.9799 88.4642L13.1036 87.8951L15.461 85.8366C16.3905 86.7249 17.7806 88.1418 18.7433 88.9037C17.7177 90.1749 17.1873 90.937 15.8934 91.9724C14.8424 92.9315 14.2616 93.4351 13.0933 94.2426C11.1345 93.9675 10.9206 93.1451 9.15909 91.455L11.9799 88.4642Z" fill="#5D6A71"/>
<path d="M13.1036 87.8951L15.461 85.8366C16.3905 86.7249 17.7806 88.1418 18.7433 88.9037L16.4222 90.7854C14.2191 91.0455 15.0449 91.2344 13.2529 90.2059C12.859 89.0369 12.8659 89.1047 13.1036 87.8951Z" fill="#14212A"/>
<path d="M9.5259 73.2407C11.8718 70.5082 13.1608 69.2377 15.816 66.8342L18.8803 69.7491L12.4597 76.0799L9.5259 73.2407Z" fill="#7C8A92"/>
<path d="M12.4597 76.0799L18.8803 69.7491L21.9394 72.8825C20.104 74.2261 17.1206 77.3291 15.3957 79.0203L12.4597 76.0799Z" fill="#14212A"/>
<path d="M15.8423 85.6427C14.6822 84.5695 14.3186 84.2538 13.4404 82.9497C13.6897 81.0758 14.3636 80.9772 15.967 79.2928C17.345 80.8938 18.0498 81.1286 18.218 82.9028C17.3578 84.0151 16.8271 84.6403 15.8423 85.6427Z" fill="#14212A"/>
<path d="M15.3957 79.0203C13.7497 81.0215 13.5316 81.7183 10.9617 80.9754L10.2812 79.6895C10.5366 77.4963 10.6282 78.0172 12.4597 76.0799L15.3957 79.0203Z" fill="#7C8A92"/>
<path d="M9.54525 85.6946C10.9336 84.3061 11.0282 83.7277 12.6884 83.3956C13.9927 84.2372 14.4126 84.732 15.461 85.8366L13.1036 87.8951L11.9799 88.4642L9.54525 85.6946Z" fill="#7C8A92"/>
<path d="M60.0378 28.5048L66.3555 22.2107C68.0179 23.8974 67.9444 24.4255 69.8244 24.7034C70.8877 23.7849 71.383 23.3225 72.2986 22.2635C73.6127 23.4232 74.8401 24.2213 75.3234 25.8342L75.2174 26.8718C74.0543 27.6905 73.9268 27.8822 72.5639 28.0701C71.439 27.4564 71.2835 27.3007 70.42 26.3321L70.203 26.0851C66.447 26.0013 66.2751 30.1966 63.6037 31.0426C61.4221 30.4182 61.8456 30.3297 60.0378 28.5048Z" fill="#14212A"/>
</svg>
