<svg width="168" height="173" viewBox="0 0 168 173" fill="none" xmlns="http://www.w3.org/2000/svg">
<path d="M10.3112 4.74918C10.5136 2.12536 10.0413 1.67662 11.5687 0.297984C19.6899 -0.278694 32.16 0.156574 40.7903 0.171266L129.522 0.14065C132.773 0.137589 143.63 -0.0883063 146.145 0.447967C146.844 2.17494 146.679 3.67601 146.642 5.52358L146.654 10.4211L146.593 15.5861C146.544 24.4658 146.556 33.3455 146.617 42.2246C132.822 42.0612 119.027 42.0434 105.232 42.1708L104.846 41.8818C103.699 42.0318 100.822 42.0189 99.534 42.0447L99.5095 44.9109L99.7487 47.2268L104.95 47.3376C117.23 46.8044 133.847 47.2745 146.495 47.239L151.978 47.2819L156.99 47.2225L167.497 47.2335L167.417 128.66C167.417 136.967 168.018 159.761 167.092 166.781C164.117 168.283 163.958 166.071 162.32 168.319C162.216 170.608 162.633 171.163 161.369 172.504C151.009 173.1 137.545 172.747 126.965 172.747L65.7121 172.726C58.6704 172.723 25.9771 173.56 21.4196 172.322C19.788 169.433 22.0882 169.783 19.7144 167.334C18.4754 167.183 17.7024 167.11 16.4573 167.085C15.3654 165.2 15.7581 164.833 15.7274 162.333C12.9365 162.406 11.8631 162.919 10.4523 160.453L10.6424 156.952C9.01696 156.923 7.94965 156.843 6.34259 156.652C4.96247 155.039 5.3612 154.367 5.15878 151.864C3.52718 151.783 1.78517 151.611 0.147431 151.482C2.00598 151.406 2.95677 151.522 4.62518 150.682C6.12183 148.601 5.5329 144.326 5.50223 141.37L5.44707 140.911C4.76621 125.007 5.29374 105.363 5.36735 89.2392L5.39801 83.3555L5.40416 78.3613C4.95639 56.4169 5.38573 33.1986 5.44707 11.16C3.64986 11.3736 2.06122 11.1447 0.257867 10.9849C5.07906 10.7388 4.34912 10.8967 5.85804 6.50859C7.40377 5.11588 7.74726 5.56154 10.2867 5.43298L10.3112 4.74918Z" fill="#C58453"/>
<path d="M10.3112 4.74918C10.5136 2.12536 10.0413 1.67662 11.5687 0.297984C19.6899 -0.278694 32.16 0.156574 40.7903 0.171266L129.522 0.14065C132.773 0.137589 143.63 -0.0883063 146.145 0.447967C146.844 2.17494 146.679 3.67601 146.642 5.52358L146.654 10.4211L146.593 15.5861C146.544 24.4658 146.556 33.3455 146.617 42.2246C132.822 42.0612 119.027 42.0434 105.232 42.1708L104.846 41.8818C103.699 42.0318 100.822 42.0189 99.534 42.0447L99.5095 44.9109L99.7487 47.2268C99.6689 48.9519 99.5279 50.8791 99.5279 52.5865L94.5226 52.6544L89.5972 52.6208L89.3948 49.5617L89.0513 52.6397L84.0522 52.7609L84.1074 57.1821C78.6544 56.4402 80.5927 56.9036 78.6667 52.404L78.5195 52.0698L78.3478 52.7701L73.5388 52.7922L68.1104 52.5828L68.1042 57.4943L68.0184 62.8712C64.8288 63.0518 60.8234 62.9446 57.5724 62.9483L57.4129 68.6061L56.6032 73.1198C60.3204 72.8749 61.6024 72.8302 65.2766 73.3407C61.3632 73.5403 56.4745 74.2994 53.0518 72.944C51.5367 71.1271 52.0336 71.1693 51.8986 68.2529L47.8257 68.0411L42.0845 67.8537L41.7901 68.0098C42.0047 69.7864 42.1581 70.9869 42.5814 72.7592C44.2252 73.8391 45.0962 73.446 47.378 73.465C47.2982 75.1993 47.4639 77.012 46.4886 78.3154C42.9923 78.9122 9.66713 79.1332 5.96842 78.4311L5.40416 78.3613C4.95639 56.4169 5.38573 33.1986 5.44707 11.16C3.64986 11.3736 2.06122 11.1447 0.257867 10.9849C5.07906 10.7388 4.34912 10.8967 5.85804 6.50859C7.40377 5.11588 7.74726 5.56154 10.2867 5.43298L10.3112 4.74918Z" fill="#F0C07C"/>
<path d="M31.4178 21.1753L36.7849 21.46L36.7051 26.377L31.7367 26.5295L31.4362 26.4297L31.4178 21.1753Z" fill="#2C2C2E"/>
<path d="M10.3112 4.74918C10.5136 2.12536 10.0413 1.67662 11.5687 0.297984C19.6899 -0.278694 32.16 0.156574 40.7903 0.171266L129.522 0.14065C132.773 0.137589 143.63 -0.0883063 146.145 0.447967C146.844 2.17494 146.679 3.67601 146.642 5.52358L146.654 10.4211L146.593 15.5861C145.268 15.4912 143.219 15.6381 142.508 14.7633C140.821 12.6874 142.25 10.8857 139.435 10.71C133.031 10.3115 126.345 10.418 119.935 10.4296L84.1565 10.4768L40.5633 10.4125C34.5215 10.4051 21.99 10.0887 16.5677 10.9114C14.2859 13.2194 17.1934 14.3262 14.4516 15.8695C12.317 15.703 12.182 15.3026 10.7958 16.3611C8.22569 25.1551 12.4273 74.0221 9.71004 77.9964L5.96842 78.4311L5.40416 78.3613C4.95639 56.4169 5.38573 33.1986 5.44707 11.16C3.64986 11.3736 2.06122 11.1447 0.257867 10.9849C5.07906 10.7388 4.34912 10.8967 5.85804 6.50859C7.40377 5.11588 7.74726 5.56154 10.2867 5.43298L10.3112 4.74918Z" fill="#F6D9A5"/>
<path d="M10.3112 4.74918C10.5136 2.12536 10.0413 1.67662 11.5687 0.297984C19.6899 -0.278694 32.16 0.156574 40.7903 0.171266L129.522 0.14065C132.773 0.137589 143.63 -0.0883063 146.145 0.447967C146.844 2.17494 146.679 3.67601 146.642 5.52358C132.583 5.52175 13.1757 6.42289 10.3112 4.74918Z" fill="#572E1C"/>
<path d="M0.257867 10.9849C5.07906 10.7388 4.34912 10.8967 5.85804 6.50859C7.40377 5.11588 7.74726 5.56154 10.2867 5.43298C10.3541 8.20434 10.8449 8.67267 9.59356 10.5961C7.9497 10.9451 7.12161 11.0418 5.44707 11.16C3.64986 11.3736 2.06122 11.1447 0.257867 10.9849Z" fill="#693922"/>
<path d="M31.6631 36.8374C45.6483 36.8992 59.6334 36.8876 73.6186 36.8031L78.679 36.8631L83.9111 36.955L83.9356 42.2001L84.0522 52.7609L84.1074 57.1821C78.6544 56.4402 80.5927 56.9036 78.6667 52.404L78.5195 52.0698L78.3478 52.7701L73.5388 52.7922L68.1104 52.5828L68.1042 57.4943L68.0184 62.8712C64.8288 63.0518 60.8234 62.9446 57.5724 62.9483L57.4129 68.6061L56.6032 73.1198C60.3204 72.8749 61.6024 72.8302 65.2766 73.3407C61.3632 73.5403 56.4745 74.2994 53.0518 72.944C51.5367 71.1271 52.0336 71.1693 51.8986 68.2529L47.8257 68.0411L42.0845 67.8537L42.244 63.0297L36.4353 63.1068L31.6999 63.0371L31.7613 57.9614L31.8656 57.585L31.5527 53.6186L31.6631 36.8374Z" fill="#636876"/>
<path d="M47.6724 42.3159C48.0895 44.9568 47.6479 45.0701 49.2059 46.5809L52.2728 47.1435L57.6093 47.228L57.6829 47.8188L57.5479 51.6511L57.6093 52.1757L57.4682 52.5626L57.5848 57.6186L57.5724 62.9483L57.4129 68.6061L56.6032 73.1198C60.3204 72.8749 61.6024 72.8302 65.2766 73.3407C61.3632 73.5403 56.4745 74.2994 53.0518 72.944C51.5367 71.1271 52.0336 71.1693 51.8986 68.2529L47.8257 68.0411L42.0845 67.8537L42.244 63.0297L36.4353 63.1068L31.6999 63.0371L31.7613 57.9614L31.8656 57.585L31.5527 53.6186C33.2089 53.3817 34.8282 53.0113 36.4598 52.6654C36.3555 51.4337 36.4659 48.513 36.4843 47.1901C39.6985 47.1735 43.2377 47.9847 46.0961 46.8748C47.8319 45.1558 47.3044 45.3211 47.6724 42.3159Z" fill="#68525D"/>
<path d="M36.4598 52.6654C39.9193 52.5638 43.7713 52.3373 47.1817 52.6648L47.1879 57.5592C47.2002 60.3673 47.6663 60.671 46.3843 62.6489C44.6178 62.9997 44.0535 63.0279 42.244 63.0297L36.4353 63.1068L31.6999 63.0371L31.7613 57.9614L31.8656 57.585L31.5527 53.6186C33.2089 53.3817 34.8282 53.0113 36.4598 52.6654Z" fill="#474957"/>
<path d="M36.4598 52.6654C39.9193 52.5638 43.7713 52.3373 47.1817 52.6648L47.1879 57.5592C44.4461 57.7257 40.1401 58.3128 37.7663 57.2991C36.1163 55.517 36.6377 55.7141 36.4598 52.6654Z" fill="#D24548"/>
<path d="M31.8656 57.585C34.6872 57.5843 34.3006 57.1717 36.3984 58.4855L36.9934 60.0386C35.5336 63.1215 35.0797 62.8381 31.6999 63.0371L31.7613 57.9614L31.8656 57.585Z" fill="#252A33"/>
<path d="M47.7399 52.6556C50.1566 52.6269 50.1689 52.1885 51.549 53.5213C52.7083 58.1463 52.0213 63.3334 51.8986 68.2529L47.8257 68.0411L42.0845 67.8537L42.244 63.0297C44.0535 63.0279 44.6178 62.9997 46.3843 62.6489C47.6663 60.671 47.2002 60.3673 47.1879 57.5592L47.1817 52.6648L47.7399 52.6556Z" fill="#2D323C"/>
<path d="M47.1817 52.6648L47.7399 52.6556C47.7276 57.7839 47.7582 62.9128 47.8257 68.0411L42.0845 67.8537L42.244 63.0297C44.0535 63.0279 44.6178 62.9997 46.3843 62.6489C47.6663 60.671 47.2002 60.3673 47.1879 57.5592L47.1817 52.6648Z" fill="#343C46"/>
<path d="M56.6032 73.1198C55.5176 73.0432 54.7079 72.8687 53.6529 72.6655C51.7943 70.3551 52.1011 54.1873 53.2419 52.7989L57.4682 52.5626L57.5848 57.6186L57.5724 62.9483L57.4129 68.6061L56.6032 73.1198Z" fill="#8A8FA3"/>
<path d="M52.2728 47.1435L57.6093 47.228L57.6829 47.8188L57.5479 51.6511C55.7507 52.0759 54.8368 52.4493 53.0457 51.8647C51.8373 49.9216 52.2666 49.8268 52.2728 47.1435Z" fill="#2D323C"/>
<path d="M62.9948 57.6045L68.1042 57.4943L68.0184 62.8712C64.8288 63.0518 60.8234 62.9446 57.5724 62.9483L57.5848 57.6186L62.9948 57.6045Z" fill="#474957"/>
<path d="M63.0684 51.9155L63.7676 52.3949L68.1104 52.5828L68.1042 57.4943L62.9948 57.6045L57.5848 57.6186L57.4682 52.5626L57.6093 52.1757C59.3145 52.1304 61.4061 52.1426 63.0684 51.9155Z" fill="#848287"/>
<path d="M63.7676 52.3949L68.1104 52.5828L68.1042 57.4943L62.9948 57.6045C62.9641 55.5464 62.6942 54.082 63.7676 52.3949Z" fill="#52656C"/>
<path d="M57.6093 47.228L68.0368 47.2599L68.1104 52.5828L63.7676 52.3949L63.0684 51.9155C61.4061 52.1426 59.3145 52.1304 57.6093 52.1757L57.5479 51.6511L57.6829 47.8188L57.6093 47.228Z" fill="#9DA7B1"/>
<path d="M57.6829 47.8188C60.1732 47.8451 60.8295 47.3853 62.3998 48.6734L63.0684 51.9155C61.4061 52.1426 59.3145 52.1304 57.6093 52.1757L57.5479 51.6511L57.6829 47.8188Z" fill="#C2C6D9"/>
<path d="M36.4843 47.1901C36.3187 44.9911 36.2083 43.9767 37.7478 42.5332C40.1891 41.5378 44.8509 42.1457 47.6724 42.3159C47.3044 45.3211 47.8319 45.1558 46.0961 46.8748C43.2377 47.9847 39.6985 47.1735 36.4843 47.1901Z" fill="#D24548"/>
<path d="M57.6093 47.228C57.5663 44.5969 57.1246 44.6171 58.3698 42.876C61.4612 41.4992 65.344 40.6617 67.8221 43.7722C67.9019 44.9329 68 46.0979 68.0368 47.2599L57.6093 47.228Z" fill="#2D323C"/>
<path d="M68.0368 47.2599C70.9565 47.2941 71.2447 46.7744 73.0113 48.2393C74.6797 52.4904 73.8271 52.2645 78.5195 52.0698L78.3478 52.7701L73.5388 52.7922L68.1104 52.5828L68.0368 47.2599Z" fill="#343C46"/>
<path d="M36.5211 20.8815C48.6416 21.2806 61.4122 21.0731 73.5817 20.8986C77.808 20.8582 85.3403 20.5821 89.2967 20.9702L89.4255 26.1364L88.6157 26.4217L84.0154 26.347L83.9111 36.955L78.679 36.8631L73.6186 36.8031C59.6334 36.8876 45.6483 36.8992 31.6631 36.8374L31.7367 26.5295L36.7051 26.377L36.7849 21.46L31.4178 21.1753C32.7549 20.9586 35.092 20.9384 36.5211 20.8815Z" fill="#767F8C"/>
<path d="M31.7367 26.5295L36.7051 26.377L36.7481 31.6883C42.5997 32.2724 67.0369 32.1738 73.5142 31.8732L73.6186 36.8031C59.6334 36.8876 45.6483 36.8992 31.6631 36.8374L31.7367 26.5295Z" fill="#B0BAC3"/>
<path d="M36.7849 21.46C45.8629 21.5555 64.657 20.9237 72.5083 21.8444C73.3855 23.3112 73.0665 23.0835 72.9315 25.171C72.0789 26.1787 71.8643 26.6696 70.3002 26.598C59.1182 26.0899 47.8933 26.625 36.7051 26.377L36.7849 21.46Z" fill="#B0BAC3"/>
<path d="M73.3426 26.3734L78.5011 26.3482L84.0154 26.347L83.9111 36.955L78.679 36.8631L73.6186 36.8031L73.5142 31.8732C67.0369 32.1738 42.5997 32.2724 36.7481 31.6883C47.8626 30.4352 61.7374 31.5084 73.085 31.3761C72.9133 29.1239 73.0113 28.565 73.3426 26.3734Z" fill="#9E9B9E"/>
<path d="M73.3426 26.3734L78.5011 26.3482C78.4152 29.0131 78.8508 29.1943 77.5504 31.0088C75.8452 31.2482 74.8147 31.3314 73.085 31.3761C72.9133 29.1239 73.0113 28.565 73.3426 26.3734Z" fill="#636876"/>
<path d="M73.5142 31.8732C75.8451 31.872 76.3971 31.49 78.1882 32.5399C78.7341 34.295 78.6667 35.0774 78.679 36.8631L73.6186 36.8031L73.5142 31.8732Z" fill="#C2C6D9"/>
<path d="M73.3426 26.3734C73.4468 24.7603 73.4898 24.0415 73.8639 22.4744C76.7346 20.2442 84.5429 21.1992 89.2967 20.9702L89.4255 26.1364L88.6157 26.4217L84.0154 26.347L78.5011 26.3482L73.3426 26.3734Z" fill="#2C2C2E"/>
<path d="M88.6157 26.4217L89.4255 26.1364C91.9036 26.2791 92.4248 25.8457 93.9092 27.2133C95.3077 33.2776 99.2518 31.8444 104.772 31.7208L104.846 41.8818C103.699 42.0318 100.822 42.0189 99.534 42.0447L99.5095 44.9109L99.7487 47.2268C99.6689 48.9519 99.5279 50.8791 99.5279 52.5865L94.5226 52.6544L89.5972 52.6208L89.3948 49.5617L89.0513 52.6397L84.0522 52.7609L83.9356 42.2001L83.9111 36.955L84.0154 26.347L88.6157 26.4217Z" fill="#2C2C2E"/>
<path d="M88.6157 26.4217L89.4255 26.1364L89.4132 37.5206L89.3335 41.6878C89.3457 43.9608 89.2537 47.3927 89.3948 49.5617L89.0513 52.6397L84.0522 52.7609L83.9356 42.2001L83.9111 36.955L84.0154 26.347L88.6157 26.4217Z" fill="#CAD4DF"/>
<path d="M88.6157 26.4217L89.4255 26.1364L89.4132 37.5206L89.3335 41.6878C89.3457 43.9608 89.2537 47.3927 89.3948 49.5617L89.0513 52.6397L84.0522 52.7609L83.9356 42.2001C85.7758 42.3312 86.3217 42.4971 88.0331 41.8267C89.4807 39.6155 88.8918 35.5053 88.8795 32.5068L88.7508 26.9286L88.6157 26.4217Z" fill="#8A8FA3"/>
<path d="M88.8795 32.5068C87.3399 32.2448 86.837 32.1389 85.3833 31.5885C84.0645 29.4245 84.175 30.284 84.5307 28.2448C86.3586 26.6764 85.9108 27.1453 88.7508 26.9286L88.8795 32.5068Z" fill="#C2C6D9"/>
<path d="M89.4132 37.5206C91.1 37.4294 92.6457 37.2084 94.308 36.9929L94.3387 42.0765L99.534 42.0447L99.5095 44.9109L99.7487 47.2268C99.6689 48.9519 99.5279 50.8791 99.5279 52.5865L94.5226 52.6544L89.5972 52.6208L89.3948 49.5617C89.2537 47.3927 89.3457 43.9608 89.3335 41.6878L89.4132 37.5206Z" fill="#502F3C"/>
<path d="M94.3387 42.0765L99.534 42.0447L99.5095 44.9109L99.7487 47.2268C99.6689 48.9519 99.5279 50.8791 99.5279 52.5865L94.5226 52.6544L94.2282 51.637L94.4307 45.8365L94.3387 42.0765Z" fill="#6F6F7D"/>
<path d="M94.3387 42.0765L99.534 42.0447L99.5095 44.9109L98.8593 46.1493C97.3872 46.0134 95.909 45.9094 94.4307 45.8365L94.3387 42.0765Z" fill="#8A8FA3"/>
<path d="M89.4132 37.5206C91.1 37.4294 92.6457 37.2084 94.308 36.9929L94.3387 42.0765L94.4307 45.8365L94.2282 51.637C93.8111 48.8509 94.4 47.0223 93.6332 43.7557C92.063 41.7961 92.3513 42.3691 89.3335 41.6878L89.4132 37.5206Z" fill="#6A313F"/>
<path d="M94.308 36.9929C96.6879 36.8662 97.2583 36.4273 99.0494 37.4533C99.6566 39.3266 99.5402 40.1065 99.534 42.0447L94.3387 42.0765L94.308 36.9929Z" fill="#ABAEBC"/>
<path d="M36.5211 20.8815C36.699 18.8557 36.4598 17.6712 37.478 16.1854C41.3055 15.7844 71.8459 15.6112 73.3058 16.5356C73.4346 18.0446 73.5572 19.3755 73.5817 20.8986C61.4122 21.0731 48.6416 21.2806 36.5211 20.8815Z" fill="#2C2C2E"/>
<path d="M31.7613 57.9614C29.6205 57.8451 28.7741 57.8549 26.664 57.2023C26.0568 52.745 26.2285 31.782 26.5475 27.1306C28.5042 26.014 28.8354 26.4248 31.4362 26.4297L31.7367 26.5295L31.6631 36.8374L31.5527 53.6186L31.8656 57.585L31.7613 57.9614Z" fill="#2C2C2E"/>
<path d="M36.4353 63.1068L42.244 63.0297L42.0845 67.8537L41.7901 68.0098C40.0971 68.0827 39.312 68.0374 37.6191 67.8617C36.2635 66.2712 36.6499 65.5691 36.4353 63.1068Z" fill="#252A33"/>
<path d="M156.99 47.2225L167.497 47.2335L167.417 128.66C167.417 136.967 168.018 159.761 167.092 166.781C164.117 168.283 163.958 166.071 162.32 168.319C162.216 170.608 162.633 171.163 161.369 172.504C151.009 173.1 137.545 172.747 126.965 172.747L65.7121 172.726C58.6704 172.723 25.9771 173.56 21.4196 172.322C19.788 169.433 22.0882 169.783 19.7144 167.334C18.4754 167.183 17.7024 167.11 16.4573 167.085C15.3654 165.2 15.7581 164.833 15.7274 162.333C12.9365 162.406 11.8631 162.919 10.4523 160.453L10.6424 156.952C9.01696 156.923 7.94965 156.843 6.34259 156.652C4.96247 155.039 5.3612 154.367 5.15878 151.864C3.52718 151.783 1.78517 151.611 0.147431 151.482C2.00598 151.406 2.95677 151.522 4.62518 150.682C6.12183 148.601 5.5329 144.326 5.50223 141.37L10.2254 141.454L15.9053 141.362L98.2827 141.351C111.513 141.359 128.093 141.837 141.023 141.33C143.293 141.277 145.796 140.761 147.261 142.745C147.237 142.459 147.415 141.972 147.501 141.653C149.077 141.508 149.555 141.469 151.064 140.963L151.383 140.852L151.991 140.71L151.966 89.4448C151.892 86.1189 152.028 82.1715 152.064 78.7959C151.782 68.6533 151.997 57.5048 151.978 47.2819L156.99 47.2225Z" fill="#9E9B9E"/>
<path d="M151.383 140.852L151.991 140.71L152.027 151.863C151.942 154.311 152.359 154.802 151.089 156.448C149.427 156.94 148.881 157.061 147.163 157.233C146.305 159.66 147.163 160.594 145.845 161.911C138.827 162.711 130.976 162.136 123.83 162.254C88.0087 162.85 51.4693 161.197 15.7274 162.333C12.9365 162.406 11.8631 162.919 10.4523 160.453L10.6424 156.952C9.01696 156.923 7.94965 156.843 6.34259 156.652C4.96247 155.039 5.3612 154.367 5.15878 151.864C3.52718 151.783 1.78517 151.611 0.147431 151.482C2.00598 151.406 2.95677 151.522 4.62518 150.682C6.12183 148.601 5.5329 144.326 5.50223 141.37L10.2254 141.454L15.9053 141.362L98.2827 141.351C111.513 141.359 128.093 141.837 141.023 141.33C143.293 141.277 145.796 140.761 147.261 142.745C147.237 142.459 147.415 141.972 147.501 141.653C149.077 141.508 149.555 141.469 151.064 140.963L151.383 140.852Z" fill="#844D33"/>
<path d="M10.4523 160.453L11.1025 157.605C15.2428 154.805 127.106 158.597 146.127 156.404L147.219 152.806C149.138 151.417 149.145 151.893 152.027 151.863C151.942 154.311 152.359 154.802 151.089 156.448C149.427 156.94 148.881 157.061 147.163 157.233C146.305 159.66 147.163 160.594 145.845 161.911C138.827 162.711 130.976 162.136 123.83 162.254C88.0087 162.85 51.4693 161.197 15.7274 162.333C12.9365 162.406 11.8631 162.919 10.4523 160.453Z" fill="#572E1C"/>
<path d="M141.023 141.33C143.293 141.277 145.796 140.761 147.261 142.745C147.028 144.197 146.906 144.545 146.348 145.909C144.906 146.862 71.9931 146.433 64.473 146.441L31.0804 146.503C24.9956 146.515 16.9357 146.786 11.1025 146.232C10.0229 144.489 10.348 143.727 10.2254 141.454L15.9053 141.362L98.2827 141.351C111.513 141.359 128.093 141.837 141.023 141.33Z" fill="#F0C07C"/>
<path d="M5.15878 151.864C7.83314 151.83 8.25643 151.385 10.2193 152.547C10.759 154.279 10.6608 155.179 10.6424 156.952C9.01696 156.923 7.94965 156.843 6.34259 156.652C4.96247 155.039 5.3612 154.367 5.15878 151.864Z" fill="#572E1C"/>
<path d="M151.978 47.2819L156.99 47.2225L157.039 115.739C157.045 124.486 157.609 142.76 156.824 150.809C155.573 152.02 154.021 151.802 152.027 151.863L151.991 140.71L151.966 89.4448C151.892 86.1189 152.028 82.1715 152.064 78.7959C151.782 68.6533 151.997 57.5048 151.978 47.2819Z" fill="#572E1C"/>
<path d="M146.495 47.239L151.978 47.2819C151.997 57.5048 151.782 68.6533 152.064 78.7959C142.496 78.9661 84.4387 80.065 78.8814 78.417L78.4888 78.4366C78.2005 68.4776 83.8867 78.9581 84.8313 68.6067C86.6776 67.6089 91.8975 68.046 94.3081 68.0931L94.3571 57.6327L104.576 57.6713C103.766 53.1607 103.785 53.79 99.5279 52.5865C99.5279 50.8791 99.6689 48.9519 99.7487 47.2268L104.95 47.3376C117.23 46.8044 133.847 47.2745 146.495 47.239Z" fill="#F0C07C"/>
<path d="M146.495 47.239L151.978 47.2819C151.997 57.5048 151.782 68.6533 152.064 78.7959C142.496 78.9661 84.4387 80.065 78.8814 78.417L146.562 78.2964C146.63 67.9437 146.605 57.5911 146.495 47.239Z" fill="#D19263"/>
<path d="M99.7487 47.2268L104.95 47.3376C104.907 50.8883 104.895 54.1194 104.576 57.6713C103.766 53.1607 103.785 53.79 99.5279 52.5865C99.5279 50.8791 99.6689 48.9519 99.7487 47.2268Z" fill="#42302F"/>
<path d="M89.3948 49.5617L89.5972 52.6208L94.5226 52.6544L99.5279 52.5865C103.785 53.79 103.766 53.1607 104.576 57.6713L94.3571 57.6327L94.3081 68.0931C91.8975 68.046 86.6776 67.6089 84.8313 68.6067C83.8867 78.9581 78.2005 68.4776 78.4888 78.4366C76.71 78.7298 75.8452 78.8633 74.1093 79.4338C73.2322 80.8382 73.5327 82.1635 73.6186 83.8917L73.5572 84.4629L73.4407 89.0849C73.4775 92.0595 72.9745 91.9322 74.4773 93.7846C79.2556 95.4626 83.7516 94.2279 89.1678 94.3136L89.0329 98.1024C87.4442 99.5679 87.1252 99.189 84.5858 99.6187L84.181 99.7932L83.9173 100.623C83.3101 103.492 83.4144 110.276 83.3837 113.498C80.9363 115.623 76.2807 115.236 72.8457 115.112L68.3435 115.122L68.2024 110.112L57.5479 110.159L52.4017 110.087L52.4139 106.568C52.7451 102.948 53.2665 99.4443 48.476 99.2465C44.8447 99.0965 40.1892 99.4228 36.5211 99.5324C36.5886 97.8477 36.6254 97.2245 37.0057 95.5875C39.8579 93.1345 48.1754 94.3503 52.6041 94.4133C52.6715 90.9527 52.6532 87.4908 52.555 84.0313C53.0151 74.6441 48.3042 83.7099 47.378 73.465C45.0962 73.446 44.2252 73.8391 42.5814 72.7592C42.1581 70.9869 42.0047 69.7864 41.7901 68.0098L42.0845 67.8537L47.8257 68.0411L51.8986 68.2529C52.0336 71.1693 51.5367 71.1271 53.0518 72.944C56.4745 74.2994 61.3632 73.5403 65.2766 73.3407C61.6024 72.8302 60.3204 72.8749 56.6032 73.1198L57.4129 68.6061L57.5724 62.9483C60.8234 62.9446 64.8288 63.0518 68.0184 62.8712L68.1042 57.4943L68.1104 52.5828L73.5388 52.7922L78.3478 52.7701L78.5195 52.0698L78.6667 52.404C80.5927 56.9036 78.6544 56.4402 84.1074 57.1821L84.0522 52.7609L89.0513 52.6397L89.3948 49.5617Z" fill="#2E2F39"/>
<path d="M68.1104 52.5828L73.5388 52.7922L73.4591 73.3511L65.2766 73.3407C61.6024 72.8302 60.3204 72.8749 56.6032 73.1198L57.4129 68.6061L57.5724 62.9483C60.8234 62.9446 64.8288 63.0518 68.0184 62.8712L68.1042 57.4943L68.1104 52.5828Z" fill="#90909A"/>
<path d="M68.0184 62.8712C67.9693 65.9811 68.46 65.8243 66.9818 68.019C64.6877 69.2648 60.2161 68.7138 57.4129 68.6061L57.5724 62.9483C60.8234 62.9446 64.8288 63.0518 68.0184 62.8712Z" fill="#6F6F7D"/>
<path d="M73.4284 99.6457L84.181 99.7932L83.9173 100.623C83.3101 103.492 83.4144 110.276 83.3837 113.498C80.9363 115.623 76.2807 115.236 72.8457 115.112C72.8519 113.025 73.0297 112.101 73.3855 110.104C73.4959 106.818 73.4161 102.974 73.4284 99.6457Z" fill="#848287"/>
<path d="M63.0009 88.5792L68.1042 88.6153L68.1533 105.238L68.2024 110.112L57.5479 110.159L57.597 109.444L57.6093 104.649L58.0141 104.778C59.0384 105.08 61.6883 105.747 62.2649 104.603C64.2522 100.675 63.1726 92.8462 63.0009 88.5792Z" fill="#8A8FA3"/>
<path d="M68.1533 105.238L68.2024 110.112L57.5479 110.159L57.597 109.444C66.3622 110.42 58.2656 105.063 68.1533 105.238Z" fill="#848287"/>
<path d="M58.2042 83.6964C60.5535 83.7895 60.7744 83.4203 62.5164 84.5755C62.9765 86.2786 62.9641 86.807 63.0009 88.5792C63.1726 92.8462 64.2522 100.675 62.2649 104.603C61.6883 105.747 59.0384 105.08 58.0141 104.778L57.6093 104.649L57.6278 88.9251L57.4314 84.9343L57.6829 84.0135L58.2042 83.6964Z" fill="#CAD4DF"/>
<path d="M58.2042 83.6964C60.5535 83.7895 60.7744 83.4203 62.5164 84.5755C62.9765 86.2786 62.9641 86.807 63.0009 88.5792C63.1726 92.8462 64.2522 100.675 62.2649 104.603C61.6883 105.747 59.0384 105.08 58.0141 104.778C59.7929 104.773 60.3634 104.7 62.1054 104.364C62.8967 101.701 62.5409 92.4678 62.2649 89.421C60.7559 88.5566 59.609 88.9073 57.6278 88.9251L57.4314 84.9343L57.6829 84.0135L58.2042 83.6964Z" fill="#B0BAC3"/>
<path d="M89.3948 49.5617L89.5972 52.6208L89.174 62.9201L78.3846 63.1528L78.3478 52.7701L78.5195 52.0698L78.6667 52.404C80.5927 56.9036 78.6544 56.4402 84.1074 57.1821L84.0522 52.7609L89.0513 52.6397L89.3948 49.5617Z" fill="#474957"/>
<path d="M84.0522 52.7609L89.0513 52.6397C88.9102 55.4099 89.3396 55.6707 88.0086 57.6492C86.2482 58.0325 85.9046 57.7692 84.1074 57.1821L84.0522 52.7609Z" fill="#6F6F7D"/>
<path d="M57.5785 78.7427C60.3388 78.5015 64.3258 77.8348 66.7732 78.8033C68.4355 80.3662 68.1226 80.9667 68.0674 83.3653L68.1042 88.6153L63.0009 88.5792C62.9641 86.807 62.9765 86.2786 62.5164 84.5755C60.7744 83.4203 60.5535 83.7895 58.2042 83.6964L57.6829 84.0135L57.5785 78.7427Z" fill="#595D6A"/>
<path d="M58.2042 83.6964C59.7622 82.9771 61.3141 83.2146 63.0745 83.2661L68.0674 83.3653L68.1042 88.6153L63.0009 88.5792C62.9641 86.807 62.9765 86.2786 62.5164 84.5755C60.7744 83.4203 60.5535 83.7895 58.2042 83.6964Z" fill="#767F8C"/>
<path d="M57.6829 84.0135L57.5785 78.7427C60.1241 79.05 61.0993 78.6735 62.5653 80.1635L63.0745 83.2661C61.3141 83.2146 59.7622 82.9771 58.2042 83.6964L57.6829 84.0135Z" fill="#636876"/>
<path d="M52.4139 106.568C54.0516 106.347 54.4258 106.38 55.8672 105.65C57.7074 102.568 56.5543 90.848 57.4314 84.9343L57.6278 88.9251L57.6093 104.649L57.597 109.444L57.5479 110.159L52.4017 110.087L52.4139 106.568Z" fill="#474957"/>
<path d="M68.2024 110.112L73.3855 110.104C73.0297 112.101 72.8519 113.025 72.8457 115.112L68.3435 115.122L68.2024 110.112Z" fill="#6F6F7D"/>
<path d="M89.1678 94.3136C92.0016 94.3276 92.3329 93.8318 94.1669 95.2049C94.3816 96.8284 94.4552 97.7246 94.4613 99.361L94.3142 99.7198L94.3018 130.951C76.023 130.896 54.7141 130.347 36.6315 131.089C34.6503 131.091 33.6996 131.189 31.7858 130.533C31.1111 125.884 31.5282 106.252 31.6386 100.426C33.3192 99.2949 33.9142 99.6273 36.1899 99.4773L36.5211 99.5324C40.1892 99.4228 44.8447 99.0965 48.476 99.2465C53.2665 99.4443 52.7451 102.948 52.4139 106.568L52.4017 110.087L57.5479 110.159L68.2024 110.112L68.3435 115.122L72.8457 115.112C76.2807 115.236 80.9363 115.623 83.3837 113.498C83.4144 110.276 83.3101 103.492 83.9173 100.623L84.181 99.7932L84.5858 99.6187C87.1252 99.189 87.4442 99.5679 89.0329 98.1024L89.1678 94.3136Z" fill="#343C46"/>
<path d="M36.5211 99.5324C40.1892 99.4228 44.8447 99.0965 48.476 99.2465C53.2665 99.4443 52.7451 102.948 52.4139 106.568L52.4017 110.087L57.5479 110.159L68.2024 110.112L68.3435 115.122L72.8457 115.112C76.2807 115.236 80.9363 115.623 83.3837 113.498L83.402 115.119C80.8748 116.988 80.5988 114.655 78.4949 116.648C78.6912 118.1 79.0409 119.218 78.4275 120.48C68.2453 120.156 53.8369 121.056 43.2561 120.522C42.8021 120.107 42.4219 119.753 42.1029 119.463L41.7717 119.454C40.1707 120.918 39.4838 120.87 37.2511 120.196L36.8155 120.2L36.7051 100.04L36.1899 99.4773L36.5211 99.5324Z" fill="#8A8FA3"/>
<path d="M36.7051 100.04C39.5573 99.942 39.5696 99.459 41.4711 100.776C43.3358 105.641 42.0968 113.604 42.1029 119.463L41.7717 119.454C40.1707 120.918 39.4838 120.87 37.2511 120.196L36.8155 120.2L36.7051 100.04Z" fill="#C2C6D9"/>
<path d="M37.2511 120.196L37.5271 116.915C38.9379 115.428 38.2509 115.75 40.0665 115.515C41.8821 117.117 41.3423 116.562 41.7717 119.454C40.1707 120.918 39.4838 120.87 37.2511 120.196Z" fill="#CAD4DF"/>
<path d="M57.5479 110.159L68.2024 110.112L68.3435 115.122L57.5356 115.148L57.5479 110.159Z" fill="#474957"/>
<path d="M52.4017 110.087L57.5479 110.159L57.5356 115.148C55.6832 115.206 55.1251 115.28 53.3524 114.793C52.2422 113.086 52.555 112.353 52.4017 110.087Z" fill="#6F6F7D"/>
<path d="M41.7717 119.454L42.1029 119.463C42.4219 119.753 42.8021 120.107 43.2561 120.522C53.8369 121.056 68.2453 120.156 78.4275 120.48L83.7087 120.84L84.0093 122.044L84.1442 125.58L54.4442 125.613C49.991 125.624 41.5508 125.889 37.3798 125.247C36.4536 123.843 36.7664 122.001 36.8155 120.2L37.2511 120.196C39.4838 120.87 40.1707 120.918 41.7717 119.454Z" fill="#A39E8E"/>
<path d="M84.5858 99.6187C86.6345 99.7191 87.5055 99.383 88.8611 100.448C89.45 106.575 89.1433 115.744 89.1065 122.112C88.0944 122.358 85.1931 122.106 84.0093 122.044L83.7087 120.84L78.4275 120.48C79.0409 119.218 78.6912 118.1 78.4949 116.648C80.5988 114.655 80.8748 116.988 83.402 115.119L83.3837 113.498C83.4144 110.276 83.3101 103.492 83.9173 100.623L84.181 99.7932L84.5858 99.6187Z" fill="#C2C6D9"/>
<path d="M83.9173 100.623C84.0768 105.382 84.2116 115.992 83.7087 120.84L78.4275 120.48C79.0409 119.218 78.6912 118.1 78.4949 116.648C80.5988 114.655 80.8748 116.988 83.402 115.119L83.3837 113.498C83.4144 110.276 83.3101 103.492 83.9173 100.623Z" fill="#9E9B9E"/>
<path d="M89.1678 94.3136C92.0016 94.3276 92.3329 93.8318 94.1669 95.2049C94.3816 96.8284 94.4552 97.7246 94.4613 99.361L94.3142 99.7198C92.382 99.5581 91.2533 99.1351 89.7015 99.8514C89.0513 107.667 90.186 118.96 89.3273 125.649L89.1065 122.112C89.1433 115.744 89.45 106.575 88.8611 100.448C87.5055 99.383 86.6345 99.7191 84.5858 99.6187C87.1252 99.189 87.4442 99.5679 89.0329 98.1024L89.1678 94.3136Z" fill="#844D33"/>
<path d="M84.0093 122.044C85.1931 122.106 88.0944 122.358 89.1065 122.112L89.3273 125.649L84.1442 125.58L84.0093 122.044Z" fill="#E8E5E2"/>
<path d="M78.4888 78.4366L78.8814 78.417C84.4387 80.065 142.496 78.9661 152.064 78.7959C152.028 82.1715 151.892 86.1189 151.966 89.4448L146.679 89.2796L146.182 89.391L141.569 89.4143L141.079 89.2783L141.238 88.8033C118.733 89.2104 96.0071 88.8645 73.4407 89.0849L73.5572 84.4629L73.6186 83.8917C73.5327 82.1635 73.2322 80.8382 74.1093 79.4338C75.8452 78.8633 76.71 78.7298 78.4888 78.4366Z" fill="#693922"/>
<path d="M73.5572 84.4629C88.947 84.5731 104.337 84.5884 119.727 84.5088C124.621 84.4898 138.061 84.0846 141.876 84.758C142.373 86.4237 142.152 87.2189 141.238 88.8033C118.733 89.2104 96.0071 88.8645 73.4407 89.0849L73.5572 84.4629Z" fill="#F0C07C"/>
<path d="M73.6186 83.8917L119.727 83.8611C127.327 83.8593 138.502 83.5324 145.863 84.1188C146.887 85.6469 146.581 87.1675 146.679 89.2796L146.182 89.391L141.569 89.4143L141.079 89.2783L141.238 88.8033C142.152 87.2189 142.373 86.4237 141.876 84.758C138.061 84.0846 124.621 84.4898 119.727 84.5088C104.337 84.5884 88.947 84.5731 73.5572 84.4629L73.6186 83.8917Z" fill="#E6AD7F"/>
<path d="M47.378 73.465C48.3042 83.7099 53.0151 74.6441 52.555 84.0313L51.9047 84.038L52.0581 84.6833C52.1869 86.8994 52.5612 87.0133 51.5613 88.7329C41.4405 89.9866 25.2901 88.087 15.6477 89.069L15.4023 89.3849L10.3541 89.5912L9.97998 89.3953L5.36735 89.2392L5.39801 83.3555L5.40416 78.3613L5.96842 78.4311C9.66713 79.1332 42.9923 78.9122 46.4886 78.3154C47.4639 77.012 47.2982 75.1993 47.378 73.465Z" fill="#693922"/>
<path d="M15.6477 89.069C15.2858 87.2789 15.1876 86.9728 15.6415 85.2202C18.0215 84.0111 47.3105 84.6484 52.0581 84.6833C52.1869 86.8994 52.5612 87.0133 51.5613 88.7329C41.4405 89.9866 25.2901 88.087 15.6477 89.069Z" fill="#F0C07C"/>
<path d="M16.5554 83.8305C27.8908 83.9456 40.8516 83.5342 51.9047 84.038L52.0581 84.6833C47.3105 84.6484 18.0215 84.0111 15.6415 85.2202C15.1876 86.9728 15.2858 87.2789 15.6477 89.069L15.4023 89.3849L10.3541 89.5912L9.97998 89.3953C10.2989 88.2009 10.3481 86.5076 10.8449 84.6729C12.636 83.4975 14.0774 83.8966 16.5554 83.8305Z" fill="#E6AD7F"/>
<path d="M5.39801 83.3555C8.5876 83.2642 13.6051 83.0212 16.5554 83.8305C14.0774 83.8966 12.636 83.4975 10.8449 84.6729C10.3481 86.5076 10.2989 88.2009 9.97998 89.3953L5.36735 89.2392L5.39801 83.3555Z" fill="#7D442C"/>
<path d="M94.4613 99.361C97.4914 99.6947 97.24 99.1712 99.025 100.891C99.577 102.262 99.3991 128.2 98.9575 130.543C95.7372 131.48 95.4919 130.09 94.2528 131.845C94.1792 134.221 94.6086 134.494 93.2591 135.836C88.0454 136.175 39.2875 136.425 37.0548 135.61C36.5457 133.572 36.5456 133.195 36.6315 131.089C54.7141 130.347 76.023 130.896 94.3018 130.951L94.3142 99.7198L94.4613 99.361Z" fill="#925C41"/>
<path d="M146.679 89.2796L151.966 89.4448L151.991 140.71L151.383 140.852C149.47 140.953 149.034 141.143 147.501 140.196C146.311 138.346 147.39 134.038 146.746 130.955C146.139 122.234 146.575 108.484 146.63 99.388C146.667 97.451 146.887 95.7944 145.881 94.1293C145.838 92.2719 145.973 91.1963 146.182 89.391L146.679 89.2796Z" fill="#F0C07C"/>
<path d="M5.36735 89.2392L9.97998 89.3953L10.3541 89.5912L10.483 94.3466C10.348 108.29 10.3113 122.235 10.3726 136.18C10.1825 138.662 10.5996 139.118 9.2133 140.671C7.97427 140.765 6.67997 140.887 5.44707 140.911C4.76621 125.007 5.29374 105.363 5.36735 89.2392Z" fill="#F0C07C"/>
<path d="M141.447 94.3589C138.141 94.4641 137.447 94.9545 135.853 91.8881L136.448 90.2946C138.545 88.8963 138.165 89.3371 141.079 89.2783L141.569 89.4143L146.182 89.391C145.973 91.1963 145.838 92.2719 145.881 94.1293L141.447 94.3589Z" fill="#A3633B"/>
<path d="M141.569 89.4143L146.182 89.391C145.973 91.1963 145.838 92.2719 145.881 94.1293L141.447 94.3589L141.569 89.4143Z" fill="#F0C07C"/>
<path d="M146.746 130.955C147.39 134.038 146.311 138.346 147.501 140.196C149.034 141.143 149.47 140.953 151.383 140.852L151.064 140.963C149.555 141.469 149.077 141.508 147.501 141.653C147.415 141.972 147.237 142.459 147.261 142.745C145.796 140.761 143.293 141.277 141.023 141.33L141.171 140.871L141.864 136.683C143.551 136.726 144.771 136.574 146.427 136.408L146.746 130.955Z" fill="#D19263"/>
<path d="M10.8326 136.085C12.3047 136.413 13.4027 136.66 14.8319 137.14C15.4943 138.701 15.525 139.193 15.8194 140.885L15.9053 141.362L10.2254 141.454L5.50223 141.37L5.44707 140.911C6.67997 140.887 7.97427 140.765 9.2133 140.671C10.5996 139.118 10.1825 138.662 10.3726 136.18L10.8326 136.085Z" fill="#D19263"/>
<path d="M141.447 94.3589L145.881 94.1293C146.887 95.7944 146.667 97.451 146.63 99.388C144.863 99.4002 144.323 99.3261 142.587 98.9949C141.152 97.1253 141.606 97.1725 141.447 94.3589Z" fill="#AB6735"/>
<path d="M146.427 136.408C143.207 136.202 142.741 136.421 141.336 133.482L141.931 131.942C144.072 130.527 143.747 130.983 146.746 130.955L146.427 136.408Z" fill="#A3633B"/>
<path d="M10.3541 89.5912L15.4023 89.3849C15.3471 91.7014 15.7212 92.2725 14.6233 93.9946C12.8751 94.3974 12.2863 94.365 10.483 94.3466L10.3541 89.5912Z" fill="#F0C07C"/>
<path d="M10.8326 136.085C10.9123 133.192 10.3971 132.788 11.8692 131.027C13.0469 130.871 14.2369 130.698 15.4207 130.601C15.341 133.012 15.7151 133.872 14.5681 135.663C12.912 136.087 12.5501 136.095 10.8326 136.085Z" fill="#A3633B"/>
<path d="M15.8194 140.885C15.9237 138.505 15.5188 138.22 16.7763 136.637C18.3527 136.457 19.5304 136.368 21.1068 136.319C20.8799 138.739 21.2785 139.142 19.9168 140.694C18.3649 140.844 17.3836 140.907 15.8194 140.885Z" fill="#A3633B"/>
<path d="M141.171 140.871C138.263 140.943 137.392 141.416 136.03 138.672L136.582 137.498C138.938 136.128 138.699 136.601 141.864 136.683L141.171 140.871Z" fill="#A3633B"/>
<path d="M136.625 131.57C137.674 130.454 139.429 130.39 140.557 131.424C141.692 132.459 141.778 134.21 140.753 135.351C140.079 136.102 139.054 136.434 138.067 136.219C137.079 136.005 136.288 135.278 135.988 134.316C135.687 133.353 135.932 132.304 136.625 131.57Z" fill="#E6AD7F"/>
<path d="M16.3531 131.584C17.0217 130.859 18.0337 130.552 18.9967 130.781C19.9597 131.01 20.7203 131.739 20.9902 132.688C21.2663 133.637 21.0025 134.658 20.3094 135.36C19.2544 136.42 17.5491 136.443 16.4696 135.413C15.39 134.382 15.3349 132.679 16.3531 131.584Z" fill="#E6AD7F"/>
<path d="M16.5187 89.9346C17.2118 89.2453 18.2239 88.9839 19.1685 89.2502C20.107 89.5165 20.8307 90.2701 21.0638 91.2208C21.2908 92.1709 20.9903 93.1706 20.2665 93.8348C19.1869 94.837 17.4939 94.788 16.4757 93.724C15.4514 92.6607 15.4698 90.9747 16.5187 89.9346Z" fill="#A3633B"/>
<path d="M0.257867 10.9849C2.06122 11.1447 3.64986 11.3736 5.44707 11.16C5.38573 33.1986 4.95639 56.4169 5.40416 78.3613L5.39801 83.3555L5.36735 89.2392C5.29374 105.363 4.76621 125.007 5.44707 140.911L5.50223 141.37C5.5329 144.326 6.12183 148.601 4.62518 150.682C2.95677 151.522 2.00598 151.406 0.147431 151.482C-0.183796 130.162 0.147466 107.994 0.141332 86.6123C0.0186555 61.4031 0.0554498 36.194 0.257867 10.9849Z" fill="#572E1C"/>
<path d="M146.642 5.52358C149.163 5.55603 149.789 5.10057 151.432 6.38922C152.42 9.39198 151.923 9.76236 154.009 10.8514L157.223 10.7651C157.468 13.1367 157.119 14.0464 158.45 15.5438C161.142 15.8285 160.627 15.3522 162.13 16.9665C162.167 19.1588 161.725 20.1964 162.921 21.4024L166.681 21.5255C169.221 24.8098 165.988 38.235 168 42.2093C165.902 42.0171 159.425 42.2393 157.014 42.2705L151.991 42.1542L146.617 42.2246C146.556 33.3455 146.544 24.4658 146.593 15.5861L146.654 10.4211L146.642 5.52358Z" fill="#572E1C"/>
<path d="M157.223 10.7651C157.468 13.1367 157.119 14.0464 158.45 15.5438C161.142 15.8285 160.627 15.3522 162.13 16.9665C162.167 19.1588 161.725 20.1964 162.921 21.4024L166.681 21.5255C169.221 24.8098 165.988 38.235 168 42.2093C165.902 42.0171 159.425 42.2393 157.014 42.2705C157.069 34.1689 156.468 18.1872 157.223 10.7651Z" fill="#9E9B9E"/>
<path d="M146.654 10.4211L147.01 10.5104C149.04 11.0088 150.746 10.7804 151.764 11.7758C152.543 19.6736 151.874 33.6902 151.991 42.1542L146.617 42.2246C146.556 33.3455 146.544 24.4658 146.593 15.5861L146.654 10.4211Z" fill="#D19263"/>
<path d="M99.534 42.0447C100.822 42.0189 103.699 42.0318 104.846 41.8818L105.232 42.1708L104.95 47.3376L99.7487 47.2268L99.5095 44.9109L99.534 42.0447Z" fill="#C9343B"/>
</svg>
