<svg width="168" height="172" viewBox="0 0 168 172" fill="none" xmlns="http://www.w3.org/2000/svg">
<path d="M67.1841 0.238199C75.4475 0.209228 92.4395 -0.390331 99.9289 0.431176C100.825 1.55369 100.316 4.22248 100.909 4.38796C104.308 5.33812 114.731 3.15251 117.136 5.25366C117.141 12.1891 121.623 6.35359 125.508 9.10929L125.611 12.1267C127.129 13.5679 128.016 11.7211 129.877 13.2679C129.882 14.6482 129.701 15.6367 130.479 16.7047C132.346 17.3966 133.864 16.6742 135.921 16.7174C140.016 16.8039 136.93 18.7184 138.924 20.8947L141.677 20.9286C142.774 21.973 142.407 22.4375 142.49 24.4002C143.881 26.3889 144.258 24.2853 146.634 25.7835L146.644 28.795C148.24 30.3452 148.902 28.4763 150.837 30.2058L150.846 33.0032C151.88 34.1473 152.228 33.2095 154.574 33.753C155.265 35.044 154.922 39.4766 154.907 41.2998C156.572 43.0592 156.92 41.0057 159.061 42.6109C159.879 45.9671 158.718 49.1186 158.938 52.4876C159.164 55.9853 161.172 53.6008 163.058 55.0965C163.778 57.893 163.121 61.0057 163.111 63.9922C163.092 69.2522 165.296 65.7128 167.407 67.7442C168.201 75.8453 168.201 100.332 167.388 108.338C166.369 109.414 165.517 108.986 164.4 109.11C161.475 109.435 164.473 119.101 162.96 121.178C162.602 121.674 160.393 121.643 159.379 121.763C157.846 124.485 159.942 127.329 158.532 129.837C157.346 129.908 156.435 129.992 155.26 130.158C154.496 131.38 155.196 135.402 154.838 137.859C153.736 138.743 153.095 138.395 151.351 138.37C150.43 139.403 150.753 140.179 150.704 141.907C149.058 143.685 149.049 141.706 146.624 143.141C146.565 144.22 146.521 145.301 146.487 146.383C145.448 147.109 144.601 146.79 143.078 146.745C141.51 148.322 143.416 149.259 141.696 151.04L138.909 151.052C137.347 152.611 138.973 152.758 137.905 154.954C135.755 155.878 133.644 154.656 130.612 155.182C129.578 156.361 129.936 156.758 129.892 158.701C128.775 159.709 128.314 159.336 126.409 159.328C125.189 160.376 125.899 160.887 125.415 163.3C124.499 163.873 119.542 163.565 117.876 163.592C115.985 165.61 119.571 168.153 113.815 167.874C111.298 167.752 107.066 167.092 104.979 168.501C104.739 169.473 104.592 170.235 104.435 171.223C102.819 172.25 102.373 171.883 100.13 171.919C88.0213 171.766 75.5993 172.218 63.5893 171.855C62.3104 170.773 63.2337 169.58 62.8815 168.717C61.752 165.952 53.0703 169.173 50.6285 167.241C50.5345 165.737 50.6138 164.985 49.6944 163.754C47.6342 162.88 46.4552 163.929 44.3245 163.833C40.4068 163.655 43.1465 161.336 41.2494 159.424C39.9357 159.489 39.0985 159.697 38.0229 159.006C37.9298 157.722 37.8363 156.848 37.6183 155.58C35.1545 154.373 31.9672 156.317 29.6718 154.84C29.4166 153.518 29.4362 152.807 29.4328 151.482C28.0853 150.446 27.1537 151.233 25.9952 150.968C24.7569 150.684 26.2176 147.228 24.6487 146.891C23.7425 146.697 21.5642 147.215 21.1459 146.191C21.0935 145.725 21.3634 142.613 20.4548 142.68C14.5421 143.116 18.5058 140.562 16.305 138.375C14.9075 138.494 14.4647 138.617 13.1162 138.215C12.4011 136.662 12.9614 133.242 12.8483 130.864C11.781 129.624 11.3191 130.328 8.98946 129.796C8.25374 128.186 8.9351 124.777 8.72203 122.314C6.50459 120.365 4.05495 123.98 4.44093 117.637C4.58494 115.265 4.4914 112.21 4.50904 109.786C4.51736 108.562 1.64601 109.735 0.36071 108.338C-0.14577 103.823 -0.0865179 72.4292 0.337181 67.7476C1.57056 66.7764 1.92864 67.1166 3.81642 67.0945C5.87026 65.2949 3.58425 58.4405 4.46545 55.7344C5.16149 53.5969 6.53984 55.4373 8.73426 53.8812C9.48026 50.9423 8.15186 46.6006 8.65883 42.798C10.1543 41.342 9.87113 42.5245 12.5524 41.8267C13.6991 39.3612 11.7849 36.2181 13.2558 33.538C14.4682 33.3686 15.3376 33.3086 16.5617 33.2551L17.5364 32.1203C17.1078 29.5188 18.7767 29.7953 20.9907 28.8427C21.1102 27.7349 21.1601 26.8245 21.1993 25.7103C22.6169 24.6487 25.1939 25.7182 25.1865 24.6158C25.1454 18.4788 27.2433 22.4194 29.4441 20.467C29.2795 12.8834 34.0288 19.3283 37.7682 16.2603L37.8813 13.2964C39.5355 11.7074 39.8612 13.5974 42.0987 12.1356C42.1134 10.8152 42.133 10.2294 42.3573 8.93154C44.806 7.79429 48.3802 9.36955 50.4012 8.16405C50.5021 7.11961 50.583 6.07321 50.6437 5.02582C53.3064 2.97672 60.9643 6.15079 66.3328 4.08745C67.551 2.59224 67.143 2.65018 67.1841 0.238199Z" fill="#CB0602"/>
<path d="M67.2047 16.9772C77.2255 16.9679 87.5118 16.8112 97.5386 16.9841C99.0521 17.0101 99.6987 16.9423 100.468 17.8287C100.453 19.1962 100.272 20.1267 101.007 21.2271C103.818 21.8326 108.183 20.712 111.175 21.1633C114.124 21.6082 111.714 22.9134 113.473 25.2728C114.58 25.3494 115.584 25.3833 116.696 25.4034C117.827 26.717 116.745 27.8144 117.342 28.9924C118.312 30.8947 122.877 28.7518 125.258 29.9608C125.591 31.3494 125.537 31.8419 125.527 33.2497C126.541 34.11 127.511 33.782 129.167 33.7918C130.798 35.1839 129.044 35.7388 130.283 37.8635C131.655 38.1523 132.15 38.1366 133.56 38.1596C135.128 39.9107 133.301 40.3717 134.809 42.2745L137.249 42.4813C138.846 44.3423 137.121 44.5878 138.679 46.8682L140.472 47.1545C141.638 48.2397 141.878 52.0491 142.181 53.921C143.798 55.6141 144.155 53.8488 146.252 55.1004C146.8 56.9659 146.443 63.9328 146.521 66.6094C148.324 68.2937 148.441 66.3359 150.43 68.001C150.866 71.8635 151.091 102.951 149.925 104.614L147.261 104.782C145.11 106.392 147.094 113.196 146.453 116.203C145.924 118.68 142.554 116.52 142.265 118.234C141.922 120.277 143.141 123.734 141.667 125.484L138.655 125.548C137.704 126.573 138.057 127.413 138.037 129.194C136.96 130.577 136.534 129.685 134.741 130.008C133.609 130.214 134.56 133.724 133.35 133.951C131.562 134.289 131.386 133.454 129.906 134.778L129.862 137.572C128.794 138.631 128.354 138.247 126.404 138.253C125.155 139.252 125.767 139.865 125.473 142.233C123.7 143.111 120.859 142.602 118.493 142.562C116.132 143.997 118.626 144.485 116.896 146.552C111.028 146.413 114.413 147.247 112.615 150.695C109.637 151.971 105.582 150.056 101.251 151.112C100.34 152.207 100.605 153.324 100.502 155.044C90.5096 155.021 80.0567 155.369 70.0486 155.068C65.4164 154.928 68.5272 153.204 66.7403 150.995C63.6608 150.192 60.3677 151.287 57.1941 151.114C53.2187 150.896 56.1214 148.777 54.2478 146.624L50.9969 146.573C49.57 145.052 51.1639 144.562 49.9805 142.821C47.9683 142.085 45.7117 143.009 42.853 142.607C41.7916 141.606 42.1555 140.902 42.0899 138.996C41.1078 137.931 40.425 138.287 38.5392 138.206C37.5076 137.145 37.8735 136.739 37.8524 134.834C36.6621 133.108 36.5544 134.767 34.0626 133.755C33.7702 132.393 33.7883 131.794 33.781 130.394C32.793 129.603 31.9319 129.898 30.386 129.882C28.8959 128.15 30.6025 127.892 29.2286 125.586C28.0887 125.541 26.9499 125.485 25.8115 125.419C24.872 124.078 25.2237 120.199 25.2345 118.329C23.8429 116.46 23.6039 118.427 21.457 116.904C20.5821 113.769 21.8728 109.3 21.3174 105.357C19.7157 104.017 19.6309 105.643 17.3625 104.225C16.8962 100.16 17.0584 92.2431 17.0721 87.9381C17.0907 81.9323 16.7929 74.0545 17.2753 68.1842C18.5337 66.7052 18.5964 67.9342 21.0945 67.0067C21.7528 64.9247 20.8883 59.0504 21.262 55.6165C22.9206 53.3381 25.426 56.9428 26.0422 51.18C26.1221 50.4331 26.9655 47.9166 27.3476 47.152C28.4184 47.0946 28.9116 47.1937 29.7071 46.4916C29.834 45.179 29.8291 44.3172 29.8046 42.9973C30.7925 42.0501 31.3828 42.3668 33.1055 42.2986C34.7974 40.4793 32.913 39.6367 34.3301 38.0099L37.0942 38.0059C39.0182 36.4734 36.7258 36.0408 38.5367 33.8247L41.4903 33.7963C42.7134 32.8559 42.011 32.4169 42.4127 30.03C44.6821 28.8373 47.7077 30.5299 50.2695 29.3774C50.6501 27.9937 50.6119 27.2114 50.6378 25.8085C51.6111 25.0622 52.5065 25.3416 53.9892 25.3273L54.5976 24.6649C54.5574 23.29 54.43 22.7729 55.0218 21.5512C57.9558 20.3772 62.738 22.1798 66.5395 21.1147C67.4589 19.6416 67.1503 18.9419 67.2047 16.9772Z" fill="#D8D0CC"/>
<path d="M67.1939 33.6887C73.9976 33.7496 94.5605 33.1186 99.8506 33.9666C100.767 34.8991 100.497 35.5188 100.62 37.1427C102.261 39.4555 105.851 36.9423 108.682 38.1915C109.04 39.4682 108.976 40.1498 108.976 41.4442C110.245 42.3492 110.695 42.0133 112.537 42.002C114.198 43.7958 112.273 43.9941 113.678 45.9838L116.696 46.1189C117.969 47.7997 116.416 48.6217 117.891 50.3251L120.849 50.4115C121.868 51.5095 121.535 52.0212 121.623 53.8832C122.711 54.7562 123.347 54.4248 125.057 54.4204C126.624 56.1061 124.846 56.9085 126.198 58.657C127.217 58.7724 128.241 58.8628 129.265 58.9276C131.528 61.2389 128.207 69.1181 130.602 71.4314C131.939 71.4255 132.894 71.2271 133.879 72.0221C134.432 76.7651 134.378 99.1672 133.844 103.947C132.698 105.289 132.659 104.44 130.234 105.071C129.103 107.522 131.101 111.627 129.191 113.279C127.78 113.197 127.065 113.016 125.802 113.64C125.072 115.511 125.787 117.493 125.792 119.548C126.595 122.967 121.545 121.181 121.614 122.514C121.927 128.571 119.826 124.427 116.97 127.256C116.965 128.401 117.063 128.666 116.451 129.561C114.516 130.359 111.259 130.061 109.054 130.013L109.045 133.002C106.772 136.113 105.101 133.268 101.521 134.46C100.095 135.636 100.517 135.352 100.081 137.576L99.9682 138.163C97.9893 138.708 69.0636 138.6 67.2483 137.871C66.9965 136.642 66.9377 135.985 66.8579 134.732C64.9961 133.498 60.6396 135.536 58.8522 133.643C58.9119 132.251 59.0751 131.533 58.4701 130.284C56.4241 129.338 54.5608 130.33 52.2518 130.104C48.9239 129.779 51.6297 128.111 49.9148 125.904C48.8402 125.855 47.7665 125.784 46.6947 125.691L45.6014 124.378L45.89 123.296C45.2948 122.221 43.7582 121.835 42.4039 121.206C41.6711 119.609 42.3216 116.656 42.0855 114.142C41.0167 112.984 41.0206 113.528 39.2411 113.406C35.971 113.183 39.3704 107.563 37.3395 104.97L34.4672 104.703C33.1545 102.862 33.1471 73.124 34.4511 71.5802C34.8929 71.5566 35.3342 71.5267 35.7746 71.4908C40.8619 71.0636 35.6056 62.5083 38.6293 58.8927L41.5324 58.7302C42.4876 57.6175 42.1467 57.0911 42.1712 55.2708C43.4393 53.4373 44.1202 55.3622 46.0085 54.0432C46.1319 52.8819 46.1701 51.9907 46.1956 50.8225C47.1992 50.0516 48.3082 50.3654 49.8561 50.3737C51.5136 48.6335 49.4872 48.2357 51.0091 46.1199L53.7869 46.0786C55.0012 45.1132 54.2802 44.7562 54.7504 42.4439C57.2608 40.796 56.0783 42.741 58.4501 41.6033C58.7768 40.3796 58.9477 39.5876 59.1441 38.3364C61.5154 37.4972 63.6623 38.4484 66.5204 37.7653C67.5481 36.4587 67.1738 35.7084 67.1939 33.6887Z" fill="#CB0602"/>
<path d="M71.3036 50.3811C75.4132 50.3663 92.4689 49.9991 95.6577 50.6624C96.6667 51.6347 96.3728 52.3452 96.5198 54.1115C98.3664 55.6971 98.6358 53.811 100.463 55.2512L100.571 58.0202C102.177 59.8655 103.015 57.7535 104.852 59.4329L104.906 62.4498C105.973 63.4776 106.262 63.1422 108.094 63.1903C109.079 64.2711 108.736 64.5539 108.76 66.3958C109.828 68.0354 110.019 66.6718 112.655 67.6425C113.198 68.9684 113.076 73.1186 113.1 74.7818C114.325 76.632 114.487 74.9468 116.896 76.2559C117.621 80.4587 117.279 94.6978 116.97 99.8503C116.921 100.661 114.859 100.484 113.247 100.97C112.263 103.15 113.492 105.27 112.904 108.356C111.876 109.209 111.19 108.907 109.554 108.941C108.143 110.205 109.466 110.429 108.569 112.859C106.542 113.722 104.641 112.863 102.324 113.064C98.8121 113.367 101.923 114.98 99.6596 117.544C98.5868 117.694 98.4105 117.71 97.3231 117.626L97.0684 117.604C96.2112 118.867 96.4512 120 96.5099 121.589C89.3977 121.547 82.1532 121.794 75.0311 121.721C68.9475 121.659 72.5869 119.59 70.6805 117.447L67.8302 117.433C66.6923 116.197 67.3428 116.115 67.213 114.437C66.9603 111.163 61.5501 114.616 58.9923 112.472C59.0099 111.07 59.2201 110.102 58.3976 109.052C57.3332 108.958 56.2679 108.877 55.201 108.81C54.4398 107.349 55.0707 104.027 54.867 101.559C53.2951 99.8743 52.9885 101.738 50.7906 100.234C50.3591 97.0283 50.1343 80.0079 50.9837 76.1689C51.0895 75.6907 53.6733 75.5959 54.574 75.4972C55.0536 74.6968 54.7646 69.9161 54.8831 68.1896C56.2385 66.3334 56.8674 68.3246 58.9301 66.6423L58.9115 63.8345C60.5524 62.0246 60.8365 64.1523 62.8398 62.4601L62.8702 59.4525C64.4465 57.8188 64.7815 59.7113 67.1244 58.3197C67.1787 57.0754 67.2258 56.3855 67.4427 55.1608C69.2448 54.0413 68.6056 54.3438 70.9044 54.359C71.6846 53.1982 71.3893 51.8714 71.3036 50.3811Z" fill="#D8D0CC"/>
<path d="M75.6385 71.3916C80.865 71.204 87.0808 71.3204 92.3759 71.3003C92.3465 72.8132 92.1505 73.781 92.9147 75.0503C94.2176 74.9173 94.4037 74.8922 95.6331 75.3342C96.9116 76.6467 96.4904 76.5794 96.5736 78.9757C97.5729 80.1139 98.146 79.7299 100.125 79.9229C101.051 81.3391 101.139 94.6104 99.9191 96.3683L97.23 96.5357C95.9417 97.6823 96.8137 98.0879 96.27 100.592C94.5507 101.609 95.2169 101.367 92.9881 101.1C91.9301 102.571 92.2485 102.678 92.0526 104.766C89.5741 105.124 77.1815 105.465 75.6287 104.061L75.4965 101.376C74.4581 100.419 73.8751 100.799 72.053 100.841C70.2823 99.1432 72.1804 98.3575 70.6531 96.6074C69.2517 96.5785 68.7878 96.6334 67.4408 96.194C66.9216 93.1687 67.0524 83.5507 67.2703 80.4022C68.3573 79.5031 68.9965 79.8021 70.7011 79.7388C72.2146 78.2544 70.5125 77.5222 72.1755 75.3484C73.0669 75.2831 73.9584 75.2271 74.8499 75.181C75.8785 73.59 75.5454 73.5787 75.6385 71.3916Z" fill="#CB0602"/>
</svg>
